<?xml version="1.0" encoding="utf-8" standalone="no"?>
<!DOCTYPE svg PUBLIC "-//W3C//DTD SVG 1.1//EN"
  "http://www.w3.org/Graphics/SVG/1.1/DTD/svg11.dtd">
<svg xmlns:xlink="http://www.w3.org/1999/xlink" width="288pt" height="216pt" viewBox="0 0 288 216" xmlns="http://www.w3.org/2000/svg" version="1.1">
 <metadata>
  <rdf:RDF xmlns:dc="http://purl.org/dc/elements/1.1/" xmlns:cc="http://creativecommons.org/ns#" xmlns:rdf="http://www.w3.org/1999/02/22-rdf-syntax-ns#">
   <cc:Work>
    <dc:type rdf:resource="http://purl.org/dc/dcmitype/StillImage"/>
    <dc:date>2025-03-26T12:44:08.149566</dc:date>
    <dc:format>image/svg+xml</dc:format>
    <dc:creator>
     <cc:Agent>
      <dc:title>Matplotlib v3.9.2, https://matplotlib.org/</dc:title>
     </cc:Agent>
    </dc:creator>
   </cc:Work>
  </rdf:RDF>
 </metadata>
 <defs>
  <style type="text/css">*{stroke-linejoin: round; stroke-linecap: butt}</style>
 </defs>
 <g id="figure_1">
  <g id="patch_1">
   <path d="M 0 216 
L 288 216 
L 288 0 
L 0 0 
z
" style="fill: #ffffff"/>
  </g>
  <g id="axes_1">
   <g id="patch_2">
    <path d="M 78.23 174.04 
L 277.2 174.04 
L 277.2 10.8 
L 78.23 10.8 
z
" style="fill: #ffffff"/>
   </g>
   <g id="matplotlib.axis_1">
    <g id="xtick_1">
     <g id="line2d_1">
      <path d="M 111.939793 174.04 
L 111.939793 10.8 
" clip-path="url(#p0502bdf580)" style="fill: none; stroke: #b0b0b0; stroke-width: 0.8; stroke-linecap: square"/>
     </g>
     <g id="line2d_2">
      <defs>
       <path id="m6c72bf85e8" d="M 0 0 
L 0 3.5 
" style="stroke: #000000; stroke-width: 0.8"/>
      </defs>
      <g>
       <use xlink:href="#m6c72bf85e8" x="111.939793" y="174.04" style="stroke: #000000; stroke-width: 0.8"/>
      </g>
     </g>
     <g id="text_1">
      <!-- −2.5 -->
      <g transform="translate(99.798387 188.638438) scale(0.1 -0.1)">
       <defs>
        <path id="DejaVuSans-2212" d="M 678 2272 
L 4684 2272 
L 4684 1741 
L 678 1741 
L 678 2272 
z
" transform="scale(0.015625)"/>
        <path id="DejaVuSans-32" d="M 1228 531 
L 3431 531 
L 3431 0 
L 469 0 
L 469 531 
Q 828 903 1448 1529 
Q 2069 2156 2228 2338 
Q 2531 2678 2651 2914 
Q 2772 3150 2772 3378 
Q 2772 3750 2511 3984 
Q 2250 4219 1831 4219 
Q 1534 4219 1204 4116 
Q 875 4013 500 3803 
L 500 4441 
Q 881 4594 1212 4672 
Q 1544 4750 1819 4750 
Q 2544 4750 2975 4387 
Q 3406 4025 3406 3419 
Q 3406 3131 3298 2873 
Q 3191 2616 2906 2266 
Q 2828 2175 2409 1742 
Q 1991 1309 1228 531 
z
" transform="scale(0.015625)"/>
        <path id="DejaVuSans-2e" d="M 684 794 
L 1344 794 
L 1344 0 
L 684 0 
L 684 794 
z
" transform="scale(0.015625)"/>
        <path id="DejaVuSans-35" d="M 691 4666 
L 3169 4666 
L 3169 4134 
L 1269 4134 
L 1269 2991 
Q 1406 3038 1543 3061 
Q 1681 3084 1819 3084 
Q 2600 3084 3056 2656 
Q 3513 2228 3513 1497 
Q 3513 744 3044 326 
Q 2575 -91 1722 -91 
Q 1428 -91 1123 -41 
Q 819 9 494 109 
L 494 744 
Q 775 591 1075 516 
Q 1375 441 1709 441 
Q 2250 441 2565 725 
Q 2881 1009 2881 1497 
Q 2881 1984 2565 2268 
Q 2250 2553 1709 2553 
Q 1456 2553 1204 2497 
Q 953 2441 691 2322 
L 691 4666 
z
" transform="scale(0.015625)"/>
       </defs>
       <use xlink:href="#DejaVuSans-2212"/>
       <use xlink:href="#DejaVuSans-32" x="83.789062"/>
       <use xlink:href="#DejaVuSans-2e" x="147.412109"/>
       <use xlink:href="#DejaVuSans-35" x="179.199219"/>
      </g>
     </g>
    </g>
    <g id="xtick_2">
     <g id="line2d_3">
      <path d="M 153.049298 174.04 
L 153.049298 10.8 
" clip-path="url(#p0502bdf580)" style="fill: none; stroke: #b0b0b0; stroke-width: 0.8; stroke-linecap: square"/>
     </g>
     <g id="line2d_4">
      <g>
       <use xlink:href="#m6c72bf85e8" x="153.049298" y="174.04" style="stroke: #000000; stroke-width: 0.8"/>
      </g>
     </g>
     <g id="text_2">
      <!-- 0.0 -->
      <g transform="translate(145.097735 188.638438) scale(0.1 -0.1)">
       <defs>
        <path id="DejaVuSans-30" d="M 2034 4250 
Q 1547 4250 1301 3770 
Q 1056 3291 1056 2328 
Q 1056 1369 1301 889 
Q 1547 409 2034 409 
Q 2525 409 2770 889 
Q 3016 1369 3016 2328 
Q 3016 3291 2770 3770 
Q 2525 4250 2034 4250 
z
M 2034 4750 
Q 2819 4750 3233 4129 
Q 3647 3509 3647 2328 
Q 3647 1150 3233 529 
Q 2819 -91 2034 -91 
Q 1250 -91 836 529 
Q 422 1150 422 2328 
Q 422 3509 836 4129 
Q 1250 4750 2034 4750 
z
" transform="scale(0.015625)"/>
       </defs>
       <use xlink:href="#DejaVuSans-30"/>
       <use xlink:href="#DejaVuSans-2e" x="63.623047"/>
       <use xlink:href="#DejaVuSans-30" x="95.410156"/>
      </g>
     </g>
    </g>
    <g id="xtick_3">
     <g id="line2d_5">
      <path d="M 194.158802 174.04 
L 194.158802 10.8 
" clip-path="url(#p0502bdf580)" style="fill: none; stroke: #b0b0b0; stroke-width: 0.8; stroke-linecap: square"/>
     </g>
     <g id="line2d_6">
      <g>
       <use xlink:href="#m6c72bf85e8" x="194.158802" y="174.04" style="stroke: #000000; stroke-width: 0.8"/>
      </g>
     </g>
     <g id="text_3">
      <!-- 2.5 -->
      <g transform="translate(186.207239 188.638438) scale(0.1 -0.1)">
       <use xlink:href="#DejaVuSans-32"/>
       <use xlink:href="#DejaVuSans-2e" x="63.623047"/>
       <use xlink:href="#DejaVuSans-35" x="95.410156"/>
      </g>
     </g>
    </g>
    <g id="xtick_4">
     <g id="line2d_7">
      <path d="M 235.268306 174.04 
L 235.268306 10.8 
" clip-path="url(#p0502bdf580)" style="fill: none; stroke: #b0b0b0; stroke-width: 0.8; stroke-linecap: square"/>
     </g>
     <g id="line2d_8">
      <g>
       <use xlink:href="#m6c72bf85e8" x="235.268306" y="174.04" style="stroke: #000000; stroke-width: 0.8"/>
      </g>
     </g>
     <g id="text_4">
      <!-- 5.0 -->
      <g transform="translate(227.316743 188.638438) scale(0.1 -0.1)">
       <use xlink:href="#DejaVuSans-35"/>
       <use xlink:href="#DejaVuSans-2e" x="63.623047"/>
       <use xlink:href="#DejaVuSans-30" x="95.410156"/>
      </g>
     </g>
    </g>
    <g id="xtick_5">
     <g id="line2d_9">
      <path d="M 276.37781 174.04 
L 276.37781 10.8 
" clip-path="url(#p0502bdf580)" style="fill: none; stroke: #b0b0b0; stroke-width: 0.8; stroke-linecap: square"/>
     </g>
     <g id="line2d_10">
      <g>
       <use xlink:href="#m6c72bf85e8" x="276.37781" y="174.04" style="stroke: #000000; stroke-width: 0.8"/>
      </g>
     </g>
     <g id="text_5">
      <!-- 7.5 -->
      <g transform="translate(268.426247 188.638438) scale(0.1 -0.1)">
       <defs>
        <path id="DejaVuSans-37" d="M 525 4666 
L 3525 4666 
L 3525 4397 
L 1831 0 
L 1172 0 
L 2766 4134 
L 525 4134 
L 525 4666 
z
" transform="scale(0.015625)"/>
       </defs>
       <use xlink:href="#DejaVuSans-37"/>
       <use xlink:href="#DejaVuSans-2e" x="63.623047"/>
       <use xlink:href="#DejaVuSans-35" x="95.410156"/>
      </g>
     </g>
    </g>
    <g id="text_6">
     <!-- $\alpha$ -->
     <g transform="translate(174.415 202.316563) scale(0.1 -0.1)">
      <defs>
       <path id="DejaVuSans-Oblique-3b1" d="M 2619 1628 
L 2622 2350 
Q 2625 3088 2069 3091 
Q 1653 3094 1394 2747 
Q 1069 2319 959 1747 
Q 825 1059 994 731 
Q 1169 397 1547 397 
Q 1966 397 2319 1063 
L 2619 1628 
z
M 2166 3578 
Q 3141 3594 3128 2584 
Q 3128 2584 3616 3500 
L 4128 3500 
L 3119 1603 
L 3109 919 
Q 3109 766 3194 638 
Q 3291 488 3391 488 
L 3669 488 
L 3575 0 
L 3228 0 
Q 2934 0 2722 263 
Q 2622 394 2619 669 
Q 2416 334 2066 50 
Q 1900 -81 1453 -78 
Q 722 -72 456 397 
Q 184 884 353 1747 
Q 534 2675 1009 3097 
Q 1544 3569 2166 3578 
z
" transform="scale(0.015625)"/>
      </defs>
      <use xlink:href="#DejaVuSans-Oblique-3b1" transform="translate(0 0.84375)"/>
     </g>
    </g>
   </g>
   <g id="matplotlib.axis_2">
    <g id="ytick_1">
     <g id="line2d_11">
      <path d="M 78.23 162.857464 
L 277.2 162.857464 
" clip-path="url(#p0502bdf580)" style="fill: none; stroke: #b0b0b0; stroke-width: 0.8; stroke-linecap: square"/>
     </g>
     <g id="line2d_12">
      <defs>
       <path id="mbe09cdf03e" d="M 0 0 
L -3.5 0 
" style="stroke: #000000; stroke-width: 0.8"/>
      </defs>
      <g>
       <use xlink:href="#mbe09cdf03e" x="78.23" y="162.857464" style="stroke: #000000; stroke-width: 0.8"/>
      </g>
     </g>
     <g id="text_7">
      <!-- −0.0050 -->
      <g transform="translate(27.859688 166.656682) scale(0.1 -0.1)">
       <use xlink:href="#DejaVuSans-2212"/>
       <use xlink:href="#DejaVuSans-30" x="83.789062"/>
       <use xlink:href="#DejaVuSans-2e" x="147.412109"/>
       <use xlink:href="#DejaVuSans-30" x="179.199219"/>
       <use xlink:href="#DejaVuSans-30" x="242.822266"/>
       <use xlink:href="#DejaVuSans-35" x="306.445312"/>
       <use xlink:href="#DejaVuSans-30" x="370.068359"/>
      </g>
     </g>
    </g>
    <g id="ytick_2">
     <g id="line2d_13">
      <path d="M 78.23 139.329011 
L 277.2 139.329011 
" clip-path="url(#p0502bdf580)" style="fill: none; stroke: #b0b0b0; stroke-width: 0.8; stroke-linecap: square"/>
     </g>
     <g id="line2d_14">
      <g>
       <use xlink:href="#mbe09cdf03e" x="78.23" y="139.329011" style="stroke: #000000; stroke-width: 0.8"/>
      </g>
     </g>
     <g id="text_8">
      <!-- −0.0025 -->
      <g transform="translate(27.859688 143.12823) scale(0.1 -0.1)">
       <use xlink:href="#DejaVuSans-2212"/>
       <use xlink:href="#DejaVuSans-30" x="83.789062"/>
       <use xlink:href="#DejaVuSans-2e" x="147.412109"/>
       <use xlink:href="#DejaVuSans-30" x="179.199219"/>
       <use xlink:href="#DejaVuSans-30" x="242.822266"/>
       <use xlink:href="#DejaVuSans-32" x="306.445312"/>
       <use xlink:href="#DejaVuSans-35" x="370.068359"/>
      </g>
     </g>
    </g>
    <g id="ytick_3">
     <g id="line2d_15">
      <path d="M 78.23 115.800559 
L 277.2 115.800559 
" clip-path="url(#p0502bdf580)" style="fill: none; stroke: #b0b0b0; stroke-width: 0.8; stroke-linecap: square"/>
     </g>
     <g id="line2d_16">
      <g>
       <use xlink:href="#mbe09cdf03e" x="78.23" y="115.800559" style="stroke: #000000; stroke-width: 0.8"/>
      </g>
     </g>
     <g id="text_9">
      <!-- 0.0000 -->
      <g transform="translate(36.239375 119.599778) scale(0.1 -0.1)">
       <use xlink:href="#DejaVuSans-30"/>
       <use xlink:href="#DejaVuSans-2e" x="63.623047"/>
       <use xlink:href="#DejaVuSans-30" x="95.410156"/>
       <use xlink:href="#DejaVuSans-30" x="159.033203"/>
       <use xlink:href="#DejaVuSans-30" x="222.65625"/>
       <use xlink:href="#DejaVuSans-30" x="286.279297"/>
      </g>
     </g>
    </g>
    <g id="ytick_4">
     <g id="line2d_17">
      <path d="M 78.23 92.272106 
L 277.2 92.272106 
" clip-path="url(#p0502bdf580)" style="fill: none; stroke: #b0b0b0; stroke-width: 0.8; stroke-linecap: square"/>
     </g>
     <g id="line2d_18">
      <g>
       <use xlink:href="#mbe09cdf03e" x="78.23" y="92.272106" style="stroke: #000000; stroke-width: 0.8"/>
      </g>
     </g>
     <g id="text_10">
      <!-- 0.0025 -->
      <g transform="translate(36.239375 96.071325) scale(0.1 -0.1)">
       <use xlink:href="#DejaVuSans-30"/>
       <use xlink:href="#DejaVuSans-2e" x="63.623047"/>
       <use xlink:href="#DejaVuSans-30" x="95.410156"/>
       <use xlink:href="#DejaVuSans-30" x="159.033203"/>
       <use xlink:href="#DejaVuSans-32" x="222.65625"/>
       <use xlink:href="#DejaVuSans-35" x="286.279297"/>
      </g>
     </g>
    </g>
    <g id="ytick_5">
     <g id="line2d_19">
      <path d="M 78.23 68.743654 
L 277.2 68.743654 
" clip-path="url(#p0502bdf580)" style="fill: none; stroke: #b0b0b0; stroke-width: 0.8; stroke-linecap: square"/>
     </g>
     <g id="line2d_20">
      <g>
       <use xlink:href="#mbe09cdf03e" x="78.23" y="68.743654" style="stroke: #000000; stroke-width: 0.8"/>
      </g>
     </g>
     <g id="text_11">
      <!-- 0.0050 -->
      <g transform="translate(36.239375 72.542873) scale(0.1 -0.1)">
       <use xlink:href="#DejaVuSans-30"/>
       <use xlink:href="#DejaVuSans-2e" x="63.623047"/>
       <use xlink:href="#DejaVuSans-30" x="95.410156"/>
       <use xlink:href="#DejaVuSans-30" x="159.033203"/>
       <use xlink:href="#DejaVuSans-35" x="222.65625"/>
       <use xlink:href="#DejaVuSans-30" x="286.279297"/>
      </g>
     </g>
    </g>
    <g id="ytick_6">
     <g id="line2d_21">
      <path d="M 78.23 45.215202 
L 277.2 45.215202 
" clip-path="url(#p0502bdf580)" style="fill: none; stroke: #b0b0b0; stroke-width: 0.8; stroke-linecap: square"/>
     </g>
     <g id="line2d_22">
      <g>
       <use xlink:href="#mbe09cdf03e" x="78.23" y="45.215202" style="stroke: #000000; stroke-width: 0.8"/>
      </g>
     </g>
     <g id="text_12">
      <!-- 0.0075 -->
      <g transform="translate(36.239375 49.01442) scale(0.1 -0.1)">
       <use xlink:href="#DejaVuSans-30"/>
       <use xlink:href="#DejaVuSans-2e" x="63.623047"/>
       <use xlink:href="#DejaVuSans-30" x="95.410156"/>
       <use xlink:href="#DejaVuSans-30" x="159.033203"/>
       <use xlink:href="#DejaVuSans-37" x="222.65625"/>
       <use xlink:href="#DejaVuSans-35" x="286.279297"/>
      </g>
     </g>
    </g>
    <g id="ytick_7">
     <g id="line2d_23">
      <path d="M 78.23 21.686749 
L 277.2 21.686749 
" clip-path="url(#p0502bdf580)" style="fill: none; stroke: #b0b0b0; stroke-width: 0.8; stroke-linecap: square"/>
     </g>
     <g id="line2d_24">
      <g>
       <use xlink:href="#mbe09cdf03e" x="78.23" y="21.686749" style="stroke: #000000; stroke-width: 0.8"/>
      </g>
     </g>
     <g id="text_13">
      <!-- 0.0100 -->
      <g transform="translate(36.239375 25.485968) scale(0.1 -0.1)">
       <defs>
        <path id="DejaVuSans-31" d="M 794 531 
L 1825 531 
L 1825 4091 
L 703 3866 
L 703 4441 
L 1819 4666 
L 2450 4666 
L 2450 531 
L 3481 531 
L 3481 0 
L 794 0 
L 794 531 
z
" transform="scale(0.015625)"/>
       </defs>
       <use xlink:href="#DejaVuSans-30"/>
       <use xlink:href="#DejaVuSans-2e" x="63.623047"/>
       <use xlink:href="#DejaVuSans-30" x="95.410156"/>
       <use xlink:href="#DejaVuSans-31" x="159.033203"/>
       <use xlink:href="#DejaVuSans-30" x="222.65625"/>
       <use xlink:href="#DejaVuSans-30" x="286.279297"/>
      </g>
     </g>
    </g>
    <g id="text_14">
     <!-- $dCD/dalpha$ -->
     <g transform="translate(21.759688 121.67) rotate(-90) scale(0.1 -0.1)">
      <defs>
       <path id="DejaVuSans-Oblique-64" d="M 2675 525 
Q 2444 222 2128 65 
Q 1813 -91 1428 -91 
Q 903 -91 598 267 
Q 294 625 294 1247 
Q 294 1766 478 2236 
Q 663 2706 1013 3078 
Q 1244 3325 1534 3454 
Q 1825 3584 2144 3584 
Q 2481 3584 2739 3421 
Q 2997 3259 3138 2956 
L 3513 4863 
L 4091 4863 
L 3144 0 
L 2566 0 
L 2675 525 
z
M 891 1350 
Q 891 897 1095 644 
Q 1300 391 1663 391 
Q 1931 391 2161 520 
Q 2391 650 2566 903 
Q 2750 1166 2856 1509 
Q 2963 1853 2963 2188 
Q 2963 2622 2758 2865 
Q 2553 3109 2194 3109 
Q 1922 3109 1687 2981 
Q 1453 2853 1288 2613 
Q 1106 2353 998 2009 
Q 891 1666 891 1350 
z
" transform="scale(0.015625)"/>
       <path id="DejaVuSans-Oblique-43" d="M 4447 4306 
L 4319 3641 
Q 4019 3944 3683 4091 
Q 3347 4238 2956 4238 
Q 2422 4238 2017 3981 
Q 1613 3725 1319 3200 
Q 1131 2863 1032 2486 
Q 934 2109 934 1728 
Q 934 1091 1264 756 
Q 1594 422 2222 422 
Q 2656 422 3056 561 
Q 3456 700 3834 978 
L 3688 231 
Q 3316 72 2936 -9 
Q 2556 -91 2175 -91 
Q 1278 -91 773 396 
Q 269 884 269 1753 
Q 269 2309 461 2846 
Q 653 3384 1013 3828 
Q 1394 4300 1883 4525 
Q 2372 4750 3022 4750 
Q 3422 4750 3780 4639 
Q 4138 4528 4447 4306 
z
" transform="scale(0.015625)"/>
       <path id="DejaVuSans-Oblique-44" d="M 1081 4666 
L 2438 4666 
Q 3519 4666 4070 4208 
Q 4622 3750 4622 2847 
Q 4622 2250 4412 1698 
Q 4203 1147 3834 769 
Q 3463 381 2891 190 
Q 2319 0 1538 0 
L 172 0 
L 1081 4666 
z
M 1613 4147 
L 909 519 
L 1734 519 
Q 2794 519 3375 1128 
Q 3956 1738 3956 2847 
Q 3956 3519 3581 3833 
Q 3206 4147 2406 4147 
L 1613 4147 
z
" transform="scale(0.015625)"/>
       <path id="DejaVuSans-2f" d="M 1625 4666 
L 2156 4666 
L 531 -594 
L 0 -594 
L 1625 4666 
z
" transform="scale(0.015625)"/>
       <path id="DejaVuSans-Oblique-61" d="M 3438 1997 
L 3047 0 
L 2472 0 
L 2578 531 
Q 2325 219 2001 64 
Q 1678 -91 1281 -91 
Q 834 -91 548 182 
Q 263 456 263 884 
Q 263 1497 752 1853 
Q 1241 2209 2100 2209 
L 2900 2209 
L 2931 2363 
Q 2938 2388 2941 2417 
Q 2944 2447 2944 2509 
Q 2944 2788 2717 2942 
Q 2491 3097 2081 3097 
Q 1800 3097 1504 3025 
Q 1209 2953 897 2809 
L 997 3341 
Q 1322 3463 1633 3523 
Q 1944 3584 2234 3584 
Q 2853 3584 3176 3315 
Q 3500 3047 3500 2534 
Q 3500 2431 3484 2292 
Q 3469 2153 3438 1997 
z
M 2816 1759 
L 2241 1759 
Q 1534 1759 1195 1570 
Q 856 1381 856 984 
Q 856 709 1029 553 
Q 1203 397 1509 397 
Q 1978 397 2328 733 
Q 2678 1069 2791 1631 
L 2816 1759 
z
" transform="scale(0.015625)"/>
       <path id="DejaVuSans-Oblique-6c" d="M 1172 4863 
L 1747 4863 
L 800 0 
L 225 0 
L 1172 4863 
z
" transform="scale(0.015625)"/>
       <path id="DejaVuSans-Oblique-70" d="M 3175 2156 
Q 3175 2616 2975 2859 
Q 2775 3103 2400 3103 
Q 2144 3103 1911 2972 
Q 1678 2841 1497 2591 
Q 1319 2344 1212 1994 
Q 1106 1644 1106 1300 
Q 1106 863 1306 627 
Q 1506 391 1875 391 
Q 2147 391 2380 519 
Q 2613 647 2778 891 
Q 2956 1147 3065 1494 
Q 3175 1841 3175 2156 
z
M 1394 2969 
Q 1625 3272 1939 3428 
Q 2253 3584 2638 3584 
Q 3175 3584 3472 3232 
Q 3769 2881 3769 2247 
Q 3769 1728 3584 1258 
Q 3400 788 3053 416 
Q 2822 169 2531 39 
Q 2241 -91 1919 -91 
Q 1547 -91 1294 64 
Q 1041 219 916 525 
L 556 -1331 
L -19 -1331 
L 922 3500 
L 1497 3500 
L 1394 2969 
z
" transform="scale(0.015625)"/>
       <path id="DejaVuSans-Oblique-68" d="M 3566 2113 
L 3156 0 
L 2578 0 
L 2988 2091 
Q 3016 2238 3031 2350 
Q 3047 2463 3047 2528 
Q 3047 2791 2881 2937 
Q 2716 3084 2419 3084 
Q 1956 3084 1617 2771 
Q 1278 2459 1178 1941 
L 800 0 
L 225 0 
L 1172 4863 
L 1747 4863 
L 1375 2950 
Q 1594 3244 1934 3414 
Q 2275 3584 2650 3584 
Q 3113 3584 3367 3334 
Q 3622 3084 3622 2631 
Q 3622 2519 3608 2391 
Q 3594 2263 3566 2113 
z
" transform="scale(0.015625)"/>
      </defs>
      <use xlink:href="#DejaVuSans-Oblique-64" transform="translate(0 0.015625)"/>
      <use xlink:href="#DejaVuSans-Oblique-43" transform="translate(63.476562 0.015625)"/>
      <use xlink:href="#DejaVuSans-Oblique-44" transform="translate(133.300781 0.015625)"/>
      <use xlink:href="#DejaVuSans-2f" transform="translate(210.302734 0.015625)"/>
      <use xlink:href="#DejaVuSans-Oblique-64" transform="translate(243.994141 0.015625)"/>
      <use xlink:href="#DejaVuSans-Oblique-61" transform="translate(307.470703 0.015625)"/>
      <use xlink:href="#DejaVuSans-Oblique-6c" transform="translate(368.75 0.015625)"/>
      <use xlink:href="#DejaVuSans-Oblique-70" transform="translate(396.533203 0.015625)"/>
      <use xlink:href="#DejaVuSans-Oblique-68" transform="translate(460.009766 0.015625)"/>
      <use xlink:href="#DejaVuSans-Oblique-61" transform="translate(523.388672 0.015625)"/>
     </g>
    </g>
   </g>
   <g id="line2d_25">
    <path d="M 87.274091 166.62 
L 89.10118 165.446428 
L 90.928269 164.271242 
L 92.755358 163.094442 
L 94.582447 161.916028 
L 96.409536 160.736 
L 98.236625 159.554358 
L 100.063714 158.371102 
L 101.890803 157.186232 
L 103.717893 155.999748 
L 105.544982 154.811651 
L 107.372071 153.621939 
L 109.19916 152.430613 
L 111.026249 151.237673 
L 112.853338 150.043119 
L 114.680427 148.846951 
L 116.507516 147.649169 
L 118.334605 146.449773 
L 120.161694 145.248763 
L 121.988783 144.046139 
L 123.815872 142.841901 
L 125.642961 141.63605 
L 127.470051 140.428584 
L 129.29714 139.219504 
L 131.124229 138.00881 
L 132.951318 136.796502 
L 134.778407 135.58258 
L 136.605496 134.367044 
L 138.432585 133.149895 
L 140.259674 131.931131 
L 142.086763 130.710753 
L 143.913852 129.488761 
L 145.740941 128.265155 
L 147.56803 127.039935 
L 149.395119 125.813101 
L 151.222208 124.584654 
L 153.049298 123.354592 
L 154.876387 122.122916 
L 156.703476 120.889626 
L 158.530565 119.654722 
L 160.357654 118.418204 
L 162.184743 117.180073 
L 164.011832 115.940327 
L 165.838921 114.698967 
L 167.66601 113.455993 
L 169.493099 112.211405 
L 171.320188 110.965204 
L 173.147277 109.717388 
L 174.974366 108.467958 
L 176.801455 107.216914 
L 178.628545 105.964256 
L 180.455634 104.709985 
L 182.282723 103.454099 
L 184.109812 102.196599 
L 185.936901 100.937485 
L 187.76399 99.676758 
L 189.591079 98.414416 
L 191.418168 97.15046 
L 193.245257 95.88489 
L 195.072346 94.617707 
L 196.899435 93.348909 
L 198.726524 92.078497 
L 200.553613 90.806471 
L 202.380702 89.532832 
L 204.207792 88.257578 
L 206.034881 86.98071 
L 207.86197 85.702228 
L 209.689059 84.422133 
L 211.516148 83.140423 
L 213.343237 81.857099 
L 215.170326 80.572162 
L 216.997415 79.28561 
L 218.824504 77.997444 
L 220.651593 76.707665 
L 222.478682 75.416271 
L 224.305771 74.123263 
L 226.13286 72.828641 
L 227.959949 71.532406 
L 229.787039 70.234556 
L 231.614128 68.935092 
L 233.441217 67.634015 
L 235.268306 66.331323 
L 237.095395 65.027017 
L 238.922484 63.721098 
L 240.749573 62.413564 
L 242.576662 61.104416 
L 244.403751 59.793655 
L 246.23084 58.481279 
L 248.057929 57.167289 
L 249.885018 55.851686 
L 251.712107 54.534468 
L 253.539197 53.215637 
L 255.366286 51.895191 
L 257.193375 50.573131 
L 259.020464 49.249458 
L 260.847553 47.92417 
L 262.674642 46.597268 
L 264.501731 45.268753 
L 266.32882 43.938623 
L 268.155909 42.60688 
" clip-path="url(#p0502bdf580)" style="fill: none; stroke: #440154; stroke-width: 1.5; stroke-linecap: square"/>
   </g>
   <g id="line2d_26">
    <path d="M 87.274091 156.103723 
L 89.10118 154.91321 
L 90.928269 153.721083 
L 92.755358 152.527342 
L 94.582447 151.331987 
L 96.409536 150.135018 
L 98.236625 148.936435 
L 100.063714 147.736238 
L 101.890803 146.534427 
L 103.717893 145.331002 
L 105.544982 144.125963 
L 107.372071 142.91931 
L 109.19916 141.711043 
L 111.026249 140.501162 
L 112.853338 139.289667 
L 114.680427 138.076558 
L 116.507516 136.861836 
L 118.334605 135.645499 
L 120.161694 134.427548 
L 121.988783 133.207983 
L 123.815872 131.986804 
L 125.642961 130.764011 
L 127.470051 129.539604 
L 129.29714 128.313583 
L 131.124229 127.085948 
L 132.951318 125.856699 
L 134.778407 124.625836 
L 136.605496 123.393359 
L 138.432585 122.159268 
L 140.259674 120.923564 
L 142.086763 119.686245 
L 143.913852 118.447312 
L 145.740941 117.206765 
L 147.56803 115.964604 
L 149.395119 114.720829 
L 151.222208 113.47544 
L 153.049298 112.228437 
L 154.876387 110.979821 
L 156.703476 109.72959 
L 158.530565 108.477745 
L 160.357654 107.224286 
L 162.184743 105.969213 
L 164.011832 104.712526 
L 165.838921 103.454225 
L 167.66601 102.194311 
L 169.493099 100.932782 
L 171.320188 99.669639 
L 173.147277 98.404882 
L 174.974366 97.138511 
L 176.801455 95.870526 
L 178.628545 94.600928 
L 180.455634 93.329715 
L 182.282723 92.056888 
L 184.109812 90.782447 
L 185.936901 89.506392 
L 187.76399 88.228724 
L 189.591079 86.949441 
L 191.418168 85.668544 
L 193.245257 84.386033 
L 195.072346 83.101908 
L 196.899435 81.81617 
L 198.726524 80.528817 
L 200.553613 79.23985 
L 202.380702 77.949269 
L 204.207792 76.657074 
L 206.034881 75.363266 
L 207.86197 74.067843 
L 209.689059 72.770806 
L 211.516148 71.472155 
L 213.343237 70.171891 
L 215.170326 68.870012 
L 216.997415 67.566519 
L 218.824504 66.261412 
L 220.651593 64.954692 
L 222.478682 63.646357 
L 224.305771 62.336408 
L 226.13286 61.024846 
L 227.959949 59.711669 
L 229.787039 58.396878 
L 231.614128 57.080473 
L 233.441217 55.762455 
L 235.268306 54.442822 
L 237.095395 53.121575 
L 238.922484 51.798715 
L 240.749573 50.47424 
L 242.576662 49.148151 
L 244.403751 47.820448 
L 246.23084 46.491132 
L 248.057929 45.160201 
L 249.885018 43.827656 
L 251.712107 42.493498 
L 253.539197 41.157725 
L 255.366286 39.820338 
L 257.193375 38.481338 
L 259.020464 37.140723 
L 260.847553 35.798494 
L 262.674642 34.454652 
L 264.501731 33.109195 
L 266.32882 31.762124 
L 268.155909 30.41344 
" clip-path="url(#p0502bdf580)" style="fill: none; stroke: #21918c; stroke-width: 1.5; stroke-linecap: square"/>
   </g>
   <g id="line2d_27">
    <path d="M 87.274091 145.587446 
L 89.10118 144.379992 
L 90.928269 143.170924 
L 92.755358 141.960242 
L 94.582447 140.747946 
L 96.409536 139.534036 
L 98.236625 138.318512 
L 100.063714 137.101374 
L 101.890803 135.882622 
L 103.717893 134.662256 
L 105.544982 133.440276 
L 107.372071 132.216682 
L 109.19916 130.991474 
L 111.026249 129.764652 
L 112.853338 128.536216 
L 114.680427 127.306166 
L 116.507516 126.074502 
L 118.334605 124.841224 
L 120.161694 123.606332 
L 121.988783 122.369826 
L 123.815872 121.131706 
L 125.642961 119.891972 
L 127.470051 118.650624 
L 129.29714 117.407662 
L 131.124229 116.163086 
L 132.951318 114.916896 
L 134.778407 113.669092 
L 136.605496 112.419674 
L 138.432585 111.168642 
L 140.259674 109.915996 
L 142.086763 108.661737 
L 143.913852 107.405863 
L 145.740941 106.148375 
L 147.56803 104.889273 
L 149.395119 103.628557 
L 151.222208 102.366227 
L 153.049298 101.102283 
L 154.876387 99.836725 
L 156.703476 98.569553 
L 158.530565 97.300767 
L 160.357654 96.030367 
L 162.184743 94.758354 
L 164.011832 93.484726 
L 165.838921 92.209484 
L 167.66601 90.932628 
L 169.493099 89.654158 
L 171.320188 88.374074 
L 173.147277 87.092376 
L 174.974366 85.809064 
L 176.801455 84.524139 
L 178.628545 83.237599 
L 180.455634 81.949445 
L 182.282723 80.659677 
L 184.109812 79.368295 
L 185.936901 78.075299 
L 187.76399 76.780689 
L 189.591079 75.484466 
L 191.418168 74.186628 
L 193.245257 72.887176 
L 195.072346 71.58611 
L 196.899435 70.28343 
L 198.726524 68.979136 
L 200.553613 67.673229 
L 202.380702 66.365707 
L 204.207792 65.056571 
L 206.034881 63.745821 
L 207.86197 62.433457 
L 209.689059 61.11948 
L 211.516148 59.803888 
L 213.343237 58.486682 
L 215.170326 57.167862 
L 216.997415 55.847428 
L 218.824504 54.525381 
L 220.651593 53.201719 
L 222.478682 51.876443 
L 224.305771 50.549553 
L 226.13286 49.22105 
L 227.959949 47.890932 
L 229.787039 46.5592 
L 231.614128 45.225854 
L 233.441217 43.890895 
L 235.268306 42.554321 
L 237.095395 41.216133 
L 238.922484 39.876331 
L 240.749573 38.534916 
L 242.576662 37.191886 
L 244.403751 35.847242 
L 246.23084 34.500984 
L 248.057929 33.153113 
L 249.885018 31.803627 
L 251.712107 30.452527 
L 253.539197 29.099814 
L 255.366286 27.745486 
L 257.193375 26.389544 
L 259.020464 25.031988 
L 260.847553 23.672819 
L 262.674642 22.312035 
L 264.501731 20.949637 
L 266.32882 19.585626 
L 268.155909 18.22 
" clip-path="url(#p0502bdf580)" style="fill: none; stroke: #fde725; stroke-width: 1.5; stroke-linecap: square"/>
   </g>
   <g id="patch_3">
    <path d="M 78.23 174.04 
L 78.23 10.8 
" style="fill: none; stroke: #000000; stroke-width: 0.8; stroke-linejoin: miter; stroke-linecap: square"/>
   </g>
   <g id="patch_4">
    <path d="M 277.2 174.04 
L 277.2 10.8 
" style="fill: none; stroke: #000000; stroke-width: 0.8; stroke-linejoin: miter; stroke-linecap: square"/>
   </g>
   <g id="patch_5">
    <path d="M 78.23 174.04 
L 277.2 174.04 
" style="fill: none; stroke: #000000; stroke-width: 0.8; stroke-linejoin: miter; stroke-linecap: square"/>
   </g>
   <g id="patch_6">
    <path d="M 78.23 10.8 
L 277.2 10.8 
" style="fill: none; stroke: #000000; stroke-width: 0.8; stroke-linejoin: miter; stroke-linecap: square"/>
   </g>
   <g id="legend_1">
    <g id="patch_7">
     <path d="M 85.23 62.834375 
L 165.23 62.834375 
Q 167.23 62.834375 167.23 60.834375 
L 167.23 17.8 
Q 167.23 15.8 165.23 15.8 
L 85.23 15.8 
Q 83.23 15.8 83.23 17.8 
L 83.23 60.834375 
Q 83.23 62.834375 85.23 62.834375 
z
" style="fill: #ffffff; opacity: 0.8; stroke: #cccccc; stroke-linejoin: miter"/>
    </g>
    <g id="line2d_28">
     <path d="M 87.23 23.898438 
L 97.23 23.898438 
L 107.23 23.898438 
" style="fill: none; stroke: #440154; stroke-width: 1.5; stroke-linecap: square"/>
    </g>
    <g id="text_15">
     <!-- $\delta_e = -10$ -->
     <g transform="translate(115.23 27.398438) scale(0.1 -0.1)">
      <defs>
       <path id="DejaVuSans-Oblique-3b4" d="M 3472 4053 
Q 3197 4272 2450 4272 
Q 1659 4272 1588 3906 
Q 1531 3619 2328 3469 
Q 2953 3353 3253 3003 
Q 3616 2581 3447 1716 
Q 3284 888 2763 400 
Q 2238 -91 1488 -91 
Q 741 -91 406 400 
Q 72 888 241 1747 
Q 363 2384 891 2900 
Q 1097 3100 1353 3213 
Q 913 3459 1000 3900 
Q 1166 4750 2544 4750 
Q 3234 4750 3566 4531 
L 3472 4053 
z
M 1753 3056 
Q 1525 2966 1306 2738 
Q 969 2384 847 1747 
Q 722 1113 919 756 
Q 1119 397 1584 397 
Q 2044 397 2381 759 
Q 2722 1122 2838 1716 
Q 2956 2338 2731 2638 
Q 2491 2959 2103 2994 
Q 1906 3013 1753 3056 
z
" transform="scale(0.015625)"/>
       <path id="DejaVuSans-Oblique-65" d="M 3078 2063 
Q 3088 2113 3092 2166 
Q 3097 2219 3097 2272 
Q 3097 2653 2873 2875 
Q 2650 3097 2266 3097 
Q 1838 3097 1509 2826 
Q 1181 2556 1013 2059 
L 3078 2063 
z
M 3578 1613 
L 903 1613 
Q 884 1494 878 1425 
Q 872 1356 872 1306 
Q 872 872 1139 634 
Q 1406 397 1894 397 
Q 2269 397 2603 481 
Q 2938 566 3225 728 
L 3116 159 
Q 2806 34 2476 -28 
Q 2147 -91 1806 -91 
Q 1078 -91 686 257 
Q 294 606 294 1247 
Q 294 1794 489 2264 
Q 684 2734 1063 3103 
Q 1306 3334 1642 3459 
Q 1978 3584 2356 3584 
Q 2950 3584 3301 3228 
Q 3653 2872 3653 2272 
Q 3653 2128 3634 1964 
Q 3616 1800 3578 1613 
z
" transform="scale(0.015625)"/>
       <path id="DejaVuSans-3d" d="M 678 2906 
L 4684 2906 
L 4684 2381 
L 678 2381 
L 678 2906 
z
M 678 1631 
L 4684 1631 
L 4684 1100 
L 678 1100 
L 678 1631 
z
" transform="scale(0.015625)"/>
      </defs>
      <use xlink:href="#DejaVuSans-Oblique-3b4" transform="translate(0 0.78125)"/>
      <use xlink:href="#DejaVuSans-Oblique-65" transform="translate(61.181641 -15.625) scale(0.7)"/>
      <use xlink:href="#DejaVuSans-3d" transform="translate(126.464844 0.78125)"/>
      <use xlink:href="#DejaVuSans-2212" transform="translate(249.21875 0.78125)"/>
      <use xlink:href="#DejaVuSans-31" transform="translate(352.490234 0.78125)"/>
      <use xlink:href="#DejaVuSans-30" transform="translate(416.113281 0.78125)"/>
     </g>
    </g>
    <g id="line2d_29">
     <path d="M 87.23 38.576563 
L 97.23 38.576563 
L 107.23 38.576563 
" style="fill: none; stroke: #21918c; stroke-width: 1.5; stroke-linecap: square"/>
    </g>
    <g id="text_16">
     <!-- $\delta_e = 0$ -->
     <g transform="translate(115.23 42.076563) scale(0.1 -0.1)">
      <use xlink:href="#DejaVuSans-Oblique-3b4" transform="translate(0 0.78125)"/>
      <use xlink:href="#DejaVuSans-Oblique-65" transform="translate(61.181641 -15.625) scale(0.7)"/>
      <use xlink:href="#DejaVuSans-3d" transform="translate(126.464844 0.78125)"/>
      <use xlink:href="#DejaVuSans-30" transform="translate(229.736328 0.78125)"/>
     </g>
    </g>
    <g id="line2d_30">
     <path d="M 87.23 53.254688 
L 97.23 53.254688 
L 107.23 53.254688 
" style="fill: none; stroke: #fde725; stroke-width: 1.5; stroke-linecap: square"/>
    </g>
    <g id="text_17">
     <!-- $\delta_e = 10$ -->
     <g transform="translate(115.23 56.754688) scale(0.1 -0.1)">
      <use xlink:href="#DejaVuSans-Oblique-3b4" transform="translate(0 0.78125)"/>
      <use xlink:href="#DejaVuSans-Oblique-65" transform="translate(61.181641 -15.625) scale(0.7)"/>
      <use xlink:href="#DejaVuSans-3d" transform="translate(126.464844 0.78125)"/>
      <use xlink:href="#DejaVuSans-31" transform="translate(229.736328 0.78125)"/>
      <use xlink:href="#DejaVuSans-30" transform="translate(293.359375 0.78125)"/>
     </g>
    </g>
   </g>
  </g>
 </g>
 <defs>
  <clipPath id="p0502bdf580">
   <rect x="78.23" y="10.8" width="198.97" height="163.24"/>
  </clipPath>
 </defs>
</svg>
