<?xml version="1.0" encoding="utf-8" standalone="no"?>
<!DOCTYPE svg PUBLIC "-//W3C//DTD SVG 1.1//EN"
  "http://www.w3.org/Graphics/SVG/1.1/DTD/svg11.dtd">
<svg xmlns:xlink="http://www.w3.org/1999/xlink" width="460.8pt" height="345.6pt" viewBox="0 0 460.8 345.6" xmlns="http://www.w3.org/2000/svg" version="1.1">
 <metadata>
  <rdf:RDF xmlns:dc="http://purl.org/dc/elements/1.1/" xmlns:cc="http://creativecommons.org/ns#" xmlns:rdf="http://www.w3.org/1999/02/22-rdf-syntax-ns#">
   <cc:Work>
    <dc:type rdf:resource="http://purl.org/dc/dcmitype/StillImage"/>
    <dc:date>2025-03-26T12:15:12.618448</dc:date>
    <dc:format>image/svg+xml</dc:format>
    <dc:creator>
     <cc:Agent>
      <dc:title>Matplotlib v3.9.2, https://matplotlib.org/</dc:title>
     </cc:Agent>
    </dc:creator>
   </cc:Work>
  </rdf:RDF>
 </metadata>
 <defs>
  <style type="text/css">*{stroke-linejoin: round; stroke-linecap: butt}</style>
 </defs>
 <g id="figure_1">
  <g id="patch_1">
   <path d="M 0 345.6 
L 460.8 345.6 
L 460.8 0 
L 0 0 
z
" style="fill: #ffffff"/>
  </g>
  <g id="patch_2">
   <path d="M 68.4 334.8 
L 392.4 334.8 
L 392.4 10.8 
L 68.4 10.8 
z
" style="fill: #ffffff"/>
  </g>
  <g id="pane3d_1">
   <g id="patch_3">
    <path d="M 92.864234 254.911983 
L 199.859616 165.226333 
L 198.372277 35.883593 
L 86.256616 117.700496 
" style="fill: #f2f2f2; opacity: 0.5; stroke: #f2f2f2; stroke-linejoin: miter"/>
   </g>
  </g>
  <g id="pane3d_2">
   <g id="patch_4">
    <path d="M 199.859616 165.226333 
L 371.549027 215.129667 
L 377.676017 81.331864 
L 198.372277 35.883593 
" style="fill: #e6e6e6; opacity: 0.5; stroke: #e6e6e6; stroke-linejoin: miter"/>
   </g>
  </g>
  <g id="pane3d_3">
   <g id="patch_5">
    <path d="M 92.864234 254.911983 
L 274.863396 314.352909 
L 371.549027 215.129667 
L 199.859616 165.226333 
" style="fill: #ececec; opacity: 0.5; stroke: #ececec; stroke-linejoin: miter"/>
   </g>
  </g>
  <g id="grid3d_1">
   <g id="Line3DCollection_1">
    <path d="M 103.887059 258.512038 
L 210.30124 168.261301 
L 209.255382 38.642142 
" style="fill: none; stroke: #b0b0b0; stroke-width: 0.8"/>
    <path d="M 125.693752 265.634104 
L 230.941658 174.260656 
L 230.776708 44.097171 
" style="fill: none; stroke: #b0b0b0; stroke-width: 0.8"/>
    <path d="M 147.784344 272.848891 
L 251.828507 180.331638 
L 252.566099 49.620147 
" style="fill: none; stroke: #b0b0b0; stroke-width: 0.8"/>
    <path d="M 170.164416 280.158222 
L 272.966226 186.475538 
L 274.628592 55.212346 
" style="fill: none; stroke: #b0b0b0; stroke-width: 0.8"/>
    <path d="M 192.839695 287.563969 
L 294.359361 192.693678 
L 296.969355 60.875078 
" style="fill: none; stroke: #b0b0b0; stroke-width: 0.8"/>
    <path d="M 215.816061 295.06805 
L 316.012572 198.987412 
L 319.593686 66.609686 
" style="fill: none; stroke: #b0b0b0; stroke-width: 0.8"/>
    <path d="M 239.099551 302.672438 
L 337.930629 205.358126 
L 342.507019 72.417548 
" style="fill: none; stroke: #b0b0b0; stroke-width: 0.8"/>
    <path d="M 262.696365 310.379157 
L 360.118421 211.807241 
L 365.714926 78.300076 
" style="fill: none; stroke: #b0b0b0; stroke-width: 0.8"/>
   </g>
  </g>
  <g id="grid3d_2">
   <g id="Line3DCollection_2">
    <path d="M 94.009691 112.042655 
L 100.23712 248.731884 
L 281.553293 307.487429 
" style="fill: none; stroke: #b0b0b0; stroke-width: 0.8"/>
    <path d="M 107.090282 102.497035 
L 112.685041 238.29779 
L 292.838848 295.905673 
" style="fill: none; stroke: #b0b0b0; stroke-width: 0.8"/>
    <path d="M 119.911906 93.140398 
L 124.897216 228.061303 
L 303.899394 284.554832 
" style="fill: none; stroke: #b0b0b0; stroke-width: 0.8"/>
    <path d="M 132.482177 83.967187 
L 136.88028 218.016861 
L 314.741594 273.428067 
" style="fill: none; stroke: #b0b0b0; stroke-width: 0.8"/>
    <path d="M 144.808416 74.972059 
L 148.640619 208.159112 
L 325.371851 262.518809 
" style="fill: none; stroke: #b0b0b0; stroke-width: 0.8"/>
    <path d="M 156.89766 66.149879 
L 160.184386 198.482897 
L 335.796318 251.820741 
" style="fill: none; stroke: #b0b0b0; stroke-width: 0.8"/>
    <path d="M 168.756679 57.495707 
L 171.517509 188.983249 
L 346.020915 241.327789 
" style="fill: none; stroke: #b0b0b0; stroke-width: 0.8"/>
    <path d="M 180.391988 49.004789 
L 182.645702 179.655377 
L 356.051335 231.034111 
" style="fill: none; stroke: #b0b0b0; stroke-width: 0.8"/>
    <path d="M 191.809858 40.672548 
L 193.574473 170.494664 
L 365.893058 220.934082 
" style="fill: none; stroke: #b0b0b0; stroke-width: 0.8"/>
   </g>
  </g>
  <g id="grid3d_3">
   <g id="Line3DCollection_3">
    <path d="M 372.072699 203.693996 
L 199.732248 154.150074 
L 92.300353 243.202617 
" style="fill: none; stroke: #b0b0b0; stroke-width: 0.8"/>
    <path d="M 373.095633 181.355742 
L 199.483581 132.525424 
L 91.198407 220.319999 
" style="fill: none; stroke: #b0b0b0; stroke-width: 0.8"/>
    <path d="M 374.133924 158.682119 
L 199.231361 110.591711 
L 90.079283 197.080666 
" style="fill: none; stroke: #b0b0b0; stroke-width: 0.8"/>
    <path d="M 375.187921 135.665518 
L 198.97551 88.342259 
L 88.942576 173.476213 
" style="fill: none; stroke: #b0b0b0; stroke-width: 0.8"/>
    <path d="M 376.257983 112.298098 
L 198.71595 65.770204 
L 87.787869 149.497966 
" style="fill: none; stroke: #b0b0b0; stroke-width: 0.8"/>
    <path d="M 377.34448 88.571777 
L 198.452598 42.868476 
L 86.61473 125.136977 
" style="fill: none; stroke: #b0b0b0; stroke-width: 0.8"/>
   </g>
  </g>
  <g id="axis3d_1">
   <g id="line2d_1">
    <path d="M 92.864234 254.911983 
L 274.863396 314.352909 
" style="fill: none; stroke: #000000; stroke-width: 0.8; stroke-linecap: square"/>
   </g>
   <g id="xtick_1">
    <g id="line2d_2">
     <path d="M 104.813707 257.726139 
L 102.029785 260.087207 
" style="fill: none; stroke: #000000; stroke-width: 0.8; stroke-linecap: square"/>
    </g>
    <g id="text_1">
     <!-- 0 -->
     <g transform="translate(93.181756 281.810759) scale(0.1 -0.1)">
      <defs>
       <path id="DejaVuSans-30" d="M 2034 4250 
Q 1547 4250 1301 3770 
Q 1056 3291 1056 2328 
Q 1056 1369 1301 889 
Q 1547 409 2034 409 
Q 2525 409 2770 889 
Q 3016 1369 3016 2328 
Q 3016 3291 2770 3770 
Q 2525 4250 2034 4250 
z
M 2034 4750 
Q 2819 4750 3233 4129 
Q 3647 3509 3647 2328 
Q 3647 1150 3233 529 
Q 2819 -91 2034 -91 
Q 1250 -91 836 529 
Q 422 1150 422 2328 
Q 422 3509 836 4129 
Q 1250 4750 2034 4750 
z
" transform="scale(0.015625)"/>
      </defs>
      <use xlink:href="#DejaVuSans-30"/>
     </g>
    </g>
   </g>
   <g id="xtick_2">
    <g id="line2d_3">
     <path d="M 126.610726 264.838011 
L 123.855843 267.229728 
" style="fill: none; stroke: #000000; stroke-width: 0.8; stroke-linecap: square"/>
    </g>
    <g id="text_2">
     <!-- 1 -->
     <g transform="translate(115.006605 289.056547) scale(0.1 -0.1)">
      <defs>
       <path id="DejaVuSans-31" d="M 794 531 
L 1825 531 
L 1825 4091 
L 703 3866 
L 703 4441 
L 1819 4666 
L 2450 4666 
L 2450 531 
L 3481 531 
L 3481 0 
L 794 0 
L 794 531 
z
" transform="scale(0.015625)"/>
      </defs>
      <use xlink:href="#DejaVuSans-31"/>
     </g>
    </g>
   </g>
   <g id="xtick_3">
    <g id="line2d_4">
     <path d="M 148.691313 272.042404 
L 145.966463 274.465371 
" style="fill: none; stroke: #000000; stroke-width: 0.8; stroke-linecap: square"/>
    </g>
    <g id="text_3">
     <!-- 2 -->
     <g transform="translate(137.116467 296.396959) scale(0.1 -0.1)">
      <defs>
       <path id="DejaVuSans-32" d="M 1228 531 
L 3431 531 
L 3431 0 
L 469 0 
L 469 531 
Q 828 903 1448 1529 
Q 2069 2156 2228 2338 
Q 2531 2678 2651 2914 
Q 2772 3150 2772 3378 
Q 2772 3750 2511 3984 
Q 2250 4219 1831 4219 
Q 1534 4219 1204 4116 
Q 875 4013 500 3803 
L 500 4441 
Q 881 4594 1212 4672 
Q 1544 4750 1819 4750 
Q 2544 4750 2975 4387 
Q 3406 4025 3406 3419 
Q 3406 3131 3298 2873 
Q 3191 2616 2906 2266 
Q 2828 2175 2409 1742 
Q 1991 1309 1228 531 
z
" transform="scale(0.015625)"/>
      </defs>
      <use xlink:href="#DejaVuSans-32"/>
     </g>
    </g>
   </g>
   <g id="xtick_4">
    <g id="line2d_5">
     <path d="M 171.061038 279.341136 
L 168.367249 281.79597 
" style="fill: none; stroke: #000000; stroke-width: 0.8; stroke-linecap: square"/>
    </g>
    <g id="text_4">
     <!-- 3 -->
     <g transform="translate(159.516963 303.83386) scale(0.1 -0.1)">
      <defs>
       <path id="DejaVuSans-33" d="M 2597 2516 
Q 3050 2419 3304 2112 
Q 3559 1806 3559 1356 
Q 3559 666 3084 287 
Q 2609 -91 1734 -91 
Q 1441 -91 1130 -33 
Q 819 25 488 141 
L 488 750 
Q 750 597 1062 519 
Q 1375 441 1716 441 
Q 2309 441 2620 675 
Q 2931 909 2931 1356 
Q 2931 1769 2642 2001 
Q 2353 2234 1838 2234 
L 1294 2234 
L 1294 2753 
L 1863 2753 
Q 2328 2753 2575 2939 
Q 2822 3125 2822 3475 
Q 2822 3834 2567 4026 
Q 2313 4219 1838 4219 
Q 1578 4219 1281 4162 
Q 984 4106 628 3988 
L 628 4550 
Q 988 4650 1302 4700 
Q 1616 4750 1894 4750 
Q 2613 4750 3031 4423 
Q 3450 4097 3450 3541 
Q 3450 3153 3228 2886 
Q 3006 2619 2597 2516 
z
" transform="scale(0.015625)"/>
      </defs>
      <use xlink:href="#DejaVuSans-33"/>
     </g>
    </g>
   </g>
   <g id="xtick_5">
    <g id="line2d_6">
     <path d="M 193.725617 286.736073 
L 191.063949 289.223406 
" style="fill: none; stroke: #000000; stroke-width: 0.8; stroke-linecap: square"/>
    </g>
    <g id="text_5">
     <!-- 4 -->
     <g transform="translate(182.213861 311.369166) scale(0.1 -0.1)">
      <defs>
       <path id="DejaVuSans-34" d="M 2419 4116 
L 825 1625 
L 2419 1625 
L 2419 4116 
z
M 2253 4666 
L 3047 4666 
L 3047 1625 
L 3713 1625 
L 3713 1100 
L 3047 1100 
L 3047 0 
L 2419 0 
L 2419 1100 
L 313 1100 
L 313 1709 
L 2253 4666 
z
" transform="scale(0.015625)"/>
      </defs>
      <use xlink:href="#DejaVuSans-34"/>
     </g>
    </g>
   </g>
   <g id="xtick_6">
    <g id="line2d_7">
     <path d="M 216.69092 294.229129 
L 214.062465 296.749611 
" style="fill: none; stroke: #000000; stroke-width: 0.8; stroke-linecap: square"/>
    </g>
    <g id="text_6">
     <!-- 5 -->
     <g transform="translate(205.213084 319.004843) scale(0.1 -0.1)">
      <defs>
       <path id="DejaVuSans-35" d="M 691 4666 
L 3169 4666 
L 3169 4134 
L 1269 4134 
L 1269 2991 
Q 1406 3038 1543 3061 
Q 1681 3084 1819 3084 
Q 2600 3084 3056 2656 
Q 3513 2228 3513 1497 
Q 3513 744 3044 326 
Q 2575 -91 1722 -91 
Q 1428 -91 1123 -41 
Q 819 9 494 109 
L 494 744 
Q 775 591 1075 516 
Q 1375 441 1709 441 
Q 2250 441 2565 725 
Q 2881 1009 2881 1497 
Q 2881 1984 2565 2268 
Q 2250 2553 1709 2553 
Q 1456 2553 1204 2497 
Q 953 2441 691 2322 
L 691 4666 
z
" transform="scale(0.015625)"/>
      </defs>
      <use xlink:href="#DejaVuSans-35"/>
     </g>
    </g>
   </g>
   <g id="xtick_7">
    <g id="line2d_8">
     <path d="M 239.96297 301.822269 
L 237.368859 304.376569 
" style="fill: none; stroke: #000000; stroke-width: 0.8; stroke-linecap: square"/>
    </g>
    <g id="text_7">
     <!-- 6 -->
     <g transform="translate(228.520711 326.742909) scale(0.1 -0.1)">
      <defs>
       <path id="DejaVuSans-36" d="M 2113 2584 
Q 1688 2584 1439 2293 
Q 1191 2003 1191 1497 
Q 1191 994 1439 701 
Q 1688 409 2113 409 
Q 2538 409 2786 701 
Q 3034 994 3034 1497 
Q 3034 2003 2786 2293 
Q 2538 2584 2113 2584 
z
M 3366 4563 
L 3366 3988 
Q 3128 4100 2886 4159 
Q 2644 4219 2406 4219 
Q 1781 4219 1451 3797 
Q 1122 3375 1075 2522 
Q 1259 2794 1537 2939 
Q 1816 3084 2150 3084 
Q 2853 3084 3261 2657 
Q 3669 2231 3669 1497 
Q 3669 778 3244 343 
Q 2819 -91 2113 -91 
Q 1303 -91 875 529 
Q 447 1150 447 2328 
Q 447 3434 972 4092 
Q 1497 4750 2381 4750 
Q 2619 4750 2861 4703 
Q 3103 4656 3366 4563 
z
" transform="scale(0.015625)"/>
      </defs>
      <use xlink:href="#DejaVuSans-36"/>
     </g>
    </g>
   </g>
   <g id="xtick_8">
    <g id="line2d_9">
     <path d="M 263.547956 309.517514 
L 260.989355 312.106314 
" style="fill: none; stroke: #000000; stroke-width: 0.8; stroke-linecap: square"/>
    </g>
    <g id="text_8">
     <!-- 7 -->
     <g transform="translate(252.142989 334.585439) scale(0.1 -0.1)">
      <defs>
       <path id="DejaVuSans-37" d="M 525 4666 
L 3525 4666 
L 3525 4397 
L 1831 0 
L 1172 0 
L 2766 4134 
L 525 4134 
L 525 4666 
z
" transform="scale(0.015625)"/>
      </defs>
      <use xlink:href="#DejaVuSans-37"/>
     </g>
    </g>
   </g>
   <g id="text_9">
    <!-- $\alpha$ -->
    <g transform="translate(161.203861 320.667199) rotate(-341.912962) scale(0.1 -0.1)">
     <defs>
      <path id="DejaVuSans-Oblique-3b1" d="M 2619 1628 
L 2622 2350 
Q 2625 3088 2069 3091 
Q 1653 3094 1394 2747 
Q 1069 2319 959 1747 
Q 825 1059 994 731 
Q 1169 397 1547 397 
Q 1966 397 2319 1063 
L 2619 1628 
z
M 2166 3578 
Q 3141 3594 3128 2584 
Q 3128 2584 3616 3500 
L 4128 3500 
L 3119 1603 
L 3109 919 
Q 3109 766 3194 638 
Q 3291 488 3391 488 
L 3669 488 
L 3575 0 
L 3228 0 
Q 2934 0 2722 263 
Q 2622 394 2619 669 
Q 2416 334 2066 50 
Q 1900 -81 1453 -78 
Q 722 -72 456 397 
Q 184 884 353 1747 
Q 534 2675 1009 3097 
Q 1544 3569 2166 3578 
z
" transform="scale(0.015625)"/>
     </defs>
     <use xlink:href="#DejaVuSans-Oblique-3b1" transform="translate(0 0.84375)"/>
    </g>
   </g>
  </g>
  <g id="axis3d_2">
   <g id="line2d_10">
    <path d="M 371.549027 215.129667 
L 274.863396 314.352909 
" style="fill: none; stroke: #000000; stroke-width: 0.8; stroke-linecap: square"/>
   </g>
   <g id="xtick_9">
    <g id="line2d_11">
     <path d="M 280.025336 306.992294 
L 284.613158 308.478979 
" style="fill: none; stroke: #000000; stroke-width: 0.8; stroke-linecap: square"/>
    </g>
    <g id="text_10">
     <!-- 1.6 -->
     <g transform="translate(286.480987 328.507723) scale(0.1 -0.1)">
      <defs>
       <path id="DejaVuSans-2e" d="M 684 794 
L 1344 794 
L 1344 0 
L 684 0 
L 684 794 
z
" transform="scale(0.015625)"/>
      </defs>
      <use xlink:href="#DejaVuSans-31"/>
      <use xlink:href="#DejaVuSans-2e" x="63.623047"/>
      <use xlink:href="#DejaVuSans-36" x="95.410156"/>
     </g>
    </g>
   </g>
   <g id="xtick_10">
    <g id="line2d_12">
     <path d="M 291.321461 295.420457 
L 295.877507 296.877347 
" style="fill: none; stroke: #000000; stroke-width: 0.8; stroke-linecap: square"/>
    </g>
    <g id="text_11">
     <!-- 1.7 -->
     <g transform="translate(297.642287 316.785115) scale(0.1 -0.1)">
      <use xlink:href="#DejaVuSans-31"/>
      <use xlink:href="#DejaVuSans-2e" x="63.623047"/>
      <use xlink:href="#DejaVuSans-37" x="95.410156"/>
     </g>
    </g>
   </g>
   <g id="xtick_11">
    <g id="line2d_13">
     <path d="M 302.392461 284.07924 
L 306.91708 285.507221 
" style="fill: none; stroke: #000000; stroke-width: 0.8; stroke-linecap: square"/>
    </g>
    <g id="text_12">
     <!-- 1.8 -->
     <g transform="translate(308.58095 305.296343) scale(0.1 -0.1)">
      <defs>
       <path id="DejaVuSans-38" d="M 2034 2216 
Q 1584 2216 1326 1975 
Q 1069 1734 1069 1313 
Q 1069 891 1326 650 
Q 1584 409 2034 409 
Q 2484 409 2743 651 
Q 3003 894 3003 1313 
Q 3003 1734 2745 1975 
Q 2488 2216 2034 2216 
z
M 1403 2484 
Q 997 2584 770 2862 
Q 544 3141 544 3541 
Q 544 4100 942 4425 
Q 1341 4750 2034 4750 
Q 2731 4750 3128 4425 
Q 3525 4100 3525 3541 
Q 3525 3141 3298 2862 
Q 3072 2584 2669 2484 
Q 3125 2378 3379 2068 
Q 3634 1759 3634 1313 
Q 3634 634 3220 271 
Q 2806 -91 2034 -91 
Q 1263 -91 848 271 
Q 434 634 434 1313 
Q 434 1759 690 2068 
Q 947 2378 1403 2484 
z
M 1172 3481 
Q 1172 3119 1398 2916 
Q 1625 2713 2034 2713 
Q 2441 2713 2670 2916 
Q 2900 3119 2900 3481 
Q 2900 3844 2670 4047 
Q 2441 4250 2034 4250 
Q 1625 4250 1398 4047 
Q 1172 3844 1172 3481 
z
" transform="scale(0.015625)"/>
      </defs>
      <use xlink:href="#DejaVuSans-31"/>
      <use xlink:href="#DejaVuSans-2e" x="63.623047"/>
      <use xlink:href="#DejaVuSans-38" x="95.410156"/>
     </g>
    </g>
   </g>
   <g id="xtick_12">
    <g id="line2d_14">
     <path d="M 313.245 272.961816 
L 317.738539 274.36174 
" style="fill: none; stroke: #000000; stroke-width: 0.8; stroke-linecap: square"/>
    </g>
    <g id="text_13">
     <!-- 1.9 -->
     <g transform="translate(319.303569 294.034479) scale(0.1 -0.1)">
      <defs>
       <path id="DejaVuSans-39" d="M 703 97 
L 703 672 
Q 941 559 1184 500 
Q 1428 441 1663 441 
Q 2288 441 2617 861 
Q 2947 1281 2994 2138 
Q 2813 1869 2534 1725 
Q 2256 1581 1919 1581 
Q 1219 1581 811 2004 
Q 403 2428 403 3163 
Q 403 3881 828 4315 
Q 1253 4750 1959 4750 
Q 2769 4750 3195 4129 
Q 3622 3509 3622 2328 
Q 3622 1225 3098 567 
Q 2575 -91 1691 -91 
Q 1453 -91 1209 -44 
Q 966 3 703 97 
z
M 1959 2075 
Q 2384 2075 2632 2365 
Q 2881 2656 2881 3163 
Q 2881 3666 2632 3958 
Q 2384 4250 1959 4250 
Q 1534 4250 1286 3958 
Q 1038 3666 1038 3163 
Q 1038 2656 1286 2365 
Q 1534 2075 1959 2075 
z
" transform="scale(0.015625)"/>
      </defs>
      <use xlink:href="#DejaVuSans-31"/>
      <use xlink:href="#DejaVuSans-2e" x="63.623047"/>
      <use xlink:href="#DejaVuSans-39" x="95.410156"/>
     </g>
    </g>
   </g>
   <g id="xtick_13">
    <g id="line2d_15">
     <path d="M 323.885481 262.061625 
L 328.348285 263.434312 
" style="fill: none; stroke: #000000; stroke-width: 0.8; stroke-linecap: square"/>
    </g>
    <g id="text_14">
     <!-- 2.0 -->
     <g transform="translate(329.816483 282.992866) scale(0.1 -0.1)">
      <use xlink:href="#DejaVuSans-32"/>
      <use xlink:href="#DejaVuSans-2e" x="63.623047"/>
      <use xlink:href="#DejaVuSans-30" x="95.410156"/>
     </g>
    </g>
   </g>
   <g id="xtick_14">
    <g id="line2d_16">
     <path d="M 334.320059 251.372363 
L 338.75247 252.7186 
" style="fill: none; stroke: #000000; stroke-width: 0.8; stroke-linecap: square"/>
    </g>
    <g id="text_15">
     <!-- 2.1 -->
     <g transform="translate(340.125785 272.165105) scale(0.1 -0.1)">
      <use xlink:href="#DejaVuSans-32"/>
      <use xlink:href="#DejaVuSans-2e" x="63.623047"/>
      <use xlink:href="#DejaVuSans-31" x="95.410156"/>
     </g>
    </g>
   </g>
   <g id="xtick_15">
    <g id="line2d_17">
     <path d="M 344.554654 240.887965 
L 348.957011 242.208509 
" style="fill: none; stroke: #000000; stroke-width: 0.8; stroke-linecap: square"/>
    </g>
    <g id="text_16">
     <!-- 2.2 -->
     <g transform="translate(350.237332 261.545043) scale(0.1 -0.1)">
      <use xlink:href="#DejaVuSans-32"/>
      <use xlink:href="#DejaVuSans-2e" x="63.623047"/>
      <use xlink:href="#DejaVuSans-32" x="95.410156"/>
     </g>
    </g>
   </g>
   <g id="xtick_16">
    <g id="line2d_18">
     <path d="M 354.594961 230.602598 
L 358.9676 231.898177 
" style="fill: none; stroke: #000000; stroke-width: 0.8; stroke-linecap: square"/>
    </g>
    <g id="text_17">
     <!-- 2.3 -->
     <g transform="translate(360.156761 251.126762) scale(0.1 -0.1)">
      <use xlink:href="#DejaVuSans-32"/>
      <use xlink:href="#DejaVuSans-2e" x="63.623047"/>
      <use xlink:href="#DejaVuSans-33" x="95.410156"/>
     </g>
    </g>
   </g>
   <g id="xtick_17">
    <g id="line2d_19">
     <path d="M 364.446459 220.510648 
L 368.789715 221.781964 
" style="fill: none; stroke: #000000; stroke-width: 0.8; stroke-linecap: square"/>
    </g>
    <g id="text_18">
     <!-- 2.4 -->
     <g transform="translate(369.889496 240.904564) scale(0.1 -0.1)">
      <use xlink:href="#DejaVuSans-32"/>
      <use xlink:href="#DejaVuSans-2e" x="63.623047"/>
      <use xlink:href="#DejaVuSans-34" x="95.410156"/>
     </g>
    </g>
   </g>
   <g id="text_19">
    <!-- $J$ -->
    <g transform="translate(350.835056 293.263882) scale(0.1 -0.1)">
     <defs>
      <path id="DejaVuSans-Oblique-4a" d="M 1069 4666 
L 1703 4666 
L 856 325 
Q 691 -522 298 -901 
Q -94 -1281 -800 -1281 
L -1050 -1281 
L -947 -750 
L -750 -750 
Q -328 -750 -109 -509 
Q 109 -269 225 325 
L 1069 4666 
z
" transform="scale(0.015625)"/>
     </defs>
     <use xlink:href="#DejaVuSans-Oblique-4a" transform="translate(0 0.09375)"/>
    </g>
   </g>
  </g>
  <g id="axis3d_3">
   <g id="line2d_20">
    <path d="M 371.549027 215.129667 
L 377.676017 81.331864 
" style="fill: none; stroke: #000000; stroke-width: 0.8; stroke-linecap: square"/>
   </g>
   <g id="xtick_18">
    <g id="line2d_21">
     <path d="M 370.626029 203.278112 
L 374.969493 204.526758 
" style="fill: none; stroke: #000000; stroke-width: 0.8; stroke-linecap: square"/>
    </g>
    <g id="text_20">
     <!-- 0.000 -->
     <g transform="translate(376.085497 208.704369) scale(0.1 -0.1)">
      <use xlink:href="#DejaVuSans-30"/>
      <use xlink:href="#DejaVuSans-2e" x="63.623047"/>
      <use xlink:href="#DejaVuSans-30" x="95.410156"/>
      <use xlink:href="#DejaVuSans-30" x="159.033203"/>
      <use xlink:href="#DejaVuSans-30" x="222.65625"/>
     </g>
    </g>
   </g>
   <g id="xtick_19">
    <g id="line2d_22">
     <path d="M 371.637779 180.945704 
L 376.014847 182.176803 
" style="fill: none; stroke: #000000; stroke-width: 0.8; stroke-linecap: square"/>
    </g>
    <g id="text_21">
     <!-- 0.002 -->
     <g transform="translate(377.242089 186.402539) scale(0.1 -0.1)">
      <use xlink:href="#DejaVuSans-30"/>
      <use xlink:href="#DejaVuSans-2e" x="63.623047"/>
      <use xlink:href="#DejaVuSans-30" x="95.410156"/>
      <use xlink:href="#DejaVuSans-30" x="159.033203"/>
      <use xlink:href="#DejaVuSans-32" x="222.65625"/>
     </g>
    </g>
   </g>
   <g id="xtick_20">
    <g id="line2d_23">
     <path d="M 372.664712 158.278151 
L 377.075908 159.491033 
" style="fill: none; stroke: #000000; stroke-width: 0.8; stroke-linecap: square"/>
    </g>
    <g id="text_22">
     <!-- 0.004 -->
     <g transform="translate(378.416001 163.766728) scale(0.1 -0.1)">
      <use xlink:href="#DejaVuSans-30"/>
      <use xlink:href="#DejaVuSans-2e" x="63.623047"/>
      <use xlink:href="#DejaVuSans-30" x="95.410156"/>
      <use xlink:href="#DejaVuSans-30" x="159.033203"/>
      <use xlink:href="#DejaVuSans-34" x="222.65625"/>
     </g>
    </g>
   </g>
   <g id="xtick_21">
    <g id="line2d_24">
     <path d="M 373.707173 135.267851 
L 378.153032 136.461823 
" style="fill: none; stroke: #000000; stroke-width: 0.8; stroke-linecap: square"/>
    </g>
    <g id="text_23">
     <!-- 0.006 -->
     <g transform="translate(379.607626 140.789377) scale(0.1 -0.1)">
      <use xlink:href="#DejaVuSans-30"/>
      <use xlink:href="#DejaVuSans-2e" x="63.623047"/>
      <use xlink:href="#DejaVuSans-30" x="95.410156"/>
      <use xlink:href="#DejaVuSans-30" x="159.033203"/>
      <use xlink:href="#DejaVuSans-36" x="222.65625"/>
     </g>
    </g>
   </g>
   <g id="xtick_22">
    <g id="line2d_25">
     <path d="M 374.765516 111.906972 
L 379.246588 113.081313 
" style="fill: none; stroke: #000000; stroke-width: 0.8; stroke-linecap: square"/>
    </g>
    <g id="text_24">
     <!-- 0.008 -->
     <g transform="translate(380.817367 117.462697) scale(0.1 -0.1)">
      <use xlink:href="#DejaVuSans-30"/>
      <use xlink:href="#DejaVuSans-2e" x="63.623047"/>
      <use xlink:href="#DejaVuSans-30" x="95.410156"/>
      <use xlink:href="#DejaVuSans-30" x="159.033203"/>
      <use xlink:href="#DejaVuSans-38" x="222.65625"/>
     </g>
    </g>
   </g>
   <g id="xtick_23">
    <g id="line2d_26">
     <path d="M 375.840108 88.18744 
L 380.356953 89.341403 
" style="fill: none; stroke: #000000; stroke-width: 0.8; stroke-linecap: square"/>
    </g>
    <g id="text_25">
     <!-- 0.010 -->
     <g transform="translate(382.045641 93.778662) scale(0.1 -0.1)">
      <use xlink:href="#DejaVuSans-30"/>
      <use xlink:href="#DejaVuSans-2e" x="63.623047"/>
      <use xlink:href="#DejaVuSans-30" x="95.410156"/>
      <use xlink:href="#DejaVuSans-31" x="159.033203"/>
      <use xlink:href="#DejaVuSans-30" x="222.65625"/>
     </g>
    </g>
   </g>
   <g id="text_26">
    <!-- $dCD/dalpha$ -->
    <g transform="translate(416.37822 173.625816) rotate(-87.378092) scale(0.1 -0.1)">
     <defs>
      <path id="DejaVuSans-Oblique-64" d="M 2675 525 
Q 2444 222 2128 65 
Q 1813 -91 1428 -91 
Q 903 -91 598 267 
Q 294 625 294 1247 
Q 294 1766 478 2236 
Q 663 2706 1013 3078 
Q 1244 3325 1534 3454 
Q 1825 3584 2144 3584 
Q 2481 3584 2739 3421 
Q 2997 3259 3138 2956 
L 3513 4863 
L 4091 4863 
L 3144 0 
L 2566 0 
L 2675 525 
z
M 891 1350 
Q 891 897 1095 644 
Q 1300 391 1663 391 
Q 1931 391 2161 520 
Q 2391 650 2566 903 
Q 2750 1166 2856 1509 
Q 2963 1853 2963 2188 
Q 2963 2622 2758 2865 
Q 2553 3109 2194 3109 
Q 1922 3109 1687 2981 
Q 1453 2853 1288 2613 
Q 1106 2353 998 2009 
Q 891 1666 891 1350 
z
" transform="scale(0.015625)"/>
      <path id="DejaVuSans-Oblique-43" d="M 4447 4306 
L 4319 3641 
Q 4019 3944 3683 4091 
Q 3347 4238 2956 4238 
Q 2422 4238 2017 3981 
Q 1613 3725 1319 3200 
Q 1131 2863 1032 2486 
Q 934 2109 934 1728 
Q 934 1091 1264 756 
Q 1594 422 2222 422 
Q 2656 422 3056 561 
Q 3456 700 3834 978 
L 3688 231 
Q 3316 72 2936 -9 
Q 2556 -91 2175 -91 
Q 1278 -91 773 396 
Q 269 884 269 1753 
Q 269 2309 461 2846 
Q 653 3384 1013 3828 
Q 1394 4300 1883 4525 
Q 2372 4750 3022 4750 
Q 3422 4750 3780 4639 
Q 4138 4528 4447 4306 
z
" transform="scale(0.015625)"/>
      <path id="DejaVuSans-Oblique-44" d="M 1081 4666 
L 2438 4666 
Q 3519 4666 4070 4208 
Q 4622 3750 4622 2847 
Q 4622 2250 4412 1698 
Q 4203 1147 3834 769 
Q 3463 381 2891 190 
Q 2319 0 1538 0 
L 172 0 
L 1081 4666 
z
M 1613 4147 
L 909 519 
L 1734 519 
Q 2794 519 3375 1128 
Q 3956 1738 3956 2847 
Q 3956 3519 3581 3833 
Q 3206 4147 2406 4147 
L 1613 4147 
z
" transform="scale(0.015625)"/>
      <path id="DejaVuSans-2f" d="M 1625 4666 
L 2156 4666 
L 531 -594 
L 0 -594 
L 1625 4666 
z
" transform="scale(0.015625)"/>
      <path id="DejaVuSans-Oblique-61" d="M 3438 1997 
L 3047 0 
L 2472 0 
L 2578 531 
Q 2325 219 2001 64 
Q 1678 -91 1281 -91 
Q 834 -91 548 182 
Q 263 456 263 884 
Q 263 1497 752 1853 
Q 1241 2209 2100 2209 
L 2900 2209 
L 2931 2363 
Q 2938 2388 2941 2417 
Q 2944 2447 2944 2509 
Q 2944 2788 2717 2942 
Q 2491 3097 2081 3097 
Q 1800 3097 1504 3025 
Q 1209 2953 897 2809 
L 997 3341 
Q 1322 3463 1633 3523 
Q 1944 3584 2234 3584 
Q 2853 3584 3176 3315 
Q 3500 3047 3500 2534 
Q 3500 2431 3484 2292 
Q 3469 2153 3438 1997 
z
M 2816 1759 
L 2241 1759 
Q 1534 1759 1195 1570 
Q 856 1381 856 984 
Q 856 709 1029 553 
Q 1203 397 1509 397 
Q 1978 397 2328 733 
Q 2678 1069 2791 1631 
L 2816 1759 
z
" transform="scale(0.015625)"/>
      <path id="DejaVuSans-Oblique-6c" d="M 1172 4863 
L 1747 4863 
L 800 0 
L 225 0 
L 1172 4863 
z
" transform="scale(0.015625)"/>
      <path id="DejaVuSans-Oblique-70" d="M 3175 2156 
Q 3175 2616 2975 2859 
Q 2775 3103 2400 3103 
Q 2144 3103 1911 2972 
Q 1678 2841 1497 2591 
Q 1319 2344 1212 1994 
Q 1106 1644 1106 1300 
Q 1106 863 1306 627 
Q 1506 391 1875 391 
Q 2147 391 2380 519 
Q 2613 647 2778 891 
Q 2956 1147 3065 1494 
Q 3175 1841 3175 2156 
z
M 1394 2969 
Q 1625 3272 1939 3428 
Q 2253 3584 2638 3584 
Q 3175 3584 3472 3232 
Q 3769 2881 3769 2247 
Q 3769 1728 3584 1258 
Q 3400 788 3053 416 
Q 2822 169 2531 39 
Q 2241 -91 1919 -91 
Q 1547 -91 1294 64 
Q 1041 219 916 525 
L 556 -1331 
L -19 -1331 
L 922 3500 
L 1497 3500 
L 1394 2969 
z
" transform="scale(0.015625)"/>
      <path id="DejaVuSans-Oblique-68" d="M 3566 2113 
L 3156 0 
L 2578 0 
L 2988 2091 
Q 3016 2238 3031 2350 
Q 3047 2463 3047 2528 
Q 3047 2791 2881 2937 
Q 2716 3084 2419 3084 
Q 1956 3084 1617 2771 
Q 1278 2459 1178 1941 
L 800 0 
L 225 0 
L 1172 4863 
L 1747 4863 
L 1375 2950 
Q 1594 3244 1934 3414 
Q 2275 3584 2650 3584 
Q 3113 3584 3367 3334 
Q 3622 3084 3622 2631 
Q 3622 2519 3608 2391 
Q 3594 2263 3566 2113 
z
" transform="scale(0.015625)"/>
     </defs>
     <use xlink:href="#DejaVuSans-Oblique-64" transform="translate(0 0.015625)"/>
     <use xlink:href="#DejaVuSans-Oblique-43" transform="translate(63.476562 0.015625)"/>
     <use xlink:href="#DejaVuSans-Oblique-44" transform="translate(133.300781 0.015625)"/>
     <use xlink:href="#DejaVuSans-2f" transform="translate(210.302734 0.015625)"/>
     <use xlink:href="#DejaVuSans-Oblique-64" transform="translate(243.994141 0.015625)"/>
     <use xlink:href="#DejaVuSans-Oblique-61" transform="translate(307.470703 0.015625)"/>
     <use xlink:href="#DejaVuSans-Oblique-6c" transform="translate(368.75 0.015625)"/>
     <use xlink:href="#DejaVuSans-Oblique-70" transform="translate(396.533203 0.015625)"/>
     <use xlink:href="#DejaVuSans-Oblique-68" transform="translate(460.009766 0.015625)"/>
     <use xlink:href="#DejaVuSans-Oblique-61" transform="translate(523.388672 0.015625)"/>
    </g>
   </g>
  </g>
  <g id="axes_1">
   <g id="line2d_27">
    <path d="M 111.111951 249.670914 
L 136.751048 241.912311 
L 163.075684 233.711068 
L 190.12043 225.046968 
L 217.922135 215.89844 
L 246.520129 206.242444 
L 270.698926 197.892049 
L 112.12093 248.779154 
L 116.596096 247.44261 
L 142.347447 239.615041 
L 168.789394 231.34193 
L 195.956822 222.602875 
L 223.886919 213.376109 
L 252.61938 203.638377 
L 271.658351 197.053592 
L 113.12835 247.8886 
L 117.602485 246.553365 
L 143.34751 238.733538 
L 169.782248 230.468736 
L 196.941506 221.73861 
L 224.86239 212.521443 
L 253.584502 202.794039 
L 272.616124 196.216355 
L 114.134213 246.999248 
L 118.607316 245.665324 
L 144.345996 237.853242 
L 170.773507 229.596755 
L 197.924578 220.87556 
L 225.836234 211.667994 
L 254.547984 201.950919 
L 273.572249 195.380335 
L 115.138525 246.111095 
L 119.61059 244.778484 
L 145.342907 236.974152 
L 171.763173 228.725983 
L 198.906043 220.013722 
L 226.808456 210.815759 
L 255.50983 201.109013 
L 274.526732 194.545529 
L 116.141287 245.224139 
L 120.612313 243.892841 
L 146.338248 236.096264 
L 172.751252 227.856417 
L 199.885904 219.153093 
L 227.779059 209.964735 
L 256.470045 200.268318 
L 275.479577 193.711934 
L 117.142506 244.338377 
L 121.612488 243.008393 
L 147.332023 235.219576 
L 173.737748 226.988055 
L 200.864165 218.293671 
L 228.748048 209.114918 
L 257.428634 199.428832 
L 276.430788 192.879546 
L 118.142183 243.453806 
L 122.611118 242.125136 
L 148.324235 234.344084 
L 174.722664 226.120892 
L 201.840831 217.435451 
L 229.715428 208.266306 
L 258.3856 198.59055 
L 277.380369 192.048362 
L 119.140322 242.570422 
L 123.608208 241.243068 
L 149.314889 233.469785 
L 175.706004 225.254927 
L 202.815906 216.578431 
L 230.681202 207.418896 
L 259.340948 197.753469 
L 278.328325 191.218379 
L 120.136928 241.688223 
L 124.60376 240.362186 
L 150.303988 232.596677 
L 176.687773 224.390156 
L 203.789393 215.722608 
L 231.645375 206.572683 
L 260.294683 196.917587 
L 279.274661 190.389594 
L 121.132004 240.807207 
L 125.59778 239.482488 
L 151.291536 231.724756 
L 177.667974 223.526576 
L 204.761297 214.867978 
L 232.60795 205.727666 
L 261.246808 196.0829 
L 280.21938 189.562003 
L 122.125554 239.92737 
L 126.59027 238.603969 
L 152.277536 230.85402 
L 178.646611 222.664184 
L 205.731622 214.014539 
L 233.568933 204.88384 
L 262.197328 195.249404 
L 281.162487 188.735602 
L 123.117582 239.048709 
L 127.581235 237.726628 
L 153.261994 229.984466 
L 179.623689 221.802977 
L 206.700372 213.162287 
L 234.528326 204.041203 
L 263.146247 194.417098 
L 282.103987 187.91039 
L 124.10809 238.171222 
L 128.570677 236.850461 
L 154.244911 229.11609 
L 180.59921 220.942952 
L 207.667551 212.31122 
L 235.486135 203.199751 
L 264.093569 193.585976 
L 283.043883 187.086362 
L 125.097083 237.294906 
L 129.558601 235.975465 
L 155.226293 228.24889 
L 181.573179 220.084106 
L 208.633163 211.461334 
L 236.442363 202.359483 
L 265.039299 192.756037 
L 283.982181 186.263515 
L 126.084564 236.419758 
L 130.545009 235.101639 
L 156.206143 227.382863 
L 182.5456 219.226436 
L 209.597211 210.612627 
L 237.397015 201.520393 
L 265.983441 191.927277 
L 284.918883 185.441847 
L 127.070537 235.545775 
L 131.529907 234.228978 
L 157.184464 226.518005 
L 183.516477 218.36994 
L 210.559701 209.765095 
L 238.350094 200.68248 
L 266.925998 191.099693 
L 285.853996 184.621353 
L 128.055006 234.672954 
L 132.513297 233.357481 
L 158.161261 225.654315 
L 184.485813 217.514613 
L 211.520635 208.918735 
L 239.301605 199.84574 
L 267.866976 190.273282 
L 286.787522 183.802032 
L 129.037974 233.801293 
L 133.495183 232.487144 
L 159.136537 224.79179 
L 185.453612 216.660454 
L 212.480018 208.073544 
L 240.251552 199.01017 
L 268.806379 189.44804 
L 287.719466 182.983878 
L 130.019444 232.930789 
L 134.475569 231.617964 
L 160.110296 223.930425 
L 186.419879 215.80746 
L 213.437854 207.22952 
L 241.199938 198.175767 
L 269.74421 188.623966 
L 288.649832 182.166891 
L 130.999421 232.061438 
L 135.454458 230.749939 
L 161.082542 223.07022 
L 187.384617 214.955627 
L 214.394147 206.386659 
L 242.146769 197.342529 
L 270.680473 187.801054 
L 289.578625 181.351065 
L 131.977908 231.193239 
L 136.431854 229.883067 
L 162.053277 222.21117 
L 188.347829 214.104952 
L 215.3489 205.544959 
L 243.092047 196.510451 
L 271.615174 186.979303 
L 290.505849 180.536399 
L 132.954908 230.326188 
L 137.40776 229.017343 
L 163.022507 221.353272 
L 189.30952 213.255433 
L 216.302117 204.704415 
L 244.035777 195.679531 
L 272.548315 186.158709 
L 291.431508 179.722889 
L 133.930425 229.460283 
L 138.38218 228.152766 
L 163.990234 220.496525 
L 190.269693 212.407067 
L 217.253803 203.865027 
L 244.977962 194.849767 
L 273.479901 185.339269 
L 292.355606 178.910531 
L 134.904462 228.595521 
L 139.355118 227.289332 
L 164.956463 219.640925 
L 191.228352 211.55985 
L 218.203961 203.02679 
L 245.918608 194.021154 
L 274.409937 184.520981 
L 293.278147 178.099324 
L 135.877023 227.7319 
L 140.326577 226.42704 
L 165.921196 218.78647 
L 192.185502 210.713781 
L 219.152595 202.189701 
L 246.857717 193.19369 
L 275.338426 183.703841 
L 294.199136 177.289263 
L 136.848112 226.869416 
L 141.29656 225.565886 
L 166.884438 217.933156 
L 193.141144 209.868856 
L 220.099709 201.353758 
L 247.795294 192.367373 
L 276.265372 182.887845 
L 295.118576 176.480345 
L 137.817732 226.008066 
L 142.265071 224.705867 
L 167.846192 217.080981 
L 194.095284 209.025072 
L 221.045307 200.518958 
L 248.731343 191.542198 
L 277.190779 182.072992 
L 296.036472 175.672569 
L 138.785886 225.147849 
L 143.232113 223.846981 
L 168.806461 216.229942 
L 195.047925 208.182426 
L 221.989392 199.685297 
L 249.665868 190.718164 
L 278.114652 181.259278 
L 296.952827 174.86593 
L 139.752578 224.288761 
L 144.197691 222.989225 
L 169.76525 215.380036 
L 195.999071 207.340917 
L 222.931969 198.852774 
L 250.598871 189.895266 
L 279.036994 180.446699 
L 297.867647 174.060425 
L 140.717811 223.4308 
L 145.161807 222.132596 
L 170.722562 214.531261 
L 196.948725 206.500539 
L 223.873041 198.021385 
L 251.530359 189.073503 
L 279.957809 179.635254 
L 298.780934 173.256052 
L 141.681589 222.573963 
L 146.124465 221.277092 
L 171.678401 213.683613 
L 197.896891 205.661292 
L 224.812611 197.191126 
L 252.460333 188.252871 
L 280.877102 178.824939 
L 299.692694 172.452807 
L 142.643916 221.718247 
L 147.085669 220.42271 
L 172.632769 212.837091 
L 198.843573 204.823172 
L 225.750685 196.361997 
L 253.388799 187.433367 
L 281.794876 178.01575 
L 300.602929 171.650688 
L 143.604794 220.86365 
L 148.045421 219.569447 
L 173.585671 211.991691 
L 199.788775 203.986177 
L 226.687265 195.533992 
L 254.31576 186.614989 
L 282.711136 177.207686 
L 301.511644 170.849691 
L 144.564227 220.010169 
L 149.003726 218.717301 
L 174.53711 211.14741 
L 200.732499 203.150303 
L 227.622355 194.707111 
L 255.24122 185.797733 
L 283.625885 176.400743 
L 302.418844 170.049813 
L 145.522218 219.157802 
L 149.960586 217.866269 
L 175.48709 210.304246 
L 201.67475 202.315548 
L 228.555959 193.881349 
L 256.165182 184.981597 
L 284.539127 175.594918 
L 303.324531 169.251052 
L 146.478771 218.306545 
L 150.916006 217.016349 
L 176.435614 209.462196 
L 202.615531 201.481909 
L 229.488081 193.056704 
L 257.087651 184.166578 
L 285.450866 174.790208 
L 304.228711 168.453404 
L 147.43389 217.456396 
L 151.869988 216.167536 
L 177.382685 208.621258 
L 203.554847 200.649383 
L 230.418724 192.233173 
L 258.00863 183.352672 
L 286.361106 173.986611 
L 305.131387 167.656867 
L 148.387577 216.607353 
L 152.822536 215.31983 
L 178.328308 207.781429 
L 204.492699 199.817968 
L 231.347893 191.410753 
L 258.928124 182.539878 
L 287.269851 173.184123 
L 306.032562 166.861437 
L 149.339837 215.759412 
L 153.773653 214.473228 
L 179.272485 206.942705 
L 205.429093 198.98766 
L 232.27559 190.589442 
L 259.846135 181.728192 
L 288.177105 172.382741 
L 306.932242 166.067112 
L 150.290671 214.912572 
L 154.723343 213.627726 
L 180.21522 206.105085 
L 206.364031 198.158458 
L 233.201819 189.769237 
L 260.762668 180.917611 
L 289.082871 171.582463 
L 307.830429 165.273889 
L 151.240084 214.06683 
L 155.671609 212.783323 
L 181.156517 205.268566 
L 207.297518 197.330358 
L 234.126585 188.950135 
L 261.677727 180.108132 
L 289.987154 170.783285 
L 308.727129 164.481764 
L 152.18808 213.222183 
L 156.618454 211.940015 
L 182.096379 204.433145 
L 208.229556 196.503358 
L 235.04989 188.132133 
L 262.591315 179.299753 
L 290.889958 169.985206 
L 309.622344 163.690735 
L 153.13466 212.378628 
L 157.563882 211.0978 
L 183.03481 203.598819 
L 209.16015 195.677454 
L 235.971738 187.315228 
L 263.503435 178.492471 
L 291.791286 169.188221 
L 310.516078 162.900799 
L 154.079829 211.536163 
L 158.507896 210.256675 
L 183.971812 202.765586 
L 210.089302 194.852645 
L 236.892134 186.499419 
L 264.414093 177.686283 
L 292.691141 168.392328 
L 311.408336 162.111954 
L 155.02359 210.694785 
L 159.450499 209.416639 
L 184.907389 201.933443 
L 211.017016 194.028927 
L 237.81108 185.684701 
L 265.32329 176.881186 
L 293.589529 167.597525 
L 312.299121 161.324195 
L 155.965947 209.854493 
L 160.391695 208.577687 
L 185.841545 201.102387 
L 211.943297 193.206298 
L 238.728581 184.871072 
L 266.231032 176.077178 
L 294.486452 166.803808 
L 313.188438 160.53752 
L 156.906902 209.015282 
L 161.331487 207.739819 
L 186.774284 200.272417 
L 212.868146 192.384756 
L 239.644639 184.05853 
L 267.137321 175.274255 
L 295.381914 166.011174 
L 314.076289 159.751928 
L 157.846458 208.177152 
L 162.269878 206.90303 
L 187.705607 199.443529 
L 213.791569 191.564297 
L 240.559258 183.247071 
L 268.042162 174.472415 
L 296.27592 165.219622 
L 314.962679 158.967413 
L 158.78462 207.340098 
L 163.206872 206.067319 
L 188.63552 198.61572 
L 214.713567 190.744918 
L 241.472442 182.436694 
L 268.945558 173.671655 
L 297.168472 164.429147 
L 315.847612 158.183974 
L 159.72139 206.504119 
L 164.142472 205.232684 
L 189.564025 197.788989 
L 215.634146 189.926618 
L 242.384195 181.627395 
L 269.847513 172.871973 
L 298.059575 163.639747 
L 316.731092 157.401609 
L 160.656771 205.669212 
L 165.07668 204.39912 
L 190.491125 196.963332 
L 216.553307 189.109394 
L 243.29452 180.819172 
L 270.74803 172.073365 
L 298.949233 162.85142 
L 317.613121 156.620313 
L 161.590768 204.835375 
L 166.009501 203.566627 
L 191.416824 196.138747 
L 217.471055 188.293243 
L 244.20342 180.012021 
L 271.647112 171.27583 
L 299.837448 162.064162 
L 318.493705 155.840085 
L 162.523382 204.002605 
L 166.940937 202.735202 
L 192.341125 195.315231 
L 218.387393 187.478162 
L 245.1109 179.205941 
L 272.544765 170.479363 
L 300.724226 161.277971 
L 319.372846 155.060921 
L 163.454617 203.1709 
L 167.870992 201.904841 
L 193.264032 194.492782 
L 219.302324 186.664148 
L 246.016962 178.400929 
L 273.44099 169.683963 
L 301.609568 160.492844 
L 320.250549 154.282819 
L 164.384477 202.340257 
L 168.799669 201.075543 
L 194.185548 193.671398 
L 220.215853 185.8512 
L 246.92161 177.596982 
L 274.335793 168.889627 
L 302.49348 159.708779 
L 321.126817 153.505775 
L 165.312964 201.510673 
L 169.726971 200.247305 
L 195.105675 192.851075 
L 221.127981 185.039314 
L 247.824847 176.794097 
L 275.229175 168.096352 
L 303.375965 158.925771 
L 322.001653 152.729788 
L 166.240082 200.682147 
L 170.652902 199.420124 
L 196.024418 192.031811 
L 222.038713 184.228489 
L 248.726678 175.992272 
L 276.121142 167.304135 
L 304.257026 158.14382 
L 322.875063 151.954854 
L 167.165834 199.854675 
L 171.577464 198.593999 
L 196.94178 191.213604 
L 222.948052 183.41872 
L 249.627104 175.191504 
L 277.011696 166.512974 
L 305.136667 157.362922 
L 323.747049 151.180971 
L 168.090223 199.028255 
L 172.500661 197.768926 
L 197.857764 190.396451 
L 223.856001 182.610007 
L 250.526131 174.39179 
L 277.900841 165.722866 
L 306.014892 156.583074 
L 324.617615 150.408136 
L 169.013252 198.202886 
L 173.422495 196.944903 
L 198.772373 189.58035 
L 224.762563 181.802345 
L 251.423761 173.593128 
L 278.78858 164.933808 
L 306.891704 155.804274 
L 325.486764 149.636346 
L 169.934924 197.378564 
L 174.342971 196.121928 
L 199.68561 188.765298 
L 225.667743 180.995734 
L 252.319998 172.795516 
L 279.674917 164.145798 
L 307.767107 155.026518 
L 326.354501 148.865598 
L 170.855243 196.555286 
L 175.262091 195.299999 
L 200.59748 187.951293 
L 226.571543 180.190169 
L 253.214845 171.99895 
L 280.559856 163.358833 
L 308.641105 154.249805 
L 327.220829 148.09589 
L 171.774212 195.733051 
L 176.179858 194.479112 
L 201.507984 187.138331 
L 227.473967 179.385649 
L 254.108306 171.203428 
L 281.4434 162.572911 
L 309.513701 153.474132 
L 328.085751 147.327219 
L 172.691833 194.911857 
L 177.096275 193.659265 
L 202.417126 186.326412 
L 228.375017 178.582172 
L 255.000383 170.408948 
L 282.325552 161.788029 
L 310.384898 152.699495 
L 328.949272 146.559582 
L 173.608111 194.0917 
L 178.011347 192.840457 
L 203.324909 185.515531 
L 229.274698 177.779733 
L 255.891081 169.615507 
L 283.206316 161.004183 
L 311.2547 151.925893 
L 329.811395 145.792977 
L 174.523047 193.272578 
L 178.925074 192.022684 
L 204.231337 184.705687 
L 230.173012 176.978332 
L 256.780403 168.823102 
L 284.085696 160.221373 
L 312.123112 151.153323 
L 330.672123 145.027401 
L 175.436645 192.454489 
L 179.837462 191.205944 
L 205.136413 183.896878 
L 231.069963 176.177966 
L 257.668351 168.031731 
L 284.963694 159.439594 
L 312.990135 150.381781 
L 331.53146 144.262851 
L 176.348908 191.63743 
L 180.748512 190.390235 
L 206.040139 183.0891 
L 231.965554 175.378631 
L 258.55493 167.241392 
L 285.840315 158.658845 
L 313.855774 149.611266 
L 332.389409 143.499325 
L 177.259839 190.8214 
L 181.658229 189.575554 
L 206.94252 182.282352 
L 232.859788 174.580326 
L 259.440143 166.452081 
L 286.715561 157.879123 
L 314.720033 148.841774 
L 333.245975 142.736819 
L 178.169442 190.006395 
L 182.566614 188.7619 
L 207.843558 181.476631 
L 233.752669 173.783048 
L 260.323993 165.663796 
L 287.589437 157.100425 
L 315.582914 148.073304 
L 334.10116 141.975332 
L 179.077718 189.192414 
L 183.473671 187.949268 
L 208.743256 180.671934 
L 234.644199 172.986795 
L 261.206483 164.876535 
L 288.461945 156.322748 
L 316.444422 147.305852 
L 334.954969 141.214861 
L 179.984672 188.379454 
L 184.379404 187.137658 
L 209.641618 179.86826 
L 235.534383 172.191564 
L 262.087617 164.090295 
L 289.333089 155.546091 
L 317.304559 146.539415 
L 335.807404 140.455402 
L 180.890306 187.567512 
L 185.283815 186.327067 
L 210.538646 179.065605 
L 236.423222 171.397352 
L 262.967398 163.305074 
L 290.202872 154.770451 
L 318.16333 145.773993 
L 336.658469 139.696954 
L 181.794624 186.756586 
L 186.186907 185.517493 
L 211.434344 178.263967 
L 237.310721 170.604158 
L 263.845829 162.520869 
L 291.071297 153.995824 
L 319.020737 145.009581 
L 337.508168 138.939514 
L 182.697628 185.946675 
L 187.088683 184.708932 
L 212.328715 177.463344 
L 238.196883 169.811978 
L 264.722914 161.737678 
L 291.938369 153.222209 
L 319.876784 144.246177 
L 338.356505 138.183079 
L 183.599321 185.137775 
L 187.989146 183.901384 
L 213.221762 176.663734 
L 239.08171 169.020811 
L 265.598656 160.955498 
L 292.80409 152.449604 
L 320.731474 143.483778 
L 339.203482 137.427647 
L 184.499706 184.329885 
L 188.888299 183.094845 
L 214.113487 175.865134 
L 239.965206 168.230654 
L 266.473057 160.174327 
L 293.668464 151.678004 
L 321.584812 142.722383 
L 340.049103 136.673215 
L 185.398787 183.523001 
L 189.786146 182.289313 
L 215.003895 175.067542 
L 240.847374 167.441505 
L 267.346122 159.394162 
L 294.531493 150.907409 
L 322.4368 141.961988 
L 340.893372 135.91978 
L 186.296566 182.717122 
L 190.682689 181.484786 
L 215.892988 174.270955 
L 241.728218 166.65336 
L 268.217854 158.615001 
L 295.393182 150.137815 
L 323.287441 141.202591 
L 341.736292 135.16734 
L 187.193047 181.912245 
L 191.577931 180.681261 
L 216.78077 173.475371 
L 242.60774 165.866218 
L 269.088255 157.836842 
L 296.253533 149.36922 
L 324.13674 140.44419 
L 342.577866 134.415893 
L 188.088231 181.108369 
L 192.471876 179.878737 
L 217.667242 172.680788 
L 243.485943 165.080077 
L 269.957329 157.059681 
L 297.112551 148.601622 
L 324.984698 139.686781 
L 343.418099 133.665435 
L 188.982123 180.30549 
L 193.364525 179.07721 
L 218.552409 171.887203 
L 244.362831 164.294933 
L 270.825079 156.283517 
L 297.970237 147.835018 
L 325.831321 138.930363 
L 344.256992 132.915965 
L 189.874724 179.503607 
L 194.255882 178.27668 
L 219.436273 171.094614 
L 245.238406 163.510785 
L 271.691509 155.508347 
L 298.826596 147.069405 
L 326.676611 138.174933 
L 345.09455 132.167479 
L 190.766039 178.702717 
L 195.145951 177.477142 
L 220.318838 170.303019 
L 246.112673 162.72763 
L 272.556621 154.734168 
L 299.68163 146.304782 
L 327.520571 137.420488 
L 345.930776 131.419976 
L 191.656069 177.902817 
L 196.034733 176.678596 
L 221.200106 169.512415 
L 246.985633 161.945466 
L 273.420419 153.960979 
L 300.535344 145.541145 
L 328.363205 136.667026 
L 346.765674 130.673453 
L 192.544819 177.103907 
L 196.922233 175.881038 
L 222.08008 168.722801 
L 247.85729 161.16429 
L 274.282905 153.188777 
L 301.387739 144.778492 
L 329.204516 135.914544 
L 347.599247 129.927906 
L 193.43229 176.305983 
L 197.808452 175.084467 
L 222.958764 167.934173 
L 248.727647 160.384101 
L 275.144084 152.41756 
L 302.23882 144.016822 
L 330.044508 135.163041 
L 348.431497 129.183334 
L 194.318485 175.509043 
L 198.693393 174.28888 
L 223.83616 167.146529 
L 249.596708 159.604895 
L 276.003958 151.647324 
L 303.08859 143.25613 
L 330.883183 134.412512 
L 349.262429 128.439735 
L 195.203409 174.713085 
L 199.577061 173.494275 
L 224.712271 166.359868 
L 250.464475 158.82667 
L 276.86253 150.878068 
L 303.937051 142.496416 
L 331.720545 133.662957 
L 350.092046 127.697105 
L 196.087062 173.918107 
L 200.459457 172.70065 
L 225.587101 165.574186 
L 251.33095 158.049425 
L 277.719803 150.10979 
L 304.784207 141.737676 
L 332.556597 132.914373 
L 350.920351 126.955443 
L 196.969449 173.124106 
L 201.340584 171.908003 
L 226.460651 164.789482 
L 252.196138 157.273156 
L 278.575781 149.342486 
L 305.630062 140.979908 
L 333.391343 132.166756 
L 351.747347 126.214746 
L 197.850572 172.33108 
L 202.220445 171.116331 
L 227.332926 164.005753 
L 253.060042 156.497862 
L 279.430467 148.576155 
L 306.474618 140.223111 
L 334.224785 131.420106 
L 352.573038 125.47501 
L 198.730433 171.539027 
L 203.099043 170.325632 
L 228.203929 163.222998 
L 253.922663 155.72354 
L 280.283863 147.810795 
L 307.317878 139.46728 
L 335.056928 130.674418 
L 353.397427 124.736235 
L 199.609037 170.747946 
L 203.976382 169.535903 
L 229.073661 162.441213 
L 254.784006 154.950188 
L 281.135973 147.046402 
L 308.159846 138.712415 
L 335.887773 129.929692 
L 354.220517 123.998418 
L 200.486385 169.957832 
L 204.852463 168.747144 
L 229.942126 161.660396 
L 255.644073 154.177803 
L 281.9868 146.282975 
L 309.000525 137.958512 
L 336.717325 129.185924 
L 355.042311 123.261555 
L 201.362481 169.168685 
L 205.72729 167.959351 
L 230.809327 160.880546 
L 256.502868 153.406384 
L 282.836346 145.520512 
L 309.839917 137.205569 
L 337.545587 128.443112 
L 355.862814 122.525645 
L 202.237327 168.380503 
L 206.600865 167.172522 
L 231.675267 160.10166 
L 257.360393 152.635927 
L 283.684616 144.759009 
L 310.678027 136.453585 
L 338.372561 127.701253 
L 356.682027 121.790685 
L 203.110926 167.593282 
L 207.473191 166.386655 
L 232.539949 159.323736 
L 258.21665 151.866432 
L 284.531612 143.998465 
L 311.514857 135.702556 
L 339.198252 126.960346 
L 357.499955 121.056673 
L 203.98328 166.807022 
L 208.344272 165.601748 
L 233.403375 158.546771 
L 259.071645 151.097894 
L 285.377336 143.238877 
L 312.35041 134.95248 
L 340.022661 126.220388 
L 358.316599 120.323607 
L 358.316599 120.323607 
" clip-path="url(#p3b9bfde387)" style="fill: none; stroke: #440154; stroke-opacity: 0.7; stroke-width: 1.5; stroke-linecap: square"/>
   </g>
   <g id="line2d_28">
    <path d="M 110.551459 236.290787 
L 136.293373 228.092804 
L 162.73083 219.435765 
L 189.899173 210.298455 
L 217.836102 200.658229 
L 246.58187 190.490885 
L 270.892501 181.703741 
L 111.564035 235.371466 
L 116.056711 233.958657 
L 141.91293 225.689597 
L 168.469869 216.958444 
L 195.763198 207.743792 
L 223.830964 198.022787 
L 252.7138 187.771001 
L 271.857321 180.842441 
L 112.575097 234.454271 
L 117.066806 233.04297 
L 142.917042 224.782805 
L 169.467097 216.061169 
L 196.752559 206.856711 
L 224.81139 197.146632 
L 253.684127 186.906568 
L 272.820446 179.986049 
L 113.58465 233.539196 
L 118.075389 232.129481 
L 143.919627 223.878655 
L 170.462774 215.166994 
L 197.74034 205.973201 
L 225.7902 196.274536 
L 254.652794 186.046698 
L 273.781876 179.134556 
L 114.592696 232.626237 
L 119.082463 231.218185 
L 144.920687 222.977141 
L 171.456905 214.275913 
L 198.726545 205.093256 
L 226.767396 195.406491 
L 255.619801 185.191382 
L 274.741613 178.287951 
L 115.599238 231.715391 
L 120.088031 230.309079 
L 145.920225 222.078259 
L 172.44949 213.387919 
L 199.711175 204.216869 
L 227.74298 194.542489 
L 256.585151 184.340611 
L 275.699658 177.446226 
L 116.604278 230.806653 
L 121.092094 229.402157 
L 146.918242 221.182003 
L 173.440532 212.503006 
L 200.694232 203.344033 
L 228.716952 193.682524 
L 257.548843 183.494377 
L 276.656012 176.60937 
L 117.607818 229.90002 
L 122.094657 228.497415 
L 147.914742 220.288368 
L 174.430033 211.62117 
L 201.675717 202.474741 
L 229.689315 192.826587 
L 258.51088 182.652671 
L 277.610675 175.777373 
L 118.609863 228.995486 
L 123.09572 227.59485 
L 148.909726 219.397351 
L 175.417994 210.742403 
L 202.655632 201.608987 
L 230.66007 191.974669 
L 259.471263 181.815483 
L 278.56365 174.950226 
L 119.610413 228.093048 
L 124.095288 226.694457 
L 149.903196 218.508944 
L 176.404419 209.8667 
L 203.633979 200.746764 
L 231.629218 191.126764 
L 260.429993 180.982805 
L 279.514938 174.12792 
L 120.609473 227.192701 
L 125.093362 225.796231 
L 150.895155 217.623144 
L 177.389308 208.994056 
L 204.61076 199.888065 
L 232.596762 190.282864 
L 261.38707 180.154627 
L 280.464538 173.310444 
L 121.607044 226.294442 
L 126.089945 224.90017 
L 151.885606 216.739945 
L 178.372664 208.124464 
L 205.585976 199.032883 
L 233.562701 189.442961 
L 262.342497 179.330942 
L 281.412453 172.497789 
L 122.60313 225.398267 
L 127.08504 224.006267 
L 152.874551 215.859343 
L 179.354489 207.257919 
L 206.559629 198.181212 
L 234.527039 188.607046 
L 263.296275 178.511739 
L 282.358684 171.689946 
L 123.597732 224.504171 
L 128.078649 223.11452 
L 153.861991 214.981332 
L 180.334785 206.394414 
L 207.531721 197.333044 
L 235.489776 187.775113 
L 264.248405 177.69701 
L 283.303232 170.886904 
L 124.590855 223.612151 
L 129.070775 222.224923 
L 154.847929 214.105907 
L 181.313553 205.533944 
L 208.502253 196.488374 
L 236.450913 186.947154 
L 265.198888 176.886747 
L 284.246098 170.088653 
L 125.582499 222.722201 
L 130.061421 221.337473 
L 155.832368 213.233065 
L 182.290797 204.676504 
L 209.471228 195.647193 
L 237.410453 186.12316 
L 266.147726 176.08094 
L 285.187282 169.295185 
L 126.572668 221.834319 
L 131.050589 220.452166 
L 156.81531 212.362798 
L 183.266517 203.822087 
L 210.438647 194.809497 
L 238.368397 185.303124 
L 267.094919 175.27958 
L 286.126788 168.506489 
L 127.561365 220.9485 
L 132.038282 219.568997 
L 157.796757 211.495104 
L 184.240716 202.970687 
L 211.404511 193.975277 
L 239.324747 184.487038 
L 268.04047 174.482659 
L 287.064614 167.722556 
L 128.548592 220.06474 
L 133.024502 218.687962 
L 158.776711 210.629976 
L 185.213396 202.1223 
L 212.368823 193.144528 
L 240.279503 183.674895 
L 268.984379 173.690168 
L 288.000764 166.943376 
L 129.534352 219.183035 
L 134.009252 217.809058 
L 159.755174 209.76741 
L 186.184559 201.276918 
L 213.331585 192.317242 
L 241.232668 182.866687 
L 269.926648 172.902097 
L 288.935237 166.16894 
L 130.518648 218.303382 
L 134.992534 216.932279 
L 160.73215 208.907401 
L 187.154207 200.434537 
L 214.292798 191.493413 
L 242.184242 182.062406 
L 270.867278 172.118438 
L 289.868036 165.399237 
L 131.501481 217.425775 
L 135.974351 216.057622 
L 161.70764 208.049943 
L 188.122342 199.59515 
L 215.252463 190.673033 
L 243.134228 181.262044 
L 271.80627 171.339182 
L 290.799161 164.634258 
L 132.482855 216.550211 
L 136.954706 215.185082 
L 162.681646 207.195033 
L 189.088966 198.758752 
L 216.210583 189.856098 
L 244.082627 180.465594 
L 272.743626 170.56432 
L 291.728613 163.873993 
L 133.462772 215.676687 
L 137.933601 214.314656 
L 163.65417 206.342665 
L 190.05408 197.925337 
L 217.167159 189.042599 
L 245.029441 179.673048 
L 273.679347 169.793843 
L 292.656394 163.118433 
L 134.441235 214.805197 
L 138.911038 213.44634 
L 164.625216 205.492835 
L 191.017688 197.0949 
L 218.122193 188.23253 
L 245.974671 178.884397 
L 274.613435 169.027743 
L 293.582505 162.367568 
L 135.418246 213.935739 
L 139.88702 212.580128 
L 165.594785 204.645537 
L 191.97979 196.267434 
L 219.075688 187.425885 
L 246.918318 178.099636 
L 275.54589 168.26601 
L 294.506948 161.621388 
L 136.393808 213.068307 
L 140.861551 211.716018 
L 166.56288 203.800766 
L 192.940389 195.442934 
L 220.027643 186.622656 
L 247.860384 177.318755 
L 276.476715 167.508636 
L 295.429723 160.879884 
L 137.367924 212.202899 
L 141.834631 210.854005 
L 167.529502 202.958519 
L 193.899487 194.621395 
L 220.978062 185.822837 
L 248.800871 176.541747 
L 277.40591 166.755612 
L 296.350832 160.143046 
L 138.340596 211.33951 
L 142.806264 209.994085 
L 168.494654 202.118789 
L 194.857086 193.80281 
L 221.926946 185.026422 
L 249.73978 175.768604 
L 278.333476 166.006928 
L 297.270275 159.410864 
L 139.311826 210.478137 
L 143.776452 209.136254 
L 169.458338 201.281573 
L 195.813188 192.987174 
L 222.874297 184.233404 
L 250.677113 174.99932 
L 279.259416 165.262577 
L 298.188055 158.683328 
L 140.281618 209.618774 
L 144.745199 208.280508 
L 170.420557 200.446864 
L 196.767795 192.174481 
L 223.820117 183.443776 
L 251.612872 174.233885 
L 280.183731 164.522549 
L 299.104173 157.96043 
L 141.249973 208.761419 
L 145.712505 207.426843 
L 171.381312 199.61466 
L 197.720908 191.364725 
L 224.764407 182.657532 
L 252.547057 173.472293 
L 281.106421 163.786835 
L 300.018629 157.242159 
L 142.216895 207.906068 
L 146.678374 206.575254 
L 172.340606 198.784954 
L 198.672531 190.557902 
L 225.707169 181.874665 
L 253.47967 172.714535 
L 282.027489 163.055427 
L 300.931426 156.528505 
L 143.182386 207.052716 
L 147.642808 205.725738 
L 173.298442 197.957741 
L 199.622664 189.754005 
L 226.648405 181.095168 
L 254.410714 171.960605 
L 282.946935 162.328316 
L 301.842563 155.81946 
L 144.146448 206.20136 
L 148.60581 204.878292 
L 174.25482 197.133018 
L 200.57131 188.953028 
L 227.588116 180.319035 
L 255.340189 171.210493 
L 283.864762 161.605493 
L 302.752044 155.115013 
L 145.109084 205.351996 
L 149.567382 204.032909 
L 175.209745 196.310779 
L 201.51847 188.154967 
L 228.526305 179.54626 
L 256.268097 170.464194 
L 284.78097 160.886949 
L 303.659869 154.415154 
L 146.070296 204.504619 
L 150.527527 203.189588 
L 176.163217 195.49102 
L 202.464148 187.359814 
L 229.462973 178.776835 
L 257.19444 169.721699 
L 285.695561 160.172675 
L 304.566039 153.719875 
L 147.030087 203.659227 
L 151.486247 202.348323 
L 177.115239 194.673736 
L 203.408344 186.567566 
L 230.398122 178.010754 
L 258.119219 168.983 
L 286.608536 159.462662 
L 305.470555 153.029164 
L 147.98846 202.815815 
L 152.443544 201.509111 
L 178.065813 193.858922 
L 204.351061 185.778215 
L 231.331754 177.24801 
L 259.042436 168.24809 
L 287.519897 158.756903 
L 306.37342 152.343014 
L 148.945417 201.974379 
L 153.399422 200.671948 
L 179.014942 193.046573 
L 205.2923 184.991757 
L 232.26387 176.488598 
L 259.964092 167.516962 
L 288.429645 158.055387 
L 307.274634 151.661414 
L 149.90096 201.134916 
L 154.353882 199.83683 
L 179.962628 192.236684 
L 206.232064 184.208187 
L 233.194472 175.73251 
L 260.884189 166.789607 
L 289.337782 157.358106 
L 308.174198 150.984354 
L 150.855092 200.297422 
L 155.306927 199.003753 
L 180.908872 191.429252 
L 207.170355 183.427497 
L 234.123562 174.97974 
L 261.802729 166.066018 
L 290.244308 156.665052 
L 309.072114 150.311825 
L 151.807816 199.461892 
L 156.25856 198.172712 
L 181.853677 190.62427 
L 208.107175 182.649683 
L 235.051142 174.230282 
L 262.719713 165.346187 
L 291.149226 155.976215 
L 309.968384 149.643817 
L 152.759134 198.628324 
L 157.208782 197.343705 
L 182.797046 189.821735 
L 209.042525 181.87474 
L 235.977214 173.484128 
L 263.635142 164.630107 
L 292.052537 155.291586 
L 310.863009 148.980321 
L 153.709048 197.796712 
L 158.157597 196.516726 
L 183.73898 189.021642 
L 209.976407 181.102661 
L 236.901778 172.741273 
L 264.549019 163.917771 
L 292.954242 154.611158 
L 311.755989 148.321327 
L 154.657561 196.967054 
L 159.105006 195.691773 
L 184.679482 188.223986 
L 210.908824 180.333441 
L 237.824838 172.001709 
L 265.461345 163.20917 
L 293.854343 153.934921 
L 312.647327 147.666826 
L 155.604675 196.139346 
L 160.051013 194.868841 
L 185.618553 187.428762 
L 211.839777 179.567075 
L 238.746395 171.265431 
L 266.372121 162.504297 
L 294.752841 153.262866 
L 313.537024 147.016807 
L 156.550393 195.313584 
L 160.995619 194.047926 
L 186.556197 186.635966 
L 212.769269 178.803557 
L 239.66645 170.532431 
L 267.281349 161.803145 
L 295.649737 152.594985 
L 314.425081 146.371261 
L 157.494718 194.489764 
L 161.938827 193.229025 
L 187.492414 185.845592 
L 213.697302 178.042881 
L 240.585005 169.802704 
L 268.189031 161.105706 
L 296.545034 151.931269 
L 315.311499 145.730179 
L 158.437651 193.667882 
L 162.88064 192.412133 
L 188.427208 185.057638 
L 214.623876 177.285043 
L 241.502063 169.076243 
L 269.095168 160.411972 
L 297.438732 151.271709 
L 316.196281 145.09355 
L 159.379195 192.847934 
L 163.821059 191.597246 
L 189.360581 184.272097 
L 215.548995 176.530036 
L 242.417624 168.353041 
L 269.999762 159.721936 
L 298.330833 150.616296 
L 317.079426 144.461366 
L 160.319353 192.029918 
L 164.760087 190.784362 
L 190.292534 183.488965 
L 216.47266 175.777855 
L 243.331691 167.633092 
L 270.902815 159.03559 
L 299.221339 149.965022 
L 317.960938 143.833617 
L 161.258127 191.213828 
L 165.697727 189.973475 
L 191.22307 182.708237 
L 217.394874 175.028494 
L 244.244265 166.91639 
L 271.804327 158.352928 
L 300.110251 149.317877 
L 318.840817 143.210293 
L 162.19552 190.399662 
L 166.633981 189.164582 
L 192.152191 181.92991 
L 218.315637 174.281949 
L 245.155349 166.202928 
L 272.704301 157.67394 
L 300.99757 148.674854 
L 319.719064 142.591385 
L 163.131533 189.587416 
L 167.568852 188.35768 
L 193.0799 181.153977 
L 219.234953 173.538213 
L 246.064943 165.492699 
L 273.602739 156.99862 
L 301.883298 148.035944 
L 320.595681 141.976883 
L 164.06617 188.777085 
L 168.502341 187.552764 
L 194.006197 180.380436 
L 220.152823 172.797281 
L 246.973051 164.785697 
L 274.499641 156.32696 
L 302.767436 147.401137 
L 321.47067 141.366777 
L 164.999432 187.968667 
L 169.434451 186.74983 
L 194.931086 179.60928 
L 221.069249 172.059148 
L 247.879672 164.081916 
L 275.39501 155.658953 
L 303.649986 146.770425 
L 322.344031 140.761058 
L 165.931323 187.162157 
L 170.365185 185.948875 
L 195.854569 178.840506 
L 221.984232 171.323808 
L 248.78481 163.38135 
L 276.288847 154.994592 
L 304.53095 146.143799 
L 323.215767 140.159717 
L 166.861845 186.357552 
L 171.294545 185.149895 
L 196.776648 178.074108 
L 222.897776 170.591256 
L 249.688466 162.683991 
L 277.181154 154.333868 
L 305.410329 145.521251 
L 324.085879 139.562743 
L 167.790999 185.554848 
L 172.222532 184.352886 
L 197.697324 177.310083 
L 223.809882 169.861486 
L 250.590642 161.989834 
L 278.071933 153.676774 
L 306.288124 144.902772 
L 324.954367 138.970128 
L 168.718788 184.754042 
L 173.149151 183.557845 
L 198.616601 176.548426 
L 224.720551 169.134493 
L 251.491339 161.298872 
L 278.961184 153.023303 
L 307.164337 144.288354 
L 325.821235 138.381861 
L 169.645216 183.955129 
L 174.074402 182.764766 
L 199.53448 175.789132 
L 225.629787 168.410272 
L 252.39056 160.611099 
L 279.84891 152.373447 
L 308.038969 143.677986 
L 326.686482 137.797933 
L 170.570283 183.158107 
L 174.998288 181.973648 
L 200.450963 175.032197 
L 226.537589 167.688816 
L 253.288305 159.926508 
L 280.735112 151.727199 
L 308.912022 143.071662 
L 327.550111 137.218335 
L 171.493993 182.362971 
L 175.920813 181.184485 
L 201.366053 174.277615 
L 227.443962 166.970122 
L 254.184578 159.245093 
L 281.619792 151.084551 
L 309.783498 142.469371 
L 328.412123 136.643058 
L 172.416348 181.569718 
L 176.841977 180.397275 
L 202.279751 173.525383 
L 228.348906 166.254182 
L 255.079379 158.566847 
L 282.502952 150.445497 
L 310.653398 141.871107 
L 329.27252 136.07209 
L 173.33735 180.778344 
L 177.761783 179.612013 
L 203.19206 172.775497 
L 229.252424 165.540993 
L 255.972711 157.891765 
L 283.384592 149.810027 
L 311.521723 141.276859 
L 330.131303 135.505424 
L 174.257002 179.988846 
L 178.680234 178.828695 
L 204.102982 172.02795 
L 230.154517 164.830548 
L 256.864575 157.21984 
L 284.264716 149.178136 
L 312.388475 140.686619 
L 330.988473 134.94305 
L 175.175306 179.20122 
L 179.597332 178.047319 
L 205.012518 171.28274 
L 231.055188 164.122842 
L 257.754972 156.551065 
L 285.143324 148.549815 
L 313.253656 140.100379 
L 331.844032 134.384957 
L 176.092264 178.415462 
L 180.513079 177.267879 
L 205.920672 170.539862 
L 231.954438 163.41787 
L 258.643906 155.885435 
L 286.020418 147.925058 
L 314.117267 139.51813 
L 332.697981 133.831137 
L 177.007879 177.631569 
L 181.427477 176.490373 
L 206.827445 169.79931 
L 232.852269 162.715626 
L 259.531377 155.222942 
L 286.896 147.303856 
L 314.97931 138.939863 
L 333.550322 133.28158 
L 177.922153 176.849537 
L 182.34053 175.714797 
L 207.73284 169.061081 
L 233.748683 162.016106 
L 260.417387 154.563581 
L 287.770071 146.686203 
L 315.839786 138.36557 
L 334.401057 132.736277 
L 178.835088 176.069363 
L 183.252238 174.941147 
L 208.636857 168.325171 
L 234.643683 161.319303 
L 261.301939 153.907346 
L 288.642633 146.072091 
L 316.698697 137.795241 
L 335.250187 132.195218 
L 179.746687 175.291043 
L 184.162605 174.16942 
L 209.539501 167.591573 
L 235.537269 160.625213 
L 262.185033 153.254229 
L 289.513688 145.461512 
L 317.556044 137.22887 
L 336.097714 131.658393 
L 180.656952 174.514573 
L 185.071633 173.39961 
L 210.440772 166.860285 
L 236.429444 159.93383 
L 263.066672 152.604225 
L 290.383237 144.854459 
L 318.411829 136.666446 
L 336.943638 131.125794 
L 181.565885 173.73995 
L 185.979324 172.631716 
L 211.340672 166.131302 
L 237.320211 159.245148 
L 263.946857 151.957328 
L 291.251283 144.250925 
L 319.266053 136.107961 
L 337.787962 130.59741 
L 182.473489 172.96717 
L 186.88568 171.865733 
L 212.239204 165.404619 
L 238.20957 158.559164 
L 264.82559 151.31353 
L 292.117825 143.650903 
L 320.118718 135.553407 
L 338.630687 130.073233 
L 183.379765 172.196231 
L 187.790703 171.101658 
L 213.136371 164.680232 
L 239.097524 157.87587 
L 265.702873 150.672827 
L 292.982867 143.054384 
L 320.969826 135.002775 
L 339.471815 129.553252 
L 184.284718 171.427127 
L 188.694397 170.339487 
L 214.032173 163.958137 
L 239.984074 157.195263 
L 266.578708 150.035211 
L 293.84641 142.461362 
L 321.819379 134.456056 
L 340.311346 129.037459 
L 185.188347 170.659857 
L 189.596763 169.579216 
L 214.926613 163.238329 
L 240.869223 156.517336 
L 267.453097 149.400676 
L 294.708456 141.87183 
L 322.667377 133.913243 
L 341.149284 128.525843 
L 186.090657 169.894415 
L 190.497803 168.820842 
L 215.819693 162.520803 
L 241.752973 155.842084 
L 268.32604 148.769217 
L 295.569006 141.28578 
L 323.513822 133.374325 
L 341.985629 128.018396 
L 186.991649 169.1308 
L 191.397519 168.06436 
L 216.711416 161.805555 
L 242.635325 155.169503 
L 269.197541 148.140826 
L 296.428062 140.703204 
L 324.358716 132.839296 
L 342.820382 127.515108 
L 187.891325 168.369006 
L 192.295915 167.309769 
L 217.601783 161.092582 
L 243.516281 154.499586 
L 270.067601 147.515498 
L 297.285625 140.124096 
L 325.202061 132.308146 
L 343.653546 127.01597 
L 188.789688 167.609031 
L 193.192991 166.557062 
L 218.490796 160.381878 
L 244.395844 153.832329 
L 270.936221 146.893227 
L 298.141698 139.548448 
L 326.043858 131.780866 
L 344.485122 126.520972 
L 189.68674 166.850872 
L 194.088751 165.806239 
L 219.378458 159.673439 
L 245.274014 153.167727 
L 271.803403 146.274006 
L 298.996281 138.976252 
L 326.884108 131.257449 
L 345.315111 126.030105 
L 190.582483 166.094524 
L 194.983197 165.057293 
L 220.26477 158.96726 
L 246.150795 152.505774 
L 272.66915 145.657828 
L 299.849378 138.407502 
L 327.722814 130.737885 
L 346.143515 125.543359 
L 191.47692 165.339985 
L 195.876331 164.310223 
L 221.149734 158.263339 
L 247.026187 151.846464 
L 273.533462 145.044689 
L 300.700988 137.84219 
L 328.559977 130.222166 
L 346.970336 125.060725 
L 192.370053 164.58725 
L 196.768154 163.565024 
L 222.033353 157.561669 
L 247.900193 151.189794 
L 274.396342 144.434581 
L 301.551114 137.280309 
L 329.395598 129.710284 
L 347.795576 124.582194 
L 193.261883 163.836316 
L 197.65867 162.821693 
L 222.915629 156.862247 
L 248.772816 150.535757 
L 275.257792 143.827499 
L 302.399758 136.721851 
L 330.229679 129.20223 
L 348.619235 124.107756 
L 194.152415 163.087181 
L 198.547881 162.080226 
L 223.796564 156.165068 
L 249.644055 149.884348 
L 276.117812 143.223436 
L 303.246922 136.16681 
L 331.062222 128.697995 
L 349.441315 123.637403 
L 195.041648 162.33984 
L 199.435788 161.340619 
L 224.676159 155.470128 
L 250.513914 149.235563 
L 276.976406 142.622386 
L 304.092606 135.615178 
L 331.893229 128.197572 
L 350.261819 123.171123 
L 195.929587 161.59429 
L 200.322394 160.60287 
L 225.554417 154.777424 
L 251.382395 148.589395 
L 277.833575 142.024342 
L 304.936813 135.066947 
L 332.7227 127.700951 
L 351.080747 122.708909 
L 196.816232 160.850528 
L 201.207701 159.866974 
L 226.43134 154.086949 
L 252.249499 147.945841 
L 278.68932 141.4293 
L 305.779544 134.522111 
L 333.550638 127.208124 
L 351.898101 122.250751 
L 197.701587 160.10855 
L 202.091712 159.132929 
L 227.30693 153.398701 
L 253.115228 147.304894 
L 279.543643 140.837253 
L 306.620801 133.980663 
L 334.377044 126.719083 
L 352.713883 121.796639 
L 198.585654 159.368352 
L 202.974429 158.400729 
L 228.181188 152.712674 
L 253.979585 146.666549 
L 280.396546 140.248193 
L 307.460586 133.442594 
L 335.20192 126.233819 
L 353.528094 121.346565 
L 199.468434 158.629932 
L 203.855853 157.670373 
L 229.054118 152.028866 
L 254.84257 146.030802 
L 281.248032 139.662117 
L 308.298901 132.907898 
L 336.025268 125.752324 
L 354.340737 120.900518 
L 200.34993 157.893286 
L 204.735987 156.941856 
L 229.92572 151.34727 
L 255.704186 145.397647 
L 282.098101 139.079016 
L 309.135746 132.376568 
L 336.847088 125.274589 
L 355.151812 120.45849 
L 201.230144 157.15841 
L 205.614833 156.215175 
L 230.795998 150.667884 
L 256.564435 144.767079 
L 282.946755 138.498886 
L 309.971124 131.848597 
L 337.667383 124.800606 
L 355.961321 120.020471 
L 202.109079 156.425302 
L 206.492394 155.490327 
L 231.664952 149.990702 
L 257.423319 144.139093 
L 283.793996 137.92172 
L 310.805037 131.323976 
L 338.486155 124.330367 
L 356.769267 119.586453 
L 202.986737 155.693958 
L 207.368671 154.767307 
L 232.532586 149.31572 
L 258.280839 143.513684 
L 284.639827 137.347512 
L 311.637486 130.8027 
L 339.303405 123.863863 
L 357.57565 119.156425 
L 203.863119 154.964373 
L 208.243667 154.046113 
L 233.3989 148.642936 
L 259.136998 142.890847 
L 285.484248 136.776256 
L 312.468472 130.28476 
L 340.119134 123.401085 
L 358.380472 118.730378 
L 358.380472 118.730378 
" clip-path="url(#p3b9bfde387)" style="fill: none; stroke: #21918c; stroke-opacity: 0.7; stroke-width: 1.5; stroke-linecap: square"/>
   </g>
   <g id="line2d_29">
    <path d="M 109.985864 222.788822 
L 135.831405 214.143649 
L 162.382641 205.022483 
L 189.675713 195.403073 
L 217.749185 185.261649 
L 246.644263 174.572799 
L 271.088174 165.340011 
L 111.002059 221.841474 
L 115.512379 220.351059 
L 141.474308 211.632607 
L 168.147235 202.434987 
L 195.567634 192.735746 
L 223.774431 182.510895 
L 252.809224 171.734782 
L 272.058451 164.455421 
L 112.01679 220.897187 
L 116.526206 219.40848 
L 142.482501 210.700087 
L 169.148874 201.513204 
L 196.561715 191.825433 
L 224.759862 181.61285 
L 253.784813 170.849873 
L 273.026987 163.579507 
L 113.030058 219.955955 
L 117.538569 218.469112 
L 143.489219 209.771668 
L 170.14901 200.596443 
L 197.554251 190.921095 
L 225.743689 180.721766 
L 254.758721 169.972943 
L 273.993781 162.712252 
L 114.041865 219.017772 
L 118.54947 217.532947 
L 144.494462 208.847344 
L 171.147645 199.684695 
L 198.545243 190.022722 
L 226.725911 179.837629 
L 255.730946 169.103978 
L 274.95883 161.85364 
L 115.052212 218.082634 
L 119.558911 216.59998 
L 145.498231 207.927108 
L 172.144777 198.777954 
L 199.534688 189.130302 
L 227.706526 178.960427 
L 256.701484 168.242964 
L 275.922132 161.003656 
L 116.061102 217.150535 
L 120.566893 215.670206 
L 146.500527 207.010951 
L 173.140408 197.876208 
L 200.522587 188.243825 
L 228.685534 178.090147 
L 257.670336 167.389886 
L 276.883684 160.162284 
L 117.068535 216.22147 
L 121.573417 214.743619 
L 147.501351 206.098868 
L 174.134536 196.979451 
L 201.508939 187.363282 
L 229.662932 177.226777 
L 258.637497 166.544729 
L 277.843485 159.329506 
L 118.074514 215.295432 
L 122.578486 213.820214 
L 148.500702 205.190852 
L 175.127162 196.087673 
L 202.493743 186.48866 
L 230.638719 176.370305 
L 259.602968 165.707479 
L 278.801532 158.505306 
L 119.079039 214.372418 
L 123.5821 212.899985 
L 149.498583 204.286894 
L 176.118287 195.200866 
L 203.476998 185.619951 
L 231.612895 175.520718 
L 260.566745 164.878121 
L 279.757823 157.689669 
L 120.082114 213.452422 
L 124.584261 211.982926 
L 150.494993 203.386989 
L 177.107909 194.31902 
L 204.458705 184.757144 
L 232.585457 174.678004 
L 261.528827 164.05664 
L 280.712356 156.882578 
L 121.083739 212.535437 
L 125.58497 211.069033 
L 151.489935 202.491129 
L 178.09603 193.442128 
L 205.438861 183.900227 
L 233.556405 173.842149 
L 262.489213 163.243021 
L 281.665128 156.084016 
L 122.083915 211.62146 
L 126.58423 210.158298 
L 152.483407 201.599307 
L 179.082648 192.570181 
L 206.417467 183.049191 
L 234.525738 173.013142 
L 263.447899 162.437249 
L 282.616138 155.293966 
L 123.082646 210.710484 
L 127.582041 209.250717 
L 153.475412 200.711516 
L 180.067765 191.70317 
L 207.394522 182.204025 
L 235.493454 172.19097 
L 264.404886 161.63931 
L 283.565383 154.512413 
L 124.079932 209.802505 
L 128.578406 208.346285 
L 154.465949 199.827749 
L 181.051381 190.841086 
L 208.370026 181.364718 
L 236.459552 171.37562 
L 265.36017 160.849187 
L 284.512861 153.73934 
L 125.075774 208.897517 
L 129.573325 207.444995 
L 155.45502 198.948 
L 182.033495 189.98392 
L 209.343977 180.53126 
L 237.42403 170.567079 
L 266.31375 160.066867 
L 285.458571 152.974729 
L 126.070175 207.995515 
L 130.5668 206.546843 
L 156.442626 198.07226 
L 183.014107 189.131664 
L 210.316376 179.70364 
L 238.386889 169.765335 
L 267.265625 159.292334 
L 286.402509 152.218563 
L 127.063137 207.096493 
L 131.558833 205.651822 
L 157.428767 197.200523 
L 183.993219 188.28431 
L 211.287222 178.881848 
L 239.348126 168.970374 
L 268.215793 158.525573 
L 287.344676 151.470827 
L 128.05466 206.200447 
L 132.549425 204.759927 
L 158.413444 196.332783 
L 184.970829 187.441848 
L 212.256514 178.065873 
L 240.307741 168.182185 
L 269.164251 157.766569 
L 288.285067 150.731504 
L 129.044747 205.307371 
L 133.538578 203.871153 
L 159.396658 195.469031 
L 185.946938 186.604269 
L 213.224252 177.255703 
L 241.265732 167.400754 
L 270.111 157.015306 
L 289.223682 150.000575 
L 130.033399 204.417259 
L 134.526293 202.985494 
L 160.37841 194.609262 
L 186.921546 185.771566 
L 214.190436 176.45133 
L 242.222099 166.626068 
L 271.056037 156.271769 
L 290.160519 149.278024 
L 131.020617 203.530107 
L 135.512572 202.102945 
L 161.3587 193.753467 
L 187.894654 184.943729 
L 215.155064 175.652741 
L 243.17684 165.858114 
L 271.99936 155.535943 
L 291.095576 148.563834 
L 132.006404 202.645909 
L 136.497416 201.2235 
L 162.33753 192.901641 
L 188.866261 184.120749 
L 216.118137 174.859926 
L 244.129955 165.096881 
L 272.940968 154.807812 
L 292.028851 147.857989 
L 132.990761 201.76466 
L 137.480826 200.347153 
L 163.3149 192.053775 
L 189.836368 183.302618 
L 217.079654 174.072875 
L 245.081442 164.342354 
L 273.88086 154.087362 
L 292.960342 147.16047 
L 133.97369 200.886354 
L 138.462805 199.4739 
L 164.290812 191.209863 
L 190.804975 182.489327 
L 218.039615 173.291576 
L 246.0313 163.59452 
L 274.819034 153.374576 
L 293.890047 146.47126 
L 134.955192 200.010988 
L 139.443354 198.603734 
L 165.265265 190.369898 
L 191.772082 181.680867 
L 218.998019 172.516019 
L 246.979529 162.853367 
L 275.755488 152.669438 
L 294.817966 145.790342 
L 135.935269 199.138554 
L 140.422474 197.73665 
L 166.238261 189.533873 
L 192.737689 180.877229 
L 219.954866 171.746194 
L 247.926128 162.118882 
L 276.690222 151.971935 
L 295.744095 145.117699 
L 136.913923 198.269049 
L 141.400167 196.872643 
L 167.2098 188.701781 
L 193.701797 180.078405 
L 220.910156 170.982089 
L 248.871096 161.391052 
L 277.623234 151.282049 
L 296.668434 144.453314 
L 137.891155 197.402466 
L 142.376434 196.011707 
L 168.179885 187.873614 
L 194.664405 179.284386 
L 221.863888 170.223693 
L 249.814431 160.669863 
L 278.554522 150.599765 
L 297.590981 143.797168 
L 138.866967 196.538801 
L 143.351278 195.153837 
L 169.148514 187.049367 
L 195.625515 178.495163 
L 222.816062 169.470997 
L 250.756133 159.955302 
L 279.484086 149.925068 
L 298.511735 143.149244 
L 139.84136 195.678049 
L 144.324698 194.299027 
L 170.11569 186.229031 
L 196.585126 177.710727 
L 223.766677 168.723988 
L 251.696201 159.247357 
L 280.411923 149.257941 
L 299.430693 142.509526 
L 140.814337 194.820204 
L 145.296698 193.447272 
L 171.081413 185.4126 
L 197.543238 176.93107 
L 224.715734 167.982656 
L 252.634635 158.546013 
L 281.338033 148.598369 
L 300.347854 141.877994 
L 141.785898 193.96526 
L 146.267278 192.598567 
L 172.045683 184.600067 
L 198.499852 176.156182 
L 225.663231 167.246991 
L 253.571433 157.851259 
L 282.262415 147.946337 
L 301.263217 141.254632 
L 142.756046 193.113214 
L 147.23644 191.752905 
L 173.008503 183.791424 
L 199.454968 175.386055 
L 226.609169 166.51698 
L 254.506595 157.163081 
L 283.185066 147.301828 
L 302.176781 140.639421 
L 143.724782 192.264059 
L 148.204185 190.910283 
L 173.969873 182.986666 
L 200.408587 174.620681 
L 227.553548 165.792615 
L 255.44012 156.481464 
L 284.105987 146.664826 
L 303.088543 140.032344 
L 144.692107 191.417791 
L 149.170515 190.070693 
L 174.929793 182.185784 
L 201.360708 173.860049 
L 228.496367 165.073883 
L 256.372007 155.806398 
L 285.025175 146.035316 
L 303.998503 139.433384 
L 145.658024 190.574405 
L 150.135432 189.234131 
L 175.888265 181.388772 
L 202.311332 173.104152 
L 229.437626 164.360774 
L 257.302256 155.137867 
L 285.942631 145.413282 
L 304.906659 138.842522 
L 146.622534 189.733894 
L 151.098937 188.400591 
L 176.845289 180.595623 
L 203.26046 172.35298 
L 230.377324 163.653276 
L 258.230865 154.475859 
L 286.858351 144.798707 
L 305.81301 138.25974 
L 147.585638 188.896255 
L 152.061032 187.570068 
L 177.800866 179.806329 
L 204.208091 171.606525 
L 231.315462 162.951379 
L 259.157835 153.82036 
L 287.772337 144.191575 
L 306.717554 137.68502 
L 148.547339 188.061481 
L 153.021717 186.742557 
L 178.754998 179.020885 
L 205.154227 170.864778 
L 232.25204 162.255072 
L 260.083164 153.171357 
L 288.684585 143.591871 
L 307.62029 137.118345 
L 149.507637 187.229569 
L 153.980996 185.918052 
L 179.707685 178.239282 
L 206.098866 170.12773 
L 233.187056 161.564345 
L 261.006852 152.528837 
L 289.595096 142.999579 
L 308.521217 136.559696 
L 150.466536 186.400511 
L 154.938868 185.096547 
L 180.658929 177.461514 
L 207.04201 169.395372 
L 234.120512 160.879185 
L 261.928898 151.892786 
L 290.503869 142.414682 
L 309.420334 136.009055 
L 151.424035 185.574305 
L 155.895336 184.278038 
L 181.608729 176.687574 
L 207.98366 168.667696 
L 235.052406 160.199582 
L 262.849302 151.263191 
L 291.410901 141.837163 
L 310.31764 135.466404 
L 152.380137 184.750944 
L 156.850401 183.462519 
L 182.557087 175.917454 
L 208.923814 167.944692 
L 235.982739 159.525525 
L 263.768062 150.640038 
L 292.316194 141.267008 
L 311.213132 134.931726 
L 153.334843 183.930423 
L 157.804065 182.649984 
L 183.504004 175.151149 
L 209.862475 167.226351 
L 236.911511 158.857003 
L 264.68518 150.023314 
L 293.219744 140.704199 
L 312.106811 134.405001 
L 154.288156 183.112737 
L 158.75633 181.840428 
L 184.449481 174.38865 
L 210.799642 166.512666 
L 237.838722 158.194004 
L 265.600653 149.413006 
L 294.121553 140.148721 
L 312.998675 133.886211 
L 155.240076 182.297882 
L 159.707196 181.033847 
L 185.393519 173.629951 
L 211.735315 165.803626 
L 238.76437 157.536519 
L 266.514481 148.809099 
L 295.021618 139.600556 
L 313.888723 133.375338 
L 156.190605 181.485851 
L 160.656665 180.230234 
L 186.336119 172.875045 
L 212.669496 165.099223 
L 239.688457 156.884536 
L 267.426665 148.211581 
L 295.919938 139.05969 
L 314.776954 132.872364 
L 157.139746 180.67664 
L 161.604739 179.429584 
L 187.277281 172.123926 
L 213.602184 164.399449 
L 240.610983 156.238044 
L 268.337202 147.620438 
L 296.816514 138.526105 
L 315.663367 132.377271 
L 158.087499 179.870244 
L 162.551419 178.631892 
L 188.217007 171.376585 
L 214.533379 163.704294 
L 241.531946 155.597031 
L 269.246094 147.035656 
L 297.711344 137.999784 
L 316.547961 131.890039 
L 159.033866 179.066658 
L 163.496708 177.837152 
L 189.155298 170.633016 
L 215.463084 163.013749 
L 242.451348 154.961487 
L 270.153339 146.457222 
L 298.604427 137.480712 
L 317.430735 131.410651 
L 159.978849 178.265877 
L 164.440605 177.045359 
L 190.092154 169.893212 
L 216.391296 162.327806 
L 243.369188 154.3314 
L 271.058938 145.885122 
L 299.495763 136.968873 
L 318.311688 130.939088 
L 160.922449 177.467895 
L 165.383114 176.256509 
L 191.027577 169.157166 
L 217.318019 161.646455 
L 244.285466 153.706761 
L 271.962888 145.319342 
L 300.385351 136.464249 
L 319.190819 130.475331 
L 161.864669 176.672708 
L 166.324235 175.470594 
L 191.961568 168.424871 
L 218.24325 160.969688 
L 245.200182 153.087556 
L 272.865191 144.75987 
L 301.27319 135.966823 
L 320.068128 130.019362 
L 162.805509 175.88031 
L 167.26397 174.687611 
L 192.894127 167.69632 
L 219.166992 160.297497 
L 246.113337 152.473776 
L 273.765846 144.206691 
L 302.159279 135.476581 
L 320.943612 129.571162 
L 163.744971 175.090697 
L 168.202321 173.907554 
L 193.825255 166.971506 
L 220.089245 159.629871 
L 247.024929 151.865409 
L 274.664853 143.659791 
L 303.043618 134.993504 
L 321.817273 129.130713 
L 164.683058 174.303863 
L 169.139288 173.130418 
L 194.754954 166.250423 
L 221.010009 158.966802 
L 247.93496 151.262444 
L 275.562211 143.119157 
L 303.926206 134.517577 
L 322.689108 128.697996 
L 165.61977 173.519804 
L 170.074875 172.356196 
L 195.683225 165.533063 
L 221.929284 158.308282 
L 248.843429 150.664871 
L 276.457919 142.584775 
L 304.807043 134.048783 
L 323.559117 128.272992 
L 166.555109 172.738514 
L 171.009081 171.584885 
L 196.610068 164.819419 
L 222.847072 157.654301 
L 249.750337 150.072677 
L 277.351978 142.056632 
L 305.686128 133.587104 
L 324.427299 127.855682 
L 167.489077 171.959988 
L 171.941909 170.816478 
L 197.535484 164.109485 
L 223.763372 157.00485 
L 250.655683 149.485851 
L 278.244388 141.534713 
L 306.56346 133.132525 
L 325.293654 127.446048 
L 168.421676 171.184222 
L 172.87336 170.050971 
L 198.459475 163.403253 
L 224.678185 156.359921 
L 251.559468 148.904383 
L 279.135147 141.019006 
L 307.439038 132.685029 
L 326.158181 127.044071 
L 169.352907 170.41121 
L 173.803435 169.288358 
L 199.382042 162.700716 
L 225.591512 155.719504 
L 252.461691 148.328262 
L 280.024256 140.509495 
L 308.312863 132.244598 
L 327.020879 126.649732 
L 170.282771 169.640947 
L 174.732137 168.528634 
L 200.303185 162.001868 
L 226.503354 155.083591 
L 253.362353 147.757475 
L 280.911715 140.006168 
L 309.184934 131.811217 
L 327.881748 126.263011 
L 171.211271 168.873429 
L 175.659467 167.771794 
L 201.222905 161.306702 
L 227.41371 154.452173 
L 254.261454 147.192013 
L 281.797523 139.509011 
L 310.05525 131.384868 
L 328.740787 125.883891 
L 172.138407 168.10865 
L 176.585426 167.017832 
L 202.141205 160.61521 
L 228.322581 153.825241 
L 255.158994 146.631863 
L 282.68168 139.018009 
L 310.923811 130.965535 
L 329.597995 125.512352 
L 173.064183 167.346606 
L 177.510015 166.266743 
L 203.058083 159.927386 
L 229.229969 153.202786 
L 256.054974 146.077015 
L 283.564186 138.53315 
L 311.790617 130.5532 
L 330.453372 125.148376 
L 173.988598 166.587291 
L 178.433237 165.518522 
L 203.973543 159.243223 
L 230.135873 152.5848 
L 256.949393 145.527457 
L 284.445041 138.054418 
L 312.655666 130.147848 
L 331.306917 124.791942 
L 174.911655 165.830701 
L 179.355093 164.773163 
L 204.887584 158.562713 
L 231.040294 151.971272 
L 257.842251 144.983178 
L 285.324244 137.581801 
L 313.518959 129.74946 
L 332.15863 124.443033 
L 175.833356 165.07683 
L 180.275584 164.030663 
L 205.800208 157.885851 
L 231.943233 151.362194 
L 258.73355 144.444167 
L 286.201796 137.115284 
L 314.380495 129.358021 
L 333.00851 124.101629 
L 176.753701 164.325673 
L 181.194712 163.291014 
L 206.711415 157.212629 
L 232.84469 150.757558 
L 259.623288 143.910413 
L 287.077696 136.654853 
L 315.240274 128.973513 
L 333.856557 123.767711 
L 177.672694 163.577226 
L 182.112479 162.554212 
L 207.621207 156.54304 
L 233.744666 150.157355 
L 260.511467 143.381905 
L 287.951945 136.200495 
L 316.098296 128.595919 
L 334.702771 123.44126 
L 178.590334 162.831484 
L 183.028885 161.820252 
L 208.529586 155.877077 
L 234.643162 149.561575 
L 261.398086 142.858631 
L 288.824542 135.752196 
L 316.95456 128.225222 
L 335.547151 123.122256 
L 179.506625 162.088442 
L 183.943933 161.089129 
L 209.43655 155.214733 
L 235.540177 148.97021 
L 262.283146 142.340579 
L 289.695487 135.309942 
L 317.809066 127.861406 
L 336.389697 122.810682 
L 180.421567 161.348094 
L 184.857624 160.360837 
L 210.342103 154.556002 
L 236.435714 148.38325 
L 263.166647 141.82774 
L 290.564781 134.873718 
L 318.661813 127.504453 
L 337.230408 122.506516 
L 181.335162 160.610436 
L 185.76996 159.635371 
L 211.246245 153.900876 
L 237.329772 147.800687 
L 264.048589 141.3201 
L 291.432422 134.443511 
L 319.512802 127.154347 
L 338.069284 122.209741 
L 182.247412 159.875464 
L 186.680941 158.912727 
L 212.148977 153.249349 
L 238.222352 147.222512 
L 264.928972 140.817651 
L 292.298412 134.019307 
L 320.362033 126.811069 
L 338.906324 121.920337 
L 183.158318 159.143171 
L 187.590571 158.192898 
L 213.0503 152.601414 
L 239.113454 146.648717 
L 265.807798 140.320379 
L 293.16275 133.601092 
L 321.209504 126.474604 
L 339.74153 121.638284 
L 184.067882 158.413553 
L 188.498849 157.47588 
L 213.950216 151.957064 
L 240.00308 146.079291 
L 266.685066 139.828273 
L 294.025436 133.188852 
L 322.055217 126.144935 
L 340.574899 121.363564 
L 184.976106 157.686606 
L 189.405778 156.761667 
L 214.848724 151.316291 
L 240.89123 145.514226 
L 267.560776 139.341323 
L 294.88647 132.782573 
L 322.89917 125.822043 
L 341.406433 121.096157 
L 185.882991 156.962324 
L 190.311359 156.050254 
L 215.745827 150.67909 
L 241.777905 144.953514 
L 268.434929 138.859518 
L 295.745853 132.382241 
L 323.741364 125.505912 
L 342.23613 120.836043 
L 186.788539 156.240703 
L 191.215594 155.341637 
L 216.641526 150.045453 
L 242.663105 144.397145 
L 269.307526 138.382845 
L 296.603584 131.987842 
L 324.581798 125.196525 
L 343.063991 120.583204 
L 187.692751 155.521737 
L 192.118484 154.63581 
L 217.535821 149.415373 
L 243.546831 143.845111 
L 270.178566 137.911294 
L 297.459663 131.599362 
L 325.420473 124.893865 
L 343.890016 120.33762 
L 188.595629 154.805422 
L 193.020031 153.932768 
L 218.428713 148.788843 
L 244.429085 143.297402 
L 271.04805 137.444853 
L 298.314091 131.216787 
L 326.257389 124.597914 
L 344.714204 120.099272 
L 189.497175 154.091753 
L 193.920236 153.232505 
L 219.320205 148.165858 
L 245.309865 142.754009 
L 271.915978 136.98351 
L 299.166868 130.840102 
L 327.092545 124.308656 
L 345.536555 119.868139 
L 190.39739 153.380725 
L 194.819101 152.535017 
L 220.210296 147.546408 
L 246.189174 142.214925 
L 272.782351 136.527256 
L 300.017994 130.469294 
L 327.925941 124.026072 
L 346.35707 119.644204 
L 191.296276 152.672333 
L 195.716627 151.840299 
L 221.098988 146.930489 
L 247.067012 141.680139 
L 273.647169 136.076078 
L 300.867469 130.104349 
L 328.757578 123.750147 
L 347.175748 119.427445 
L 192.193834 151.966572 
L 196.612816 151.148345 
L 221.986282 146.318093 
L 247.943379 141.149643 
L 274.510432 135.629965 
L 301.715293 129.745253 
L 329.587455 123.480862 
L 347.992589 119.217845 
L 193.090067 151.263438 
L 197.50767 150.45915 
L 222.872179 145.709213 
L 248.818277 140.623428 
L 275.372142 135.188906 
L 302.561466 129.391991 
L 330.415572 123.218201 
L 348.807594 119.015382 
L 193.984975 150.562926 
L 198.401189 149.772709 
L 223.75668 145.103843 
L 249.691706 140.101485 
L 276.232298 134.752889 
L 303.405989 129.04455 
L 331.24193 122.962146 
L 349.620761 118.820039 
L 194.87856 149.86503 
L 199.293376 149.089018 
L 224.639787 144.501975 
L 250.563667 139.583805 
L 277.0909 134.321903 
L 304.248862 128.702915 
L 332.066529 122.71268 
L 350.432092 118.631795 
L 195.770824 149.169747 
L 200.184232 148.40807 
L 225.5215 143.903602 
L 251.434161 139.07038 
L 277.94795 133.895937 
L 305.090085 128.367072 
L 332.889368 122.469786 
L 351.241586 118.45063 
L 196.661769 148.47707 
L 201.073759 147.729862 
L 226.401821 143.308719 
L 252.303188 138.561199 
L 278.803448 133.47498 
L 305.929658 128.037007 
L 333.710449 122.233446 
L 352.049244 118.276525 
L 197.551396 147.786996 
L 201.961957 147.054387 
L 227.280751 142.717317 
L 253.170749 138.056256 
L 279.657394 133.05902 
L 306.767582 127.712707 
L 334.52977 122.003643 
L 352.855065 118.109461 
L 198.439706 147.09952 
L 202.84883 146.38164 
L 228.15829 142.129391 
L 254.036845 137.55554 
L 280.509789 132.648045 
L 307.603857 127.394156 
L 335.347332 121.780361 
L 353.65905 117.949418 
L 199.326702 146.414637 
L 203.734377 145.711618 
L 229.03444 141.544933 
L 254.901478 137.059042 
L 281.360634 132.242045 
L 308.438483 127.081342 
L 336.163136 121.56358 
L 354.461199 117.796377 
L 200.212385 145.732341 
L 204.618601 145.044314 
L 229.909203 140.963936 
L 255.764646 136.566754 
L 282.209928 131.841009 
L 309.271461 126.774249 
L 336.977182 121.353285 
L 355.261512 117.650317 
L 201.096756 145.052629 
L 205.501503 144.379724 
L 230.782579 140.386394 
L 256.626352 136.078667 
L 283.057672 131.444924 
L 310.102791 126.472863 
L 337.789469 121.149457 
L 356.05999 117.511219 
L 201.979817 144.375495 
L 206.383084 143.717842 
L 231.654569 139.8123 
L 257.486597 135.594773 
L 283.903867 131.053779 
L 310.932473 126.177171 
L 338.599998 120.95208 
L 356.856632 117.379063 
L 202.86157 143.700935 
L 207.263347 143.058663 
L 232.525174 139.241648 
L 258.34538 135.115061 
L 284.748514 130.667564 
L 311.760507 125.887158 
L 339.40877 120.761136 
L 357.651438 117.25383 
L 203.742016 143.028944 
L 208.142293 142.402183 
L 233.394397 138.674429 
L 259.202703 134.639523 
L 285.591613 130.286266 
L 312.586894 125.60281 
L 340.215784 120.576608 
L 358.44441 117.135501 
L 358.44441 117.135501 
" clip-path="url(#p3b9bfde387)" style="fill: none; stroke: #fde725; stroke-opacity: 0.7; stroke-width: 1.5; stroke-linecap: square"/>
   </g>
   <g id="legend_1">
    <g id="patch_6">
     <path d="M 305.4 62.834375 
L 385.4 62.834375 
Q 387.4 62.834375 387.4 60.834375 
L 387.4 17.8 
Q 387.4 15.8 385.4 15.8 
L 305.4 15.8 
Q 303.4 15.8 303.4 17.8 
L 303.4 60.834375 
Q 303.4 62.834375 305.4 62.834375 
z
" style="fill: #ffffff; opacity: 0.8; stroke: #cccccc; stroke-linejoin: miter"/>
    </g>
    <g id="line2d_30">
     <path d="M 307.4 23.898438 
L 317.4 23.898438 
L 327.4 23.898438 
" style="fill: none; stroke: #440154; stroke-opacity: 0.7; stroke-width: 1.5; stroke-linecap: square"/>
    </g>
    <g id="text_27">
     <!-- $\delta_e = -10$ -->
     <g transform="translate(335.4 27.398438) scale(0.1 -0.1)">
      <defs>
       <path id="DejaVuSans-Oblique-3b4" d="M 3472 4053 
Q 3197 4272 2450 4272 
Q 1659 4272 1588 3906 
Q 1531 3619 2328 3469 
Q 2953 3353 3253 3003 
Q 3616 2581 3447 1716 
Q 3284 888 2763 400 
Q 2238 -91 1488 -91 
Q 741 -91 406 400 
Q 72 888 241 1747 
Q 363 2384 891 2900 
Q 1097 3100 1353 3213 
Q 913 3459 1000 3900 
Q 1166 4750 2544 4750 
Q 3234 4750 3566 4531 
L 3472 4053 
z
M 1753 3056 
Q 1525 2966 1306 2738 
Q 969 2384 847 1747 
Q 722 1113 919 756 
Q 1119 397 1584 397 
Q 2044 397 2381 759 
Q 2722 1122 2838 1716 
Q 2956 2338 2731 2638 
Q 2491 2959 2103 2994 
Q 1906 3013 1753 3056 
z
" transform="scale(0.015625)"/>
       <path id="DejaVuSans-Oblique-65" d="M 3078 2063 
Q 3088 2113 3092 2166 
Q 3097 2219 3097 2272 
Q 3097 2653 2873 2875 
Q 2650 3097 2266 3097 
Q 1838 3097 1509 2826 
Q 1181 2556 1013 2059 
L 3078 2063 
z
M 3578 1613 
L 903 1613 
Q 884 1494 878 1425 
Q 872 1356 872 1306 
Q 872 872 1139 634 
Q 1406 397 1894 397 
Q 2269 397 2603 481 
Q 2938 566 3225 728 
L 3116 159 
Q 2806 34 2476 -28 
Q 2147 -91 1806 -91 
Q 1078 -91 686 257 
Q 294 606 294 1247 
Q 294 1794 489 2264 
Q 684 2734 1063 3103 
Q 1306 3334 1642 3459 
Q 1978 3584 2356 3584 
Q 2950 3584 3301 3228 
Q 3653 2872 3653 2272 
Q 3653 2128 3634 1964 
Q 3616 1800 3578 1613 
z
" transform="scale(0.015625)"/>
       <path id="DejaVuSans-3d" d="M 678 2906 
L 4684 2906 
L 4684 2381 
L 678 2381 
L 678 2906 
z
M 678 1631 
L 4684 1631 
L 4684 1100 
L 678 1100 
L 678 1631 
z
" transform="scale(0.015625)"/>
       <path id="DejaVuSans-2212" d="M 678 2272 
L 4684 2272 
L 4684 1741 
L 678 1741 
L 678 2272 
z
" transform="scale(0.015625)"/>
      </defs>
      <use xlink:href="#DejaVuSans-Oblique-3b4" transform="translate(0 0.78125)"/>
      <use xlink:href="#DejaVuSans-Oblique-65" transform="translate(61.181641 -15.625) scale(0.7)"/>
      <use xlink:href="#DejaVuSans-3d" transform="translate(126.464844 0.78125)"/>
      <use xlink:href="#DejaVuSans-2212" transform="translate(249.21875 0.78125)"/>
      <use xlink:href="#DejaVuSans-31" transform="translate(352.490234 0.78125)"/>
      <use xlink:href="#DejaVuSans-30" transform="translate(416.113281 0.78125)"/>
     </g>
    </g>
    <g id="line2d_31">
     <path d="M 307.4 38.576563 
L 317.4 38.576563 
L 327.4 38.576563 
" style="fill: none; stroke: #21918c; stroke-opacity: 0.7; stroke-width: 1.5; stroke-linecap: square"/>
    </g>
    <g id="text_28">
     <!-- $\delta_e = 0$ -->
     <g transform="translate(335.4 42.076563) scale(0.1 -0.1)">
      <use xlink:href="#DejaVuSans-Oblique-3b4" transform="translate(0 0.78125)"/>
      <use xlink:href="#DejaVuSans-Oblique-65" transform="translate(61.181641 -15.625) scale(0.7)"/>
      <use xlink:href="#DejaVuSans-3d" transform="translate(126.464844 0.78125)"/>
      <use xlink:href="#DejaVuSans-30" transform="translate(229.736328 0.78125)"/>
     </g>
    </g>
    <g id="line2d_32">
     <path d="M 307.4 53.254687 
L 317.4 53.254687 
L 327.4 53.254687 
" style="fill: none; stroke: #fde725; stroke-opacity: 0.7; stroke-width: 1.5; stroke-linecap: square"/>
    </g>
    <g id="text_29">
     <!-- $\delta_e = 10$ -->
     <g transform="translate(335.4 56.754687) scale(0.1 -0.1)">
      <use xlink:href="#DejaVuSans-Oblique-3b4" transform="translate(0 0.78125)"/>
      <use xlink:href="#DejaVuSans-Oblique-65" transform="translate(61.181641 -15.625) scale(0.7)"/>
      <use xlink:href="#DejaVuSans-3d" transform="translate(126.464844 0.78125)"/>
      <use xlink:href="#DejaVuSans-31" transform="translate(229.736328 0.78125)"/>
      <use xlink:href="#DejaVuSans-30" transform="translate(293.359375 0.78125)"/>
     </g>
    </g>
   </g>
  </g>
 </g>
 <defs>
  <clipPath id="p3b9bfde387">
   <rect x="68.4" y="10.8" width="324" height="324"/>
  </clipPath>
 </defs>
</svg>
