<?xml version="1.0" encoding="utf-8" standalone="no"?>
<!DOCTYPE svg PUBLIC "-//W3C//DTD SVG 1.1//EN"
  "http://www.w3.org/Graphics/SVG/1.1/DTD/svg11.dtd">
<svg xmlns:xlink="http://www.w3.org/1999/xlink" width="288pt" height="216pt" viewBox="0 0 288 216" xmlns="http://www.w3.org/2000/svg" version="1.1">
 <metadata>
  <rdf:RDF xmlns:dc="http://purl.org/dc/elements/1.1/" xmlns:cc="http://creativecommons.org/ns#" xmlns:rdf="http://www.w3.org/1999/02/22-rdf-syntax-ns#">
   <cc:Work>
    <dc:type rdf:resource="http://purl.org/dc/dcmitype/StillImage"/>
    <dc:date>2025-03-26T12:15:12.360469</dc:date>
    <dc:format>image/svg+xml</dc:format>
    <dc:creator>
     <cc:Agent>
      <dc:title>Matplotlib v3.9.2, https://matplotlib.org/</dc:title>
     </cc:Agent>
    </dc:creator>
   </cc:Work>
  </rdf:RDF>
 </metadata>
 <defs>
  <style type="text/css">*{stroke-linejoin: round; stroke-linecap: butt}</style>
 </defs>
 <g id="figure_1">
  <g id="patch_1">
   <path d="M 0 216 
L 288 216 
L 288 0 
L 0 0 
z
" style="fill: #ffffff"/>
  </g>
  <g id="axes_1">
   <g id="patch_2">
    <path d="M 63.47 174.04 
L 277.2 174.04 
L 277.2 10.8 
L 63.47 10.8 
z
" style="fill: #ffffff"/>
   </g>
   <g id="matplotlib.axis_1">
    <g id="xtick_1">
     <g id="line2d_1">
      <path d="M 73.185 174.04 
L 73.185 10.8 
" clip-path="url(#pb30e78bc2f)" style="fill: none; stroke: #b0b0b0; stroke-width: 0.8; stroke-linecap: square"/>
     </g>
     <g id="line2d_2">
      <defs>
       <path id="m6b7ab75391" d="M 0 0 
L 0 3.5 
" style="stroke: #000000; stroke-width: 0.8"/>
      </defs>
      <g>
       <use xlink:href="#m6b7ab75391" x="73.185" y="174.04" style="stroke: #000000; stroke-width: 0.8"/>
      </g>
     </g>
     <g id="text_1">
      <!-- 0 -->
      <g transform="translate(70.00375 188.638438) scale(0.1 -0.1)">
       <defs>
        <path id="DejaVuSans-30" d="M 2034 4250 
Q 1547 4250 1301 3770 
Q 1056 3291 1056 2328 
Q 1056 1369 1301 889 
Q 1547 409 2034 409 
Q 2525 409 2770 889 
Q 3016 1369 3016 2328 
Q 3016 3291 2770 3770 
Q 2525 4250 2034 4250 
z
M 2034 4750 
Q 2819 4750 3233 4129 
Q 3647 3509 3647 2328 
Q 3647 1150 3233 529 
Q 2819 -91 2034 -91 
Q 1250 -91 836 529 
Q 422 1150 422 2328 
Q 422 3509 836 4129 
Q 1250 4750 2034 4750 
z
" transform="scale(0.015625)"/>
       </defs>
       <use xlink:href="#DejaVuSans-30"/>
      </g>
     </g>
    </g>
    <g id="xtick_2">
     <g id="line2d_3">
      <path d="M 128.699286 174.04 
L 128.699286 10.8 
" clip-path="url(#pb30e78bc2f)" style="fill: none; stroke: #b0b0b0; stroke-width: 0.8; stroke-linecap: square"/>
     </g>
     <g id="line2d_4">
      <g>
       <use xlink:href="#m6b7ab75391" x="128.699286" y="174.04" style="stroke: #000000; stroke-width: 0.8"/>
      </g>
     </g>
     <g id="text_2">
      <!-- 2 -->
      <g transform="translate(125.518036 188.638438) scale(0.1 -0.1)">
       <defs>
        <path id="DejaVuSans-32" d="M 1228 531 
L 3431 531 
L 3431 0 
L 469 0 
L 469 531 
Q 828 903 1448 1529 
Q 2069 2156 2228 2338 
Q 2531 2678 2651 2914 
Q 2772 3150 2772 3378 
Q 2772 3750 2511 3984 
Q 2250 4219 1831 4219 
Q 1534 4219 1204 4116 
Q 875 4013 500 3803 
L 500 4441 
Q 881 4594 1212 4672 
Q 1544 4750 1819 4750 
Q 2544 4750 2975 4387 
Q 3406 4025 3406 3419 
Q 3406 3131 3298 2873 
Q 3191 2616 2906 2266 
Q 2828 2175 2409 1742 
Q 1991 1309 1228 531 
z
" transform="scale(0.015625)"/>
       </defs>
       <use xlink:href="#DejaVuSans-32"/>
      </g>
     </g>
    </g>
    <g id="xtick_3">
     <g id="line2d_5">
      <path d="M 184.213571 174.04 
L 184.213571 10.8 
" clip-path="url(#pb30e78bc2f)" style="fill: none; stroke: #b0b0b0; stroke-width: 0.8; stroke-linecap: square"/>
     </g>
     <g id="line2d_6">
      <g>
       <use xlink:href="#m6b7ab75391" x="184.213571" y="174.04" style="stroke: #000000; stroke-width: 0.8"/>
      </g>
     </g>
     <g id="text_3">
      <!-- 4 -->
      <g transform="translate(181.032321 188.638438) scale(0.1 -0.1)">
       <defs>
        <path id="DejaVuSans-34" d="M 2419 4116 
L 825 1625 
L 2419 1625 
L 2419 4116 
z
M 2253 4666 
L 3047 4666 
L 3047 1625 
L 3713 1625 
L 3713 1100 
L 3047 1100 
L 3047 0 
L 2419 0 
L 2419 1100 
L 313 1100 
L 313 1709 
L 2253 4666 
z
" transform="scale(0.015625)"/>
       </defs>
       <use xlink:href="#DejaVuSans-34"/>
      </g>
     </g>
    </g>
    <g id="xtick_4">
     <g id="line2d_7">
      <path d="M 239.727857 174.04 
L 239.727857 10.8 
" clip-path="url(#pb30e78bc2f)" style="fill: none; stroke: #b0b0b0; stroke-width: 0.8; stroke-linecap: square"/>
     </g>
     <g id="line2d_8">
      <g>
       <use xlink:href="#m6b7ab75391" x="239.727857" y="174.04" style="stroke: #000000; stroke-width: 0.8"/>
      </g>
     </g>
     <g id="text_4">
      <!-- 6 -->
      <g transform="translate(236.546607 188.638438) scale(0.1 -0.1)">
       <defs>
        <path id="DejaVuSans-36" d="M 2113 2584 
Q 1688 2584 1439 2293 
Q 1191 2003 1191 1497 
Q 1191 994 1439 701 
Q 1688 409 2113 409 
Q 2538 409 2786 701 
Q 3034 994 3034 1497 
Q 3034 2003 2786 2293 
Q 2538 2584 2113 2584 
z
M 3366 4563 
L 3366 3988 
Q 3128 4100 2886 4159 
Q 2644 4219 2406 4219 
Q 1781 4219 1451 3797 
Q 1122 3375 1075 2522 
Q 1259 2794 1537 2939 
Q 1816 3084 2150 3084 
Q 2853 3084 3261 2657 
Q 3669 2231 3669 1497 
Q 3669 778 3244 343 
Q 2819 -91 2113 -91 
Q 1303 -91 875 529 
Q 447 1150 447 2328 
Q 447 3434 972 4092 
Q 1497 4750 2381 4750 
Q 2619 4750 2861 4703 
Q 3103 4656 3366 4563 
z
" transform="scale(0.015625)"/>
       </defs>
       <use xlink:href="#DejaVuSans-36"/>
      </g>
     </g>
    </g>
    <g id="text_5">
     <!-- $\alpha$ -->
     <g transform="translate(167.035 202.316563) scale(0.1 -0.1)">
      <defs>
       <path id="DejaVuSans-Oblique-3b1" d="M 2619 1628 
L 2622 2350 
Q 2625 3088 2069 3091 
Q 1653 3094 1394 2747 
Q 1069 2319 959 1747 
Q 825 1059 994 731 
Q 1169 397 1547 397 
Q 1966 397 2319 1063 
L 2619 1628 
z
M 2166 3578 
Q 3141 3594 3128 2584 
Q 3128 2584 3616 3500 
L 4128 3500 
L 3119 1603 
L 3109 919 
Q 3109 766 3194 638 
Q 3291 488 3391 488 
L 3669 488 
L 3575 0 
L 3228 0 
Q 2934 0 2722 263 
Q 2622 394 2619 669 
Q 2416 334 2066 50 
Q 1900 -81 1453 -78 
Q 722 -72 456 397 
Q 184 884 353 1747 
Q 534 2675 1009 3097 
Q 1544 3569 2166 3578 
z
" transform="scale(0.015625)"/>
      </defs>
      <use xlink:href="#DejaVuSans-Oblique-3b1" transform="translate(0 0.84375)"/>
     </g>
    </g>
   </g>
   <g id="matplotlib.axis_2">
    <g id="ytick_1">
     <g id="line2d_9">
      <path d="M 63.47 155.957301 
L 277.2 155.957301 
" clip-path="url(#pb30e78bc2f)" style="fill: none; stroke: #b0b0b0; stroke-width: 0.8; stroke-linecap: square"/>
     </g>
     <g id="line2d_10">
      <defs>
       <path id="m5c067d84fe" d="M 0 0 
L -3.5 0 
" style="stroke: #000000; stroke-width: 0.8"/>
      </defs>
      <g>
       <use xlink:href="#m5c067d84fe" x="63.47" y="155.957301" style="stroke: #000000; stroke-width: 0.8"/>
      </g>
     </g>
     <g id="text_6">
      <!-- 0.000 -->
      <g transform="translate(27.841875 159.75652) scale(0.1 -0.1)">
       <defs>
        <path id="DejaVuSans-2e" d="M 684 794 
L 1344 794 
L 1344 0 
L 684 0 
L 684 794 
z
" transform="scale(0.015625)"/>
       </defs>
       <use xlink:href="#DejaVuSans-30"/>
       <use xlink:href="#DejaVuSans-2e" x="63.623047"/>
       <use xlink:href="#DejaVuSans-30" x="95.410156"/>
       <use xlink:href="#DejaVuSans-30" x="159.033203"/>
       <use xlink:href="#DejaVuSans-30" x="222.65625"/>
      </g>
     </g>
    </g>
    <g id="ytick_2">
     <g id="line2d_11">
      <path d="M 63.47 129.388521 
L 277.2 129.388521 
" clip-path="url(#pb30e78bc2f)" style="fill: none; stroke: #b0b0b0; stroke-width: 0.8; stroke-linecap: square"/>
     </g>
     <g id="line2d_12">
      <g>
       <use xlink:href="#m5c067d84fe" x="63.47" y="129.388521" style="stroke: #000000; stroke-width: 0.8"/>
      </g>
     </g>
     <g id="text_7">
      <!-- 0.002 -->
      <g transform="translate(27.841875 133.18774) scale(0.1 -0.1)">
       <use xlink:href="#DejaVuSans-30"/>
       <use xlink:href="#DejaVuSans-2e" x="63.623047"/>
       <use xlink:href="#DejaVuSans-30" x="95.410156"/>
       <use xlink:href="#DejaVuSans-30" x="159.033203"/>
       <use xlink:href="#DejaVuSans-32" x="222.65625"/>
      </g>
     </g>
    </g>
    <g id="ytick_3">
     <g id="line2d_13">
      <path d="M 63.47 102.819741 
L 277.2 102.819741 
" clip-path="url(#pb30e78bc2f)" style="fill: none; stroke: #b0b0b0; stroke-width: 0.8; stroke-linecap: square"/>
     </g>
     <g id="line2d_14">
      <g>
       <use xlink:href="#m5c067d84fe" x="63.47" y="102.819741" style="stroke: #000000; stroke-width: 0.8"/>
      </g>
     </g>
     <g id="text_8">
      <!-- 0.004 -->
      <g transform="translate(27.841875 106.618959) scale(0.1 -0.1)">
       <use xlink:href="#DejaVuSans-30"/>
       <use xlink:href="#DejaVuSans-2e" x="63.623047"/>
       <use xlink:href="#DejaVuSans-30" x="95.410156"/>
       <use xlink:href="#DejaVuSans-30" x="159.033203"/>
       <use xlink:href="#DejaVuSans-34" x="222.65625"/>
      </g>
     </g>
    </g>
    <g id="ytick_4">
     <g id="line2d_15">
      <path d="M 63.47 76.25096 
L 277.2 76.25096 
" clip-path="url(#pb30e78bc2f)" style="fill: none; stroke: #b0b0b0; stroke-width: 0.8; stroke-linecap: square"/>
     </g>
     <g id="line2d_16">
      <g>
       <use xlink:href="#m5c067d84fe" x="63.47" y="76.25096" style="stroke: #000000; stroke-width: 0.8"/>
      </g>
     </g>
     <g id="text_9">
      <!-- 0.006 -->
      <g transform="translate(27.841875 80.050179) scale(0.1 -0.1)">
       <use xlink:href="#DejaVuSans-30"/>
       <use xlink:href="#DejaVuSans-2e" x="63.623047"/>
       <use xlink:href="#DejaVuSans-30" x="95.410156"/>
       <use xlink:href="#DejaVuSans-30" x="159.033203"/>
       <use xlink:href="#DejaVuSans-36" x="222.65625"/>
      </g>
     </g>
    </g>
    <g id="ytick_5">
     <g id="line2d_17">
      <path d="M 63.47 49.68218 
L 277.2 49.68218 
" clip-path="url(#pb30e78bc2f)" style="fill: none; stroke: #b0b0b0; stroke-width: 0.8; stroke-linecap: square"/>
     </g>
     <g id="line2d_18">
      <g>
       <use xlink:href="#m5c067d84fe" x="63.47" y="49.68218" style="stroke: #000000; stroke-width: 0.8"/>
      </g>
     </g>
     <g id="text_10">
      <!-- 0.008 -->
      <g transform="translate(27.841875 53.481399) scale(0.1 -0.1)">
       <defs>
        <path id="DejaVuSans-38" d="M 2034 2216 
Q 1584 2216 1326 1975 
Q 1069 1734 1069 1313 
Q 1069 891 1326 650 
Q 1584 409 2034 409 
Q 2484 409 2743 651 
Q 3003 894 3003 1313 
Q 3003 1734 2745 1975 
Q 2488 2216 2034 2216 
z
M 1403 2484 
Q 997 2584 770 2862 
Q 544 3141 544 3541 
Q 544 4100 942 4425 
Q 1341 4750 2034 4750 
Q 2731 4750 3128 4425 
Q 3525 4100 3525 3541 
Q 3525 3141 3298 2862 
Q 3072 2584 2669 2484 
Q 3125 2378 3379 2068 
Q 3634 1759 3634 1313 
Q 3634 634 3220 271 
Q 2806 -91 2034 -91 
Q 1263 -91 848 271 
Q 434 634 434 1313 
Q 434 1759 690 2068 
Q 947 2378 1403 2484 
z
M 1172 3481 
Q 1172 3119 1398 2916 
Q 1625 2713 2034 2713 
Q 2441 2713 2670 2916 
Q 2900 3119 2900 3481 
Q 2900 3844 2670 4047 
Q 2441 4250 2034 4250 
Q 1625 4250 1398 4047 
Q 1172 3844 1172 3481 
z
" transform="scale(0.015625)"/>
       </defs>
       <use xlink:href="#DejaVuSans-30"/>
       <use xlink:href="#DejaVuSans-2e" x="63.623047"/>
       <use xlink:href="#DejaVuSans-30" x="95.410156"/>
       <use xlink:href="#DejaVuSans-30" x="159.033203"/>
       <use xlink:href="#DejaVuSans-38" x="222.65625"/>
      </g>
     </g>
    </g>
    <g id="ytick_6">
     <g id="line2d_19">
      <path d="M 63.47 23.1134 
L 277.2 23.1134 
" clip-path="url(#pb30e78bc2f)" style="fill: none; stroke: #b0b0b0; stroke-width: 0.8; stroke-linecap: square"/>
     </g>
     <g id="line2d_20">
      <g>
       <use xlink:href="#m5c067d84fe" x="63.47" y="23.1134" style="stroke: #000000; stroke-width: 0.8"/>
      </g>
     </g>
     <g id="text_11">
      <!-- 0.010 -->
      <g transform="translate(27.841875 26.912619) scale(0.1 -0.1)">
       <defs>
        <path id="DejaVuSans-31" d="M 794 531 
L 1825 531 
L 1825 4091 
L 703 3866 
L 703 4441 
L 1819 4666 
L 2450 4666 
L 2450 531 
L 3481 531 
L 3481 0 
L 794 0 
L 794 531 
z
" transform="scale(0.015625)"/>
       </defs>
       <use xlink:href="#DejaVuSans-30"/>
       <use xlink:href="#DejaVuSans-2e" x="63.623047"/>
       <use xlink:href="#DejaVuSans-30" x="95.410156"/>
       <use xlink:href="#DejaVuSans-31" x="159.033203"/>
       <use xlink:href="#DejaVuSans-30" x="222.65625"/>
      </g>
     </g>
    </g>
    <g id="text_12">
     <!-- $dCD/dalpha$ -->
     <g transform="translate(21.741875 121.67) rotate(-90) scale(0.1 -0.1)">
      <defs>
       <path id="DejaVuSans-Oblique-64" d="M 2675 525 
Q 2444 222 2128 65 
Q 1813 -91 1428 -91 
Q 903 -91 598 267 
Q 294 625 294 1247 
Q 294 1766 478 2236 
Q 663 2706 1013 3078 
Q 1244 3325 1534 3454 
Q 1825 3584 2144 3584 
Q 2481 3584 2739 3421 
Q 2997 3259 3138 2956 
L 3513 4863 
L 4091 4863 
L 3144 0 
L 2566 0 
L 2675 525 
z
M 891 1350 
Q 891 897 1095 644 
Q 1300 391 1663 391 
Q 1931 391 2161 520 
Q 2391 650 2566 903 
Q 2750 1166 2856 1509 
Q 2963 1853 2963 2188 
Q 2963 2622 2758 2865 
Q 2553 3109 2194 3109 
Q 1922 3109 1687 2981 
Q 1453 2853 1288 2613 
Q 1106 2353 998 2009 
Q 891 1666 891 1350 
z
" transform="scale(0.015625)"/>
       <path id="DejaVuSans-Oblique-43" d="M 4447 4306 
L 4319 3641 
Q 4019 3944 3683 4091 
Q 3347 4238 2956 4238 
Q 2422 4238 2017 3981 
Q 1613 3725 1319 3200 
Q 1131 2863 1032 2486 
Q 934 2109 934 1728 
Q 934 1091 1264 756 
Q 1594 422 2222 422 
Q 2656 422 3056 561 
Q 3456 700 3834 978 
L 3688 231 
Q 3316 72 2936 -9 
Q 2556 -91 2175 -91 
Q 1278 -91 773 396 
Q 269 884 269 1753 
Q 269 2309 461 2846 
Q 653 3384 1013 3828 
Q 1394 4300 1883 4525 
Q 2372 4750 3022 4750 
Q 3422 4750 3780 4639 
Q 4138 4528 4447 4306 
z
" transform="scale(0.015625)"/>
       <path id="DejaVuSans-Oblique-44" d="M 1081 4666 
L 2438 4666 
Q 3519 4666 4070 4208 
Q 4622 3750 4622 2847 
Q 4622 2250 4412 1698 
Q 4203 1147 3834 769 
Q 3463 381 2891 190 
Q 2319 0 1538 0 
L 172 0 
L 1081 4666 
z
M 1613 4147 
L 909 519 
L 1734 519 
Q 2794 519 3375 1128 
Q 3956 1738 3956 2847 
Q 3956 3519 3581 3833 
Q 3206 4147 2406 4147 
L 1613 4147 
z
" transform="scale(0.015625)"/>
       <path id="DejaVuSans-2f" d="M 1625 4666 
L 2156 4666 
L 531 -594 
L 0 -594 
L 1625 4666 
z
" transform="scale(0.015625)"/>
       <path id="DejaVuSans-Oblique-61" d="M 3438 1997 
L 3047 0 
L 2472 0 
L 2578 531 
Q 2325 219 2001 64 
Q 1678 -91 1281 -91 
Q 834 -91 548 182 
Q 263 456 263 884 
Q 263 1497 752 1853 
Q 1241 2209 2100 2209 
L 2900 2209 
L 2931 2363 
Q 2938 2388 2941 2417 
Q 2944 2447 2944 2509 
Q 2944 2788 2717 2942 
Q 2491 3097 2081 3097 
Q 1800 3097 1504 3025 
Q 1209 2953 897 2809 
L 997 3341 
Q 1322 3463 1633 3523 
Q 1944 3584 2234 3584 
Q 2853 3584 3176 3315 
Q 3500 3047 3500 2534 
Q 3500 2431 3484 2292 
Q 3469 2153 3438 1997 
z
M 2816 1759 
L 2241 1759 
Q 1534 1759 1195 1570 
Q 856 1381 856 984 
Q 856 709 1029 553 
Q 1203 397 1509 397 
Q 1978 397 2328 733 
Q 2678 1069 2791 1631 
L 2816 1759 
z
" transform="scale(0.015625)"/>
       <path id="DejaVuSans-Oblique-6c" d="M 1172 4863 
L 1747 4863 
L 800 0 
L 225 0 
L 1172 4863 
z
" transform="scale(0.015625)"/>
       <path id="DejaVuSans-Oblique-70" d="M 3175 2156 
Q 3175 2616 2975 2859 
Q 2775 3103 2400 3103 
Q 2144 3103 1911 2972 
Q 1678 2841 1497 2591 
Q 1319 2344 1212 1994 
Q 1106 1644 1106 1300 
Q 1106 863 1306 627 
Q 1506 391 1875 391 
Q 2147 391 2380 519 
Q 2613 647 2778 891 
Q 2956 1147 3065 1494 
Q 3175 1841 3175 2156 
z
M 1394 2969 
Q 1625 3272 1939 3428 
Q 2253 3584 2638 3584 
Q 3175 3584 3472 3232 
Q 3769 2881 3769 2247 
Q 3769 1728 3584 1258 
Q 3400 788 3053 416 
Q 2822 169 2531 39 
Q 2241 -91 1919 -91 
Q 1547 -91 1294 64 
Q 1041 219 916 525 
L 556 -1331 
L -19 -1331 
L 922 3500 
L 1497 3500 
L 1394 2969 
z
" transform="scale(0.015625)"/>
       <path id="DejaVuSans-Oblique-68" d="M 3566 2113 
L 3156 0 
L 2578 0 
L 2988 2091 
Q 3016 2238 3031 2350 
Q 3047 2463 3047 2528 
Q 3047 2791 2881 2937 
Q 2716 3084 2419 3084 
Q 1956 3084 1617 2771 
Q 1278 2459 1178 1941 
L 800 0 
L 225 0 
L 1172 4863 
L 1747 4863 
L 1375 2950 
Q 1594 3244 1934 3414 
Q 2275 3584 2650 3584 
Q 3113 3584 3367 3334 
Q 3622 3084 3622 2631 
Q 3622 2519 3608 2391 
Q 3594 2263 3566 2113 
z
" transform="scale(0.015625)"/>
      </defs>
      <use xlink:href="#DejaVuSans-Oblique-64" transform="translate(0 0.015625)"/>
      <use xlink:href="#DejaVuSans-Oblique-43" transform="translate(63.476562 0.015625)"/>
      <use xlink:href="#DejaVuSans-Oblique-44" transform="translate(133.300781 0.015625)"/>
      <use xlink:href="#DejaVuSans-2f" transform="translate(210.302734 0.015625)"/>
      <use xlink:href="#DejaVuSans-Oblique-64" transform="translate(243.994141 0.015625)"/>
      <use xlink:href="#DejaVuSans-Oblique-61" transform="translate(307.470703 0.015625)"/>
      <use xlink:href="#DejaVuSans-Oblique-6c" transform="translate(368.75 0.015625)"/>
      <use xlink:href="#DejaVuSans-Oblique-70" transform="translate(396.533203 0.015625)"/>
      <use xlink:href="#DejaVuSans-Oblique-68" transform="translate(460.009766 0.015625)"/>
      <use xlink:href="#DejaVuSans-Oblique-61" transform="translate(523.388672 0.015625)"/>
     </g>
    </g>
   </g>
   <g id="line2d_21">
    <path d="M 73.185 166.62 
L 75.147626 165.51392 
L 77.110253 164.406917 
L 79.072879 163.298992 
L 81.035505 162.190144 
L 82.998131 161.080374 
L 84.960758 159.969681 
L 86.923384 158.858066 
L 88.88601 157.745528 
L 90.848636 156.632067 
L 92.811263 155.517684 
L 94.773889 154.402378 
L 96.736515 153.28615 
L 98.699141 152.168999 
L 100.661768 151.050925 
L 102.624394 149.931929 
L 104.58702 148.81201 
L 106.549646 147.691169 
L 108.512273 146.569405 
L 110.474899 145.446719 
L 112.437525 144.32311 
L 114.400152 143.198578 
L 116.362778 142.073124 
L 118.325404 140.946748 
L 120.28803 139.819448 
L 122.250657 138.691227 
L 124.213283 137.562082 
L 126.175909 136.432015 
L 128.138535 135.301026 
L 130.101162 134.169113 
L 132.063788 133.036279 
L 134.026414 131.902521 
L 135.98904 130.767842 
L 137.951667 129.632239 
L 139.914293 128.495714 
L 141.876919 127.358267 
L 143.839545 126.219896 
L 145.802172 125.080604 
L 147.764798 123.940388 
L 149.727424 122.799251 
L 151.690051 121.65719 
L 153.652677 120.514207 
L 155.615303 119.370301 
L 157.577929 118.225473 
L 159.540556 117.079722 
L 161.503182 115.933049 
L 163.465808 114.785453 
L 165.428434 113.636935 
L 167.391061 112.487494 
L 169.353687 111.33713 
L 171.316313 110.185844 
L 173.278939 109.033635 
L 175.241566 107.880504 
L 177.204192 106.72645 
L 179.166818 105.571473 
L 181.129444 104.415574 
L 183.092071 103.258753 
L 185.054697 102.101008 
L 187.017323 100.942342 
L 188.979949 99.782752 
L 190.942576 98.62224 
L 192.905202 97.460806 
L 194.867828 96.298449 
L 196.830455 95.135169 
L 198.793081 93.970967 
L 200.755707 92.805842 
L 202.718333 91.639795 
L 204.68096 90.472825 
L 206.643586 89.304932 
L 208.606212 88.136117 
L 210.568838 86.966379 
L 212.531465 85.795719 
L 214.494091 84.624136 
L 216.456717 83.451631 
L 218.419343 82.278203 
L 220.38197 81.103852 
L 222.344596 79.928579 
L 224.307222 78.752383 
L 226.269848 77.575265 
L 228.232475 76.397224 
L 230.195101 75.218261 
L 232.157727 74.038375 
L 234.120354 72.857566 
L 236.08298 71.675835 
L 238.045606 70.493181 
L 240.008232 69.309605 
L 241.970859 68.125106 
L 243.933485 66.939684 
L 245.896111 65.75334 
L 247.858737 64.566074 
L 249.821364 63.377885 
L 251.78399 62.188773 
L 253.746616 60.998738 
L 255.709242 59.807782 
L 257.671869 58.615902 
L 259.634495 57.4231 
L 261.597121 56.229375 
L 263.559747 55.034728 
L 265.522374 53.839158 
L 267.485 52.642666 
" clip-path="url(#pb30e78bc2f)" style="fill: none; stroke: #440154; stroke-width: 1.5; stroke-linecap: square"/>
   </g>
   <g id="line2d_22">
    <path d="M 73.185 150.915166 
L 75.147626 149.793869 
L 77.110253 148.671649 
L 79.072879 147.548507 
L 81.035505 146.424442 
L 82.998131 145.299454 
L 84.960758 144.173544 
L 86.923384 143.046712 
L 88.88601 141.918956 
L 90.848636 140.790279 
L 92.811263 139.660678 
L 94.773889 138.530155 
L 96.736515 137.39871 
L 98.699141 136.266342 
L 100.661768 135.133051 
L 102.624394 133.998838 
L 104.58702 132.863702 
L 106.549646 131.727643 
L 108.512273 130.590662 
L 110.474899 129.452759 
L 112.437525 128.313933 
L 114.400152 127.174184 
L 116.362778 126.033513 
L 118.325404 124.891919 
L 120.28803 123.749403 
L 122.250657 122.605964 
L 124.213283 121.461602 
L 126.175909 120.316318 
L 128.138535 119.170111 
L 130.101162 118.022982 
L 132.063788 116.87493 
L 134.026414 115.725955 
L 135.98904 114.576058 
L 137.951667 113.425239 
L 139.914293 112.273497 
L 141.876919 111.120832 
L 143.839545 109.967245 
L 145.802172 108.812735 
L 147.764798 107.657302 
L 149.727424 106.500947 
L 151.690051 105.34367 
L 153.652677 104.185469 
L 155.615303 103.026347 
L 157.577929 101.866301 
L 159.540556 100.705333 
L 161.503182 99.543443 
L 163.465808 98.38063 
L 165.428434 97.216894 
L 167.391061 96.052236 
L 169.353687 94.886655 
L 171.316313 93.720152 
L 173.278939 92.552726 
L 175.241566 91.384377 
L 177.204192 90.215106 
L 179.166818 89.044913 
L 181.129444 87.873796 
L 183.092071 86.701758 
L 185.054697 85.528796 
L 187.017323 84.354912 
L 188.979949 83.180106 
L 190.942576 82.004377 
L 192.905202 80.827725 
L 194.867828 79.650151 
L 196.830455 78.471654 
L 198.793081 77.292234 
L 200.755707 76.111892 
L 202.718333 74.930628 
L 204.68096 73.748441 
L 206.643586 72.565331 
L 208.606212 71.381299 
L 210.568838 70.196344 
L 212.531465 69.010466 
L 214.494091 67.823666 
L 216.456717 66.635944 
L 218.419343 65.447299 
L 220.38197 64.257731 
L 222.344596 63.067241 
L 224.307222 61.875828 
L 226.269848 60.683492 
L 228.232475 59.490234 
L 230.195101 58.296054 
L 232.157727 57.100951 
L 234.120354 55.904925 
L 236.08298 54.707976 
L 238.045606 53.510106 
L 240.008232 52.311312 
L 241.970859 51.111596 
L 243.933485 49.910957 
L 245.896111 48.709396 
L 247.858737 47.506912 
L 249.821364 46.303506 
L 251.78399 45.099177 
L 253.746616 43.893926 
L 255.709242 42.687752 
L 257.671869 41.480655 
L 259.634495 40.272636 
L 261.597121 39.063694 
L 263.559747 37.853829 
L 265.522374 36.643043 
L 267.485 35.431333 
" clip-path="url(#pb30e78bc2f)" style="fill: none; stroke: #21918c; stroke-width: 1.5; stroke-linecap: square"/>
   </g>
   <g id="line2d_23">
    <path d="M 73.185 135.210332 
L 75.147626 134.073818 
L 77.110253 132.936381 
L 79.072879 131.798021 
L 81.035505 130.658739 
L 82.998131 129.518535 
L 84.960758 128.377407 
L 86.923384 127.235357 
L 88.88601 126.092385 
L 90.848636 124.94849 
L 92.811263 123.803673 
L 94.773889 122.657932 
L 96.736515 121.51127 
L 98.699141 120.363684 
L 100.661768 119.215177 
L 102.624394 118.065746 
L 104.58702 116.915393 
L 106.549646 115.764118 
L 108.512273 114.61192 
L 110.474899 113.458799 
L 112.437525 112.304756 
L 114.400152 111.14979 
L 116.362778 109.993901 
L 118.325404 108.83709 
L 120.28803 107.679357 
L 122.250657 106.520701 
L 124.213283 105.361122 
L 126.175909 104.20062 
L 128.138535 103.039197 
L 130.101162 101.87685 
L 132.063788 100.713581 
L 134.026414 99.549389 
L 135.98904 98.384275 
L 137.951667 97.218239 
L 139.914293 96.051279 
L 141.876919 94.883397 
L 143.839545 93.714593 
L 145.802172 92.544866 
L 147.764798 91.374216 
L 149.727424 90.202644 
L 151.690051 89.030149 
L 153.652677 87.856732 
L 155.615303 86.682392 
L 157.577929 85.507129 
L 159.540556 84.330944 
L 161.503182 83.153837 
L 163.465808 81.975806 
L 165.428434 80.796854 
L 167.391061 79.616978 
L 169.353687 78.43618 
L 171.316313 77.25446 
L 173.278939 76.071817 
L 175.241566 74.888251 
L 177.204192 73.703763 
L 179.166818 72.518352 
L 181.129444 71.332019 
L 183.092071 70.144763 
L 185.054697 68.956584 
L 187.017323 67.767483 
L 188.979949 66.577459 
L 190.942576 65.386513 
L 192.905202 64.194644 
L 194.867828 63.001853 
L 196.830455 61.808139 
L 198.793081 60.613502 
L 200.755707 59.417943 
L 202.718333 58.221461 
L 204.68096 57.024057 
L 206.643586 55.82573 
L 208.606212 54.626481 
L 210.568838 53.426309 
L 212.531465 52.225214 
L 214.494091 51.023197 
L 216.456717 49.820257 
L 218.419343 48.616395 
L 220.38197 47.41161 
L 222.344596 46.205902 
L 224.307222 44.999272 
L 226.269848 43.79172 
L 228.232475 42.583245 
L 230.195101 41.373847 
L 232.157727 40.163526 
L 234.120354 38.952283 
L 236.08298 37.740118 
L 238.045606 36.52703 
L 240.008232 35.313019 
L 241.970859 34.098086 
L 243.933485 32.88223 
L 245.896111 31.665452 
L 247.858737 30.447751 
L 249.821364 29.229127 
L 251.78399 28.009581 
L 253.746616 26.789113 
L 255.709242 25.567721 
L 257.671869 24.345408 
L 259.634495 23.122171 
L 261.597121 21.898012 
L 263.559747 20.672931 
L 265.522374 19.446927 
L 267.485 18.22 
" clip-path="url(#pb30e78bc2f)" style="fill: none; stroke: #fde725; stroke-width: 1.5; stroke-linecap: square"/>
   </g>
   <g id="patch_3">
    <path d="M 63.47 174.04 
L 63.47 10.8 
" style="fill: none; stroke: #000000; stroke-width: 0.8; stroke-linejoin: miter; stroke-linecap: square"/>
   </g>
   <g id="patch_4">
    <path d="M 277.2 174.04 
L 277.2 10.8 
" style="fill: none; stroke: #000000; stroke-width: 0.8; stroke-linejoin: miter; stroke-linecap: square"/>
   </g>
   <g id="patch_5">
    <path d="M 63.47 174.04 
L 277.2 174.04 
" style="fill: none; stroke: #000000; stroke-width: 0.8; stroke-linejoin: miter; stroke-linecap: square"/>
   </g>
   <g id="patch_6">
    <path d="M 63.47 10.8 
L 277.2 10.8 
" style="fill: none; stroke: #000000; stroke-width: 0.8; stroke-linejoin: miter; stroke-linecap: square"/>
   </g>
   <g id="legend_1">
    <g id="patch_7">
     <path d="M 70.47 62.834375 
L 150.47 62.834375 
Q 152.47 62.834375 152.47 60.834375 
L 152.47 17.8 
Q 152.47 15.8 150.47 15.8 
L 70.47 15.8 
Q 68.47 15.8 68.47 17.8 
L 68.47 60.834375 
Q 68.47 62.834375 70.47 62.834375 
z
" style="fill: #ffffff; opacity: 0.8; stroke: #cccccc; stroke-linejoin: miter"/>
    </g>
    <g id="line2d_24">
     <path d="M 72.47 23.898438 
L 82.47 23.898438 
L 92.47 23.898438 
" style="fill: none; stroke: #440154; stroke-width: 1.5; stroke-linecap: square"/>
    </g>
    <g id="text_13">
     <!-- $\delta_e = -10$ -->
     <g transform="translate(100.47 27.398438) scale(0.1 -0.1)">
      <defs>
       <path id="DejaVuSans-Oblique-3b4" d="M 3472 4053 
Q 3197 4272 2450 4272 
Q 1659 4272 1588 3906 
Q 1531 3619 2328 3469 
Q 2953 3353 3253 3003 
Q 3616 2581 3447 1716 
Q 3284 888 2763 400 
Q 2238 -91 1488 -91 
Q 741 -91 406 400 
Q 72 888 241 1747 
Q 363 2384 891 2900 
Q 1097 3100 1353 3213 
Q 913 3459 1000 3900 
Q 1166 4750 2544 4750 
Q 3234 4750 3566 4531 
L 3472 4053 
z
M 1753 3056 
Q 1525 2966 1306 2738 
Q 969 2384 847 1747 
Q 722 1113 919 756 
Q 1119 397 1584 397 
Q 2044 397 2381 759 
Q 2722 1122 2838 1716 
Q 2956 2338 2731 2638 
Q 2491 2959 2103 2994 
Q 1906 3013 1753 3056 
z
" transform="scale(0.015625)"/>
       <path id="DejaVuSans-Oblique-65" d="M 3078 2063 
Q 3088 2113 3092 2166 
Q 3097 2219 3097 2272 
Q 3097 2653 2873 2875 
Q 2650 3097 2266 3097 
Q 1838 3097 1509 2826 
Q 1181 2556 1013 2059 
L 3078 2063 
z
M 3578 1613 
L 903 1613 
Q 884 1494 878 1425 
Q 872 1356 872 1306 
Q 872 872 1139 634 
Q 1406 397 1894 397 
Q 2269 397 2603 481 
Q 2938 566 3225 728 
L 3116 159 
Q 2806 34 2476 -28 
Q 2147 -91 1806 -91 
Q 1078 -91 686 257 
Q 294 606 294 1247 
Q 294 1794 489 2264 
Q 684 2734 1063 3103 
Q 1306 3334 1642 3459 
Q 1978 3584 2356 3584 
Q 2950 3584 3301 3228 
Q 3653 2872 3653 2272 
Q 3653 2128 3634 1964 
Q 3616 1800 3578 1613 
z
" transform="scale(0.015625)"/>
       <path id="DejaVuSans-3d" d="M 678 2906 
L 4684 2906 
L 4684 2381 
L 678 2381 
L 678 2906 
z
M 678 1631 
L 4684 1631 
L 4684 1100 
L 678 1100 
L 678 1631 
z
" transform="scale(0.015625)"/>
       <path id="DejaVuSans-2212" d="M 678 2272 
L 4684 2272 
L 4684 1741 
L 678 1741 
L 678 2272 
z
" transform="scale(0.015625)"/>
      </defs>
      <use xlink:href="#DejaVuSans-Oblique-3b4" transform="translate(0 0.78125)"/>
      <use xlink:href="#DejaVuSans-Oblique-65" transform="translate(61.181641 -15.625) scale(0.7)"/>
      <use xlink:href="#DejaVuSans-3d" transform="translate(126.464844 0.78125)"/>
      <use xlink:href="#DejaVuSans-2212" transform="translate(249.21875 0.78125)"/>
      <use xlink:href="#DejaVuSans-31" transform="translate(352.490234 0.78125)"/>
      <use xlink:href="#DejaVuSans-30" transform="translate(416.113281 0.78125)"/>
     </g>
    </g>
    <g id="line2d_25">
     <path d="M 72.47 38.576563 
L 82.47 38.576563 
L 92.47 38.576563 
" style="fill: none; stroke: #21918c; stroke-width: 1.5; stroke-linecap: square"/>
    </g>
    <g id="text_14">
     <!-- $\delta_e = 0$ -->
     <g transform="translate(100.47 42.076563) scale(0.1 -0.1)">
      <use xlink:href="#DejaVuSans-Oblique-3b4" transform="translate(0 0.78125)"/>
      <use xlink:href="#DejaVuSans-Oblique-65" transform="translate(61.181641 -15.625) scale(0.7)"/>
      <use xlink:href="#DejaVuSans-3d" transform="translate(126.464844 0.78125)"/>
      <use xlink:href="#DejaVuSans-30" transform="translate(229.736328 0.78125)"/>
     </g>
    </g>
    <g id="line2d_26">
     <path d="M 72.47 53.254688 
L 82.47 53.254688 
L 92.47 53.254688 
" style="fill: none; stroke: #fde725; stroke-width: 1.5; stroke-linecap: square"/>
    </g>
    <g id="text_15">
     <!-- $\delta_e = 10$ -->
     <g transform="translate(100.47 56.754688) scale(0.1 -0.1)">
      <use xlink:href="#DejaVuSans-Oblique-3b4" transform="translate(0 0.78125)"/>
      <use xlink:href="#DejaVuSans-Oblique-65" transform="translate(61.181641 -15.625) scale(0.7)"/>
      <use xlink:href="#DejaVuSans-3d" transform="translate(126.464844 0.78125)"/>
      <use xlink:href="#DejaVuSans-31" transform="translate(229.736328 0.78125)"/>
      <use xlink:href="#DejaVuSans-30" transform="translate(293.359375 0.78125)"/>
     </g>
    </g>
   </g>
  </g>
 </g>
 <defs>
  <clipPath id="pb30e78bc2f">
   <rect x="63.47" y="10.8" width="213.73" height="163.24"/>
  </clipPath>
 </defs>
</svg>
