<?xml version="1.0" encoding="utf-8" standalone="no"?>
<!DOCTYPE svg PUBLIC "-//W3C//DTD SVG 1.1//EN"
  "http://www.w3.org/Graphics/SVG/1.1/DTD/svg11.dtd">
<svg xmlns:xlink="http://www.w3.org/1999/xlink" width="576pt" height="216pt" viewBox="0 0 576 216" xmlns="http://www.w3.org/2000/svg" version="1.1">
 <metadata>
  <rdf:RDF xmlns:dc="http://purl.org/dc/elements/1.1/" xmlns:cc="http://creativecommons.org/ns#" xmlns:rdf="http://www.w3.org/1999/02/22-rdf-syntax-ns#">
   <cc:Work>
    <dc:type rdf:resource="http://purl.org/dc/dcmitype/StillImage"/>
    <dc:date>2025-03-27T17:43:45.200726</dc:date>
    <dc:format>image/svg+xml</dc:format>
    <dc:creator>
     <cc:Agent>
      <dc:title>Matplotlib v3.9.2, https://matplotlib.org/</dc:title>
     </cc:Agent>
    </dc:creator>
   </cc:Work>
  </rdf:RDF>
 </metadata>
 <defs>
  <style type="text/css">*{stroke-linejoin: round; stroke-linecap: butt}</style>
 </defs>
 <g id="figure_1">
  <g id="patch_1">
   <path d="M 0 216 
L 576 216 
L 576 0 
L 0 0 
z
" style="fill: #ffffff"/>
  </g>
  <g id="axes_1">
   <g id="patch_2">
    <path d="M 77.798 174.04 
L 450.255247 174.04 
L 450.255247 10.8 
L 77.798 10.8 
z
" style="fill: #ffffff"/>
   </g>
   <g id="matplotlib.axis_1">
    <g id="xtick_1">
     <g id="line2d_1">
      <path d="M 94.727875 174.04 
L 94.727875 10.8 
" clip-path="url(#p44386fd0a1)" style="fill: none; stroke: #b0b0b0; stroke-width: 0.8; stroke-linecap: square"/>
     </g>
     <g id="line2d_2">
      <defs>
       <path id="m78a6abe1ad" d="M 0 0 
L 0 3.5 
" style="stroke: #000000; stroke-width: 0.8"/>
      </defs>
      <g>
       <use xlink:href="#m78a6abe1ad" x="94.727875" y="174.04" style="stroke: #000000; stroke-width: 0.8"/>
      </g>
     </g>
     <g id="text_1">
      <!-- −4 -->
      <g transform="translate(87.356781 188.638438) scale(0.1 -0.1)">
       <defs>
        <path id="DejaVuSans-2212" d="M 678 2272 
L 4684 2272 
L 4684 1741 
L 678 1741 
L 678 2272 
z
" transform="scale(0.015625)"/>
        <path id="DejaVuSans-34" d="M 2419 4116 
L 825 1625 
L 2419 1625 
L 2419 4116 
z
M 2253 4666 
L 3047 4666 
L 3047 1625 
L 3713 1625 
L 3713 1100 
L 3047 1100 
L 3047 0 
L 2419 0 
L 2419 1100 
L 313 1100 
L 313 1709 
L 2253 4666 
z
" transform="scale(0.015625)"/>
       </defs>
       <use xlink:href="#DejaVuSans-2212"/>
       <use xlink:href="#DejaVuSans-34" x="83.789062"/>
      </g>
     </g>
    </g>
    <g id="xtick_2">
     <g id="line2d_3">
      <path d="M 156.291056 174.04 
L 156.291056 10.8 
" clip-path="url(#p44386fd0a1)" style="fill: none; stroke: #b0b0b0; stroke-width: 0.8; stroke-linecap: square"/>
     </g>
     <g id="line2d_4">
      <g>
       <use xlink:href="#m78a6abe1ad" x="156.291056" y="174.04" style="stroke: #000000; stroke-width: 0.8"/>
      </g>
     </g>
     <g id="text_2">
      <!-- −2 -->
      <g transform="translate(148.919963 188.638438) scale(0.1 -0.1)">
       <defs>
        <path id="DejaVuSans-32" d="M 1228 531 
L 3431 531 
L 3431 0 
L 469 0 
L 469 531 
Q 828 903 1448 1529 
Q 2069 2156 2228 2338 
Q 2531 2678 2651 2914 
Q 2772 3150 2772 3378 
Q 2772 3750 2511 3984 
Q 2250 4219 1831 4219 
Q 1534 4219 1204 4116 
Q 875 4013 500 3803 
L 500 4441 
Q 881 4594 1212 4672 
Q 1544 4750 1819 4750 
Q 2544 4750 2975 4387 
Q 3406 4025 3406 3419 
Q 3406 3131 3298 2873 
Q 3191 2616 2906 2266 
Q 2828 2175 2409 1742 
Q 1991 1309 1228 531 
z
" transform="scale(0.015625)"/>
       </defs>
       <use xlink:href="#DejaVuSans-2212"/>
       <use xlink:href="#DejaVuSans-32" x="83.789062"/>
      </g>
     </g>
    </g>
    <g id="xtick_3">
     <g id="line2d_5">
      <path d="M 217.854238 174.04 
L 217.854238 10.8 
" clip-path="url(#p44386fd0a1)" style="fill: none; stroke: #b0b0b0; stroke-width: 0.8; stroke-linecap: square"/>
     </g>
     <g id="line2d_6">
      <g>
       <use xlink:href="#m78a6abe1ad" x="217.854238" y="174.04" style="stroke: #000000; stroke-width: 0.8"/>
      </g>
     </g>
     <g id="text_3">
      <!-- 0 -->
      <g transform="translate(214.672988 188.638438) scale(0.1 -0.1)">
       <defs>
        <path id="DejaVuSans-30" d="M 2034 4250 
Q 1547 4250 1301 3770 
Q 1056 3291 1056 2328 
Q 1056 1369 1301 889 
Q 1547 409 2034 409 
Q 2525 409 2770 889 
Q 3016 1369 3016 2328 
Q 3016 3291 2770 3770 
Q 2525 4250 2034 4250 
z
M 2034 4750 
Q 2819 4750 3233 4129 
Q 3647 3509 3647 2328 
Q 3647 1150 3233 529 
Q 2819 -91 2034 -91 
Q 1250 -91 836 529 
Q 422 1150 422 2328 
Q 422 3509 836 4129 
Q 1250 4750 2034 4750 
z
" transform="scale(0.015625)"/>
       </defs>
       <use xlink:href="#DejaVuSans-30"/>
      </g>
     </g>
    </g>
    <g id="xtick_4">
     <g id="line2d_7">
      <path d="M 279.417419 174.04 
L 279.417419 10.8 
" clip-path="url(#p44386fd0a1)" style="fill: none; stroke: #b0b0b0; stroke-width: 0.8; stroke-linecap: square"/>
     </g>
     <g id="line2d_8">
      <g>
       <use xlink:href="#m78a6abe1ad" x="279.417419" y="174.04" style="stroke: #000000; stroke-width: 0.8"/>
      </g>
     </g>
     <g id="text_4">
      <!-- 2 -->
      <g transform="translate(276.236169 188.638438) scale(0.1 -0.1)">
       <use xlink:href="#DejaVuSans-32"/>
      </g>
     </g>
    </g>
    <g id="xtick_5">
     <g id="line2d_9">
      <path d="M 340.9806 174.04 
L 340.9806 10.8 
" clip-path="url(#p44386fd0a1)" style="fill: none; stroke: #b0b0b0; stroke-width: 0.8; stroke-linecap: square"/>
     </g>
     <g id="line2d_10">
      <g>
       <use xlink:href="#m78a6abe1ad" x="340.9806" y="174.04" style="stroke: #000000; stroke-width: 0.8"/>
      </g>
     </g>
     <g id="text_5">
      <!-- 4 -->
      <g transform="translate(337.79935 188.638438) scale(0.1 -0.1)">
       <use xlink:href="#DejaVuSans-34"/>
      </g>
     </g>
    </g>
    <g id="xtick_6">
     <g id="line2d_11">
      <path d="M 402.543782 174.04 
L 402.543782 10.8 
" clip-path="url(#p44386fd0a1)" style="fill: none; stroke: #b0b0b0; stroke-width: 0.8; stroke-linecap: square"/>
     </g>
     <g id="line2d_12">
      <g>
       <use xlink:href="#m78a6abe1ad" x="402.543782" y="174.04" style="stroke: #000000; stroke-width: 0.8"/>
      </g>
     </g>
     <g id="text_6">
      <!-- 6 -->
      <g transform="translate(399.362532 188.638438) scale(0.1 -0.1)">
       <defs>
        <path id="DejaVuSans-36" d="M 2113 2584 
Q 1688 2584 1439 2293 
Q 1191 2003 1191 1497 
Q 1191 994 1439 701 
Q 1688 409 2113 409 
Q 2538 409 2786 701 
Q 3034 994 3034 1497 
Q 3034 2003 2786 2293 
Q 2538 2584 2113 2584 
z
M 3366 4563 
L 3366 3988 
Q 3128 4100 2886 4159 
Q 2644 4219 2406 4219 
Q 1781 4219 1451 3797 
Q 1122 3375 1075 2522 
Q 1259 2794 1537 2939 
Q 1816 3084 2150 3084 
Q 2853 3084 3261 2657 
Q 3669 2231 3669 1497 
Q 3669 778 3244 343 
Q 2819 -91 2113 -91 
Q 1303 -91 875 529 
Q 447 1150 447 2328 
Q 447 3434 972 4092 
Q 1497 4750 2381 4750 
Q 2619 4750 2861 4703 
Q 3103 4656 3366 4563 
z
" transform="scale(0.015625)"/>
       </defs>
       <use xlink:href="#DejaVuSans-36"/>
      </g>
     </g>
    </g>
    <g id="text_7">
     <!-- $\alpha$ -->
     <g transform="translate(260.726624 202.316563) scale(0.1 -0.1)">
      <defs>
       <path id="DejaVuSans-Oblique-3b1" d="M 2619 1628 
L 2622 2350 
Q 2625 3088 2069 3091 
Q 1653 3094 1394 2747 
Q 1069 2319 959 1747 
Q 825 1059 994 731 
Q 1169 397 1547 397 
Q 1966 397 2319 1063 
L 2619 1628 
z
M 2166 3578 
Q 3141 3594 3128 2584 
Q 3128 2584 3616 3500 
L 4128 3500 
L 3119 1603 
L 3109 919 
Q 3109 766 3194 638 
Q 3291 488 3391 488 
L 3669 488 
L 3575 0 
L 3228 0 
Q 2934 0 2722 263 
Q 2622 394 2619 669 
Q 2416 334 2066 50 
Q 1900 -81 1453 -78 
Q 722 -72 456 397 
Q 184 884 353 1747 
Q 534 2675 1009 3097 
Q 1544 3569 2166 3578 
z
" transform="scale(0.015625)"/>
      </defs>
      <use xlink:href="#DejaVuSans-Oblique-3b1" transform="translate(0 0.84375)"/>
     </g>
    </g>
   </g>
   <g id="matplotlib.axis_2">
    <g id="ytick_1">
     <g id="line2d_13">
      <path d="M 77.798 156.633839 
L 450.255247 156.633839 
" clip-path="url(#p44386fd0a1)" style="fill: none; stroke: #b0b0b0; stroke-width: 0.8; stroke-linecap: square"/>
     </g>
     <g id="line2d_14">
      <defs>
       <path id="mf0f7437d11" d="M 0 0 
L -3.5 0 
" style="stroke: #000000; stroke-width: 0.8"/>
      </defs>
      <g>
       <use xlink:href="#mf0f7437d11" x="77.798" y="156.633839" style="stroke: #000000; stroke-width: 0.8"/>
      </g>
     </g>
     <g id="text_8">
      <!-- −0.0025 -->
      <g transform="translate(27.427687 160.433058) scale(0.1 -0.1)">
       <defs>
        <path id="DejaVuSans-2e" d="M 684 794 
L 1344 794 
L 1344 0 
L 684 0 
L 684 794 
z
" transform="scale(0.015625)"/>
        <path id="DejaVuSans-35" d="M 691 4666 
L 3169 4666 
L 3169 4134 
L 1269 4134 
L 1269 2991 
Q 1406 3038 1543 3061 
Q 1681 3084 1819 3084 
Q 2600 3084 3056 2656 
Q 3513 2228 3513 1497 
Q 3513 744 3044 326 
Q 2575 -91 1722 -91 
Q 1428 -91 1123 -41 
Q 819 9 494 109 
L 494 744 
Q 775 591 1075 516 
Q 1375 441 1709 441 
Q 2250 441 2565 725 
Q 2881 1009 2881 1497 
Q 2881 1984 2565 2268 
Q 2250 2553 1709 2553 
Q 1456 2553 1204 2497 
Q 953 2441 691 2322 
L 691 4666 
z
" transform="scale(0.015625)"/>
       </defs>
       <use xlink:href="#DejaVuSans-2212"/>
       <use xlink:href="#DejaVuSans-30" x="83.789062"/>
       <use xlink:href="#DejaVuSans-2e" x="147.412109"/>
       <use xlink:href="#DejaVuSans-30" x="179.199219"/>
       <use xlink:href="#DejaVuSans-30" x="242.822266"/>
       <use xlink:href="#DejaVuSans-32" x="306.445312"/>
       <use xlink:href="#DejaVuSans-35" x="370.068359"/>
      </g>
     </g>
    </g>
    <g id="ytick_2">
     <g id="line2d_15">
      <path d="M 77.798 131.380978 
L 450.255247 131.380978 
" clip-path="url(#p44386fd0a1)" style="fill: none; stroke: #b0b0b0; stroke-width: 0.8; stroke-linecap: square"/>
     </g>
     <g id="line2d_16">
      <g>
       <use xlink:href="#mf0f7437d11" x="77.798" y="131.380978" style="stroke: #000000; stroke-width: 0.8"/>
      </g>
     </g>
     <g id="text_9">
      <!-- 0.0000 -->
      <g transform="translate(35.807375 135.180197) scale(0.1 -0.1)">
       <use xlink:href="#DejaVuSans-30"/>
       <use xlink:href="#DejaVuSans-2e" x="63.623047"/>
       <use xlink:href="#DejaVuSans-30" x="95.410156"/>
       <use xlink:href="#DejaVuSans-30" x="159.033203"/>
       <use xlink:href="#DejaVuSans-30" x="222.65625"/>
       <use xlink:href="#DejaVuSans-30" x="286.279297"/>
      </g>
     </g>
    </g>
    <g id="ytick_3">
     <g id="line2d_17">
      <path d="M 77.798 106.128117 
L 450.255247 106.128117 
" clip-path="url(#p44386fd0a1)" style="fill: none; stroke: #b0b0b0; stroke-width: 0.8; stroke-linecap: square"/>
     </g>
     <g id="line2d_18">
      <g>
       <use xlink:href="#mf0f7437d11" x="77.798" y="106.128117" style="stroke: #000000; stroke-width: 0.8"/>
      </g>
     </g>
     <g id="text_10">
      <!-- 0.0025 -->
      <g transform="translate(35.807375 109.927336) scale(0.1 -0.1)">
       <use xlink:href="#DejaVuSans-30"/>
       <use xlink:href="#DejaVuSans-2e" x="63.623047"/>
       <use xlink:href="#DejaVuSans-30" x="95.410156"/>
       <use xlink:href="#DejaVuSans-30" x="159.033203"/>
       <use xlink:href="#DejaVuSans-32" x="222.65625"/>
       <use xlink:href="#DejaVuSans-35" x="286.279297"/>
      </g>
     </g>
    </g>
    <g id="ytick_4">
     <g id="line2d_19">
      <path d="M 77.798 80.875256 
L 450.255247 80.875256 
" clip-path="url(#p44386fd0a1)" style="fill: none; stroke: #b0b0b0; stroke-width: 0.8; stroke-linecap: square"/>
     </g>
     <g id="line2d_20">
      <g>
       <use xlink:href="#mf0f7437d11" x="77.798" y="80.875256" style="stroke: #000000; stroke-width: 0.8"/>
      </g>
     </g>
     <g id="text_11">
      <!-- 0.0050 -->
      <g transform="translate(35.807375 84.674475) scale(0.1 -0.1)">
       <use xlink:href="#DejaVuSans-30"/>
       <use xlink:href="#DejaVuSans-2e" x="63.623047"/>
       <use xlink:href="#DejaVuSans-30" x="95.410156"/>
       <use xlink:href="#DejaVuSans-30" x="159.033203"/>
       <use xlink:href="#DejaVuSans-35" x="222.65625"/>
       <use xlink:href="#DejaVuSans-30" x="286.279297"/>
      </g>
     </g>
    </g>
    <g id="ytick_5">
     <g id="line2d_21">
      <path d="M 77.798 55.622396 
L 450.255247 55.622396 
" clip-path="url(#p44386fd0a1)" style="fill: none; stroke: #b0b0b0; stroke-width: 0.8; stroke-linecap: square"/>
     </g>
     <g id="line2d_22">
      <g>
       <use xlink:href="#mf0f7437d11" x="77.798" y="55.622396" style="stroke: #000000; stroke-width: 0.8"/>
      </g>
     </g>
     <g id="text_12">
      <!-- 0.0075 -->
      <g transform="translate(35.807375 59.421614) scale(0.1 -0.1)">
       <defs>
        <path id="DejaVuSans-37" d="M 525 4666 
L 3525 4666 
L 3525 4397 
L 1831 0 
L 1172 0 
L 2766 4134 
L 525 4134 
L 525 4666 
z
" transform="scale(0.015625)"/>
       </defs>
       <use xlink:href="#DejaVuSans-30"/>
       <use xlink:href="#DejaVuSans-2e" x="63.623047"/>
       <use xlink:href="#DejaVuSans-30" x="95.410156"/>
       <use xlink:href="#DejaVuSans-30" x="159.033203"/>
       <use xlink:href="#DejaVuSans-37" x="222.65625"/>
       <use xlink:href="#DejaVuSans-35" x="286.279297"/>
      </g>
     </g>
    </g>
    <g id="ytick_6">
     <g id="line2d_23">
      <path d="M 77.798 30.369535 
L 450.255247 30.369535 
" clip-path="url(#p44386fd0a1)" style="fill: none; stroke: #b0b0b0; stroke-width: 0.8; stroke-linecap: square"/>
     </g>
     <g id="line2d_24">
      <g>
       <use xlink:href="#mf0f7437d11" x="77.798" y="30.369535" style="stroke: #000000; stroke-width: 0.8"/>
      </g>
     </g>
     <g id="text_13">
      <!-- 0.0100 -->
      <g transform="translate(35.807375 34.168753) scale(0.1 -0.1)">
       <defs>
        <path id="DejaVuSans-31" d="M 794 531 
L 1825 531 
L 1825 4091 
L 703 3866 
L 703 4441 
L 1819 4666 
L 2450 4666 
L 2450 531 
L 3481 531 
L 3481 0 
L 794 0 
L 794 531 
z
" transform="scale(0.015625)"/>
       </defs>
       <use xlink:href="#DejaVuSans-30"/>
       <use xlink:href="#DejaVuSans-2e" x="63.623047"/>
       <use xlink:href="#DejaVuSans-30" x="95.410156"/>
       <use xlink:href="#DejaVuSans-31" x="159.033203"/>
       <use xlink:href="#DejaVuSans-30" x="222.65625"/>
       <use xlink:href="#DejaVuSans-30" x="286.279297"/>
      </g>
     </g>
    </g>
    <g id="text_14">
     <!-- d$C_D$ / d$\alpha$ -->
     <g transform="translate(21.348 113.27) rotate(-90) scale(0.1 -0.1)">
      <defs>
       <path id="DejaVuSans-64" d="M 2906 2969 
L 2906 4863 
L 3481 4863 
L 3481 0 
L 2906 0 
L 2906 525 
Q 2725 213 2448 61 
Q 2172 -91 1784 -91 
Q 1150 -91 751 415 
Q 353 922 353 1747 
Q 353 2572 751 3078 
Q 1150 3584 1784 3584 
Q 2172 3584 2448 3432 
Q 2725 3281 2906 2969 
z
M 947 1747 
Q 947 1113 1208 752 
Q 1469 391 1925 391 
Q 2381 391 2643 752 
Q 2906 1113 2906 1747 
Q 2906 2381 2643 2742 
Q 2381 3103 1925 3103 
Q 1469 3103 1208 2742 
Q 947 2381 947 1747 
z
" transform="scale(0.015625)"/>
       <path id="DejaVuSans-Oblique-43" d="M 4447 4306 
L 4319 3641 
Q 4019 3944 3683 4091 
Q 3347 4238 2956 4238 
Q 2422 4238 2017 3981 
Q 1613 3725 1319 3200 
Q 1131 2863 1032 2486 
Q 934 2109 934 1728 
Q 934 1091 1264 756 
Q 1594 422 2222 422 
Q 2656 422 3056 561 
Q 3456 700 3834 978 
L 3688 231 
Q 3316 72 2936 -9 
Q 2556 -91 2175 -91 
Q 1278 -91 773 396 
Q 269 884 269 1753 
Q 269 2309 461 2846 
Q 653 3384 1013 3828 
Q 1394 4300 1883 4525 
Q 2372 4750 3022 4750 
Q 3422 4750 3780 4639 
Q 4138 4528 4447 4306 
z
" transform="scale(0.015625)"/>
       <path id="DejaVuSans-Oblique-44" d="M 1081 4666 
L 2438 4666 
Q 3519 4666 4070 4208 
Q 4622 3750 4622 2847 
Q 4622 2250 4412 1698 
Q 4203 1147 3834 769 
Q 3463 381 2891 190 
Q 2319 0 1538 0 
L 172 0 
L 1081 4666 
z
M 1613 4147 
L 909 519 
L 1734 519 
Q 2794 519 3375 1128 
Q 3956 1738 3956 2847 
Q 3956 3519 3581 3833 
Q 3206 4147 2406 4147 
L 1613 4147 
z
" transform="scale(0.015625)"/>
       <path id="DejaVuSans-20" transform="scale(0.015625)"/>
       <path id="DejaVuSans-2f" d="M 1625 4666 
L 2156 4666 
L 531 -594 
L 0 -594 
L 1625 4666 
z
" transform="scale(0.015625)"/>
      </defs>
      <use xlink:href="#DejaVuSans-64" transform="translate(0 0.015625)"/>
      <use xlink:href="#DejaVuSans-Oblique-43" transform="translate(63.476562 0.015625)"/>
      <use xlink:href="#DejaVuSans-Oblique-44" transform="translate(133.300781 -16.390625) scale(0.7)"/>
      <use xlink:href="#DejaVuSans-20" transform="translate(189.936523 0.015625)"/>
      <use xlink:href="#DejaVuSans-2f" transform="translate(221.723633 0.015625)"/>
      <use xlink:href="#DejaVuSans-20" transform="translate(255.415039 0.015625)"/>
      <use xlink:href="#DejaVuSans-64" transform="translate(287.202148 0.015625)"/>
      <use xlink:href="#DejaVuSans-Oblique-3b1" transform="translate(350.678711 0.015625)"/>
     </g>
    </g>
   </g>
   <g id="line2d_25">
    <path d="M 94.727875 157.356356 
L 98.148052 155.955946 
L 101.568228 154.555434 
L 104.988405 153.15482 
L 108.408582 151.754104 
L 111.828759 150.353285 
L 115.248935 148.952365 
L 118.669112 147.551342 
L 122.089289 146.150217 
L 125.509466 144.748989 
L 128.929642 143.34766 
L 132.349819 141.946228 
L 135.769996 140.544694 
L 139.190173 139.143058 
L 142.610349 137.74132 
L 146.030526 136.339479 
L 149.450703 134.937536 
L 152.87088 133.535491 
L 156.291056 132.133344 
L 159.711233 130.731095 
L 163.13141 129.328743 
L 166.551587 127.926289 
L 169.971763 126.523733 
L 173.39194 125.121075 
L 176.812117 123.718315 
L 180.232293 122.315452 
L 183.65247 120.912487 
L 187.072647 119.50942 
L 190.492824 118.106251 
L 193.913 116.70298 
L 197.333177 115.299606 
L 200.753354 113.89613 
L 204.173531 112.492552 
L 207.593707 111.088872 
L 211.013884 109.68509 
L 214.434061 108.281205 
L 217.854238 106.877218 
L 221.274414 105.473129 
L 224.694591 104.068938 
L 228.114768 102.664644 
L 231.534945 101.260249 
L 234.955121 99.855751 
L 238.375298 98.451151 
L 241.795475 97.046448 
L 245.215652 95.641644 
L 248.635828 94.236737 
L 252.056005 92.831728 
L 255.476182 91.426617 
L 258.896359 90.021404 
L 262.316535 88.616088 
L 265.736712 87.210671 
L 269.156889 85.805151 
L 272.577066 84.399528 
L 275.997242 82.993804 
L 279.417419 81.587978 
L 282.837596 80.182049 
L 286.257773 78.776018 
L 289.677949 77.369885 
L 293.098126 75.963649 
L 296.518303 74.557312 
L 299.93848 73.150872 
L 303.358656 71.74433 
L 306.778833 70.337686 
L 310.19901 68.930939 
L 313.619187 67.524091 
L 317.039363 66.11714 
L 320.45954 64.710087 
L 323.879717 63.302932 
L 327.299893 61.895674 
L 330.72007 60.488315 
L 334.140247 59.080853 
L 337.560424 57.673289 
L 340.9806 56.265622 
L 344.400777 54.857854 
L 347.820954 53.449983 
L 351.241131 52.04201 
L 354.661307 50.633935 
L 358.081484 49.225758 
L 361.501661 47.817479 
L 364.921838 46.409097 
L 368.342014 45.000613 
L 371.762191 43.592027 
L 375.182368 42.183339 
L 378.602545 40.774548 
L 382.022721 39.365655 
L 385.442898 37.95666 
L 388.863075 36.547563 
L 392.283252 35.138364 
L 395.703428 33.729062 
L 399.123605 32.319659 
L 402.543782 30.910153 
L 405.963959 29.500545 
L 409.384135 28.090834 
L 412.804312 26.681022 
L 416.224489 25.271107 
L 419.644666 23.86109 
L 423.064842 22.450971 
L 426.485019 21.040749 
L 429.905196 19.630426 
L 433.325373 18.22 
" clip-path="url(#p44386fd0a1)" style="fill: none; stroke: #000080; stroke-width: 1.5; stroke-linecap: square"/>
   </g>
   <g id="line2d_26">
    <path d="M 94.727875 161.42355 
L 98.148052 160.018915 
L 101.568228 158.614178 
L 104.988405 157.209339 
L 108.408582 155.804397 
L 111.828759 154.399354 
L 115.248935 152.994208 
L 118.669112 151.58896 
L 122.089289 150.183609 
L 125.509466 148.778157 
L 128.929642 147.372602 
L 132.349819 145.966945 
L 135.769996 144.561186 
L 139.190173 143.155325 
L 142.610349 141.749361 
L 146.030526 140.343296 
L 149.450703 138.937128 
L 152.87088 137.530857 
L 156.291056 136.124485 
L 159.711233 134.71801 
L 163.13141 133.311434 
L 166.551587 131.904755 
L 169.971763 130.497974 
L 173.39194 129.09109 
L 176.812117 127.684105 
L 180.232293 126.277017 
L 183.65247 124.869827 
L 187.072647 123.462535 
L 190.492824 122.05514 
L 193.913 120.647644 
L 197.333177 119.240045 
L 200.753354 117.832344 
L 204.173531 116.42454 
L 207.593707 115.016635 
L 211.013884 113.608627 
L 214.434061 112.200518 
L 217.854238 110.792305 
L 221.274414 109.383991 
L 224.694591 107.975575 
L 228.114768 106.567056 
L 231.534945 105.158435 
L 234.955121 103.749712 
L 238.375298 102.340887 
L 241.795475 100.931959 
L 245.215652 99.52293 
L 248.635828 98.113798 
L 252.056005 96.704564 
L 255.476182 95.295227 
L 258.896359 93.885789 
L 262.316535 92.476248 
L 265.736712 91.066605 
L 269.156889 89.65686 
L 272.577066 88.247013 
L 275.997242 86.837063 
L 279.417419 85.427011 
L 282.837596 84.016857 
L 286.257773 82.606601 
L 289.677949 81.196243 
L 293.098126 79.785782 
L 296.518303 78.37522 
L 299.93848 76.964555 
L 303.358656 75.553787 
L 306.778833 74.142918 
L 310.19901 72.731946 
L 313.619187 71.320873 
L 317.039363 69.909697 
L 320.45954 68.498418 
L 323.879717 67.087038 
L 327.299893 65.675555 
L 330.72007 64.26397 
L 334.140247 62.852283 
L 337.560424 61.440494 
L 340.9806 60.028603 
L 344.400777 58.616609 
L 347.820954 57.204513 
L 351.241131 55.792315 
L 354.661307 54.380015 
L 358.081484 52.967612 
L 361.501661 51.555108 
L 364.921838 50.142501 
L 368.342014 48.729792 
L 371.762191 47.31698 
L 375.182368 45.904067 
L 378.602545 44.491051 
L 382.022721 43.077933 
L 385.442898 41.664713 
L 388.863075 40.251391 
L 392.283252 38.837966 
L 395.703428 37.42444 
L 399.123605 36.010811 
L 402.543782 34.59708 
L 405.963959 33.183246 
L 409.384135 31.769311 
L 412.804312 30.355273 
L 416.224489 28.941133 
L 419.644666 27.526891 
L 423.064842 26.112546 
L 426.485019 24.6981 
L 429.905196 23.283551 
L 433.325373 21.8689 
" clip-path="url(#p44386fd0a1)" style="fill: none; stroke: #0080ff; stroke-width: 1.5; stroke-linecap: square"/>
   </g>
   <g id="line2d_27">
    <path d="M 94.727875 164.323222 
L 98.148052 162.930818 
L 101.568228 161.538312 
L 104.988405 160.145703 
L 108.408582 158.752993 
L 111.828759 157.36018 
L 115.248935 155.967265 
L 118.669112 154.574248 
L 122.089289 153.181128 
L 125.509466 151.787906 
L 128.929642 150.394582 
L 132.349819 149.001156 
L 135.769996 147.607628 
L 139.190173 146.213997 
L 142.610349 144.820265 
L 146.030526 143.42643 
L 149.450703 142.032493 
L 152.87088 140.638453 
L 156.291056 139.244312 
L 159.711233 137.850068 
L 163.13141 136.455722 
L 166.551587 135.061274 
L 169.971763 133.666724 
L 173.39194 132.272071 
L 176.812117 130.877316 
L 180.232293 129.482459 
L 183.65247 128.0875 
L 187.072647 126.692439 
L 190.492824 125.297275 
L 193.913 123.902009 
L 197.333177 122.506641 
L 200.753354 121.111171 
L 204.173531 119.715599 
L 207.593707 118.319924 
L 211.013884 116.924147 
L 214.434061 115.528268 
L 217.854238 114.132287 
L 221.274414 112.736203 
L 224.694591 111.340018 
L 228.114768 109.94373 
L 231.534945 108.54734 
L 234.955121 107.150847 
L 238.375298 105.754253 
L 241.795475 104.357556 
L 245.215652 102.960757 
L 248.635828 101.563856 
L 252.056005 100.166853 
L 255.476182 98.769747 
L 258.896359 97.37254 
L 262.316535 95.97523 
L 265.736712 94.577818 
L 269.156889 93.180303 
L 272.577066 91.782687 
L 275.997242 90.384968 
L 279.417419 88.987147 
L 282.837596 87.589224 
L 286.257773 86.191199 
L 289.677949 84.793071 
L 293.098126 83.394841 
L 296.518303 81.996509 
L 299.93848 80.598075 
L 303.358656 79.199539 
L 306.778833 77.8009 
L 310.19901 76.402159 
L 313.619187 75.003316 
L 317.039363 73.604371 
L 320.45954 72.205324 
L 323.879717 70.806174 
L 327.299893 69.406922 
L 330.72007 68.007568 
L 334.140247 66.608112 
L 337.560424 65.208554 
L 340.9806 63.808893 
L 344.400777 62.40913 
L 347.820954 61.009265 
L 351.241131 59.609298 
L 354.661307 58.209228 
L 358.081484 56.809057 
L 361.501661 55.408783 
L 364.921838 54.008407 
L 368.342014 52.607929 
L 371.762191 51.207348 
L 375.182368 49.806665 
L 378.602545 48.40588 
L 382.022721 47.004993 
L 385.442898 45.604004 
L 388.863075 44.202912 
L 392.283252 42.801719 
L 395.703428 41.400423 
L 399.123605 39.999025 
L 402.543782 38.597524 
L 405.963959 37.195922 
L 409.384135 35.794217 
L 412.804312 34.39241 
L 416.224489 32.990501 
L 419.644666 31.58849 
L 423.064842 30.186376 
L 426.485019 28.78416 
L 429.905196 27.381842 
L 433.325373 25.979422 
" clip-path="url(#p44386fd0a1)" style="fill: none; stroke: #7dff7a; stroke-width: 1.5; stroke-linecap: square"/>
   </g>
   <g id="line2d_28">
    <path d="M 94.727875 166.055372 
L 98.148052 164.691655 
L 101.568228 163.327836 
L 104.988405 161.963914 
L 108.408582 160.59989 
L 111.828759 159.235764 
L 115.248935 157.871536 
L 118.669112 156.507205 
L 122.089289 155.142773 
L 125.509466 153.778238 
L 128.929642 152.413601 
L 132.349819 151.048861 
L 135.769996 149.68402 
L 139.190173 148.319076 
L 142.610349 146.95403 
L 146.030526 145.588882 
L 149.450703 144.223632 
L 152.87088 142.858279 
L 156.291056 141.492824 
L 159.711233 140.127267 
L 163.13141 138.761608 
L 166.551587 137.395847 
L 169.971763 136.029983 
L 173.39194 134.664018 
L 176.812117 133.29795 
L 180.232293 131.931779 
L 183.65247 130.565507 
L 187.072647 129.199132 
L 190.492824 127.832656 
L 193.913 126.466077 
L 197.333177 125.099395 
L 200.753354 123.732612 
L 204.173531 122.365726 
L 207.593707 120.998739 
L 211.013884 119.631649 
L 214.434061 118.264456 
L 217.854238 116.897162 
L 221.274414 115.529765 
L 224.694591 114.162266 
L 228.114768 112.794665 
L 231.534945 111.426962 
L 234.955121 110.059157 
L 238.375298 108.691249 
L 241.795475 107.323239 
L 245.215652 105.955127 
L 248.635828 104.586913 
L 252.056005 103.218596 
L 255.476182 101.850178 
L 258.896359 100.481657 
L 262.316535 99.113034 
L 265.736712 97.744308 
L 269.156889 96.375481 
L 272.577066 95.006551 
L 275.997242 93.637519 
L 279.417419 92.268385 
L 282.837596 90.899149 
L 286.257773 89.52981 
L 289.677949 88.160369 
L 293.098126 86.790826 
L 296.518303 85.421181 
L 299.93848 84.051434 
L 303.358656 82.681584 
L 306.778833 81.311632 
L 310.19901 79.941578 
L 313.619187 78.571422 
L 317.039363 77.201164 
L 320.45954 75.830803 
L 323.879717 74.46034 
L 327.299893 73.089775 
L 330.72007 71.719108 
L 334.140247 70.348339 
L 337.560424 68.977467 
L 340.9806 67.606493 
L 344.400777 66.235417 
L 347.820954 64.864239 
L 351.241131 63.492959 
L 354.661307 62.121576 
L 358.081484 60.750091 
L 361.501661 59.378504 
L 364.921838 58.006815 
L 368.342014 56.635023 
L 371.762191 55.26313 
L 375.182368 53.891134 
L 378.602545 52.519036 
L 382.022721 51.146835 
L 385.442898 49.774533 
L 388.863075 48.402128 
L 392.283252 47.029621 
L 395.703428 45.657012 
L 399.123605 44.284301 
L 402.543782 42.911487 
L 405.963959 41.538572 
L 409.384135 40.165554 
L 412.804312 38.792433 
L 416.224489 37.419211 
L 419.644666 36.045887 
L 423.064842 34.67246 
L 426.485019 33.298931 
L 429.905196 31.9253 
L 433.325373 30.551566 
" clip-path="url(#p44386fd0a1)" style="fill: none; stroke: #ff9400; stroke-width: 1.5; stroke-linecap: square"/>
   </g>
   <g id="line2d_29">
    <path d="M 94.727875 166.62 
L 98.148052 165.301426 
L 101.568228 163.982749 
L 104.988405 162.66397 
L 108.408582 161.345089 
L 111.828759 160.026106 
L 115.248935 158.70702 
L 118.669112 157.387833 
L 122.089289 156.068543 
L 125.509466 154.749151 
L 128.929642 153.429656 
L 132.349819 152.11006 
L 135.769996 150.790361 
L 139.190173 149.47056 
L 142.610349 148.150657 
L 146.030526 146.830652 
L 149.450703 145.510544 
L 152.87088 144.190335 
L 156.291056 142.870023 
L 159.711233 141.549609 
L 163.13141 140.229092 
L 166.551587 138.908474 
L 169.971763 137.587753 
L 173.39194 136.26693 
L 176.812117 134.946005 
L 180.232293 133.624978 
L 183.65247 132.303848 
L 187.072647 130.982616 
L 190.492824 129.661282 
L 193.913 128.339846 
L 197.333177 127.018308 
L 200.753354 125.696667 
L 204.173531 124.374924 
L 207.593707 123.053079 
L 211.013884 121.731132 
L 214.434061 120.409083 
L 217.854238 119.086931 
L 221.274414 117.764677 
L 224.694591 116.442321 
L 228.114768 115.119863 
L 231.534945 113.797302 
L 234.955121 112.47464 
L 238.375298 111.151875 
L 241.795475 109.829008 
L 245.215652 108.506039 
L 248.635828 107.182967 
L 252.056005 105.859793 
L 255.476182 104.536518 
L 258.896359 103.213139 
L 262.316535 101.889659 
L 265.736712 100.566077 
L 269.156889 99.242392 
L 272.577066 97.918605 
L 275.997242 96.594716 
L 279.417419 95.270725 
L 282.837596 93.946631 
L 286.257773 92.622435 
L 289.677949 91.298137 
L 293.098126 89.973737 
L 296.518303 88.649235 
L 299.93848 87.32463 
L 303.358656 85.999924 
L 306.778833 84.675115 
L 310.19901 83.350204 
L 313.619187 82.02519 
L 317.039363 80.700075 
L 320.45954 79.374857 
L 323.879717 78.049537 
L 327.299893 76.724115 
L 330.72007 75.39859 
L 334.140247 74.072964 
L 337.560424 72.747235 
L 340.9806 71.421404 
L 344.400777 70.095471 
L 347.820954 68.769435 
L 351.241131 67.443297 
L 354.661307 66.117058 
L 358.081484 64.790716 
L 361.501661 63.464271 
L 364.921838 62.137725 
L 368.342014 60.811076 
L 371.762191 59.484325 
L 375.182368 58.157472 
L 378.602545 56.830517 
L 382.022721 55.50346 
L 385.442898 54.1763 
L 388.863075 52.849038 
L 392.283252 51.521674 
L 395.703428 50.194208 
L 399.123605 48.866639 
L 402.543782 47.538968 
L 405.963959 46.211195 
L 409.384135 44.88332 
L 412.804312 43.555343 
L 416.224489 42.227263 
L 419.644666 40.899082 
L 423.064842 39.570798 
L 426.485019 38.242412 
L 429.905196 36.913923 
L 433.325373 35.585333 
" clip-path="url(#p44386fd0a1)" style="fill: none; stroke: #800000; stroke-width: 1.5; stroke-linecap: square"/>
   </g>
   <g id="patch_3">
    <path d="M 77.798 174.04 
L 77.798 10.8 
" style="fill: none; stroke: #000000; stroke-width: 0.8; stroke-linejoin: miter; stroke-linecap: square"/>
   </g>
   <g id="patch_4">
    <path d="M 450.255247 174.04 
L 450.255247 10.8 
" style="fill: none; stroke: #000000; stroke-width: 0.8; stroke-linejoin: miter; stroke-linecap: square"/>
   </g>
   <g id="patch_5">
    <path d="M 77.798 174.04 
L 450.255247 174.04 
" style="fill: none; stroke: #000000; stroke-width: 0.8; stroke-linejoin: miter; stroke-linecap: square"/>
   </g>
   <g id="patch_6">
    <path d="M 77.798 10.8 
L 450.255247 10.8 
" style="fill: none; stroke: #000000; stroke-width: 0.8; stroke-linejoin: miter; stroke-linecap: square"/>
   </g>
   <g id="legend_1">
    <g id="patch_7">
     <path d="M 459.255247 162.878 
L 564.455247 162.878 
Q 566.455247 162.878 566.455247 160.878 
L 566.455247 88.385812 
Q 566.455247 86.385812 564.455247 86.385812 
L 459.255247 86.385812 
Q 457.255247 86.385812 457.255247 88.385812 
L 457.255247 160.878 
Q 457.255247 162.878 459.255247 162.878 
z
" style="fill: #4d4d4d; opacity: 0.5; stroke: #4d4d4d; stroke-linejoin: miter"/>
    </g>
    <g id="patch_8">
     <path d="M 457.255247 160.878 
L 562.455247 160.878 
Q 564.455247 160.878 564.455247 158.878 
L 564.455247 86.385812 
Q 564.455247 84.385812 562.455247 84.385812 
L 457.255247 84.385812 
Q 455.255247 84.385812 455.255247 86.385812 
L 455.255247 158.878 
Q 455.255247 160.878 457.255247 160.878 
z
" style="fill: #ffffff; stroke: #cccccc; stroke-linejoin: miter"/>
    </g>
    <g id="line2d_30">
     <path d="M 459.255247 92.48425 
L 469.255247 92.48425 
L 479.255247 92.48425 
" style="fill: none; stroke: #000080; stroke-width: 1.5; stroke-linecap: square"/>
    </g>
    <g id="text_15">
     <!-- $\delta_e = 0$, $J = 1.60$ -->
     <g transform="translate(487.255247 95.98425) scale(0.1 -0.1)">
      <defs>
       <path id="DejaVuSans-Oblique-3b4" d="M 3472 4053 
Q 3197 4272 2450 4272 
Q 1659 4272 1588 3906 
Q 1531 3619 2328 3469 
Q 2953 3353 3253 3003 
Q 3616 2581 3447 1716 
Q 3284 888 2763 400 
Q 2238 -91 1488 -91 
Q 741 -91 406 400 
Q 72 888 241 1747 
Q 363 2384 891 2900 
Q 1097 3100 1353 3213 
Q 913 3459 1000 3900 
Q 1166 4750 2544 4750 
Q 3234 4750 3566 4531 
L 3472 4053 
z
M 1753 3056 
Q 1525 2966 1306 2738 
Q 969 2384 847 1747 
Q 722 1113 919 756 
Q 1119 397 1584 397 
Q 2044 397 2381 759 
Q 2722 1122 2838 1716 
Q 2956 2338 2731 2638 
Q 2491 2959 2103 2994 
Q 1906 3013 1753 3056 
z
" transform="scale(0.015625)"/>
       <path id="DejaVuSans-Oblique-65" d="M 3078 2063 
Q 3088 2113 3092 2166 
Q 3097 2219 3097 2272 
Q 3097 2653 2873 2875 
Q 2650 3097 2266 3097 
Q 1838 3097 1509 2826 
Q 1181 2556 1013 2059 
L 3078 2063 
z
M 3578 1613 
L 903 1613 
Q 884 1494 878 1425 
Q 872 1356 872 1306 
Q 872 872 1139 634 
Q 1406 397 1894 397 
Q 2269 397 2603 481 
Q 2938 566 3225 728 
L 3116 159 
Q 2806 34 2476 -28 
Q 2147 -91 1806 -91 
Q 1078 -91 686 257 
Q 294 606 294 1247 
Q 294 1794 489 2264 
Q 684 2734 1063 3103 
Q 1306 3334 1642 3459 
Q 1978 3584 2356 3584 
Q 2950 3584 3301 3228 
Q 3653 2872 3653 2272 
Q 3653 2128 3634 1964 
Q 3616 1800 3578 1613 
z
" transform="scale(0.015625)"/>
       <path id="DejaVuSans-3d" d="M 678 2906 
L 4684 2906 
L 4684 2381 
L 678 2381 
L 678 2906 
z
M 678 1631 
L 4684 1631 
L 4684 1100 
L 678 1100 
L 678 1631 
z
" transform="scale(0.015625)"/>
       <path id="DejaVuSans-2c" d="M 750 794 
L 1409 794 
L 1409 256 
L 897 -744 
L 494 -744 
L 750 256 
L 750 794 
z
" transform="scale(0.015625)"/>
       <path id="DejaVuSans-Oblique-4a" d="M 1069 4666 
L 1703 4666 
L 856 325 
Q 691 -522 298 -901 
Q -94 -1281 -800 -1281 
L -1050 -1281 
L -947 -750 
L -750 -750 
Q -328 -750 -109 -509 
Q 109 -269 225 325 
L 1069 4666 
z
" transform="scale(0.015625)"/>
      </defs>
      <use xlink:href="#DejaVuSans-Oblique-3b4" transform="translate(0 0.78125)"/>
      <use xlink:href="#DejaVuSans-Oblique-65" transform="translate(61.181641 -15.625) scale(0.7)"/>
      <use xlink:href="#DejaVuSans-3d" transform="translate(126.464844 0.78125)"/>
      <use xlink:href="#DejaVuSans-30" transform="translate(229.736328 0.78125)"/>
      <use xlink:href="#DejaVuSans-2c" transform="translate(293.359375 0.78125)"/>
      <use xlink:href="#DejaVuSans-20" transform="translate(325.146484 0.78125)"/>
      <use xlink:href="#DejaVuSans-Oblique-4a" transform="translate(356.933594 0.78125)"/>
      <use xlink:href="#DejaVuSans-3d" transform="translate(405.908203 0.78125)"/>
      <use xlink:href="#DejaVuSans-31" transform="translate(509.179688 0.78125)"/>
      <use xlink:href="#DejaVuSans-2e" transform="translate(572.802734 0.78125)"/>
      <use xlink:href="#DejaVuSans-36" transform="translate(604.589844 0.78125)"/>
      <use xlink:href="#DejaVuSans-30" transform="translate(668.212891 0.78125)"/>
     </g>
    </g>
    <g id="line2d_31">
     <path d="M 459.255247 107.182688 
L 469.255247 107.182688 
L 479.255247 107.182688 
" style="fill: none; stroke: #0080ff; stroke-width: 1.5; stroke-linecap: square"/>
    </g>
    <g id="text_16">
     <!-- $\delta_e = 0$, $J = 1.80$ -->
     <g transform="translate(487.255247 110.682688) scale(0.1 -0.1)">
      <defs>
       <path id="DejaVuSans-38" d="M 2034 2216 
Q 1584 2216 1326 1975 
Q 1069 1734 1069 1313 
Q 1069 891 1326 650 
Q 1584 409 2034 409 
Q 2484 409 2743 651 
Q 3003 894 3003 1313 
Q 3003 1734 2745 1975 
Q 2488 2216 2034 2216 
z
M 1403 2484 
Q 997 2584 770 2862 
Q 544 3141 544 3541 
Q 544 4100 942 4425 
Q 1341 4750 2034 4750 
Q 2731 4750 3128 4425 
Q 3525 4100 3525 3541 
Q 3525 3141 3298 2862 
Q 3072 2584 2669 2484 
Q 3125 2378 3379 2068 
Q 3634 1759 3634 1313 
Q 3634 634 3220 271 
Q 2806 -91 2034 -91 
Q 1263 -91 848 271 
Q 434 634 434 1313 
Q 434 1759 690 2068 
Q 947 2378 1403 2484 
z
M 1172 3481 
Q 1172 3119 1398 2916 
Q 1625 2713 2034 2713 
Q 2441 2713 2670 2916 
Q 2900 3119 2900 3481 
Q 2900 3844 2670 4047 
Q 2441 4250 2034 4250 
Q 1625 4250 1398 4047 
Q 1172 3844 1172 3481 
z
" transform="scale(0.015625)"/>
      </defs>
      <use xlink:href="#DejaVuSans-Oblique-3b4" transform="translate(0 0.78125)"/>
      <use xlink:href="#DejaVuSans-Oblique-65" transform="translate(61.181641 -15.625) scale(0.7)"/>
      <use xlink:href="#DejaVuSans-3d" transform="translate(126.464844 0.78125)"/>
      <use xlink:href="#DejaVuSans-30" transform="translate(229.736328 0.78125)"/>
      <use xlink:href="#DejaVuSans-2c" transform="translate(293.359375 0.78125)"/>
      <use xlink:href="#DejaVuSans-20" transform="translate(325.146484 0.78125)"/>
      <use xlink:href="#DejaVuSans-Oblique-4a" transform="translate(356.933594 0.78125)"/>
      <use xlink:href="#DejaVuSans-3d" transform="translate(405.908203 0.78125)"/>
      <use xlink:href="#DejaVuSans-31" transform="translate(509.179688 0.78125)"/>
      <use xlink:href="#DejaVuSans-2e" transform="translate(572.802734 0.78125)"/>
      <use xlink:href="#DejaVuSans-38" transform="translate(601.964844 0.78125)"/>
      <use xlink:href="#DejaVuSans-30" transform="translate(665.587891 0.78125)"/>
     </g>
    </g>
    <g id="line2d_32">
     <path d="M 459.255247 121.881125 
L 469.255247 121.881125 
L 479.255247 121.881125 
" style="fill: none; stroke: #7dff7a; stroke-width: 1.5; stroke-linecap: square"/>
    </g>
    <g id="text_17">
     <!-- $\delta_e = 0$, $J = 2.00$ -->
     <g transform="translate(487.255247 125.381125) scale(0.1 -0.1)">
      <use xlink:href="#DejaVuSans-Oblique-3b4" transform="translate(0 0.78125)"/>
      <use xlink:href="#DejaVuSans-Oblique-65" transform="translate(61.181641 -15.625) scale(0.7)"/>
      <use xlink:href="#DejaVuSans-3d" transform="translate(126.464844 0.78125)"/>
      <use xlink:href="#DejaVuSans-30" transform="translate(229.736328 0.78125)"/>
      <use xlink:href="#DejaVuSans-2c" transform="translate(293.359375 0.78125)"/>
      <use xlink:href="#DejaVuSans-20" transform="translate(325.146484 0.78125)"/>
      <use xlink:href="#DejaVuSans-Oblique-4a" transform="translate(356.933594 0.78125)"/>
      <use xlink:href="#DejaVuSans-3d" transform="translate(405.908203 0.78125)"/>
      <use xlink:href="#DejaVuSans-32" transform="translate(509.179688 0.78125)"/>
      <use xlink:href="#DejaVuSans-2e" transform="translate(572.802734 0.78125)"/>
      <use xlink:href="#DejaVuSans-30" transform="translate(604.589844 0.78125)"/>
      <use xlink:href="#DejaVuSans-30" transform="translate(668.212891 0.78125)"/>
     </g>
    </g>
    <g id="line2d_33">
     <path d="M 459.255247 136.579563 
L 469.255247 136.579563 
L 479.255247 136.579563 
" style="fill: none; stroke: #ff9400; stroke-width: 1.5; stroke-linecap: square"/>
    </g>
    <g id="text_18">
     <!-- $\delta_e = 0$, $J = 2.20$ -->
     <g transform="translate(487.255247 140.079563) scale(0.1 -0.1)">
      <use xlink:href="#DejaVuSans-Oblique-3b4" transform="translate(0 0.78125)"/>
      <use xlink:href="#DejaVuSans-Oblique-65" transform="translate(61.181641 -15.625) scale(0.7)"/>
      <use xlink:href="#DejaVuSans-3d" transform="translate(126.464844 0.78125)"/>
      <use xlink:href="#DejaVuSans-30" transform="translate(229.736328 0.78125)"/>
      <use xlink:href="#DejaVuSans-2c" transform="translate(293.359375 0.78125)"/>
      <use xlink:href="#DejaVuSans-20" transform="translate(325.146484 0.78125)"/>
      <use xlink:href="#DejaVuSans-Oblique-4a" transform="translate(356.933594 0.78125)"/>
      <use xlink:href="#DejaVuSans-3d" transform="translate(405.908203 0.78125)"/>
      <use xlink:href="#DejaVuSans-32" transform="translate(509.179688 0.78125)"/>
      <use xlink:href="#DejaVuSans-2e" transform="translate(572.802734 0.78125)"/>
      <use xlink:href="#DejaVuSans-32" transform="translate(599.089844 0.78125)"/>
      <use xlink:href="#DejaVuSans-30" transform="translate(662.712891 0.78125)"/>
     </g>
    </g>
    <g id="line2d_34">
     <path d="M 459.255247 151.278 
L 469.255247 151.278 
L 479.255247 151.278 
" style="fill: none; stroke: #800000; stroke-width: 1.5; stroke-linecap: square"/>
    </g>
    <g id="text_19">
     <!-- $\delta_e = 0$, $J = 2.40$ -->
     <g transform="translate(487.255247 154.778) scale(0.1 -0.1)">
      <use xlink:href="#DejaVuSans-Oblique-3b4" transform="translate(0 0.78125)"/>
      <use xlink:href="#DejaVuSans-Oblique-65" transform="translate(61.181641 -15.625) scale(0.7)"/>
      <use xlink:href="#DejaVuSans-3d" transform="translate(126.464844 0.78125)"/>
      <use xlink:href="#DejaVuSans-30" transform="translate(229.736328 0.78125)"/>
      <use xlink:href="#DejaVuSans-2c" transform="translate(293.359375 0.78125)"/>
      <use xlink:href="#DejaVuSans-20" transform="translate(325.146484 0.78125)"/>
      <use xlink:href="#DejaVuSans-Oblique-4a" transform="translate(356.933594 0.78125)"/>
      <use xlink:href="#DejaVuSans-3d" transform="translate(405.908203 0.78125)"/>
      <use xlink:href="#DejaVuSans-32" transform="translate(509.179688 0.78125)"/>
      <use xlink:href="#DejaVuSans-2e" transform="translate(572.802734 0.78125)"/>
      <use xlink:href="#DejaVuSans-34" transform="translate(604.589844 0.78125)"/>
      <use xlink:href="#DejaVuSans-30" transform="translate(668.212891 0.78125)"/>
     </g>
    </g>
   </g>
  </g>
 </g>
 <defs>
  <clipPath id="p44386fd0a1">
   <rect x="77.798" y="10.8" width="372.457247" height="163.24"/>
  </clipPath>
 </defs>
</svg>
