<?xml version="1.0" encoding="utf-8" standalone="no"?>
<!DOCTYPE svg PUBLIC "-//W3C//DTD SVG 1.1//EN"
  "http://www.w3.org/Graphics/SVG/1.1/DTD/svg11.dtd">
<svg xmlns:xlink="http://www.w3.org/1999/xlink" width="432pt" height="216pt" viewBox="0 0 432 216" xmlns="http://www.w3.org/2000/svg" version="1.1">
 <metadata>
  <rdf:RDF xmlns:dc="http://purl.org/dc/elements/1.1/" xmlns:cc="http://creativecommons.org/ns#" xmlns:rdf="http://www.w3.org/1999/02/22-rdf-syntax-ns#">
   <cc:Work>
    <dc:type rdf:resource="http://purl.org/dc/dcmitype/StillImage"/>
    <dc:date>2025-03-28T12:22:13.342279</dc:date>
    <dc:format>image/svg+xml</dc:format>
    <dc:creator>
     <cc:Agent>
      <dc:title>Matplotlib v3.9.2, https://matplotlib.org/</dc:title>
     </cc:Agent>
    </dc:creator>
   </cc:Work>
  </rdf:RDF>
 </metadata>
 <defs>
  <style type="text/css">*{stroke-linejoin: round; stroke-linecap: butt}</style>
 </defs>
 <g id="figure_1">
  <g id="patch_1">
   <path d="M 0 216 
L 432 216 
L 432 0 
L 0 0 
z
" style="fill: #ffffff"/>
  </g>
  <g id="axes_1">
   <g id="patch_2">
    <path d="M 77.798 174.04 
L 306.255247 174.04 
L 306.255247 10.8 
L 77.798 10.8 
z
" style="fill: #ffffff"/>
   </g>
   <g id="matplotlib.axis_1">
    <g id="xtick_1">
     <g id="line2d_1">
      <path d="M 88.18242 174.04 
L 88.18242 10.8 
" clip-path="url(#p719925fe67)" style="fill: none; stroke: #b0b0b0; stroke-width: 0.8; stroke-linecap: square"/>
     </g>
     <g id="line2d_2">
      <defs>
       <path id="m4f4ff610ae" d="M 0 0 
L 0 3.5 
" style="stroke: #000000; stroke-width: 0.8"/>
      </defs>
      <g>
       <use xlink:href="#m4f4ff610ae" x="88.18242" y="174.04" style="stroke: #000000; stroke-width: 0.8"/>
      </g>
     </g>
     <g id="text_1">
      <!-- −4 -->
      <g transform="translate(80.811327 188.638438) scale(0.1 -0.1)">
       <defs>
        <path id="DejaVuSans-2212" d="M 678 2272 
L 4684 2272 
L 4684 1741 
L 678 1741 
L 678 2272 
z
" transform="scale(0.015625)"/>
        <path id="DejaVuSans-34" d="M 2419 4116 
L 825 1625 
L 2419 1625 
L 2419 4116 
z
M 2253 4666 
L 3047 4666 
L 3047 1625 
L 3713 1625 
L 3713 1100 
L 3047 1100 
L 3047 0 
L 2419 0 
L 2419 1100 
L 313 1100 
L 313 1709 
L 2253 4666 
z
" transform="scale(0.015625)"/>
       </defs>
       <use xlink:href="#DejaVuSans-2212"/>
       <use xlink:href="#DejaVuSans-34" x="83.789062"/>
      </g>
     </g>
    </g>
    <g id="xtick_2">
     <g id="line2d_3">
      <path d="M 125.943949 174.04 
L 125.943949 10.8 
" clip-path="url(#p719925fe67)" style="fill: none; stroke: #b0b0b0; stroke-width: 0.8; stroke-linecap: square"/>
     </g>
     <g id="line2d_4">
      <g>
       <use xlink:href="#m4f4ff610ae" x="125.943949" y="174.04" style="stroke: #000000; stroke-width: 0.8"/>
      </g>
     </g>
     <g id="text_2">
      <!-- −2 -->
      <g transform="translate(118.572855 188.638438) scale(0.1 -0.1)">
       <defs>
        <path id="DejaVuSans-32" d="M 1228 531 
L 3431 531 
L 3431 0 
L 469 0 
L 469 531 
Q 828 903 1448 1529 
Q 2069 2156 2228 2338 
Q 2531 2678 2651 2914 
Q 2772 3150 2772 3378 
Q 2772 3750 2511 3984 
Q 2250 4219 1831 4219 
Q 1534 4219 1204 4116 
Q 875 4013 500 3803 
L 500 4441 
Q 881 4594 1212 4672 
Q 1544 4750 1819 4750 
Q 2544 4750 2975 4387 
Q 3406 4025 3406 3419 
Q 3406 3131 3298 2873 
Q 3191 2616 2906 2266 
Q 2828 2175 2409 1742 
Q 1991 1309 1228 531 
z
" transform="scale(0.015625)"/>
       </defs>
       <use xlink:href="#DejaVuSans-2212"/>
       <use xlink:href="#DejaVuSans-32" x="83.789062"/>
      </g>
     </g>
    </g>
    <g id="xtick_3">
     <g id="line2d_5">
      <path d="M 163.705477 174.04 
L 163.705477 10.8 
" clip-path="url(#p719925fe67)" style="fill: none; stroke: #b0b0b0; stroke-width: 0.8; stroke-linecap: square"/>
     </g>
     <g id="line2d_6">
      <g>
       <use xlink:href="#m4f4ff610ae" x="163.705477" y="174.04" style="stroke: #000000; stroke-width: 0.8"/>
      </g>
     </g>
     <g id="text_3">
      <!-- 0 -->
      <g transform="translate(160.524227 188.638438) scale(0.1 -0.1)">
       <defs>
        <path id="DejaVuSans-30" d="M 2034 4250 
Q 1547 4250 1301 3770 
Q 1056 3291 1056 2328 
Q 1056 1369 1301 889 
Q 1547 409 2034 409 
Q 2525 409 2770 889 
Q 3016 1369 3016 2328 
Q 3016 3291 2770 3770 
Q 2525 4250 2034 4250 
z
M 2034 4750 
Q 2819 4750 3233 4129 
Q 3647 3509 3647 2328 
Q 3647 1150 3233 529 
Q 2819 -91 2034 -91 
Q 1250 -91 836 529 
Q 422 1150 422 2328 
Q 422 3509 836 4129 
Q 1250 4750 2034 4750 
z
" transform="scale(0.015625)"/>
       </defs>
       <use xlink:href="#DejaVuSans-30"/>
      </g>
     </g>
    </g>
    <g id="xtick_4">
     <g id="line2d_7">
      <path d="M 201.467006 174.04 
L 201.467006 10.8 
" clip-path="url(#p719925fe67)" style="fill: none; stroke: #b0b0b0; stroke-width: 0.8; stroke-linecap: square"/>
     </g>
     <g id="line2d_8">
      <g>
       <use xlink:href="#m4f4ff610ae" x="201.467006" y="174.04" style="stroke: #000000; stroke-width: 0.8"/>
      </g>
     </g>
     <g id="text_4">
      <!-- 2 -->
      <g transform="translate(198.285756 188.638438) scale(0.1 -0.1)">
       <use xlink:href="#DejaVuSans-32"/>
      </g>
     </g>
    </g>
    <g id="xtick_5">
     <g id="line2d_9">
      <path d="M 239.228534 174.04 
L 239.228534 10.8 
" clip-path="url(#p719925fe67)" style="fill: none; stroke: #b0b0b0; stroke-width: 0.8; stroke-linecap: square"/>
     </g>
     <g id="line2d_10">
      <g>
       <use xlink:href="#m4f4ff610ae" x="239.228534" y="174.04" style="stroke: #000000; stroke-width: 0.8"/>
      </g>
     </g>
     <g id="text_5">
      <!-- 4 -->
      <g transform="translate(236.047284 188.638438) scale(0.1 -0.1)">
       <use xlink:href="#DejaVuSans-34"/>
      </g>
     </g>
    </g>
    <g id="xtick_6">
     <g id="line2d_11">
      <path d="M 276.990063 174.04 
L 276.990063 10.8 
" clip-path="url(#p719925fe67)" style="fill: none; stroke: #b0b0b0; stroke-width: 0.8; stroke-linecap: square"/>
     </g>
     <g id="line2d_12">
      <g>
       <use xlink:href="#m4f4ff610ae" x="276.990063" y="174.04" style="stroke: #000000; stroke-width: 0.8"/>
      </g>
     </g>
     <g id="text_6">
      <!-- 6 -->
      <g transform="translate(273.808813 188.638438) scale(0.1 -0.1)">
       <defs>
        <path id="DejaVuSans-36" d="M 2113 2584 
Q 1688 2584 1439 2293 
Q 1191 2003 1191 1497 
Q 1191 994 1439 701 
Q 1688 409 2113 409 
Q 2538 409 2786 701 
Q 3034 994 3034 1497 
Q 3034 2003 2786 2293 
Q 2538 2584 2113 2584 
z
M 3366 4563 
L 3366 3988 
Q 3128 4100 2886 4159 
Q 2644 4219 2406 4219 
Q 1781 4219 1451 3797 
Q 1122 3375 1075 2522 
Q 1259 2794 1537 2939 
Q 1816 3084 2150 3084 
Q 2853 3084 3261 2657 
Q 3669 2231 3669 1497 
Q 3669 778 3244 343 
Q 2819 -91 2113 -91 
Q 1303 -91 875 529 
Q 447 1150 447 2328 
Q 447 3434 972 4092 
Q 1497 4750 2381 4750 
Q 2619 4750 2861 4703 
Q 3103 4656 3366 4563 
z
" transform="scale(0.015625)"/>
       </defs>
       <use xlink:href="#DejaVuSans-36"/>
      </g>
     </g>
    </g>
    <g id="text_7">
     <!-- $\alpha$ -->
     <g transform="translate(188.726624 202.316563) scale(0.1 -0.1)">
      <defs>
       <path id="DejaVuSans-Oblique-3b1" d="M 2619 1628 
L 2622 2350 
Q 2625 3088 2069 3091 
Q 1653 3094 1394 2747 
Q 1069 2319 959 1747 
Q 825 1059 994 731 
Q 1169 397 1547 397 
Q 1966 397 2319 1063 
L 2619 1628 
z
M 2166 3578 
Q 3141 3594 3128 2584 
Q 3128 2584 3616 3500 
L 4128 3500 
L 3119 1603 
L 3109 919 
Q 3109 766 3194 638 
Q 3291 488 3391 488 
L 3669 488 
L 3575 0 
L 3228 0 
Q 2934 0 2722 263 
Q 2622 394 2619 669 
Q 2416 334 2066 50 
Q 1900 -81 1453 -78 
Q 722 -72 456 397 
Q 184 884 353 1747 
Q 534 2675 1009 3097 
Q 1544 3569 2166 3578 
z
" transform="scale(0.015625)"/>
      </defs>
      <use xlink:href="#DejaVuSans-Oblique-3b1" transform="translate(0 0.84375)"/>
     </g>
    </g>
   </g>
   <g id="matplotlib.axis_2">
    <g id="ytick_1">
     <g id="line2d_13">
      <path d="M 77.798 154.83991 
L 306.255247 154.83991 
" clip-path="url(#p719925fe67)" style="fill: none; stroke: #b0b0b0; stroke-width: 0.8; stroke-linecap: square"/>
     </g>
     <g id="line2d_14">
      <defs>
       <path id="mcf7e871c00" d="M 0 0 
L -3.5 0 
" style="stroke: #000000; stroke-width: 0.8"/>
      </defs>
      <g>
       <use xlink:href="#mcf7e871c00" x="77.798" y="154.83991" style="stroke: #000000; stroke-width: 0.8"/>
      </g>
     </g>
     <g id="text_8">
      <!-- −0.0025 -->
      <g transform="translate(27.427687 158.639129) scale(0.1 -0.1)">
       <defs>
        <path id="DejaVuSans-2e" d="M 684 794 
L 1344 794 
L 1344 0 
L 684 0 
L 684 794 
z
" transform="scale(0.015625)"/>
        <path id="DejaVuSans-35" d="M 691 4666 
L 3169 4666 
L 3169 4134 
L 1269 4134 
L 1269 2991 
Q 1406 3038 1543 3061 
Q 1681 3084 1819 3084 
Q 2600 3084 3056 2656 
Q 3513 2228 3513 1497 
Q 3513 744 3044 326 
Q 2575 -91 1722 -91 
Q 1428 -91 1123 -41 
Q 819 9 494 109 
L 494 744 
Q 775 591 1075 516 
Q 1375 441 1709 441 
Q 2250 441 2565 725 
Q 2881 1009 2881 1497 
Q 2881 1984 2565 2268 
Q 2250 2553 1709 2553 
Q 1456 2553 1204 2497 
Q 953 2441 691 2322 
L 691 4666 
z
" transform="scale(0.015625)"/>
       </defs>
       <use xlink:href="#DejaVuSans-2212"/>
       <use xlink:href="#DejaVuSans-30" x="83.789062"/>
       <use xlink:href="#DejaVuSans-2e" x="147.412109"/>
       <use xlink:href="#DejaVuSans-30" x="179.199219"/>
       <use xlink:href="#DejaVuSans-30" x="242.822266"/>
       <use xlink:href="#DejaVuSans-32" x="306.445312"/>
       <use xlink:href="#DejaVuSans-35" x="370.068359"/>
      </g>
     </g>
    </g>
    <g id="ytick_2">
     <g id="line2d_15">
      <path d="M 77.798 129.504767 
L 306.255247 129.504767 
" clip-path="url(#p719925fe67)" style="fill: none; stroke: #b0b0b0; stroke-width: 0.8; stroke-linecap: square"/>
     </g>
     <g id="line2d_16">
      <g>
       <use xlink:href="#mcf7e871c00" x="77.798" y="129.504767" style="stroke: #000000; stroke-width: 0.8"/>
      </g>
     </g>
     <g id="text_9">
      <!-- 0.0000 -->
      <g transform="translate(35.807375 133.303985) scale(0.1 -0.1)">
       <use xlink:href="#DejaVuSans-30"/>
       <use xlink:href="#DejaVuSans-2e" x="63.623047"/>
       <use xlink:href="#DejaVuSans-30" x="95.410156"/>
       <use xlink:href="#DejaVuSans-30" x="159.033203"/>
       <use xlink:href="#DejaVuSans-30" x="222.65625"/>
       <use xlink:href="#DejaVuSans-30" x="286.279297"/>
      </g>
     </g>
    </g>
    <g id="ytick_3">
     <g id="line2d_17">
      <path d="M 77.798 104.169623 
L 306.255247 104.169623 
" clip-path="url(#p719925fe67)" style="fill: none; stroke: #b0b0b0; stroke-width: 0.8; stroke-linecap: square"/>
     </g>
     <g id="line2d_18">
      <g>
       <use xlink:href="#mcf7e871c00" x="77.798" y="104.169623" style="stroke: #000000; stroke-width: 0.8"/>
      </g>
     </g>
     <g id="text_10">
      <!-- 0.0025 -->
      <g transform="translate(35.807375 107.968842) scale(0.1 -0.1)">
       <use xlink:href="#DejaVuSans-30"/>
       <use xlink:href="#DejaVuSans-2e" x="63.623047"/>
       <use xlink:href="#DejaVuSans-30" x="95.410156"/>
       <use xlink:href="#DejaVuSans-30" x="159.033203"/>
       <use xlink:href="#DejaVuSans-32" x="222.65625"/>
       <use xlink:href="#DejaVuSans-35" x="286.279297"/>
      </g>
     </g>
    </g>
    <g id="ytick_4">
     <g id="line2d_19">
      <path d="M 77.798 78.83448 
L 306.255247 78.83448 
" clip-path="url(#p719925fe67)" style="fill: none; stroke: #b0b0b0; stroke-width: 0.8; stroke-linecap: square"/>
     </g>
     <g id="line2d_20">
      <g>
       <use xlink:href="#mcf7e871c00" x="77.798" y="78.83448" style="stroke: #000000; stroke-width: 0.8"/>
      </g>
     </g>
     <g id="text_11">
      <!-- 0.0050 -->
      <g transform="translate(35.807375 82.633699) scale(0.1 -0.1)">
       <use xlink:href="#DejaVuSans-30"/>
       <use xlink:href="#DejaVuSans-2e" x="63.623047"/>
       <use xlink:href="#DejaVuSans-30" x="95.410156"/>
       <use xlink:href="#DejaVuSans-30" x="159.033203"/>
       <use xlink:href="#DejaVuSans-35" x="222.65625"/>
       <use xlink:href="#DejaVuSans-30" x="286.279297"/>
      </g>
     </g>
    </g>
    <g id="ytick_5">
     <g id="line2d_21">
      <path d="M 77.798 53.499337 
L 306.255247 53.499337 
" clip-path="url(#p719925fe67)" style="fill: none; stroke: #b0b0b0; stroke-width: 0.8; stroke-linecap: square"/>
     </g>
     <g id="line2d_22">
      <g>
       <use xlink:href="#mcf7e871c00" x="77.798" y="53.499337" style="stroke: #000000; stroke-width: 0.8"/>
      </g>
     </g>
     <g id="text_12">
      <!-- 0.0075 -->
      <g transform="translate(35.807375 57.298556) scale(0.1 -0.1)">
       <defs>
        <path id="DejaVuSans-37" d="M 525 4666 
L 3525 4666 
L 3525 4397 
L 1831 0 
L 1172 0 
L 2766 4134 
L 525 4134 
L 525 4666 
z
" transform="scale(0.015625)"/>
       </defs>
       <use xlink:href="#DejaVuSans-30"/>
       <use xlink:href="#DejaVuSans-2e" x="63.623047"/>
       <use xlink:href="#DejaVuSans-30" x="95.410156"/>
       <use xlink:href="#DejaVuSans-30" x="159.033203"/>
       <use xlink:href="#DejaVuSans-37" x="222.65625"/>
       <use xlink:href="#DejaVuSans-35" x="286.279297"/>
      </g>
     </g>
    </g>
    <g id="ytick_6">
     <g id="line2d_23">
      <path d="M 77.798 28.164194 
L 306.255247 28.164194 
" clip-path="url(#p719925fe67)" style="fill: none; stroke: #b0b0b0; stroke-width: 0.8; stroke-linecap: square"/>
     </g>
     <g id="line2d_24">
      <g>
       <use xlink:href="#mcf7e871c00" x="77.798" y="28.164194" style="stroke: #000000; stroke-width: 0.8"/>
      </g>
     </g>
     <g id="text_13">
      <!-- 0.0100 -->
      <g transform="translate(35.807375 31.963413) scale(0.1 -0.1)">
       <defs>
        <path id="DejaVuSans-31" d="M 794 531 
L 1825 531 
L 1825 4091 
L 703 3866 
L 703 4441 
L 1819 4666 
L 2450 4666 
L 2450 531 
L 3481 531 
L 3481 0 
L 794 0 
L 794 531 
z
" transform="scale(0.015625)"/>
       </defs>
       <use xlink:href="#DejaVuSans-30"/>
       <use xlink:href="#DejaVuSans-2e" x="63.623047"/>
       <use xlink:href="#DejaVuSans-30" x="95.410156"/>
       <use xlink:href="#DejaVuSans-31" x="159.033203"/>
       <use xlink:href="#DejaVuSans-30" x="222.65625"/>
       <use xlink:href="#DejaVuSans-30" x="286.279297"/>
      </g>
     </g>
    </g>
    <g id="text_14">
     <!-- d$C_D$ / d$\alpha$ -->
     <g transform="translate(21.348 113.27) rotate(-90) scale(0.1 -0.1)">
      <defs>
       <path id="DejaVuSans-64" d="M 2906 2969 
L 2906 4863 
L 3481 4863 
L 3481 0 
L 2906 0 
L 2906 525 
Q 2725 213 2448 61 
Q 2172 -91 1784 -91 
Q 1150 -91 751 415 
Q 353 922 353 1747 
Q 353 2572 751 3078 
Q 1150 3584 1784 3584 
Q 2172 3584 2448 3432 
Q 2725 3281 2906 2969 
z
M 947 1747 
Q 947 1113 1208 752 
Q 1469 391 1925 391 
Q 2381 391 2643 752 
Q 2906 1113 2906 1747 
Q 2906 2381 2643 2742 
Q 2381 3103 1925 3103 
Q 1469 3103 1208 2742 
Q 947 2381 947 1747 
z
" transform="scale(0.015625)"/>
       <path id="DejaVuSans-Oblique-43" d="M 4447 4306 
L 4319 3641 
Q 4019 3944 3683 4091 
Q 3347 4238 2956 4238 
Q 2422 4238 2017 3981 
Q 1613 3725 1319 3200 
Q 1131 2863 1032 2486 
Q 934 2109 934 1728 
Q 934 1091 1264 756 
Q 1594 422 2222 422 
Q 2656 422 3056 561 
Q 3456 700 3834 978 
L 3688 231 
Q 3316 72 2936 -9 
Q 2556 -91 2175 -91 
Q 1278 -91 773 396 
Q 269 884 269 1753 
Q 269 2309 461 2846 
Q 653 3384 1013 3828 
Q 1394 4300 1883 4525 
Q 2372 4750 3022 4750 
Q 3422 4750 3780 4639 
Q 4138 4528 4447 4306 
z
" transform="scale(0.015625)"/>
       <path id="DejaVuSans-Oblique-44" d="M 1081 4666 
L 2438 4666 
Q 3519 4666 4070 4208 
Q 4622 3750 4622 2847 
Q 4622 2250 4412 1698 
Q 4203 1147 3834 769 
Q 3463 381 2891 190 
Q 2319 0 1538 0 
L 172 0 
L 1081 4666 
z
M 1613 4147 
L 909 519 
L 1734 519 
Q 2794 519 3375 1128 
Q 3956 1738 3956 2847 
Q 3956 3519 3581 3833 
Q 3206 4147 2406 4147 
L 1613 4147 
z
" transform="scale(0.015625)"/>
       <path id="DejaVuSans-20" transform="scale(0.015625)"/>
       <path id="DejaVuSans-2f" d="M 1625 4666 
L 2156 4666 
L 531 -594 
L 0 -594 
L 1625 4666 
z
" transform="scale(0.015625)"/>
      </defs>
      <use xlink:href="#DejaVuSans-64" transform="translate(0 0.015625)"/>
      <use xlink:href="#DejaVuSans-Oblique-43" transform="translate(63.476562 0.015625)"/>
      <use xlink:href="#DejaVuSans-Oblique-44" transform="translate(133.300781 -16.390625) scale(0.7)"/>
      <use xlink:href="#DejaVuSans-20" transform="translate(189.936523 0.015625)"/>
      <use xlink:href="#DejaVuSans-2f" transform="translate(221.723633 0.015625)"/>
      <use xlink:href="#DejaVuSans-20" transform="translate(255.415039 0.015625)"/>
      <use xlink:href="#DejaVuSans-64" transform="translate(287.202148 0.015625)"/>
      <use xlink:href="#DejaVuSans-Oblique-3b1" transform="translate(350.678711 0.015625)"/>
     </g>
    </g>
   </g>
   <g id="line2d_25">
    <path d="M 88.18242 152.471306 
L 90.280283 151.221892 
L 92.378146 149.970301 
L 94.476008 148.716533 
L 96.573871 147.460588 
L 98.671734 146.202467 
L 100.769597 144.942168 
L 102.867459 143.679693 
L 104.965322 142.415042 
L 107.063185 141.148214 
L 109.161047 139.879209 
L 111.25891 138.608027 
L 113.356773 137.334668 
L 115.454635 136.059133 
L 117.552498 134.781421 
L 119.650361 133.501533 
L 121.748223 132.219467 
L 123.846086 130.935225 
L 125.943949 129.648806 
L 128.041812 128.360211 
L 130.139674 127.069439 
L 132.237537 125.77649 
L 134.3354 124.481364 
L 136.433262 123.184062 
L 138.531125 121.884583 
L 140.628988 120.582927 
L 142.72685 119.279094 
L 144.824713 117.973085 
L 146.922576 116.664899 
L 149.020438 115.354536 
L 151.118301 114.041997 
L 153.216164 112.727281 
L 155.314027 111.410388 
L 157.411889 110.091318 
L 159.509752 108.770072 
L 161.607615 107.446649 
L 163.705477 106.121049 
L 165.80334 104.793273 
L 167.901203 103.46332 
L 169.999065 102.13119 
L 172.096928 100.796883 
L 174.194791 99.4604 
L 176.292654 98.12174 
L 178.390516 96.780903 
L 180.488379 95.43789 
L 182.586242 94.092699 
L 184.684104 92.745333 
L 186.781967 91.395789 
L 188.87983 90.044069 
L 190.977692 88.690171 
L 193.075555 87.334098 
L 195.173418 85.975847 
L 197.27128 84.61542 
L 199.369143 83.252816 
L 201.467006 81.888035 
L 203.564869 80.521078 
L 205.662731 79.151944 
L 207.760594 77.780633 
L 209.858457 76.407145 
L 211.956319 75.031481 
L 214.054182 73.65364 
L 216.152045 72.273622 
L 218.249907 70.891428 
L 220.34777 69.507057 
L 222.445633 68.120509 
L 224.543495 66.731784 
L 226.641358 65.340883 
L 228.739221 63.947805 
L 230.837084 62.55255 
L 232.934946 61.155119 
L 235.032809 59.755511 
L 237.130672 58.353726 
L 239.228534 56.949764 
L 241.326397 55.543626 
L 243.42426 54.135311 
L 245.522122 52.724819 
L 247.619985 51.31215 
L 249.717848 49.897305 
L 251.815711 48.480283 
L 253.913573 47.061084 
L 256.011436 45.639709 
L 258.109299 44.216157 
L 260.207161 42.790428 
L 262.305024 41.362523 
L 264.402887 39.93244 
L 266.500749 38.500181 
L 268.598612 37.065746 
L 270.696475 35.629133 
L 272.794337 34.190344 
L 274.8922 32.749378 
L 276.990063 31.306236 
L 279.087926 29.860916 
L 281.185788 28.41342 
L 283.283651 26.963748 
L 285.381514 25.511898 
L 287.479376 24.057872 
L 289.577239 22.601669 
L 291.675102 21.143289 
L 293.772964 19.682733 
L 295.870827 18.22 
" clip-path="url(#p719925fe67)" style="fill: none; stroke: #000080; stroke-width: 1.5; stroke-linecap: square"/>
   </g>
   <g id="line2d_26">
    <path d="M 88.18242 158.459288 
L 90.280283 157.179048 
L 92.378146 155.896632 
L 94.476008 154.612039 
L 96.573871 153.325269 
L 98.671734 152.036322 
L 100.769597 150.745199 
L 102.867459 149.451899 
L 104.965322 148.156422 
L 107.063185 146.858768 
L 109.161047 145.558938 
L 111.25891 144.256931 
L 113.356773 142.952748 
L 115.454635 141.646387 
L 117.552498 140.33785 
L 119.650361 139.027136 
L 121.748223 137.714246 
L 123.846086 136.399178 
L 125.943949 135.081934 
L 128.041812 133.762514 
L 130.139674 132.440916 
L 132.237537 131.117142 
L 134.3354 129.791191 
L 136.433262 128.463064 
L 138.531125 127.132759 
L 140.628988 125.800278 
L 142.72685 124.465621 
L 144.824713 123.128786 
L 146.922576 121.789775 
L 149.020438 120.448587 
L 151.118301 119.105223 
L 153.216164 117.759681 
L 155.314027 116.411963 
L 157.411889 115.062068 
L 159.509752 113.709997 
L 161.607615 112.355749 
L 163.705477 110.999324 
L 165.80334 109.640722 
L 167.901203 108.279944 
L 169.999065 106.916989 
L 172.096928 105.551857 
L 174.194791 104.184548 
L 176.292654 102.815063 
L 178.390516 101.443401 
L 180.488379 100.069562 
L 182.586242 98.693547 
L 184.684104 97.315355 
L 186.781967 95.934986 
L 188.87983 94.552441 
L 190.977692 93.167718 
L 193.075555 91.780819 
L 195.173418 90.391744 
L 197.27128 89.000491 
L 199.369143 87.607062 
L 201.467006 86.211456 
L 203.564869 84.813673 
L 205.662731 83.413714 
L 207.760594 82.011578 
L 209.858457 80.607265 
L 211.956319 79.200776 
L 214.054182 77.79211 
L 216.152045 76.381267 
L 218.249907 74.968247 
L 220.34777 73.553051 
L 222.445633 72.135678 
L 224.543495 70.716128 
L 226.641358 69.294401 
L 228.739221 67.870498 
L 230.837084 66.444418 
L 232.934946 65.016162 
L 235.032809 63.585728 
L 237.130672 62.153118 
L 239.228534 60.718331 
L 241.326397 59.281368 
L 243.42426 57.842227 
L 245.522122 56.40091 
L 247.619985 54.957417 
L 249.717848 53.511746 
L 251.815711 52.063899 
L 253.913573 50.613875 
L 256.011436 49.161675 
L 258.109299 47.707297 
L 260.207161 46.250743 
L 262.305024 44.792013 
L 264.402887 43.331105 
L 266.500749 41.868021 
L 268.598612 40.40276 
L 270.696475 38.935322 
L 272.794337 37.465708 
L 274.8922 35.993917 
L 276.990063 34.519949 
L 279.087926 33.043805 
L 281.185788 31.565484 
L 283.283651 30.084986 
L 285.381514 28.602311 
L 287.479376 27.11746 
L 289.577239 25.630431 
L 291.675102 24.141227 
L 293.772964 22.649845 
L 295.870827 21.156287 
" clip-path="url(#p719925fe67)" style="fill: none; stroke: #0080ff; stroke-width: 1.5; stroke-linecap: square"/>
   </g>
   <g id="line2d_27">
    <path d="M 88.18242 162.813397 
L 90.280283 161.525878 
L 92.378146 160.236181 
L 94.476008 158.944308 
L 96.573871 157.650258 
L 98.671734 156.354031 
L 100.769597 155.055628 
L 102.867459 153.755048 
L 104.965322 152.452291 
L 107.063185 151.147357 
L 109.161047 149.840247 
L 111.25891 148.53096 
L 113.356773 147.219496 
L 115.454635 145.905856 
L 117.552498 144.590039 
L 119.650361 143.272045 
L 121.748223 141.951874 
L 123.846086 140.629527 
L 125.943949 139.305003 
L 128.041812 137.978302 
L 130.139674 136.649425 
L 132.237537 135.318371 
L 134.3354 133.98514 
L 136.433262 132.649732 
L 138.531125 131.312148 
L 140.628988 129.972387 
L 142.72685 128.630449 
L 144.824713 127.286334 
L 146.922576 125.940043 
L 149.020438 124.591575 
L 151.118301 123.24093 
L 153.216164 121.888109 
L 155.314027 120.533111 
L 157.411889 119.175936 
L 159.509752 117.816585 
L 161.607615 116.455056 
L 163.705477 115.091351 
L 165.80334 113.72547 
L 167.901203 112.357411 
L 169.999065 110.987176 
L 172.096928 109.614764 
L 174.194791 108.240176 
L 176.292654 106.86341 
L 178.390516 105.484468 
L 180.488379 104.10335 
L 182.586242 102.720054 
L 184.684104 101.334582 
L 186.781967 99.946933 
L 188.87983 98.557108 
L 190.977692 97.165105 
L 193.075555 95.770926 
L 195.173418 94.37457 
L 197.27128 92.976038 
L 199.369143 91.575329 
L 201.467006 90.172443 
L 203.564869 88.76738 
L 205.662731 87.360141 
L 207.760594 85.950725 
L 209.858457 84.539132 
L 211.956319 83.125362 
L 214.054182 81.709416 
L 216.152045 80.291293 
L 218.249907 78.870993 
L 220.34777 77.448517 
L 222.445633 76.023864 
L 224.543495 74.597034 
L 226.641358 73.168027 
L 228.739221 71.736844 
L 230.837084 70.303484 
L 232.934946 68.867947 
L 235.032809 67.430234 
L 237.130672 65.990344 
L 239.228534 64.548277 
L 241.326397 63.104033 
L 243.42426 61.657613 
L 245.522122 60.209016 
L 247.619985 58.758242 
L 249.717848 57.305292 
L 251.815711 55.850165 
L 253.913573 54.392861 
L 256.011436 52.93338 
L 258.109299 51.471723 
L 260.207161 50.007889 
L 262.305024 48.541878 
L 264.402887 47.07369 
L 266.500749 45.603326 
L 268.598612 44.130785 
L 270.696475 42.656067 
L 272.794337 41.179173 
L 274.8922 39.700102 
L 276.990063 38.218854 
L 279.087926 36.735429 
L 281.185788 35.249828 
L 283.283651 33.76205 
L 285.381514 32.272096 
L 287.479376 30.779964 
L 289.577239 29.285656 
L 291.675102 27.789171 
L 293.772964 26.290509 
L 295.870827 24.789671 
" clip-path="url(#p719925fe67)" style="fill: none; stroke: #7dff7a; stroke-width: 1.5; stroke-linecap: square"/>
   </g>
   <g id="line2d_28">
    <path d="M 88.18242 165.533635 
L 90.280283 164.26238 
L 92.378146 162.988949 
L 94.476008 161.71334 
L 96.573871 160.435556 
L 98.671734 159.155594 
L 100.769597 157.873456 
L 102.867459 156.589141 
L 104.965322 155.302649 
L 107.063185 154.013981 
L 109.161047 152.723135 
L 111.25891 151.430113 
L 113.356773 150.134915 
L 115.454635 148.837539 
L 117.552498 147.537987 
L 119.650361 146.236259 
L 121.748223 144.932353 
L 123.846086 143.626271 
L 125.943949 142.318012 
L 128.041812 141.007576 
L 130.139674 139.694964 
L 132.237537 138.380175 
L 134.3354 137.063209 
L 136.433262 135.744067 
L 138.531125 134.422747 
L 140.628988 133.099251 
L 142.72685 131.773579 
L 144.824713 130.445729 
L 146.922576 129.115703 
L 149.020438 127.7835 
L 151.118301 126.449121 
L 153.216164 125.112564 
L 155.314027 123.773831 
L 157.411889 122.432922 
L 159.509752 121.089835 
L 161.607615 119.744572 
L 163.705477 118.397132 
L 165.80334 117.047516 
L 167.901203 115.695722 
L 169.999065 114.341752 
L 172.096928 112.985605 
L 174.194791 111.627282 
L 176.292654 110.266782 
L 178.390516 108.904105 
L 180.488379 107.539251 
L 182.586242 106.172221 
L 184.684104 104.803014 
L 186.781967 103.43163 
L 188.87983 102.058069 
L 190.977692 100.682332 
L 193.075555 99.304418 
L 195.173418 97.924328 
L 197.27128 96.54206 
L 199.369143 95.157616 
L 201.467006 93.770995 
L 203.564869 92.382198 
L 205.662731 90.991223 
L 207.760594 89.598072 
L 209.858457 88.202745 
L 211.956319 86.80524 
L 214.054182 85.405559 
L 216.152045 84.003701 
L 218.249907 82.599667 
L 220.34777 81.193455 
L 222.445633 79.785067 
L 224.543495 78.374503 
L 226.641358 76.961761 
L 228.739221 75.546843 
L 230.837084 74.129748 
L 232.934946 72.710476 
L 235.032809 71.289028 
L 237.130672 69.865403 
L 239.228534 68.439601 
L 241.326397 67.011623 
L 243.42426 65.581467 
L 245.522122 64.149135 
L 247.619985 62.714627 
L 249.717848 61.277941 
L 251.815711 59.839079 
L 253.913573 58.39804 
L 256.011436 56.954825 
L 258.109299 55.509433 
L 260.207161 54.061864 
L 262.305024 52.612118 
L 264.402887 51.160196 
L 266.500749 49.706096 
L 268.598612 48.249821 
L 270.696475 46.791368 
L 272.794337 45.330739 
L 274.8922 43.867933 
L 276.990063 42.40295 
L 279.087926 40.93579 
L 281.185788 39.466454 
L 283.283651 37.994941 
L 285.381514 36.521252 
L 287.479376 35.045385 
L 289.577239 33.567342 
L 291.675102 32.087123 
L 293.772964 30.604726 
L 295.870827 29.120153 
" clip-path="url(#p719925fe67)" style="fill: none; stroke: #ff9400; stroke-width: 1.5; stroke-linecap: square"/>
   </g>
   <g id="line2d_29">
    <path d="M 88.18242 166.62 
L 90.280283 165.388556 
L 92.378146 164.154934 
L 94.476008 162.919136 
L 96.573871 161.681162 
L 98.671734 160.44101 
L 100.769597 159.198682 
L 102.867459 157.954178 
L 104.965322 156.707496 
L 107.063185 155.458638 
L 109.161047 154.207603 
L 111.25891 152.954391 
L 113.356773 151.699003 
L 115.454635 150.441438 
L 117.552498 149.181696 
L 119.650361 147.919778 
L 121.748223 146.655682 
L 123.846086 145.38941 
L 125.943949 144.120962 
L 128.041812 142.850336 
L 130.139674 141.577534 
L 132.237537 140.302555 
L 134.3354 139.0254 
L 136.433262 137.746067 
L 138.531125 136.464558 
L 140.628988 135.180873 
L 142.72685 133.89501 
L 144.824713 132.606971 
L 146.922576 131.316755 
L 149.020438 130.024362 
L 151.118301 128.729793 
L 153.216164 127.433047 
L 155.314027 126.134124 
L 157.411889 124.833025 
L 159.509752 123.529749 
L 161.607615 122.224296 
L 163.705477 120.916666 
L 165.80334 119.60686 
L 167.901203 118.294877 
L 169.999065 116.980717 
L 172.096928 115.66438 
L 174.194791 114.345867 
L 176.292654 113.025177 
L 178.390516 111.70231 
L 180.488379 110.377267 
L 182.586242 109.050047 
L 184.684104 107.72065 
L 186.781967 106.389077 
L 188.87983 105.055326 
L 190.977692 103.719399 
L 193.075555 102.381296 
L 195.173418 101.041015 
L 197.27128 99.698558 
L 199.369143 98.353924 
L 201.467006 97.007113 
L 203.564869 95.658126 
L 205.662731 94.306962 
L 207.760594 92.953621 
L 209.858457 91.598104 
L 211.956319 90.24041 
L 214.054182 88.880539 
L 216.152045 87.518491 
L 218.249907 86.154267 
L 220.34777 84.787866 
L 222.445633 83.419288 
L 224.543495 82.048533 
L 226.641358 80.675602 
L 228.739221 79.300494 
L 230.837084 77.92321 
L 232.934946 76.543748 
L 235.032809 75.16211 
L 237.130672 73.778295 
L 239.228534 72.392304 
L 241.326397 71.004136 
L 243.42426 69.613791 
L 245.522122 68.221269 
L 247.619985 66.82657 
L 249.717848 65.429695 
L 251.815711 64.030643 
L 253.913573 62.629415 
L 256.011436 61.22601 
L 258.109299 59.820428 
L 260.207161 58.412669 
L 262.305024 57.002733 
L 264.402887 55.590621 
L 266.500749 54.176332 
L 268.598612 52.759867 
L 270.696475 51.341224 
L 272.794337 49.920405 
L 274.8922 48.497409 
L 276.990063 47.072237 
L 279.087926 45.644888 
L 281.185788 44.215362 
L 283.283651 42.783659 
L 285.381514 41.34978 
L 287.479376 39.913724 
L 289.577239 38.475491 
L 291.675102 37.035081 
L 293.772964 35.592495 
L 295.870827 34.147732 
" clip-path="url(#p719925fe67)" style="fill: none; stroke: #800000; stroke-width: 1.5; stroke-linecap: square"/>
   </g>
   <g id="patch_3">
    <path d="M 77.798 174.04 
L 77.798 10.8 
" style="fill: none; stroke: #000000; stroke-width: 0.8; stroke-linejoin: miter; stroke-linecap: square"/>
   </g>
   <g id="patch_4">
    <path d="M 306.255247 174.04 
L 306.255247 10.8 
" style="fill: none; stroke: #000000; stroke-width: 0.8; stroke-linejoin: miter; stroke-linecap: square"/>
   </g>
   <g id="patch_5">
    <path d="M 77.798 174.04 
L 306.255247 174.04 
" style="fill: none; stroke: #000000; stroke-width: 0.8; stroke-linejoin: miter; stroke-linecap: square"/>
   </g>
   <g id="patch_6">
    <path d="M 77.798 10.8 
L 306.255247 10.8 
" style="fill: none; stroke: #000000; stroke-width: 0.8; stroke-linejoin: miter; stroke-linecap: square"/>
   </g>
   <g id="legend_1">
    <g id="patch_7">
     <path d="M 315.255247 162.878 
L 420.455247 162.878 
Q 422.455247 162.878 422.455247 160.878 
L 422.455247 88.385812 
Q 422.455247 86.385812 420.455247 86.385812 
L 315.255247 86.385812 
Q 313.255247 86.385812 313.255247 88.385812 
L 313.255247 160.878 
Q 313.255247 162.878 315.255247 162.878 
z
" style="fill: #4d4d4d; opacity: 0.5; stroke: #4d4d4d; stroke-linejoin: miter"/>
    </g>
    <g id="patch_8">
     <path d="M 313.255247 160.878 
L 418.455247 160.878 
Q 420.455247 160.878 420.455247 158.878 
L 420.455247 86.385812 
Q 420.455247 84.385812 418.455247 84.385812 
L 313.255247 84.385812 
Q 311.255247 84.385812 311.255247 86.385812 
L 311.255247 158.878 
Q 311.255247 160.878 313.255247 160.878 
z
" style="fill: #ffffff; stroke: #cccccc; stroke-linejoin: miter"/>
    </g>
    <g id="line2d_30">
     <path d="M 315.255247 92.48425 
L 325.255247 92.48425 
L 335.255247 92.48425 
" style="fill: none; stroke: #000080; stroke-width: 1.5; stroke-linecap: square"/>
    </g>
    <g id="text_15">
     <!-- $\delta_e = 0$, $J = 1.60$ -->
     <g transform="translate(343.255247 95.98425) scale(0.1 -0.1)">
      <defs>
       <path id="DejaVuSans-Oblique-3b4" d="M 3472 4053 
Q 3197 4272 2450 4272 
Q 1659 4272 1588 3906 
Q 1531 3619 2328 3469 
Q 2953 3353 3253 3003 
Q 3616 2581 3447 1716 
Q 3284 888 2763 400 
Q 2238 -91 1488 -91 
Q 741 -91 406 400 
Q 72 888 241 1747 
Q 363 2384 891 2900 
Q 1097 3100 1353 3213 
Q 913 3459 1000 3900 
Q 1166 4750 2544 4750 
Q 3234 4750 3566 4531 
L 3472 4053 
z
M 1753 3056 
Q 1525 2966 1306 2738 
Q 969 2384 847 1747 
Q 722 1113 919 756 
Q 1119 397 1584 397 
Q 2044 397 2381 759 
Q 2722 1122 2838 1716 
Q 2956 2338 2731 2638 
Q 2491 2959 2103 2994 
Q 1906 3013 1753 3056 
z
" transform="scale(0.015625)"/>
       <path id="DejaVuSans-Oblique-65" d="M 3078 2063 
Q 3088 2113 3092 2166 
Q 3097 2219 3097 2272 
Q 3097 2653 2873 2875 
Q 2650 3097 2266 3097 
Q 1838 3097 1509 2826 
Q 1181 2556 1013 2059 
L 3078 2063 
z
M 3578 1613 
L 903 1613 
Q 884 1494 878 1425 
Q 872 1356 872 1306 
Q 872 872 1139 634 
Q 1406 397 1894 397 
Q 2269 397 2603 481 
Q 2938 566 3225 728 
L 3116 159 
Q 2806 34 2476 -28 
Q 2147 -91 1806 -91 
Q 1078 -91 686 257 
Q 294 606 294 1247 
Q 294 1794 489 2264 
Q 684 2734 1063 3103 
Q 1306 3334 1642 3459 
Q 1978 3584 2356 3584 
Q 2950 3584 3301 3228 
Q 3653 2872 3653 2272 
Q 3653 2128 3634 1964 
Q 3616 1800 3578 1613 
z
" transform="scale(0.015625)"/>
       <path id="DejaVuSans-3d" d="M 678 2906 
L 4684 2906 
L 4684 2381 
L 678 2381 
L 678 2906 
z
M 678 1631 
L 4684 1631 
L 4684 1100 
L 678 1100 
L 678 1631 
z
" transform="scale(0.015625)"/>
       <path id="DejaVuSans-2c" d="M 750 794 
L 1409 794 
L 1409 256 
L 897 -744 
L 494 -744 
L 750 256 
L 750 794 
z
" transform="scale(0.015625)"/>
       <path id="DejaVuSans-Oblique-4a" d="M 1069 4666 
L 1703 4666 
L 856 325 
Q 691 -522 298 -901 
Q -94 -1281 -800 -1281 
L -1050 -1281 
L -947 -750 
L -750 -750 
Q -328 -750 -109 -509 
Q 109 -269 225 325 
L 1069 4666 
z
" transform="scale(0.015625)"/>
      </defs>
      <use xlink:href="#DejaVuSans-Oblique-3b4" transform="translate(0 0.78125)"/>
      <use xlink:href="#DejaVuSans-Oblique-65" transform="translate(61.181641 -15.625) scale(0.7)"/>
      <use xlink:href="#DejaVuSans-3d" transform="translate(126.464844 0.78125)"/>
      <use xlink:href="#DejaVuSans-30" transform="translate(229.736328 0.78125)"/>
      <use xlink:href="#DejaVuSans-2c" transform="translate(293.359375 0.78125)"/>
      <use xlink:href="#DejaVuSans-20" transform="translate(325.146484 0.78125)"/>
      <use xlink:href="#DejaVuSans-Oblique-4a" transform="translate(356.933594 0.78125)"/>
      <use xlink:href="#DejaVuSans-3d" transform="translate(405.908203 0.78125)"/>
      <use xlink:href="#DejaVuSans-31" transform="translate(509.179688 0.78125)"/>
      <use xlink:href="#DejaVuSans-2e" transform="translate(572.802734 0.78125)"/>
      <use xlink:href="#DejaVuSans-36" transform="translate(604.589844 0.78125)"/>
      <use xlink:href="#DejaVuSans-30" transform="translate(668.212891 0.78125)"/>
     </g>
    </g>
    <g id="line2d_31">
     <path d="M 315.255247 107.182688 
L 325.255247 107.182688 
L 335.255247 107.182688 
" style="fill: none; stroke: #0080ff; stroke-width: 1.5; stroke-linecap: square"/>
    </g>
    <g id="text_16">
     <!-- $\delta_e = 0$, $J = 1.80$ -->
     <g transform="translate(343.255247 110.682688) scale(0.1 -0.1)">
      <defs>
       <path id="DejaVuSans-38" d="M 2034 2216 
Q 1584 2216 1326 1975 
Q 1069 1734 1069 1313 
Q 1069 891 1326 650 
Q 1584 409 2034 409 
Q 2484 409 2743 651 
Q 3003 894 3003 1313 
Q 3003 1734 2745 1975 
Q 2488 2216 2034 2216 
z
M 1403 2484 
Q 997 2584 770 2862 
Q 544 3141 544 3541 
Q 544 4100 942 4425 
Q 1341 4750 2034 4750 
Q 2731 4750 3128 4425 
Q 3525 4100 3525 3541 
Q 3525 3141 3298 2862 
Q 3072 2584 2669 2484 
Q 3125 2378 3379 2068 
Q 3634 1759 3634 1313 
Q 3634 634 3220 271 
Q 2806 -91 2034 -91 
Q 1263 -91 848 271 
Q 434 634 434 1313 
Q 434 1759 690 2068 
Q 947 2378 1403 2484 
z
M 1172 3481 
Q 1172 3119 1398 2916 
Q 1625 2713 2034 2713 
Q 2441 2713 2670 2916 
Q 2900 3119 2900 3481 
Q 2900 3844 2670 4047 
Q 2441 4250 2034 4250 
Q 1625 4250 1398 4047 
Q 1172 3844 1172 3481 
z
" transform="scale(0.015625)"/>
      </defs>
      <use xlink:href="#DejaVuSans-Oblique-3b4" transform="translate(0 0.78125)"/>
      <use xlink:href="#DejaVuSans-Oblique-65" transform="translate(61.181641 -15.625) scale(0.7)"/>
      <use xlink:href="#DejaVuSans-3d" transform="translate(126.464844 0.78125)"/>
      <use xlink:href="#DejaVuSans-30" transform="translate(229.736328 0.78125)"/>
      <use xlink:href="#DejaVuSans-2c" transform="translate(293.359375 0.78125)"/>
      <use xlink:href="#DejaVuSans-20" transform="translate(325.146484 0.78125)"/>
      <use xlink:href="#DejaVuSans-Oblique-4a" transform="translate(356.933594 0.78125)"/>
      <use xlink:href="#DejaVuSans-3d" transform="translate(405.908203 0.78125)"/>
      <use xlink:href="#DejaVuSans-31" transform="translate(509.179688 0.78125)"/>
      <use xlink:href="#DejaVuSans-2e" transform="translate(572.802734 0.78125)"/>
      <use xlink:href="#DejaVuSans-38" transform="translate(601.964844 0.78125)"/>
      <use xlink:href="#DejaVuSans-30" transform="translate(665.587891 0.78125)"/>
     </g>
    </g>
    <g id="line2d_32">
     <path d="M 315.255247 121.881125 
L 325.255247 121.881125 
L 335.255247 121.881125 
" style="fill: none; stroke: #7dff7a; stroke-width: 1.5; stroke-linecap: square"/>
    </g>
    <g id="text_17">
     <!-- $\delta_e = 0$, $J = 2.00$ -->
     <g transform="translate(343.255247 125.381125) scale(0.1 -0.1)">
      <use xlink:href="#DejaVuSans-Oblique-3b4" transform="translate(0 0.78125)"/>
      <use xlink:href="#DejaVuSans-Oblique-65" transform="translate(61.181641 -15.625) scale(0.7)"/>
      <use xlink:href="#DejaVuSans-3d" transform="translate(126.464844 0.78125)"/>
      <use xlink:href="#DejaVuSans-30" transform="translate(229.736328 0.78125)"/>
      <use xlink:href="#DejaVuSans-2c" transform="translate(293.359375 0.78125)"/>
      <use xlink:href="#DejaVuSans-20" transform="translate(325.146484 0.78125)"/>
      <use xlink:href="#DejaVuSans-Oblique-4a" transform="translate(356.933594 0.78125)"/>
      <use xlink:href="#DejaVuSans-3d" transform="translate(405.908203 0.78125)"/>
      <use xlink:href="#DejaVuSans-32" transform="translate(509.179688 0.78125)"/>
      <use xlink:href="#DejaVuSans-2e" transform="translate(572.802734 0.78125)"/>
      <use xlink:href="#DejaVuSans-30" transform="translate(604.589844 0.78125)"/>
      <use xlink:href="#DejaVuSans-30" transform="translate(668.212891 0.78125)"/>
     </g>
    </g>
    <g id="line2d_33">
     <path d="M 315.255247 136.579563 
L 325.255247 136.579563 
L 335.255247 136.579563 
" style="fill: none; stroke: #ff9400; stroke-width: 1.5; stroke-linecap: square"/>
    </g>
    <g id="text_18">
     <!-- $\delta_e = 0$, $J = 2.20$ -->
     <g transform="translate(343.255247 140.079563) scale(0.1 -0.1)">
      <use xlink:href="#DejaVuSans-Oblique-3b4" transform="translate(0 0.78125)"/>
      <use xlink:href="#DejaVuSans-Oblique-65" transform="translate(61.181641 -15.625) scale(0.7)"/>
      <use xlink:href="#DejaVuSans-3d" transform="translate(126.464844 0.78125)"/>
      <use xlink:href="#DejaVuSans-30" transform="translate(229.736328 0.78125)"/>
      <use xlink:href="#DejaVuSans-2c" transform="translate(293.359375 0.78125)"/>
      <use xlink:href="#DejaVuSans-20" transform="translate(325.146484 0.78125)"/>
      <use xlink:href="#DejaVuSans-Oblique-4a" transform="translate(356.933594 0.78125)"/>
      <use xlink:href="#DejaVuSans-3d" transform="translate(405.908203 0.78125)"/>
      <use xlink:href="#DejaVuSans-32" transform="translate(509.179688 0.78125)"/>
      <use xlink:href="#DejaVuSans-2e" transform="translate(572.802734 0.78125)"/>
      <use xlink:href="#DejaVuSans-32" transform="translate(599.089844 0.78125)"/>
      <use xlink:href="#DejaVuSans-30" transform="translate(662.712891 0.78125)"/>
     </g>
    </g>
    <g id="line2d_34">
     <path d="M 315.255247 151.278 
L 325.255247 151.278 
L 335.255247 151.278 
" style="fill: none; stroke: #800000; stroke-width: 1.5; stroke-linecap: square"/>
    </g>
    <g id="text_19">
     <!-- $\delta_e = 0$, $J = 2.40$ -->
     <g transform="translate(343.255247 154.778) scale(0.1 -0.1)">
      <use xlink:href="#DejaVuSans-Oblique-3b4" transform="translate(0 0.78125)"/>
      <use xlink:href="#DejaVuSans-Oblique-65" transform="translate(61.181641 -15.625) scale(0.7)"/>
      <use xlink:href="#DejaVuSans-3d" transform="translate(126.464844 0.78125)"/>
      <use xlink:href="#DejaVuSans-30" transform="translate(229.736328 0.78125)"/>
      <use xlink:href="#DejaVuSans-2c" transform="translate(293.359375 0.78125)"/>
      <use xlink:href="#DejaVuSans-20" transform="translate(325.146484 0.78125)"/>
      <use xlink:href="#DejaVuSans-Oblique-4a" transform="translate(356.933594 0.78125)"/>
      <use xlink:href="#DejaVuSans-3d" transform="translate(405.908203 0.78125)"/>
      <use xlink:href="#DejaVuSans-32" transform="translate(509.179688 0.78125)"/>
      <use xlink:href="#DejaVuSans-2e" transform="translate(572.802734 0.78125)"/>
      <use xlink:href="#DejaVuSans-34" transform="translate(604.589844 0.78125)"/>
      <use xlink:href="#DejaVuSans-30" transform="translate(668.212891 0.78125)"/>
     </g>
    </g>
   </g>
  </g>
 </g>
 <defs>
  <clipPath id="p719925fe67">
   <rect x="77.798" y="10.8" width="228.457247" height="163.24"/>
  </clipPath>
 </defs>
</svg>
