<?xml version="1.0" encoding="utf-8" standalone="no"?>
<!DOCTYPE svg PUBLIC "-//W3C//DTD SVG 1.1//EN"
  "http://www.w3.org/Graphics/SVG/1.1/DTD/svg11.dtd">
<svg xmlns:xlink="http://www.w3.org/1999/xlink" width="432pt" height="216pt" viewBox="0 0 432 216" xmlns="http://www.w3.org/2000/svg" version="1.1">
 <metadata>
  <rdf:RDF xmlns:dc="http://purl.org/dc/elements/1.1/" xmlns:cc="http://creativecommons.org/ns#" xmlns:rdf="http://www.w3.org/1999/02/22-rdf-syntax-ns#">
   <cc:Work>
    <dc:type rdf:resource="http://purl.org/dc/dcmitype/StillImage"/>
    <dc:date>2025-03-31T00:27:36.849300</dc:date>
    <dc:format>image/svg+xml</dc:format>
    <dc:creator>
     <cc:Agent>
      <dc:title>Matplotlib v3.9.2, https://matplotlib.org/</dc:title>
     </cc:Agent>
    </dc:creator>
   </cc:Work>
  </rdf:RDF>
 </metadata>
 <defs>
  <style type="text/css">*{stroke-linejoin: round; stroke-linecap: butt}</style>
 </defs>
 <g id="figure_1">
  <g id="patch_1">
   <path d="M 0 216 
L 432 216 
L 432 0 
L 0 0 
z
" style="fill: #ffffff"/>
  </g>
  <g id="axes_1">
   <g id="patch_2">
    <path d="M 71.408 174.04 
L 306.255247 174.04 
L 306.255247 10.8 
L 71.408 10.8 
z
" style="fill: #ffffff"/>
   </g>
   <g id="matplotlib.axis_1">
    <g id="xtick_1">
     <g id="line2d_1">
      <path d="M 82.082875 174.04 
L 82.082875 10.8 
" clip-path="url(#pa3fc017691)" style="fill: none; stroke: #b0b0b0; stroke-width: 0.8; stroke-linecap: square"/>
     </g>
     <g id="line2d_2">
      <defs>
       <path id="m7bb70e3fb0" d="M 0 0 
L 0 3.5 
" style="stroke: #000000; stroke-width: 0.8"/>
      </defs>
      <g>
       <use xlink:href="#m7bb70e3fb0" x="82.082875" y="174.04" style="stroke: #000000; stroke-width: 0.8"/>
      </g>
     </g>
     <g id="text_1">
      <!-- −4 -->
      <g transform="translate(74.711781 188.638438) scale(0.1 -0.1)">
       <defs>
        <path id="DejaVuSans-2212" d="M 678 2272 
L 4684 2272 
L 4684 1741 
L 678 1741 
L 678 2272 
z
" transform="scale(0.015625)"/>
        <path id="DejaVuSans-34" d="M 2419 4116 
L 825 1625 
L 2419 1625 
L 2419 4116 
z
M 2253 4666 
L 3047 4666 
L 3047 1625 
L 3713 1625 
L 3713 1100 
L 3047 1100 
L 3047 0 
L 2419 0 
L 2419 1100 
L 313 1100 
L 313 1709 
L 2253 4666 
z
" transform="scale(0.015625)"/>
       </defs>
       <use xlink:href="#DejaVuSans-2212"/>
       <use xlink:href="#DejaVuSans-34" x="83.789062"/>
      </g>
     </g>
    </g>
    <g id="xtick_2">
     <g id="line2d_3">
      <path d="M 120.900602 174.04 
L 120.900602 10.8 
" clip-path="url(#pa3fc017691)" style="fill: none; stroke: #b0b0b0; stroke-width: 0.8; stroke-linecap: square"/>
     </g>
     <g id="line2d_4">
      <g>
       <use xlink:href="#m7bb70e3fb0" x="120.900602" y="174.04" style="stroke: #000000; stroke-width: 0.8"/>
      </g>
     </g>
     <g id="text_2">
      <!-- −2 -->
      <g transform="translate(113.529508 188.638438) scale(0.1 -0.1)">
       <defs>
        <path id="DejaVuSans-32" d="M 1228 531 
L 3431 531 
L 3431 0 
L 469 0 
L 469 531 
Q 828 903 1448 1529 
Q 2069 2156 2228 2338 
Q 2531 2678 2651 2914 
Q 2772 3150 2772 3378 
Q 2772 3750 2511 3984 
Q 2250 4219 1831 4219 
Q 1534 4219 1204 4116 
Q 875 4013 500 3803 
L 500 4441 
Q 881 4594 1212 4672 
Q 1544 4750 1819 4750 
Q 2544 4750 2975 4387 
Q 3406 4025 3406 3419 
Q 3406 3131 3298 2873 
Q 3191 2616 2906 2266 
Q 2828 2175 2409 1742 
Q 1991 1309 1228 531 
z
" transform="scale(0.015625)"/>
       </defs>
       <use xlink:href="#DejaVuSans-2212"/>
       <use xlink:href="#DejaVuSans-32" x="83.789062"/>
      </g>
     </g>
    </g>
    <g id="xtick_3">
     <g id="line2d_5">
      <path d="M 159.718329 174.04 
L 159.718329 10.8 
" clip-path="url(#pa3fc017691)" style="fill: none; stroke: #b0b0b0; stroke-width: 0.8; stroke-linecap: square"/>
     </g>
     <g id="line2d_6">
      <g>
       <use xlink:href="#m7bb70e3fb0" x="159.718329" y="174.04" style="stroke: #000000; stroke-width: 0.8"/>
      </g>
     </g>
     <g id="text_3">
      <!-- 0 -->
      <g transform="translate(156.537079 188.638438) scale(0.1 -0.1)">
       <defs>
        <path id="DejaVuSans-30" d="M 2034 4250 
Q 1547 4250 1301 3770 
Q 1056 3291 1056 2328 
Q 1056 1369 1301 889 
Q 1547 409 2034 409 
Q 2525 409 2770 889 
Q 3016 1369 3016 2328 
Q 3016 3291 2770 3770 
Q 2525 4250 2034 4250 
z
M 2034 4750 
Q 2819 4750 3233 4129 
Q 3647 3509 3647 2328 
Q 3647 1150 3233 529 
Q 2819 -91 2034 -91 
Q 1250 -91 836 529 
Q 422 1150 422 2328 
Q 422 3509 836 4129 
Q 1250 4750 2034 4750 
z
" transform="scale(0.015625)"/>
       </defs>
       <use xlink:href="#DejaVuSans-30"/>
      </g>
     </g>
    </g>
    <g id="xtick_4">
     <g id="line2d_7">
      <path d="M 198.536055 174.04 
L 198.536055 10.8 
" clip-path="url(#pa3fc017691)" style="fill: none; stroke: #b0b0b0; stroke-width: 0.8; stroke-linecap: square"/>
     </g>
     <g id="line2d_8">
      <g>
       <use xlink:href="#m7bb70e3fb0" x="198.536055" y="174.04" style="stroke: #000000; stroke-width: 0.8"/>
      </g>
     </g>
     <g id="text_4">
      <!-- 2 -->
      <g transform="translate(195.354805 188.638438) scale(0.1 -0.1)">
       <use xlink:href="#DejaVuSans-32"/>
      </g>
     </g>
    </g>
    <g id="xtick_5">
     <g id="line2d_9">
      <path d="M 237.353782 174.04 
L 237.353782 10.8 
" clip-path="url(#pa3fc017691)" style="fill: none; stroke: #b0b0b0; stroke-width: 0.8; stroke-linecap: square"/>
     </g>
     <g id="line2d_10">
      <g>
       <use xlink:href="#m7bb70e3fb0" x="237.353782" y="174.04" style="stroke: #000000; stroke-width: 0.8"/>
      </g>
     </g>
     <g id="text_5">
      <!-- 4 -->
      <g transform="translate(234.172532 188.638438) scale(0.1 -0.1)">
       <use xlink:href="#DejaVuSans-34"/>
      </g>
     </g>
    </g>
    <g id="xtick_6">
     <g id="line2d_11">
      <path d="M 276.171509 174.04 
L 276.171509 10.8 
" clip-path="url(#pa3fc017691)" style="fill: none; stroke: #b0b0b0; stroke-width: 0.8; stroke-linecap: square"/>
     </g>
     <g id="line2d_12">
      <g>
       <use xlink:href="#m7bb70e3fb0" x="276.171509" y="174.04" style="stroke: #000000; stroke-width: 0.8"/>
      </g>
     </g>
     <g id="text_6">
      <!-- 6 -->
      <g transform="translate(272.990259 188.638438) scale(0.1 -0.1)">
       <defs>
        <path id="DejaVuSans-36" d="M 2113 2584 
Q 1688 2584 1439 2293 
Q 1191 2003 1191 1497 
Q 1191 994 1439 701 
Q 1688 409 2113 409 
Q 2538 409 2786 701 
Q 3034 994 3034 1497 
Q 3034 2003 2786 2293 
Q 2538 2584 2113 2584 
z
M 3366 4563 
L 3366 3988 
Q 3128 4100 2886 4159 
Q 2644 4219 2406 4219 
Q 1781 4219 1451 3797 
Q 1122 3375 1075 2522 
Q 1259 2794 1537 2939 
Q 1816 3084 2150 3084 
Q 2853 3084 3261 2657 
Q 3669 2231 3669 1497 
Q 3669 778 3244 343 
Q 2819 -91 2113 -91 
Q 1303 -91 875 529 
Q 447 1150 447 2328 
Q 447 3434 972 4092 
Q 1497 4750 2381 4750 
Q 2619 4750 2861 4703 
Q 3103 4656 3366 4563 
z
" transform="scale(0.015625)"/>
       </defs>
       <use xlink:href="#DejaVuSans-36"/>
      </g>
     </g>
    </g>
    <g id="text_7">
     <!-- $\alpha$ -->
     <g transform="translate(185.531624 202.316563) scale(0.1 -0.1)">
      <defs>
       <path id="DejaVuSans-Oblique-3b1" d="M 2619 1628 
L 2622 2350 
Q 2625 3088 2069 3091 
Q 1653 3094 1394 2747 
Q 1069 2319 959 1747 
Q 825 1059 994 731 
Q 1169 397 1547 397 
Q 1966 397 2319 1063 
L 2619 1628 
z
M 2166 3578 
Q 3141 3594 3128 2584 
Q 3128 2584 3616 3500 
L 4128 3500 
L 3119 1603 
L 3109 919 
Q 3109 766 3194 638 
Q 3291 488 3391 488 
L 3669 488 
L 3575 0 
L 3228 0 
Q 2934 0 2722 263 
Q 2622 394 2619 669 
Q 2416 334 2066 50 
Q 1900 -81 1453 -78 
Q 722 -72 456 397 
Q 184 884 353 1747 
Q 534 2675 1009 3097 
Q 1544 3569 2166 3578 
z
" transform="scale(0.015625)"/>
      </defs>
      <use xlink:href="#DejaVuSans-Oblique-3b1" transform="translate(0 0.84375)"/>
     </g>
    </g>
   </g>
   <g id="matplotlib.axis_2">
    <g id="ytick_1">
     <g id="line2d_13">
      <path d="M 71.408 172.123846 
L 306.255247 172.123846 
" clip-path="url(#pa3fc017691)" style="fill: none; stroke: #b0b0b0; stroke-width: 0.8; stroke-linecap: square"/>
     </g>
     <g id="line2d_14">
      <defs>
       <path id="m8985d0d4b4" d="M 0 0 
L -3.5 0 
" style="stroke: #000000; stroke-width: 0.8"/>
      </defs>
      <g>
       <use xlink:href="#m8985d0d4b4" x="71.408" y="172.123846" style="stroke: #000000; stroke-width: 0.8"/>
      </g>
     </g>
     <g id="text_8">
      <!-- −0.004 -->
      <g transform="translate(27.400188 175.923065) scale(0.1 -0.1)">
       <defs>
        <path id="DejaVuSans-2e" d="M 684 794 
L 1344 794 
L 1344 0 
L 684 0 
L 684 794 
z
" transform="scale(0.015625)"/>
       </defs>
       <use xlink:href="#DejaVuSans-2212"/>
       <use xlink:href="#DejaVuSans-30" x="83.789062"/>
       <use xlink:href="#DejaVuSans-2e" x="147.412109"/>
       <use xlink:href="#DejaVuSans-30" x="179.199219"/>
       <use xlink:href="#DejaVuSans-30" x="242.822266"/>
       <use xlink:href="#DejaVuSans-34" x="306.445312"/>
      </g>
     </g>
    </g>
    <g id="ytick_2">
     <g id="line2d_15">
      <path d="M 71.408 150.700466 
L 306.255247 150.700466 
" clip-path="url(#pa3fc017691)" style="fill: none; stroke: #b0b0b0; stroke-width: 0.8; stroke-linecap: square"/>
     </g>
     <g id="line2d_16">
      <g>
       <use xlink:href="#m8985d0d4b4" x="71.408" y="150.700466" style="stroke: #000000; stroke-width: 0.8"/>
      </g>
     </g>
     <g id="text_9">
      <!-- −0.002 -->
      <g transform="translate(27.400188 154.499685) scale(0.1 -0.1)">
       <use xlink:href="#DejaVuSans-2212"/>
       <use xlink:href="#DejaVuSans-30" x="83.789062"/>
       <use xlink:href="#DejaVuSans-2e" x="147.412109"/>
       <use xlink:href="#DejaVuSans-30" x="179.199219"/>
       <use xlink:href="#DejaVuSans-30" x="242.822266"/>
       <use xlink:href="#DejaVuSans-32" x="306.445312"/>
      </g>
     </g>
    </g>
    <g id="ytick_3">
     <g id="line2d_17">
      <path d="M 71.408 129.277086 
L 306.255247 129.277086 
" clip-path="url(#pa3fc017691)" style="fill: none; stroke: #b0b0b0; stroke-width: 0.8; stroke-linecap: square"/>
     </g>
     <g id="line2d_18">
      <g>
       <use xlink:href="#m8985d0d4b4" x="71.408" y="129.277086" style="stroke: #000000; stroke-width: 0.8"/>
      </g>
     </g>
     <g id="text_10">
      <!-- 0.000 -->
      <g transform="translate(35.779875 133.076305) scale(0.1 -0.1)">
       <use xlink:href="#DejaVuSans-30"/>
       <use xlink:href="#DejaVuSans-2e" x="63.623047"/>
       <use xlink:href="#DejaVuSans-30" x="95.410156"/>
       <use xlink:href="#DejaVuSans-30" x="159.033203"/>
       <use xlink:href="#DejaVuSans-30" x="222.65625"/>
      </g>
     </g>
    </g>
    <g id="ytick_4">
     <g id="line2d_19">
      <path d="M 71.408 107.853706 
L 306.255247 107.853706 
" clip-path="url(#pa3fc017691)" style="fill: none; stroke: #b0b0b0; stroke-width: 0.8; stroke-linecap: square"/>
     </g>
     <g id="line2d_20">
      <g>
       <use xlink:href="#m8985d0d4b4" x="71.408" y="107.853706" style="stroke: #000000; stroke-width: 0.8"/>
      </g>
     </g>
     <g id="text_11">
      <!-- 0.002 -->
      <g transform="translate(35.779875 111.652925) scale(0.1 -0.1)">
       <use xlink:href="#DejaVuSans-30"/>
       <use xlink:href="#DejaVuSans-2e" x="63.623047"/>
       <use xlink:href="#DejaVuSans-30" x="95.410156"/>
       <use xlink:href="#DejaVuSans-30" x="159.033203"/>
       <use xlink:href="#DejaVuSans-32" x="222.65625"/>
      </g>
     </g>
    </g>
    <g id="ytick_5">
     <g id="line2d_21">
      <path d="M 71.408 86.430327 
L 306.255247 86.430327 
" clip-path="url(#pa3fc017691)" style="fill: none; stroke: #b0b0b0; stroke-width: 0.8; stroke-linecap: square"/>
     </g>
     <g id="line2d_22">
      <g>
       <use xlink:href="#m8985d0d4b4" x="71.408" y="86.430327" style="stroke: #000000; stroke-width: 0.8"/>
      </g>
     </g>
     <g id="text_12">
      <!-- 0.004 -->
      <g transform="translate(35.779875 90.229545) scale(0.1 -0.1)">
       <use xlink:href="#DejaVuSans-30"/>
       <use xlink:href="#DejaVuSans-2e" x="63.623047"/>
       <use xlink:href="#DejaVuSans-30" x="95.410156"/>
       <use xlink:href="#DejaVuSans-30" x="159.033203"/>
       <use xlink:href="#DejaVuSans-34" x="222.65625"/>
      </g>
     </g>
    </g>
    <g id="ytick_6">
     <g id="line2d_23">
      <path d="M 71.408 65.006947 
L 306.255247 65.006947 
" clip-path="url(#pa3fc017691)" style="fill: none; stroke: #b0b0b0; stroke-width: 0.8; stroke-linecap: square"/>
     </g>
     <g id="line2d_24">
      <g>
       <use xlink:href="#m8985d0d4b4" x="71.408" y="65.006947" style="stroke: #000000; stroke-width: 0.8"/>
      </g>
     </g>
     <g id="text_13">
      <!-- 0.006 -->
      <g transform="translate(35.779875 68.806166) scale(0.1 -0.1)">
       <use xlink:href="#DejaVuSans-30"/>
       <use xlink:href="#DejaVuSans-2e" x="63.623047"/>
       <use xlink:href="#DejaVuSans-30" x="95.410156"/>
       <use xlink:href="#DejaVuSans-30" x="159.033203"/>
       <use xlink:href="#DejaVuSans-36" x="222.65625"/>
      </g>
     </g>
    </g>
    <g id="ytick_7">
     <g id="line2d_25">
      <path d="M 71.408 43.583567 
L 306.255247 43.583567 
" clip-path="url(#pa3fc017691)" style="fill: none; stroke: #b0b0b0; stroke-width: 0.8; stroke-linecap: square"/>
     </g>
     <g id="line2d_26">
      <g>
       <use xlink:href="#m8985d0d4b4" x="71.408" y="43.583567" style="stroke: #000000; stroke-width: 0.8"/>
      </g>
     </g>
     <g id="text_14">
      <!-- 0.008 -->
      <g transform="translate(35.779875 47.382786) scale(0.1 -0.1)">
       <defs>
        <path id="DejaVuSans-38" d="M 2034 2216 
Q 1584 2216 1326 1975 
Q 1069 1734 1069 1313 
Q 1069 891 1326 650 
Q 1584 409 2034 409 
Q 2484 409 2743 651 
Q 3003 894 3003 1313 
Q 3003 1734 2745 1975 
Q 2488 2216 2034 2216 
z
M 1403 2484 
Q 997 2584 770 2862 
Q 544 3141 544 3541 
Q 544 4100 942 4425 
Q 1341 4750 2034 4750 
Q 2731 4750 3128 4425 
Q 3525 4100 3525 3541 
Q 3525 3141 3298 2862 
Q 3072 2584 2669 2484 
Q 3125 2378 3379 2068 
Q 3634 1759 3634 1313 
Q 3634 634 3220 271 
Q 2806 -91 2034 -91 
Q 1263 -91 848 271 
Q 434 634 434 1313 
Q 434 1759 690 2068 
Q 947 2378 1403 2484 
z
M 1172 3481 
Q 1172 3119 1398 2916 
Q 1625 2713 2034 2713 
Q 2441 2713 2670 2916 
Q 2900 3119 2900 3481 
Q 2900 3844 2670 4047 
Q 2441 4250 2034 4250 
Q 1625 4250 1398 4047 
Q 1172 3844 1172 3481 
z
" transform="scale(0.015625)"/>
       </defs>
       <use xlink:href="#DejaVuSans-30"/>
       <use xlink:href="#DejaVuSans-2e" x="63.623047"/>
       <use xlink:href="#DejaVuSans-30" x="95.410156"/>
       <use xlink:href="#DejaVuSans-30" x="159.033203"/>
       <use xlink:href="#DejaVuSans-38" x="222.65625"/>
      </g>
     </g>
    </g>
    <g id="ytick_8">
     <g id="line2d_27">
      <path d="M 71.408 22.160187 
L 306.255247 22.160187 
" clip-path="url(#pa3fc017691)" style="fill: none; stroke: #b0b0b0; stroke-width: 0.8; stroke-linecap: square"/>
     </g>
     <g id="line2d_28">
      <g>
       <use xlink:href="#m8985d0d4b4" x="71.408" y="22.160187" style="stroke: #000000; stroke-width: 0.8"/>
      </g>
     </g>
     <g id="text_15">
      <!-- 0.010 -->
      <g transform="translate(35.779875 25.959406) scale(0.1 -0.1)">
       <defs>
        <path id="DejaVuSans-31" d="M 794 531 
L 1825 531 
L 1825 4091 
L 703 3866 
L 703 4441 
L 1819 4666 
L 2450 4666 
L 2450 531 
L 3481 531 
L 3481 0 
L 794 0 
L 794 531 
z
" transform="scale(0.015625)"/>
       </defs>
       <use xlink:href="#DejaVuSans-30"/>
       <use xlink:href="#DejaVuSans-2e" x="63.623047"/>
       <use xlink:href="#DejaVuSans-30" x="95.410156"/>
       <use xlink:href="#DejaVuSans-31" x="159.033203"/>
       <use xlink:href="#DejaVuSans-30" x="222.65625"/>
      </g>
     </g>
    </g>
    <g id="text_16">
     <!-- d$C_D$ / d$\alpha$ -->
     <g transform="translate(21.3205 113.27) rotate(-90) scale(0.1 -0.1)">
      <defs>
       <path id="DejaVuSans-64" d="M 2906 2969 
L 2906 4863 
L 3481 4863 
L 3481 0 
L 2906 0 
L 2906 525 
Q 2725 213 2448 61 
Q 2172 -91 1784 -91 
Q 1150 -91 751 415 
Q 353 922 353 1747 
Q 353 2572 751 3078 
Q 1150 3584 1784 3584 
Q 2172 3584 2448 3432 
Q 2725 3281 2906 2969 
z
M 947 1747 
Q 947 1113 1208 752 
Q 1469 391 1925 391 
Q 2381 391 2643 752 
Q 2906 1113 2906 1747 
Q 2906 2381 2643 2742 
Q 2381 3103 1925 3103 
Q 1469 3103 1208 2742 
Q 947 2381 947 1747 
z
" transform="scale(0.015625)"/>
       <path id="DejaVuSans-Oblique-43" d="M 4447 4306 
L 4319 3641 
Q 4019 3944 3683 4091 
Q 3347 4238 2956 4238 
Q 2422 4238 2017 3981 
Q 1613 3725 1319 3200 
Q 1131 2863 1032 2486 
Q 934 2109 934 1728 
Q 934 1091 1264 756 
Q 1594 422 2222 422 
Q 2656 422 3056 561 
Q 3456 700 3834 978 
L 3688 231 
Q 3316 72 2936 -9 
Q 2556 -91 2175 -91 
Q 1278 -91 773 396 
Q 269 884 269 1753 
Q 269 2309 461 2846 
Q 653 3384 1013 3828 
Q 1394 4300 1883 4525 
Q 2372 4750 3022 4750 
Q 3422 4750 3780 4639 
Q 4138 4528 4447 4306 
z
" transform="scale(0.015625)"/>
       <path id="DejaVuSans-Oblique-44" d="M 1081 4666 
L 2438 4666 
Q 3519 4666 4070 4208 
Q 4622 3750 4622 2847 
Q 4622 2250 4412 1698 
Q 4203 1147 3834 769 
Q 3463 381 2891 190 
Q 2319 0 1538 0 
L 172 0 
L 1081 4666 
z
M 1613 4147 
L 909 519 
L 1734 519 
Q 2794 519 3375 1128 
Q 3956 1738 3956 2847 
Q 3956 3519 3581 3833 
Q 3206 4147 2406 4147 
L 1613 4147 
z
" transform="scale(0.015625)"/>
       <path id="DejaVuSans-20" transform="scale(0.015625)"/>
       <path id="DejaVuSans-2f" d="M 1625 4666 
L 2156 4666 
L 531 -594 
L 0 -594 
L 1625 4666 
z
" transform="scale(0.015625)"/>
      </defs>
      <use xlink:href="#DejaVuSans-64" transform="translate(0 0.015625)"/>
      <use xlink:href="#DejaVuSans-Oblique-43" transform="translate(63.476562 0.015625)"/>
      <use xlink:href="#DejaVuSans-Oblique-44" transform="translate(133.300781 -16.390625) scale(0.7)"/>
      <use xlink:href="#DejaVuSans-20" transform="translate(189.936523 0.015625)"/>
      <use xlink:href="#DejaVuSans-2f" transform="translate(221.723633 0.015625)"/>
      <use xlink:href="#DejaVuSans-20" transform="translate(255.415039 0.015625)"/>
      <use xlink:href="#DejaVuSans-64" transform="translate(287.202148 0.015625)"/>
      <use xlink:href="#DejaVuSans-Oblique-3b1" transform="translate(350.678711 0.015625)"/>
     </g>
    </g>
   </g>
   <g id="line2d_29">
    <path d="M 82.082875 166.62 
L 84.239415 165.150168 
L 86.395956 163.679741 
L 88.552496 162.208718 
L 90.709036 160.737101 
L 92.865577 159.264889 
L 95.022117 157.792081 
L 97.178658 156.318679 
L 99.335198 154.844681 
L 101.491738 153.370088 
L 103.648279 151.894901 
L 105.804819 150.419118 
L 107.961359 148.94274 
L 110.1179 147.465767 
L 112.27444 145.988199 
L 114.430981 144.510037 
L 116.587521 143.031278 
L 118.744061 141.551925 
L 120.900602 140.071977 
L 123.057142 138.591434 
L 125.213682 137.110296 
L 127.370223 135.628563 
L 129.526763 134.146234 
L 131.683304 132.663311 
L 133.839844 131.179792 
L 135.996384 129.695679 
L 138.152925 128.21097 
L 140.309465 126.725667 
L 142.466006 125.239768 
L 144.622546 123.753274 
L 146.779086 122.266186 
L 148.935627 120.778502 
L 151.092167 119.290223 
L 153.248707 117.801349 
L 155.405248 116.31188 
L 157.561788 114.821816 
L 159.718329 113.331157 
L 161.874869 111.839902 
L 164.031409 110.348053 
L 166.18795 108.855609 
L 168.34449 107.36257 
L 170.50103 105.868935 
L 172.657571 104.374706 
L 174.814111 102.879881 
L 176.970652 101.384462 
L 179.127192 99.888447 
L 181.283732 98.391837 
L 183.440273 96.894633 
L 185.596813 95.396833 
L 187.753354 93.898438 
L 189.909894 92.399448 
L 192.066434 90.899863 
L 194.222975 89.399683 
L 196.379515 87.898908 
L 198.536055 86.397538 
L 200.692596 84.895573 
L 202.849136 83.393013 
L 205.005677 81.889857 
L 207.162217 80.386107 
L 209.318757 78.881762 
L 211.475298 77.376821 
L 213.631838 75.871286 
L 215.788378 74.365155 
L 217.944919 72.858429 
L 220.101459 71.351109 
L 222.258 69.843193 
L 224.41454 68.334682 
L 226.57108 66.825576 
L 228.727621 65.315875 
L 230.884161 63.805579 
L 233.040702 62.294688 
L 235.197242 60.783202 
L 237.353782 59.271121 
L 239.510323 57.758445 
L 241.666863 56.245174 
L 243.823403 54.731308 
L 245.979944 53.216846 
L 248.136484 51.70179 
L 250.293025 50.186138 
L 252.449565 48.669892 
L 254.606105 47.15305 
L 256.762646 45.635614 
L 258.919186 44.117582 
L 261.075726 42.598955 
L 263.232267 41.079733 
L 265.388807 39.559917 
L 267.545348 38.039505 
L 269.701888 36.518498 
L 271.858428 34.996896 
L 274.014969 33.474699 
L 276.171509 31.951907 
L 278.32805 30.428519 
L 280.48459 28.904537 
L 282.64113 27.37996 
L 284.797671 25.854788 
L 286.954211 24.32902 
L 289.110751 22.802658 
L 291.267292 21.2757 
L 293.423832 19.748148 
L 295.580373 18.22 
" clip-path="url(#pa3fc017691)" style="fill: none; stroke: #000080; stroke-width: 1.5; stroke-linecap: square"/>
   </g>
   <g id="line2d_30">
    <path d="M 82.082875 166.419255 
L 84.239415 164.959514 
L 86.395956 163.499178 
L 88.552496 162.038247 
L 90.709036 160.57672 
L 92.865577 159.114599 
L 95.022117 157.651883 
L 97.178658 156.188571 
L 99.335198 154.724665 
L 101.491738 153.260163 
L 103.648279 151.795067 
L 105.804819 150.329375 
L 107.961359 148.863089 
L 110.1179 147.396207 
L 112.27444 145.92873 
L 114.430981 144.460658 
L 116.587521 142.991991 
L 118.744061 141.522729 
L 120.900602 140.052872 
L 123.057142 138.58242 
L 125.213682 137.111373 
L 127.370223 135.639731 
L 129.526763 134.167494 
L 131.683304 132.694662 
L 133.839844 131.221234 
L 135.996384 129.747212 
L 138.152925 128.272594 
L 140.309465 126.797382 
L 142.466006 125.321574 
L 144.622546 123.845172 
L 146.779086 122.368174 
L 148.935627 120.890581 
L 151.092167 119.412394 
L 153.248707 117.933611 
L 155.405248 116.454233 
L 157.561788 114.97426 
L 159.718329 113.493692 
L 161.874869 112.012529 
L 164.031409 110.530771 
L 166.18795 109.048418 
L 168.34449 107.565469 
L 170.50103 106.081926 
L 172.657571 104.597788 
L 174.814111 103.113054 
L 176.970652 101.627726 
L 179.127192 100.141802 
L 181.283732 98.655284 
L 183.440273 97.16817 
L 185.596813 95.680462 
L 187.753354 94.192158 
L 189.909894 92.703259 
L 192.066434 91.213765 
L 194.222975 89.723676 
L 196.379515 88.232992 
L 198.536055 86.741713 
L 200.692596 85.249839 
L 202.849136 83.75737 
L 205.005677 82.264306 
L 207.162217 80.770647 
L 209.318757 79.276393 
L 211.475298 77.781543 
L 213.631838 76.286099 
L 215.788378 74.790059 
L 217.944919 73.293425 
L 220.101459 71.796195 
L 222.258 70.298371 
L 224.41454 68.799951 
L 226.57108 67.300936 
L 228.727621 65.801327 
L 230.884161 64.301122 
L 233.040702 62.800322 
L 235.197242 61.298927 
L 237.353782 59.796937 
L 239.510323 58.294352 
L 241.666863 56.791172 
L 243.823403 55.287397 
L 245.979944 53.783026 
L 248.136484 52.278061 
L 250.293025 50.772501 
L 252.449565 49.266345 
L 254.606105 47.759595 
L 256.762646 46.252249 
L 258.919186 44.744309 
L 261.075726 43.235773 
L 263.232267 41.726643 
L 265.388807 40.216917 
L 267.545348 38.706596 
L 269.701888 37.19568 
L 271.858428 35.684169 
L 274.014969 34.172063 
L 276.171509 32.659362 
L 278.32805 31.146066 
L 280.48459 29.632175 
L 282.64113 28.117689 
L 284.797671 26.602608 
L 286.954211 25.086932 
L 289.110751 23.57066 
L 291.267292 22.053794 
L 293.423832 20.536332 
L 295.580373 19.018276 
" clip-path="url(#pa3fc017691)" style="fill: none; stroke: #0080ff; stroke-width: 1.5; stroke-linecap: square"/>
   </g>
   <g id="line2d_31">
    <path d="M 82.082875 165.693766 
L 84.239415 164.257046 
L 86.395956 162.81973 
L 88.552496 161.381819 
L 90.709036 159.943313 
L 92.865577 158.504212 
L 95.022117 157.064516 
L 97.178658 155.624225 
L 99.335198 154.183339 
L 101.491738 152.741858 
L 103.648279 151.299781 
L 105.804819 149.85711 
L 107.961359 148.413844 
L 110.1179 146.969982 
L 112.27444 145.525526 
L 114.430981 144.080474 
L 116.587521 142.634828 
L 118.744061 141.188586 
L 120.900602 139.741749 
L 123.057142 138.294318 
L 125.213682 136.846291 
L 127.370223 135.397669 
L 129.526763 133.948452 
L 131.683304 132.49864 
L 133.839844 131.048233 
L 135.996384 129.597231 
L 138.152925 128.145634 
L 140.309465 126.693442 
L 142.466006 125.240654 
L 144.622546 123.787272 
L 146.779086 122.333295 
L 148.935627 120.878722 
L 151.092167 119.423555 
L 153.248707 117.967792 
L 155.405248 116.511435 
L 157.561788 115.054482 
L 159.718329 113.596934 
L 161.874869 112.138792 
L 164.031409 110.680054 
L 166.18795 109.220721 
L 168.34449 107.760793 
L 170.50103 106.30027 
L 172.657571 104.839152 
L 174.814111 103.377439 
L 176.970652 101.915131 
L 179.127192 100.452228 
L 181.283732 98.988729 
L 183.440273 97.524636 
L 185.596813 96.059948 
L 187.753354 94.594664 
L 189.909894 93.128786 
L 192.066434 91.662312 
L 194.222975 90.195244 
L 196.379515 88.72758 
L 198.536055 87.259321 
L 200.692596 85.790468 
L 202.849136 84.321019 
L 205.005677 82.850975 
L 207.162217 81.380336 
L 209.318757 79.909102 
L 211.475298 78.437273 
L 213.631838 76.964849 
L 215.788378 75.49183 
L 217.944919 74.018216 
L 220.101459 72.544006 
L 222.258 71.069202 
L 224.41454 69.593803 
L 226.57108 68.117808 
L 228.727621 66.641219 
L 230.884161 65.164034 
L 233.040702 63.686255 
L 235.197242 62.20788 
L 237.353782 60.72891 
L 239.510323 59.249346 
L 241.666863 57.769186 
L 243.823403 56.288431 
L 245.979944 54.807081 
L 248.136484 53.325136 
L 250.293025 51.842596 
L 252.449565 50.359461 
L 254.606105 48.875731 
L 256.762646 47.391406 
L 258.919186 45.906485 
L 261.075726 44.42097 
L 263.232267 42.93486 
L 265.388807 41.448154 
L 267.545348 39.960854 
L 269.701888 38.472958 
L 271.858428 36.984468 
L 274.014969 35.495382 
L 276.171509 34.005701 
L 278.32805 32.515426 
L 280.48459 31.024555 
L 282.64113 29.533089 
L 284.797671 28.041028 
L 286.954211 26.548372 
L 289.110751 25.055121 
L 291.267292 23.561275 
L 293.423832 22.066834 
L 295.580373 20.571798 
" clip-path="url(#pa3fc017691)" style="fill: none; stroke: #7dff7a; stroke-width: 1.5; stroke-linecap: square"/>
   </g>
   <g id="line2d_32">
    <path d="M 82.082875 164.443535 
L 84.239415 163.042763 
L 86.395956 161.641397 
L 88.552496 160.239436 
L 90.709036 158.836879 
L 92.865577 157.433728 
L 95.022117 156.029981 
L 97.178658 154.62564 
L 99.335198 153.220703 
L 101.491738 151.815171 
L 103.648279 150.409044 
L 105.804819 149.002323 
L 107.961359 147.595006 
L 110.1179 146.187094 
L 112.27444 144.778587 
L 114.430981 143.369485 
L 116.587521 141.959788 
L 118.744061 140.549496 
L 120.900602 139.138608 
L 123.057142 137.727126 
L 125.213682 136.315049 
L 127.370223 134.902376 
L 129.526763 133.489109 
L 131.683304 132.075246 
L 133.839844 130.660789 
L 135.996384 129.245736 
L 138.152925 127.830089 
L 140.309465 126.413846 
L 142.466006 124.997008 
L 144.622546 123.579575 
L 146.779086 122.161548 
L 148.935627 120.742925 
L 151.092167 119.323707 
L 153.248707 117.903894 
L 155.405248 116.483485 
L 157.561788 115.062482 
L 159.718329 113.640884 
L 161.874869 112.218691 
L 164.031409 110.795903 
L 166.18795 109.372519 
L 168.34449 107.948541 
L 170.50103 106.523967 
L 172.657571 105.098799 
L 174.814111 103.673035 
L 176.970652 102.246676 
L 179.127192 100.819723 
L 181.283732 99.392174 
L 183.440273 97.96403 
L 185.596813 96.535291 
L 187.753354 95.105957 
L 189.909894 93.676028 
L 192.066434 92.245504 
L 194.222975 90.814385 
L 196.379515 89.382671 
L 198.536055 87.950362 
L 200.692596 86.517458 
L 202.849136 85.083958 
L 205.005677 83.649864 
L 207.162217 82.215175 
L 209.318757 80.77989 
L 211.475298 79.34401 
L 213.631838 77.907536 
L 215.788378 76.470466 
L 217.944919 75.032802 
L 220.101459 73.594542 
L 222.258 72.155687 
L 224.41454 70.716237 
L 226.57108 69.276192 
L 228.727621 67.835552 
L 230.884161 66.394317 
L 233.040702 64.952487 
L 235.197242 63.510062 
L 237.353782 62.067042 
L 239.510323 60.623426 
L 241.666863 59.179216 
L 243.823403 57.734411 
L 245.979944 56.28901 
L 248.136484 54.843015 
L 250.293025 53.396424 
L 252.449565 51.949239 
L 254.606105 50.501458 
L 256.762646 49.053082 
L 258.919186 47.604112 
L 261.075726 46.154546 
L 263.232267 44.704385 
L 265.388807 43.253629 
L 267.545348 41.802278 
L 269.701888 40.350332 
L 271.858428 38.897791 
L 274.014969 37.444655 
L 276.171509 35.990923 
L 278.32805 34.536597 
L 280.48459 33.081676 
L 282.64113 31.626159 
L 284.797671 30.170048 
L 286.954211 28.713342 
L 289.110751 27.25604 
L 291.267292 25.798143 
L 293.423832 24.339652 
L 295.580373 22.880565 
" clip-path="url(#pa3fc017691)" style="fill: none; stroke: #ff9400; stroke-width: 1.5; stroke-linecap: square"/>
   </g>
   <g id="line2d_33">
    <path d="M 82.082875 162.668559 
L 84.239415 161.316667 
L 86.395956 159.964179 
L 88.552496 158.611097 
L 90.709036 157.257419 
L 92.865577 155.903146 
L 95.022117 154.548278 
L 97.178658 153.192815 
L 99.335198 151.836757 
L 101.491738 150.480104 
L 103.648279 149.122856 
L 105.804819 147.765013 
L 107.961359 146.406575 
L 110.1179 145.047541 
L 112.27444 143.687913 
L 114.430981 142.32769 
L 116.587521 140.966871 
L 118.744061 139.605458 
L 120.900602 138.243449 
L 123.057142 136.880846 
L 125.213682 135.517647 
L 127.370223 134.153853 
L 129.526763 132.789465 
L 131.683304 131.424481 
L 133.839844 130.058902 
L 135.996384 128.692728 
L 138.152925 127.325959 
L 140.309465 125.958595 
L 142.466006 124.590636 
L 144.622546 123.222082 
L 146.779086 121.852933 
L 148.935627 120.483188 
L 151.092167 119.112849 
L 153.248707 117.741915 
L 155.405248 116.370385 
L 157.561788 114.998261 
L 159.718329 113.625541 
L 161.874869 112.252227 
L 164.031409 110.878317 
L 166.18795 109.503812 
L 168.34449 108.128712 
L 170.50103 106.753018 
L 172.657571 105.376728 
L 174.814111 103.999843 
L 176.970652 102.622363 
L 179.127192 101.244288 
L 181.283732 99.865618 
L 183.440273 98.486353 
L 185.596813 97.106492 
L 187.753354 95.726037 
L 189.909894 94.344987 
L 192.066434 92.963341 
L 194.222975 91.581101 
L 196.379515 90.198265 
L 198.536055 88.814835 
L 200.692596 87.430809 
L 202.849136 86.046189 
L 205.005677 84.660973 
L 207.162217 83.275162 
L 209.318757 81.888756 
L 211.475298 80.501756 
L 213.631838 79.11416 
L 215.788378 77.725969 
L 217.944919 76.337183 
L 220.101459 74.947802 
L 222.258 73.557825 
L 224.41454 72.167254 
L 226.57108 70.776088 
L 228.727621 69.384327 
L 230.884161 67.99197 
L 233.040702 66.599019 
L 235.197242 65.205472 
L 237.353782 63.811331 
L 239.510323 62.416594 
L 241.666863 61.021263 
L 243.823403 59.625336 
L 245.979944 58.228814 
L 248.136484 56.831697 
L 250.293025 55.433985 
L 252.449565 54.035678 
L 254.606105 52.636776 
L 256.762646 51.237279 
L 258.919186 49.837187 
L 261.075726 48.4365 
L 263.232267 47.035218 
L 265.388807 45.633341 
L 267.545348 44.230868 
L 269.701888 42.827801 
L 271.858428 41.424139 
L 274.014969 40.019881 
L 276.171509 38.615029 
L 278.32805 37.209581 
L 280.48459 35.803538 
L 282.64113 34.396901 
L 284.797671 32.989668 
L 286.954211 31.58184 
L 289.110751 30.173417 
L 291.267292 28.764399 
L 293.423832 27.354786 
L 295.580373 25.944578 
" clip-path="url(#pa3fc017691)" style="fill: none; stroke: #800000; stroke-width: 1.5; stroke-linecap: square"/>
   </g>
   <g id="patch_3">
    <path d="M 71.408 174.04 
L 71.408 10.8 
" style="fill: none; stroke: #000000; stroke-width: 0.8; stroke-linejoin: miter; stroke-linecap: square"/>
   </g>
   <g id="patch_4">
    <path d="M 306.255247 174.04 
L 306.255247 10.8 
" style="fill: none; stroke: #000000; stroke-width: 0.8; stroke-linejoin: miter; stroke-linecap: square"/>
   </g>
   <g id="patch_5">
    <path d="M 71.408 174.04 
L 306.255247 174.04 
" style="fill: none; stroke: #000000; stroke-width: 0.8; stroke-linejoin: miter; stroke-linecap: square"/>
   </g>
   <g id="patch_6">
    <path d="M 71.408 10.8 
L 306.255247 10.8 
" style="fill: none; stroke: #000000; stroke-width: 0.8; stroke-linejoin: miter; stroke-linecap: square"/>
   </g>
   <g id="legend_1">
    <g id="patch_7">
     <path d="M 315.255247 162.878 
L 420.455247 162.878 
Q 422.455247 162.878 422.455247 160.878 
L 422.455247 88.385812 
Q 422.455247 86.385812 420.455247 86.385812 
L 315.255247 86.385812 
Q 313.255247 86.385812 313.255247 88.385812 
L 313.255247 160.878 
Q 313.255247 162.878 315.255247 162.878 
z
" style="fill: #4d4d4d; opacity: 0.5; stroke: #4d4d4d; stroke-linejoin: miter"/>
    </g>
    <g id="patch_8">
     <path d="M 313.255247 160.878 
L 418.455247 160.878 
Q 420.455247 160.878 420.455247 158.878 
L 420.455247 86.385812 
Q 420.455247 84.385812 418.455247 84.385812 
L 313.255247 84.385812 
Q 311.255247 84.385812 311.255247 86.385812 
L 311.255247 158.878 
Q 311.255247 160.878 313.255247 160.878 
z
" style="fill: #ffffff; stroke: #cccccc; stroke-linejoin: miter"/>
    </g>
    <g id="line2d_34">
     <path d="M 315.255247 92.48425 
L 325.255247 92.48425 
L 335.255247 92.48425 
" style="fill: none; stroke: #000080; stroke-width: 1.5; stroke-linecap: square"/>
    </g>
    <g id="text_17">
     <!-- $\delta_e = 0$, $J = 1.60$ -->
     <g transform="translate(343.255247 95.98425) scale(0.1 -0.1)">
      <defs>
       <path id="DejaVuSans-Oblique-3b4" d="M 3472 4053 
Q 3197 4272 2450 4272 
Q 1659 4272 1588 3906 
Q 1531 3619 2328 3469 
Q 2953 3353 3253 3003 
Q 3616 2581 3447 1716 
Q 3284 888 2763 400 
Q 2238 -91 1488 -91 
Q 741 -91 406 400 
Q 72 888 241 1747 
Q 363 2384 891 2900 
Q 1097 3100 1353 3213 
Q 913 3459 1000 3900 
Q 1166 4750 2544 4750 
Q 3234 4750 3566 4531 
L 3472 4053 
z
M 1753 3056 
Q 1525 2966 1306 2738 
Q 969 2384 847 1747 
Q 722 1113 919 756 
Q 1119 397 1584 397 
Q 2044 397 2381 759 
Q 2722 1122 2838 1716 
Q 2956 2338 2731 2638 
Q 2491 2959 2103 2994 
Q 1906 3013 1753 3056 
z
" transform="scale(0.015625)"/>
       <path id="DejaVuSans-Oblique-65" d="M 3078 2063 
Q 3088 2113 3092 2166 
Q 3097 2219 3097 2272 
Q 3097 2653 2873 2875 
Q 2650 3097 2266 3097 
Q 1838 3097 1509 2826 
Q 1181 2556 1013 2059 
L 3078 2063 
z
M 3578 1613 
L 903 1613 
Q 884 1494 878 1425 
Q 872 1356 872 1306 
Q 872 872 1139 634 
Q 1406 397 1894 397 
Q 2269 397 2603 481 
Q 2938 566 3225 728 
L 3116 159 
Q 2806 34 2476 -28 
Q 2147 -91 1806 -91 
Q 1078 -91 686 257 
Q 294 606 294 1247 
Q 294 1794 489 2264 
Q 684 2734 1063 3103 
Q 1306 3334 1642 3459 
Q 1978 3584 2356 3584 
Q 2950 3584 3301 3228 
Q 3653 2872 3653 2272 
Q 3653 2128 3634 1964 
Q 3616 1800 3578 1613 
z
" transform="scale(0.015625)"/>
       <path id="DejaVuSans-3d" d="M 678 2906 
L 4684 2906 
L 4684 2381 
L 678 2381 
L 678 2906 
z
M 678 1631 
L 4684 1631 
L 4684 1100 
L 678 1100 
L 678 1631 
z
" transform="scale(0.015625)"/>
       <path id="DejaVuSans-2c" d="M 750 794 
L 1409 794 
L 1409 256 
L 897 -744 
L 494 -744 
L 750 256 
L 750 794 
z
" transform="scale(0.015625)"/>
       <path id="DejaVuSans-Oblique-4a" d="M 1069 4666 
L 1703 4666 
L 856 325 
Q 691 -522 298 -901 
Q -94 -1281 -800 -1281 
L -1050 -1281 
L -947 -750 
L -750 -750 
Q -328 -750 -109 -509 
Q 109 -269 225 325 
L 1069 4666 
z
" transform="scale(0.015625)"/>
      </defs>
      <use xlink:href="#DejaVuSans-Oblique-3b4" transform="translate(0 0.78125)"/>
      <use xlink:href="#DejaVuSans-Oblique-65" transform="translate(61.181641 -15.625) scale(0.7)"/>
      <use xlink:href="#DejaVuSans-3d" transform="translate(126.464844 0.78125)"/>
      <use xlink:href="#DejaVuSans-30" transform="translate(229.736328 0.78125)"/>
      <use xlink:href="#DejaVuSans-2c" transform="translate(293.359375 0.78125)"/>
      <use xlink:href="#DejaVuSans-20" transform="translate(325.146484 0.78125)"/>
      <use xlink:href="#DejaVuSans-Oblique-4a" transform="translate(356.933594 0.78125)"/>
      <use xlink:href="#DejaVuSans-3d" transform="translate(405.908203 0.78125)"/>
      <use xlink:href="#DejaVuSans-31" transform="translate(509.179688 0.78125)"/>
      <use xlink:href="#DejaVuSans-2e" transform="translate(572.802734 0.78125)"/>
      <use xlink:href="#DejaVuSans-36" transform="translate(604.589844 0.78125)"/>
      <use xlink:href="#DejaVuSans-30" transform="translate(668.212891 0.78125)"/>
     </g>
    </g>
    <g id="line2d_35">
     <path d="M 315.255247 107.182688 
L 325.255247 107.182688 
L 335.255247 107.182688 
" style="fill: none; stroke: #0080ff; stroke-width: 1.5; stroke-linecap: square"/>
    </g>
    <g id="text_18">
     <!-- $\delta_e = 0$, $J = 1.80$ -->
     <g transform="translate(343.255247 110.682688) scale(0.1 -0.1)">
      <use xlink:href="#DejaVuSans-Oblique-3b4" transform="translate(0 0.78125)"/>
      <use xlink:href="#DejaVuSans-Oblique-65" transform="translate(61.181641 -15.625) scale(0.7)"/>
      <use xlink:href="#DejaVuSans-3d" transform="translate(126.464844 0.78125)"/>
      <use xlink:href="#DejaVuSans-30" transform="translate(229.736328 0.78125)"/>
      <use xlink:href="#DejaVuSans-2c" transform="translate(293.359375 0.78125)"/>
      <use xlink:href="#DejaVuSans-20" transform="translate(325.146484 0.78125)"/>
      <use xlink:href="#DejaVuSans-Oblique-4a" transform="translate(356.933594 0.78125)"/>
      <use xlink:href="#DejaVuSans-3d" transform="translate(405.908203 0.78125)"/>
      <use xlink:href="#DejaVuSans-31" transform="translate(509.179688 0.78125)"/>
      <use xlink:href="#DejaVuSans-2e" transform="translate(572.802734 0.78125)"/>
      <use xlink:href="#DejaVuSans-38" transform="translate(601.964844 0.78125)"/>
      <use xlink:href="#DejaVuSans-30" transform="translate(665.587891 0.78125)"/>
     </g>
    </g>
    <g id="line2d_36">
     <path d="M 315.255247 121.881125 
L 325.255247 121.881125 
L 335.255247 121.881125 
" style="fill: none; stroke: #7dff7a; stroke-width: 1.5; stroke-linecap: square"/>
    </g>
    <g id="text_19">
     <!-- $\delta_e = 0$, $J = 2.00$ -->
     <g transform="translate(343.255247 125.381125) scale(0.1 -0.1)">
      <use xlink:href="#DejaVuSans-Oblique-3b4" transform="translate(0 0.78125)"/>
      <use xlink:href="#DejaVuSans-Oblique-65" transform="translate(61.181641 -15.625) scale(0.7)"/>
      <use xlink:href="#DejaVuSans-3d" transform="translate(126.464844 0.78125)"/>
      <use xlink:href="#DejaVuSans-30" transform="translate(229.736328 0.78125)"/>
      <use xlink:href="#DejaVuSans-2c" transform="translate(293.359375 0.78125)"/>
      <use xlink:href="#DejaVuSans-20" transform="translate(325.146484 0.78125)"/>
      <use xlink:href="#DejaVuSans-Oblique-4a" transform="translate(356.933594 0.78125)"/>
      <use xlink:href="#DejaVuSans-3d" transform="translate(405.908203 0.78125)"/>
      <use xlink:href="#DejaVuSans-32" transform="translate(509.179688 0.78125)"/>
      <use xlink:href="#DejaVuSans-2e" transform="translate(572.802734 0.78125)"/>
      <use xlink:href="#DejaVuSans-30" transform="translate(604.589844 0.78125)"/>
      <use xlink:href="#DejaVuSans-30" transform="translate(668.212891 0.78125)"/>
     </g>
    </g>
    <g id="line2d_37">
     <path d="M 315.255247 136.579563 
L 325.255247 136.579563 
L 335.255247 136.579563 
" style="fill: none; stroke: #ff9400; stroke-width: 1.5; stroke-linecap: square"/>
    </g>
    <g id="text_20">
     <!-- $\delta_e = 0$, $J = 2.20$ -->
     <g transform="translate(343.255247 140.079563) scale(0.1 -0.1)">
      <use xlink:href="#DejaVuSans-Oblique-3b4" transform="translate(0 0.78125)"/>
      <use xlink:href="#DejaVuSans-Oblique-65" transform="translate(61.181641 -15.625) scale(0.7)"/>
      <use xlink:href="#DejaVuSans-3d" transform="translate(126.464844 0.78125)"/>
      <use xlink:href="#DejaVuSans-30" transform="translate(229.736328 0.78125)"/>
      <use xlink:href="#DejaVuSans-2c" transform="translate(293.359375 0.78125)"/>
      <use xlink:href="#DejaVuSans-20" transform="translate(325.146484 0.78125)"/>
      <use xlink:href="#DejaVuSans-Oblique-4a" transform="translate(356.933594 0.78125)"/>
      <use xlink:href="#DejaVuSans-3d" transform="translate(405.908203 0.78125)"/>
      <use xlink:href="#DejaVuSans-32" transform="translate(509.179688 0.78125)"/>
      <use xlink:href="#DejaVuSans-2e" transform="translate(572.802734 0.78125)"/>
      <use xlink:href="#DejaVuSans-32" transform="translate(599.089844 0.78125)"/>
      <use xlink:href="#DejaVuSans-30" transform="translate(662.712891 0.78125)"/>
     </g>
    </g>
    <g id="line2d_38">
     <path d="M 315.255247 151.278 
L 325.255247 151.278 
L 335.255247 151.278 
" style="fill: none; stroke: #800000; stroke-width: 1.5; stroke-linecap: square"/>
    </g>
    <g id="text_21">
     <!-- $\delta_e = 0$, $J = 2.40$ -->
     <g transform="translate(343.255247 154.778) scale(0.1 -0.1)">
      <use xlink:href="#DejaVuSans-Oblique-3b4" transform="translate(0 0.78125)"/>
      <use xlink:href="#DejaVuSans-Oblique-65" transform="translate(61.181641 -15.625) scale(0.7)"/>
      <use xlink:href="#DejaVuSans-3d" transform="translate(126.464844 0.78125)"/>
      <use xlink:href="#DejaVuSans-30" transform="translate(229.736328 0.78125)"/>
      <use xlink:href="#DejaVuSans-2c" transform="translate(293.359375 0.78125)"/>
      <use xlink:href="#DejaVuSans-20" transform="translate(325.146484 0.78125)"/>
      <use xlink:href="#DejaVuSans-Oblique-4a" transform="translate(356.933594 0.78125)"/>
      <use xlink:href="#DejaVuSans-3d" transform="translate(405.908203 0.78125)"/>
      <use xlink:href="#DejaVuSans-32" transform="translate(509.179688 0.78125)"/>
      <use xlink:href="#DejaVuSans-2e" transform="translate(572.802734 0.78125)"/>
      <use xlink:href="#DejaVuSans-34" transform="translate(604.589844 0.78125)"/>
      <use xlink:href="#DejaVuSans-30" transform="translate(668.212891 0.78125)"/>
     </g>
    </g>
   </g>
  </g>
 </g>
 <defs>
  <clipPath id="pa3fc017691">
   <rect x="71.408" y="10.8" width="234.847247" height="163.24"/>
  </clipPath>
 </defs>
</svg>
