<?xml version="1.0" encoding="utf-8" standalone="no"?>
<!DOCTYPE svg PUBLIC "-//W3C//DTD SVG 1.1//EN"
  "http://www.w3.org/Graphics/SVG/1.1/DTD/svg11.dtd">
<svg xmlns:xlink="http://www.w3.org/1999/xlink" width="576pt" height="216pt" viewBox="0 0 576 216" xmlns="http://www.w3.org/2000/svg" version="1.1">
 <metadata>
  <rdf:RDF xmlns:dc="http://purl.org/dc/elements/1.1/" xmlns:cc="http://creativecommons.org/ns#" xmlns:rdf="http://www.w3.org/1999/02/22-rdf-syntax-ns#">
   <cc:Work>
    <dc:type rdf:resource="http://purl.org/dc/dcmitype/StillImage"/>
    <dc:date>2025-03-27T15:29:39.902665</dc:date>
    <dc:format>image/svg+xml</dc:format>
    <dc:creator>
     <cc:Agent>
      <dc:title>Matplotlib v3.9.2, https://matplotlib.org/</dc:title>
     </cc:Agent>
    </dc:creator>
   </cc:Work>
  </rdf:RDF>
 </metadata>
 <defs>
  <style type="text/css">*{stroke-linejoin: round; stroke-linecap: butt}</style>
 </defs>
 <g id="figure_1">
  <g id="patch_1">
   <path d="M 0 216 
L 576 216 
L 576 0 
L 0 0 
z
" style="fill: #ffffff"/>
  </g>
  <g id="axes_1">
   <g id="patch_2">
    <path d="M 71.408 174.04 
L 431.617856 174.04 
L 431.617856 12.347873 
L 71.408 12.347873 
z
" style="fill: #ffffff"/>
   </g>
   <g id="matplotlib.axis_1">
    <g id="xtick_1">
     <g id="line2d_1">
      <path d="M 87.781175 174.04 
L 87.781175 12.347873 
" clip-path="url(#p931355d291)" style="fill: none; stroke: #b0b0b0; stroke-width: 0.8; stroke-linecap: square"/>
     </g>
     <g id="line2d_2">
      <defs>
       <path id="mbb094f0416" d="M 0 0 
L 0 3.5 
" style="stroke: #000000; stroke-width: 0.8"/>
      </defs>
      <g>
       <use xlink:href="#mbb094f0416" x="87.781175" y="174.04" style="stroke: #000000; stroke-width: 0.8"/>
      </g>
     </g>
     <g id="text_1">
      <!-- −4 -->
      <g transform="translate(80.410082 188.638438) scale(0.1 -0.1)">
       <defs>
        <path id="DejaVuSans-2212" d="M 678 2272 
L 4684 2272 
L 4684 1741 
L 678 1741 
L 678 2272 
z
" transform="scale(0.015625)"/>
        <path id="DejaVuSans-34" d="M 2419 4116 
L 825 1625 
L 2419 1625 
L 2419 4116 
z
M 2253 4666 
L 3047 4666 
L 3047 1625 
L 3713 1625 
L 3713 1100 
L 3047 1100 
L 3047 0 
L 2419 0 
L 2419 1100 
L 313 1100 
L 313 1709 
L 2253 4666 
z
" transform="scale(0.015625)"/>
       </defs>
       <use xlink:href="#DejaVuSans-2212"/>
       <use xlink:href="#DejaVuSans-34" x="83.789062"/>
      </g>
     </g>
    </g>
    <g id="xtick_2">
     <g id="line2d_3">
      <path d="M 147.319994 174.04 
L 147.319994 12.347873 
" clip-path="url(#p931355d291)" style="fill: none; stroke: #b0b0b0; stroke-width: 0.8; stroke-linecap: square"/>
     </g>
     <g id="line2d_4">
      <g>
       <use xlink:href="#mbb094f0416" x="147.319994" y="174.04" style="stroke: #000000; stroke-width: 0.8"/>
      </g>
     </g>
     <g id="text_2">
      <!-- −2 -->
      <g transform="translate(139.948901 188.638438) scale(0.1 -0.1)">
       <defs>
        <path id="DejaVuSans-32" d="M 1228 531 
L 3431 531 
L 3431 0 
L 469 0 
L 469 531 
Q 828 903 1448 1529 
Q 2069 2156 2228 2338 
Q 2531 2678 2651 2914 
Q 2772 3150 2772 3378 
Q 2772 3750 2511 3984 
Q 2250 4219 1831 4219 
Q 1534 4219 1204 4116 
Q 875 4013 500 3803 
L 500 4441 
Q 881 4594 1212 4672 
Q 1544 4750 1819 4750 
Q 2544 4750 2975 4387 
Q 3406 4025 3406 3419 
Q 3406 3131 3298 2873 
Q 3191 2616 2906 2266 
Q 2828 2175 2409 1742 
Q 1991 1309 1228 531 
z
" transform="scale(0.015625)"/>
       </defs>
       <use xlink:href="#DejaVuSans-2212"/>
       <use xlink:href="#DejaVuSans-32" x="83.789062"/>
      </g>
     </g>
    </g>
    <g id="xtick_3">
     <g id="line2d_5">
      <path d="M 206.858814 174.04 
L 206.858814 12.347873 
" clip-path="url(#p931355d291)" style="fill: none; stroke: #b0b0b0; stroke-width: 0.8; stroke-linecap: square"/>
     </g>
     <g id="line2d_6">
      <g>
       <use xlink:href="#mbb094f0416" x="206.858814" y="174.04" style="stroke: #000000; stroke-width: 0.8"/>
      </g>
     </g>
     <g id="text_3">
      <!-- 0 -->
      <g transform="translate(203.677564 188.638438) scale(0.1 -0.1)">
       <defs>
        <path id="DejaVuSans-30" d="M 2034 4250 
Q 1547 4250 1301 3770 
Q 1056 3291 1056 2328 
Q 1056 1369 1301 889 
Q 1547 409 2034 409 
Q 2525 409 2770 889 
Q 3016 1369 3016 2328 
Q 3016 3291 2770 3770 
Q 2525 4250 2034 4250 
z
M 2034 4750 
Q 2819 4750 3233 4129 
Q 3647 3509 3647 2328 
Q 3647 1150 3233 529 
Q 2819 -91 2034 -91 
Q 1250 -91 836 529 
Q 422 1150 422 2328 
Q 422 3509 836 4129 
Q 1250 4750 2034 4750 
z
" transform="scale(0.015625)"/>
       </defs>
       <use xlink:href="#DejaVuSans-30"/>
      </g>
     </g>
    </g>
    <g id="xtick_4">
     <g id="line2d_7">
      <path d="M 266.397633 174.04 
L 266.397633 12.347873 
" clip-path="url(#p931355d291)" style="fill: none; stroke: #b0b0b0; stroke-width: 0.8; stroke-linecap: square"/>
     </g>
     <g id="line2d_8">
      <g>
       <use xlink:href="#mbb094f0416" x="266.397633" y="174.04" style="stroke: #000000; stroke-width: 0.8"/>
      </g>
     </g>
     <g id="text_4">
      <!-- 2 -->
      <g transform="translate(263.216383 188.638438) scale(0.1 -0.1)">
       <use xlink:href="#DejaVuSans-32"/>
      </g>
     </g>
    </g>
    <g id="xtick_5">
     <g id="line2d_9">
      <path d="M 325.936452 174.04 
L 325.936452 12.347873 
" clip-path="url(#p931355d291)" style="fill: none; stroke: #b0b0b0; stroke-width: 0.8; stroke-linecap: square"/>
     </g>
     <g id="line2d_10">
      <g>
       <use xlink:href="#mbb094f0416" x="325.936452" y="174.04" style="stroke: #000000; stroke-width: 0.8"/>
      </g>
     </g>
     <g id="text_5">
      <!-- 4 -->
      <g transform="translate(322.755202 188.638438) scale(0.1 -0.1)">
       <use xlink:href="#DejaVuSans-34"/>
      </g>
     </g>
    </g>
    <g id="xtick_6">
     <g id="line2d_11">
      <path d="M 385.475271 174.04 
L 385.475271 12.347873 
" clip-path="url(#p931355d291)" style="fill: none; stroke: #b0b0b0; stroke-width: 0.8; stroke-linecap: square"/>
     </g>
     <g id="line2d_12">
      <g>
       <use xlink:href="#mbb094f0416" x="385.475271" y="174.04" style="stroke: #000000; stroke-width: 0.8"/>
      </g>
     </g>
     <g id="text_6">
      <!-- 6 -->
      <g transform="translate(382.294021 188.638438) scale(0.1 -0.1)">
       <defs>
        <path id="DejaVuSans-36" d="M 2113 2584 
Q 1688 2584 1439 2293 
Q 1191 2003 1191 1497 
Q 1191 994 1439 701 
Q 1688 409 2113 409 
Q 2538 409 2786 701 
Q 3034 994 3034 1497 
Q 3034 2003 2786 2293 
Q 2538 2584 2113 2584 
z
M 3366 4563 
L 3366 3988 
Q 3128 4100 2886 4159 
Q 2644 4219 2406 4219 
Q 1781 4219 1451 3797 
Q 1122 3375 1075 2522 
Q 1259 2794 1537 2939 
Q 1816 3084 2150 3084 
Q 2853 3084 3261 2657 
Q 3669 2231 3669 1497 
Q 3669 778 3244 343 
Q 2819 -91 2113 -91 
Q 1303 -91 875 529 
Q 447 1150 447 2328 
Q 447 3434 972 4092 
Q 1497 4750 2381 4750 
Q 2619 4750 2861 4703 
Q 3103 4656 3366 4563 
z
" transform="scale(0.015625)"/>
       </defs>
       <use xlink:href="#DejaVuSans-36"/>
      </g>
     </g>
    </g>
    <g id="text_7">
     <!-- $\alpha$ -->
     <g transform="translate(248.212928 202.316563) scale(0.1 -0.1)">
      <defs>
       <path id="DejaVuSans-Oblique-3b1" d="M 2619 1628 
L 2622 2350 
Q 2625 3088 2069 3091 
Q 1653 3094 1394 2747 
Q 1069 2319 959 1747 
Q 825 1059 994 731 
Q 1169 397 1547 397 
Q 1966 397 2319 1063 
L 2619 1628 
z
M 2166 3578 
Q 3141 3594 3128 2584 
Q 3128 2584 3616 3500 
L 4128 3500 
L 3119 1603 
L 3109 919 
Q 3109 766 3194 638 
Q 3291 488 3391 488 
L 3669 488 
L 3575 0 
L 3228 0 
Q 2934 0 2722 263 
Q 2622 394 2619 669 
Q 2416 334 2066 50 
Q 1900 -81 1453 -78 
Q 722 -72 456 397 
Q 184 884 353 1747 
Q 534 2675 1009 3097 
Q 1544 3569 2166 3578 
z
" transform="scale(0.015625)"/>
      </defs>
      <use xlink:href="#DejaVuSans-Oblique-3b1" transform="translate(0 0.84375)"/>
     </g>
    </g>
   </g>
   <g id="matplotlib.axis_2">
    <g id="ytick_1">
     <g id="line2d_13">
      <path d="M 71.408 157.419723 
L 431.617856 157.419723 
" clip-path="url(#p931355d291)" style="fill: none; stroke: #b0b0b0; stroke-width: 0.8; stroke-linecap: square"/>
     </g>
     <g id="line2d_14">
      <defs>
       <path id="mc968c9f116" d="M 0 0 
L -3.5 0 
" style="stroke: #000000; stroke-width: 0.8"/>
      </defs>
      <g>
       <use xlink:href="#mc968c9f116" x="71.408" y="157.419723" style="stroke: #000000; stroke-width: 0.8"/>
      </g>
     </g>
     <g id="text_8">
      <!-- −0.002 -->
      <g transform="translate(27.400188 161.218942) scale(0.1 -0.1)">
       <defs>
        <path id="DejaVuSans-2e" d="M 684 794 
L 1344 794 
L 1344 0 
L 684 0 
L 684 794 
z
" transform="scale(0.015625)"/>
       </defs>
       <use xlink:href="#DejaVuSans-2212"/>
       <use xlink:href="#DejaVuSans-30" x="83.789062"/>
       <use xlink:href="#DejaVuSans-2e" x="147.412109"/>
       <use xlink:href="#DejaVuSans-30" x="179.199219"/>
       <use xlink:href="#DejaVuSans-30" x="242.822266"/>
       <use xlink:href="#DejaVuSans-32" x="306.445312"/>
      </g>
     </g>
    </g>
    <g id="ytick_2">
     <g id="line2d_15">
      <path d="M 71.408 137.030174 
L 431.617856 137.030174 
" clip-path="url(#p931355d291)" style="fill: none; stroke: #b0b0b0; stroke-width: 0.8; stroke-linecap: square"/>
     </g>
     <g id="line2d_16">
      <g>
       <use xlink:href="#mc968c9f116" x="71.408" y="137.030174" style="stroke: #000000; stroke-width: 0.8"/>
      </g>
     </g>
     <g id="text_9">
      <!-- 0.000 -->
      <g transform="translate(35.779875 140.829393) scale(0.1 -0.1)">
       <use xlink:href="#DejaVuSans-30"/>
       <use xlink:href="#DejaVuSans-2e" x="63.623047"/>
       <use xlink:href="#DejaVuSans-30" x="95.410156"/>
       <use xlink:href="#DejaVuSans-30" x="159.033203"/>
       <use xlink:href="#DejaVuSans-30" x="222.65625"/>
      </g>
     </g>
    </g>
    <g id="ytick_3">
     <g id="line2d_17">
      <path d="M 71.408 116.640626 
L 431.617856 116.640626 
" clip-path="url(#p931355d291)" style="fill: none; stroke: #b0b0b0; stroke-width: 0.8; stroke-linecap: square"/>
     </g>
     <g id="line2d_18">
      <g>
       <use xlink:href="#mc968c9f116" x="71.408" y="116.640626" style="stroke: #000000; stroke-width: 0.8"/>
      </g>
     </g>
     <g id="text_10">
      <!-- 0.002 -->
      <g transform="translate(35.779875 120.439844) scale(0.1 -0.1)">
       <use xlink:href="#DejaVuSans-30"/>
       <use xlink:href="#DejaVuSans-2e" x="63.623047"/>
       <use xlink:href="#DejaVuSans-30" x="95.410156"/>
       <use xlink:href="#DejaVuSans-30" x="159.033203"/>
       <use xlink:href="#DejaVuSans-32" x="222.65625"/>
      </g>
     </g>
    </g>
    <g id="ytick_4">
     <g id="line2d_19">
      <path d="M 71.408 96.251077 
L 431.617856 96.251077 
" clip-path="url(#p931355d291)" style="fill: none; stroke: #b0b0b0; stroke-width: 0.8; stroke-linecap: square"/>
     </g>
     <g id="line2d_20">
      <g>
       <use xlink:href="#mc968c9f116" x="71.408" y="96.251077" style="stroke: #000000; stroke-width: 0.8"/>
      </g>
     </g>
     <g id="text_11">
      <!-- 0.004 -->
      <g transform="translate(35.779875 100.050296) scale(0.1 -0.1)">
       <use xlink:href="#DejaVuSans-30"/>
       <use xlink:href="#DejaVuSans-2e" x="63.623047"/>
       <use xlink:href="#DejaVuSans-30" x="95.410156"/>
       <use xlink:href="#DejaVuSans-30" x="159.033203"/>
       <use xlink:href="#DejaVuSans-34" x="222.65625"/>
      </g>
     </g>
    </g>
    <g id="ytick_5">
     <g id="line2d_21">
      <path d="M 71.408 75.861528 
L 431.617856 75.861528 
" clip-path="url(#p931355d291)" style="fill: none; stroke: #b0b0b0; stroke-width: 0.8; stroke-linecap: square"/>
     </g>
     <g id="line2d_22">
      <g>
       <use xlink:href="#mc968c9f116" x="71.408" y="75.861528" style="stroke: #000000; stroke-width: 0.8"/>
      </g>
     </g>
     <g id="text_12">
      <!-- 0.006 -->
      <g transform="translate(35.779875 79.660747) scale(0.1 -0.1)">
       <use xlink:href="#DejaVuSans-30"/>
       <use xlink:href="#DejaVuSans-2e" x="63.623047"/>
       <use xlink:href="#DejaVuSans-30" x="95.410156"/>
       <use xlink:href="#DejaVuSans-30" x="159.033203"/>
       <use xlink:href="#DejaVuSans-36" x="222.65625"/>
      </g>
     </g>
    </g>
    <g id="ytick_6">
     <g id="line2d_23">
      <path d="M 71.408 55.47198 
L 431.617856 55.47198 
" clip-path="url(#p931355d291)" style="fill: none; stroke: #b0b0b0; stroke-width: 0.8; stroke-linecap: square"/>
     </g>
     <g id="line2d_24">
      <g>
       <use xlink:href="#mc968c9f116" x="71.408" y="55.47198" style="stroke: #000000; stroke-width: 0.8"/>
      </g>
     </g>
     <g id="text_13">
      <!-- 0.008 -->
      <g transform="translate(35.779875 59.271198) scale(0.1 -0.1)">
       <defs>
        <path id="DejaVuSans-38" d="M 2034 2216 
Q 1584 2216 1326 1975 
Q 1069 1734 1069 1313 
Q 1069 891 1326 650 
Q 1584 409 2034 409 
Q 2484 409 2743 651 
Q 3003 894 3003 1313 
Q 3003 1734 2745 1975 
Q 2488 2216 2034 2216 
z
M 1403 2484 
Q 997 2584 770 2862 
Q 544 3141 544 3541 
Q 544 4100 942 4425 
Q 1341 4750 2034 4750 
Q 2731 4750 3128 4425 
Q 3525 4100 3525 3541 
Q 3525 3141 3298 2862 
Q 3072 2584 2669 2484 
Q 3125 2378 3379 2068 
Q 3634 1759 3634 1313 
Q 3634 634 3220 271 
Q 2806 -91 2034 -91 
Q 1263 -91 848 271 
Q 434 634 434 1313 
Q 434 1759 690 2068 
Q 947 2378 1403 2484 
z
M 1172 3481 
Q 1172 3119 1398 2916 
Q 1625 2713 2034 2713 
Q 2441 2713 2670 2916 
Q 2900 3119 2900 3481 
Q 2900 3844 2670 4047 
Q 2441 4250 2034 4250 
Q 1625 4250 1398 4047 
Q 1172 3844 1172 3481 
z
" transform="scale(0.015625)"/>
       </defs>
       <use xlink:href="#DejaVuSans-30"/>
       <use xlink:href="#DejaVuSans-2e" x="63.623047"/>
       <use xlink:href="#DejaVuSans-30" x="95.410156"/>
       <use xlink:href="#DejaVuSans-30" x="159.033203"/>
       <use xlink:href="#DejaVuSans-38" x="222.65625"/>
      </g>
     </g>
    </g>
    <g id="ytick_7">
     <g id="line2d_25">
      <path d="M 71.408 35.082431 
L 431.617856 35.082431 
" clip-path="url(#p931355d291)" style="fill: none; stroke: #b0b0b0; stroke-width: 0.8; stroke-linecap: square"/>
     </g>
     <g id="line2d_26">
      <g>
       <use xlink:href="#mc968c9f116" x="71.408" y="35.082431" style="stroke: #000000; stroke-width: 0.8"/>
      </g>
     </g>
     <g id="text_14">
      <!-- 0.010 -->
      <g transform="translate(35.779875 38.88165) scale(0.1 -0.1)">
       <defs>
        <path id="DejaVuSans-31" d="M 794 531 
L 1825 531 
L 1825 4091 
L 703 3866 
L 703 4441 
L 1819 4666 
L 2450 4666 
L 2450 531 
L 3481 531 
L 3481 0 
L 794 0 
L 794 531 
z
" transform="scale(0.015625)"/>
       </defs>
       <use xlink:href="#DejaVuSans-30"/>
       <use xlink:href="#DejaVuSans-2e" x="63.623047"/>
       <use xlink:href="#DejaVuSans-30" x="95.410156"/>
       <use xlink:href="#DejaVuSans-31" x="159.033203"/>
       <use xlink:href="#DejaVuSans-30" x="222.65625"/>
      </g>
     </g>
    </g>
    <g id="ytick_8">
     <g id="line2d_27">
      <path d="M 71.408 14.692882 
L 431.617856 14.692882 
" clip-path="url(#p931355d291)" style="fill: none; stroke: #b0b0b0; stroke-width: 0.8; stroke-linecap: square"/>
     </g>
     <g id="line2d_28">
      <g>
       <use xlink:href="#mc968c9f116" x="71.408" y="14.692882" style="stroke: #000000; stroke-width: 0.8"/>
      </g>
     </g>
     <g id="text_15">
      <!-- 0.012 -->
      <g transform="translate(35.779875 18.492101) scale(0.1 -0.1)">
       <use xlink:href="#DejaVuSans-30"/>
       <use xlink:href="#DejaVuSans-2e" x="63.623047"/>
       <use xlink:href="#DejaVuSans-30" x="95.410156"/>
       <use xlink:href="#DejaVuSans-31" x="159.033203"/>
       <use xlink:href="#DejaVuSans-32" x="222.65625"/>
      </g>
     </g>
    </g>
    <g id="text_16">
     <!-- d$C_D$ / d$\alpha$ -->
     <g transform="translate(21.3205 114.043936) rotate(-90) scale(0.1 -0.1)">
      <defs>
       <path id="DejaVuSans-64" d="M 2906 2969 
L 2906 4863 
L 3481 4863 
L 3481 0 
L 2906 0 
L 2906 525 
Q 2725 213 2448 61 
Q 2172 -91 1784 -91 
Q 1150 -91 751 415 
Q 353 922 353 1747 
Q 353 2572 751 3078 
Q 1150 3584 1784 3584 
Q 2172 3584 2448 3432 
Q 2725 3281 2906 2969 
z
M 947 1747 
Q 947 1113 1208 752 
Q 1469 391 1925 391 
Q 2381 391 2643 752 
Q 2906 1113 2906 1747 
Q 2906 2381 2643 2742 
Q 2381 3103 1925 3103 
Q 1469 3103 1208 2742 
Q 947 2381 947 1747 
z
" transform="scale(0.015625)"/>
       <path id="DejaVuSans-Oblique-43" d="M 4447 4306 
L 4319 3641 
Q 4019 3944 3683 4091 
Q 3347 4238 2956 4238 
Q 2422 4238 2017 3981 
Q 1613 3725 1319 3200 
Q 1131 2863 1032 2486 
Q 934 2109 934 1728 
Q 934 1091 1264 756 
Q 1594 422 2222 422 
Q 2656 422 3056 561 
Q 3456 700 3834 978 
L 3688 231 
Q 3316 72 2936 -9 
Q 2556 -91 2175 -91 
Q 1278 -91 773 396 
Q 269 884 269 1753 
Q 269 2309 461 2846 
Q 653 3384 1013 3828 
Q 1394 4300 1883 4525 
Q 2372 4750 3022 4750 
Q 3422 4750 3780 4639 
Q 4138 4528 4447 4306 
z
" transform="scale(0.015625)"/>
       <path id="DejaVuSans-Oblique-44" d="M 1081 4666 
L 2438 4666 
Q 3519 4666 4070 4208 
Q 4622 3750 4622 2847 
Q 4622 2250 4412 1698 
Q 4203 1147 3834 769 
Q 3463 381 2891 190 
Q 2319 0 1538 0 
L 172 0 
L 1081 4666 
z
M 1613 4147 
L 909 519 
L 1734 519 
Q 2794 519 3375 1128 
Q 3956 1738 3956 2847 
Q 3956 3519 3581 3833 
Q 3206 4147 2406 4147 
L 1613 4147 
z
" transform="scale(0.015625)"/>
       <path id="DejaVuSans-20" transform="scale(0.015625)"/>
       <path id="DejaVuSans-2f" d="M 1625 4666 
L 2156 4666 
L 531 -594 
L 0 -594 
L 1625 4666 
z
" transform="scale(0.015625)"/>
      </defs>
      <use xlink:href="#DejaVuSans-64" transform="translate(0 0.015625)"/>
      <use xlink:href="#DejaVuSans-Oblique-43" transform="translate(63.476562 0.015625)"/>
      <use xlink:href="#DejaVuSans-Oblique-44" transform="translate(133.300781 -16.390625) scale(0.7)"/>
      <use xlink:href="#DejaVuSans-20" transform="translate(189.936523 0.015625)"/>
      <use xlink:href="#DejaVuSans-2f" transform="translate(221.723633 0.015625)"/>
      <use xlink:href="#DejaVuSans-20" transform="translate(255.415039 0.015625)"/>
      <use xlink:href="#DejaVuSans-64" transform="translate(287.202148 0.015625)"/>
      <use xlink:href="#DejaVuSans-Oblique-3b1" transform="translate(350.678711 0.015625)"/>
     </g>
    </g>
   </g>
   <g id="line2d_29">
    <path d="M 87.781175 166.690358 
L 91.088887 165.210636 
L 94.3966 163.730811 
L 97.704312 162.250883 
L 101.012024 160.770852 
L 104.319736 159.290718 
L 107.627448 157.81048 
L 110.93516 156.33014 
L 114.242873 154.849696 
L 117.550585 153.369149 
L 120.858297 151.888499 
L 124.166009 150.407746 
L 127.473721 148.926889 
L 130.781434 147.44593 
L 134.089146 145.964867 
L 137.396858 144.483701 
L 140.70457 143.002432 
L 144.012282 141.52106 
L 147.319994 140.039585 
L 150.627707 138.558006 
L 153.935419 137.076325 
L 157.243131 135.59454 
L 160.550843 134.112652 
L 163.858555 132.630661 
L 167.166267 131.148567 
L 170.47398 129.666369 
L 173.781692 128.184069 
L 177.089404 126.701665 
L 180.397116 125.219158 
L 183.704828 123.736548 
L 187.012541 122.253835 
L 190.320253 120.771019 
L 193.627965 119.288099 
L 196.935677 117.805077 
L 200.243389 116.321951 
L 203.551101 114.838722 
L 206.858814 113.35539 
L 210.166526 111.871955 
L 213.474238 110.388417 
L 216.78195 108.904775 
L 220.089662 107.42103 
L 223.397374 105.937183 
L 226.705087 104.453232 
L 230.012799 102.969177 
L 233.320511 101.48502 
L 236.628223 100.00076 
L 239.935935 98.516396 
L 243.243647 97.031929 
L 246.55136 95.54736 
L 249.859072 94.062687 
L 253.166784 92.57791 
L 256.474496 91.093031 
L 259.782208 89.608048 
L 263.089921 88.122963 
L 266.397633 86.637774 
L 269.705345 85.152482 
L 273.013057 83.667087 
L 276.320769 82.181589 
L 279.628481 80.695987 
L 282.936194 79.210283 
L 286.243906 77.724475 
L 289.551618 76.238564 
L 292.85933 74.75255 
L 296.167042 73.266433 
L 299.474754 71.780213 
L 302.782467 70.293889 
L 306.090179 68.807462 
L 309.397891 67.320933 
L 312.705603 65.8343 
L 316.013315 64.347564 
L 319.321028 62.860724 
L 322.62874 61.373782 
L 325.936452 59.886736 
L 329.244164 58.399588 
L 332.551876 56.912336 
L 335.859588 55.424981 
L 339.167301 53.937523 
L 342.475013 52.449961 
L 345.782725 50.962297 
L 349.090437 49.474529 
L 352.398149 47.986658 
L 355.705861 46.498685 
L 359.013574 45.010607 
L 362.321286 43.522427 
L 365.628998 42.034144 
L 368.93671 40.545757 
L 372.244422 39.057268 
L 375.552134 37.568675 
L 378.859847 36.079979 
L 382.167559 34.59118 
L 385.475271 33.102277 
L 388.782983 31.613272 
L 392.090695 30.124163 
L 395.398408 28.634952 
L 398.70612 27.145637 
L 402.013832 25.656219 
L 405.321544 24.166697 
L 408.629256 22.677073 
L 411.936968 21.187345 
L 415.244681 19.697515 
" clip-path="url(#p931355d291)" style="fill: none; stroke: #000080; stroke-width: 1.5; stroke-linecap: square"/>
   </g>
   <g id="line2d_30">
    <path d="M 87.781175 163.246324 
L 91.088887 161.832934 
L 94.3966 160.41944 
L 97.704312 159.005843 
L 101.012024 157.592143 
L 104.319736 156.17834 
L 107.627448 154.764434 
L 110.93516 153.350425 
L 114.242873 151.936312 
L 117.550585 150.522097 
L 120.858297 149.107778 
L 124.166009 147.693356 
L 127.473721 146.278831 
L 130.781434 144.864203 
L 134.089146 143.449471 
L 137.396858 142.034637 
L 140.70457 140.619699 
L 144.012282 139.204658 
L 147.319994 137.789514 
L 150.627707 136.374267 
L 153.935419 134.958917 
L 157.243131 133.543463 
L 160.550843 132.127907 
L 163.858555 130.712247 
L 167.166267 129.296484 
L 170.47398 127.880618 
L 173.781692 126.464649 
L 177.089404 125.048576 
L 180.397116 123.632401 
L 183.704828 122.216122 
L 187.012541 120.79974 
L 190.320253 119.383255 
L 193.627965 117.966667 
L 196.935677 116.549976 
L 200.243389 115.133181 
L 203.551101 113.716284 
L 206.858814 112.299283 
L 210.166526 110.882179 
L 213.474238 109.464972 
L 216.78195 108.047662 
L 220.089662 106.630248 
L 223.397374 105.212732 
L 226.705087 103.795112 
L 230.012799 102.377389 
L 233.320511 100.959563 
L 236.628223 99.541634 
L 239.935935 98.123602 
L 243.243647 96.705467 
L 246.55136 95.287228 
L 249.859072 93.868886 
L 253.166784 92.450441 
L 256.474496 91.031893 
L 259.782208 89.613242 
L 263.089921 88.194488 
L 266.397633 86.77563 
L 269.705345 85.35667 
L 273.013057 83.937606 
L 276.320769 82.518439 
L 279.628481 81.099169 
L 282.936194 79.679795 
L 286.243906 78.260319 
L 289.551618 76.840739 
L 292.85933 75.421057 
L 296.167042 74.001271 
L 299.474754 72.581382 
L 302.782467 71.16139 
L 306.090179 69.741294 
L 309.397891 68.321096 
L 312.705603 66.900794 
L 316.013315 65.480389 
L 319.321028 64.059881 
L 322.62874 62.63927 
L 325.936452 61.218556 
L 329.244164 59.797739 
L 332.551876 58.376818 
L 335.859588 56.955794 
L 339.167301 55.534667 
L 342.475013 54.113437 
L 345.782725 52.692104 
L 349.090437 51.270668 
L 352.398149 49.849128 
L 355.705861 48.427486 
L 359.013574 47.00574 
L 362.321286 45.583891 
L 365.628998 44.161939 
L 368.93671 42.739884 
L 372.244422 41.317725 
L 375.552134 39.895464 
L 378.859847 38.473099 
L 382.167559 37.050631 
L 385.475271 35.62806 
L 388.782983 34.205386 
L 392.090695 32.782609 
L 395.398408 31.359728 
L 398.70612 29.936745 
L 402.013832 28.513658 
L 405.321544 27.090468 
L 408.629256 25.667175 
L 411.936968 24.243779 
L 415.244681 22.820279 
" clip-path="url(#p931355d291)" style="fill: none; stroke: #7dff7a; stroke-width: 1.5; stroke-linecap: square"/>
   </g>
   <g id="line2d_31">
    <path d="M 87.781175 159.80229 
L 91.088887 158.455231 
L 94.3966 157.108069 
L 97.704312 155.760803 
L 101.012024 154.413435 
L 104.319736 153.065963 
L 107.627448 151.718388 
L 110.93516 150.37071 
L 114.242873 149.022929 
L 117.550585 147.675045 
L 120.858297 146.327057 
L 124.166009 144.978967 
L 127.473721 143.630773 
L 130.781434 142.282476 
L 134.089146 140.934076 
L 137.396858 139.585572 
L 140.70457 138.236966 
L 144.012282 136.888257 
L 147.319994 135.539444 
L 150.627707 134.190528 
L 153.935419 132.841509 
L 157.243131 131.492387 
L 160.550843 130.143161 
L 163.858555 128.793833 
L 167.166267 127.444401 
L 170.47398 126.094867 
L 173.781692 124.745229 
L 177.089404 123.395488 
L 180.397116 122.045643 
L 183.704828 120.695696 
L 187.012541 119.345645 
L 190.320253 117.995492 
L 193.627965 116.645235 
L 196.935677 115.294875 
L 200.243389 113.944412 
L 203.551101 112.593845 
L 206.858814 111.243176 
L 210.166526 109.892403 
L 213.474238 108.541527 
L 216.78195 107.190549 
L 220.089662 105.839466 
L 223.397374 104.488281 
L 226.705087 103.136993 
L 230.012799 101.785601 
L 233.320511 100.434107 
L 236.628223 99.082509 
L 239.935935 97.730808 
L 243.243647 96.379004 
L 246.55136 95.027096 
L 249.859072 93.675086 
L 253.166784 92.322972 
L 256.474496 90.970756 
L 259.782208 89.618436 
L 263.089921 88.266013 
L 266.397633 86.913486 
L 269.705345 85.560857 
L 273.013057 84.208125 
L 276.320769 82.855289 
L 279.628481 81.50235 
L 282.936194 80.149308 
L 286.243906 78.796163 
L 289.551618 77.442915 
L 292.85933 76.089563 
L 296.167042 74.736109 
L 299.474754 73.382551 
L 302.782467 72.02889 
L 306.090179 70.675126 
L 309.397891 69.321259 
L 312.705603 67.967288 
L 316.013315 66.613215 
L 319.321028 65.259038 
L 322.62874 63.904758 
L 325.936452 62.550375 
L 329.244164 61.195889 
L 332.551876 59.8413 
L 335.859588 58.486608 
L 339.167301 57.131812 
L 342.475013 55.776913 
L 345.782725 54.421911 
L 349.090437 53.066806 
L 352.398149 51.711598 
L 355.705861 50.356287 
L 359.013574 49.000872 
L 362.321286 47.645355 
L 365.628998 46.289734 
L 368.93671 44.93401 
L 372.244422 43.578183 
L 375.552134 42.222253 
L 378.859847 40.866219 
L 382.167559 39.510083 
L 385.475271 38.153843 
L 388.782983 36.7975 
L 392.090695 35.441054 
L 395.398408 34.084505 
L 398.70612 32.727853 
L 402.013832 31.371097 
L 405.321544 30.014239 
L 408.629256 28.657277 
L 411.936968 27.300212 
L 415.244681 25.943044 
" clip-path="url(#p931355d291)" style="fill: none; stroke: #800000; stroke-width: 1.5; stroke-linecap: square"/>
   </g>
   <g id="patch_3">
    <path d="M 71.408 174.04 
L 71.408 12.347873 
" style="fill: none; stroke: #000000; stroke-width: 0.8; stroke-linejoin: miter; stroke-linecap: square"/>
   </g>
   <g id="patch_4">
    <path d="M 431.617856 174.04 
L 431.617856 12.347873 
" style="fill: none; stroke: #000000; stroke-width: 0.8; stroke-linejoin: miter; stroke-linecap: square"/>
   </g>
   <g id="patch_5">
    <path d="M 71.408 174.04 
L 431.617856 174.04 
" style="fill: none; stroke: #000000; stroke-width: 0.8; stroke-linejoin: miter; stroke-linecap: square"/>
   </g>
   <g id="patch_6">
    <path d="M 71.408 12.347873 
L 431.617856 12.347873 
" style="fill: none; stroke: #000000; stroke-width: 0.8; stroke-linejoin: miter; stroke-linecap: square"/>
   </g>
   <g id="legend_1">
    <g id="patch_7">
     <path d="M 440.617856 162.955394 
L 564.517856 162.955394 
Q 566.517856 162.955394 566.517856 160.955394 
L 566.517856 117.860081 
Q 566.517856 115.860081 564.517856 115.860081 
L 440.617856 115.860081 
Q 438.617856 115.860081 438.617856 117.860081 
L 438.617856 160.955394 
Q 438.617856 162.955394 440.617856 162.955394 
z
" style="fill: #4d4d4d; opacity: 0.5; stroke: #4d4d4d; stroke-linejoin: miter"/>
    </g>
    <g id="patch_8">
     <path d="M 438.617856 160.955394 
L 562.517856 160.955394 
Q 564.517856 160.955394 564.517856 158.955394 
L 564.517856 115.860081 
Q 564.517856 113.860081 562.517856 113.860081 
L 438.617856 113.860081 
Q 436.617856 113.860081 436.617856 115.860081 
L 436.617856 158.955394 
Q 436.617856 160.955394 438.617856 160.955394 
z
" style="fill: #ffffff; stroke: #cccccc; stroke-linejoin: miter"/>
    </g>
    <g id="line2d_32">
     <path d="M 440.617856 121.958519 
L 450.617856 121.958519 
L 460.617856 121.958519 
" style="fill: none; stroke: #000080; stroke-width: 1.5; stroke-linecap: square"/>
    </g>
    <g id="text_17">
     <!-- $\delta_e = -10$, $J = 1.60$ -->
     <g transform="translate(468.617856 125.458519) scale(0.1 -0.1)">
      <defs>
       <path id="DejaVuSans-Oblique-3b4" d="M 3472 4053 
Q 3197 4272 2450 4272 
Q 1659 4272 1588 3906 
Q 1531 3619 2328 3469 
Q 2953 3353 3253 3003 
Q 3616 2581 3447 1716 
Q 3284 888 2763 400 
Q 2238 -91 1488 -91 
Q 741 -91 406 400 
Q 72 888 241 1747 
Q 363 2384 891 2900 
Q 1097 3100 1353 3213 
Q 913 3459 1000 3900 
Q 1166 4750 2544 4750 
Q 3234 4750 3566 4531 
L 3472 4053 
z
M 1753 3056 
Q 1525 2966 1306 2738 
Q 969 2384 847 1747 
Q 722 1113 919 756 
Q 1119 397 1584 397 
Q 2044 397 2381 759 
Q 2722 1122 2838 1716 
Q 2956 2338 2731 2638 
Q 2491 2959 2103 2994 
Q 1906 3013 1753 3056 
z
" transform="scale(0.015625)"/>
       <path id="DejaVuSans-Oblique-65" d="M 3078 2063 
Q 3088 2113 3092 2166 
Q 3097 2219 3097 2272 
Q 3097 2653 2873 2875 
Q 2650 3097 2266 3097 
Q 1838 3097 1509 2826 
Q 1181 2556 1013 2059 
L 3078 2063 
z
M 3578 1613 
L 903 1613 
Q 884 1494 878 1425 
Q 872 1356 872 1306 
Q 872 872 1139 634 
Q 1406 397 1894 397 
Q 2269 397 2603 481 
Q 2938 566 3225 728 
L 3116 159 
Q 2806 34 2476 -28 
Q 2147 -91 1806 -91 
Q 1078 -91 686 257 
Q 294 606 294 1247 
Q 294 1794 489 2264 
Q 684 2734 1063 3103 
Q 1306 3334 1642 3459 
Q 1978 3584 2356 3584 
Q 2950 3584 3301 3228 
Q 3653 2872 3653 2272 
Q 3653 2128 3634 1964 
Q 3616 1800 3578 1613 
z
" transform="scale(0.015625)"/>
       <path id="DejaVuSans-3d" d="M 678 2906 
L 4684 2906 
L 4684 2381 
L 678 2381 
L 678 2906 
z
M 678 1631 
L 4684 1631 
L 4684 1100 
L 678 1100 
L 678 1631 
z
" transform="scale(0.015625)"/>
       <path id="DejaVuSans-2c" d="M 750 794 
L 1409 794 
L 1409 256 
L 897 -744 
L 494 -744 
L 750 256 
L 750 794 
z
" transform="scale(0.015625)"/>
       <path id="DejaVuSans-Oblique-4a" d="M 1069 4666 
L 1703 4666 
L 856 325 
Q 691 -522 298 -901 
Q -94 -1281 -800 -1281 
L -1050 -1281 
L -947 -750 
L -750 -750 
Q -328 -750 -109 -509 
Q 109 -269 225 325 
L 1069 4666 
z
" transform="scale(0.015625)"/>
      </defs>
      <use xlink:href="#DejaVuSans-Oblique-3b4" transform="translate(0 0.78125)"/>
      <use xlink:href="#DejaVuSans-Oblique-65" transform="translate(61.181641 -15.625) scale(0.7)"/>
      <use xlink:href="#DejaVuSans-3d" transform="translate(126.464844 0.78125)"/>
      <use xlink:href="#DejaVuSans-2212" transform="translate(249.21875 0.78125)"/>
      <use xlink:href="#DejaVuSans-31" transform="translate(352.490234 0.78125)"/>
      <use xlink:href="#DejaVuSans-30" transform="translate(416.113281 0.78125)"/>
      <use xlink:href="#DejaVuSans-2c" transform="translate(479.736328 0.78125)"/>
      <use xlink:href="#DejaVuSans-20" transform="translate(511.523438 0.78125)"/>
      <use xlink:href="#DejaVuSans-Oblique-4a" transform="translate(543.310547 0.78125)"/>
      <use xlink:href="#DejaVuSans-3d" transform="translate(592.285156 0.78125)"/>
      <use xlink:href="#DejaVuSans-31" transform="translate(695.556641 0.78125)"/>
      <use xlink:href="#DejaVuSans-2e" transform="translate(759.179688 0.78125)"/>
      <use xlink:href="#DejaVuSans-36" transform="translate(790.966797 0.78125)"/>
      <use xlink:href="#DejaVuSans-30" transform="translate(854.589844 0.78125)"/>
     </g>
    </g>
    <g id="line2d_33">
     <path d="M 440.617856 136.656956 
L 450.617856 136.656956 
L 460.617856 136.656956 
" style="fill: none; stroke: #7dff7a; stroke-width: 1.5; stroke-linecap: square"/>
    </g>
    <g id="text_18">
     <!-- $\delta_e = 0$, $J = 1.60$ -->
     <g transform="translate(468.617856 140.156956) scale(0.1 -0.1)">
      <use xlink:href="#DejaVuSans-Oblique-3b4" transform="translate(0 0.78125)"/>
      <use xlink:href="#DejaVuSans-Oblique-65" transform="translate(61.181641 -15.625) scale(0.7)"/>
      <use xlink:href="#DejaVuSans-3d" transform="translate(126.464844 0.78125)"/>
      <use xlink:href="#DejaVuSans-30" transform="translate(229.736328 0.78125)"/>
      <use xlink:href="#DejaVuSans-2c" transform="translate(293.359375 0.78125)"/>
      <use xlink:href="#DejaVuSans-20" transform="translate(325.146484 0.78125)"/>
      <use xlink:href="#DejaVuSans-Oblique-4a" transform="translate(356.933594 0.78125)"/>
      <use xlink:href="#DejaVuSans-3d" transform="translate(405.908203 0.78125)"/>
      <use xlink:href="#DejaVuSans-31" transform="translate(509.179688 0.78125)"/>
      <use xlink:href="#DejaVuSans-2e" transform="translate(572.802734 0.78125)"/>
      <use xlink:href="#DejaVuSans-36" transform="translate(604.589844 0.78125)"/>
      <use xlink:href="#DejaVuSans-30" transform="translate(668.212891 0.78125)"/>
     </g>
    </g>
    <g id="line2d_34">
     <path d="M 440.617856 151.355394 
L 450.617856 151.355394 
L 460.617856 151.355394 
" style="fill: none; stroke: #800000; stroke-width: 1.5; stroke-linecap: square"/>
    </g>
    <g id="text_19">
     <!-- $\delta_e = 10$, $J = 1.60$ -->
     <g transform="translate(468.617856 154.855394) scale(0.1 -0.1)">
      <use xlink:href="#DejaVuSans-Oblique-3b4" transform="translate(0 0.78125)"/>
      <use xlink:href="#DejaVuSans-Oblique-65" transform="translate(61.181641 -15.625) scale(0.7)"/>
      <use xlink:href="#DejaVuSans-3d" transform="translate(126.464844 0.78125)"/>
      <use xlink:href="#DejaVuSans-31" transform="translate(229.736328 0.78125)"/>
      <use xlink:href="#DejaVuSans-30" transform="translate(293.359375 0.78125)"/>
      <use xlink:href="#DejaVuSans-2c" transform="translate(356.982422 0.78125)"/>
      <use xlink:href="#DejaVuSans-20" transform="translate(388.769531 0.78125)"/>
      <use xlink:href="#DejaVuSans-Oblique-4a" transform="translate(420.556641 0.78125)"/>
      <use xlink:href="#DejaVuSans-3d" transform="translate(469.53125 0.78125)"/>
      <use xlink:href="#DejaVuSans-31" transform="translate(572.802734 0.78125)"/>
      <use xlink:href="#DejaVuSans-2e" transform="translate(636.425781 0.78125)"/>
      <use xlink:href="#DejaVuSans-36" transform="translate(668.212891 0.78125)"/>
      <use xlink:href="#DejaVuSans-30" transform="translate(731.835938 0.78125)"/>
     </g>
    </g>
   </g>
  </g>
 </g>
 <defs>
  <clipPath id="p931355d291">
   <rect x="71.408" y="12.347873" width="360.209856" height="161.692127"/>
  </clipPath>
 </defs>
</svg>
