<?xml version="1.0" encoding="utf-8" standalone="no"?>
<!DOCTYPE svg PUBLIC "-//W3C//DTD SVG 1.1//EN"
  "http://www.w3.org/Graphics/SVG/1.1/DTD/svg11.dtd">
<svg xmlns:xlink="http://www.w3.org/1999/xlink" width="432pt" height="216pt" viewBox="0 0 432 216" xmlns="http://www.w3.org/2000/svg" version="1.1">
 <metadata>
  <rdf:RDF xmlns:dc="http://purl.org/dc/elements/1.1/" xmlns:cc="http://creativecommons.org/ns#" xmlns:rdf="http://www.w3.org/1999/02/22-rdf-syntax-ns#">
   <cc:Work>
    <dc:type rdf:resource="http://purl.org/dc/dcmitype/StillImage"/>
    <dc:date>2025-03-28T12:22:13.956951</dc:date>
    <dc:format>image/svg+xml</dc:format>
    <dc:creator>
     <cc:Agent>
      <dc:title>Matplotlib v3.9.2, https://matplotlib.org/</dc:title>
     </cc:Agent>
    </dc:creator>
   </cc:Work>
  </rdf:RDF>
 </metadata>
 <defs>
  <style type="text/css">*{stroke-linejoin: round; stroke-linecap: butt}</style>
 </defs>
 <g id="figure_1">
  <g id="patch_1">
   <path d="M 0 216 
L 432 216 
L 432 0 
L 0 0 
z
" style="fill: #ffffff"/>
  </g>
  <g id="axes_1">
   <g id="patch_2">
    <path d="M 77.798 174.04 
L 306.255247 174.04 
L 306.255247 10.8 
L 77.798 10.8 
z
" style="fill: #ffffff"/>
   </g>
   <g id="matplotlib.axis_1">
    <g id="xtick_1">
     <g id="line2d_1">
      <path d="M 88.18242 174.04 
L 88.18242 10.8 
" clip-path="url(#pd14faee99c)" style="fill: none; stroke: #b0b0b0; stroke-width: 0.8; stroke-linecap: square"/>
     </g>
     <g id="line2d_2">
      <defs>
       <path id="ma00c6b3f7d" d="M 0 0 
L 0 3.5 
" style="stroke: #000000; stroke-width: 0.8"/>
      </defs>
      <g>
       <use xlink:href="#ma00c6b3f7d" x="88.18242" y="174.04" style="stroke: #000000; stroke-width: 0.8"/>
      </g>
     </g>
     <g id="text_1">
      <!-- −4 -->
      <g transform="translate(80.811327 188.638438) scale(0.1 -0.1)">
       <defs>
        <path id="DejaVuSans-2212" d="M 678 2272 
L 4684 2272 
L 4684 1741 
L 678 1741 
L 678 2272 
z
" transform="scale(0.015625)"/>
        <path id="DejaVuSans-34" d="M 2419 4116 
L 825 1625 
L 2419 1625 
L 2419 4116 
z
M 2253 4666 
L 3047 4666 
L 3047 1625 
L 3713 1625 
L 3713 1100 
L 3047 1100 
L 3047 0 
L 2419 0 
L 2419 1100 
L 313 1100 
L 313 1709 
L 2253 4666 
z
" transform="scale(0.015625)"/>
       </defs>
       <use xlink:href="#DejaVuSans-2212"/>
       <use xlink:href="#DejaVuSans-34" x="83.789062"/>
      </g>
     </g>
    </g>
    <g id="xtick_2">
     <g id="line2d_3">
      <path d="M 125.943949 174.04 
L 125.943949 10.8 
" clip-path="url(#pd14faee99c)" style="fill: none; stroke: #b0b0b0; stroke-width: 0.8; stroke-linecap: square"/>
     </g>
     <g id="line2d_4">
      <g>
       <use xlink:href="#ma00c6b3f7d" x="125.943949" y="174.04" style="stroke: #000000; stroke-width: 0.8"/>
      </g>
     </g>
     <g id="text_2">
      <!-- −2 -->
      <g transform="translate(118.572855 188.638438) scale(0.1 -0.1)">
       <defs>
        <path id="DejaVuSans-32" d="M 1228 531 
L 3431 531 
L 3431 0 
L 469 0 
L 469 531 
Q 828 903 1448 1529 
Q 2069 2156 2228 2338 
Q 2531 2678 2651 2914 
Q 2772 3150 2772 3378 
Q 2772 3750 2511 3984 
Q 2250 4219 1831 4219 
Q 1534 4219 1204 4116 
Q 875 4013 500 3803 
L 500 4441 
Q 881 4594 1212 4672 
Q 1544 4750 1819 4750 
Q 2544 4750 2975 4387 
Q 3406 4025 3406 3419 
Q 3406 3131 3298 2873 
Q 3191 2616 2906 2266 
Q 2828 2175 2409 1742 
Q 1991 1309 1228 531 
z
" transform="scale(0.015625)"/>
       </defs>
       <use xlink:href="#DejaVuSans-2212"/>
       <use xlink:href="#DejaVuSans-32" x="83.789062"/>
      </g>
     </g>
    </g>
    <g id="xtick_3">
     <g id="line2d_5">
      <path d="M 163.705477 174.04 
L 163.705477 10.8 
" clip-path="url(#pd14faee99c)" style="fill: none; stroke: #b0b0b0; stroke-width: 0.8; stroke-linecap: square"/>
     </g>
     <g id="line2d_6">
      <g>
       <use xlink:href="#ma00c6b3f7d" x="163.705477" y="174.04" style="stroke: #000000; stroke-width: 0.8"/>
      </g>
     </g>
     <g id="text_3">
      <!-- 0 -->
      <g transform="translate(160.524227 188.638438) scale(0.1 -0.1)">
       <defs>
        <path id="DejaVuSans-30" d="M 2034 4250 
Q 1547 4250 1301 3770 
Q 1056 3291 1056 2328 
Q 1056 1369 1301 889 
Q 1547 409 2034 409 
Q 2525 409 2770 889 
Q 3016 1369 3016 2328 
Q 3016 3291 2770 3770 
Q 2525 4250 2034 4250 
z
M 2034 4750 
Q 2819 4750 3233 4129 
Q 3647 3509 3647 2328 
Q 3647 1150 3233 529 
Q 2819 -91 2034 -91 
Q 1250 -91 836 529 
Q 422 1150 422 2328 
Q 422 3509 836 4129 
Q 1250 4750 2034 4750 
z
" transform="scale(0.015625)"/>
       </defs>
       <use xlink:href="#DejaVuSans-30"/>
      </g>
     </g>
    </g>
    <g id="xtick_4">
     <g id="line2d_7">
      <path d="M 201.467006 174.04 
L 201.467006 10.8 
" clip-path="url(#pd14faee99c)" style="fill: none; stroke: #b0b0b0; stroke-width: 0.8; stroke-linecap: square"/>
     </g>
     <g id="line2d_8">
      <g>
       <use xlink:href="#ma00c6b3f7d" x="201.467006" y="174.04" style="stroke: #000000; stroke-width: 0.8"/>
      </g>
     </g>
     <g id="text_4">
      <!-- 2 -->
      <g transform="translate(198.285756 188.638438) scale(0.1 -0.1)">
       <use xlink:href="#DejaVuSans-32"/>
      </g>
     </g>
    </g>
    <g id="xtick_5">
     <g id="line2d_9">
      <path d="M 239.228534 174.04 
L 239.228534 10.8 
" clip-path="url(#pd14faee99c)" style="fill: none; stroke: #b0b0b0; stroke-width: 0.8; stroke-linecap: square"/>
     </g>
     <g id="line2d_10">
      <g>
       <use xlink:href="#ma00c6b3f7d" x="239.228534" y="174.04" style="stroke: #000000; stroke-width: 0.8"/>
      </g>
     </g>
     <g id="text_5">
      <!-- 4 -->
      <g transform="translate(236.047284 188.638438) scale(0.1 -0.1)">
       <use xlink:href="#DejaVuSans-34"/>
      </g>
     </g>
    </g>
    <g id="xtick_6">
     <g id="line2d_11">
      <path d="M 276.990063 174.04 
L 276.990063 10.8 
" clip-path="url(#pd14faee99c)" style="fill: none; stroke: #b0b0b0; stroke-width: 0.8; stroke-linecap: square"/>
     </g>
     <g id="line2d_12">
      <g>
       <use xlink:href="#ma00c6b3f7d" x="276.990063" y="174.04" style="stroke: #000000; stroke-width: 0.8"/>
      </g>
     </g>
     <g id="text_6">
      <!-- 6 -->
      <g transform="translate(273.808813 188.638438) scale(0.1 -0.1)">
       <defs>
        <path id="DejaVuSans-36" d="M 2113 2584 
Q 1688 2584 1439 2293 
Q 1191 2003 1191 1497 
Q 1191 994 1439 701 
Q 1688 409 2113 409 
Q 2538 409 2786 701 
Q 3034 994 3034 1497 
Q 3034 2003 2786 2293 
Q 2538 2584 2113 2584 
z
M 3366 4563 
L 3366 3988 
Q 3128 4100 2886 4159 
Q 2644 4219 2406 4219 
Q 1781 4219 1451 3797 
Q 1122 3375 1075 2522 
Q 1259 2794 1537 2939 
Q 1816 3084 2150 3084 
Q 2853 3084 3261 2657 
Q 3669 2231 3669 1497 
Q 3669 778 3244 343 
Q 2819 -91 2113 -91 
Q 1303 -91 875 529 
Q 447 1150 447 2328 
Q 447 3434 972 4092 
Q 1497 4750 2381 4750 
Q 2619 4750 2861 4703 
Q 3103 4656 3366 4563 
z
" transform="scale(0.015625)"/>
       </defs>
       <use xlink:href="#DejaVuSans-36"/>
      </g>
     </g>
    </g>
    <g id="text_7">
     <!-- $\alpha$ -->
     <g transform="translate(188.726624 202.316563) scale(0.1 -0.1)">
      <defs>
       <path id="DejaVuSans-Oblique-3b1" d="M 2619 1628 
L 2622 2350 
Q 2625 3088 2069 3091 
Q 1653 3094 1394 2747 
Q 1069 2319 959 1747 
Q 825 1059 994 731 
Q 1169 397 1547 397 
Q 1966 397 2319 1063 
L 2619 1628 
z
M 2166 3578 
Q 3141 3594 3128 2584 
Q 3128 2584 3616 3500 
L 4128 3500 
L 3119 1603 
L 3109 919 
Q 3109 766 3194 638 
Q 3291 488 3391 488 
L 3669 488 
L 3575 0 
L 3228 0 
Q 2934 0 2722 263 
Q 2622 394 2619 669 
Q 2416 334 2066 50 
Q 1900 -81 1453 -78 
Q 722 -72 456 397 
Q 184 884 353 1747 
Q 534 2675 1009 3097 
Q 1544 3569 2166 3578 
z
" transform="scale(0.015625)"/>
      </defs>
      <use xlink:href="#DejaVuSans-Oblique-3b1" transform="translate(0 0.84375)"/>
     </g>
    </g>
   </g>
   <g id="matplotlib.axis_2">
    <g id="ytick_1">
     <g id="line2d_13">
      <path d="M 77.798 158.902524 
L 306.255247 158.902524 
" clip-path="url(#pd14faee99c)" style="fill: none; stroke: #b0b0b0; stroke-width: 0.8; stroke-linecap: square"/>
     </g>
     <g id="line2d_14">
      <defs>
       <path id="mcb6978d5e6" d="M 0 0 
L -3.5 0 
" style="stroke: #000000; stroke-width: 0.8"/>
      </defs>
      <g>
       <use xlink:href="#mcb6978d5e6" x="77.798" y="158.902524" style="stroke: #000000; stroke-width: 0.8"/>
      </g>
     </g>
     <g id="text_8">
      <!-- −0.0005 -->
      <g transform="translate(27.427687 162.701743) scale(0.1 -0.1)">
       <defs>
        <path id="DejaVuSans-2e" d="M 684 794 
L 1344 794 
L 1344 0 
L 684 0 
L 684 794 
z
" transform="scale(0.015625)"/>
        <path id="DejaVuSans-35" d="M 691 4666 
L 3169 4666 
L 3169 4134 
L 1269 4134 
L 1269 2991 
Q 1406 3038 1543 3061 
Q 1681 3084 1819 3084 
Q 2600 3084 3056 2656 
Q 3513 2228 3513 1497 
Q 3513 744 3044 326 
Q 2575 -91 1722 -91 
Q 1428 -91 1123 -41 
Q 819 9 494 109 
L 494 744 
Q 775 591 1075 516 
Q 1375 441 1709 441 
Q 2250 441 2565 725 
Q 2881 1009 2881 1497 
Q 2881 1984 2565 2268 
Q 2250 2553 1709 2553 
Q 1456 2553 1204 2497 
Q 953 2441 691 2322 
L 691 4666 
z
" transform="scale(0.015625)"/>
       </defs>
       <use xlink:href="#DejaVuSans-2212"/>
       <use xlink:href="#DejaVuSans-30" x="83.789062"/>
       <use xlink:href="#DejaVuSans-2e" x="147.412109"/>
       <use xlink:href="#DejaVuSans-30" x="179.199219"/>
       <use xlink:href="#DejaVuSans-30" x="242.822266"/>
       <use xlink:href="#DejaVuSans-30" x="306.445312"/>
       <use xlink:href="#DejaVuSans-35" x="370.068359"/>
      </g>
     </g>
    </g>
    <g id="ytick_2">
     <g id="line2d_15">
      <path d="M 77.798 128.878313 
L 306.255247 128.878313 
" clip-path="url(#pd14faee99c)" style="fill: none; stroke: #b0b0b0; stroke-width: 0.8; stroke-linecap: square"/>
     </g>
     <g id="line2d_16">
      <g>
       <use xlink:href="#mcb6978d5e6" x="77.798" y="128.878313" style="stroke: #000000; stroke-width: 0.8"/>
      </g>
     </g>
     <g id="text_9">
      <!-- 0.0000 -->
      <g transform="translate(35.807375 132.677532) scale(0.1 -0.1)">
       <use xlink:href="#DejaVuSans-30"/>
       <use xlink:href="#DejaVuSans-2e" x="63.623047"/>
       <use xlink:href="#DejaVuSans-30" x="95.410156"/>
       <use xlink:href="#DejaVuSans-30" x="159.033203"/>
       <use xlink:href="#DejaVuSans-30" x="222.65625"/>
       <use xlink:href="#DejaVuSans-30" x="286.279297"/>
      </g>
     </g>
    </g>
    <g id="ytick_3">
     <g id="line2d_17">
      <path d="M 77.798 98.854102 
L 306.255247 98.854102 
" clip-path="url(#pd14faee99c)" style="fill: none; stroke: #b0b0b0; stroke-width: 0.8; stroke-linecap: square"/>
     </g>
     <g id="line2d_18">
      <g>
       <use xlink:href="#mcb6978d5e6" x="77.798" y="98.854102" style="stroke: #000000; stroke-width: 0.8"/>
      </g>
     </g>
     <g id="text_10">
      <!-- 0.0005 -->
      <g transform="translate(35.807375 102.653321) scale(0.1 -0.1)">
       <use xlink:href="#DejaVuSans-30"/>
       <use xlink:href="#DejaVuSans-2e" x="63.623047"/>
       <use xlink:href="#DejaVuSans-30" x="95.410156"/>
       <use xlink:href="#DejaVuSans-30" x="159.033203"/>
       <use xlink:href="#DejaVuSans-30" x="222.65625"/>
       <use xlink:href="#DejaVuSans-35" x="286.279297"/>
      </g>
     </g>
    </g>
    <g id="ytick_4">
     <g id="line2d_19">
      <path d="M 77.798 68.829891 
L 306.255247 68.829891 
" clip-path="url(#pd14faee99c)" style="fill: none; stroke: #b0b0b0; stroke-width: 0.8; stroke-linecap: square"/>
     </g>
     <g id="line2d_20">
      <g>
       <use xlink:href="#mcb6978d5e6" x="77.798" y="68.829891" style="stroke: #000000; stroke-width: 0.8"/>
      </g>
     </g>
     <g id="text_11">
      <!-- 0.0010 -->
      <g transform="translate(35.807375 72.62911) scale(0.1 -0.1)">
       <defs>
        <path id="DejaVuSans-31" d="M 794 531 
L 1825 531 
L 1825 4091 
L 703 3866 
L 703 4441 
L 1819 4666 
L 2450 4666 
L 2450 531 
L 3481 531 
L 3481 0 
L 794 0 
L 794 531 
z
" transform="scale(0.015625)"/>
       </defs>
       <use xlink:href="#DejaVuSans-30"/>
       <use xlink:href="#DejaVuSans-2e" x="63.623047"/>
       <use xlink:href="#DejaVuSans-30" x="95.410156"/>
       <use xlink:href="#DejaVuSans-30" x="159.033203"/>
       <use xlink:href="#DejaVuSans-31" x="222.65625"/>
       <use xlink:href="#DejaVuSans-30" x="286.279297"/>
      </g>
     </g>
    </g>
    <g id="ytick_5">
     <g id="line2d_21">
      <path d="M 77.798 38.80568 
L 306.255247 38.80568 
" clip-path="url(#pd14faee99c)" style="fill: none; stroke: #b0b0b0; stroke-width: 0.8; stroke-linecap: square"/>
     </g>
     <g id="line2d_22">
      <g>
       <use xlink:href="#mcb6978d5e6" x="77.798" y="38.80568" style="stroke: #000000; stroke-width: 0.8"/>
      </g>
     </g>
     <g id="text_12">
      <!-- 0.0015 -->
      <g transform="translate(35.807375 42.604898) scale(0.1 -0.1)">
       <use xlink:href="#DejaVuSans-30"/>
       <use xlink:href="#DejaVuSans-2e" x="63.623047"/>
       <use xlink:href="#DejaVuSans-30" x="95.410156"/>
       <use xlink:href="#DejaVuSans-30" x="159.033203"/>
       <use xlink:href="#DejaVuSans-31" x="222.65625"/>
       <use xlink:href="#DejaVuSans-35" x="286.279297"/>
      </g>
     </g>
    </g>
    <g id="text_13">
     <!-- d$C_D$ / d$\delta_e$ -->
     <g transform="translate(21.348 115.32) rotate(-90) scale(0.1 -0.1)">
      <defs>
       <path id="DejaVuSans-64" d="M 2906 2969 
L 2906 4863 
L 3481 4863 
L 3481 0 
L 2906 0 
L 2906 525 
Q 2725 213 2448 61 
Q 2172 -91 1784 -91 
Q 1150 -91 751 415 
Q 353 922 353 1747 
Q 353 2572 751 3078 
Q 1150 3584 1784 3584 
Q 2172 3584 2448 3432 
Q 2725 3281 2906 2969 
z
M 947 1747 
Q 947 1113 1208 752 
Q 1469 391 1925 391 
Q 2381 391 2643 752 
Q 2906 1113 2906 1747 
Q 2906 2381 2643 2742 
Q 2381 3103 1925 3103 
Q 1469 3103 1208 2742 
Q 947 2381 947 1747 
z
" transform="scale(0.015625)"/>
       <path id="DejaVuSans-Oblique-43" d="M 4447 4306 
L 4319 3641 
Q 4019 3944 3683 4091 
Q 3347 4238 2956 4238 
Q 2422 4238 2017 3981 
Q 1613 3725 1319 3200 
Q 1131 2863 1032 2486 
Q 934 2109 934 1728 
Q 934 1091 1264 756 
Q 1594 422 2222 422 
Q 2656 422 3056 561 
Q 3456 700 3834 978 
L 3688 231 
Q 3316 72 2936 -9 
Q 2556 -91 2175 -91 
Q 1278 -91 773 396 
Q 269 884 269 1753 
Q 269 2309 461 2846 
Q 653 3384 1013 3828 
Q 1394 4300 1883 4525 
Q 2372 4750 3022 4750 
Q 3422 4750 3780 4639 
Q 4138 4528 4447 4306 
z
" transform="scale(0.015625)"/>
       <path id="DejaVuSans-Oblique-44" d="M 1081 4666 
L 2438 4666 
Q 3519 4666 4070 4208 
Q 4622 3750 4622 2847 
Q 4622 2250 4412 1698 
Q 4203 1147 3834 769 
Q 3463 381 2891 190 
Q 2319 0 1538 0 
L 172 0 
L 1081 4666 
z
M 1613 4147 
L 909 519 
L 1734 519 
Q 2794 519 3375 1128 
Q 3956 1738 3956 2847 
Q 3956 3519 3581 3833 
Q 3206 4147 2406 4147 
L 1613 4147 
z
" transform="scale(0.015625)"/>
       <path id="DejaVuSans-20" transform="scale(0.015625)"/>
       <path id="DejaVuSans-2f" d="M 1625 4666 
L 2156 4666 
L 531 -594 
L 0 -594 
L 1625 4666 
z
" transform="scale(0.015625)"/>
       <path id="DejaVuSans-Oblique-3b4" d="M 3472 4053 
Q 3197 4272 2450 4272 
Q 1659 4272 1588 3906 
Q 1531 3619 2328 3469 
Q 2953 3353 3253 3003 
Q 3616 2581 3447 1716 
Q 3284 888 2763 400 
Q 2238 -91 1488 -91 
Q 741 -91 406 400 
Q 72 888 241 1747 
Q 363 2384 891 2900 
Q 1097 3100 1353 3213 
Q 913 3459 1000 3900 
Q 1166 4750 2544 4750 
Q 3234 4750 3566 4531 
L 3472 4053 
z
M 1753 3056 
Q 1525 2966 1306 2738 
Q 969 2384 847 1747 
Q 722 1113 919 756 
Q 1119 397 1584 397 
Q 2044 397 2381 759 
Q 2722 1122 2838 1716 
Q 2956 2338 2731 2638 
Q 2491 2959 2103 2994 
Q 1906 3013 1753 3056 
z
" transform="scale(0.015625)"/>
       <path id="DejaVuSans-Oblique-65" d="M 3078 2063 
Q 3088 2113 3092 2166 
Q 3097 2219 3097 2272 
Q 3097 2653 2873 2875 
Q 2650 3097 2266 3097 
Q 1838 3097 1509 2826 
Q 1181 2556 1013 2059 
L 3078 2063 
z
M 3578 1613 
L 903 1613 
Q 884 1494 878 1425 
Q 872 1356 872 1306 
Q 872 872 1139 634 
Q 1406 397 1894 397 
Q 2269 397 2603 481 
Q 2938 566 3225 728 
L 3116 159 
Q 2806 34 2476 -28 
Q 2147 -91 1806 -91 
Q 1078 -91 686 257 
Q 294 606 294 1247 
Q 294 1794 489 2264 
Q 684 2734 1063 3103 
Q 1306 3334 1642 3459 
Q 1978 3584 2356 3584 
Q 2950 3584 3301 3228 
Q 3653 2872 3653 2272 
Q 3653 2128 3634 1964 
Q 3616 1800 3578 1613 
z
" transform="scale(0.015625)"/>
      </defs>
      <use xlink:href="#DejaVuSans-64" transform="translate(0 0.015625)"/>
      <use xlink:href="#DejaVuSans-Oblique-43" transform="translate(63.476562 0.015625)"/>
      <use xlink:href="#DejaVuSans-Oblique-44" transform="translate(133.300781 -16.390625) scale(0.7)"/>
      <use xlink:href="#DejaVuSans-20" transform="translate(189.936523 0.015625)"/>
      <use xlink:href="#DejaVuSans-2f" transform="translate(221.723633 0.015625)"/>
      <use xlink:href="#DejaVuSans-20" transform="translate(255.415039 0.015625)"/>
      <use xlink:href="#DejaVuSans-64" transform="translate(287.202148 0.015625)"/>
      <use xlink:href="#DejaVuSans-Oblique-3b4" transform="translate(350.678711 0.015625)"/>
      <use xlink:href="#DejaVuSans-Oblique-65" transform="translate(411.860352 -16.390625) scale(0.7)"/>
     </g>
    </g>
   </g>
   <g id="line2d_23">
    <path d="M 88.18242 42.422545 
L 90.280283 42.014032 
L 92.378146 41.608866 
L 94.476008 41.207049 
L 96.573871 40.808579 
L 98.671734 40.413457 
L 100.769597 40.021682 
L 102.867459 39.633256 
L 104.965322 39.248177 
L 107.063185 38.866446 
L 109.161047 38.488063 
L 111.25891 38.113028 
L 113.356773 37.741341 
L 115.454635 37.373001 
L 117.552498 37.00801 
L 119.650361 36.646366 
L 121.748223 36.28807 
L 123.846086 35.933122 
L 125.943949 35.581521 
L 128.041812 35.233269 
L 130.139674 34.888364 
L 132.237537 34.546807 
L 134.3354 34.208598 
L 136.433262 33.873736 
L 138.531125 33.542223 
L 140.628988 33.214057 
L 142.72685 32.889239 
L 144.824713 32.567769 
L 146.922576 32.249647 
L 149.020438 31.934873 
L 151.118301 31.623446 
L 153.216164 31.315367 
L 155.314027 31.010637 
L 157.411889 30.709253 
L 159.509752 30.411218 
L 161.607615 30.116531 
L 163.705477 29.825191 
L 165.80334 29.537199 
L 167.901203 29.252555 
L 169.999065 28.971259 
L 172.096928 28.693311 
L 174.194791 28.41871 
L 176.292654 28.147457 
L 178.390516 27.879553 
L 180.488379 27.614995 
L 182.586242 27.353786 
L 184.684104 27.095925 
L 186.781967 26.841411 
L 188.87983 26.590245 
L 190.977692 26.342427 
L 193.075555 26.097957 
L 195.173418 25.856835 
L 197.27128 25.61906 
L 199.369143 25.384634 
L 201.467006 25.153555 
L 203.564869 24.925824 
L 205.662731 24.701441 
L 207.760594 24.480405 
L 209.858457 24.262718 
L 211.956319 24.048378 
L 214.054182 23.837386 
L 216.152045 23.629742 
L 218.249907 23.425445 
L 220.34777 23.224497 
L 222.445633 23.026896 
L 224.543495 22.832643 
L 226.641358 22.641738 
L 228.739221 22.454181 
L 230.837084 22.269972 
L 232.934946 22.08911 
L 235.032809 21.911597 
L 237.130672 21.737431 
L 239.228534 21.566613 
L 241.326397 21.399142 
L 243.42426 21.23502 
L 245.522122 21.074245 
L 247.619985 20.916818 
L 249.717848 20.762739 
L 251.815711 20.612008 
L 253.913573 20.464625 
L 256.011436 20.320589 
L 258.109299 20.179902 
L 260.207161 20.042562 
L 262.305024 19.90857 
L 264.402887 19.777925 
L 266.500749 19.650629 
L 268.598612 19.52668 
L 270.696475 19.406079 
L 272.794337 19.288827 
L 274.8922 19.174921 
L 276.990063 19.064364 
L 279.087926 18.957155 
L 281.185788 18.853293 
L 283.283651 18.752779 
L 285.381514 18.655613 
L 287.479376 18.561795 
L 289.577239 18.471324 
L 291.675102 18.384202 
L 293.772964 18.300427 
L 295.870827 18.22 
" clip-path="url(#pd14faee99c)" style="fill: none; stroke: #000080; stroke-width: 1.5; stroke-linecap: square"/>
   </g>
   <g id="line2d_24">
    <path d="M 88.18242 78.338332 
L 90.280283 78.17667 
L 92.378146 78.014823 
L 94.476008 77.85279 
L 96.573871 77.690573 
L 98.671734 77.52817 
L 100.769597 77.365581 
L 102.867459 77.202808 
L 104.965322 77.039849 
L 107.063185 76.876704 
L 109.161047 76.713375 
L 111.25891 76.54986 
L 113.356773 76.386159 
L 115.454635 76.222274 
L 117.552498 76.058203 
L 119.650361 75.893947 
L 121.748223 75.729505 
L 123.846086 75.564878 
L 125.943949 75.400066 
L 128.041812 75.235069 
L 130.139674 75.069886 
L 132.237537 74.904518 
L 134.3354 74.738964 
L 136.433262 74.573225 
L 138.531125 74.407301 
L 140.628988 74.241192 
L 142.72685 74.074897 
L 144.824713 73.908417 
L 146.922576 73.741752 
L 149.020438 73.574901 
L 151.118301 73.407865 
L 153.216164 73.240644 
L 155.314027 73.073237 
L 157.411889 72.905645 
L 159.509752 72.737868 
L 161.607615 72.569905 
L 163.705477 72.401757 
L 165.80334 72.233424 
L 167.901203 72.064906 
L 169.999065 71.896202 
L 172.096928 71.727313 
L 174.194791 71.558238 
L 176.292654 71.388978 
L 178.390516 71.219533 
L 180.488379 71.049903 
L 182.586242 70.880087 
L 184.684104 70.710086 
L 186.781967 70.539899 
L 188.87983 70.369528 
L 190.977692 70.198971 
L 193.075555 70.028228 
L 195.173418 69.857301 
L 197.27128 69.686188 
L 199.369143 69.514889 
L 201.467006 69.343406 
L 203.564869 69.171737 
L 205.662731 68.999882 
L 207.760594 68.827843 
L 209.858457 68.655618 
L 211.956319 68.483208 
L 214.054182 68.310612 
L 216.152045 68.137831 
L 218.249907 67.964865 
L 220.34777 67.791713 
L 222.445633 67.618377 
L 224.543495 67.444854 
L 226.641358 67.271147 
L 228.739221 67.097254 
L 230.837084 66.923176 
L 232.934946 66.748913 
L 235.032809 66.574464 
L 237.130672 66.39983 
L 239.228534 66.225011 
L 241.326397 66.050006 
L 243.42426 65.874816 
L 245.522122 65.69944 
L 247.619985 65.52388 
L 249.717848 65.348134 
L 251.815711 65.172203 
L 253.913573 64.996086 
L 256.011436 64.819784 
L 258.109299 64.643297 
L 260.207161 64.466624 
L 262.305024 64.289766 
L 264.402887 64.112723 
L 266.500749 63.935495 
L 268.598612 63.758081 
L 270.696475 63.580482 
L 272.794337 63.402697 
L 274.8922 63.224727 
L 276.990063 63.046572 
L 279.087926 62.868232 
L 281.185788 62.689706 
L 283.283651 62.510995 
L 285.381514 62.332099 
L 287.479376 62.153017 
L 289.577239 61.97375 
L 291.675102 61.794297 
L 293.772964 61.61466 
L 295.870827 61.434837 
" clip-path="url(#pd14faee99c)" style="fill: none; stroke: #0080ff; stroke-width: 1.5; stroke-linecap: square"/>
   </g>
   <g id="line2d_25">
    <path d="M 88.18242 109.055875 
L 90.280283 109.004274 
L 92.378146 108.951977 
L 94.476008 108.898984 
L 96.573871 108.845296 
L 98.671734 108.790912 
L 100.769597 108.735833 
L 102.867459 108.680058 
L 104.965322 108.623588 
L 107.063185 108.566422 
L 109.161047 108.50856 
L 111.25891 108.450003 
L 113.356773 108.39075 
L 115.454635 108.330802 
L 117.552498 108.270158 
L 119.650361 108.208819 
L 121.748223 108.146784 
L 123.846086 108.084053 
L 125.943949 108.020627 
L 128.041812 107.956506 
L 130.139674 107.891688 
L 132.237537 107.826175 
L 134.3354 107.759967 
L 136.433262 107.693063 
L 138.531125 107.625463 
L 140.628988 107.557168 
L 142.72685 107.488178 
L 144.824713 107.418491 
L 146.922576 107.34811 
L 149.020438 107.277032 
L 151.118301 107.205259 
L 153.216164 107.132791 
L 155.314027 107.059626 
L 157.411889 106.985767 
L 159.509752 106.911211 
L 161.607615 106.835961 
L 163.705477 106.760014 
L 165.80334 106.683372 
L 167.901203 106.606035 
L 169.999065 106.528001 
L 172.096928 106.449273 
L 174.194791 106.369848 
L 176.292654 106.289729 
L 178.390516 106.208913 
L 180.488379 106.127402 
L 182.586242 106.045195 
L 184.684104 105.962293 
L 186.781967 105.878696 
L 188.87983 105.794402 
L 190.977692 105.709413 
L 193.075555 105.623729 
L 195.173418 105.537349 
L 197.27128 105.450273 
L 199.369143 105.362502 
L 201.467006 105.274036 
L 203.564869 105.184873 
L 205.662731 105.095015 
L 207.760594 105.004462 
L 209.858457 104.913213 
L 211.956319 104.821268 
L 214.054182 104.728628 
L 216.152045 104.635292 
L 218.249907 104.541261 
L 220.34777 104.446534 
L 222.445633 104.351112 
L 224.543495 104.254994 
L 226.641358 104.15818 
L 228.739221 104.060671 
L 230.837084 103.962466 
L 232.934946 103.863566 
L 235.032809 103.76397 
L 237.130672 103.663679 
L 239.228534 103.562692 
L 241.326397 103.461009 
L 243.42426 103.358631 
L 245.522122 103.255557 
L 247.619985 103.151788 
L 249.717848 103.047323 
L 251.815711 102.942162 
L 253.913573 102.836306 
L 256.011436 102.729755 
L 258.109299 102.622508 
L 260.207161 102.514565 
L 262.305024 102.405927 
L 264.402887 102.296593 
L 266.500749 102.186563 
L 268.598612 102.075838 
L 270.696475 101.964418 
L 272.794337 101.852301 
L 274.8922 101.73949 
L 276.990063 101.625982 
L 279.087926 101.511779 
L 281.185788 101.396881 
L 283.283651 101.281287 
L 285.381514 101.164997 
L 287.479376 101.048012 
L 289.577239 100.930331 
L 291.675102 100.811955 
L 293.772964 100.692883 
L 295.870827 100.573116 
" clip-path="url(#pd14faee99c)" style="fill: none; stroke: #7dff7a; stroke-width: 1.5; stroke-linecap: square"/>
   </g>
   <g id="line2d_26">
    <path d="M 88.18242 134.575176 
L 90.280283 134.496844 
L 92.378146 134.420328 
L 94.476008 134.34563 
L 96.573871 134.272749 
L 98.671734 134.201685 
L 100.769597 134.132438 
L 102.867459 134.065008 
L 104.965322 133.999395 
L 107.063185 133.935599 
L 109.161047 133.873621 
L 111.25891 133.813459 
L 113.356773 133.755114 
L 115.454635 133.698587 
L 117.552498 133.643876 
L 119.650361 133.590983 
L 121.748223 133.539906 
L 123.846086 133.490647 
L 125.943949 133.443205 
L 128.041812 133.397579 
L 130.139674 133.353771 
L 132.237537 133.31178 
L 134.3354 133.271606 
L 136.433262 133.233249 
L 138.531125 133.196709 
L 140.628988 133.161986 
L 142.72685 133.129081 
L 144.824713 133.097992 
L 146.922576 133.06872 
L 149.020438 133.041266 
L 151.118301 133.015628 
L 153.216164 132.991808 
L 155.314027 132.969804 
L 157.411889 132.949618 
L 159.509752 132.931248 
L 161.607615 132.914696 
L 163.705477 132.899961 
L 165.80334 132.887043 
L 167.901203 132.875942 
L 169.999065 132.866658 
L 172.096928 132.859191 
L 174.194791 132.853541 
L 176.292654 132.849708 
L 178.390516 132.847692 
L 180.488379 132.847494 
L 182.586242 132.849112 
L 184.684104 132.852547 
L 186.781967 132.8578 
L 188.87983 132.864869 
L 190.977692 132.873756 
L 193.075555 132.88446 
L 195.173418 132.89698 
L 197.27128 132.911318 
L 199.369143 132.927473 
L 201.467006 132.945445 
L 203.564869 132.965234 
L 205.662731 132.98684 
L 207.760594 133.010263 
L 209.858457 133.035503 
L 211.956319 133.06256 
L 214.054182 133.091434 
L 216.152045 133.122126 
L 218.249907 133.154634 
L 220.34777 133.188959 
L 222.445633 133.225102 
L 224.543495 133.263061 
L 226.641358 133.302838 
L 228.739221 133.344432 
L 230.837084 133.387842 
L 232.934946 133.43307 
L 235.032809 133.480115 
L 237.130672 133.528977 
L 239.228534 133.579656 
L 241.326397 133.632152 
L 243.42426 133.686465 
L 245.522122 133.742595 
L 247.619985 133.800542 
L 249.717848 133.860307 
L 251.815711 133.921888 
L 253.913573 133.985286 
L 256.011436 134.050502 
L 258.109299 134.117534 
L 260.207161 134.186384 
L 262.305024 134.257051 
L 264.402887 134.329534 
L 266.500749 134.403835 
L 268.598612 134.479953 
L 270.696475 134.557888 
L 272.794337 134.63764 
L 274.8922 134.719209 
L 276.990063 134.802595 
L 279.087926 134.887798 
L 281.185788 134.974818 
L 283.283651 135.063655 
L 285.381514 135.154309 
L 287.479376 135.246781 
L 289.577239 135.341069 
L 291.675102 135.437175 
L 293.772964 135.535097 
L 295.870827 135.634837 
" clip-path="url(#pd14faee99c)" style="fill: none; stroke: #ff9400; stroke-width: 1.5; stroke-linecap: square"/>
   </g>
   <g id="line2d_27">
    <path d="M 88.18242 154.896234 
L 90.280283 154.65438 
L 92.378146 154.419878 
L 94.476008 154.192728 
L 96.573871 153.972932 
L 98.671734 153.760488 
L 100.769597 153.555396 
L 102.867459 153.357657 
L 104.965322 153.167271 
L 107.063185 152.984237 
L 109.161047 152.808556 
L 111.25891 152.640227 
L 113.356773 152.479251 
L 115.454635 152.325627 
L 117.552498 152.179356 
L 119.650361 152.040438 
L 121.748223 151.908872 
L 123.846086 151.784659 
L 125.943949 151.667798 
L 128.041812 151.55829 
L 130.139674 151.456135 
L 132.237537 151.361332 
L 134.3354 151.273882 
L 136.433262 151.193784 
L 138.531125 151.121039 
L 140.628988 151.055646 
L 142.72685 150.997606 
L 144.824713 150.946919 
L 146.922576 150.903584 
L 149.020438 150.867602 
L 151.118301 150.838972 
L 153.216164 150.817695 
L 155.314027 150.80377 
L 157.411889 150.797198 
L 159.509752 150.797979 
L 161.607615 150.806112 
L 163.705477 150.821598 
L 165.80334 150.844436 
L 167.901203 150.874627 
L 169.999065 150.912171 
L 172.096928 150.957067 
L 174.194791 151.009316 
L 176.292654 151.068917 
L 178.390516 151.135871 
L 180.488379 151.210177 
L 182.586242 151.291836 
L 184.684104 151.380848 
L 186.781967 151.477212 
L 188.87983 151.580929 
L 190.977692 151.691998 
L 193.075555 151.81042 
L 195.173418 151.936194 
L 197.27128 152.069321 
L 199.369143 152.209801 
L 201.467006 152.357633 
L 203.564869 152.512818 
L 205.662731 152.675355 
L 207.760594 152.845245 
L 209.858457 153.022488 
L 211.956319 153.207083 
L 214.054182 153.39903 
L 216.152045 153.598331 
L 218.249907 153.804983 
L 220.34777 154.018989 
L 222.445633 154.240347 
L 224.543495 154.469057 
L 226.641358 154.70512 
L 228.739221 154.948536 
L 230.837084 155.199304 
L 232.934946 155.457425 
L 235.032809 155.722899 
L 237.130672 155.995725 
L 239.228534 156.275903 
L 241.326397 156.563435 
L 243.42426 156.858318 
L 245.522122 157.160555 
L 247.619985 157.470144 
L 249.717848 157.787085 
L 251.815711 158.111379 
L 253.913573 158.443026 
L 256.011436 158.782025 
L 258.109299 159.128377 
L 260.207161 159.482081 
L 262.305024 159.843138 
L 264.402887 160.211548 
L 266.500749 160.58731 
L 268.598612 160.970424 
L 270.696475 161.360892 
L 272.794337 161.758712 
L 274.8922 162.163884 
L 276.990063 162.576409 
L 279.087926 162.996287 
L 281.185788 163.423517 
L 283.283651 163.858099 
L 285.381514 164.300035 
L 287.479376 164.749323 
L 289.577239 165.205963 
L 291.675102 165.669956 
L 293.772964 166.141302 
L 295.870827 166.62 
" clip-path="url(#pd14faee99c)" style="fill: none; stroke: #800000; stroke-width: 1.5; stroke-linecap: square"/>
   </g>
   <g id="patch_3">
    <path d="M 77.798 174.04 
L 77.798 10.8 
" style="fill: none; stroke: #000000; stroke-width: 0.8; stroke-linejoin: miter; stroke-linecap: square"/>
   </g>
   <g id="patch_4">
    <path d="M 306.255247 174.04 
L 306.255247 10.8 
" style="fill: none; stroke: #000000; stroke-width: 0.8; stroke-linejoin: miter; stroke-linecap: square"/>
   </g>
   <g id="patch_5">
    <path d="M 77.798 174.04 
L 306.255247 174.04 
" style="fill: none; stroke: #000000; stroke-width: 0.8; stroke-linejoin: miter; stroke-linecap: square"/>
   </g>
   <g id="patch_6">
    <path d="M 77.798 10.8 
L 306.255247 10.8 
" style="fill: none; stroke: #000000; stroke-width: 0.8; stroke-linejoin: miter; stroke-linecap: square"/>
   </g>
   <g id="legend_1">
    <g id="patch_7">
     <path d="M 315.255247 162.878 
L 420.455247 162.878 
Q 422.455247 162.878 422.455247 160.878 
L 422.455247 88.385812 
Q 422.455247 86.385812 420.455247 86.385812 
L 315.255247 86.385812 
Q 313.255247 86.385812 313.255247 88.385812 
L 313.255247 160.878 
Q 313.255247 162.878 315.255247 162.878 
z
" style="fill: #4d4d4d; opacity: 0.5; stroke: #4d4d4d; stroke-linejoin: miter"/>
    </g>
    <g id="patch_8">
     <path d="M 313.255247 160.878 
L 418.455247 160.878 
Q 420.455247 160.878 420.455247 158.878 
L 420.455247 86.385812 
Q 420.455247 84.385812 418.455247 84.385812 
L 313.255247 84.385812 
Q 311.255247 84.385812 311.255247 86.385812 
L 311.255247 158.878 
Q 311.255247 160.878 313.255247 160.878 
z
" style="fill: #ffffff; stroke: #cccccc; stroke-linejoin: miter"/>
    </g>
    <g id="line2d_28">
     <path d="M 315.255247 92.48425 
L 325.255247 92.48425 
L 335.255247 92.48425 
" style="fill: none; stroke: #000080; stroke-width: 1.5; stroke-linecap: square"/>
    </g>
    <g id="text_14">
     <!-- $\delta_e = 0$, $J = 1.60$ -->
     <g transform="translate(343.255247 95.98425) scale(0.1 -0.1)">
      <defs>
       <path id="DejaVuSans-3d" d="M 678 2906 
L 4684 2906 
L 4684 2381 
L 678 2381 
L 678 2906 
z
M 678 1631 
L 4684 1631 
L 4684 1100 
L 678 1100 
L 678 1631 
z
" transform="scale(0.015625)"/>
       <path id="DejaVuSans-2c" d="M 750 794 
L 1409 794 
L 1409 256 
L 897 -744 
L 494 -744 
L 750 256 
L 750 794 
z
" transform="scale(0.015625)"/>
       <path id="DejaVuSans-Oblique-4a" d="M 1069 4666 
L 1703 4666 
L 856 325 
Q 691 -522 298 -901 
Q -94 -1281 -800 -1281 
L -1050 -1281 
L -947 -750 
L -750 -750 
Q -328 -750 -109 -509 
Q 109 -269 225 325 
L 1069 4666 
z
" transform="scale(0.015625)"/>
      </defs>
      <use xlink:href="#DejaVuSans-Oblique-3b4" transform="translate(0 0.78125)"/>
      <use xlink:href="#DejaVuSans-Oblique-65" transform="translate(61.181641 -15.625) scale(0.7)"/>
      <use xlink:href="#DejaVuSans-3d" transform="translate(126.464844 0.78125)"/>
      <use xlink:href="#DejaVuSans-30" transform="translate(229.736328 0.78125)"/>
      <use xlink:href="#DejaVuSans-2c" transform="translate(293.359375 0.78125)"/>
      <use xlink:href="#DejaVuSans-20" transform="translate(325.146484 0.78125)"/>
      <use xlink:href="#DejaVuSans-Oblique-4a" transform="translate(356.933594 0.78125)"/>
      <use xlink:href="#DejaVuSans-3d" transform="translate(405.908203 0.78125)"/>
      <use xlink:href="#DejaVuSans-31" transform="translate(509.179688 0.78125)"/>
      <use xlink:href="#DejaVuSans-2e" transform="translate(572.802734 0.78125)"/>
      <use xlink:href="#DejaVuSans-36" transform="translate(604.589844 0.78125)"/>
      <use xlink:href="#DejaVuSans-30" transform="translate(668.212891 0.78125)"/>
     </g>
    </g>
    <g id="line2d_29">
     <path d="M 315.255247 107.182688 
L 325.255247 107.182688 
L 335.255247 107.182688 
" style="fill: none; stroke: #0080ff; stroke-width: 1.5; stroke-linecap: square"/>
    </g>
    <g id="text_15">
     <!-- $\delta_e = 0$, $J = 1.80$ -->
     <g transform="translate(343.255247 110.682688) scale(0.1 -0.1)">
      <defs>
       <path id="DejaVuSans-38" d="M 2034 2216 
Q 1584 2216 1326 1975 
Q 1069 1734 1069 1313 
Q 1069 891 1326 650 
Q 1584 409 2034 409 
Q 2484 409 2743 651 
Q 3003 894 3003 1313 
Q 3003 1734 2745 1975 
Q 2488 2216 2034 2216 
z
M 1403 2484 
Q 997 2584 770 2862 
Q 544 3141 544 3541 
Q 544 4100 942 4425 
Q 1341 4750 2034 4750 
Q 2731 4750 3128 4425 
Q 3525 4100 3525 3541 
Q 3525 3141 3298 2862 
Q 3072 2584 2669 2484 
Q 3125 2378 3379 2068 
Q 3634 1759 3634 1313 
Q 3634 634 3220 271 
Q 2806 -91 2034 -91 
Q 1263 -91 848 271 
Q 434 634 434 1313 
Q 434 1759 690 2068 
Q 947 2378 1403 2484 
z
M 1172 3481 
Q 1172 3119 1398 2916 
Q 1625 2713 2034 2713 
Q 2441 2713 2670 2916 
Q 2900 3119 2900 3481 
Q 2900 3844 2670 4047 
Q 2441 4250 2034 4250 
Q 1625 4250 1398 4047 
Q 1172 3844 1172 3481 
z
" transform="scale(0.015625)"/>
      </defs>
      <use xlink:href="#DejaVuSans-Oblique-3b4" transform="translate(0 0.78125)"/>
      <use xlink:href="#DejaVuSans-Oblique-65" transform="translate(61.181641 -15.625) scale(0.7)"/>
      <use xlink:href="#DejaVuSans-3d" transform="translate(126.464844 0.78125)"/>
      <use xlink:href="#DejaVuSans-30" transform="translate(229.736328 0.78125)"/>
      <use xlink:href="#DejaVuSans-2c" transform="translate(293.359375 0.78125)"/>
      <use xlink:href="#DejaVuSans-20" transform="translate(325.146484 0.78125)"/>
      <use xlink:href="#DejaVuSans-Oblique-4a" transform="translate(356.933594 0.78125)"/>
      <use xlink:href="#DejaVuSans-3d" transform="translate(405.908203 0.78125)"/>
      <use xlink:href="#DejaVuSans-31" transform="translate(509.179688 0.78125)"/>
      <use xlink:href="#DejaVuSans-2e" transform="translate(572.802734 0.78125)"/>
      <use xlink:href="#DejaVuSans-38" transform="translate(601.964844 0.78125)"/>
      <use xlink:href="#DejaVuSans-30" transform="translate(665.587891 0.78125)"/>
     </g>
    </g>
    <g id="line2d_30">
     <path d="M 315.255247 121.881125 
L 325.255247 121.881125 
L 335.255247 121.881125 
" style="fill: none; stroke: #7dff7a; stroke-width: 1.5; stroke-linecap: square"/>
    </g>
    <g id="text_16">
     <!-- $\delta_e = 0$, $J = 2.00$ -->
     <g transform="translate(343.255247 125.381125) scale(0.1 -0.1)">
      <use xlink:href="#DejaVuSans-Oblique-3b4" transform="translate(0 0.78125)"/>
      <use xlink:href="#DejaVuSans-Oblique-65" transform="translate(61.181641 -15.625) scale(0.7)"/>
      <use xlink:href="#DejaVuSans-3d" transform="translate(126.464844 0.78125)"/>
      <use xlink:href="#DejaVuSans-30" transform="translate(229.736328 0.78125)"/>
      <use xlink:href="#DejaVuSans-2c" transform="translate(293.359375 0.78125)"/>
      <use xlink:href="#DejaVuSans-20" transform="translate(325.146484 0.78125)"/>
      <use xlink:href="#DejaVuSans-Oblique-4a" transform="translate(356.933594 0.78125)"/>
      <use xlink:href="#DejaVuSans-3d" transform="translate(405.908203 0.78125)"/>
      <use xlink:href="#DejaVuSans-32" transform="translate(509.179688 0.78125)"/>
      <use xlink:href="#DejaVuSans-2e" transform="translate(572.802734 0.78125)"/>
      <use xlink:href="#DejaVuSans-30" transform="translate(604.589844 0.78125)"/>
      <use xlink:href="#DejaVuSans-30" transform="translate(668.212891 0.78125)"/>
     </g>
    </g>
    <g id="line2d_31">
     <path d="M 315.255247 136.579563 
L 325.255247 136.579563 
L 335.255247 136.579563 
" style="fill: none; stroke: #ff9400; stroke-width: 1.5; stroke-linecap: square"/>
    </g>
    <g id="text_17">
     <!-- $\delta_e = 0$, $J = 2.20$ -->
     <g transform="translate(343.255247 140.079563) scale(0.1 -0.1)">
      <use xlink:href="#DejaVuSans-Oblique-3b4" transform="translate(0 0.78125)"/>
      <use xlink:href="#DejaVuSans-Oblique-65" transform="translate(61.181641 -15.625) scale(0.7)"/>
      <use xlink:href="#DejaVuSans-3d" transform="translate(126.464844 0.78125)"/>
      <use xlink:href="#DejaVuSans-30" transform="translate(229.736328 0.78125)"/>
      <use xlink:href="#DejaVuSans-2c" transform="translate(293.359375 0.78125)"/>
      <use xlink:href="#DejaVuSans-20" transform="translate(325.146484 0.78125)"/>
      <use xlink:href="#DejaVuSans-Oblique-4a" transform="translate(356.933594 0.78125)"/>
      <use xlink:href="#DejaVuSans-3d" transform="translate(405.908203 0.78125)"/>
      <use xlink:href="#DejaVuSans-32" transform="translate(509.179688 0.78125)"/>
      <use xlink:href="#DejaVuSans-2e" transform="translate(572.802734 0.78125)"/>
      <use xlink:href="#DejaVuSans-32" transform="translate(599.089844 0.78125)"/>
      <use xlink:href="#DejaVuSans-30" transform="translate(662.712891 0.78125)"/>
     </g>
    </g>
    <g id="line2d_32">
     <path d="M 315.255247 151.278 
L 325.255247 151.278 
L 335.255247 151.278 
" style="fill: none; stroke: #800000; stroke-width: 1.5; stroke-linecap: square"/>
    </g>
    <g id="text_18">
     <!-- $\delta_e = 0$, $J = 2.40$ -->
     <g transform="translate(343.255247 154.778) scale(0.1 -0.1)">
      <use xlink:href="#DejaVuSans-Oblique-3b4" transform="translate(0 0.78125)"/>
      <use xlink:href="#DejaVuSans-Oblique-65" transform="translate(61.181641 -15.625) scale(0.7)"/>
      <use xlink:href="#DejaVuSans-3d" transform="translate(126.464844 0.78125)"/>
      <use xlink:href="#DejaVuSans-30" transform="translate(229.736328 0.78125)"/>
      <use xlink:href="#DejaVuSans-2c" transform="translate(293.359375 0.78125)"/>
      <use xlink:href="#DejaVuSans-20" transform="translate(325.146484 0.78125)"/>
      <use xlink:href="#DejaVuSans-Oblique-4a" transform="translate(356.933594 0.78125)"/>
      <use xlink:href="#DejaVuSans-3d" transform="translate(405.908203 0.78125)"/>
      <use xlink:href="#DejaVuSans-32" transform="translate(509.179688 0.78125)"/>
      <use xlink:href="#DejaVuSans-2e" transform="translate(572.802734 0.78125)"/>
      <use xlink:href="#DejaVuSans-34" transform="translate(604.589844 0.78125)"/>
      <use xlink:href="#DejaVuSans-30" transform="translate(668.212891 0.78125)"/>
     </g>
    </g>
   </g>
  </g>
 </g>
 <defs>
  <clipPath id="pd14faee99c">
   <rect x="77.798" y="10.8" width="228.457247" height="163.24"/>
  </clipPath>
 </defs>
</svg>
