<?xml version="1.0" encoding="utf-8" standalone="no"?>
<!DOCTYPE svg PUBLIC "-//W3C//DTD SVG 1.1//EN"
  "http://www.w3.org/Graphics/SVG/1.1/DTD/svg11.dtd">
<svg xmlns:xlink="http://www.w3.org/1999/xlink" width="432pt" height="216pt" viewBox="0 0 432 216" xmlns="http://www.w3.org/2000/svg" version="1.1">
 <metadata>
  <rdf:RDF xmlns:dc="http://purl.org/dc/elements/1.1/" xmlns:cc="http://creativecommons.org/ns#" xmlns:rdf="http://www.w3.org/1999/02/22-rdf-syntax-ns#">
   <cc:Work>
    <dc:type rdf:resource="http://purl.org/dc/dcmitype/StillImage"/>
    <dc:date>2025-03-31T00:02:13.660399</dc:date>
    <dc:format>image/svg+xml</dc:format>
    <dc:creator>
     <cc:Agent>
      <dc:title>Matplotlib v3.9.2, https://matplotlib.org/</dc:title>
     </cc:Agent>
    </dc:creator>
   </cc:Work>
  </rdf:RDF>
 </metadata>
 <defs>
  <style type="text/css">*{stroke-linejoin: round; stroke-linecap: butt}</style>
 </defs>
 <g id="figure_1">
  <g id="patch_1">
   <path d="M 0 216 
L 432 216 
L 432 0 
L 0 0 
z
" style="fill: #ffffff"/>
  </g>
  <g id="axes_1">
   <g id="patch_2">
    <path d="M 77.798 174.04 
L 306.255247 174.04 
L 306.255247 10.8 
L 77.798 10.8 
z
" style="fill: #ffffff"/>
   </g>
   <g id="matplotlib.axis_1">
    <g id="xtick_1">
     <g id="line2d_1">
      <path d="M 88.18242 174.04 
L 88.18242 10.8 
" clip-path="url(#p0c16d24374)" style="fill: none; stroke: #b0b0b0; stroke-width: 0.8; stroke-linecap: square"/>
     </g>
     <g id="line2d_2">
      <defs>
       <path id="m398d5dfd83" d="M 0 0 
L 0 3.5 
" style="stroke: #000000; stroke-width: 0.8"/>
      </defs>
      <g>
       <use xlink:href="#m398d5dfd83" x="88.18242" y="174.04" style="stroke: #000000; stroke-width: 0.8"/>
      </g>
     </g>
     <g id="text_1">
      <!-- −4 -->
      <g transform="translate(80.811327 188.638438) scale(0.1 -0.1)">
       <defs>
        <path id="DejaVuSans-2212" d="M 678 2272 
L 4684 2272 
L 4684 1741 
L 678 1741 
L 678 2272 
z
" transform="scale(0.015625)"/>
        <path id="DejaVuSans-34" d="M 2419 4116 
L 825 1625 
L 2419 1625 
L 2419 4116 
z
M 2253 4666 
L 3047 4666 
L 3047 1625 
L 3713 1625 
L 3713 1100 
L 3047 1100 
L 3047 0 
L 2419 0 
L 2419 1100 
L 313 1100 
L 313 1709 
L 2253 4666 
z
" transform="scale(0.015625)"/>
       </defs>
       <use xlink:href="#DejaVuSans-2212"/>
       <use xlink:href="#DejaVuSans-34" x="83.789062"/>
      </g>
     </g>
    </g>
    <g id="xtick_2">
     <g id="line2d_3">
      <path d="M 125.943949 174.04 
L 125.943949 10.8 
" clip-path="url(#p0c16d24374)" style="fill: none; stroke: #b0b0b0; stroke-width: 0.8; stroke-linecap: square"/>
     </g>
     <g id="line2d_4">
      <g>
       <use xlink:href="#m398d5dfd83" x="125.943949" y="174.04" style="stroke: #000000; stroke-width: 0.8"/>
      </g>
     </g>
     <g id="text_2">
      <!-- −2 -->
      <g transform="translate(118.572855 188.638438) scale(0.1 -0.1)">
       <defs>
        <path id="DejaVuSans-32" d="M 1228 531 
L 3431 531 
L 3431 0 
L 469 0 
L 469 531 
Q 828 903 1448 1529 
Q 2069 2156 2228 2338 
Q 2531 2678 2651 2914 
Q 2772 3150 2772 3378 
Q 2772 3750 2511 3984 
Q 2250 4219 1831 4219 
Q 1534 4219 1204 4116 
Q 875 4013 500 3803 
L 500 4441 
Q 881 4594 1212 4672 
Q 1544 4750 1819 4750 
Q 2544 4750 2975 4387 
Q 3406 4025 3406 3419 
Q 3406 3131 3298 2873 
Q 3191 2616 2906 2266 
Q 2828 2175 2409 1742 
Q 1991 1309 1228 531 
z
" transform="scale(0.015625)"/>
       </defs>
       <use xlink:href="#DejaVuSans-2212"/>
       <use xlink:href="#DejaVuSans-32" x="83.789062"/>
      </g>
     </g>
    </g>
    <g id="xtick_3">
     <g id="line2d_5">
      <path d="M 163.705477 174.04 
L 163.705477 10.8 
" clip-path="url(#p0c16d24374)" style="fill: none; stroke: #b0b0b0; stroke-width: 0.8; stroke-linecap: square"/>
     </g>
     <g id="line2d_6">
      <g>
       <use xlink:href="#m398d5dfd83" x="163.705477" y="174.04" style="stroke: #000000; stroke-width: 0.8"/>
      </g>
     </g>
     <g id="text_3">
      <!-- 0 -->
      <g transform="translate(160.524227 188.638438) scale(0.1 -0.1)">
       <defs>
        <path id="DejaVuSans-30" d="M 2034 4250 
Q 1547 4250 1301 3770 
Q 1056 3291 1056 2328 
Q 1056 1369 1301 889 
Q 1547 409 2034 409 
Q 2525 409 2770 889 
Q 3016 1369 3016 2328 
Q 3016 3291 2770 3770 
Q 2525 4250 2034 4250 
z
M 2034 4750 
Q 2819 4750 3233 4129 
Q 3647 3509 3647 2328 
Q 3647 1150 3233 529 
Q 2819 -91 2034 -91 
Q 1250 -91 836 529 
Q 422 1150 422 2328 
Q 422 3509 836 4129 
Q 1250 4750 2034 4750 
z
" transform="scale(0.015625)"/>
       </defs>
       <use xlink:href="#DejaVuSans-30"/>
      </g>
     </g>
    </g>
    <g id="xtick_4">
     <g id="line2d_7">
      <path d="M 201.467006 174.04 
L 201.467006 10.8 
" clip-path="url(#p0c16d24374)" style="fill: none; stroke: #b0b0b0; stroke-width: 0.8; stroke-linecap: square"/>
     </g>
     <g id="line2d_8">
      <g>
       <use xlink:href="#m398d5dfd83" x="201.467006" y="174.04" style="stroke: #000000; stroke-width: 0.8"/>
      </g>
     </g>
     <g id="text_4">
      <!-- 2 -->
      <g transform="translate(198.285756 188.638438) scale(0.1 -0.1)">
       <use xlink:href="#DejaVuSans-32"/>
      </g>
     </g>
    </g>
    <g id="xtick_5">
     <g id="line2d_9">
      <path d="M 239.228534 174.04 
L 239.228534 10.8 
" clip-path="url(#p0c16d24374)" style="fill: none; stroke: #b0b0b0; stroke-width: 0.8; stroke-linecap: square"/>
     </g>
     <g id="line2d_10">
      <g>
       <use xlink:href="#m398d5dfd83" x="239.228534" y="174.04" style="stroke: #000000; stroke-width: 0.8"/>
      </g>
     </g>
     <g id="text_5">
      <!-- 4 -->
      <g transform="translate(236.047284 188.638438) scale(0.1 -0.1)">
       <use xlink:href="#DejaVuSans-34"/>
      </g>
     </g>
    </g>
    <g id="xtick_6">
     <g id="line2d_11">
      <path d="M 276.990063 174.04 
L 276.990063 10.8 
" clip-path="url(#p0c16d24374)" style="fill: none; stroke: #b0b0b0; stroke-width: 0.8; stroke-linecap: square"/>
     </g>
     <g id="line2d_12">
      <g>
       <use xlink:href="#m398d5dfd83" x="276.990063" y="174.04" style="stroke: #000000; stroke-width: 0.8"/>
      </g>
     </g>
     <g id="text_6">
      <!-- 6 -->
      <g transform="translate(273.808813 188.638438) scale(0.1 -0.1)">
       <defs>
        <path id="DejaVuSans-36" d="M 2113 2584 
Q 1688 2584 1439 2293 
Q 1191 2003 1191 1497 
Q 1191 994 1439 701 
Q 1688 409 2113 409 
Q 2538 409 2786 701 
Q 3034 994 3034 1497 
Q 3034 2003 2786 2293 
Q 2538 2584 2113 2584 
z
M 3366 4563 
L 3366 3988 
Q 3128 4100 2886 4159 
Q 2644 4219 2406 4219 
Q 1781 4219 1451 3797 
Q 1122 3375 1075 2522 
Q 1259 2794 1537 2939 
Q 1816 3084 2150 3084 
Q 2853 3084 3261 2657 
Q 3669 2231 3669 1497 
Q 3669 778 3244 343 
Q 2819 -91 2113 -91 
Q 1303 -91 875 529 
Q 447 1150 447 2328 
Q 447 3434 972 4092 
Q 1497 4750 2381 4750 
Q 2619 4750 2861 4703 
Q 3103 4656 3366 4563 
z
" transform="scale(0.015625)"/>
       </defs>
       <use xlink:href="#DejaVuSans-36"/>
      </g>
     </g>
    </g>
    <g id="text_7">
     <!-- $\alpha$ -->
     <g transform="translate(188.726624 202.316563) scale(0.1 -0.1)">
      <defs>
       <path id="DejaVuSans-Oblique-3b1" d="M 2619 1628 
L 2622 2350 
Q 2625 3088 2069 3091 
Q 1653 3094 1394 2747 
Q 1069 2319 959 1747 
Q 825 1059 994 731 
Q 1169 397 1547 397 
Q 1966 397 2319 1063 
L 2619 1628 
z
M 2166 3578 
Q 3141 3594 3128 2584 
Q 3128 2584 3616 3500 
L 4128 3500 
L 3119 1603 
L 3109 919 
Q 3109 766 3194 638 
Q 3291 488 3391 488 
L 3669 488 
L 3575 0 
L 3228 0 
Q 2934 0 2722 263 
Q 2622 394 2619 669 
Q 2416 334 2066 50 
Q 1900 -81 1453 -78 
Q 722 -72 456 397 
Q 184 884 353 1747 
Q 534 2675 1009 3097 
Q 1544 3569 2166 3578 
z
" transform="scale(0.015625)"/>
      </defs>
      <use xlink:href="#DejaVuSans-Oblique-3b1" transform="translate(0 0.84375)"/>
     </g>
    </g>
   </g>
   <g id="matplotlib.axis_2">
    <g id="ytick_1">
     <g id="line2d_13">
      <path d="M 77.798 161.394379 
L 306.255247 161.394379 
" clip-path="url(#p0c16d24374)" style="fill: none; stroke: #b0b0b0; stroke-width: 0.8; stroke-linecap: square"/>
     </g>
     <g id="line2d_14">
      <defs>
       <path id="m0d1b6c1d2d" d="M 0 0 
L -3.5 0 
" style="stroke: #000000; stroke-width: 0.8"/>
      </defs>
      <g>
       <use xlink:href="#m0d1b6c1d2d" x="77.798" y="161.394379" style="stroke: #000000; stroke-width: 0.8"/>
      </g>
     </g>
     <g id="text_8">
      <!-- −0.0002 -->
      <g transform="translate(27.427687 165.193598) scale(0.1 -0.1)">
       <defs>
        <path id="DejaVuSans-2e" d="M 684 794 
L 1344 794 
L 1344 0 
L 684 0 
L 684 794 
z
" transform="scale(0.015625)"/>
       </defs>
       <use xlink:href="#DejaVuSans-2212"/>
       <use xlink:href="#DejaVuSans-30" x="83.789062"/>
       <use xlink:href="#DejaVuSans-2e" x="147.412109"/>
       <use xlink:href="#DejaVuSans-30" x="179.199219"/>
       <use xlink:href="#DejaVuSans-30" x="242.822266"/>
       <use xlink:href="#DejaVuSans-30" x="306.445312"/>
       <use xlink:href="#DejaVuSans-32" x="370.068359"/>
      </g>
     </g>
    </g>
    <g id="ytick_2">
     <g id="line2d_15">
      <path d="M 77.798 133.400238 
L 306.255247 133.400238 
" clip-path="url(#p0c16d24374)" style="fill: none; stroke: #b0b0b0; stroke-width: 0.8; stroke-linecap: square"/>
     </g>
     <g id="line2d_16">
      <g>
       <use xlink:href="#m0d1b6c1d2d" x="77.798" y="133.400238" style="stroke: #000000; stroke-width: 0.8"/>
      </g>
     </g>
     <g id="text_9">
      <!-- −0.0001 -->
      <g transform="translate(27.427687 137.199456) scale(0.1 -0.1)">
       <defs>
        <path id="DejaVuSans-31" d="M 794 531 
L 1825 531 
L 1825 4091 
L 703 3866 
L 703 4441 
L 1819 4666 
L 2450 4666 
L 2450 531 
L 3481 531 
L 3481 0 
L 794 0 
L 794 531 
z
" transform="scale(0.015625)"/>
       </defs>
       <use xlink:href="#DejaVuSans-2212"/>
       <use xlink:href="#DejaVuSans-30" x="83.789062"/>
       <use xlink:href="#DejaVuSans-2e" x="147.412109"/>
       <use xlink:href="#DejaVuSans-30" x="179.199219"/>
       <use xlink:href="#DejaVuSans-30" x="242.822266"/>
       <use xlink:href="#DejaVuSans-30" x="306.445312"/>
       <use xlink:href="#DejaVuSans-31" x="370.068359"/>
      </g>
     </g>
    </g>
    <g id="ytick_3">
     <g id="line2d_17">
      <path d="M 77.798 105.406096 
L 306.255247 105.406096 
" clip-path="url(#p0c16d24374)" style="fill: none; stroke: #b0b0b0; stroke-width: 0.8; stroke-linecap: square"/>
     </g>
     <g id="line2d_18">
      <g>
       <use xlink:href="#m0d1b6c1d2d" x="77.798" y="105.406096" style="stroke: #000000; stroke-width: 0.8"/>
      </g>
     </g>
     <g id="text_10">
      <!-- 0.0000 -->
      <g transform="translate(35.807375 109.205315) scale(0.1 -0.1)">
       <use xlink:href="#DejaVuSans-30"/>
       <use xlink:href="#DejaVuSans-2e" x="63.623047"/>
       <use xlink:href="#DejaVuSans-30" x="95.410156"/>
       <use xlink:href="#DejaVuSans-30" x="159.033203"/>
       <use xlink:href="#DejaVuSans-30" x="222.65625"/>
       <use xlink:href="#DejaVuSans-30" x="286.279297"/>
      </g>
     </g>
    </g>
    <g id="ytick_4">
     <g id="line2d_19">
      <path d="M 77.798 77.411954 
L 306.255247 77.411954 
" clip-path="url(#p0c16d24374)" style="fill: none; stroke: #b0b0b0; stroke-width: 0.8; stroke-linecap: square"/>
     </g>
     <g id="line2d_20">
      <g>
       <use xlink:href="#m0d1b6c1d2d" x="77.798" y="77.411954" style="stroke: #000000; stroke-width: 0.8"/>
      </g>
     </g>
     <g id="text_11">
      <!-- 0.0001 -->
      <g transform="translate(35.807375 81.211173) scale(0.1 -0.1)">
       <use xlink:href="#DejaVuSans-30"/>
       <use xlink:href="#DejaVuSans-2e" x="63.623047"/>
       <use xlink:href="#DejaVuSans-30" x="95.410156"/>
       <use xlink:href="#DejaVuSans-30" x="159.033203"/>
       <use xlink:href="#DejaVuSans-30" x="222.65625"/>
       <use xlink:href="#DejaVuSans-31" x="286.279297"/>
      </g>
     </g>
    </g>
    <g id="ytick_5">
     <g id="line2d_21">
      <path d="M 77.798 49.417813 
L 306.255247 49.417813 
" clip-path="url(#p0c16d24374)" style="fill: none; stroke: #b0b0b0; stroke-width: 0.8; stroke-linecap: square"/>
     </g>
     <g id="line2d_22">
      <g>
       <use xlink:href="#m0d1b6c1d2d" x="77.798" y="49.417813" style="stroke: #000000; stroke-width: 0.8"/>
      </g>
     </g>
     <g id="text_12">
      <!-- 0.0002 -->
      <g transform="translate(35.807375 53.217032) scale(0.1 -0.1)">
       <use xlink:href="#DejaVuSans-30"/>
       <use xlink:href="#DejaVuSans-2e" x="63.623047"/>
       <use xlink:href="#DejaVuSans-30" x="95.410156"/>
       <use xlink:href="#DejaVuSans-30" x="159.033203"/>
       <use xlink:href="#DejaVuSans-30" x="222.65625"/>
       <use xlink:href="#DejaVuSans-32" x="286.279297"/>
      </g>
     </g>
    </g>
    <g id="ytick_6">
     <g id="line2d_23">
      <path d="M 77.798 21.423671 
L 306.255247 21.423671 
" clip-path="url(#p0c16d24374)" style="fill: none; stroke: #b0b0b0; stroke-width: 0.8; stroke-linecap: square"/>
     </g>
     <g id="line2d_24">
      <g>
       <use xlink:href="#m0d1b6c1d2d" x="77.798" y="21.423671" style="stroke: #000000; stroke-width: 0.8"/>
      </g>
     </g>
     <g id="text_13">
      <!-- 0.0003 -->
      <g transform="translate(35.807375 25.22289) scale(0.1 -0.1)">
       <defs>
        <path id="DejaVuSans-33" d="M 2597 2516 
Q 3050 2419 3304 2112 
Q 3559 1806 3559 1356 
Q 3559 666 3084 287 
Q 2609 -91 1734 -91 
Q 1441 -91 1130 -33 
Q 819 25 488 141 
L 488 750 
Q 750 597 1062 519 
Q 1375 441 1716 441 
Q 2309 441 2620 675 
Q 2931 909 2931 1356 
Q 2931 1769 2642 2001 
Q 2353 2234 1838 2234 
L 1294 2234 
L 1294 2753 
L 1863 2753 
Q 2328 2753 2575 2939 
Q 2822 3125 2822 3475 
Q 2822 3834 2567 4026 
Q 2313 4219 1838 4219 
Q 1578 4219 1281 4162 
Q 984 4106 628 3988 
L 628 4550 
Q 988 4650 1302 4700 
Q 1616 4750 1894 4750 
Q 2613 4750 3031 4423 
Q 3450 4097 3450 3541 
Q 3450 3153 3228 2886 
Q 3006 2619 2597 2516 
z
" transform="scale(0.015625)"/>
       </defs>
       <use xlink:href="#DejaVuSans-30"/>
       <use xlink:href="#DejaVuSans-2e" x="63.623047"/>
       <use xlink:href="#DejaVuSans-30" x="95.410156"/>
       <use xlink:href="#DejaVuSans-30" x="159.033203"/>
       <use xlink:href="#DejaVuSans-30" x="222.65625"/>
       <use xlink:href="#DejaVuSans-33" x="286.279297"/>
      </g>
     </g>
    </g>
    <g id="text_14">
     <!-- d$C_D$ / d$\delta_e$ -->
     <g transform="translate(21.348 115.32) rotate(-90) scale(0.1 -0.1)">
      <defs>
       <path id="DejaVuSans-64" d="M 2906 2969 
L 2906 4863 
L 3481 4863 
L 3481 0 
L 2906 0 
L 2906 525 
Q 2725 213 2448 61 
Q 2172 -91 1784 -91 
Q 1150 -91 751 415 
Q 353 922 353 1747 
Q 353 2572 751 3078 
Q 1150 3584 1784 3584 
Q 2172 3584 2448 3432 
Q 2725 3281 2906 2969 
z
M 947 1747 
Q 947 1113 1208 752 
Q 1469 391 1925 391 
Q 2381 391 2643 752 
Q 2906 1113 2906 1747 
Q 2906 2381 2643 2742 
Q 2381 3103 1925 3103 
Q 1469 3103 1208 2742 
Q 947 2381 947 1747 
z
" transform="scale(0.015625)"/>
       <path id="DejaVuSans-Oblique-43" d="M 4447 4306 
L 4319 3641 
Q 4019 3944 3683 4091 
Q 3347 4238 2956 4238 
Q 2422 4238 2017 3981 
Q 1613 3725 1319 3200 
Q 1131 2863 1032 2486 
Q 934 2109 934 1728 
Q 934 1091 1264 756 
Q 1594 422 2222 422 
Q 2656 422 3056 561 
Q 3456 700 3834 978 
L 3688 231 
Q 3316 72 2936 -9 
Q 2556 -91 2175 -91 
Q 1278 -91 773 396 
Q 269 884 269 1753 
Q 269 2309 461 2846 
Q 653 3384 1013 3828 
Q 1394 4300 1883 4525 
Q 2372 4750 3022 4750 
Q 3422 4750 3780 4639 
Q 4138 4528 4447 4306 
z
" transform="scale(0.015625)"/>
       <path id="DejaVuSans-Oblique-44" d="M 1081 4666 
L 2438 4666 
Q 3519 4666 4070 4208 
Q 4622 3750 4622 2847 
Q 4622 2250 4412 1698 
Q 4203 1147 3834 769 
Q 3463 381 2891 190 
Q 2319 0 1538 0 
L 172 0 
L 1081 4666 
z
M 1613 4147 
L 909 519 
L 1734 519 
Q 2794 519 3375 1128 
Q 3956 1738 3956 2847 
Q 3956 3519 3581 3833 
Q 3206 4147 2406 4147 
L 1613 4147 
z
" transform="scale(0.015625)"/>
       <path id="DejaVuSans-20" transform="scale(0.015625)"/>
       <path id="DejaVuSans-2f" d="M 1625 4666 
L 2156 4666 
L 531 -594 
L 0 -594 
L 1625 4666 
z
" transform="scale(0.015625)"/>
       <path id="DejaVuSans-Oblique-3b4" d="M 3472 4053 
Q 3197 4272 2450 4272 
Q 1659 4272 1588 3906 
Q 1531 3619 2328 3469 
Q 2953 3353 3253 3003 
Q 3616 2581 3447 1716 
Q 3284 888 2763 400 
Q 2238 -91 1488 -91 
Q 741 -91 406 400 
Q 72 888 241 1747 
Q 363 2384 891 2900 
Q 1097 3100 1353 3213 
Q 913 3459 1000 3900 
Q 1166 4750 2544 4750 
Q 3234 4750 3566 4531 
L 3472 4053 
z
M 1753 3056 
Q 1525 2966 1306 2738 
Q 969 2384 847 1747 
Q 722 1113 919 756 
Q 1119 397 1584 397 
Q 2044 397 2381 759 
Q 2722 1122 2838 1716 
Q 2956 2338 2731 2638 
Q 2491 2959 2103 2994 
Q 1906 3013 1753 3056 
z
" transform="scale(0.015625)"/>
       <path id="DejaVuSans-Oblique-65" d="M 3078 2063 
Q 3088 2113 3092 2166 
Q 3097 2219 3097 2272 
Q 3097 2653 2873 2875 
Q 2650 3097 2266 3097 
Q 1838 3097 1509 2826 
Q 1181 2556 1013 2059 
L 3078 2063 
z
M 3578 1613 
L 903 1613 
Q 884 1494 878 1425 
Q 872 1356 872 1306 
Q 872 872 1139 634 
Q 1406 397 1894 397 
Q 2269 397 2603 481 
Q 2938 566 3225 728 
L 3116 159 
Q 2806 34 2476 -28 
Q 2147 -91 1806 -91 
Q 1078 -91 686 257 
Q 294 606 294 1247 
Q 294 1794 489 2264 
Q 684 2734 1063 3103 
Q 1306 3334 1642 3459 
Q 1978 3584 2356 3584 
Q 2950 3584 3301 3228 
Q 3653 2872 3653 2272 
Q 3653 2128 3634 1964 
Q 3616 1800 3578 1613 
z
" transform="scale(0.015625)"/>
      </defs>
      <use xlink:href="#DejaVuSans-64" transform="translate(0 0.015625)"/>
      <use xlink:href="#DejaVuSans-Oblique-43" transform="translate(63.476562 0.015625)"/>
      <use xlink:href="#DejaVuSans-Oblique-44" transform="translate(133.300781 -16.390625) scale(0.7)"/>
      <use xlink:href="#DejaVuSans-20" transform="translate(189.936523 0.015625)"/>
      <use xlink:href="#DejaVuSans-2f" transform="translate(221.723633 0.015625)"/>
      <use xlink:href="#DejaVuSans-20" transform="translate(255.415039 0.015625)"/>
      <use xlink:href="#DejaVuSans-64" transform="translate(287.202148 0.015625)"/>
      <use xlink:href="#DejaVuSans-Oblique-3b4" transform="translate(350.678711 0.015625)"/>
      <use xlink:href="#DejaVuSans-Oblique-65" transform="translate(411.860352 -16.390625) scale(0.7)"/>
     </g>
    </g>
   </g>
   <g id="line2d_25">
    <path d="M 88.18242 149.858611 
L 90.280283 147.981789 
L 92.378146 146.116134 
L 94.476008 144.261645 
L 96.573871 142.418321 
L 98.671734 140.586164 
L 100.769597 138.765173 
L 102.867459 136.955348 
L 104.965322 135.15669 
L 107.063185 133.369197 
L 109.161047 131.59287 
L 111.25891 129.82771 
L 113.356773 128.073715 
L 115.454635 126.330887 
L 117.552498 124.599225 
L 119.650361 122.878728 
L 121.748223 121.169398 
L 123.846086 119.471234 
L 125.943949 117.784236 
L 128.041812 116.108405 
L 130.139674 114.443739 
L 132.237537 112.790239 
L 134.3354 111.147906 
L 136.433262 109.516738 
L 138.531125 107.896737 
L 140.628988 106.287902 
L 142.72685 104.690233 
L 144.824713 103.10373 
L 146.922576 101.528393 
L 149.020438 99.964222 
L 151.118301 98.411217 
L 153.216164 96.869378 
L 155.314027 95.338706 
L 157.411889 93.819199 
L 159.509752 92.310859 
L 161.607615 90.813684 
L 163.705477 89.327676 
L 165.80334 87.852834 
L 167.901203 86.389158 
L 169.999065 84.936648 
L 172.096928 83.495304 
L 174.194791 82.065126 
L 176.292654 80.646115 
L 178.390516 79.238269 
L 180.488379 77.84159 
L 182.586242 76.456076 
L 184.684104 75.081729 
L 186.781967 73.718548 
L 188.87983 72.366533 
L 190.977692 71.025684 
L 193.075555 69.696001 
L 195.173418 68.377484 
L 197.27128 67.070133 
L 199.369143 65.773948 
L 201.467006 64.48893 
L 203.564869 63.215077 
L 205.662731 61.952391 
L 207.760594 60.700871 
L 209.858457 59.460516 
L 211.956319 58.231328 
L 214.054182 57.013306 
L 216.152045 55.80645 
L 218.249907 54.610761 
L 220.34777 53.426237 
L 222.445633 52.252879 
L 224.543495 51.090688 
L 226.641358 49.939662 
L 228.739221 48.799803 
L 230.837084 47.67111 
L 232.934946 46.553582 
L 235.032809 45.447221 
L 237.130672 44.352026 
L 239.228534 43.267997 
L 241.326397 42.195135 
L 243.42426 41.133438 
L 245.522122 40.082907 
L 247.619985 39.043543 
L 249.717848 38.015344 
L 251.815711 36.998312 
L 253.913573 35.992446 
L 256.011436 34.997746 
L 258.109299 34.014211 
L 260.207161 33.041843 
L 262.305024 32.080642 
L 264.402887 31.130606 
L 266.500749 30.191736 
L 268.598612 29.264032 
L 270.696475 28.347495 
L 272.794337 27.442124 
L 274.8922 26.547918 
L 276.990063 25.664879 
L 279.087926 24.793006 
L 281.185788 23.932299 
L 283.283651 23.082758 
L 285.381514 22.244383 
L 287.479376 21.417174 
L 289.577239 20.601131 
L 291.675102 19.796255 
L 293.772964 19.002544 
L 295.870827 18.22 
" clip-path="url(#p0c16d24374)" style="fill: none; stroke: #000080; stroke-width: 1.5; stroke-linecap: square"/>
   </g>
   <g id="line2d_26">
    <path d="M 88.18242 119.534859 
L 90.280283 119.153937 
L 92.378146 118.765556 
L 94.476008 118.369716 
L 96.573871 117.966417 
L 98.671734 117.555659 
L 100.769597 117.137442 
L 102.867459 116.711766 
L 104.965322 116.278631 
L 107.063185 115.838037 
L 109.161047 115.389984 
L 111.25891 114.934471 
L 113.356773 114.4715 
L 115.454635 114.00107 
L 117.552498 113.523181 
L 119.650361 113.037833 
L 121.748223 112.545026 
L 123.846086 112.04476 
L 125.943949 111.537034 
L 128.041812 111.02185 
L 130.139674 110.499207 
L 132.237537 109.969105 
L 134.3354 109.431544 
L 136.433262 108.886523 
L 138.531125 108.334044 
L 140.628988 107.774106 
L 142.72685 107.206709 
L 144.824713 106.631853 
L 146.922576 106.049537 
L 149.020438 105.459763 
L 151.118301 104.86253 
L 153.216164 104.257837 
L 155.314027 103.645686 
L 157.411889 103.026076 
L 159.509752 102.399006 
L 161.607615 101.764478 
L 163.705477 101.122491 
L 165.80334 100.473044 
L 167.901203 99.816139 
L 169.999065 99.151775 
L 172.096928 98.479951 
L 174.194791 97.800669 
L 176.292654 97.113928 
L 178.390516 96.419727 
L 180.488379 95.718068 
L 182.586242 95.008949 
L 184.684104 94.292372 
L 186.781967 93.568335 
L 188.87983 92.83684 
L 190.977692 92.097886 
L 193.075555 91.351472 
L 195.173418 90.5976 
L 197.27128 89.836268 
L 199.369143 89.067478 
L 201.467006 88.291228 
L 203.564869 87.50752 
L 205.662731 86.716352 
L 207.760594 85.917726 
L 209.858457 85.11164 
L 211.956319 84.298095 
L 214.054182 83.477092 
L 216.152045 82.648629 
L 218.249907 81.812708 
L 220.34777 80.969327 
L 222.445633 80.118487 
L 224.543495 79.260189 
L 226.641358 78.394431 
L 228.739221 77.521215 
L 230.837084 76.640539 
L 232.934946 75.752404 
L 235.032809 74.856811 
L 237.130672 73.953758 
L 239.228534 73.043246 
L 241.326397 72.125276 
L 243.42426 71.199846 
L 245.522122 70.266957 
L 247.619985 69.326609 
L 249.717848 68.378803 
L 251.815711 67.423537 
L 253.913573 66.460812 
L 256.011436 65.490629 
L 258.109299 64.512986 
L 260.207161 63.527884 
L 262.305024 62.535323 
L 264.402887 61.535303 
L 266.500749 60.527825 
L 268.598612 59.512887 
L 270.696475 58.49049 
L 272.794337 57.460634 
L 274.8922 56.423319 
L 276.990063 55.378545 
L 279.087926 54.326313 
L 281.185788 53.266621 
L 283.283651 52.19947 
L 285.381514 51.12486 
L 287.479376 50.042791 
L 289.577239 48.953263 
L 291.675102 47.856276 
L 293.772964 46.75183 
L 295.870827 45.639925 
" clip-path="url(#p0c16d24374)" style="fill: none; stroke: #0080ff; stroke-width: 1.5; stroke-linecap: square"/>
   </g>
   <g id="line2d_27">
    <path d="M 88.18242 102.12042 
L 90.280283 102.445876 
L 92.378146 102.76003 
L 94.476008 103.062881 
L 96.573871 103.354431 
L 98.671734 103.634678 
L 100.769597 103.903622 
L 102.867459 104.161265 
L 104.965322 104.407605 
L 107.063185 104.642643 
L 109.161047 104.866378 
L 111.25891 105.078812 
L 113.356773 105.279943 
L 115.454635 105.469771 
L 117.552498 105.648298 
L 119.650361 105.815522 
L 121.748223 105.971444 
L 123.846086 106.116064 
L 125.943949 106.249381 
L 128.041812 106.371396 
L 130.139674 106.482109 
L 132.237537 106.58152 
L 134.3354 106.669628 
L 136.433262 106.746434 
L 138.531125 106.811938 
L 140.628988 106.866139 
L 142.72685 106.909038 
L 144.824713 106.940635 
L 146.922576 106.96093 
L 149.020438 106.969922 
L 151.118301 106.967612 
L 153.216164 106.954 
L 155.314027 106.929086 
L 157.411889 106.892869 
L 159.509752 106.84535 
L 161.607615 106.786529 
L 163.705477 106.716405 
L 165.80334 106.634979 
L 167.901203 106.542251 
L 169.999065 106.438221 
L 172.096928 106.322888 
L 174.194791 106.196253 
L 176.292654 106.058316 
L 178.390516 105.909076 
L 180.488379 105.748535 
L 182.586242 105.576691 
L 184.684104 105.393544 
L 186.781967 105.199096 
L 188.87983 104.993345 
L 190.977692 104.776292 
L 193.075555 104.547936 
L 195.173418 104.308278 
L 197.27128 104.057319 
L 199.369143 103.795056 
L 201.467006 103.521492 
L 203.564869 103.236625 
L 205.662731 102.940456 
L 207.760594 102.632985 
L 209.858457 102.314211 
L 211.956319 101.984135 
L 214.054182 101.642757 
L 216.152045 101.290076 
L 218.249907 100.926094 
L 220.34777 100.550809 
L 222.445633 100.164221 
L 224.543495 99.766332 
L 226.641358 99.35714 
L 228.739221 98.936646 
L 230.837084 98.50485 
L 232.934946 98.061751 
L 235.032809 97.60735 
L 237.130672 97.141647 
L 239.228534 96.664641 
L 241.326397 96.176334 
L 243.42426 95.676724 
L 245.522122 95.165811 
L 247.619985 94.643597 
L 249.717848 94.11008 
L 251.815711 93.565261 
L 253.913573 93.009139 
L 256.011436 92.441716 
L 258.109299 91.86299 
L 260.207161 91.272962 
L 262.305024 90.671631 
L 264.402887 90.058998 
L 266.500749 89.435063 
L 268.598612 88.799826 
L 270.696475 88.153286 
L 272.794337 87.495445 
L 274.8922 86.8263 
L 276.990063 86.145854 
L 279.087926 85.454105 
L 281.185788 84.751054 
L 283.283651 84.036701 
L 285.381514 83.311046 
L 287.479376 82.574088 
L 289.577239 81.825828 
L 291.675102 81.066265 
L 293.772964 80.295401 
L 295.870827 79.513234 
" clip-path="url(#p0c16d24374)" style="fill: none; stroke: #7dff7a; stroke-width: 1.5; stroke-linecap: square"/>
   </g>
   <g id="line2d_28">
    <path d="M 88.18242 97.615293 
L 90.280283 97.857606 
L 92.378146 98.099555 
L 94.476008 98.341141 
L 96.573871 98.582362 
L 98.671734 98.82322 
L 100.769597 99.063714 
L 102.867459 99.303845 
L 104.965322 99.543612 
L 107.063185 99.783015 
L 109.161047 100.022054 
L 111.25891 100.26073 
L 113.356773 100.499042 
L 115.454635 100.73699 
L 117.552498 100.974575 
L 119.650361 101.211796 
L 121.748223 101.448653 
L 123.846086 101.685146 
L 125.943949 101.921276 
L 128.041812 102.157042 
L 130.139674 102.392445 
L 132.237537 102.627483 
L 134.3354 102.862158 
L 136.433262 103.096469 
L 138.531125 103.330417 
L 140.628988 103.564001 
L 142.72685 103.797221 
L 144.824713 104.030077 
L 146.922576 104.26257 
L 149.020438 104.494699 
L 151.118301 104.726464 
L 153.216164 104.957866 
L 155.314027 105.188904 
L 157.411889 105.419578 
L 159.509752 105.649889 
L 161.607615 105.879835 
L 163.705477 106.109419 
L 165.80334 106.338638 
L 167.901203 106.567494 
L 169.999065 106.795986 
L 172.096928 107.024114 
L 174.194791 107.251878 
L 176.292654 107.479279 
L 178.390516 107.706317 
L 180.488379 107.93299 
L 182.586242 108.1593 
L 184.684104 108.385246 
L 186.781967 108.610828 
L 188.87983 108.836047 
L 190.977692 109.060902 
L 193.075555 109.285393 
L 195.173418 109.50952 
L 197.27128 109.733284 
L 199.369143 109.956684 
L 201.467006 110.179721 
L 203.564869 110.402394 
L 205.662731 110.624703 
L 207.760594 110.846648 
L 209.858457 111.068229 
L 211.956319 111.289447 
L 214.054182 111.510301 
L 216.152045 111.730792 
L 218.249907 111.950919 
L 220.34777 112.170682 
L 222.445633 112.390081 
L 224.543495 112.609117 
L 226.641358 112.827789 
L 228.739221 113.046097 
L 230.837084 113.264042 
L 232.934946 113.481622 
L 235.032809 113.69884 
L 237.130672 113.915693 
L 239.228534 114.132183 
L 241.326397 114.348309 
L 243.42426 114.564071 
L 245.522122 114.77947 
L 247.619985 114.994505 
L 249.717848 115.209176 
L 251.815711 115.423483 
L 253.913573 115.637427 
L 256.011436 115.851007 
L 258.109299 116.064224 
L 260.207161 116.277076 
L 262.305024 116.489565 
L 264.402887 116.701691 
L 266.500749 116.913452 
L 268.598612 117.12485 
L 270.696475 117.335884 
L 272.794337 117.546555 
L 274.8922 117.756861 
L 276.990063 117.966805 
L 279.087926 118.176384 
L 281.185788 118.3856 
L 283.283651 118.594451 
L 285.381514 118.80294 
L 287.479376 119.011064 
L 289.577239 119.218825 
L 291.675102 119.426222 
L 293.772964 119.633256 
L 295.870827 119.839925 
" clip-path="url(#p0c16d24374)" style="fill: none; stroke: #ff9400; stroke-width: 1.5; stroke-linecap: square"/>
   </g>
   <g id="line2d_29">
    <path d="M 88.18242 106.01948 
L 90.280283 105.389128 
L 92.378146 104.784132 
L 94.476008 104.204494 
L 96.573871 103.650212 
L 98.671734 103.121287 
L 100.769597 102.617718 
L 102.867459 102.139507 
L 104.965322 101.686652 
L 107.063185 101.259153 
L 109.161047 100.857012 
L 111.25891 100.480227 
L 113.356773 100.128798 
L 115.454635 99.802727 
L 117.552498 99.502012 
L 119.650361 99.226654 
L 121.748223 98.976653 
L 123.846086 98.752008 
L 125.943949 98.55272 
L 128.041812 98.378788 
L 130.139674 98.230214 
L 132.237537 98.106996 
L 134.3354 98.009135 
L 136.433262 97.93663 
L 138.531125 97.889482 
L 140.628988 97.867691 
L 142.72685 97.871257 
L 144.824713 97.900179 
L 146.922576 97.954458 
L 149.020438 98.034094 
L 151.118301 98.139086 
L 153.216164 98.269436 
L 155.314027 98.425141 
L 157.411889 98.606204 
L 159.509752 98.812623 
L 161.607615 99.044399 
L 163.705477 99.301532 
L 165.80334 99.584021 
L 167.901203 99.891867 
L 169.999065 100.22507 
L 172.096928 100.583629 
L 174.194791 100.967545 
L 176.292654 101.376818 
L 178.390516 101.811448 
L 180.488379 102.271434 
L 182.586242 102.756777 
L 184.684104 103.267477 
L 186.781967 103.803533 
L 188.87983 104.364946 
L 190.977692 104.951716 
L 193.075555 105.563842 
L 195.173418 106.201325 
L 197.27128 106.864165 
L 199.369143 107.552362 
L 201.467006 108.265915 
L 203.564869 109.004825 
L 205.662731 109.769092 
L 207.760594 110.558715 
L 209.858457 111.373695 
L 211.956319 112.214032 
L 214.054182 113.079726 
L 216.152045 113.970776 
L 218.249907 114.887183 
L 220.34777 115.828946 
L 222.445633 116.796067 
L 224.543495 117.788544 
L 226.641358 118.806377 
L 228.739221 119.849568 
L 230.837084 120.918115 
L 232.934946 122.012019 
L 235.032809 123.131279 
L 237.130672 124.275896 
L 239.228534 125.44587 
L 241.326397 126.641201 
L 243.42426 127.861888 
L 245.522122 129.107932 
L 247.619985 130.379333 
L 249.717848 131.676091 
L 251.815711 132.998205 
L 253.913573 134.345676 
L 256.011436 135.718503 
L 258.109299 137.116687 
L 260.207161 138.540228 
L 262.305024 139.989126 
L 264.402887 141.46338 
L 266.500749 142.962991 
L 268.598612 144.487959 
L 270.696475 146.038284 
L 272.794337 147.613965 
L 274.8922 149.215003 
L 276.990063 150.841397 
L 279.087926 152.493148 
L 281.185788 154.170256 
L 283.283651 155.872721 
L 285.381514 157.600543 
L 287.479376 159.353721 
L 289.577239 161.132255 
L 291.675102 162.936147 
L 293.772964 164.765395 
L 295.870827 166.62 
" clip-path="url(#p0c16d24374)" style="fill: none; stroke: #800000; stroke-width: 1.5; stroke-linecap: square"/>
   </g>
   <g id="patch_3">
    <path d="M 77.798 174.04 
L 77.798 10.8 
" style="fill: none; stroke: #000000; stroke-width: 0.8; stroke-linejoin: miter; stroke-linecap: square"/>
   </g>
   <g id="patch_4">
    <path d="M 306.255247 174.04 
L 306.255247 10.8 
" style="fill: none; stroke: #000000; stroke-width: 0.8; stroke-linejoin: miter; stroke-linecap: square"/>
   </g>
   <g id="patch_5">
    <path d="M 77.798 174.04 
L 306.255247 174.04 
" style="fill: none; stroke: #000000; stroke-width: 0.8; stroke-linejoin: miter; stroke-linecap: square"/>
   </g>
   <g id="patch_6">
    <path d="M 77.798 10.8 
L 306.255247 10.8 
" style="fill: none; stroke: #000000; stroke-width: 0.8; stroke-linejoin: miter; stroke-linecap: square"/>
   </g>
   <g id="legend_1">
    <g id="patch_7">
     <path d="M 315.255247 162.878 
L 420.455247 162.878 
Q 422.455247 162.878 422.455247 160.878 
L 422.455247 88.385812 
Q 422.455247 86.385812 420.455247 86.385812 
L 315.255247 86.385812 
Q 313.255247 86.385812 313.255247 88.385812 
L 313.255247 160.878 
Q 313.255247 162.878 315.255247 162.878 
z
" style="fill: #4d4d4d; opacity: 0.5; stroke: #4d4d4d; stroke-linejoin: miter"/>
    </g>
    <g id="patch_8">
     <path d="M 313.255247 160.878 
L 418.455247 160.878 
Q 420.455247 160.878 420.455247 158.878 
L 420.455247 86.385812 
Q 420.455247 84.385812 418.455247 84.385812 
L 313.255247 84.385812 
Q 311.255247 84.385812 311.255247 86.385812 
L 311.255247 158.878 
Q 311.255247 160.878 313.255247 160.878 
z
" style="fill: #ffffff; stroke: #cccccc; stroke-linejoin: miter"/>
    </g>
    <g id="line2d_30">
     <path d="M 315.255247 92.48425 
L 325.255247 92.48425 
L 335.255247 92.48425 
" style="fill: none; stroke: #000080; stroke-width: 1.5; stroke-linecap: square"/>
    </g>
    <g id="text_15">
     <!-- $\delta_e = 0$, $J = 1.60$ -->
     <g transform="translate(343.255247 95.98425) scale(0.1 -0.1)">
      <defs>
       <path id="DejaVuSans-3d" d="M 678 2906 
L 4684 2906 
L 4684 2381 
L 678 2381 
L 678 2906 
z
M 678 1631 
L 4684 1631 
L 4684 1100 
L 678 1100 
L 678 1631 
z
" transform="scale(0.015625)"/>
       <path id="DejaVuSans-2c" d="M 750 794 
L 1409 794 
L 1409 256 
L 897 -744 
L 494 -744 
L 750 256 
L 750 794 
z
" transform="scale(0.015625)"/>
       <path id="DejaVuSans-Oblique-4a" d="M 1069 4666 
L 1703 4666 
L 856 325 
Q 691 -522 298 -901 
Q -94 -1281 -800 -1281 
L -1050 -1281 
L -947 -750 
L -750 -750 
Q -328 -750 -109 -509 
Q 109 -269 225 325 
L 1069 4666 
z
" transform="scale(0.015625)"/>
      </defs>
      <use xlink:href="#DejaVuSans-Oblique-3b4" transform="translate(0 0.78125)"/>
      <use xlink:href="#DejaVuSans-Oblique-65" transform="translate(61.181641 -15.625) scale(0.7)"/>
      <use xlink:href="#DejaVuSans-3d" transform="translate(126.464844 0.78125)"/>
      <use xlink:href="#DejaVuSans-30" transform="translate(229.736328 0.78125)"/>
      <use xlink:href="#DejaVuSans-2c" transform="translate(293.359375 0.78125)"/>
      <use xlink:href="#DejaVuSans-20" transform="translate(325.146484 0.78125)"/>
      <use xlink:href="#DejaVuSans-Oblique-4a" transform="translate(356.933594 0.78125)"/>
      <use xlink:href="#DejaVuSans-3d" transform="translate(405.908203 0.78125)"/>
      <use xlink:href="#DejaVuSans-31" transform="translate(509.179688 0.78125)"/>
      <use xlink:href="#DejaVuSans-2e" transform="translate(572.802734 0.78125)"/>
      <use xlink:href="#DejaVuSans-36" transform="translate(604.589844 0.78125)"/>
      <use xlink:href="#DejaVuSans-30" transform="translate(668.212891 0.78125)"/>
     </g>
    </g>
    <g id="line2d_31">
     <path d="M 315.255247 107.182688 
L 325.255247 107.182688 
L 335.255247 107.182688 
" style="fill: none; stroke: #0080ff; stroke-width: 1.5; stroke-linecap: square"/>
    </g>
    <g id="text_16">
     <!-- $\delta_e = 0$, $J = 1.80$ -->
     <g transform="translate(343.255247 110.682688) scale(0.1 -0.1)">
      <defs>
       <path id="DejaVuSans-38" d="M 2034 2216 
Q 1584 2216 1326 1975 
Q 1069 1734 1069 1313 
Q 1069 891 1326 650 
Q 1584 409 2034 409 
Q 2484 409 2743 651 
Q 3003 894 3003 1313 
Q 3003 1734 2745 1975 
Q 2488 2216 2034 2216 
z
M 1403 2484 
Q 997 2584 770 2862 
Q 544 3141 544 3541 
Q 544 4100 942 4425 
Q 1341 4750 2034 4750 
Q 2731 4750 3128 4425 
Q 3525 4100 3525 3541 
Q 3525 3141 3298 2862 
Q 3072 2584 2669 2484 
Q 3125 2378 3379 2068 
Q 3634 1759 3634 1313 
Q 3634 634 3220 271 
Q 2806 -91 2034 -91 
Q 1263 -91 848 271 
Q 434 634 434 1313 
Q 434 1759 690 2068 
Q 947 2378 1403 2484 
z
M 1172 3481 
Q 1172 3119 1398 2916 
Q 1625 2713 2034 2713 
Q 2441 2713 2670 2916 
Q 2900 3119 2900 3481 
Q 2900 3844 2670 4047 
Q 2441 4250 2034 4250 
Q 1625 4250 1398 4047 
Q 1172 3844 1172 3481 
z
" transform="scale(0.015625)"/>
      </defs>
      <use xlink:href="#DejaVuSans-Oblique-3b4" transform="translate(0 0.78125)"/>
      <use xlink:href="#DejaVuSans-Oblique-65" transform="translate(61.181641 -15.625) scale(0.7)"/>
      <use xlink:href="#DejaVuSans-3d" transform="translate(126.464844 0.78125)"/>
      <use xlink:href="#DejaVuSans-30" transform="translate(229.736328 0.78125)"/>
      <use xlink:href="#DejaVuSans-2c" transform="translate(293.359375 0.78125)"/>
      <use xlink:href="#DejaVuSans-20" transform="translate(325.146484 0.78125)"/>
      <use xlink:href="#DejaVuSans-Oblique-4a" transform="translate(356.933594 0.78125)"/>
      <use xlink:href="#DejaVuSans-3d" transform="translate(405.908203 0.78125)"/>
      <use xlink:href="#DejaVuSans-31" transform="translate(509.179688 0.78125)"/>
      <use xlink:href="#DejaVuSans-2e" transform="translate(572.802734 0.78125)"/>
      <use xlink:href="#DejaVuSans-38" transform="translate(601.964844 0.78125)"/>
      <use xlink:href="#DejaVuSans-30" transform="translate(665.587891 0.78125)"/>
     </g>
    </g>
    <g id="line2d_32">
     <path d="M 315.255247 121.881125 
L 325.255247 121.881125 
L 335.255247 121.881125 
" style="fill: none; stroke: #7dff7a; stroke-width: 1.5; stroke-linecap: square"/>
    </g>
    <g id="text_17">
     <!-- $\delta_e = 0$, $J = 2.00$ -->
     <g transform="translate(343.255247 125.381125) scale(0.1 -0.1)">
      <use xlink:href="#DejaVuSans-Oblique-3b4" transform="translate(0 0.78125)"/>
      <use xlink:href="#DejaVuSans-Oblique-65" transform="translate(61.181641 -15.625) scale(0.7)"/>
      <use xlink:href="#DejaVuSans-3d" transform="translate(126.464844 0.78125)"/>
      <use xlink:href="#DejaVuSans-30" transform="translate(229.736328 0.78125)"/>
      <use xlink:href="#DejaVuSans-2c" transform="translate(293.359375 0.78125)"/>
      <use xlink:href="#DejaVuSans-20" transform="translate(325.146484 0.78125)"/>
      <use xlink:href="#DejaVuSans-Oblique-4a" transform="translate(356.933594 0.78125)"/>
      <use xlink:href="#DejaVuSans-3d" transform="translate(405.908203 0.78125)"/>
      <use xlink:href="#DejaVuSans-32" transform="translate(509.179688 0.78125)"/>
      <use xlink:href="#DejaVuSans-2e" transform="translate(572.802734 0.78125)"/>
      <use xlink:href="#DejaVuSans-30" transform="translate(604.589844 0.78125)"/>
      <use xlink:href="#DejaVuSans-30" transform="translate(668.212891 0.78125)"/>
     </g>
    </g>
    <g id="line2d_33">
     <path d="M 315.255247 136.579563 
L 325.255247 136.579563 
L 335.255247 136.579563 
" style="fill: none; stroke: #ff9400; stroke-width: 1.5; stroke-linecap: square"/>
    </g>
    <g id="text_18">
     <!-- $\delta_e = 0$, $J = 2.20$ -->
     <g transform="translate(343.255247 140.079563) scale(0.1 -0.1)">
      <use xlink:href="#DejaVuSans-Oblique-3b4" transform="translate(0 0.78125)"/>
      <use xlink:href="#DejaVuSans-Oblique-65" transform="translate(61.181641 -15.625) scale(0.7)"/>
      <use xlink:href="#DejaVuSans-3d" transform="translate(126.464844 0.78125)"/>
      <use xlink:href="#DejaVuSans-30" transform="translate(229.736328 0.78125)"/>
      <use xlink:href="#DejaVuSans-2c" transform="translate(293.359375 0.78125)"/>
      <use xlink:href="#DejaVuSans-20" transform="translate(325.146484 0.78125)"/>
      <use xlink:href="#DejaVuSans-Oblique-4a" transform="translate(356.933594 0.78125)"/>
      <use xlink:href="#DejaVuSans-3d" transform="translate(405.908203 0.78125)"/>
      <use xlink:href="#DejaVuSans-32" transform="translate(509.179688 0.78125)"/>
      <use xlink:href="#DejaVuSans-2e" transform="translate(572.802734 0.78125)"/>
      <use xlink:href="#DejaVuSans-32" transform="translate(599.089844 0.78125)"/>
      <use xlink:href="#DejaVuSans-30" transform="translate(662.712891 0.78125)"/>
     </g>
    </g>
    <g id="line2d_34">
     <path d="M 315.255247 151.278 
L 325.255247 151.278 
L 335.255247 151.278 
" style="fill: none; stroke: #800000; stroke-width: 1.5; stroke-linecap: square"/>
    </g>
    <g id="text_19">
     <!-- $\delta_e = 0$, $J = 2.40$ -->
     <g transform="translate(343.255247 154.778) scale(0.1 -0.1)">
      <use xlink:href="#DejaVuSans-Oblique-3b4" transform="translate(0 0.78125)"/>
      <use xlink:href="#DejaVuSans-Oblique-65" transform="translate(61.181641 -15.625) scale(0.7)"/>
      <use xlink:href="#DejaVuSans-3d" transform="translate(126.464844 0.78125)"/>
      <use xlink:href="#DejaVuSans-30" transform="translate(229.736328 0.78125)"/>
      <use xlink:href="#DejaVuSans-2c" transform="translate(293.359375 0.78125)"/>
      <use xlink:href="#DejaVuSans-20" transform="translate(325.146484 0.78125)"/>
      <use xlink:href="#DejaVuSans-Oblique-4a" transform="translate(356.933594 0.78125)"/>
      <use xlink:href="#DejaVuSans-3d" transform="translate(405.908203 0.78125)"/>
      <use xlink:href="#DejaVuSans-32" transform="translate(509.179688 0.78125)"/>
      <use xlink:href="#DejaVuSans-2e" transform="translate(572.802734 0.78125)"/>
      <use xlink:href="#DejaVuSans-34" transform="translate(604.589844 0.78125)"/>
      <use xlink:href="#DejaVuSans-30" transform="translate(668.212891 0.78125)"/>
     </g>
    </g>
   </g>
  </g>
 </g>
 <defs>
  <clipPath id="p0c16d24374">
   <rect x="77.798" y="10.8" width="228.457247" height="163.24"/>
  </clipPath>
 </defs>
</svg>
