<?xml version="1.0" encoding="utf-8" standalone="no"?>
<!DOCTYPE svg PUBLIC "-//W3C//DTD SVG 1.1//EN"
  "http://www.w3.org/Graphics/SVG/1.1/DTD/svg11.dtd">
<svg xmlns:xlink="http://www.w3.org/1999/xlink" width="288pt" height="216pt" viewBox="0 0 288 216" xmlns="http://www.w3.org/2000/svg" version="1.1">
 <metadata>
  <rdf:RDF xmlns:dc="http://purl.org/dc/elements/1.1/" xmlns:cc="http://creativecommons.org/ns#" xmlns:rdf="http://www.w3.org/1999/02/22-rdf-syntax-ns#">
   <cc:Work>
    <dc:type rdf:resource="http://purl.org/dc/dcmitype/StillImage"/>
    <dc:date>2025-03-27T14:25:00.949213</dc:date>
    <dc:format>image/svg+xml</dc:format>
    <dc:creator>
     <cc:Agent>
      <dc:title>Matplotlib v3.9.2, https://matplotlib.org/</dc:title>
     </cc:Agent>
    </dc:creator>
   </cc:Work>
  </rdf:RDF>
 </metadata>
 <defs>
  <style type="text/css">*{stroke-linejoin: round; stroke-linecap: butt}</style>
 </defs>
 <g id="figure_1">
  <g id="patch_1">
   <path d="M 0 216 
L 288 216 
L 288 0 
L 0 0 
z
" style="fill: #ffffff"/>
  </g>
  <g id="axes_1">
   <g id="patch_2">
    <path d="M 71.84 172.3975 
L 277.2 172.3975 
L 277.2 12.347873 
L 71.84 12.347873 
z
" style="fill: #ffffff"/>
   </g>
   <g id="matplotlib.axis_1">
    <g id="xtick_1">
     <g id="line2d_1">
      <path d="M 106.632397 172.3975 
L 106.632397 12.347873 
" clip-path="url(#p47cca69b08)" style="fill: none; stroke: #b0b0b0; stroke-width: 0.8; stroke-linecap: square"/>
     </g>
     <g id="line2d_2">
      <defs>
       <path id="m0904ca1fb7" d="M 0 0 
L 0 3.5 
" style="stroke: #000000; stroke-width: 0.8"/>
      </defs>
      <g>
       <use xlink:href="#m0904ca1fb7" x="106.632397" y="172.3975" style="stroke: #000000; stroke-width: 0.8"/>
      </g>
     </g>
     <g id="text_1">
      <!-- −2.5 -->
      <g transform="translate(94.49099 186.995937) scale(0.1 -0.1)">
       <defs>
        <path id="DejaVuSans-2212" d="M 678 2272 
L 4684 2272 
L 4684 1741 
L 678 1741 
L 678 2272 
z
" transform="scale(0.015625)"/>
        <path id="DejaVuSans-32" d="M 1228 531 
L 3431 531 
L 3431 0 
L 469 0 
L 469 531 
Q 828 903 1448 1529 
Q 2069 2156 2228 2338 
Q 2531 2678 2651 2914 
Q 2772 3150 2772 3378 
Q 2772 3750 2511 3984 
Q 2250 4219 1831 4219 
Q 1534 4219 1204 4116 
Q 875 4013 500 3803 
L 500 4441 
Q 881 4594 1212 4672 
Q 1544 4750 1819 4750 
Q 2544 4750 2975 4387 
Q 3406 4025 3406 3419 
Q 3406 3131 3298 2873 
Q 3191 2616 2906 2266 
Q 2828 2175 2409 1742 
Q 1991 1309 1228 531 
z
" transform="scale(0.015625)"/>
        <path id="DejaVuSans-2e" d="M 684 794 
L 1344 794 
L 1344 0 
L 684 0 
L 684 794 
z
" transform="scale(0.015625)"/>
        <path id="DejaVuSans-35" d="M 691 4666 
L 3169 4666 
L 3169 4134 
L 1269 4134 
L 1269 2991 
Q 1406 3038 1543 3061 
Q 1681 3084 1819 3084 
Q 2600 3084 3056 2656 
Q 3513 2228 3513 1497 
Q 3513 744 3044 326 
Q 2575 -91 1722 -91 
Q 1428 -91 1123 -41 
Q 819 9 494 109 
L 494 744 
Q 775 591 1075 516 
Q 1375 441 1709 441 
Q 2250 441 2565 725 
Q 2881 1009 2881 1497 
Q 2881 1984 2565 2268 
Q 2250 2553 1709 2553 
Q 1456 2553 1204 2497 
Q 953 2441 691 2322 
L 691 4666 
z
" transform="scale(0.015625)"/>
       </defs>
       <use xlink:href="#DejaVuSans-2212"/>
       <use xlink:href="#DejaVuSans-32" x="83.789062"/>
       <use xlink:href="#DejaVuSans-2e" x="147.412109"/>
       <use xlink:href="#DejaVuSans-35" x="179.199219"/>
      </g>
     </g>
    </g>
    <g id="xtick_2">
     <g id="line2d_3">
      <path d="M 149.062149 172.3975 
L 149.062149 12.347873 
" clip-path="url(#p47cca69b08)" style="fill: none; stroke: #b0b0b0; stroke-width: 0.8; stroke-linecap: square"/>
     </g>
     <g id="line2d_4">
      <g>
       <use xlink:href="#m0904ca1fb7" x="149.062149" y="172.3975" style="stroke: #000000; stroke-width: 0.8"/>
      </g>
     </g>
     <g id="text_2">
      <!-- 0.0 -->
      <g transform="translate(141.110586 186.995937) scale(0.1 -0.1)">
       <defs>
        <path id="DejaVuSans-30" d="M 2034 4250 
Q 1547 4250 1301 3770 
Q 1056 3291 1056 2328 
Q 1056 1369 1301 889 
Q 1547 409 2034 409 
Q 2525 409 2770 889 
Q 3016 1369 3016 2328 
Q 3016 3291 2770 3770 
Q 2525 4250 2034 4250 
z
M 2034 4750 
Q 2819 4750 3233 4129 
Q 3647 3509 3647 2328 
Q 3647 1150 3233 529 
Q 2819 -91 2034 -91 
Q 1250 -91 836 529 
Q 422 1150 422 2328 
Q 422 3509 836 4129 
Q 1250 4750 2034 4750 
z
" transform="scale(0.015625)"/>
       </defs>
       <use xlink:href="#DejaVuSans-30"/>
       <use xlink:href="#DejaVuSans-2e" x="63.623047"/>
       <use xlink:href="#DejaVuSans-30" x="95.410156"/>
      </g>
     </g>
    </g>
    <g id="xtick_3">
     <g id="line2d_5">
      <path d="M 191.491901 172.3975 
L 191.491901 12.347873 
" clip-path="url(#p47cca69b08)" style="fill: none; stroke: #b0b0b0; stroke-width: 0.8; stroke-linecap: square"/>
     </g>
     <g id="line2d_6">
      <g>
       <use xlink:href="#m0904ca1fb7" x="191.491901" y="172.3975" style="stroke: #000000; stroke-width: 0.8"/>
      </g>
     </g>
     <g id="text_3">
      <!-- 2.5 -->
      <g transform="translate(183.540338 186.995937) scale(0.1 -0.1)">
       <use xlink:href="#DejaVuSans-32"/>
       <use xlink:href="#DejaVuSans-2e" x="63.623047"/>
       <use xlink:href="#DejaVuSans-35" x="95.410156"/>
      </g>
     </g>
    </g>
    <g id="xtick_4">
     <g id="line2d_7">
      <path d="M 233.921653 172.3975 
L 233.921653 12.347873 
" clip-path="url(#p47cca69b08)" style="fill: none; stroke: #b0b0b0; stroke-width: 0.8; stroke-linecap: square"/>
     </g>
     <g id="line2d_8">
      <g>
       <use xlink:href="#m0904ca1fb7" x="233.921653" y="172.3975" style="stroke: #000000; stroke-width: 0.8"/>
      </g>
     </g>
     <g id="text_4">
      <!-- 5.0 -->
      <g transform="translate(225.97009 186.995937) scale(0.1 -0.1)">
       <use xlink:href="#DejaVuSans-35"/>
       <use xlink:href="#DejaVuSans-2e" x="63.623047"/>
       <use xlink:href="#DejaVuSans-30" x="95.410156"/>
      </g>
     </g>
    </g>
    <g id="xtick_5">
     <g id="line2d_9">
      <path d="M 276.351405 172.3975 
L 276.351405 12.347873 
" clip-path="url(#p47cca69b08)" style="fill: none; stroke: #b0b0b0; stroke-width: 0.8; stroke-linecap: square"/>
     </g>
     <g id="line2d_10">
      <g>
       <use xlink:href="#m0904ca1fb7" x="276.351405" y="172.3975" style="stroke: #000000; stroke-width: 0.8"/>
      </g>
     </g>
     <g id="text_5">
      <!-- 7.5 -->
      <g transform="translate(268.399842 186.995937) scale(0.1 -0.1)">
       <defs>
        <path id="DejaVuSans-37" d="M 525 4666 
L 3525 4666 
L 3525 4397 
L 1831 0 
L 1172 0 
L 2766 4134 
L 525 4134 
L 525 4666 
z
" transform="scale(0.015625)"/>
       </defs>
       <use xlink:href="#DejaVuSans-37"/>
       <use xlink:href="#DejaVuSans-2e" x="63.623047"/>
       <use xlink:href="#DejaVuSans-35" x="95.410156"/>
      </g>
     </g>
    </g>
    <g id="text_6">
     <!-- $\alpha$, [$^\circ$] -->
     <g transform="translate(160.37 200.674062) scale(0.1 -0.1)">
      <defs>
       <path id="DejaVuSans-Oblique-3b1" d="M 2619 1628 
L 2622 2350 
Q 2625 3088 2069 3091 
Q 1653 3094 1394 2747 
Q 1069 2319 959 1747 
Q 825 1059 994 731 
Q 1169 397 1547 397 
Q 1966 397 2319 1063 
L 2619 1628 
z
M 2166 3578 
Q 3141 3594 3128 2584 
Q 3128 2584 3616 3500 
L 4128 3500 
L 3119 1603 
L 3109 919 
Q 3109 766 3194 638 
Q 3291 488 3391 488 
L 3669 488 
L 3575 0 
L 3228 0 
Q 2934 0 2722 263 
Q 2622 394 2619 669 
Q 2416 334 2066 50 
Q 1900 -81 1453 -78 
Q 722 -72 456 397 
Q 184 884 353 1747 
Q 534 2675 1009 3097 
Q 1544 3569 2166 3578 
z
" transform="scale(0.015625)"/>
       <path id="DejaVuSans-2c" d="M 750 794 
L 1409 794 
L 1409 256 
L 897 -744 
L 494 -744 
L 750 256 
L 750 794 
z
" transform="scale(0.015625)"/>
       <path id="DejaVuSans-20" transform="scale(0.015625)"/>
       <path id="DejaVuSans-5b" d="M 550 4863 
L 1875 4863 
L 1875 4416 
L 1125 4416 
L 1125 -397 
L 1875 -397 
L 1875 -844 
L 550 -844 
L 550 4863 
z
" transform="scale(0.015625)"/>
       <path id="DejaVuSans-2218" d="M 2003 2603 
Q 1753 2603 1581 2429 
Q 1409 2256 1409 2006 
Q 1409 1759 1581 1589 
Q 1753 1419 2003 1419 
Q 2253 1419 2425 1589 
Q 2597 1759 2597 2006 
Q 2597 2253 2423 2428 
Q 2250 2603 2003 2603 
z
M 2003 3006 
Q 2203 3006 2387 2929 
Q 2572 2853 2706 2709 
Q 2850 2569 2922 2390 
Q 2994 2212 2994 2006 
Q 2994 1594 2705 1308 
Q 2416 1022 1997 1022 
Q 1575 1022 1294 1303 
Q 1013 1584 1013 2006 
Q 1013 2425 1300 2715 
Q 1588 3006 2003 3006 
z
" transform="scale(0.015625)"/>
       <path id="DejaVuSans-5d" d="M 1947 4863 
L 1947 -844 
L 622 -844 
L 622 -397 
L 1369 -397 
L 1369 4416 
L 622 4416 
L 622 4863 
L 1947 4863 
z
" transform="scale(0.015625)"/>
      </defs>
      <use xlink:href="#DejaVuSans-Oblique-3b1" transform="translate(0 0.015625)"/>
      <use xlink:href="#DejaVuSans-2c" transform="translate(65.917969 0.015625)"/>
      <use xlink:href="#DejaVuSans-20" transform="translate(97.705078 0.015625)"/>
      <use xlink:href="#DejaVuSans-5b" transform="translate(129.492188 0.015625)"/>
      <use xlink:href="#DejaVuSans-2218" transform="translate(183.100586 38.296875) scale(0.7)"/>
      <use xlink:href="#DejaVuSans-5d" transform="translate(243.291016 0.015625)"/>
     </g>
    </g>
   </g>
   <g id="matplotlib.axis_2">
    <g id="ytick_1">
     <g id="line2d_11">
      <path d="M 71.84 155.946055 
L 277.2 155.946055 
" clip-path="url(#p47cca69b08)" style="fill: none; stroke: #b0b0b0; stroke-width: 0.8; stroke-linecap: square"/>
     </g>
     <g id="line2d_12">
      <defs>
       <path id="m090e29cdb8" d="M 0 0 
L -3.5 0 
" style="stroke: #000000; stroke-width: 0.8"/>
      </defs>
      <g>
       <use xlink:href="#m090e29cdb8" x="71.84" y="155.946055" style="stroke: #000000; stroke-width: 0.8"/>
      </g>
     </g>
     <g id="text_7">
      <!-- −0.002 -->
      <g transform="translate(27.832188 159.745274) scale(0.1 -0.1)">
       <use xlink:href="#DejaVuSans-2212"/>
       <use xlink:href="#DejaVuSans-30" x="83.789062"/>
       <use xlink:href="#DejaVuSans-2e" x="147.412109"/>
       <use xlink:href="#DejaVuSans-30" x="179.199219"/>
       <use xlink:href="#DejaVuSans-30" x="242.822266"/>
       <use xlink:href="#DejaVuSans-32" x="306.445312"/>
      </g>
     </g>
    </g>
    <g id="ytick_2">
     <g id="line2d_13">
      <path d="M 71.84 135.763627 
L 277.2 135.763627 
" clip-path="url(#p47cca69b08)" style="fill: none; stroke: #b0b0b0; stroke-width: 0.8; stroke-linecap: square"/>
     </g>
     <g id="line2d_14">
      <g>
       <use xlink:href="#m090e29cdb8" x="71.84" y="135.763627" style="stroke: #000000; stroke-width: 0.8"/>
      </g>
     </g>
     <g id="text_8">
      <!-- 0.000 -->
      <g transform="translate(36.211875 139.562846) scale(0.1 -0.1)">
       <use xlink:href="#DejaVuSans-30"/>
       <use xlink:href="#DejaVuSans-2e" x="63.623047"/>
       <use xlink:href="#DejaVuSans-30" x="95.410156"/>
       <use xlink:href="#DejaVuSans-30" x="159.033203"/>
       <use xlink:href="#DejaVuSans-30" x="222.65625"/>
      </g>
     </g>
    </g>
    <g id="ytick_3">
     <g id="line2d_15">
      <path d="M 71.84 115.5812 
L 277.2 115.5812 
" clip-path="url(#p47cca69b08)" style="fill: none; stroke: #b0b0b0; stroke-width: 0.8; stroke-linecap: square"/>
     </g>
     <g id="line2d_16">
      <g>
       <use xlink:href="#m090e29cdb8" x="71.84" y="115.5812" style="stroke: #000000; stroke-width: 0.8"/>
      </g>
     </g>
     <g id="text_9">
      <!-- 0.002 -->
      <g transform="translate(36.211875 119.380418) scale(0.1 -0.1)">
       <use xlink:href="#DejaVuSans-30"/>
       <use xlink:href="#DejaVuSans-2e" x="63.623047"/>
       <use xlink:href="#DejaVuSans-30" x="95.410156"/>
       <use xlink:href="#DejaVuSans-30" x="159.033203"/>
       <use xlink:href="#DejaVuSans-32" x="222.65625"/>
      </g>
     </g>
    </g>
    <g id="ytick_4">
     <g id="line2d_17">
      <path d="M 71.84 95.398772 
L 277.2 95.398772 
" clip-path="url(#p47cca69b08)" style="fill: none; stroke: #b0b0b0; stroke-width: 0.8; stroke-linecap: square"/>
     </g>
     <g id="line2d_18">
      <g>
       <use xlink:href="#m090e29cdb8" x="71.84" y="95.398772" style="stroke: #000000; stroke-width: 0.8"/>
      </g>
     </g>
     <g id="text_10">
      <!-- 0.004 -->
      <g transform="translate(36.211875 99.197991) scale(0.1 -0.1)">
       <defs>
        <path id="DejaVuSans-34" d="M 2419 4116 
L 825 1625 
L 2419 1625 
L 2419 4116 
z
M 2253 4666 
L 3047 4666 
L 3047 1625 
L 3713 1625 
L 3713 1100 
L 3047 1100 
L 3047 0 
L 2419 0 
L 2419 1100 
L 313 1100 
L 313 1709 
L 2253 4666 
z
" transform="scale(0.015625)"/>
       </defs>
       <use xlink:href="#DejaVuSans-30"/>
       <use xlink:href="#DejaVuSans-2e" x="63.623047"/>
       <use xlink:href="#DejaVuSans-30" x="95.410156"/>
       <use xlink:href="#DejaVuSans-30" x="159.033203"/>
       <use xlink:href="#DejaVuSans-34" x="222.65625"/>
      </g>
     </g>
    </g>
    <g id="ytick_5">
     <g id="line2d_19">
      <path d="M 71.84 75.216344 
L 277.2 75.216344 
" clip-path="url(#p47cca69b08)" style="fill: none; stroke: #b0b0b0; stroke-width: 0.8; stroke-linecap: square"/>
     </g>
     <g id="line2d_20">
      <g>
       <use xlink:href="#m090e29cdb8" x="71.84" y="75.216344" style="stroke: #000000; stroke-width: 0.8"/>
      </g>
     </g>
     <g id="text_11">
      <!-- 0.006 -->
      <g transform="translate(36.211875 79.015563) scale(0.1 -0.1)">
       <defs>
        <path id="DejaVuSans-36" d="M 2113 2584 
Q 1688 2584 1439 2293 
Q 1191 2003 1191 1497 
Q 1191 994 1439 701 
Q 1688 409 2113 409 
Q 2538 409 2786 701 
Q 3034 994 3034 1497 
Q 3034 2003 2786 2293 
Q 2538 2584 2113 2584 
z
M 3366 4563 
L 3366 3988 
Q 3128 4100 2886 4159 
Q 2644 4219 2406 4219 
Q 1781 4219 1451 3797 
Q 1122 3375 1075 2522 
Q 1259 2794 1537 2939 
Q 1816 3084 2150 3084 
Q 2853 3084 3261 2657 
Q 3669 2231 3669 1497 
Q 3669 778 3244 343 
Q 2819 -91 2113 -91 
Q 1303 -91 875 529 
Q 447 1150 447 2328 
Q 447 3434 972 4092 
Q 1497 4750 2381 4750 
Q 2619 4750 2861 4703 
Q 3103 4656 3366 4563 
z
" transform="scale(0.015625)"/>
       </defs>
       <use xlink:href="#DejaVuSans-30"/>
       <use xlink:href="#DejaVuSans-2e" x="63.623047"/>
       <use xlink:href="#DejaVuSans-30" x="95.410156"/>
       <use xlink:href="#DejaVuSans-30" x="159.033203"/>
       <use xlink:href="#DejaVuSans-36" x="222.65625"/>
      </g>
     </g>
    </g>
    <g id="ytick_6">
     <g id="line2d_21">
      <path d="M 71.84 55.033917 
L 277.2 55.033917 
" clip-path="url(#p47cca69b08)" style="fill: none; stroke: #b0b0b0; stroke-width: 0.8; stroke-linecap: square"/>
     </g>
     <g id="line2d_22">
      <g>
       <use xlink:href="#m090e29cdb8" x="71.84" y="55.033917" style="stroke: #000000; stroke-width: 0.8"/>
      </g>
     </g>
     <g id="text_12">
      <!-- 0.008 -->
      <g transform="translate(36.211875 58.833135) scale(0.1 -0.1)">
       <defs>
        <path id="DejaVuSans-38" d="M 2034 2216 
Q 1584 2216 1326 1975 
Q 1069 1734 1069 1313 
Q 1069 891 1326 650 
Q 1584 409 2034 409 
Q 2484 409 2743 651 
Q 3003 894 3003 1313 
Q 3003 1734 2745 1975 
Q 2488 2216 2034 2216 
z
M 1403 2484 
Q 997 2584 770 2862 
Q 544 3141 544 3541 
Q 544 4100 942 4425 
Q 1341 4750 2034 4750 
Q 2731 4750 3128 4425 
Q 3525 4100 3525 3541 
Q 3525 3141 3298 2862 
Q 3072 2584 2669 2484 
Q 3125 2378 3379 2068 
Q 3634 1759 3634 1313 
Q 3634 634 3220 271 
Q 2806 -91 2034 -91 
Q 1263 -91 848 271 
Q 434 634 434 1313 
Q 434 1759 690 2068 
Q 947 2378 1403 2484 
z
M 1172 3481 
Q 1172 3119 1398 2916 
Q 1625 2713 2034 2713 
Q 2441 2713 2670 2916 
Q 2900 3119 2900 3481 
Q 2900 3844 2670 4047 
Q 2441 4250 2034 4250 
Q 1625 4250 1398 4047 
Q 1172 3844 1172 3481 
z
" transform="scale(0.015625)"/>
       </defs>
       <use xlink:href="#DejaVuSans-30"/>
       <use xlink:href="#DejaVuSans-2e" x="63.623047"/>
       <use xlink:href="#DejaVuSans-30" x="95.410156"/>
       <use xlink:href="#DejaVuSans-30" x="159.033203"/>
       <use xlink:href="#DejaVuSans-38" x="222.65625"/>
      </g>
     </g>
    </g>
    <g id="ytick_7">
     <g id="line2d_23">
      <path d="M 71.84 34.851489 
L 277.2 34.851489 
" clip-path="url(#p47cca69b08)" style="fill: none; stroke: #b0b0b0; stroke-width: 0.8; stroke-linecap: square"/>
     </g>
     <g id="line2d_24">
      <g>
       <use xlink:href="#m090e29cdb8" x="71.84" y="34.851489" style="stroke: #000000; stroke-width: 0.8"/>
      </g>
     </g>
     <g id="text_13">
      <!-- 0.010 -->
      <g transform="translate(36.211875 38.650708) scale(0.1 -0.1)">
       <defs>
        <path id="DejaVuSans-31" d="M 794 531 
L 1825 531 
L 1825 4091 
L 703 3866 
L 703 4441 
L 1819 4666 
L 2450 4666 
L 2450 531 
L 3481 531 
L 3481 0 
L 794 0 
L 794 531 
z
" transform="scale(0.015625)"/>
       </defs>
       <use xlink:href="#DejaVuSans-30"/>
       <use xlink:href="#DejaVuSans-2e" x="63.623047"/>
       <use xlink:href="#DejaVuSans-30" x="95.410156"/>
       <use xlink:href="#DejaVuSans-31" x="159.033203"/>
       <use xlink:href="#DejaVuSans-30" x="222.65625"/>
      </g>
     </g>
    </g>
    <g id="ytick_8">
     <g id="line2d_25">
      <path d="M 71.84 14.669061 
L 277.2 14.669061 
" clip-path="url(#p47cca69b08)" style="fill: none; stroke: #b0b0b0; stroke-width: 0.8; stroke-linecap: square"/>
     </g>
     <g id="line2d_26">
      <g>
       <use xlink:href="#m090e29cdb8" x="71.84" y="14.669061" style="stroke: #000000; stroke-width: 0.8"/>
      </g>
     </g>
     <g id="text_14">
      <!-- 0.012 -->
      <g transform="translate(36.211875 18.46828) scale(0.1 -0.1)">
       <use xlink:href="#DejaVuSans-30"/>
       <use xlink:href="#DejaVuSans-2e" x="63.623047"/>
       <use xlink:href="#DejaVuSans-30" x="95.410156"/>
       <use xlink:href="#DejaVuSans-31" x="159.033203"/>
       <use xlink:href="#DejaVuSans-32" x="222.65625"/>
      </g>
     </g>
    </g>
    <g id="text_15">
     <!-- $dCD_cor2/dalpha$ -->
     <g transform="translate(21.732188 131.972686) rotate(-90) scale(0.1 -0.1)">
      <defs>
       <path id="DejaVuSans-Oblique-64" d="M 2675 525 
Q 2444 222 2128 65 
Q 1813 -91 1428 -91 
Q 903 -91 598 267 
Q 294 625 294 1247 
Q 294 1766 478 2236 
Q 663 2706 1013 3078 
Q 1244 3325 1534 3454 
Q 1825 3584 2144 3584 
Q 2481 3584 2739 3421 
Q 2997 3259 3138 2956 
L 3513 4863 
L 4091 4863 
L 3144 0 
L 2566 0 
L 2675 525 
z
M 891 1350 
Q 891 897 1095 644 
Q 1300 391 1663 391 
Q 1931 391 2161 520 
Q 2391 650 2566 903 
Q 2750 1166 2856 1509 
Q 2963 1853 2963 2188 
Q 2963 2622 2758 2865 
Q 2553 3109 2194 3109 
Q 1922 3109 1687 2981 
Q 1453 2853 1288 2613 
Q 1106 2353 998 2009 
Q 891 1666 891 1350 
z
" transform="scale(0.015625)"/>
       <path id="DejaVuSans-Oblique-43" d="M 4447 4306 
L 4319 3641 
Q 4019 3944 3683 4091 
Q 3347 4238 2956 4238 
Q 2422 4238 2017 3981 
Q 1613 3725 1319 3200 
Q 1131 2863 1032 2486 
Q 934 2109 934 1728 
Q 934 1091 1264 756 
Q 1594 422 2222 422 
Q 2656 422 3056 561 
Q 3456 700 3834 978 
L 3688 231 
Q 3316 72 2936 -9 
Q 2556 -91 2175 -91 
Q 1278 -91 773 396 
Q 269 884 269 1753 
Q 269 2309 461 2846 
Q 653 3384 1013 3828 
Q 1394 4300 1883 4525 
Q 2372 4750 3022 4750 
Q 3422 4750 3780 4639 
Q 4138 4528 4447 4306 
z
" transform="scale(0.015625)"/>
       <path id="DejaVuSans-Oblique-44" d="M 1081 4666 
L 2438 4666 
Q 3519 4666 4070 4208 
Q 4622 3750 4622 2847 
Q 4622 2250 4412 1698 
Q 4203 1147 3834 769 
Q 3463 381 2891 190 
Q 2319 0 1538 0 
L 172 0 
L 1081 4666 
z
M 1613 4147 
L 909 519 
L 1734 519 
Q 2794 519 3375 1128 
Q 3956 1738 3956 2847 
Q 3956 3519 3581 3833 
Q 3206 4147 2406 4147 
L 1613 4147 
z
" transform="scale(0.015625)"/>
       <path id="DejaVuSans-Oblique-63" d="M 3431 3366 
L 3316 2797 
Q 3109 2947 2876 3022 
Q 2644 3097 2394 3097 
Q 2119 3097 1870 3000 
Q 1622 2903 1453 2725 
Q 1184 2453 1037 2087 
Q 891 1722 891 1331 
Q 891 859 1127 628 
Q 1363 397 1844 397 
Q 2081 397 2348 469 
Q 2616 541 2906 684 
L 2797 116 
Q 2547 13 2283 -39 
Q 2019 -91 1741 -91 
Q 1044 -91 669 257 
Q 294 606 294 1253 
Q 294 1797 489 2255 
Q 684 2713 1069 3078 
Q 1331 3328 1684 3456 
Q 2038 3584 2456 3584 
Q 2700 3584 2940 3529 
Q 3181 3475 3431 3366 
z
" transform="scale(0.015625)"/>
       <path id="DejaVuSans-Oblique-6f" d="M 1625 -91 
Q 1009 -91 651 289 
Q 294 669 294 1325 
Q 294 1706 417 2101 
Q 541 2497 738 2766 
Q 1047 3184 1428 3384 
Q 1809 3584 2291 3584 
Q 2888 3584 3255 3212 
Q 3622 2841 3622 2241 
Q 3622 1825 3500 1412 
Q 3378 1000 3181 728 
Q 2875 309 2494 109 
Q 2113 -91 1625 -91 
z
M 891 1344 
Q 891 869 1089 633 
Q 1288 397 1691 397 
Q 2269 397 2648 901 
Q 3028 1406 3028 2181 
Q 3028 2634 2825 2865 
Q 2622 3097 2228 3097 
Q 1903 3097 1650 2945 
Q 1397 2794 1197 2484 
Q 1050 2253 970 1956 
Q 891 1659 891 1344 
z
" transform="scale(0.015625)"/>
       <path id="DejaVuSans-Oblique-72" d="M 2853 2969 
Q 2766 3016 2653 3041 
Q 2541 3066 2413 3066 
Q 1953 3066 1609 2717 
Q 1266 2369 1153 1784 
L 800 0 
L 225 0 
L 909 3500 
L 1484 3500 
L 1375 2956 
Q 1603 3259 1920 3421 
Q 2238 3584 2597 3584 
Q 2691 3584 2781 3573 
Q 2872 3563 2963 3538 
L 2853 2969 
z
" transform="scale(0.015625)"/>
       <path id="DejaVuSans-2f" d="M 1625 4666 
L 2156 4666 
L 531 -594 
L 0 -594 
L 1625 4666 
z
" transform="scale(0.015625)"/>
       <path id="DejaVuSans-Oblique-61" d="M 3438 1997 
L 3047 0 
L 2472 0 
L 2578 531 
Q 2325 219 2001 64 
Q 1678 -91 1281 -91 
Q 834 -91 548 182 
Q 263 456 263 884 
Q 263 1497 752 1853 
Q 1241 2209 2100 2209 
L 2900 2209 
L 2931 2363 
Q 2938 2388 2941 2417 
Q 2944 2447 2944 2509 
Q 2944 2788 2717 2942 
Q 2491 3097 2081 3097 
Q 1800 3097 1504 3025 
Q 1209 2953 897 2809 
L 997 3341 
Q 1322 3463 1633 3523 
Q 1944 3584 2234 3584 
Q 2853 3584 3176 3315 
Q 3500 3047 3500 2534 
Q 3500 2431 3484 2292 
Q 3469 2153 3438 1997 
z
M 2816 1759 
L 2241 1759 
Q 1534 1759 1195 1570 
Q 856 1381 856 984 
Q 856 709 1029 553 
Q 1203 397 1509 397 
Q 1978 397 2328 733 
Q 2678 1069 2791 1631 
L 2816 1759 
z
" transform="scale(0.015625)"/>
       <path id="DejaVuSans-Oblique-6c" d="M 1172 4863 
L 1747 4863 
L 800 0 
L 225 0 
L 1172 4863 
z
" transform="scale(0.015625)"/>
       <path id="DejaVuSans-Oblique-70" d="M 3175 2156 
Q 3175 2616 2975 2859 
Q 2775 3103 2400 3103 
Q 2144 3103 1911 2972 
Q 1678 2841 1497 2591 
Q 1319 2344 1212 1994 
Q 1106 1644 1106 1300 
Q 1106 863 1306 627 
Q 1506 391 1875 391 
Q 2147 391 2380 519 
Q 2613 647 2778 891 
Q 2956 1147 3065 1494 
Q 3175 1841 3175 2156 
z
M 1394 2969 
Q 1625 3272 1939 3428 
Q 2253 3584 2638 3584 
Q 3175 3584 3472 3232 
Q 3769 2881 3769 2247 
Q 3769 1728 3584 1258 
Q 3400 788 3053 416 
Q 2822 169 2531 39 
Q 2241 -91 1919 -91 
Q 1547 -91 1294 64 
Q 1041 219 916 525 
L 556 -1331 
L -19 -1331 
L 922 3500 
L 1497 3500 
L 1394 2969 
z
" transform="scale(0.015625)"/>
       <path id="DejaVuSans-Oblique-68" d="M 3566 2113 
L 3156 0 
L 2578 0 
L 2988 2091 
Q 3016 2238 3031 2350 
Q 3047 2463 3047 2528 
Q 3047 2791 2881 2937 
Q 2716 3084 2419 3084 
Q 1956 3084 1617 2771 
Q 1278 2459 1178 1941 
L 800 0 
L 225 0 
L 1172 4863 
L 1747 4863 
L 1375 2950 
Q 1594 3244 1934 3414 
Q 2275 3584 2650 3584 
Q 3113 3584 3367 3334 
Q 3622 3084 3622 2631 
Q 3622 2519 3608 2391 
Q 3594 2263 3566 2113 
z
" transform="scale(0.015625)"/>
      </defs>
      <use xlink:href="#DejaVuSans-Oblique-64" transform="translate(0 0.015625)"/>
      <use xlink:href="#DejaVuSans-Oblique-43" transform="translate(63.476562 0.015625)"/>
      <use xlink:href="#DejaVuSans-Oblique-44" transform="translate(133.300781 0.015625)"/>
      <use xlink:href="#DejaVuSans-Oblique-63" transform="translate(210.302734 -16.390625) scale(0.7)"/>
      <use xlink:href="#DejaVuSans-Oblique-6f" transform="translate(251.523438 0.015625)"/>
      <use xlink:href="#DejaVuSans-Oblique-72" transform="translate(312.705078 0.015625)"/>
      <use xlink:href="#DejaVuSans-32" transform="translate(353.818359 0.015625)"/>
      <use xlink:href="#DejaVuSans-2f" transform="translate(417.441406 0.015625)"/>
      <use xlink:href="#DejaVuSans-Oblique-64" transform="translate(451.132812 0.015625)"/>
      <use xlink:href="#DejaVuSans-Oblique-61" transform="translate(514.609375 0.015625)"/>
      <use xlink:href="#DejaVuSans-Oblique-6c" transform="translate(575.888672 0.015625)"/>
      <use xlink:href="#DejaVuSans-Oblique-70" transform="translate(603.671875 0.015625)"/>
      <use xlink:href="#DejaVuSans-Oblique-68" transform="translate(667.148438 0.015625)"/>
      <use xlink:href="#DejaVuSans-Oblique-61" transform="translate(730.527344 0.015625)"/>
     </g>
    </g>
   </g>
   <g id="line2d_27">
    <path d="M 81.174545 165.122517 
L 83.060312 163.657827 
L 84.946079 162.193034 
L 86.831846 160.728139 
L 88.717612 159.263143 
L 90.603379 157.798044 
L 92.489146 156.332843 
L 94.374913 154.86754 
L 96.26068 153.402135 
L 98.146446 151.936627 
L 100.032213 150.471018 
L 101.91798 149.005307 
L 103.803747 147.539493 
L 105.689513 146.073577 
L 107.57528 144.60756 
L 109.461047 143.14144 
L 111.346814 141.675218 
L 113.23258 140.208894 
L 115.118347 138.742468 
L 117.004114 137.275939 
L 118.889881 135.809309 
L 120.775647 134.342576 
L 122.661414 132.875742 
L 124.547181 131.408805 
L 126.432948 129.941766 
L 128.318714 128.474625 
L 130.204481 127.007382 
L 132.090248 125.540037 
L 133.976015 124.07259 
L 135.861781 122.605041 
L 137.747548 121.137389 
L 139.633315 119.669636 
L 141.519082 118.20178 
L 143.404848 116.733822 
L 145.290615 115.265762 
L 147.176382 113.7976 
L 149.062149 112.329336 
L 150.947916 110.86097 
L 152.833682 109.392502 
L 154.719449 107.923931 
L 156.605216 106.455259 
L 158.490983 104.986484 
L 160.376749 103.517607 
L 162.262516 102.048629 
L 164.148283 100.579548 
L 166.03405 99.110365 
L 167.919816 97.64108 
L 169.805583 96.171692 
L 171.69135 94.702203 
L 173.577117 93.232612 
L 175.462883 91.762918 
L 177.34865 90.293122 
L 179.234417 88.823225 
L 181.120184 87.353225 
L 183.00595 85.883123 
L 184.891717 84.412919 
L 186.777484 82.942613 
L 188.663251 81.472204 
L 190.549017 80.001694 
L 192.434784 78.531081 
L 194.320551 77.060367 
L 196.206318 75.58955 
L 198.092084 74.118631 
L 199.977851 72.64761 
L 201.863618 71.176487 
L 203.749385 69.705262 
L 205.635152 68.233935 
L 207.520918 66.762506 
L 209.406685 65.290974 
L 211.292452 63.819341 
L 213.178219 62.347605 
L 215.063985 60.875767 
L 216.949752 59.403827 
L 218.835519 57.931785 
L 220.721286 56.459641 
L 222.607052 54.987395 
L 224.492819 53.515047 
L 226.378586 52.042597 
L 228.264353 50.570044 
L 230.150119 49.097389 
L 232.035886 47.624633 
L 233.921653 46.151774 
L 235.80742 44.678813 
L 237.693186 43.20575 
L 239.578953 41.732585 
L 241.46472 40.259318 
L 243.350487 38.785948 
L 245.236253 37.312477 
L 247.12202 35.838903 
L 249.007787 34.365228 
L 250.893554 32.89145 
L 252.77932 31.41757 
L 254.665087 29.943588 
L 256.550854 28.469504 
L 258.436621 26.995318 
L 260.322388 25.52103 
L 262.208154 24.046639 
L 264.093921 22.572147 
L 265.979688 21.097552 
L 267.865455 19.622856 
" clip-path="url(#p47cca69b08)" style="fill: none; stroke: #000080; stroke-width: 1.5; stroke-linecap: square"/>
   </g>
   <g id="line2d_28">
    <path d="M 81.174545 161.713468 
L 83.060312 160.314435 
L 84.946079 158.9153 
L 86.831846 157.516063 
L 88.717612 156.116724 
L 90.603379 154.717283 
L 92.489146 153.317739 
L 94.374913 151.918094 
L 96.26068 150.518346 
L 98.146446 149.118496 
L 100.032213 147.718544 
L 101.91798 146.31849 
L 103.803747 144.918334 
L 105.689513 143.518076 
L 107.57528 142.117716 
L 109.461047 140.717254 
L 111.346814 139.316689 
L 113.23258 137.916022 
L 115.118347 136.515254 
L 117.004114 135.114383 
L 118.889881 133.71341 
L 120.775647 132.312335 
L 122.661414 130.911158 
L 124.547181 129.509879 
L 126.432948 128.108497 
L 128.318714 126.707014 
L 130.204481 125.305428 
L 132.090248 123.903741 
L 133.976015 122.501951 
L 135.861781 121.100059 
L 137.747548 119.698065 
L 139.633315 118.295969 
L 141.519082 116.893771 
L 143.404848 115.491471 
L 145.290615 114.089068 
L 147.176382 112.686564 
L 149.062149 111.283957 
L 150.947916 109.881248 
L 152.833682 108.478438 
L 154.719449 107.075525 
L 156.605216 105.67251 
L 158.490983 104.269393 
L 160.376749 102.866173 
L 162.262516 101.462852 
L 164.148283 100.059429 
L 166.03405 98.655903 
L 167.919816 97.252275 
L 169.805583 95.848546 
L 171.69135 94.444714 
L 173.577117 93.04078 
L 175.462883 91.636744 
L 177.34865 90.232606 
L 179.234417 88.828365 
L 181.120184 87.424023 
L 183.00595 86.019579 
L 184.891717 84.615032 
L 186.777484 83.210383 
L 188.663251 81.805633 
L 190.549017 80.40078 
L 192.434784 78.995825 
L 194.320551 77.590768 
L 196.206318 76.185608 
L 198.092084 74.780347 
L 199.977851 73.374984 
L 201.863618 71.969518 
L 203.749385 70.56395 
L 205.635152 69.158281 
L 207.520918 67.752509 
L 209.406685 66.346635 
L 211.292452 64.940659 
L 213.178219 63.534581 
L 215.063985 62.1284 
L 216.949752 60.722118 
L 218.835519 59.315734 
L 220.721286 57.909247 
L 222.607052 56.502658 
L 224.492819 55.095968 
L 226.378586 53.689175 
L 228.264353 52.28228 
L 230.150119 50.875283 
L 232.035886 49.468183 
L 233.921653 48.060982 
L 235.80742 46.653679 
L 237.693186 45.246273 
L 239.578953 43.838765 
L 241.46472 42.431156 
L 243.350487 41.023444 
L 245.236253 39.61563 
L 247.12202 38.207714 
L 249.007787 36.799696 
L 250.893554 35.391576 
L 252.77932 33.983353 
L 254.665087 32.575029 
L 256.550854 31.166602 
L 258.436621 29.758073 
L 260.322388 28.349443 
L 262.208154 26.94071 
L 264.093921 25.531875 
L 265.979688 24.122938 
L 267.865455 22.713898 
" clip-path="url(#p47cca69b08)" style="fill: none; stroke: #7dff7a; stroke-width: 1.5; stroke-linecap: square"/>
   </g>
   <g id="line2d_29">
    <path d="M 81.174545 158.30442 
L 83.060312 156.971044 
L 84.946079 155.637567 
L 86.831846 154.303987 
L 88.717612 152.970305 
L 90.603379 151.636521 
L 92.489146 150.302636 
L 94.374913 148.968647 
L 96.26068 147.634557 
L 98.146446 146.300365 
L 100.032213 144.966071 
L 101.91798 143.631674 
L 103.803747 142.297176 
L 105.689513 140.962575 
L 107.57528 139.627872 
L 109.461047 138.293067 
L 111.346814 136.95816 
L 113.23258 135.623151 
L 115.118347 134.28804 
L 117.004114 132.952827 
L 118.889881 131.617511 
L 120.775647 130.282094 
L 122.661414 128.946574 
L 124.547181 127.610952 
L 126.432948 126.275228 
L 128.318714 124.939402 
L 130.204481 123.603474 
L 132.090248 122.267444 
L 133.976015 120.931312 
L 135.861781 119.595078 
L 137.747548 118.258741 
L 139.633315 116.922303 
L 141.519082 115.585762 
L 143.404848 114.249119 
L 145.290615 112.912374 
L 147.176382 111.575527 
L 149.062149 110.238578 
L 150.947916 108.901527 
L 152.833682 107.564374 
L 154.719449 106.227118 
L 156.605216 104.889761 
L 158.490983 103.552301 
L 160.376749 102.214739 
L 162.262516 100.877076 
L 164.148283 99.53931 
L 166.03405 98.201442 
L 167.919816 96.863471 
L 169.805583 95.525399 
L 171.69135 94.187225 
L 173.577117 92.848948 
L 175.462883 91.51057 
L 177.34865 90.172089 
L 179.234417 88.833506 
L 181.120184 87.494821 
L 183.00595 86.156034 
L 184.891717 84.817145 
L 186.777484 83.478154 
L 188.663251 82.139061 
L 190.549017 80.799865 
L 192.434784 79.460568 
L 194.320551 78.121168 
L 196.206318 76.781667 
L 198.092084 75.442063 
L 199.977851 74.102357 
L 201.863618 72.762549 
L 203.749385 71.422639 
L 205.635152 70.082626 
L 207.520918 68.742512 
L 209.406685 67.402296 
L 211.292452 66.061977 
L 213.178219 64.721556 
L 215.063985 63.381034 
L 216.949752 62.040409 
L 218.835519 60.699682 
L 220.721286 59.358853 
L 222.607052 58.017921 
L 224.492819 56.676888 
L 226.378586 55.335753 
L 228.264353 53.994515 
L 230.150119 52.653176 
L 232.035886 51.311734 
L 233.921653 49.97019 
L 235.80742 48.628544 
L 237.693186 47.286796 
L 239.578953 45.944946 
L 241.46472 44.602994 
L 243.350487 43.260939 
L 245.236253 41.918783 
L 247.12202 40.576524 
L 249.007787 39.234164 
L 250.893554 37.891701 
L 252.77932 36.549136 
L 254.665087 35.206469 
L 256.550854 33.8637 
L 258.436621 32.520829 
L 260.322388 31.177856 
L 262.208154 29.83478 
L 264.093921 28.491603 
L 265.979688 27.148323 
L 267.865455 25.804941 
" clip-path="url(#p47cca69b08)" style="fill: none; stroke: #800000; stroke-width: 1.5; stroke-linecap: square"/>
   </g>
   <g id="patch_3">
    <path d="M 71.84 172.3975 
L 71.84 12.347873 
" style="fill: none; stroke: #000000; stroke-width: 0.8; stroke-linejoin: miter; stroke-linecap: square"/>
   </g>
   <g id="patch_4">
    <path d="M 277.2 172.3975 
L 277.2 12.347873 
" style="fill: none; stroke: #000000; stroke-width: 0.8; stroke-linejoin: miter; stroke-linecap: square"/>
   </g>
   <g id="patch_5">
    <path d="M 71.84 172.3975 
L 277.2 172.3975 
" style="fill: none; stroke: #000000; stroke-width: 0.8; stroke-linejoin: miter; stroke-linecap: square"/>
   </g>
   <g id="patch_6">
    <path d="M 71.84 12.347873 
L 277.2 12.347873 
" style="fill: none; stroke: #000000; stroke-width: 0.8; stroke-linejoin: miter; stroke-linecap: square"/>
   </g>
   <g id="legend_1">
    <g id="patch_7">
     <path d="M 78.84 64.382248 
L 158.84 64.382248 
Q 160.84 64.382248 160.84 62.382248 
L 160.84 19.347873 
Q 160.84 17.347873 158.84 17.347873 
L 78.84 17.347873 
Q 76.84 17.347873 76.84 19.347873 
L 76.84 62.382248 
Q 76.84 64.382248 78.84 64.382248 
z
" style="fill: #ffffff; opacity: 0.8; stroke: #cccccc; stroke-linejoin: miter"/>
    </g>
    <g id="line2d_30">
     <path d="M 80.84 25.44631 
L 90.84 25.44631 
L 100.84 25.44631 
" style="fill: none; stroke: #000080; stroke-width: 1.5; stroke-linecap: square"/>
    </g>
    <g id="text_16">
     <!-- $\delta_e = -10$ -->
     <g transform="translate(108.84 28.94631) scale(0.1 -0.1)">
      <defs>
       <path id="DejaVuSans-Oblique-3b4" d="M 3472 4053 
Q 3197 4272 2450 4272 
Q 1659 4272 1588 3906 
Q 1531 3619 2328 3469 
Q 2953 3353 3253 3003 
Q 3616 2581 3447 1716 
Q 3284 888 2763 400 
Q 2238 -91 1488 -91 
Q 741 -91 406 400 
Q 72 888 241 1747 
Q 363 2384 891 2900 
Q 1097 3100 1353 3213 
Q 913 3459 1000 3900 
Q 1166 4750 2544 4750 
Q 3234 4750 3566 4531 
L 3472 4053 
z
M 1753 3056 
Q 1525 2966 1306 2738 
Q 969 2384 847 1747 
Q 722 1113 919 756 
Q 1119 397 1584 397 
Q 2044 397 2381 759 
Q 2722 1122 2838 1716 
Q 2956 2338 2731 2638 
Q 2491 2959 2103 2994 
Q 1906 3013 1753 3056 
z
" transform="scale(0.015625)"/>
       <path id="DejaVuSans-Oblique-65" d="M 3078 2063 
Q 3088 2113 3092 2166 
Q 3097 2219 3097 2272 
Q 3097 2653 2873 2875 
Q 2650 3097 2266 3097 
Q 1838 3097 1509 2826 
Q 1181 2556 1013 2059 
L 3078 2063 
z
M 3578 1613 
L 903 1613 
Q 884 1494 878 1425 
Q 872 1356 872 1306 
Q 872 872 1139 634 
Q 1406 397 1894 397 
Q 2269 397 2603 481 
Q 2938 566 3225 728 
L 3116 159 
Q 2806 34 2476 -28 
Q 2147 -91 1806 -91 
Q 1078 -91 686 257 
Q 294 606 294 1247 
Q 294 1794 489 2264 
Q 684 2734 1063 3103 
Q 1306 3334 1642 3459 
Q 1978 3584 2356 3584 
Q 2950 3584 3301 3228 
Q 3653 2872 3653 2272 
Q 3653 2128 3634 1964 
Q 3616 1800 3578 1613 
z
" transform="scale(0.015625)"/>
       <path id="DejaVuSans-3d" d="M 678 2906 
L 4684 2906 
L 4684 2381 
L 678 2381 
L 678 2906 
z
M 678 1631 
L 4684 1631 
L 4684 1100 
L 678 1100 
L 678 1631 
z
" transform="scale(0.015625)"/>
      </defs>
      <use xlink:href="#DejaVuSans-Oblique-3b4" transform="translate(0 0.78125)"/>
      <use xlink:href="#DejaVuSans-Oblique-65" transform="translate(61.181641 -15.625) scale(0.7)"/>
      <use xlink:href="#DejaVuSans-3d" transform="translate(126.464844 0.78125)"/>
      <use xlink:href="#DejaVuSans-2212" transform="translate(249.21875 0.78125)"/>
      <use xlink:href="#DejaVuSans-31" transform="translate(352.490234 0.78125)"/>
      <use xlink:href="#DejaVuSans-30" transform="translate(416.113281 0.78125)"/>
     </g>
    </g>
    <g id="line2d_31">
     <path d="M 80.84 40.124435 
L 90.84 40.124435 
L 100.84 40.124435 
" style="fill: none; stroke: #7dff7a; stroke-width: 1.5; stroke-linecap: square"/>
    </g>
    <g id="text_17">
     <!-- $\delta_e = 0$ -->
     <g transform="translate(108.84 43.624435) scale(0.1 -0.1)">
      <use xlink:href="#DejaVuSans-Oblique-3b4" transform="translate(0 0.78125)"/>
      <use xlink:href="#DejaVuSans-Oblique-65" transform="translate(61.181641 -15.625) scale(0.7)"/>
      <use xlink:href="#DejaVuSans-3d" transform="translate(126.464844 0.78125)"/>
      <use xlink:href="#DejaVuSans-30" transform="translate(229.736328 0.78125)"/>
     </g>
    </g>
    <g id="line2d_32">
     <path d="M 80.84 54.80256 
L 90.84 54.80256 
L 100.84 54.80256 
" style="fill: none; stroke: #800000; stroke-width: 1.5; stroke-linecap: square"/>
    </g>
    <g id="text_18">
     <!-- $\delta_e = 10$ -->
     <g transform="translate(108.84 58.30256) scale(0.1 -0.1)">
      <use xlink:href="#DejaVuSans-Oblique-3b4" transform="translate(0 0.78125)"/>
      <use xlink:href="#DejaVuSans-Oblique-65" transform="translate(61.181641 -15.625) scale(0.7)"/>
      <use xlink:href="#DejaVuSans-3d" transform="translate(126.464844 0.78125)"/>
      <use xlink:href="#DejaVuSans-31" transform="translate(229.736328 0.78125)"/>
      <use xlink:href="#DejaVuSans-30" transform="translate(293.359375 0.78125)"/>
     </g>
    </g>
   </g>
  </g>
 </g>
 <defs>
  <clipPath id="p47cca69b08">
   <rect x="71.84" y="12.347873" width="205.36" height="160.049627"/>
  </clipPath>
 </defs>
</svg>
