<?xml version="1.0" encoding="utf-8" standalone="no"?>
<!DOCTYPE svg PUBLIC "-//W3C//DTD SVG 1.1//EN"
  "http://www.w3.org/Graphics/SVG/1.1/DTD/svg11.dtd">
<svg xmlns:xlink="http://www.w3.org/1999/xlink" width="432pt" height="216pt" viewBox="0 0 432 216" xmlns="http://www.w3.org/2000/svg" version="1.1">
 <metadata>
  <rdf:RDF xmlns:dc="http://purl.org/dc/elements/1.1/" xmlns:cc="http://creativecommons.org/ns#" xmlns:rdf="http://www.w3.org/1999/02/22-rdf-syntax-ns#">
   <cc:Work>
    <dc:type rdf:resource="http://purl.org/dc/dcmitype/StillImage"/>
    <dc:date>2025-03-31T11:57:48.523768</dc:date>
    <dc:format>image/svg+xml</dc:format>
    <dc:creator>
     <cc:Agent>
      <dc:title>Matplotlib v3.9.2, https://matplotlib.org/</dc:title>
     </cc:Agent>
    </dc:creator>
   </cc:Work>
  </rdf:RDF>
 </metadata>
 <defs>
  <style type="text/css">*{stroke-linejoin: round; stroke-linecap: butt}</style>
 </defs>
 <g id="figure_1">
  <g id="patch_1">
   <path d="M 0 216 
L 432 216 
L 432 0 
L 0 0 
z
" style="fill: #ffffff"/>
  </g>
  <g id="axes_1">
   <g id="patch_2">
    <path d="M 77.798 168.568 
L 288.833656 168.568 
L 288.833656 28.876 
L 77.798 28.876 
z
" style="fill: #ffffff"/>
   </g>
   <g id="PathCollection_1">
    <defs>
     <path id="m9ac32d4d8a" d="M -3 3 
L 3 -3 
M -3 -3 
L 3 3 
" style="stroke: #000080; stroke-width: 1.5"/>
    </defs>
    <g clip-path="url(#pba71dc37ab)">
     <use xlink:href="#m9ac32d4d8a" x="117.326145" y="154.590885" style="fill: #000080; stroke: #000080; stroke-width: 1.5"/>
     <use xlink:href="#m9ac32d4d8a" x="92.275089" y="155.581801" style="fill: #000080; stroke: #000080; stroke-width: 1.5"/>
     <use xlink:href="#m9ac32d4d8a" x="257.240597" y="162.163805" style="fill: #000080; stroke: #000080; stroke-width: 1.5"/>
     <use xlink:href="#m9ac32d4d8a" x="150.375668" y="155.360989" style="fill: #000080; stroke: #000080; stroke-width: 1.5"/>
     <use xlink:href="#m9ac32d4d8a" x="195.486011" y="157.909726" style="fill: #000080; stroke: #000080; stroke-width: 1.5"/>
     <use xlink:href="#m9ac32d4d8a" x="255.394989" y="162.218364" style="fill: #000080; stroke: #000080; stroke-width: 1.5"/>
     <use xlink:href="#m9ac32d4d8a" x="255.31141" y="162.218364" style="fill: #000080; stroke: #000080; stroke-width: 1.5"/>
    </g>
   </g>
   <g id="PathCollection_2">
    <defs>
     <path id="m12b53813f6" d="M -3 0 
L 3 0 
M 0 3 
L 0 -3 
" style="stroke: #0000ff; stroke-width: 1.5"/>
    </defs>
    <g clip-path="url(#pba71dc37ab)">
     <use xlink:href="#m12b53813f6" x="166.831186" y="157.161186" style="fill: #0000ff; stroke: #0000ff; stroke-width: 1.5"/>
     <use xlink:href="#m12b53813f6" x="211.35559" y="155.718234" style="fill: #0000ff; stroke: #0000ff; stroke-width: 1.5"/>
     <use xlink:href="#m12b53813f6" x="134.295771" y="155.878999" style="fill: #0000ff; stroke: #0000ff; stroke-width: 1.5"/>
     <use xlink:href="#m12b53813f6" x="109.275812" y="152.028236" style="fill: #0000ff; stroke: #0000ff; stroke-width: 1.5"/>
    </g>
   </g>
   <g id="PathCollection_3">
    <defs>
     <path id="m0511f116ec" d="M -3 3 
L 3 -3 
M -3 -3 
L 3 3 
" style="stroke: #0060ff; stroke-width: 1.5"/>
    </defs>
    <g clip-path="url(#pba71dc37ab)">
     <use xlink:href="#m0511f116ec" x="262.666606" y="129.254024" style="fill: #0060ff; stroke: #0060ff; stroke-width: 1.5"/>
    </g>
   </g>
   <g id="PathCollection_4">
    <defs>
     <path id="m55155ae288" d="M -3 0 
L 3 0 
M 0 3 
L 0 -3 
" style="stroke: #00d4ff; stroke-width: 1.5"/>
    </defs>
    <g clip-path="url(#pba71dc37ab)">
     <use xlink:href="#m55155ae288" x="130.037546" y="125.269044" style="fill: #00d4ff; stroke: #00d4ff; stroke-width: 1.5"/>
     <use xlink:href="#m55155ae288" x="269.114638" y="120.538551" style="fill: #00d4ff; stroke: #00d4ff; stroke-width: 1.5"/>
     <use xlink:href="#m55155ae288" x="144.565977" y="125.244158" style="fill: #00d4ff; stroke: #00d4ff; stroke-width: 1.5"/>
    </g>
   </g>
   <g id="PathCollection_5">
    <defs>
     <path id="ma74182985d" d="M -3 3 
L 3 -3 
M -3 -3 
L 3 3 
" style="stroke: #4dffaa; stroke-width: 1.5"/>
    </defs>
    <g clip-path="url(#pba71dc37ab)">
     <use xlink:href="#ma74182985d" x="107.50203" y="97.690048" style="fill: #4dffaa; stroke: #4dffaa; stroke-width: 1.5"/>
     <use xlink:href="#ma74182985d" x="146.882064" y="98.702138" style="fill: #4dffaa; stroke: #4dffaa; stroke-width: 1.5"/>
    </g>
   </g>
   <g id="PathCollection_6">
    <defs>
     <path id="mea2ab8e500" d="M -3 0 
L 3 0 
M 0 3 
L 0 -3 
" style="stroke: #aaff4d; stroke-width: 1.5"/>
    </defs>
    <g clip-path="url(#pba71dc37ab)">
     <use xlink:href="#mea2ab8e500" x="178.37229" y="96.919432" style="fill: #aaff4d; stroke: #aaff4d; stroke-width: 1.5"/>
     <use xlink:href="#mea2ab8e500" x="99.36944" y="101.188678" style="fill: #aaff4d; stroke: #aaff4d; stroke-width: 1.5"/>
    </g>
   </g>
   <g id="PathCollection_7">
    <defs>
     <path id="maab73abca4" d="M -3 3 
L 3 -3 
M -3 -3 
L 3 3 
" style="stroke: #ffe600; stroke-width: 1.5"/>
    </defs>
    <g clip-path="url(#pba71dc37ab)">
     <use xlink:href="#maab73abca4" x="214.800848" y="68.394445" style="fill: #ffe600; stroke: #ffe600; stroke-width: 1.5"/>
    </g>
   </g>
   <g id="PathCollection_8">
    <defs>
     <path id="m44374d6a4c" d="M -3 0 
L 3 0 
M 0 3 
L 0 -3 
" style="stroke: #ff7a00; stroke-width: 1.5"/>
    </defs>
    <g clip-path="url(#pba71dc37ab)">
     <use xlink:href="#m44374d6a4c" x="231.241256" y="62.57128" style="fill: #ff7a00; stroke: #ff7a00; stroke-width: 1.5"/>
    </g>
   </g>
   <g id="PathCollection_9">
    <defs>
     <path id="m6e298f2606" d="M -3 3 
L 3 -3 
M -3 -3 
L 3 3 
" style="stroke: #ff1300; stroke-width: 1.5"/>
    </defs>
    <g clip-path="url(#pba71dc37ab)">
     <use xlink:href="#m6e298f2606" x="196.787878" y="41.843311" style="fill: #ff1300; stroke: #ff1300; stroke-width: 1.5"/>
     <use xlink:href="#m6e298f2606" x="279.029213" y="39.918568" style="fill: #ff1300; stroke: #ff1300; stroke-width: 1.5"/>
     <use xlink:href="#m6e298f2606" x="159.657591" y="41.5639" style="fill: #ff1300; stroke: #ff1300; stroke-width: 1.5"/>
     <use xlink:href="#m6e298f2606" x="119.913579" y="38.841565" style="fill: #ff1300; stroke: #ff1300; stroke-width: 1.5"/>
     <use xlink:href="#m6e298f2606" x="279.183427" y="39.861904" style="fill: #ff1300; stroke: #ff1300; stroke-width: 1.5"/>
     <use xlink:href="#m6e298f2606" x="279.241126" y="39.861904" style="fill: #ff1300; stroke: #ff1300; stroke-width: 1.5"/>
    </g>
   </g>
   <g id="PathCollection_10">
    <defs>
     <path id="m9eed418285" d="M -3 0 
L 3 0 
M 0 3 
L 0 -3 
" style="stroke: #800000; stroke-width: 1.5"/>
    </defs>
    <g clip-path="url(#pba71dc37ab)">
     <use xlink:href="#m9eed418285" x="152.707764" y="37.415047" style="fill: #800000; stroke: #800000; stroke-width: 1.5"/>
     <use xlink:href="#m9eed418285" x="174.02126" y="36.095835" style="fill: #800000; stroke: #800000; stroke-width: 1.5"/>
     <use xlink:href="#m9eed418285" x="260.963704" y="35.643031" style="fill: #800000; stroke: #800000; stroke-width: 1.5"/>
    </g>
   </g>
   <g id="matplotlib.axis_1">
    <g id="xtick_1">
     <g id="line2d_1">
      <path d="M 98.872125 168.568 
L 98.872125 28.876 
" clip-path="url(#pba71dc37ab)" style="fill: none; stroke: #b0b0b0; stroke-width: 0.8; stroke-linecap: square"/>
     </g>
     <g id="line2d_2">
      <defs>
       <path id="mf227411b3b" d="M 0 0 
L 0 3.5 
" style="stroke: #000000; stroke-width: 0.8"/>
      </defs>
      <g>
       <use xlink:href="#mf227411b3b" x="98.872125" y="168.568" style="stroke: #000000; stroke-width: 0.8"/>
      </g>
     </g>
     <g id="text_1">
      <!-- −0.05 -->
      <g transform="translate(83.549469 183.166437) scale(0.1 -0.1)">
       <defs>
        <path id="DejaVuSans-2212" d="M 678 2272 
L 4684 2272 
L 4684 1741 
L 678 1741 
L 678 2272 
z
" transform="scale(0.015625)"/>
        <path id="DejaVuSans-30" d="M 2034 4250 
Q 1547 4250 1301 3770 
Q 1056 3291 1056 2328 
Q 1056 1369 1301 889 
Q 1547 409 2034 409 
Q 2525 409 2770 889 
Q 3016 1369 3016 2328 
Q 3016 3291 2770 3770 
Q 2525 4250 2034 4250 
z
M 2034 4750 
Q 2819 4750 3233 4129 
Q 3647 3509 3647 2328 
Q 3647 1150 3233 529 
Q 2819 -91 2034 -91 
Q 1250 -91 836 529 
Q 422 1150 422 2328 
Q 422 3509 836 4129 
Q 1250 4750 2034 4750 
z
" transform="scale(0.015625)"/>
        <path id="DejaVuSans-2e" d="M 684 794 
L 1344 794 
L 1344 0 
L 684 0 
L 684 794 
z
" transform="scale(0.015625)"/>
        <path id="DejaVuSans-35" d="M 691 4666 
L 3169 4666 
L 3169 4134 
L 1269 4134 
L 1269 2991 
Q 1406 3038 1543 3061 
Q 1681 3084 1819 3084 
Q 2600 3084 3056 2656 
Q 3513 2228 3513 1497 
Q 3513 744 3044 326 
Q 2575 -91 1722 -91 
Q 1428 -91 1123 -41 
Q 819 9 494 109 
L 494 744 
Q 775 591 1075 516 
Q 1375 441 1709 441 
Q 2250 441 2565 725 
Q 2881 1009 2881 1497 
Q 2881 1984 2565 2268 
Q 2250 2553 1709 2553 
Q 1456 2553 1204 2497 
Q 953 2441 691 2322 
L 691 4666 
z
" transform="scale(0.015625)"/>
       </defs>
       <use xlink:href="#DejaVuSans-2212"/>
       <use xlink:href="#DejaVuSans-30" x="83.789062"/>
       <use xlink:href="#DejaVuSans-2e" x="147.412109"/>
       <use xlink:href="#DejaVuSans-30" x="179.199219"/>
       <use xlink:href="#DejaVuSans-35" x="242.822266"/>
      </g>
     </g>
    </g>
    <g id="xtick_2">
     <g id="line2d_3">
      <path d="M 131.210978 168.568 
L 131.210978 28.876 
" clip-path="url(#pba71dc37ab)" style="fill: none; stroke: #b0b0b0; stroke-width: 0.8; stroke-linecap: square"/>
     </g>
     <g id="line2d_4">
      <g>
       <use xlink:href="#mf227411b3b" x="131.210978" y="168.568" style="stroke: #000000; stroke-width: 0.8"/>
      </g>
     </g>
     <g id="text_2">
      <!-- 0.00 -->
      <g transform="translate(120.078166 183.166437) scale(0.1 -0.1)">
       <use xlink:href="#DejaVuSans-30"/>
       <use xlink:href="#DejaVuSans-2e" x="63.623047"/>
       <use xlink:href="#DejaVuSans-30" x="95.410156"/>
       <use xlink:href="#DejaVuSans-30" x="159.033203"/>
      </g>
     </g>
    </g>
    <g id="xtick_3">
     <g id="line2d_5">
      <path d="M 163.549832 168.568 
L 163.549832 28.876 
" clip-path="url(#pba71dc37ab)" style="fill: none; stroke: #b0b0b0; stroke-width: 0.8; stroke-linecap: square"/>
     </g>
     <g id="line2d_6">
      <g>
       <use xlink:href="#mf227411b3b" x="163.549832" y="168.568" style="stroke: #000000; stroke-width: 0.8"/>
      </g>
     </g>
     <g id="text_3">
      <!-- 0.05 -->
      <g transform="translate(152.41702 183.166437) scale(0.1 -0.1)">
       <use xlink:href="#DejaVuSans-30"/>
       <use xlink:href="#DejaVuSans-2e" x="63.623047"/>
       <use xlink:href="#DejaVuSans-30" x="95.410156"/>
       <use xlink:href="#DejaVuSans-35" x="159.033203"/>
      </g>
     </g>
    </g>
    <g id="xtick_4">
     <g id="line2d_7">
      <path d="M 195.888686 168.568 
L 195.888686 28.876 
" clip-path="url(#pba71dc37ab)" style="fill: none; stroke: #b0b0b0; stroke-width: 0.8; stroke-linecap: square"/>
     </g>
     <g id="line2d_8">
      <g>
       <use xlink:href="#mf227411b3b" x="195.888686" y="168.568" style="stroke: #000000; stroke-width: 0.8"/>
      </g>
     </g>
     <g id="text_4">
      <!-- 0.10 -->
      <g transform="translate(184.755873 183.166437) scale(0.1 -0.1)">
       <defs>
        <path id="DejaVuSans-31" d="M 794 531 
L 1825 531 
L 1825 4091 
L 703 3866 
L 703 4441 
L 1819 4666 
L 2450 4666 
L 2450 531 
L 3481 531 
L 3481 0 
L 794 0 
L 794 531 
z
" transform="scale(0.015625)"/>
       </defs>
       <use xlink:href="#DejaVuSans-30"/>
       <use xlink:href="#DejaVuSans-2e" x="63.623047"/>
       <use xlink:href="#DejaVuSans-31" x="95.410156"/>
       <use xlink:href="#DejaVuSans-30" x="159.033203"/>
      </g>
     </g>
    </g>
    <g id="xtick_5">
     <g id="line2d_9">
      <path d="M 228.227539 168.568 
L 228.227539 28.876 
" clip-path="url(#pba71dc37ab)" style="fill: none; stroke: #b0b0b0; stroke-width: 0.8; stroke-linecap: square"/>
     </g>
     <g id="line2d_10">
      <g>
       <use xlink:href="#mf227411b3b" x="228.227539" y="168.568" style="stroke: #000000; stroke-width: 0.8"/>
      </g>
     </g>
     <g id="text_5">
      <!-- 0.15 -->
      <g transform="translate(217.094727 183.166437) scale(0.1 -0.1)">
       <use xlink:href="#DejaVuSans-30"/>
       <use xlink:href="#DejaVuSans-2e" x="63.623047"/>
       <use xlink:href="#DejaVuSans-31" x="95.410156"/>
       <use xlink:href="#DejaVuSans-35" x="159.033203"/>
      </g>
     </g>
    </g>
    <g id="xtick_6">
     <g id="line2d_11">
      <path d="M 260.566393 168.568 
L 260.566393 28.876 
" clip-path="url(#pba71dc37ab)" style="fill: none; stroke: #b0b0b0; stroke-width: 0.8; stroke-linecap: square"/>
     </g>
     <g id="line2d_12">
      <g>
       <use xlink:href="#mf227411b3b" x="260.566393" y="168.568" style="stroke: #000000; stroke-width: 0.8"/>
      </g>
     </g>
     <g id="text_6">
      <!-- 0.20 -->
      <g transform="translate(249.43358 183.166437) scale(0.1 -0.1)">
       <defs>
        <path id="DejaVuSans-32" d="M 1228 531 
L 3431 531 
L 3431 0 
L 469 0 
L 469 531 
Q 828 903 1448 1529 
Q 2069 2156 2228 2338 
Q 2531 2678 2651 2914 
Q 2772 3150 2772 3378 
Q 2772 3750 2511 3984 
Q 2250 4219 1831 4219 
Q 1534 4219 1204 4116 
Q 875 4013 500 3803 
L 500 4441 
Q 881 4594 1212 4672 
Q 1544 4750 1819 4750 
Q 2544 4750 2975 4387 
Q 3406 4025 3406 3419 
Q 3406 3131 3298 2873 
Q 3191 2616 2906 2266 
Q 2828 2175 2409 1742 
Q 1991 1309 1228 531 
z
" transform="scale(0.015625)"/>
       </defs>
       <use xlink:href="#DejaVuSans-30"/>
       <use xlink:href="#DejaVuSans-2e" x="63.623047"/>
       <use xlink:href="#DejaVuSans-32" x="95.410156"/>
       <use xlink:href="#DejaVuSans-30" x="159.033203"/>
      </g>
     </g>
    </g>
    <g id="text_7">
     <!-- $T_C = T / \rho V^2 D^2$ -->
     <g transform="translate(150.915828 198.346125) scale(0.1 -0.1)">
      <defs>
       <path id="DejaVuSans-Oblique-54" d="M 378 4666 
L 4325 4666 
L 4225 4134 
L 2559 4134 
L 1759 0 
L 1125 0 
L 1925 4134 
L 275 4134 
L 378 4666 
z
" transform="scale(0.015625)"/>
       <path id="DejaVuSans-Oblique-43" d="M 4447 4306 
L 4319 3641 
Q 4019 3944 3683 4091 
Q 3347 4238 2956 4238 
Q 2422 4238 2017 3981 
Q 1613 3725 1319 3200 
Q 1131 2863 1032 2486 
Q 934 2109 934 1728 
Q 934 1091 1264 756 
Q 1594 422 2222 422 
Q 2656 422 3056 561 
Q 3456 700 3834 978 
L 3688 231 
Q 3316 72 2936 -9 
Q 2556 -91 2175 -91 
Q 1278 -91 773 396 
Q 269 884 269 1753 
Q 269 2309 461 2846 
Q 653 3384 1013 3828 
Q 1394 4300 1883 4525 
Q 2372 4750 3022 4750 
Q 3422 4750 3780 4639 
Q 4138 4528 4447 4306 
z
" transform="scale(0.015625)"/>
       <path id="DejaVuSans-3d" d="M 678 2906 
L 4684 2906 
L 4684 2381 
L 678 2381 
L 678 2906 
z
M 678 1631 
L 4684 1631 
L 4684 1100 
L 678 1100 
L 678 1631 
z
" transform="scale(0.015625)"/>
       <path id="DejaVuSans-2f" d="M 1625 4666 
L 2156 4666 
L 531 -594 
L 0 -594 
L 1625 4666 
z
" transform="scale(0.015625)"/>
       <path id="DejaVuSans-Oblique-3c1" d="M 1203 2875 
Q 1453 3194 1981 3475 
Q 2188 3584 2756 3584 
Q 3394 3584 3694 3078 
Q 3994 2572 3834 1747 
Q 3672 922 3175 415 
Q 2678 -91 2041 -91 
Q 1656 -91 1409 63 
Q 1163 213 1044 525 
L 681 -1331 
L 103 -1331 
L 697 1716 
Q 838 2438 1203 2875 
z
M 3238 1747 
Q 3359 2381 3169 2744 
Q 2978 3103 2522 3103 
Q 2066 3103 1734 2744 
Q 1403 2381 1281 1747 
Q 1156 1113 1347 750 
Q 1538 391 1994 391 
Q 2450 391 2781 750 
Q 3113 1113 3238 1747 
z
" transform="scale(0.015625)"/>
       <path id="DejaVuSans-Oblique-56" d="M 1319 0 
L 500 4666 
L 1119 4666 
L 1797 653 
L 4063 4666 
L 4750 4666 
L 2053 0 
L 1319 0 
z
" transform="scale(0.015625)"/>
       <path id="DejaVuSans-Oblique-44" d="M 1081 4666 
L 2438 4666 
Q 3519 4666 4070 4208 
Q 4622 3750 4622 2847 
Q 4622 2250 4412 1698 
Q 4203 1147 3834 769 
Q 3463 381 2891 190 
Q 2319 0 1538 0 
L 172 0 
L 1081 4666 
z
M 1613 4147 
L 909 519 
L 1734 519 
Q 2794 519 3375 1128 
Q 3956 1738 3956 2847 
Q 3956 3519 3581 3833 
Q 3206 4147 2406 4147 
L 1613 4147 
z
" transform="scale(0.015625)"/>
      </defs>
      <use xlink:href="#DejaVuSans-Oblique-54" transform="translate(0 0.765625)"/>
      <use xlink:href="#DejaVuSans-Oblique-43" transform="translate(61.083984 -15.640625) scale(0.7)"/>
      <use xlink:href="#DejaVuSans-3d" transform="translate(132.177734 0.765625)"/>
      <use xlink:href="#DejaVuSans-Oblique-54" transform="translate(235.449219 0.765625)"/>
      <use xlink:href="#DejaVuSans-2f" transform="translate(296.533203 0.765625)"/>
      <use xlink:href="#DejaVuSans-Oblique-3c1" transform="translate(330.224609 0.765625)"/>
      <use xlink:href="#DejaVuSans-Oblique-56" transform="translate(393.701172 0.765625)"/>
      <use xlink:href="#DejaVuSans-32" transform="translate(469.126146 39.046875) scale(0.7)"/>
      <use xlink:href="#DejaVuSans-Oblique-44" transform="translate(516.396654 0.765625)"/>
      <use xlink:href="#DejaVuSans-32" transform="translate(600.415378 39.046875) scale(0.7)"/>
     </g>
    </g>
   </g>
   <g id="matplotlib.axis_2">
    <g id="ytick_1">
     <g id="line2d_13">
      <path d="M 77.798 126.997894 
L 288.833656 126.997894 
" clip-path="url(#pba71dc37ab)" style="fill: none; stroke: #b0b0b0; stroke-width: 0.8; stroke-linecap: square"/>
     </g>
     <g id="line2d_14">
      <defs>
       <path id="m294b586421" d="M 0 0 
L -3.5 0 
" style="stroke: #000000; stroke-width: 0.8"/>
      </defs>
      <g>
       <use xlink:href="#m294b586421" x="77.798" y="126.997894" style="stroke: #000000; stroke-width: 0.8"/>
      </g>
     </g>
     <g id="text_8">
      <!-- 0.000 -->
      <g transform="translate(42.169875 130.797113) scale(0.1 -0.1)">
       <use xlink:href="#DejaVuSans-30"/>
       <use xlink:href="#DejaVuSans-2e" x="63.623047"/>
       <use xlink:href="#DejaVuSans-30" x="95.410156"/>
       <use xlink:href="#DejaVuSans-30" x="159.033203"/>
       <use xlink:href="#DejaVuSans-30" x="222.65625"/>
      </g>
     </g>
    </g>
    <g id="ytick_2">
     <g id="line2d_15">
      <path d="M 77.798 84.002474 
L 288.833656 84.002474 
" clip-path="url(#pba71dc37ab)" style="fill: none; stroke: #b0b0b0; stroke-width: 0.8; stroke-linecap: square"/>
     </g>
     <g id="line2d_16">
      <g>
       <use xlink:href="#m294b586421" x="77.798" y="84.002474" style="stroke: #000000; stroke-width: 0.8"/>
      </g>
     </g>
     <g id="text_9">
      <!-- 0.005 -->
      <g transform="translate(42.169875 87.801693) scale(0.1 -0.1)">
       <use xlink:href="#DejaVuSans-30"/>
       <use xlink:href="#DejaVuSans-2e" x="63.623047"/>
       <use xlink:href="#DejaVuSans-30" x="95.410156"/>
       <use xlink:href="#DejaVuSans-30" x="159.033203"/>
       <use xlink:href="#DejaVuSans-35" x="222.65625"/>
      </g>
     </g>
    </g>
    <g id="ytick_3">
     <g id="line2d_17">
      <path d="M 77.798 41.007054 
L 288.833656 41.007054 
" clip-path="url(#pba71dc37ab)" style="fill: none; stroke: #b0b0b0; stroke-width: 0.8; stroke-linecap: square"/>
     </g>
     <g id="line2d_18">
      <g>
       <use xlink:href="#m294b586421" x="77.798" y="41.007054" style="stroke: #000000; stroke-width: 0.8"/>
      </g>
     </g>
     <g id="text_10">
      <!-- 0.010 -->
      <g transform="translate(42.169875 44.806273) scale(0.1 -0.1)">
       <use xlink:href="#DejaVuSans-30"/>
       <use xlink:href="#DejaVuSans-2e" x="63.623047"/>
       <use xlink:href="#DejaVuSans-30" x="95.410156"/>
       <use xlink:href="#DejaVuSans-31" x="159.033203"/>
       <use xlink:href="#DejaVuSans-30" x="222.65625"/>
      </g>
     </g>
    </g>
    <g id="text_11">
     <!-- d$C_D$ / d$\alpha$ -->
     <g transform="translate(36.090187 119.572) rotate(-90) scale(0.1 -0.1)">
      <defs>
       <path id="DejaVuSans-64" d="M 2906 2969 
L 2906 4863 
L 3481 4863 
L 3481 0 
L 2906 0 
L 2906 525 
Q 2725 213 2448 61 
Q 2172 -91 1784 -91 
Q 1150 -91 751 415 
Q 353 922 353 1747 
Q 353 2572 751 3078 
Q 1150 3584 1784 3584 
Q 2172 3584 2448 3432 
Q 2725 3281 2906 2969 
z
M 947 1747 
Q 947 1113 1208 752 
Q 1469 391 1925 391 
Q 2381 391 2643 752 
Q 2906 1113 2906 1747 
Q 2906 2381 2643 2742 
Q 2381 3103 1925 3103 
Q 1469 3103 1208 2742 
Q 947 2381 947 1747 
z
" transform="scale(0.015625)"/>
       <path id="DejaVuSans-20" transform="scale(0.015625)"/>
       <path id="DejaVuSans-Oblique-3b1" d="M 2619 1628 
L 2622 2350 
Q 2625 3088 2069 3091 
Q 1653 3094 1394 2747 
Q 1069 2319 959 1747 
Q 825 1059 994 731 
Q 1169 397 1547 397 
Q 1966 397 2319 1063 
L 2619 1628 
z
M 2166 3578 
Q 3141 3594 3128 2584 
Q 3128 2584 3616 3500 
L 4128 3500 
L 3119 1603 
L 3109 919 
Q 3109 766 3194 638 
Q 3291 488 3391 488 
L 3669 488 
L 3575 0 
L 3228 0 
Q 2934 0 2722 263 
Q 2622 394 2619 669 
Q 2416 334 2066 50 
Q 1900 -81 1453 -78 
Q 722 -72 456 397 
Q 184 884 353 1747 
Q 534 2675 1009 3097 
Q 1544 3569 2166 3578 
z
" transform="scale(0.015625)"/>
      </defs>
      <use xlink:href="#DejaVuSans-64" transform="translate(0 0.015625)"/>
      <use xlink:href="#DejaVuSans-Oblique-43" transform="translate(63.476562 0.015625)"/>
      <use xlink:href="#DejaVuSans-Oblique-44" transform="translate(133.300781 -16.390625) scale(0.7)"/>
      <use xlink:href="#DejaVuSans-20" transform="translate(189.936523 0.015625)"/>
      <use xlink:href="#DejaVuSans-2f" transform="translate(221.723633 0.015625)"/>
      <use xlink:href="#DejaVuSans-20" transform="translate(255.415039 0.015625)"/>
      <use xlink:href="#DejaVuSans-64" transform="translate(287.202148 0.015625)"/>
      <use xlink:href="#DejaVuSans-Oblique-3b1" transform="translate(350.678711 0.015625)"/>
     </g>
    </g>
   </g>
   <g id="line2d_19">
    <path d="M 255.969396 162.179914 
L 250.226203 161.760272 
L 244.622639 161.352504 
L 239.156162 160.95661 
L 233.824233 160.57259 
L 228.624309 160.200444 
L 223.553851 159.840172 
L 218.610316 159.491775 
L 213.791164 159.155251 
L 209.093854 158.830602 
L 204.515844 158.517827 
L 200.054594 158.216927 
L 195.707562 157.9279 
L 191.472208 157.650748 
L 187.34599 157.385469 
L 183.326368 157.132065 
L 179.410801 156.890535 
L 175.596746 156.66088 
L 171.881664 156.443098 
L 168.263013 156.237191 
L 164.738252 156.043157 
L 161.304841 155.860998 
L 157.960237 155.690713 
L 154.701901 155.532303 
L 151.52729 155.385766 
L 148.433864 155.251104 
L 145.419083 155.128316 
L 142.480404 155.017401 
L 139.615287 154.918362 
L 136.821191 154.831196 
L 134.095574 154.755904 
L 131.435896 154.692487 
L 128.839616 154.640944 
L 126.304192 154.601275 
L 123.827084 154.57348 
L 121.405751 154.557559 
L 119.03765 154.553513 
L 116.720243 154.56134 
L 114.450986 154.581042 
L 112.22734 154.612618 
L 110.046763 154.656068 
L 107.906714 154.711393 
L 105.804652 154.778591 
L 103.738037 154.857664 
L 101.704326 154.94861 
L 99.70098 155.051431 
L 97.725456 155.166127 
L 95.775214 155.292696 
L 93.847714 155.431139 
L 91.940413 155.581457 
" clip-path="url(#pba71dc37ab)" style="fill: none; stroke: #000080; stroke-width: 1.5; stroke-linecap: square"/>
   </g>
   <g id="line2d_20">
    <path d="M 272.074067 151.771837 
L 266.371543 152.19675 
L 260.807733 152.604174 
L 255.380098 152.99411 
L 250.086094 153.366557 
L 244.923183 153.721515 
L 239.888821 154.058985 
L 234.980469 154.378967 
L 230.195586 154.68146 
L 225.531629 154.966464 
L 220.986059 155.23398 
L 216.556334 155.484007 
L 212.239914 155.716546 
L 208.034256 155.931596 
L 203.936821 156.129158 
L 199.945066 156.309232 
L 196.056452 156.471816 
L 192.268436 156.616913 
L 188.578478 156.74452 
L 184.984037 156.85464 
L 181.482572 156.94727 
L 178.071542 157.022412 
L 174.748405 157.080066 
L 171.510621 157.120231 
L 168.355648 157.142908 
L 165.280946 157.148096 
L 162.283974 157.135795 
L 159.36219 157.106006 
L 156.513053 157.058729 
L 153.734023 156.993963 
L 151.022558 156.911708 
L 148.376117 156.811965 
L 145.79216 156.694734 
L 143.268144 156.560014 
L 140.80153 156.407805 
L 138.389776 156.238108 
L 136.030341 156.050922 
L 133.720684 155.846248 
L 131.458264 155.624085 
L 129.240539 155.384434 
L 127.06497 155.127294 
L 124.929014 154.852666 
L 122.830131 154.560549 
L 120.76578 154.250944 
L 118.733419 153.92385 
L 116.730508 153.579268 
L 114.754506 153.217197 
L 112.802871 152.837638 
L 110.873062 152.44059 
L 108.962539 152.026053 
" clip-path="url(#pba71dc37ab)" style="fill: none; stroke: #0000ff; stroke-width: 1.5; stroke-linecap: square"/>
   </g>
   <g id="line2d_21">
    <path d="M 262.838208 129.32024 
L 257.181801 129.062796 
L 251.661757 128.811741 
L 246.275534 128.567075 
L 241.020591 128.328797 
L 235.894387 128.096909 
L 230.894381 127.87141 
L 226.018033 127.6523 
L 221.262801 127.439578 
L 216.626143 127.233246 
L 212.10552 127.033302 
L 207.69839 126.839748 
L 203.402211 126.652582 
L 199.214444 126.471805 
L 195.132546 126.297417 
L 191.153977 126.129419 
L 187.276196 125.967809 
L 183.496661 125.812588 
L 179.812832 125.663756 
L 176.222168 125.521313 
L 172.722127 125.385259 
L 169.310169 125.255594 
L 165.983752 125.132318 
L 162.740335 125.01543 
L 159.577378 124.904932 
L 156.492339 124.800823 
L 153.482677 124.703102 
L 150.545852 124.611771 
L 147.679321 124.526828 
L 144.880545 124.448275 
L 142.146982 124.37611 
L 139.47609 124.310334 
L 136.86533 124.250948 
L 134.31216 124.19795 
L 131.814038 124.151341 
L 129.368425 124.111121 
L 126.972778 124.07729 
L 124.624557 124.049848 
L 122.32122 124.028795 
L 120.060227 124.014131 
L 117.839037 124.005856 
L 115.655108 124.003969 
L 113.5059 124.008472 
L 111.388871 124.019364 
L 109.301481 124.036644 
L 107.241188 124.060314 
L 105.205451 124.090372 
L 103.191729 124.12682 
L 101.197482 124.169656 
L 99.220168 124.218881 
" clip-path="url(#pba71dc37ab)" style="fill: none; stroke: #0060ff; stroke-width: 1.5; stroke-linecap: square"/>
   </g>
   <g id="line2d_22">
    <path d="M 268.451601 120.579113 
L 262.649431 120.856528 
L 256.98926 121.125674 
L 251.468549 121.386553 
L 246.084756 121.639163 
L 240.83534 121.883504 
L 235.71776 122.119578 
L 230.729475 122.347383 
L 225.867944 122.56692 
L 221.130626 122.778188 
L 216.514979 122.981188 
L 212.018464 123.17592 
L 207.638538 123.362383 
L 203.37266 123.540578 
L 199.218291 123.710505 
L 195.172888 123.872164 
L 191.23391 124.025554 
L 187.398817 124.170675 
L 183.665068 124.307529 
L 180.030121 124.436114 
L 176.491435 124.556431 
L 173.04647 124.668479 
L 169.692683 124.77226 
L 166.427535 124.867771 
L 163.248485 124.955015 
L 160.15299 125.03399 
L 157.13851 125.104697 
L 154.202505 125.167136 
L 151.342432 125.221306 
L 148.555751 125.267208 
L 145.839921 125.304841 
L 143.192401 125.334207 
L 140.61065 125.355304 
L 138.092127 125.368132 
L 135.63429 125.372692 
L 133.234599 125.368984 
L 130.890512 125.357008 
L 128.599489 125.336763 
L 126.358989 125.30825 
L 124.16647 125.271469 
L 122.019391 125.226419 
L 119.915212 125.173101 
L 117.851391 125.111515 
L 115.825388 125.04166 
L 113.83466 124.963537 
L 111.876668 124.877146 
L 109.94887 124.782486 
L 108.048725 124.679559 
L 106.173692 124.568362 
L 104.32123 124.448898 
" clip-path="url(#pba71dc37ab)" style="fill: none; stroke: #00d4ff; stroke-width: 1.5; stroke-linecap: square"/>
   </g>
   <g id="line2d_23">
    <path d="M 268.387321 101.671161 
L 262.785854 101.548882 
L 257.319214 101.428421 
L 251.984858 101.309778 
L 246.780247 101.192954 
L 241.702838 101.077947 
L 236.750091 100.964758 
L 231.919465 100.853386 
L 227.208419 100.743833 
L 222.614412 100.636098 
L 218.134902 100.530181 
L 213.767349 100.426081 
L 209.509211 100.3238 
L 205.357948 100.223336 
L 201.311019 100.12469 
L 197.365882 100.027863 
L 193.519996 99.932853 
L 189.770821 99.839661 
L 186.115815 99.748287 
L 182.552437 99.658731 
L 179.078146 99.570993 
L 175.690402 99.485073 
L 172.386663 99.40097 
L 169.164388 99.318686 
L 166.021035 99.23822 
L 162.954065 99.159571 
L 159.960936 99.082741 
L 157.039106 99.007728 
L 154.186036 98.934533 
L 151.399183 98.863156 
L 148.676007 98.793598 
L 146.013967 98.725857 
L 143.410521 98.659934 
L 140.863129 98.595829 
L 138.369249 98.533541 
L 135.926341 98.473072 
L 133.531863 98.414421 
L 131.183275 98.357587 
L 128.878035 98.302572 
L 126.613603 98.249374 
L 124.387436 98.197995 
L 122.196995 98.148433 
L 120.039738 98.100689 
L 117.913125 98.054763 
L 115.814613 98.010655 
L 113.741662 97.968365 
L 111.691732 97.927893 
L 109.66228 97.889239 
L 107.650766 97.852403 
L 105.654649 97.817385 
" clip-path="url(#pba71dc37ab)" style="fill: none; stroke: #4dffaa; stroke-width: 1.5; stroke-linecap: square"/>
   </g>
   <g id="line2d_24">
    <path d="M 265.897994 94.319158 
L 260.068414 94.473659 
L 254.380416 94.627574 
L 248.831458 94.780905 
L 243.419 94.933651 
L 238.1405 95.085812 
L 232.993418 95.237388 
L 227.975212 95.388379 
L 223.083342 95.538786 
L 218.315266 95.688607 
L 213.668444 95.837844 
L 209.140334 95.986496 
L 204.728395 96.134564 
L 200.430086 96.282046 
L 196.242866 96.428944 
L 192.164195 96.575256 
L 188.19153 96.720984 
L 184.322332 96.866127 
L 180.554058 97.010686 
L 176.884169 97.154659 
L 173.310122 97.298048 
L 169.829377 97.440851 
L 166.439393 97.58307 
L 163.137628 97.724704 
L 159.921542 97.865754 
L 156.788594 98.006218 
L 153.736243 98.146098 
L 150.761947 98.285393 
L 147.863165 98.424103 
L 145.037357 98.562228 
L 142.281981 98.699768 
L 139.594497 98.836724 
L 136.972362 98.973094 
L 134.413038 99.10888 
L 131.913981 99.244081 
L 129.472651 99.378698 
L 127.086508 99.512729 
L 124.753009 99.646175 
L 122.469615 99.779037 
L 120.233784 99.911314 
L 118.042974 100.043006 
L 115.894645 100.174113 
L 113.786257 100.304636 
L 111.715267 100.434573 
L 109.679134 100.563926 
L 107.675319 100.692694 
L 105.701279 100.820877 
L 103.754473 100.948476 
L 101.832361 101.075489 
L 99.932402 101.201918 
" clip-path="url(#pba71dc37ab)" style="fill: none; stroke: #aaff4d; stroke-width: 1.5; stroke-linecap: square"/>
   </g>
   <g id="line2d_25">
    <path d="M 274.483137 68.173045 
L 268.926741 68.212965 
L 263.504751 68.249217 
L 258.214625 68.281802 
L 253.053822 68.31072 
L 248.019802 68.335971 
L 243.110023 68.357554 
L 238.321945 68.37547 
L 233.653026 68.389719 
L 229.100725 68.4003 
L 224.662501 68.407214 
L 220.335813 68.410461 
L 216.118121 68.41004 
L 212.006882 68.405952 
L 207.999557 68.398197 
L 204.093603 68.386775 
L 200.28648 68.371685 
L 196.575647 68.352928 
L 192.958563 68.330504 
L 189.432687 68.304412 
L 185.995477 68.274653 
L 182.644393 68.241227 
L 179.376894 68.204133 
L 176.190438 68.163373 
L 173.082485 68.118944 
L 170.050493 68.070849 
L 167.091922 68.019086 
L 164.20423 67.963656 
L 161.384876 67.904559 
L 158.631319 67.841794 
L 155.941019 67.775362 
L 153.311434 67.705263 
L 150.740023 67.631496 
L 148.224246 67.554062 
L 145.76156 67.472961 
L 143.349425 67.388193 
L 140.9853 67.299757 
L 138.666644 67.207654 
L 136.390916 67.111884 
L 134.155575 67.012446 
L 131.95808 66.909341 
L 129.795889 66.802569 
L 127.666462 66.692129 
L 125.567257 66.578022 
L 123.495734 66.460248 
L 121.449352 66.338807 
L 119.425569 66.213698 
L 117.421845 66.084922 
L 115.435638 65.952478 
L 113.464407 65.816368 
" clip-path="url(#pba71dc37ab)" style="fill: none; stroke: #ffe600; stroke-width: 1.5; stroke-linecap: square"/>
   </g>
   <g id="line2d_26">
    <path d="M 263.038562 62.487992 
L 257.242845 62.494995 
L 251.584421 62.510633 
L 246.060746 62.534907 
L 240.669282 62.567816 
L 235.407486 62.60936 
L 230.272817 62.659539 
L 225.262735 62.718354 
L 220.374699 62.785805 
L 215.606167 62.86189 
L 210.954598 62.946611 
L 206.417452 63.039968 
L 201.992187 63.141959 
L 197.676262 63.252587 
L 193.467136 63.371849 
L 189.362269 63.499747 
L 185.359118 63.63628 
L 181.455144 63.781449 
L 177.647804 63.935253 
L 173.934559 64.097692 
L 170.312866 64.268767 
L 166.780185 64.448477 
L 163.333975 64.636823 
L 159.971695 64.833804 
L 156.690804 65.03942 
L 153.48876 65.253671 
L 150.363023 65.476558 
L 147.311051 65.708081 
L 144.330304 65.948238 
L 141.41824 66.197031 
L 138.572319 66.45446 
L 135.789999 66.720524 
L 133.06874 66.995223 
L 130.406 67.278558 
L 127.799238 67.570527 
L 125.245913 67.871133 
L 122.743484 68.180373 
L 120.289411 68.498249 
L 117.881151 68.824761 
L 115.516165 69.159908 
L 113.19191 69.50369 
L 110.905846 69.856107 
L 108.655433 70.21716 
L 106.438128 70.586849 
L 104.25139 70.965172 
L 102.09268 71.352131 
L 99.959455 71.747726 
L 97.849175 72.151955 
L 95.759298 72.56482 
L 93.687284 72.986321 
" clip-path="url(#pba71dc37ab)" style="fill: none; stroke: #ff7a00; stroke-width: 1.5; stroke-linecap: square"/>
   </g>
   <g id="line2d_27">
    <path d="M 278.816667 39.991931 
L 273.280448 40.167017 
L 267.87947 40.333863 
L 262.611192 40.492472 
L 257.473073 40.642842 
L 252.462572 40.784974 
L 247.577148 40.918867 
L 242.81426 41.044523 
L 238.171366 41.161939 
L 233.645926 41.271118 
L 229.235399 41.372058 
L 224.937243 41.46476 
L 220.748918 41.549224 
L 216.667882 41.625449 
L 212.691595 41.693436 
L 208.817515 41.753185 
L 205.043102 41.804695 
L 201.365813 41.847967 
L 197.78311 41.883001 
L 194.292449 41.909796 
L 190.891291 41.928353 
L 187.577093 41.938672 
L 184.347316 41.940752 
L 181.199418 41.934594 
L 178.130858 41.920198 
L 175.139094 41.897563 
L 172.221587 41.86669 
L 169.375795 41.827579 
L 166.599176 41.78023 
L 163.88919 41.724642 
L 161.243296 41.660815 
L 158.658952 41.588751 
L 156.133618 41.508448 
L 153.664753 41.419907 
L 151.249815 41.323127 
L 148.886264 41.21811 
L 146.571558 41.104853 
L 144.303156 40.983359 
L 142.078518 40.853626 
L 139.895102 40.715655 
L 137.750367 40.569446 
L 135.641772 40.414998 
L 133.566777 40.252312 
L 131.52284 40.081388 
L 129.507419 39.902225 
L 127.517975 39.714824 
L 125.551966 39.519185 
L 123.606851 39.315307 
L 121.680088 39.103191 
L 119.769137 38.882837 
" clip-path="url(#pba71dc37ab)" style="fill: none; stroke: #ff1300; stroke-width: 1.5; stroke-linecap: square"/>
   </g>
   <g id="line2d_28">
    <path d="M 260.549397 35.696004 
L 254.837529 35.580092 
L 249.256221 35.480499 
L 243.802933 35.397224 
L 238.475123 35.330269 
L 233.27025 35.279633 
L 228.185773 35.245315 
L 223.219151 35.227316 
L 218.367843 35.225636 
L 213.629308 35.240275 
L 209.001005 35.271233 
L 204.480393 35.31851 
L 200.064931 35.382106 
L 195.752077 35.46202 
L 191.539292 35.558253 
L 187.424033 35.670805 
L 183.403759 35.799677 
L 179.47593 35.944866 
L 175.638005 36.106375 
L 171.887442 36.284203 
L 168.221701 36.478349 
L 164.63824 36.688815 
L 161.134519 36.915599 
L 157.707996 37.158702 
L 154.35613 37.418124 
L 151.07638 37.693865 
L 147.866205 37.985925 
L 144.723065 38.294304 
L 141.644418 38.619001 
L 138.627722 38.960017 
L 135.670438 39.317353 
L 132.770024 39.691007 
L 129.923938 40.08098 
L 127.12964 40.487271 
L 124.38459 40.909882 
L 121.686244 41.348812 
L 119.032064 41.80406 
L 116.419507 42.275627 
L 113.846033 42.763514 
L 111.3091 43.267719 
L 108.806168 43.788242 
L 106.334696 44.325085 
L 103.892142 44.878247 
L 101.475965 45.447727 
L 99.083624 46.033527 
L 96.712579 46.635645 
L 94.360288 47.254082 
L 92.02421 47.888838 
L 89.701804 48.539913 
L 87.39053 49.207307 
" clip-path="url(#pba71dc37ab)" style="fill: none; stroke: #800000; stroke-width: 1.5; stroke-linecap: square"/>
   </g>
   <g id="patch_3">
    <path d="M 77.798 168.568 
L 77.798 28.876 
" style="fill: none; stroke: #000000; stroke-width: 0.8; stroke-linejoin: miter; stroke-linecap: square"/>
   </g>
   <g id="patch_4">
    <path d="M 288.833656 168.568 
L 288.833656 28.876 
" style="fill: none; stroke: #000000; stroke-width: 0.8; stroke-linejoin: miter; stroke-linecap: square"/>
   </g>
   <g id="patch_5">
    <path d="M 77.798 168.568 
L 288.833656 168.568 
" style="fill: none; stroke: #000000; stroke-width: 0.8; stroke-linejoin: miter; stroke-linecap: square"/>
   </g>
   <g id="patch_6">
    <path d="M 77.798 28.876 
L 288.833656 28.876 
" style="fill: none; stroke: #000000; stroke-width: 0.8; stroke-linejoin: miter; stroke-linecap: square"/>
   </g>
   <g id="legend_1">
    <g id="patch_7">
     <path d="M 297.833656 158.5834 
L 420.533656 158.5834 
Q 422.533656 158.5834 422.533656 156.5834 
L 422.533656 10.80215 
Q 422.533656 8.80215 420.533656 8.80215 
L 297.833656 8.80215 
Q 295.833656 8.80215 295.833656 10.80215 
L 295.833656 156.5834 
Q 295.833656 158.5834 297.833656 158.5834 
z
" style="fill: #4d4d4d; opacity: 0.5; stroke: #4d4d4d; stroke-linejoin: miter"/>
    </g>
    <g id="patch_8">
     <path d="M 295.833656 156.5834 
L 418.533656 156.5834 
Q 420.533656 156.5834 420.533656 154.5834 
L 420.533656 8.80215 
Q 420.533656 6.80215 418.533656 6.80215 
L 295.833656 6.80215 
Q 293.833656 6.80215 293.833656 8.80215 
L 293.833656 154.5834 
Q 293.833656 156.5834 295.833656 156.5834 
z
" style="fill: #ffffff; stroke: #cccccc; stroke-linejoin: miter"/>
    </g>
    <g id="PathCollection_11">
     <g>
      <use xlink:href="#m9ac32d4d8a" x="307.833656" y="15.775588" style="fill: #000080; stroke: #000080; stroke-width: 1.5"/>
     </g>
    </g>
    <g id="text_12">
     <!-- $\alpha = -4, \delta_e = -10$ -->
     <g transform="translate(325.833656 18.400588) scale(0.1 -0.1)">
      <defs>
       <path id="DejaVuSans-34" d="M 2419 4116 
L 825 1625 
L 2419 1625 
L 2419 4116 
z
M 2253 4666 
L 3047 4666 
L 3047 1625 
L 3713 1625 
L 3713 1100 
L 3047 1100 
L 3047 0 
L 2419 0 
L 2419 1100 
L 313 1100 
L 313 1709 
L 2253 4666 
z
" transform="scale(0.015625)"/>
       <path id="DejaVuSans-2c" d="M 750 794 
L 1409 794 
L 1409 256 
L 897 -744 
L 494 -744 
L 750 256 
L 750 794 
z
" transform="scale(0.015625)"/>
       <path id="DejaVuSans-Oblique-3b4" d="M 3472 4053 
Q 3197 4272 2450 4272 
Q 1659 4272 1588 3906 
Q 1531 3619 2328 3469 
Q 2953 3353 3253 3003 
Q 3616 2581 3447 1716 
Q 3284 888 2763 400 
Q 2238 -91 1488 -91 
Q 741 -91 406 400 
Q 72 888 241 1747 
Q 363 2384 891 2900 
Q 1097 3100 1353 3213 
Q 913 3459 1000 3900 
Q 1166 4750 2544 4750 
Q 3234 4750 3566 4531 
L 3472 4053 
z
M 1753 3056 
Q 1525 2966 1306 2738 
Q 969 2384 847 1747 
Q 722 1113 919 756 
Q 1119 397 1584 397 
Q 2044 397 2381 759 
Q 2722 1122 2838 1716 
Q 2956 2338 2731 2638 
Q 2491 2959 2103 2994 
Q 1906 3013 1753 3056 
z
" transform="scale(0.015625)"/>
       <path id="DejaVuSans-Oblique-65" d="M 3078 2063 
Q 3088 2113 3092 2166 
Q 3097 2219 3097 2272 
Q 3097 2653 2873 2875 
Q 2650 3097 2266 3097 
Q 1838 3097 1509 2826 
Q 1181 2556 1013 2059 
L 3078 2063 
z
M 3578 1613 
L 903 1613 
Q 884 1494 878 1425 
Q 872 1356 872 1306 
Q 872 872 1139 634 
Q 1406 397 1894 397 
Q 2269 397 2603 481 
Q 2938 566 3225 728 
L 3116 159 
Q 2806 34 2476 -28 
Q 2147 -91 1806 -91 
Q 1078 -91 686 257 
Q 294 606 294 1247 
Q 294 1794 489 2264 
Q 684 2734 1063 3103 
Q 1306 3334 1642 3459 
Q 1978 3584 2356 3584 
Q 2950 3584 3301 3228 
Q 3653 2872 3653 2272 
Q 3653 2128 3634 1964 
Q 3616 1800 3578 1613 
z
" transform="scale(0.015625)"/>
      </defs>
      <use xlink:href="#DejaVuSans-Oblique-3b1" transform="translate(0 0.78125)"/>
      <use xlink:href="#DejaVuSans-3d" transform="translate(85.400391 0.78125)"/>
      <use xlink:href="#DejaVuSans-2212" transform="translate(208.154297 0.78125)"/>
      <use xlink:href="#DejaVuSans-34" transform="translate(311.425781 0.78125)"/>
      <use xlink:href="#DejaVuSans-2c" transform="translate(375.048828 0.78125)"/>
      <use xlink:href="#DejaVuSans-Oblique-3b4" transform="translate(426.318359 0.78125)"/>
      <use xlink:href="#DejaVuSans-Oblique-65" transform="translate(487.5 -15.625) scale(0.7)"/>
      <use xlink:href="#DejaVuSans-3d" transform="translate(552.783203 0.78125)"/>
      <use xlink:href="#DejaVuSans-2212" transform="translate(675.537109 0.78125)"/>
      <use xlink:href="#DejaVuSans-31" transform="translate(778.808594 0.78125)"/>
      <use xlink:href="#DejaVuSans-30" transform="translate(842.431641 0.78125)"/>
     </g>
    </g>
    <g id="PathCollection_12">
     <g>
      <use xlink:href="#m12b53813f6" x="307.833656" y="30.453713" style="fill: #0000ff; stroke: #0000ff; stroke-width: 1.5"/>
     </g>
    </g>
    <g id="text_13">
     <!-- $\alpha = -4, \delta_e = 10$ -->
     <g transform="translate(325.833656 33.078713) scale(0.1 -0.1)">
      <use xlink:href="#DejaVuSans-Oblique-3b1" transform="translate(0 0.78125)"/>
      <use xlink:href="#DejaVuSans-3d" transform="translate(85.400391 0.78125)"/>
      <use xlink:href="#DejaVuSans-2212" transform="translate(208.154297 0.78125)"/>
      <use xlink:href="#DejaVuSans-34" transform="translate(311.425781 0.78125)"/>
      <use xlink:href="#DejaVuSans-2c" transform="translate(375.048828 0.78125)"/>
      <use xlink:href="#DejaVuSans-Oblique-3b4" transform="translate(426.318359 0.78125)"/>
      <use xlink:href="#DejaVuSans-Oblique-65" transform="translate(487.5 -15.625) scale(0.7)"/>
      <use xlink:href="#DejaVuSans-3d" transform="translate(552.783203 0.78125)"/>
      <use xlink:href="#DejaVuSans-31" transform="translate(656.054688 0.78125)"/>
      <use xlink:href="#DejaVuSans-30" transform="translate(719.677734 0.78125)"/>
     </g>
    </g>
    <g id="PathCollection_13">
     <g>
      <use xlink:href="#m0511f116ec" x="307.833656" y="45.131838" style="fill: #0060ff; stroke: #0060ff; stroke-width: 1.5"/>
     </g>
    </g>
    <g id="text_14">
     <!-- $\alpha = -1, \delta_e = -10$ -->
     <g transform="translate(325.833656 47.756838) scale(0.1 -0.1)">
      <use xlink:href="#DejaVuSans-Oblique-3b1" transform="translate(0 0.78125)"/>
      <use xlink:href="#DejaVuSans-3d" transform="translate(85.400391 0.78125)"/>
      <use xlink:href="#DejaVuSans-2212" transform="translate(208.154297 0.78125)"/>
      <use xlink:href="#DejaVuSans-31" transform="translate(311.425781 0.78125)"/>
      <use xlink:href="#DejaVuSans-2c" transform="translate(375.048828 0.78125)"/>
      <use xlink:href="#DejaVuSans-Oblique-3b4" transform="translate(426.318359 0.78125)"/>
      <use xlink:href="#DejaVuSans-Oblique-65" transform="translate(487.5 -15.625) scale(0.7)"/>
      <use xlink:href="#DejaVuSans-3d" transform="translate(552.783203 0.78125)"/>
      <use xlink:href="#DejaVuSans-2212" transform="translate(675.537109 0.78125)"/>
      <use xlink:href="#DejaVuSans-31" transform="translate(778.808594 0.78125)"/>
      <use xlink:href="#DejaVuSans-30" transform="translate(842.431641 0.78125)"/>
     </g>
    </g>
    <g id="PathCollection_14">
     <g>
      <use xlink:href="#m55155ae288" x="307.833656" y="59.809963" style="fill: #00d4ff; stroke: #00d4ff; stroke-width: 1.5"/>
     </g>
    </g>
    <g id="text_15">
     <!-- $\alpha = -1, \delta_e = 10$ -->
     <g transform="translate(325.833656 62.434963) scale(0.1 -0.1)">
      <use xlink:href="#DejaVuSans-Oblique-3b1" transform="translate(0 0.78125)"/>
      <use xlink:href="#DejaVuSans-3d" transform="translate(85.400391 0.78125)"/>
      <use xlink:href="#DejaVuSans-2212" transform="translate(208.154297 0.78125)"/>
      <use xlink:href="#DejaVuSans-31" transform="translate(311.425781 0.78125)"/>
      <use xlink:href="#DejaVuSans-2c" transform="translate(375.048828 0.78125)"/>
      <use xlink:href="#DejaVuSans-Oblique-3b4" transform="translate(426.318359 0.78125)"/>
      <use xlink:href="#DejaVuSans-Oblique-65" transform="translate(487.5 -15.625) scale(0.7)"/>
      <use xlink:href="#DejaVuSans-3d" transform="translate(552.783203 0.78125)"/>
      <use xlink:href="#DejaVuSans-31" transform="translate(656.054688 0.78125)"/>
      <use xlink:href="#DejaVuSans-30" transform="translate(719.677734 0.78125)"/>
     </g>
    </g>
    <g id="PathCollection_15">
     <g>
      <use xlink:href="#ma74182985d" x="307.833656" y="74.488088" style="fill: #4dffaa; stroke: #4dffaa; stroke-width: 1.5"/>
     </g>
    </g>
    <g id="text_16">
     <!-- $\alpha = 2, \delta_e = -10$ -->
     <g transform="translate(325.833656 77.113088) scale(0.1 -0.1)">
      <use xlink:href="#DejaVuSans-Oblique-3b1" transform="translate(0 0.78125)"/>
      <use xlink:href="#DejaVuSans-3d" transform="translate(85.400391 0.78125)"/>
      <use xlink:href="#DejaVuSans-32" transform="translate(188.671875 0.78125)"/>
      <use xlink:href="#DejaVuSans-2c" transform="translate(252.294922 0.78125)"/>
      <use xlink:href="#DejaVuSans-Oblique-3b4" transform="translate(303.564453 0.78125)"/>
      <use xlink:href="#DejaVuSans-Oblique-65" transform="translate(364.746094 -15.625) scale(0.7)"/>
      <use xlink:href="#DejaVuSans-3d" transform="translate(430.029297 0.78125)"/>
      <use xlink:href="#DejaVuSans-2212" transform="translate(552.783203 0.78125)"/>
      <use xlink:href="#DejaVuSans-31" transform="translate(656.054688 0.78125)"/>
      <use xlink:href="#DejaVuSans-30" transform="translate(719.677734 0.78125)"/>
     </g>
    </g>
    <g id="PathCollection_16">
     <g>
      <use xlink:href="#mea2ab8e500" x="307.833656" y="89.166213" style="fill: #aaff4d; stroke: #aaff4d; stroke-width: 1.5"/>
     </g>
    </g>
    <g id="text_17">
     <!-- $\alpha = 2, \delta_e = 10$ -->
     <g transform="translate(325.833656 91.791213) scale(0.1 -0.1)">
      <use xlink:href="#DejaVuSans-Oblique-3b1" transform="translate(0 0.78125)"/>
      <use xlink:href="#DejaVuSans-3d" transform="translate(85.400391 0.78125)"/>
      <use xlink:href="#DejaVuSans-32" transform="translate(188.671875 0.78125)"/>
      <use xlink:href="#DejaVuSans-2c" transform="translate(252.294922 0.78125)"/>
      <use xlink:href="#DejaVuSans-Oblique-3b4" transform="translate(303.564453 0.78125)"/>
      <use xlink:href="#DejaVuSans-Oblique-65" transform="translate(364.746094 -15.625) scale(0.7)"/>
      <use xlink:href="#DejaVuSans-3d" transform="translate(430.029297 0.78125)"/>
      <use xlink:href="#DejaVuSans-31" transform="translate(533.300781 0.78125)"/>
      <use xlink:href="#DejaVuSans-30" transform="translate(596.923828 0.78125)"/>
     </g>
    </g>
    <g id="PathCollection_17">
     <g>
      <use xlink:href="#maab73abca4" x="307.833656" y="103.844338" style="fill: #ffe600; stroke: #ffe600; stroke-width: 1.5"/>
     </g>
    </g>
    <g id="text_18">
     <!-- $\alpha = 4, \delta_e = -10$ -->
     <g transform="translate(325.833656 106.469338) scale(0.1 -0.1)">
      <use xlink:href="#DejaVuSans-Oblique-3b1" transform="translate(0 0.78125)"/>
      <use xlink:href="#DejaVuSans-3d" transform="translate(85.400391 0.78125)"/>
      <use xlink:href="#DejaVuSans-34" transform="translate(188.671875 0.78125)"/>
      <use xlink:href="#DejaVuSans-2c" transform="translate(252.294922 0.78125)"/>
      <use xlink:href="#DejaVuSans-Oblique-3b4" transform="translate(303.564453 0.78125)"/>
      <use xlink:href="#DejaVuSans-Oblique-65" transform="translate(364.746094 -15.625) scale(0.7)"/>
      <use xlink:href="#DejaVuSans-3d" transform="translate(430.029297 0.78125)"/>
      <use xlink:href="#DejaVuSans-2212" transform="translate(552.783203 0.78125)"/>
      <use xlink:href="#DejaVuSans-31" transform="translate(656.054688 0.78125)"/>
      <use xlink:href="#DejaVuSans-30" transform="translate(719.677734 0.78125)"/>
     </g>
    </g>
    <g id="PathCollection_18">
     <g>
      <use xlink:href="#m44374d6a4c" x="307.833656" y="118.522463" style="fill: #ff7a00; stroke: #ff7a00; stroke-width: 1.5"/>
     </g>
    </g>
    <g id="text_19">
     <!-- $\alpha = 4, \delta_e = 10$ -->
     <g transform="translate(325.833656 121.147463) scale(0.1 -0.1)">
      <use xlink:href="#DejaVuSans-Oblique-3b1" transform="translate(0 0.78125)"/>
      <use xlink:href="#DejaVuSans-3d" transform="translate(85.400391 0.78125)"/>
      <use xlink:href="#DejaVuSans-34" transform="translate(188.671875 0.78125)"/>
      <use xlink:href="#DejaVuSans-2c" transform="translate(252.294922 0.78125)"/>
      <use xlink:href="#DejaVuSans-Oblique-3b4" transform="translate(303.564453 0.78125)"/>
      <use xlink:href="#DejaVuSans-Oblique-65" transform="translate(364.746094 -15.625) scale(0.7)"/>
      <use xlink:href="#DejaVuSans-3d" transform="translate(430.029297 0.78125)"/>
      <use xlink:href="#DejaVuSans-31" transform="translate(533.300781 0.78125)"/>
      <use xlink:href="#DejaVuSans-30" transform="translate(596.923828 0.78125)"/>
     </g>
    </g>
    <g id="PathCollection_19">
     <g>
      <use xlink:href="#m6e298f2606" x="307.833656" y="133.200587" style="fill: #ff1300; stroke: #ff1300; stroke-width: 1.5"/>
     </g>
    </g>
    <g id="text_20">
     <!-- $\alpha = 7, \delta_e = -10$ -->
     <g transform="translate(325.833656 135.825587) scale(0.1 -0.1)">
      <defs>
       <path id="DejaVuSans-37" d="M 525 4666 
L 3525 4666 
L 3525 4397 
L 1831 0 
L 1172 0 
L 2766 4134 
L 525 4134 
L 525 4666 
z
" transform="scale(0.015625)"/>
      </defs>
      <use xlink:href="#DejaVuSans-Oblique-3b1" transform="translate(0 0.78125)"/>
      <use xlink:href="#DejaVuSans-3d" transform="translate(85.400391 0.78125)"/>
      <use xlink:href="#DejaVuSans-37" transform="translate(188.671875 0.78125)"/>
      <use xlink:href="#DejaVuSans-2c" transform="translate(252.294922 0.78125)"/>
      <use xlink:href="#DejaVuSans-Oblique-3b4" transform="translate(303.564453 0.78125)"/>
      <use xlink:href="#DejaVuSans-Oblique-65" transform="translate(364.746094 -15.625) scale(0.7)"/>
      <use xlink:href="#DejaVuSans-3d" transform="translate(430.029297 0.78125)"/>
      <use xlink:href="#DejaVuSans-2212" transform="translate(552.783203 0.78125)"/>
      <use xlink:href="#DejaVuSans-31" transform="translate(656.054688 0.78125)"/>
      <use xlink:href="#DejaVuSans-30" transform="translate(719.677734 0.78125)"/>
     </g>
    </g>
    <g id="PathCollection_20">
     <g>
      <use xlink:href="#m9eed418285" x="307.833656" y="147.878712" style="fill: #800000; stroke: #800000; stroke-width: 1.5"/>
     </g>
    </g>
    <g id="text_21">
     <!-- $\alpha = 7, \delta_e = 10$ -->
     <g transform="translate(325.833656 150.503712) scale(0.1 -0.1)">
      <use xlink:href="#DejaVuSans-Oblique-3b1" transform="translate(0 0.78125)"/>
      <use xlink:href="#DejaVuSans-3d" transform="translate(85.400391 0.78125)"/>
      <use xlink:href="#DejaVuSans-37" transform="translate(188.671875 0.78125)"/>
      <use xlink:href="#DejaVuSans-2c" transform="translate(252.294922 0.78125)"/>
      <use xlink:href="#DejaVuSans-Oblique-3b4" transform="translate(303.564453 0.78125)"/>
      <use xlink:href="#DejaVuSans-Oblique-65" transform="translate(364.746094 -15.625) scale(0.7)"/>
      <use xlink:href="#DejaVuSans-3d" transform="translate(430.029297 0.78125)"/>
      <use xlink:href="#DejaVuSans-31" transform="translate(533.300781 0.78125)"/>
      <use xlink:href="#DejaVuSans-30" transform="translate(596.923828 0.78125)"/>
     </g>
    </g>
   </g>
  </g>
 </g>
 <defs>
  <clipPath id="pba71dc37ab">
   <rect x="77.798" y="28.876" width="211.035656" height="139.692"/>
  </clipPath>
 </defs>
</svg>
