<?xml version="1.0" encoding="utf-8" standalone="no"?>
<!DOCTYPE svg PUBLIC "-//W3C//DTD SVG 1.1//EN"
  "http://www.w3.org/Graphics/SVG/1.1/DTD/svg11.dtd">
<svg xmlns:xlink="http://www.w3.org/1999/xlink" width="460.8pt" height="345.6pt" viewBox="0 0 460.8 345.6" xmlns="http://www.w3.org/2000/svg" version="1.1">
 <metadata>
  <rdf:RDF xmlns:dc="http://purl.org/dc/elements/1.1/" xmlns:cc="http://creativecommons.org/ns#" xmlns:rdf="http://www.w3.org/1999/02/22-rdf-syntax-ns#">
   <cc:Work>
    <dc:type rdf:resource="http://purl.org/dc/dcmitype/StillImage"/>
    <dc:date>2025-03-27T11:29:18.079334</dc:date>
    <dc:format>image/svg+xml</dc:format>
    <dc:creator>
     <cc:Agent>
      <dc:title>Matplotlib v3.9.2, https://matplotlib.org/</dc:title>
     </cc:Agent>
    </dc:creator>
   </cc:Work>
  </rdf:RDF>
 </metadata>
 <defs>
  <style type="text/css">*{stroke-linejoin: round; stroke-linecap: butt}</style>
 </defs>
 <g id="figure_1">
  <g id="patch_1">
   <path d="M 0 345.6 
L 460.8 345.6 
L 460.8 0 
L 0 0 
z
" style="fill: #ffffff"/>
  </g>
  <g id="patch_2">
   <path d="M 68.4 334.8 
L 392.4 334.8 
L 392.4 10.8 
L 68.4 10.8 
z
" style="fill: #ffffff"/>
  </g>
  <g id="pane3d_1">
   <g id="patch_3">
    <path d="M 92.864234 254.911983 
L 199.859616 165.226333 
L 198.372277 35.883593 
L 86.256616 117.700496 
" style="fill: #f2f2f2; opacity: 0.5; stroke: #f2f2f2; stroke-linejoin: miter"/>
   </g>
  </g>
  <g id="pane3d_2">
   <g id="patch_4">
    <path d="M 199.859616 165.226333 
L 371.549027 215.129667 
L 377.676017 81.331864 
L 198.372277 35.883593 
" style="fill: #e6e6e6; opacity: 0.5; stroke: #e6e6e6; stroke-linejoin: miter"/>
   </g>
  </g>
  <g id="pane3d_3">
   <g id="patch_5">
    <path d="M 92.864234 254.911983 
L 274.863396 314.352909 
L 371.549027 215.129667 
L 199.859616 165.226333 
" style="fill: #ececec; opacity: 0.5; stroke: #ececec; stroke-linejoin: miter"/>
   </g>
  </g>
  <g id="grid3d_1">
   <g id="Line3DCollection_1">
    <path d="M 103.887059 258.512038 
L 210.30124 168.261301 
L 209.255382 38.642142 
" style="fill: none; stroke: #b0b0b0; stroke-width: 0.8"/>
    <path d="M 131.690071 267.592502 
L 236.613447 175.909221 
L 236.692475 45.596646 
" style="fill: none; stroke: #b0b0b0; stroke-width: 0.8"/>
    <path d="M 159.955408 276.82396 
L 263.326784 183.673733 
L 264.566003 52.661773 
" style="fill: none; stroke: #b0b0b0; stroke-width: 0.8"/>
    <path d="M 188.694696 286.210212 
L 290.450494 191.557525 
L 292.886463 59.840184 
" style="fill: none; stroke: #b0b0b0; stroke-width: 0.8"/>
    <path d="M 217.919959 295.755183 
L 317.994106 199.563366 
L 321.664692 67.134626 
" style="fill: none; stroke: #b0b0b0; stroke-width: 0.8"/>
    <path d="M 247.643627 305.462933 
L 345.967447 207.694111 
L 350.911877 74.547935 
" style="fill: none; stroke: #b0b0b0; stroke-width: 0.8"/>
   </g>
  </g>
  <g id="grid3d_2">
   <g id="Line3DCollection_2">
    <path d="M 94.009691 112.042655 
L 100.23712 248.731884 
L 281.553293 307.487429 
" style="fill: none; stroke: #b0b0b0; stroke-width: 0.8"/>
    <path d="M 107.090282 102.497035 
L 112.685041 238.29779 
L 292.838848 295.905673 
" style="fill: none; stroke: #b0b0b0; stroke-width: 0.8"/>
    <path d="M 119.911906 93.140398 
L 124.897216 228.061303 
L 303.899394 284.554832 
" style="fill: none; stroke: #b0b0b0; stroke-width: 0.8"/>
    <path d="M 132.482177 83.967187 
L 136.88028 218.016861 
L 314.741594 273.428067 
" style="fill: none; stroke: #b0b0b0; stroke-width: 0.8"/>
    <path d="M 144.808416 74.972059 
L 148.640619 208.159112 
L 325.371851 262.518809 
" style="fill: none; stroke: #b0b0b0; stroke-width: 0.8"/>
    <path d="M 156.89766 66.149879 
L 160.184386 198.482897 
L 335.796318 251.820741 
" style="fill: none; stroke: #b0b0b0; stroke-width: 0.8"/>
    <path d="M 168.756679 57.495707 
L 171.517509 188.983249 
L 346.020915 241.327789 
" style="fill: none; stroke: #b0b0b0; stroke-width: 0.8"/>
    <path d="M 180.391988 49.004789 
L 182.645702 179.655377 
L 356.051335 231.034111 
" style="fill: none; stroke: #b0b0b0; stroke-width: 0.8"/>
    <path d="M 191.809858 40.672548 
L 193.574473 170.494664 
L 365.893058 220.934082 
" style="fill: none; stroke: #b0b0b0; stroke-width: 0.8"/>
   </g>
  </g>
  <g id="grid3d_3">
   <g id="Line3DCollection_3">
    <path d="M 371.672629 212.430504 
L 199.829549 162.611642 
L 92.731156 252.148524 
" style="fill: none; stroke: #b0b0b0; stroke-width: 0.8"/>
    <path d="M 372.403005 196.480966 
L 199.651934 147.1658 
L 91.944602 235.815219 
" style="fill: none; stroke: #b0b0b0; stroke-width: 0.8"/>
    <path d="M 373.141216 180.360323 
L 199.472505 131.562159 
L 91.149289 219.300022 
" style="fill: none; stroke: #b0b0b0; stroke-width: 0.8"/>
    <path d="M 373.887389 164.065806 
L 199.291233 115.798291 
L 90.345069 202.599879 
" style="fill: none; stroke: #b0b0b0; stroke-width: 0.8"/>
    <path d="M 374.641654 147.594589 
L 199.10809 99.871713 
L 89.531792 185.711666 
" style="fill: none; stroke: #b0b0b0; stroke-width: 0.8"/>
    <path d="M 375.404143 130.943779 
L 198.923047 83.779894 
L 88.709305 168.632186 
" style="fill: none; stroke: #b0b0b0; stroke-width: 0.8"/>
    <path d="M 376.174991 114.110426 
L 198.736074 67.520249 
L 87.87745 151.358174 
" style="fill: none; stroke: #b0b0b0; stroke-width: 0.8"/>
    <path d="M 376.954337 97.091509 
L 198.547141 51.090138 
L 87.036066 133.886285 
" style="fill: none; stroke: #b0b0b0; stroke-width: 0.8"/>
   </g>
  </g>
  <g id="axis3d_1">
   <g id="line2d_1">
    <path d="M 92.864234 254.911983 
L 274.863396 314.352909 
" style="fill: none; stroke: #000000; stroke-width: 0.8; stroke-linecap: square"/>
   </g>
   <g id="xtick_1">
    <g id="line2d_2">
     <path d="M 104.813707 257.726139 
L 102.029785 260.087207 
" style="fill: none; stroke: #000000; stroke-width: 0.8; stroke-linecap: square"/>
    </g>
    <g id="text_1">
     <!-- −4 -->
     <g transform="translate(88.991912 281.810759) scale(0.1 -0.1)">
      <defs>
       <path id="DejaVuSans-2212" d="M 678 2272 
L 4684 2272 
L 4684 1741 
L 678 1741 
L 678 2272 
z
" transform="scale(0.015625)"/>
       <path id="DejaVuSans-34" d="M 2419 4116 
L 825 1625 
L 2419 1625 
L 2419 4116 
z
M 2253 4666 
L 3047 4666 
L 3047 1625 
L 3713 1625 
L 3713 1100 
L 3047 1100 
L 3047 0 
L 2419 0 
L 2419 1100 
L 313 1100 
L 313 1709 
L 2253 4666 
z
" transform="scale(0.015625)"/>
      </defs>
      <use xlink:href="#DejaVuSans-2212"/>
      <use xlink:href="#DejaVuSans-34" x="83.789062"/>
     </g>
    </g>
   </g>
   <g id="xtick_2">
    <g id="line2d_3">
     <path d="M 132.60435 266.793594 
L 129.857558 269.193773 
" style="fill: none; stroke: #000000; stroke-width: 0.8; stroke-linecap: square"/>
    </g>
    <g id="text_2">
     <!-- −2 -->
     <g transform="translate(116.818224 291.049016) scale(0.1 -0.1)">
      <defs>
       <path id="DejaVuSans-32" d="M 1228 531 
L 3431 531 
L 3431 0 
L 469 0 
L 469 531 
Q 828 903 1448 1529 
Q 2069 2156 2228 2338 
Q 2531 2678 2651 2914 
Q 2772 3150 2772 3378 
Q 2772 3750 2511 3984 
Q 2250 4219 1831 4219 
Q 1534 4219 1204 4116 
Q 875 4013 500 3803 
L 500 4441 
Q 881 4594 1212 4672 
Q 1544 4750 1819 4750 
Q 2544 4750 2975 4387 
Q 3406 4025 3406 3419 
Q 3406 3131 3298 2873 
Q 3191 2616 2906 2266 
Q 2828 2175 2409 1742 
Q 1991 1309 1228 531 
z
" transform="scale(0.015625)"/>
      </defs>
      <use xlink:href="#DejaVuSans-2212"/>
      <use xlink:href="#DejaVuSans-32" x="83.789062"/>
     </g>
    </g>
   </g>
   <g id="xtick_3">
    <g id="line2d_4">
     <path d="M 160.856776 276.011718 
L 158.148739 278.451989 
" style="fill: none; stroke: #000000; stroke-width: 0.8; stroke-linecap: square"/>
    </g>
    <g id="text_3">
     <!-- 0 -->
     <g transform="translate(149.298526 300.441368) scale(0.1 -0.1)">
      <defs>
       <path id="DejaVuSans-30" d="M 2034 4250 
Q 1547 4250 1301 3770 
Q 1056 3291 1056 2328 
Q 1056 1369 1301 889 
Q 1547 409 2034 409 
Q 2525 409 2770 889 
Q 3016 1369 3016 2328 
Q 3016 3291 2770 3770 
Q 2525 4250 2034 4250 
z
M 2034 4750 
Q 2819 4750 3233 4129 
Q 3647 3509 3647 2328 
Q 3647 1150 3233 529 
Q 2819 -91 2034 -91 
Q 1250 -91 836 529 
Q 422 1150 422 2328 
Q 422 3509 836 4129 
Q 1250 4750 2034 4750 
z
" transform="scale(0.015625)"/>
      </defs>
      <use xlink:href="#DejaVuSans-30"/>
     </g>
    </g>
   </g>
   <g id="xtick_4">
    <g id="line2d_5">
     <path d="M 189.582591 285.384298 
L 186.915002 287.865674 
" style="fill: none; stroke: #000000; stroke-width: 0.8; stroke-linecap: square"/>
    </g>
    <g id="text_4">
     <!-- 2 -->
     <g transform="translate(178.064841 309.991703) scale(0.1 -0.1)">
      <use xlink:href="#DejaVuSans-32"/>
     </g>
    </g>
   </g>
   <g id="xtick_5">
    <g id="line2d_6">
     <path d="M 218.793793 294.915249 
L 216.168414 297.438778 
" style="fill: none; stroke: #000000; stroke-width: 0.8; stroke-linecap: square"/>
    </g>
    <g id="text_5">
     <!-- 4 -->
     <g transform="translate(207.319122 319.704042) scale(0.1 -0.1)">
      <use xlink:href="#DejaVuSans-34"/>
     </g>
    </g>
   </g>
   <g id="xtick_6">
    <g id="line2d_7">
     <path d="M 248.502791 304.608619 
L 245.921456 307.175384 
" style="fill: none; stroke: #000000; stroke-width: 0.8; stroke-linecap: square"/>
    </g>
    <g id="text_6">
     <!-- 6 -->
     <g transform="translate(237.073891 329.582541) scale(0.1 -0.1)">
      <defs>
       <path id="DejaVuSans-36" d="M 2113 2584 
Q 1688 2584 1439 2293 
Q 1191 2003 1191 1497 
Q 1191 994 1439 701 
Q 1688 409 2113 409 
Q 2538 409 2786 701 
Q 3034 994 3034 1497 
Q 3034 2003 2786 2293 
Q 2538 2584 2113 2584 
z
M 3366 4563 
L 3366 3988 
Q 3128 4100 2886 4159 
Q 2644 4219 2406 4219 
Q 1781 4219 1451 3797 
Q 1122 3375 1075 2522 
Q 1259 2794 1537 2939 
Q 1816 3084 2150 3084 
Q 2853 3084 3261 2657 
Q 3669 2231 3669 1497 
Q 3669 778 3244 343 
Q 2819 -91 2113 -91 
Q 1303 -91 875 529 
Q 447 1150 447 2328 
Q 447 3434 972 4092 
Q 1497 4750 2381 4750 
Q 2619 4750 2861 4703 
Q 3103 4656 3366 4563 
z
" transform="scale(0.015625)"/>
      </defs>
      <use xlink:href="#DejaVuSans-36"/>
     </g>
    </g>
   </g>
   <g id="text_7">
    <!-- $\alpha$ -->
    <g transform="translate(161.203861 320.667199) rotate(-341.912962) scale(0.1 -0.1)">
     <defs>
      <path id="DejaVuSans-Oblique-3b1" d="M 2619 1628 
L 2622 2350 
Q 2625 3088 2069 3091 
Q 1653 3094 1394 2747 
Q 1069 2319 959 1747 
Q 825 1059 994 731 
Q 1169 397 1547 397 
Q 1966 397 2319 1063 
L 2619 1628 
z
M 2166 3578 
Q 3141 3594 3128 2584 
Q 3128 2584 3616 3500 
L 4128 3500 
L 3119 1603 
L 3109 919 
Q 3109 766 3194 638 
Q 3291 488 3391 488 
L 3669 488 
L 3575 0 
L 3228 0 
Q 2934 0 2722 263 
Q 2622 394 2619 669 
Q 2416 334 2066 50 
Q 1900 -81 1453 -78 
Q 722 -72 456 397 
Q 184 884 353 1747 
Q 534 2675 1009 3097 
Q 1544 3569 2166 3578 
z
" transform="scale(0.015625)"/>
     </defs>
     <use xlink:href="#DejaVuSans-Oblique-3b1" transform="translate(0 0.84375)"/>
    </g>
   </g>
  </g>
  <g id="axis3d_2">
   <g id="line2d_8">
    <path d="M 371.549027 215.129667 
L 274.863396 314.352909 
" style="fill: none; stroke: #000000; stroke-width: 0.8; stroke-linecap: square"/>
   </g>
   <g id="xtick_7">
    <g id="line2d_9">
     <path d="M 280.025336 306.992294 
L 284.613158 308.478979 
" style="fill: none; stroke: #000000; stroke-width: 0.8; stroke-linecap: square"/>
    </g>
    <g id="text_8">
     <!-- 1.6 -->
     <g transform="translate(286.480987 328.507723) scale(0.1 -0.1)">
      <defs>
       <path id="DejaVuSans-31" d="M 794 531 
L 1825 531 
L 1825 4091 
L 703 3866 
L 703 4441 
L 1819 4666 
L 2450 4666 
L 2450 531 
L 3481 531 
L 3481 0 
L 794 0 
L 794 531 
z
" transform="scale(0.015625)"/>
       <path id="DejaVuSans-2e" d="M 684 794 
L 1344 794 
L 1344 0 
L 684 0 
L 684 794 
z
" transform="scale(0.015625)"/>
      </defs>
      <use xlink:href="#DejaVuSans-31"/>
      <use xlink:href="#DejaVuSans-2e" x="63.623047"/>
      <use xlink:href="#DejaVuSans-36" x="95.410156"/>
     </g>
    </g>
   </g>
   <g id="xtick_8">
    <g id="line2d_10">
     <path d="M 291.321461 295.420457 
L 295.877507 296.877347 
" style="fill: none; stroke: #000000; stroke-width: 0.8; stroke-linecap: square"/>
    </g>
    <g id="text_9">
     <!-- 1.7 -->
     <g transform="translate(297.642287 316.785115) scale(0.1 -0.1)">
      <defs>
       <path id="DejaVuSans-37" d="M 525 4666 
L 3525 4666 
L 3525 4397 
L 1831 0 
L 1172 0 
L 2766 4134 
L 525 4134 
L 525 4666 
z
" transform="scale(0.015625)"/>
      </defs>
      <use xlink:href="#DejaVuSans-31"/>
      <use xlink:href="#DejaVuSans-2e" x="63.623047"/>
      <use xlink:href="#DejaVuSans-37" x="95.410156"/>
     </g>
    </g>
   </g>
   <g id="xtick_9">
    <g id="line2d_11">
     <path d="M 302.392461 284.07924 
L 306.91708 285.507221 
" style="fill: none; stroke: #000000; stroke-width: 0.8; stroke-linecap: square"/>
    </g>
    <g id="text_10">
     <!-- 1.8 -->
     <g transform="translate(308.58095 305.296343) scale(0.1 -0.1)">
      <defs>
       <path id="DejaVuSans-38" d="M 2034 2216 
Q 1584 2216 1326 1975 
Q 1069 1734 1069 1313 
Q 1069 891 1326 650 
Q 1584 409 2034 409 
Q 2484 409 2743 651 
Q 3003 894 3003 1313 
Q 3003 1734 2745 1975 
Q 2488 2216 2034 2216 
z
M 1403 2484 
Q 997 2584 770 2862 
Q 544 3141 544 3541 
Q 544 4100 942 4425 
Q 1341 4750 2034 4750 
Q 2731 4750 3128 4425 
Q 3525 4100 3525 3541 
Q 3525 3141 3298 2862 
Q 3072 2584 2669 2484 
Q 3125 2378 3379 2068 
Q 3634 1759 3634 1313 
Q 3634 634 3220 271 
Q 2806 -91 2034 -91 
Q 1263 -91 848 271 
Q 434 634 434 1313 
Q 434 1759 690 2068 
Q 947 2378 1403 2484 
z
M 1172 3481 
Q 1172 3119 1398 2916 
Q 1625 2713 2034 2713 
Q 2441 2713 2670 2916 
Q 2900 3119 2900 3481 
Q 2900 3844 2670 4047 
Q 2441 4250 2034 4250 
Q 1625 4250 1398 4047 
Q 1172 3844 1172 3481 
z
" transform="scale(0.015625)"/>
      </defs>
      <use xlink:href="#DejaVuSans-31"/>
      <use xlink:href="#DejaVuSans-2e" x="63.623047"/>
      <use xlink:href="#DejaVuSans-38" x="95.410156"/>
     </g>
    </g>
   </g>
   <g id="xtick_10">
    <g id="line2d_12">
     <path d="M 313.245 272.961816 
L 317.738539 274.36174 
" style="fill: none; stroke: #000000; stroke-width: 0.8; stroke-linecap: square"/>
    </g>
    <g id="text_11">
     <!-- 1.9 -->
     <g transform="translate(319.303569 294.034479) scale(0.1 -0.1)">
      <defs>
       <path id="DejaVuSans-39" d="M 703 97 
L 703 672 
Q 941 559 1184 500 
Q 1428 441 1663 441 
Q 2288 441 2617 861 
Q 2947 1281 2994 2138 
Q 2813 1869 2534 1725 
Q 2256 1581 1919 1581 
Q 1219 1581 811 2004 
Q 403 2428 403 3163 
Q 403 3881 828 4315 
Q 1253 4750 1959 4750 
Q 2769 4750 3195 4129 
Q 3622 3509 3622 2328 
Q 3622 1225 3098 567 
Q 2575 -91 1691 -91 
Q 1453 -91 1209 -44 
Q 966 3 703 97 
z
M 1959 2075 
Q 2384 2075 2632 2365 
Q 2881 2656 2881 3163 
Q 2881 3666 2632 3958 
Q 2384 4250 1959 4250 
Q 1534 4250 1286 3958 
Q 1038 3666 1038 3163 
Q 1038 2656 1286 2365 
Q 1534 2075 1959 2075 
z
" transform="scale(0.015625)"/>
      </defs>
      <use xlink:href="#DejaVuSans-31"/>
      <use xlink:href="#DejaVuSans-2e" x="63.623047"/>
      <use xlink:href="#DejaVuSans-39" x="95.410156"/>
     </g>
    </g>
   </g>
   <g id="xtick_11">
    <g id="line2d_13">
     <path d="M 323.885481 262.061625 
L 328.348285 263.434312 
" style="fill: none; stroke: #000000; stroke-width: 0.8; stroke-linecap: square"/>
    </g>
    <g id="text_12">
     <!-- 2.0 -->
     <g transform="translate(329.816483 282.992866) scale(0.1 -0.1)">
      <use xlink:href="#DejaVuSans-32"/>
      <use xlink:href="#DejaVuSans-2e" x="63.623047"/>
      <use xlink:href="#DejaVuSans-30" x="95.410156"/>
     </g>
    </g>
   </g>
   <g id="xtick_12">
    <g id="line2d_14">
     <path d="M 334.320059 251.372363 
L 338.75247 252.7186 
" style="fill: none; stroke: #000000; stroke-width: 0.8; stroke-linecap: square"/>
    </g>
    <g id="text_13">
     <!-- 2.1 -->
     <g transform="translate(340.125785 272.165105) scale(0.1 -0.1)">
      <use xlink:href="#DejaVuSans-32"/>
      <use xlink:href="#DejaVuSans-2e" x="63.623047"/>
      <use xlink:href="#DejaVuSans-31" x="95.410156"/>
     </g>
    </g>
   </g>
   <g id="xtick_13">
    <g id="line2d_15">
     <path d="M 344.554654 240.887965 
L 348.957011 242.208509 
" style="fill: none; stroke: #000000; stroke-width: 0.8; stroke-linecap: square"/>
    </g>
    <g id="text_14">
     <!-- 2.2 -->
     <g transform="translate(350.237332 261.545043) scale(0.1 -0.1)">
      <use xlink:href="#DejaVuSans-32"/>
      <use xlink:href="#DejaVuSans-2e" x="63.623047"/>
      <use xlink:href="#DejaVuSans-32" x="95.410156"/>
     </g>
    </g>
   </g>
   <g id="xtick_14">
    <g id="line2d_16">
     <path d="M 354.594961 230.602598 
L 358.9676 231.898177 
" style="fill: none; stroke: #000000; stroke-width: 0.8; stroke-linecap: square"/>
    </g>
    <g id="text_15">
     <!-- 2.3 -->
     <g transform="translate(360.156761 251.126762) scale(0.1 -0.1)">
      <defs>
       <path id="DejaVuSans-33" d="M 2597 2516 
Q 3050 2419 3304 2112 
Q 3559 1806 3559 1356 
Q 3559 666 3084 287 
Q 2609 -91 1734 -91 
Q 1441 -91 1130 -33 
Q 819 25 488 141 
L 488 750 
Q 750 597 1062 519 
Q 1375 441 1716 441 
Q 2309 441 2620 675 
Q 2931 909 2931 1356 
Q 2931 1769 2642 2001 
Q 2353 2234 1838 2234 
L 1294 2234 
L 1294 2753 
L 1863 2753 
Q 2328 2753 2575 2939 
Q 2822 3125 2822 3475 
Q 2822 3834 2567 4026 
Q 2313 4219 1838 4219 
Q 1578 4219 1281 4162 
Q 984 4106 628 3988 
L 628 4550 
Q 988 4650 1302 4700 
Q 1616 4750 1894 4750 
Q 2613 4750 3031 4423 
Q 3450 4097 3450 3541 
Q 3450 3153 3228 2886 
Q 3006 2619 2597 2516 
z
" transform="scale(0.015625)"/>
      </defs>
      <use xlink:href="#DejaVuSans-32"/>
      <use xlink:href="#DejaVuSans-2e" x="63.623047"/>
      <use xlink:href="#DejaVuSans-33" x="95.410156"/>
     </g>
    </g>
   </g>
   <g id="xtick_15">
    <g id="line2d_17">
     <path d="M 364.446459 220.510648 
L 368.789715 221.781964 
" style="fill: none; stroke: #000000; stroke-width: 0.8; stroke-linecap: square"/>
    </g>
    <g id="text_16">
     <!-- 2.4 -->
     <g transform="translate(369.889496 240.904564) scale(0.1 -0.1)">
      <use xlink:href="#DejaVuSans-32"/>
      <use xlink:href="#DejaVuSans-2e" x="63.623047"/>
      <use xlink:href="#DejaVuSans-34" x="95.410156"/>
     </g>
    </g>
   </g>
   <g id="text_17">
    <!-- $J$ -->
    <g transform="translate(350.835056 293.263882) scale(0.1 -0.1)">
     <defs>
      <path id="DejaVuSans-Oblique-4a" d="M 1069 4666 
L 1703 4666 
L 856 325 
Q 691 -522 298 -901 
Q -94 -1281 -800 -1281 
L -1050 -1281 
L -947 -750 
L -750 -750 
Q -328 -750 -109 -509 
Q 109 -269 225 325 
L 1069 4666 
z
" transform="scale(0.015625)"/>
     </defs>
     <use xlink:href="#DejaVuSans-Oblique-4a" transform="translate(0 0.09375)"/>
    </g>
   </g>
  </g>
  <g id="axis3d_3">
   <g id="line2d_18">
    <path d="M 371.549027 215.129667 
L 377.676017 81.331864 
" style="fill: none; stroke: #000000; stroke-width: 0.8; stroke-linecap: square"/>
   </g>
   <g id="xtick_16">
    <g id="line2d_19">
     <path d="M 370.230331 212.012369 
L 374.560658 213.26777 
" style="fill: none; stroke: #000000; stroke-width: 0.8; stroke-linecap: square"/>
    </g>
    <g id="text_18">
     <!-- −0.004 -->
     <g transform="translate(371.443298 217.426855) scale(0.1 -0.1)">
      <use xlink:href="#DejaVuSans-2212"/>
      <use xlink:href="#DejaVuSans-30" x="83.789062"/>
      <use xlink:href="#DejaVuSans-2e" x="147.412109"/>
      <use xlink:href="#DejaVuSans-30" x="179.199219"/>
      <use xlink:href="#DejaVuSans-30" x="242.822266"/>
      <use xlink:href="#DejaVuSans-34" x="306.445312"/>
     </g>
    </g>
   </g>
   <g id="xtick_17">
    <g id="line2d_20">
     <path d="M 370.952724 196.066955 
L 375.307037 197.309979 
" style="fill: none; stroke: #000000; stroke-width: 0.8; stroke-linecap: square"/>
    </g>
    <g id="text_19">
     <!-- −0.002 -->
     <g transform="translate(372.269122 201.50301) scale(0.1 -0.1)">
      <use xlink:href="#DejaVuSans-2212"/>
      <use xlink:href="#DejaVuSans-30" x="83.789062"/>
      <use xlink:href="#DejaVuSans-2e" x="147.412109"/>
      <use xlink:href="#DejaVuSans-30" x="179.199219"/>
      <use xlink:href="#DejaVuSans-30" x="242.822266"/>
      <use xlink:href="#DejaVuSans-32" x="306.445312"/>
     </g>
    </g>
   </g>
   <g id="xtick_18">
    <g id="line2d_21">
     <path d="M 371.682863 179.950549 
L 376.06143 181.180857 
" style="fill: none; stroke: #000000; stroke-width: 0.8; stroke-linecap: square"/>
    </g>
    <g id="text_20">
     <!-- 0.000 -->
     <g transform="translate(377.293627 185.408762) scale(0.1 -0.1)">
      <use xlink:href="#DejaVuSans-30"/>
      <use xlink:href="#DejaVuSans-2e" x="63.623047"/>
      <use xlink:href="#DejaVuSans-30" x="95.410156"/>
      <use xlink:href="#DejaVuSans-30" x="159.033203"/>
      <use xlink:href="#DejaVuSans-30" x="222.65625"/>
     </g>
    </g>
   </g>
   <g id="xtick_19">
    <g id="line2d_22">
     <path d="M 372.420874 163.660385 
L 376.823966 164.87763 
" style="fill: none; stroke: #000000; stroke-width: 0.8; stroke-linecap: square"/>
    </g>
    <g id="text_21">
     <!-- 0.002 -->
     <g transform="translate(378.137268 169.14136) scale(0.1 -0.1)">
      <use xlink:href="#DejaVuSans-30"/>
      <use xlink:href="#DejaVuSans-2e" x="63.623047"/>
      <use xlink:href="#DejaVuSans-30" x="95.410156"/>
      <use xlink:href="#DejaVuSans-30" x="159.033203"/>
      <use xlink:href="#DejaVuSans-32" x="222.65625"/>
     </g>
    </g>
   </g>
   <g id="xtick_20">
    <g id="line2d_23">
     <path d="M 373.166886 147.193639 
L 377.594778 148.397464 
" style="fill: none; stroke: #000000; stroke-width: 0.8; stroke-linecap: square"/>
    </g>
    <g id="text_22">
     <!-- 0.004 -->
     <g transform="translate(378.990035 152.697996) scale(0.1 -0.1)">
      <use xlink:href="#DejaVuSans-30"/>
      <use xlink:href="#DejaVuSans-2e" x="63.623047"/>
      <use xlink:href="#DejaVuSans-30" x="95.410156"/>
      <use xlink:href="#DejaVuSans-30" x="159.033203"/>
      <use xlink:href="#DejaVuSans-34" x="222.65625"/>
     </g>
    </g>
   </g>
   <g id="xtick_21">
    <g id="line2d_24">
     <path d="M 373.921027 130.547423 
L 378.374001 131.737462 
" style="fill: none; stroke: #000000; stroke-width: 0.8; stroke-linecap: square"/>
    </g>
    <g id="text_23">
     <!-- 0.006 -->
     <g transform="translate(379.852076 136.075798) scale(0.1 -0.1)">
      <use xlink:href="#DejaVuSans-30"/>
      <use xlink:href="#DejaVuSans-2e" x="63.623047"/>
      <use xlink:href="#DejaVuSans-30" x="95.410156"/>
      <use xlink:href="#DejaVuSans-30" x="159.033203"/>
      <use xlink:href="#DejaVuSans-36" x="222.65625"/>
     </g>
    </g>
   </g>
   <g id="xtick_22">
    <g id="line2d_25">
     <path d="M 374.683434 113.718787 
L 379.161773 114.894666 
" style="fill: none; stroke: #000000; stroke-width: 0.8; stroke-linecap: square"/>
    </g>
    <g id="text_24">
     <!-- 0.008 -->
     <g transform="translate(380.723544 119.271832) scale(0.1 -0.1)">
      <use xlink:href="#DejaVuSans-30"/>
      <use xlink:href="#DejaVuSans-2e" x="63.623047"/>
      <use xlink:href="#DejaVuSans-30" x="95.410156"/>
      <use xlink:href="#DejaVuSans-30" x="159.033203"/>
      <use xlink:href="#DejaVuSans-38" x="222.65625"/>
     </g>
    </g>
   </g>
   <g id="xtick_23">
    <g id="line2d_26">
     <path d="M 375.454241 96.704717 
L 379.958237 97.866049 
" style="fill: none; stroke: #000000; stroke-width: 0.8; stroke-linecap: square"/>
    </g>
    <g id="text_25">
     <!-- 0.010 -->
     <g transform="translate(381.604594 102.283103) scale(0.1 -0.1)">
      <use xlink:href="#DejaVuSans-30"/>
      <use xlink:href="#DejaVuSans-2e" x="63.623047"/>
      <use xlink:href="#DejaVuSans-30" x="95.410156"/>
      <use xlink:href="#DejaVuSans-31" x="159.033203"/>
      <use xlink:href="#DejaVuSans-30" x="222.65625"/>
     </g>
    </g>
   </g>
   <g id="text_26">
    <!-- $dCD_cor2/dalpha$ -->
    <g transform="translate(415.90476 183.964981) rotate(-87.378092) scale(0.1 -0.1)">
     <defs>
      <path id="DejaVuSans-Oblique-64" d="M 2675 525 
Q 2444 222 2128 65 
Q 1813 -91 1428 -91 
Q 903 -91 598 267 
Q 294 625 294 1247 
Q 294 1766 478 2236 
Q 663 2706 1013 3078 
Q 1244 3325 1534 3454 
Q 1825 3584 2144 3584 
Q 2481 3584 2739 3421 
Q 2997 3259 3138 2956 
L 3513 4863 
L 4091 4863 
L 3144 0 
L 2566 0 
L 2675 525 
z
M 891 1350 
Q 891 897 1095 644 
Q 1300 391 1663 391 
Q 1931 391 2161 520 
Q 2391 650 2566 903 
Q 2750 1166 2856 1509 
Q 2963 1853 2963 2188 
Q 2963 2622 2758 2865 
Q 2553 3109 2194 3109 
Q 1922 3109 1687 2981 
Q 1453 2853 1288 2613 
Q 1106 2353 998 2009 
Q 891 1666 891 1350 
z
" transform="scale(0.015625)"/>
      <path id="DejaVuSans-Oblique-43" d="M 4447 4306 
L 4319 3641 
Q 4019 3944 3683 4091 
Q 3347 4238 2956 4238 
Q 2422 4238 2017 3981 
Q 1613 3725 1319 3200 
Q 1131 2863 1032 2486 
Q 934 2109 934 1728 
Q 934 1091 1264 756 
Q 1594 422 2222 422 
Q 2656 422 3056 561 
Q 3456 700 3834 978 
L 3688 231 
Q 3316 72 2936 -9 
Q 2556 -91 2175 -91 
Q 1278 -91 773 396 
Q 269 884 269 1753 
Q 269 2309 461 2846 
Q 653 3384 1013 3828 
Q 1394 4300 1883 4525 
Q 2372 4750 3022 4750 
Q 3422 4750 3780 4639 
Q 4138 4528 4447 4306 
z
" transform="scale(0.015625)"/>
      <path id="DejaVuSans-Oblique-44" d="M 1081 4666 
L 2438 4666 
Q 3519 4666 4070 4208 
Q 4622 3750 4622 2847 
Q 4622 2250 4412 1698 
Q 4203 1147 3834 769 
Q 3463 381 2891 190 
Q 2319 0 1538 0 
L 172 0 
L 1081 4666 
z
M 1613 4147 
L 909 519 
L 1734 519 
Q 2794 519 3375 1128 
Q 3956 1738 3956 2847 
Q 3956 3519 3581 3833 
Q 3206 4147 2406 4147 
L 1613 4147 
z
" transform="scale(0.015625)"/>
      <path id="DejaVuSans-Oblique-63" d="M 3431 3366 
L 3316 2797 
Q 3109 2947 2876 3022 
Q 2644 3097 2394 3097 
Q 2119 3097 1870 3000 
Q 1622 2903 1453 2725 
Q 1184 2453 1037 2087 
Q 891 1722 891 1331 
Q 891 859 1127 628 
Q 1363 397 1844 397 
Q 2081 397 2348 469 
Q 2616 541 2906 684 
L 2797 116 
Q 2547 13 2283 -39 
Q 2019 -91 1741 -91 
Q 1044 -91 669 257 
Q 294 606 294 1253 
Q 294 1797 489 2255 
Q 684 2713 1069 3078 
Q 1331 3328 1684 3456 
Q 2038 3584 2456 3584 
Q 2700 3584 2940 3529 
Q 3181 3475 3431 3366 
z
" transform="scale(0.015625)"/>
      <path id="DejaVuSans-Oblique-6f" d="M 1625 -91 
Q 1009 -91 651 289 
Q 294 669 294 1325 
Q 294 1706 417 2101 
Q 541 2497 738 2766 
Q 1047 3184 1428 3384 
Q 1809 3584 2291 3584 
Q 2888 3584 3255 3212 
Q 3622 2841 3622 2241 
Q 3622 1825 3500 1412 
Q 3378 1000 3181 728 
Q 2875 309 2494 109 
Q 2113 -91 1625 -91 
z
M 891 1344 
Q 891 869 1089 633 
Q 1288 397 1691 397 
Q 2269 397 2648 901 
Q 3028 1406 3028 2181 
Q 3028 2634 2825 2865 
Q 2622 3097 2228 3097 
Q 1903 3097 1650 2945 
Q 1397 2794 1197 2484 
Q 1050 2253 970 1956 
Q 891 1659 891 1344 
z
" transform="scale(0.015625)"/>
      <path id="DejaVuSans-Oblique-72" d="M 2853 2969 
Q 2766 3016 2653 3041 
Q 2541 3066 2413 3066 
Q 1953 3066 1609 2717 
Q 1266 2369 1153 1784 
L 800 0 
L 225 0 
L 909 3500 
L 1484 3500 
L 1375 2956 
Q 1603 3259 1920 3421 
Q 2238 3584 2597 3584 
Q 2691 3584 2781 3573 
Q 2872 3563 2963 3538 
L 2853 2969 
z
" transform="scale(0.015625)"/>
      <path id="DejaVuSans-2f" d="M 1625 4666 
L 2156 4666 
L 531 -594 
L 0 -594 
L 1625 4666 
z
" transform="scale(0.015625)"/>
      <path id="DejaVuSans-Oblique-61" d="M 3438 1997 
L 3047 0 
L 2472 0 
L 2578 531 
Q 2325 219 2001 64 
Q 1678 -91 1281 -91 
Q 834 -91 548 182 
Q 263 456 263 884 
Q 263 1497 752 1853 
Q 1241 2209 2100 2209 
L 2900 2209 
L 2931 2363 
Q 2938 2388 2941 2417 
Q 2944 2447 2944 2509 
Q 2944 2788 2717 2942 
Q 2491 3097 2081 3097 
Q 1800 3097 1504 3025 
Q 1209 2953 897 2809 
L 997 3341 
Q 1322 3463 1633 3523 
Q 1944 3584 2234 3584 
Q 2853 3584 3176 3315 
Q 3500 3047 3500 2534 
Q 3500 2431 3484 2292 
Q 3469 2153 3438 1997 
z
M 2816 1759 
L 2241 1759 
Q 1534 1759 1195 1570 
Q 856 1381 856 984 
Q 856 709 1029 553 
Q 1203 397 1509 397 
Q 1978 397 2328 733 
Q 2678 1069 2791 1631 
L 2816 1759 
z
" transform="scale(0.015625)"/>
      <path id="DejaVuSans-Oblique-6c" d="M 1172 4863 
L 1747 4863 
L 800 0 
L 225 0 
L 1172 4863 
z
" transform="scale(0.015625)"/>
      <path id="DejaVuSans-Oblique-70" d="M 3175 2156 
Q 3175 2616 2975 2859 
Q 2775 3103 2400 3103 
Q 2144 3103 1911 2972 
Q 1678 2841 1497 2591 
Q 1319 2344 1212 1994 
Q 1106 1644 1106 1300 
Q 1106 863 1306 627 
Q 1506 391 1875 391 
Q 2147 391 2380 519 
Q 2613 647 2778 891 
Q 2956 1147 3065 1494 
Q 3175 1841 3175 2156 
z
M 1394 2969 
Q 1625 3272 1939 3428 
Q 2253 3584 2638 3584 
Q 3175 3584 3472 3232 
Q 3769 2881 3769 2247 
Q 3769 1728 3584 1258 
Q 3400 788 3053 416 
Q 2822 169 2531 39 
Q 2241 -91 1919 -91 
Q 1547 -91 1294 64 
Q 1041 219 916 525 
L 556 -1331 
L -19 -1331 
L 922 3500 
L 1497 3500 
L 1394 2969 
z
" transform="scale(0.015625)"/>
      <path id="DejaVuSans-Oblique-68" d="M 3566 2113 
L 3156 0 
L 2578 0 
L 2988 2091 
Q 3016 2238 3031 2350 
Q 3047 2463 3047 2528 
Q 3047 2791 2881 2937 
Q 2716 3084 2419 3084 
Q 1956 3084 1617 2771 
Q 1278 2459 1178 1941 
L 800 0 
L 225 0 
L 1172 4863 
L 1747 4863 
L 1375 2950 
Q 1594 3244 1934 3414 
Q 2275 3584 2650 3584 
Q 3113 3584 3367 3334 
Q 3622 3084 3622 2631 
Q 3622 2519 3608 2391 
Q 3594 2263 3566 2113 
z
" transform="scale(0.015625)"/>
     </defs>
     <use xlink:href="#DejaVuSans-Oblique-64" transform="translate(0 0.015625)"/>
     <use xlink:href="#DejaVuSans-Oblique-43" transform="translate(63.476562 0.015625)"/>
     <use xlink:href="#DejaVuSans-Oblique-44" transform="translate(133.300781 0.015625)"/>
     <use xlink:href="#DejaVuSans-Oblique-63" transform="translate(210.302734 -16.390625) scale(0.7)"/>
     <use xlink:href="#DejaVuSans-Oblique-6f" transform="translate(251.523438 0.015625)"/>
     <use xlink:href="#DejaVuSans-Oblique-72" transform="translate(312.705078 0.015625)"/>
     <use xlink:href="#DejaVuSans-32" transform="translate(353.818359 0.015625)"/>
     <use xlink:href="#DejaVuSans-2f" transform="translate(417.441406 0.015625)"/>
     <use xlink:href="#DejaVuSans-Oblique-64" transform="translate(451.132812 0.015625)"/>
     <use xlink:href="#DejaVuSans-Oblique-61" transform="translate(514.609375 0.015625)"/>
     <use xlink:href="#DejaVuSans-Oblique-6c" transform="translate(575.888672 0.015625)"/>
     <use xlink:href="#DejaVuSans-Oblique-70" transform="translate(603.671875 0.015625)"/>
     <use xlink:href="#DejaVuSans-Oblique-68" transform="translate(667.148438 0.015625)"/>
     <use xlink:href="#DejaVuSans-Oblique-61" transform="translate(730.527344 0.015625)"/>
    </g>
   </g>
  </g>
  <g id="axes_1">
   <g id="line2d_27">
    <path d="M 110.734527 240.660996 
L 193.046371 202.085162 
L 271.088642 165.300916 
L 111.750079 239.850621 
L 263.252829 168.848694 
L 272.055441 164.700602 
L 112.764053 239.042584 
L 264.221724 168.234704 
L 273.020453 164.098497 
L 113.776453 238.236879 
L 263.439635 168.439219 
L 273.983686 163.494606 
L 114.787281 237.433501 
L 262.660509 168.63606 
L 274.945146 162.888931 
L 115.796539 236.632446 
L 263.625582 168.012998 
L 275.904842 162.281475 
L 116.80423 235.83371 
L 262.848377 168.198723 
L 276.862782 161.672242 
L 117.810357 235.037287 
L 263.810677 167.57065 
L 277.818974 161.061235 
L 118.814923 234.243173 
L 263.035377 167.745673 
L 278.773424 160.448458 
L 119.81793 233.451363 
L 262.262973 167.913716 
L 279.726141 159.833912 
L 120.819382 232.661852 
L 263.221514 167.277521 
L 280.677132 159.217603 
L 121.819279 231.874636 
L 262.450979 167.435531 
L 281.626404 158.599532 
L 122.817626 231.089711 
L 263.406796 166.794867 
L 282.573966 157.979703 
L 123.814425 230.307071 
L 262.638114 166.943247 
L 283.519824 157.358118 
L 124.809679 229.526712 
L 263.591226 166.298306 
L 284.463986 156.734782 
L 125.803389 228.748629 
L 262.824383 166.437453 
L 285.406459 156.109697 
L 126.79556 227.972818 
L 262.060352 166.570545 
L 286.347251 155.482866 
L 127.786193 227.199273 
L 263.009793 165.918735 
L 287.286369 154.854292 
L 128.775291 226.427992 
L 262.247566 166.043236 
L 288.223821 154.223979 
L 129.762857 225.658968 
L 263.194348 165.387669 
L 289.159612 153.591928 
L 130.748893 224.892198 
L 262.433912 165.503965 
L 290.093752 152.958143 
L 131.733402 224.127676 
L 263.378054 164.844828 
L 291.026246 152.322628 
L 132.716387 223.365399 
L 262.619395 164.9533 
L 291.957102 151.685384 
L 133.697849 222.605361 
L 263.560915 164.290776 
L 292.886327 151.046415 
L 134.677793 221.847559 
L 262.804021 164.391802 
L 293.813928 150.405724 
L 135.65622 221.091987 
L 263.742936 163.726073 
L 294.739913 149.763313 
L 136.633133 220.338641 
L 262.987793 163.820026 
L 295.664287 149.119185 
L 137.608534 219.587517 
L 263.924122 163.151272 
L 296.587058 148.473344 
L 138.582426 218.83861 
L 264.858833 162.481634 
L 297.508233 147.825792 
L 139.554812 218.091916 
L 264.104477 162.566921 
L 298.427819 147.176531 
L 140.525694 217.347429 
L 265.036631 161.894481 
L 299.345823 146.525564 
L 141.495075 216.605147 
L 264.284005 161.973563 
L 300.262251 145.872895 
L 142.462957 215.865064 
L 265.213618 161.298495 
L 301.17711 145.218526 
L 143.429343 215.127176 
L 264.46271 161.371734 
L 302.090408 144.562459 
L 144.394236 214.391478 
L 265.389799 160.694214 
L 303.00215 143.904698 
L 145.357637 213.657966 
L 264.640596 160.761966 
L 303.912343 143.245244 
L 146.31955 212.926635 
L 265.565177 160.082165 
L 304.820995 142.584101 
L 147.279977 212.197482 
L 266.488191 159.401655 
L 305.728111 141.921272 
L 148.238921 211.470502 
L 265.739755 159.462873 
L 306.633698 141.256757 
L 149.196383 210.74569 
L 266.660288 158.780296 
L 307.537763 140.590562 
L 150.152367 210.023042 
L 265.913537 158.836858 
L 308.440313 139.922687 
L 151.106875 209.302553 
L 266.831603 158.152382 
L 309.341353 139.253136 
L 152.05991 208.58422 
L 267.748129 157.467283 
L 310.24089 138.58191 
L 153.011474 207.868038 
L 267.00214 157.518427 
L 311.138931 137.909013 
L 153.96157 207.154002 
L 267.916224 156.831637 
L 312.035483 137.234447 
L 154.910199 206.442108 
L 268.828784 156.144265 
L 312.93055 136.558215 
L 155.857365 205.732353 
L 268.083558 156.190622 
L 313.824141 135.880318 
L 156.80307 205.024731 
L 268.993701 155.501766 
L 314.71626 135.20076 
L 157.747317 204.319238 
L 269.902334 154.81237 
L 315.606915 134.519543 
L 158.690108 203.615871 
L 269.157873 154.854563 
L 316.496112 133.836668 
L 159.631445 202.914624 
L 270.064113 154.163886 
L 317.383856 133.15214 
L 160.571331 202.215494 
L 269.321301 154.203149 
L 318.270155 132.465959 
L 161.509768 201.518475 
L 270.225161 153.511353 
L 319.155014 131.778128 
L 162.44676 200.823565 
L 271.127535 152.819097 
L 320.038439 131.08865 
L 163.382307 200.130759 
L 270.385479 152.855262 
L 320.920436 130.397527 
L 164.316413 199.440051 
L 271.285496 152.162086 
L 321.801012 129.704761 
L 165.249081 198.751439 
L 272.184042 151.468489 
L 322.680172 129.010355 
L 166.180312 198.064918 
L 273.081122 150.77447 
L 323.557923 128.31431 
L 167.110109 197.380484 
L 272.338953 150.807839 
L 324.434271 127.616629 
L 168.038474 196.698133 
L 273.233706 150.113138 
L 325.309221 126.917315 
L 168.965411 196.01786 
L 274.127006 149.418053 
L 326.18278 126.216369 
L 169.89092 195.339661 
L 273.385599 149.449679 
L 327.054952 125.513793 
L 170.815006 194.663532 
L 274.276594 148.754107 
L 327.925745 124.809591 
L 171.737669 193.989468 
L 275.166149 148.05819 
L 328.795165 124.103763 
L 172.658913 193.317467 
L 276.05427 147.361929 
L 329.663216 123.396312 
L 173.57874 192.647523 
L 275.312772 147.392448 
L 330.529904 122.687241 
L 174.497152 191.979633 
L 276.198616 146.695929 
L 331.395237 121.976551 
L 175.414152 191.313791 
L 277.083038 145.999103 
L 332.259218 121.264245 
L 176.329741 190.649995 
L 276.342305 146.0292 
L 333.121854 120.550324 
L 177.243924 189.98824 
L 277.224469 145.332306 
L 333.983151 119.834791 
L 178.156701 189.328522 
L 278.105225 144.635144 
L 334.843115 119.117647 
L 179.068075 188.670837 
L 278.984576 143.937711 
L 335.70175 118.398896 
L 179.978049 188.01518 
L 278.243769 143.968347 
L 336.559062 117.678538 
L 180.886624 187.361548 
L 279.120889 143.271073 
L 337.415058 116.956575 
L 181.793804 186.709937 
L 279.996617 142.573565 
L 338.269743 116.233011 
L 182.699591 186.060342 
L 280.870958 141.875824 
L 339.123121 115.507846 
L 183.603986 185.41276 
L 281.743917 141.17785 
L 339.9752 114.781083 
L 184.506993 184.767186 
L 281.002223 141.21054 
L 340.825983 114.052724 
L 185.408613 184.123617 
L 281.872982 140.512981 
L 341.675478 113.32277 
L 186.30885 183.482047 
L 282.742371 139.815226 
L 342.523688 112.591224 
L 187.207704 182.842475 
L 283.610393 139.117272 
L 343.37062 111.858087 
L 188.105179 182.204894 
L 282.868653 139.152477 
L 344.216279 111.123361 
L 189.001278 181.569302 
L 283.7345 138.455159 
L 345.06067 110.387049 
L 189.896001 180.935694 
L 284.598992 137.757678 
L 345.903798 109.649151 
L 190.789352 180.304067 
L 285.462134 137.060035 
L 346.74567 108.90967 
L 191.681333 179.674416 
L 286.323929 136.36223 
L 347.58629 108.168609 
L 192.571946 179.046737 
L 285.581344 136.401838 
L 348.425663 107.425967 
L 193.461193 178.421027 
L 286.440994 135.704919 
L 349.263795 106.681748 
L 194.349077 177.797281 
L 287.299308 135.007873 
L 350.100691 105.935953 
L 195.235601 177.175495 
L 288.156292 134.310698 
L 350.936356 105.188584 
L 196.120765 176.555667 
L 289.011948 133.613394 
L 351.770796 104.439642 
L 197.004573 175.937791 
L 289.866282 132.91596 
L 352.604014 103.68913 
L 197.887027 175.321864 
L 289.122078 132.962496 
L 353.436018 102.937049 
L 198.768129 174.707881 
L 289.9743 132.266233 
L 354.266811 102.183401 
L 199.647882 174.09584 
L 290.825211 131.569876 
L 355.096399 101.428187 
L 200.526287 173.485735 
L 291.674813 130.873423 
L 355.924787 100.67141 
L 201.403347 172.877564 
L 292.523111 130.176874 
L 356.751979 99.91307 
L 202.279065 172.271322 
L 293.370109 129.480228 
L 357.577982 99.15317 
L 203.153442 171.667006 
L 292.624322 129.535388 
L 358.4028 98.391711 
L 204.02648 171.064611 
L 293.469241 128.840192 
L 359.226437 97.628695 
L 359.226437 97.628695 
" clip-path="url(#pd7596c1218)" style="fill: none; stroke: #440154; stroke-opacity: 0.7; stroke-width: 1.5; stroke-linecap: square"/>
   </g>
   <g id="line2d_28">
    <path d="M 110.618968 237.902373 
L 191.421226 202.853519 
L 271.055197 168.097806 
L 111.640171 237.204518 
L 218.771241 190.642282 
L 272.02284 167.356825 
L 112.659604 236.506289 
L 219.757083 189.91582 
L 272.988737 166.617854 
L 113.677271 235.807686 
L 220.741198 189.190561 
L 273.952894 165.880886 
L 114.69318 235.108709 
L 221.723589 188.466503 
L 274.915315 165.145918 
L 115.707335 234.409358 
L 222.704262 187.743643 
L 275.876003 164.412945 
L 116.719744 233.709633 
L 225.35222 186.290419 
L 276.834962 163.681961 
L 117.730412 233.009533 
L 226.328877 185.56966 
L 277.792197 162.952961 
L 118.739345 232.309059 
L 227.303829 184.850113 
L 278.747712 162.225942 
L 119.746549 231.608211 
L 228.27708 184.131776 
L 279.70151 161.500897 
L 120.752029 230.906987 
L 229.248636 183.414645 
L 280.653595 160.777823 
L 121.755792 230.205389 
L 231.887468 181.964605 
L 281.603972 160.056714 
L 122.757843 229.503415 
L 232.855048 181.249716 
L 282.552644 159.337566 
L 123.758188 228.801066 
L 233.820944 180.536049 
L 283.499615 158.620374 
L 124.756833 228.098342 
L 234.785162 179.8236 
L 284.44489 157.905132 
L 125.753783 227.395241 
L 235.747706 179.112366 
L 285.388471 157.191838 
L 126.749044 226.691765 
L 238.377486 177.666294 
L 286.330364 156.480485 
L 127.742623 225.987914 
L 239.336092 176.957443 
L 287.270571 155.771069 
L 128.734524 225.283686 
L 240.293036 176.249821 
L 288.209097 155.063585 
L 129.724753 224.579081 
L 241.248324 175.543426 
L 289.145945 154.358029 
L 130.713316 223.874101 
L 242.201959 174.838254 
L 290.08112 153.654396 
L 131.700218 223.168743 
L 243.153946 174.134303 
L 291.014625 152.952682 
L 132.685465 222.463009 
L 245.772484 172.694283 
L 291.946464 152.252881 
L 133.669063 221.756898 
L 246.720576 171.992872 
L 292.87664 151.554989 
L 134.651016 221.05041 
L 247.667033 171.292695 
L 293.805159 150.859001 
L 135.631331 220.343545 
L 248.611858 170.59375 
L 294.732023 150.164914 
L 136.610013 219.636302 
L 249.555055 169.896034 
L 295.657236 149.472722 
L 137.587067 218.928682 
L 250.496628 169.199542 
L 296.580802 148.78242 
L 138.562499 218.220684 
L 253.104013 167.766634 
L 297.502724 148.094005 
L 139.536314 217.512308 
L 254.041735 167.072839 
L 298.423007 147.407471 
L 140.508518 216.803553 
L 254.977845 166.380283 
L 299.341655 146.722815 
L 141.479116 216.094421 
L 255.912347 165.688964 
L 300.25867 146.040031 
L 142.448113 215.38491 
L 256.845246 164.998878 
L 301.174056 145.359115 
L 143.415514 214.675021 
L 257.776545 164.310022 
L 302.087819 144.680063 
L 144.381325 213.964752 
L 260.372855 162.885277 
L 302.99996 144.00287 
L 145.345552 213.254105 
L 261.300343 162.199272 
L 303.910483 143.327532 
L 146.308199 212.543079 
L 262.226242 161.514511 
L 304.819393 142.654044 
L 147.269271 211.831673 
L 263.150557 160.830991 
L 305.726693 141.982402 
L 148.228774 211.119888 
L 264.073292 160.148709 
L 306.632387 141.312601 
L 149.186713 210.407723 
L 264.994451 159.467663 
L 307.536478 140.644637 
L 150.143093 209.695179 
L 265.914038 158.787848 
L 308.43897 139.978506 
L 151.09792 208.982254 
L 266.832057 158.109262 
L 309.339866 139.314203 
L 152.051198 208.268949 
L 269.412958 156.697288 
L 310.23917 138.651724 
L 153.002932 207.555264 
L 270.327216 156.02174 
L 311.136887 137.991065 
L 153.953128 206.841199 
L 271.239918 155.347434 
L 312.033018 137.332221 
L 154.901791 206.126753 
L 272.151065 154.674368 
L 312.927568 136.675187 
L 155.848925 205.411925 
L 273.060664 154.002539 
L 313.820541 136.019961 
L 156.794536 204.696717 
L 273.968717 153.331944 
L 314.711939 135.366536 
L 157.738628 203.981128 
L 274.875228 152.662578 
L 315.601767 134.714909 
L 158.681207 203.265157 
L 275.780201 151.99444 
L 316.490028 134.065076 
L 159.622278 202.548804 
L 278.345811 150.59694 
L 317.376726 133.417033 
L 160.561845 201.83207 
L 279.247072 149.932025 
L 318.261864 132.770774 
L 161.499914 201.114954 
L 280.146805 149.26835 
L 319.145445 132.126297 
L 162.436489 200.397455 
L 281.045015 148.605914 
L 320.027473 131.483596 
L 163.371576 199.679575 
L 281.941705 147.944713 
L 320.907952 130.842668 
L 164.305178 198.961311 
L 282.836878 147.284743 
L 321.786884 130.203508 
L 165.237301 198.242666 
L 283.730539 146.626003 
L 322.664274 129.566112 
L 166.16795 197.523637 
L 284.622692 145.968488 
L 323.540125 128.930476 
L 167.09713 196.804225 
L 285.513339 145.312196 
L 324.414441 128.296596 
L 168.024845 196.08443 
L 288.061595 143.933038 
L 325.287224 127.664467 
L 168.9511 195.364251 
L 288.948581 143.280167 
L 326.158478 127.034086 
L 169.8759 194.643689 
L 289.834072 142.628533 
L 327.028207 126.405448 
L 170.799249 193.922743 
L 290.718072 141.978132 
L 327.896413 125.77855 
L 171.721152 193.201413 
L 291.600584 141.328962 
L 328.763102 125.153386 
L 172.641615 192.479699 
L 292.481611 140.681018 
L 329.628274 124.529954 
L 173.560641 191.7576 
L 293.361158 140.034299 
L 330.491935 123.908248 
L 174.478235 191.035117 
L 294.239228 139.388802 
L 331.354088 123.288265 
L 175.394402 190.31225 
L 295.115825 138.744523 
L 332.214735 122.670002 
L 176.309147 189.588997 
L 295.990951 138.101459 
L 333.07388 122.053452 
L 177.222474 188.865359 
L 296.864612 137.459607 
L 333.931527 121.438614 
L 178.134387 188.141336 
L 297.736809 136.818965 
L 334.787679 120.825482 
L 179.044891 187.416927 
L 300.261395 135.467462 
L 335.642338 120.214054 
L 179.953992 186.692132 
L 301.129997 134.830486 
L 336.49551 119.604323 
L 180.861692 185.966952 
L 301.997145 134.194733 
L 337.347195 118.996288 
L 181.767998 185.241385 
L 302.862843 133.560199 
L 338.197399 118.389943 
L 182.672912 184.515432 
L 303.727095 132.926882 
L 339.046124 117.785285 
L 183.57644 183.789093 
L 304.589904 132.294779 
L 339.893374 117.18231 
L 184.478587 183.062367 
L 305.451273 131.663887 
L 340.739151 116.581014 
L 185.379356 182.335254 
L 306.311207 131.034202 
L 341.58346 115.981392 
L 186.278752 181.607754 
L 307.169707 130.405723 
L 342.426303 115.383442 
L 187.176779 180.879867 
L 308.026779 129.778446 
L 343.267683 114.787159 
L 188.073443 180.151592 
L 308.882425 129.152369 
L 344.107604 114.192539 
L 188.968746 179.42293 
L 309.736649 128.527487 
L 344.946069 113.599579 
L 189.862694 178.69388 
L 310.589454 127.9038 
L 345.783081 113.008274 
L 190.755291 177.964441 
L 311.440843 127.281303 
L 346.618643 112.41862 
L 191.646541 177.234615 
L 312.29082 126.659993 
L 347.452759 111.830615 
L 192.536448 176.504399 
L 313.139388 126.039869 
L 348.285431 111.244253 
L 193.425017 175.773796 
L 313.986551 125.420927 
L 349.116663 110.659531 
L 194.312252 175.042803 
L 316.477074 124.114201 
L 349.946458 110.076446 
L 195.198157 174.311421 
L 317.320726 123.499243 
L 350.77482 109.494993 
L 196.082737 173.57965 
L 318.162981 122.885481 
L 351.60175 108.915169 
L 196.965996 172.84749 
L 319.003843 122.27291 
L 352.427253 108.33697 
L 197.847937 172.114939 
L 319.843314 121.661528 
L 353.251332 107.760392 
L 198.728566 171.381999 
L 320.681398 121.051333 
L 354.073989 107.185431 
L 199.607885 170.648669 
L 321.518099 120.442322 
L 354.895228 106.612084 
L 200.4859 169.914949 
L 322.353419 119.834491 
L 355.715051 106.040346 
L 201.362615 169.180838 
L 323.187361 119.227838 
L 356.533463 105.470215 
L 202.238033 168.446336 
L 324.01993 118.622361 
L 357.350465 104.901686 
L 203.112159 167.711443 
L 324.851128 118.018056 
L 358.166062 104.334756 
L 203.984997 166.976159 
L 325.680959 117.414921 
L 358.980256 103.769421 
L 358.980256 103.769421 
" clip-path="url(#pd7596c1218)" style="fill: none; stroke: #21918c; stroke-opacity: 0.7; stroke-width: 1.5; stroke-linecap: square"/>
   </g>
   <g id="line2d_29">
    <path d="M 110.503195 235.138606 
L 191.421289 202.857923 
L 271.021815 170.889548 
L 111.530068 234.553682 
L 184.328471 205.377451 
L 270.227669 170.72191 
L 271.990295 170.008406 
L 112.554975 233.965647 
L 186.937891 204.008144 
L 272.957074 169.133034 
L 113.577926 233.374507 
L 187.933258 203.288094 
L 273.922151 168.263421 
L 114.598931 232.780268 
L 190.540238 201.911106 
L 274.885528 167.399556 
L 115.617998 232.182934 
L 193.147106 200.528607 
L 275.847204 166.541427 
L 116.635138 231.582512 
L 194.136175 199.80635 
L 276.807179 165.689024 
L 117.650358 230.979006 
L 196.740674 198.41726 
L 277.765455 164.842335 
L 118.663668 230.372423 
L 199.345104 197.023323 
L 278.72203 164.001349 
L 119.675078 229.762768 
L 201.949481 195.624786 
L 279.676906 163.166056 
L 120.684597 229.150047 
L 202.930065 194.900443 
L 280.630083 162.336444 
L 121.692233 228.534264 
L 205.532156 193.496824 
L 281.581562 161.512501 
L 122.697995 227.915424 
L 208.134228 192.089273 
L 282.531342 160.694218 
L 123.701893 227.293534 
L 209.108658 191.36519 
L 283.479424 159.881582 
L 124.703936 226.668598 
L 211.708493 189.953649 
L 284.425809 159.074583 
L 125.704131 226.040621 
L 214.308337 188.538845 
L 285.370496 158.27321 
L 126.702489 225.409609 
L 216.9082 187.121028 
L 286.313487 157.47745 
L 127.699017 224.775567 
L 217.874307 186.39834 
L 287.254782 156.687294 
L 128.693725 224.138499 
L 220.471986 184.978049 
L 288.194381 155.902729 
L 129.686621 223.498411 
L 223.069704 183.555416 
L 289.132285 155.123746 
L 130.677714 222.855307 
L 224.029752 182.835444 
L 290.068494 154.350331 
L 131.667012 222.209193 
L 226.625312 181.411436 
L 291.003008 153.582475 
L 132.654525 221.560073 
L 229.220926 179.985759 
L 291.935829 152.820166 
L 133.640259 220.907952 
L 231.816599 178.558668 
L 292.866957 152.063393 
L 134.624225 220.252835 
L 232.768417 177.843564 
L 293.796392 151.312145 
L 135.60643 219.594727 
L 235.361954 176.416621 
L 294.724135 150.566409 
L 136.586883 218.933632 
L 237.955554 174.988939 
L 295.650186 149.826176 
L 137.565591 218.269556 
L 238.901364 174.279 
L 296.574546 149.091434 
L 138.542564 217.602501 
L 241.492834 172.852569 
L 297.497216 148.362171 
L 139.51781 216.932474 
L 244.084368 171.426079 
L 298.418196 147.638377 
L 140.491336 216.259479 
L 245.024177 170.722314 
L 299.337487 146.92004 
L 141.463151 215.58352 
L 247.613577 169.29818 
L 300.255089 146.207148 
L 142.433263 214.904602 
L 250.203036 167.874669 
L 301.171003 145.499692 
L 143.401681 214.222729 
L 252.792551 166.452037 
L 302.085229 144.797658 
L 144.368411 213.537905 
L 253.724157 165.758035 
L 302.997769 144.101036 
L 145.333463 212.850135 
L 256.311517 164.339293 
L 303.908623 143.409815 
L 146.296844 212.159424 
L 258.898919 162.922114 
L 304.817792 142.723983 
L 147.258562 211.465775 
L 259.824511 162.236723 
L 305.725276 142.04353 
L 148.218625 210.769192 
L 262.409733 160.824544 
L 306.631076 141.368443 
L 149.177041 210.069681 
L 264.994978 159.414615 
L 307.535193 140.698711 
L 150.133818 209.367244 
L 265.91454 158.738837 
L 308.437627 140.034324 
L 151.088962 208.661887 
L 268.497571 157.335018 
L 309.338379 139.375269 
L 152.042483 207.953613 
L 271.0806 155.934139 
L 310.237451 138.721535 
L 152.994388 207.242426 
L 271.994107 155.268976 
L 311.134842 138.073112 
L 153.944685 206.52833 
L 274.57488 153.875319 
L 312.030553 137.429988 
L 154.89338 205.81133 
L 275.484553 153.217494 
L 312.924586 136.792151 
L 155.840483 205.091429 
L 278.063041 151.831742 
L 313.816941 136.15959 
L 156.785999 204.368631 
L 280.641474 150.450052 
L 314.707618 135.532294 
L 157.729937 203.642941 
L 281.545044 149.804414 
L 315.59662 134.910251 
L 158.672305 202.914361 
L 284.121136 148.431742 
L 316.483945 134.29345 
L 159.613109 202.182895 
L 286.697133 147.063826 
L 317.369597 133.68188 
L 160.552358 201.448548 
L 287.594557 146.431369 
L 318.253574 133.075529 
L 161.490058 200.711324 
L 290.168149 145.073586 
L 319.135878 132.474387 
L 162.426216 199.971225 
L 291.061686 144.449937 
L 320.01651 131.878441 
L 163.360841 199.228255 
L 293.63283 143.102968 
L 320.895471 131.28768 
L 164.293939 198.482419 
L 296.203803 141.761882 
L 321.772761 130.702093 
L 165.225518 197.733719 
L 297.091117 141.152974 
L 322.648382 130.121668 
L 166.155585 196.98216 
L 299.659565 139.823818 
L 323.522334 129.546395 
L 167.084146 196.227744 
L 300.542947 139.224605 
L 324.394619 128.976262 
L 168.01121 195.470476 
L 303.108819 137.90806 
L 325.265237 128.411257 
L 168.936783 194.710359 
L 303.988254 137.318858 
L 326.134189 127.851369 
L 169.860872 193.947395 
L 306.551496 136.015605 
L 327.001476 127.296586 
L 170.783484 193.18159 
L 307.426964 135.43673 
L 327.8671 126.746899 
L 171.704627 192.412945 
L 309.987522 134.147449 
L 328.73106 126.202294 
L 172.624307 191.641464 
L 312.547742 132.866049 
L 329.593359 125.66276 
L 173.542531 190.867151 
L 313.416817 132.304586 
L 330.453996 125.128287 
L 174.459307 190.090009 
L 315.974251 131.038271 
L 331.312974 124.598863 
L 175.37464 189.310041 
L 316.8393 130.488009 
L 332.170292 124.074476 
L 176.288538 188.52725 
L 319.393885 129.237457 
L 333.025953 123.555115 
L 177.201008 187.74164 
L 320.254883 128.698705 
L 333.879956 123.040769 
L 178.112056 186.953213 
L 322.806553 127.464593 
L 334.732304 122.531426 
L 179.021689 186.161973 
L 323.663477 126.937662 
L 335.582997 122.027076 
L 179.929914 185.367922 
L 326.212162 125.720667 
L 336.432036 121.527706 
L 180.836737 184.571064 
L 327.064987 125.205865 
L 337.279422 121.033305 
L 181.742166 183.771402 
L 327.916197 124.69551 
L 338.125157 120.543862 
L 182.646206 182.968939 
L 330.459315 123.504293 
L 338.969241 120.059366 
L 183.548865 182.163677 
L 331.306397 123.006438 
L 339.811676 119.579804 
L 184.450149 181.35562 
L 333.84636 121.833927 
L 340.652462 119.105167 
L 185.350064 180.544771 
L 334.689285 121.348875 
L 341.491601 118.635442 
L 186.248617 179.731132 
L 337.226016 120.195741 
L 342.329093 118.170618 
L 187.145814 178.914706 
L 338.064756 119.723794 
L 343.164941 117.710684 
L 188.041663 178.095496 
L 340.598175 118.590706 
L 343.999145 117.255628 
L 188.936168 177.273505 
L 341.432699 118.132165 
L 344.831705 116.805439 
L 189.829337 176.448735 
L 342.265595 117.678314 
L 345.662625 116.360106 
L 190.721177 175.62119 
L 344.793001 116.574956 
L 346.491904 115.919617 
L 191.611692 174.790871 
L 345.621647 116.13487 
L 347.319543 115.483962 
L 192.50089 173.957782 
L 346.448662 115.699523 
L 348.145544 115.053127 
L 193.388777 173.121925 
L 348.969909 114.627104 
L 194.27536 172.283303 
L 349.792638 114.205879 
L 195.160643 171.441918 
L 350.613732 113.789442 
L 196.044634 170.597773 
L 351.433193 113.377781 
L 196.927339 169.75087 
L 352.251022 112.970885 
L 197.808764 168.901212 
L 353.06722 112.568743 
L 198.688914 168.048801 
L 353.881788 112.171343 
L 199.567797 167.19364 
L 354.694728 111.778674 
L 200.445418 166.335731 
L 355.506041 111.390725 
L 201.321782 165.475077 
L 356.315728 111.007484 
L 202.196897 164.611679 
L 357.12379 110.628941 
L 203.070768 163.74554 
L 357.930229 110.255083 
L 203.943401 162.876663 
L 358.735046 109.8859 
L 358.735046 109.8859 
" clip-path="url(#pd7596c1218)" style="fill: none; stroke: #fde725; stroke-opacity: 0.7; stroke-width: 1.5; stroke-linecap: square"/>
   </g>
   <g id="legend_1">
    <g id="patch_6">
     <path d="M 305.4 62.834375 
L 385.4 62.834375 
Q 387.4 62.834375 387.4 60.834375 
L 387.4 17.8 
Q 387.4 15.8 385.4 15.8 
L 305.4 15.8 
Q 303.4 15.8 303.4 17.8 
L 303.4 60.834375 
Q 303.4 62.834375 305.4 62.834375 
z
" style="fill: #ffffff; opacity: 0.8; stroke: #cccccc; stroke-linejoin: miter"/>
    </g>
    <g id="line2d_30">
     <path d="M 307.4 23.898438 
L 317.4 23.898438 
L 327.4 23.898438 
" style="fill: none; stroke: #440154; stroke-opacity: 0.7; stroke-width: 1.5; stroke-linecap: square"/>
    </g>
    <g id="text_27">
     <!-- $\delta_e = -10$ -->
     <g transform="translate(335.4 27.398438) scale(0.1 -0.1)">
      <defs>
       <path id="DejaVuSans-Oblique-3b4" d="M 3472 4053 
Q 3197 4272 2450 4272 
Q 1659 4272 1588 3906 
Q 1531 3619 2328 3469 
Q 2953 3353 3253 3003 
Q 3616 2581 3447 1716 
Q 3284 888 2763 400 
Q 2238 -91 1488 -91 
Q 741 -91 406 400 
Q 72 888 241 1747 
Q 363 2384 891 2900 
Q 1097 3100 1353 3213 
Q 913 3459 1000 3900 
Q 1166 4750 2544 4750 
Q 3234 4750 3566 4531 
L 3472 4053 
z
M 1753 3056 
Q 1525 2966 1306 2738 
Q 969 2384 847 1747 
Q 722 1113 919 756 
Q 1119 397 1584 397 
Q 2044 397 2381 759 
Q 2722 1122 2838 1716 
Q 2956 2338 2731 2638 
Q 2491 2959 2103 2994 
Q 1906 3013 1753 3056 
z
" transform="scale(0.015625)"/>
       <path id="DejaVuSans-Oblique-65" d="M 3078 2063 
Q 3088 2113 3092 2166 
Q 3097 2219 3097 2272 
Q 3097 2653 2873 2875 
Q 2650 3097 2266 3097 
Q 1838 3097 1509 2826 
Q 1181 2556 1013 2059 
L 3078 2063 
z
M 3578 1613 
L 903 1613 
Q 884 1494 878 1425 
Q 872 1356 872 1306 
Q 872 872 1139 634 
Q 1406 397 1894 397 
Q 2269 397 2603 481 
Q 2938 566 3225 728 
L 3116 159 
Q 2806 34 2476 -28 
Q 2147 -91 1806 -91 
Q 1078 -91 686 257 
Q 294 606 294 1247 
Q 294 1794 489 2264 
Q 684 2734 1063 3103 
Q 1306 3334 1642 3459 
Q 1978 3584 2356 3584 
Q 2950 3584 3301 3228 
Q 3653 2872 3653 2272 
Q 3653 2128 3634 1964 
Q 3616 1800 3578 1613 
z
" transform="scale(0.015625)"/>
       <path id="DejaVuSans-3d" d="M 678 2906 
L 4684 2906 
L 4684 2381 
L 678 2381 
L 678 2906 
z
M 678 1631 
L 4684 1631 
L 4684 1100 
L 678 1100 
L 678 1631 
z
" transform="scale(0.015625)"/>
      </defs>
      <use xlink:href="#DejaVuSans-Oblique-3b4" transform="translate(0 0.78125)"/>
      <use xlink:href="#DejaVuSans-Oblique-65" transform="translate(61.181641 -15.625) scale(0.7)"/>
      <use xlink:href="#DejaVuSans-3d" transform="translate(126.464844 0.78125)"/>
      <use xlink:href="#DejaVuSans-2212" transform="translate(249.21875 0.78125)"/>
      <use xlink:href="#DejaVuSans-31" transform="translate(352.490234 0.78125)"/>
      <use xlink:href="#DejaVuSans-30" transform="translate(416.113281 0.78125)"/>
     </g>
    </g>
    <g id="line2d_31">
     <path d="M 307.4 38.576563 
L 317.4 38.576563 
L 327.4 38.576563 
" style="fill: none; stroke: #21918c; stroke-opacity: 0.7; stroke-width: 1.5; stroke-linecap: square"/>
    </g>
    <g id="text_28">
     <!-- $\delta_e = 0$ -->
     <g transform="translate(335.4 42.076563) scale(0.1 -0.1)">
      <use xlink:href="#DejaVuSans-Oblique-3b4" transform="translate(0 0.78125)"/>
      <use xlink:href="#DejaVuSans-Oblique-65" transform="translate(61.181641 -15.625) scale(0.7)"/>
      <use xlink:href="#DejaVuSans-3d" transform="translate(126.464844 0.78125)"/>
      <use xlink:href="#DejaVuSans-30" transform="translate(229.736328 0.78125)"/>
     </g>
    </g>
    <g id="line2d_32">
     <path d="M 307.4 53.254687 
L 317.4 53.254687 
L 327.4 53.254687 
" style="fill: none; stroke: #fde725; stroke-opacity: 0.7; stroke-width: 1.5; stroke-linecap: square"/>
    </g>
    <g id="text_29">
     <!-- $\delta_e = 10$ -->
     <g transform="translate(335.4 56.754687) scale(0.1 -0.1)">
      <use xlink:href="#DejaVuSans-Oblique-3b4" transform="translate(0 0.78125)"/>
      <use xlink:href="#DejaVuSans-Oblique-65" transform="translate(61.181641 -15.625) scale(0.7)"/>
      <use xlink:href="#DejaVuSans-3d" transform="translate(126.464844 0.78125)"/>
      <use xlink:href="#DejaVuSans-31" transform="translate(229.736328 0.78125)"/>
      <use xlink:href="#DejaVuSans-30" transform="translate(293.359375 0.78125)"/>
     </g>
    </g>
   </g>
  </g>
 </g>
 <defs>
  <clipPath id="pd7596c1218">
   <rect x="68.4" y="10.8" width="324" height="324"/>
  </clipPath>
 </defs>
</svg>
