<?xml version="1.0" encoding="utf-8" standalone="no"?>
<!DOCTYPE svg PUBLIC "-//W3C//DTD SVG 1.1//EN"
  "http://www.w3.org/Graphics/SVG/1.1/DTD/svg11.dtd">
<svg xmlns:xlink="http://www.w3.org/1999/xlink" width="432pt" height="216pt" viewBox="0 0 432 216" xmlns="http://www.w3.org/2000/svg" version="1.1">
 <metadata>
  <rdf:RDF xmlns:dc="http://purl.org/dc/elements/1.1/" xmlns:cc="http://creativecommons.org/ns#" xmlns:rdf="http://www.w3.org/1999/02/22-rdf-syntax-ns#">
   <cc:Work>
    <dc:type rdf:resource="http://purl.org/dc/dcmitype/StillImage"/>
    <dc:date>2025-03-31T11:57:48.836888</dc:date>
    <dc:format>image/svg+xml</dc:format>
    <dc:creator>
     <cc:Agent>
      <dc:title>Matplotlib v3.9.2, https://matplotlib.org/</dc:title>
     </cc:Agent>
    </dc:creator>
   </cc:Work>
  </rdf:RDF>
 </metadata>
 <defs>
  <style type="text/css">*{stroke-linejoin: round; stroke-linecap: butt}</style>
 </defs>
 <g id="figure_1">
  <g id="patch_1">
   <path d="M 0 216 
L 432 216 
L 432 0 
L 0 0 
z
" style="fill: #ffffff"/>
  </g>
  <g id="axes_1">
   <g id="patch_2">
    <path d="M 77.798 168.568 
L 288.833656 168.568 
L 288.833656 28.876 
L 77.798 28.876 
z
" style="fill: #ffffff"/>
   </g>
   <g id="PathCollection_1">
    <defs>
     <path id="m6f20279524" d="M -3 3 
L 3 -3 
M -3 -3 
L 3 3 
" style="stroke: #000080; stroke-width: 1.5"/>
    </defs>
    <g clip-path="url(#p98724cd038)">
     <use xlink:href="#m6f20279524" x="117.326145" y="103.224287" style="fill: #000080; stroke: #000080; stroke-width: 1.5"/>
     <use xlink:href="#m6f20279524" x="92.275089" y="110.342882" style="fill: #000080; stroke: #000080; stroke-width: 1.5"/>
     <use xlink:href="#m6f20279524" x="257.240597" y="147.984816" style="fill: #000080; stroke: #000080; stroke-width: 1.5"/>
     <use xlink:href="#m6f20279524" x="150.375668" y="107.143891" style="fill: #000080; stroke: #000080; stroke-width: 1.5"/>
     <use xlink:href="#m6f20279524" x="195.486011" y="122.092062" style="fill: #000080; stroke: #000080; stroke-width: 1.5"/>
     <use xlink:href="#m6f20279524" x="255.394989" y="148.057638" style="fill: #000080; stroke: #000080; stroke-width: 1.5"/>
     <use xlink:href="#m6f20279524" x="255.31141" y="148.057638" style="fill: #000080; stroke: #000080; stroke-width: 1.5"/>
    </g>
   </g>
   <g id="PathCollection_2">
    <defs>
     <path id="m4367b4be8b" d="M -3 0 
L 3 0 
M 0 3 
L 0 -3 
" style="stroke: #0000ff; stroke-width: 1.5"/>
    </defs>
    <g clip-path="url(#p98724cd038)">
     <use xlink:href="#m4367b4be8b" x="166.831186" y="107.148964" style="fill: #0000ff; stroke: #0000ff; stroke-width: 1.5"/>
     <use xlink:href="#m4367b4be8b" x="211.35559" y="122.071415" style="fill: #0000ff; stroke: #0000ff; stroke-width: 1.5"/>
     <use xlink:href="#m4367b4be8b" x="134.295771" y="103.237538" style="fill: #0000ff; stroke: #0000ff; stroke-width: 1.5"/>
     <use xlink:href="#m4367b4be8b" x="109.275812" y="110.318474" style="fill: #0000ff; stroke: #0000ff; stroke-width: 1.5"/>
    </g>
   </g>
   <g id="PathCollection_3">
    <defs>
     <path id="m8e993576b0" d="M -3 3 
L 3 -3 
M -3 -3 
L 3 3 
" style="stroke: #0060ff; stroke-width: 1.5"/>
    </defs>
    <g clip-path="url(#p98724cd038)">
     <use xlink:href="#m8e993576b0" x="262.666606" y="107.822363" style="fill: #0060ff; stroke: #0060ff; stroke-width: 1.5"/>
    </g>
   </g>
   <g id="PathCollection_4">
    <defs>
     <path id="mda25e0a2cd" d="M -3 0 
L 3 0 
M 0 3 
L 0 -3 
" style="stroke: #00d4ff; stroke-width: 1.5"/>
    </defs>
    <g clip-path="url(#p98724cd038)">
     <use xlink:href="#mda25e0a2cd" x="130.037546" y="108.763661" style="fill: #00d4ff; stroke: #00d4ff; stroke-width: 1.5"/>
     <use xlink:href="#mda25e0a2cd" x="269.114638" y="107.883435" style="fill: #00d4ff; stroke: #00d4ff; stroke-width: 1.5"/>
     <use xlink:href="#mda25e0a2cd" x="144.565977" y="110.33786" style="fill: #00d4ff; stroke: #00d4ff; stroke-width: 1.5"/>
    </g>
   </g>
   <g id="PathCollection_5">
    <defs>
     <path id="m4615e4d810" d="M -3 3 
L 3 -3 
M -3 -3 
L 3 3 
" style="stroke: #4dffaa; stroke-width: 1.5"/>
    </defs>
    <g clip-path="url(#p98724cd038)">
     <use xlink:href="#m4615e4d810" x="107.50203" y="109.876665" style="fill: #4dffaa; stroke: #4dffaa; stroke-width: 1.5"/>
     <use xlink:href="#m4615e4d810" x="146.882064" y="112.068496" style="fill: #4dffaa; stroke: #4dffaa; stroke-width: 1.5"/>
    </g>
   </g>
   <g id="PathCollection_6">
    <defs>
     <path id="mcdc817ea32" d="M -3 0 
L 3 0 
M 0 3 
L 0 -3 
" style="stroke: #aaff4d; stroke-width: 1.5"/>
    </defs>
    <g clip-path="url(#p98724cd038)">
     <use xlink:href="#mcdc817ea32" x="178.37229" y="104.524698" style="fill: #aaff4d; stroke: #aaff4d; stroke-width: 1.5"/>
     <use xlink:href="#mcdc817ea32" x="99.36944" y="109.820196" style="fill: #aaff4d; stroke: #aaff4d; stroke-width: 1.5"/>
    </g>
   </g>
   <g id="PathCollection_7">
    <defs>
     <path id="mc21471c284" d="M -3 3 
L 3 -3 
M -3 -3 
L 3 3 
" style="stroke: #ffe600; stroke-width: 1.5"/>
    </defs>
    <g clip-path="url(#p98724cd038)">
     <use xlink:href="#mc21471c284" x="214.800848" y="78.524925" style="fill: #ffe600; stroke: #ffe600; stroke-width: 1.5"/>
    </g>
   </g>
   <g id="PathCollection_8">
    <defs>
     <path id="m17a104f8c7" d="M -3 0 
L 3 0 
M 0 3 
L 0 -3 
" style="stroke: #ff7a00; stroke-width: 1.5"/>
    </defs>
    <g clip-path="url(#p98724cd038)">
     <use xlink:href="#m17a104f8c7" x="231.241256" y="66.024564" style="fill: #ff7a00; stroke: #ff7a00; stroke-width: 1.5"/>
    </g>
   </g>
   <g id="PathCollection_9">
    <defs>
     <path id="m2a83245142" d="M -3 3 
L 3 -3 
M -3 -3 
L 3 3 
" style="stroke: #ff1300; stroke-width: 1.5"/>
    </defs>
    <g clip-path="url(#p98724cd038)">
     <use xlink:href="#m2a83245142" x="196.787878" y="72.394325" style="fill: #ff1300; stroke: #ff1300; stroke-width: 1.5"/>
     <use xlink:href="#m2a83245142" x="279.029213" y="35.25539" style="fill: #ff1300; stroke: #ff1300; stroke-width: 1.5"/>
     <use xlink:href="#m2a83245142" x="159.657591" y="104.07705" style="fill: #ff1300; stroke: #ff1300; stroke-width: 1.5"/>
     <use xlink:href="#m2a83245142" x="119.913579" y="162.000945" style="fill: #ff1300; stroke: #ff1300; stroke-width: 1.5"/>
     <use xlink:href="#m2a83245142" x="279.183427" y="35.225636" style="fill: #ff1300; stroke: #ff1300; stroke-width: 1.5"/>
     <use xlink:href="#m2a83245142" x="279.241126" y="35.225636" style="fill: #ff1300; stroke: #ff1300; stroke-width: 1.5"/>
    </g>
   </g>
   <g id="PathCollection_10">
    <defs>
     <path id="mf3cec371f1" d="M -3 0 
L 3 0 
M 0 3 
L 0 -3 
" style="stroke: #800000; stroke-width: 1.5"/>
    </defs>
    <g clip-path="url(#p98724cd038)">
     <use xlink:href="#mf3cec371f1" x="152.707764" y="87.502832" style="fill: #800000; stroke: #800000; stroke-width: 1.5"/>
     <use xlink:href="#mf3cec371f1" x="174.02126" y="72.386338" style="fill: #800000; stroke: #800000; stroke-width: 1.5"/>
     <use xlink:href="#mf3cec371f1" x="260.963704" y="35.25539" style="fill: #800000; stroke: #800000; stroke-width: 1.5"/>
    </g>
   </g>
   <g id="matplotlib.axis_1">
    <g id="xtick_1">
     <g id="line2d_1">
      <path d="M 98.872125 168.568 
L 98.872125 28.876 
" clip-path="url(#p98724cd038)" style="fill: none; stroke: #b0b0b0; stroke-width: 0.8; stroke-linecap: square"/>
     </g>
     <g id="line2d_2">
      <defs>
       <path id="m640d5c0c6f" d="M 0 0 
L 0 3.5 
" style="stroke: #000000; stroke-width: 0.8"/>
      </defs>
      <g>
       <use xlink:href="#m640d5c0c6f" x="98.872125" y="168.568" style="stroke: #000000; stroke-width: 0.8"/>
      </g>
     </g>
     <g id="text_1">
      <!-- −0.05 -->
      <g transform="translate(83.549469 183.166437) scale(0.1 -0.1)">
       <defs>
        <path id="DejaVuSans-2212" d="M 678 2272 
L 4684 2272 
L 4684 1741 
L 678 1741 
L 678 2272 
z
" transform="scale(0.015625)"/>
        <path id="DejaVuSans-30" d="M 2034 4250 
Q 1547 4250 1301 3770 
Q 1056 3291 1056 2328 
Q 1056 1369 1301 889 
Q 1547 409 2034 409 
Q 2525 409 2770 889 
Q 3016 1369 3016 2328 
Q 3016 3291 2770 3770 
Q 2525 4250 2034 4250 
z
M 2034 4750 
Q 2819 4750 3233 4129 
Q 3647 3509 3647 2328 
Q 3647 1150 3233 529 
Q 2819 -91 2034 -91 
Q 1250 -91 836 529 
Q 422 1150 422 2328 
Q 422 3509 836 4129 
Q 1250 4750 2034 4750 
z
" transform="scale(0.015625)"/>
        <path id="DejaVuSans-2e" d="M 684 794 
L 1344 794 
L 1344 0 
L 684 0 
L 684 794 
z
" transform="scale(0.015625)"/>
        <path id="DejaVuSans-35" d="M 691 4666 
L 3169 4666 
L 3169 4134 
L 1269 4134 
L 1269 2991 
Q 1406 3038 1543 3061 
Q 1681 3084 1819 3084 
Q 2600 3084 3056 2656 
Q 3513 2228 3513 1497 
Q 3513 744 3044 326 
Q 2575 -91 1722 -91 
Q 1428 -91 1123 -41 
Q 819 9 494 109 
L 494 744 
Q 775 591 1075 516 
Q 1375 441 1709 441 
Q 2250 441 2565 725 
Q 2881 1009 2881 1497 
Q 2881 1984 2565 2268 
Q 2250 2553 1709 2553 
Q 1456 2553 1204 2497 
Q 953 2441 691 2322 
L 691 4666 
z
" transform="scale(0.015625)"/>
       </defs>
       <use xlink:href="#DejaVuSans-2212"/>
       <use xlink:href="#DejaVuSans-30" x="83.789062"/>
       <use xlink:href="#DejaVuSans-2e" x="147.412109"/>
       <use xlink:href="#DejaVuSans-30" x="179.199219"/>
       <use xlink:href="#DejaVuSans-35" x="242.822266"/>
      </g>
     </g>
    </g>
    <g id="xtick_2">
     <g id="line2d_3">
      <path d="M 131.210978 168.568 
L 131.210978 28.876 
" clip-path="url(#p98724cd038)" style="fill: none; stroke: #b0b0b0; stroke-width: 0.8; stroke-linecap: square"/>
     </g>
     <g id="line2d_4">
      <g>
       <use xlink:href="#m640d5c0c6f" x="131.210978" y="168.568" style="stroke: #000000; stroke-width: 0.8"/>
      </g>
     </g>
     <g id="text_2">
      <!-- 0.00 -->
      <g transform="translate(120.078166 183.166437) scale(0.1 -0.1)">
       <use xlink:href="#DejaVuSans-30"/>
       <use xlink:href="#DejaVuSans-2e" x="63.623047"/>
       <use xlink:href="#DejaVuSans-30" x="95.410156"/>
       <use xlink:href="#DejaVuSans-30" x="159.033203"/>
      </g>
     </g>
    </g>
    <g id="xtick_3">
     <g id="line2d_5">
      <path d="M 163.549832 168.568 
L 163.549832 28.876 
" clip-path="url(#p98724cd038)" style="fill: none; stroke: #b0b0b0; stroke-width: 0.8; stroke-linecap: square"/>
     </g>
     <g id="line2d_6">
      <g>
       <use xlink:href="#m640d5c0c6f" x="163.549832" y="168.568" style="stroke: #000000; stroke-width: 0.8"/>
      </g>
     </g>
     <g id="text_3">
      <!-- 0.05 -->
      <g transform="translate(152.41702 183.166437) scale(0.1 -0.1)">
       <use xlink:href="#DejaVuSans-30"/>
       <use xlink:href="#DejaVuSans-2e" x="63.623047"/>
       <use xlink:href="#DejaVuSans-30" x="95.410156"/>
       <use xlink:href="#DejaVuSans-35" x="159.033203"/>
      </g>
     </g>
    </g>
    <g id="xtick_4">
     <g id="line2d_7">
      <path d="M 195.888686 168.568 
L 195.888686 28.876 
" clip-path="url(#p98724cd038)" style="fill: none; stroke: #b0b0b0; stroke-width: 0.8; stroke-linecap: square"/>
     </g>
     <g id="line2d_8">
      <g>
       <use xlink:href="#m640d5c0c6f" x="195.888686" y="168.568" style="stroke: #000000; stroke-width: 0.8"/>
      </g>
     </g>
     <g id="text_4">
      <!-- 0.10 -->
      <g transform="translate(184.755873 183.166437) scale(0.1 -0.1)">
       <defs>
        <path id="DejaVuSans-31" d="M 794 531 
L 1825 531 
L 1825 4091 
L 703 3866 
L 703 4441 
L 1819 4666 
L 2450 4666 
L 2450 531 
L 3481 531 
L 3481 0 
L 794 0 
L 794 531 
z
" transform="scale(0.015625)"/>
       </defs>
       <use xlink:href="#DejaVuSans-30"/>
       <use xlink:href="#DejaVuSans-2e" x="63.623047"/>
       <use xlink:href="#DejaVuSans-31" x="95.410156"/>
       <use xlink:href="#DejaVuSans-30" x="159.033203"/>
      </g>
     </g>
    </g>
    <g id="xtick_5">
     <g id="line2d_9">
      <path d="M 228.227539 168.568 
L 228.227539 28.876 
" clip-path="url(#p98724cd038)" style="fill: none; stroke: #b0b0b0; stroke-width: 0.8; stroke-linecap: square"/>
     </g>
     <g id="line2d_10">
      <g>
       <use xlink:href="#m640d5c0c6f" x="228.227539" y="168.568" style="stroke: #000000; stroke-width: 0.8"/>
      </g>
     </g>
     <g id="text_5">
      <!-- 0.15 -->
      <g transform="translate(217.094727 183.166437) scale(0.1 -0.1)">
       <use xlink:href="#DejaVuSans-30"/>
       <use xlink:href="#DejaVuSans-2e" x="63.623047"/>
       <use xlink:href="#DejaVuSans-31" x="95.410156"/>
       <use xlink:href="#DejaVuSans-35" x="159.033203"/>
      </g>
     </g>
    </g>
    <g id="xtick_6">
     <g id="line2d_11">
      <path d="M 260.566393 168.568 
L 260.566393 28.876 
" clip-path="url(#p98724cd038)" style="fill: none; stroke: #b0b0b0; stroke-width: 0.8; stroke-linecap: square"/>
     </g>
     <g id="line2d_12">
      <g>
       <use xlink:href="#m640d5c0c6f" x="260.566393" y="168.568" style="stroke: #000000; stroke-width: 0.8"/>
      </g>
     </g>
     <g id="text_6">
      <!-- 0.20 -->
      <g transform="translate(249.43358 183.166437) scale(0.1 -0.1)">
       <defs>
        <path id="DejaVuSans-32" d="M 1228 531 
L 3431 531 
L 3431 0 
L 469 0 
L 469 531 
Q 828 903 1448 1529 
Q 2069 2156 2228 2338 
Q 2531 2678 2651 2914 
Q 2772 3150 2772 3378 
Q 2772 3750 2511 3984 
Q 2250 4219 1831 4219 
Q 1534 4219 1204 4116 
Q 875 4013 500 3803 
L 500 4441 
Q 881 4594 1212 4672 
Q 1544 4750 1819 4750 
Q 2544 4750 2975 4387 
Q 3406 4025 3406 3419 
Q 3406 3131 3298 2873 
Q 3191 2616 2906 2266 
Q 2828 2175 2409 1742 
Q 1991 1309 1228 531 
z
" transform="scale(0.015625)"/>
       </defs>
       <use xlink:href="#DejaVuSans-30"/>
       <use xlink:href="#DejaVuSans-2e" x="63.623047"/>
       <use xlink:href="#DejaVuSans-32" x="95.410156"/>
       <use xlink:href="#DejaVuSans-30" x="159.033203"/>
      </g>
     </g>
    </g>
    <g id="text_7">
     <!-- $T_C = T / \rho V^2 D^2$ -->
     <g transform="translate(150.915828 198.346125) scale(0.1 -0.1)">
      <defs>
       <path id="DejaVuSans-Oblique-54" d="M 378 4666 
L 4325 4666 
L 4225 4134 
L 2559 4134 
L 1759 0 
L 1125 0 
L 1925 4134 
L 275 4134 
L 378 4666 
z
" transform="scale(0.015625)"/>
       <path id="DejaVuSans-Oblique-43" d="M 4447 4306 
L 4319 3641 
Q 4019 3944 3683 4091 
Q 3347 4238 2956 4238 
Q 2422 4238 2017 3981 
Q 1613 3725 1319 3200 
Q 1131 2863 1032 2486 
Q 934 2109 934 1728 
Q 934 1091 1264 756 
Q 1594 422 2222 422 
Q 2656 422 3056 561 
Q 3456 700 3834 978 
L 3688 231 
Q 3316 72 2936 -9 
Q 2556 -91 2175 -91 
Q 1278 -91 773 396 
Q 269 884 269 1753 
Q 269 2309 461 2846 
Q 653 3384 1013 3828 
Q 1394 4300 1883 4525 
Q 2372 4750 3022 4750 
Q 3422 4750 3780 4639 
Q 4138 4528 4447 4306 
z
" transform="scale(0.015625)"/>
       <path id="DejaVuSans-3d" d="M 678 2906 
L 4684 2906 
L 4684 2381 
L 678 2381 
L 678 2906 
z
M 678 1631 
L 4684 1631 
L 4684 1100 
L 678 1100 
L 678 1631 
z
" transform="scale(0.015625)"/>
       <path id="DejaVuSans-2f" d="M 1625 4666 
L 2156 4666 
L 531 -594 
L 0 -594 
L 1625 4666 
z
" transform="scale(0.015625)"/>
       <path id="DejaVuSans-Oblique-3c1" d="M 1203 2875 
Q 1453 3194 1981 3475 
Q 2188 3584 2756 3584 
Q 3394 3584 3694 3078 
Q 3994 2572 3834 1747 
Q 3672 922 3175 415 
Q 2678 -91 2041 -91 
Q 1656 -91 1409 63 
Q 1163 213 1044 525 
L 681 -1331 
L 103 -1331 
L 697 1716 
Q 838 2438 1203 2875 
z
M 3238 1747 
Q 3359 2381 3169 2744 
Q 2978 3103 2522 3103 
Q 2066 3103 1734 2744 
Q 1403 2381 1281 1747 
Q 1156 1113 1347 750 
Q 1538 391 1994 391 
Q 2450 391 2781 750 
Q 3113 1113 3238 1747 
z
" transform="scale(0.015625)"/>
       <path id="DejaVuSans-Oblique-56" d="M 1319 0 
L 500 4666 
L 1119 4666 
L 1797 653 
L 4063 4666 
L 4750 4666 
L 2053 0 
L 1319 0 
z
" transform="scale(0.015625)"/>
       <path id="DejaVuSans-Oblique-44" d="M 1081 4666 
L 2438 4666 
Q 3519 4666 4070 4208 
Q 4622 3750 4622 2847 
Q 4622 2250 4412 1698 
Q 4203 1147 3834 769 
Q 3463 381 2891 190 
Q 2319 0 1538 0 
L 172 0 
L 1081 4666 
z
M 1613 4147 
L 909 519 
L 1734 519 
Q 2794 519 3375 1128 
Q 3956 1738 3956 2847 
Q 3956 3519 3581 3833 
Q 3206 4147 2406 4147 
L 1613 4147 
z
" transform="scale(0.015625)"/>
      </defs>
      <use xlink:href="#DejaVuSans-Oblique-54" transform="translate(0 0.765625)"/>
      <use xlink:href="#DejaVuSans-Oblique-43" transform="translate(61.083984 -15.640625) scale(0.7)"/>
      <use xlink:href="#DejaVuSans-3d" transform="translate(132.177734 0.765625)"/>
      <use xlink:href="#DejaVuSans-Oblique-54" transform="translate(235.449219 0.765625)"/>
      <use xlink:href="#DejaVuSans-2f" transform="translate(296.533203 0.765625)"/>
      <use xlink:href="#DejaVuSans-Oblique-3c1" transform="translate(330.224609 0.765625)"/>
      <use xlink:href="#DejaVuSans-Oblique-56" transform="translate(393.701172 0.765625)"/>
      <use xlink:href="#DejaVuSans-32" transform="translate(469.126146 39.046875) scale(0.7)"/>
      <use xlink:href="#DejaVuSans-Oblique-44" transform="translate(516.396654 0.765625)"/>
      <use xlink:href="#DejaVuSans-32" transform="translate(600.415378 39.046875) scale(0.7)"/>
     </g>
    </g>
   </g>
   <g id="matplotlib.axis_2">
    <g id="ytick_1">
     <g id="line2d_13">
      <path d="M 77.798 157.752144 
L 288.833656 157.752144 
" clip-path="url(#p98724cd038)" style="fill: none; stroke: #b0b0b0; stroke-width: 0.8; stroke-linecap: square"/>
     </g>
     <g id="line2d_14">
      <defs>
       <path id="m9eea1c80e8" d="M 0 0 
L -3.5 0 
" style="stroke: #000000; stroke-width: 0.8"/>
      </defs>
      <g>
       <use xlink:href="#m9eea1c80e8" x="77.798" y="157.752144" style="stroke: #000000; stroke-width: 0.8"/>
      </g>
     </g>
     <g id="text_8">
      <!-- −0.0002 -->
      <g transform="translate(27.427687 161.551362) scale(0.1 -0.1)">
       <use xlink:href="#DejaVuSans-2212"/>
       <use xlink:href="#DejaVuSans-30" x="83.789062"/>
       <use xlink:href="#DejaVuSans-2e" x="147.412109"/>
       <use xlink:href="#DejaVuSans-30" x="179.199219"/>
       <use xlink:href="#DejaVuSans-30" x="242.822266"/>
       <use xlink:href="#DejaVuSans-30" x="306.445312"/>
       <use xlink:href="#DejaVuSans-32" x="370.068359"/>
      </g>
     </g>
    </g>
    <g id="ytick_2">
     <g id="line2d_15">
      <path d="M 77.798 133.826207 
L 288.833656 133.826207 
" clip-path="url(#p98724cd038)" style="fill: none; stroke: #b0b0b0; stroke-width: 0.8; stroke-linecap: square"/>
     </g>
     <g id="line2d_16">
      <g>
       <use xlink:href="#m9eea1c80e8" x="77.798" y="133.826207" style="stroke: #000000; stroke-width: 0.8"/>
      </g>
     </g>
     <g id="text_9">
      <!-- −0.0001 -->
      <g transform="translate(27.427687 137.625425) scale(0.1 -0.1)">
       <use xlink:href="#DejaVuSans-2212"/>
       <use xlink:href="#DejaVuSans-30" x="83.789062"/>
       <use xlink:href="#DejaVuSans-2e" x="147.412109"/>
       <use xlink:href="#DejaVuSans-30" x="179.199219"/>
       <use xlink:href="#DejaVuSans-30" x="242.822266"/>
       <use xlink:href="#DejaVuSans-30" x="306.445312"/>
       <use xlink:href="#DejaVuSans-31" x="370.068359"/>
      </g>
     </g>
    </g>
    <g id="ytick_3">
     <g id="line2d_17">
      <path d="M 77.798 109.90027 
L 288.833656 109.90027 
" clip-path="url(#p98724cd038)" style="fill: none; stroke: #b0b0b0; stroke-width: 0.8; stroke-linecap: square"/>
     </g>
     <g id="line2d_18">
      <g>
       <use xlink:href="#m9eea1c80e8" x="77.798" y="109.90027" style="stroke: #000000; stroke-width: 0.8"/>
      </g>
     </g>
     <g id="text_10">
      <!-- 0.0000 -->
      <g transform="translate(35.807375 113.699488) scale(0.1 -0.1)">
       <use xlink:href="#DejaVuSans-30"/>
       <use xlink:href="#DejaVuSans-2e" x="63.623047"/>
       <use xlink:href="#DejaVuSans-30" x="95.410156"/>
       <use xlink:href="#DejaVuSans-30" x="159.033203"/>
       <use xlink:href="#DejaVuSans-30" x="222.65625"/>
       <use xlink:href="#DejaVuSans-30" x="286.279297"/>
      </g>
     </g>
    </g>
    <g id="ytick_4">
     <g id="line2d_19">
      <path d="M 77.798 85.974333 
L 288.833656 85.974333 
" clip-path="url(#p98724cd038)" style="fill: none; stroke: #b0b0b0; stroke-width: 0.8; stroke-linecap: square"/>
     </g>
     <g id="line2d_20">
      <g>
       <use xlink:href="#m9eea1c80e8" x="77.798" y="85.974333" style="stroke: #000000; stroke-width: 0.8"/>
      </g>
     </g>
     <g id="text_11">
      <!-- 0.0001 -->
      <g transform="translate(35.807375 89.773551) scale(0.1 -0.1)">
       <use xlink:href="#DejaVuSans-30"/>
       <use xlink:href="#DejaVuSans-2e" x="63.623047"/>
       <use xlink:href="#DejaVuSans-30" x="95.410156"/>
       <use xlink:href="#DejaVuSans-30" x="159.033203"/>
       <use xlink:href="#DejaVuSans-30" x="222.65625"/>
       <use xlink:href="#DejaVuSans-31" x="286.279297"/>
      </g>
     </g>
    </g>
    <g id="ytick_5">
     <g id="line2d_21">
      <path d="M 77.798 62.048396 
L 288.833656 62.048396 
" clip-path="url(#p98724cd038)" style="fill: none; stroke: #b0b0b0; stroke-width: 0.8; stroke-linecap: square"/>
     </g>
     <g id="line2d_22">
      <g>
       <use xlink:href="#m9eea1c80e8" x="77.798" y="62.048396" style="stroke: #000000; stroke-width: 0.8"/>
      </g>
     </g>
     <g id="text_12">
      <!-- 0.0002 -->
      <g transform="translate(35.807375 65.847614) scale(0.1 -0.1)">
       <use xlink:href="#DejaVuSans-30"/>
       <use xlink:href="#DejaVuSans-2e" x="63.623047"/>
       <use xlink:href="#DejaVuSans-30" x="95.410156"/>
       <use xlink:href="#DejaVuSans-30" x="159.033203"/>
       <use xlink:href="#DejaVuSans-30" x="222.65625"/>
       <use xlink:href="#DejaVuSans-32" x="286.279297"/>
      </g>
     </g>
    </g>
    <g id="ytick_6">
     <g id="line2d_23">
      <path d="M 77.798 38.122459 
L 288.833656 38.122459 
" clip-path="url(#p98724cd038)" style="fill: none; stroke: #b0b0b0; stroke-width: 0.8; stroke-linecap: square"/>
     </g>
     <g id="line2d_24">
      <g>
       <use xlink:href="#m9eea1c80e8" x="77.798" y="38.122459" style="stroke: #000000; stroke-width: 0.8"/>
      </g>
     </g>
     <g id="text_13">
      <!-- 0.0003 -->
      <g transform="translate(35.807375 41.921677) scale(0.1 -0.1)">
       <defs>
        <path id="DejaVuSans-33" d="M 2597 2516 
Q 3050 2419 3304 2112 
Q 3559 1806 3559 1356 
Q 3559 666 3084 287 
Q 2609 -91 1734 -91 
Q 1441 -91 1130 -33 
Q 819 25 488 141 
L 488 750 
Q 750 597 1062 519 
Q 1375 441 1716 441 
Q 2309 441 2620 675 
Q 2931 909 2931 1356 
Q 2931 1769 2642 2001 
Q 2353 2234 1838 2234 
L 1294 2234 
L 1294 2753 
L 1863 2753 
Q 2328 2753 2575 2939 
Q 2822 3125 2822 3475 
Q 2822 3834 2567 4026 
Q 2313 4219 1838 4219 
Q 1578 4219 1281 4162 
Q 984 4106 628 3988 
L 628 4550 
Q 988 4650 1302 4700 
Q 1616 4750 1894 4750 
Q 2613 4750 3031 4423 
Q 3450 4097 3450 3541 
Q 3450 3153 3228 2886 
Q 3006 2619 2597 2516 
z
" transform="scale(0.015625)"/>
       </defs>
       <use xlink:href="#DejaVuSans-30"/>
       <use xlink:href="#DejaVuSans-2e" x="63.623047"/>
       <use xlink:href="#DejaVuSans-30" x="95.410156"/>
       <use xlink:href="#DejaVuSans-30" x="159.033203"/>
       <use xlink:href="#DejaVuSans-30" x="222.65625"/>
       <use xlink:href="#DejaVuSans-33" x="286.279297"/>
      </g>
     </g>
    </g>
    <g id="text_14">
     <!-- d$C_D$ / d$\delta_e$ -->
     <g transform="translate(21.348 121.622) rotate(-90) scale(0.1 -0.1)">
      <defs>
       <path id="DejaVuSans-64" d="M 2906 2969 
L 2906 4863 
L 3481 4863 
L 3481 0 
L 2906 0 
L 2906 525 
Q 2725 213 2448 61 
Q 2172 -91 1784 -91 
Q 1150 -91 751 415 
Q 353 922 353 1747 
Q 353 2572 751 3078 
Q 1150 3584 1784 3584 
Q 2172 3584 2448 3432 
Q 2725 3281 2906 2969 
z
M 947 1747 
Q 947 1113 1208 752 
Q 1469 391 1925 391 
Q 2381 391 2643 752 
Q 2906 1113 2906 1747 
Q 2906 2381 2643 2742 
Q 2381 3103 1925 3103 
Q 1469 3103 1208 2742 
Q 947 2381 947 1747 
z
" transform="scale(0.015625)"/>
       <path id="DejaVuSans-20" transform="scale(0.015625)"/>
       <path id="DejaVuSans-Oblique-3b4" d="M 3472 4053 
Q 3197 4272 2450 4272 
Q 1659 4272 1588 3906 
Q 1531 3619 2328 3469 
Q 2953 3353 3253 3003 
Q 3616 2581 3447 1716 
Q 3284 888 2763 400 
Q 2238 -91 1488 -91 
Q 741 -91 406 400 
Q 72 888 241 1747 
Q 363 2384 891 2900 
Q 1097 3100 1353 3213 
Q 913 3459 1000 3900 
Q 1166 4750 2544 4750 
Q 3234 4750 3566 4531 
L 3472 4053 
z
M 1753 3056 
Q 1525 2966 1306 2738 
Q 969 2384 847 1747 
Q 722 1113 919 756 
Q 1119 397 1584 397 
Q 2044 397 2381 759 
Q 2722 1122 2838 1716 
Q 2956 2338 2731 2638 
Q 2491 2959 2103 2994 
Q 1906 3013 1753 3056 
z
" transform="scale(0.015625)"/>
       <path id="DejaVuSans-Oblique-65" d="M 3078 2063 
Q 3088 2113 3092 2166 
Q 3097 2219 3097 2272 
Q 3097 2653 2873 2875 
Q 2650 3097 2266 3097 
Q 1838 3097 1509 2826 
Q 1181 2556 1013 2059 
L 3078 2063 
z
M 3578 1613 
L 903 1613 
Q 884 1494 878 1425 
Q 872 1356 872 1306 
Q 872 872 1139 634 
Q 1406 397 1894 397 
Q 2269 397 2603 481 
Q 2938 566 3225 728 
L 3116 159 
Q 2806 34 2476 -28 
Q 2147 -91 1806 -91 
Q 1078 -91 686 257 
Q 294 606 294 1247 
Q 294 1794 489 2264 
Q 684 2734 1063 3103 
Q 1306 3334 1642 3459 
Q 1978 3584 2356 3584 
Q 2950 3584 3301 3228 
Q 3653 2872 3653 2272 
Q 3653 2128 3634 1964 
Q 3616 1800 3578 1613 
z
" transform="scale(0.015625)"/>
      </defs>
      <use xlink:href="#DejaVuSans-64" transform="translate(0 0.015625)"/>
      <use xlink:href="#DejaVuSans-Oblique-43" transform="translate(63.476562 0.015625)"/>
      <use xlink:href="#DejaVuSans-Oblique-44" transform="translate(133.300781 -16.390625) scale(0.7)"/>
      <use xlink:href="#DejaVuSans-20" transform="translate(189.936523 0.015625)"/>
      <use xlink:href="#DejaVuSans-2f" transform="translate(221.723633 0.015625)"/>
      <use xlink:href="#DejaVuSans-20" transform="translate(255.415039 0.015625)"/>
      <use xlink:href="#DejaVuSans-64" transform="translate(287.202148 0.015625)"/>
      <use xlink:href="#DejaVuSans-Oblique-3b4" transform="translate(350.678711 0.015625)"/>
      <use xlink:href="#DejaVuSans-Oblique-65" transform="translate(411.860352 -16.390625) scale(0.7)"/>
     </g>
    </g>
   </g>
   <g id="line2d_25">
    <path d="M 255.969396 147.892793 
L 250.226203 145.363544 
L 244.622639 142.907819 
L 239.156162 140.525619 
L 233.824233 138.216944 
L 228.624309 135.981793 
L 223.553851 133.820167 
L 218.610316 131.732065 
L 213.791164 129.717488 
L 209.093854 127.776436 
L 204.515844 125.908908 
L 200.054594 124.114905 
L 195.707562 122.394426 
L 191.472208 120.747472 
L 187.34599 119.174043 
L 183.326368 117.674138 
L 179.410801 116.247758 
L 175.596746 114.894902 
L 171.881664 113.615571 
L 168.263013 112.409765 
L 164.738252 111.277483 
L 161.304841 110.218726 
L 157.960237 109.233493 
L 154.701901 108.321785 
L 151.52729 107.483602 
L 148.433864 106.718943 
L 145.419083 106.027809 
L 142.480404 105.410199 
L 139.615287 104.866114 
L 136.821191 104.395554 
L 134.095574 103.998518 
L 131.435896 103.675007 
L 128.839616 103.42502 
L 126.304192 103.248558 
L 123.827084 103.145621 
L 121.405751 103.116208 
L 119.03765 103.16032 
L 116.720243 103.277956 
L 114.450986 103.469117 
L 112.22734 103.733803 
L 110.046763 104.072013 
L 107.906714 104.483748 
L 105.804652 104.969007 
L 103.738037 105.527791 
L 101.704326 106.1601 
L 99.70098 106.865933 
L 97.725456 107.645291 
L 95.775214 108.498173 
L 93.847714 109.42458 
L 91.940413 110.424512 
" clip-path="url(#p98724cd038)" style="fill: none; stroke: #000080; stroke-width: 1.5; stroke-linecap: square"/>
   </g>
   <g id="line2d_26">
    <path d="M 272.074067 147.892793 
L 266.371543 145.363544 
L 260.807733 142.907819 
L 255.380098 140.525619 
L 250.086094 138.216944 
L 244.923183 135.981793 
L 239.888821 133.820167 
L 234.980469 131.732065 
L 230.195586 129.717488 
L 225.531629 127.776436 
L 220.986059 125.908908 
L 216.556334 124.114905 
L 212.239914 122.394426 
L 208.034256 120.747472 
L 203.936821 119.174043 
L 199.945066 117.674138 
L 196.056452 116.247758 
L 192.268436 114.894902 
L 188.578478 113.615571 
L 184.984037 112.409765 
L 181.482572 111.277483 
L 178.071542 110.218726 
L 174.748405 109.233493 
L 171.510621 108.321785 
L 168.355648 107.483602 
L 165.280946 106.718943 
L 162.283974 106.027809 
L 159.36219 105.410199 
L 156.513053 104.866114 
L 153.734023 104.395554 
L 151.022558 103.998518 
L 148.376117 103.675007 
L 145.79216 103.42502 
L 143.268144 103.248558 
L 140.80153 103.145621 
L 138.389776 103.116208 
L 136.030341 103.16032 
L 133.720684 103.277956 
L 131.458264 103.469117 
L 129.240539 103.733803 
L 127.06497 104.072013 
L 124.929014 104.483748 
L 122.830131 104.969007 
L 120.76578 105.527791 
L 118.733419 106.1601 
L 116.730508 106.865933 
L 114.754506 107.645291 
L 112.802871 108.498173 
L 110.873062 109.42458 
L 108.962539 110.424512 
" clip-path="url(#p98724cd038)" style="fill: none; stroke: #0000ff; stroke-width: 1.5; stroke-linecap: square"/>
   </g>
   <g id="line2d_27">
    <path d="M 262.838208 107.932491 
L 257.181801 108.281785 
L 251.661757 108.612743 
L 246.275534 108.925365 
L 241.020591 109.219651 
L 235.894387 109.495602 
L 230.894381 109.753218 
L 226.018033 109.992497 
L 221.262801 110.213441 
L 216.626143 110.416049 
L 212.10552 110.600322 
L 207.69839 110.766259 
L 203.402211 110.91386 
L 199.214444 111.043126 
L 195.132546 111.154056 
L 191.153977 111.24665 
L 187.276196 111.320909 
L 183.496661 111.376832 
L 179.812832 111.414419 
L 176.222168 111.433671 
L 172.722127 111.434587 
L 169.310169 111.417167 
L 165.983752 111.381412 
L 162.740335 111.327321 
L 159.577378 111.254894 
L 156.492339 111.164132 
L 153.482677 111.055034 
L 150.545852 110.9276 
L 147.679321 110.781831 
L 144.880545 110.617726 
L 142.146982 110.435285 
L 139.47609 110.234509 
L 136.86533 110.015397 
L 134.31216 109.777949 
L 131.814038 109.522166 
L 129.368425 109.248047 
L 126.972778 108.955592 
L 124.624557 108.644802 
L 122.32122 108.315676 
L 120.060227 107.968215 
L 117.839037 107.602417 
L 115.655108 107.218284 
L 113.5059 106.815816 
L 111.388871 106.395012 
L 109.301481 105.955872 
L 107.241188 105.498396 
L 105.205451 105.022585 
L 103.191729 104.528438 
L 101.197482 104.015956 
L 99.220168 103.485137 
" clip-path="url(#p98724cd038)" style="fill: none; stroke: #0060ff; stroke-width: 1.5; stroke-linecap: square"/>
   </g>
   <g id="line2d_28">
    <path d="M 268.451601 107.932491 
L 262.649431 108.281785 
L 256.98926 108.612743 
L 251.468549 108.925365 
L 246.084756 109.219651 
L 240.83534 109.495602 
L 235.71776 109.753218 
L 230.729475 109.992497 
L 225.867944 110.213441 
L 221.130626 110.416049 
L 216.514979 110.600322 
L 212.018464 110.766259 
L 207.638538 110.91386 
L 203.37266 111.043126 
L 199.218291 111.154056 
L 195.172888 111.24665 
L 191.23391 111.320909 
L 187.398817 111.376832 
L 183.665068 111.414419 
L 180.030121 111.433671 
L 176.491435 111.434587 
L 173.04647 111.417167 
L 169.692683 111.381412 
L 166.427535 111.327321 
L 163.248485 111.254894 
L 160.15299 111.164132 
L 157.13851 111.055034 
L 154.202505 110.9276 
L 151.342432 110.781831 
L 148.555751 110.617726 
L 145.839921 110.435285 
L 143.192401 110.234509 
L 140.61065 110.015397 
L 138.092127 109.777949 
L 135.63429 109.522166 
L 133.234599 109.248047 
L 130.890512 108.955592 
L 128.599489 108.644802 
L 126.358989 108.315676 
L 124.16647 107.968215 
L 122.019391 107.602417 
L 119.915212 107.218284 
L 117.851391 106.815816 
L 115.825388 106.395012 
L 113.83466 105.955872 
L 111.876668 105.498396 
L 109.94887 105.022585 
L 108.048725 104.528438 
L 106.173692 104.015956 
L 104.32123 103.485137 
" clip-path="url(#p98724cd038)" style="fill: none; stroke: #00d4ff; stroke-width: 1.5; stroke-linecap: square"/>
   </g>
   <g id="line2d_29">
    <path d="M 268.387321 79.946719 
L 262.785854 81.707442 
L 257.319214 83.420162 
L 251.984858 85.08488 
L 246.780247 86.701594 
L 241.702838 88.270306 
L 236.750091 89.791014 
L 231.919465 91.26372 
L 227.208419 92.688423 
L 222.614412 94.065123 
L 218.134902 95.393821 
L 213.767349 96.674515 
L 209.509211 97.907207 
L 205.357948 99.091896 
L 201.311019 100.228582 
L 197.365882 101.317265 
L 193.519996 102.357945 
L 189.770821 103.350622 
L 186.115815 104.295297 
L 182.552437 105.191969 
L 179.078146 106.040638 
L 175.690402 106.841304 
L 172.386663 107.593967 
L 169.164388 108.298627 
L 166.021035 108.955285 
L 162.954065 109.563939 
L 159.960936 110.124591 
L 157.039106 110.63724 
L 154.186036 111.101886 
L 151.399183 111.51853 
L 148.676007 111.88717 
L 146.013967 112.207808 
L 143.410521 112.480442 
L 140.863129 112.705074 
L 138.369249 112.881703 
L 135.926341 113.01033 
L 133.531863 113.090953 
L 131.183275 113.123574 
L 128.878035 113.108191 
L 126.613603 113.044806 
L 124.387436 112.933418 
L 122.196995 112.774027 
L 120.039738 112.566634 
L 117.913125 112.311237 
L 115.814613 112.007838 
L 113.741662 111.656435 
L 111.691732 111.25703 
L 109.66228 110.809622 
L 107.650766 110.314212 
L 105.654649 109.770798 
" clip-path="url(#p98724cd038)" style="fill: none; stroke: #4dffaa; stroke-width: 1.5; stroke-linecap: square"/>
   </g>
   <g id="line2d_30">
    <path d="M 265.897994 79.946719 
L 260.068414 81.707442 
L 254.380416 83.420162 
L 248.831458 85.08488 
L 243.419 86.701594 
L 238.1405 88.270306 
L 232.993418 89.791014 
L 227.975212 91.26372 
L 223.083342 92.688423 
L 218.315266 94.065123 
L 213.668444 95.393821 
L 209.140334 96.674515 
L 204.728395 97.907207 
L 200.430086 99.091896 
L 196.242866 100.228582 
L 192.164195 101.317265 
L 188.19153 102.357945 
L 184.322332 103.350622 
L 180.554058 104.295297 
L 176.884169 105.191969 
L 173.310122 106.040638 
L 169.829377 106.841304 
L 166.439393 107.593967 
L 163.137628 108.298627 
L 159.921542 108.955285 
L 156.788594 109.563939 
L 153.736243 110.124591 
L 150.761947 110.63724 
L 147.863165 111.101886 
L 145.037357 111.51853 
L 142.281981 111.88717 
L 139.594497 112.207808 
L 136.972362 112.480442 
L 134.413038 112.705074 
L 131.913981 112.881703 
L 129.472651 113.01033 
L 127.086508 113.090953 
L 124.753009 113.123574 
L 122.469615 113.108191 
L 120.233784 113.044806 
L 118.042974 112.933418 
L 115.894645 112.774027 
L 113.786257 112.566634 
L 111.715267 112.311237 
L 109.679134 112.007838 
L 107.675319 111.656435 
L 105.701279 111.25703 
L 103.754473 110.809622 
L 101.832361 110.314212 
L 99.932402 109.770798 
" clip-path="url(#p98724cd038)" style="fill: none; stroke: #aaff4d; stroke-width: 1.5; stroke-linecap: square"/>
   </g>
   <g id="line2d_31">
    <path d="M 274.483137 52.741169 
L 268.926741 55.01078 
L 263.504751 57.253046 
L 258.214625 59.467969 
L 253.053822 61.655549 
L 248.019802 63.815784 
L 243.110023 65.948676 
L 238.321945 68.054224 
L 233.653026 70.132427 
L 229.100725 72.183288 
L 224.662501 74.206804 
L 220.335813 76.202976 
L 216.118121 78.171805 
L 212.006882 80.11329 
L 207.999557 82.027431 
L 204.093603 83.914228 
L 200.28648 85.773682 
L 196.575647 87.605791 
L 192.958563 89.410557 
L 189.432687 91.187979 
L 185.995477 92.938057 
L 182.644393 94.660791 
L 179.376894 96.356181 
L 176.190438 98.024228 
L 173.082485 99.664931 
L 170.050493 101.27829 
L 167.091922 102.864305 
L 164.20423 104.422976 
L 161.384876 105.954304 
L 158.631319 107.458287 
L 155.941019 108.934927 
L 153.311434 110.384223 
L 150.740023 111.806175 
L 148.224246 113.200784 
L 145.76156 114.568048 
L 143.349425 115.907969 
L 140.9853 117.220546 
L 138.666644 118.505779 
L 136.390916 119.763668 
L 134.155575 120.994214 
L 131.95808 122.197415 
L 129.795889 123.373273 
L 127.666462 124.521787 
L 125.567257 125.642957 
L 123.495734 126.736784 
L 121.449352 127.803266 
L 119.425569 128.842405 
L 117.421845 129.8542 
L 115.435638 130.838651 
L 113.464407 131.795758 
" clip-path="url(#p98724cd038)" style="fill: none; stroke: #ffe600; stroke-width: 1.5; stroke-linecap: square"/>
   </g>
   <g id="line2d_32">
    <path d="M 263.038562 52.741169 
L 257.242845 55.01078 
L 251.584421 57.253046 
L 246.060746 59.467969 
L 240.669282 61.655549 
L 235.407486 63.815784 
L 230.272817 65.948676 
L 225.262735 68.054224 
L 220.374699 70.132427 
L 215.606167 72.183288 
L 210.954598 74.206804 
L 206.417452 76.202976 
L 201.992187 78.171805 
L 197.676262 80.11329 
L 193.467136 82.027431 
L 189.362269 83.914228 
L 185.359118 85.773682 
L 181.455144 87.605791 
L 177.647804 89.410557 
L 173.934559 91.187979 
L 170.312866 92.938057 
L 166.780185 94.660791 
L 163.333975 96.356181 
L 159.971695 98.024228 
L 156.690804 99.664931 
L 153.48876 101.27829 
L 150.363023 102.864305 
L 147.311051 104.422976 
L 144.330304 105.954304 
L 141.41824 107.458287 
L 138.572319 108.934927 
L 135.789999 110.384223 
L 133.06874 111.806175 
L 130.406 113.200784 
L 127.799238 114.568048 
L 125.245913 115.907969 
L 122.743484 117.220546 
L 120.289411 118.505779 
L 117.881151 119.763668 
L 115.516165 120.994214 
L 113.19191 122.197415 
L 110.905846 123.373273 
L 108.655433 124.521787 
L 106.438128 125.642957 
L 104.25139 126.736784 
L 102.09268 127.803266 
L 99.959455 128.842405 
L 97.849175 129.8542 
L 95.759298 130.838651 
L 93.687284 131.795758 
" clip-path="url(#p98724cd038)" style="fill: none; stroke: #ff7a00; stroke-width: 1.5; stroke-linecap: square"/>
   </g>
   <g id="line2d_33">
    <path d="M 278.816667 35.384356 
L 273.280448 37.090684 
L 267.87947 38.833767 
L 262.611192 40.613604 
L 257.473073 42.430197 
L 252.462572 44.283545 
L 247.577148 46.173648 
L 242.81426 48.100506 
L 238.171366 50.064119 
L 233.645926 52.064487 
L 229.235399 54.10161 
L 224.937243 56.175489 
L 220.748918 58.286122 
L 216.667882 60.43351 
L 212.691595 62.617654 
L 208.817515 64.838552 
L 205.043102 67.096206 
L 201.365813 69.390615 
L 197.78311 71.721778 
L 194.292449 74.089697 
L 190.891291 76.494371 
L 187.577093 78.9358 
L 184.347316 81.413984 
L 181.199418 83.928923 
L 178.130858 86.480617 
L 175.139094 89.069066 
L 172.221587 91.69427 
L 169.375795 94.356229 
L 166.599176 97.054944 
L 163.88919 99.790413 
L 161.243296 102.562637 
L 158.658952 105.371617 
L 156.133618 108.217352 
L 153.664753 111.099841 
L 151.249815 114.019086 
L 148.886264 116.975086 
L 146.571558 119.96784 
L 144.303156 122.99735 
L 142.078518 126.063615 
L 139.895102 129.166635 
L 137.750367 132.30641 
L 135.641772 135.48294 
L 133.566777 138.696226 
L 131.52284 141.946266 
L 129.507419 145.233061 
L 127.517975 148.556612 
L 125.551966 151.916917 
L 123.606851 155.313977 
L 121.680088 158.747793 
L 119.769137 162.218364 
" clip-path="url(#p98724cd038)" style="fill: none; stroke: #ff1300; stroke-width: 1.5; stroke-linecap: square"/>
   </g>
   <g id="line2d_34">
    <path d="M 260.549397 35.384356 
L 254.837529 37.090684 
L 249.256221 38.833767 
L 243.802933 40.613604 
L 238.475123 42.430197 
L 233.27025 44.283545 
L 228.185773 46.173648 
L 223.219151 48.100506 
L 218.367843 50.064119 
L 213.629308 52.064487 
L 209.001005 54.10161 
L 204.480393 56.175489 
L 200.064931 58.286122 
L 195.752077 60.43351 
L 191.539292 62.617654 
L 187.424033 64.838552 
L 183.403759 67.096206 
L 179.47593 69.390615 
L 175.638005 71.721778 
L 171.887442 74.089697 
L 168.221701 76.494371 
L 164.63824 78.9358 
L 161.134519 81.413984 
L 157.707996 83.928923 
L 154.35613 86.480617 
L 151.07638 89.069066 
L 147.866205 91.69427 
L 144.723065 94.356229 
L 141.644418 97.054944 
L 138.627722 99.790413 
L 135.670438 102.562637 
L 132.770024 105.371617 
L 129.923938 108.217352 
L 127.12964 111.099841 
L 124.38459 114.019086 
L 121.686244 116.975086 
L 119.032064 119.96784 
L 116.419507 122.99735 
L 113.846033 126.063615 
L 111.3091 129.166635 
L 108.806168 132.30641 
L 106.334696 135.48294 
L 103.892142 138.696226 
L 101.475965 141.946266 
L 99.083624 145.233061 
L 96.712579 148.556612 
L 94.360288 151.916917 
L 92.02421 155.313977 
L 89.701804 158.747793 
L 87.39053 162.218364 
" clip-path="url(#p98724cd038)" style="fill: none; stroke: #800000; stroke-width: 1.5; stroke-linecap: square"/>
   </g>
   <g id="patch_3">
    <path d="M 77.798 168.568 
L 77.798 28.876 
" style="fill: none; stroke: #000000; stroke-width: 0.8; stroke-linejoin: miter; stroke-linecap: square"/>
   </g>
   <g id="patch_4">
    <path d="M 288.833656 168.568 
L 288.833656 28.876 
" style="fill: none; stroke: #000000; stroke-width: 0.8; stroke-linejoin: miter; stroke-linecap: square"/>
   </g>
   <g id="patch_5">
    <path d="M 77.798 168.568 
L 288.833656 168.568 
" style="fill: none; stroke: #000000; stroke-width: 0.8; stroke-linejoin: miter; stroke-linecap: square"/>
   </g>
   <g id="patch_6">
    <path d="M 77.798 28.876 
L 288.833656 28.876 
" style="fill: none; stroke: #000000; stroke-width: 0.8; stroke-linejoin: miter; stroke-linecap: square"/>
   </g>
   <g id="legend_1">
    <g id="patch_7">
     <path d="M 297.833656 158.5834 
L 420.533656 158.5834 
Q 422.533656 158.5834 422.533656 156.5834 
L 422.533656 10.80215 
Q 422.533656 8.80215 420.533656 8.80215 
L 297.833656 8.80215 
Q 295.833656 8.80215 295.833656 10.80215 
L 295.833656 156.5834 
Q 295.833656 158.5834 297.833656 158.5834 
z
" style="fill: #4d4d4d; opacity: 0.5; stroke: #4d4d4d; stroke-linejoin: miter"/>
    </g>
    <g id="patch_8">
     <path d="M 295.833656 156.5834 
L 418.533656 156.5834 
Q 420.533656 156.5834 420.533656 154.5834 
L 420.533656 8.80215 
Q 420.533656 6.80215 418.533656 6.80215 
L 295.833656 6.80215 
Q 293.833656 6.80215 293.833656 8.80215 
L 293.833656 154.5834 
Q 293.833656 156.5834 295.833656 156.5834 
z
" style="fill: #ffffff; stroke: #cccccc; stroke-linejoin: miter"/>
    </g>
    <g id="PathCollection_11">
     <g>
      <use xlink:href="#m6f20279524" x="307.833656" y="15.775588" style="fill: #000080; stroke: #000080; stroke-width: 1.5"/>
     </g>
    </g>
    <g id="text_15">
     <!-- $\alpha = -4, \delta_e = -10$ -->
     <g transform="translate(325.833656 18.400588) scale(0.1 -0.1)">
      <defs>
       <path id="DejaVuSans-Oblique-3b1" d="M 2619 1628 
L 2622 2350 
Q 2625 3088 2069 3091 
Q 1653 3094 1394 2747 
Q 1069 2319 959 1747 
Q 825 1059 994 731 
Q 1169 397 1547 397 
Q 1966 397 2319 1063 
L 2619 1628 
z
M 2166 3578 
Q 3141 3594 3128 2584 
Q 3128 2584 3616 3500 
L 4128 3500 
L 3119 1603 
L 3109 919 
Q 3109 766 3194 638 
Q 3291 488 3391 488 
L 3669 488 
L 3575 0 
L 3228 0 
Q 2934 0 2722 263 
Q 2622 394 2619 669 
Q 2416 334 2066 50 
Q 1900 -81 1453 -78 
Q 722 -72 456 397 
Q 184 884 353 1747 
Q 534 2675 1009 3097 
Q 1544 3569 2166 3578 
z
" transform="scale(0.015625)"/>
       <path id="DejaVuSans-34" d="M 2419 4116 
L 825 1625 
L 2419 1625 
L 2419 4116 
z
M 2253 4666 
L 3047 4666 
L 3047 1625 
L 3713 1625 
L 3713 1100 
L 3047 1100 
L 3047 0 
L 2419 0 
L 2419 1100 
L 313 1100 
L 313 1709 
L 2253 4666 
z
" transform="scale(0.015625)"/>
       <path id="DejaVuSans-2c" d="M 750 794 
L 1409 794 
L 1409 256 
L 897 -744 
L 494 -744 
L 750 256 
L 750 794 
z
" transform="scale(0.015625)"/>
      </defs>
      <use xlink:href="#DejaVuSans-Oblique-3b1" transform="translate(0 0.78125)"/>
      <use xlink:href="#DejaVuSans-3d" transform="translate(85.400391 0.78125)"/>
      <use xlink:href="#DejaVuSans-2212" transform="translate(208.154297 0.78125)"/>
      <use xlink:href="#DejaVuSans-34" transform="translate(311.425781 0.78125)"/>
      <use xlink:href="#DejaVuSans-2c" transform="translate(375.048828 0.78125)"/>
      <use xlink:href="#DejaVuSans-Oblique-3b4" transform="translate(426.318359 0.78125)"/>
      <use xlink:href="#DejaVuSans-Oblique-65" transform="translate(487.5 -15.625) scale(0.7)"/>
      <use xlink:href="#DejaVuSans-3d" transform="translate(552.783203 0.78125)"/>
      <use xlink:href="#DejaVuSans-2212" transform="translate(675.537109 0.78125)"/>
      <use xlink:href="#DejaVuSans-31" transform="translate(778.808594 0.78125)"/>
      <use xlink:href="#DejaVuSans-30" transform="translate(842.431641 0.78125)"/>
     </g>
    </g>
    <g id="PathCollection_12">
     <g>
      <use xlink:href="#m4367b4be8b" x="307.833656" y="30.453713" style="fill: #0000ff; stroke: #0000ff; stroke-width: 1.5"/>
     </g>
    </g>
    <g id="text_16">
     <!-- $\alpha = -4, \delta_e = 10$ -->
     <g transform="translate(325.833656 33.078713) scale(0.1 -0.1)">
      <use xlink:href="#DejaVuSans-Oblique-3b1" transform="translate(0 0.78125)"/>
      <use xlink:href="#DejaVuSans-3d" transform="translate(85.400391 0.78125)"/>
      <use xlink:href="#DejaVuSans-2212" transform="translate(208.154297 0.78125)"/>
      <use xlink:href="#DejaVuSans-34" transform="translate(311.425781 0.78125)"/>
      <use xlink:href="#DejaVuSans-2c" transform="translate(375.048828 0.78125)"/>
      <use xlink:href="#DejaVuSans-Oblique-3b4" transform="translate(426.318359 0.78125)"/>
      <use xlink:href="#DejaVuSans-Oblique-65" transform="translate(487.5 -15.625) scale(0.7)"/>
      <use xlink:href="#DejaVuSans-3d" transform="translate(552.783203 0.78125)"/>
      <use xlink:href="#DejaVuSans-31" transform="translate(656.054688 0.78125)"/>
      <use xlink:href="#DejaVuSans-30" transform="translate(719.677734 0.78125)"/>
     </g>
    </g>
    <g id="PathCollection_13">
     <g>
      <use xlink:href="#m8e993576b0" x="307.833656" y="45.131838" style="fill: #0060ff; stroke: #0060ff; stroke-width: 1.5"/>
     </g>
    </g>
    <g id="text_17">
     <!-- $\alpha = -1, \delta_e = -10$ -->
     <g transform="translate(325.833656 47.756838) scale(0.1 -0.1)">
      <use xlink:href="#DejaVuSans-Oblique-3b1" transform="translate(0 0.78125)"/>
      <use xlink:href="#DejaVuSans-3d" transform="translate(85.400391 0.78125)"/>
      <use xlink:href="#DejaVuSans-2212" transform="translate(208.154297 0.78125)"/>
      <use xlink:href="#DejaVuSans-31" transform="translate(311.425781 0.78125)"/>
      <use xlink:href="#DejaVuSans-2c" transform="translate(375.048828 0.78125)"/>
      <use xlink:href="#DejaVuSans-Oblique-3b4" transform="translate(426.318359 0.78125)"/>
      <use xlink:href="#DejaVuSans-Oblique-65" transform="translate(487.5 -15.625) scale(0.7)"/>
      <use xlink:href="#DejaVuSans-3d" transform="translate(552.783203 0.78125)"/>
      <use xlink:href="#DejaVuSans-2212" transform="translate(675.537109 0.78125)"/>
      <use xlink:href="#DejaVuSans-31" transform="translate(778.808594 0.78125)"/>
      <use xlink:href="#DejaVuSans-30" transform="translate(842.431641 0.78125)"/>
     </g>
    </g>
    <g id="PathCollection_14">
     <g>
      <use xlink:href="#mda25e0a2cd" x="307.833656" y="59.809963" style="fill: #00d4ff; stroke: #00d4ff; stroke-width: 1.5"/>
     </g>
    </g>
    <g id="text_18">
     <!-- $\alpha = -1, \delta_e = 10$ -->
     <g transform="translate(325.833656 62.434963) scale(0.1 -0.1)">
      <use xlink:href="#DejaVuSans-Oblique-3b1" transform="translate(0 0.78125)"/>
      <use xlink:href="#DejaVuSans-3d" transform="translate(85.400391 0.78125)"/>
      <use xlink:href="#DejaVuSans-2212" transform="translate(208.154297 0.78125)"/>
      <use xlink:href="#DejaVuSans-31" transform="translate(311.425781 0.78125)"/>
      <use xlink:href="#DejaVuSans-2c" transform="translate(375.048828 0.78125)"/>
      <use xlink:href="#DejaVuSans-Oblique-3b4" transform="translate(426.318359 0.78125)"/>
      <use xlink:href="#DejaVuSans-Oblique-65" transform="translate(487.5 -15.625) scale(0.7)"/>
      <use xlink:href="#DejaVuSans-3d" transform="translate(552.783203 0.78125)"/>
      <use xlink:href="#DejaVuSans-31" transform="translate(656.054688 0.78125)"/>
      <use xlink:href="#DejaVuSans-30" transform="translate(719.677734 0.78125)"/>
     </g>
    </g>
    <g id="PathCollection_15">
     <g>
      <use xlink:href="#m4615e4d810" x="307.833656" y="74.488088" style="fill: #4dffaa; stroke: #4dffaa; stroke-width: 1.5"/>
     </g>
    </g>
    <g id="text_19">
     <!-- $\alpha = 2, \delta_e = -10$ -->
     <g transform="translate(325.833656 77.113088) scale(0.1 -0.1)">
      <use xlink:href="#DejaVuSans-Oblique-3b1" transform="translate(0 0.78125)"/>
      <use xlink:href="#DejaVuSans-3d" transform="translate(85.400391 0.78125)"/>
      <use xlink:href="#DejaVuSans-32" transform="translate(188.671875 0.78125)"/>
      <use xlink:href="#DejaVuSans-2c" transform="translate(252.294922 0.78125)"/>
      <use xlink:href="#DejaVuSans-Oblique-3b4" transform="translate(303.564453 0.78125)"/>
      <use xlink:href="#DejaVuSans-Oblique-65" transform="translate(364.746094 -15.625) scale(0.7)"/>
      <use xlink:href="#DejaVuSans-3d" transform="translate(430.029297 0.78125)"/>
      <use xlink:href="#DejaVuSans-2212" transform="translate(552.783203 0.78125)"/>
      <use xlink:href="#DejaVuSans-31" transform="translate(656.054688 0.78125)"/>
      <use xlink:href="#DejaVuSans-30" transform="translate(719.677734 0.78125)"/>
     </g>
    </g>
    <g id="PathCollection_16">
     <g>
      <use xlink:href="#mcdc817ea32" x="307.833656" y="89.166213" style="fill: #aaff4d; stroke: #aaff4d; stroke-width: 1.5"/>
     </g>
    </g>
    <g id="text_20">
     <!-- $\alpha = 2, \delta_e = 10$ -->
     <g transform="translate(325.833656 91.791213) scale(0.1 -0.1)">
      <use xlink:href="#DejaVuSans-Oblique-3b1" transform="translate(0 0.78125)"/>
      <use xlink:href="#DejaVuSans-3d" transform="translate(85.400391 0.78125)"/>
      <use xlink:href="#DejaVuSans-32" transform="translate(188.671875 0.78125)"/>
      <use xlink:href="#DejaVuSans-2c" transform="translate(252.294922 0.78125)"/>
      <use xlink:href="#DejaVuSans-Oblique-3b4" transform="translate(303.564453 0.78125)"/>
      <use xlink:href="#DejaVuSans-Oblique-65" transform="translate(364.746094 -15.625) scale(0.7)"/>
      <use xlink:href="#DejaVuSans-3d" transform="translate(430.029297 0.78125)"/>
      <use xlink:href="#DejaVuSans-31" transform="translate(533.300781 0.78125)"/>
      <use xlink:href="#DejaVuSans-30" transform="translate(596.923828 0.78125)"/>
     </g>
    </g>
    <g id="PathCollection_17">
     <g>
      <use xlink:href="#mc21471c284" x="307.833656" y="103.844338" style="fill: #ffe600; stroke: #ffe600; stroke-width: 1.5"/>
     </g>
    </g>
    <g id="text_21">
     <!-- $\alpha = 4, \delta_e = -10$ -->
     <g transform="translate(325.833656 106.469338) scale(0.1 -0.1)">
      <use xlink:href="#DejaVuSans-Oblique-3b1" transform="translate(0 0.78125)"/>
      <use xlink:href="#DejaVuSans-3d" transform="translate(85.400391 0.78125)"/>
      <use xlink:href="#DejaVuSans-34" transform="translate(188.671875 0.78125)"/>
      <use xlink:href="#DejaVuSans-2c" transform="translate(252.294922 0.78125)"/>
      <use xlink:href="#DejaVuSans-Oblique-3b4" transform="translate(303.564453 0.78125)"/>
      <use xlink:href="#DejaVuSans-Oblique-65" transform="translate(364.746094 -15.625) scale(0.7)"/>
      <use xlink:href="#DejaVuSans-3d" transform="translate(430.029297 0.78125)"/>
      <use xlink:href="#DejaVuSans-2212" transform="translate(552.783203 0.78125)"/>
      <use xlink:href="#DejaVuSans-31" transform="translate(656.054688 0.78125)"/>
      <use xlink:href="#DejaVuSans-30" transform="translate(719.677734 0.78125)"/>
     </g>
    </g>
    <g id="PathCollection_18">
     <g>
      <use xlink:href="#m17a104f8c7" x="307.833656" y="118.522463" style="fill: #ff7a00; stroke: #ff7a00; stroke-width: 1.5"/>
     </g>
    </g>
    <g id="text_22">
     <!-- $\alpha = 4, \delta_e = 10$ -->
     <g transform="translate(325.833656 121.147463) scale(0.1 -0.1)">
      <use xlink:href="#DejaVuSans-Oblique-3b1" transform="translate(0 0.78125)"/>
      <use xlink:href="#DejaVuSans-3d" transform="translate(85.400391 0.78125)"/>
      <use xlink:href="#DejaVuSans-34" transform="translate(188.671875 0.78125)"/>
      <use xlink:href="#DejaVuSans-2c" transform="translate(252.294922 0.78125)"/>
      <use xlink:href="#DejaVuSans-Oblique-3b4" transform="translate(303.564453 0.78125)"/>
      <use xlink:href="#DejaVuSans-Oblique-65" transform="translate(364.746094 -15.625) scale(0.7)"/>
      <use xlink:href="#DejaVuSans-3d" transform="translate(430.029297 0.78125)"/>
      <use xlink:href="#DejaVuSans-31" transform="translate(533.300781 0.78125)"/>
      <use xlink:href="#DejaVuSans-30" transform="translate(596.923828 0.78125)"/>
     </g>
    </g>
    <g id="PathCollection_19">
     <g>
      <use xlink:href="#m2a83245142" x="307.833656" y="133.200587" style="fill: #ff1300; stroke: #ff1300; stroke-width: 1.5"/>
     </g>
    </g>
    <g id="text_23">
     <!-- $\alpha = 7, \delta_e = -10$ -->
     <g transform="translate(325.833656 135.825587) scale(0.1 -0.1)">
      <defs>
       <path id="DejaVuSans-37" d="M 525 4666 
L 3525 4666 
L 3525 4397 
L 1831 0 
L 1172 0 
L 2766 4134 
L 525 4134 
L 525 4666 
z
" transform="scale(0.015625)"/>
      </defs>
      <use xlink:href="#DejaVuSans-Oblique-3b1" transform="translate(0 0.78125)"/>
      <use xlink:href="#DejaVuSans-3d" transform="translate(85.400391 0.78125)"/>
      <use xlink:href="#DejaVuSans-37" transform="translate(188.671875 0.78125)"/>
      <use xlink:href="#DejaVuSans-2c" transform="translate(252.294922 0.78125)"/>
      <use xlink:href="#DejaVuSans-Oblique-3b4" transform="translate(303.564453 0.78125)"/>
      <use xlink:href="#DejaVuSans-Oblique-65" transform="translate(364.746094 -15.625) scale(0.7)"/>
      <use xlink:href="#DejaVuSans-3d" transform="translate(430.029297 0.78125)"/>
      <use xlink:href="#DejaVuSans-2212" transform="translate(552.783203 0.78125)"/>
      <use xlink:href="#DejaVuSans-31" transform="translate(656.054688 0.78125)"/>
      <use xlink:href="#DejaVuSans-30" transform="translate(719.677734 0.78125)"/>
     </g>
    </g>
    <g id="PathCollection_20">
     <g>
      <use xlink:href="#mf3cec371f1" x="307.833656" y="147.878712" style="fill: #800000; stroke: #800000; stroke-width: 1.5"/>
     </g>
    </g>
    <g id="text_24">
     <!-- $\alpha = 7, \delta_e = 10$ -->
     <g transform="translate(325.833656 150.503712) scale(0.1 -0.1)">
      <use xlink:href="#DejaVuSans-Oblique-3b1" transform="translate(0 0.78125)"/>
      <use xlink:href="#DejaVuSans-3d" transform="translate(85.400391 0.78125)"/>
      <use xlink:href="#DejaVuSans-37" transform="translate(188.671875 0.78125)"/>
      <use xlink:href="#DejaVuSans-2c" transform="translate(252.294922 0.78125)"/>
      <use xlink:href="#DejaVuSans-Oblique-3b4" transform="translate(303.564453 0.78125)"/>
      <use xlink:href="#DejaVuSans-Oblique-65" transform="translate(364.746094 -15.625) scale(0.7)"/>
      <use xlink:href="#DejaVuSans-3d" transform="translate(430.029297 0.78125)"/>
      <use xlink:href="#DejaVuSans-31" transform="translate(533.300781 0.78125)"/>
      <use xlink:href="#DejaVuSans-30" transform="translate(596.923828 0.78125)"/>
     </g>
    </g>
   </g>
  </g>
 </g>
 <defs>
  <clipPath id="p98724cd038">
   <rect x="77.798" y="28.876" width="211.035656" height="139.692"/>
  </clipPath>
 </defs>
</svg>
