<?xml version="1.0" encoding="utf-8" standalone="no"?>
<!DOCTYPE svg PUBLIC "-//W3C//DTD SVG 1.1//EN"
  "http://www.w3.org/Graphics/SVG/1.1/DTD/svg11.dtd">
<svg xmlns:xlink="http://www.w3.org/1999/xlink" width="432pt" height="216pt" viewBox="0 0 432 216" xmlns="http://www.w3.org/2000/svg" version="1.1">
 <metadata>
  <rdf:RDF xmlns:dc="http://purl.org/dc/elements/1.1/" xmlns:cc="http://creativecommons.org/ns#" xmlns:rdf="http://www.w3.org/1999/02/22-rdf-syntax-ns#">
   <cc:Work>
    <dc:type rdf:resource="http://purl.org/dc/dcmitype/StillImage"/>
    <dc:date>2025-03-28T12:13:07.027382</dc:date>
    <dc:format>image/svg+xml</dc:format>
    <dc:creator>
     <cc:Agent>
      <dc:title>Matplotlib v3.9.2, https://matplotlib.org/</dc:title>
     </cc:Agent>
    </dc:creator>
   </cc:Work>
  </rdf:RDF>
 </metadata>
 <defs>
  <style type="text/css">*{stroke-linejoin: round; stroke-linecap: butt}</style>
 </defs>
 <g id="figure_1">
  <g id="patch_1">
   <path d="M 0 216 
L 432 216 
L 432 0 
L 0 0 
z
" style="fill: #ffffff"/>
  </g>
  <g id="axes_1">
   <g id="patch_2">
    <path d="M 84.188 174.04 
L 306.255247 174.04 
L 306.255247 10.8 
L 84.188 10.8 
z
" style="fill: #ffffff"/>
   </g>
   <g id="matplotlib.axis_1">
    <g id="xtick_1">
     <g id="line2d_1">
      <path d="M 94.281966 174.04 
L 94.281966 10.8 
" clip-path="url(#p32e08d58c3)" style="fill: none; stroke: #b0b0b0; stroke-width: 0.8; stroke-linecap: square"/>
     </g>
     <g id="line2d_2">
      <defs>
       <path id="m7359b506d0" d="M 0 0 
L 0 3.5 
" style="stroke: #000000; stroke-width: 0.8"/>
      </defs>
      <g>
       <use xlink:href="#m7359b506d0" x="94.281966" y="174.04" style="stroke: #000000; stroke-width: 0.8"/>
      </g>
     </g>
     <g id="text_1">
      <!-- −4 -->
      <g transform="translate(86.910872 188.638438) scale(0.1 -0.1)">
       <defs>
        <path id="DejaVuSans-2212" d="M 678 2272 
L 4684 2272 
L 4684 1741 
L 678 1741 
L 678 2272 
z
" transform="scale(0.015625)"/>
        <path id="DejaVuSans-34" d="M 2419 4116 
L 825 1625 
L 2419 1625 
L 2419 4116 
z
M 2253 4666 
L 3047 4666 
L 3047 1625 
L 3713 1625 
L 3713 1100 
L 3047 1100 
L 3047 0 
L 2419 0 
L 2419 1100 
L 313 1100 
L 313 1709 
L 2253 4666 
z
" transform="scale(0.015625)"/>
       </defs>
       <use xlink:href="#DejaVuSans-2212"/>
       <use xlink:href="#DejaVuSans-34" x="83.789062"/>
      </g>
     </g>
    </g>
    <g id="xtick_2">
     <g id="line2d_3">
      <path d="M 130.987296 174.04 
L 130.987296 10.8 
" clip-path="url(#p32e08d58c3)" style="fill: none; stroke: #b0b0b0; stroke-width: 0.8; stroke-linecap: square"/>
     </g>
     <g id="line2d_4">
      <g>
       <use xlink:href="#m7359b506d0" x="130.987296" y="174.04" style="stroke: #000000; stroke-width: 0.8"/>
      </g>
     </g>
     <g id="text_2">
      <!-- −2 -->
      <g transform="translate(123.616202 188.638438) scale(0.1 -0.1)">
       <defs>
        <path id="DejaVuSans-32" d="M 1228 531 
L 3431 531 
L 3431 0 
L 469 0 
L 469 531 
Q 828 903 1448 1529 
Q 2069 2156 2228 2338 
Q 2531 2678 2651 2914 
Q 2772 3150 2772 3378 
Q 2772 3750 2511 3984 
Q 2250 4219 1831 4219 
Q 1534 4219 1204 4116 
Q 875 4013 500 3803 
L 500 4441 
Q 881 4594 1212 4672 
Q 1544 4750 1819 4750 
Q 2544 4750 2975 4387 
Q 3406 4025 3406 3419 
Q 3406 3131 3298 2873 
Q 3191 2616 2906 2266 
Q 2828 2175 2409 1742 
Q 1991 1309 1228 531 
z
" transform="scale(0.015625)"/>
       </defs>
       <use xlink:href="#DejaVuSans-2212"/>
       <use xlink:href="#DejaVuSans-32" x="83.789062"/>
      </g>
     </g>
    </g>
    <g id="xtick_3">
     <g id="line2d_5">
      <path d="M 167.692626 174.04 
L 167.692626 10.8 
" clip-path="url(#p32e08d58c3)" style="fill: none; stroke: #b0b0b0; stroke-width: 0.8; stroke-linecap: square"/>
     </g>
     <g id="line2d_6">
      <g>
       <use xlink:href="#m7359b506d0" x="167.692626" y="174.04" style="stroke: #000000; stroke-width: 0.8"/>
      </g>
     </g>
     <g id="text_3">
      <!-- 0 -->
      <g transform="translate(164.511376 188.638438) scale(0.1 -0.1)">
       <defs>
        <path id="DejaVuSans-30" d="M 2034 4250 
Q 1547 4250 1301 3770 
Q 1056 3291 1056 2328 
Q 1056 1369 1301 889 
Q 1547 409 2034 409 
Q 2525 409 2770 889 
Q 3016 1369 3016 2328 
Q 3016 3291 2770 3770 
Q 2525 4250 2034 4250 
z
M 2034 4750 
Q 2819 4750 3233 4129 
Q 3647 3509 3647 2328 
Q 3647 1150 3233 529 
Q 2819 -91 2034 -91 
Q 1250 -91 836 529 
Q 422 1150 422 2328 
Q 422 3509 836 4129 
Q 1250 4750 2034 4750 
z
" transform="scale(0.015625)"/>
       </defs>
       <use xlink:href="#DejaVuSans-30"/>
      </g>
     </g>
    </g>
    <g id="xtick_4">
     <g id="line2d_7">
      <path d="M 204.397956 174.04 
L 204.397956 10.8 
" clip-path="url(#p32e08d58c3)" style="fill: none; stroke: #b0b0b0; stroke-width: 0.8; stroke-linecap: square"/>
     </g>
     <g id="line2d_8">
      <g>
       <use xlink:href="#m7359b506d0" x="204.397956" y="174.04" style="stroke: #000000; stroke-width: 0.8"/>
      </g>
     </g>
     <g id="text_4">
      <!-- 2 -->
      <g transform="translate(201.216706 188.638438) scale(0.1 -0.1)">
       <use xlink:href="#DejaVuSans-32"/>
      </g>
     </g>
    </g>
    <g id="xtick_5">
     <g id="line2d_9">
      <path d="M 241.103286 174.04 
L 241.103286 10.8 
" clip-path="url(#p32e08d58c3)" style="fill: none; stroke: #b0b0b0; stroke-width: 0.8; stroke-linecap: square"/>
     </g>
     <g id="line2d_10">
      <g>
       <use xlink:href="#m7359b506d0" x="241.103286" y="174.04" style="stroke: #000000; stroke-width: 0.8"/>
      </g>
     </g>
     <g id="text_5">
      <!-- 4 -->
      <g transform="translate(237.922036 188.638438) scale(0.1 -0.1)">
       <use xlink:href="#DejaVuSans-34"/>
      </g>
     </g>
    </g>
    <g id="xtick_6">
     <g id="line2d_11">
      <path d="M 277.808617 174.04 
L 277.808617 10.8 
" clip-path="url(#p32e08d58c3)" style="fill: none; stroke: #b0b0b0; stroke-width: 0.8; stroke-linecap: square"/>
     </g>
     <g id="line2d_12">
      <g>
       <use xlink:href="#m7359b506d0" x="277.808617" y="174.04" style="stroke: #000000; stroke-width: 0.8"/>
      </g>
     </g>
     <g id="text_6">
      <!-- 6 -->
      <g transform="translate(274.627367 188.638438) scale(0.1 -0.1)">
       <defs>
        <path id="DejaVuSans-36" d="M 2113 2584 
Q 1688 2584 1439 2293 
Q 1191 2003 1191 1497 
Q 1191 994 1439 701 
Q 1688 409 2113 409 
Q 2538 409 2786 701 
Q 3034 994 3034 1497 
Q 3034 2003 2786 2293 
Q 2538 2584 2113 2584 
z
M 3366 4563 
L 3366 3988 
Q 3128 4100 2886 4159 
Q 2644 4219 2406 4219 
Q 1781 4219 1451 3797 
Q 1122 3375 1075 2522 
Q 1259 2794 1537 2939 
Q 1816 3084 2150 3084 
Q 2853 3084 3261 2657 
Q 3669 2231 3669 1497 
Q 3669 778 3244 343 
Q 2819 -91 2113 -91 
Q 1303 -91 875 529 
Q 447 1150 447 2328 
Q 447 3434 972 4092 
Q 1497 4750 2381 4750 
Q 2619 4750 2861 4703 
Q 3103 4656 3366 4563 
z
" transform="scale(0.015625)"/>
       </defs>
       <use xlink:href="#DejaVuSans-36"/>
      </g>
     </g>
    </g>
    <g id="text_7">
     <!-- $\alpha$ -->
     <g transform="translate(191.921624 202.316563) scale(0.1 -0.1)">
      <defs>
       <path id="DejaVuSans-Oblique-3b1" d="M 2619 1628 
L 2622 2350 
Q 2625 3088 2069 3091 
Q 1653 3094 1394 2747 
Q 1069 2319 959 1747 
Q 825 1059 994 731 
Q 1169 397 1547 397 
Q 1966 397 2319 1063 
L 2619 1628 
z
M 2166 3578 
Q 3141 3594 3128 2584 
Q 3128 2584 3616 3500 
L 4128 3500 
L 3119 1603 
L 3109 919 
Q 3109 766 3194 638 
Q 3291 488 3391 488 
L 3669 488 
L 3575 0 
L 3228 0 
Q 2934 0 2722 263 
Q 2622 394 2619 669 
Q 2416 334 2066 50 
Q 1900 -81 1453 -78 
Q 722 -72 456 397 
Q 184 884 353 1747 
Q 534 2675 1009 3097 
Q 1544 3569 2166 3578 
z
" transform="scale(0.015625)"/>
      </defs>
      <use xlink:href="#DejaVuSans-Oblique-3b1" transform="translate(0 0.84375)"/>
     </g>
    </g>
   </g>
   <g id="matplotlib.axis_2">
    <g id="ytick_1">
     <g id="line2d_13">
      <path d="M 84.188 173.66098 
L 306.255247 173.66098 
" clip-path="url(#p32e08d58c3)" style="fill: none; stroke: #b0b0b0; stroke-width: 0.8; stroke-linecap: square"/>
     </g>
     <g id="line2d_14">
      <defs>
       <path id="m241308a950" d="M 0 0 
L -3.5 0 
" style="stroke: #000000; stroke-width: 0.8"/>
      </defs>
      <g>
       <use xlink:href="#m241308a950" x="84.188" y="173.66098" style="stroke: #000000; stroke-width: 0.8"/>
      </g>
     </g>
     <g id="text_8">
      <!-- −0.00020 -->
      <g transform="translate(27.455188 177.460199) scale(0.1 -0.1)">
       <defs>
        <path id="DejaVuSans-2e" d="M 684 794 
L 1344 794 
L 1344 0 
L 684 0 
L 684 794 
z
" transform="scale(0.015625)"/>
       </defs>
       <use xlink:href="#DejaVuSans-2212"/>
       <use xlink:href="#DejaVuSans-30" x="83.789062"/>
       <use xlink:href="#DejaVuSans-2e" x="147.412109"/>
       <use xlink:href="#DejaVuSans-30" x="179.199219"/>
       <use xlink:href="#DejaVuSans-30" x="242.822266"/>
       <use xlink:href="#DejaVuSans-30" x="306.445312"/>
       <use xlink:href="#DejaVuSans-32" x="370.068359"/>
       <use xlink:href="#DejaVuSans-30" x="433.691406"/>
      </g>
     </g>
    </g>
    <g id="ytick_2">
     <g id="line2d_15">
      <path d="M 84.188 140.982981 
L 306.255247 140.982981 
" clip-path="url(#p32e08d58c3)" style="fill: none; stroke: #b0b0b0; stroke-width: 0.8; stroke-linecap: square"/>
     </g>
     <g id="line2d_16">
      <g>
       <use xlink:href="#m241308a950" x="84.188" y="140.982981" style="stroke: #000000; stroke-width: 0.8"/>
      </g>
     </g>
     <g id="text_9">
      <!-- −0.00015 -->
      <g transform="translate(27.455188 144.7822) scale(0.1 -0.1)">
       <defs>
        <path id="DejaVuSans-31" d="M 794 531 
L 1825 531 
L 1825 4091 
L 703 3866 
L 703 4441 
L 1819 4666 
L 2450 4666 
L 2450 531 
L 3481 531 
L 3481 0 
L 794 0 
L 794 531 
z
" transform="scale(0.015625)"/>
        <path id="DejaVuSans-35" d="M 691 4666 
L 3169 4666 
L 3169 4134 
L 1269 4134 
L 1269 2991 
Q 1406 3038 1543 3061 
Q 1681 3084 1819 3084 
Q 2600 3084 3056 2656 
Q 3513 2228 3513 1497 
Q 3513 744 3044 326 
Q 2575 -91 1722 -91 
Q 1428 -91 1123 -41 
Q 819 9 494 109 
L 494 744 
Q 775 591 1075 516 
Q 1375 441 1709 441 
Q 2250 441 2565 725 
Q 2881 1009 2881 1497 
Q 2881 1984 2565 2268 
Q 2250 2553 1709 2553 
Q 1456 2553 1204 2497 
Q 953 2441 691 2322 
L 691 4666 
z
" transform="scale(0.015625)"/>
       </defs>
       <use xlink:href="#DejaVuSans-2212"/>
       <use xlink:href="#DejaVuSans-30" x="83.789062"/>
       <use xlink:href="#DejaVuSans-2e" x="147.412109"/>
       <use xlink:href="#DejaVuSans-30" x="179.199219"/>
       <use xlink:href="#DejaVuSans-30" x="242.822266"/>
       <use xlink:href="#DejaVuSans-30" x="306.445312"/>
       <use xlink:href="#DejaVuSans-31" x="370.068359"/>
       <use xlink:href="#DejaVuSans-35" x="433.691406"/>
      </g>
     </g>
    </g>
    <g id="ytick_3">
     <g id="line2d_17">
      <path d="M 84.188 108.304982 
L 306.255247 108.304982 
" clip-path="url(#p32e08d58c3)" style="fill: none; stroke: #b0b0b0; stroke-width: 0.8; stroke-linecap: square"/>
     </g>
     <g id="line2d_18">
      <g>
       <use xlink:href="#m241308a950" x="84.188" y="108.304982" style="stroke: #000000; stroke-width: 0.8"/>
      </g>
     </g>
     <g id="text_10">
      <!-- −0.00010 -->
      <g transform="translate(27.455188 112.1042) scale(0.1 -0.1)">
       <use xlink:href="#DejaVuSans-2212"/>
       <use xlink:href="#DejaVuSans-30" x="83.789062"/>
       <use xlink:href="#DejaVuSans-2e" x="147.412109"/>
       <use xlink:href="#DejaVuSans-30" x="179.199219"/>
       <use xlink:href="#DejaVuSans-30" x="242.822266"/>
       <use xlink:href="#DejaVuSans-30" x="306.445312"/>
       <use xlink:href="#DejaVuSans-31" x="370.068359"/>
       <use xlink:href="#DejaVuSans-30" x="433.691406"/>
      </g>
     </g>
    </g>
    <g id="ytick_4">
     <g id="line2d_19">
      <path d="M 84.188 75.626982 
L 306.255247 75.626982 
" clip-path="url(#p32e08d58c3)" style="fill: none; stroke: #b0b0b0; stroke-width: 0.8; stroke-linecap: square"/>
     </g>
     <g id="line2d_20">
      <g>
       <use xlink:href="#m241308a950" x="84.188" y="75.626982" style="stroke: #000000; stroke-width: 0.8"/>
      </g>
     </g>
     <g id="text_11">
      <!-- −0.00005 -->
      <g transform="translate(27.455188 79.426201) scale(0.1 -0.1)">
       <use xlink:href="#DejaVuSans-2212"/>
       <use xlink:href="#DejaVuSans-30" x="83.789062"/>
       <use xlink:href="#DejaVuSans-2e" x="147.412109"/>
       <use xlink:href="#DejaVuSans-30" x="179.199219"/>
       <use xlink:href="#DejaVuSans-30" x="242.822266"/>
       <use xlink:href="#DejaVuSans-30" x="306.445312"/>
       <use xlink:href="#DejaVuSans-30" x="370.068359"/>
       <use xlink:href="#DejaVuSans-35" x="433.691406"/>
      </g>
     </g>
    </g>
    <g id="ytick_5">
     <g id="line2d_21">
      <path d="M 84.188 42.948983 
L 306.255247 42.948983 
" clip-path="url(#p32e08d58c3)" style="fill: none; stroke: #b0b0b0; stroke-width: 0.8; stroke-linecap: square"/>
     </g>
     <g id="line2d_22">
      <g>
       <use xlink:href="#m241308a950" x="84.188" y="42.948983" style="stroke: #000000; stroke-width: 0.8"/>
      </g>
     </g>
     <g id="text_12">
      <!-- 0.00000 -->
      <g transform="translate(35.834875 46.748202) scale(0.1 -0.1)">
       <use xlink:href="#DejaVuSans-30"/>
       <use xlink:href="#DejaVuSans-2e" x="63.623047"/>
       <use xlink:href="#DejaVuSans-30" x="95.410156"/>
       <use xlink:href="#DejaVuSans-30" x="159.033203"/>
       <use xlink:href="#DejaVuSans-30" x="222.65625"/>
       <use xlink:href="#DejaVuSans-30" x="286.279297"/>
       <use xlink:href="#DejaVuSans-30" x="349.902344"/>
      </g>
     </g>
    </g>
    <g id="text_13">
     <!-- d$C_D$ / d$\delta_e$ -->
     <g transform="translate(21.3755 115.32) rotate(-90) scale(0.1 -0.1)">
      <defs>
       <path id="DejaVuSans-64" d="M 2906 2969 
L 2906 4863 
L 3481 4863 
L 3481 0 
L 2906 0 
L 2906 525 
Q 2725 213 2448 61 
Q 2172 -91 1784 -91 
Q 1150 -91 751 415 
Q 353 922 353 1747 
Q 353 2572 751 3078 
Q 1150 3584 1784 3584 
Q 2172 3584 2448 3432 
Q 2725 3281 2906 2969 
z
M 947 1747 
Q 947 1113 1208 752 
Q 1469 391 1925 391 
Q 2381 391 2643 752 
Q 2906 1113 2906 1747 
Q 2906 2381 2643 2742 
Q 2381 3103 1925 3103 
Q 1469 3103 1208 2742 
Q 947 2381 947 1747 
z
" transform="scale(0.015625)"/>
       <path id="DejaVuSans-Oblique-43" d="M 4447 4306 
L 4319 3641 
Q 4019 3944 3683 4091 
Q 3347 4238 2956 4238 
Q 2422 4238 2017 3981 
Q 1613 3725 1319 3200 
Q 1131 2863 1032 2486 
Q 934 2109 934 1728 
Q 934 1091 1264 756 
Q 1594 422 2222 422 
Q 2656 422 3056 561 
Q 3456 700 3834 978 
L 3688 231 
Q 3316 72 2936 -9 
Q 2556 -91 2175 -91 
Q 1278 -91 773 396 
Q 269 884 269 1753 
Q 269 2309 461 2846 
Q 653 3384 1013 3828 
Q 1394 4300 1883 4525 
Q 2372 4750 3022 4750 
Q 3422 4750 3780 4639 
Q 4138 4528 4447 4306 
z
" transform="scale(0.015625)"/>
       <path id="DejaVuSans-Oblique-44" d="M 1081 4666 
L 2438 4666 
Q 3519 4666 4070 4208 
Q 4622 3750 4622 2847 
Q 4622 2250 4412 1698 
Q 4203 1147 3834 769 
Q 3463 381 2891 190 
Q 2319 0 1538 0 
L 172 0 
L 1081 4666 
z
M 1613 4147 
L 909 519 
L 1734 519 
Q 2794 519 3375 1128 
Q 3956 1738 3956 2847 
Q 3956 3519 3581 3833 
Q 3206 4147 2406 4147 
L 1613 4147 
z
" transform="scale(0.015625)"/>
       <path id="DejaVuSans-20" transform="scale(0.015625)"/>
       <path id="DejaVuSans-2f" d="M 1625 4666 
L 2156 4666 
L 531 -594 
L 0 -594 
L 1625 4666 
z
" transform="scale(0.015625)"/>
       <path id="DejaVuSans-Oblique-3b4" d="M 3472 4053 
Q 3197 4272 2450 4272 
Q 1659 4272 1588 3906 
Q 1531 3619 2328 3469 
Q 2953 3353 3253 3003 
Q 3616 2581 3447 1716 
Q 3284 888 2763 400 
Q 2238 -91 1488 -91 
Q 741 -91 406 400 
Q 72 888 241 1747 
Q 363 2384 891 2900 
Q 1097 3100 1353 3213 
Q 913 3459 1000 3900 
Q 1166 4750 2544 4750 
Q 3234 4750 3566 4531 
L 3472 4053 
z
M 1753 3056 
Q 1525 2966 1306 2738 
Q 969 2384 847 1747 
Q 722 1113 919 756 
Q 1119 397 1584 397 
Q 2044 397 2381 759 
Q 2722 1122 2838 1716 
Q 2956 2338 2731 2638 
Q 2491 2959 2103 2994 
Q 1906 3013 1753 3056 
z
" transform="scale(0.015625)"/>
       <path id="DejaVuSans-Oblique-65" d="M 3078 2063 
Q 3088 2113 3092 2166 
Q 3097 2219 3097 2272 
Q 3097 2653 2873 2875 
Q 2650 3097 2266 3097 
Q 1838 3097 1509 2826 
Q 1181 2556 1013 2059 
L 3078 2063 
z
M 3578 1613 
L 903 1613 
Q 884 1494 878 1425 
Q 872 1356 872 1306 
Q 872 872 1139 634 
Q 1406 397 1894 397 
Q 2269 397 2603 481 
Q 2938 566 3225 728 
L 3116 159 
Q 2806 34 2476 -28 
Q 2147 -91 1806 -91 
Q 1078 -91 686 257 
Q 294 606 294 1247 
Q 294 1794 489 2264 
Q 684 2734 1063 3103 
Q 1306 3334 1642 3459 
Q 1978 3584 2356 3584 
Q 2950 3584 3301 3228 
Q 3653 2872 3653 2272 
Q 3653 2128 3634 1964 
Q 3616 1800 3578 1613 
z
" transform="scale(0.015625)"/>
      </defs>
      <use xlink:href="#DejaVuSans-64" transform="translate(0 0.015625)"/>
      <use xlink:href="#DejaVuSans-Oblique-43" transform="translate(63.476562 0.015625)"/>
      <use xlink:href="#DejaVuSans-Oblique-44" transform="translate(133.300781 -16.390625) scale(0.7)"/>
      <use xlink:href="#DejaVuSans-20" transform="translate(189.936523 0.015625)"/>
      <use xlink:href="#DejaVuSans-2f" transform="translate(221.723633 0.015625)"/>
      <use xlink:href="#DejaVuSans-20" transform="translate(255.415039 0.015625)"/>
      <use xlink:href="#DejaVuSans-64" transform="translate(287.202148 0.015625)"/>
      <use xlink:href="#DejaVuSans-Oblique-3b4" transform="translate(350.678711 0.015625)"/>
      <use xlink:href="#DejaVuSans-Oblique-65" transform="translate(411.860352 -16.390625) scale(0.7)"/>
     </g>
    </g>
   </g>
   <g id="line2d_23">
    <path d="M 94.281966 91.170821 
L 96.321151 88.741246 
L 98.360336 86.358918 
L 100.399521 84.023838 
L 102.438706 81.736006 
L 104.477891 79.495422 
L 106.517076 77.302087 
L 108.556261 75.155999 
L 110.595446 73.05716 
L 112.634631 71.005568 
L 114.673816 69.001225 
L 116.713001 67.044129 
L 118.752186 65.134282 
L 120.791371 63.271683 
L 122.830556 61.456332 
L 124.869741 59.688229 
L 126.908926 57.967374 
L 128.948111 56.293767 
L 130.987296 54.667408 
L 133.026481 53.088297 
L 135.065666 51.556434 
L 137.104851 50.071819 
L 139.144036 48.634453 
L 141.183221 47.244334 
L 143.222406 45.901464 
L 145.261591 44.605841 
L 147.300776 43.357467 
L 149.339961 42.15634 
L 151.379146 41.002462 
L 153.418331 39.895832 
L 155.457516 38.83645 
L 157.496701 37.824315 
L 159.535886 36.859429 
L 161.575071 35.941791 
L 163.614256 35.071401 
L 165.653441 34.24826 
L 167.692626 33.472366 
L 169.731811 32.74372 
L 171.770996 32.062322 
L 173.810181 31.428173 
L 175.849366 30.841271 
L 177.888551 30.301617 
L 179.927736 29.809212 
L 181.966921 29.364055 
L 184.006106 28.966145 
L 186.045291 28.615484 
L 188.084476 28.312071 
L 190.123661 28.055906 
L 192.162846 27.846989 
L 194.202031 27.685319 
L 196.241216 27.570898 
L 198.280401 27.503726 
L 200.319586 27.483801 
L 202.358771 27.511124 
L 204.397956 27.585695 
L 206.437141 27.707515 
L 208.476326 27.876582 
L 210.515511 28.092897 
L 212.554696 28.356461 
L 214.593881 28.667272 
L 216.633066 29.025332 
L 218.672251 29.43064 
L 220.711436 29.883195 
L 222.750621 30.382999 
L 224.789806 30.930051 
L 226.828991 31.524351 
L 228.868176 32.165899 
L 230.907361 32.854695 
L 232.946546 33.590739 
L 234.985731 34.374031 
L 237.024916 35.204572 
L 239.064101 36.08236 
L 241.103286 37.007396 
L 243.142471 37.979681 
L 245.181656 38.999213 
L 247.220841 40.065994 
L 249.260026 41.180022 
L 251.299211 42.341299 
L 253.338396 43.549824 
L 255.377581 44.805596 
L 257.416766 46.108617 
L 259.455951 47.458886 
L 261.495136 48.856403 
L 263.534322 50.301168 
L 265.573507 51.793181 
L 267.612692 53.332442 
L 269.651877 54.918952 
L 271.691062 56.552709 
L 273.730247 58.233714 
L 275.769432 59.961968 
L 277.808617 61.737469 
L 279.847802 63.560218 
L 281.886987 65.430216 
L 283.926172 67.347462 
L 285.965357 69.311955 
L 288.004542 71.323697 
L 290.043727 73.382687 
L 292.082912 75.488925 
L 294.122097 77.642411 
L 296.161282 79.843145 
" clip-path="url(#p32e08d58c3)" style="fill: none; stroke: #000080; stroke-width: 1.5; stroke-linecap: square"/>
   </g>
   <g id="line2d_24">
    <path d="M 94.281966 68.835092 
L 96.321151 68.154635 
L 98.360336 67.484487 
L 100.399521 66.824649 
L 102.438706 66.175121 
L 104.477891 65.535903 
L 106.517076 64.906994 
L 108.556261 64.288395 
L 110.595446 63.680106 
L 112.634631 63.082126 
L 114.673816 62.494456 
L 116.713001 61.917096 
L 118.752186 61.350045 
L 120.791371 60.793305 
L 122.830556 60.246873 
L 124.869741 59.710752 
L 126.908926 59.18494 
L 128.948111 58.669438 
L 130.987296 58.164246 
L 133.026481 57.669363 
L 135.065666 57.184791 
L 137.104851 56.710527 
L 139.144036 56.246574 
L 141.183221 55.79293 
L 143.222406 55.349596 
L 145.261591 54.916572 
L 147.300776 54.493857 
L 149.339961 54.081452 
L 151.379146 53.679357 
L 153.418331 53.287571 
L 155.457516 52.906096 
L 157.496701 52.534929 
L 159.535886 52.174073 
L 161.575071 51.823526 
L 163.614256 51.483289 
L 165.653441 51.153362 
L 167.692626 50.833744 
L 169.731811 50.524436 
L 171.770996 50.225438 
L 173.810181 49.93675 
L 175.849366 49.658371 
L 177.888551 49.390302 
L 179.927736 49.132542 
L 181.966921 48.885093 
L 184.006106 48.647953 
L 186.045291 48.421122 
L 188.084476 48.204602 
L 190.123661 47.998391 
L 192.162846 47.80249 
L 194.202031 47.616898 
L 196.241216 47.441617 
L 198.280401 47.276644 
L 200.319586 47.121982 
L 202.358771 46.977629 
L 204.397956 46.843587 
L 206.437141 46.719853 
L 208.476326 46.60643 
L 210.515511 46.503316 
L 212.554696 46.410512 
L 214.593881 46.328017 
L 216.633066 46.255833 
L 218.672251 46.193958 
L 220.711436 46.142392 
L 222.750621 46.101137 
L 224.789806 46.070191 
L 226.828991 46.049555 
L 228.868176 46.039228 
L 230.907361 46.039211 
L 232.946546 46.049504 
L 234.985731 46.070107 
L 237.024916 46.101019 
L 239.064101 46.142241 
L 241.103286 46.193773 
L 243.142471 46.255614 
L 245.181656 46.327765 
L 247.220841 46.410226 
L 249.260026 46.502997 
L 251.299211 46.606077 
L 253.338396 46.719467 
L 255.377581 46.843167 
L 257.416766 46.977176 
L 259.455951 47.121495 
L 261.495136 47.276124 
L 263.534322 47.441062 
L 265.573507 47.616311 
L 267.612692 47.801868 
L 269.651877 47.997736 
L 271.691062 48.203913 
L 273.730247 48.4204 
L 275.769432 48.647197 
L 277.808617 48.884303 
L 279.847802 49.131719 
L 281.886987 49.389445 
L 283.926172 49.657481 
L 285.965357 49.935826 
L 288.004542 50.224481 
L 290.043727 50.523446 
L 292.082912 50.83272 
L 294.122097 51.152304 
L 296.161282 51.482198 
" clip-path="url(#p32e08d58c3)" style="fill: none; stroke: #0080ff; stroke-width: 1.5; stroke-linecap: square"/>
   </g>
   <g id="line2d_25">
    <path d="M 94.281966 62.665284 
L 96.321151 62.340772 
L 98.360336 62.02161 
L 100.399521 61.707798 
L 102.438706 61.399337 
L 104.477891 61.096225 
L 106.517076 60.798463 
L 108.556261 60.506051 
L 110.595446 60.218989 
L 112.634631 59.937276 
L 114.673816 59.660914 
L 116.713001 59.389902 
L 118.752186 59.12424 
L 120.791371 58.863928 
L 122.830556 58.608966 
L 124.869741 58.359354 
L 126.908926 58.115091 
L 128.948111 57.876179 
L 130.987296 57.642617 
L 133.026481 57.414405 
L 135.065666 57.191542 
L 137.104851 56.97403 
L 139.144036 56.761868 
L 141.183221 56.555056 
L 143.222406 56.353593 
L 145.261591 56.157481 
L 147.300776 55.966718 
L 149.339961 55.781306 
L 151.379146 55.601243 
L 153.418331 55.426531 
L 155.457516 55.257169 
L 157.496701 55.093156 
L 159.535886 54.934494 
L 161.575071 54.781181 
L 163.614256 54.633218 
L 165.653441 54.490606 
L 167.692626 54.353343 
L 169.731811 54.221431 
L 171.770996 54.094868 
L 173.810181 53.973655 
L 175.849366 53.857793 
L 177.888551 53.74728 
L 179.927736 53.642117 
L 181.966921 53.542304 
L 184.006106 53.447842 
L 186.045291 53.358729 
L 188.084476 53.274966 
L 190.123661 53.196553 
L 192.162846 53.12349 
L 194.202031 53.055777 
L 196.241216 52.993415 
L 198.280401 52.936402 
L 200.319586 52.884739 
L 202.358771 52.838426 
L 204.397956 52.797463 
L 206.437141 52.76185 
L 208.476326 52.731587 
L 210.515511 52.706674 
L 212.554696 52.687111 
L 214.593881 52.672898 
L 216.633066 52.664035 
L 218.672251 52.660521 
L 220.711436 52.662358 
L 222.750621 52.669545 
L 224.789806 52.682082 
L 226.828991 52.699969 
L 228.868176 52.723205 
L 230.907361 52.751792 
L 232.946546 52.785729 
L 234.985731 52.825016 
L 237.024916 52.869652 
L 239.064101 52.919639 
L 241.103286 52.974976 
L 243.142471 53.035662 
L 245.181656 53.101699 
L 247.220841 53.173086 
L 249.260026 53.249822 
L 251.299211 53.331909 
L 253.338396 53.419345 
L 255.377581 53.512132 
L 257.416766 53.610268 
L 259.455951 53.713755 
L 261.495136 53.822591 
L 263.534322 53.936778 
L 265.573507 54.056314 
L 267.612692 54.1812 
L 269.651877 54.311437 
L 271.691062 54.447023 
L 273.730247 54.58796 
L 275.769432 54.734246 
L 277.808617 54.885882 
L 279.847802 55.042868 
L 281.886987 55.205205 
L 283.926172 55.372891 
L 285.965357 55.545927 
L 288.004542 55.724313 
L 290.043727 55.908049 
L 292.082912 56.097136 
L 294.122097 56.291572 
L 296.161282 56.491358 
" clip-path="url(#p32e08d58c3)" style="fill: none; stroke: #7dff7a; stroke-width: 1.5; stroke-linecap: square"/>
   </g>
   <g id="line2d_26">
    <path d="M 94.281966 72.661398 
L 96.321151 71.299658 
L 98.360336 69.970287 
L 100.399521 68.673285 
L 102.438706 67.408652 
L 104.477891 66.176388 
L 106.517076 64.976492 
L 108.556261 63.808966 
L 110.595446 62.673808 
L 112.634631 61.57102 
L 114.673816 60.5006 
L 116.713001 59.462549 
L 118.752186 58.456867 
L 120.791371 57.483553 
L 122.830556 56.542609 
L 124.869741 55.634034 
L 126.908926 54.757827 
L 128.948111 53.913989 
L 130.987296 53.102521 
L 133.026481 52.323421 
L 135.065666 51.57669 
L 137.104851 50.862328 
L 139.144036 50.180334 
L 141.183221 49.53071 
L 143.222406 48.913455 
L 145.261591 48.328568 
L 147.300776 47.77605 
L 149.339961 47.255902 
L 151.379146 46.768122 
L 153.418331 46.312711 
L 155.457516 45.889669 
L 157.496701 45.498995 
L 159.535886 45.140691 
L 161.575071 44.814756 
L 163.614256 44.521189 
L 165.653441 44.259991 
L 167.692626 44.031162 
L 169.731811 43.834703 
L 171.770996 43.670612 
L 173.810181 43.538889 
L 175.849366 43.439536 
L 177.888551 43.372552 
L 179.927736 43.337936 
L 181.966921 43.33569 
L 184.006106 43.365812 
L 186.045291 43.428303 
L 188.084476 43.523163 
L 190.123661 43.650392 
L 192.162846 43.80999 
L 194.202031 44.001957 
L 196.241216 44.226293 
L 198.280401 44.482997 
L 200.319586 44.77207 
L 202.358771 45.093513 
L 204.397956 45.447324 
L 206.437141 45.833504 
L 208.476326 46.252053 
L 210.515511 46.702971 
L 212.554696 47.186257 
L 214.593881 47.701913 
L 216.633066 48.249938 
L 218.672251 48.830331 
L 220.711436 49.443093 
L 222.750621 50.088224 
L 224.789806 50.765724 
L 226.828991 51.475593 
L 228.868176 52.217831 
L 230.907361 52.992438 
L 232.946546 53.799414 
L 234.985731 54.638758 
L 237.024916 55.510471 
L 239.064101 56.414554 
L 241.103286 57.351005 
L 243.142471 58.319825 
L 245.181656 59.321014 
L 247.220841 60.354572 
L 249.260026 61.420498 
L 251.299211 62.518794 
L 253.338396 63.649458 
L 255.377581 64.812492 
L 257.416766 66.007894 
L 259.455951 67.235665 
L 261.495136 68.495805 
L 263.534322 69.788314 
L 265.573507 71.113192 
L 267.612692 72.470439 
L 269.651877 73.860054 
L 271.691062 75.282039 
L 273.730247 76.736392 
L 275.769432 78.223114 
L 277.808617 79.742205 
L 279.847802 81.293665 
L 281.886987 82.877494 
L 283.926172 84.493692 
L 285.965357 86.142259 
L 288.004542 87.823194 
L 290.043727 89.536499 
L 292.082912 91.282172 
L 294.122097 93.060214 
L 296.161282 94.870625 
" clip-path="url(#p32e08d58c3)" style="fill: none; stroke: #ff9400; stroke-width: 1.5; stroke-linecap: square"/>
   </g>
   <g id="line2d_27">
    <path d="M 94.281966 98.823434 
L 96.321151 95.031293 
L 98.360336 91.330518 
L 100.399521 87.72111 
L 102.438706 84.203068 
L 104.477891 80.776393 
L 106.517076 77.441084 
L 108.556261 74.197141 
L 110.595446 71.044565 
L 112.634631 67.983355 
L 114.673816 65.013512 
L 116.713001 62.135035 
L 118.752186 59.347925 
L 120.791371 56.652181 
L 122.830556 54.047803 
L 124.869741 51.534792 
L 126.908926 49.113147 
L 128.948111 46.782869 
L 130.987296 44.543957 
L 133.026481 42.396411 
L 135.065666 40.340232 
L 137.104851 38.37542 
L 139.144036 36.501974 
L 141.183221 34.719894 
L 143.222406 33.029181 
L 145.261591 31.429834 
L 147.300776 29.921853 
L 149.339961 28.505239 
L 151.379146 27.179992 
L 153.418331 25.94611 
L 155.457516 24.803596 
L 157.496701 23.752447 
L 159.535886 22.792665 
L 161.575071 21.92425 
L 163.614256 21.147201 
L 165.653441 20.461518 
L 167.692626 19.867202 
L 169.731811 19.364252 
L 171.770996 18.952669 
L 173.810181 18.632452 
L 175.849366 18.403602 
L 177.888551 18.266118 
L 179.927736 18.22 
L 181.966921 18.265249 
L 184.006106 18.401864 
L 186.045291 18.629846 
L 188.084476 18.949194 
L 190.123661 19.359908 
L 192.162846 19.861989 
L 194.202031 20.455437 
L 196.241216 21.14025 
L 198.280401 21.916431 
L 200.319586 22.783977 
L 202.358771 23.74289 
L 204.397956 24.79317 
L 206.437141 25.934816 
L 208.476326 27.167828 
L 210.515511 28.492207 
L 212.554696 29.907952 
L 214.593881 31.415064 
L 216.633066 33.013542 
L 218.672251 34.703386 
L 220.711436 36.484597 
L 222.750621 38.357175 
L 224.789806 40.321118 
L 226.828991 42.376429 
L 228.868176 44.523105 
L 230.907361 46.761148 
L 232.946546 49.090558 
L 234.985731 51.511334 
L 237.024916 54.023476 
L 239.064101 56.626985 
L 241.103286 59.32186 
L 243.142471 62.108102 
L 245.181656 64.98571 
L 247.220841 67.954684 
L 249.260026 71.015025 
L 251.299211 74.166732 
L 253.338396 77.409806 
L 255.377581 80.744246 
L 257.416766 84.170053 
L 259.455951 87.687226 
L 261.495136 91.295766 
L 263.534322 94.995671 
L 265.573507 98.786944 
L 267.612692 102.669583 
L 269.651877 106.643588 
L 271.691062 110.708959 
L 273.730247 114.865697 
L 275.769432 119.113802 
L 277.808617 123.453273 
L 279.847802 127.88411 
L 281.886987 132.406314 
L 283.926172 137.019884 
L 285.965357 141.724821 
L 288.004542 146.521124 
L 290.043727 151.408793 
L 292.082912 156.387829 
L 294.122097 161.458231 
L 296.161282 166.62 
" clip-path="url(#p32e08d58c3)" style="fill: none; stroke: #800000; stroke-width: 1.5; stroke-linecap: square"/>
   </g>
   <g id="patch_3">
    <path d="M 84.188 174.04 
L 84.188 10.8 
" style="fill: none; stroke: #000000; stroke-width: 0.8; stroke-linejoin: miter; stroke-linecap: square"/>
   </g>
   <g id="patch_4">
    <path d="M 306.255247 174.04 
L 306.255247 10.8 
" style="fill: none; stroke: #000000; stroke-width: 0.8; stroke-linejoin: miter; stroke-linecap: square"/>
   </g>
   <g id="patch_5">
    <path d="M 84.188 174.04 
L 306.255247 174.04 
" style="fill: none; stroke: #000000; stroke-width: 0.8; stroke-linejoin: miter; stroke-linecap: square"/>
   </g>
   <g id="patch_6">
    <path d="M 84.188 10.8 
L 306.255247 10.8 
" style="fill: none; stroke: #000000; stroke-width: 0.8; stroke-linejoin: miter; stroke-linecap: square"/>
   </g>
   <g id="legend_1">
    <g id="patch_7">
     <path d="M 315.255247 162.878 
L 420.455247 162.878 
Q 422.455247 162.878 422.455247 160.878 
L 422.455247 88.385812 
Q 422.455247 86.385812 420.455247 86.385812 
L 315.255247 86.385812 
Q 313.255247 86.385812 313.255247 88.385812 
L 313.255247 160.878 
Q 313.255247 162.878 315.255247 162.878 
z
" style="fill: #4d4d4d; opacity: 0.5; stroke: #4d4d4d; stroke-linejoin: miter"/>
    </g>
    <g id="patch_8">
     <path d="M 313.255247 160.878 
L 418.455247 160.878 
Q 420.455247 160.878 420.455247 158.878 
L 420.455247 86.385812 
Q 420.455247 84.385812 418.455247 84.385812 
L 313.255247 84.385812 
Q 311.255247 84.385812 311.255247 86.385812 
L 311.255247 158.878 
Q 311.255247 160.878 313.255247 160.878 
z
" style="fill: #ffffff; stroke: #cccccc; stroke-linejoin: miter"/>
    </g>
    <g id="line2d_28">
     <path d="M 315.255247 92.48425 
L 325.255247 92.48425 
L 335.255247 92.48425 
" style="fill: none; stroke: #000080; stroke-width: 1.5; stroke-linecap: square"/>
    </g>
    <g id="text_14">
     <!-- $\delta_e = 0$, $J = 1.60$ -->
     <g transform="translate(343.255247 95.98425) scale(0.1 -0.1)">
      <defs>
       <path id="DejaVuSans-3d" d="M 678 2906 
L 4684 2906 
L 4684 2381 
L 678 2381 
L 678 2906 
z
M 678 1631 
L 4684 1631 
L 4684 1100 
L 678 1100 
L 678 1631 
z
" transform="scale(0.015625)"/>
       <path id="DejaVuSans-2c" d="M 750 794 
L 1409 794 
L 1409 256 
L 897 -744 
L 494 -744 
L 750 256 
L 750 794 
z
" transform="scale(0.015625)"/>
       <path id="DejaVuSans-Oblique-4a" d="M 1069 4666 
L 1703 4666 
L 856 325 
Q 691 -522 298 -901 
Q -94 -1281 -800 -1281 
L -1050 -1281 
L -947 -750 
L -750 -750 
Q -328 -750 -109 -509 
Q 109 -269 225 325 
L 1069 4666 
z
" transform="scale(0.015625)"/>
      </defs>
      <use xlink:href="#DejaVuSans-Oblique-3b4" transform="translate(0 0.78125)"/>
      <use xlink:href="#DejaVuSans-Oblique-65" transform="translate(61.181641 -15.625) scale(0.7)"/>
      <use xlink:href="#DejaVuSans-3d" transform="translate(126.464844 0.78125)"/>
      <use xlink:href="#DejaVuSans-30" transform="translate(229.736328 0.78125)"/>
      <use xlink:href="#DejaVuSans-2c" transform="translate(293.359375 0.78125)"/>
      <use xlink:href="#DejaVuSans-20" transform="translate(325.146484 0.78125)"/>
      <use xlink:href="#DejaVuSans-Oblique-4a" transform="translate(356.933594 0.78125)"/>
      <use xlink:href="#DejaVuSans-3d" transform="translate(405.908203 0.78125)"/>
      <use xlink:href="#DejaVuSans-31" transform="translate(509.179688 0.78125)"/>
      <use xlink:href="#DejaVuSans-2e" transform="translate(572.802734 0.78125)"/>
      <use xlink:href="#DejaVuSans-36" transform="translate(604.589844 0.78125)"/>
      <use xlink:href="#DejaVuSans-30" transform="translate(668.212891 0.78125)"/>
     </g>
    </g>
    <g id="line2d_29">
     <path d="M 315.255247 107.182688 
L 325.255247 107.182688 
L 335.255247 107.182688 
" style="fill: none; stroke: #0080ff; stroke-width: 1.5; stroke-linecap: square"/>
    </g>
    <g id="text_15">
     <!-- $\delta_e = 0$, $J = 1.80$ -->
     <g transform="translate(343.255247 110.682688) scale(0.1 -0.1)">
      <defs>
       <path id="DejaVuSans-38" d="M 2034 2216 
Q 1584 2216 1326 1975 
Q 1069 1734 1069 1313 
Q 1069 891 1326 650 
Q 1584 409 2034 409 
Q 2484 409 2743 651 
Q 3003 894 3003 1313 
Q 3003 1734 2745 1975 
Q 2488 2216 2034 2216 
z
M 1403 2484 
Q 997 2584 770 2862 
Q 544 3141 544 3541 
Q 544 4100 942 4425 
Q 1341 4750 2034 4750 
Q 2731 4750 3128 4425 
Q 3525 4100 3525 3541 
Q 3525 3141 3298 2862 
Q 3072 2584 2669 2484 
Q 3125 2378 3379 2068 
Q 3634 1759 3634 1313 
Q 3634 634 3220 271 
Q 2806 -91 2034 -91 
Q 1263 -91 848 271 
Q 434 634 434 1313 
Q 434 1759 690 2068 
Q 947 2378 1403 2484 
z
M 1172 3481 
Q 1172 3119 1398 2916 
Q 1625 2713 2034 2713 
Q 2441 2713 2670 2916 
Q 2900 3119 2900 3481 
Q 2900 3844 2670 4047 
Q 2441 4250 2034 4250 
Q 1625 4250 1398 4047 
Q 1172 3844 1172 3481 
z
" transform="scale(0.015625)"/>
      </defs>
      <use xlink:href="#DejaVuSans-Oblique-3b4" transform="translate(0 0.78125)"/>
      <use xlink:href="#DejaVuSans-Oblique-65" transform="translate(61.181641 -15.625) scale(0.7)"/>
      <use xlink:href="#DejaVuSans-3d" transform="translate(126.464844 0.78125)"/>
      <use xlink:href="#DejaVuSans-30" transform="translate(229.736328 0.78125)"/>
      <use xlink:href="#DejaVuSans-2c" transform="translate(293.359375 0.78125)"/>
      <use xlink:href="#DejaVuSans-20" transform="translate(325.146484 0.78125)"/>
      <use xlink:href="#DejaVuSans-Oblique-4a" transform="translate(356.933594 0.78125)"/>
      <use xlink:href="#DejaVuSans-3d" transform="translate(405.908203 0.78125)"/>
      <use xlink:href="#DejaVuSans-31" transform="translate(509.179688 0.78125)"/>
      <use xlink:href="#DejaVuSans-2e" transform="translate(572.802734 0.78125)"/>
      <use xlink:href="#DejaVuSans-38" transform="translate(601.964844 0.78125)"/>
      <use xlink:href="#DejaVuSans-30" transform="translate(665.587891 0.78125)"/>
     </g>
    </g>
    <g id="line2d_30">
     <path d="M 315.255247 121.881125 
L 325.255247 121.881125 
L 335.255247 121.881125 
" style="fill: none; stroke: #7dff7a; stroke-width: 1.5; stroke-linecap: square"/>
    </g>
    <g id="text_16">
     <!-- $\delta_e = 0$, $J = 2.00$ -->
     <g transform="translate(343.255247 125.381125) scale(0.1 -0.1)">
      <use xlink:href="#DejaVuSans-Oblique-3b4" transform="translate(0 0.78125)"/>
      <use xlink:href="#DejaVuSans-Oblique-65" transform="translate(61.181641 -15.625) scale(0.7)"/>
      <use xlink:href="#DejaVuSans-3d" transform="translate(126.464844 0.78125)"/>
      <use xlink:href="#DejaVuSans-30" transform="translate(229.736328 0.78125)"/>
      <use xlink:href="#DejaVuSans-2c" transform="translate(293.359375 0.78125)"/>
      <use xlink:href="#DejaVuSans-20" transform="translate(325.146484 0.78125)"/>
      <use xlink:href="#DejaVuSans-Oblique-4a" transform="translate(356.933594 0.78125)"/>
      <use xlink:href="#DejaVuSans-3d" transform="translate(405.908203 0.78125)"/>
      <use xlink:href="#DejaVuSans-32" transform="translate(509.179688 0.78125)"/>
      <use xlink:href="#DejaVuSans-2e" transform="translate(572.802734 0.78125)"/>
      <use xlink:href="#DejaVuSans-30" transform="translate(604.589844 0.78125)"/>
      <use xlink:href="#DejaVuSans-30" transform="translate(668.212891 0.78125)"/>
     </g>
    </g>
    <g id="line2d_31">
     <path d="M 315.255247 136.579563 
L 325.255247 136.579563 
L 335.255247 136.579563 
" style="fill: none; stroke: #ff9400; stroke-width: 1.5; stroke-linecap: square"/>
    </g>
    <g id="text_17">
     <!-- $\delta_e = 0$, $J = 2.20$ -->
     <g transform="translate(343.255247 140.079563) scale(0.1 -0.1)">
      <use xlink:href="#DejaVuSans-Oblique-3b4" transform="translate(0 0.78125)"/>
      <use xlink:href="#DejaVuSans-Oblique-65" transform="translate(61.181641 -15.625) scale(0.7)"/>
      <use xlink:href="#DejaVuSans-3d" transform="translate(126.464844 0.78125)"/>
      <use xlink:href="#DejaVuSans-30" transform="translate(229.736328 0.78125)"/>
      <use xlink:href="#DejaVuSans-2c" transform="translate(293.359375 0.78125)"/>
      <use xlink:href="#DejaVuSans-20" transform="translate(325.146484 0.78125)"/>
      <use xlink:href="#DejaVuSans-Oblique-4a" transform="translate(356.933594 0.78125)"/>
      <use xlink:href="#DejaVuSans-3d" transform="translate(405.908203 0.78125)"/>
      <use xlink:href="#DejaVuSans-32" transform="translate(509.179688 0.78125)"/>
      <use xlink:href="#DejaVuSans-2e" transform="translate(572.802734 0.78125)"/>
      <use xlink:href="#DejaVuSans-32" transform="translate(599.089844 0.78125)"/>
      <use xlink:href="#DejaVuSans-30" transform="translate(662.712891 0.78125)"/>
     </g>
    </g>
    <g id="line2d_32">
     <path d="M 315.255247 151.278 
L 325.255247 151.278 
L 335.255247 151.278 
" style="fill: none; stroke: #800000; stroke-width: 1.5; stroke-linecap: square"/>
    </g>
    <g id="text_18">
     <!-- $\delta_e = 0$, $J = 2.40$ -->
     <g transform="translate(343.255247 154.778) scale(0.1 -0.1)">
      <use xlink:href="#DejaVuSans-Oblique-3b4" transform="translate(0 0.78125)"/>
      <use xlink:href="#DejaVuSans-Oblique-65" transform="translate(61.181641 -15.625) scale(0.7)"/>
      <use xlink:href="#DejaVuSans-3d" transform="translate(126.464844 0.78125)"/>
      <use xlink:href="#DejaVuSans-30" transform="translate(229.736328 0.78125)"/>
      <use xlink:href="#DejaVuSans-2c" transform="translate(293.359375 0.78125)"/>
      <use xlink:href="#DejaVuSans-20" transform="translate(325.146484 0.78125)"/>
      <use xlink:href="#DejaVuSans-Oblique-4a" transform="translate(356.933594 0.78125)"/>
      <use xlink:href="#DejaVuSans-3d" transform="translate(405.908203 0.78125)"/>
      <use xlink:href="#DejaVuSans-32" transform="translate(509.179688 0.78125)"/>
      <use xlink:href="#DejaVuSans-2e" transform="translate(572.802734 0.78125)"/>
      <use xlink:href="#DejaVuSans-34" transform="translate(604.589844 0.78125)"/>
      <use xlink:href="#DejaVuSans-30" transform="translate(668.212891 0.78125)"/>
     </g>
    </g>
   </g>
  </g>
 </g>
 <defs>
  <clipPath id="p32e08d58c3">
   <rect x="84.188" y="10.8" width="222.067247" height="163.24"/>
  </clipPath>
 </defs>
</svg>
