<?xml version="1.0" encoding="utf-8" standalone="no"?>
<!DOCTYPE svg PUBLIC "-//W3C//DTD SVG 1.1//EN"
  "http://www.w3.org/Graphics/SVG/1.1/DTD/svg11.dtd">
<svg xmlns:xlink="http://www.w3.org/1999/xlink" width="576pt" height="216pt" viewBox="0 0 576 216" xmlns="http://www.w3.org/2000/svg" version="1.1">
 <metadata>
  <rdf:RDF xmlns:dc="http://purl.org/dc/elements/1.1/" xmlns:cc="http://creativecommons.org/ns#" xmlns:rdf="http://www.w3.org/1999/02/22-rdf-syntax-ns#">
   <cc:Work>
    <dc:type rdf:resource="http://purl.org/dc/dcmitype/StillImage"/>
    <dc:date>2025-03-28T09:42:48.033050</dc:date>
    <dc:format>image/svg+xml</dc:format>
    <dc:creator>
     <cc:Agent>
      <dc:title>Matplotlib v3.9.2, https://matplotlib.org/</dc:title>
     </cc:Agent>
    </dc:creator>
   </cc:Work>
  </rdf:RDF>
 </metadata>
 <defs>
  <style type="text/css">*{stroke-linejoin: round; stroke-linecap: butt}</style>
 </defs>
 <g id="figure_1">
  <g id="patch_1">
   <path d="M 0 216 
L 576 216 
L 576 0 
L 0 0 
z
" style="fill: #ffffff"/>
  </g>
  <g id="axes_1">
   <g id="patch_2">
    <path d="M 84.188 174.04 
L 450.255247 174.04 
L 450.255247 10.8 
L 84.188 10.8 
z
" style="fill: #ffffff"/>
   </g>
   <g id="matplotlib.axis_1">
    <g id="xtick_1">
     <g id="line2d_1">
      <path d="M 100.82742 174.04 
L 100.82742 10.8 
" clip-path="url(#pa1661d0989)" style="fill: none; stroke: #b0b0b0; stroke-width: 0.8; stroke-linecap: square"/>
     </g>
     <g id="line2d_2">
      <defs>
       <path id="m18ed06b26b" d="M 0 0 
L 0 3.5 
" style="stroke: #000000; stroke-width: 0.8"/>
      </defs>
      <g>
       <use xlink:href="#m18ed06b26b" x="100.82742" y="174.04" style="stroke: #000000; stroke-width: 0.8"/>
      </g>
     </g>
     <g id="text_1">
      <!-- −4 -->
      <g transform="translate(93.456327 188.638438) scale(0.1 -0.1)">
       <defs>
        <path id="DejaVuSans-2212" d="M 678 2272 
L 4684 2272 
L 4684 1741 
L 678 1741 
L 678 2272 
z
" transform="scale(0.015625)"/>
        <path id="DejaVuSans-34" d="M 2419 4116 
L 825 1625 
L 2419 1625 
L 2419 4116 
z
M 2253 4666 
L 3047 4666 
L 3047 1625 
L 3713 1625 
L 3713 1100 
L 3047 1100 
L 3047 0 
L 2419 0 
L 2419 1100 
L 313 1100 
L 313 1709 
L 2253 4666 
z
" transform="scale(0.015625)"/>
       </defs>
       <use xlink:href="#DejaVuSans-2212"/>
       <use xlink:href="#DejaVuSans-34" x="83.789062"/>
      </g>
     </g>
    </g>
    <g id="xtick_2">
     <g id="line2d_3">
      <path d="M 161.334403 174.04 
L 161.334403 10.8 
" clip-path="url(#pa1661d0989)" style="fill: none; stroke: #b0b0b0; stroke-width: 0.8; stroke-linecap: square"/>
     </g>
     <g id="line2d_4">
      <g>
       <use xlink:href="#m18ed06b26b" x="161.334403" y="174.04" style="stroke: #000000; stroke-width: 0.8"/>
      </g>
     </g>
     <g id="text_2">
      <!-- −2 -->
      <g transform="translate(153.96331 188.638438) scale(0.1 -0.1)">
       <defs>
        <path id="DejaVuSans-32" d="M 1228 531 
L 3431 531 
L 3431 0 
L 469 0 
L 469 531 
Q 828 903 1448 1529 
Q 2069 2156 2228 2338 
Q 2531 2678 2651 2914 
Q 2772 3150 2772 3378 
Q 2772 3750 2511 3984 
Q 2250 4219 1831 4219 
Q 1534 4219 1204 4116 
Q 875 4013 500 3803 
L 500 4441 
Q 881 4594 1212 4672 
Q 1544 4750 1819 4750 
Q 2544 4750 2975 4387 
Q 3406 4025 3406 3419 
Q 3406 3131 3298 2873 
Q 3191 2616 2906 2266 
Q 2828 2175 2409 1742 
Q 1991 1309 1228 531 
z
" transform="scale(0.015625)"/>
       </defs>
       <use xlink:href="#DejaVuSans-2212"/>
       <use xlink:href="#DejaVuSans-32" x="83.789062"/>
      </g>
     </g>
    </g>
    <g id="xtick_3">
     <g id="line2d_5">
      <path d="M 221.841386 174.04 
L 221.841386 10.8 
" clip-path="url(#pa1661d0989)" style="fill: none; stroke: #b0b0b0; stroke-width: 0.8; stroke-linecap: square"/>
     </g>
     <g id="line2d_6">
      <g>
       <use xlink:href="#m18ed06b26b" x="221.841386" y="174.04" style="stroke: #000000; stroke-width: 0.8"/>
      </g>
     </g>
     <g id="text_3">
      <!-- 0 -->
      <g transform="translate(218.660136 188.638438) scale(0.1 -0.1)">
       <defs>
        <path id="DejaVuSans-30" d="M 2034 4250 
Q 1547 4250 1301 3770 
Q 1056 3291 1056 2328 
Q 1056 1369 1301 889 
Q 1547 409 2034 409 
Q 2525 409 2770 889 
Q 3016 1369 3016 2328 
Q 3016 3291 2770 3770 
Q 2525 4250 2034 4250 
z
M 2034 4750 
Q 2819 4750 3233 4129 
Q 3647 3509 3647 2328 
Q 3647 1150 3233 529 
Q 2819 -91 2034 -91 
Q 1250 -91 836 529 
Q 422 1150 422 2328 
Q 422 3509 836 4129 
Q 1250 4750 2034 4750 
z
" transform="scale(0.015625)"/>
       </defs>
       <use xlink:href="#DejaVuSans-30"/>
      </g>
     </g>
    </g>
    <g id="xtick_4">
     <g id="line2d_7">
      <path d="M 282.348369 174.04 
L 282.348369 10.8 
" clip-path="url(#pa1661d0989)" style="fill: none; stroke: #b0b0b0; stroke-width: 0.8; stroke-linecap: square"/>
     </g>
     <g id="line2d_8">
      <g>
       <use xlink:href="#m18ed06b26b" x="282.348369" y="174.04" style="stroke: #000000; stroke-width: 0.8"/>
      </g>
     </g>
     <g id="text_4">
      <!-- 2 -->
      <g transform="translate(279.167119 188.638438) scale(0.1 -0.1)">
       <use xlink:href="#DejaVuSans-32"/>
      </g>
     </g>
    </g>
    <g id="xtick_5">
     <g id="line2d_9">
      <path d="M 342.855353 174.04 
L 342.855353 10.8 
" clip-path="url(#pa1661d0989)" style="fill: none; stroke: #b0b0b0; stroke-width: 0.8; stroke-linecap: square"/>
     </g>
     <g id="line2d_10">
      <g>
       <use xlink:href="#m18ed06b26b" x="342.855353" y="174.04" style="stroke: #000000; stroke-width: 0.8"/>
      </g>
     </g>
     <g id="text_5">
      <!-- 4 -->
      <g transform="translate(339.674103 188.638438) scale(0.1 -0.1)">
       <use xlink:href="#DejaVuSans-34"/>
      </g>
     </g>
    </g>
    <g id="xtick_6">
     <g id="line2d_11">
      <path d="M 403.362336 174.04 
L 403.362336 10.8 
" clip-path="url(#pa1661d0989)" style="fill: none; stroke: #b0b0b0; stroke-width: 0.8; stroke-linecap: square"/>
     </g>
     <g id="line2d_12">
      <g>
       <use xlink:href="#m18ed06b26b" x="403.362336" y="174.04" style="stroke: #000000; stroke-width: 0.8"/>
      </g>
     </g>
     <g id="text_6">
      <!-- 6 -->
      <g transform="translate(400.181086 188.638438) scale(0.1 -0.1)">
       <defs>
        <path id="DejaVuSans-36" d="M 2113 2584 
Q 1688 2584 1439 2293 
Q 1191 2003 1191 1497 
Q 1191 994 1439 701 
Q 1688 409 2113 409 
Q 2538 409 2786 701 
Q 3034 994 3034 1497 
Q 3034 2003 2786 2293 
Q 2538 2584 2113 2584 
z
M 3366 4563 
L 3366 3988 
Q 3128 4100 2886 4159 
Q 2644 4219 2406 4219 
Q 1781 4219 1451 3797 
Q 1122 3375 1075 2522 
Q 1259 2794 1537 2939 
Q 1816 3084 2150 3084 
Q 2853 3084 3261 2657 
Q 3669 2231 3669 1497 
Q 3669 778 3244 343 
Q 2819 -91 2113 -91 
Q 1303 -91 875 529 
Q 447 1150 447 2328 
Q 447 3434 972 4092 
Q 1497 4750 2381 4750 
Q 2619 4750 2861 4703 
Q 3103 4656 3366 4563 
z
" transform="scale(0.015625)"/>
       </defs>
       <use xlink:href="#DejaVuSans-36"/>
      </g>
     </g>
    </g>
    <g id="text_7">
     <!-- $\alpha$ -->
     <g transform="translate(263.921624 202.316563) scale(0.1 -0.1)">
      <defs>
       <path id="DejaVuSans-Oblique-3b1" d="M 2619 1628 
L 2622 2350 
Q 2625 3088 2069 3091 
Q 1653 3094 1394 2747 
Q 1069 2319 959 1747 
Q 825 1059 994 731 
Q 1169 397 1547 397 
Q 1966 397 2319 1063 
L 2619 1628 
z
M 2166 3578 
Q 3141 3594 3128 2584 
Q 3128 2584 3616 3500 
L 4128 3500 
L 3119 1603 
L 3109 919 
Q 3109 766 3194 638 
Q 3291 488 3391 488 
L 3669 488 
L 3575 0 
L 3228 0 
Q 2934 0 2722 263 
Q 2622 394 2619 669 
Q 2416 334 2066 50 
Q 1900 -81 1453 -78 
Q 722 -72 456 397 
Q 184 884 353 1747 
Q 534 2675 1009 3097 
Q 1544 3569 2166 3578 
z
" transform="scale(0.015625)"/>
      </defs>
      <use xlink:href="#DejaVuSans-Oblique-3b1" transform="translate(0 0.84375)"/>
     </g>
    </g>
   </g>
   <g id="matplotlib.axis_2">
    <g id="ytick_1">
     <g id="line2d_13">
      <path d="M 84.188 173.66098 
L 450.255247 173.66098 
" clip-path="url(#pa1661d0989)" style="fill: none; stroke: #b0b0b0; stroke-width: 0.8; stroke-linecap: square"/>
     </g>
     <g id="line2d_14">
      <defs>
       <path id="m2aa8176ae8" d="M 0 0 
L -3.5 0 
" style="stroke: #000000; stroke-width: 0.8"/>
      </defs>
      <g>
       <use xlink:href="#m2aa8176ae8" x="84.188" y="173.66098" style="stroke: #000000; stroke-width: 0.8"/>
      </g>
     </g>
     <g id="text_8">
      <!-- −0.00020 -->
      <g transform="translate(27.455188 177.460199) scale(0.1 -0.1)">
       <defs>
        <path id="DejaVuSans-2e" d="M 684 794 
L 1344 794 
L 1344 0 
L 684 0 
L 684 794 
z
" transform="scale(0.015625)"/>
       </defs>
       <use xlink:href="#DejaVuSans-2212"/>
       <use xlink:href="#DejaVuSans-30" x="83.789062"/>
       <use xlink:href="#DejaVuSans-2e" x="147.412109"/>
       <use xlink:href="#DejaVuSans-30" x="179.199219"/>
       <use xlink:href="#DejaVuSans-30" x="242.822266"/>
       <use xlink:href="#DejaVuSans-30" x="306.445312"/>
       <use xlink:href="#DejaVuSans-32" x="370.068359"/>
       <use xlink:href="#DejaVuSans-30" x="433.691406"/>
      </g>
     </g>
    </g>
    <g id="ytick_2">
     <g id="line2d_15">
      <path d="M 84.188 140.982981 
L 450.255247 140.982981 
" clip-path="url(#pa1661d0989)" style="fill: none; stroke: #b0b0b0; stroke-width: 0.8; stroke-linecap: square"/>
     </g>
     <g id="line2d_16">
      <g>
       <use xlink:href="#m2aa8176ae8" x="84.188" y="140.982981" style="stroke: #000000; stroke-width: 0.8"/>
      </g>
     </g>
     <g id="text_9">
      <!-- −0.00015 -->
      <g transform="translate(27.455188 144.7822) scale(0.1 -0.1)">
       <defs>
        <path id="DejaVuSans-31" d="M 794 531 
L 1825 531 
L 1825 4091 
L 703 3866 
L 703 4441 
L 1819 4666 
L 2450 4666 
L 2450 531 
L 3481 531 
L 3481 0 
L 794 0 
L 794 531 
z
" transform="scale(0.015625)"/>
        <path id="DejaVuSans-35" d="M 691 4666 
L 3169 4666 
L 3169 4134 
L 1269 4134 
L 1269 2991 
Q 1406 3038 1543 3061 
Q 1681 3084 1819 3084 
Q 2600 3084 3056 2656 
Q 3513 2228 3513 1497 
Q 3513 744 3044 326 
Q 2575 -91 1722 -91 
Q 1428 -91 1123 -41 
Q 819 9 494 109 
L 494 744 
Q 775 591 1075 516 
Q 1375 441 1709 441 
Q 2250 441 2565 725 
Q 2881 1009 2881 1497 
Q 2881 1984 2565 2268 
Q 2250 2553 1709 2553 
Q 1456 2553 1204 2497 
Q 953 2441 691 2322 
L 691 4666 
z
" transform="scale(0.015625)"/>
       </defs>
       <use xlink:href="#DejaVuSans-2212"/>
       <use xlink:href="#DejaVuSans-30" x="83.789062"/>
       <use xlink:href="#DejaVuSans-2e" x="147.412109"/>
       <use xlink:href="#DejaVuSans-30" x="179.199219"/>
       <use xlink:href="#DejaVuSans-30" x="242.822266"/>
       <use xlink:href="#DejaVuSans-30" x="306.445312"/>
       <use xlink:href="#DejaVuSans-31" x="370.068359"/>
       <use xlink:href="#DejaVuSans-35" x="433.691406"/>
      </g>
     </g>
    </g>
    <g id="ytick_3">
     <g id="line2d_17">
      <path d="M 84.188 108.304982 
L 450.255247 108.304982 
" clip-path="url(#pa1661d0989)" style="fill: none; stroke: #b0b0b0; stroke-width: 0.8; stroke-linecap: square"/>
     </g>
     <g id="line2d_18">
      <g>
       <use xlink:href="#m2aa8176ae8" x="84.188" y="108.304982" style="stroke: #000000; stroke-width: 0.8"/>
      </g>
     </g>
     <g id="text_10">
      <!-- −0.00010 -->
      <g transform="translate(27.455188 112.1042) scale(0.1 -0.1)">
       <use xlink:href="#DejaVuSans-2212"/>
       <use xlink:href="#DejaVuSans-30" x="83.789062"/>
       <use xlink:href="#DejaVuSans-2e" x="147.412109"/>
       <use xlink:href="#DejaVuSans-30" x="179.199219"/>
       <use xlink:href="#DejaVuSans-30" x="242.822266"/>
       <use xlink:href="#DejaVuSans-30" x="306.445312"/>
       <use xlink:href="#DejaVuSans-31" x="370.068359"/>
       <use xlink:href="#DejaVuSans-30" x="433.691406"/>
      </g>
     </g>
    </g>
    <g id="ytick_4">
     <g id="line2d_19">
      <path d="M 84.188 75.626982 
L 450.255247 75.626982 
" clip-path="url(#pa1661d0989)" style="fill: none; stroke: #b0b0b0; stroke-width: 0.8; stroke-linecap: square"/>
     </g>
     <g id="line2d_20">
      <g>
       <use xlink:href="#m2aa8176ae8" x="84.188" y="75.626982" style="stroke: #000000; stroke-width: 0.8"/>
      </g>
     </g>
     <g id="text_11">
      <!-- −0.00005 -->
      <g transform="translate(27.455188 79.426201) scale(0.1 -0.1)">
       <use xlink:href="#DejaVuSans-2212"/>
       <use xlink:href="#DejaVuSans-30" x="83.789062"/>
       <use xlink:href="#DejaVuSans-2e" x="147.412109"/>
       <use xlink:href="#DejaVuSans-30" x="179.199219"/>
       <use xlink:href="#DejaVuSans-30" x="242.822266"/>
       <use xlink:href="#DejaVuSans-30" x="306.445312"/>
       <use xlink:href="#DejaVuSans-30" x="370.068359"/>
       <use xlink:href="#DejaVuSans-35" x="433.691406"/>
      </g>
     </g>
    </g>
    <g id="ytick_5">
     <g id="line2d_21">
      <path d="M 84.188 42.948983 
L 450.255247 42.948983 
" clip-path="url(#pa1661d0989)" style="fill: none; stroke: #b0b0b0; stroke-width: 0.8; stroke-linecap: square"/>
     </g>
     <g id="line2d_22">
      <g>
       <use xlink:href="#m2aa8176ae8" x="84.188" y="42.948983" style="stroke: #000000; stroke-width: 0.8"/>
      </g>
     </g>
     <g id="text_12">
      <!-- 0.00000 -->
      <g transform="translate(35.834875 46.748202) scale(0.1 -0.1)">
       <use xlink:href="#DejaVuSans-30"/>
       <use xlink:href="#DejaVuSans-2e" x="63.623047"/>
       <use xlink:href="#DejaVuSans-30" x="95.410156"/>
       <use xlink:href="#DejaVuSans-30" x="159.033203"/>
       <use xlink:href="#DejaVuSans-30" x="222.65625"/>
       <use xlink:href="#DejaVuSans-30" x="286.279297"/>
       <use xlink:href="#DejaVuSans-30" x="349.902344"/>
      </g>
     </g>
    </g>
    <g id="text_13">
     <!-- d$C_D$ / d$\delta_e$ -->
     <g transform="translate(21.3755 115.32) rotate(-90) scale(0.1 -0.1)">
      <defs>
       <path id="DejaVuSans-64" d="M 2906 2969 
L 2906 4863 
L 3481 4863 
L 3481 0 
L 2906 0 
L 2906 525 
Q 2725 213 2448 61 
Q 2172 -91 1784 -91 
Q 1150 -91 751 415 
Q 353 922 353 1747 
Q 353 2572 751 3078 
Q 1150 3584 1784 3584 
Q 2172 3584 2448 3432 
Q 2725 3281 2906 2969 
z
M 947 1747 
Q 947 1113 1208 752 
Q 1469 391 1925 391 
Q 2381 391 2643 752 
Q 2906 1113 2906 1747 
Q 2906 2381 2643 2742 
Q 2381 3103 1925 3103 
Q 1469 3103 1208 2742 
Q 947 2381 947 1747 
z
" transform="scale(0.015625)"/>
       <path id="DejaVuSans-Oblique-43" d="M 4447 4306 
L 4319 3641 
Q 4019 3944 3683 4091 
Q 3347 4238 2956 4238 
Q 2422 4238 2017 3981 
Q 1613 3725 1319 3200 
Q 1131 2863 1032 2486 
Q 934 2109 934 1728 
Q 934 1091 1264 756 
Q 1594 422 2222 422 
Q 2656 422 3056 561 
Q 3456 700 3834 978 
L 3688 231 
Q 3316 72 2936 -9 
Q 2556 -91 2175 -91 
Q 1278 -91 773 396 
Q 269 884 269 1753 
Q 269 2309 461 2846 
Q 653 3384 1013 3828 
Q 1394 4300 1883 4525 
Q 2372 4750 3022 4750 
Q 3422 4750 3780 4639 
Q 4138 4528 4447 4306 
z
" transform="scale(0.015625)"/>
       <path id="DejaVuSans-Oblique-44" d="M 1081 4666 
L 2438 4666 
Q 3519 4666 4070 4208 
Q 4622 3750 4622 2847 
Q 4622 2250 4412 1698 
Q 4203 1147 3834 769 
Q 3463 381 2891 190 
Q 2319 0 1538 0 
L 172 0 
L 1081 4666 
z
M 1613 4147 
L 909 519 
L 1734 519 
Q 2794 519 3375 1128 
Q 3956 1738 3956 2847 
Q 3956 3519 3581 3833 
Q 3206 4147 2406 4147 
L 1613 4147 
z
" transform="scale(0.015625)"/>
       <path id="DejaVuSans-20" transform="scale(0.015625)"/>
       <path id="DejaVuSans-2f" d="M 1625 4666 
L 2156 4666 
L 531 -594 
L 0 -594 
L 1625 4666 
z
" transform="scale(0.015625)"/>
       <path id="DejaVuSans-Oblique-3b4" d="M 3472 4053 
Q 3197 4272 2450 4272 
Q 1659 4272 1588 3906 
Q 1531 3619 2328 3469 
Q 2953 3353 3253 3003 
Q 3616 2581 3447 1716 
Q 3284 888 2763 400 
Q 2238 -91 1488 -91 
Q 741 -91 406 400 
Q 72 888 241 1747 
Q 363 2384 891 2900 
Q 1097 3100 1353 3213 
Q 913 3459 1000 3900 
Q 1166 4750 2544 4750 
Q 3234 4750 3566 4531 
L 3472 4053 
z
M 1753 3056 
Q 1525 2966 1306 2738 
Q 969 2384 847 1747 
Q 722 1113 919 756 
Q 1119 397 1584 397 
Q 2044 397 2381 759 
Q 2722 1122 2838 1716 
Q 2956 2338 2731 2638 
Q 2491 2959 2103 2994 
Q 1906 3013 1753 3056 
z
" transform="scale(0.015625)"/>
       <path id="DejaVuSans-Oblique-65" d="M 3078 2063 
Q 3088 2113 3092 2166 
Q 3097 2219 3097 2272 
Q 3097 2653 2873 2875 
Q 2650 3097 2266 3097 
Q 1838 3097 1509 2826 
Q 1181 2556 1013 2059 
L 3078 2063 
z
M 3578 1613 
L 903 1613 
Q 884 1494 878 1425 
Q 872 1356 872 1306 
Q 872 872 1139 634 
Q 1406 397 1894 397 
Q 2269 397 2603 481 
Q 2938 566 3225 728 
L 3116 159 
Q 2806 34 2476 -28 
Q 2147 -91 1806 -91 
Q 1078 -91 686 257 
Q 294 606 294 1247 
Q 294 1794 489 2264 
Q 684 2734 1063 3103 
Q 1306 3334 1642 3459 
Q 1978 3584 2356 3584 
Q 2950 3584 3301 3228 
Q 3653 2872 3653 2272 
Q 3653 2128 3634 1964 
Q 3616 1800 3578 1613 
z
" transform="scale(0.015625)"/>
      </defs>
      <use xlink:href="#DejaVuSans-64" transform="translate(0 0.015625)"/>
      <use xlink:href="#DejaVuSans-Oblique-43" transform="translate(63.476562 0.015625)"/>
      <use xlink:href="#DejaVuSans-Oblique-44" transform="translate(133.300781 -16.390625) scale(0.7)"/>
      <use xlink:href="#DejaVuSans-20" transform="translate(189.936523 0.015625)"/>
      <use xlink:href="#DejaVuSans-2f" transform="translate(221.723633 0.015625)"/>
      <use xlink:href="#DejaVuSans-20" transform="translate(255.415039 0.015625)"/>
      <use xlink:href="#DejaVuSans-64" transform="translate(287.202148 0.015625)"/>
      <use xlink:href="#DejaVuSans-Oblique-3b4" transform="translate(350.678711 0.015625)"/>
      <use xlink:href="#DejaVuSans-Oblique-65" transform="translate(411.860352 -16.390625) scale(0.7)"/>
     </g>
    </g>
   </g>
   <g id="line2d_23">
    <path d="M 100.82742 91.170821 
L 104.188919 88.741246 
L 107.550418 86.358918 
L 110.911918 84.023838 
L 114.273417 81.736006 
L 117.634916 79.495422 
L 120.996415 77.302087 
L 124.357914 75.155999 
L 127.719413 73.05716 
L 131.080912 71.005568 
L 134.442411 69.001225 
L 137.80391 67.044129 
L 141.165409 65.134282 
L 144.526908 63.271683 
L 147.888407 61.456332 
L 151.249906 59.688229 
L 154.611405 57.967374 
L 157.972904 56.293767 
L 161.334403 54.667408 
L 164.695902 53.088297 
L 168.057402 51.556434 
L 171.418901 50.071819 
L 174.7804 48.634453 
L 178.141899 47.244334 
L 181.503398 45.901464 
L 184.864897 44.605841 
L 188.226396 43.357467 
L 191.587895 42.15634 
L 194.949394 41.002462 
L 198.310893 39.895832 
L 201.672392 38.83645 
L 205.033891 37.824315 
L 208.39539 36.859429 
L 211.756889 35.941791 
L 215.118388 35.071401 
L 218.479887 34.24826 
L 221.841386 33.472366 
L 225.202885 32.74372 
L 228.564385 32.062322 
L 231.925884 31.428173 
L 235.287383 30.841271 
L 238.648882 30.301617 
L 242.010381 29.809212 
L 245.37188 29.364055 
L 248.733379 28.966145 
L 252.094878 28.615484 
L 255.456377 28.312071 
L 258.817876 28.055906 
L 262.179375 27.846989 
L 265.540874 27.685319 
L 268.902373 27.570898 
L 272.263872 27.503726 
L 275.625371 27.483801 
L 278.98687 27.511124 
L 282.348369 27.585695 
L 285.709869 27.707515 
L 289.071368 27.876582 
L 292.432867 28.092897 
L 295.794366 28.356461 
L 299.155865 28.667272 
L 302.517364 29.025332 
L 305.878863 29.43064 
L 309.240362 29.883195 
L 312.601861 30.382999 
L 315.96336 30.930051 
L 319.324859 31.524351 
L 322.686358 32.165899 
L 326.047857 32.854695 
L 329.409356 33.590739 
L 332.770855 34.374031 
L 336.132354 35.204572 
L 339.493853 36.08236 
L 342.855353 37.007396 
L 346.216852 37.979681 
L 349.578351 38.999213 
L 352.93985 40.065994 
L 356.301349 41.180022 
L 359.662848 42.341299 
L 363.024347 43.549824 
L 366.385846 44.805596 
L 369.747345 46.108617 
L 373.108844 47.458886 
L 376.470343 48.856403 
L 379.831842 50.301168 
L 383.193341 51.793181 
L 386.55484 53.332442 
L 389.916339 54.918952 
L 393.277838 56.552709 
L 396.639337 58.233714 
L 400.000837 59.961968 
L 403.362336 61.737469 
L 406.723835 63.560218 
L 410.085334 65.430216 
L 413.446833 67.347462 
L 416.808332 69.311955 
L 420.169831 71.323697 
L 423.53133 73.382687 
L 426.892829 75.488925 
L 430.254328 77.642411 
L 433.615827 79.843145 
" clip-path="url(#pa1661d0989)" style="fill: none; stroke: #000080; stroke-width: 1.5; stroke-linecap: square"/>
   </g>
   <g id="line2d_24">
    <path d="M 100.82742 68.835092 
L 104.188919 68.154635 
L 107.550418 67.484487 
L 110.911918 66.824649 
L 114.273417 66.175121 
L 117.634916 65.535903 
L 120.996415 64.906994 
L 124.357914 64.288395 
L 127.719413 63.680106 
L 131.080912 63.082126 
L 134.442411 62.494456 
L 137.80391 61.917096 
L 141.165409 61.350045 
L 144.526908 60.793305 
L 147.888407 60.246873 
L 151.249906 59.710752 
L 154.611405 59.18494 
L 157.972904 58.669438 
L 161.334403 58.164246 
L 164.695902 57.669363 
L 168.057402 57.184791 
L 171.418901 56.710527 
L 174.7804 56.246574 
L 178.141899 55.79293 
L 181.503398 55.349596 
L 184.864897 54.916572 
L 188.226396 54.493857 
L 191.587895 54.081452 
L 194.949394 53.679357 
L 198.310893 53.287571 
L 201.672392 52.906096 
L 205.033891 52.534929 
L 208.39539 52.174073 
L 211.756889 51.823526 
L 215.118388 51.483289 
L 218.479887 51.153362 
L 221.841386 50.833744 
L 225.202885 50.524436 
L 228.564385 50.225438 
L 231.925884 49.93675 
L 235.287383 49.658371 
L 238.648882 49.390302 
L 242.010381 49.132542 
L 245.37188 48.885093 
L 248.733379 48.647953 
L 252.094878 48.421122 
L 255.456377 48.204602 
L 258.817876 47.998391 
L 262.179375 47.80249 
L 265.540874 47.616898 
L 268.902373 47.441617 
L 272.263872 47.276644 
L 275.625371 47.121982 
L 278.98687 46.977629 
L 282.348369 46.843587 
L 285.709869 46.719853 
L 289.071368 46.60643 
L 292.432867 46.503316 
L 295.794366 46.410512 
L 299.155865 46.328017 
L 302.517364 46.255833 
L 305.878863 46.193958 
L 309.240362 46.142392 
L 312.601861 46.101137 
L 315.96336 46.070191 
L 319.324859 46.049555 
L 322.686358 46.039228 
L 326.047857 46.039211 
L 329.409356 46.049504 
L 332.770855 46.070107 
L 336.132354 46.101019 
L 339.493853 46.142241 
L 342.855353 46.193773 
L 346.216852 46.255614 
L 349.578351 46.327765 
L 352.93985 46.410226 
L 356.301349 46.502997 
L 359.662848 46.606077 
L 363.024347 46.719467 
L 366.385846 46.843167 
L 369.747345 46.977176 
L 373.108844 47.121495 
L 376.470343 47.276124 
L 379.831842 47.441062 
L 383.193341 47.616311 
L 386.55484 47.801868 
L 389.916339 47.997736 
L 393.277838 48.203913 
L 396.639337 48.4204 
L 400.000837 48.647197 
L 403.362336 48.884303 
L 406.723835 49.131719 
L 410.085334 49.389445 
L 413.446833 49.657481 
L 416.808332 49.935826 
L 420.169831 50.224481 
L 423.53133 50.523446 
L 426.892829 50.83272 
L 430.254328 51.152304 
L 433.615827 51.482198 
" clip-path="url(#pa1661d0989)" style="fill: none; stroke: #0080ff; stroke-width: 1.5; stroke-linecap: square"/>
   </g>
   <g id="line2d_25">
    <path d="M 100.82742 62.665284 
L 104.188919 62.340772 
L 107.550418 62.02161 
L 110.911918 61.707798 
L 114.273417 61.399337 
L 117.634916 61.096225 
L 120.996415 60.798463 
L 124.357914 60.506051 
L 127.719413 60.218989 
L 131.080912 59.937276 
L 134.442411 59.660914 
L 137.80391 59.389902 
L 141.165409 59.12424 
L 144.526908 58.863928 
L 147.888407 58.608966 
L 151.249906 58.359354 
L 154.611405 58.115091 
L 157.972904 57.876179 
L 161.334403 57.642617 
L 164.695902 57.414405 
L 168.057402 57.191542 
L 171.418901 56.97403 
L 174.7804 56.761868 
L 178.141899 56.555056 
L 181.503398 56.353593 
L 184.864897 56.157481 
L 188.226396 55.966718 
L 191.587895 55.781306 
L 194.949394 55.601243 
L 198.310893 55.426531 
L 201.672392 55.257169 
L 205.033891 55.093156 
L 208.39539 54.934494 
L 211.756889 54.781181 
L 215.118388 54.633218 
L 218.479887 54.490606 
L 221.841386 54.353343 
L 225.202885 54.221431 
L 228.564385 54.094868 
L 231.925884 53.973655 
L 235.287383 53.857793 
L 238.648882 53.74728 
L 242.010381 53.642117 
L 245.37188 53.542304 
L 248.733379 53.447842 
L 252.094878 53.358729 
L 255.456377 53.274966 
L 258.817876 53.196553 
L 262.179375 53.12349 
L 265.540874 53.055777 
L 268.902373 52.993415 
L 272.263872 52.936402 
L 275.625371 52.884739 
L 278.98687 52.838426 
L 282.348369 52.797463 
L 285.709869 52.76185 
L 289.071368 52.731587 
L 292.432867 52.706674 
L 295.794366 52.687111 
L 299.155865 52.672898 
L 302.517364 52.664035 
L 305.878863 52.660521 
L 309.240362 52.662358 
L 312.601861 52.669545 
L 315.96336 52.682082 
L 319.324859 52.699969 
L 322.686358 52.723205 
L 326.047857 52.751792 
L 329.409356 52.785729 
L 332.770855 52.825016 
L 336.132354 52.869652 
L 339.493853 52.919639 
L 342.855353 52.974976 
L 346.216852 53.035662 
L 349.578351 53.101699 
L 352.93985 53.173086 
L 356.301349 53.249822 
L 359.662848 53.331909 
L 363.024347 53.419345 
L 366.385846 53.512132 
L 369.747345 53.610268 
L 373.108844 53.713755 
L 376.470343 53.822591 
L 379.831842 53.936778 
L 383.193341 54.056314 
L 386.55484 54.1812 
L 389.916339 54.311437 
L 393.277838 54.447023 
L 396.639337 54.58796 
L 400.000837 54.734246 
L 403.362336 54.885882 
L 406.723835 55.042868 
L 410.085334 55.205205 
L 413.446833 55.372891 
L 416.808332 55.545927 
L 420.169831 55.724313 
L 423.53133 55.908049 
L 426.892829 56.097136 
L 430.254328 56.291572 
L 433.615827 56.491358 
" clip-path="url(#pa1661d0989)" style="fill: none; stroke: #7dff7a; stroke-width: 1.5; stroke-linecap: square"/>
   </g>
   <g id="line2d_26">
    <path d="M 100.82742 72.661398 
L 104.188919 71.299658 
L 107.550418 69.970287 
L 110.911918 68.673285 
L 114.273417 67.408652 
L 117.634916 66.176388 
L 120.996415 64.976492 
L 124.357914 63.808966 
L 127.719413 62.673808 
L 131.080912 61.57102 
L 134.442411 60.5006 
L 137.80391 59.462549 
L 141.165409 58.456867 
L 144.526908 57.483553 
L 147.888407 56.542609 
L 151.249906 55.634034 
L 154.611405 54.757827 
L 157.972904 53.913989 
L 161.334403 53.102521 
L 164.695902 52.323421 
L 168.057402 51.57669 
L 171.418901 50.862328 
L 174.7804 50.180334 
L 178.141899 49.53071 
L 181.503398 48.913455 
L 184.864897 48.328568 
L 188.226396 47.77605 
L 191.587895 47.255902 
L 194.949394 46.768122 
L 198.310893 46.312711 
L 201.672392 45.889669 
L 205.033891 45.498995 
L 208.39539 45.140691 
L 211.756889 44.814756 
L 215.118388 44.521189 
L 218.479887 44.259991 
L 221.841386 44.031162 
L 225.202885 43.834703 
L 228.564385 43.670612 
L 231.925884 43.538889 
L 235.287383 43.439536 
L 238.648882 43.372552 
L 242.010381 43.337936 
L 245.37188 43.33569 
L 248.733379 43.365812 
L 252.094878 43.428303 
L 255.456377 43.523163 
L 258.817876 43.650392 
L 262.179375 43.80999 
L 265.540874 44.001957 
L 268.902373 44.226293 
L 272.263872 44.482997 
L 275.625371 44.77207 
L 278.98687 45.093513 
L 282.348369 45.447324 
L 285.709869 45.833504 
L 289.071368 46.252053 
L 292.432867 46.702971 
L 295.794366 47.186257 
L 299.155865 47.701913 
L 302.517364 48.249938 
L 305.878863 48.830331 
L 309.240362 49.443093 
L 312.601861 50.088224 
L 315.96336 50.765724 
L 319.324859 51.475593 
L 322.686358 52.217831 
L 326.047857 52.992438 
L 329.409356 53.799414 
L 332.770855 54.638758 
L 336.132354 55.510471 
L 339.493853 56.414554 
L 342.855353 57.351005 
L 346.216852 58.319825 
L 349.578351 59.321014 
L 352.93985 60.354572 
L 356.301349 61.420498 
L 359.662848 62.518794 
L 363.024347 63.649458 
L 366.385846 64.812492 
L 369.747345 66.007894 
L 373.108844 67.235665 
L 376.470343 68.495805 
L 379.831842 69.788314 
L 383.193341 71.113192 
L 386.55484 72.470439 
L 389.916339 73.860054 
L 393.277838 75.282039 
L 396.639337 76.736392 
L 400.000837 78.223114 
L 403.362336 79.742205 
L 406.723835 81.293665 
L 410.085334 82.877494 
L 413.446833 84.493692 
L 416.808332 86.142259 
L 420.169831 87.823194 
L 423.53133 89.536499 
L 426.892829 91.282172 
L 430.254328 93.060214 
L 433.615827 94.870625 
" clip-path="url(#pa1661d0989)" style="fill: none; stroke: #ff9400; stroke-width: 1.5; stroke-linecap: square"/>
   </g>
   <g id="line2d_27">
    <path d="M 100.82742 98.823434 
L 104.188919 95.031293 
L 107.550418 91.330518 
L 110.911918 87.72111 
L 114.273417 84.203068 
L 117.634916 80.776393 
L 120.996415 77.441084 
L 124.357914 74.197141 
L 127.719413 71.044565 
L 131.080912 67.983355 
L 134.442411 65.013512 
L 137.80391 62.135035 
L 141.165409 59.347925 
L 144.526908 56.652181 
L 147.888407 54.047803 
L 151.249906 51.534792 
L 154.611405 49.113147 
L 157.972904 46.782869 
L 161.334403 44.543957 
L 164.695902 42.396411 
L 168.057402 40.340232 
L 171.418901 38.37542 
L 174.7804 36.501974 
L 178.141899 34.719894 
L 181.503398 33.029181 
L 184.864897 31.429834 
L 188.226396 29.921853 
L 191.587895 28.505239 
L 194.949394 27.179992 
L 198.310893 25.94611 
L 201.672392 24.803596 
L 205.033891 23.752447 
L 208.39539 22.792665 
L 211.756889 21.92425 
L 215.118388 21.147201 
L 218.479887 20.461518 
L 221.841386 19.867202 
L 225.202885 19.364252 
L 228.564385 18.952669 
L 231.925884 18.632452 
L 235.287383 18.403602 
L 238.648882 18.266118 
L 242.010381 18.22 
L 245.37188 18.265249 
L 248.733379 18.401864 
L 252.094878 18.629846 
L 255.456377 18.949194 
L 258.817876 19.359908 
L 262.179375 19.861989 
L 265.540874 20.455437 
L 268.902373 21.14025 
L 272.263872 21.916431 
L 275.625371 22.783977 
L 278.98687 23.74289 
L 282.348369 24.79317 
L 285.709869 25.934816 
L 289.071368 27.167828 
L 292.432867 28.492207 
L 295.794366 29.907952 
L 299.155865 31.415064 
L 302.517364 33.013542 
L 305.878863 34.703386 
L 309.240362 36.484597 
L 312.601861 38.357175 
L 315.96336 40.321118 
L 319.324859 42.376429 
L 322.686358 44.523105 
L 326.047857 46.761148 
L 329.409356 49.090558 
L 332.770855 51.511334 
L 336.132354 54.023476 
L 339.493853 56.626985 
L 342.855353 59.32186 
L 346.216852 62.108102 
L 349.578351 64.98571 
L 352.93985 67.954684 
L 356.301349 71.015025 
L 359.662848 74.166732 
L 363.024347 77.409806 
L 366.385846 80.744246 
L 369.747345 84.170053 
L 373.108844 87.687226 
L 376.470343 91.295766 
L 379.831842 94.995671 
L 383.193341 98.786944 
L 386.55484 102.669583 
L 389.916339 106.643588 
L 393.277838 110.708959 
L 396.639337 114.865697 
L 400.000837 119.113802 
L 403.362336 123.453273 
L 406.723835 127.88411 
L 410.085334 132.406314 
L 413.446833 137.019884 
L 416.808332 141.724821 
L 420.169831 146.521124 
L 423.53133 151.408793 
L 426.892829 156.387829 
L 430.254328 161.458231 
L 433.615827 166.62 
" clip-path="url(#pa1661d0989)" style="fill: none; stroke: #800000; stroke-width: 1.5; stroke-linecap: square"/>
   </g>
   <g id="patch_3">
    <path d="M 84.188 174.04 
L 84.188 10.8 
" style="fill: none; stroke: #000000; stroke-width: 0.8; stroke-linejoin: miter; stroke-linecap: square"/>
   </g>
   <g id="patch_4">
    <path d="M 450.255247 174.04 
L 450.255247 10.8 
" style="fill: none; stroke: #000000; stroke-width: 0.8; stroke-linejoin: miter; stroke-linecap: square"/>
   </g>
   <g id="patch_5">
    <path d="M 84.188 174.04 
L 450.255247 174.04 
" style="fill: none; stroke: #000000; stroke-width: 0.8; stroke-linejoin: miter; stroke-linecap: square"/>
   </g>
   <g id="patch_6">
    <path d="M 84.188 10.8 
L 450.255247 10.8 
" style="fill: none; stroke: #000000; stroke-width: 0.8; stroke-linejoin: miter; stroke-linecap: square"/>
   </g>
   <g id="legend_1">
    <g id="patch_7">
     <path d="M 459.255247 162.878 
L 564.455247 162.878 
Q 566.455247 162.878 566.455247 160.878 
L 566.455247 88.385812 
Q 566.455247 86.385812 564.455247 86.385812 
L 459.255247 86.385812 
Q 457.255247 86.385812 457.255247 88.385812 
L 457.255247 160.878 
Q 457.255247 162.878 459.255247 162.878 
z
" style="fill: #4d4d4d; opacity: 0.5; stroke: #4d4d4d; stroke-linejoin: miter"/>
    </g>
    <g id="patch_8">
     <path d="M 457.255247 160.878 
L 562.455247 160.878 
Q 564.455247 160.878 564.455247 158.878 
L 564.455247 86.385812 
Q 564.455247 84.385812 562.455247 84.385812 
L 457.255247 84.385812 
Q 455.255247 84.385812 455.255247 86.385812 
L 455.255247 158.878 
Q 455.255247 160.878 457.255247 160.878 
z
" style="fill: #ffffff; stroke: #cccccc; stroke-linejoin: miter"/>
    </g>
    <g id="line2d_28">
     <path d="M 459.255247 92.48425 
L 469.255247 92.48425 
L 479.255247 92.48425 
" style="fill: none; stroke: #000080; stroke-width: 1.5; stroke-linecap: square"/>
    </g>
    <g id="text_14">
     <!-- $\delta_e = 0$, $J = 1.60$ -->
     <g transform="translate(487.255247 95.98425) scale(0.1 -0.1)">
      <defs>
       <path id="DejaVuSans-3d" d="M 678 2906 
L 4684 2906 
L 4684 2381 
L 678 2381 
L 678 2906 
z
M 678 1631 
L 4684 1631 
L 4684 1100 
L 678 1100 
L 678 1631 
z
" transform="scale(0.015625)"/>
       <path id="DejaVuSans-2c" d="M 750 794 
L 1409 794 
L 1409 256 
L 897 -744 
L 494 -744 
L 750 256 
L 750 794 
z
" transform="scale(0.015625)"/>
       <path id="DejaVuSans-Oblique-4a" d="M 1069 4666 
L 1703 4666 
L 856 325 
Q 691 -522 298 -901 
Q -94 -1281 -800 -1281 
L -1050 -1281 
L -947 -750 
L -750 -750 
Q -328 -750 -109 -509 
Q 109 -269 225 325 
L 1069 4666 
z
" transform="scale(0.015625)"/>
      </defs>
      <use xlink:href="#DejaVuSans-Oblique-3b4" transform="translate(0 0.78125)"/>
      <use xlink:href="#DejaVuSans-Oblique-65" transform="translate(61.181641 -15.625) scale(0.7)"/>
      <use xlink:href="#DejaVuSans-3d" transform="translate(126.464844 0.78125)"/>
      <use xlink:href="#DejaVuSans-30" transform="translate(229.736328 0.78125)"/>
      <use xlink:href="#DejaVuSans-2c" transform="translate(293.359375 0.78125)"/>
      <use xlink:href="#DejaVuSans-20" transform="translate(325.146484 0.78125)"/>
      <use xlink:href="#DejaVuSans-Oblique-4a" transform="translate(356.933594 0.78125)"/>
      <use xlink:href="#DejaVuSans-3d" transform="translate(405.908203 0.78125)"/>
      <use xlink:href="#DejaVuSans-31" transform="translate(509.179688 0.78125)"/>
      <use xlink:href="#DejaVuSans-2e" transform="translate(572.802734 0.78125)"/>
      <use xlink:href="#DejaVuSans-36" transform="translate(604.589844 0.78125)"/>
      <use xlink:href="#DejaVuSans-30" transform="translate(668.212891 0.78125)"/>
     </g>
    </g>
    <g id="line2d_29">
     <path d="M 459.255247 107.182688 
L 469.255247 107.182688 
L 479.255247 107.182688 
" style="fill: none; stroke: #0080ff; stroke-width: 1.5; stroke-linecap: square"/>
    </g>
    <g id="text_15">
     <!-- $\delta_e = 0$, $J = 1.80$ -->
     <g transform="translate(487.255247 110.682688) scale(0.1 -0.1)">
      <defs>
       <path id="DejaVuSans-38" d="M 2034 2216 
Q 1584 2216 1326 1975 
Q 1069 1734 1069 1313 
Q 1069 891 1326 650 
Q 1584 409 2034 409 
Q 2484 409 2743 651 
Q 3003 894 3003 1313 
Q 3003 1734 2745 1975 
Q 2488 2216 2034 2216 
z
M 1403 2484 
Q 997 2584 770 2862 
Q 544 3141 544 3541 
Q 544 4100 942 4425 
Q 1341 4750 2034 4750 
Q 2731 4750 3128 4425 
Q 3525 4100 3525 3541 
Q 3525 3141 3298 2862 
Q 3072 2584 2669 2484 
Q 3125 2378 3379 2068 
Q 3634 1759 3634 1313 
Q 3634 634 3220 271 
Q 2806 -91 2034 -91 
Q 1263 -91 848 271 
Q 434 634 434 1313 
Q 434 1759 690 2068 
Q 947 2378 1403 2484 
z
M 1172 3481 
Q 1172 3119 1398 2916 
Q 1625 2713 2034 2713 
Q 2441 2713 2670 2916 
Q 2900 3119 2900 3481 
Q 2900 3844 2670 4047 
Q 2441 4250 2034 4250 
Q 1625 4250 1398 4047 
Q 1172 3844 1172 3481 
z
" transform="scale(0.015625)"/>
      </defs>
      <use xlink:href="#DejaVuSans-Oblique-3b4" transform="translate(0 0.78125)"/>
      <use xlink:href="#DejaVuSans-Oblique-65" transform="translate(61.181641 -15.625) scale(0.7)"/>
      <use xlink:href="#DejaVuSans-3d" transform="translate(126.464844 0.78125)"/>
      <use xlink:href="#DejaVuSans-30" transform="translate(229.736328 0.78125)"/>
      <use xlink:href="#DejaVuSans-2c" transform="translate(293.359375 0.78125)"/>
      <use xlink:href="#DejaVuSans-20" transform="translate(325.146484 0.78125)"/>
      <use xlink:href="#DejaVuSans-Oblique-4a" transform="translate(356.933594 0.78125)"/>
      <use xlink:href="#DejaVuSans-3d" transform="translate(405.908203 0.78125)"/>
      <use xlink:href="#DejaVuSans-31" transform="translate(509.179688 0.78125)"/>
      <use xlink:href="#DejaVuSans-2e" transform="translate(572.802734 0.78125)"/>
      <use xlink:href="#DejaVuSans-38" transform="translate(601.964844 0.78125)"/>
      <use xlink:href="#DejaVuSans-30" transform="translate(665.587891 0.78125)"/>
     </g>
    </g>
    <g id="line2d_30">
     <path d="M 459.255247 121.881125 
L 469.255247 121.881125 
L 479.255247 121.881125 
" style="fill: none; stroke: #7dff7a; stroke-width: 1.5; stroke-linecap: square"/>
    </g>
    <g id="text_16">
     <!-- $\delta_e = 0$, $J = 2.00$ -->
     <g transform="translate(487.255247 125.381125) scale(0.1 -0.1)">
      <use xlink:href="#DejaVuSans-Oblique-3b4" transform="translate(0 0.78125)"/>
      <use xlink:href="#DejaVuSans-Oblique-65" transform="translate(61.181641 -15.625) scale(0.7)"/>
      <use xlink:href="#DejaVuSans-3d" transform="translate(126.464844 0.78125)"/>
      <use xlink:href="#DejaVuSans-30" transform="translate(229.736328 0.78125)"/>
      <use xlink:href="#DejaVuSans-2c" transform="translate(293.359375 0.78125)"/>
      <use xlink:href="#DejaVuSans-20" transform="translate(325.146484 0.78125)"/>
      <use xlink:href="#DejaVuSans-Oblique-4a" transform="translate(356.933594 0.78125)"/>
      <use xlink:href="#DejaVuSans-3d" transform="translate(405.908203 0.78125)"/>
      <use xlink:href="#DejaVuSans-32" transform="translate(509.179688 0.78125)"/>
      <use xlink:href="#DejaVuSans-2e" transform="translate(572.802734 0.78125)"/>
      <use xlink:href="#DejaVuSans-30" transform="translate(604.589844 0.78125)"/>
      <use xlink:href="#DejaVuSans-30" transform="translate(668.212891 0.78125)"/>
     </g>
    </g>
    <g id="line2d_31">
     <path d="M 459.255247 136.579563 
L 469.255247 136.579563 
L 479.255247 136.579563 
" style="fill: none; stroke: #ff9400; stroke-width: 1.5; stroke-linecap: square"/>
    </g>
    <g id="text_17">
     <!-- $\delta_e = 0$, $J = 2.20$ -->
     <g transform="translate(487.255247 140.079563) scale(0.1 -0.1)">
      <use xlink:href="#DejaVuSans-Oblique-3b4" transform="translate(0 0.78125)"/>
      <use xlink:href="#DejaVuSans-Oblique-65" transform="translate(61.181641 -15.625) scale(0.7)"/>
      <use xlink:href="#DejaVuSans-3d" transform="translate(126.464844 0.78125)"/>
      <use xlink:href="#DejaVuSans-30" transform="translate(229.736328 0.78125)"/>
      <use xlink:href="#DejaVuSans-2c" transform="translate(293.359375 0.78125)"/>
      <use xlink:href="#DejaVuSans-20" transform="translate(325.146484 0.78125)"/>
      <use xlink:href="#DejaVuSans-Oblique-4a" transform="translate(356.933594 0.78125)"/>
      <use xlink:href="#DejaVuSans-3d" transform="translate(405.908203 0.78125)"/>
      <use xlink:href="#DejaVuSans-32" transform="translate(509.179688 0.78125)"/>
      <use xlink:href="#DejaVuSans-2e" transform="translate(572.802734 0.78125)"/>
      <use xlink:href="#DejaVuSans-32" transform="translate(599.089844 0.78125)"/>
      <use xlink:href="#DejaVuSans-30" transform="translate(662.712891 0.78125)"/>
     </g>
    </g>
    <g id="line2d_32">
     <path d="M 459.255247 151.278 
L 469.255247 151.278 
L 479.255247 151.278 
" style="fill: none; stroke: #800000; stroke-width: 1.5; stroke-linecap: square"/>
    </g>
    <g id="text_18">
     <!-- $\delta_e = 0$, $J = 2.40$ -->
     <g transform="translate(487.255247 154.778) scale(0.1 -0.1)">
      <use xlink:href="#DejaVuSans-Oblique-3b4" transform="translate(0 0.78125)"/>
      <use xlink:href="#DejaVuSans-Oblique-65" transform="translate(61.181641 -15.625) scale(0.7)"/>
      <use xlink:href="#DejaVuSans-3d" transform="translate(126.464844 0.78125)"/>
      <use xlink:href="#DejaVuSans-30" transform="translate(229.736328 0.78125)"/>
      <use xlink:href="#DejaVuSans-2c" transform="translate(293.359375 0.78125)"/>
      <use xlink:href="#DejaVuSans-20" transform="translate(325.146484 0.78125)"/>
      <use xlink:href="#DejaVuSans-Oblique-4a" transform="translate(356.933594 0.78125)"/>
      <use xlink:href="#DejaVuSans-3d" transform="translate(405.908203 0.78125)"/>
      <use xlink:href="#DejaVuSans-32" transform="translate(509.179688 0.78125)"/>
      <use xlink:href="#DejaVuSans-2e" transform="translate(572.802734 0.78125)"/>
      <use xlink:href="#DejaVuSans-34" transform="translate(604.589844 0.78125)"/>
      <use xlink:href="#DejaVuSans-30" transform="translate(668.212891 0.78125)"/>
     </g>
    </g>
   </g>
  </g>
 </g>
 <defs>
  <clipPath id="pa1661d0989">
   <rect x="84.188" y="10.8" width="366.067247" height="163.24"/>
  </clipPath>
 </defs>
</svg>
