<?xml version="1.0" encoding="utf-8" standalone="no"?>
<!DOCTYPE svg PUBLIC "-//W3C//DTD SVG 1.1//EN"
  "http://www.w3.org/Graphics/SVG/1.1/DTD/svg11.dtd">
<svg xmlns:xlink="http://www.w3.org/1999/xlink" width="576pt" height="216pt" viewBox="0 0 576 216" xmlns="http://www.w3.org/2000/svg" version="1.1">
 <metadata>
  <rdf:RDF xmlns:dc="http://purl.org/dc/elements/1.1/" xmlns:cc="http://creativecommons.org/ns#" xmlns:rdf="http://www.w3.org/1999/02/22-rdf-syntax-ns#">
   <cc:Work>
    <dc:type rdf:resource="http://purl.org/dc/dcmitype/StillImage"/>
    <dc:date>2025-03-27T15:29:41.539505</dc:date>
    <dc:format>image/svg+xml</dc:format>
    <dc:creator>
     <cc:Agent>
      <dc:title>Matplotlib v3.9.2, https://matplotlib.org/</dc:title>
     </cc:Agent>
    </dc:creator>
   </cc:Work>
  </rdf:RDF>
 </metadata>
 <defs>
  <style type="text/css">*{stroke-linejoin: round; stroke-linecap: butt}</style>
 </defs>
 <g id="figure_1">
  <g id="patch_1">
   <path d="M 0 216 
L 576 216 
L 576 0 
L 0 0 
z
" style="fill: #ffffff"/>
  </g>
  <g id="axes_1">
   <g id="patch_2">
    <path d="M 84.188 174.04 
L 450.255247 174.04 
L 450.255247 10.8 
L 84.188 10.8 
z
" style="fill: #ffffff"/>
   </g>
   <g id="matplotlib.axis_1">
    <g id="xtick_1">
     <g id="line2d_1">
      <path d="M 100.82742 174.04 
L 100.82742 10.8 
" clip-path="url(#p9c66c2924f)" style="fill: none; stroke: #b0b0b0; stroke-width: 0.8; stroke-linecap: square"/>
     </g>
     <g id="line2d_2">
      <defs>
       <path id="m2b8d6ee78a" d="M 0 0 
L 0 3.5 
" style="stroke: #000000; stroke-width: 0.8"/>
      </defs>
      <g>
       <use xlink:href="#m2b8d6ee78a" x="100.82742" y="174.04" style="stroke: #000000; stroke-width: 0.8"/>
      </g>
     </g>
     <g id="text_1">
      <!-- −4 -->
      <g transform="translate(93.456327 188.638438) scale(0.1 -0.1)">
       <defs>
        <path id="DejaVuSans-2212" d="M 678 2272 
L 4684 2272 
L 4684 1741 
L 678 1741 
L 678 2272 
z
" transform="scale(0.015625)"/>
        <path id="DejaVuSans-34" d="M 2419 4116 
L 825 1625 
L 2419 1625 
L 2419 4116 
z
M 2253 4666 
L 3047 4666 
L 3047 1625 
L 3713 1625 
L 3713 1100 
L 3047 1100 
L 3047 0 
L 2419 0 
L 2419 1100 
L 313 1100 
L 313 1709 
L 2253 4666 
z
" transform="scale(0.015625)"/>
       </defs>
       <use xlink:href="#DejaVuSans-2212"/>
       <use xlink:href="#DejaVuSans-34" x="83.789062"/>
      </g>
     </g>
    </g>
    <g id="xtick_2">
     <g id="line2d_3">
      <path d="M 161.334403 174.04 
L 161.334403 10.8 
" clip-path="url(#p9c66c2924f)" style="fill: none; stroke: #b0b0b0; stroke-width: 0.8; stroke-linecap: square"/>
     </g>
     <g id="line2d_4">
      <g>
       <use xlink:href="#m2b8d6ee78a" x="161.334403" y="174.04" style="stroke: #000000; stroke-width: 0.8"/>
      </g>
     </g>
     <g id="text_2">
      <!-- −2 -->
      <g transform="translate(153.96331 188.638438) scale(0.1 -0.1)">
       <defs>
        <path id="DejaVuSans-32" d="M 1228 531 
L 3431 531 
L 3431 0 
L 469 0 
L 469 531 
Q 828 903 1448 1529 
Q 2069 2156 2228 2338 
Q 2531 2678 2651 2914 
Q 2772 3150 2772 3378 
Q 2772 3750 2511 3984 
Q 2250 4219 1831 4219 
Q 1534 4219 1204 4116 
Q 875 4013 500 3803 
L 500 4441 
Q 881 4594 1212 4672 
Q 1544 4750 1819 4750 
Q 2544 4750 2975 4387 
Q 3406 4025 3406 3419 
Q 3406 3131 3298 2873 
Q 3191 2616 2906 2266 
Q 2828 2175 2409 1742 
Q 1991 1309 1228 531 
z
" transform="scale(0.015625)"/>
       </defs>
       <use xlink:href="#DejaVuSans-2212"/>
       <use xlink:href="#DejaVuSans-32" x="83.789062"/>
      </g>
     </g>
    </g>
    <g id="xtick_3">
     <g id="line2d_5">
      <path d="M 221.841386 174.04 
L 221.841386 10.8 
" clip-path="url(#p9c66c2924f)" style="fill: none; stroke: #b0b0b0; stroke-width: 0.8; stroke-linecap: square"/>
     </g>
     <g id="line2d_6">
      <g>
       <use xlink:href="#m2b8d6ee78a" x="221.841386" y="174.04" style="stroke: #000000; stroke-width: 0.8"/>
      </g>
     </g>
     <g id="text_3">
      <!-- 0 -->
      <g transform="translate(218.660136 188.638438) scale(0.1 -0.1)">
       <defs>
        <path id="DejaVuSans-30" d="M 2034 4250 
Q 1547 4250 1301 3770 
Q 1056 3291 1056 2328 
Q 1056 1369 1301 889 
Q 1547 409 2034 409 
Q 2525 409 2770 889 
Q 3016 1369 3016 2328 
Q 3016 3291 2770 3770 
Q 2525 4250 2034 4250 
z
M 2034 4750 
Q 2819 4750 3233 4129 
Q 3647 3509 3647 2328 
Q 3647 1150 3233 529 
Q 2819 -91 2034 -91 
Q 1250 -91 836 529 
Q 422 1150 422 2328 
Q 422 3509 836 4129 
Q 1250 4750 2034 4750 
z
" transform="scale(0.015625)"/>
       </defs>
       <use xlink:href="#DejaVuSans-30"/>
      </g>
     </g>
    </g>
    <g id="xtick_4">
     <g id="line2d_7">
      <path d="M 282.348369 174.04 
L 282.348369 10.8 
" clip-path="url(#p9c66c2924f)" style="fill: none; stroke: #b0b0b0; stroke-width: 0.8; stroke-linecap: square"/>
     </g>
     <g id="line2d_8">
      <g>
       <use xlink:href="#m2b8d6ee78a" x="282.348369" y="174.04" style="stroke: #000000; stroke-width: 0.8"/>
      </g>
     </g>
     <g id="text_4">
      <!-- 2 -->
      <g transform="translate(279.167119 188.638438) scale(0.1 -0.1)">
       <use xlink:href="#DejaVuSans-32"/>
      </g>
     </g>
    </g>
    <g id="xtick_5">
     <g id="line2d_9">
      <path d="M 342.855353 174.04 
L 342.855353 10.8 
" clip-path="url(#p9c66c2924f)" style="fill: none; stroke: #b0b0b0; stroke-width: 0.8; stroke-linecap: square"/>
     </g>
     <g id="line2d_10">
      <g>
       <use xlink:href="#m2b8d6ee78a" x="342.855353" y="174.04" style="stroke: #000000; stroke-width: 0.8"/>
      </g>
     </g>
     <g id="text_5">
      <!-- 4 -->
      <g transform="translate(339.674103 188.638438) scale(0.1 -0.1)">
       <use xlink:href="#DejaVuSans-34"/>
      </g>
     </g>
    </g>
    <g id="xtick_6">
     <g id="line2d_11">
      <path d="M 403.362336 174.04 
L 403.362336 10.8 
" clip-path="url(#p9c66c2924f)" style="fill: none; stroke: #b0b0b0; stroke-width: 0.8; stroke-linecap: square"/>
     </g>
     <g id="line2d_12">
      <g>
       <use xlink:href="#m2b8d6ee78a" x="403.362336" y="174.04" style="stroke: #000000; stroke-width: 0.8"/>
      </g>
     </g>
     <g id="text_6">
      <!-- 6 -->
      <g transform="translate(400.181086 188.638438) scale(0.1 -0.1)">
       <defs>
        <path id="DejaVuSans-36" d="M 2113 2584 
Q 1688 2584 1439 2293 
Q 1191 2003 1191 1497 
Q 1191 994 1439 701 
Q 1688 409 2113 409 
Q 2538 409 2786 701 
Q 3034 994 3034 1497 
Q 3034 2003 2786 2293 
Q 2538 2584 2113 2584 
z
M 3366 4563 
L 3366 3988 
Q 3128 4100 2886 4159 
Q 2644 4219 2406 4219 
Q 1781 4219 1451 3797 
Q 1122 3375 1075 2522 
Q 1259 2794 1537 2939 
Q 1816 3084 2150 3084 
Q 2853 3084 3261 2657 
Q 3669 2231 3669 1497 
Q 3669 778 3244 343 
Q 2819 -91 2113 -91 
Q 1303 -91 875 529 
Q 447 1150 447 2328 
Q 447 3434 972 4092 
Q 1497 4750 2381 4750 
Q 2619 4750 2861 4703 
Q 3103 4656 3366 4563 
z
" transform="scale(0.015625)"/>
       </defs>
       <use xlink:href="#DejaVuSans-36"/>
      </g>
     </g>
    </g>
    <g id="text_7">
     <!-- $\alpha$ -->
     <g transform="translate(263.921624 202.316563) scale(0.1 -0.1)">
      <defs>
       <path id="DejaVuSans-Oblique-3b1" d="M 2619 1628 
L 2622 2350 
Q 2625 3088 2069 3091 
Q 1653 3094 1394 2747 
Q 1069 2319 959 1747 
Q 825 1059 994 731 
Q 1169 397 1547 397 
Q 1966 397 2319 1063 
L 2619 1628 
z
M 2166 3578 
Q 3141 3594 3128 2584 
Q 3128 2584 3616 3500 
L 4128 3500 
L 3119 1603 
L 3109 919 
Q 3109 766 3194 638 
Q 3291 488 3391 488 
L 3669 488 
L 3575 0 
L 3228 0 
Q 2934 0 2722 263 
Q 2622 394 2619 669 
Q 2416 334 2066 50 
Q 1900 -81 1453 -78 
Q 722 -72 456 397 
Q 184 884 353 1747 
Q 534 2675 1009 3097 
Q 1544 3569 2166 3578 
z
" transform="scale(0.015625)"/>
      </defs>
      <use xlink:href="#DejaVuSans-Oblique-3b1" transform="translate(0 0.84375)"/>
     </g>
    </g>
   </g>
   <g id="matplotlib.axis_2">
    <g id="ytick_1">
     <g id="line2d_13">
      <path d="M 84.188 173.660958 
L 450.255247 173.660958 
" clip-path="url(#p9c66c2924f)" style="fill: none; stroke: #b0b0b0; stroke-width: 0.8; stroke-linecap: square"/>
     </g>
     <g id="line2d_14">
      <defs>
       <path id="mbed023d537" d="M 0 0 
L -3.5 0 
" style="stroke: #000000; stroke-width: 0.8"/>
      </defs>
      <g>
       <use xlink:href="#mbed023d537" x="84.188" y="173.660958" style="stroke: #000000; stroke-width: 0.8"/>
      </g>
     </g>
     <g id="text_8">
      <!-- −0.00020 -->
      <g transform="translate(27.455188 177.460176) scale(0.1 -0.1)">
       <defs>
        <path id="DejaVuSans-2e" d="M 684 794 
L 1344 794 
L 1344 0 
L 684 0 
L 684 794 
z
" transform="scale(0.015625)"/>
       </defs>
       <use xlink:href="#DejaVuSans-2212"/>
       <use xlink:href="#DejaVuSans-30" x="83.789062"/>
       <use xlink:href="#DejaVuSans-2e" x="147.412109"/>
       <use xlink:href="#DejaVuSans-30" x="179.199219"/>
       <use xlink:href="#DejaVuSans-30" x="242.822266"/>
       <use xlink:href="#DejaVuSans-30" x="306.445312"/>
       <use xlink:href="#DejaVuSans-32" x="370.068359"/>
       <use xlink:href="#DejaVuSans-30" x="433.691406"/>
      </g>
     </g>
    </g>
    <g id="ytick_2">
     <g id="line2d_15">
      <path d="M 84.188 140.982963 
L 450.255247 140.982963 
" clip-path="url(#p9c66c2924f)" style="fill: none; stroke: #b0b0b0; stroke-width: 0.8; stroke-linecap: square"/>
     </g>
     <g id="line2d_16">
      <g>
       <use xlink:href="#mbed023d537" x="84.188" y="140.982963" style="stroke: #000000; stroke-width: 0.8"/>
      </g>
     </g>
     <g id="text_9">
      <!-- −0.00015 -->
      <g transform="translate(27.455188 144.782182) scale(0.1 -0.1)">
       <defs>
        <path id="DejaVuSans-31" d="M 794 531 
L 1825 531 
L 1825 4091 
L 703 3866 
L 703 4441 
L 1819 4666 
L 2450 4666 
L 2450 531 
L 3481 531 
L 3481 0 
L 794 0 
L 794 531 
z
" transform="scale(0.015625)"/>
        <path id="DejaVuSans-35" d="M 691 4666 
L 3169 4666 
L 3169 4134 
L 1269 4134 
L 1269 2991 
Q 1406 3038 1543 3061 
Q 1681 3084 1819 3084 
Q 2600 3084 3056 2656 
Q 3513 2228 3513 1497 
Q 3513 744 3044 326 
Q 2575 -91 1722 -91 
Q 1428 -91 1123 -41 
Q 819 9 494 109 
L 494 744 
Q 775 591 1075 516 
Q 1375 441 1709 441 
Q 2250 441 2565 725 
Q 2881 1009 2881 1497 
Q 2881 1984 2565 2268 
Q 2250 2553 1709 2553 
Q 1456 2553 1204 2497 
Q 953 2441 691 2322 
L 691 4666 
z
" transform="scale(0.015625)"/>
       </defs>
       <use xlink:href="#DejaVuSans-2212"/>
       <use xlink:href="#DejaVuSans-30" x="83.789062"/>
       <use xlink:href="#DejaVuSans-2e" x="147.412109"/>
       <use xlink:href="#DejaVuSans-30" x="179.199219"/>
       <use xlink:href="#DejaVuSans-30" x="242.822266"/>
       <use xlink:href="#DejaVuSans-30" x="306.445312"/>
       <use xlink:href="#DejaVuSans-31" x="370.068359"/>
       <use xlink:href="#DejaVuSans-35" x="433.691406"/>
      </g>
     </g>
    </g>
    <g id="ytick_3">
     <g id="line2d_17">
      <path d="M 84.188 108.304968 
L 450.255247 108.304968 
" clip-path="url(#p9c66c2924f)" style="fill: none; stroke: #b0b0b0; stroke-width: 0.8; stroke-linecap: square"/>
     </g>
     <g id="line2d_18">
      <g>
       <use xlink:href="#mbed023d537" x="84.188" y="108.304968" style="stroke: #000000; stroke-width: 0.8"/>
      </g>
     </g>
     <g id="text_10">
      <!-- −0.00010 -->
      <g transform="translate(27.455188 112.104187) scale(0.1 -0.1)">
       <use xlink:href="#DejaVuSans-2212"/>
       <use xlink:href="#DejaVuSans-30" x="83.789062"/>
       <use xlink:href="#DejaVuSans-2e" x="147.412109"/>
       <use xlink:href="#DejaVuSans-30" x="179.199219"/>
       <use xlink:href="#DejaVuSans-30" x="242.822266"/>
       <use xlink:href="#DejaVuSans-30" x="306.445312"/>
       <use xlink:href="#DejaVuSans-31" x="370.068359"/>
       <use xlink:href="#DejaVuSans-30" x="433.691406"/>
      </g>
     </g>
    </g>
    <g id="ytick_4">
     <g id="line2d_19">
      <path d="M 84.188 75.626974 
L 450.255247 75.626974 
" clip-path="url(#p9c66c2924f)" style="fill: none; stroke: #b0b0b0; stroke-width: 0.8; stroke-linecap: square"/>
     </g>
     <g id="line2d_20">
      <g>
       <use xlink:href="#mbed023d537" x="84.188" y="75.626974" style="stroke: #000000; stroke-width: 0.8"/>
      </g>
     </g>
     <g id="text_11">
      <!-- −0.00005 -->
      <g transform="translate(27.455188 79.426193) scale(0.1 -0.1)">
       <use xlink:href="#DejaVuSans-2212"/>
       <use xlink:href="#DejaVuSans-30" x="83.789062"/>
       <use xlink:href="#DejaVuSans-2e" x="147.412109"/>
       <use xlink:href="#DejaVuSans-30" x="179.199219"/>
       <use xlink:href="#DejaVuSans-30" x="242.822266"/>
       <use xlink:href="#DejaVuSans-30" x="306.445312"/>
       <use xlink:href="#DejaVuSans-30" x="370.068359"/>
       <use xlink:href="#DejaVuSans-35" x="433.691406"/>
      </g>
     </g>
    </g>
    <g id="ytick_5">
     <g id="line2d_21">
      <path d="M 84.188 42.948979 
L 450.255247 42.948979 
" clip-path="url(#p9c66c2924f)" style="fill: none; stroke: #b0b0b0; stroke-width: 0.8; stroke-linecap: square"/>
     </g>
     <g id="line2d_22">
      <g>
       <use xlink:href="#mbed023d537" x="84.188" y="42.948979" style="stroke: #000000; stroke-width: 0.8"/>
      </g>
     </g>
     <g id="text_12">
      <!-- 0.00000 -->
      <g transform="translate(35.834875 46.748198) scale(0.1 -0.1)">
       <use xlink:href="#DejaVuSans-30"/>
       <use xlink:href="#DejaVuSans-2e" x="63.623047"/>
       <use xlink:href="#DejaVuSans-30" x="95.410156"/>
       <use xlink:href="#DejaVuSans-30" x="159.033203"/>
       <use xlink:href="#DejaVuSans-30" x="222.65625"/>
       <use xlink:href="#DejaVuSans-30" x="286.279297"/>
       <use xlink:href="#DejaVuSans-30" x="349.902344"/>
      </g>
     </g>
    </g>
    <g id="text_13">
     <!-- d$C_D$ / d$\delta_e$ -->
     <g transform="translate(21.3755 115.32) rotate(-90) scale(0.1 -0.1)">
      <defs>
       <path id="DejaVuSans-64" d="M 2906 2969 
L 2906 4863 
L 3481 4863 
L 3481 0 
L 2906 0 
L 2906 525 
Q 2725 213 2448 61 
Q 2172 -91 1784 -91 
Q 1150 -91 751 415 
Q 353 922 353 1747 
Q 353 2572 751 3078 
Q 1150 3584 1784 3584 
Q 2172 3584 2448 3432 
Q 2725 3281 2906 2969 
z
M 947 1747 
Q 947 1113 1208 752 
Q 1469 391 1925 391 
Q 2381 391 2643 752 
Q 2906 1113 2906 1747 
Q 2906 2381 2643 2742 
Q 2381 3103 1925 3103 
Q 1469 3103 1208 2742 
Q 947 2381 947 1747 
z
" transform="scale(0.015625)"/>
       <path id="DejaVuSans-Oblique-43" d="M 4447 4306 
L 4319 3641 
Q 4019 3944 3683 4091 
Q 3347 4238 2956 4238 
Q 2422 4238 2017 3981 
Q 1613 3725 1319 3200 
Q 1131 2863 1032 2486 
Q 934 2109 934 1728 
Q 934 1091 1264 756 
Q 1594 422 2222 422 
Q 2656 422 3056 561 
Q 3456 700 3834 978 
L 3688 231 
Q 3316 72 2936 -9 
Q 2556 -91 2175 -91 
Q 1278 -91 773 396 
Q 269 884 269 1753 
Q 269 2309 461 2846 
Q 653 3384 1013 3828 
Q 1394 4300 1883 4525 
Q 2372 4750 3022 4750 
Q 3422 4750 3780 4639 
Q 4138 4528 4447 4306 
z
" transform="scale(0.015625)"/>
       <path id="DejaVuSans-Oblique-44" d="M 1081 4666 
L 2438 4666 
Q 3519 4666 4070 4208 
Q 4622 3750 4622 2847 
Q 4622 2250 4412 1698 
Q 4203 1147 3834 769 
Q 3463 381 2891 190 
Q 2319 0 1538 0 
L 172 0 
L 1081 4666 
z
M 1613 4147 
L 909 519 
L 1734 519 
Q 2794 519 3375 1128 
Q 3956 1738 3956 2847 
Q 3956 3519 3581 3833 
Q 3206 4147 2406 4147 
L 1613 4147 
z
" transform="scale(0.015625)"/>
       <path id="DejaVuSans-20" transform="scale(0.015625)"/>
       <path id="DejaVuSans-2f" d="M 1625 4666 
L 2156 4666 
L 531 -594 
L 0 -594 
L 1625 4666 
z
" transform="scale(0.015625)"/>
       <path id="DejaVuSans-Oblique-3b4" d="M 3472 4053 
Q 3197 4272 2450 4272 
Q 1659 4272 1588 3906 
Q 1531 3619 2328 3469 
Q 2953 3353 3253 3003 
Q 3616 2581 3447 1716 
Q 3284 888 2763 400 
Q 2238 -91 1488 -91 
Q 741 -91 406 400 
Q 72 888 241 1747 
Q 363 2384 891 2900 
Q 1097 3100 1353 3213 
Q 913 3459 1000 3900 
Q 1166 4750 2544 4750 
Q 3234 4750 3566 4531 
L 3472 4053 
z
M 1753 3056 
Q 1525 2966 1306 2738 
Q 969 2384 847 1747 
Q 722 1113 919 756 
Q 1119 397 1584 397 
Q 2044 397 2381 759 
Q 2722 1122 2838 1716 
Q 2956 2338 2731 2638 
Q 2491 2959 2103 2994 
Q 1906 3013 1753 3056 
z
" transform="scale(0.015625)"/>
       <path id="DejaVuSans-Oblique-65" d="M 3078 2063 
Q 3088 2113 3092 2166 
Q 3097 2219 3097 2272 
Q 3097 2653 2873 2875 
Q 2650 3097 2266 3097 
Q 1838 3097 1509 2826 
Q 1181 2556 1013 2059 
L 3078 2063 
z
M 3578 1613 
L 903 1613 
Q 884 1494 878 1425 
Q 872 1356 872 1306 
Q 872 872 1139 634 
Q 1406 397 1894 397 
Q 2269 397 2603 481 
Q 2938 566 3225 728 
L 3116 159 
Q 2806 34 2476 -28 
Q 2147 -91 1806 -91 
Q 1078 -91 686 257 
Q 294 606 294 1247 
Q 294 1794 489 2264 
Q 684 2734 1063 3103 
Q 1306 3334 1642 3459 
Q 1978 3584 2356 3584 
Q 2950 3584 3301 3228 
Q 3653 2872 3653 2272 
Q 3653 2128 3634 1964 
Q 3616 1800 3578 1613 
z
" transform="scale(0.015625)"/>
      </defs>
      <use xlink:href="#DejaVuSans-64" transform="translate(0 0.015625)"/>
      <use xlink:href="#DejaVuSans-Oblique-43" transform="translate(63.476562 0.015625)"/>
      <use xlink:href="#DejaVuSans-Oblique-44" transform="translate(133.300781 -16.390625) scale(0.7)"/>
      <use xlink:href="#DejaVuSans-20" transform="translate(189.936523 0.015625)"/>
      <use xlink:href="#DejaVuSans-2f" transform="translate(221.723633 0.015625)"/>
      <use xlink:href="#DejaVuSans-20" transform="translate(255.415039 0.015625)"/>
      <use xlink:href="#DejaVuSans-64" transform="translate(287.202148 0.015625)"/>
      <use xlink:href="#DejaVuSans-Oblique-3b4" transform="translate(350.678711 0.015625)"/>
      <use xlink:href="#DejaVuSans-Oblique-65" transform="translate(411.860352 -16.390625) scale(0.7)"/>
     </g>
    </g>
   </g>
   <g id="line2d_23">
    <path d="M 100.82742 91.170782 
L 104.188919 88.741207 
L 107.550418 86.358881 
L 110.911918 84.023803 
L 114.273417 81.735972 
L 117.634916 79.49539 
L 120.996415 77.302056 
L 124.357914 75.15597 
L 127.719413 73.057132 
L 131.080912 71.005542 
L 134.442411 69.0012 
L 137.80391 67.044106 
L 141.165409 65.13426 
L 144.526908 63.271662 
L 147.888407 61.456312 
L 151.249906 59.68821 
L 154.611405 57.967356 
L 157.972904 56.29375 
L 161.334403 54.667392 
L 164.695902 53.088283 
L 168.057402 51.556421 
L 171.418901 50.071807 
L 174.7804 48.634442 
L 178.141899 47.244324 
L 181.503398 45.901454 
L 184.864897 44.605833 
L 188.226396 43.357459 
L 191.587895 42.156334 
L 194.949394 41.002457 
L 198.310893 39.895827 
L 201.672392 38.836446 
L 205.033891 37.824312 
L 208.39539 36.859427 
L 211.756889 35.94179 
L 215.118388 35.071401 
L 218.479887 34.24826 
L 221.841386 33.472366 
L 225.202885 32.743721 
L 228.564385 32.062324 
L 231.925884 31.428175 
L 235.287383 30.841274 
L 238.648882 30.301621 
L 242.010381 29.809216 
L 245.37188 29.364059 
L 248.733379 28.96615 
L 252.094878 28.61549 
L 255.456377 28.312077 
L 258.817876 28.055912 
L 262.179375 27.846995 
L 265.540874 27.685326 
L 268.902373 27.570906 
L 272.263872 27.503733 
L 275.625371 27.483809 
L 278.98687 27.511132 
L 282.348369 27.585703 
L 285.709869 27.707523 
L 289.071368 27.876591 
L 292.432867 28.092906 
L 295.794366 28.35647 
L 299.155865 28.667281 
L 302.517364 29.025341 
L 305.878863 29.430649 
L 309.240362 29.883204 
L 312.601861 30.383008 
L 315.96336 30.93006 
L 319.324859 31.52436 
L 322.686358 32.165908 
L 326.047857 32.854704 
L 329.409356 33.590748 
L 332.770855 34.37404 
L 336.132354 35.20458 
L 339.493853 36.082368 
L 342.855353 37.007404 
L 346.216852 37.979688 
L 349.578351 38.99922 
L 352.93985 40.066 
L 356.301349 41.180029 
L 359.662848 42.341305 
L 363.024347 43.549829 
L 366.385846 44.805601 
L 369.747345 46.108622 
L 373.108844 47.45889 
L 376.470343 48.856407 
L 379.831842 50.301171 
L 383.193341 51.793184 
L 386.55484 53.332444 
L 389.916339 54.918953 
L 393.277838 56.552709 
L 396.639337 58.233714 
L 400.000837 59.961967 
L 403.362336 61.737467 
L 406.723835 63.560216 
L 410.085334 65.430213 
L 413.446833 67.347458 
L 416.808332 69.311951 
L 420.169831 71.323691 
L 423.53133 73.38268 
L 426.892829 75.488917 
L 430.254328 77.642402 
L 433.615827 79.843135 
" clip-path="url(#p9c66c2924f)" style="fill: none; stroke: #000080; stroke-width: 1.5; stroke-linecap: square"/>
   </g>
   <g id="line2d_24">
    <path d="M 100.82742 68.835077 
L 104.188919 68.15462 
L 107.550418 67.484473 
L 110.911918 66.824635 
L 114.273417 66.175107 
L 117.634916 65.535889 
L 120.996415 64.906981 
L 124.357914 64.288382 
L 127.719413 63.680093 
L 131.080912 63.082114 
L 134.442411 62.494444 
L 137.80391 61.917084 
L 141.165409 61.350034 
L 144.526908 60.793293 
L 147.888407 60.246862 
L 151.249906 59.710741 
L 154.611405 59.184929 
L 157.972904 58.669428 
L 161.334403 58.164236 
L 164.695902 57.669353 
L 168.057402 57.18478 
L 171.418901 56.710517 
L 174.7804 56.246564 
L 178.141899 55.792921 
L 181.503398 55.349587 
L 184.864897 54.916563 
L 188.226396 54.493848 
L 191.587895 54.081443 
L 194.949394 53.679348 
L 198.310893 53.287563 
L 201.672392 52.906087 
L 205.033891 52.534921 
L 208.39539 52.174065 
L 211.756889 51.823518 
L 215.118388 51.483281 
L 218.479887 51.153354 
L 221.841386 50.833737 
L 225.202885 50.524429 
L 228.564385 50.225431 
L 231.925884 49.936743 
L 235.287383 49.658364 
L 238.648882 49.390295 
L 242.010381 49.132536 
L 245.37188 48.885086 
L 248.733379 48.647946 
L 252.094878 48.421116 
L 255.456377 48.204596 
L 258.817876 47.998385 
L 262.179375 47.802484 
L 265.540874 47.616892 
L 268.902373 47.441611 
L 272.263872 47.276639 
L 275.625371 47.121976 
L 278.98687 46.977624 
L 282.348369 46.843581 
L 285.709869 46.719848 
L 289.071368 46.606424 
L 292.432867 46.503311 
L 295.794366 46.410507 
L 299.155865 46.328012 
L 302.517364 46.255827 
L 305.878863 46.193953 
L 309.240362 46.142387 
L 312.601861 46.101132 
L 315.96336 46.070186 
L 319.324859 46.04955 
L 322.686358 46.039223 
L 326.047857 46.039206 
L 329.409356 46.049499 
L 332.770855 46.070102 
L 336.132354 46.101014 
L 339.493853 46.142236 
L 342.855353 46.193768 
L 346.216852 46.25561 
L 349.578351 46.327761 
L 352.93985 46.410222 
L 356.301349 46.502992 
L 359.662848 46.606072 
L 363.024347 46.719462 
L 366.385846 46.843162 
L 369.747345 46.977171 
L 373.108844 47.12149 
L 376.470343 47.276119 
L 379.831842 47.441058 
L 383.193341 47.616306 
L 386.55484 47.801864 
L 389.916339 47.997731 
L 393.277838 48.203908 
L 396.639337 48.420395 
L 400.000837 48.647192 
L 403.362336 48.884298 
L 406.723835 49.131714 
L 410.085334 49.38944 
L 413.446833 49.657475 
L 416.808332 49.935821 
L 420.169831 50.224475 
L 423.53133 50.52344 
L 426.892829 50.832714 
L 430.254328 51.152298 
L 433.615827 51.482192 
" clip-path="url(#p9c66c2924f)" style="fill: none; stroke: #0080ff; stroke-width: 1.5; stroke-linecap: square"/>
   </g>
   <g id="line2d_25">
    <path d="M 100.82742 62.665282 
L 104.188919 62.34077 
L 107.550418 62.021607 
L 110.911918 61.707795 
L 114.273417 61.399333 
L 117.634916 61.096221 
L 120.996415 60.798458 
L 124.357914 60.506046 
L 127.719413 60.218984 
L 131.080912 59.937271 
L 134.442411 59.660909 
L 137.80391 59.389896 
L 141.165409 59.124234 
L 144.526908 58.863922 
L 147.888407 58.608959 
L 151.249906 58.359347 
L 154.611405 58.115084 
L 157.972904 57.876172 
L 161.334403 57.642609 
L 164.695902 57.414397 
L 168.057402 57.191534 
L 171.418901 56.974022 
L 174.7804 56.761859 
L 178.141899 56.555047 
L 181.503398 56.353584 
L 184.864897 56.157472 
L 188.226396 55.966709 
L 191.587895 55.781297 
L 194.949394 55.601234 
L 198.310893 55.426521 
L 201.672392 55.257159 
L 205.033891 55.093146 
L 208.39539 54.934483 
L 211.756889 54.781171 
L 215.118388 54.633208 
L 218.479887 54.490595 
L 221.841386 54.353333 
L 225.202885 54.22142 
L 228.564385 54.094857 
L 231.925884 53.973644 
L 235.287383 53.857782 
L 238.648882 53.747269 
L 242.010381 53.642106 
L 245.37188 53.542293 
L 248.733379 53.44783 
L 252.094878 53.358718 
L 255.456377 53.274955 
L 258.817876 53.196542 
L 262.179375 53.123479 
L 265.540874 53.055766 
L 268.902373 52.993403 
L 272.263872 52.93639 
L 275.625371 52.884727 
L 278.98687 52.838415 
L 282.348369 52.797452 
L 285.709869 52.761839 
L 289.071368 52.731576 
L 292.432867 52.706663 
L 295.794366 52.6871 
L 299.155865 52.672887 
L 302.517364 52.664024 
L 305.878863 52.660511 
L 309.240362 52.662347 
L 312.601861 52.669534 
L 315.96336 52.682071 
L 319.324859 52.699958 
L 322.686358 52.723195 
L 326.047857 52.751782 
L 329.409356 52.785719 
L 332.770855 52.825006 
L 336.132354 52.869642 
L 339.493853 52.919629 
L 342.855353 52.974966 
L 346.216852 53.035653 
L 349.578351 53.10169 
L 352.93985 53.173076 
L 356.301349 53.249813 
L 359.662848 53.3319 
L 363.024347 53.419337 
L 366.385846 53.512123 
L 369.747345 53.61026 
L 373.108844 53.713747 
L 376.470343 53.822583 
L 379.831842 53.93677 
L 383.193341 54.056307 
L 386.55484 54.181193 
L 389.916339 54.31143 
L 393.277838 54.447017 
L 396.639337 54.587953 
L 400.000837 54.73424 
L 403.362336 54.885876 
L 406.723835 55.042863 
L 410.085334 55.205199 
L 413.446833 55.372886 
L 416.808332 55.545922 
L 420.169831 55.724309 
L 423.53133 55.908045 
L 426.892829 56.097132 
L 430.254328 56.291568 
L 433.615827 56.491355 
" clip-path="url(#p9c66c2924f)" style="fill: none; stroke: #7dff7a; stroke-width: 1.5; stroke-linecap: square"/>
   </g>
   <g id="line2d_26">
    <path d="M 100.82742 72.661396 
L 104.188919 71.299656 
L 107.550418 69.970284 
L 110.911918 68.673282 
L 114.273417 67.408649 
L 117.634916 66.176384 
L 120.996415 64.976488 
L 124.357914 63.808962 
L 127.719413 62.673804 
L 131.080912 61.571015 
L 134.442411 60.500595 
L 137.80391 59.462543 
L 141.165409 58.456861 
L 144.526908 57.483548 
L 147.888407 56.542603 
L 151.249906 55.634028 
L 154.611405 54.757821 
L 157.972904 53.913983 
L 161.334403 53.102514 
L 164.695902 52.323414 
L 168.057402 51.576683 
L 171.418901 50.862321 
L 174.7804 50.180327 
L 178.141899 49.530703 
L 181.503398 48.913447 
L 184.864897 48.328561 
L 188.226396 47.776043 
L 191.587895 47.255894 
L 194.949394 46.768114 
L 198.310893 46.312703 
L 201.672392 45.889661 
L 205.033891 45.498987 
L 208.39539 45.140683 
L 211.756889 44.814747 
L 215.118388 44.521181 
L 218.479887 44.259983 
L 221.841386 44.031154 
L 225.202885 43.834694 
L 228.564385 43.670603 
L 231.925884 43.538881 
L 235.287383 43.439527 
L 238.648882 43.372543 
L 242.010381 43.337928 
L 245.37188 43.335681 
L 248.733379 43.365803 
L 252.094878 43.428294 
L 255.456377 43.523154 
L 258.817876 43.650383 
L 262.179375 43.809981 
L 265.540874 44.001948 
L 268.902373 44.226284 
L 272.263872 44.482988 
L 275.625371 44.772062 
L 278.98687 45.093504 
L 282.348369 45.447315 
L 285.709869 45.833495 
L 289.071368 46.252044 
L 292.432867 46.702962 
L 295.794366 47.186249 
L 299.155865 47.701905 
L 302.517364 48.249929 
L 305.878863 48.830323 
L 309.240362 49.443085 
L 312.601861 50.088216 
L 315.96336 50.765716 
L 319.324859 51.475585 
L 322.686358 52.217823 
L 326.047857 52.99243 
L 329.409356 53.799406 
L 332.770855 54.638751 
L 336.132354 55.510464 
L 339.493853 56.414546 
L 342.855353 57.350998 
L 346.216852 58.319818 
L 349.578351 59.321007 
L 352.93985 60.354565 
L 356.301349 61.420492 
L 359.662848 62.518788 
L 363.024347 63.649452 
L 366.385846 64.812486 
L 369.747345 66.007888 
L 373.108844 67.23566 
L 376.470343 68.4958 
L 379.831842 69.788309 
L 383.193341 71.113187 
L 386.55484 72.470434 
L 389.916339 73.86005 
L 393.277838 75.282034 
L 396.639337 76.736388 
L 400.000837 78.22311 
L 403.362336 79.742202 
L 406.723835 81.293662 
L 410.085334 82.877491 
L 413.446833 84.493689 
L 416.808332 86.142256 
L 420.169831 87.823192 
L 423.53133 89.536497 
L 426.892829 91.28217 
L 430.254328 93.060213 
L 433.615827 94.870624 
" clip-path="url(#p9c66c2924f)" style="fill: none; stroke: #ff9400; stroke-width: 1.5; stroke-linecap: square"/>
   </g>
   <g id="line2d_27">
    <path d="M 100.82742 98.823419 
L 104.188919 95.031278 
L 107.550418 91.330504 
L 110.911918 87.721096 
L 114.273417 84.203055 
L 117.634916 80.77638 
L 120.996415 77.441071 
L 124.357914 74.197129 
L 127.719413 71.044553 
L 131.080912 67.983344 
L 134.442411 65.013501 
L 137.80391 62.135025 
L 141.165409 59.347915 
L 144.526908 56.652171 
L 147.888407 54.047794 
L 151.249906 51.534783 
L 154.611405 49.113139 
L 157.972904 46.782861 
L 161.334403 44.54395 
L 164.695902 42.396405 
L 168.057402 40.340226 
L 171.418901 38.375414 
L 174.7804 36.501968 
L 178.141899 34.719889 
L 181.503398 33.029176 
L 184.864897 31.429829 
L 188.226396 29.921849 
L 191.587895 28.505235 
L 194.949394 27.179988 
L 198.310893 25.946107 
L 201.672392 24.803593 
L 205.033891 23.752445 
L 208.39539 22.792663 
L 211.756889 21.924248 
L 215.118388 21.147199 
L 218.479887 20.461517 
L 221.841386 19.867201 
L 225.202885 19.364251 
L 228.564385 18.952668 
L 231.925884 18.632451 
L 235.287383 18.403601 
L 238.648882 18.266117 
L 242.010381 18.22 
L 245.37188 18.265249 
L 248.733379 18.401864 
L 252.094878 18.629846 
L 255.456377 18.949195 
L 258.817876 19.359909 
L 262.179375 19.86199 
L 265.540874 20.455438 
L 268.902373 21.140252 
L 272.263872 21.916432 
L 275.625371 22.783979 
L 278.98687 23.742892 
L 282.348369 24.793172 
L 285.709869 25.934818 
L 289.071368 27.16783 
L 292.432867 28.492209 
L 295.794366 29.907955 
L 299.155865 31.415066 
L 302.517364 33.013544 
L 305.878863 34.703389 
L 309.240362 36.4846 
L 312.601861 38.357177 
L 315.96336 40.321121 
L 319.324859 42.376432 
L 322.686358 44.523108 
L 326.047857 46.761151 
L 329.409356 49.090561 
L 332.770855 51.511337 
L 336.132354 54.023479 
L 339.493853 56.626988 
L 342.855353 59.321863 
L 346.216852 62.108105 
L 349.578351 64.985713 
L 352.93985 67.954687 
L 356.301349 71.015028 
L 359.662848 74.166735 
L 363.024347 77.409809 
L 366.385846 80.744249 
L 369.747345 84.170056 
L 373.108844 87.687229 
L 376.470343 91.295768 
L 379.831842 94.995674 
L 383.193341 98.786946 
L 386.55484 102.669585 
L 389.916339 106.64359 
L 393.277838 110.708961 
L 396.639337 114.865699 
L 400.000837 119.113804 
L 403.362336 123.453274 
L 406.723835 127.884112 
L 410.085334 132.406315 
L 413.446833 137.019885 
L 416.808332 141.724822 
L 420.169831 146.521124 
L 423.53133 151.408794 
L 426.892829 156.387829 
L 430.254328 161.458231 
L 433.615827 166.62 
" clip-path="url(#p9c66c2924f)" style="fill: none; stroke: #800000; stroke-width: 1.5; stroke-linecap: square"/>
   </g>
   <g id="patch_3">
    <path d="M 84.188 174.04 
L 84.188 10.8 
" style="fill: none; stroke: #000000; stroke-width: 0.8; stroke-linejoin: miter; stroke-linecap: square"/>
   </g>
   <g id="patch_4">
    <path d="M 450.255247 174.04 
L 450.255247 10.8 
" style="fill: none; stroke: #000000; stroke-width: 0.8; stroke-linejoin: miter; stroke-linecap: square"/>
   </g>
   <g id="patch_5">
    <path d="M 84.188 174.04 
L 450.255247 174.04 
" style="fill: none; stroke: #000000; stroke-width: 0.8; stroke-linejoin: miter; stroke-linecap: square"/>
   </g>
   <g id="patch_6">
    <path d="M 84.188 10.8 
L 450.255247 10.8 
" style="fill: none; stroke: #000000; stroke-width: 0.8; stroke-linejoin: miter; stroke-linecap: square"/>
   </g>
   <g id="legend_1">
    <g id="patch_7">
     <path d="M 459.255247 162.878 
L 564.455247 162.878 
Q 566.455247 162.878 566.455247 160.878 
L 566.455247 88.385812 
Q 566.455247 86.385812 564.455247 86.385812 
L 459.255247 86.385812 
Q 457.255247 86.385812 457.255247 88.385812 
L 457.255247 160.878 
Q 457.255247 162.878 459.255247 162.878 
z
" style="fill: #4d4d4d; opacity: 0.5; stroke: #4d4d4d; stroke-linejoin: miter"/>
    </g>
    <g id="patch_8">
     <path d="M 457.255247 160.878 
L 562.455247 160.878 
Q 564.455247 160.878 564.455247 158.878 
L 564.455247 86.385812 
Q 564.455247 84.385812 562.455247 84.385812 
L 457.255247 84.385812 
Q 455.255247 84.385812 455.255247 86.385812 
L 455.255247 158.878 
Q 455.255247 160.878 457.255247 160.878 
z
" style="fill: #ffffff; stroke: #cccccc; stroke-linejoin: miter"/>
    </g>
    <g id="line2d_28">
     <path d="M 459.255247 92.48425 
L 469.255247 92.48425 
L 479.255247 92.48425 
" style="fill: none; stroke: #000080; stroke-width: 1.5; stroke-linecap: square"/>
    </g>
    <g id="text_14">
     <!-- $\delta_e = 0$, $J = 1.60$ -->
     <g transform="translate(487.255247 95.98425) scale(0.1 -0.1)">
      <defs>
       <path id="DejaVuSans-3d" d="M 678 2906 
L 4684 2906 
L 4684 2381 
L 678 2381 
L 678 2906 
z
M 678 1631 
L 4684 1631 
L 4684 1100 
L 678 1100 
L 678 1631 
z
" transform="scale(0.015625)"/>
       <path id="DejaVuSans-2c" d="M 750 794 
L 1409 794 
L 1409 256 
L 897 -744 
L 494 -744 
L 750 256 
L 750 794 
z
" transform="scale(0.015625)"/>
       <path id="DejaVuSans-Oblique-4a" d="M 1069 4666 
L 1703 4666 
L 856 325 
Q 691 -522 298 -901 
Q -94 -1281 -800 -1281 
L -1050 -1281 
L -947 -750 
L -750 -750 
Q -328 -750 -109 -509 
Q 109 -269 225 325 
L 1069 4666 
z
" transform="scale(0.015625)"/>
      </defs>
      <use xlink:href="#DejaVuSans-Oblique-3b4" transform="translate(0 0.78125)"/>
      <use xlink:href="#DejaVuSans-Oblique-65" transform="translate(61.181641 -15.625) scale(0.7)"/>
      <use xlink:href="#DejaVuSans-3d" transform="translate(126.464844 0.78125)"/>
      <use xlink:href="#DejaVuSans-30" transform="translate(229.736328 0.78125)"/>
      <use xlink:href="#DejaVuSans-2c" transform="translate(293.359375 0.78125)"/>
      <use xlink:href="#DejaVuSans-20" transform="translate(325.146484 0.78125)"/>
      <use xlink:href="#DejaVuSans-Oblique-4a" transform="translate(356.933594 0.78125)"/>
      <use xlink:href="#DejaVuSans-3d" transform="translate(405.908203 0.78125)"/>
      <use xlink:href="#DejaVuSans-31" transform="translate(509.179688 0.78125)"/>
      <use xlink:href="#DejaVuSans-2e" transform="translate(572.802734 0.78125)"/>
      <use xlink:href="#DejaVuSans-36" transform="translate(604.589844 0.78125)"/>
      <use xlink:href="#DejaVuSans-30" transform="translate(668.212891 0.78125)"/>
     </g>
    </g>
    <g id="line2d_29">
     <path d="M 459.255247 107.182688 
L 469.255247 107.182688 
L 479.255247 107.182688 
" style="fill: none; stroke: #0080ff; stroke-width: 1.5; stroke-linecap: square"/>
    </g>
    <g id="text_15">
     <!-- $\delta_e = 0$, $J = 1.80$ -->
     <g transform="translate(487.255247 110.682688) scale(0.1 -0.1)">
      <defs>
       <path id="DejaVuSans-38" d="M 2034 2216 
Q 1584 2216 1326 1975 
Q 1069 1734 1069 1313 
Q 1069 891 1326 650 
Q 1584 409 2034 409 
Q 2484 409 2743 651 
Q 3003 894 3003 1313 
Q 3003 1734 2745 1975 
Q 2488 2216 2034 2216 
z
M 1403 2484 
Q 997 2584 770 2862 
Q 544 3141 544 3541 
Q 544 4100 942 4425 
Q 1341 4750 2034 4750 
Q 2731 4750 3128 4425 
Q 3525 4100 3525 3541 
Q 3525 3141 3298 2862 
Q 3072 2584 2669 2484 
Q 3125 2378 3379 2068 
Q 3634 1759 3634 1313 
Q 3634 634 3220 271 
Q 2806 -91 2034 -91 
Q 1263 -91 848 271 
Q 434 634 434 1313 
Q 434 1759 690 2068 
Q 947 2378 1403 2484 
z
M 1172 3481 
Q 1172 3119 1398 2916 
Q 1625 2713 2034 2713 
Q 2441 2713 2670 2916 
Q 2900 3119 2900 3481 
Q 2900 3844 2670 4047 
Q 2441 4250 2034 4250 
Q 1625 4250 1398 4047 
Q 1172 3844 1172 3481 
z
" transform="scale(0.015625)"/>
      </defs>
      <use xlink:href="#DejaVuSans-Oblique-3b4" transform="translate(0 0.78125)"/>
      <use xlink:href="#DejaVuSans-Oblique-65" transform="translate(61.181641 -15.625) scale(0.7)"/>
      <use xlink:href="#DejaVuSans-3d" transform="translate(126.464844 0.78125)"/>
      <use xlink:href="#DejaVuSans-30" transform="translate(229.736328 0.78125)"/>
      <use xlink:href="#DejaVuSans-2c" transform="translate(293.359375 0.78125)"/>
      <use xlink:href="#DejaVuSans-20" transform="translate(325.146484 0.78125)"/>
      <use xlink:href="#DejaVuSans-Oblique-4a" transform="translate(356.933594 0.78125)"/>
      <use xlink:href="#DejaVuSans-3d" transform="translate(405.908203 0.78125)"/>
      <use xlink:href="#DejaVuSans-31" transform="translate(509.179688 0.78125)"/>
      <use xlink:href="#DejaVuSans-2e" transform="translate(572.802734 0.78125)"/>
      <use xlink:href="#DejaVuSans-38" transform="translate(601.964844 0.78125)"/>
      <use xlink:href="#DejaVuSans-30" transform="translate(665.587891 0.78125)"/>
     </g>
    </g>
    <g id="line2d_30">
     <path d="M 459.255247 121.881125 
L 469.255247 121.881125 
L 479.255247 121.881125 
" style="fill: none; stroke: #7dff7a; stroke-width: 1.5; stroke-linecap: square"/>
    </g>
    <g id="text_16">
     <!-- $\delta_e = 0$, $J = 2.00$ -->
     <g transform="translate(487.255247 125.381125) scale(0.1 -0.1)">
      <use xlink:href="#DejaVuSans-Oblique-3b4" transform="translate(0 0.78125)"/>
      <use xlink:href="#DejaVuSans-Oblique-65" transform="translate(61.181641 -15.625) scale(0.7)"/>
      <use xlink:href="#DejaVuSans-3d" transform="translate(126.464844 0.78125)"/>
      <use xlink:href="#DejaVuSans-30" transform="translate(229.736328 0.78125)"/>
      <use xlink:href="#DejaVuSans-2c" transform="translate(293.359375 0.78125)"/>
      <use xlink:href="#DejaVuSans-20" transform="translate(325.146484 0.78125)"/>
      <use xlink:href="#DejaVuSans-Oblique-4a" transform="translate(356.933594 0.78125)"/>
      <use xlink:href="#DejaVuSans-3d" transform="translate(405.908203 0.78125)"/>
      <use xlink:href="#DejaVuSans-32" transform="translate(509.179688 0.78125)"/>
      <use xlink:href="#DejaVuSans-2e" transform="translate(572.802734 0.78125)"/>
      <use xlink:href="#DejaVuSans-30" transform="translate(604.589844 0.78125)"/>
      <use xlink:href="#DejaVuSans-30" transform="translate(668.212891 0.78125)"/>
     </g>
    </g>
    <g id="line2d_31">
     <path d="M 459.255247 136.579563 
L 469.255247 136.579563 
L 479.255247 136.579563 
" style="fill: none; stroke: #ff9400; stroke-width: 1.5; stroke-linecap: square"/>
    </g>
    <g id="text_17">
     <!-- $\delta_e = 0$, $J = 2.20$ -->
     <g transform="translate(487.255247 140.079563) scale(0.1 -0.1)">
      <use xlink:href="#DejaVuSans-Oblique-3b4" transform="translate(0 0.78125)"/>
      <use xlink:href="#DejaVuSans-Oblique-65" transform="translate(61.181641 -15.625) scale(0.7)"/>
      <use xlink:href="#DejaVuSans-3d" transform="translate(126.464844 0.78125)"/>
      <use xlink:href="#DejaVuSans-30" transform="translate(229.736328 0.78125)"/>
      <use xlink:href="#DejaVuSans-2c" transform="translate(293.359375 0.78125)"/>
      <use xlink:href="#DejaVuSans-20" transform="translate(325.146484 0.78125)"/>
      <use xlink:href="#DejaVuSans-Oblique-4a" transform="translate(356.933594 0.78125)"/>
      <use xlink:href="#DejaVuSans-3d" transform="translate(405.908203 0.78125)"/>
      <use xlink:href="#DejaVuSans-32" transform="translate(509.179688 0.78125)"/>
      <use xlink:href="#DejaVuSans-2e" transform="translate(572.802734 0.78125)"/>
      <use xlink:href="#DejaVuSans-32" transform="translate(599.089844 0.78125)"/>
      <use xlink:href="#DejaVuSans-30" transform="translate(662.712891 0.78125)"/>
     </g>
    </g>
    <g id="line2d_32">
     <path d="M 459.255247 151.278 
L 469.255247 151.278 
L 479.255247 151.278 
" style="fill: none; stroke: #800000; stroke-width: 1.5; stroke-linecap: square"/>
    </g>
    <g id="text_18">
     <!-- $\delta_e = 0$, $J = 2.40$ -->
     <g transform="translate(487.255247 154.778) scale(0.1 -0.1)">
      <use xlink:href="#DejaVuSans-Oblique-3b4" transform="translate(0 0.78125)"/>
      <use xlink:href="#DejaVuSans-Oblique-65" transform="translate(61.181641 -15.625) scale(0.7)"/>
      <use xlink:href="#DejaVuSans-3d" transform="translate(126.464844 0.78125)"/>
      <use xlink:href="#DejaVuSans-30" transform="translate(229.736328 0.78125)"/>
      <use xlink:href="#DejaVuSans-2c" transform="translate(293.359375 0.78125)"/>
      <use xlink:href="#DejaVuSans-20" transform="translate(325.146484 0.78125)"/>
      <use xlink:href="#DejaVuSans-Oblique-4a" transform="translate(356.933594 0.78125)"/>
      <use xlink:href="#DejaVuSans-3d" transform="translate(405.908203 0.78125)"/>
      <use xlink:href="#DejaVuSans-32" transform="translate(509.179688 0.78125)"/>
      <use xlink:href="#DejaVuSans-2e" transform="translate(572.802734 0.78125)"/>
      <use xlink:href="#DejaVuSans-34" transform="translate(604.589844 0.78125)"/>
      <use xlink:href="#DejaVuSans-30" transform="translate(668.212891 0.78125)"/>
     </g>
    </g>
   </g>
  </g>
 </g>
 <defs>
  <clipPath id="p9c66c2924f">
   <rect x="84.188" y="10.8" width="366.067247" height="163.24"/>
  </clipPath>
 </defs>
</svg>
