<?xml version="1.0" encoding="utf-8" standalone="no"?>
<!DOCTYPE svg PUBLIC "-//W3C//DTD SVG 1.1//EN"
  "http://www.w3.org/Graphics/SVG/1.1/DTD/svg11.dtd">
<svg xmlns:xlink="http://www.w3.org/1999/xlink" width="432pt" height="216pt" viewBox="0 0 432 216" xmlns="http://www.w3.org/2000/svg" version="1.1">
 <metadata>
  <rdf:RDF xmlns:dc="http://purl.org/dc/elements/1.1/" xmlns:cc="http://creativecommons.org/ns#" xmlns:rdf="http://www.w3.org/1999/02/22-rdf-syntax-ns#">
   <cc:Work>
    <dc:type rdf:resource="http://purl.org/dc/dcmitype/StillImage"/>
    <dc:date>2025-03-28T12:13:06.433640</dc:date>
    <dc:format>image/svg+xml</dc:format>
    <dc:creator>
     <cc:Agent>
      <dc:title>Matplotlib v3.9.2, https://matplotlib.org/</dc:title>
     </cc:Agent>
    </dc:creator>
   </cc:Work>
  </rdf:RDF>
 </metadata>
 <defs>
  <style type="text/css">*{stroke-linejoin: round; stroke-linecap: butt}</style>
 </defs>
 <g id="figure_1">
  <g id="patch_1">
   <path d="M 0 216 
L 432 216 
L 432 0 
L 0 0 
z
" style="fill: #ffffff"/>
  </g>
  <g id="axes_1">
   <g id="patch_2">
    <path d="M 77.798 174.04 
L 306.255247 174.04 
L 306.255247 10.8 
L 77.798 10.8 
z
" style="fill: #ffffff"/>
   </g>
   <g id="matplotlib.axis_1">
    <g id="xtick_1">
     <g id="line2d_1">
      <path d="M 88.18242 174.04 
L 88.18242 10.8 
" clip-path="url(#p7730a2815b)" style="fill: none; stroke: #b0b0b0; stroke-width: 0.8; stroke-linecap: square"/>
     </g>
     <g id="line2d_2">
      <defs>
       <path id="md8584cea24" d="M 0 0 
L 0 3.5 
" style="stroke: #000000; stroke-width: 0.8"/>
      </defs>
      <g>
       <use xlink:href="#md8584cea24" x="88.18242" y="174.04" style="stroke: #000000; stroke-width: 0.8"/>
      </g>
     </g>
     <g id="text_1">
      <!-- −4 -->
      <g transform="translate(80.811327 188.638438) scale(0.1 -0.1)">
       <defs>
        <path id="DejaVuSans-2212" d="M 678 2272 
L 4684 2272 
L 4684 1741 
L 678 1741 
L 678 2272 
z
" transform="scale(0.015625)"/>
        <path id="DejaVuSans-34" d="M 2419 4116 
L 825 1625 
L 2419 1625 
L 2419 4116 
z
M 2253 4666 
L 3047 4666 
L 3047 1625 
L 3713 1625 
L 3713 1100 
L 3047 1100 
L 3047 0 
L 2419 0 
L 2419 1100 
L 313 1100 
L 313 1709 
L 2253 4666 
z
" transform="scale(0.015625)"/>
       </defs>
       <use xlink:href="#DejaVuSans-2212"/>
       <use xlink:href="#DejaVuSans-34" x="83.789062"/>
      </g>
     </g>
    </g>
    <g id="xtick_2">
     <g id="line2d_3">
      <path d="M 125.943949 174.04 
L 125.943949 10.8 
" clip-path="url(#p7730a2815b)" style="fill: none; stroke: #b0b0b0; stroke-width: 0.8; stroke-linecap: square"/>
     </g>
     <g id="line2d_4">
      <g>
       <use xlink:href="#md8584cea24" x="125.943949" y="174.04" style="stroke: #000000; stroke-width: 0.8"/>
      </g>
     </g>
     <g id="text_2">
      <!-- −2 -->
      <g transform="translate(118.572855 188.638438) scale(0.1 -0.1)">
       <defs>
        <path id="DejaVuSans-32" d="M 1228 531 
L 3431 531 
L 3431 0 
L 469 0 
L 469 531 
Q 828 903 1448 1529 
Q 2069 2156 2228 2338 
Q 2531 2678 2651 2914 
Q 2772 3150 2772 3378 
Q 2772 3750 2511 3984 
Q 2250 4219 1831 4219 
Q 1534 4219 1204 4116 
Q 875 4013 500 3803 
L 500 4441 
Q 881 4594 1212 4672 
Q 1544 4750 1819 4750 
Q 2544 4750 2975 4387 
Q 3406 4025 3406 3419 
Q 3406 3131 3298 2873 
Q 3191 2616 2906 2266 
Q 2828 2175 2409 1742 
Q 1991 1309 1228 531 
z
" transform="scale(0.015625)"/>
       </defs>
       <use xlink:href="#DejaVuSans-2212"/>
       <use xlink:href="#DejaVuSans-32" x="83.789062"/>
      </g>
     </g>
    </g>
    <g id="xtick_3">
     <g id="line2d_5">
      <path d="M 163.705477 174.04 
L 163.705477 10.8 
" clip-path="url(#p7730a2815b)" style="fill: none; stroke: #b0b0b0; stroke-width: 0.8; stroke-linecap: square"/>
     </g>
     <g id="line2d_6">
      <g>
       <use xlink:href="#md8584cea24" x="163.705477" y="174.04" style="stroke: #000000; stroke-width: 0.8"/>
      </g>
     </g>
     <g id="text_3">
      <!-- 0 -->
      <g transform="translate(160.524227 188.638438) scale(0.1 -0.1)">
       <defs>
        <path id="DejaVuSans-30" d="M 2034 4250 
Q 1547 4250 1301 3770 
Q 1056 3291 1056 2328 
Q 1056 1369 1301 889 
Q 1547 409 2034 409 
Q 2525 409 2770 889 
Q 3016 1369 3016 2328 
Q 3016 3291 2770 3770 
Q 2525 4250 2034 4250 
z
M 2034 4750 
Q 2819 4750 3233 4129 
Q 3647 3509 3647 2328 
Q 3647 1150 3233 529 
Q 2819 -91 2034 -91 
Q 1250 -91 836 529 
Q 422 1150 422 2328 
Q 422 3509 836 4129 
Q 1250 4750 2034 4750 
z
" transform="scale(0.015625)"/>
       </defs>
       <use xlink:href="#DejaVuSans-30"/>
      </g>
     </g>
    </g>
    <g id="xtick_4">
     <g id="line2d_7">
      <path d="M 201.467006 174.04 
L 201.467006 10.8 
" clip-path="url(#p7730a2815b)" style="fill: none; stroke: #b0b0b0; stroke-width: 0.8; stroke-linecap: square"/>
     </g>
     <g id="line2d_8">
      <g>
       <use xlink:href="#md8584cea24" x="201.467006" y="174.04" style="stroke: #000000; stroke-width: 0.8"/>
      </g>
     </g>
     <g id="text_4">
      <!-- 2 -->
      <g transform="translate(198.285756 188.638438) scale(0.1 -0.1)">
       <use xlink:href="#DejaVuSans-32"/>
      </g>
     </g>
    </g>
    <g id="xtick_5">
     <g id="line2d_9">
      <path d="M 239.228534 174.04 
L 239.228534 10.8 
" clip-path="url(#p7730a2815b)" style="fill: none; stroke: #b0b0b0; stroke-width: 0.8; stroke-linecap: square"/>
     </g>
     <g id="line2d_10">
      <g>
       <use xlink:href="#md8584cea24" x="239.228534" y="174.04" style="stroke: #000000; stroke-width: 0.8"/>
      </g>
     </g>
     <g id="text_5">
      <!-- 4 -->
      <g transform="translate(236.047284 188.638438) scale(0.1 -0.1)">
       <use xlink:href="#DejaVuSans-34"/>
      </g>
     </g>
    </g>
    <g id="xtick_6">
     <g id="line2d_11">
      <path d="M 276.990063 174.04 
L 276.990063 10.8 
" clip-path="url(#p7730a2815b)" style="fill: none; stroke: #b0b0b0; stroke-width: 0.8; stroke-linecap: square"/>
     </g>
     <g id="line2d_12">
      <g>
       <use xlink:href="#md8584cea24" x="276.990063" y="174.04" style="stroke: #000000; stroke-width: 0.8"/>
      </g>
     </g>
     <g id="text_6">
      <!-- 6 -->
      <g transform="translate(273.808813 188.638438) scale(0.1 -0.1)">
       <defs>
        <path id="DejaVuSans-36" d="M 2113 2584 
Q 1688 2584 1439 2293 
Q 1191 2003 1191 1497 
Q 1191 994 1439 701 
Q 1688 409 2113 409 
Q 2538 409 2786 701 
Q 3034 994 3034 1497 
Q 3034 2003 2786 2293 
Q 2538 2584 2113 2584 
z
M 3366 4563 
L 3366 3988 
Q 3128 4100 2886 4159 
Q 2644 4219 2406 4219 
Q 1781 4219 1451 3797 
Q 1122 3375 1075 2522 
Q 1259 2794 1537 2939 
Q 1816 3084 2150 3084 
Q 2853 3084 3261 2657 
Q 3669 2231 3669 1497 
Q 3669 778 3244 343 
Q 2819 -91 2113 -91 
Q 1303 -91 875 529 
Q 447 1150 447 2328 
Q 447 3434 972 4092 
Q 1497 4750 2381 4750 
Q 2619 4750 2861 4703 
Q 3103 4656 3366 4563 
z
" transform="scale(0.015625)"/>
       </defs>
       <use xlink:href="#DejaVuSans-36"/>
      </g>
     </g>
    </g>
    <g id="text_7">
     <!-- $\alpha$ -->
     <g transform="translate(188.726624 202.316563) scale(0.1 -0.1)">
      <defs>
       <path id="DejaVuSans-Oblique-3b1" d="M 2619 1628 
L 2622 2350 
Q 2625 3088 2069 3091 
Q 1653 3094 1394 2747 
Q 1069 2319 959 1747 
Q 825 1059 994 731 
Q 1169 397 1547 397 
Q 1966 397 2319 1063 
L 2619 1628 
z
M 2166 3578 
Q 3141 3594 3128 2584 
Q 3128 2584 3616 3500 
L 4128 3500 
L 3119 1603 
L 3109 919 
Q 3109 766 3194 638 
Q 3291 488 3391 488 
L 3669 488 
L 3575 0 
L 3228 0 
Q 2934 0 2722 263 
Q 2622 394 2619 669 
Q 2416 334 2066 50 
Q 1900 -81 1453 -78 
Q 722 -72 456 397 
Q 184 884 353 1747 
Q 534 2675 1009 3097 
Q 1544 3569 2166 3578 
z
" transform="scale(0.015625)"/>
      </defs>
      <use xlink:href="#DejaVuSans-Oblique-3b1" transform="translate(0 0.84375)"/>
     </g>
    </g>
   </g>
   <g id="matplotlib.axis_2">
    <g id="ytick_1">
     <g id="line2d_13">
      <path d="M 77.798 156.633839 
L 306.255247 156.633839 
" clip-path="url(#p7730a2815b)" style="fill: none; stroke: #b0b0b0; stroke-width: 0.8; stroke-linecap: square"/>
     </g>
     <g id="line2d_14">
      <defs>
       <path id="m300f213f81" d="M 0 0 
L -3.5 0 
" style="stroke: #000000; stroke-width: 0.8"/>
      </defs>
      <g>
       <use xlink:href="#m300f213f81" x="77.798" y="156.633839" style="stroke: #000000; stroke-width: 0.8"/>
      </g>
     </g>
     <g id="text_8">
      <!-- −0.0025 -->
      <g transform="translate(27.427687 160.433058) scale(0.1 -0.1)">
       <defs>
        <path id="DejaVuSans-2e" d="M 684 794 
L 1344 794 
L 1344 0 
L 684 0 
L 684 794 
z
" transform="scale(0.015625)"/>
        <path id="DejaVuSans-35" d="M 691 4666 
L 3169 4666 
L 3169 4134 
L 1269 4134 
L 1269 2991 
Q 1406 3038 1543 3061 
Q 1681 3084 1819 3084 
Q 2600 3084 3056 2656 
Q 3513 2228 3513 1497 
Q 3513 744 3044 326 
Q 2575 -91 1722 -91 
Q 1428 -91 1123 -41 
Q 819 9 494 109 
L 494 744 
Q 775 591 1075 516 
Q 1375 441 1709 441 
Q 2250 441 2565 725 
Q 2881 1009 2881 1497 
Q 2881 1984 2565 2268 
Q 2250 2553 1709 2553 
Q 1456 2553 1204 2497 
Q 953 2441 691 2322 
L 691 4666 
z
" transform="scale(0.015625)"/>
       </defs>
       <use xlink:href="#DejaVuSans-2212"/>
       <use xlink:href="#DejaVuSans-30" x="83.789062"/>
       <use xlink:href="#DejaVuSans-2e" x="147.412109"/>
       <use xlink:href="#DejaVuSans-30" x="179.199219"/>
       <use xlink:href="#DejaVuSans-30" x="242.822266"/>
       <use xlink:href="#DejaVuSans-32" x="306.445312"/>
       <use xlink:href="#DejaVuSans-35" x="370.068359"/>
      </g>
     </g>
    </g>
    <g id="ytick_2">
     <g id="line2d_15">
      <path d="M 77.798 131.380978 
L 306.255247 131.380978 
" clip-path="url(#p7730a2815b)" style="fill: none; stroke: #b0b0b0; stroke-width: 0.8; stroke-linecap: square"/>
     </g>
     <g id="line2d_16">
      <g>
       <use xlink:href="#m300f213f81" x="77.798" y="131.380978" style="stroke: #000000; stroke-width: 0.8"/>
      </g>
     </g>
     <g id="text_9">
      <!-- 0.0000 -->
      <g transform="translate(35.807375 135.180197) scale(0.1 -0.1)">
       <use xlink:href="#DejaVuSans-30"/>
       <use xlink:href="#DejaVuSans-2e" x="63.623047"/>
       <use xlink:href="#DejaVuSans-30" x="95.410156"/>
       <use xlink:href="#DejaVuSans-30" x="159.033203"/>
       <use xlink:href="#DejaVuSans-30" x="222.65625"/>
       <use xlink:href="#DejaVuSans-30" x="286.279297"/>
      </g>
     </g>
    </g>
    <g id="ytick_3">
     <g id="line2d_17">
      <path d="M 77.798 106.128117 
L 306.255247 106.128117 
" clip-path="url(#p7730a2815b)" style="fill: none; stroke: #b0b0b0; stroke-width: 0.8; stroke-linecap: square"/>
     </g>
     <g id="line2d_18">
      <g>
       <use xlink:href="#m300f213f81" x="77.798" y="106.128117" style="stroke: #000000; stroke-width: 0.8"/>
      </g>
     </g>
     <g id="text_10">
      <!-- 0.0025 -->
      <g transform="translate(35.807375 109.927336) scale(0.1 -0.1)">
       <use xlink:href="#DejaVuSans-30"/>
       <use xlink:href="#DejaVuSans-2e" x="63.623047"/>
       <use xlink:href="#DejaVuSans-30" x="95.410156"/>
       <use xlink:href="#DejaVuSans-30" x="159.033203"/>
       <use xlink:href="#DejaVuSans-32" x="222.65625"/>
       <use xlink:href="#DejaVuSans-35" x="286.279297"/>
      </g>
     </g>
    </g>
    <g id="ytick_4">
     <g id="line2d_19">
      <path d="M 77.798 80.875256 
L 306.255247 80.875256 
" clip-path="url(#p7730a2815b)" style="fill: none; stroke: #b0b0b0; stroke-width: 0.8; stroke-linecap: square"/>
     </g>
     <g id="line2d_20">
      <g>
       <use xlink:href="#m300f213f81" x="77.798" y="80.875256" style="stroke: #000000; stroke-width: 0.8"/>
      </g>
     </g>
     <g id="text_11">
      <!-- 0.0050 -->
      <g transform="translate(35.807375 84.674475) scale(0.1 -0.1)">
       <use xlink:href="#DejaVuSans-30"/>
       <use xlink:href="#DejaVuSans-2e" x="63.623047"/>
       <use xlink:href="#DejaVuSans-30" x="95.410156"/>
       <use xlink:href="#DejaVuSans-30" x="159.033203"/>
       <use xlink:href="#DejaVuSans-35" x="222.65625"/>
       <use xlink:href="#DejaVuSans-30" x="286.279297"/>
      </g>
     </g>
    </g>
    <g id="ytick_5">
     <g id="line2d_21">
      <path d="M 77.798 55.622395 
L 306.255247 55.622395 
" clip-path="url(#p7730a2815b)" style="fill: none; stroke: #b0b0b0; stroke-width: 0.8; stroke-linecap: square"/>
     </g>
     <g id="line2d_22">
      <g>
       <use xlink:href="#m300f213f81" x="77.798" y="55.622395" style="stroke: #000000; stroke-width: 0.8"/>
      </g>
     </g>
     <g id="text_12">
      <!-- 0.0075 -->
      <g transform="translate(35.807375 59.421614) scale(0.1 -0.1)">
       <defs>
        <path id="DejaVuSans-37" d="M 525 4666 
L 3525 4666 
L 3525 4397 
L 1831 0 
L 1172 0 
L 2766 4134 
L 525 4134 
L 525 4666 
z
" transform="scale(0.015625)"/>
       </defs>
       <use xlink:href="#DejaVuSans-30"/>
       <use xlink:href="#DejaVuSans-2e" x="63.623047"/>
       <use xlink:href="#DejaVuSans-30" x="95.410156"/>
       <use xlink:href="#DejaVuSans-30" x="159.033203"/>
       <use xlink:href="#DejaVuSans-37" x="222.65625"/>
       <use xlink:href="#DejaVuSans-35" x="286.279297"/>
      </g>
     </g>
    </g>
    <g id="ytick_6">
     <g id="line2d_23">
      <path d="M 77.798 30.369534 
L 306.255247 30.369534 
" clip-path="url(#p7730a2815b)" style="fill: none; stroke: #b0b0b0; stroke-width: 0.8; stroke-linecap: square"/>
     </g>
     <g id="line2d_24">
      <g>
       <use xlink:href="#m300f213f81" x="77.798" y="30.369534" style="stroke: #000000; stroke-width: 0.8"/>
      </g>
     </g>
     <g id="text_13">
      <!-- 0.0100 -->
      <g transform="translate(35.807375 34.168753) scale(0.1 -0.1)">
       <defs>
        <path id="DejaVuSans-31" d="M 794 531 
L 1825 531 
L 1825 4091 
L 703 3866 
L 703 4441 
L 1819 4666 
L 2450 4666 
L 2450 531 
L 3481 531 
L 3481 0 
L 794 0 
L 794 531 
z
" transform="scale(0.015625)"/>
       </defs>
       <use xlink:href="#DejaVuSans-30"/>
       <use xlink:href="#DejaVuSans-2e" x="63.623047"/>
       <use xlink:href="#DejaVuSans-30" x="95.410156"/>
       <use xlink:href="#DejaVuSans-31" x="159.033203"/>
       <use xlink:href="#DejaVuSans-30" x="222.65625"/>
       <use xlink:href="#DejaVuSans-30" x="286.279297"/>
      </g>
     </g>
    </g>
    <g id="text_14">
     <!-- d$C_D$ / d$\alpha$ -->
     <g transform="translate(21.348 113.27) rotate(-90) scale(0.1 -0.1)">
      <defs>
       <path id="DejaVuSans-64" d="M 2906 2969 
L 2906 4863 
L 3481 4863 
L 3481 0 
L 2906 0 
L 2906 525 
Q 2725 213 2448 61 
Q 2172 -91 1784 -91 
Q 1150 -91 751 415 
Q 353 922 353 1747 
Q 353 2572 751 3078 
Q 1150 3584 1784 3584 
Q 2172 3584 2448 3432 
Q 2725 3281 2906 2969 
z
M 947 1747 
Q 947 1113 1208 752 
Q 1469 391 1925 391 
Q 2381 391 2643 752 
Q 2906 1113 2906 1747 
Q 2906 2381 2643 2742 
Q 2381 3103 1925 3103 
Q 1469 3103 1208 2742 
Q 947 2381 947 1747 
z
" transform="scale(0.015625)"/>
       <path id="DejaVuSans-Oblique-43" d="M 4447 4306 
L 4319 3641 
Q 4019 3944 3683 4091 
Q 3347 4238 2956 4238 
Q 2422 4238 2017 3981 
Q 1613 3725 1319 3200 
Q 1131 2863 1032 2486 
Q 934 2109 934 1728 
Q 934 1091 1264 756 
Q 1594 422 2222 422 
Q 2656 422 3056 561 
Q 3456 700 3834 978 
L 3688 231 
Q 3316 72 2936 -9 
Q 2556 -91 2175 -91 
Q 1278 -91 773 396 
Q 269 884 269 1753 
Q 269 2309 461 2846 
Q 653 3384 1013 3828 
Q 1394 4300 1883 4525 
Q 2372 4750 3022 4750 
Q 3422 4750 3780 4639 
Q 4138 4528 4447 4306 
z
" transform="scale(0.015625)"/>
       <path id="DejaVuSans-Oblique-44" d="M 1081 4666 
L 2438 4666 
Q 3519 4666 4070 4208 
Q 4622 3750 4622 2847 
Q 4622 2250 4412 1698 
Q 4203 1147 3834 769 
Q 3463 381 2891 190 
Q 2319 0 1538 0 
L 172 0 
L 1081 4666 
z
M 1613 4147 
L 909 519 
L 1734 519 
Q 2794 519 3375 1128 
Q 3956 1738 3956 2847 
Q 3956 3519 3581 3833 
Q 3206 4147 2406 4147 
L 1613 4147 
z
" transform="scale(0.015625)"/>
       <path id="DejaVuSans-20" transform="scale(0.015625)"/>
       <path id="DejaVuSans-2f" d="M 1625 4666 
L 2156 4666 
L 531 -594 
L 0 -594 
L 1625 4666 
z
" transform="scale(0.015625)"/>
      </defs>
      <use xlink:href="#DejaVuSans-64" transform="translate(0 0.015625)"/>
      <use xlink:href="#DejaVuSans-Oblique-43" transform="translate(63.476562 0.015625)"/>
      <use xlink:href="#DejaVuSans-Oblique-44" transform="translate(133.300781 -16.390625) scale(0.7)"/>
      <use xlink:href="#DejaVuSans-20" transform="translate(189.936523 0.015625)"/>
      <use xlink:href="#DejaVuSans-2f" transform="translate(221.723633 0.015625)"/>
      <use xlink:href="#DejaVuSans-20" transform="translate(255.415039 0.015625)"/>
      <use xlink:href="#DejaVuSans-64" transform="translate(287.202148 0.015625)"/>
      <use xlink:href="#DejaVuSans-Oblique-3b1" transform="translate(350.678711 0.015625)"/>
     </g>
    </g>
   </g>
   <g id="line2d_25">
    <path d="M 88.18242 157.356354 
L 90.280283 155.955944 
L 92.378146 154.555432 
L 94.476008 153.154818 
L 96.573871 151.754102 
L 98.671734 150.353284 
L 100.769597 148.952363 
L 102.867459 147.55134 
L 104.965322 146.150215 
L 107.063185 144.748988 
L 109.161047 143.347658 
L 111.25891 141.946226 
L 113.356773 140.544693 
L 115.454635 139.143056 
L 117.552498 137.741318 
L 119.650361 136.339478 
L 121.748223 134.937535 
L 123.846086 133.53549 
L 125.943949 132.133343 
L 128.041812 130.731094 
L 130.139674 129.328742 
L 132.237537 127.926288 
L 134.3354 126.523732 
L 136.433262 125.121074 
L 138.531125 123.718314 
L 140.628988 122.315451 
L 142.72685 120.912486 
L 144.824713 119.509419 
L 146.922576 118.10625 
L 149.020438 116.702979 
L 151.118301 115.299605 
L 153.216164 113.896129 
L 155.314027 112.492551 
L 157.411889 111.088871 
L 159.509752 109.685089 
L 161.607615 108.281204 
L 163.705477 106.877217 
L 165.80334 105.473128 
L 167.901203 104.068937 
L 169.999065 102.664644 
L 172.096928 101.260248 
L 174.194791 99.85575 
L 176.292654 98.45115 
L 178.390516 97.046448 
L 180.488379 95.641643 
L 182.586242 94.236737 
L 184.684104 92.831728 
L 186.781967 91.426617 
L 188.87983 90.021403 
L 190.977692 88.616088 
L 193.075555 87.21067 
L 195.173418 85.80515 
L 197.27128 84.399528 
L 199.369143 82.993804 
L 201.467006 81.587977 
L 203.564869 80.182048 
L 205.662731 78.776017 
L 207.760594 77.369884 
L 209.858457 75.963649 
L 211.956319 74.557311 
L 214.054182 73.150872 
L 216.152045 71.74433 
L 218.249907 70.337685 
L 220.34777 68.930939 
L 222.445633 67.52409 
L 224.543495 66.11714 
L 226.641358 64.710087 
L 228.739221 63.302931 
L 230.837084 61.895674 
L 232.934946 60.488314 
L 235.032809 59.080853 
L 237.130672 57.673288 
L 239.228534 56.265622 
L 241.326397 54.857854 
L 243.42426 53.449983 
L 245.522122 52.04201 
L 247.619985 50.633935 
L 249.717848 49.225758 
L 251.815711 47.817478 
L 253.913573 46.409097 
L 256.011436 45.000613 
L 258.109299 43.592027 
L 260.207161 42.183339 
L 262.305024 40.774548 
L 264.402887 39.365655 
L 266.500749 37.95666 
L 268.598612 36.547563 
L 270.696475 35.138364 
L 272.794337 33.729062 
L 274.8922 32.319659 
L 276.990063 30.910153 
L 279.087926 29.500545 
L 281.185788 28.090834 
L 283.283651 26.681022 
L 285.381514 25.271107 
L 287.479376 23.86109 
L 289.577239 22.450971 
L 291.675102 21.040749 
L 293.772964 19.630426 
L 295.870827 18.22 
" clip-path="url(#p7730a2815b)" style="fill: none; stroke: #000080; stroke-width: 1.5; stroke-linecap: square"/>
   </g>
   <g id="line2d_26">
    <path d="M 88.18242 161.42355 
L 90.280283 160.018915 
L 92.378146 158.614178 
L 94.476008 157.209338 
L 96.573871 155.804397 
L 98.671734 154.399353 
L 100.769597 152.994207 
L 102.867459 151.588959 
L 104.965322 150.183609 
L 107.063185 148.778157 
L 109.161047 147.372602 
L 111.25891 145.966945 
L 113.356773 144.561186 
L 115.454635 143.155325 
L 117.552498 141.749361 
L 119.650361 140.343295 
L 121.748223 138.937127 
L 123.846086 137.530857 
L 125.943949 136.124485 
L 128.041812 134.71801 
L 130.139674 133.311434 
L 132.237537 131.904755 
L 134.3354 130.497973 
L 136.433262 129.09109 
L 138.531125 127.684104 
L 140.628988 126.277017 
L 142.72685 124.869827 
L 144.824713 123.462534 
L 146.922576 122.05514 
L 149.020438 120.647643 
L 151.118301 119.240045 
L 153.216164 117.832344 
L 155.314027 116.42454 
L 157.411889 115.016635 
L 159.509752 113.608627 
L 161.607615 112.200517 
L 163.705477 110.792305 
L 165.80334 109.383991 
L 167.901203 107.975575 
L 169.999065 106.567056 
L 172.096928 105.158435 
L 174.194791 103.749712 
L 176.292654 102.340887 
L 178.390516 100.931959 
L 180.488379 99.52293 
L 182.586242 98.113798 
L 184.684104 96.704564 
L 186.781967 95.295227 
L 188.87983 93.885789 
L 190.977692 92.476248 
L 193.075555 91.066605 
L 195.173418 89.65686 
L 197.27128 88.247013 
L 199.369143 86.837063 
L 201.467006 85.427011 
L 203.564869 84.016857 
L 205.662731 82.606601 
L 207.760594 81.196243 
L 209.858457 79.785782 
L 211.956319 78.375219 
L 214.054182 76.964554 
L 216.152045 75.553787 
L 218.249907 74.142918 
L 220.34777 72.731946 
L 222.445633 71.320872 
L 224.543495 69.909696 
L 226.641358 68.498418 
L 228.739221 67.087038 
L 230.837084 65.675555 
L 232.934946 64.26397 
L 235.032809 62.852283 
L 237.130672 61.440494 
L 239.228534 60.028603 
L 241.326397 58.616609 
L 243.42426 57.204513 
L 245.522122 55.792315 
L 247.619985 54.380015 
L 249.717848 52.967612 
L 251.815711 51.555108 
L 253.913573 50.142501 
L 256.011436 48.729792 
L 258.109299 47.31698 
L 260.207161 45.904067 
L 262.305024 44.491051 
L 264.402887 43.077933 
L 266.500749 41.664713 
L 268.598612 40.251391 
L 270.696475 38.837966 
L 272.794337 37.424439 
L 274.8922 36.01081 
L 276.990063 34.597079 
L 279.087926 33.183246 
L 281.185788 31.76931 
L 283.283651 30.355272 
L 285.381514 28.941133 
L 287.479376 27.52689 
L 289.577239 26.112546 
L 291.675102 24.698099 
L 293.772964 23.283551 
L 295.870827 21.8689 
" clip-path="url(#p7730a2815b)" style="fill: none; stroke: #0080ff; stroke-width: 1.5; stroke-linecap: square"/>
   </g>
   <g id="line2d_27">
    <path d="M 88.18242 164.323223 
L 90.280283 162.930819 
L 92.378146 161.538312 
L 94.476008 160.145704 
L 96.573871 158.752993 
L 98.671734 157.36018 
L 100.769597 155.967265 
L 102.867459 154.574248 
L 104.965322 153.181128 
L 107.063185 151.787907 
L 109.161047 150.394583 
L 111.25891 149.001157 
L 113.356773 147.607628 
L 115.454635 146.213998 
L 117.552498 144.820265 
L 119.650361 143.42643 
L 121.748223 142.032493 
L 123.846086 140.638454 
L 125.943949 139.244312 
L 128.041812 137.850068 
L 130.139674 136.455722 
L 132.237537 135.061274 
L 134.3354 133.666724 
L 136.433262 132.272071 
L 138.531125 130.877317 
L 140.628988 129.48246 
L 142.72685 128.0875 
L 144.824713 126.692439 
L 146.922576 125.297275 
L 149.020438 123.902009 
L 151.118301 122.506641 
L 153.216164 121.111171 
L 155.314027 119.715599 
L 157.411889 118.319924 
L 159.509752 116.924147 
L 161.607615 115.528268 
L 163.705477 114.132287 
L 165.80334 112.736204 
L 167.901203 111.340018 
L 169.999065 109.94373 
L 172.096928 108.54734 
L 174.194791 107.150848 
L 176.292654 105.754253 
L 178.390516 104.357556 
L 180.488379 102.960758 
L 182.586242 101.563856 
L 184.684104 100.166853 
L 186.781967 98.769748 
L 188.87983 97.37254 
L 190.977692 95.97523 
L 193.075555 94.577818 
L 195.173418 93.180303 
L 197.27128 91.782687 
L 199.369143 90.384968 
L 201.467006 88.987147 
L 203.564869 87.589224 
L 205.662731 86.191199 
L 207.760594 84.793071 
L 209.858457 83.394841 
L 211.956319 81.996509 
L 214.054182 80.598075 
L 216.152045 79.199539 
L 218.249907 77.8009 
L 220.34777 76.402159 
L 222.445633 75.003316 
L 224.543495 73.604371 
L 226.641358 72.205324 
L 228.739221 70.806174 
L 230.837084 69.406922 
L 232.934946 68.007568 
L 235.032809 66.608112 
L 237.130672 65.208553 
L 239.228534 63.808893 
L 241.326397 62.40913 
L 243.42426 61.009265 
L 245.522122 59.609298 
L 247.619985 58.209228 
L 249.717848 56.809056 
L 251.815711 55.408783 
L 253.913573 54.008406 
L 256.011436 52.607928 
L 258.109299 51.207348 
L 260.207161 49.806665 
L 262.305024 48.40588 
L 264.402887 47.004993 
L 266.500749 45.604003 
L 268.598612 44.202912 
L 270.696475 42.801718 
L 272.794337 41.400422 
L 274.8922 39.999024 
L 276.990063 38.597524 
L 279.087926 37.195921 
L 281.185788 35.794216 
L 283.283651 34.392409 
L 285.381514 32.9905 
L 287.479376 31.588489 
L 289.577239 30.186375 
L 291.675102 28.784159 
L 293.772964 27.381841 
L 295.870827 25.979421 
" clip-path="url(#p7730a2815b)" style="fill: none; stroke: #7dff7a; stroke-width: 1.5; stroke-linecap: square"/>
   </g>
   <g id="line2d_28">
    <path d="M 88.18242 166.055373 
L 90.280283 164.691656 
L 92.378146 163.327836 
L 94.476008 161.963914 
L 96.573871 160.599891 
L 98.671734 159.235764 
L 100.769597 157.871536 
L 102.867459 156.507206 
L 104.965322 155.142773 
L 107.063185 153.778238 
L 109.161047 152.413601 
L 111.25891 151.048862 
L 113.356773 149.68402 
L 115.454635 148.319076 
L 117.552498 146.954031 
L 119.650361 145.588882 
L 121.748223 144.223632 
L 123.846086 142.858279 
L 125.943949 141.492825 
L 128.041812 140.127268 
L 130.139674 138.761609 
L 132.237537 137.395847 
L 134.3354 136.029984 
L 136.433262 134.664018 
L 138.531125 133.29795 
L 140.628988 131.93178 
L 142.72685 130.565507 
L 144.824713 129.199133 
L 146.922576 127.832656 
L 149.020438 126.466077 
L 151.118301 125.099396 
L 153.216164 123.732612 
L 155.314027 122.365727 
L 157.411889 120.998739 
L 159.509752 119.631649 
L 161.607615 118.264457 
L 163.705477 116.897162 
L 165.80334 115.529765 
L 167.901203 114.162267 
L 169.999065 112.794666 
L 172.096928 111.426962 
L 174.194791 110.059157 
L 176.292654 108.691249 
L 178.390516 107.323239 
L 180.488379 105.955127 
L 182.586242 104.586913 
L 184.684104 103.218596 
L 186.781967 101.850178 
L 188.87983 100.481657 
L 190.977692 99.113034 
L 193.075555 97.744308 
L 195.173418 96.375481 
L 197.27128 95.006551 
L 199.369143 93.637519 
L 201.467006 92.268385 
L 203.564869 90.899148 
L 205.662731 89.52981 
L 207.760594 88.160369 
L 209.858457 86.790826 
L 211.956319 85.421181 
L 214.054182 84.051434 
L 216.152045 82.681584 
L 218.249907 81.311632 
L 220.34777 79.941578 
L 222.445633 78.571422 
L 224.543495 77.201164 
L 226.641358 75.830803 
L 228.739221 74.46034 
L 230.837084 73.089775 
L 232.934946 71.719108 
L 235.032809 70.348338 
L 237.130672 68.977467 
L 239.228534 67.606493 
L 241.326397 66.235417 
L 243.42426 64.864239 
L 245.522122 63.492958 
L 247.619985 62.121575 
L 249.717848 60.75009 
L 251.815711 59.378503 
L 253.913573 58.006814 
L 256.011436 56.635023 
L 258.109299 55.263129 
L 260.207161 53.891133 
L 262.305024 52.519035 
L 264.402887 51.146835 
L 266.500749 49.774532 
L 268.598612 48.402127 
L 270.696475 47.02962 
L 272.794337 45.657011 
L 274.8922 44.2843 
L 276.990063 42.911486 
L 279.087926 41.53857 
L 281.185788 40.165553 
L 283.283651 38.792432 
L 285.381514 37.41921 
L 287.479376 36.045885 
L 289.577239 34.672459 
L 291.675102 33.29893 
L 293.772964 31.925298 
L 295.870827 30.551565 
" clip-path="url(#p7730a2815b)" style="fill: none; stroke: #ff9400; stroke-width: 1.5; stroke-linecap: square"/>
   </g>
   <g id="line2d_29">
    <path d="M 88.18242 166.62 
L 90.280283 165.301426 
L 92.378146 163.982749 
L 94.476008 162.66397 
L 96.573871 161.345089 
L 98.671734 160.026106 
L 100.769597 158.70702 
L 102.867459 157.387833 
L 104.965322 156.068543 
L 107.063185 154.749151 
L 109.161047 153.429656 
L 111.25891 152.11006 
L 113.356773 150.790361 
L 115.454635 149.47056 
L 117.552498 148.150657 
L 119.650361 146.830652 
L 121.748223 145.510544 
L 123.846086 144.190335 
L 125.943949 142.870023 
L 128.041812 141.549609 
L 130.139674 140.229092 
L 132.237537 138.908474 
L 134.3354 137.587753 
L 136.433262 136.26693 
L 138.531125 134.946005 
L 140.628988 133.624977 
L 142.72685 132.303848 
L 144.824713 130.982616 
L 146.922576 129.661282 
L 149.020438 128.339846 
L 151.118301 127.018307 
L 153.216164 125.696667 
L 155.314027 124.374924 
L 157.411889 123.053079 
L 159.509752 121.731132 
L 161.607615 120.409082 
L 163.705477 119.086931 
L 165.80334 117.764677 
L 167.901203 116.442321 
L 169.999065 115.119863 
L 172.096928 113.797302 
L 174.194791 112.474639 
L 176.292654 111.151875 
L 178.390516 109.829007 
L 180.488379 108.506038 
L 182.586242 107.182967 
L 184.684104 105.859793 
L 186.781967 104.536517 
L 188.87983 103.213139 
L 190.977692 101.889659 
L 193.075555 100.566076 
L 195.173418 99.242391 
L 197.27128 97.918605 
L 199.369143 96.594715 
L 201.467006 95.270724 
L 203.564869 93.946631 
L 205.662731 92.622435 
L 207.760594 91.298137 
L 209.858457 89.973737 
L 211.956319 88.649234 
L 214.054182 87.32463 
L 216.152045 85.999923 
L 218.249907 84.675114 
L 220.34777 83.350203 
L 222.445633 82.025189 
L 224.543495 80.700074 
L 226.641358 79.374856 
L 228.739221 78.049536 
L 230.837084 76.724114 
L 232.934946 75.398589 
L 235.032809 74.072963 
L 237.130672 72.747234 
L 239.228534 71.421403 
L 241.326397 70.09547 
L 243.42426 68.769434 
L 245.522122 67.443296 
L 247.619985 66.117057 
L 249.717848 64.790714 
L 251.815711 63.46427 
L 253.913573 62.137724 
L 256.011436 60.811075 
L 258.109299 59.484324 
L 260.207161 58.157471 
L 262.305024 56.830516 
L 264.402887 55.503458 
L 266.500749 54.176299 
L 268.598612 52.849037 
L 270.696475 51.521672 
L 272.794337 50.194206 
L 274.8922 48.866638 
L 276.990063 47.538967 
L 279.087926 46.211194 
L 281.185788 44.883319 
L 283.283651 43.555341 
L 285.381514 42.227262 
L 287.479376 40.89908 
L 289.577239 39.570796 
L 291.675102 38.24241 
L 293.772964 36.913921 
L 295.870827 35.585331 
" clip-path="url(#p7730a2815b)" style="fill: none; stroke: #800000; stroke-width: 1.5; stroke-linecap: square"/>
   </g>
   <g id="patch_3">
    <path d="M 77.798 174.04 
L 77.798 10.8 
" style="fill: none; stroke: #000000; stroke-width: 0.8; stroke-linejoin: miter; stroke-linecap: square"/>
   </g>
   <g id="patch_4">
    <path d="M 306.255247 174.04 
L 306.255247 10.8 
" style="fill: none; stroke: #000000; stroke-width: 0.8; stroke-linejoin: miter; stroke-linecap: square"/>
   </g>
   <g id="patch_5">
    <path d="M 77.798 174.04 
L 306.255247 174.04 
" style="fill: none; stroke: #000000; stroke-width: 0.8; stroke-linejoin: miter; stroke-linecap: square"/>
   </g>
   <g id="patch_6">
    <path d="M 77.798 10.8 
L 306.255247 10.8 
" style="fill: none; stroke: #000000; stroke-width: 0.8; stroke-linejoin: miter; stroke-linecap: square"/>
   </g>
   <g id="legend_1">
    <g id="patch_7">
     <path d="M 315.255247 162.878 
L 420.455247 162.878 
Q 422.455247 162.878 422.455247 160.878 
L 422.455247 88.385812 
Q 422.455247 86.385812 420.455247 86.385812 
L 315.255247 86.385812 
Q 313.255247 86.385812 313.255247 88.385812 
L 313.255247 160.878 
Q 313.255247 162.878 315.255247 162.878 
z
" style="fill: #4d4d4d; opacity: 0.5; stroke: #4d4d4d; stroke-linejoin: miter"/>
    </g>
    <g id="patch_8">
     <path d="M 313.255247 160.878 
L 418.455247 160.878 
Q 420.455247 160.878 420.455247 158.878 
L 420.455247 86.385812 
Q 420.455247 84.385812 418.455247 84.385812 
L 313.255247 84.385812 
Q 311.255247 84.385812 311.255247 86.385812 
L 311.255247 158.878 
Q 311.255247 160.878 313.255247 160.878 
z
" style="fill: #ffffff; stroke: #cccccc; stroke-linejoin: miter"/>
    </g>
    <g id="line2d_30">
     <path d="M 315.255247 92.48425 
L 325.255247 92.48425 
L 335.255247 92.48425 
" style="fill: none; stroke: #000080; stroke-width: 1.5; stroke-linecap: square"/>
    </g>
    <g id="text_15">
     <!-- $\delta_e = 0$, $J = 1.60$ -->
     <g transform="translate(343.255247 95.98425) scale(0.1 -0.1)">
      <defs>
       <path id="DejaVuSans-Oblique-3b4" d="M 3472 4053 
Q 3197 4272 2450 4272 
Q 1659 4272 1588 3906 
Q 1531 3619 2328 3469 
Q 2953 3353 3253 3003 
Q 3616 2581 3447 1716 
Q 3284 888 2763 400 
Q 2238 -91 1488 -91 
Q 741 -91 406 400 
Q 72 888 241 1747 
Q 363 2384 891 2900 
Q 1097 3100 1353 3213 
Q 913 3459 1000 3900 
Q 1166 4750 2544 4750 
Q 3234 4750 3566 4531 
L 3472 4053 
z
M 1753 3056 
Q 1525 2966 1306 2738 
Q 969 2384 847 1747 
Q 722 1113 919 756 
Q 1119 397 1584 397 
Q 2044 397 2381 759 
Q 2722 1122 2838 1716 
Q 2956 2338 2731 2638 
Q 2491 2959 2103 2994 
Q 1906 3013 1753 3056 
z
" transform="scale(0.015625)"/>
       <path id="DejaVuSans-Oblique-65" d="M 3078 2063 
Q 3088 2113 3092 2166 
Q 3097 2219 3097 2272 
Q 3097 2653 2873 2875 
Q 2650 3097 2266 3097 
Q 1838 3097 1509 2826 
Q 1181 2556 1013 2059 
L 3078 2063 
z
M 3578 1613 
L 903 1613 
Q 884 1494 878 1425 
Q 872 1356 872 1306 
Q 872 872 1139 634 
Q 1406 397 1894 397 
Q 2269 397 2603 481 
Q 2938 566 3225 728 
L 3116 159 
Q 2806 34 2476 -28 
Q 2147 -91 1806 -91 
Q 1078 -91 686 257 
Q 294 606 294 1247 
Q 294 1794 489 2264 
Q 684 2734 1063 3103 
Q 1306 3334 1642 3459 
Q 1978 3584 2356 3584 
Q 2950 3584 3301 3228 
Q 3653 2872 3653 2272 
Q 3653 2128 3634 1964 
Q 3616 1800 3578 1613 
z
" transform="scale(0.015625)"/>
       <path id="DejaVuSans-3d" d="M 678 2906 
L 4684 2906 
L 4684 2381 
L 678 2381 
L 678 2906 
z
M 678 1631 
L 4684 1631 
L 4684 1100 
L 678 1100 
L 678 1631 
z
" transform="scale(0.015625)"/>
       <path id="DejaVuSans-2c" d="M 750 794 
L 1409 794 
L 1409 256 
L 897 -744 
L 494 -744 
L 750 256 
L 750 794 
z
" transform="scale(0.015625)"/>
       <path id="DejaVuSans-Oblique-4a" d="M 1069 4666 
L 1703 4666 
L 856 325 
Q 691 -522 298 -901 
Q -94 -1281 -800 -1281 
L -1050 -1281 
L -947 -750 
L -750 -750 
Q -328 -750 -109 -509 
Q 109 -269 225 325 
L 1069 4666 
z
" transform="scale(0.015625)"/>
      </defs>
      <use xlink:href="#DejaVuSans-Oblique-3b4" transform="translate(0 0.78125)"/>
      <use xlink:href="#DejaVuSans-Oblique-65" transform="translate(61.181641 -15.625) scale(0.7)"/>
      <use xlink:href="#DejaVuSans-3d" transform="translate(126.464844 0.78125)"/>
      <use xlink:href="#DejaVuSans-30" transform="translate(229.736328 0.78125)"/>
      <use xlink:href="#DejaVuSans-2c" transform="translate(293.359375 0.78125)"/>
      <use xlink:href="#DejaVuSans-20" transform="translate(325.146484 0.78125)"/>
      <use xlink:href="#DejaVuSans-Oblique-4a" transform="translate(356.933594 0.78125)"/>
      <use xlink:href="#DejaVuSans-3d" transform="translate(405.908203 0.78125)"/>
      <use xlink:href="#DejaVuSans-31" transform="translate(509.179688 0.78125)"/>
      <use xlink:href="#DejaVuSans-2e" transform="translate(572.802734 0.78125)"/>
      <use xlink:href="#DejaVuSans-36" transform="translate(604.589844 0.78125)"/>
      <use xlink:href="#DejaVuSans-30" transform="translate(668.212891 0.78125)"/>
     </g>
    </g>
    <g id="line2d_31">
     <path d="M 315.255247 107.182688 
L 325.255247 107.182688 
L 335.255247 107.182688 
" style="fill: none; stroke: #0080ff; stroke-width: 1.5; stroke-linecap: square"/>
    </g>
    <g id="text_16">
     <!-- $\delta_e = 0$, $J = 1.80$ -->
     <g transform="translate(343.255247 110.682688) scale(0.1 -0.1)">
      <defs>
       <path id="DejaVuSans-38" d="M 2034 2216 
Q 1584 2216 1326 1975 
Q 1069 1734 1069 1313 
Q 1069 891 1326 650 
Q 1584 409 2034 409 
Q 2484 409 2743 651 
Q 3003 894 3003 1313 
Q 3003 1734 2745 1975 
Q 2488 2216 2034 2216 
z
M 1403 2484 
Q 997 2584 770 2862 
Q 544 3141 544 3541 
Q 544 4100 942 4425 
Q 1341 4750 2034 4750 
Q 2731 4750 3128 4425 
Q 3525 4100 3525 3541 
Q 3525 3141 3298 2862 
Q 3072 2584 2669 2484 
Q 3125 2378 3379 2068 
Q 3634 1759 3634 1313 
Q 3634 634 3220 271 
Q 2806 -91 2034 -91 
Q 1263 -91 848 271 
Q 434 634 434 1313 
Q 434 1759 690 2068 
Q 947 2378 1403 2484 
z
M 1172 3481 
Q 1172 3119 1398 2916 
Q 1625 2713 2034 2713 
Q 2441 2713 2670 2916 
Q 2900 3119 2900 3481 
Q 2900 3844 2670 4047 
Q 2441 4250 2034 4250 
Q 1625 4250 1398 4047 
Q 1172 3844 1172 3481 
z
" transform="scale(0.015625)"/>
      </defs>
      <use xlink:href="#DejaVuSans-Oblique-3b4" transform="translate(0 0.78125)"/>
      <use xlink:href="#DejaVuSans-Oblique-65" transform="translate(61.181641 -15.625) scale(0.7)"/>
      <use xlink:href="#DejaVuSans-3d" transform="translate(126.464844 0.78125)"/>
      <use xlink:href="#DejaVuSans-30" transform="translate(229.736328 0.78125)"/>
      <use xlink:href="#DejaVuSans-2c" transform="translate(293.359375 0.78125)"/>
      <use xlink:href="#DejaVuSans-20" transform="translate(325.146484 0.78125)"/>
      <use xlink:href="#DejaVuSans-Oblique-4a" transform="translate(356.933594 0.78125)"/>
      <use xlink:href="#DejaVuSans-3d" transform="translate(405.908203 0.78125)"/>
      <use xlink:href="#DejaVuSans-31" transform="translate(509.179688 0.78125)"/>
      <use xlink:href="#DejaVuSans-2e" transform="translate(572.802734 0.78125)"/>
      <use xlink:href="#DejaVuSans-38" transform="translate(601.964844 0.78125)"/>
      <use xlink:href="#DejaVuSans-30" transform="translate(665.587891 0.78125)"/>
     </g>
    </g>
    <g id="line2d_32">
     <path d="M 315.255247 121.881125 
L 325.255247 121.881125 
L 335.255247 121.881125 
" style="fill: none; stroke: #7dff7a; stroke-width: 1.5; stroke-linecap: square"/>
    </g>
    <g id="text_17">
     <!-- $\delta_e = 0$, $J = 2.00$ -->
     <g transform="translate(343.255247 125.381125) scale(0.1 -0.1)">
      <use xlink:href="#DejaVuSans-Oblique-3b4" transform="translate(0 0.78125)"/>
      <use xlink:href="#DejaVuSans-Oblique-65" transform="translate(61.181641 -15.625) scale(0.7)"/>
      <use xlink:href="#DejaVuSans-3d" transform="translate(126.464844 0.78125)"/>
      <use xlink:href="#DejaVuSans-30" transform="translate(229.736328 0.78125)"/>
      <use xlink:href="#DejaVuSans-2c" transform="translate(293.359375 0.78125)"/>
      <use xlink:href="#DejaVuSans-20" transform="translate(325.146484 0.78125)"/>
      <use xlink:href="#DejaVuSans-Oblique-4a" transform="translate(356.933594 0.78125)"/>
      <use xlink:href="#DejaVuSans-3d" transform="translate(405.908203 0.78125)"/>
      <use xlink:href="#DejaVuSans-32" transform="translate(509.179688 0.78125)"/>
      <use xlink:href="#DejaVuSans-2e" transform="translate(572.802734 0.78125)"/>
      <use xlink:href="#DejaVuSans-30" transform="translate(604.589844 0.78125)"/>
      <use xlink:href="#DejaVuSans-30" transform="translate(668.212891 0.78125)"/>
     </g>
    </g>
    <g id="line2d_33">
     <path d="M 315.255247 136.579563 
L 325.255247 136.579563 
L 335.255247 136.579563 
" style="fill: none; stroke: #ff9400; stroke-width: 1.5; stroke-linecap: square"/>
    </g>
    <g id="text_18">
     <!-- $\delta_e = 0$, $J = 2.20$ -->
     <g transform="translate(343.255247 140.079563) scale(0.1 -0.1)">
      <use xlink:href="#DejaVuSans-Oblique-3b4" transform="translate(0 0.78125)"/>
      <use xlink:href="#DejaVuSans-Oblique-65" transform="translate(61.181641 -15.625) scale(0.7)"/>
      <use xlink:href="#DejaVuSans-3d" transform="translate(126.464844 0.78125)"/>
      <use xlink:href="#DejaVuSans-30" transform="translate(229.736328 0.78125)"/>
      <use xlink:href="#DejaVuSans-2c" transform="translate(293.359375 0.78125)"/>
      <use xlink:href="#DejaVuSans-20" transform="translate(325.146484 0.78125)"/>
      <use xlink:href="#DejaVuSans-Oblique-4a" transform="translate(356.933594 0.78125)"/>
      <use xlink:href="#DejaVuSans-3d" transform="translate(405.908203 0.78125)"/>
      <use xlink:href="#DejaVuSans-32" transform="translate(509.179688 0.78125)"/>
      <use xlink:href="#DejaVuSans-2e" transform="translate(572.802734 0.78125)"/>
      <use xlink:href="#DejaVuSans-32" transform="translate(599.089844 0.78125)"/>
      <use xlink:href="#DejaVuSans-30" transform="translate(662.712891 0.78125)"/>
     </g>
    </g>
    <g id="line2d_34">
     <path d="M 315.255247 151.278 
L 325.255247 151.278 
L 335.255247 151.278 
" style="fill: none; stroke: #800000; stroke-width: 1.5; stroke-linecap: square"/>
    </g>
    <g id="text_19">
     <!-- $\delta_e = 0$, $J = 2.40$ -->
     <g transform="translate(343.255247 154.778) scale(0.1 -0.1)">
      <use xlink:href="#DejaVuSans-Oblique-3b4" transform="translate(0 0.78125)"/>
      <use xlink:href="#DejaVuSans-Oblique-65" transform="translate(61.181641 -15.625) scale(0.7)"/>
      <use xlink:href="#DejaVuSans-3d" transform="translate(126.464844 0.78125)"/>
      <use xlink:href="#DejaVuSans-30" transform="translate(229.736328 0.78125)"/>
      <use xlink:href="#DejaVuSans-2c" transform="translate(293.359375 0.78125)"/>
      <use xlink:href="#DejaVuSans-20" transform="translate(325.146484 0.78125)"/>
      <use xlink:href="#DejaVuSans-Oblique-4a" transform="translate(356.933594 0.78125)"/>
      <use xlink:href="#DejaVuSans-3d" transform="translate(405.908203 0.78125)"/>
      <use xlink:href="#DejaVuSans-32" transform="translate(509.179688 0.78125)"/>
      <use xlink:href="#DejaVuSans-2e" transform="translate(572.802734 0.78125)"/>
      <use xlink:href="#DejaVuSans-34" transform="translate(604.589844 0.78125)"/>
      <use xlink:href="#DejaVuSans-30" transform="translate(668.212891 0.78125)"/>
     </g>
    </g>
   </g>
  </g>
 </g>
 <defs>
  <clipPath id="p7730a2815b">
   <rect x="77.798" y="10.8" width="228.457247" height="163.24"/>
  </clipPath>
 </defs>
</svg>
