<?xml version="1.0" encoding="utf-8" standalone="no"?>
<!DOCTYPE svg PUBLIC "-//W3C//DTD SVG 1.1//EN"
  "http://www.w3.org/Graphics/SVG/1.1/DTD/svg11.dtd">
<svg xmlns:xlink="http://www.w3.org/1999/xlink" width="432pt" height="216pt" viewBox="0 0 432 216" xmlns="http://www.w3.org/2000/svg" version="1.1">
 <metadata>
  <rdf:RDF xmlns:dc="http://purl.org/dc/elements/1.1/" xmlns:cc="http://creativecommons.org/ns#" xmlns:rdf="http://www.w3.org/1999/02/22-rdf-syntax-ns#">
   <cc:Work>
    <dc:type rdf:resource="http://purl.org/dc/dcmitype/StillImage"/>
    <dc:date>2025-03-28T12:22:14.473441</dc:date>
    <dc:format>image/svg+xml</dc:format>
    <dc:creator>
     <cc:Agent>
      <dc:title>Matplotlib v3.9.2, https://matplotlib.org/</dc:title>
     </cc:Agent>
    </dc:creator>
   </cc:Work>
  </rdf:RDF>
 </metadata>
 <defs>
  <style type="text/css">*{stroke-linejoin: round; stroke-linecap: butt}</style>
 </defs>
 <g id="figure_1">
  <g id="patch_1">
   <path d="M 0 216 
L 432 216 
L 432 0 
L 0 0 
z
" style="fill: #ffffff"/>
  </g>
  <g id="axes_1">
   <g id="patch_2">
    <path d="M 65.45 174.04 
L 287.617856 174.04 
L 287.617856 10.8 
L 65.45 10.8 
z
" style="fill: #ffffff"/>
   </g>
   <g id="matplotlib.axis_1">
    <g id="xtick_1">
     <g id="line2d_1">
      <path d="M 75.548539 174.04 
L 75.548539 10.8 
" clip-path="url(#pd5317ddb72)" style="fill: none; stroke: #b0b0b0; stroke-width: 0.8; stroke-linecap: square"/>
     </g>
     <g id="line2d_2">
      <defs>
       <path id="m64fc571a1d" d="M 0 0 
L 0 3.5 
" style="stroke: #000000; stroke-width: 0.8"/>
      </defs>
      <g>
       <use xlink:href="#m64fc571a1d" x="75.548539" y="174.04" style="stroke: #000000; stroke-width: 0.8"/>
      </g>
     </g>
     <g id="text_1">
      <!-- −4 -->
      <g transform="translate(68.177445 188.638438) scale(0.1 -0.1)">
       <defs>
        <path id="DejaVuSans-2212" d="M 678 2272 
L 4684 2272 
L 4684 1741 
L 678 1741 
L 678 2272 
z
" transform="scale(0.015625)"/>
        <path id="DejaVuSans-34" d="M 2419 4116 
L 825 1625 
L 2419 1625 
L 2419 4116 
z
M 2253 4666 
L 3047 4666 
L 3047 1625 
L 3713 1625 
L 3713 1100 
L 3047 1100 
L 3047 0 
L 2419 0 
L 2419 1100 
L 313 1100 
L 313 1709 
L 2253 4666 
z
" transform="scale(0.015625)"/>
       </defs>
       <use xlink:href="#DejaVuSans-2212"/>
       <use xlink:href="#DejaVuSans-34" x="83.789062"/>
      </g>
     </g>
    </g>
    <g id="xtick_2">
     <g id="line2d_3">
      <path d="M 112.270499 174.04 
L 112.270499 10.8 
" clip-path="url(#pd5317ddb72)" style="fill: none; stroke: #b0b0b0; stroke-width: 0.8; stroke-linecap: square"/>
     </g>
     <g id="line2d_4">
      <g>
       <use xlink:href="#m64fc571a1d" x="112.270499" y="174.04" style="stroke: #000000; stroke-width: 0.8"/>
      </g>
     </g>
     <g id="text_2">
      <!-- −2 -->
      <g transform="translate(104.899405 188.638438) scale(0.1 -0.1)">
       <defs>
        <path id="DejaVuSans-32" d="M 1228 531 
L 3431 531 
L 3431 0 
L 469 0 
L 469 531 
Q 828 903 1448 1529 
Q 2069 2156 2228 2338 
Q 2531 2678 2651 2914 
Q 2772 3150 2772 3378 
Q 2772 3750 2511 3984 
Q 2250 4219 1831 4219 
Q 1534 4219 1204 4116 
Q 875 4013 500 3803 
L 500 4441 
Q 881 4594 1212 4672 
Q 1544 4750 1819 4750 
Q 2544 4750 2975 4387 
Q 3406 4025 3406 3419 
Q 3406 3131 3298 2873 
Q 3191 2616 2906 2266 
Q 2828 2175 2409 1742 
Q 1991 1309 1228 531 
z
" transform="scale(0.015625)"/>
       </defs>
       <use xlink:href="#DejaVuSans-2212"/>
       <use xlink:href="#DejaVuSans-32" x="83.789062"/>
      </g>
     </g>
    </g>
    <g id="xtick_3">
     <g id="line2d_5">
      <path d="M 148.992458 174.04 
L 148.992458 10.8 
" clip-path="url(#pd5317ddb72)" style="fill: none; stroke: #b0b0b0; stroke-width: 0.8; stroke-linecap: square"/>
     </g>
     <g id="line2d_6">
      <g>
       <use xlink:href="#m64fc571a1d" x="148.992458" y="174.04" style="stroke: #000000; stroke-width: 0.8"/>
      </g>
     </g>
     <g id="text_3">
      <!-- 0 -->
      <g transform="translate(145.811208 188.638438) scale(0.1 -0.1)">
       <defs>
        <path id="DejaVuSans-30" d="M 2034 4250 
Q 1547 4250 1301 3770 
Q 1056 3291 1056 2328 
Q 1056 1369 1301 889 
Q 1547 409 2034 409 
Q 2525 409 2770 889 
Q 3016 1369 3016 2328 
Q 3016 3291 2770 3770 
Q 2525 4250 2034 4250 
z
M 2034 4750 
Q 2819 4750 3233 4129 
Q 3647 3509 3647 2328 
Q 3647 1150 3233 529 
Q 2819 -91 2034 -91 
Q 1250 -91 836 529 
Q 422 1150 422 2328 
Q 422 3509 836 4129 
Q 1250 4750 2034 4750 
z
" transform="scale(0.015625)"/>
       </defs>
       <use xlink:href="#DejaVuSans-30"/>
      </g>
     </g>
    </g>
    <g id="xtick_4">
     <g id="line2d_7">
      <path d="M 185.714418 174.04 
L 185.714418 10.8 
" clip-path="url(#pd5317ddb72)" style="fill: none; stroke: #b0b0b0; stroke-width: 0.8; stroke-linecap: square"/>
     </g>
     <g id="line2d_8">
      <g>
       <use xlink:href="#m64fc571a1d" x="185.714418" y="174.04" style="stroke: #000000; stroke-width: 0.8"/>
      </g>
     </g>
     <g id="text_4">
      <!-- 2 -->
      <g transform="translate(182.533168 188.638438) scale(0.1 -0.1)">
       <use xlink:href="#DejaVuSans-32"/>
      </g>
     </g>
    </g>
    <g id="xtick_5">
     <g id="line2d_9">
      <path d="M 222.436377 174.04 
L 222.436377 10.8 
" clip-path="url(#pd5317ddb72)" style="fill: none; stroke: #b0b0b0; stroke-width: 0.8; stroke-linecap: square"/>
     </g>
     <g id="line2d_10">
      <g>
       <use xlink:href="#m64fc571a1d" x="222.436377" y="174.04" style="stroke: #000000; stroke-width: 0.8"/>
      </g>
     </g>
     <g id="text_5">
      <!-- 4 -->
      <g transform="translate(219.255127 188.638438) scale(0.1 -0.1)">
       <use xlink:href="#DejaVuSans-34"/>
      </g>
     </g>
    </g>
    <g id="xtick_6">
     <g id="line2d_11">
      <path d="M 259.158337 174.04 
L 259.158337 10.8 
" clip-path="url(#pd5317ddb72)" style="fill: none; stroke: #b0b0b0; stroke-width: 0.8; stroke-linecap: square"/>
     </g>
     <g id="line2d_12">
      <g>
       <use xlink:href="#m64fc571a1d" x="259.158337" y="174.04" style="stroke: #000000; stroke-width: 0.8"/>
      </g>
     </g>
     <g id="text_6">
      <!-- 6 -->
      <g transform="translate(255.977087 188.638438) scale(0.1 -0.1)">
       <defs>
        <path id="DejaVuSans-36" d="M 2113 2584 
Q 1688 2584 1439 2293 
Q 1191 2003 1191 1497 
Q 1191 994 1439 701 
Q 1688 409 2113 409 
Q 2538 409 2786 701 
Q 3034 994 3034 1497 
Q 3034 2003 2786 2293 
Q 2538 2584 2113 2584 
z
M 3366 4563 
L 3366 3988 
Q 3128 4100 2886 4159 
Q 2644 4219 2406 4219 
Q 1781 4219 1451 3797 
Q 1122 3375 1075 2522 
Q 1259 2794 1537 2939 
Q 1816 3084 2150 3084 
Q 2853 3084 3261 2657 
Q 3669 2231 3669 1497 
Q 3669 778 3244 343 
Q 2819 -91 2113 -91 
Q 1303 -91 875 529 
Q 447 1150 447 2328 
Q 447 3434 972 4092 
Q 1497 4750 2381 4750 
Q 2619 4750 2861 4703 
Q 3103 4656 3366 4563 
z
" transform="scale(0.015625)"/>
       </defs>
       <use xlink:href="#DejaVuSans-36"/>
      </g>
     </g>
    </g>
    <g id="text_7">
     <!-- $\alpha$ -->
     <g transform="translate(173.233928 202.316563) scale(0.1 -0.1)">
      <defs>
       <path id="DejaVuSans-Oblique-3b1" d="M 2619 1628 
L 2622 2350 
Q 2625 3088 2069 3091 
Q 1653 3094 1394 2747 
Q 1069 2319 959 1747 
Q 825 1059 994 731 
Q 1169 397 1547 397 
Q 1966 397 2319 1063 
L 2619 1628 
z
M 2166 3578 
Q 3141 3594 3128 2584 
Q 3128 2584 3616 3500 
L 4128 3500 
L 3119 1603 
L 3109 919 
Q 3109 766 3194 638 
Q 3291 488 3391 488 
L 3669 488 
L 3575 0 
L 3228 0 
Q 2934 0 2722 263 
Q 2622 394 2619 669 
Q 2416 334 2066 50 
Q 1900 -81 1453 -78 
Q 722 -72 456 397 
Q 184 884 353 1747 
Q 534 2675 1009 3097 
Q 1544 3569 2166 3578 
z
" transform="scale(0.015625)"/>
      </defs>
      <use xlink:href="#DejaVuSans-Oblique-3b1" transform="translate(0 0.84375)"/>
     </g>
    </g>
   </g>
   <g id="matplotlib.axis_2">
    <g id="ytick_1">
     <g id="line2d_13">
      <path d="M 65.45 149.61613 
L 287.617856 149.61613 
" clip-path="url(#pd5317ddb72)" style="fill: none; stroke: #b0b0b0; stroke-width: 0.8; stroke-linecap: square"/>
     </g>
     <g id="line2d_14">
      <defs>
       <path id="mfc14cb04aa" d="M 0 0 
L -3.5 0 
" style="stroke: #000000; stroke-width: 0.8"/>
      </defs>
      <g>
       <use xlink:href="#mfc14cb04aa" x="65.45" y="149.61613" style="stroke: #000000; stroke-width: 0.8"/>
      </g>
     </g>
     <g id="text_8">
      <!-- −0.04 -->
      <g transform="translate(27.804688 153.415348) scale(0.1 -0.1)">
       <defs>
        <path id="DejaVuSans-2e" d="M 684 794 
L 1344 794 
L 1344 0 
L 684 0 
L 684 794 
z
" transform="scale(0.015625)"/>
       </defs>
       <use xlink:href="#DejaVuSans-2212"/>
       <use xlink:href="#DejaVuSans-30" x="83.789062"/>
       <use xlink:href="#DejaVuSans-2e" x="147.412109"/>
       <use xlink:href="#DejaVuSans-30" x="179.199219"/>
       <use xlink:href="#DejaVuSans-34" x="242.822266"/>
      </g>
     </g>
    </g>
    <g id="ytick_2">
     <g id="line2d_15">
      <path d="M 65.45 118.454268 
L 287.617856 118.454268 
" clip-path="url(#pd5317ddb72)" style="fill: none; stroke: #b0b0b0; stroke-width: 0.8; stroke-linecap: square"/>
     </g>
     <g id="line2d_16">
      <g>
       <use xlink:href="#mfc14cb04aa" x="65.45" y="118.454268" style="stroke: #000000; stroke-width: 0.8"/>
      </g>
     </g>
     <g id="text_9">
      <!-- −0.02 -->
      <g transform="translate(27.804688 122.253487) scale(0.1 -0.1)">
       <use xlink:href="#DejaVuSans-2212"/>
       <use xlink:href="#DejaVuSans-30" x="83.789062"/>
       <use xlink:href="#DejaVuSans-2e" x="147.412109"/>
       <use xlink:href="#DejaVuSans-30" x="179.199219"/>
       <use xlink:href="#DejaVuSans-32" x="242.822266"/>
      </g>
     </g>
    </g>
    <g id="ytick_3">
     <g id="line2d_17">
      <path d="M 65.45 87.292406 
L 287.617856 87.292406 
" clip-path="url(#pd5317ddb72)" style="fill: none; stroke: #b0b0b0; stroke-width: 0.8; stroke-linecap: square"/>
     </g>
     <g id="line2d_18">
      <g>
       <use xlink:href="#mfc14cb04aa" x="65.45" y="87.292406" style="stroke: #000000; stroke-width: 0.8"/>
      </g>
     </g>
     <g id="text_10">
      <!-- 0.00 -->
      <g transform="translate(36.184375 91.091625) scale(0.1 -0.1)">
       <use xlink:href="#DejaVuSans-30"/>
       <use xlink:href="#DejaVuSans-2e" x="63.623047"/>
       <use xlink:href="#DejaVuSans-30" x="95.410156"/>
       <use xlink:href="#DejaVuSans-30" x="159.033203"/>
      </g>
     </g>
    </g>
    <g id="ytick_4">
     <g id="line2d_19">
      <path d="M 65.45 56.130544 
L 287.617856 56.130544 
" clip-path="url(#pd5317ddb72)" style="fill: none; stroke: #b0b0b0; stroke-width: 0.8; stroke-linecap: square"/>
     </g>
     <g id="line2d_20">
      <g>
       <use xlink:href="#mfc14cb04aa" x="65.45" y="56.130544" style="stroke: #000000; stroke-width: 0.8"/>
      </g>
     </g>
     <g id="text_11">
      <!-- 0.02 -->
      <g transform="translate(36.184375 59.929763) scale(0.1 -0.1)">
       <use xlink:href="#DejaVuSans-30"/>
       <use xlink:href="#DejaVuSans-2e" x="63.623047"/>
       <use xlink:href="#DejaVuSans-30" x="95.410156"/>
       <use xlink:href="#DejaVuSans-32" x="159.033203"/>
      </g>
     </g>
    </g>
    <g id="ytick_5">
     <g id="line2d_21">
      <path d="M 65.45 24.968683 
L 287.617856 24.968683 
" clip-path="url(#pd5317ddb72)" style="fill: none; stroke: #b0b0b0; stroke-width: 0.8; stroke-linecap: square"/>
     </g>
     <g id="line2d_22">
      <g>
       <use xlink:href="#mfc14cb04aa" x="65.45" y="24.968683" style="stroke: #000000; stroke-width: 0.8"/>
      </g>
     </g>
     <g id="text_12">
      <!-- 0.04 -->
      <g transform="translate(36.184375 28.767901) scale(0.1 -0.1)">
       <use xlink:href="#DejaVuSans-30"/>
       <use xlink:href="#DejaVuSans-2e" x="63.623047"/>
       <use xlink:href="#DejaVuSans-30" x="95.410156"/>
       <use xlink:href="#DejaVuSans-34" x="159.033203"/>
      </g>
     </g>
    </g>
    <g id="text_13">
     <!-- d$C_D$ / d$J$ -->
     <g transform="translate(21.704687 111.47) rotate(-90) scale(0.1 -0.1)">
      <defs>
       <path id="DejaVuSans-64" d="M 2906 2969 
L 2906 4863 
L 3481 4863 
L 3481 0 
L 2906 0 
L 2906 525 
Q 2725 213 2448 61 
Q 2172 -91 1784 -91 
Q 1150 -91 751 415 
Q 353 922 353 1747 
Q 353 2572 751 3078 
Q 1150 3584 1784 3584 
Q 2172 3584 2448 3432 
Q 2725 3281 2906 2969 
z
M 947 1747 
Q 947 1113 1208 752 
Q 1469 391 1925 391 
Q 2381 391 2643 752 
Q 2906 1113 2906 1747 
Q 2906 2381 2643 2742 
Q 2381 3103 1925 3103 
Q 1469 3103 1208 2742 
Q 947 2381 947 1747 
z
" transform="scale(0.015625)"/>
       <path id="DejaVuSans-Oblique-43" d="M 4447 4306 
L 4319 3641 
Q 4019 3944 3683 4091 
Q 3347 4238 2956 4238 
Q 2422 4238 2017 3981 
Q 1613 3725 1319 3200 
Q 1131 2863 1032 2486 
Q 934 2109 934 1728 
Q 934 1091 1264 756 
Q 1594 422 2222 422 
Q 2656 422 3056 561 
Q 3456 700 3834 978 
L 3688 231 
Q 3316 72 2936 -9 
Q 2556 -91 2175 -91 
Q 1278 -91 773 396 
Q 269 884 269 1753 
Q 269 2309 461 2846 
Q 653 3384 1013 3828 
Q 1394 4300 1883 4525 
Q 2372 4750 3022 4750 
Q 3422 4750 3780 4639 
Q 4138 4528 4447 4306 
z
" transform="scale(0.015625)"/>
       <path id="DejaVuSans-Oblique-44" d="M 1081 4666 
L 2438 4666 
Q 3519 4666 4070 4208 
Q 4622 3750 4622 2847 
Q 4622 2250 4412 1698 
Q 4203 1147 3834 769 
Q 3463 381 2891 190 
Q 2319 0 1538 0 
L 172 0 
L 1081 4666 
z
M 1613 4147 
L 909 519 
L 1734 519 
Q 2794 519 3375 1128 
Q 3956 1738 3956 2847 
Q 3956 3519 3581 3833 
Q 3206 4147 2406 4147 
L 1613 4147 
z
" transform="scale(0.015625)"/>
       <path id="DejaVuSans-20" transform="scale(0.015625)"/>
       <path id="DejaVuSans-2f" d="M 1625 4666 
L 2156 4666 
L 531 -594 
L 0 -594 
L 1625 4666 
z
" transform="scale(0.015625)"/>
       <path id="DejaVuSans-Oblique-4a" d="M 1069 4666 
L 1703 4666 
L 856 325 
Q 691 -522 298 -901 
Q -94 -1281 -800 -1281 
L -1050 -1281 
L -947 -750 
L -750 -750 
Q -328 -750 -109 -509 
Q 109 -269 225 325 
L 1069 4666 
z
" transform="scale(0.015625)"/>
      </defs>
      <use xlink:href="#DejaVuSans-64" transform="translate(0 0.015625)"/>
      <use xlink:href="#DejaVuSans-Oblique-43" transform="translate(63.476562 0.015625)"/>
      <use xlink:href="#DejaVuSans-Oblique-44" transform="translate(133.300781 -16.390625) scale(0.7)"/>
      <use xlink:href="#DejaVuSans-20" transform="translate(189.936523 0.015625)"/>
      <use xlink:href="#DejaVuSans-2f" transform="translate(221.723633 0.015625)"/>
      <use xlink:href="#DejaVuSans-20" transform="translate(255.415039 0.015625)"/>
      <use xlink:href="#DejaVuSans-64" transform="translate(287.202148 0.015625)"/>
      <use xlink:href="#DejaVuSans-Oblique-4a" transform="translate(350.678711 0.015625)"/>
     </g>
    </g>
   </g>
   <g id="line2d_23">
    <path d="M 75.548539 18.22 
L 77.588648 18.390437 
L 79.628757 18.56378 
L 81.668866 18.740029 
L 83.708974 18.919185 
L 85.749083 19.101246 
L 87.789192 19.286214 
L 89.829301 19.474088 
L 91.86941 19.664868 
L 93.909519 19.858554 
L 95.949628 20.055146 
L 97.989736 20.254644 
L 100.029845 20.457049 
L 102.069954 20.662359 
L 104.110063 20.870576 
L 106.150172 21.081699 
L 108.190281 21.295728 
L 110.23039 21.512663 
L 112.270499 21.732505 
L 114.310607 21.955252 
L 116.350716 22.180906 
L 118.390825 22.409466 
L 120.430934 22.640932 
L 122.471043 22.875304 
L 124.511152 23.112582 
L 126.551261 23.352766 
L 128.591369 23.595857 
L 130.631478 23.841853 
L 132.671587 24.090756 
L 134.711696 24.342565 
L 136.751805 24.59728 
L 138.791914 24.854901 
L 140.832023 25.115429 
L 142.872132 25.378862 
L 144.91224 25.645202 
L 146.952349 25.914448 
L 148.992458 26.186599 
L 151.032567 26.461657 
L 153.072676 26.739622 
L 155.112785 27.020492 
L 157.152894 27.304268 
L 159.193003 27.590951 
L 161.233111 27.88054 
L 163.27322 28.173035 
L 165.313329 28.468436 
L 167.353438 28.766743 
L 169.393547 29.067956 
L 171.433656 29.372076 
L 173.473765 29.679101 
L 175.513873 29.989033 
L 177.553982 30.301871 
L 179.594091 30.617615 
L 181.6342 30.936265 
L 183.674309 31.257821 
L 185.714418 31.582284 
L 187.754527 31.909652 
L 189.794636 32.239927 
L 191.834744 32.573108 
L 193.874853 32.909195 
L 195.914962 33.248188 
L 197.955071 33.590088 
L 199.99518 33.934893 
L 202.035289 34.282605 
L 204.075398 34.633222 
L 206.115507 34.986746 
L 208.155615 35.343176 
L 210.195724 35.702512 
L 212.235833 36.064755 
L 214.275942 36.429903 
L 216.316051 36.797958 
L 218.35616 37.168918 
L 220.396269 37.542785 
L 222.436377 37.919558 
L 224.476486 38.299237 
L 226.516595 38.681823 
L 228.556704 39.067314 
L 230.596813 39.455712 
L 232.636922 39.847015 
L 234.677031 40.241225 
L 236.71714 40.638341 
L 238.757248 41.038363 
L 240.797357 41.441291 
L 242.837466 41.847126 
L 244.877575 42.255866 
L 246.917684 42.667513 
L 248.957793 43.082066 
L 250.997902 43.499525 
L 253.038011 43.91989 
L 255.078119 44.343161 
L 257.118228 44.769339 
L 259.158337 45.198422 
L 261.198446 45.630412 
L 263.238555 46.065308 
L 265.278664 46.50311 
L 267.318773 46.943818 
L 269.358881 47.387432 
L 271.39899 47.833952 
L 273.439099 48.283379 
L 275.479208 48.735712 
L 277.519317 49.19095 
" clip-path="url(#pd5317ddb72)" style="fill: none; stroke: #000080; stroke-width: 1.5; stroke-linecap: square"/>
   </g>
   <g id="line2d_24">
    <path d="M 75.548539 68.18785 
L 77.588648 68.767278 
L 79.628757 69.343066 
L 81.668866 69.915217 
L 83.708974 70.483729 
L 85.749083 71.048602 
L 87.789192 71.609837 
L 89.829301 72.167433 
L 91.86941 72.72139 
L 93.909519 73.27171 
L 95.949628 73.81839 
L 97.989736 74.361432 
L 100.029845 74.900836 
L 102.069954 75.436601 
L 104.110063 75.968728 
L 106.150172 76.497216 
L 108.190281 77.022065 
L 110.23039 77.543276 
L 112.270499 78.060849 
L 114.310607 78.574783 
L 116.350716 79.085079 
L 118.390825 79.591735 
L 120.430934 80.094754 
L 122.471043 80.594134 
L 124.511152 81.089875 
L 126.551261 81.581978 
L 128.591369 82.070443 
L 130.631478 82.555268 
L 132.671587 83.036456 
L 134.711696 83.514005 
L 136.751805 83.987915 
L 138.791914 84.458187 
L 140.832023 84.92482 
L 142.872132 85.387815 
L 144.91224 85.847171 
L 146.952349 86.302889 
L 148.992458 86.754968 
L 151.032567 87.203409 
L 153.072676 87.648211 
L 155.112785 88.089375 
L 157.152894 88.5269 
L 159.193003 88.960786 
L 161.233111 89.391035 
L 163.27322 89.817644 
L 165.313329 90.240615 
L 167.353438 90.659948 
L 169.393547 91.075642 
L 171.433656 91.487697 
L 173.473765 91.896114 
L 175.513873 92.300893 
L 177.553982 92.702033 
L 179.594091 93.099534 
L 181.6342 93.493397 
L 183.674309 93.883622 
L 185.714418 94.270208 
L 187.754527 94.653155 
L 189.794636 95.032464 
L 191.834744 95.408134 
L 193.874853 95.780166 
L 195.914962 96.148559 
L 197.955071 96.513314 
L 199.99518 96.874431 
L 202.035289 97.231908 
L 204.075398 97.585748 
L 206.115507 97.935948 
L 208.155615 98.282511 
L 210.195724 98.625434 
L 212.235833 98.964719 
L 214.275942 99.300366 
L 216.316051 99.632374 
L 218.35616 99.960744 
L 220.396269 100.285475 
L 222.436377 100.606568 
L 224.476486 100.924022 
L 226.516595 101.237837 
L 228.556704 101.548014 
L 230.596813 101.854553 
L 232.636922 102.157453 
L 234.677031 102.456714 
L 236.71714 102.752337 
L 238.757248 103.044322 
L 240.797357 103.332668 
L 242.837466 103.617375 
L 244.877575 103.898444 
L 246.917684 104.175875 
L 248.957793 104.449666 
L 250.997902 104.71982 
L 253.038011 104.986335 
L 255.078119 105.249211 
L 257.118228 105.508449 
L 259.158337 105.764048 
L 261.198446 106.016009 
L 263.238555 106.264331 
L 265.278664 106.509015 
L 267.318773 106.75006 
L 269.358881 106.987467 
L 271.39899 107.221235 
L 273.439099 107.451365 
L 275.479208 107.677856 
L 277.519317 107.900708 
" clip-path="url(#pd5317ddb72)" style="fill: none; stroke: #7dff7a; stroke-width: 1.5; stroke-linecap: square"/>
   </g>
   <g id="line2d_25">
    <path d="M 75.548539 118.155701 
L 77.588648 119.144118 
L 79.628757 120.122353 
L 81.668866 121.090404 
L 83.708974 122.048272 
L 85.749083 122.995957 
L 87.789192 123.933459 
L 89.829301 124.860778 
L 91.86941 125.777913 
L 93.909519 126.684866 
L 95.949628 127.581635 
L 97.989736 128.468221 
L 100.029845 129.344623 
L 102.069954 130.210843 
L 104.110063 131.066879 
L 106.150172 131.912733 
L 108.190281 132.748403 
L 110.23039 133.573889 
L 112.270499 134.389193 
L 114.310607 135.194314 
L 116.350716 135.989251 
L 118.390825 136.774005 
L 120.430934 137.548576 
L 122.471043 138.312964 
L 124.511152 139.067169 
L 126.551261 139.81119 
L 128.591369 140.545028 
L 130.631478 141.268684 
L 132.671587 141.982156 
L 134.711696 142.685444 
L 136.751805 143.37855 
L 138.791914 144.061472 
L 140.832023 144.734212 
L 142.872132 145.396768 
L 144.91224 146.049141 
L 146.952349 146.69133 
L 148.992458 147.323337 
L 151.032567 147.94516 
L 153.072676 148.5568 
L 155.112785 149.158257 
L 157.152894 149.749531 
L 159.193003 150.330622 
L 161.233111 150.901529 
L 163.27322 151.462254 
L 165.313329 152.012795 
L 167.353438 152.553153 
L 169.393547 153.083327 
L 171.433656 153.603319 
L 173.473765 154.113128 
L 175.513873 154.612753 
L 177.553982 155.102195 
L 179.594091 155.581454 
L 181.6342 156.050529 
L 183.674309 156.509422 
L 185.714418 156.958131 
L 187.754527 157.396658 
L 189.794636 157.825001 
L 191.834744 158.24316 
L 193.874853 158.651137 
L 195.914962 159.048931 
L 197.955071 159.436541 
L 199.99518 159.813968 
L 202.035289 160.181212 
L 204.075398 160.538273 
L 206.115507 160.885151 
L 208.155615 161.221845 
L 210.195724 161.548356 
L 212.235833 161.864684 
L 214.275942 162.170829 
L 216.316051 162.466791 
L 218.35616 162.75257 
L 220.396269 163.028165 
L 222.436377 163.293577 
L 224.476486 163.548806 
L 226.516595 163.793852 
L 228.556704 164.028715 
L 230.596813 164.253394 
L 232.636922 164.467891 
L 234.677031 164.672204 
L 236.71714 164.866334 
L 238.757248 165.050281 
L 240.797357 165.224044 
L 242.837466 165.387625 
L 244.877575 165.541022 
L 246.917684 165.684236 
L 248.957793 165.817267 
L 250.997902 165.940115 
L 253.038011 166.052779 
L 255.078119 166.155261 
L 257.118228 166.247559 
L 259.158337 166.329674 
L 261.198446 166.401606 
L 263.238555 166.463354 
L 265.278664 166.51492 
L 267.318773 166.556302 
L 269.358881 166.587502 
L 271.39899 166.608518 
L 273.439099 166.61935 
L 275.479208 166.62 
L 277.519317 166.610466 
" clip-path="url(#pd5317ddb72)" style="fill: none; stroke: #800000; stroke-width: 1.5; stroke-linecap: square"/>
   </g>
   <g id="patch_3">
    <path d="M 65.45 174.04 
L 65.45 10.8 
" style="fill: none; stroke: #000000; stroke-width: 0.8; stroke-linejoin: miter; stroke-linecap: square"/>
   </g>
   <g id="patch_4">
    <path d="M 287.617856 174.04 
L 287.617856 10.8 
" style="fill: none; stroke: #000000; stroke-width: 0.8; stroke-linejoin: miter; stroke-linecap: square"/>
   </g>
   <g id="patch_5">
    <path d="M 65.45 174.04 
L 287.617856 174.04 
" style="fill: none; stroke: #000000; stroke-width: 0.8; stroke-linejoin: miter; stroke-linecap: square"/>
   </g>
   <g id="patch_6">
    <path d="M 65.45 10.8 
L 287.617856 10.8 
" style="fill: none; stroke: #000000; stroke-width: 0.8; stroke-linejoin: miter; stroke-linecap: square"/>
   </g>
   <g id="legend_1">
    <g id="patch_7">
     <path d="M 296.617856 162.878 
L 420.517856 162.878 
Q 422.517856 162.878 422.517856 160.878 
L 422.517856 117.782687 
Q 422.517856 115.782687 420.517856 115.782687 
L 296.617856 115.782687 
Q 294.617856 115.782687 294.617856 117.782687 
L 294.617856 160.878 
Q 294.617856 162.878 296.617856 162.878 
z
" style="fill: #4d4d4d; opacity: 0.5; stroke: #4d4d4d; stroke-linejoin: miter"/>
    </g>
    <g id="patch_8">
     <path d="M 294.617856 160.878 
L 418.517856 160.878 
Q 420.517856 160.878 420.517856 158.878 
L 420.517856 115.782687 
Q 420.517856 113.782687 418.517856 113.782687 
L 294.617856 113.782687 
Q 292.617856 113.782687 292.617856 115.782687 
L 292.617856 158.878 
Q 292.617856 160.878 294.617856 160.878 
z
" style="fill: #ffffff; stroke: #cccccc; stroke-linejoin: miter"/>
    </g>
    <g id="line2d_26">
     <path d="M 296.617856 121.881125 
L 306.617856 121.881125 
L 316.617856 121.881125 
" style="fill: none; stroke: #000080; stroke-width: 1.5; stroke-linecap: square"/>
    </g>
    <g id="text_14">
     <!-- $\delta_e = -10$, $J = 1.60$ -->
     <g transform="translate(324.617856 125.381125) scale(0.1 -0.1)">
      <defs>
       <path id="DejaVuSans-Oblique-3b4" d="M 3472 4053 
Q 3197 4272 2450 4272 
Q 1659 4272 1588 3906 
Q 1531 3619 2328 3469 
Q 2953 3353 3253 3003 
Q 3616 2581 3447 1716 
Q 3284 888 2763 400 
Q 2238 -91 1488 -91 
Q 741 -91 406 400 
Q 72 888 241 1747 
Q 363 2384 891 2900 
Q 1097 3100 1353 3213 
Q 913 3459 1000 3900 
Q 1166 4750 2544 4750 
Q 3234 4750 3566 4531 
L 3472 4053 
z
M 1753 3056 
Q 1525 2966 1306 2738 
Q 969 2384 847 1747 
Q 722 1113 919 756 
Q 1119 397 1584 397 
Q 2044 397 2381 759 
Q 2722 1122 2838 1716 
Q 2956 2338 2731 2638 
Q 2491 2959 2103 2994 
Q 1906 3013 1753 3056 
z
" transform="scale(0.015625)"/>
       <path id="DejaVuSans-Oblique-65" d="M 3078 2063 
Q 3088 2113 3092 2166 
Q 3097 2219 3097 2272 
Q 3097 2653 2873 2875 
Q 2650 3097 2266 3097 
Q 1838 3097 1509 2826 
Q 1181 2556 1013 2059 
L 3078 2063 
z
M 3578 1613 
L 903 1613 
Q 884 1494 878 1425 
Q 872 1356 872 1306 
Q 872 872 1139 634 
Q 1406 397 1894 397 
Q 2269 397 2603 481 
Q 2938 566 3225 728 
L 3116 159 
Q 2806 34 2476 -28 
Q 2147 -91 1806 -91 
Q 1078 -91 686 257 
Q 294 606 294 1247 
Q 294 1794 489 2264 
Q 684 2734 1063 3103 
Q 1306 3334 1642 3459 
Q 1978 3584 2356 3584 
Q 2950 3584 3301 3228 
Q 3653 2872 3653 2272 
Q 3653 2128 3634 1964 
Q 3616 1800 3578 1613 
z
" transform="scale(0.015625)"/>
       <path id="DejaVuSans-3d" d="M 678 2906 
L 4684 2906 
L 4684 2381 
L 678 2381 
L 678 2906 
z
M 678 1631 
L 4684 1631 
L 4684 1100 
L 678 1100 
L 678 1631 
z
" transform="scale(0.015625)"/>
       <path id="DejaVuSans-31" d="M 794 531 
L 1825 531 
L 1825 4091 
L 703 3866 
L 703 4441 
L 1819 4666 
L 2450 4666 
L 2450 531 
L 3481 531 
L 3481 0 
L 794 0 
L 794 531 
z
" transform="scale(0.015625)"/>
       <path id="DejaVuSans-2c" d="M 750 794 
L 1409 794 
L 1409 256 
L 897 -744 
L 494 -744 
L 750 256 
L 750 794 
z
" transform="scale(0.015625)"/>
      </defs>
      <use xlink:href="#DejaVuSans-Oblique-3b4" transform="translate(0 0.78125)"/>
      <use xlink:href="#DejaVuSans-Oblique-65" transform="translate(61.181641 -15.625) scale(0.7)"/>
      <use xlink:href="#DejaVuSans-3d" transform="translate(126.464844 0.78125)"/>
      <use xlink:href="#DejaVuSans-2212" transform="translate(249.21875 0.78125)"/>
      <use xlink:href="#DejaVuSans-31" transform="translate(352.490234 0.78125)"/>
      <use xlink:href="#DejaVuSans-30" transform="translate(416.113281 0.78125)"/>
      <use xlink:href="#DejaVuSans-2c" transform="translate(479.736328 0.78125)"/>
      <use xlink:href="#DejaVuSans-20" transform="translate(511.523438 0.78125)"/>
      <use xlink:href="#DejaVuSans-Oblique-4a" transform="translate(543.310547 0.78125)"/>
      <use xlink:href="#DejaVuSans-3d" transform="translate(592.285156 0.78125)"/>
      <use xlink:href="#DejaVuSans-31" transform="translate(695.556641 0.78125)"/>
      <use xlink:href="#DejaVuSans-2e" transform="translate(759.179688 0.78125)"/>
      <use xlink:href="#DejaVuSans-36" transform="translate(790.966797 0.78125)"/>
      <use xlink:href="#DejaVuSans-30" transform="translate(854.589844 0.78125)"/>
     </g>
    </g>
    <g id="line2d_27">
     <path d="M 296.617856 136.579563 
L 306.617856 136.579563 
L 316.617856 136.579563 
" style="fill: none; stroke: #7dff7a; stroke-width: 1.5; stroke-linecap: square"/>
    </g>
    <g id="text_15">
     <!-- $\delta_e = 0$, $J = 1.60$ -->
     <g transform="translate(324.617856 140.079563) scale(0.1 -0.1)">
      <use xlink:href="#DejaVuSans-Oblique-3b4" transform="translate(0 0.78125)"/>
      <use xlink:href="#DejaVuSans-Oblique-65" transform="translate(61.181641 -15.625) scale(0.7)"/>
      <use xlink:href="#DejaVuSans-3d" transform="translate(126.464844 0.78125)"/>
      <use xlink:href="#DejaVuSans-30" transform="translate(229.736328 0.78125)"/>
      <use xlink:href="#DejaVuSans-2c" transform="translate(293.359375 0.78125)"/>
      <use xlink:href="#DejaVuSans-20" transform="translate(325.146484 0.78125)"/>
      <use xlink:href="#DejaVuSans-Oblique-4a" transform="translate(356.933594 0.78125)"/>
      <use xlink:href="#DejaVuSans-3d" transform="translate(405.908203 0.78125)"/>
      <use xlink:href="#DejaVuSans-31" transform="translate(509.179688 0.78125)"/>
      <use xlink:href="#DejaVuSans-2e" transform="translate(572.802734 0.78125)"/>
      <use xlink:href="#DejaVuSans-36" transform="translate(604.589844 0.78125)"/>
      <use xlink:href="#DejaVuSans-30" transform="translate(668.212891 0.78125)"/>
     </g>
    </g>
    <g id="line2d_28">
     <path d="M 296.617856 151.278 
L 306.617856 151.278 
L 316.617856 151.278 
" style="fill: none; stroke: #800000; stroke-width: 1.5; stroke-linecap: square"/>
    </g>
    <g id="text_16">
     <!-- $\delta_e = 10$, $J = 1.60$ -->
     <g transform="translate(324.617856 154.778) scale(0.1 -0.1)">
      <use xlink:href="#DejaVuSans-Oblique-3b4" transform="translate(0 0.78125)"/>
      <use xlink:href="#DejaVuSans-Oblique-65" transform="translate(61.181641 -15.625) scale(0.7)"/>
      <use xlink:href="#DejaVuSans-3d" transform="translate(126.464844 0.78125)"/>
      <use xlink:href="#DejaVuSans-31" transform="translate(229.736328 0.78125)"/>
      <use xlink:href="#DejaVuSans-30" transform="translate(293.359375 0.78125)"/>
      <use xlink:href="#DejaVuSans-2c" transform="translate(356.982422 0.78125)"/>
      <use xlink:href="#DejaVuSans-20" transform="translate(388.769531 0.78125)"/>
      <use xlink:href="#DejaVuSans-Oblique-4a" transform="translate(420.556641 0.78125)"/>
      <use xlink:href="#DejaVuSans-3d" transform="translate(469.53125 0.78125)"/>
      <use xlink:href="#DejaVuSans-31" transform="translate(572.802734 0.78125)"/>
      <use xlink:href="#DejaVuSans-2e" transform="translate(636.425781 0.78125)"/>
      <use xlink:href="#DejaVuSans-36" transform="translate(668.212891 0.78125)"/>
      <use xlink:href="#DejaVuSans-30" transform="translate(731.835938 0.78125)"/>
     </g>
    </g>
   </g>
  </g>
 </g>
 <defs>
  <clipPath id="pd5317ddb72">
   <rect x="65.45" y="10.8" width="222.167856" height="163.24"/>
  </clipPath>
 </defs>
</svg>
