<?xml version="1.0" encoding="utf-8" standalone="no"?>
<!DOCTYPE svg PUBLIC "-//W3C//DTD SVG 1.1//EN"
  "http://www.w3.org/Graphics/SVG/1.1/DTD/svg11.dtd">
<svg xmlns:xlink="http://www.w3.org/1999/xlink" width="288pt" height="216pt" viewBox="0 0 288 216" xmlns="http://www.w3.org/2000/svg" version="1.1">
 <metadata>
  <rdf:RDF xmlns:dc="http://purl.org/dc/elements/1.1/" xmlns:cc="http://creativecommons.org/ns#" xmlns:rdf="http://www.w3.org/1999/02/22-rdf-syntax-ns#">
   <cc:Work>
    <dc:type rdf:resource="http://purl.org/dc/dcmitype/StillImage"/>
    <dc:date>2025-03-26T10:31:45.339591</dc:date>
    <dc:format>image/svg+xml</dc:format>
    <dc:creator>
     <cc:Agent>
      <dc:title>Matplotlib v3.9.2, https://matplotlib.org/</dc:title>
     </cc:Agent>
    </dc:creator>
   </cc:Work>
  </rdf:RDF>
 </metadata>
 <defs>
  <style type="text/css">*{stroke-linejoin: round; stroke-linecap: butt}</style>
 </defs>
 <g id="figure_1">
  <g id="patch_1">
   <path d="M 0 216 
L 288 216 
L 288 0 
L 0 0 
z
" style="fill: #ffffff"/>
  </g>
  <g id="axes_1">
   <g id="patch_2">
    <path d="M 63.47 174.04 
L 277.2 174.04 
L 277.2 14.563624 
L 63.47 14.563624 
z
" style="fill: #ffffff"/>
   </g>
   <g id="matplotlib.axis_1">
    <g id="xtick_1">
     <g id="line2d_1">
      <path d="M 73.185 174.04 
L 73.185 14.563624 
" clip-path="url(#pa58cd36af5)" style="fill: none; stroke: #b0b0b0; stroke-width: 0.8; stroke-linecap: square"/>
     </g>
     <g id="line2d_2">
      <defs>
       <path id="m1863a1924b" d="M 0 0 
L 0 3.5 
" style="stroke: #000000; stroke-width: 0.8"/>
      </defs>
      <g>
       <use xlink:href="#m1863a1924b" x="73.185" y="174.04" style="stroke: #000000; stroke-width: 0.8"/>
      </g>
     </g>
     <g id="text_1">
      <!-- 0 -->
      <g transform="translate(70.00375 188.638438) scale(0.1 -0.1)">
       <defs>
        <path id="DejaVuSans-30" d="M 2034 4250 
Q 1547 4250 1301 3770 
Q 1056 3291 1056 2328 
Q 1056 1369 1301 889 
Q 1547 409 2034 409 
Q 2525 409 2770 889 
Q 3016 1369 3016 2328 
Q 3016 3291 2770 3770 
Q 2525 4250 2034 4250 
z
M 2034 4750 
Q 2819 4750 3233 4129 
Q 3647 3509 3647 2328 
Q 3647 1150 3233 529 
Q 2819 -91 2034 -91 
Q 1250 -91 836 529 
Q 422 1150 422 2328 
Q 422 3509 836 4129 
Q 1250 4750 2034 4750 
z
" transform="scale(0.015625)"/>
       </defs>
       <use xlink:href="#DejaVuSans-30"/>
      </g>
     </g>
    </g>
    <g id="xtick_2">
     <g id="line2d_3">
      <path d="M 128.699286 174.04 
L 128.699286 14.563624 
" clip-path="url(#pa58cd36af5)" style="fill: none; stroke: #b0b0b0; stroke-width: 0.8; stroke-linecap: square"/>
     </g>
     <g id="line2d_4">
      <g>
       <use xlink:href="#m1863a1924b" x="128.699286" y="174.04" style="stroke: #000000; stroke-width: 0.8"/>
      </g>
     </g>
     <g id="text_2">
      <!-- 2 -->
      <g transform="translate(125.518036 188.638438) scale(0.1 -0.1)">
       <defs>
        <path id="DejaVuSans-32" d="M 1228 531 
L 3431 531 
L 3431 0 
L 469 0 
L 469 531 
Q 828 903 1448 1529 
Q 2069 2156 2228 2338 
Q 2531 2678 2651 2914 
Q 2772 3150 2772 3378 
Q 2772 3750 2511 3984 
Q 2250 4219 1831 4219 
Q 1534 4219 1204 4116 
Q 875 4013 500 3803 
L 500 4441 
Q 881 4594 1212 4672 
Q 1544 4750 1819 4750 
Q 2544 4750 2975 4387 
Q 3406 4025 3406 3419 
Q 3406 3131 3298 2873 
Q 3191 2616 2906 2266 
Q 2828 2175 2409 1742 
Q 1991 1309 1228 531 
z
" transform="scale(0.015625)"/>
       </defs>
       <use xlink:href="#DejaVuSans-32"/>
      </g>
     </g>
    </g>
    <g id="xtick_3">
     <g id="line2d_5">
      <path d="M 184.213571 174.04 
L 184.213571 14.563624 
" clip-path="url(#pa58cd36af5)" style="fill: none; stroke: #b0b0b0; stroke-width: 0.8; stroke-linecap: square"/>
     </g>
     <g id="line2d_6">
      <g>
       <use xlink:href="#m1863a1924b" x="184.213571" y="174.04" style="stroke: #000000; stroke-width: 0.8"/>
      </g>
     </g>
     <g id="text_3">
      <!-- 4 -->
      <g transform="translate(181.032321 188.638438) scale(0.1 -0.1)">
       <defs>
        <path id="DejaVuSans-34" d="M 2419 4116 
L 825 1625 
L 2419 1625 
L 2419 4116 
z
M 2253 4666 
L 3047 4666 
L 3047 1625 
L 3713 1625 
L 3713 1100 
L 3047 1100 
L 3047 0 
L 2419 0 
L 2419 1100 
L 313 1100 
L 313 1709 
L 2253 4666 
z
" transform="scale(0.015625)"/>
       </defs>
       <use xlink:href="#DejaVuSans-34"/>
      </g>
     </g>
    </g>
    <g id="xtick_4">
     <g id="line2d_7">
      <path d="M 239.727857 174.04 
L 239.727857 14.563624 
" clip-path="url(#pa58cd36af5)" style="fill: none; stroke: #b0b0b0; stroke-width: 0.8; stroke-linecap: square"/>
     </g>
     <g id="line2d_8">
      <g>
       <use xlink:href="#m1863a1924b" x="239.727857" y="174.04" style="stroke: #000000; stroke-width: 0.8"/>
      </g>
     </g>
     <g id="text_4">
      <!-- 6 -->
      <g transform="translate(236.546607 188.638438) scale(0.1 -0.1)">
       <defs>
        <path id="DejaVuSans-36" d="M 2113 2584 
Q 1688 2584 1439 2293 
Q 1191 2003 1191 1497 
Q 1191 994 1439 701 
Q 1688 409 2113 409 
Q 2538 409 2786 701 
Q 3034 994 3034 1497 
Q 3034 2003 2786 2293 
Q 2538 2584 2113 2584 
z
M 3366 4563 
L 3366 3988 
Q 3128 4100 2886 4159 
Q 2644 4219 2406 4219 
Q 1781 4219 1451 3797 
Q 1122 3375 1075 2522 
Q 1259 2794 1537 2939 
Q 1816 3084 2150 3084 
Q 2853 3084 3261 2657 
Q 3669 2231 3669 1497 
Q 3669 778 3244 343 
Q 2819 -91 2113 -91 
Q 1303 -91 875 529 
Q 447 1150 447 2328 
Q 447 3434 972 4092 
Q 1497 4750 2381 4750 
Q 2619 4750 2861 4703 
Q 3103 4656 3366 4563 
z
" transform="scale(0.015625)"/>
       </defs>
       <use xlink:href="#DejaVuSans-36"/>
      </g>
     </g>
    </g>
    <g id="text_5">
     <!-- $\alpha$ -->
     <g transform="translate(167.035 202.316563) scale(0.1 -0.1)">
      <defs>
       <path id="DejaVuSans-Oblique-3b1" d="M 2619 1628 
L 2622 2350 
Q 2625 3088 2069 3091 
Q 1653 3094 1394 2747 
Q 1069 2319 959 1747 
Q 825 1059 994 731 
Q 1169 397 1547 397 
Q 1966 397 2319 1063 
L 2619 1628 
z
M 2166 3578 
Q 3141 3594 3128 2584 
Q 3128 2584 3616 3500 
L 4128 3500 
L 3119 1603 
L 3109 919 
Q 3109 766 3194 638 
Q 3291 488 3391 488 
L 3669 488 
L 3575 0 
L 3228 0 
Q 2934 0 2722 263 
Q 2622 394 2619 669 
Q 2416 334 2066 50 
Q 1900 -81 1453 -78 
Q 722 -72 456 397 
Q 184 884 353 1747 
Q 534 2675 1009 3097 
Q 1544 3569 2166 3578 
z
" transform="scale(0.015625)"/>
      </defs>
      <use xlink:href="#DejaVuSans-Oblique-3b1" transform="translate(0 0.84375)"/>
     </g>
    </g>
   </g>
   <g id="matplotlib.axis_2">
    <g id="ytick_1">
     <g id="line2d_9">
      <path d="M 63.47 164.44841 
L 277.2 164.44841 
" clip-path="url(#pa58cd36af5)" style="fill: none; stroke: #b0b0b0; stroke-width: 0.8; stroke-linecap: square"/>
     </g>
     <g id="line2d_10">
      <defs>
       <path id="m8ab2997385" d="M 0 0 
L -3.5 0 
" style="stroke: #000000; stroke-width: 0.8"/>
      </defs>
      <g>
       <use xlink:href="#m8ab2997385" x="63.47" y="164.44841" style="stroke: #000000; stroke-width: 0.8"/>
      </g>
     </g>
     <g id="text_6">
      <!-- 0.169 -->
      <g transform="translate(27.841875 168.247629) scale(0.1 -0.1)">
       <defs>
        <path id="DejaVuSans-2e" d="M 684 794 
L 1344 794 
L 1344 0 
L 684 0 
L 684 794 
z
" transform="scale(0.015625)"/>
        <path id="DejaVuSans-31" d="M 794 531 
L 1825 531 
L 1825 4091 
L 703 3866 
L 703 4441 
L 1819 4666 
L 2450 4666 
L 2450 531 
L 3481 531 
L 3481 0 
L 794 0 
L 794 531 
z
" transform="scale(0.015625)"/>
        <path id="DejaVuSans-39" d="M 703 97 
L 703 672 
Q 941 559 1184 500 
Q 1428 441 1663 441 
Q 2288 441 2617 861 
Q 2947 1281 2994 2138 
Q 2813 1869 2534 1725 
Q 2256 1581 1919 1581 
Q 1219 1581 811 2004 
Q 403 2428 403 3163 
Q 403 3881 828 4315 
Q 1253 4750 1959 4750 
Q 2769 4750 3195 4129 
Q 3622 3509 3622 2328 
Q 3622 1225 3098 567 
Q 2575 -91 1691 -91 
Q 1453 -91 1209 -44 
Q 966 3 703 97 
z
M 1959 2075 
Q 2384 2075 2632 2365 
Q 2881 2656 2881 3163 
Q 2881 3666 2632 3958 
Q 2384 4250 1959 4250 
Q 1534 4250 1286 3958 
Q 1038 3666 1038 3163 
Q 1038 2656 1286 2365 
Q 1534 2075 1959 2075 
z
" transform="scale(0.015625)"/>
       </defs>
       <use xlink:href="#DejaVuSans-30"/>
       <use xlink:href="#DejaVuSans-2e" x="63.623047"/>
       <use xlink:href="#DejaVuSans-31" x="95.410156"/>
       <use xlink:href="#DejaVuSans-36" x="159.033203"/>
       <use xlink:href="#DejaVuSans-39" x="222.65625"/>
      </g>
     </g>
    </g>
    <g id="ytick_2">
     <g id="line2d_11">
      <path d="M 63.47 134.509112 
L 277.2 134.509112 
" clip-path="url(#pa58cd36af5)" style="fill: none; stroke: #b0b0b0; stroke-width: 0.8; stroke-linecap: square"/>
     </g>
     <g id="line2d_12">
      <g>
       <use xlink:href="#m8ab2997385" x="63.47" y="134.509112" style="stroke: #000000; stroke-width: 0.8"/>
      </g>
     </g>
     <g id="text_7">
      <!-- 0.170 -->
      <g transform="translate(27.841875 138.308331) scale(0.1 -0.1)">
       <defs>
        <path id="DejaVuSans-37" d="M 525 4666 
L 3525 4666 
L 3525 4397 
L 1831 0 
L 1172 0 
L 2766 4134 
L 525 4134 
L 525 4666 
z
" transform="scale(0.015625)"/>
       </defs>
       <use xlink:href="#DejaVuSans-30"/>
       <use xlink:href="#DejaVuSans-2e" x="63.623047"/>
       <use xlink:href="#DejaVuSans-31" x="95.410156"/>
       <use xlink:href="#DejaVuSans-37" x="159.033203"/>
       <use xlink:href="#DejaVuSans-30" x="222.65625"/>
      </g>
     </g>
    </g>
    <g id="ytick_3">
     <g id="line2d_13">
      <path d="M 63.47 104.569814 
L 277.2 104.569814 
" clip-path="url(#pa58cd36af5)" style="fill: none; stroke: #b0b0b0; stroke-width: 0.8; stroke-linecap: square"/>
     </g>
     <g id="line2d_14">
      <g>
       <use xlink:href="#m8ab2997385" x="63.47" y="104.569814" style="stroke: #000000; stroke-width: 0.8"/>
      </g>
     </g>
     <g id="text_8">
      <!-- 0.171 -->
      <g transform="translate(27.841875 108.369033) scale(0.1 -0.1)">
       <use xlink:href="#DejaVuSans-30"/>
       <use xlink:href="#DejaVuSans-2e" x="63.623047"/>
       <use xlink:href="#DejaVuSans-31" x="95.410156"/>
       <use xlink:href="#DejaVuSans-37" x="159.033203"/>
       <use xlink:href="#DejaVuSans-31" x="222.65625"/>
      </g>
     </g>
    </g>
    <g id="ytick_4">
     <g id="line2d_15">
      <path d="M 63.47 74.630516 
L 277.2 74.630516 
" clip-path="url(#pa58cd36af5)" style="fill: none; stroke: #b0b0b0; stroke-width: 0.8; stroke-linecap: square"/>
     </g>
     <g id="line2d_16">
      <g>
       <use xlink:href="#m8ab2997385" x="63.47" y="74.630516" style="stroke: #000000; stroke-width: 0.8"/>
      </g>
     </g>
     <g id="text_9">
      <!-- 0.172 -->
      <g transform="translate(27.841875 78.429735) scale(0.1 -0.1)">
       <use xlink:href="#DejaVuSans-30"/>
       <use xlink:href="#DejaVuSans-2e" x="63.623047"/>
       <use xlink:href="#DejaVuSans-31" x="95.410156"/>
       <use xlink:href="#DejaVuSans-37" x="159.033203"/>
       <use xlink:href="#DejaVuSans-32" x="222.65625"/>
      </g>
     </g>
    </g>
    <g id="ytick_5">
     <g id="line2d_17">
      <path d="M 63.47 44.691218 
L 277.2 44.691218 
" clip-path="url(#pa58cd36af5)" style="fill: none; stroke: #b0b0b0; stroke-width: 0.8; stroke-linecap: square"/>
     </g>
     <g id="line2d_18">
      <g>
       <use xlink:href="#m8ab2997385" x="63.47" y="44.691218" style="stroke: #000000; stroke-width: 0.8"/>
      </g>
     </g>
     <g id="text_10">
      <!-- 0.173 -->
      <g transform="translate(27.841875 48.490436) scale(0.1 -0.1)">
       <defs>
        <path id="DejaVuSans-33" d="M 2597 2516 
Q 3050 2419 3304 2112 
Q 3559 1806 3559 1356 
Q 3559 666 3084 287 
Q 2609 -91 1734 -91 
Q 1441 -91 1130 -33 
Q 819 25 488 141 
L 488 750 
Q 750 597 1062 519 
Q 1375 441 1716 441 
Q 2309 441 2620 675 
Q 2931 909 2931 1356 
Q 2931 1769 2642 2001 
Q 2353 2234 1838 2234 
L 1294 2234 
L 1294 2753 
L 1863 2753 
Q 2328 2753 2575 2939 
Q 2822 3125 2822 3475 
Q 2822 3834 2567 4026 
Q 2313 4219 1838 4219 
Q 1578 4219 1281 4162 
Q 984 4106 628 3988 
L 628 4550 
Q 988 4650 1302 4700 
Q 1616 4750 1894 4750 
Q 2613 4750 3031 4423 
Q 3450 4097 3450 3541 
Q 3450 3153 3228 2886 
Q 3006 2619 2597 2516 
z
" transform="scale(0.015625)"/>
       </defs>
       <use xlink:href="#DejaVuSans-30"/>
       <use xlink:href="#DejaVuSans-2e" x="63.623047"/>
       <use xlink:href="#DejaVuSans-31" x="95.410156"/>
       <use xlink:href="#DejaVuSans-37" x="159.033203"/>
       <use xlink:href="#DejaVuSans-33" x="222.65625"/>
      </g>
     </g>
    </g>
    <g id="ytick_6">
     <g id="line2d_19">
      <path d="M 63.47 14.75192 
L 277.2 14.75192 
" clip-path="url(#pa58cd36af5)" style="fill: none; stroke: #b0b0b0; stroke-width: 0.8; stroke-linecap: square"/>
     </g>
     <g id="line2d_20">
      <g>
       <use xlink:href="#m8ab2997385" x="63.47" y="14.75192" style="stroke: #000000; stroke-width: 0.8"/>
      </g>
     </g>
     <g id="text_11">
      <!-- 0.174 -->
      <g transform="translate(27.841875 18.551138) scale(0.1 -0.1)">
       <use xlink:href="#DejaVuSans-30"/>
       <use xlink:href="#DejaVuSans-2e" x="63.623047"/>
       <use xlink:href="#DejaVuSans-31" x="95.410156"/>
       <use xlink:href="#DejaVuSans-37" x="159.033203"/>
       <use xlink:href="#DejaVuSans-34" x="222.65625"/>
      </g>
     </g>
    </g>
    <g id="text_12">
     <!-- $dCD/dJ$ -->
     <g transform="translate(21.741875 111.151812) rotate(-90) scale(0.1 -0.1)">
      <defs>
       <path id="DejaVuSans-Oblique-64" d="M 2675 525 
Q 2444 222 2128 65 
Q 1813 -91 1428 -91 
Q 903 -91 598 267 
Q 294 625 294 1247 
Q 294 1766 478 2236 
Q 663 2706 1013 3078 
Q 1244 3325 1534 3454 
Q 1825 3584 2144 3584 
Q 2481 3584 2739 3421 
Q 2997 3259 3138 2956 
L 3513 4863 
L 4091 4863 
L 3144 0 
L 2566 0 
L 2675 525 
z
M 891 1350 
Q 891 897 1095 644 
Q 1300 391 1663 391 
Q 1931 391 2161 520 
Q 2391 650 2566 903 
Q 2750 1166 2856 1509 
Q 2963 1853 2963 2188 
Q 2963 2622 2758 2865 
Q 2553 3109 2194 3109 
Q 1922 3109 1687 2981 
Q 1453 2853 1288 2613 
Q 1106 2353 998 2009 
Q 891 1666 891 1350 
z
" transform="scale(0.015625)"/>
       <path id="DejaVuSans-Oblique-43" d="M 4447 4306 
L 4319 3641 
Q 4019 3944 3683 4091 
Q 3347 4238 2956 4238 
Q 2422 4238 2017 3981 
Q 1613 3725 1319 3200 
Q 1131 2863 1032 2486 
Q 934 2109 934 1728 
Q 934 1091 1264 756 
Q 1594 422 2222 422 
Q 2656 422 3056 561 
Q 3456 700 3834 978 
L 3688 231 
Q 3316 72 2936 -9 
Q 2556 -91 2175 -91 
Q 1278 -91 773 396 
Q 269 884 269 1753 
Q 269 2309 461 2846 
Q 653 3384 1013 3828 
Q 1394 4300 1883 4525 
Q 2372 4750 3022 4750 
Q 3422 4750 3780 4639 
Q 4138 4528 4447 4306 
z
" transform="scale(0.015625)"/>
       <path id="DejaVuSans-Oblique-44" d="M 1081 4666 
L 2438 4666 
Q 3519 4666 4070 4208 
Q 4622 3750 4622 2847 
Q 4622 2250 4412 1698 
Q 4203 1147 3834 769 
Q 3463 381 2891 190 
Q 2319 0 1538 0 
L 172 0 
L 1081 4666 
z
M 1613 4147 
L 909 519 
L 1734 519 
Q 2794 519 3375 1128 
Q 3956 1738 3956 2847 
Q 3956 3519 3581 3833 
Q 3206 4147 2406 4147 
L 1613 4147 
z
" transform="scale(0.015625)"/>
       <path id="DejaVuSans-2f" d="M 1625 4666 
L 2156 4666 
L 531 -594 
L 0 -594 
L 1625 4666 
z
" transform="scale(0.015625)"/>
       <path id="DejaVuSans-Oblique-4a" d="M 1069 4666 
L 1703 4666 
L 856 325 
Q 691 -522 298 -901 
Q -94 -1281 -800 -1281 
L -1050 -1281 
L -947 -750 
L -750 -750 
Q -328 -750 -109 -509 
Q 109 -269 225 325 
L 1069 4666 
z
" transform="scale(0.015625)"/>
      </defs>
      <use xlink:href="#DejaVuSans-Oblique-64" transform="translate(0 0.015625)"/>
      <use xlink:href="#DejaVuSans-Oblique-43" transform="translate(63.476562 0.015625)"/>
      <use xlink:href="#DejaVuSans-Oblique-44" transform="translate(133.300781 0.015625)"/>
      <use xlink:href="#DejaVuSans-2f" transform="translate(210.302734 0.015625)"/>
      <use xlink:href="#DejaVuSans-Oblique-64" transform="translate(243.994141 0.015625)"/>
      <use xlink:href="#DejaVuSans-Oblique-4a" transform="translate(307.470703 0.015625)"/>
     </g>
    </g>
   </g>
   <g id="line2d_21">
    <path d="M 73.185 71.791354 
L 75.147626 70.944865 
L 77.110253 70.116476 
L 79.072879 69.306189 
L 81.035505 68.514003 
L 82.998131 67.739918 
L 84.960758 66.983933 
L 86.923384 66.24605 
L 88.88601 65.526268 
L 90.848636 64.824587 
L 92.811263 64.141006 
L 94.773889 63.475527 
L 96.736515 62.828149 
L 98.699141 62.198871 
L 100.661768 61.587695 
L 102.624394 60.99462 
L 104.58702 60.419645 
L 106.549646 59.862772 
L 108.512273 59.324 
L 110.474899 58.803328 
L 112.437525 58.300758 
L 114.400152 57.816289 
L 116.362778 57.34992 
L 118.325404 56.901653 
L 120.28803 56.471487 
L 122.250657 56.059421 
L 124.213283 55.665457 
L 126.175909 55.289593 
L 128.138535 54.931831 
L 130.101162 54.59217 
L 132.063788 54.270609 
L 134.026414 53.96715 
L 135.98904 53.681792 
L 137.951667 53.414534 
L 139.914293 53.165378 
L 141.876919 52.934322 
L 143.839545 52.721368 
L 145.802172 52.526514 
L 147.764798 52.349762 
L 149.727424 52.191111 
L 151.690051 52.05056 
L 153.652677 51.928111 
L 155.615303 51.823762 
L 157.577929 51.737515 
L 159.540556 51.669368 
L 161.503182 51.619323 
L 163.465808 51.587378 
L 165.428434 51.573535 
L 167.391061 51.577792 
L 169.353687 51.600151 
L 171.316313 51.64061 
L 173.278939 51.699171 
L 175.241566 51.775832 
L 177.204192 51.870595 
L 179.166818 51.983458 
L 181.129444 52.114423 
L 183.092071 52.263488 
L 185.054697 52.430655 
L 187.017323 52.615922 
L 188.979949 52.819291 
L 190.942576 53.04076 
L 192.905202 53.28033 
L 194.867828 53.538002 
L 196.830455 53.813774 
L 198.793081 54.107648 
L 200.755707 54.419622 
L 202.718333 54.749698 
L 204.68096 55.097874 
L 206.643586 55.464151 
L 208.606212 55.84853 
L 210.568838 56.251009 
L 212.531465 56.67159 
L 214.494091 57.110271 
L 216.456717 57.567053 
L 218.419343 58.041937 
L 220.38197 58.534921 
L 222.344596 59.046006 
L 224.307222 59.575193 
L 226.269848 60.12248 
L 228.232475 60.687869 
L 230.195101 61.271358 
L 232.157727 61.872948 
L 234.120354 62.49264 
L 236.08298 63.130432 
L 238.045606 63.786325 
L 240.008232 64.460319 
L 241.970859 65.152415 
L 243.933485 65.862611 
L 245.896111 66.590908 
L 247.858737 67.337307 
L 249.821364 68.101806 
L 251.78399 68.884406 
L 253.746616 69.685108 
L 255.709242 70.50391 
L 257.671869 71.340813 
L 259.634495 72.195817 
L 261.597121 73.068923 
L 263.559747 73.960129 
L 265.522374 74.869436 
L 267.485 75.796844 
" clip-path="url(#pa58cd36af5)" style="fill: none; stroke: #440154; stroke-width: 1.5; stroke-linecap: square"/>
   </g>
   <g id="line2d_22">
    <path d="M 73.185 119.291214 
L 75.147626 117.653956 
L 77.110253 116.035582 
L 79.072879 114.436091 
L 81.035505 112.855483 
L 82.998131 111.293758 
L 84.960758 109.750916 
L 86.923384 108.226957 
L 88.88601 106.721881 
L 90.848636 105.235688 
L 92.811263 103.768379 
L 94.773889 102.319953 
L 96.736515 100.890409 
L 98.699141 99.479749 
L 100.661768 98.087972 
L 102.624394 96.715078 
L 104.58702 95.361067 
L 106.549646 94.02594 
L 108.512273 92.709695 
L 110.474899 91.412334 
L 112.437525 90.133855 
L 114.400152 88.87426 
L 116.362778 87.633548 
L 118.325404 86.411719 
L 120.28803 85.208773 
L 122.250657 84.02471 
L 124.213283 82.85953 
L 126.175909 81.713234 
L 128.138535 80.58582 
L 130.101162 79.47729 
L 132.063788 78.387643 
L 134.026414 77.316879 
L 135.98904 76.264998 
L 137.951667 75.232 
L 139.914293 74.217885 
L 141.876919 73.222653 
L 143.839545 72.246305 
L 145.802172 71.288839 
L 147.764798 70.350257 
L 149.727424 69.430558 
L 151.690051 68.529741 
L 153.652677 67.647808 
L 155.615303 66.784758 
L 157.577929 65.940592 
L 159.540556 65.115308 
L 161.503182 64.308907 
L 163.465808 63.52139 
L 165.428434 62.752756 
L 167.391061 62.003004 
L 169.353687 61.272136 
L 171.316313 60.560151 
L 173.278939 59.867049 
L 175.241566 59.19283 
L 177.204192 58.537495 
L 179.166818 57.901042 
L 181.129444 57.283473 
L 183.092071 56.684786 
L 185.054697 56.104983 
L 187.017323 55.544063 
L 188.979949 55.002026 
L 190.942576 54.478872 
L 192.905202 53.974601 
L 194.867828 53.489214 
L 196.830455 53.022709 
L 198.793081 52.575088 
L 200.755707 52.146349 
L 202.718333 51.736494 
L 204.68096 51.345522 
L 206.643586 50.973433 
L 208.606212 50.620227 
L 210.568838 50.285904 
L 212.531465 49.970465 
L 214.494091 49.673908 
L 216.456717 49.396235 
L 218.419343 49.137444 
L 220.38197 48.897537 
L 222.344596 48.676513 
L 224.307222 48.474372 
L 226.269848 48.291114 
L 228.232475 48.126739 
L 230.195101 47.981248 
L 232.157727 47.854639 
L 234.120354 47.746914 
L 236.08298 47.658071 
L 238.045606 47.588112 
L 240.008232 47.537036 
L 241.970859 47.504843 
L 243.933485 47.491533 
L 245.896111 47.497106 
L 247.858737 47.521563 
L 249.821364 47.564902 
L 251.78399 47.627125 
L 253.746616 47.70823 
L 255.709242 47.808219 
L 257.671869 47.927091 
L 259.634495 48.064846 
L 261.597121 48.221484 
L 263.559747 48.397005 
L 265.522374 48.59141 
L 267.485 48.804697 
" clip-path="url(#pa58cd36af5)" style="fill: none; stroke: #21918c; stroke-width: 1.5; stroke-linecap: square"/>
   </g>
   <g id="line2d_23">
    <path d="M 73.185 166.791074 
L 75.147626 164.363048 
L 77.110253 161.954688 
L 79.072879 159.565992 
L 81.035505 157.196962 
L 82.998131 154.847597 
L 84.960758 152.517898 
L 86.923384 150.207863 
L 88.88601 147.917494 
L 90.848636 145.64679 
L 92.811263 143.395752 
L 94.773889 141.164378 
L 96.736515 138.95267 
L 98.699141 136.760627 
L 100.661768 134.588249 
L 102.624394 132.435537 
L 104.58702 130.302489 
L 106.549646 128.189107 
L 108.512273 126.095391 
L 110.474899 124.021339 
L 112.437525 121.966953 
L 114.400152 119.932231 
L 116.362778 117.917175 
L 118.325404 115.921785 
L 120.28803 113.946059 
L 122.250657 111.989999 
L 124.213283 110.053604 
L 126.175909 108.136874 
L 128.138535 106.23981 
L 130.101162 104.36241 
L 132.063788 102.504676 
L 134.026414 100.666607 
L 135.98904 98.848204 
L 137.951667 97.049465 
L 139.914293 95.270392 
L 141.876919 93.510984 
L 143.839545 91.771241 
L 145.802172 90.051164 
L 147.764798 88.350752 
L 149.727424 86.670005 
L 151.690051 85.008923 
L 153.652677 83.367506 
L 155.615303 81.745755 
L 157.577929 80.143669 
L 159.540556 78.561248 
L 161.503182 76.998492 
L 163.465808 75.455402 
L 165.428434 73.931976 
L 167.391061 72.428216 
L 169.353687 70.944122 
L 171.316313 69.479692 
L 173.278939 68.034928 
L 175.241566 66.609829 
L 177.204192 65.204395 
L 179.166818 63.818626 
L 181.129444 62.452523 
L 183.092071 61.106085 
L 185.054697 59.779312 
L 187.017323 58.472204 
L 188.979949 57.184762 
L 190.942576 55.916984 
L 192.905202 54.668872 
L 194.867828 53.440425 
L 196.830455 52.231644 
L 198.793081 51.042528 
L 200.755707 49.873076 
L 202.718333 48.723291 
L 204.68096 47.59317 
L 206.643586 46.482714 
L 208.606212 45.391924 
L 210.568838 44.320799 
L 212.531465 43.26934 
L 214.494091 42.237545 
L 216.456717 41.225416 
L 218.419343 40.232952 
L 220.38197 39.260153 
L 222.344596 38.307019 
L 224.307222 37.373551 
L 226.269848 36.459748 
L 228.232475 35.56561 
L 230.195101 34.691137 
L 232.157727 33.83633 
L 234.120354 33.001188 
L 236.08298 32.185711 
L 238.045606 31.389899 
L 240.008232 30.613752 
L 241.970859 29.857271 
L 243.933485 29.120455 
L 245.896111 28.403304 
L 247.858737 27.705818 
L 249.821364 27.027998 
L 251.78399 26.369843 
L 253.746616 25.731353 
L 255.709242 25.112528 
L 257.671869 24.513369 
L 259.634495 23.933874 
L 261.597121 23.374045 
L 263.559747 22.833882 
L 265.522374 22.313383 
L 267.485 21.81255 
" clip-path="url(#pa58cd36af5)" style="fill: none; stroke: #fde725; stroke-width: 1.5; stroke-linecap: square"/>
   </g>
   <g id="patch_3">
    <path d="M 63.47 174.04 
L 63.47 14.563624 
" style="fill: none; stroke: #000000; stroke-width: 0.8; stroke-linejoin: miter; stroke-linecap: square"/>
   </g>
   <g id="patch_4">
    <path d="M 277.2 174.04 
L 277.2 14.563624 
" style="fill: none; stroke: #000000; stroke-width: 0.8; stroke-linejoin: miter; stroke-linecap: square"/>
   </g>
   <g id="patch_5">
    <path d="M 63.47 174.04 
L 277.2 174.04 
" style="fill: none; stroke: #000000; stroke-width: 0.8; stroke-linejoin: miter; stroke-linecap: square"/>
   </g>
   <g id="patch_6">
    <path d="M 63.47 14.563624 
L 277.2 14.563624 
" style="fill: none; stroke: #000000; stroke-width: 0.8; stroke-linejoin: miter; stroke-linecap: square"/>
   </g>
   <g id="legend_1">
    <g id="patch_7">
     <path d="M 190.2 169.04 
L 270.2 169.04 
Q 272.2 169.04 272.2 167.04 
L 272.2 124.005625 
Q 272.2 122.005625 270.2 122.005625 
L 190.2 122.005625 
Q 188.2 122.005625 188.2 124.005625 
L 188.2 167.04 
Q 188.2 169.04 190.2 169.04 
z
" style="fill: #ffffff; opacity: 0.8; stroke: #cccccc; stroke-linejoin: miter"/>
    </g>
    <g id="line2d_24">
     <path d="M 192.2 130.104062 
L 202.2 130.104062 
L 212.2 130.104062 
" style="fill: none; stroke: #440154; stroke-width: 1.5; stroke-linecap: square"/>
    </g>
    <g id="text_13">
     <!-- $\delta_e = -10$ -->
     <g transform="translate(220.2 133.604062) scale(0.1 -0.1)">
      <defs>
       <path id="DejaVuSans-Oblique-3b4" d="M 3472 4053 
Q 3197 4272 2450 4272 
Q 1659 4272 1588 3906 
Q 1531 3619 2328 3469 
Q 2953 3353 3253 3003 
Q 3616 2581 3447 1716 
Q 3284 888 2763 400 
Q 2238 -91 1488 -91 
Q 741 -91 406 400 
Q 72 888 241 1747 
Q 363 2384 891 2900 
Q 1097 3100 1353 3213 
Q 913 3459 1000 3900 
Q 1166 4750 2544 4750 
Q 3234 4750 3566 4531 
L 3472 4053 
z
M 1753 3056 
Q 1525 2966 1306 2738 
Q 969 2384 847 1747 
Q 722 1113 919 756 
Q 1119 397 1584 397 
Q 2044 397 2381 759 
Q 2722 1122 2838 1716 
Q 2956 2338 2731 2638 
Q 2491 2959 2103 2994 
Q 1906 3013 1753 3056 
z
" transform="scale(0.015625)"/>
       <path id="DejaVuSans-Oblique-65" d="M 3078 2063 
Q 3088 2113 3092 2166 
Q 3097 2219 3097 2272 
Q 3097 2653 2873 2875 
Q 2650 3097 2266 3097 
Q 1838 3097 1509 2826 
Q 1181 2556 1013 2059 
L 3078 2063 
z
M 3578 1613 
L 903 1613 
Q 884 1494 878 1425 
Q 872 1356 872 1306 
Q 872 872 1139 634 
Q 1406 397 1894 397 
Q 2269 397 2603 481 
Q 2938 566 3225 728 
L 3116 159 
Q 2806 34 2476 -28 
Q 2147 -91 1806 -91 
Q 1078 -91 686 257 
Q 294 606 294 1247 
Q 294 1794 489 2264 
Q 684 2734 1063 3103 
Q 1306 3334 1642 3459 
Q 1978 3584 2356 3584 
Q 2950 3584 3301 3228 
Q 3653 2872 3653 2272 
Q 3653 2128 3634 1964 
Q 3616 1800 3578 1613 
z
" transform="scale(0.015625)"/>
       <path id="DejaVuSans-3d" d="M 678 2906 
L 4684 2906 
L 4684 2381 
L 678 2381 
L 678 2906 
z
M 678 1631 
L 4684 1631 
L 4684 1100 
L 678 1100 
L 678 1631 
z
" transform="scale(0.015625)"/>
       <path id="DejaVuSans-2212" d="M 678 2272 
L 4684 2272 
L 4684 1741 
L 678 1741 
L 678 2272 
z
" transform="scale(0.015625)"/>
      </defs>
      <use xlink:href="#DejaVuSans-Oblique-3b4" transform="translate(0 0.78125)"/>
      <use xlink:href="#DejaVuSans-Oblique-65" transform="translate(61.181641 -15.625) scale(0.7)"/>
      <use xlink:href="#DejaVuSans-3d" transform="translate(126.464844 0.78125)"/>
      <use xlink:href="#DejaVuSans-2212" transform="translate(249.21875 0.78125)"/>
      <use xlink:href="#DejaVuSans-31" transform="translate(352.490234 0.78125)"/>
      <use xlink:href="#DejaVuSans-30" transform="translate(416.113281 0.78125)"/>
     </g>
    </g>
    <g id="line2d_25">
     <path d="M 192.2 144.782187 
L 202.2 144.782187 
L 212.2 144.782187 
" style="fill: none; stroke: #21918c; stroke-width: 1.5; stroke-linecap: square"/>
    </g>
    <g id="text_14">
     <!-- $\delta_e = 0$ -->
     <g transform="translate(220.2 148.282187) scale(0.1 -0.1)">
      <use xlink:href="#DejaVuSans-Oblique-3b4" transform="translate(0 0.78125)"/>
      <use xlink:href="#DejaVuSans-Oblique-65" transform="translate(61.181641 -15.625) scale(0.7)"/>
      <use xlink:href="#DejaVuSans-3d" transform="translate(126.464844 0.78125)"/>
      <use xlink:href="#DejaVuSans-30" transform="translate(229.736328 0.78125)"/>
     </g>
    </g>
    <g id="line2d_26">
     <path d="M 192.2 159.460312 
L 202.2 159.460312 
L 212.2 159.460312 
" style="fill: none; stroke: #fde725; stroke-width: 1.5; stroke-linecap: square"/>
    </g>
    <g id="text_15">
     <!-- $\delta_e = 10$ -->
     <g transform="translate(220.2 162.960312) scale(0.1 -0.1)">
      <use xlink:href="#DejaVuSans-Oblique-3b4" transform="translate(0 0.78125)"/>
      <use xlink:href="#DejaVuSans-Oblique-65" transform="translate(61.181641 -15.625) scale(0.7)"/>
      <use xlink:href="#DejaVuSans-3d" transform="translate(126.464844 0.78125)"/>
      <use xlink:href="#DejaVuSans-31" transform="translate(229.736328 0.78125)"/>
      <use xlink:href="#DejaVuSans-30" transform="translate(293.359375 0.78125)"/>
     </g>
    </g>
   </g>
  </g>
 </g>
 <defs>
  <clipPath id="pa58cd36af5">
   <rect x="63.47" y="14.563624" width="213.73" height="159.476376"/>
  </clipPath>
 </defs>
</svg>
