<?xml version="1.0" encoding="utf-8" standalone="no"?>
<!DOCTYPE svg PUBLIC "-//W3C//DTD SVG 1.1//EN"
  "http://www.w3.org/Graphics/SVG/1.1/DTD/svg11.dtd">
<svg xmlns:xlink="http://www.w3.org/1999/xlink" width="288pt" height="216pt" viewBox="0 0 288 216" xmlns="http://www.w3.org/2000/svg" version="1.1">
 <metadata>
  <rdf:RDF xmlns:dc="http://purl.org/dc/elements/1.1/" xmlns:cc="http://creativecommons.org/ns#" xmlns:rdf="http://www.w3.org/1999/02/22-rdf-syntax-ns#">
   <cc:Work>
    <dc:type rdf:resource="http://purl.org/dc/dcmitype/StillImage"/>
    <dc:date>2025-03-26T13:25:36.966852</dc:date>
    <dc:format>image/svg+xml</dc:format>
    <dc:creator>
     <cc:Agent>
      <dc:title>Matplotlib v3.9.2, https://matplotlib.org/</dc:title>
     </cc:Agent>
    </dc:creator>
   </cc:Work>
  </rdf:RDF>
 </metadata>
 <defs>
  <style type="text/css">*{stroke-linejoin: round; stroke-linecap: butt}</style>
 </defs>
 <g id="figure_1">
  <g id="patch_1">
   <path d="M 0 216 
L 288 216 
L 288 0 
L 0 0 
z
" style="fill: #ffffff"/>
  </g>
  <g id="axes_1">
   <g id="patch_2">
    <path d="M 57.08 174.04 
L 277.2 174.04 
L 277.2 10.8 
L 57.08 10.8 
z
" style="fill: #ffffff"/>
   </g>
   <g id="matplotlib.axis_1">
    <g id="xtick_1">
     <g id="line2d_1">
      <path d="M 67.085455 174.04 
L 67.085455 10.8 
" clip-path="url(#p2027ee74e8)" style="fill: none; stroke: #b0b0b0; stroke-width: 0.8; stroke-linecap: square"/>
     </g>
     <g id="line2d_2">
      <defs>
       <path id="m0b270ae011" d="M 0 0 
L 0 3.5 
" style="stroke: #000000; stroke-width: 0.8"/>
      </defs>
      <g>
       <use xlink:href="#m0b270ae011" x="67.085455" y="174.04" style="stroke: #000000; stroke-width: 0.8"/>
      </g>
     </g>
     <g id="text_1">
      <!-- −4 -->
      <g transform="translate(59.714361 188.638438) scale(0.1 -0.1)">
       <defs>
        <path id="DejaVuSans-2212" d="M 678 2272 
L 4684 2272 
L 4684 1741 
L 678 1741 
L 678 2272 
z
" transform="scale(0.015625)"/>
        <path id="DejaVuSans-34" d="M 2419 4116 
L 825 1625 
L 2419 1625 
L 2419 4116 
z
M 2253 4666 
L 3047 4666 
L 3047 1625 
L 3713 1625 
L 3713 1100 
L 3047 1100 
L 3047 0 
L 2419 0 
L 2419 1100 
L 313 1100 
L 313 1709 
L 2253 4666 
z
" transform="scale(0.015625)"/>
       </defs>
       <use xlink:href="#DejaVuSans-2212"/>
       <use xlink:href="#DejaVuSans-34" x="83.789062"/>
      </g>
     </g>
    </g>
    <g id="xtick_2">
     <g id="line2d_3">
      <path d="M 103.468926 174.04 
L 103.468926 10.8 
" clip-path="url(#p2027ee74e8)" style="fill: none; stroke: #b0b0b0; stroke-width: 0.8; stroke-linecap: square"/>
     </g>
     <g id="line2d_4">
      <g>
       <use xlink:href="#m0b270ae011" x="103.468926" y="174.04" style="stroke: #000000; stroke-width: 0.8"/>
      </g>
     </g>
     <g id="text_2">
      <!-- −2 -->
      <g transform="translate(96.097832 188.638438) scale(0.1 -0.1)">
       <defs>
        <path id="DejaVuSans-32" d="M 1228 531 
L 3431 531 
L 3431 0 
L 469 0 
L 469 531 
Q 828 903 1448 1529 
Q 2069 2156 2228 2338 
Q 2531 2678 2651 2914 
Q 2772 3150 2772 3378 
Q 2772 3750 2511 3984 
Q 2250 4219 1831 4219 
Q 1534 4219 1204 4116 
Q 875 4013 500 3803 
L 500 4441 
Q 881 4594 1212 4672 
Q 1544 4750 1819 4750 
Q 2544 4750 2975 4387 
Q 3406 4025 3406 3419 
Q 3406 3131 3298 2873 
Q 3191 2616 2906 2266 
Q 2828 2175 2409 1742 
Q 1991 1309 1228 531 
z
" transform="scale(0.015625)"/>
       </defs>
       <use xlink:href="#DejaVuSans-2212"/>
       <use xlink:href="#DejaVuSans-32" x="83.789062"/>
      </g>
     </g>
    </g>
    <g id="xtick_3">
     <g id="line2d_5">
      <path d="M 139.852397 174.04 
L 139.852397 10.8 
" clip-path="url(#p2027ee74e8)" style="fill: none; stroke: #b0b0b0; stroke-width: 0.8; stroke-linecap: square"/>
     </g>
     <g id="line2d_6">
      <g>
       <use xlink:href="#m0b270ae011" x="139.852397" y="174.04" style="stroke: #000000; stroke-width: 0.8"/>
      </g>
     </g>
     <g id="text_3">
      <!-- 0 -->
      <g transform="translate(136.671147 188.638438) scale(0.1 -0.1)">
       <defs>
        <path id="DejaVuSans-30" d="M 2034 4250 
Q 1547 4250 1301 3770 
Q 1056 3291 1056 2328 
Q 1056 1369 1301 889 
Q 1547 409 2034 409 
Q 2525 409 2770 889 
Q 3016 1369 3016 2328 
Q 3016 3291 2770 3770 
Q 2525 4250 2034 4250 
z
M 2034 4750 
Q 2819 4750 3233 4129 
Q 3647 3509 3647 2328 
Q 3647 1150 3233 529 
Q 2819 -91 2034 -91 
Q 1250 -91 836 529 
Q 422 1150 422 2328 
Q 422 3509 836 4129 
Q 1250 4750 2034 4750 
z
" transform="scale(0.015625)"/>
       </defs>
       <use xlink:href="#DejaVuSans-30"/>
      </g>
     </g>
    </g>
    <g id="xtick_4">
     <g id="line2d_7">
      <path d="M 176.235868 174.04 
L 176.235868 10.8 
" clip-path="url(#p2027ee74e8)" style="fill: none; stroke: #b0b0b0; stroke-width: 0.8; stroke-linecap: square"/>
     </g>
     <g id="line2d_8">
      <g>
       <use xlink:href="#m0b270ae011" x="176.235868" y="174.04" style="stroke: #000000; stroke-width: 0.8"/>
      </g>
     </g>
     <g id="text_4">
      <!-- 2 -->
      <g transform="translate(173.054618 188.638438) scale(0.1 -0.1)">
       <use xlink:href="#DejaVuSans-32"/>
      </g>
     </g>
    </g>
    <g id="xtick_5">
     <g id="line2d_9">
      <path d="M 212.619339 174.04 
L 212.619339 10.8 
" clip-path="url(#p2027ee74e8)" style="fill: none; stroke: #b0b0b0; stroke-width: 0.8; stroke-linecap: square"/>
     </g>
     <g id="line2d_10">
      <g>
       <use xlink:href="#m0b270ae011" x="212.619339" y="174.04" style="stroke: #000000; stroke-width: 0.8"/>
      </g>
     </g>
     <g id="text_5">
      <!-- 4 -->
      <g transform="translate(209.438089 188.638438) scale(0.1 -0.1)">
       <use xlink:href="#DejaVuSans-34"/>
      </g>
     </g>
    </g>
    <g id="xtick_6">
     <g id="line2d_11">
      <path d="M 249.00281 174.04 
L 249.00281 10.8 
" clip-path="url(#p2027ee74e8)" style="fill: none; stroke: #b0b0b0; stroke-width: 0.8; stroke-linecap: square"/>
     </g>
     <g id="line2d_12">
      <g>
       <use xlink:href="#m0b270ae011" x="249.00281" y="174.04" style="stroke: #000000; stroke-width: 0.8"/>
      </g>
     </g>
     <g id="text_6">
      <!-- 6 -->
      <g transform="translate(245.82156 188.638438) scale(0.1 -0.1)">
       <defs>
        <path id="DejaVuSans-36" d="M 2113 2584 
Q 1688 2584 1439 2293 
Q 1191 2003 1191 1497 
Q 1191 994 1439 701 
Q 1688 409 2113 409 
Q 2538 409 2786 701 
Q 3034 994 3034 1497 
Q 3034 2003 2786 2293 
Q 2538 2584 2113 2584 
z
M 3366 4563 
L 3366 3988 
Q 3128 4100 2886 4159 
Q 2644 4219 2406 4219 
Q 1781 4219 1451 3797 
Q 1122 3375 1075 2522 
Q 1259 2794 1537 2939 
Q 1816 3084 2150 3084 
Q 2853 3084 3261 2657 
Q 3669 2231 3669 1497 
Q 3669 778 3244 343 
Q 2819 -91 2113 -91 
Q 1303 -91 875 529 
Q 447 1150 447 2328 
Q 447 3434 972 4092 
Q 1497 4750 2381 4750 
Q 2619 4750 2861 4703 
Q 3103 4656 3366 4563 
z
" transform="scale(0.015625)"/>
       </defs>
       <use xlink:href="#DejaVuSans-36"/>
      </g>
     </g>
    </g>
    <g id="text_7">
     <!-- $\alpha$ -->
     <g transform="translate(163.84 202.316563) scale(0.1 -0.1)">
      <defs>
       <path id="DejaVuSans-Oblique-3b1" d="M 2619 1628 
L 2622 2350 
Q 2625 3088 2069 3091 
Q 1653 3094 1394 2747 
Q 1069 2319 959 1747 
Q 825 1059 994 731 
Q 1169 397 1547 397 
Q 1966 397 2319 1063 
L 2619 1628 
z
M 2166 3578 
Q 3141 3594 3128 2584 
Q 3128 2584 3616 3500 
L 4128 3500 
L 3119 1603 
L 3109 919 
Q 3109 766 3194 638 
Q 3291 488 3391 488 
L 3669 488 
L 3575 0 
L 3228 0 
Q 2934 0 2722 263 
Q 2622 394 2619 669 
Q 2416 334 2066 50 
Q 1900 -81 1453 -78 
Q 722 -72 456 397 
Q 184 884 353 1747 
Q 534 2675 1009 3097 
Q 1544 3569 2166 3578 
z
" transform="scale(0.015625)"/>
      </defs>
      <use xlink:href="#DejaVuSans-Oblique-3b1" transform="translate(0 0.84375)"/>
     </g>
    </g>
   </g>
   <g id="matplotlib.axis_2">
    <g id="ytick_1">
     <g id="line2d_13">
      <path d="M 57.08 156.384615 
L 277.2 156.384615 
" clip-path="url(#p2027ee74e8)" style="fill: none; stroke: #b0b0b0; stroke-width: 0.8; stroke-linecap: square"/>
     </g>
     <g id="line2d_14">
      <defs>
       <path id="m8999f14100" d="M 0 0 
L -3.5 0 
" style="stroke: #000000; stroke-width: 0.8"/>
      </defs>
      <g>
       <use xlink:href="#m8999f14100" x="57.08" y="156.384615" style="stroke: #000000; stroke-width: 0.8"/>
      </g>
     </g>
     <g id="text_8">
      <!-- 0.09 -->
      <g transform="translate(27.814375 160.183834) scale(0.1 -0.1)">
       <defs>
        <path id="DejaVuSans-2e" d="M 684 794 
L 1344 794 
L 1344 0 
L 684 0 
L 684 794 
z
" transform="scale(0.015625)"/>
        <path id="DejaVuSans-39" d="M 703 97 
L 703 672 
Q 941 559 1184 500 
Q 1428 441 1663 441 
Q 2288 441 2617 861 
Q 2947 1281 2994 2138 
Q 2813 1869 2534 1725 
Q 2256 1581 1919 1581 
Q 1219 1581 811 2004 
Q 403 2428 403 3163 
Q 403 3881 828 4315 
Q 1253 4750 1959 4750 
Q 2769 4750 3195 4129 
Q 3622 3509 3622 2328 
Q 3622 1225 3098 567 
Q 2575 -91 1691 -91 
Q 1453 -91 1209 -44 
Q 966 3 703 97 
z
M 1959 2075 
Q 2384 2075 2632 2365 
Q 2881 2656 2881 3163 
Q 2881 3666 2632 3958 
Q 2384 4250 1959 4250 
Q 1534 4250 1286 3958 
Q 1038 3666 1038 3163 
Q 1038 2656 1286 2365 
Q 1534 2075 1959 2075 
z
" transform="scale(0.015625)"/>
       </defs>
       <use xlink:href="#DejaVuSans-30"/>
       <use xlink:href="#DejaVuSans-2e" x="63.623047"/>
       <use xlink:href="#DejaVuSans-30" x="95.410156"/>
       <use xlink:href="#DejaVuSans-39" x="159.033203"/>
      </g>
     </g>
    </g>
    <g id="ytick_2">
     <g id="line2d_15">
      <path d="M 57.08 116.170396 
L 277.2 116.170396 
" clip-path="url(#p2027ee74e8)" style="fill: none; stroke: #b0b0b0; stroke-width: 0.8; stroke-linecap: square"/>
     </g>
     <g id="line2d_16">
      <g>
       <use xlink:href="#m8999f14100" x="57.08" y="116.170396" style="stroke: #000000; stroke-width: 0.8"/>
      </g>
     </g>
     <g id="text_9">
      <!-- 0.10 -->
      <g transform="translate(27.814375 119.969614) scale(0.1 -0.1)">
       <defs>
        <path id="DejaVuSans-31" d="M 794 531 
L 1825 531 
L 1825 4091 
L 703 3866 
L 703 4441 
L 1819 4666 
L 2450 4666 
L 2450 531 
L 3481 531 
L 3481 0 
L 794 0 
L 794 531 
z
" transform="scale(0.015625)"/>
       </defs>
       <use xlink:href="#DejaVuSans-30"/>
       <use xlink:href="#DejaVuSans-2e" x="63.623047"/>
       <use xlink:href="#DejaVuSans-31" x="95.410156"/>
       <use xlink:href="#DejaVuSans-30" x="159.033203"/>
      </g>
     </g>
    </g>
    <g id="ytick_3">
     <g id="line2d_17">
      <path d="M 57.08 75.956176 
L 277.2 75.956176 
" clip-path="url(#p2027ee74e8)" style="fill: none; stroke: #b0b0b0; stroke-width: 0.8; stroke-linecap: square"/>
     </g>
     <g id="line2d_18">
      <g>
       <use xlink:href="#m8999f14100" x="57.08" y="75.956176" style="stroke: #000000; stroke-width: 0.8"/>
      </g>
     </g>
     <g id="text_10">
      <!-- 0.11 -->
      <g transform="translate(27.814375 79.755395) scale(0.1 -0.1)">
       <use xlink:href="#DejaVuSans-30"/>
       <use xlink:href="#DejaVuSans-2e" x="63.623047"/>
       <use xlink:href="#DejaVuSans-31" x="95.410156"/>
       <use xlink:href="#DejaVuSans-31" x="159.033203"/>
      </g>
     </g>
    </g>
    <g id="ytick_4">
     <g id="line2d_19">
      <path d="M 57.08 35.741956 
L 277.2 35.741956 
" clip-path="url(#p2027ee74e8)" style="fill: none; stroke: #b0b0b0; stroke-width: 0.8; stroke-linecap: square"/>
     </g>
     <g id="line2d_20">
      <g>
       <use xlink:href="#m8999f14100" x="57.08" y="35.741956" style="stroke: #000000; stroke-width: 0.8"/>
      </g>
     </g>
     <g id="text_11">
      <!-- 0.12 -->
      <g transform="translate(27.814375 39.541175) scale(0.1 -0.1)">
       <use xlink:href="#DejaVuSans-30"/>
       <use xlink:href="#DejaVuSans-2e" x="63.623047"/>
       <use xlink:href="#DejaVuSans-31" x="95.410156"/>
       <use xlink:href="#DejaVuSans-32" x="159.033203"/>
      </g>
     </g>
    </g>
    <g id="text_12">
     <!-- $dCL/dalpha$ -->
     <g transform="translate(21.714375 120.62) rotate(-90) scale(0.1 -0.1)">
      <defs>
       <path id="DejaVuSans-Oblique-64" d="M 2675 525 
Q 2444 222 2128 65 
Q 1813 -91 1428 -91 
Q 903 -91 598 267 
Q 294 625 294 1247 
Q 294 1766 478 2236 
Q 663 2706 1013 3078 
Q 1244 3325 1534 3454 
Q 1825 3584 2144 3584 
Q 2481 3584 2739 3421 
Q 2997 3259 3138 2956 
L 3513 4863 
L 4091 4863 
L 3144 0 
L 2566 0 
L 2675 525 
z
M 891 1350 
Q 891 897 1095 644 
Q 1300 391 1663 391 
Q 1931 391 2161 520 
Q 2391 650 2566 903 
Q 2750 1166 2856 1509 
Q 2963 1853 2963 2188 
Q 2963 2622 2758 2865 
Q 2553 3109 2194 3109 
Q 1922 3109 1687 2981 
Q 1453 2853 1288 2613 
Q 1106 2353 998 2009 
Q 891 1666 891 1350 
z
" transform="scale(0.015625)"/>
       <path id="DejaVuSans-Oblique-43" d="M 4447 4306 
L 4319 3641 
Q 4019 3944 3683 4091 
Q 3347 4238 2956 4238 
Q 2422 4238 2017 3981 
Q 1613 3725 1319 3200 
Q 1131 2863 1032 2486 
Q 934 2109 934 1728 
Q 934 1091 1264 756 
Q 1594 422 2222 422 
Q 2656 422 3056 561 
Q 3456 700 3834 978 
L 3688 231 
Q 3316 72 2936 -9 
Q 2556 -91 2175 -91 
Q 1278 -91 773 396 
Q 269 884 269 1753 
Q 269 2309 461 2846 
Q 653 3384 1013 3828 
Q 1394 4300 1883 4525 
Q 2372 4750 3022 4750 
Q 3422 4750 3780 4639 
Q 4138 4528 4447 4306 
z
" transform="scale(0.015625)"/>
       <path id="DejaVuSans-Oblique-4c" d="M 1075 4666 
L 1709 4666 
L 909 525 
L 3181 525 
L 3078 0 
L 172 0 
L 1075 4666 
z
" transform="scale(0.015625)"/>
       <path id="DejaVuSans-2f" d="M 1625 4666 
L 2156 4666 
L 531 -594 
L 0 -594 
L 1625 4666 
z
" transform="scale(0.015625)"/>
       <path id="DejaVuSans-Oblique-61" d="M 3438 1997 
L 3047 0 
L 2472 0 
L 2578 531 
Q 2325 219 2001 64 
Q 1678 -91 1281 -91 
Q 834 -91 548 182 
Q 263 456 263 884 
Q 263 1497 752 1853 
Q 1241 2209 2100 2209 
L 2900 2209 
L 2931 2363 
Q 2938 2388 2941 2417 
Q 2944 2447 2944 2509 
Q 2944 2788 2717 2942 
Q 2491 3097 2081 3097 
Q 1800 3097 1504 3025 
Q 1209 2953 897 2809 
L 997 3341 
Q 1322 3463 1633 3523 
Q 1944 3584 2234 3584 
Q 2853 3584 3176 3315 
Q 3500 3047 3500 2534 
Q 3500 2431 3484 2292 
Q 3469 2153 3438 1997 
z
M 2816 1759 
L 2241 1759 
Q 1534 1759 1195 1570 
Q 856 1381 856 984 
Q 856 709 1029 553 
Q 1203 397 1509 397 
Q 1978 397 2328 733 
Q 2678 1069 2791 1631 
L 2816 1759 
z
" transform="scale(0.015625)"/>
       <path id="DejaVuSans-Oblique-6c" d="M 1172 4863 
L 1747 4863 
L 800 0 
L 225 0 
L 1172 4863 
z
" transform="scale(0.015625)"/>
       <path id="DejaVuSans-Oblique-70" d="M 3175 2156 
Q 3175 2616 2975 2859 
Q 2775 3103 2400 3103 
Q 2144 3103 1911 2972 
Q 1678 2841 1497 2591 
Q 1319 2344 1212 1994 
Q 1106 1644 1106 1300 
Q 1106 863 1306 627 
Q 1506 391 1875 391 
Q 2147 391 2380 519 
Q 2613 647 2778 891 
Q 2956 1147 3065 1494 
Q 3175 1841 3175 2156 
z
M 1394 2969 
Q 1625 3272 1939 3428 
Q 2253 3584 2638 3584 
Q 3175 3584 3472 3232 
Q 3769 2881 3769 2247 
Q 3769 1728 3584 1258 
Q 3400 788 3053 416 
Q 2822 169 2531 39 
Q 2241 -91 1919 -91 
Q 1547 -91 1294 64 
Q 1041 219 916 525 
L 556 -1331 
L -19 -1331 
L 922 3500 
L 1497 3500 
L 1394 2969 
z
" transform="scale(0.015625)"/>
       <path id="DejaVuSans-Oblique-68" d="M 3566 2113 
L 3156 0 
L 2578 0 
L 2988 2091 
Q 3016 2238 3031 2350 
Q 3047 2463 3047 2528 
Q 3047 2791 2881 2937 
Q 2716 3084 2419 3084 
Q 1956 3084 1617 2771 
Q 1278 2459 1178 1941 
L 800 0 
L 225 0 
L 1172 4863 
L 1747 4863 
L 1375 2950 
Q 1594 3244 1934 3414 
Q 2275 3584 2650 3584 
Q 3113 3584 3367 3334 
Q 3622 3084 3622 2631 
Q 3622 2519 3608 2391 
Q 3594 2263 3566 2113 
z
" transform="scale(0.015625)"/>
      </defs>
      <use xlink:href="#DejaVuSans-Oblique-64" transform="translate(0 0.015625)"/>
      <use xlink:href="#DejaVuSans-Oblique-43" transform="translate(63.476562 0.015625)"/>
      <use xlink:href="#DejaVuSans-Oblique-4c" transform="translate(133.300781 0.015625)"/>
      <use xlink:href="#DejaVuSans-2f" transform="translate(189.013672 0.015625)"/>
      <use xlink:href="#DejaVuSans-Oblique-64" transform="translate(222.705078 0.015625)"/>
      <use xlink:href="#DejaVuSans-Oblique-61" transform="translate(286.181641 0.015625)"/>
      <use xlink:href="#DejaVuSans-Oblique-6c" transform="translate(347.460938 0.015625)"/>
      <use xlink:href="#DejaVuSans-Oblique-70" transform="translate(375.244141 0.015625)"/>
      <use xlink:href="#DejaVuSans-Oblique-68" transform="translate(438.720703 0.015625)"/>
      <use xlink:href="#DejaVuSans-Oblique-61" transform="translate(502.099609 0.015625)"/>
     </g>
    </g>
   </g>
   <g id="line2d_21">
    <path d="M 67.085455 30.868804 
L 69.106758 30.485837 
L 71.128062 30.133139 
L 73.149366 29.810713 
L 75.17067 29.518556 
L 77.191974 29.256669 
L 79.213278 29.025053 
L 81.234582 28.823707 
L 83.255886 28.652631 
L 85.27719 28.511826 
L 87.298494 28.401291 
L 89.319798 28.321026 
L 91.341102 28.271031 
L 93.362406 28.251306 
L 95.38371 28.261852 
L 97.405014 28.302668 
L 99.426318 28.373754 
L 101.447622 28.47511 
L 103.468926 28.606737 
L 105.49023 28.768634 
L 107.511534 28.960801 
L 109.532837 29.183238 
L 111.554141 29.435946 
L 113.575445 29.718924 
L 115.596749 30.032172 
L 117.618053 30.37569 
L 119.639357 30.749478 
L 121.660661 31.153537 
L 123.681965 31.587866 
L 125.703269 32.052466 
L 127.724573 32.547335 
L 129.745877 33.072475 
L 131.767181 33.627885 
L 133.788485 34.213565 
L 135.809789 34.829515 
L 137.831093 35.475736 
L 139.852397 36.152227 
L 141.873701 36.858988 
L 143.895005 37.59602 
L 145.916309 38.363321 
L 147.937612 39.160893 
L 149.958916 39.988735 
L 151.98022 40.846848 
L 154.001524 41.73523 
L 156.022828 42.653883 
L 158.044132 43.602806 
L 160.065436 44.581999 
L 162.08674 45.591463 
L 164.108044 46.631197 
L 166.129348 47.701201 
L 168.150652 48.801475 
L 170.171956 49.932019 
L 172.19326 51.092834 
L 174.214564 52.283919 
L 176.235868 53.505274 
L 178.257172 54.7569 
L 180.278476 56.038796 
L 182.29978 57.350962 
L 184.321084 58.693398 
L 186.342388 60.066104 
L 188.363691 61.469081 
L 190.384995 62.902328 
L 192.406299 64.365845 
L 194.427603 65.859632 
L 196.448907 67.38369 
L 198.470211 68.938018 
L 200.491515 70.522616 
L 202.512819 72.137484 
L 204.534123 73.782623 
L 206.555427 75.458031 
L 208.576731 77.16371 
L 210.598035 78.89966 
L 212.619339 80.665879 
L 214.640643 82.462369 
L 216.661947 84.289129 
L 218.683251 86.146159 
L 220.704555 88.03346 
L 222.725859 89.95103 
L 224.747163 91.898871 
L 226.768466 93.876982 
L 228.78977 95.885364 
L 230.811074 97.924016 
L 232.832378 99.992937 
L 234.853682 102.09213 
L 236.874986 104.221592 
L 238.89629 106.381325 
L 240.917594 108.571327 
L 242.938898 110.791601 
L 244.960202 113.042144 
L 246.981506 115.322957 
L 249.00281 117.634041 
L 251.024114 119.975395 
L 253.045418 122.34702 
L 255.066722 124.748914 
L 257.088026 127.181079 
L 259.10933 129.643514 
L 261.130634 132.136219 
L 263.151938 134.659195 
L 265.173242 137.21244 
L 267.194545 139.795956 
" clip-path="url(#p2027ee74e8)" style="fill: none; stroke: #440154; stroke-width: 1.5; stroke-linecap: square"/>
   </g>
   <g id="line2d_22">
    <path d="M 67.085455 24.544402 
L 69.106758 24.360792 
L 71.128062 24.207453 
L 73.149366 24.084384 
L 75.17067 23.991585 
L 77.191974 23.929056 
L 79.213278 23.896798 
L 81.234582 23.89481 
L 83.255886 23.923092 
L 85.27719 23.981644 
L 87.298494 24.070467 
L 89.319798 24.189559 
L 91.341102 24.338922 
L 93.362406 24.518556 
L 95.38371 24.728459 
L 97.405014 24.968633 
L 99.426318 25.239077 
L 101.447622 25.539791 
L 103.468926 25.870776 
L 105.49023 26.23203 
L 107.511534 26.623555 
L 109.532837 27.04535 
L 111.554141 27.497416 
L 113.575445 27.979751 
L 115.596749 28.492357 
L 117.618053 29.035233 
L 119.639357 29.60838 
L 121.660661 30.211796 
L 123.681965 30.845483 
L 125.703269 31.50944 
L 127.724573 32.203667 
L 129.745877 32.928165 
L 131.767181 33.682933 
L 133.788485 34.467971 
L 135.809789 35.283279 
L 137.831093 36.128858 
L 139.852397 37.004706 
L 141.873701 37.910825 
L 143.895005 38.847215 
L 145.916309 39.813874 
L 147.937612 40.810804 
L 149.958916 41.838004 
L 151.98022 42.895474 
L 154.001524 43.983214 
L 156.022828 45.101225 
L 158.044132 46.249506 
L 160.065436 47.428057 
L 162.08674 48.636878 
L 164.108044 49.87597 
L 166.129348 51.145332 
L 168.150652 52.444964 
L 170.171956 53.774866 
L 172.19326 55.135039 
L 174.214564 56.525481 
L 176.235868 57.946194 
L 178.257172 59.397178 
L 180.278476 60.878431 
L 182.29978 62.389955 
L 184.321084 63.931749 
L 186.342388 65.503813 
L 188.363691 67.106148 
L 190.384995 68.738752 
L 192.406299 70.401627 
L 194.427603 72.094773 
L 196.448907 73.818188 
L 198.470211 75.571874 
L 200.491515 77.35583 
L 202.512819 79.170056 
L 204.534123 81.014552 
L 206.555427 82.889319 
L 208.576731 84.794356 
L 210.598035 86.729663 
L 212.619339 88.69524 
L 214.640643 90.691088 
L 216.661947 92.717205 
L 218.683251 94.773593 
L 220.704555 96.860252 
L 222.725859 98.97718 
L 224.747163 101.124379 
L 226.768466 103.301848 
L 228.78977 105.509587 
L 230.811074 107.747597 
L 232.832378 110.015876 
L 234.853682 112.314426 
L 236.874986 114.643247 
L 238.89629 117.002337 
L 240.917594 119.391698 
L 242.938898 121.811329 
L 244.960202 124.26123 
L 246.981506 126.741401 
L 249.00281 129.251843 
L 251.024114 131.792555 
L 253.045418 134.363537 
L 255.066722 136.964789 
L 257.088026 139.596312 
L 259.10933 142.258104 
L 261.130634 144.950168 
L 263.151938 147.672501 
L 265.173242 150.425104 
L 267.194545 153.207978 
" clip-path="url(#p2027ee74e8)" style="fill: none; stroke: #21918c; stroke-width: 1.5; stroke-linecap: square"/>
   </g>
   <g id="line2d_23">
    <path d="M 67.085455 18.22 
L 69.106758 18.235748 
L 71.128062 18.281767 
L 73.149366 18.358055 
L 75.17067 18.464614 
L 77.191974 18.601443 
L 79.213278 18.768543 
L 81.234582 18.965912 
L 83.255886 19.193552 
L 85.27719 19.451462 
L 87.298494 19.739643 
L 89.319798 20.058093 
L 91.341102 20.406814 
L 93.362406 20.785805 
L 95.38371 21.195067 
L 97.405014 21.634598 
L 99.426318 22.1044 
L 101.447622 22.604472 
L 103.468926 23.134814 
L 105.49023 23.695427 
L 107.511534 24.286309 
L 109.532837 24.907462 
L 111.554141 25.558886 
L 113.575445 26.240579 
L 115.596749 26.952543 
L 117.618053 27.694777 
L 119.639357 28.467281 
L 121.660661 29.270055 
L 123.681965 30.1031 
L 125.703269 30.966415 
L 127.724573 31.86 
L 129.745877 32.783855 
L 131.767181 33.737981 
L 133.788485 34.722377 
L 135.809789 35.737043 
L 137.831093 36.781979 
L 139.852397 37.857186 
L 141.873701 38.962662 
L 143.895005 40.09841 
L 145.916309 41.264427 
L 147.937612 42.460714 
L 149.958916 43.687272 
L 151.98022 44.9441 
L 154.001524 46.231198 
L 156.022828 47.548567 
L 158.044132 48.896205 
L 160.065436 50.274114 
L 162.08674 51.682294 
L 164.108044 53.120743 
L 166.129348 54.589463 
L 168.150652 56.088453 
L 170.171956 57.617713 
L 172.19326 59.177243 
L 174.214564 60.767044 
L 176.235868 62.387115 
L 178.257172 64.037456 
L 180.278476 65.718067 
L 182.29978 67.428949 
L 184.321084 69.1701 
L 186.342388 70.941522 
L 188.363691 72.743215 
L 190.384995 74.575177 
L 192.406299 76.43741 
L 194.427603 78.329913 
L 196.448907 80.252686 
L 198.470211 82.20573 
L 200.491515 84.189043 
L 202.512819 86.202627 
L 204.534123 88.246482 
L 206.555427 90.320606 
L 208.576731 92.425001 
L 210.598035 94.559666 
L 212.619339 96.724601 
L 214.640643 98.919806 
L 216.661947 101.145282 
L 218.683251 103.401028 
L 220.704555 105.687044 
L 222.725859 108.00333 
L 224.747163 110.349887 
L 226.768466 112.726713 
L 228.78977 115.133811 
L 230.811074 117.571178 
L 232.832378 120.038815 
L 234.853682 122.536723 
L 236.874986 125.064901 
L 238.89629 127.623349 
L 240.917594 130.212068 
L 242.938898 132.831057 
L 244.960202 135.480316 
L 246.981506 138.159845 
L 249.00281 140.869644 
L 251.024114 143.609714 
L 253.045418 146.380054 
L 255.066722 149.180664 
L 257.088026 152.011544 
L 259.10933 154.872695 
L 261.130634 157.764116 
L 263.151938 160.685807 
L 265.173242 163.637768 
L 267.194545 166.62 
" clip-path="url(#p2027ee74e8)" style="fill: none; stroke: #fde725; stroke-width: 1.5; stroke-linecap: square"/>
   </g>
   <g id="patch_3">
    <path d="M 57.08 174.04 
L 57.08 10.8 
" style="fill: none; stroke: #000000; stroke-width: 0.8; stroke-linejoin: miter; stroke-linecap: square"/>
   </g>
   <g id="patch_4">
    <path d="M 277.2 174.04 
L 277.2 10.8 
" style="fill: none; stroke: #000000; stroke-width: 0.8; stroke-linejoin: miter; stroke-linecap: square"/>
   </g>
   <g id="patch_5">
    <path d="M 57.08 174.04 
L 277.2 174.04 
" style="fill: none; stroke: #000000; stroke-width: 0.8; stroke-linejoin: miter; stroke-linecap: square"/>
   </g>
   <g id="patch_6">
    <path d="M 57.08 10.8 
L 277.2 10.8 
" style="fill: none; stroke: #000000; stroke-width: 0.8; stroke-linejoin: miter; stroke-linecap: square"/>
   </g>
   <g id="legend_1">
    <g id="patch_7">
     <path d="M 64.08 169.04 
L 144.08 169.04 
Q 146.08 169.04 146.08 167.04 
L 146.08 124.005625 
Q 146.08 122.005625 144.08 122.005625 
L 64.08 122.005625 
Q 62.08 122.005625 62.08 124.005625 
L 62.08 167.04 
Q 62.08 169.04 64.08 169.04 
z
" style="fill: #ffffff; opacity: 0.8; stroke: #cccccc; stroke-linejoin: miter"/>
    </g>
    <g id="line2d_24">
     <path d="M 66.08 130.104062 
L 76.08 130.104062 
L 86.08 130.104062 
" style="fill: none; stroke: #440154; stroke-width: 1.5; stroke-linecap: square"/>
    </g>
    <g id="text_13">
     <!-- $\delta_e = -10$ -->
     <g transform="translate(94.08 133.604062) scale(0.1 -0.1)">
      <defs>
       <path id="DejaVuSans-Oblique-3b4" d="M 3472 4053 
Q 3197 4272 2450 4272 
Q 1659 4272 1588 3906 
Q 1531 3619 2328 3469 
Q 2953 3353 3253 3003 
Q 3616 2581 3447 1716 
Q 3284 888 2763 400 
Q 2238 -91 1488 -91 
Q 741 -91 406 400 
Q 72 888 241 1747 
Q 363 2384 891 2900 
Q 1097 3100 1353 3213 
Q 913 3459 1000 3900 
Q 1166 4750 2544 4750 
Q 3234 4750 3566 4531 
L 3472 4053 
z
M 1753 3056 
Q 1525 2966 1306 2738 
Q 969 2384 847 1747 
Q 722 1113 919 756 
Q 1119 397 1584 397 
Q 2044 397 2381 759 
Q 2722 1122 2838 1716 
Q 2956 2338 2731 2638 
Q 2491 2959 2103 2994 
Q 1906 3013 1753 3056 
z
" transform="scale(0.015625)"/>
       <path id="DejaVuSans-Oblique-65" d="M 3078 2063 
Q 3088 2113 3092 2166 
Q 3097 2219 3097 2272 
Q 3097 2653 2873 2875 
Q 2650 3097 2266 3097 
Q 1838 3097 1509 2826 
Q 1181 2556 1013 2059 
L 3078 2063 
z
M 3578 1613 
L 903 1613 
Q 884 1494 878 1425 
Q 872 1356 872 1306 
Q 872 872 1139 634 
Q 1406 397 1894 397 
Q 2269 397 2603 481 
Q 2938 566 3225 728 
L 3116 159 
Q 2806 34 2476 -28 
Q 2147 -91 1806 -91 
Q 1078 -91 686 257 
Q 294 606 294 1247 
Q 294 1794 489 2264 
Q 684 2734 1063 3103 
Q 1306 3334 1642 3459 
Q 1978 3584 2356 3584 
Q 2950 3584 3301 3228 
Q 3653 2872 3653 2272 
Q 3653 2128 3634 1964 
Q 3616 1800 3578 1613 
z
" transform="scale(0.015625)"/>
       <path id="DejaVuSans-3d" d="M 678 2906 
L 4684 2906 
L 4684 2381 
L 678 2381 
L 678 2906 
z
M 678 1631 
L 4684 1631 
L 4684 1100 
L 678 1100 
L 678 1631 
z
" transform="scale(0.015625)"/>
      </defs>
      <use xlink:href="#DejaVuSans-Oblique-3b4" transform="translate(0 0.78125)"/>
      <use xlink:href="#DejaVuSans-Oblique-65" transform="translate(61.181641 -15.625) scale(0.7)"/>
      <use xlink:href="#DejaVuSans-3d" transform="translate(126.464844 0.78125)"/>
      <use xlink:href="#DejaVuSans-2212" transform="translate(249.21875 0.78125)"/>
      <use xlink:href="#DejaVuSans-31" transform="translate(352.490234 0.78125)"/>
      <use xlink:href="#DejaVuSans-30" transform="translate(416.113281 0.78125)"/>
     </g>
    </g>
    <g id="line2d_25">
     <path d="M 66.08 144.782187 
L 76.08 144.782187 
L 86.08 144.782187 
" style="fill: none; stroke: #21918c; stroke-width: 1.5; stroke-linecap: square"/>
    </g>
    <g id="text_14">
     <!-- $\delta_e = 0$ -->
     <g transform="translate(94.08 148.282187) scale(0.1 -0.1)">
      <use xlink:href="#DejaVuSans-Oblique-3b4" transform="translate(0 0.78125)"/>
      <use xlink:href="#DejaVuSans-Oblique-65" transform="translate(61.181641 -15.625) scale(0.7)"/>
      <use xlink:href="#DejaVuSans-3d" transform="translate(126.464844 0.78125)"/>
      <use xlink:href="#DejaVuSans-30" transform="translate(229.736328 0.78125)"/>
     </g>
    </g>
    <g id="line2d_26">
     <path d="M 66.08 159.460312 
L 76.08 159.460312 
L 86.08 159.460312 
" style="fill: none; stroke: #fde725; stroke-width: 1.5; stroke-linecap: square"/>
    </g>
    <g id="text_15">
     <!-- $\delta_e = 10$ -->
     <g transform="translate(94.08 162.960312) scale(0.1 -0.1)">
      <use xlink:href="#DejaVuSans-Oblique-3b4" transform="translate(0 0.78125)"/>
      <use xlink:href="#DejaVuSans-Oblique-65" transform="translate(61.181641 -15.625) scale(0.7)"/>
      <use xlink:href="#DejaVuSans-3d" transform="translate(126.464844 0.78125)"/>
      <use xlink:href="#DejaVuSans-31" transform="translate(229.736328 0.78125)"/>
      <use xlink:href="#DejaVuSans-30" transform="translate(293.359375 0.78125)"/>
     </g>
    </g>
   </g>
  </g>
 </g>
 <defs>
  <clipPath id="p2027ee74e8">
   <rect x="57.08" y="10.8" width="220.12" height="163.24"/>
  </clipPath>
 </defs>
</svg>
