<?xml version="1.0" encoding="utf-8" standalone="no"?>
<!DOCTYPE svg PUBLIC "-//W3C//DTD SVG 1.1//EN"
  "http://www.w3.org/Graphics/SVG/1.1/DTD/svg11.dtd">
<svg xmlns:xlink="http://www.w3.org/1999/xlink" width="288pt" height="216pt" viewBox="0 0 288 216" xmlns="http://www.w3.org/2000/svg" version="1.1">
 <metadata>
  <rdf:RDF xmlns:dc="http://purl.org/dc/elements/1.1/" xmlns:cc="http://creativecommons.org/ns#" xmlns:rdf="http://www.w3.org/1999/02/22-rdf-syntax-ns#">
   <cc:Work>
    <dc:type rdf:resource="http://purl.org/dc/dcmitype/StillImage"/>
    <dc:date>2025-03-26T11:03:55.155484</dc:date>
    <dc:format>image/svg+xml</dc:format>
    <dc:creator>
     <cc:Agent>
      <dc:title>Matplotlib v3.9.2, https://matplotlib.org/</dc:title>
     </cc:Agent>
    </dc:creator>
   </cc:Work>
  </rdf:RDF>
 </metadata>
 <defs>
  <style type="text/css">*{stroke-linejoin: round; stroke-linecap: butt}</style>
 </defs>
 <g id="figure_1">
  <g id="patch_1">
   <path d="M 0 216 
L 288 216 
L 288 0 
L 0 0 
z
" style="fill: #ffffff"/>
  </g>
  <g id="axes_1">
   <g id="patch_2">
    <path d="M 63.47 174.04 
L 277.2 174.04 
L 277.2 10.8 
L 63.47 10.8 
z
" style="fill: #ffffff"/>
   </g>
   <g id="matplotlib.axis_1">
    <g id="xtick_1">
     <g id="line2d_1">
      <path d="M 73.185 174.04 
L 73.185 10.8 
" clip-path="url(#pc3d98e0667)" style="fill: none; stroke: #b0b0b0; stroke-width: 0.8; stroke-linecap: square"/>
     </g>
     <g id="line2d_2">
      <defs>
       <path id="m170f1e879f" d="M 0 0 
L 0 3.5 
" style="stroke: #000000; stroke-width: 0.8"/>
      </defs>
      <g>
       <use xlink:href="#m170f1e879f" x="73.185" y="174.04" style="stroke: #000000; stroke-width: 0.8"/>
      </g>
     </g>
     <g id="text_1">
      <!-- 0 -->
      <g transform="translate(70.00375 188.638438) scale(0.1 -0.1)">
       <defs>
        <path id="DejaVuSans-30" d="M 2034 4250 
Q 1547 4250 1301 3770 
Q 1056 3291 1056 2328 
Q 1056 1369 1301 889 
Q 1547 409 2034 409 
Q 2525 409 2770 889 
Q 3016 1369 3016 2328 
Q 3016 3291 2770 3770 
Q 2525 4250 2034 4250 
z
M 2034 4750 
Q 2819 4750 3233 4129 
Q 3647 3509 3647 2328 
Q 3647 1150 3233 529 
Q 2819 -91 2034 -91 
Q 1250 -91 836 529 
Q 422 1150 422 2328 
Q 422 3509 836 4129 
Q 1250 4750 2034 4750 
z
" transform="scale(0.015625)"/>
       </defs>
       <use xlink:href="#DejaVuSans-30"/>
      </g>
     </g>
    </g>
    <g id="xtick_2">
     <g id="line2d_3">
      <path d="M 128.699286 174.04 
L 128.699286 10.8 
" clip-path="url(#pc3d98e0667)" style="fill: none; stroke: #b0b0b0; stroke-width: 0.8; stroke-linecap: square"/>
     </g>
     <g id="line2d_4">
      <g>
       <use xlink:href="#m170f1e879f" x="128.699286" y="174.04" style="stroke: #000000; stroke-width: 0.8"/>
      </g>
     </g>
     <g id="text_2">
      <!-- 2 -->
      <g transform="translate(125.518036 188.638438) scale(0.1 -0.1)">
       <defs>
        <path id="DejaVuSans-32" d="M 1228 531 
L 3431 531 
L 3431 0 
L 469 0 
L 469 531 
Q 828 903 1448 1529 
Q 2069 2156 2228 2338 
Q 2531 2678 2651 2914 
Q 2772 3150 2772 3378 
Q 2772 3750 2511 3984 
Q 2250 4219 1831 4219 
Q 1534 4219 1204 4116 
Q 875 4013 500 3803 
L 500 4441 
Q 881 4594 1212 4672 
Q 1544 4750 1819 4750 
Q 2544 4750 2975 4387 
Q 3406 4025 3406 3419 
Q 3406 3131 3298 2873 
Q 3191 2616 2906 2266 
Q 2828 2175 2409 1742 
Q 1991 1309 1228 531 
z
" transform="scale(0.015625)"/>
       </defs>
       <use xlink:href="#DejaVuSans-32"/>
      </g>
     </g>
    </g>
    <g id="xtick_3">
     <g id="line2d_5">
      <path d="M 184.213571 174.04 
L 184.213571 10.8 
" clip-path="url(#pc3d98e0667)" style="fill: none; stroke: #b0b0b0; stroke-width: 0.8; stroke-linecap: square"/>
     </g>
     <g id="line2d_6">
      <g>
       <use xlink:href="#m170f1e879f" x="184.213571" y="174.04" style="stroke: #000000; stroke-width: 0.8"/>
      </g>
     </g>
     <g id="text_3">
      <!-- 4 -->
      <g transform="translate(181.032321 188.638438) scale(0.1 -0.1)">
       <defs>
        <path id="DejaVuSans-34" d="M 2419 4116 
L 825 1625 
L 2419 1625 
L 2419 4116 
z
M 2253 4666 
L 3047 4666 
L 3047 1625 
L 3713 1625 
L 3713 1100 
L 3047 1100 
L 3047 0 
L 2419 0 
L 2419 1100 
L 313 1100 
L 313 1709 
L 2253 4666 
z
" transform="scale(0.015625)"/>
       </defs>
       <use xlink:href="#DejaVuSans-34"/>
      </g>
     </g>
    </g>
    <g id="xtick_4">
     <g id="line2d_7">
      <path d="M 239.727857 174.04 
L 239.727857 10.8 
" clip-path="url(#pc3d98e0667)" style="fill: none; stroke: #b0b0b0; stroke-width: 0.8; stroke-linecap: square"/>
     </g>
     <g id="line2d_8">
      <g>
       <use xlink:href="#m170f1e879f" x="239.727857" y="174.04" style="stroke: #000000; stroke-width: 0.8"/>
      </g>
     </g>
     <g id="text_4">
      <!-- 6 -->
      <g transform="translate(236.546607 188.638438) scale(0.1 -0.1)">
       <defs>
        <path id="DejaVuSans-36" d="M 2113 2584 
Q 1688 2584 1439 2293 
Q 1191 2003 1191 1497 
Q 1191 994 1439 701 
Q 1688 409 2113 409 
Q 2538 409 2786 701 
Q 3034 994 3034 1497 
Q 3034 2003 2786 2293 
Q 2538 2584 2113 2584 
z
M 3366 4563 
L 3366 3988 
Q 3128 4100 2886 4159 
Q 2644 4219 2406 4219 
Q 1781 4219 1451 3797 
Q 1122 3375 1075 2522 
Q 1259 2794 1537 2939 
Q 1816 3084 2150 3084 
Q 2853 3084 3261 2657 
Q 3669 2231 3669 1497 
Q 3669 778 3244 343 
Q 2819 -91 2113 -91 
Q 1303 -91 875 529 
Q 447 1150 447 2328 
Q 447 3434 972 4092 
Q 1497 4750 2381 4750 
Q 2619 4750 2861 4703 
Q 3103 4656 3366 4563 
z
" transform="scale(0.015625)"/>
       </defs>
       <use xlink:href="#DejaVuSans-36"/>
      </g>
     </g>
    </g>
    <g id="text_5">
     <!-- $\alpha$ -->
     <g transform="translate(167.035 202.316563) scale(0.1 -0.1)">
      <defs>
       <path id="DejaVuSans-Oblique-3b1" d="M 2619 1628 
L 2622 2350 
Q 2625 3088 2069 3091 
Q 1653 3094 1394 2747 
Q 1069 2319 959 1747 
Q 825 1059 994 731 
Q 1169 397 1547 397 
Q 1966 397 2319 1063 
L 2619 1628 
z
M 2166 3578 
Q 3141 3594 3128 2584 
Q 3128 2584 3616 3500 
L 4128 3500 
L 3119 1603 
L 3109 919 
Q 3109 766 3194 638 
Q 3291 488 3391 488 
L 3669 488 
L 3575 0 
L 3228 0 
Q 2934 0 2722 263 
Q 2622 394 2619 669 
Q 2416 334 2066 50 
Q 1900 -81 1453 -78 
Q 722 -72 456 397 
Q 184 884 353 1747 
Q 534 2675 1009 3097 
Q 1544 3569 2166 3578 
z
" transform="scale(0.015625)"/>
      </defs>
      <use xlink:href="#DejaVuSans-Oblique-3b1" transform="translate(0 0.84375)"/>
     </g>
    </g>
   </g>
   <g id="matplotlib.axis_2">
    <g id="ytick_1">
     <g id="line2d_9">
      <path d="M 63.47 154.977806 
L 277.2 154.977806 
" clip-path="url(#pc3d98e0667)" style="fill: none; stroke: #b0b0b0; stroke-width: 0.8; stroke-linecap: square"/>
     </g>
     <g id="line2d_10">
      <defs>
       <path id="m902274d01b" d="M 0 0 
L -3.5 0 
" style="stroke: #000000; stroke-width: 0.8"/>
      </defs>
      <g>
       <use xlink:href="#m902274d01b" x="63.47" y="154.977806" style="stroke: #000000; stroke-width: 0.8"/>
      </g>
     </g>
     <g id="text_6">
      <!-- 0.090 -->
      <g transform="translate(27.841875 158.777025) scale(0.1 -0.1)">
       <defs>
        <path id="DejaVuSans-2e" d="M 684 794 
L 1344 794 
L 1344 0 
L 684 0 
L 684 794 
z
" transform="scale(0.015625)"/>
        <path id="DejaVuSans-39" d="M 703 97 
L 703 672 
Q 941 559 1184 500 
Q 1428 441 1663 441 
Q 2288 441 2617 861 
Q 2947 1281 2994 2138 
Q 2813 1869 2534 1725 
Q 2256 1581 1919 1581 
Q 1219 1581 811 2004 
Q 403 2428 403 3163 
Q 403 3881 828 4315 
Q 1253 4750 1959 4750 
Q 2769 4750 3195 4129 
Q 3622 3509 3622 2328 
Q 3622 1225 3098 567 
Q 2575 -91 1691 -91 
Q 1453 -91 1209 -44 
Q 966 3 703 97 
z
M 1959 2075 
Q 2384 2075 2632 2365 
Q 2881 2656 2881 3163 
Q 2881 3666 2632 3958 
Q 2384 4250 1959 4250 
Q 1534 4250 1286 3958 
Q 1038 3666 1038 3163 
Q 1038 2656 1286 2365 
Q 1534 2075 1959 2075 
z
" transform="scale(0.015625)"/>
       </defs>
       <use xlink:href="#DejaVuSans-30"/>
       <use xlink:href="#DejaVuSans-2e" x="63.623047"/>
       <use xlink:href="#DejaVuSans-30" x="95.410156"/>
       <use xlink:href="#DejaVuSans-39" x="159.033203"/>
       <use xlink:href="#DejaVuSans-30" x="222.65625"/>
      </g>
     </g>
    </g>
    <g id="ytick_2">
     <g id="line2d_11">
      <path d="M 63.47 132.107062 
L 277.2 132.107062 
" clip-path="url(#pc3d98e0667)" style="fill: none; stroke: #b0b0b0; stroke-width: 0.8; stroke-linecap: square"/>
     </g>
     <g id="line2d_12">
      <g>
       <use xlink:href="#m902274d01b" x="63.47" y="132.107062" style="stroke: #000000; stroke-width: 0.8"/>
      </g>
     </g>
     <g id="text_7">
      <!-- 0.095 -->
      <g transform="translate(27.841875 135.906281) scale(0.1 -0.1)">
       <defs>
        <path id="DejaVuSans-35" d="M 691 4666 
L 3169 4666 
L 3169 4134 
L 1269 4134 
L 1269 2991 
Q 1406 3038 1543 3061 
Q 1681 3084 1819 3084 
Q 2600 3084 3056 2656 
Q 3513 2228 3513 1497 
Q 3513 744 3044 326 
Q 2575 -91 1722 -91 
Q 1428 -91 1123 -41 
Q 819 9 494 109 
L 494 744 
Q 775 591 1075 516 
Q 1375 441 1709 441 
Q 2250 441 2565 725 
Q 2881 1009 2881 1497 
Q 2881 1984 2565 2268 
Q 2250 2553 1709 2553 
Q 1456 2553 1204 2497 
Q 953 2441 691 2322 
L 691 4666 
z
" transform="scale(0.015625)"/>
       </defs>
       <use xlink:href="#DejaVuSans-30"/>
       <use xlink:href="#DejaVuSans-2e" x="63.623047"/>
       <use xlink:href="#DejaVuSans-30" x="95.410156"/>
       <use xlink:href="#DejaVuSans-39" x="159.033203"/>
       <use xlink:href="#DejaVuSans-35" x="222.65625"/>
      </g>
     </g>
    </g>
    <g id="ytick_3">
     <g id="line2d_13">
      <path d="M 63.47 109.236317 
L 277.2 109.236317 
" clip-path="url(#pc3d98e0667)" style="fill: none; stroke: #b0b0b0; stroke-width: 0.8; stroke-linecap: square"/>
     </g>
     <g id="line2d_14">
      <g>
       <use xlink:href="#m902274d01b" x="63.47" y="109.236317" style="stroke: #000000; stroke-width: 0.8"/>
      </g>
     </g>
     <g id="text_8">
      <!-- 0.100 -->
      <g transform="translate(27.841875 113.035536) scale(0.1 -0.1)">
       <defs>
        <path id="DejaVuSans-31" d="M 794 531 
L 1825 531 
L 1825 4091 
L 703 3866 
L 703 4441 
L 1819 4666 
L 2450 4666 
L 2450 531 
L 3481 531 
L 3481 0 
L 794 0 
L 794 531 
z
" transform="scale(0.015625)"/>
       </defs>
       <use xlink:href="#DejaVuSans-30"/>
       <use xlink:href="#DejaVuSans-2e" x="63.623047"/>
       <use xlink:href="#DejaVuSans-31" x="95.410156"/>
       <use xlink:href="#DejaVuSans-30" x="159.033203"/>
       <use xlink:href="#DejaVuSans-30" x="222.65625"/>
      </g>
     </g>
    </g>
    <g id="ytick_4">
     <g id="line2d_15">
      <path d="M 63.47 86.365573 
L 277.2 86.365573 
" clip-path="url(#pc3d98e0667)" style="fill: none; stroke: #b0b0b0; stroke-width: 0.8; stroke-linecap: square"/>
     </g>
     <g id="line2d_16">
      <g>
       <use xlink:href="#m902274d01b" x="63.47" y="86.365573" style="stroke: #000000; stroke-width: 0.8"/>
      </g>
     </g>
     <g id="text_9">
      <!-- 0.105 -->
      <g transform="translate(27.841875 90.164792) scale(0.1 -0.1)">
       <use xlink:href="#DejaVuSans-30"/>
       <use xlink:href="#DejaVuSans-2e" x="63.623047"/>
       <use xlink:href="#DejaVuSans-31" x="95.410156"/>
       <use xlink:href="#DejaVuSans-30" x="159.033203"/>
       <use xlink:href="#DejaVuSans-35" x="222.65625"/>
      </g>
     </g>
    </g>
    <g id="ytick_5">
     <g id="line2d_17">
      <path d="M 63.47 63.494828 
L 277.2 63.494828 
" clip-path="url(#pc3d98e0667)" style="fill: none; stroke: #b0b0b0; stroke-width: 0.8; stroke-linecap: square"/>
     </g>
     <g id="line2d_18">
      <g>
       <use xlink:href="#m902274d01b" x="63.47" y="63.494828" style="stroke: #000000; stroke-width: 0.8"/>
      </g>
     </g>
     <g id="text_10">
      <!-- 0.110 -->
      <g transform="translate(27.841875 67.294047) scale(0.1 -0.1)">
       <use xlink:href="#DejaVuSans-30"/>
       <use xlink:href="#DejaVuSans-2e" x="63.623047"/>
       <use xlink:href="#DejaVuSans-31" x="95.410156"/>
       <use xlink:href="#DejaVuSans-31" x="159.033203"/>
       <use xlink:href="#DejaVuSans-30" x="222.65625"/>
      </g>
     </g>
    </g>
    <g id="ytick_6">
     <g id="line2d_19">
      <path d="M 63.47 40.624084 
L 277.2 40.624084 
" clip-path="url(#pc3d98e0667)" style="fill: none; stroke: #b0b0b0; stroke-width: 0.8; stroke-linecap: square"/>
     </g>
     <g id="line2d_20">
      <g>
       <use xlink:href="#m902274d01b" x="63.47" y="40.624084" style="stroke: #000000; stroke-width: 0.8"/>
      </g>
     </g>
     <g id="text_11">
      <!-- 0.115 -->
      <g transform="translate(27.841875 44.423303) scale(0.1 -0.1)">
       <use xlink:href="#DejaVuSans-30"/>
       <use xlink:href="#DejaVuSans-2e" x="63.623047"/>
       <use xlink:href="#DejaVuSans-31" x="95.410156"/>
       <use xlink:href="#DejaVuSans-31" x="159.033203"/>
       <use xlink:href="#DejaVuSans-35" x="222.65625"/>
      </g>
     </g>
    </g>
    <g id="ytick_7">
     <g id="line2d_21">
      <path d="M 63.47 17.753339 
L 277.2 17.753339 
" clip-path="url(#pc3d98e0667)" style="fill: none; stroke: #b0b0b0; stroke-width: 0.8; stroke-linecap: square"/>
     </g>
     <g id="line2d_22">
      <g>
       <use xlink:href="#m902274d01b" x="63.47" y="17.753339" style="stroke: #000000; stroke-width: 0.8"/>
      </g>
     </g>
     <g id="text_12">
      <!-- 0.120 -->
      <g transform="translate(27.841875 21.552558) scale(0.1 -0.1)">
       <use xlink:href="#DejaVuSans-30"/>
       <use xlink:href="#DejaVuSans-2e" x="63.623047"/>
       <use xlink:href="#DejaVuSans-31" x="95.410156"/>
       <use xlink:href="#DejaVuSans-32" x="159.033203"/>
       <use xlink:href="#DejaVuSans-30" x="222.65625"/>
      </g>
     </g>
    </g>
    <g id="text_13">
     <!-- $dCL/dalpha$ -->
     <g transform="translate(21.741875 120.62) rotate(-90) scale(0.1 -0.1)">
      <defs>
       <path id="DejaVuSans-Oblique-64" d="M 2675 525 
Q 2444 222 2128 65 
Q 1813 -91 1428 -91 
Q 903 -91 598 267 
Q 294 625 294 1247 
Q 294 1766 478 2236 
Q 663 2706 1013 3078 
Q 1244 3325 1534 3454 
Q 1825 3584 2144 3584 
Q 2481 3584 2739 3421 
Q 2997 3259 3138 2956 
L 3513 4863 
L 4091 4863 
L 3144 0 
L 2566 0 
L 2675 525 
z
M 891 1350 
Q 891 897 1095 644 
Q 1300 391 1663 391 
Q 1931 391 2161 520 
Q 2391 650 2566 903 
Q 2750 1166 2856 1509 
Q 2963 1853 2963 2188 
Q 2963 2622 2758 2865 
Q 2553 3109 2194 3109 
Q 1922 3109 1687 2981 
Q 1453 2853 1288 2613 
Q 1106 2353 998 2009 
Q 891 1666 891 1350 
z
" transform="scale(0.015625)"/>
       <path id="DejaVuSans-Oblique-43" d="M 4447 4306 
L 4319 3641 
Q 4019 3944 3683 4091 
Q 3347 4238 2956 4238 
Q 2422 4238 2017 3981 
Q 1613 3725 1319 3200 
Q 1131 2863 1032 2486 
Q 934 2109 934 1728 
Q 934 1091 1264 756 
Q 1594 422 2222 422 
Q 2656 422 3056 561 
Q 3456 700 3834 978 
L 3688 231 
Q 3316 72 2936 -9 
Q 2556 -91 2175 -91 
Q 1278 -91 773 396 
Q 269 884 269 1753 
Q 269 2309 461 2846 
Q 653 3384 1013 3828 
Q 1394 4300 1883 4525 
Q 2372 4750 3022 4750 
Q 3422 4750 3780 4639 
Q 4138 4528 4447 4306 
z
" transform="scale(0.015625)"/>
       <path id="DejaVuSans-Oblique-4c" d="M 1075 4666 
L 1709 4666 
L 909 525 
L 3181 525 
L 3078 0 
L 172 0 
L 1075 4666 
z
" transform="scale(0.015625)"/>
       <path id="DejaVuSans-2f" d="M 1625 4666 
L 2156 4666 
L 531 -594 
L 0 -594 
L 1625 4666 
z
" transform="scale(0.015625)"/>
       <path id="DejaVuSans-Oblique-61" d="M 3438 1997 
L 3047 0 
L 2472 0 
L 2578 531 
Q 2325 219 2001 64 
Q 1678 -91 1281 -91 
Q 834 -91 548 182 
Q 263 456 263 884 
Q 263 1497 752 1853 
Q 1241 2209 2100 2209 
L 2900 2209 
L 2931 2363 
Q 2938 2388 2941 2417 
Q 2944 2447 2944 2509 
Q 2944 2788 2717 2942 
Q 2491 3097 2081 3097 
Q 1800 3097 1504 3025 
Q 1209 2953 897 2809 
L 997 3341 
Q 1322 3463 1633 3523 
Q 1944 3584 2234 3584 
Q 2853 3584 3176 3315 
Q 3500 3047 3500 2534 
Q 3500 2431 3484 2292 
Q 3469 2153 3438 1997 
z
M 2816 1759 
L 2241 1759 
Q 1534 1759 1195 1570 
Q 856 1381 856 984 
Q 856 709 1029 553 
Q 1203 397 1509 397 
Q 1978 397 2328 733 
Q 2678 1069 2791 1631 
L 2816 1759 
z
" transform="scale(0.015625)"/>
       <path id="DejaVuSans-Oblique-6c" d="M 1172 4863 
L 1747 4863 
L 800 0 
L 225 0 
L 1172 4863 
z
" transform="scale(0.015625)"/>
       <path id="DejaVuSans-Oblique-70" d="M 3175 2156 
Q 3175 2616 2975 2859 
Q 2775 3103 2400 3103 
Q 2144 3103 1911 2972 
Q 1678 2841 1497 2591 
Q 1319 2344 1212 1994 
Q 1106 1644 1106 1300 
Q 1106 863 1306 627 
Q 1506 391 1875 391 
Q 2147 391 2380 519 
Q 2613 647 2778 891 
Q 2956 1147 3065 1494 
Q 3175 1841 3175 2156 
z
M 1394 2969 
Q 1625 3272 1939 3428 
Q 2253 3584 2638 3584 
Q 3175 3584 3472 3232 
Q 3769 2881 3769 2247 
Q 3769 1728 3584 1258 
Q 3400 788 3053 416 
Q 2822 169 2531 39 
Q 2241 -91 1919 -91 
Q 1547 -91 1294 64 
Q 1041 219 916 525 
L 556 -1331 
L -19 -1331 
L 922 3500 
L 1497 3500 
L 1394 2969 
z
" transform="scale(0.015625)"/>
       <path id="DejaVuSans-Oblique-68" d="M 3566 2113 
L 3156 0 
L 2578 0 
L 2988 2091 
Q 3016 2238 3031 2350 
Q 3047 2463 3047 2528 
Q 3047 2791 2881 2937 
Q 2716 3084 2419 3084 
Q 1956 3084 1617 2771 
Q 1278 2459 1178 1941 
L 800 0 
L 225 0 
L 1172 4863 
L 1747 4863 
L 1375 2950 
Q 1594 3244 1934 3414 
Q 2275 3584 2650 3584 
Q 3113 3584 3367 3334 
Q 3622 3084 3622 2631 
Q 3622 2519 3608 2391 
Q 3594 2263 3566 2113 
z
" transform="scale(0.015625)"/>
      </defs>
      <use xlink:href="#DejaVuSans-Oblique-64" transform="translate(0 0.015625)"/>
      <use xlink:href="#DejaVuSans-Oblique-43" transform="translate(63.476562 0.015625)"/>
      <use xlink:href="#DejaVuSans-Oblique-4c" transform="translate(133.300781 0.015625)"/>
      <use xlink:href="#DejaVuSans-2f" transform="translate(189.013672 0.015625)"/>
      <use xlink:href="#DejaVuSans-Oblique-64" transform="translate(222.705078 0.015625)"/>
      <use xlink:href="#DejaVuSans-Oblique-61" transform="translate(286.181641 0.015625)"/>
      <use xlink:href="#DejaVuSans-Oblique-6c" transform="translate(347.460938 0.015625)"/>
      <use xlink:href="#DejaVuSans-Oblique-70" transform="translate(375.244141 0.015625)"/>
      <use xlink:href="#DejaVuSans-Oblique-68" transform="translate(438.720703 0.015625)"/>
      <use xlink:href="#DejaVuSans-Oblique-61" transform="translate(502.099609 0.015625)"/>
     </g>
    </g>
   </g>
   <g id="line2d_23">
    <path d="M 73.185 18.22 
L 75.147626 18.727591 
L 77.110253 19.249124 
L 79.072879 19.784601 
L 81.035505 20.33402 
L 82.998131 20.897383 
L 84.960758 21.474689 
L 86.923384 22.065937 
L 88.88601 22.671129 
L 90.848636 23.290264 
L 92.811263 23.923342 
L 94.773889 24.570363 
L 96.736515 25.231326 
L 98.699141 25.906233 
L 100.661768 26.595083 
L 102.624394 27.297876 
L 104.58702 28.014612 
L 106.549646 28.745291 
L 108.512273 29.489913 
L 110.474899 30.248479 
L 112.437525 31.020987 
L 114.400152 31.807438 
L 116.362778 32.607832 
L 118.325404 33.422169 
L 120.28803 34.250449 
L 122.250657 35.092673 
L 124.213283 35.948839 
L 126.175909 36.818948 
L 128.138535 37.703001 
L 130.101162 38.600996 
L 132.063788 39.512935 
L 134.026414 40.438816 
L 135.98904 41.378641 
L 137.951667 42.332408 
L 139.914293 43.300119 
L 141.876919 44.281772 
L 143.839545 45.277369 
L 145.802172 46.286909 
L 147.764798 47.310391 
L 149.727424 48.347817 
L 151.690051 49.399186 
L 153.652677 50.464498 
L 155.615303 51.543752 
L 157.577929 52.63695 
L 159.540556 53.744091 
L 161.503182 54.865175 
L 163.465808 56.000202 
L 165.428434 57.149172 
L 167.391061 58.312085 
L 169.353687 59.488941 
L 171.316313 60.67974 
L 173.278939 61.884482 
L 175.241566 63.103167 
L 177.204192 64.335796 
L 179.166818 65.582367 
L 181.129444 66.842881 
L 183.092071 68.117338 
L 185.054697 69.405739 
L 187.017323 70.708082 
L 188.979949 72.024368 
L 190.942576 73.354598 
L 192.905202 74.69877 
L 194.867828 76.056886 
L 196.830455 77.428944 
L 198.793081 78.814946 
L 200.755707 80.21489 
L 202.718333 81.628778 
L 204.68096 83.056608 
L 206.643586 84.498382 
L 208.606212 85.954099 
L 210.568838 87.423758 
L 212.531465 88.907361 
L 214.494091 90.404907 
L 216.456717 91.916396 
L 218.419343 93.441827 
L 220.38197 94.981202 
L 222.344596 96.53452 
L 224.307222 98.101781 
L 226.269848 99.682985 
L 228.232475 101.278132 
L 230.195101 102.887222 
L 232.157727 104.510255 
L 234.120354 106.147231 
L 236.08298 107.79815 
L 238.045606 109.463012 
L 240.008232 111.141818 
L 241.970859 112.834566 
L 243.933485 114.541257 
L 245.896111 116.261891 
L 247.858737 117.996469 
L 249.821364 119.744989 
L 251.78399 121.507452 
L 253.746616 123.283859 
L 255.709242 125.074208 
L 257.671869 126.878501 
L 259.634495 128.696736 
L 261.597121 130.528915 
L 263.559747 132.375036 
L 265.522374 134.235101 
L 267.485 136.109108 
" clip-path="url(#pc3d98e0667)" style="fill: none; stroke: #440154; stroke-width: 1.5; stroke-linecap: square"/>
   </g>
   <g id="line2d_24">
    <path d="M 73.185 19.189649 
L 75.147626 19.84154 
L 77.110253 20.507375 
L 79.072879 21.187153 
L 81.035505 21.880873 
L 82.998131 22.588537 
L 84.960758 23.310143 
L 86.923384 24.045693 
L 88.88601 24.795186 
L 90.848636 25.558622 
L 92.811263 26.336 
L 94.773889 27.127322 
L 96.736515 27.932587 
L 98.699141 28.751795 
L 100.661768 29.584946 
L 102.624394 30.43204 
L 104.58702 31.293077 
L 106.549646 32.168057 
L 108.512273 33.05698 
L 110.474899 33.959846 
L 112.437525 34.876655 
L 114.400152 35.807407 
L 116.362778 36.752102 
L 118.325404 37.710741 
L 120.28803 38.683322 
L 122.250657 39.669846 
L 124.213283 40.670313 
L 126.175909 41.684724 
L 128.138535 42.713077 
L 130.101162 43.755374 
L 132.063788 44.811613 
L 134.026414 45.881795 
L 135.98904 46.965921 
L 137.951667 48.063989 
L 139.914293 49.176001 
L 141.876919 50.301956 
L 143.839545 51.441853 
L 145.802172 52.595694 
L 147.764798 53.763478 
L 149.727424 54.945204 
L 151.690051 56.140874 
L 153.652677 57.350487 
L 155.615303 58.574043 
L 157.577929 59.811541 
L 159.540556 61.062983 
L 161.503182 62.328368 
L 163.465808 63.607696 
L 165.428434 64.900967 
L 167.391061 66.208181 
L 169.353687 67.529338 
L 171.316313 68.864438 
L 173.278939 70.213481 
L 175.241566 71.576467 
L 177.204192 72.953396 
L 179.166818 74.344269 
L 181.129444 75.749084 
L 183.092071 77.167842 
L 185.054697 78.600543 
L 187.017323 80.047188 
L 188.979949 81.507775 
L 190.942576 82.982305 
L 192.905202 84.470779 
L 194.867828 85.973195 
L 196.830455 87.489555 
L 198.793081 89.019857 
L 200.755707 90.564103 
L 202.718333 92.122291 
L 204.68096 93.694423 
L 206.643586 95.280497 
L 208.606212 96.880515 
L 210.568838 98.494476 
L 212.531465 100.122379 
L 214.494091 101.764226 
L 216.456717 103.420016 
L 218.419343 105.089749 
L 220.38197 106.773425 
L 222.344596 108.471043 
L 224.307222 110.182605 
L 226.269848 111.90811 
L 228.232475 113.647558 
L 230.195101 115.400949 
L 232.157727 117.168283 
L 234.120354 118.94956 
L 236.08298 120.74478 
L 238.045606 122.553944 
L 240.008232 124.37705 
L 241.970859 126.214099 
L 243.933485 128.065091 
L 245.896111 129.930026 
L 247.858737 131.808905 
L 249.821364 133.701726 
L 251.78399 135.60849 
L 253.746616 137.529198 
L 255.709242 139.463848 
L 257.671869 141.412442 
L 259.634495 143.374978 
L 261.597121 145.351457 
L 263.559747 147.34188 
L 265.522374 149.346246 
L 267.485 151.364554 
" clip-path="url(#pc3d98e0667)" style="fill: none; stroke: #21918c; stroke-width: 1.5; stroke-linecap: square"/>
   </g>
   <g id="line2d_25">
    <path d="M 73.185 20.159298 
L 75.147626 20.95549 
L 77.110253 21.765626 
L 79.072879 22.589704 
L 81.035505 23.427726 
L 82.998131 24.279691 
L 84.960758 25.145598 
L 86.923384 26.025449 
L 88.88601 26.919243 
L 90.848636 27.826979 
L 92.811263 28.748659 
L 94.773889 29.684282 
L 96.736515 30.633848 
L 98.699141 31.597357 
L 100.661768 32.574809 
L 102.624394 33.566204 
L 104.58702 34.571541 
L 106.549646 35.590822 
L 108.512273 36.624047 
L 110.474899 37.671214 
L 112.437525 38.732324 
L 114.400152 39.807377 
L 116.362778 40.896373 
L 118.325404 41.999312 
L 120.28803 43.116194 
L 122.250657 44.24702 
L 124.213283 45.391788 
L 126.175909 46.550499 
L 128.138535 47.723154 
L 130.101162 48.909751 
L 132.063788 50.110291 
L 134.026414 51.324775 
L 135.98904 52.553201 
L 137.951667 53.795571 
L 139.914293 55.051883 
L 141.876919 56.322139 
L 143.839545 57.606337 
L 145.802172 58.904479 
L 147.764798 60.216564 
L 149.727424 61.542591 
L 151.690051 62.882562 
L 153.652677 64.236476 
L 155.615303 65.604333 
L 157.577929 66.986132 
L 159.540556 68.381875 
L 161.503182 69.791561 
L 163.465808 71.21519 
L 165.428434 72.652762 
L 167.391061 74.104277 
L 169.353687 75.569735 
L 171.316313 77.049136 
L 173.278939 78.54248 
L 175.241566 80.049767 
L 177.204192 81.570997 
L 179.166818 83.10617 
L 181.129444 84.655287 
L 183.092071 86.218346 
L 185.054697 87.795348 
L 187.017323 89.386293 
L 188.979949 90.991182 
L 190.942576 92.610013 
L 192.905202 94.242787 
L 194.867828 95.889505 
L 196.830455 97.550165 
L 198.793081 99.224769 
L 200.755707 100.913315 
L 202.718333 102.615805 
L 204.68096 104.332237 
L 206.643586 106.062613 
L 208.606212 107.806932 
L 210.568838 109.565193 
L 212.531465 111.337398 
L 214.494091 113.123546 
L 216.456717 114.923636 
L 218.419343 116.73767 
L 220.38197 118.565647 
L 222.344596 120.407567 
L 224.307222 122.26343 
L 226.269848 124.133236 
L 228.232475 126.016985 
L 230.195101 127.914677 
L 232.157727 129.826312 
L 234.120354 131.75189 
L 236.08298 133.691411 
L 238.045606 135.644875 
L 240.008232 137.612282 
L 241.970859 139.593632 
L 243.933485 141.588925 
L 245.896111 143.598161 
L 247.858737 145.621341 
L 249.821364 147.658463 
L 251.78399 149.709528 
L 253.746616 151.774537 
L 255.709242 153.853488 
L 257.671869 155.946382 
L 259.634495 158.05322 
L 261.597121 160.174 
L 263.559747 162.308724 
L 265.522374 164.45739 
L 267.485 166.62 
" clip-path="url(#pc3d98e0667)" style="fill: none; stroke: #fde725; stroke-width: 1.5; stroke-linecap: square"/>
   </g>
   <g id="patch_3">
    <path d="M 63.47 174.04 
L 63.47 10.8 
" style="fill: none; stroke: #000000; stroke-width: 0.8; stroke-linejoin: miter; stroke-linecap: square"/>
   </g>
   <g id="patch_4">
    <path d="M 277.2 174.04 
L 277.2 10.8 
" style="fill: none; stroke: #000000; stroke-width: 0.8; stroke-linejoin: miter; stroke-linecap: square"/>
   </g>
   <g id="patch_5">
    <path d="M 63.47 174.04 
L 277.2 174.04 
" style="fill: none; stroke: #000000; stroke-width: 0.8; stroke-linejoin: miter; stroke-linecap: square"/>
   </g>
   <g id="patch_6">
    <path d="M 63.47 10.8 
L 277.2 10.8 
" style="fill: none; stroke: #000000; stroke-width: 0.8; stroke-linejoin: miter; stroke-linecap: square"/>
   </g>
   <g id="legend_1">
    <g id="patch_7">
     <path d="M 190.2 62.834375 
L 270.2 62.834375 
Q 272.2 62.834375 272.2 60.834375 
L 272.2 17.8 
Q 272.2 15.8 270.2 15.8 
L 190.2 15.8 
Q 188.2 15.8 188.2 17.8 
L 188.2 60.834375 
Q 188.2 62.834375 190.2 62.834375 
z
" style="fill: #ffffff; opacity: 0.8; stroke: #cccccc; stroke-linejoin: miter"/>
    </g>
    <g id="line2d_26">
     <path d="M 192.2 23.898438 
L 202.2 23.898438 
L 212.2 23.898438 
" style="fill: none; stroke: #440154; stroke-width: 1.5; stroke-linecap: square"/>
    </g>
    <g id="text_14">
     <!-- $\delta_e = -10$ -->
     <g transform="translate(220.2 27.398438) scale(0.1 -0.1)">
      <defs>
       <path id="DejaVuSans-Oblique-3b4" d="M 3472 4053 
Q 3197 4272 2450 4272 
Q 1659 4272 1588 3906 
Q 1531 3619 2328 3469 
Q 2953 3353 3253 3003 
Q 3616 2581 3447 1716 
Q 3284 888 2763 400 
Q 2238 -91 1488 -91 
Q 741 -91 406 400 
Q 72 888 241 1747 
Q 363 2384 891 2900 
Q 1097 3100 1353 3213 
Q 913 3459 1000 3900 
Q 1166 4750 2544 4750 
Q 3234 4750 3566 4531 
L 3472 4053 
z
M 1753 3056 
Q 1525 2966 1306 2738 
Q 969 2384 847 1747 
Q 722 1113 919 756 
Q 1119 397 1584 397 
Q 2044 397 2381 759 
Q 2722 1122 2838 1716 
Q 2956 2338 2731 2638 
Q 2491 2959 2103 2994 
Q 1906 3013 1753 3056 
z
" transform="scale(0.015625)"/>
       <path id="DejaVuSans-Oblique-65" d="M 3078 2063 
Q 3088 2113 3092 2166 
Q 3097 2219 3097 2272 
Q 3097 2653 2873 2875 
Q 2650 3097 2266 3097 
Q 1838 3097 1509 2826 
Q 1181 2556 1013 2059 
L 3078 2063 
z
M 3578 1613 
L 903 1613 
Q 884 1494 878 1425 
Q 872 1356 872 1306 
Q 872 872 1139 634 
Q 1406 397 1894 397 
Q 2269 397 2603 481 
Q 2938 566 3225 728 
L 3116 159 
Q 2806 34 2476 -28 
Q 2147 -91 1806 -91 
Q 1078 -91 686 257 
Q 294 606 294 1247 
Q 294 1794 489 2264 
Q 684 2734 1063 3103 
Q 1306 3334 1642 3459 
Q 1978 3584 2356 3584 
Q 2950 3584 3301 3228 
Q 3653 2872 3653 2272 
Q 3653 2128 3634 1964 
Q 3616 1800 3578 1613 
z
" transform="scale(0.015625)"/>
       <path id="DejaVuSans-3d" d="M 678 2906 
L 4684 2906 
L 4684 2381 
L 678 2381 
L 678 2906 
z
M 678 1631 
L 4684 1631 
L 4684 1100 
L 678 1100 
L 678 1631 
z
" transform="scale(0.015625)"/>
       <path id="DejaVuSans-2212" d="M 678 2272 
L 4684 2272 
L 4684 1741 
L 678 1741 
L 678 2272 
z
" transform="scale(0.015625)"/>
      </defs>
      <use xlink:href="#DejaVuSans-Oblique-3b4" transform="translate(0 0.78125)"/>
      <use xlink:href="#DejaVuSans-Oblique-65" transform="translate(61.181641 -15.625) scale(0.7)"/>
      <use xlink:href="#DejaVuSans-3d" transform="translate(126.464844 0.78125)"/>
      <use xlink:href="#DejaVuSans-2212" transform="translate(249.21875 0.78125)"/>
      <use xlink:href="#DejaVuSans-31" transform="translate(352.490234 0.78125)"/>
      <use xlink:href="#DejaVuSans-30" transform="translate(416.113281 0.78125)"/>
     </g>
    </g>
    <g id="line2d_27">
     <path d="M 192.2 38.576563 
L 202.2 38.576563 
L 212.2 38.576563 
" style="fill: none; stroke: #21918c; stroke-width: 1.5; stroke-linecap: square"/>
    </g>
    <g id="text_15">
     <!-- $\delta_e = 0$ -->
     <g transform="translate(220.2 42.076563) scale(0.1 -0.1)">
      <use xlink:href="#DejaVuSans-Oblique-3b4" transform="translate(0 0.78125)"/>
      <use xlink:href="#DejaVuSans-Oblique-65" transform="translate(61.181641 -15.625) scale(0.7)"/>
      <use xlink:href="#DejaVuSans-3d" transform="translate(126.464844 0.78125)"/>
      <use xlink:href="#DejaVuSans-30" transform="translate(229.736328 0.78125)"/>
     </g>
    </g>
    <g id="line2d_28">
     <path d="M 192.2 53.254688 
L 202.2 53.254688 
L 212.2 53.254688 
" style="fill: none; stroke: #fde725; stroke-width: 1.5; stroke-linecap: square"/>
    </g>
    <g id="text_16">
     <!-- $\delta_e = 10$ -->
     <g transform="translate(220.2 56.754688) scale(0.1 -0.1)">
      <use xlink:href="#DejaVuSans-Oblique-3b4" transform="translate(0 0.78125)"/>
      <use xlink:href="#DejaVuSans-Oblique-65" transform="translate(61.181641 -15.625) scale(0.7)"/>
      <use xlink:href="#DejaVuSans-3d" transform="translate(126.464844 0.78125)"/>
      <use xlink:href="#DejaVuSans-31" transform="translate(229.736328 0.78125)"/>
      <use xlink:href="#DejaVuSans-30" transform="translate(293.359375 0.78125)"/>
     </g>
    </g>
   </g>
  </g>
 </g>
 <defs>
  <clipPath id="pc3d98e0667">
   <rect x="63.47" y="10.8" width="213.73" height="163.24"/>
  </clipPath>
 </defs>
</svg>
