<?xml version="1.0" encoding="utf-8" standalone="no"?>
<!DOCTYPE svg PUBLIC "-//W3C//DTD SVG 1.1//EN"
  "http://www.w3.org/Graphics/SVG/1.1/DTD/svg11.dtd">
<svg xmlns:xlink="http://www.w3.org/1999/xlink" width="576pt" height="216pt" viewBox="0 0 576 216" xmlns="http://www.w3.org/2000/svg" version="1.1">
 <metadata>
  <rdf:RDF xmlns:dc="http://purl.org/dc/elements/1.1/" xmlns:cc="http://creativecommons.org/ns#" xmlns:rdf="http://www.w3.org/1999/02/22-rdf-syntax-ns#">
   <cc:Work>
    <dc:type rdf:resource="http://purl.org/dc/dcmitype/StillImage"/>
    <dc:date>2025-03-28T09:42:39.197098</dc:date>
    <dc:format>image/svg+xml</dc:format>
    <dc:creator>
     <cc:Agent>
      <dc:title>Matplotlib v3.9.2, https://matplotlib.org/</dc:title>
     </cc:Agent>
    </dc:creator>
   </cc:Work>
  </rdf:RDF>
 </metadata>
 <defs>
  <style type="text/css">*{stroke-linejoin: round; stroke-linecap: butt}</style>
 </defs>
 <g id="figure_1">
  <g id="patch_1">
   <path d="M 0 216 
L 576 216 
L 576 0 
L 0 0 
z
" style="fill: #ffffff"/>
  </g>
  <g id="axes_1">
   <g id="patch_2">
    <path d="M 69.428 174.04 
L 450.255247 174.04 
L 450.255247 10.8 
L 69.428 10.8 
z
" style="fill: #ffffff"/>
   </g>
   <g id="matplotlib.axis_1">
    <g id="xtick_1">
     <g id="line2d_1">
      <path d="M 86.738329 174.04 
L 86.738329 10.8 
" clip-path="url(#p5e5fa2bd8a)" style="fill: none; stroke: #b0b0b0; stroke-width: 0.8; stroke-linecap: square"/>
     </g>
     <g id="line2d_2">
      <defs>
       <path id="m35d3ac38d0" d="M 0 0 
L 0 3.5 
" style="stroke: #000000; stroke-width: 0.8"/>
      </defs>
      <g>
       <use xlink:href="#m35d3ac38d0" x="86.738329" y="174.04" style="stroke: #000000; stroke-width: 0.8"/>
      </g>
     </g>
     <g id="text_1">
      <!-- −4 -->
      <g transform="translate(79.367236 188.638438) scale(0.1 -0.1)">
       <defs>
        <path id="DejaVuSans-2212" d="M 678 2272 
L 4684 2272 
L 4684 1741 
L 678 1741 
L 678 2272 
z
" transform="scale(0.015625)"/>
        <path id="DejaVuSans-34" d="M 2419 4116 
L 825 1625 
L 2419 1625 
L 2419 4116 
z
M 2253 4666 
L 3047 4666 
L 3047 1625 
L 3713 1625 
L 3713 1100 
L 3047 1100 
L 3047 0 
L 2419 0 
L 2419 1100 
L 313 1100 
L 313 1709 
L 2253 4666 
z
" transform="scale(0.015625)"/>
       </defs>
       <use xlink:href="#DejaVuSans-2212"/>
       <use xlink:href="#DejaVuSans-34" x="83.789062"/>
      </g>
     </g>
    </g>
    <g id="xtick_2">
     <g id="line2d_3">
      <path d="M 149.684982 174.04 
L 149.684982 10.8 
" clip-path="url(#p5e5fa2bd8a)" style="fill: none; stroke: #b0b0b0; stroke-width: 0.8; stroke-linecap: square"/>
     </g>
     <g id="line2d_4">
      <g>
       <use xlink:href="#m35d3ac38d0" x="149.684982" y="174.04" style="stroke: #000000; stroke-width: 0.8"/>
      </g>
     </g>
     <g id="text_2">
      <!-- −2 -->
      <g transform="translate(142.313888 188.638438) scale(0.1 -0.1)">
       <defs>
        <path id="DejaVuSans-32" d="M 1228 531 
L 3431 531 
L 3431 0 
L 469 0 
L 469 531 
Q 828 903 1448 1529 
Q 2069 2156 2228 2338 
Q 2531 2678 2651 2914 
Q 2772 3150 2772 3378 
Q 2772 3750 2511 3984 
Q 2250 4219 1831 4219 
Q 1534 4219 1204 4116 
Q 875 4013 500 3803 
L 500 4441 
Q 881 4594 1212 4672 
Q 1544 4750 1819 4750 
Q 2544 4750 2975 4387 
Q 3406 4025 3406 3419 
Q 3406 3131 3298 2873 
Q 3191 2616 2906 2266 
Q 2828 2175 2409 1742 
Q 1991 1309 1228 531 
z
" transform="scale(0.015625)"/>
       </defs>
       <use xlink:href="#DejaVuSans-2212"/>
       <use xlink:href="#DejaVuSans-32" x="83.789062"/>
      </g>
     </g>
    </g>
    <g id="xtick_3">
     <g id="line2d_5">
      <path d="M 212.631634 174.04 
L 212.631634 10.8 
" clip-path="url(#p5e5fa2bd8a)" style="fill: none; stroke: #b0b0b0; stroke-width: 0.8; stroke-linecap: square"/>
     </g>
     <g id="line2d_6">
      <g>
       <use xlink:href="#m35d3ac38d0" x="212.631634" y="174.04" style="stroke: #000000; stroke-width: 0.8"/>
      </g>
     </g>
     <g id="text_3">
      <!-- 0 -->
      <g transform="translate(209.450384 188.638438) scale(0.1 -0.1)">
       <defs>
        <path id="DejaVuSans-30" d="M 2034 4250 
Q 1547 4250 1301 3770 
Q 1056 3291 1056 2328 
Q 1056 1369 1301 889 
Q 1547 409 2034 409 
Q 2525 409 2770 889 
Q 3016 1369 3016 2328 
Q 3016 3291 2770 3770 
Q 2525 4250 2034 4250 
z
M 2034 4750 
Q 2819 4750 3233 4129 
Q 3647 3509 3647 2328 
Q 3647 1150 3233 529 
Q 2819 -91 2034 -91 
Q 1250 -91 836 529 
Q 422 1150 422 2328 
Q 422 3509 836 4129 
Q 1250 4750 2034 4750 
z
" transform="scale(0.015625)"/>
       </defs>
       <use xlink:href="#DejaVuSans-30"/>
      </g>
     </g>
    </g>
    <g id="xtick_4">
     <g id="line2d_7">
      <path d="M 275.578287 174.04 
L 275.578287 10.8 
" clip-path="url(#p5e5fa2bd8a)" style="fill: none; stroke: #b0b0b0; stroke-width: 0.8; stroke-linecap: square"/>
     </g>
     <g id="line2d_8">
      <g>
       <use xlink:href="#m35d3ac38d0" x="275.578287" y="174.04" style="stroke: #000000; stroke-width: 0.8"/>
      </g>
     </g>
     <g id="text_4">
      <!-- 2 -->
      <g transform="translate(272.397037 188.638438) scale(0.1 -0.1)">
       <use xlink:href="#DejaVuSans-32"/>
      </g>
     </g>
    </g>
    <g id="xtick_5">
     <g id="line2d_9">
      <path d="M 338.524939 174.04 
L 338.524939 10.8 
" clip-path="url(#p5e5fa2bd8a)" style="fill: none; stroke: #b0b0b0; stroke-width: 0.8; stroke-linecap: square"/>
     </g>
     <g id="line2d_10">
      <g>
       <use xlink:href="#m35d3ac38d0" x="338.524939" y="174.04" style="stroke: #000000; stroke-width: 0.8"/>
      </g>
     </g>
     <g id="text_5">
      <!-- 4 -->
      <g transform="translate(335.343689 188.638438) scale(0.1 -0.1)">
       <use xlink:href="#DejaVuSans-34"/>
      </g>
     </g>
    </g>
    <g id="xtick_6">
     <g id="line2d_11">
      <path d="M 401.471592 174.04 
L 401.471592 10.8 
" clip-path="url(#p5e5fa2bd8a)" style="fill: none; stroke: #b0b0b0; stroke-width: 0.8; stroke-linecap: square"/>
     </g>
     <g id="line2d_12">
      <g>
       <use xlink:href="#m35d3ac38d0" x="401.471592" y="174.04" style="stroke: #000000; stroke-width: 0.8"/>
      </g>
     </g>
     <g id="text_6">
      <!-- 6 -->
      <g transform="translate(398.290342 188.638438) scale(0.1 -0.1)">
       <defs>
        <path id="DejaVuSans-36" d="M 2113 2584 
Q 1688 2584 1439 2293 
Q 1191 2003 1191 1497 
Q 1191 994 1439 701 
Q 1688 409 2113 409 
Q 2538 409 2786 701 
Q 3034 994 3034 1497 
Q 3034 2003 2786 2293 
Q 2538 2584 2113 2584 
z
M 3366 4563 
L 3366 3988 
Q 3128 4100 2886 4159 
Q 2644 4219 2406 4219 
Q 1781 4219 1451 3797 
Q 1122 3375 1075 2522 
Q 1259 2794 1537 2939 
Q 1816 3084 2150 3084 
Q 2853 3084 3261 2657 
Q 3669 2231 3669 1497 
Q 3669 778 3244 343 
Q 2819 -91 2113 -91 
Q 1303 -91 875 529 
Q 447 1150 447 2328 
Q 447 3434 972 4092 
Q 1497 4750 2381 4750 
Q 2619 4750 2861 4703 
Q 3103 4656 3366 4563 
z
" transform="scale(0.015625)"/>
       </defs>
       <use xlink:href="#DejaVuSans-36"/>
      </g>
     </g>
    </g>
    <g id="text_7">
     <!-- $\alpha$ -->
     <g transform="translate(256.541624 202.316563) scale(0.1 -0.1)">
      <defs>
       <path id="DejaVuSans-Oblique-3b1" d="M 2619 1628 
L 2622 2350 
Q 2625 3088 2069 3091 
Q 1653 3094 1394 2747 
Q 1069 2319 959 1747 
Q 825 1059 994 731 
Q 1169 397 1547 397 
Q 1966 397 2319 1063 
L 2619 1628 
z
M 2166 3578 
Q 3141 3594 3128 2584 
Q 3128 2584 3616 3500 
L 4128 3500 
L 3119 1603 
L 3109 919 
Q 3109 766 3194 638 
Q 3291 488 3391 488 
L 3669 488 
L 3575 0 
L 3228 0 
Q 2934 0 2722 263 
Q 2622 394 2619 669 
Q 2416 334 2066 50 
Q 1900 -81 1453 -78 
Q 722 -72 456 397 
Q 184 884 353 1747 
Q 534 2675 1009 3097 
Q 1544 3569 2166 3578 
z
" transform="scale(0.015625)"/>
      </defs>
      <use xlink:href="#DejaVuSans-Oblique-3b1" transform="translate(0 0.84375)"/>
     </g>
    </g>
   </g>
   <g id="matplotlib.axis_2">
    <g id="ytick_1">
     <g id="line2d_13">
      <path d="M 69.428 151.854178 
L 450.255247 151.854178 
" clip-path="url(#p5e5fa2bd8a)" style="fill: none; stroke: #b0b0b0; stroke-width: 0.8; stroke-linecap: square"/>
     </g>
     <g id="line2d_14">
      <defs>
       <path id="m5ceb4258a8" d="M 0 0 
L -3.5 0 
" style="stroke: #000000; stroke-width: 0.8"/>
      </defs>
      <g>
       <use xlink:href="#m5ceb4258a8" x="69.428" y="151.854178" style="stroke: #000000; stroke-width: 0.8"/>
      </g>
     </g>
     <g id="text_8">
      <!-- 0.0080 -->
      <g transform="translate(27.437375 155.653397) scale(0.1 -0.1)">
       <defs>
        <path id="DejaVuSans-2e" d="M 684 794 
L 1344 794 
L 1344 0 
L 684 0 
L 684 794 
z
" transform="scale(0.015625)"/>
        <path id="DejaVuSans-38" d="M 2034 2216 
Q 1584 2216 1326 1975 
Q 1069 1734 1069 1313 
Q 1069 891 1326 650 
Q 1584 409 2034 409 
Q 2484 409 2743 651 
Q 3003 894 3003 1313 
Q 3003 1734 2745 1975 
Q 2488 2216 2034 2216 
z
M 1403 2484 
Q 997 2584 770 2862 
Q 544 3141 544 3541 
Q 544 4100 942 4425 
Q 1341 4750 2034 4750 
Q 2731 4750 3128 4425 
Q 3525 4100 3525 3541 
Q 3525 3141 3298 2862 
Q 3072 2584 2669 2484 
Q 3125 2378 3379 2068 
Q 3634 1759 3634 1313 
Q 3634 634 3220 271 
Q 2806 -91 2034 -91 
Q 1263 -91 848 271 
Q 434 634 434 1313 
Q 434 1759 690 2068 
Q 947 2378 1403 2484 
z
M 1172 3481 
Q 1172 3119 1398 2916 
Q 1625 2713 2034 2713 
Q 2441 2713 2670 2916 
Q 2900 3119 2900 3481 
Q 2900 3844 2670 4047 
Q 2441 4250 2034 4250 
Q 1625 4250 1398 4047 
Q 1172 3844 1172 3481 
z
" transform="scale(0.015625)"/>
       </defs>
       <use xlink:href="#DejaVuSans-30"/>
       <use xlink:href="#DejaVuSans-2e" x="63.623047"/>
       <use xlink:href="#DejaVuSans-30" x="95.410156"/>
       <use xlink:href="#DejaVuSans-30" x="159.033203"/>
       <use xlink:href="#DejaVuSans-38" x="222.65625"/>
       <use xlink:href="#DejaVuSans-30" x="286.279297"/>
      </g>
     </g>
    </g>
    <g id="ytick_2">
     <g id="line2d_15">
      <path d="M 69.428 121.038761 
L 450.255247 121.038761 
" clip-path="url(#p5e5fa2bd8a)" style="fill: none; stroke: #b0b0b0; stroke-width: 0.8; stroke-linecap: square"/>
     </g>
     <g id="line2d_16">
      <g>
       <use xlink:href="#m5ceb4258a8" x="69.428" y="121.038761" style="stroke: #000000; stroke-width: 0.8"/>
      </g>
     </g>
     <g id="text_9">
      <!-- 0.0085 -->
      <g transform="translate(27.437375 124.837979) scale(0.1 -0.1)">
       <defs>
        <path id="DejaVuSans-35" d="M 691 4666 
L 3169 4666 
L 3169 4134 
L 1269 4134 
L 1269 2991 
Q 1406 3038 1543 3061 
Q 1681 3084 1819 3084 
Q 2600 3084 3056 2656 
Q 3513 2228 3513 1497 
Q 3513 744 3044 326 
Q 2575 -91 1722 -91 
Q 1428 -91 1123 -41 
Q 819 9 494 109 
L 494 744 
Q 775 591 1075 516 
Q 1375 441 1709 441 
Q 2250 441 2565 725 
Q 2881 1009 2881 1497 
Q 2881 1984 2565 2268 
Q 2250 2553 1709 2553 
Q 1456 2553 1204 2497 
Q 953 2441 691 2322 
L 691 4666 
z
" transform="scale(0.015625)"/>
       </defs>
       <use xlink:href="#DejaVuSans-30"/>
       <use xlink:href="#DejaVuSans-2e" x="63.623047"/>
       <use xlink:href="#DejaVuSans-30" x="95.410156"/>
       <use xlink:href="#DejaVuSans-30" x="159.033203"/>
       <use xlink:href="#DejaVuSans-38" x="222.65625"/>
       <use xlink:href="#DejaVuSans-35" x="286.279297"/>
      </g>
     </g>
    </g>
    <g id="ytick_3">
     <g id="line2d_17">
      <path d="M 69.428 90.223343 
L 450.255247 90.223343 
" clip-path="url(#p5e5fa2bd8a)" style="fill: none; stroke: #b0b0b0; stroke-width: 0.8; stroke-linecap: square"/>
     </g>
     <g id="line2d_18">
      <g>
       <use xlink:href="#m5ceb4258a8" x="69.428" y="90.223343" style="stroke: #000000; stroke-width: 0.8"/>
      </g>
     </g>
     <g id="text_10">
      <!-- 0.0090 -->
      <g transform="translate(27.437375 94.022562) scale(0.1 -0.1)">
       <defs>
        <path id="DejaVuSans-39" d="M 703 97 
L 703 672 
Q 941 559 1184 500 
Q 1428 441 1663 441 
Q 2288 441 2617 861 
Q 2947 1281 2994 2138 
Q 2813 1869 2534 1725 
Q 2256 1581 1919 1581 
Q 1219 1581 811 2004 
Q 403 2428 403 3163 
Q 403 3881 828 4315 
Q 1253 4750 1959 4750 
Q 2769 4750 3195 4129 
Q 3622 3509 3622 2328 
Q 3622 1225 3098 567 
Q 2575 -91 1691 -91 
Q 1453 -91 1209 -44 
Q 966 3 703 97 
z
M 1959 2075 
Q 2384 2075 2632 2365 
Q 2881 2656 2881 3163 
Q 2881 3666 2632 3958 
Q 2384 4250 1959 4250 
Q 1534 4250 1286 3958 
Q 1038 3666 1038 3163 
Q 1038 2656 1286 2365 
Q 1534 2075 1959 2075 
z
" transform="scale(0.015625)"/>
       </defs>
       <use xlink:href="#DejaVuSans-30"/>
       <use xlink:href="#DejaVuSans-2e" x="63.623047"/>
       <use xlink:href="#DejaVuSans-30" x="95.410156"/>
       <use xlink:href="#DejaVuSans-30" x="159.033203"/>
       <use xlink:href="#DejaVuSans-39" x="222.65625"/>
       <use xlink:href="#DejaVuSans-30" x="286.279297"/>
      </g>
     </g>
    </g>
    <g id="ytick_4">
     <g id="line2d_19">
      <path d="M 69.428 59.407925 
L 450.255247 59.407925 
" clip-path="url(#p5e5fa2bd8a)" style="fill: none; stroke: #b0b0b0; stroke-width: 0.8; stroke-linecap: square"/>
     </g>
     <g id="line2d_20">
      <g>
       <use xlink:href="#m5ceb4258a8" x="69.428" y="59.407925" style="stroke: #000000; stroke-width: 0.8"/>
      </g>
     </g>
     <g id="text_11">
      <!-- 0.0095 -->
      <g transform="translate(27.437375 63.207144) scale(0.1 -0.1)">
       <use xlink:href="#DejaVuSans-30"/>
       <use xlink:href="#DejaVuSans-2e" x="63.623047"/>
       <use xlink:href="#DejaVuSans-30" x="95.410156"/>
       <use xlink:href="#DejaVuSans-30" x="159.033203"/>
       <use xlink:href="#DejaVuSans-39" x="222.65625"/>
       <use xlink:href="#DejaVuSans-35" x="286.279297"/>
      </g>
     </g>
    </g>
    <g id="ytick_5">
     <g id="line2d_21">
      <path d="M 69.428 28.592508 
L 450.255247 28.592508 
" clip-path="url(#p5e5fa2bd8a)" style="fill: none; stroke: #b0b0b0; stroke-width: 0.8; stroke-linecap: square"/>
     </g>
     <g id="line2d_22">
      <g>
       <use xlink:href="#m5ceb4258a8" x="69.428" y="28.592508" style="stroke: #000000; stroke-width: 0.8"/>
      </g>
     </g>
     <g id="text_12">
      <!-- 0.0100 -->
      <g transform="translate(27.437375 32.391726) scale(0.1 -0.1)">
       <defs>
        <path id="DejaVuSans-31" d="M 794 531 
L 1825 531 
L 1825 4091 
L 703 3866 
L 703 4441 
L 1819 4666 
L 2450 4666 
L 2450 531 
L 3481 531 
L 3481 0 
L 794 0 
L 794 531 
z
" transform="scale(0.015625)"/>
       </defs>
       <use xlink:href="#DejaVuSans-30"/>
       <use xlink:href="#DejaVuSans-2e" x="63.623047"/>
       <use xlink:href="#DejaVuSans-30" x="95.410156"/>
       <use xlink:href="#DejaVuSans-31" x="159.033203"/>
       <use xlink:href="#DejaVuSans-30" x="222.65625"/>
       <use xlink:href="#DejaVuSans-30" x="286.279297"/>
      </g>
     </g>
    </g>
    <g id="text_13">
     <!-- d$C_L$ / d$\delta_e$ -->
     <g transform="translate(21.357688 114.57) rotate(-90) scale(0.1 -0.1)">
      <defs>
       <path id="DejaVuSans-64" d="M 2906 2969 
L 2906 4863 
L 3481 4863 
L 3481 0 
L 2906 0 
L 2906 525 
Q 2725 213 2448 61 
Q 2172 -91 1784 -91 
Q 1150 -91 751 415 
Q 353 922 353 1747 
Q 353 2572 751 3078 
Q 1150 3584 1784 3584 
Q 2172 3584 2448 3432 
Q 2725 3281 2906 2969 
z
M 947 1747 
Q 947 1113 1208 752 
Q 1469 391 1925 391 
Q 2381 391 2643 752 
Q 2906 1113 2906 1747 
Q 2906 2381 2643 2742 
Q 2381 3103 1925 3103 
Q 1469 3103 1208 2742 
Q 947 2381 947 1747 
z
" transform="scale(0.015625)"/>
       <path id="DejaVuSans-Oblique-43" d="M 4447 4306 
L 4319 3641 
Q 4019 3944 3683 4091 
Q 3347 4238 2956 4238 
Q 2422 4238 2017 3981 
Q 1613 3725 1319 3200 
Q 1131 2863 1032 2486 
Q 934 2109 934 1728 
Q 934 1091 1264 756 
Q 1594 422 2222 422 
Q 2656 422 3056 561 
Q 3456 700 3834 978 
L 3688 231 
Q 3316 72 2936 -9 
Q 2556 -91 2175 -91 
Q 1278 -91 773 396 
Q 269 884 269 1753 
Q 269 2309 461 2846 
Q 653 3384 1013 3828 
Q 1394 4300 1883 4525 
Q 2372 4750 3022 4750 
Q 3422 4750 3780 4639 
Q 4138 4528 4447 4306 
z
" transform="scale(0.015625)"/>
       <path id="DejaVuSans-Oblique-4c" d="M 1075 4666 
L 1709 4666 
L 909 525 
L 3181 525 
L 3078 0 
L 172 0 
L 1075 4666 
z
" transform="scale(0.015625)"/>
       <path id="DejaVuSans-20" transform="scale(0.015625)"/>
       <path id="DejaVuSans-2f" d="M 1625 4666 
L 2156 4666 
L 531 -594 
L 0 -594 
L 1625 4666 
z
" transform="scale(0.015625)"/>
       <path id="DejaVuSans-Oblique-3b4" d="M 3472 4053 
Q 3197 4272 2450 4272 
Q 1659 4272 1588 3906 
Q 1531 3619 2328 3469 
Q 2953 3353 3253 3003 
Q 3616 2581 3447 1716 
Q 3284 888 2763 400 
Q 2238 -91 1488 -91 
Q 741 -91 406 400 
Q 72 888 241 1747 
Q 363 2384 891 2900 
Q 1097 3100 1353 3213 
Q 913 3459 1000 3900 
Q 1166 4750 2544 4750 
Q 3234 4750 3566 4531 
L 3472 4053 
z
M 1753 3056 
Q 1525 2966 1306 2738 
Q 969 2384 847 1747 
Q 722 1113 919 756 
Q 1119 397 1584 397 
Q 2044 397 2381 759 
Q 2722 1122 2838 1716 
Q 2956 2338 2731 2638 
Q 2491 2959 2103 2994 
Q 1906 3013 1753 3056 
z
" transform="scale(0.015625)"/>
       <path id="DejaVuSans-Oblique-65" d="M 3078 2063 
Q 3088 2113 3092 2166 
Q 3097 2219 3097 2272 
Q 3097 2653 2873 2875 
Q 2650 3097 2266 3097 
Q 1838 3097 1509 2826 
Q 1181 2556 1013 2059 
L 3078 2063 
z
M 3578 1613 
L 903 1613 
Q 884 1494 878 1425 
Q 872 1356 872 1306 
Q 872 872 1139 634 
Q 1406 397 1894 397 
Q 2269 397 2603 481 
Q 2938 566 3225 728 
L 3116 159 
Q 2806 34 2476 -28 
Q 2147 -91 1806 -91 
Q 1078 -91 686 257 
Q 294 606 294 1247 
Q 294 1794 489 2264 
Q 684 2734 1063 3103 
Q 1306 3334 1642 3459 
Q 1978 3584 2356 3584 
Q 2950 3584 3301 3228 
Q 3653 2872 3653 2272 
Q 3653 2128 3634 1964 
Q 3616 1800 3578 1613 
z
" transform="scale(0.015625)"/>
      </defs>
      <use xlink:href="#DejaVuSans-64" transform="translate(0 0.015625)"/>
      <use xlink:href="#DejaVuSans-Oblique-43" transform="translate(63.476562 0.015625)"/>
      <use xlink:href="#DejaVuSans-Oblique-4c" transform="translate(133.300781 -16.390625) scale(0.7)"/>
      <use xlink:href="#DejaVuSans-20" transform="translate(175.03418 0.015625)"/>
      <use xlink:href="#DejaVuSans-2f" transform="translate(206.821289 0.015625)"/>
      <use xlink:href="#DejaVuSans-20" transform="translate(240.512695 0.015625)"/>
      <use xlink:href="#DejaVuSans-64" transform="translate(272.299805 0.015625)"/>
      <use xlink:href="#DejaVuSans-Oblique-3b4" transform="translate(335.776367 0.015625)"/>
      <use xlink:href="#DejaVuSans-Oblique-65" transform="translate(396.958008 -16.390625) scale(0.7)"/>
     </g>
    </g>
   </g>
   <g id="line2d_23">
    <path d="M 86.738329 33.65253 
L 90.235366 32.661613 
L 93.732402 31.703568 
L 97.229438 30.778397 
L 100.726474 29.886098 
L 104.223511 29.026673 
L 107.720547 28.20012 
L 111.217583 27.40644 
L 114.714619 26.645633 
L 118.211656 25.9177 
L 121.708692 25.222638 
L 125.205728 24.56045 
L 128.702764 23.931135 
L 132.199801 23.334693 
L 135.696837 22.771123 
L 139.193873 22.240427 
L 142.690909 21.742603 
L 146.187946 21.277653 
L 149.684982 20.845575 
L 153.182018 20.44637 
L 156.679054 20.080038 
L 160.176091 19.746579 
L 163.673127 19.445993 
L 167.170163 19.17828 
L 170.667199 18.94344 
L 174.164236 18.741473 
L 177.661272 18.572378 
L 181.158308 18.436157 
L 184.655344 18.332808 
L 188.152381 18.262333 
L 191.649417 18.22473 
L 195.146453 18.22 
L 198.643489 18.248143 
L 202.140526 18.309159 
L 205.637562 18.403048 
L 209.134598 18.52981 
L 212.631634 18.689445 
L 216.128671 18.881952 
L 219.625707 19.107333 
L 223.122743 19.365586 
L 226.619779 19.656713 
L 230.116816 19.980712 
L 233.613852 20.337584 
L 237.110888 20.72733 
L 240.607924 21.149948 
L 244.104961 21.605439 
L 247.601997 22.093803 
L 251.099033 22.615039 
L 254.596069 23.169149 
L 258.093106 23.756132 
L 261.590142 24.375987 
L 265.087178 25.028716 
L 268.584214 25.714317 
L 272.081251 26.432791 
L 275.578287 27.184139 
L 279.075323 27.968359 
L 282.572359 28.785452 
L 286.069396 29.635418 
L 289.566432 30.518257 
L 293.063468 31.433969 
L 296.560504 32.382553 
L 300.057541 33.364011 
L 303.554577 34.378342 
L 307.051613 35.425545 
L 310.548649 36.505621 
L 314.045686 37.618571 
L 317.542722 38.764393 
L 321.039758 39.943088 
L 324.536794 41.154656 
L 328.033831 42.399097 
L 331.530867 43.676411 
L 335.027903 44.986598 
L 338.524939 46.329657 
L 342.021976 47.70559 
L 345.519012 49.114396 
L 349.016048 50.556074 
L 352.513084 52.030625 
L 356.010121 53.53805 
L 359.507157 55.078347 
L 363.004193 56.651517 
L 366.501229 58.25756 
L 369.998266 59.896476 
L 373.495302 61.568265 
L 376.992338 63.272927 
L 380.489374 65.010461 
L 383.986411 66.780869 
L 387.483447 68.584149 
L 390.980483 70.420303 
L 394.477519 72.289329 
L 397.974556 74.191229 
L 401.471592 76.126001 
L 404.968628 78.093646 
L 408.465664 80.094164 
L 411.962701 82.127555 
L 415.459737 84.193819 
L 418.956773 86.292955 
L 422.453809 88.424965 
L 425.950846 90.589848 
L 429.447882 92.787603 
L 432.944918 95.018232 
" clip-path="url(#p5e5fa2bd8a)" style="fill: none; stroke: #000080; stroke-width: 1.5; stroke-linecap: square"/>
   </g>
   <g id="line2d_24">
    <path d="M 86.738329 54.810922 
L 90.235366 54.612218 
L 93.732402 54.434965 
L 97.229438 54.279165 
L 100.726474 54.144816 
L 104.223511 54.031918 
L 107.720547 53.940473 
L 111.217583 53.870479 
L 114.714619 53.821937 
L 118.211656 53.794846 
L 121.708692 53.789208 
L 125.205728 53.805021 
L 128.702764 53.842285 
L 132.199801 53.901002 
L 135.696837 53.98117 
L 139.193873 54.08279 
L 142.690909 54.205862 
L 146.187946 54.350385 
L 149.684982 54.51636 
L 153.182018 54.703787 
L 156.679054 54.912666 
L 160.176091 55.142996 
L 163.673127 55.394778 
L 167.170163 55.668012 
L 170.667199 55.962697 
L 174.164236 56.278834 
L 177.661272 56.616423 
L 181.158308 56.975464 
L 184.655344 57.355956 
L 188.152381 57.757901 
L 191.649417 58.181296 
L 195.146453 58.626144 
L 198.643489 59.092443 
L 202.140526 59.580194 
L 205.637562 60.089397 
L 209.134598 60.620051 
L 212.631634 61.172157 
L 216.128671 61.745715 
L 219.625707 62.340725 
L 223.122743 62.957186 
L 226.619779 63.595099 
L 230.116816 64.254464 
L 233.613852 64.935281 
L 237.110888 65.637549 
L 240.607924 66.361269 
L 244.104961 67.106441 
L 247.601997 67.873064 
L 251.099033 68.661139 
L 254.596069 69.470666 
L 258.093106 70.301645 
L 261.590142 71.154075 
L 265.087178 72.027957 
L 268.584214 72.923291 
L 272.081251 73.840076 
L 275.578287 74.778313 
L 279.075323 75.738002 
L 282.572359 76.719143 
L 286.069396 77.721735 
L 289.566432 78.745779 
L 293.063468 79.791275 
L 296.560504 80.858223 
L 300.057541 81.946622 
L 303.554577 83.056473 
L 307.051613 84.187776 
L 310.548649 85.34053 
L 314.045686 86.514736 
L 317.542722 87.710394 
L 321.039758 88.927504 
L 324.536794 90.166065 
L 328.033831 91.426078 
L 331.530867 92.707543 
L 335.027903 94.01046 
L 338.524939 95.334828 
L 342.021976 96.680648 
L 345.519012 98.04792 
L 349.016048 99.436643 
L 352.513084 100.846818 
L 356.010121 102.278445 
L 359.507157 103.731524 
L 363.004193 105.206054 
L 366.501229 106.702036 
L 369.998266 108.21947 
L 373.495302 109.758355 
L 376.992338 111.318692 
L 380.489374 112.900481 
L 383.986411 114.503722 
L 387.483447 116.128414 
L 390.980483 117.774558 
L 394.477519 119.442154 
L 397.974556 121.131202 
L 401.471592 122.841701 
L 404.968628 124.573652 
L 408.465664 126.327055 
L 411.962701 128.101909 
L 415.459737 129.898216 
L 418.956773 131.715973 
L 422.453809 133.555183 
L 425.950846 135.415844 
L 429.447882 137.297957 
L 432.944918 139.201522 
" clip-path="url(#p5e5fa2bd8a)" style="fill: none; stroke: #0080ff; stroke-width: 1.5; stroke-linecap: square"/>
   </g>
   <g id="line2d_25">
    <path d="M 86.738329 75.116087 
L 90.235366 75.468277 
L 93.732402 75.831411 
L 97.229438 76.205487 
L 100.726474 76.590507 
L 104.223511 76.98647 
L 107.720547 77.393377 
L 111.217583 77.811226 
L 114.714619 78.240019 
L 118.211656 78.679755 
L 121.708692 79.130435 
L 125.205728 79.592058 
L 128.702764 80.064624 
L 132.199801 80.548133 
L 135.696837 81.042586 
L 139.193873 81.547982 
L 142.690909 82.064321 
L 146.187946 82.591604 
L 149.684982 83.12983 
L 153.182018 83.678999 
L 156.679054 84.239111 
L 160.176091 84.810167 
L 163.673127 85.392166 
L 167.170163 85.985108 
L 170.667199 86.588994 
L 174.164236 87.203823 
L 177.661272 87.829595 
L 181.158308 88.46631 
L 184.655344 89.113969 
L 188.152381 89.772571 
L 191.649417 90.442116 
L 195.146453 91.122605 
L 198.643489 91.814037 
L 202.140526 92.516412 
L 205.637562 93.22973 
L 209.134598 93.953992 
L 212.631634 94.689197 
L 216.128671 95.435345 
L 219.625707 96.192437 
L 223.122743 96.960472 
L 226.619779 97.73945 
L 230.116816 98.529371 
L 233.613852 99.330236 
L 237.110888 100.142044 
L 240.607924 100.964795 
L 244.104961 101.79849 
L 247.601997 102.643128 
L 251.099033 103.498709 
L 254.596069 104.365234 
L 258.093106 105.242701 
L 261.590142 106.131112 
L 265.087178 107.030467 
L 268.584214 107.940764 
L 272.081251 108.862005 
L 275.578287 109.794189 
L 279.075323 110.737317 
L 282.572359 111.691387 
L 286.069396 112.656401 
L 289.566432 113.632359 
L 293.063468 114.619259 
L 296.560504 115.617103 
L 300.057541 116.62589 
L 303.554577 117.645621 
L 307.051613 118.676295 
L 310.548649 119.717912 
L 314.045686 120.770472 
L 317.542722 121.833976 
L 321.039758 122.908423 
L 324.536794 123.993813 
L 328.033831 125.090146 
L 331.530867 126.197423 
L 335.027903 127.315643 
L 338.524939 128.444806 
L 342.021976 129.584913 
L 345.519012 130.735963 
L 349.016048 131.897956 
L 352.513084 133.070892 
L 356.010121 134.254772 
L 359.507157 135.449595 
L 363.004193 136.655362 
L 366.501229 137.872071 
L 369.998266 139.099724 
L 373.495302 140.33832 
L 376.992338 141.58786 
L 380.489374 142.848343 
L 383.986411 144.119769 
L 387.483447 145.402138 
L 390.980483 146.695451 
L 394.477519 147.999706 
L 397.974556 149.314906 
L 401.471592 150.641048 
L 404.968628 151.978134 
L 408.465664 153.326163 
L 411.962701 154.685135 
L 415.459737 156.055051 
L 418.956773 157.43591 
L 422.453809 158.827712 
L 425.950846 160.230458 
L 429.447882 161.644146 
L 432.944918 163.068778 
" clip-path="url(#p5e5fa2bd8a)" style="fill: none; stroke: #7dff7a; stroke-width: 1.5; stroke-linecap: square"/>
   </g>
   <g id="line2d_26">
    <path d="M 86.738329 94.568026 
L 90.235366 95.229792 
L 93.732402 95.892905 
L 97.229438 96.557365 
L 100.726474 97.223173 
L 104.223511 97.890329 
L 107.720547 98.558832 
L 111.217583 99.228683 
L 114.714619 99.899881 
L 118.211656 100.572427 
L 121.708692 101.246321 
L 125.205728 101.921562 
L 128.702764 102.598151 
L 132.199801 103.276087 
L 135.696837 103.955371 
L 139.193873 104.636003 
L 142.690909 105.317982 
L 146.187946 106.001309 
L 149.684982 106.685984 
L 153.182018 107.372006 
L 156.679054 108.059375 
L 160.176091 108.748092 
L 163.673127 109.438157 
L 167.170163 110.12957 
L 170.667199 110.82233 
L 174.164236 111.516438 
L 177.661272 112.211893 
L 181.158308 112.908696 
L 184.655344 113.606846 
L 188.152381 114.306344 
L 191.649417 115.00719 
L 195.146453 115.709383 
L 198.643489 116.412924 
L 202.140526 117.117812 
L 205.637562 117.824049 
L 209.134598 118.531632 
L 212.631634 119.240564 
L 216.128671 119.950842 
L 219.625707 120.662469 
L 223.122743 121.375443 
L 226.619779 122.089765 
L 230.116816 122.805434 
L 233.613852 123.522451 
L 237.110888 124.240815 
L 240.607924 124.960527 
L 244.104961 125.681587 
L 247.601997 126.403995 
L 251.099033 127.127749 
L 254.596069 127.852852 
L 258.093106 128.579302 
L 261.590142 129.3071 
L 265.087178 130.036245 
L 268.584214 130.766738 
L 272.081251 131.498578 
L 275.578287 132.231767 
L 279.075323 132.966302 
L 282.572359 133.702186 
L 286.069396 134.439417 
L 289.566432 135.177995 
L 293.063468 135.917921 
L 296.560504 136.659195 
L 300.057541 137.401816 
L 303.554577 138.145785 
L 307.051613 138.891102 
L 310.548649 139.637766 
L 314.045686 140.385778 
L 317.542722 141.135137 
L 321.039758 141.885844 
L 324.536794 142.637898 
L 328.033831 143.391301 
L 331.530867 144.14605 
L 335.027903 144.902148 
L 338.524939 145.659593 
L 342.021976 146.418385 
L 345.519012 147.178525 
L 349.016048 147.940013 
L 352.513084 148.702849 
L 356.010121 149.467032 
L 359.507157 150.232562 
L 363.004193 150.99944 
L 366.501229 151.767666 
L 369.998266 152.537239 
L 373.495302 153.30816 
L 376.992338 154.080429 
L 380.489374 154.854045 
L 383.986411 155.629009 
L 387.483447 156.40532 
L 390.980483 157.182979 
L 394.477519 157.961986 
L 397.974556 158.74234 
L 401.471592 159.524042 
L 404.968628 160.307091 
L 408.465664 161.091488 
L 411.962701 161.877233 
L 415.459737 162.664325 
L 418.956773 163.452765 
L 422.453809 164.242552 
L 425.950846 165.033687 
L 429.447882 165.82617 
L 432.944918 166.62 
" clip-path="url(#p5e5fa2bd8a)" style="fill: none; stroke: #ff9400; stroke-width: 1.5; stroke-linecap: square"/>
   </g>
   <g id="line2d_27">
    <path d="M 86.738329 113.166739 
L 90.235366 113.896761 
L 93.732402 114.619447 
L 97.229438 115.334798 
L 100.726474 116.042813 
L 104.223511 116.743494 
L 107.720547 117.436839 
L 111.217583 118.122848 
L 114.714619 118.801522 
L 118.211656 119.472861 
L 121.708692 120.136865 
L 125.205728 120.793533 
L 128.702764 121.442866 
L 132.199801 122.084863 
L 135.696837 122.719526 
L 139.193873 123.346853 
L 142.690909 123.966844 
L 146.187946 124.579501 
L 149.684982 125.184821 
L 153.182018 125.782807 
L 156.679054 126.373457 
L 160.176091 126.956772 
L 163.673127 127.532752 
L 167.170163 128.101396 
L 170.667199 128.662705 
L 174.164236 129.216679 
L 177.661272 129.763317 
L 181.158308 130.30262 
L 184.655344 130.834588 
L 188.152381 131.35922 
L 191.649417 131.876517 
L 195.146453 132.386479 
L 198.643489 132.889105 
L 202.140526 133.384396 
L 205.637562 133.872351 
L 209.134598 134.352972 
L 212.631634 134.826257 
L 216.128671 135.292206 
L 219.625707 135.750821 
L 223.122743 136.2021 
L 226.619779 136.646044 
L 230.116816 137.082652 
L 233.613852 137.511925 
L 237.110888 137.933863 
L 240.607924 138.348465 
L 244.104961 138.755732 
L 247.601997 139.155664 
L 251.099033 139.54826 
L 254.596069 139.933521 
L 258.093106 140.311447 
L 261.590142 140.682037 
L 265.087178 141.045292 
L 268.584214 141.401212 
L 272.081251 141.749796 
L 275.578287 142.091045 
L 279.075323 142.424959 
L 282.572359 142.751538 
L 286.069396 143.070781 
L 289.566432 143.382688 
L 293.063468 143.687261 
L 296.560504 143.984498 
L 300.057541 144.2744 
L 303.554577 144.556966 
L 307.051613 144.832197 
L 310.548649 145.100093 
L 314.045686 145.360653 
L 317.542722 145.613878 
L 321.039758 145.859768 
L 324.536794 146.098323 
L 328.033831 146.329542 
L 331.530867 146.553426 
L 335.027903 146.769974 
L 338.524939 146.979187 
L 342.021976 147.181065 
L 345.519012 147.375607 
L 349.016048 147.562815 
L 352.513084 147.742686 
L 356.010121 147.915223 
L 359.507157 148.080424 
L 363.004193 148.23829 
L 366.501229 148.38882 
L 369.998266 148.532015 
L 373.495302 148.667875 
L 376.992338 148.7964 
L 380.489374 148.917589 
L 383.986411 149.031443 
L 387.483447 149.137961 
L 390.980483 149.237144 
L 394.477519 149.328992 
L 397.974556 149.413505 
L 401.471592 149.490682 
L 404.968628 149.560524 
L 408.465664 149.62303 
L 411.962701 149.678202 
L 415.459737 149.726038 
L 418.956773 149.766538 
L 422.453809 149.799703 
L 425.950846 149.825533 
L 429.447882 149.844028 
L 432.944918 149.855187 
" clip-path="url(#p5e5fa2bd8a)" style="fill: none; stroke: #800000; stroke-width: 1.5; stroke-linecap: square"/>
   </g>
   <g id="patch_3">
    <path d="M 69.428 174.04 
L 69.428 10.8 
" style="fill: none; stroke: #000000; stroke-width: 0.8; stroke-linejoin: miter; stroke-linecap: square"/>
   </g>
   <g id="patch_4">
    <path d="M 450.255247 174.04 
L 450.255247 10.8 
" style="fill: none; stroke: #000000; stroke-width: 0.8; stroke-linejoin: miter; stroke-linecap: square"/>
   </g>
   <g id="patch_5">
    <path d="M 69.428 174.04 
L 450.255247 174.04 
" style="fill: none; stroke: #000000; stroke-width: 0.8; stroke-linejoin: miter; stroke-linecap: square"/>
   </g>
   <g id="patch_6">
    <path d="M 69.428 10.8 
L 450.255247 10.8 
" style="fill: none; stroke: #000000; stroke-width: 0.8; stroke-linejoin: miter; stroke-linecap: square"/>
   </g>
   <g id="legend_1">
    <g id="patch_7">
     <path d="M 459.255247 162.878 
L 564.455247 162.878 
Q 566.455247 162.878 566.455247 160.878 
L 566.455247 88.385813 
Q 566.455247 86.385813 564.455247 86.385813 
L 459.255247 86.385813 
Q 457.255247 86.385813 457.255247 88.385813 
L 457.255247 160.878 
Q 457.255247 162.878 459.255247 162.878 
z
" style="fill: #4d4d4d; opacity: 0.5; stroke: #4d4d4d; stroke-linejoin: miter"/>
    </g>
    <g id="patch_8">
     <path d="M 457.255247 160.878 
L 562.455247 160.878 
Q 564.455247 160.878 564.455247 158.878 
L 564.455247 86.385813 
Q 564.455247 84.385813 562.455247 84.385813 
L 457.255247 84.385813 
Q 455.255247 84.385813 455.255247 86.385813 
L 455.255247 158.878 
Q 455.255247 160.878 457.255247 160.878 
z
" style="fill: #ffffff; stroke: #cccccc; stroke-linejoin: miter"/>
    </g>
    <g id="line2d_28">
     <path d="M 459.255247 92.48425 
L 469.255247 92.48425 
L 479.255247 92.48425 
" style="fill: none; stroke: #000080; stroke-width: 1.5; stroke-linecap: square"/>
    </g>
    <g id="text_14">
     <!-- $\delta_e = 0$, $J = 1.60$ -->
     <g transform="translate(487.255247 95.98425) scale(0.1 -0.1)">
      <defs>
       <path id="DejaVuSans-3d" d="M 678 2906 
L 4684 2906 
L 4684 2381 
L 678 2381 
L 678 2906 
z
M 678 1631 
L 4684 1631 
L 4684 1100 
L 678 1100 
L 678 1631 
z
" transform="scale(0.015625)"/>
       <path id="DejaVuSans-2c" d="M 750 794 
L 1409 794 
L 1409 256 
L 897 -744 
L 494 -744 
L 750 256 
L 750 794 
z
" transform="scale(0.015625)"/>
       <path id="DejaVuSans-Oblique-4a" d="M 1069 4666 
L 1703 4666 
L 856 325 
Q 691 -522 298 -901 
Q -94 -1281 -800 -1281 
L -1050 -1281 
L -947 -750 
L -750 -750 
Q -328 -750 -109 -509 
Q 109 -269 225 325 
L 1069 4666 
z
" transform="scale(0.015625)"/>
      </defs>
      <use xlink:href="#DejaVuSans-Oblique-3b4" transform="translate(0 0.78125)"/>
      <use xlink:href="#DejaVuSans-Oblique-65" transform="translate(61.181641 -15.625) scale(0.7)"/>
      <use xlink:href="#DejaVuSans-3d" transform="translate(126.464844 0.78125)"/>
      <use xlink:href="#DejaVuSans-30" transform="translate(229.736328 0.78125)"/>
      <use xlink:href="#DejaVuSans-2c" transform="translate(293.359375 0.78125)"/>
      <use xlink:href="#DejaVuSans-20" transform="translate(325.146484 0.78125)"/>
      <use xlink:href="#DejaVuSans-Oblique-4a" transform="translate(356.933594 0.78125)"/>
      <use xlink:href="#DejaVuSans-3d" transform="translate(405.908203 0.78125)"/>
      <use xlink:href="#DejaVuSans-31" transform="translate(509.179688 0.78125)"/>
      <use xlink:href="#DejaVuSans-2e" transform="translate(572.802734 0.78125)"/>
      <use xlink:href="#DejaVuSans-36" transform="translate(604.589844 0.78125)"/>
      <use xlink:href="#DejaVuSans-30" transform="translate(668.212891 0.78125)"/>
     </g>
    </g>
    <g id="line2d_29">
     <path d="M 459.255247 107.182688 
L 469.255247 107.182688 
L 479.255247 107.182688 
" style="fill: none; stroke: #0080ff; stroke-width: 1.5; stroke-linecap: square"/>
    </g>
    <g id="text_15">
     <!-- $\delta_e = 0$, $J = 1.80$ -->
     <g transform="translate(487.255247 110.682688) scale(0.1 -0.1)">
      <use xlink:href="#DejaVuSans-Oblique-3b4" transform="translate(0 0.78125)"/>
      <use xlink:href="#DejaVuSans-Oblique-65" transform="translate(61.181641 -15.625) scale(0.7)"/>
      <use xlink:href="#DejaVuSans-3d" transform="translate(126.464844 0.78125)"/>
      <use xlink:href="#DejaVuSans-30" transform="translate(229.736328 0.78125)"/>
      <use xlink:href="#DejaVuSans-2c" transform="translate(293.359375 0.78125)"/>
      <use xlink:href="#DejaVuSans-20" transform="translate(325.146484 0.78125)"/>
      <use xlink:href="#DejaVuSans-Oblique-4a" transform="translate(356.933594 0.78125)"/>
      <use xlink:href="#DejaVuSans-3d" transform="translate(405.908203 0.78125)"/>
      <use xlink:href="#DejaVuSans-31" transform="translate(509.179688 0.78125)"/>
      <use xlink:href="#DejaVuSans-2e" transform="translate(572.802734 0.78125)"/>
      <use xlink:href="#DejaVuSans-38" transform="translate(601.964844 0.78125)"/>
      <use xlink:href="#DejaVuSans-30" transform="translate(665.587891 0.78125)"/>
     </g>
    </g>
    <g id="line2d_30">
     <path d="M 459.255247 121.881125 
L 469.255247 121.881125 
L 479.255247 121.881125 
" style="fill: none; stroke: #7dff7a; stroke-width: 1.5; stroke-linecap: square"/>
    </g>
    <g id="text_16">
     <!-- $\delta_e = 0$, $J = 2.00$ -->
     <g transform="translate(487.255247 125.381125) scale(0.1 -0.1)">
      <use xlink:href="#DejaVuSans-Oblique-3b4" transform="translate(0 0.78125)"/>
      <use xlink:href="#DejaVuSans-Oblique-65" transform="translate(61.181641 -15.625) scale(0.7)"/>
      <use xlink:href="#DejaVuSans-3d" transform="translate(126.464844 0.78125)"/>
      <use xlink:href="#DejaVuSans-30" transform="translate(229.736328 0.78125)"/>
      <use xlink:href="#DejaVuSans-2c" transform="translate(293.359375 0.78125)"/>
      <use xlink:href="#DejaVuSans-20" transform="translate(325.146484 0.78125)"/>
      <use xlink:href="#DejaVuSans-Oblique-4a" transform="translate(356.933594 0.78125)"/>
      <use xlink:href="#DejaVuSans-3d" transform="translate(405.908203 0.78125)"/>
      <use xlink:href="#DejaVuSans-32" transform="translate(509.179688 0.78125)"/>
      <use xlink:href="#DejaVuSans-2e" transform="translate(572.802734 0.78125)"/>
      <use xlink:href="#DejaVuSans-30" transform="translate(604.589844 0.78125)"/>
      <use xlink:href="#DejaVuSans-30" transform="translate(668.212891 0.78125)"/>
     </g>
    </g>
    <g id="line2d_31">
     <path d="M 459.255247 136.579563 
L 469.255247 136.579563 
L 479.255247 136.579563 
" style="fill: none; stroke: #ff9400; stroke-width: 1.5; stroke-linecap: square"/>
    </g>
    <g id="text_17">
     <!-- $\delta_e = 0$, $J = 2.20$ -->
     <g transform="translate(487.255247 140.079563) scale(0.1 -0.1)">
      <use xlink:href="#DejaVuSans-Oblique-3b4" transform="translate(0 0.78125)"/>
      <use xlink:href="#DejaVuSans-Oblique-65" transform="translate(61.181641 -15.625) scale(0.7)"/>
      <use xlink:href="#DejaVuSans-3d" transform="translate(126.464844 0.78125)"/>
      <use xlink:href="#DejaVuSans-30" transform="translate(229.736328 0.78125)"/>
      <use xlink:href="#DejaVuSans-2c" transform="translate(293.359375 0.78125)"/>
      <use xlink:href="#DejaVuSans-20" transform="translate(325.146484 0.78125)"/>
      <use xlink:href="#DejaVuSans-Oblique-4a" transform="translate(356.933594 0.78125)"/>
      <use xlink:href="#DejaVuSans-3d" transform="translate(405.908203 0.78125)"/>
      <use xlink:href="#DejaVuSans-32" transform="translate(509.179688 0.78125)"/>
      <use xlink:href="#DejaVuSans-2e" transform="translate(572.802734 0.78125)"/>
      <use xlink:href="#DejaVuSans-32" transform="translate(599.089844 0.78125)"/>
      <use xlink:href="#DejaVuSans-30" transform="translate(662.712891 0.78125)"/>
     </g>
    </g>
    <g id="line2d_32">
     <path d="M 459.255247 151.278 
L 469.255247 151.278 
L 479.255247 151.278 
" style="fill: none; stroke: #800000; stroke-width: 1.5; stroke-linecap: square"/>
    </g>
    <g id="text_18">
     <!-- $\delta_e = 0$, $J = 2.40$ -->
     <g transform="translate(487.255247 154.778) scale(0.1 -0.1)">
      <use xlink:href="#DejaVuSans-Oblique-3b4" transform="translate(0 0.78125)"/>
      <use xlink:href="#DejaVuSans-Oblique-65" transform="translate(61.181641 -15.625) scale(0.7)"/>
      <use xlink:href="#DejaVuSans-3d" transform="translate(126.464844 0.78125)"/>
      <use xlink:href="#DejaVuSans-30" transform="translate(229.736328 0.78125)"/>
      <use xlink:href="#DejaVuSans-2c" transform="translate(293.359375 0.78125)"/>
      <use xlink:href="#DejaVuSans-20" transform="translate(325.146484 0.78125)"/>
      <use xlink:href="#DejaVuSans-Oblique-4a" transform="translate(356.933594 0.78125)"/>
      <use xlink:href="#DejaVuSans-3d" transform="translate(405.908203 0.78125)"/>
      <use xlink:href="#DejaVuSans-32" transform="translate(509.179688 0.78125)"/>
      <use xlink:href="#DejaVuSans-2e" transform="translate(572.802734 0.78125)"/>
      <use xlink:href="#DejaVuSans-34" transform="translate(604.589844 0.78125)"/>
      <use xlink:href="#DejaVuSans-30" transform="translate(668.212891 0.78125)"/>
     </g>
    </g>
   </g>
  </g>
 </g>
 <defs>
  <clipPath id="p5e5fa2bd8a">
   <rect x="69.428" y="10.8" width="380.827247" height="163.24"/>
  </clipPath>
 </defs>
</svg>
