<?xml version="1.0" encoding="utf-8" standalone="no"?>
<!DOCTYPE svg PUBLIC "-//W3C//DTD SVG 1.1//EN"
  "http://www.w3.org/Graphics/SVG/1.1/DTD/svg11.dtd">
<svg xmlns:xlink="http://www.w3.org/1999/xlink" width="432pt" height="216pt" viewBox="0 0 432 216" xmlns="http://www.w3.org/2000/svg" version="1.1">
 <metadata>
  <rdf:RDF xmlns:dc="http://purl.org/dc/elements/1.1/" xmlns:cc="http://creativecommons.org/ns#" xmlns:rdf="http://www.w3.org/1999/02/22-rdf-syntax-ns#">
   <cc:Work>
    <dc:type rdf:resource="http://purl.org/dc/dcmitype/StillImage"/>
    <dc:date>2025-03-28T12:22:07.296761</dc:date>
    <dc:format>image/svg+xml</dc:format>
    <dc:creator>
     <cc:Agent>
      <dc:title>Matplotlib v3.9.2, https://matplotlib.org/</dc:title>
     </cc:Agent>
    </dc:creator>
   </cc:Work>
  </rdf:RDF>
 </metadata>
 <defs>
  <style type="text/css">*{stroke-linejoin: round; stroke-linecap: butt}</style>
 </defs>
 <g id="figure_1">
  <g id="patch_1">
   <path d="M 0 216 
L 432 216 
L 432 0 
L 0 0 
z
" style="fill: #ffffff"/>
  </g>
  <g id="axes_1">
   <g id="patch_2">
    <path d="M 63.038 174.04 
L 306.255247 174.04 
L 306.255247 10.8 
L 63.038 10.8 
z
" style="fill: #ffffff"/>
   </g>
   <g id="matplotlib.axis_1">
    <g id="xtick_1">
     <g id="line2d_1">
      <path d="M 74.093329 174.04 
L 74.093329 10.8 
" clip-path="url(#p7f93bee7b3)" style="fill: none; stroke: #b0b0b0; stroke-width: 0.8; stroke-linecap: square"/>
     </g>
     <g id="line2d_2">
      <defs>
       <path id="md75980d2e7" d="M 0 0 
L 0 3.5 
" style="stroke: #000000; stroke-width: 0.8"/>
      </defs>
      <g>
       <use xlink:href="#md75980d2e7" x="74.093329" y="174.04" style="stroke: #000000; stroke-width: 0.8"/>
      </g>
     </g>
     <g id="text_1">
      <!-- −4 -->
      <g transform="translate(66.722236 188.638438) scale(0.1 -0.1)">
       <defs>
        <path id="DejaVuSans-2212" d="M 678 2272 
L 4684 2272 
L 4684 1741 
L 678 1741 
L 678 2272 
z
" transform="scale(0.015625)"/>
        <path id="DejaVuSans-34" d="M 2419 4116 
L 825 1625 
L 2419 1625 
L 2419 4116 
z
M 2253 4666 
L 3047 4666 
L 3047 1625 
L 3713 1625 
L 3713 1100 
L 3047 1100 
L 3047 0 
L 2419 0 
L 2419 1100 
L 313 1100 
L 313 1709 
L 2253 4666 
z
" transform="scale(0.015625)"/>
       </defs>
       <use xlink:href="#DejaVuSans-2212"/>
       <use xlink:href="#DejaVuSans-34" x="83.789062"/>
      </g>
     </g>
    </g>
    <g id="xtick_2">
     <g id="line2d_3">
      <path d="M 114.294527 174.04 
L 114.294527 10.8 
" clip-path="url(#p7f93bee7b3)" style="fill: none; stroke: #b0b0b0; stroke-width: 0.8; stroke-linecap: square"/>
     </g>
     <g id="line2d_4">
      <g>
       <use xlink:href="#md75980d2e7" x="114.294527" y="174.04" style="stroke: #000000; stroke-width: 0.8"/>
      </g>
     </g>
     <g id="text_2">
      <!-- −2 -->
      <g transform="translate(106.923434 188.638438) scale(0.1 -0.1)">
       <defs>
        <path id="DejaVuSans-32" d="M 1228 531 
L 3431 531 
L 3431 0 
L 469 0 
L 469 531 
Q 828 903 1448 1529 
Q 2069 2156 2228 2338 
Q 2531 2678 2651 2914 
Q 2772 3150 2772 3378 
Q 2772 3750 2511 3984 
Q 2250 4219 1831 4219 
Q 1534 4219 1204 4116 
Q 875 4013 500 3803 
L 500 4441 
Q 881 4594 1212 4672 
Q 1544 4750 1819 4750 
Q 2544 4750 2975 4387 
Q 3406 4025 3406 3419 
Q 3406 3131 3298 2873 
Q 3191 2616 2906 2266 
Q 2828 2175 2409 1742 
Q 1991 1309 1228 531 
z
" transform="scale(0.015625)"/>
       </defs>
       <use xlink:href="#DejaVuSans-2212"/>
       <use xlink:href="#DejaVuSans-32" x="83.789062"/>
      </g>
     </g>
    </g>
    <g id="xtick_3">
     <g id="line2d_5">
      <path d="M 154.495725 174.04 
L 154.495725 10.8 
" clip-path="url(#p7f93bee7b3)" style="fill: none; stroke: #b0b0b0; stroke-width: 0.8; stroke-linecap: square"/>
     </g>
     <g id="line2d_6">
      <g>
       <use xlink:href="#md75980d2e7" x="154.495725" y="174.04" style="stroke: #000000; stroke-width: 0.8"/>
      </g>
     </g>
     <g id="text_3">
      <!-- 0 -->
      <g transform="translate(151.314475 188.638438) scale(0.1 -0.1)">
       <defs>
        <path id="DejaVuSans-30" d="M 2034 4250 
Q 1547 4250 1301 3770 
Q 1056 3291 1056 2328 
Q 1056 1369 1301 889 
Q 1547 409 2034 409 
Q 2525 409 2770 889 
Q 3016 1369 3016 2328 
Q 3016 3291 2770 3770 
Q 2525 4250 2034 4250 
z
M 2034 4750 
Q 2819 4750 3233 4129 
Q 3647 3509 3647 2328 
Q 3647 1150 3233 529 
Q 2819 -91 2034 -91 
Q 1250 -91 836 529 
Q 422 1150 422 2328 
Q 422 3509 836 4129 
Q 1250 4750 2034 4750 
z
" transform="scale(0.015625)"/>
       </defs>
       <use xlink:href="#DejaVuSans-30"/>
      </g>
     </g>
    </g>
    <g id="xtick_4">
     <g id="line2d_7">
      <path d="M 194.696923 174.04 
L 194.696923 10.8 
" clip-path="url(#p7f93bee7b3)" style="fill: none; stroke: #b0b0b0; stroke-width: 0.8; stroke-linecap: square"/>
     </g>
     <g id="line2d_8">
      <g>
       <use xlink:href="#md75980d2e7" x="194.696923" y="174.04" style="stroke: #000000; stroke-width: 0.8"/>
      </g>
     </g>
     <g id="text_4">
      <!-- 2 -->
      <g transform="translate(191.515673 188.638438) scale(0.1 -0.1)">
       <use xlink:href="#DejaVuSans-32"/>
      </g>
     </g>
    </g>
    <g id="xtick_5">
     <g id="line2d_9">
      <path d="M 234.898121 174.04 
L 234.898121 10.8 
" clip-path="url(#p7f93bee7b3)" style="fill: none; stroke: #b0b0b0; stroke-width: 0.8; stroke-linecap: square"/>
     </g>
     <g id="line2d_10">
      <g>
       <use xlink:href="#md75980d2e7" x="234.898121" y="174.04" style="stroke: #000000; stroke-width: 0.8"/>
      </g>
     </g>
     <g id="text_5">
      <!-- 4 -->
      <g transform="translate(231.716871 188.638438) scale(0.1 -0.1)">
       <use xlink:href="#DejaVuSans-34"/>
      </g>
     </g>
    </g>
    <g id="xtick_6">
     <g id="line2d_11">
      <path d="M 275.099319 174.04 
L 275.099319 10.8 
" clip-path="url(#p7f93bee7b3)" style="fill: none; stroke: #b0b0b0; stroke-width: 0.8; stroke-linecap: square"/>
     </g>
     <g id="line2d_12">
      <g>
       <use xlink:href="#md75980d2e7" x="275.099319" y="174.04" style="stroke: #000000; stroke-width: 0.8"/>
      </g>
     </g>
     <g id="text_6">
      <!-- 6 -->
      <g transform="translate(271.918069 188.638438) scale(0.1 -0.1)">
       <defs>
        <path id="DejaVuSans-36" d="M 2113 2584 
Q 1688 2584 1439 2293 
Q 1191 2003 1191 1497 
Q 1191 994 1439 701 
Q 1688 409 2113 409 
Q 2538 409 2786 701 
Q 3034 994 3034 1497 
Q 3034 2003 2786 2293 
Q 2538 2584 2113 2584 
z
M 3366 4563 
L 3366 3988 
Q 3128 4100 2886 4159 
Q 2644 4219 2406 4219 
Q 1781 4219 1451 3797 
Q 1122 3375 1075 2522 
Q 1259 2794 1537 2939 
Q 1816 3084 2150 3084 
Q 2853 3084 3261 2657 
Q 3669 2231 3669 1497 
Q 3669 778 3244 343 
Q 2819 -91 2113 -91 
Q 1303 -91 875 529 
Q 447 1150 447 2328 
Q 447 3434 972 4092 
Q 1497 4750 2381 4750 
Q 2619 4750 2861 4703 
Q 3103 4656 3366 4563 
z
" transform="scale(0.015625)"/>
       </defs>
       <use xlink:href="#DejaVuSans-36"/>
      </g>
     </g>
    </g>
    <g id="text_7">
     <!-- $\alpha$ -->
     <g transform="translate(181.346624 202.316563) scale(0.1 -0.1)">
      <defs>
       <path id="DejaVuSans-Oblique-3b1" d="M 2619 1628 
L 2622 2350 
Q 2625 3088 2069 3091 
Q 1653 3094 1394 2747 
Q 1069 2319 959 1747 
Q 825 1059 994 731 
Q 1169 397 1547 397 
Q 1966 397 2319 1063 
L 2619 1628 
z
M 2166 3578 
Q 3141 3594 3128 2584 
Q 3128 2584 3616 3500 
L 4128 3500 
L 3119 1603 
L 3109 919 
Q 3109 766 3194 638 
Q 3291 488 3391 488 
L 3669 488 
L 3575 0 
L 3228 0 
Q 2934 0 2722 263 
Q 2622 394 2619 669 
Q 2416 334 2066 50 
Q 1900 -81 1453 -78 
Q 722 -72 456 397 
Q 184 884 353 1747 
Q 534 2675 1009 3097 
Q 1544 3569 2166 3578 
z
" transform="scale(0.015625)"/>
      </defs>
      <use xlink:href="#DejaVuSans-Oblique-3b1" transform="translate(0 0.84375)"/>
     </g>
    </g>
   </g>
   <g id="matplotlib.axis_2">
    <g id="ytick_1">
     <g id="line2d_13">
      <path d="M 63.038 159.691673 
L 306.255247 159.691673 
" clip-path="url(#p7f93bee7b3)" style="fill: none; stroke: #b0b0b0; stroke-width: 0.8; stroke-linecap: square"/>
     </g>
     <g id="line2d_14">
      <defs>
       <path id="m9aab51737a" d="M 0 0 
L -3.5 0 
" style="stroke: #000000; stroke-width: 0.8"/>
      </defs>
      <g>
       <use xlink:href="#m9aab51737a" x="63.038" y="159.691673" style="stroke: #000000; stroke-width: 0.8"/>
      </g>
     </g>
     <g id="text_8">
      <!-- 0.090 -->
      <g transform="translate(27.409875 163.490892) scale(0.1 -0.1)">
       <defs>
        <path id="DejaVuSans-2e" d="M 684 794 
L 1344 794 
L 1344 0 
L 684 0 
L 684 794 
z
" transform="scale(0.015625)"/>
        <path id="DejaVuSans-39" d="M 703 97 
L 703 672 
Q 941 559 1184 500 
Q 1428 441 1663 441 
Q 2288 441 2617 861 
Q 2947 1281 2994 2138 
Q 2813 1869 2534 1725 
Q 2256 1581 1919 1581 
Q 1219 1581 811 2004 
Q 403 2428 403 3163 
Q 403 3881 828 4315 
Q 1253 4750 1959 4750 
Q 2769 4750 3195 4129 
Q 3622 3509 3622 2328 
Q 3622 1225 3098 567 
Q 2575 -91 1691 -91 
Q 1453 -91 1209 -44 
Q 966 3 703 97 
z
M 1959 2075 
Q 2384 2075 2632 2365 
Q 2881 2656 2881 3163 
Q 2881 3666 2632 3958 
Q 2384 4250 1959 4250 
Q 1534 4250 1286 3958 
Q 1038 3666 1038 3163 
Q 1038 2656 1286 2365 
Q 1534 2075 1959 2075 
z
" transform="scale(0.015625)"/>
       </defs>
       <use xlink:href="#DejaVuSans-30"/>
       <use xlink:href="#DejaVuSans-2e" x="63.623047"/>
       <use xlink:href="#DejaVuSans-30" x="95.410156"/>
       <use xlink:href="#DejaVuSans-39" x="159.033203"/>
       <use xlink:href="#DejaVuSans-30" x="222.65625"/>
      </g>
     </g>
    </g>
    <g id="ytick_2">
     <g id="line2d_15">
      <path d="M 63.038 136.651386 
L 306.255247 136.651386 
" clip-path="url(#p7f93bee7b3)" style="fill: none; stroke: #b0b0b0; stroke-width: 0.8; stroke-linecap: square"/>
     </g>
     <g id="line2d_16">
      <g>
       <use xlink:href="#m9aab51737a" x="63.038" y="136.651386" style="stroke: #000000; stroke-width: 0.8"/>
      </g>
     </g>
     <g id="text_9">
      <!-- 0.095 -->
      <g transform="translate(27.409875 140.450605) scale(0.1 -0.1)">
       <defs>
        <path id="DejaVuSans-35" d="M 691 4666 
L 3169 4666 
L 3169 4134 
L 1269 4134 
L 1269 2991 
Q 1406 3038 1543 3061 
Q 1681 3084 1819 3084 
Q 2600 3084 3056 2656 
Q 3513 2228 3513 1497 
Q 3513 744 3044 326 
Q 2575 -91 1722 -91 
Q 1428 -91 1123 -41 
Q 819 9 494 109 
L 494 744 
Q 775 591 1075 516 
Q 1375 441 1709 441 
Q 2250 441 2565 725 
Q 2881 1009 2881 1497 
Q 2881 1984 2565 2268 
Q 2250 2553 1709 2553 
Q 1456 2553 1204 2497 
Q 953 2441 691 2322 
L 691 4666 
z
" transform="scale(0.015625)"/>
       </defs>
       <use xlink:href="#DejaVuSans-30"/>
       <use xlink:href="#DejaVuSans-2e" x="63.623047"/>
       <use xlink:href="#DejaVuSans-30" x="95.410156"/>
       <use xlink:href="#DejaVuSans-39" x="159.033203"/>
       <use xlink:href="#DejaVuSans-35" x="222.65625"/>
      </g>
     </g>
    </g>
    <g id="ytick_3">
     <g id="line2d_17">
      <path d="M 63.038 113.611099 
L 306.255247 113.611099 
" clip-path="url(#p7f93bee7b3)" style="fill: none; stroke: #b0b0b0; stroke-width: 0.8; stroke-linecap: square"/>
     </g>
     <g id="line2d_18">
      <g>
       <use xlink:href="#m9aab51737a" x="63.038" y="113.611099" style="stroke: #000000; stroke-width: 0.8"/>
      </g>
     </g>
     <g id="text_10">
      <!-- 0.100 -->
      <g transform="translate(27.409875 117.410317) scale(0.1 -0.1)">
       <defs>
        <path id="DejaVuSans-31" d="M 794 531 
L 1825 531 
L 1825 4091 
L 703 3866 
L 703 4441 
L 1819 4666 
L 2450 4666 
L 2450 531 
L 3481 531 
L 3481 0 
L 794 0 
L 794 531 
z
" transform="scale(0.015625)"/>
       </defs>
       <use xlink:href="#DejaVuSans-30"/>
       <use xlink:href="#DejaVuSans-2e" x="63.623047"/>
       <use xlink:href="#DejaVuSans-31" x="95.410156"/>
       <use xlink:href="#DejaVuSans-30" x="159.033203"/>
       <use xlink:href="#DejaVuSans-30" x="222.65625"/>
      </g>
     </g>
    </g>
    <g id="ytick_4">
     <g id="line2d_19">
      <path d="M 63.038 90.570811 
L 306.255247 90.570811 
" clip-path="url(#p7f93bee7b3)" style="fill: none; stroke: #b0b0b0; stroke-width: 0.8; stroke-linecap: square"/>
     </g>
     <g id="line2d_20">
      <g>
       <use xlink:href="#m9aab51737a" x="63.038" y="90.570811" style="stroke: #000000; stroke-width: 0.8"/>
      </g>
     </g>
     <g id="text_11">
      <!-- 0.105 -->
      <g transform="translate(27.409875 94.37003) scale(0.1 -0.1)">
       <use xlink:href="#DejaVuSans-30"/>
       <use xlink:href="#DejaVuSans-2e" x="63.623047"/>
       <use xlink:href="#DejaVuSans-31" x="95.410156"/>
       <use xlink:href="#DejaVuSans-30" x="159.033203"/>
       <use xlink:href="#DejaVuSans-35" x="222.65625"/>
      </g>
     </g>
    </g>
    <g id="ytick_5">
     <g id="line2d_21">
      <path d="M 63.038 67.530524 
L 306.255247 67.530524 
" clip-path="url(#p7f93bee7b3)" style="fill: none; stroke: #b0b0b0; stroke-width: 0.8; stroke-linecap: square"/>
     </g>
     <g id="line2d_22">
      <g>
       <use xlink:href="#m9aab51737a" x="63.038" y="67.530524" style="stroke: #000000; stroke-width: 0.8"/>
      </g>
     </g>
     <g id="text_12">
      <!-- 0.110 -->
      <g transform="translate(27.409875 71.329743) scale(0.1 -0.1)">
       <use xlink:href="#DejaVuSans-30"/>
       <use xlink:href="#DejaVuSans-2e" x="63.623047"/>
       <use xlink:href="#DejaVuSans-31" x="95.410156"/>
       <use xlink:href="#DejaVuSans-31" x="159.033203"/>
       <use xlink:href="#DejaVuSans-30" x="222.65625"/>
      </g>
     </g>
    </g>
    <g id="ytick_6">
     <g id="line2d_23">
      <path d="M 63.038 44.490237 
L 306.255247 44.490237 
" clip-path="url(#p7f93bee7b3)" style="fill: none; stroke: #b0b0b0; stroke-width: 0.8; stroke-linecap: square"/>
     </g>
     <g id="line2d_24">
      <g>
       <use xlink:href="#m9aab51737a" x="63.038" y="44.490237" style="stroke: #000000; stroke-width: 0.8"/>
      </g>
     </g>
     <g id="text_13">
      <!-- 0.115 -->
      <g transform="translate(27.409875 48.289456) scale(0.1 -0.1)">
       <use xlink:href="#DejaVuSans-30"/>
       <use xlink:href="#DejaVuSans-2e" x="63.623047"/>
       <use xlink:href="#DejaVuSans-31" x="95.410156"/>
       <use xlink:href="#DejaVuSans-31" x="159.033203"/>
       <use xlink:href="#DejaVuSans-35" x="222.65625"/>
      </g>
     </g>
    </g>
    <g id="ytick_7">
     <g id="line2d_25">
      <path d="M 63.038 21.44995 
L 306.255247 21.44995 
" clip-path="url(#p7f93bee7b3)" style="fill: none; stroke: #b0b0b0; stroke-width: 0.8; stroke-linecap: square"/>
     </g>
     <g id="line2d_26">
      <g>
       <use xlink:href="#m9aab51737a" x="63.038" y="21.44995" style="stroke: #000000; stroke-width: 0.8"/>
      </g>
     </g>
     <g id="text_14">
      <!-- 0.120 -->
      <g transform="translate(27.409875 25.249169) scale(0.1 -0.1)">
       <use xlink:href="#DejaVuSans-30"/>
       <use xlink:href="#DejaVuSans-2e" x="63.623047"/>
       <use xlink:href="#DejaVuSans-31" x="95.410156"/>
       <use xlink:href="#DejaVuSans-32" x="159.033203"/>
       <use xlink:href="#DejaVuSans-30" x="222.65625"/>
      </g>
     </g>
    </g>
    <g id="text_15">
     <!-- d$C_L$ / d$\alpha$ -->
     <g transform="translate(21.330188 112.52) rotate(-90) scale(0.1 -0.1)">
      <defs>
       <path id="DejaVuSans-64" d="M 2906 2969 
L 2906 4863 
L 3481 4863 
L 3481 0 
L 2906 0 
L 2906 525 
Q 2725 213 2448 61 
Q 2172 -91 1784 -91 
Q 1150 -91 751 415 
Q 353 922 353 1747 
Q 353 2572 751 3078 
Q 1150 3584 1784 3584 
Q 2172 3584 2448 3432 
Q 2725 3281 2906 2969 
z
M 947 1747 
Q 947 1113 1208 752 
Q 1469 391 1925 391 
Q 2381 391 2643 752 
Q 2906 1113 2906 1747 
Q 2906 2381 2643 2742 
Q 2381 3103 1925 3103 
Q 1469 3103 1208 2742 
Q 947 2381 947 1747 
z
" transform="scale(0.015625)"/>
       <path id="DejaVuSans-Oblique-43" d="M 4447 4306 
L 4319 3641 
Q 4019 3944 3683 4091 
Q 3347 4238 2956 4238 
Q 2422 4238 2017 3981 
Q 1613 3725 1319 3200 
Q 1131 2863 1032 2486 
Q 934 2109 934 1728 
Q 934 1091 1264 756 
Q 1594 422 2222 422 
Q 2656 422 3056 561 
Q 3456 700 3834 978 
L 3688 231 
Q 3316 72 2936 -9 
Q 2556 -91 2175 -91 
Q 1278 -91 773 396 
Q 269 884 269 1753 
Q 269 2309 461 2846 
Q 653 3384 1013 3828 
Q 1394 4300 1883 4525 
Q 2372 4750 3022 4750 
Q 3422 4750 3780 4639 
Q 4138 4528 4447 4306 
z
" transform="scale(0.015625)"/>
       <path id="DejaVuSans-Oblique-4c" d="M 1075 4666 
L 1709 4666 
L 909 525 
L 3181 525 
L 3078 0 
L 172 0 
L 1075 4666 
z
" transform="scale(0.015625)"/>
       <path id="DejaVuSans-20" transform="scale(0.015625)"/>
       <path id="DejaVuSans-2f" d="M 1625 4666 
L 2156 4666 
L 531 -594 
L 0 -594 
L 1625 4666 
z
" transform="scale(0.015625)"/>
      </defs>
      <use xlink:href="#DejaVuSans-64" transform="translate(0 0.015625)"/>
      <use xlink:href="#DejaVuSans-Oblique-43" transform="translate(63.476562 0.015625)"/>
      <use xlink:href="#DejaVuSans-Oblique-4c" transform="translate(133.300781 -16.390625) scale(0.7)"/>
      <use xlink:href="#DejaVuSans-20" transform="translate(175.03418 0.015625)"/>
      <use xlink:href="#DejaVuSans-2f" transform="translate(206.821289 0.015625)"/>
      <use xlink:href="#DejaVuSans-20" transform="translate(240.512695 0.015625)"/>
      <use xlink:href="#DejaVuSans-64" transform="translate(272.299805 0.015625)"/>
      <use xlink:href="#DejaVuSans-Oblique-3b1" transform="translate(335.776367 0.015625)"/>
     </g>
    </g>
   </g>
   <g id="line2d_27">
    <path d="M 74.093329 19.628979 
L 76.326729 19.32733 
L 78.560129 19.061955 
L 80.793529 18.832854 
L 83.026929 18.640027 
L 85.260329 18.483473 
L 87.493729 18.363194 
L 89.727129 18.279189 
L 91.960529 18.231457 
L 94.193928 18.22 
L 96.427328 18.244817 
L 98.660728 18.305907 
L 100.894128 18.403271 
L 103.127528 18.53691 
L 105.360928 18.706822 
L 107.594328 18.913008 
L 109.827728 19.155468 
L 112.061127 19.434203 
L 114.294527 19.749211 
L 116.527927 20.100493 
L 118.761327 20.488049 
L 120.994727 20.911878 
L 123.228127 21.371982 
L 125.461527 21.86836 
L 127.694927 22.401012 
L 129.928327 22.969937 
L 132.161726 23.575137 
L 134.395126 24.216611 
L 136.628526 24.894358 
L 138.861926 25.60838 
L 141.095326 26.358675 
L 143.328726 27.145244 
L 145.562126 27.968088 
L 147.795526 28.827205 
L 150.028926 29.722596 
L 152.262325 30.654261 
L 154.495725 31.6222 
L 156.729125 32.626413 
L 158.962525 33.6669 
L 161.195925 34.743661 
L 163.429325 35.856696 
L 165.662725 37.006005 
L 167.896125 38.191587 
L 170.129524 39.413444 
L 172.362924 40.671574 
L 174.596324 41.965979 
L 176.829724 43.296658 
L 179.063124 44.66361 
L 181.296524 46.066836 
L 183.529924 47.506337 
L 185.763324 48.982111 
L 187.996724 50.494159 
L 190.230123 52.042481 
L 192.463523 53.627077 
L 194.696923 55.247947 
L 196.930323 56.905091 
L 199.163723 58.598509 
L 201.397123 60.328201 
L 203.630523 62.094167 
L 205.863923 63.896407 
L 208.097323 65.73492 
L 210.330722 67.609708 
L 212.564122 69.52077 
L 214.797522 71.468105 
L 217.030922 73.451715 
L 219.264322 75.471598 
L 221.497722 77.527755 
L 223.731122 79.620187 
L 225.964522 81.748892 
L 228.197921 83.913871 
L 230.431321 86.115124 
L 232.664721 88.352651 
L 234.898121 90.626452 
L 237.131521 92.936527 
L 239.364921 95.282876 
L 241.598321 97.665499 
L 243.831721 100.084396 
L 246.065121 102.539567 
L 248.29852 105.031011 
L 250.53192 107.55873 
L 252.76532 110.122723 
L 254.99872 112.722989 
L 257.23212 115.35953 
L 259.46552 118.032344 
L 261.69892 120.741432 
L 263.93232 123.486795 
L 266.16572 126.268431 
L 268.399119 129.086341 
L 270.632519 131.940525 
L 272.865919 134.830983 
L 275.099319 137.757715 
L 277.332719 140.720721 
L 279.566119 143.720001 
L 281.799519 146.755555 
L 284.032919 149.827383 
L 286.266318 152.935484 
L 288.499718 156.07986 
L 290.733118 159.26051 
L 292.966518 162.477433 
L 295.199918 165.730631 
" clip-path="url(#p7f93bee7b3)" style="fill: none; stroke: #000080; stroke-width: 1.5; stroke-linecap: square"/>
   </g>
   <g id="line2d_28">
    <path d="M 74.093329 33.282517 
L 76.326729 32.840519 
L 78.560129 32.434795 
L 80.793529 32.065345 
L 83.026929 31.732169 
L 85.260329 31.435267 
L 87.493729 31.174638 
L 89.727129 30.950284 
L 91.960529 30.762203 
L 94.193928 30.610397 
L 96.427328 30.494864 
L 98.660728 30.415606 
L 100.894128 30.372621 
L 103.127528 30.36591 
L 105.360928 30.395473 
L 107.594328 30.46131 
L 109.827728 30.563422 
L 112.061127 30.701807 
L 114.294527 30.876466 
L 116.527927 31.087398 
L 118.761327 31.334605 
L 120.994727 31.618086 
L 123.228127 31.937841 
L 125.461527 32.29387 
L 127.694927 32.686172 
L 129.928327 33.114749 
L 132.161726 33.579599 
L 134.395126 34.080724 
L 136.628526 34.618122 
L 138.861926 35.191795 
L 141.095326 35.801741 
L 143.328726 36.447961 
L 145.562126 37.130455 
L 147.795526 37.849223 
L 150.028926 38.604265 
L 152.262325 39.395581 
L 154.495725 40.223171 
L 156.729125 41.087035 
L 158.962525 41.987173 
L 161.195925 42.923585 
L 163.429325 43.896271 
L 165.662725 44.90523 
L 167.896125 45.950464 
L 170.129524 47.031972 
L 172.362924 48.149753 
L 174.596324 49.303809 
L 176.829724 50.494138 
L 179.063124 51.720741 
L 181.296524 52.983619 
L 183.529924 54.28277 
L 185.763324 55.618195 
L 187.996724 56.989894 
L 190.230123 58.397867 
L 192.463523 59.842114 
L 194.696923 61.322635 
L 196.930323 62.83943 
L 199.163723 64.392499 
L 201.397123 65.981842 
L 203.630523 67.607458 
L 205.863923 69.269349 
L 208.097323 70.967513 
L 210.330722 72.701952 
L 212.564122 74.472665 
L 214.797522 76.279651 
L 217.030922 78.122911 
L 219.264322 80.002446 
L 221.497722 81.918254 
L 223.731122 83.870336 
L 225.964522 85.858692 
L 228.197921 87.883322 
L 230.431321 89.944226 
L 232.664721 92.041404 
L 234.898121 94.174856 
L 237.131521 96.344582 
L 239.364921 98.550582 
L 241.598321 100.792856 
L 243.831721 103.071404 
L 246.065121 105.386225 
L 248.29852 107.737321 
L 250.53192 110.12469 
L 252.76532 112.548334 
L 254.99872 115.008251 
L 257.23212 117.504443 
L 259.46552 120.036908 
L 261.69892 122.605647 
L 263.93232 125.21066 
L 266.16572 127.851947 
L 268.399119 130.529509 
L 270.632519 133.243344 
L 272.865919 135.993453 
L 275.099319 138.779835 
L 277.332719 141.602492 
L 279.566119 144.461423 
L 281.799519 147.356628 
L 284.032919 150.288107 
L 286.266318 153.255859 
L 288.499718 156.259886 
L 290.733118 159.300186 
L 292.966518 162.376761 
L 295.199918 165.489609 
" clip-path="url(#p7f93bee7b3)" style="fill: none; stroke: #0080ff; stroke-width: 1.5; stroke-linecap: square"/>
   </g>
   <g id="line2d_29">
    <path d="M 74.093329 42.506743 
L 76.326729 41.972257 
L 78.560129 41.474045 
L 80.793529 41.012106 
L 83.026929 40.586442 
L 85.260329 40.197051 
L 87.493729 39.843934 
L 89.727129 39.527092 
L 91.960529 39.246523 
L 94.193928 39.002228 
L 96.427328 38.794207 
L 98.660728 38.62246 
L 100.894128 38.486988 
L 103.127528 38.387789 
L 105.360928 38.324863 
L 107.594328 38.298212 
L 109.827728 38.307835 
L 112.061127 38.353732 
L 114.294527 38.435903 
L 116.527927 38.554347 
L 118.761327 38.709066 
L 120.994727 38.900058 
L 123.228127 39.127325 
L 125.461527 39.390865 
L 127.694927 39.69068 
L 129.928327 40.026768 
L 132.161726 40.39913 
L 134.395126 40.807766 
L 136.628526 41.252677 
L 138.861926 41.733861 
L 141.095326 42.251319 
L 143.328726 42.805051 
L 145.562126 43.395057 
L 147.795526 44.021336 
L 150.028926 44.68389 
L 152.262325 45.382718 
L 154.495725 46.11782 
L 156.729125 46.889195 
L 158.962525 47.696845 
L 161.195925 48.540768 
L 163.429325 49.420966 
L 165.662725 50.337437 
L 167.896125 51.290183 
L 170.129524 52.279202 
L 172.362924 53.304495 
L 174.596324 54.366062 
L 176.829724 55.463904 
L 179.063124 56.598019 
L 181.296524 57.768408 
L 183.529924 58.975071 
L 185.763324 60.218008 
L 187.996724 61.497218 
L 190.230123 62.812703 
L 192.463523 64.164462 
L 194.696923 65.552495 
L 196.930323 66.976801 
L 199.163723 68.437382 
L 201.397123 69.934236 
L 203.630523 71.467365 
L 205.863923 73.036767 
L 208.097323 74.642443 
L 210.330722 76.284394 
L 212.564122 77.962618 
L 214.797522 79.677116 
L 217.030922 81.427888 
L 219.264322 83.214934 
L 221.497722 85.038254 
L 223.731122 86.897848 
L 225.964522 88.793716 
L 228.197921 90.725858 
L 230.431321 92.694274 
L 232.664721 94.698964 
L 234.898121 96.739927 
L 237.131521 98.817165 
L 239.364921 100.930676 
L 241.598321 103.080462 
L 243.831721 105.266521 
L 246.065121 107.488855 
L 248.29852 109.747462 
L 250.53192 112.042343 
L 252.76532 114.373498 
L 254.99872 116.740928 
L 257.23212 119.144631 
L 259.46552 121.584608 
L 261.69892 124.060859 
L 263.93232 126.573384 
L 266.16572 129.122183 
L 268.399119 131.707255 
L 270.632519 134.328602 
L 272.865919 136.986223 
L 275.099319 139.680118 
L 277.332719 142.410286 
L 279.566119 145.176729 
L 281.799519 147.979445 
L 284.032919 150.818436 
L 286.266318 153.6937 
L 288.499718 156.605238 
L 290.733118 159.553051 
L 292.966518 162.537137 
L 295.199918 165.557497 
" clip-path="url(#p7f93bee7b3)" style="fill: none; stroke: #7dff7a; stroke-width: 1.5; stroke-linecap: square"/>
   </g>
   <g id="line2d_30">
    <path d="M 74.093329 47.301656 
L 76.326729 46.722542 
L 78.560129 46.179703 
L 80.793529 45.673137 
L 83.026929 45.202845 
L 85.260329 44.768827 
L 87.493729 44.371083 
L 89.727129 44.009613 
L 91.960529 43.684416 
L 94.193928 43.395494 
L 96.427328 43.142846 
L 98.660728 42.926472 
L 100.894128 42.746371 
L 103.127528 42.602545 
L 105.360928 42.494992 
L 107.594328 42.423714 
L 109.827728 42.388709 
L 112.061127 42.389978 
L 114.294527 42.427522 
L 116.527927 42.501339 
L 118.761327 42.61143 
L 120.994727 42.757795 
L 123.228127 42.940434 
L 125.461527 43.159347 
L 127.694927 43.414534 
L 129.928327 43.705995 
L 132.161726 44.03373 
L 134.395126 44.397739 
L 136.628526 44.798021 
L 138.861926 45.234578 
L 141.095326 45.707409 
L 143.328726 46.216513 
L 145.562126 46.761892 
L 147.795526 47.343544 
L 150.028926 47.96147 
L 152.262325 48.615671 
L 154.495725 49.306145 
L 156.729125 50.032893 
L 158.962525 50.795915 
L 161.195925 51.595211 
L 163.429325 52.430781 
L 165.662725 53.302625 
L 167.896125 54.210743 
L 170.129524 55.155135 
L 172.362924 56.135801 
L 174.596324 57.152741 
L 176.829724 58.205954 
L 179.063124 59.295442 
L 181.296524 60.421204 
L 183.529924 61.583239 
L 185.763324 62.781549 
L 187.996724 64.016132 
L 190.230123 65.286989 
L 192.463523 66.594121 
L 194.696923 67.937526 
L 196.930323 69.317205 
L 199.163723 70.733158 
L 201.397123 72.185385 
L 203.630523 73.673886 
L 205.863923 75.198661 
L 208.097323 76.75971 
L 210.330722 78.357033 
L 212.564122 79.99063 
L 214.797522 81.660501 
L 217.030922 83.366645 
L 219.264322 85.109064 
L 221.497722 86.887757 
L 223.731122 88.702723 
L 225.964522 90.553964 
L 228.197921 92.441478 
L 230.431321 94.365266 
L 232.664721 96.325329 
L 234.898121 98.321665 
L 237.131521 100.354275 
L 239.364921 102.423159 
L 241.598321 104.528317 
L 243.831721 106.669749 
L 246.065121 108.847455 
L 248.29852 111.061435 
L 250.53192 113.311689 
L 252.76532 115.598217 
L 254.99872 117.921018 
L 257.23212 120.280094 
L 259.46552 122.675444 
L 261.69892 125.107067 
L 263.93232 127.574965 
L 266.16572 130.079136 
L 268.399119 132.619582 
L 270.632519 135.196301 
L 272.865919 137.809294 
L 275.099319 140.458561 
L 277.332719 143.144103 
L 279.566119 145.865918 
L 281.799519 148.624007 
L 284.032919 151.41837 
L 286.266318 154.249007 
L 288.499718 157.115918 
L 290.733118 160.019102 
L 292.966518 162.958561 
L 295.199918 165.934294 
" clip-path="url(#p7f93bee7b3)" style="fill: none; stroke: #ff9400; stroke-width: 1.5; stroke-linecap: square"/>
   </g>
   <g id="line2d_31">
    <path d="M 74.093329 47.667256 
L 76.326729 47.091376 
L 78.560129 46.551769 
L 80.793529 46.048437 
L 83.026929 45.581378 
L 85.260329 45.150594 
L 87.493729 44.756083 
L 89.727129 44.397846 
L 91.960529 44.075884 
L 94.193928 43.790195 
L 96.427328 43.54078 
L 98.660728 43.327639 
L 100.894128 43.150772 
L 103.127528 43.010179 
L 105.360928 42.90586 
L 107.594328 42.837815 
L 109.827728 42.806043 
L 112.061127 42.810546 
L 114.294527 42.851323 
L 116.527927 42.928373 
L 118.761327 43.041698 
L 120.994727 43.191296 
L 123.228127 43.377169 
L 125.461527 43.599315 
L 127.694927 43.857736 
L 129.928327 44.15243 
L 132.161726 44.483398 
L 134.395126 44.85064 
L 136.628526 45.254156 
L 138.861926 45.693946 
L 141.095326 46.17001 
L 143.328726 46.682348 
L 145.562126 47.23096 
L 147.795526 47.815846 
L 150.028926 48.437006 
L 152.262325 49.09444 
L 154.495725 49.788147 
L 156.729125 50.518129 
L 158.962525 51.284384 
L 161.195925 52.086914 
L 163.429325 52.925717 
L 165.662725 53.800795 
L 167.896125 54.712146 
L 170.129524 55.659771 
L 172.362924 56.64367 
L 174.596324 57.663844 
L 176.829724 58.720291 
L 179.063124 59.813012 
L 181.296524 60.942007 
L 183.529924 62.107276 
L 185.763324 63.308819 
L 187.996724 64.546635 
L 190.230123 65.820726 
L 192.463523 67.131091 
L 194.696923 68.477729 
L 196.930323 69.860642 
L 199.163723 71.279829 
L 201.397123 72.735289 
L 203.630523 74.227023 
L 205.863923 75.755032 
L 208.097323 77.319314 
L 210.330722 78.91987 
L 212.564122 80.556701 
L 214.797522 82.229805 
L 217.030922 83.939183 
L 219.264322 85.684835 
L 221.497722 87.466761 
L 223.731122 89.284961 
L 225.964522 91.139434 
L 228.197921 93.030182 
L 230.431321 94.957204 
L 232.664721 96.9205 
L 234.898121 98.920069 
L 237.131521 100.955913 
L 239.364921 103.02803 
L 241.598321 105.136422 
L 243.831721 107.281087 
L 246.065121 109.462027 
L 248.29852 111.67924 
L 250.53192 113.932727 
L 252.76532 116.222488 
L 254.99872 118.548523 
L 257.23212 120.910833 
L 259.46552 123.309416 
L 261.69892 125.744272 
L 263.93232 128.215403 
L 266.16572 130.722808 
L 268.399119 133.266487 
L 270.632519 135.84644 
L 272.865919 138.462666 
L 275.099319 141.115167 
L 277.332719 143.803942 
L 279.566119 146.52899 
L 281.799519 149.290313 
L 284.032919 152.087909 
L 286.266318 154.921779 
L 288.499718 157.791924 
L 290.733118 160.698342 
L 292.966518 163.641034 
L 295.199918 166.62 
" clip-path="url(#p7f93bee7b3)" style="fill: none; stroke: #800000; stroke-width: 1.5; stroke-linecap: square"/>
   </g>
   <g id="patch_3">
    <path d="M 63.038 174.04 
L 63.038 10.8 
" style="fill: none; stroke: #000000; stroke-width: 0.8; stroke-linejoin: miter; stroke-linecap: square"/>
   </g>
   <g id="patch_4">
    <path d="M 306.255247 174.04 
L 306.255247 10.8 
" style="fill: none; stroke: #000000; stroke-width: 0.8; stroke-linejoin: miter; stroke-linecap: square"/>
   </g>
   <g id="patch_5">
    <path d="M 63.038 174.04 
L 306.255247 174.04 
" style="fill: none; stroke: #000000; stroke-width: 0.8; stroke-linejoin: miter; stroke-linecap: square"/>
   </g>
   <g id="patch_6">
    <path d="M 63.038 10.8 
L 306.255247 10.8 
" style="fill: none; stroke: #000000; stroke-width: 0.8; stroke-linejoin: miter; stroke-linecap: square"/>
   </g>
   <g id="legend_1">
    <g id="patch_7">
     <path d="M 315.255247 162.878 
L 420.455247 162.878 
Q 422.455247 162.878 422.455247 160.878 
L 422.455247 88.385813 
Q 422.455247 86.385813 420.455247 86.385813 
L 315.255247 86.385813 
Q 313.255247 86.385813 313.255247 88.385813 
L 313.255247 160.878 
Q 313.255247 162.878 315.255247 162.878 
z
" style="fill: #4d4d4d; opacity: 0.5; stroke: #4d4d4d; stroke-linejoin: miter"/>
    </g>
    <g id="patch_8">
     <path d="M 313.255247 160.878 
L 418.455247 160.878 
Q 420.455247 160.878 420.455247 158.878 
L 420.455247 86.385813 
Q 420.455247 84.385813 418.455247 84.385813 
L 313.255247 84.385813 
Q 311.255247 84.385813 311.255247 86.385813 
L 311.255247 158.878 
Q 311.255247 160.878 313.255247 160.878 
z
" style="fill: #ffffff; stroke: #cccccc; stroke-linejoin: miter"/>
    </g>
    <g id="line2d_32">
     <path d="M 315.255247 92.48425 
L 325.255247 92.48425 
L 335.255247 92.48425 
" style="fill: none; stroke: #000080; stroke-width: 1.5; stroke-linecap: square"/>
    </g>
    <g id="text_16">
     <!-- $\delta_e = 0$, $J = 1.60$ -->
     <g transform="translate(343.255247 95.98425) scale(0.1 -0.1)">
      <defs>
       <path id="DejaVuSans-Oblique-3b4" d="M 3472 4053 
Q 3197 4272 2450 4272 
Q 1659 4272 1588 3906 
Q 1531 3619 2328 3469 
Q 2953 3353 3253 3003 
Q 3616 2581 3447 1716 
Q 3284 888 2763 400 
Q 2238 -91 1488 -91 
Q 741 -91 406 400 
Q 72 888 241 1747 
Q 363 2384 891 2900 
Q 1097 3100 1353 3213 
Q 913 3459 1000 3900 
Q 1166 4750 2544 4750 
Q 3234 4750 3566 4531 
L 3472 4053 
z
M 1753 3056 
Q 1525 2966 1306 2738 
Q 969 2384 847 1747 
Q 722 1113 919 756 
Q 1119 397 1584 397 
Q 2044 397 2381 759 
Q 2722 1122 2838 1716 
Q 2956 2338 2731 2638 
Q 2491 2959 2103 2994 
Q 1906 3013 1753 3056 
z
" transform="scale(0.015625)"/>
       <path id="DejaVuSans-Oblique-65" d="M 3078 2063 
Q 3088 2113 3092 2166 
Q 3097 2219 3097 2272 
Q 3097 2653 2873 2875 
Q 2650 3097 2266 3097 
Q 1838 3097 1509 2826 
Q 1181 2556 1013 2059 
L 3078 2063 
z
M 3578 1613 
L 903 1613 
Q 884 1494 878 1425 
Q 872 1356 872 1306 
Q 872 872 1139 634 
Q 1406 397 1894 397 
Q 2269 397 2603 481 
Q 2938 566 3225 728 
L 3116 159 
Q 2806 34 2476 -28 
Q 2147 -91 1806 -91 
Q 1078 -91 686 257 
Q 294 606 294 1247 
Q 294 1794 489 2264 
Q 684 2734 1063 3103 
Q 1306 3334 1642 3459 
Q 1978 3584 2356 3584 
Q 2950 3584 3301 3228 
Q 3653 2872 3653 2272 
Q 3653 2128 3634 1964 
Q 3616 1800 3578 1613 
z
" transform="scale(0.015625)"/>
       <path id="DejaVuSans-3d" d="M 678 2906 
L 4684 2906 
L 4684 2381 
L 678 2381 
L 678 2906 
z
M 678 1631 
L 4684 1631 
L 4684 1100 
L 678 1100 
L 678 1631 
z
" transform="scale(0.015625)"/>
       <path id="DejaVuSans-2c" d="M 750 794 
L 1409 794 
L 1409 256 
L 897 -744 
L 494 -744 
L 750 256 
L 750 794 
z
" transform="scale(0.015625)"/>
       <path id="DejaVuSans-Oblique-4a" d="M 1069 4666 
L 1703 4666 
L 856 325 
Q 691 -522 298 -901 
Q -94 -1281 -800 -1281 
L -1050 -1281 
L -947 -750 
L -750 -750 
Q -328 -750 -109 -509 
Q 109 -269 225 325 
L 1069 4666 
z
" transform="scale(0.015625)"/>
      </defs>
      <use xlink:href="#DejaVuSans-Oblique-3b4" transform="translate(0 0.78125)"/>
      <use xlink:href="#DejaVuSans-Oblique-65" transform="translate(61.181641 -15.625) scale(0.7)"/>
      <use xlink:href="#DejaVuSans-3d" transform="translate(126.464844 0.78125)"/>
      <use xlink:href="#DejaVuSans-30" transform="translate(229.736328 0.78125)"/>
      <use xlink:href="#DejaVuSans-2c" transform="translate(293.359375 0.78125)"/>
      <use xlink:href="#DejaVuSans-20" transform="translate(325.146484 0.78125)"/>
      <use xlink:href="#DejaVuSans-Oblique-4a" transform="translate(356.933594 0.78125)"/>
      <use xlink:href="#DejaVuSans-3d" transform="translate(405.908203 0.78125)"/>
      <use xlink:href="#DejaVuSans-31" transform="translate(509.179688 0.78125)"/>
      <use xlink:href="#DejaVuSans-2e" transform="translate(572.802734 0.78125)"/>
      <use xlink:href="#DejaVuSans-36" transform="translate(604.589844 0.78125)"/>
      <use xlink:href="#DejaVuSans-30" transform="translate(668.212891 0.78125)"/>
     </g>
    </g>
    <g id="line2d_33">
     <path d="M 315.255247 107.182688 
L 325.255247 107.182688 
L 335.255247 107.182688 
" style="fill: none; stroke: #0080ff; stroke-width: 1.5; stroke-linecap: square"/>
    </g>
    <g id="text_17">
     <!-- $\delta_e = 0$, $J = 1.80$ -->
     <g transform="translate(343.255247 110.682688) scale(0.1 -0.1)">
      <defs>
       <path id="DejaVuSans-38" d="M 2034 2216 
Q 1584 2216 1326 1975 
Q 1069 1734 1069 1313 
Q 1069 891 1326 650 
Q 1584 409 2034 409 
Q 2484 409 2743 651 
Q 3003 894 3003 1313 
Q 3003 1734 2745 1975 
Q 2488 2216 2034 2216 
z
M 1403 2484 
Q 997 2584 770 2862 
Q 544 3141 544 3541 
Q 544 4100 942 4425 
Q 1341 4750 2034 4750 
Q 2731 4750 3128 4425 
Q 3525 4100 3525 3541 
Q 3525 3141 3298 2862 
Q 3072 2584 2669 2484 
Q 3125 2378 3379 2068 
Q 3634 1759 3634 1313 
Q 3634 634 3220 271 
Q 2806 -91 2034 -91 
Q 1263 -91 848 271 
Q 434 634 434 1313 
Q 434 1759 690 2068 
Q 947 2378 1403 2484 
z
M 1172 3481 
Q 1172 3119 1398 2916 
Q 1625 2713 2034 2713 
Q 2441 2713 2670 2916 
Q 2900 3119 2900 3481 
Q 2900 3844 2670 4047 
Q 2441 4250 2034 4250 
Q 1625 4250 1398 4047 
Q 1172 3844 1172 3481 
z
" transform="scale(0.015625)"/>
      </defs>
      <use xlink:href="#DejaVuSans-Oblique-3b4" transform="translate(0 0.78125)"/>
      <use xlink:href="#DejaVuSans-Oblique-65" transform="translate(61.181641 -15.625) scale(0.7)"/>
      <use xlink:href="#DejaVuSans-3d" transform="translate(126.464844 0.78125)"/>
      <use xlink:href="#DejaVuSans-30" transform="translate(229.736328 0.78125)"/>
      <use xlink:href="#DejaVuSans-2c" transform="translate(293.359375 0.78125)"/>
      <use xlink:href="#DejaVuSans-20" transform="translate(325.146484 0.78125)"/>
      <use xlink:href="#DejaVuSans-Oblique-4a" transform="translate(356.933594 0.78125)"/>
      <use xlink:href="#DejaVuSans-3d" transform="translate(405.908203 0.78125)"/>
      <use xlink:href="#DejaVuSans-31" transform="translate(509.179688 0.78125)"/>
      <use xlink:href="#DejaVuSans-2e" transform="translate(572.802734 0.78125)"/>
      <use xlink:href="#DejaVuSans-38" transform="translate(601.964844 0.78125)"/>
      <use xlink:href="#DejaVuSans-30" transform="translate(665.587891 0.78125)"/>
     </g>
    </g>
    <g id="line2d_34">
     <path d="M 315.255247 121.881125 
L 325.255247 121.881125 
L 335.255247 121.881125 
" style="fill: none; stroke: #7dff7a; stroke-width: 1.5; stroke-linecap: square"/>
    </g>
    <g id="text_18">
     <!-- $\delta_e = 0$, $J = 2.00$ -->
     <g transform="translate(343.255247 125.381125) scale(0.1 -0.1)">
      <use xlink:href="#DejaVuSans-Oblique-3b4" transform="translate(0 0.78125)"/>
      <use xlink:href="#DejaVuSans-Oblique-65" transform="translate(61.181641 -15.625) scale(0.7)"/>
      <use xlink:href="#DejaVuSans-3d" transform="translate(126.464844 0.78125)"/>
      <use xlink:href="#DejaVuSans-30" transform="translate(229.736328 0.78125)"/>
      <use xlink:href="#DejaVuSans-2c" transform="translate(293.359375 0.78125)"/>
      <use xlink:href="#DejaVuSans-20" transform="translate(325.146484 0.78125)"/>
      <use xlink:href="#DejaVuSans-Oblique-4a" transform="translate(356.933594 0.78125)"/>
      <use xlink:href="#DejaVuSans-3d" transform="translate(405.908203 0.78125)"/>
      <use xlink:href="#DejaVuSans-32" transform="translate(509.179688 0.78125)"/>
      <use xlink:href="#DejaVuSans-2e" transform="translate(572.802734 0.78125)"/>
      <use xlink:href="#DejaVuSans-30" transform="translate(604.589844 0.78125)"/>
      <use xlink:href="#DejaVuSans-30" transform="translate(668.212891 0.78125)"/>
     </g>
    </g>
    <g id="line2d_35">
     <path d="M 315.255247 136.579563 
L 325.255247 136.579563 
L 335.255247 136.579563 
" style="fill: none; stroke: #ff9400; stroke-width: 1.5; stroke-linecap: square"/>
    </g>
    <g id="text_19">
     <!-- $\delta_e = 0$, $J = 2.20$ -->
     <g transform="translate(343.255247 140.079563) scale(0.1 -0.1)">
      <use xlink:href="#DejaVuSans-Oblique-3b4" transform="translate(0 0.78125)"/>
      <use xlink:href="#DejaVuSans-Oblique-65" transform="translate(61.181641 -15.625) scale(0.7)"/>
      <use xlink:href="#DejaVuSans-3d" transform="translate(126.464844 0.78125)"/>
      <use xlink:href="#DejaVuSans-30" transform="translate(229.736328 0.78125)"/>
      <use xlink:href="#DejaVuSans-2c" transform="translate(293.359375 0.78125)"/>
      <use xlink:href="#DejaVuSans-20" transform="translate(325.146484 0.78125)"/>
      <use xlink:href="#DejaVuSans-Oblique-4a" transform="translate(356.933594 0.78125)"/>
      <use xlink:href="#DejaVuSans-3d" transform="translate(405.908203 0.78125)"/>
      <use xlink:href="#DejaVuSans-32" transform="translate(509.179688 0.78125)"/>
      <use xlink:href="#DejaVuSans-2e" transform="translate(572.802734 0.78125)"/>
      <use xlink:href="#DejaVuSans-32" transform="translate(599.089844 0.78125)"/>
      <use xlink:href="#DejaVuSans-30" transform="translate(662.712891 0.78125)"/>
     </g>
    </g>
    <g id="line2d_36">
     <path d="M 315.255247 151.278 
L 325.255247 151.278 
L 335.255247 151.278 
" style="fill: none; stroke: #800000; stroke-width: 1.5; stroke-linecap: square"/>
    </g>
    <g id="text_20">
     <!-- $\delta_e = 0$, $J = 2.40$ -->
     <g transform="translate(343.255247 154.778) scale(0.1 -0.1)">
      <use xlink:href="#DejaVuSans-Oblique-3b4" transform="translate(0 0.78125)"/>
      <use xlink:href="#DejaVuSans-Oblique-65" transform="translate(61.181641 -15.625) scale(0.7)"/>
      <use xlink:href="#DejaVuSans-3d" transform="translate(126.464844 0.78125)"/>
      <use xlink:href="#DejaVuSans-30" transform="translate(229.736328 0.78125)"/>
      <use xlink:href="#DejaVuSans-2c" transform="translate(293.359375 0.78125)"/>
      <use xlink:href="#DejaVuSans-20" transform="translate(325.146484 0.78125)"/>
      <use xlink:href="#DejaVuSans-Oblique-4a" transform="translate(356.933594 0.78125)"/>
      <use xlink:href="#DejaVuSans-3d" transform="translate(405.908203 0.78125)"/>
      <use xlink:href="#DejaVuSans-32" transform="translate(509.179688 0.78125)"/>
      <use xlink:href="#DejaVuSans-2e" transform="translate(572.802734 0.78125)"/>
      <use xlink:href="#DejaVuSans-34" transform="translate(604.589844 0.78125)"/>
      <use xlink:href="#DejaVuSans-30" transform="translate(668.212891 0.78125)"/>
     </g>
    </g>
   </g>
  </g>
 </g>
 <defs>
  <clipPath id="p7f93bee7b3">
   <rect x="63.038" y="10.8" width="243.217247" height="163.24"/>
  </clipPath>
 </defs>
</svg>
