<?xml version="1.0" encoding="utf-8" standalone="no"?>
<!DOCTYPE svg PUBLIC "-//W3C//DTD SVG 1.1//EN"
  "http://www.w3.org/Graphics/SVG/1.1/DTD/svg11.dtd">
<svg xmlns:xlink="http://www.w3.org/1999/xlink" width="288pt" height="216pt" viewBox="0 0 288 216" xmlns="http://www.w3.org/2000/svg" version="1.1">
 <metadata>
  <rdf:RDF xmlns:dc="http://purl.org/dc/elements/1.1/" xmlns:cc="http://creativecommons.org/ns#" xmlns:rdf="http://www.w3.org/1999/02/22-rdf-syntax-ns#">
   <cc:Work>
    <dc:type rdf:resource="http://purl.org/dc/dcmitype/StillImage"/>
    <dc:date>2025-03-27T14:24:58.071950</dc:date>
    <dc:format>image/svg+xml</dc:format>
    <dc:creator>
     <cc:Agent>
      <dc:title>Matplotlib v3.9.2, https://matplotlib.org/</dc:title>
     </cc:Agent>
    </dc:creator>
   </cc:Work>
  </rdf:RDF>
 </metadata>
 <defs>
  <style type="text/css">*{stroke-linejoin: round; stroke-linecap: butt}</style>
 </defs>
 <g id="figure_1">
  <g id="patch_1">
   <path d="M 0 216 
L 288 216 
L 288 0 
L 0 0 
z
" style="fill: #ffffff"/>
  </g>
  <g id="axes_1">
   <g id="patch_2">
    <path d="M 57.08 172.3975 
L 277.2 172.3975 
L 277.2 10.8 
L 57.08 10.8 
z
" style="fill: #ffffff"/>
   </g>
   <g id="matplotlib.axis_1">
    <g id="xtick_1">
     <g id="line2d_1">
      <path d="M 67.085455 172.3975 
L 67.085455 10.8 
" clip-path="url(#ped3383b567)" style="fill: none; stroke: #b0b0b0; stroke-width: 0.8; stroke-linecap: square"/>
     </g>
     <g id="line2d_2">
      <defs>
       <path id="m257a70239d" d="M 0 0 
L 0 3.5 
" style="stroke: #000000; stroke-width: 0.8"/>
      </defs>
      <g>
       <use xlink:href="#m257a70239d" x="67.085455" y="172.3975" style="stroke: #000000; stroke-width: 0.8"/>
      </g>
     </g>
     <g id="text_1">
      <!-- −4 -->
      <g transform="translate(59.714361 186.995937) scale(0.1 -0.1)">
       <defs>
        <path id="DejaVuSans-2212" d="M 678 2272 
L 4684 2272 
L 4684 1741 
L 678 1741 
L 678 2272 
z
" transform="scale(0.015625)"/>
        <path id="DejaVuSans-34" d="M 2419 4116 
L 825 1625 
L 2419 1625 
L 2419 4116 
z
M 2253 4666 
L 3047 4666 
L 3047 1625 
L 3713 1625 
L 3713 1100 
L 3047 1100 
L 3047 0 
L 2419 0 
L 2419 1100 
L 313 1100 
L 313 1709 
L 2253 4666 
z
" transform="scale(0.015625)"/>
       </defs>
       <use xlink:href="#DejaVuSans-2212"/>
       <use xlink:href="#DejaVuSans-34" x="83.789062"/>
      </g>
     </g>
    </g>
    <g id="xtick_2">
     <g id="line2d_3">
      <path d="M 103.468926 172.3975 
L 103.468926 10.8 
" clip-path="url(#ped3383b567)" style="fill: none; stroke: #b0b0b0; stroke-width: 0.8; stroke-linecap: square"/>
     </g>
     <g id="line2d_4">
      <g>
       <use xlink:href="#m257a70239d" x="103.468926" y="172.3975" style="stroke: #000000; stroke-width: 0.8"/>
      </g>
     </g>
     <g id="text_2">
      <!-- −2 -->
      <g transform="translate(96.097832 186.995937) scale(0.1 -0.1)">
       <defs>
        <path id="DejaVuSans-32" d="M 1228 531 
L 3431 531 
L 3431 0 
L 469 0 
L 469 531 
Q 828 903 1448 1529 
Q 2069 2156 2228 2338 
Q 2531 2678 2651 2914 
Q 2772 3150 2772 3378 
Q 2772 3750 2511 3984 
Q 2250 4219 1831 4219 
Q 1534 4219 1204 4116 
Q 875 4013 500 3803 
L 500 4441 
Q 881 4594 1212 4672 
Q 1544 4750 1819 4750 
Q 2544 4750 2975 4387 
Q 3406 4025 3406 3419 
Q 3406 3131 3298 2873 
Q 3191 2616 2906 2266 
Q 2828 2175 2409 1742 
Q 1991 1309 1228 531 
z
" transform="scale(0.015625)"/>
       </defs>
       <use xlink:href="#DejaVuSans-2212"/>
       <use xlink:href="#DejaVuSans-32" x="83.789062"/>
      </g>
     </g>
    </g>
    <g id="xtick_3">
     <g id="line2d_5">
      <path d="M 139.852397 172.3975 
L 139.852397 10.8 
" clip-path="url(#ped3383b567)" style="fill: none; stroke: #b0b0b0; stroke-width: 0.8; stroke-linecap: square"/>
     </g>
     <g id="line2d_6">
      <g>
       <use xlink:href="#m257a70239d" x="139.852397" y="172.3975" style="stroke: #000000; stroke-width: 0.8"/>
      </g>
     </g>
     <g id="text_3">
      <!-- 0 -->
      <g transform="translate(136.671147 186.995937) scale(0.1 -0.1)">
       <defs>
        <path id="DejaVuSans-30" d="M 2034 4250 
Q 1547 4250 1301 3770 
Q 1056 3291 1056 2328 
Q 1056 1369 1301 889 
Q 1547 409 2034 409 
Q 2525 409 2770 889 
Q 3016 1369 3016 2328 
Q 3016 3291 2770 3770 
Q 2525 4250 2034 4250 
z
M 2034 4750 
Q 2819 4750 3233 4129 
Q 3647 3509 3647 2328 
Q 3647 1150 3233 529 
Q 2819 -91 2034 -91 
Q 1250 -91 836 529 
Q 422 1150 422 2328 
Q 422 3509 836 4129 
Q 1250 4750 2034 4750 
z
" transform="scale(0.015625)"/>
       </defs>
       <use xlink:href="#DejaVuSans-30"/>
      </g>
     </g>
    </g>
    <g id="xtick_4">
     <g id="line2d_7">
      <path d="M 176.235868 172.3975 
L 176.235868 10.8 
" clip-path="url(#ped3383b567)" style="fill: none; stroke: #b0b0b0; stroke-width: 0.8; stroke-linecap: square"/>
     </g>
     <g id="line2d_8">
      <g>
       <use xlink:href="#m257a70239d" x="176.235868" y="172.3975" style="stroke: #000000; stroke-width: 0.8"/>
      </g>
     </g>
     <g id="text_4">
      <!-- 2 -->
      <g transform="translate(173.054618 186.995937) scale(0.1 -0.1)">
       <use xlink:href="#DejaVuSans-32"/>
      </g>
     </g>
    </g>
    <g id="xtick_5">
     <g id="line2d_9">
      <path d="M 212.619339 172.3975 
L 212.619339 10.8 
" clip-path="url(#ped3383b567)" style="fill: none; stroke: #b0b0b0; stroke-width: 0.8; stroke-linecap: square"/>
     </g>
     <g id="line2d_10">
      <g>
       <use xlink:href="#m257a70239d" x="212.619339" y="172.3975" style="stroke: #000000; stroke-width: 0.8"/>
      </g>
     </g>
     <g id="text_5">
      <!-- 4 -->
      <g transform="translate(209.438089 186.995937) scale(0.1 -0.1)">
       <use xlink:href="#DejaVuSans-34"/>
      </g>
     </g>
    </g>
    <g id="xtick_6">
     <g id="line2d_11">
      <path d="M 249.00281 172.3975 
L 249.00281 10.8 
" clip-path="url(#ped3383b567)" style="fill: none; stroke: #b0b0b0; stroke-width: 0.8; stroke-linecap: square"/>
     </g>
     <g id="line2d_12">
      <g>
       <use xlink:href="#m257a70239d" x="249.00281" y="172.3975" style="stroke: #000000; stroke-width: 0.8"/>
      </g>
     </g>
     <g id="text_6">
      <!-- 6 -->
      <g transform="translate(245.82156 186.995937) scale(0.1 -0.1)">
       <defs>
        <path id="DejaVuSans-36" d="M 2113 2584 
Q 1688 2584 1439 2293 
Q 1191 2003 1191 1497 
Q 1191 994 1439 701 
Q 1688 409 2113 409 
Q 2538 409 2786 701 
Q 3034 994 3034 1497 
Q 3034 2003 2786 2293 
Q 2538 2584 2113 2584 
z
M 3366 4563 
L 3366 3988 
Q 3128 4100 2886 4159 
Q 2644 4219 2406 4219 
Q 1781 4219 1451 3797 
Q 1122 3375 1075 2522 
Q 1259 2794 1537 2939 
Q 1816 3084 2150 3084 
Q 2853 3084 3261 2657 
Q 3669 2231 3669 1497 
Q 3669 778 3244 343 
Q 2819 -91 2113 -91 
Q 1303 -91 875 529 
Q 447 1150 447 2328 
Q 447 3434 972 4092 
Q 1497 4750 2381 4750 
Q 2619 4750 2861 4703 
Q 3103 4656 3366 4563 
z
" transform="scale(0.015625)"/>
       </defs>
       <use xlink:href="#DejaVuSans-36"/>
      </g>
     </g>
    </g>
    <g id="text_7">
     <!-- $\alpha$, [$^\circ$] -->
     <g transform="translate(152.99 200.674062) scale(0.1 -0.1)">
      <defs>
       <path id="DejaVuSans-Oblique-3b1" d="M 2619 1628 
L 2622 2350 
Q 2625 3088 2069 3091 
Q 1653 3094 1394 2747 
Q 1069 2319 959 1747 
Q 825 1059 994 731 
Q 1169 397 1547 397 
Q 1966 397 2319 1063 
L 2619 1628 
z
M 2166 3578 
Q 3141 3594 3128 2584 
Q 3128 2584 3616 3500 
L 4128 3500 
L 3119 1603 
L 3109 919 
Q 3109 766 3194 638 
Q 3291 488 3391 488 
L 3669 488 
L 3575 0 
L 3228 0 
Q 2934 0 2722 263 
Q 2622 394 2619 669 
Q 2416 334 2066 50 
Q 1900 -81 1453 -78 
Q 722 -72 456 397 
Q 184 884 353 1747 
Q 534 2675 1009 3097 
Q 1544 3569 2166 3578 
z
" transform="scale(0.015625)"/>
       <path id="DejaVuSans-2c" d="M 750 794 
L 1409 794 
L 1409 256 
L 897 -744 
L 494 -744 
L 750 256 
L 750 794 
z
" transform="scale(0.015625)"/>
       <path id="DejaVuSans-20" transform="scale(0.015625)"/>
       <path id="DejaVuSans-5b" d="M 550 4863 
L 1875 4863 
L 1875 4416 
L 1125 4416 
L 1125 -397 
L 1875 -397 
L 1875 -844 
L 550 -844 
L 550 4863 
z
" transform="scale(0.015625)"/>
       <path id="DejaVuSans-2218" d="M 2003 2603 
Q 1753 2603 1581 2429 
Q 1409 2256 1409 2006 
Q 1409 1759 1581 1589 
Q 1753 1419 2003 1419 
Q 2253 1419 2425 1589 
Q 2597 1759 2597 2006 
Q 2597 2253 2423 2428 
Q 2250 2603 2003 2603 
z
M 2003 3006 
Q 2203 3006 2387 2929 
Q 2572 2853 2706 2709 
Q 2850 2569 2922 2390 
Q 2994 2212 2994 2006 
Q 2994 1594 2705 1308 
Q 2416 1022 1997 1022 
Q 1575 1022 1294 1303 
Q 1013 1584 1013 2006 
Q 1013 2425 1300 2715 
Q 1588 3006 2003 3006 
z
" transform="scale(0.015625)"/>
       <path id="DejaVuSans-5d" d="M 1947 4863 
L 1947 -844 
L 622 -844 
L 622 -397 
L 1369 -397 
L 1369 4416 
L 622 4416 
L 622 4863 
L 1947 4863 
z
" transform="scale(0.015625)"/>
      </defs>
      <use xlink:href="#DejaVuSans-Oblique-3b1" transform="translate(0 0.015625)"/>
      <use xlink:href="#DejaVuSans-2c" transform="translate(65.917969 0.015625)"/>
      <use xlink:href="#DejaVuSans-20" transform="translate(97.705078 0.015625)"/>
      <use xlink:href="#DejaVuSans-5b" transform="translate(129.492188 0.015625)"/>
      <use xlink:href="#DejaVuSans-2218" transform="translate(183.100586 38.296875) scale(0.7)"/>
      <use xlink:href="#DejaVuSans-5d" transform="translate(243.291016 0.015625)"/>
     </g>
    </g>
   </g>
   <g id="matplotlib.axis_2">
    <g id="ytick_1">
     <g id="line2d_13">
      <path d="M 57.08 147.361585 
L 277.2 147.361585 
" clip-path="url(#ped3383b567)" style="fill: none; stroke: #b0b0b0; stroke-width: 0.8; stroke-linecap: square"/>
     </g>
     <g id="line2d_14">
      <defs>
       <path id="m093fd27990" d="M 0 0 
L -3.5 0 
" style="stroke: #000000; stroke-width: 0.8"/>
      </defs>
      <g>
       <use xlink:href="#m093fd27990" x="57.08" y="147.361585" style="stroke: #000000; stroke-width: 0.8"/>
      </g>
     </g>
     <g id="text_8">
      <!-- 0.09 -->
      <g transform="translate(27.814375 151.160804) scale(0.1 -0.1)">
       <defs>
        <path id="DejaVuSans-2e" d="M 684 794 
L 1344 794 
L 1344 0 
L 684 0 
L 684 794 
z
" transform="scale(0.015625)"/>
        <path id="DejaVuSans-39" d="M 703 97 
L 703 672 
Q 941 559 1184 500 
Q 1428 441 1663 441 
Q 2288 441 2617 861 
Q 2947 1281 2994 2138 
Q 2813 1869 2534 1725 
Q 2256 1581 1919 1581 
Q 1219 1581 811 2004 
Q 403 2428 403 3163 
Q 403 3881 828 4315 
Q 1253 4750 1959 4750 
Q 2769 4750 3195 4129 
Q 3622 3509 3622 2328 
Q 3622 1225 3098 567 
Q 2575 -91 1691 -91 
Q 1453 -91 1209 -44 
Q 966 3 703 97 
z
M 1959 2075 
Q 2384 2075 2632 2365 
Q 2881 2656 2881 3163 
Q 2881 3666 2632 3958 
Q 2384 4250 1959 4250 
Q 1534 4250 1286 3958 
Q 1038 3666 1038 3163 
Q 1038 2656 1286 2365 
Q 1534 2075 1959 2075 
z
" transform="scale(0.015625)"/>
       </defs>
       <use xlink:href="#DejaVuSans-30"/>
       <use xlink:href="#DejaVuSans-2e" x="63.623047"/>
       <use xlink:href="#DejaVuSans-30" x="95.410156"/>
       <use xlink:href="#DejaVuSans-39" x="159.033203"/>
      </g>
     </g>
    </g>
    <g id="ytick_2">
     <g id="line2d_15">
      <path d="M 57.08 107.070441 
L 277.2 107.070441 
" clip-path="url(#ped3383b567)" style="fill: none; stroke: #b0b0b0; stroke-width: 0.8; stroke-linecap: square"/>
     </g>
     <g id="line2d_16">
      <g>
       <use xlink:href="#m093fd27990" x="57.08" y="107.070441" style="stroke: #000000; stroke-width: 0.8"/>
      </g>
     </g>
     <g id="text_9">
      <!-- 0.10 -->
      <g transform="translate(27.814375 110.86966) scale(0.1 -0.1)">
       <defs>
        <path id="DejaVuSans-31" d="M 794 531 
L 1825 531 
L 1825 4091 
L 703 3866 
L 703 4441 
L 1819 4666 
L 2450 4666 
L 2450 531 
L 3481 531 
L 3481 0 
L 794 0 
L 794 531 
z
" transform="scale(0.015625)"/>
       </defs>
       <use xlink:href="#DejaVuSans-30"/>
       <use xlink:href="#DejaVuSans-2e" x="63.623047"/>
       <use xlink:href="#DejaVuSans-31" x="95.410156"/>
       <use xlink:href="#DejaVuSans-30" x="159.033203"/>
      </g>
     </g>
    </g>
    <g id="ytick_3">
     <g id="line2d_17">
      <path d="M 57.08 66.779297 
L 277.2 66.779297 
" clip-path="url(#ped3383b567)" style="fill: none; stroke: #b0b0b0; stroke-width: 0.8; stroke-linecap: square"/>
     </g>
     <g id="line2d_18">
      <g>
       <use xlink:href="#m093fd27990" x="57.08" y="66.779297" style="stroke: #000000; stroke-width: 0.8"/>
      </g>
     </g>
     <g id="text_10">
      <!-- 0.11 -->
      <g transform="translate(27.814375 70.578516) scale(0.1 -0.1)">
       <use xlink:href="#DejaVuSans-30"/>
       <use xlink:href="#DejaVuSans-2e" x="63.623047"/>
       <use xlink:href="#DejaVuSans-31" x="95.410156"/>
       <use xlink:href="#DejaVuSans-31" x="159.033203"/>
      </g>
     </g>
    </g>
    <g id="ytick_4">
     <g id="line2d_19">
      <path d="M 57.08 26.488153 
L 277.2 26.488153 
" clip-path="url(#ped3383b567)" style="fill: none; stroke: #b0b0b0; stroke-width: 0.8; stroke-linecap: square"/>
     </g>
     <g id="line2d_20">
      <g>
       <use xlink:href="#m093fd27990" x="57.08" y="26.488153" style="stroke: #000000; stroke-width: 0.8"/>
      </g>
     </g>
     <g id="text_11">
      <!-- 0.12 -->
      <g transform="translate(27.814375 30.287372) scale(0.1 -0.1)">
       <use xlink:href="#DejaVuSans-30"/>
       <use xlink:href="#DejaVuSans-2e" x="63.623047"/>
       <use xlink:href="#DejaVuSans-31" x="95.410156"/>
       <use xlink:href="#DejaVuSans-32" x="159.033203"/>
      </g>
     </g>
    </g>
    <g id="text_12">
     <!-- $dCL_cor2/dalpha$ -->
     <g transform="translate(21.714375 130.14875) rotate(-90) scale(0.1 -0.1)">
      <defs>
       <path id="DejaVuSans-Oblique-64" d="M 2675 525 
Q 2444 222 2128 65 
Q 1813 -91 1428 -91 
Q 903 -91 598 267 
Q 294 625 294 1247 
Q 294 1766 478 2236 
Q 663 2706 1013 3078 
Q 1244 3325 1534 3454 
Q 1825 3584 2144 3584 
Q 2481 3584 2739 3421 
Q 2997 3259 3138 2956 
L 3513 4863 
L 4091 4863 
L 3144 0 
L 2566 0 
L 2675 525 
z
M 891 1350 
Q 891 897 1095 644 
Q 1300 391 1663 391 
Q 1931 391 2161 520 
Q 2391 650 2566 903 
Q 2750 1166 2856 1509 
Q 2963 1853 2963 2188 
Q 2963 2622 2758 2865 
Q 2553 3109 2194 3109 
Q 1922 3109 1687 2981 
Q 1453 2853 1288 2613 
Q 1106 2353 998 2009 
Q 891 1666 891 1350 
z
" transform="scale(0.015625)"/>
       <path id="DejaVuSans-Oblique-43" d="M 4447 4306 
L 4319 3641 
Q 4019 3944 3683 4091 
Q 3347 4238 2956 4238 
Q 2422 4238 2017 3981 
Q 1613 3725 1319 3200 
Q 1131 2863 1032 2486 
Q 934 2109 934 1728 
Q 934 1091 1264 756 
Q 1594 422 2222 422 
Q 2656 422 3056 561 
Q 3456 700 3834 978 
L 3688 231 
Q 3316 72 2936 -9 
Q 2556 -91 2175 -91 
Q 1278 -91 773 396 
Q 269 884 269 1753 
Q 269 2309 461 2846 
Q 653 3384 1013 3828 
Q 1394 4300 1883 4525 
Q 2372 4750 3022 4750 
Q 3422 4750 3780 4639 
Q 4138 4528 4447 4306 
z
" transform="scale(0.015625)"/>
       <path id="DejaVuSans-Oblique-4c" d="M 1075 4666 
L 1709 4666 
L 909 525 
L 3181 525 
L 3078 0 
L 172 0 
L 1075 4666 
z
" transform="scale(0.015625)"/>
       <path id="DejaVuSans-Oblique-63" d="M 3431 3366 
L 3316 2797 
Q 3109 2947 2876 3022 
Q 2644 3097 2394 3097 
Q 2119 3097 1870 3000 
Q 1622 2903 1453 2725 
Q 1184 2453 1037 2087 
Q 891 1722 891 1331 
Q 891 859 1127 628 
Q 1363 397 1844 397 
Q 2081 397 2348 469 
Q 2616 541 2906 684 
L 2797 116 
Q 2547 13 2283 -39 
Q 2019 -91 1741 -91 
Q 1044 -91 669 257 
Q 294 606 294 1253 
Q 294 1797 489 2255 
Q 684 2713 1069 3078 
Q 1331 3328 1684 3456 
Q 2038 3584 2456 3584 
Q 2700 3584 2940 3529 
Q 3181 3475 3431 3366 
z
" transform="scale(0.015625)"/>
       <path id="DejaVuSans-Oblique-6f" d="M 1625 -91 
Q 1009 -91 651 289 
Q 294 669 294 1325 
Q 294 1706 417 2101 
Q 541 2497 738 2766 
Q 1047 3184 1428 3384 
Q 1809 3584 2291 3584 
Q 2888 3584 3255 3212 
Q 3622 2841 3622 2241 
Q 3622 1825 3500 1412 
Q 3378 1000 3181 728 
Q 2875 309 2494 109 
Q 2113 -91 1625 -91 
z
M 891 1344 
Q 891 869 1089 633 
Q 1288 397 1691 397 
Q 2269 397 2648 901 
Q 3028 1406 3028 2181 
Q 3028 2634 2825 2865 
Q 2622 3097 2228 3097 
Q 1903 3097 1650 2945 
Q 1397 2794 1197 2484 
Q 1050 2253 970 1956 
Q 891 1659 891 1344 
z
" transform="scale(0.015625)"/>
       <path id="DejaVuSans-Oblique-72" d="M 2853 2969 
Q 2766 3016 2653 3041 
Q 2541 3066 2413 3066 
Q 1953 3066 1609 2717 
Q 1266 2369 1153 1784 
L 800 0 
L 225 0 
L 909 3500 
L 1484 3500 
L 1375 2956 
Q 1603 3259 1920 3421 
Q 2238 3584 2597 3584 
Q 2691 3584 2781 3573 
Q 2872 3563 2963 3538 
L 2853 2969 
z
" transform="scale(0.015625)"/>
       <path id="DejaVuSans-2f" d="M 1625 4666 
L 2156 4666 
L 531 -594 
L 0 -594 
L 1625 4666 
z
" transform="scale(0.015625)"/>
       <path id="DejaVuSans-Oblique-61" d="M 3438 1997 
L 3047 0 
L 2472 0 
L 2578 531 
Q 2325 219 2001 64 
Q 1678 -91 1281 -91 
Q 834 -91 548 182 
Q 263 456 263 884 
Q 263 1497 752 1853 
Q 1241 2209 2100 2209 
L 2900 2209 
L 2931 2363 
Q 2938 2388 2941 2417 
Q 2944 2447 2944 2509 
Q 2944 2788 2717 2942 
Q 2491 3097 2081 3097 
Q 1800 3097 1504 3025 
Q 1209 2953 897 2809 
L 997 3341 
Q 1322 3463 1633 3523 
Q 1944 3584 2234 3584 
Q 2853 3584 3176 3315 
Q 3500 3047 3500 2534 
Q 3500 2431 3484 2292 
Q 3469 2153 3438 1997 
z
M 2816 1759 
L 2241 1759 
Q 1534 1759 1195 1570 
Q 856 1381 856 984 
Q 856 709 1029 553 
Q 1203 397 1509 397 
Q 1978 397 2328 733 
Q 2678 1069 2791 1631 
L 2816 1759 
z
" transform="scale(0.015625)"/>
       <path id="DejaVuSans-Oblique-6c" d="M 1172 4863 
L 1747 4863 
L 800 0 
L 225 0 
L 1172 4863 
z
" transform="scale(0.015625)"/>
       <path id="DejaVuSans-Oblique-70" d="M 3175 2156 
Q 3175 2616 2975 2859 
Q 2775 3103 2400 3103 
Q 2144 3103 1911 2972 
Q 1678 2841 1497 2591 
Q 1319 2344 1212 1994 
Q 1106 1644 1106 1300 
Q 1106 863 1306 627 
Q 1506 391 1875 391 
Q 2147 391 2380 519 
Q 2613 647 2778 891 
Q 2956 1147 3065 1494 
Q 3175 1841 3175 2156 
z
M 1394 2969 
Q 1625 3272 1939 3428 
Q 2253 3584 2638 3584 
Q 3175 3584 3472 3232 
Q 3769 2881 3769 2247 
Q 3769 1728 3584 1258 
Q 3400 788 3053 416 
Q 2822 169 2531 39 
Q 2241 -91 1919 -91 
Q 1547 -91 1294 64 
Q 1041 219 916 525 
L 556 -1331 
L -19 -1331 
L 922 3500 
L 1497 3500 
L 1394 2969 
z
" transform="scale(0.015625)"/>
       <path id="DejaVuSans-Oblique-68" d="M 3566 2113 
L 3156 0 
L 2578 0 
L 2988 2091 
Q 3016 2238 3031 2350 
Q 3047 2463 3047 2528 
Q 3047 2791 2881 2937 
Q 2716 3084 2419 3084 
Q 1956 3084 1617 2771 
Q 1278 2459 1178 1941 
L 800 0 
L 225 0 
L 1172 4863 
L 1747 4863 
L 1375 2950 
Q 1594 3244 1934 3414 
Q 2275 3584 2650 3584 
Q 3113 3584 3367 3334 
Q 3622 3084 3622 2631 
Q 3622 2519 3608 2391 
Q 3594 2263 3566 2113 
z
" transform="scale(0.015625)"/>
      </defs>
      <use xlink:href="#DejaVuSans-Oblique-64" transform="translate(0 0.015625)"/>
      <use xlink:href="#DejaVuSans-Oblique-43" transform="translate(63.476562 0.015625)"/>
      <use xlink:href="#DejaVuSans-Oblique-4c" transform="translate(133.300781 0.015625)"/>
      <use xlink:href="#DejaVuSans-Oblique-63" transform="translate(189.013672 -16.390625) scale(0.7)"/>
      <use xlink:href="#DejaVuSans-Oblique-6f" transform="translate(230.234375 0.015625)"/>
      <use xlink:href="#DejaVuSans-Oblique-72" transform="translate(291.416016 0.015625)"/>
      <use xlink:href="#DejaVuSans-32" transform="translate(332.529297 0.015625)"/>
      <use xlink:href="#DejaVuSans-2f" transform="translate(396.152344 0.015625)"/>
      <use xlink:href="#DejaVuSans-Oblique-64" transform="translate(429.84375 0.015625)"/>
      <use xlink:href="#DejaVuSans-Oblique-61" transform="translate(493.320312 0.015625)"/>
      <use xlink:href="#DejaVuSans-Oblique-6c" transform="translate(554.599609 0.015625)"/>
      <use xlink:href="#DejaVuSans-Oblique-70" transform="translate(582.382812 0.015625)"/>
      <use xlink:href="#DejaVuSans-Oblique-68" transform="translate(645.859375 0.015625)"/>
      <use xlink:href="#DejaVuSans-Oblique-61" transform="translate(709.238281 0.015625)"/>
     </g>
    </g>
   </g>
   <g id="line2d_21">
    <path d="M 67.085455 30.070556 
L 69.106758 29.632604 
L 71.128062 29.225964 
L 73.149366 28.850636 
L 75.17067 28.506621 
L 77.191974 28.193918 
L 79.213278 27.912528 
L 81.234582 27.66245 
L 83.255886 27.443684 
L 85.27719 27.256231 
L 87.298494 27.10009 
L 89.319798 26.975261 
L 91.341102 26.881745 
L 93.362406 26.819541 
L 95.38371 26.78865 
L 97.405014 26.789071 
L 99.426318 26.820804 
L 101.447622 26.88385 
L 103.468926 26.978208 
L 105.49023 27.103878 
L 107.511534 27.260861 
L 109.532837 27.449156 
L 111.554141 27.668764 
L 113.575445 27.919684 
L 115.596749 28.201916 
L 117.618053 28.515461 
L 119.639357 28.860318 
L 121.660661 29.236487 
L 123.681965 29.643969 
L 125.703269 30.082763 
L 127.724573 30.55287 
L 129.745877 31.054289 
L 131.767181 31.58702 
L 133.788485 32.151064 
L 135.809789 32.74642 
L 137.831093 33.373088 
L 139.852397 34.031069 
L 141.873701 34.720362 
L 143.895005 35.440968 
L 145.916309 36.192886 
L 147.937612 36.976116 
L 149.958916 37.790659 
L 151.98022 38.636514 
L 154.001524 39.513682 
L 156.022828 40.422161 
L 158.044132 41.361954 
L 160.065436 42.333058 
L 162.08674 43.335475 
L 164.108044 44.369205 
L 166.129348 45.434246 
L 168.150652 46.5306 
L 170.171956 47.658267 
L 172.19326 48.817246 
L 174.214564 50.007537 
L 176.235868 51.229141 
L 178.257172 52.482057 
L 180.278476 53.766285 
L 182.29978 55.081826 
L 184.321084 56.428679 
L 186.342388 57.806844 
L 188.363691 59.216322 
L 190.384995 60.657112 
L 192.406299 62.129215 
L 194.427603 63.63263 
L 196.448907 65.167357 
L 198.470211 66.733397 
L 200.491515 68.330749 
L 202.512819 69.959414 
L 204.534123 71.619391 
L 206.555427 73.31068 
L 208.576731 75.033282 
L 210.598035 76.787196 
L 212.619339 78.572422 
L 214.640643 80.388961 
L 216.661947 82.236812 
L 218.683251 84.115975 
L 220.704555 86.026451 
L 222.725859 87.96824 
L 224.747163 89.94134 
L 226.768466 91.945753 
L 228.78977 93.981479 
L 230.811074 96.048516 
L 232.832378 98.146867 
L 234.853682 100.276529 
L 236.874986 102.437504 
L 238.89629 104.629791 
L 240.917594 106.853391 
L 242.938898 109.108303 
L 244.960202 111.394527 
L 246.981506 113.712064 
L 249.00281 116.060913 
L 251.024114 118.441075 
L 253.045418 120.852549 
L 255.066722 123.295335 
L 257.088026 125.769434 
L 259.10933 128.274845 
L 261.130634 130.811568 
L 263.151938 133.379604 
L 265.173242 135.978952 
L 267.194545 138.609613 
" clip-path="url(#ped3383b567)" style="fill: none; stroke: #000080; stroke-width: 1.5; stroke-linecap: square"/>
   </g>
   <g id="line2d_22">
    <path d="M 67.085455 24.143408 
L 69.106758 23.898874 
L 71.128062 23.685652 
L 73.149366 23.503743 
L 75.17067 23.353146 
L 77.191974 23.233862 
L 79.213278 23.14589 
L 81.234582 23.08923 
L 83.255886 23.063883 
L 85.27719 23.069848 
L 87.298494 23.107125 
L 89.319798 23.175715 
L 91.341102 23.275617 
L 93.362406 23.406832 
L 95.38371 23.569359 
L 97.405014 23.763198 
L 99.426318 23.98835 
L 101.447622 24.244814 
L 103.468926 24.532591 
L 105.49023 24.851679 
L 107.511534 25.202081 
L 109.532837 25.583794 
L 111.554141 25.99682 
L 113.575445 26.441158 
L 115.596749 26.916809 
L 117.618053 27.423772 
L 119.639357 27.962048 
L 121.660661 28.531636 
L 123.681965 29.132536 
L 125.703269 29.764748 
L 127.724573 30.428273 
L 129.745877 31.123111 
L 131.767181 31.84926 
L 133.788485 32.606723 
L 135.809789 33.395497 
L 137.831093 34.215584 
L 139.852397 35.066983 
L 141.873701 35.949695 
L 143.895005 36.863719 
L 145.916309 37.809055 
L 147.937612 38.785704 
L 149.958916 39.793665 
L 151.98022 40.832938 
L 154.001524 41.903524 
L 156.022828 43.005423 
L 158.044132 44.138633 
L 160.065436 45.303156 
L 162.08674 46.498992 
L 164.108044 47.726139 
L 166.129348 48.9846 
L 168.150652 50.274372 
L 170.171956 51.595457 
L 172.19326 52.947854 
L 174.214564 54.331564 
L 176.235868 55.746586 
L 178.257172 57.19292 
L 180.278476 58.670567 
L 182.29978 60.179526 
L 184.321084 61.719798 
L 186.342388 63.291382 
L 188.363691 64.894278 
L 190.384995 66.528486 
L 192.406299 68.194007 
L 194.427603 69.890841 
L 196.448907 71.618987 
L 198.470211 73.378445 
L 200.491515 75.169215 
L 202.512819 76.991298 
L 204.534123 78.844694 
L 206.555427 80.729401 
L 208.576731 82.645421 
L 210.598035 84.592754 
L 212.619339 86.571398 
L 214.640643 88.581356 
L 216.661947 90.622625 
L 218.683251 92.695207 
L 220.704555 94.799101 
L 222.725859 96.934308 
L 224.747163 99.100827 
L 226.768466 101.298658 
L 228.78977 103.527802 
L 230.811074 105.788258 
L 232.832378 108.080027 
L 234.853682 110.403108 
L 236.874986 112.757501 
L 238.89629 115.143207 
L 240.917594 117.560225 
L 242.938898 120.008555 
L 244.960202 122.488198 
L 246.981506 124.999153 
L 249.00281 127.541421 
L 251.024114 130.115001 
L 253.045418 132.719893 
L 255.066722 135.356098 
L 257.088026 138.023615 
L 259.10933 140.722444 
L 261.130634 143.452586 
L 263.151938 146.21404 
L 265.173242 149.006807 
L 267.194545 151.830886 
" clip-path="url(#ped3383b567)" style="fill: none; stroke: #7dff7a; stroke-width: 1.5; stroke-linecap: square"/>
   </g>
   <g id="line2d_23">
    <path d="M 67.085455 18.21626 
L 69.106758 18.165144 
L 71.128062 18.145341 
L 73.149366 18.15685 
L 75.17067 18.199672 
L 77.191974 18.273806 
L 79.213278 18.379252 
L 81.234582 18.516011 
L 83.255886 18.684082 
L 85.27719 18.883465 
L 87.298494 19.114161 
L 89.319798 19.376169 
L 91.341102 19.66949 
L 93.362406 19.994123 
L 95.38371 20.350068 
L 97.405014 20.737326 
L 99.426318 21.155896 
L 101.447622 21.605779 
L 103.468926 22.086973 
L 105.49023 22.599481 
L 107.511534 23.1433 
L 109.532837 23.718432 
L 111.554141 24.324877 
L 113.575445 24.962633 
L 115.596749 25.631702 
L 117.618053 26.332084 
L 119.639357 27.063778 
L 121.660661 27.826784 
L 123.681965 28.621103 
L 125.703269 29.446734 
L 127.724573 30.303677 
L 129.745877 31.191933 
L 131.767181 32.111501 
L 133.788485 33.062381 
L 135.809789 34.044574 
L 137.831093 35.05808 
L 139.852397 36.102897 
L 141.873701 37.179027 
L 143.895005 38.28647 
L 145.916309 39.425224 
L 147.937612 40.595292 
L 149.958916 41.796671 
L 151.98022 43.029363 
L 154.001524 44.293367 
L 156.022828 45.588684 
L 158.044132 46.915313 
L 160.065436 48.273254 
L 162.08674 49.662508 
L 164.108044 51.083074 
L 166.129348 52.534953 
L 168.150652 54.018144 
L 170.171956 55.532647 
L 172.19326 57.078463 
L 174.214564 58.655591 
L 176.235868 60.264031 
L 178.257172 61.903784 
L 180.278476 63.574849 
L 182.29978 65.277227 
L 184.321084 67.010916 
L 186.342388 68.775919 
L 188.363691 70.572233 
L 190.384995 72.39986 
L 192.406299 74.2588 
L 194.427603 76.149052 
L 196.448907 78.070616 
L 198.470211 80.023492 
L 200.491515 82.007681 
L 202.512819 84.023183 
L 204.534123 86.069996 
L 206.555427 88.148122 
L 208.576731 90.257561 
L 210.598035 92.398312 
L 212.619339 94.570375 
L 214.640643 96.77375 
L 216.661947 99.008438 
L 218.683251 101.274439 
L 220.704555 103.571751 
L 222.725859 105.900376 
L 224.747163 108.260314 
L 226.768466 110.651564 
L 228.78977 113.074126 
L 230.811074 115.528 
L 232.832378 118.013187 
L 234.853682 120.529687 
L 236.874986 123.077498 
L 238.89629 125.656622 
L 240.917594 128.267059 
L 242.938898 130.908808 
L 244.960202 133.581869 
L 246.981506 136.286243 
L 249.00281 139.021928 
L 251.024114 141.788927 
L 253.045418 144.587238 
L 255.066722 147.416861 
L 257.088026 150.277796 
L 259.10933 153.170044 
L 261.130634 156.093604 
L 263.151938 159.048477 
L 265.173242 162.034662 
L 267.194545 165.052159 
" clip-path="url(#ped3383b567)" style="fill: none; stroke: #800000; stroke-width: 1.5; stroke-linecap: square"/>
   </g>
   <g id="patch_3">
    <path d="M 57.08 172.3975 
L 57.08 10.8 
" style="fill: none; stroke: #000000; stroke-width: 0.8; stroke-linejoin: miter; stroke-linecap: square"/>
   </g>
   <g id="patch_4">
    <path d="M 277.2 172.3975 
L 277.2 10.8 
" style="fill: none; stroke: #000000; stroke-width: 0.8; stroke-linejoin: miter; stroke-linecap: square"/>
   </g>
   <g id="patch_5">
    <path d="M 57.08 172.3975 
L 277.2 172.3975 
" style="fill: none; stroke: #000000; stroke-width: 0.8; stroke-linejoin: miter; stroke-linecap: square"/>
   </g>
   <g id="patch_6">
    <path d="M 57.08 10.8 
L 277.2 10.8 
" style="fill: none; stroke: #000000; stroke-width: 0.8; stroke-linejoin: miter; stroke-linecap: square"/>
   </g>
   <g id="legend_1">
    <g id="patch_7">
     <path d="M 64.08 167.3975 
L 144.08 167.3975 
Q 146.08 167.3975 146.08 165.3975 
L 146.08 122.363125 
Q 146.08 120.363125 144.08 120.363125 
L 64.08 120.363125 
Q 62.08 120.363125 62.08 122.363125 
L 62.08 165.3975 
Q 62.08 167.3975 64.08 167.3975 
z
" style="fill: #ffffff; opacity: 0.8; stroke: #cccccc; stroke-linejoin: miter"/>
    </g>
    <g id="line2d_24">
     <path d="M 66.08 128.461562 
L 76.08 128.461562 
L 86.08 128.461562 
" style="fill: none; stroke: #000080; stroke-width: 1.5; stroke-linecap: square"/>
    </g>
    <g id="text_13">
     <!-- $\delta_e = -10$ -->
     <g transform="translate(94.08 131.961562) scale(0.1 -0.1)">
      <defs>
       <path id="DejaVuSans-Oblique-3b4" d="M 3472 4053 
Q 3197 4272 2450 4272 
Q 1659 4272 1588 3906 
Q 1531 3619 2328 3469 
Q 2953 3353 3253 3003 
Q 3616 2581 3447 1716 
Q 3284 888 2763 400 
Q 2238 -91 1488 -91 
Q 741 -91 406 400 
Q 72 888 241 1747 
Q 363 2384 891 2900 
Q 1097 3100 1353 3213 
Q 913 3459 1000 3900 
Q 1166 4750 2544 4750 
Q 3234 4750 3566 4531 
L 3472 4053 
z
M 1753 3056 
Q 1525 2966 1306 2738 
Q 969 2384 847 1747 
Q 722 1113 919 756 
Q 1119 397 1584 397 
Q 2044 397 2381 759 
Q 2722 1122 2838 1716 
Q 2956 2338 2731 2638 
Q 2491 2959 2103 2994 
Q 1906 3013 1753 3056 
z
" transform="scale(0.015625)"/>
       <path id="DejaVuSans-Oblique-65" d="M 3078 2063 
Q 3088 2113 3092 2166 
Q 3097 2219 3097 2272 
Q 3097 2653 2873 2875 
Q 2650 3097 2266 3097 
Q 1838 3097 1509 2826 
Q 1181 2556 1013 2059 
L 3078 2063 
z
M 3578 1613 
L 903 1613 
Q 884 1494 878 1425 
Q 872 1356 872 1306 
Q 872 872 1139 634 
Q 1406 397 1894 397 
Q 2269 397 2603 481 
Q 2938 566 3225 728 
L 3116 159 
Q 2806 34 2476 -28 
Q 2147 -91 1806 -91 
Q 1078 -91 686 257 
Q 294 606 294 1247 
Q 294 1794 489 2264 
Q 684 2734 1063 3103 
Q 1306 3334 1642 3459 
Q 1978 3584 2356 3584 
Q 2950 3584 3301 3228 
Q 3653 2872 3653 2272 
Q 3653 2128 3634 1964 
Q 3616 1800 3578 1613 
z
" transform="scale(0.015625)"/>
       <path id="DejaVuSans-3d" d="M 678 2906 
L 4684 2906 
L 4684 2381 
L 678 2381 
L 678 2906 
z
M 678 1631 
L 4684 1631 
L 4684 1100 
L 678 1100 
L 678 1631 
z
" transform="scale(0.015625)"/>
      </defs>
      <use xlink:href="#DejaVuSans-Oblique-3b4" transform="translate(0 0.78125)"/>
      <use xlink:href="#DejaVuSans-Oblique-65" transform="translate(61.181641 -15.625) scale(0.7)"/>
      <use xlink:href="#DejaVuSans-3d" transform="translate(126.464844 0.78125)"/>
      <use xlink:href="#DejaVuSans-2212" transform="translate(249.21875 0.78125)"/>
      <use xlink:href="#DejaVuSans-31" transform="translate(352.490234 0.78125)"/>
      <use xlink:href="#DejaVuSans-30" transform="translate(416.113281 0.78125)"/>
     </g>
    </g>
    <g id="line2d_25">
     <path d="M 66.08 143.139687 
L 76.08 143.139687 
L 86.08 143.139687 
" style="fill: none; stroke: #7dff7a; stroke-width: 1.5; stroke-linecap: square"/>
    </g>
    <g id="text_14">
     <!-- $\delta_e = 0$ -->
     <g transform="translate(94.08 146.639687) scale(0.1 -0.1)">
      <use xlink:href="#DejaVuSans-Oblique-3b4" transform="translate(0 0.78125)"/>
      <use xlink:href="#DejaVuSans-Oblique-65" transform="translate(61.181641 -15.625) scale(0.7)"/>
      <use xlink:href="#DejaVuSans-3d" transform="translate(126.464844 0.78125)"/>
      <use xlink:href="#DejaVuSans-30" transform="translate(229.736328 0.78125)"/>
     </g>
    </g>
    <g id="line2d_26">
     <path d="M 66.08 157.817813 
L 76.08 157.817813 
L 86.08 157.817813 
" style="fill: none; stroke: #800000; stroke-width: 1.5; stroke-linecap: square"/>
    </g>
    <g id="text_15">
     <!-- $\delta_e = 10$ -->
     <g transform="translate(94.08 161.317813) scale(0.1 -0.1)">
      <use xlink:href="#DejaVuSans-Oblique-3b4" transform="translate(0 0.78125)"/>
      <use xlink:href="#DejaVuSans-Oblique-65" transform="translate(61.181641 -15.625) scale(0.7)"/>
      <use xlink:href="#DejaVuSans-3d" transform="translate(126.464844 0.78125)"/>
      <use xlink:href="#DejaVuSans-31" transform="translate(229.736328 0.78125)"/>
      <use xlink:href="#DejaVuSans-30" transform="translate(293.359375 0.78125)"/>
     </g>
    </g>
   </g>
  </g>
 </g>
 <defs>
  <clipPath id="ped3383b567">
   <rect x="57.08" y="10.8" width="220.12" height="161.5975"/>
  </clipPath>
 </defs>
</svg>
