<?xml version="1.0" encoding="utf-8" standalone="no"?>
<!DOCTYPE svg PUBLIC "-//W3C//DTD SVG 1.1//EN"
  "http://www.w3.org/Graphics/SVG/1.1/DTD/svg11.dtd">
<svg xmlns:xlink="http://www.w3.org/1999/xlink" width="576pt" height="216pt" viewBox="0 0 576 216" xmlns="http://www.w3.org/2000/svg" version="1.1">
 <metadata>
  <rdf:RDF xmlns:dc="http://purl.org/dc/elements/1.1/" xmlns:cc="http://creativecommons.org/ns#" xmlns:rdf="http://www.w3.org/1999/02/22-rdf-syntax-ns#">
   <cc:Work>
    <dc:type rdf:resource="http://purl.org/dc/dcmitype/StillImage"/>
    <dc:date>2025-03-27T17:43:41.067683</dc:date>
    <dc:format>image/svg+xml</dc:format>
    <dc:creator>
     <cc:Agent>
      <dc:title>Matplotlib v3.9.2, https://matplotlib.org/</dc:title>
     </cc:Agent>
    </dc:creator>
   </cc:Work>
  </rdf:RDF>
 </metadata>
 <defs>
  <style type="text/css">*{stroke-linejoin: round; stroke-linecap: butt}</style>
 </defs>
 <g id="figure_1">
  <g id="patch_1">
   <path d="M 0 216 
L 576 216 
L 576 0 
L 0 0 
z
" style="fill: #ffffff"/>
  </g>
  <g id="axes_1">
   <g id="patch_2">
    <path d="M 69.428 174.04 
L 450.255247 174.04 
L 450.255247 10.8 
L 69.428 10.8 
z
" style="fill: #ffffff"/>
   </g>
   <g id="matplotlib.axis_1">
    <g id="xtick_1">
     <g id="line2d_1">
      <path d="M 86.738329 174.04 
L 86.738329 10.8 
" clip-path="url(#p8cb5b284d9)" style="fill: none; stroke: #b0b0b0; stroke-width: 0.8; stroke-linecap: square"/>
     </g>
     <g id="line2d_2">
      <defs>
       <path id="m649651adad" d="M 0 0 
L 0 3.5 
" style="stroke: #000000; stroke-width: 0.8"/>
      </defs>
      <g>
       <use xlink:href="#m649651adad" x="86.738329" y="174.04" style="stroke: #000000; stroke-width: 0.8"/>
      </g>
     </g>
     <g id="text_1">
      <!-- −4 -->
      <g transform="translate(79.367236 188.638438) scale(0.1 -0.1)">
       <defs>
        <path id="DejaVuSans-2212" d="M 678 2272 
L 4684 2272 
L 4684 1741 
L 678 1741 
L 678 2272 
z
" transform="scale(0.015625)"/>
        <path id="DejaVuSans-34" d="M 2419 4116 
L 825 1625 
L 2419 1625 
L 2419 4116 
z
M 2253 4666 
L 3047 4666 
L 3047 1625 
L 3713 1625 
L 3713 1100 
L 3047 1100 
L 3047 0 
L 2419 0 
L 2419 1100 
L 313 1100 
L 313 1709 
L 2253 4666 
z
" transform="scale(0.015625)"/>
       </defs>
       <use xlink:href="#DejaVuSans-2212"/>
       <use xlink:href="#DejaVuSans-34" x="83.789062"/>
      </g>
     </g>
    </g>
    <g id="xtick_2">
     <g id="line2d_3">
      <path d="M 149.684982 174.04 
L 149.684982 10.8 
" clip-path="url(#p8cb5b284d9)" style="fill: none; stroke: #b0b0b0; stroke-width: 0.8; stroke-linecap: square"/>
     </g>
     <g id="line2d_4">
      <g>
       <use xlink:href="#m649651adad" x="149.684982" y="174.04" style="stroke: #000000; stroke-width: 0.8"/>
      </g>
     </g>
     <g id="text_2">
      <!-- −2 -->
      <g transform="translate(142.313888 188.638438) scale(0.1 -0.1)">
       <defs>
        <path id="DejaVuSans-32" d="M 1228 531 
L 3431 531 
L 3431 0 
L 469 0 
L 469 531 
Q 828 903 1448 1529 
Q 2069 2156 2228 2338 
Q 2531 2678 2651 2914 
Q 2772 3150 2772 3378 
Q 2772 3750 2511 3984 
Q 2250 4219 1831 4219 
Q 1534 4219 1204 4116 
Q 875 4013 500 3803 
L 500 4441 
Q 881 4594 1212 4672 
Q 1544 4750 1819 4750 
Q 2544 4750 2975 4387 
Q 3406 4025 3406 3419 
Q 3406 3131 3298 2873 
Q 3191 2616 2906 2266 
Q 2828 2175 2409 1742 
Q 1991 1309 1228 531 
z
" transform="scale(0.015625)"/>
       </defs>
       <use xlink:href="#DejaVuSans-2212"/>
       <use xlink:href="#DejaVuSans-32" x="83.789062"/>
      </g>
     </g>
    </g>
    <g id="xtick_3">
     <g id="line2d_5">
      <path d="M 212.631634 174.04 
L 212.631634 10.8 
" clip-path="url(#p8cb5b284d9)" style="fill: none; stroke: #b0b0b0; stroke-width: 0.8; stroke-linecap: square"/>
     </g>
     <g id="line2d_6">
      <g>
       <use xlink:href="#m649651adad" x="212.631634" y="174.04" style="stroke: #000000; stroke-width: 0.8"/>
      </g>
     </g>
     <g id="text_3">
      <!-- 0 -->
      <g transform="translate(209.450384 188.638438) scale(0.1 -0.1)">
       <defs>
        <path id="DejaVuSans-30" d="M 2034 4250 
Q 1547 4250 1301 3770 
Q 1056 3291 1056 2328 
Q 1056 1369 1301 889 
Q 1547 409 2034 409 
Q 2525 409 2770 889 
Q 3016 1369 3016 2328 
Q 3016 3291 2770 3770 
Q 2525 4250 2034 4250 
z
M 2034 4750 
Q 2819 4750 3233 4129 
Q 3647 3509 3647 2328 
Q 3647 1150 3233 529 
Q 2819 -91 2034 -91 
Q 1250 -91 836 529 
Q 422 1150 422 2328 
Q 422 3509 836 4129 
Q 1250 4750 2034 4750 
z
" transform="scale(0.015625)"/>
       </defs>
       <use xlink:href="#DejaVuSans-30"/>
      </g>
     </g>
    </g>
    <g id="xtick_4">
     <g id="line2d_7">
      <path d="M 275.578287 174.04 
L 275.578287 10.8 
" clip-path="url(#p8cb5b284d9)" style="fill: none; stroke: #b0b0b0; stroke-width: 0.8; stroke-linecap: square"/>
     </g>
     <g id="line2d_8">
      <g>
       <use xlink:href="#m649651adad" x="275.578287" y="174.04" style="stroke: #000000; stroke-width: 0.8"/>
      </g>
     </g>
     <g id="text_4">
      <!-- 2 -->
      <g transform="translate(272.397037 188.638438) scale(0.1 -0.1)">
       <use xlink:href="#DejaVuSans-32"/>
      </g>
     </g>
    </g>
    <g id="xtick_5">
     <g id="line2d_9">
      <path d="M 338.524939 174.04 
L 338.524939 10.8 
" clip-path="url(#p8cb5b284d9)" style="fill: none; stroke: #b0b0b0; stroke-width: 0.8; stroke-linecap: square"/>
     </g>
     <g id="line2d_10">
      <g>
       <use xlink:href="#m649651adad" x="338.524939" y="174.04" style="stroke: #000000; stroke-width: 0.8"/>
      </g>
     </g>
     <g id="text_5">
      <!-- 4 -->
      <g transform="translate(335.343689 188.638438) scale(0.1 -0.1)">
       <use xlink:href="#DejaVuSans-34"/>
      </g>
     </g>
    </g>
    <g id="xtick_6">
     <g id="line2d_11">
      <path d="M 401.471592 174.04 
L 401.471592 10.8 
" clip-path="url(#p8cb5b284d9)" style="fill: none; stroke: #b0b0b0; stroke-width: 0.8; stroke-linecap: square"/>
     </g>
     <g id="line2d_12">
      <g>
       <use xlink:href="#m649651adad" x="401.471592" y="174.04" style="stroke: #000000; stroke-width: 0.8"/>
      </g>
     </g>
     <g id="text_6">
      <!-- 6 -->
      <g transform="translate(398.290342 188.638438) scale(0.1 -0.1)">
       <defs>
        <path id="DejaVuSans-36" d="M 2113 2584 
Q 1688 2584 1439 2293 
Q 1191 2003 1191 1497 
Q 1191 994 1439 701 
Q 1688 409 2113 409 
Q 2538 409 2786 701 
Q 3034 994 3034 1497 
Q 3034 2003 2786 2293 
Q 2538 2584 2113 2584 
z
M 3366 4563 
L 3366 3988 
Q 3128 4100 2886 4159 
Q 2644 4219 2406 4219 
Q 1781 4219 1451 3797 
Q 1122 3375 1075 2522 
Q 1259 2794 1537 2939 
Q 1816 3084 2150 3084 
Q 2853 3084 3261 2657 
Q 3669 2231 3669 1497 
Q 3669 778 3244 343 
Q 2819 -91 2113 -91 
Q 1303 -91 875 529 
Q 447 1150 447 2328 
Q 447 3434 972 4092 
Q 1497 4750 2381 4750 
Q 2619 4750 2861 4703 
Q 3103 4656 3366 4563 
z
" transform="scale(0.015625)"/>
       </defs>
       <use xlink:href="#DejaVuSans-36"/>
      </g>
     </g>
    </g>
    <g id="text_7">
     <!-- $\alpha$ -->
     <g transform="translate(256.541624 202.316563) scale(0.1 -0.1)">
      <defs>
       <path id="DejaVuSans-Oblique-3b1" d="M 2619 1628 
L 2622 2350 
Q 2625 3088 2069 3091 
Q 1653 3094 1394 2747 
Q 1069 2319 959 1747 
Q 825 1059 994 731 
Q 1169 397 1547 397 
Q 1966 397 2319 1063 
L 2619 1628 
z
M 2166 3578 
Q 3141 3594 3128 2584 
Q 3128 2584 3616 3500 
L 4128 3500 
L 3119 1603 
L 3109 919 
Q 3109 766 3194 638 
Q 3291 488 3391 488 
L 3669 488 
L 3575 0 
L 3228 0 
Q 2934 0 2722 263 
Q 2622 394 2619 669 
Q 2416 334 2066 50 
Q 1900 -81 1453 -78 
Q 722 -72 456 397 
Q 184 884 353 1747 
Q 534 2675 1009 3097 
Q 1544 3569 2166 3578 
z
" transform="scale(0.015625)"/>
      </defs>
      <use xlink:href="#DejaVuSans-Oblique-3b1" transform="translate(0 0.84375)"/>
     </g>
    </g>
   </g>
   <g id="matplotlib.axis_2">
    <g id="ytick_1">
     <g id="line2d_13">
      <path d="M 69.428 151.854231 
L 450.255247 151.854231 
" clip-path="url(#p8cb5b284d9)" style="fill: none; stroke: #b0b0b0; stroke-width: 0.8; stroke-linecap: square"/>
     </g>
     <g id="line2d_14">
      <defs>
       <path id="m7256b20509" d="M 0 0 
L -3.5 0 
" style="stroke: #000000; stroke-width: 0.8"/>
      </defs>
      <g>
       <use xlink:href="#m7256b20509" x="69.428" y="151.854231" style="stroke: #000000; stroke-width: 0.8"/>
      </g>
     </g>
     <g id="text_8">
      <!-- 0.0080 -->
      <g transform="translate(27.437375 155.65345) scale(0.1 -0.1)">
       <defs>
        <path id="DejaVuSans-2e" d="M 684 794 
L 1344 794 
L 1344 0 
L 684 0 
L 684 794 
z
" transform="scale(0.015625)"/>
        <path id="DejaVuSans-38" d="M 2034 2216 
Q 1584 2216 1326 1975 
Q 1069 1734 1069 1313 
Q 1069 891 1326 650 
Q 1584 409 2034 409 
Q 2484 409 2743 651 
Q 3003 894 3003 1313 
Q 3003 1734 2745 1975 
Q 2488 2216 2034 2216 
z
M 1403 2484 
Q 997 2584 770 2862 
Q 544 3141 544 3541 
Q 544 4100 942 4425 
Q 1341 4750 2034 4750 
Q 2731 4750 3128 4425 
Q 3525 4100 3525 3541 
Q 3525 3141 3298 2862 
Q 3072 2584 2669 2484 
Q 3125 2378 3379 2068 
Q 3634 1759 3634 1313 
Q 3634 634 3220 271 
Q 2806 -91 2034 -91 
Q 1263 -91 848 271 
Q 434 634 434 1313 
Q 434 1759 690 2068 
Q 947 2378 1403 2484 
z
M 1172 3481 
Q 1172 3119 1398 2916 
Q 1625 2713 2034 2713 
Q 2441 2713 2670 2916 
Q 2900 3119 2900 3481 
Q 2900 3844 2670 4047 
Q 2441 4250 2034 4250 
Q 1625 4250 1398 4047 
Q 1172 3844 1172 3481 
z
" transform="scale(0.015625)"/>
       </defs>
       <use xlink:href="#DejaVuSans-30"/>
       <use xlink:href="#DejaVuSans-2e" x="63.623047"/>
       <use xlink:href="#DejaVuSans-30" x="95.410156"/>
       <use xlink:href="#DejaVuSans-30" x="159.033203"/>
       <use xlink:href="#DejaVuSans-38" x="222.65625"/>
       <use xlink:href="#DejaVuSans-30" x="286.279297"/>
      </g>
     </g>
    </g>
    <g id="ytick_2">
     <g id="line2d_15">
      <path d="M 69.428 121.038849 
L 450.255247 121.038849 
" clip-path="url(#p8cb5b284d9)" style="fill: none; stroke: #b0b0b0; stroke-width: 0.8; stroke-linecap: square"/>
     </g>
     <g id="line2d_16">
      <g>
       <use xlink:href="#m7256b20509" x="69.428" y="121.038849" style="stroke: #000000; stroke-width: 0.8"/>
      </g>
     </g>
     <g id="text_9">
      <!-- 0.0085 -->
      <g transform="translate(27.437375 124.838067) scale(0.1 -0.1)">
       <defs>
        <path id="DejaVuSans-35" d="M 691 4666 
L 3169 4666 
L 3169 4134 
L 1269 4134 
L 1269 2991 
Q 1406 3038 1543 3061 
Q 1681 3084 1819 3084 
Q 2600 3084 3056 2656 
Q 3513 2228 3513 1497 
Q 3513 744 3044 326 
Q 2575 -91 1722 -91 
Q 1428 -91 1123 -41 
Q 819 9 494 109 
L 494 744 
Q 775 591 1075 516 
Q 1375 441 1709 441 
Q 2250 441 2565 725 
Q 2881 1009 2881 1497 
Q 2881 1984 2565 2268 
Q 2250 2553 1709 2553 
Q 1456 2553 1204 2497 
Q 953 2441 691 2322 
L 691 4666 
z
" transform="scale(0.015625)"/>
       </defs>
       <use xlink:href="#DejaVuSans-30"/>
       <use xlink:href="#DejaVuSans-2e" x="63.623047"/>
       <use xlink:href="#DejaVuSans-30" x="95.410156"/>
       <use xlink:href="#DejaVuSans-30" x="159.033203"/>
       <use xlink:href="#DejaVuSans-38" x="222.65625"/>
       <use xlink:href="#DejaVuSans-35" x="286.279297"/>
      </g>
     </g>
    </g>
    <g id="ytick_3">
     <g id="line2d_17">
      <path d="M 69.428 90.223466 
L 450.255247 90.223466 
" clip-path="url(#p8cb5b284d9)" style="fill: none; stroke: #b0b0b0; stroke-width: 0.8; stroke-linecap: square"/>
     </g>
     <g id="line2d_18">
      <g>
       <use xlink:href="#m7256b20509" x="69.428" y="90.223466" style="stroke: #000000; stroke-width: 0.8"/>
      </g>
     </g>
     <g id="text_10">
      <!-- 0.0090 -->
      <g transform="translate(27.437375 94.022685) scale(0.1 -0.1)">
       <defs>
        <path id="DejaVuSans-39" d="M 703 97 
L 703 672 
Q 941 559 1184 500 
Q 1428 441 1663 441 
Q 2288 441 2617 861 
Q 2947 1281 2994 2138 
Q 2813 1869 2534 1725 
Q 2256 1581 1919 1581 
Q 1219 1581 811 2004 
Q 403 2428 403 3163 
Q 403 3881 828 4315 
Q 1253 4750 1959 4750 
Q 2769 4750 3195 4129 
Q 3622 3509 3622 2328 
Q 3622 1225 3098 567 
Q 2575 -91 1691 -91 
Q 1453 -91 1209 -44 
Q 966 3 703 97 
z
M 1959 2075 
Q 2384 2075 2632 2365 
Q 2881 2656 2881 3163 
Q 2881 3666 2632 3958 
Q 2384 4250 1959 4250 
Q 1534 4250 1286 3958 
Q 1038 3666 1038 3163 
Q 1038 2656 1286 2365 
Q 1534 2075 1959 2075 
z
" transform="scale(0.015625)"/>
       </defs>
       <use xlink:href="#DejaVuSans-30"/>
       <use xlink:href="#DejaVuSans-2e" x="63.623047"/>
       <use xlink:href="#DejaVuSans-30" x="95.410156"/>
       <use xlink:href="#DejaVuSans-30" x="159.033203"/>
       <use xlink:href="#DejaVuSans-39" x="222.65625"/>
       <use xlink:href="#DejaVuSans-30" x="286.279297"/>
      </g>
     </g>
    </g>
    <g id="ytick_4">
     <g id="line2d_19">
      <path d="M 69.428 59.408083 
L 450.255247 59.408083 
" clip-path="url(#p8cb5b284d9)" style="fill: none; stroke: #b0b0b0; stroke-width: 0.8; stroke-linecap: square"/>
     </g>
     <g id="line2d_20">
      <g>
       <use xlink:href="#m7256b20509" x="69.428" y="59.408083" style="stroke: #000000; stroke-width: 0.8"/>
      </g>
     </g>
     <g id="text_11">
      <!-- 0.0095 -->
      <g transform="translate(27.437375 63.207302) scale(0.1 -0.1)">
       <use xlink:href="#DejaVuSans-30"/>
       <use xlink:href="#DejaVuSans-2e" x="63.623047"/>
       <use xlink:href="#DejaVuSans-30" x="95.410156"/>
       <use xlink:href="#DejaVuSans-30" x="159.033203"/>
       <use xlink:href="#DejaVuSans-39" x="222.65625"/>
       <use xlink:href="#DejaVuSans-35" x="286.279297"/>
      </g>
     </g>
    </g>
    <g id="ytick_5">
     <g id="line2d_21">
      <path d="M 69.428 28.592701 
L 450.255247 28.592701 
" clip-path="url(#p8cb5b284d9)" style="fill: none; stroke: #b0b0b0; stroke-width: 0.8; stroke-linecap: square"/>
     </g>
     <g id="line2d_22">
      <g>
       <use xlink:href="#m7256b20509" x="69.428" y="28.592701" style="stroke: #000000; stroke-width: 0.8"/>
      </g>
     </g>
     <g id="text_12">
      <!-- 0.0100 -->
      <g transform="translate(27.437375 32.391919) scale(0.1 -0.1)">
       <defs>
        <path id="DejaVuSans-31" d="M 794 531 
L 1825 531 
L 1825 4091 
L 703 3866 
L 703 4441 
L 1819 4666 
L 2450 4666 
L 2450 531 
L 3481 531 
L 3481 0 
L 794 0 
L 794 531 
z
" transform="scale(0.015625)"/>
       </defs>
       <use xlink:href="#DejaVuSans-30"/>
       <use xlink:href="#DejaVuSans-2e" x="63.623047"/>
       <use xlink:href="#DejaVuSans-30" x="95.410156"/>
       <use xlink:href="#DejaVuSans-31" x="159.033203"/>
       <use xlink:href="#DejaVuSans-30" x="222.65625"/>
       <use xlink:href="#DejaVuSans-30" x="286.279297"/>
      </g>
     </g>
    </g>
    <g id="text_13">
     <!-- d$C_L$ / d$\delta_e$ -->
     <g transform="translate(21.357688 114.57) rotate(-90) scale(0.1 -0.1)">
      <defs>
       <path id="DejaVuSans-64" d="M 2906 2969 
L 2906 4863 
L 3481 4863 
L 3481 0 
L 2906 0 
L 2906 525 
Q 2725 213 2448 61 
Q 2172 -91 1784 -91 
Q 1150 -91 751 415 
Q 353 922 353 1747 
Q 353 2572 751 3078 
Q 1150 3584 1784 3584 
Q 2172 3584 2448 3432 
Q 2725 3281 2906 2969 
z
M 947 1747 
Q 947 1113 1208 752 
Q 1469 391 1925 391 
Q 2381 391 2643 752 
Q 2906 1113 2906 1747 
Q 2906 2381 2643 2742 
Q 2381 3103 1925 3103 
Q 1469 3103 1208 2742 
Q 947 2381 947 1747 
z
" transform="scale(0.015625)"/>
       <path id="DejaVuSans-Oblique-43" d="M 4447 4306 
L 4319 3641 
Q 4019 3944 3683 4091 
Q 3347 4238 2956 4238 
Q 2422 4238 2017 3981 
Q 1613 3725 1319 3200 
Q 1131 2863 1032 2486 
Q 934 2109 934 1728 
Q 934 1091 1264 756 
Q 1594 422 2222 422 
Q 2656 422 3056 561 
Q 3456 700 3834 978 
L 3688 231 
Q 3316 72 2936 -9 
Q 2556 -91 2175 -91 
Q 1278 -91 773 396 
Q 269 884 269 1753 
Q 269 2309 461 2846 
Q 653 3384 1013 3828 
Q 1394 4300 1883 4525 
Q 2372 4750 3022 4750 
Q 3422 4750 3780 4639 
Q 4138 4528 4447 4306 
z
" transform="scale(0.015625)"/>
       <path id="DejaVuSans-Oblique-4c" d="M 1075 4666 
L 1709 4666 
L 909 525 
L 3181 525 
L 3078 0 
L 172 0 
L 1075 4666 
z
" transform="scale(0.015625)"/>
       <path id="DejaVuSans-20" transform="scale(0.015625)"/>
       <path id="DejaVuSans-2f" d="M 1625 4666 
L 2156 4666 
L 531 -594 
L 0 -594 
L 1625 4666 
z
" transform="scale(0.015625)"/>
       <path id="DejaVuSans-Oblique-3b4" d="M 3472 4053 
Q 3197 4272 2450 4272 
Q 1659 4272 1588 3906 
Q 1531 3619 2328 3469 
Q 2953 3353 3253 3003 
Q 3616 2581 3447 1716 
Q 3284 888 2763 400 
Q 2238 -91 1488 -91 
Q 741 -91 406 400 
Q 72 888 241 1747 
Q 363 2384 891 2900 
Q 1097 3100 1353 3213 
Q 913 3459 1000 3900 
Q 1166 4750 2544 4750 
Q 3234 4750 3566 4531 
L 3472 4053 
z
M 1753 3056 
Q 1525 2966 1306 2738 
Q 969 2384 847 1747 
Q 722 1113 919 756 
Q 1119 397 1584 397 
Q 2044 397 2381 759 
Q 2722 1122 2838 1716 
Q 2956 2338 2731 2638 
Q 2491 2959 2103 2994 
Q 1906 3013 1753 3056 
z
" transform="scale(0.015625)"/>
       <path id="DejaVuSans-Oblique-65" d="M 3078 2063 
Q 3088 2113 3092 2166 
Q 3097 2219 3097 2272 
Q 3097 2653 2873 2875 
Q 2650 3097 2266 3097 
Q 1838 3097 1509 2826 
Q 1181 2556 1013 2059 
L 3078 2063 
z
M 3578 1613 
L 903 1613 
Q 884 1494 878 1425 
Q 872 1356 872 1306 
Q 872 872 1139 634 
Q 1406 397 1894 397 
Q 2269 397 2603 481 
Q 2938 566 3225 728 
L 3116 159 
Q 2806 34 2476 -28 
Q 2147 -91 1806 -91 
Q 1078 -91 686 257 
Q 294 606 294 1247 
Q 294 1794 489 2264 
Q 684 2734 1063 3103 
Q 1306 3334 1642 3459 
Q 1978 3584 2356 3584 
Q 2950 3584 3301 3228 
Q 3653 2872 3653 2272 
Q 3653 2128 3634 1964 
Q 3616 1800 3578 1613 
z
" transform="scale(0.015625)"/>
      </defs>
      <use xlink:href="#DejaVuSans-64" transform="translate(0 0.015625)"/>
      <use xlink:href="#DejaVuSans-Oblique-43" transform="translate(63.476562 0.015625)"/>
      <use xlink:href="#DejaVuSans-Oblique-4c" transform="translate(133.300781 -16.390625) scale(0.7)"/>
      <use xlink:href="#DejaVuSans-20" transform="translate(175.03418 0.015625)"/>
      <use xlink:href="#DejaVuSans-2f" transform="translate(206.821289 0.015625)"/>
      <use xlink:href="#DejaVuSans-20" transform="translate(240.512695 0.015625)"/>
      <use xlink:href="#DejaVuSans-64" transform="translate(272.299805 0.015625)"/>
      <use xlink:href="#DejaVuSans-Oblique-3b4" transform="translate(335.776367 0.015625)"/>
      <use xlink:href="#DejaVuSans-Oblique-65" transform="translate(396.958008 -16.390625) scale(0.7)"/>
     </g>
    </g>
   </g>
   <g id="line2d_23">
    <path d="M 86.738329 33.653012 
L 90.235366 32.662074 
L 93.732402 31.704008 
L 97.229438 30.778816 
L 100.726474 29.886498 
L 104.223511 29.027052 
L 107.720547 28.20048 
L 111.217583 27.406782 
L 114.714619 26.645956 
L 118.211656 25.918004 
L 121.708692 25.222925 
L 125.205728 24.56072 
L 128.702764 23.931387 
L 132.199801 23.334928 
L 135.696837 22.771343 
L 139.193873 22.24063 
L 142.690909 21.742791 
L 146.187946 21.277825 
L 149.684982 20.845733 
L 153.182018 20.446514 
L 156.679054 20.080168 
L 160.176091 19.746695 
L 163.673127 19.446096 
L 167.170163 19.17837 
L 170.667199 18.943517 
L 174.164236 18.741537 
L 177.661272 18.572431 
L 181.158308 18.436198 
L 184.655344 18.332839 
L 188.152381 18.262353 
L 191.649417 18.22474 
L 195.146453 18.22 
L 198.643489 18.248134 
L 202.140526 18.309141 
L 205.637562 18.403021 
L 209.134598 18.529774 
L 212.631634 18.689401 
L 216.128671 18.881901 
L 219.625707 19.107275 
L 223.122743 19.365521 
L 226.619779 19.656641 
L 230.116816 19.980634 
L 233.613852 20.337501 
L 237.110888 20.727241 
L 240.607924 21.149854 
L 244.104961 21.60534 
L 247.601997 22.0937 
L 251.099033 22.614933 
L 254.596069 23.16904 
L 258.093106 23.756019 
L 261.590142 24.375872 
L 265.087178 25.028598 
L 268.584214 25.714198 
L 272.081251 26.432671 
L 275.578287 27.184017 
L 279.075323 27.968236 
L 282.572359 28.785329 
L 286.069396 29.635295 
L 289.566432 30.518134 
L 293.063468 31.433847 
L 296.560504 32.382433 
L 300.057541 33.363892 
L 303.554577 34.378224 
L 307.051613 35.42543 
L 310.548649 36.505509 
L 314.045686 37.618461 
L 317.542722 38.764287 
L 321.039758 39.942986 
L 324.536794 41.154558 
L 328.033831 42.399004 
L 331.530867 43.676322 
L 335.027903 44.986515 
L 338.524939 46.32958 
L 342.021976 47.705519 
L 345.519012 49.114331 
L 349.016048 50.556016 
L 352.513084 52.030575 
L 356.010121 53.538006 
L 359.507157 55.078312 
L 363.004193 56.65149 
L 366.501229 58.257542 
L 369.998266 59.896467 
L 373.495302 61.568265 
L 376.992338 63.272937 
L 380.489374 65.010482 
L 383.986411 66.7809 
L 387.483447 68.584192 
L 390.980483 70.420356 
L 394.477519 72.289395 
L 397.974556 74.191306 
L 401.471592 76.126091 
L 404.968628 78.093749 
L 408.465664 80.09428 
L 411.962701 82.127685 
L 415.459737 84.193963 
L 418.956773 86.293114 
L 422.453809 88.425138 
L 425.950846 90.590036 
L 429.447882 92.787807 
L 432.944918 95.018451 
" clip-path="url(#p8cb5b284d9)" style="fill: none; stroke: #000080; stroke-width: 1.5; stroke-linecap: square"/>
   </g>
   <g id="line2d_24">
    <path d="M 86.738329 54.811258 
L 90.235366 54.612559 
L 93.732402 54.435312 
L 97.229438 54.279516 
L 100.726474 54.145172 
L 104.223511 54.032279 
L 107.720547 53.940838 
L 111.217583 53.870848 
L 114.714619 53.82231 
L 118.211656 53.795224 
L 121.708692 53.789589 
L 125.205728 53.805405 
L 128.702764 53.842673 
L 132.199801 53.901393 
L 135.696837 53.981564 
L 139.193873 54.083187 
L 142.690909 54.206261 
L 146.187946 54.350787 
L 149.684982 54.516764 
L 153.182018 54.704193 
L 156.679054 54.913073 
L 160.176091 55.143405 
L 163.673127 55.395189 
L 167.170163 55.668424 
L 170.667199 55.963111 
L 174.164236 56.279249 
L 177.661272 56.616838 
L 181.158308 56.97588 
L 184.655344 57.356372 
L 188.152381 57.758317 
L 191.649417 58.181712 
L 195.146453 58.62656 
L 198.643489 59.092859 
L 202.140526 59.580609 
L 205.637562 60.089811 
L 209.134598 60.620465 
L 212.631634 61.17257 
L 216.128671 61.746126 
L 219.625707 62.341135 
L 223.122743 62.957594 
L 226.619779 63.595506 
L 230.116816 64.254868 
L 233.613852 64.935683 
L 237.110888 65.637949 
L 240.607924 66.361666 
L 244.104961 67.106835 
L 247.601997 67.873455 
L 251.099033 68.661527 
L 254.596069 69.471051 
L 258.093106 70.302026 
L 261.590142 71.154453 
L 265.087178 72.028331 
L 268.584214 72.923661 
L 272.081251 73.840442 
L 275.578287 74.778675 
L 279.075323 75.738359 
L 282.572359 76.719495 
L 286.069396 77.722082 
L 289.566432 78.746121 
L 293.063468 79.791612 
L 296.560504 80.858554 
L 300.057541 81.946948 
L 303.554577 83.056793 
L 307.051613 84.188089 
L 310.548649 85.340838 
L 314.045686 86.515037 
L 317.542722 87.710689 
L 321.039758 88.927791 
L 324.536794 90.166346 
L 328.033831 91.426352 
L 331.530867 92.707809 
L 335.027903 94.010718 
L 338.524939 95.335079 
L 342.021976 96.680891 
L 345.519012 98.048154 
L 349.016048 99.43687 
L 352.513084 100.847036 
L 356.010121 102.278655 
L 359.507157 103.731724 
L 363.004193 105.206246 
L 366.501229 106.702219 
L 369.998266 108.219643 
L 373.495302 109.758519 
L 376.992338 111.318846 
L 380.489374 112.900625 
L 383.986411 114.503856 
L 387.483447 116.128538 
L 390.980483 117.774672 
L 394.477519 119.442257 
L 397.974556 121.131294 
L 401.471592 122.841782 
L 404.968628 124.573722 
L 408.465664 126.327113 
L 411.962701 128.101956 
L 415.459737 129.898251 
L 418.956773 131.715997 
L 422.453809 133.555194 
L 425.950846 135.415843 
L 429.447882 137.297944 
L 432.944918 139.201496 
" clip-path="url(#p8cb5b284d9)" style="fill: none; stroke: #0080ff; stroke-width: 1.5; stroke-linecap: square"/>
   </g>
   <g id="line2d_25">
    <path d="M 86.738329 75.116297 
L 90.235366 75.468503 
L 93.732402 75.831651 
L 97.229438 76.205742 
L 100.726474 76.590776 
L 104.223511 76.986753 
L 107.720547 77.393673 
L 111.217583 77.811536 
L 114.714619 78.240342 
L 118.211656 78.68009 
L 121.708692 79.130782 
L 125.205728 79.592416 
L 128.702764 80.064994 
L 132.199801 80.548514 
L 135.696837 81.042977 
L 139.193873 81.548383 
L 142.690909 82.064732 
L 146.187946 82.592024 
L 149.684982 83.130259 
L 153.182018 83.679437 
L 156.679054 84.239557 
L 160.176091 84.810621 
L 163.673127 85.392627 
L 167.170163 85.985577 
L 170.667199 86.589469 
L 174.164236 87.204304 
L 177.661272 87.830082 
L 181.158308 88.466803 
L 184.655344 89.114467 
L 188.152381 89.773074 
L 191.649417 90.442623 
L 195.146453 91.123116 
L 198.643489 91.814552 
L 202.140526 92.51693 
L 205.637562 93.230251 
L 209.134598 93.954516 
L 212.631634 94.689723 
L 216.128671 95.435873 
L 219.625707 96.192966 
L 223.122743 96.961002 
L 226.619779 97.739981 
L 230.116816 98.529902 
L 233.613852 99.330767 
L 237.110888 100.142575 
L 240.607924 100.965325 
L 244.104961 101.799018 
L 247.601997 102.643655 
L 251.099033 103.499234 
L 254.596069 104.365756 
L 258.093106 105.243221 
L 261.590142 106.131629 
L 265.087178 107.030979 
L 268.584214 107.941273 
L 272.081251 108.86251 
L 275.578287 109.794689 
L 279.075323 110.737812 
L 282.572359 111.691877 
L 286.069396 112.656885 
L 289.566432 113.632837 
L 293.063468 114.619731 
L 296.560504 115.617568 
L 300.057541 116.626347 
L 303.554577 117.64607 
L 307.051613 118.676736 
L 310.548649 119.718345 
L 314.045686 120.770896 
L 317.542722 121.834391 
L 321.039758 122.908828 
L 324.536794 123.994208 
L 328.033831 125.090531 
L 331.530867 126.197797 
L 335.027903 127.316006 
L 338.524939 128.445158 
L 342.021976 129.585253 
L 345.519012 130.736291 
L 349.016048 131.898271 
L 352.513084 133.071195 
L 356.010121 134.255061 
L 359.507157 135.449871 
L 363.004193 136.655623 
L 366.501229 137.872318 
L 369.998266 139.099956 
L 373.495302 140.338537 
L 376.992338 141.588061 
L 380.489374 142.848528 
L 383.986411 144.119937 
L 387.483447 145.40229 
L 390.980483 146.695586 
L 394.477519 147.999824 
L 397.974556 149.315005 
L 401.471592 150.64113 
L 404.968628 151.978197 
L 408.465664 153.326207 
L 411.962701 154.68516 
L 415.459737 156.055056 
L 418.956773 157.435894 
L 422.453809 158.827676 
L 425.950846 160.230401 
L 429.447882 161.644068 
L 432.944918 163.068679 
" clip-path="url(#p8cb5b284d9)" style="fill: none; stroke: #7dff7a; stroke-width: 1.5; stroke-linecap: square"/>
   </g>
   <g id="line2d_26">
    <path d="M 86.738329 94.568131 
L 90.235366 95.229905 
L 93.732402 95.893027 
L 97.229438 96.557496 
L 100.726474 97.223312 
L 104.223511 97.890476 
L 107.720547 98.558987 
L 111.217583 99.228845 
L 114.714619 99.900051 
L 118.211656 100.572604 
L 121.708692 101.246505 
L 125.205728 101.921753 
L 128.702764 102.598349 
L 132.199801 103.276292 
L 135.696837 103.955582 
L 139.193873 104.63622 
L 142.690909 105.318205 
L 146.187946 106.001537 
L 149.684982 106.686217 
L 153.182018 107.372244 
L 156.679054 108.059619 
L 160.176091 108.748341 
L 163.673127 109.438411 
L 167.170163 110.129827 
L 170.667199 110.822592 
L 174.164236 111.516703 
L 177.661272 112.212162 
L 181.158308 112.908969 
L 184.655344 113.607123 
L 188.152381 114.306624 
L 191.649417 115.007473 
L 195.146453 115.709669 
L 198.643489 116.413212 
L 202.140526 117.118103 
L 205.637562 117.824341 
L 209.134598 118.531927 
L 212.631634 119.24086 
L 216.128671 119.951141 
L 219.625707 120.662768 
L 223.122743 121.375744 
L 226.619779 122.090066 
L 230.116816 122.805736 
L 233.613852 123.522754 
L 237.110888 124.241119 
L 240.607924 124.960831 
L 244.104961 125.681891 
L 247.601997 126.404298 
L 251.099033 127.128052 
L 254.596069 127.853154 
L 258.093106 128.579603 
L 261.590142 129.3074 
L 265.087178 130.036544 
L 268.584214 130.767036 
L 272.081251 131.498874 
L 275.578287 132.232061 
L 279.075323 132.966594 
L 282.572359 133.702475 
L 286.069396 134.439704 
L 289.566432 135.17828 
L 293.063468 135.918203 
L 296.560504 136.659474 
L 300.057541 137.402092 
L 303.554577 138.146057 
L 307.051613 138.89137 
L 310.548649 139.63803 
L 314.045686 140.386038 
L 317.542722 141.135393 
L 321.039758 141.886095 
L 324.536794 142.638145 
L 328.033831 143.391542 
L 331.530867 144.146287 
L 335.027903 144.902379 
L 338.524939 145.659818 
L 342.021976 146.418605 
L 345.519012 147.178739 
L 349.016048 147.940221 
L 352.513084 148.70305 
L 356.010121 149.467227 
L 359.507157 150.23275 
L 363.004193 150.999622 
L 366.501229 151.76784 
L 369.998266 152.537406 
L 373.495302 153.30832 
L 376.992338 154.080581 
L 380.489374 154.854189 
L 383.986411 155.629144 
L 387.483447 156.405447 
L 390.980483 157.183098 
L 394.477519 157.962096 
L 397.974556 158.742441 
L 401.471592 159.524133 
L 404.968628 160.307173 
L 408.465664 161.091561 
L 411.962701 161.877296 
L 415.459737 162.664378 
L 418.956773 163.452808 
L 422.453809 164.242585 
L 425.950846 165.033709 
L 429.447882 165.826181 
L 432.944918 166.62 
" clip-path="url(#p8cb5b284d9)" style="fill: none; stroke: #ff9400; stroke-width: 1.5; stroke-linecap: square"/>
   </g>
   <g id="line2d_27">
    <path d="M 86.738329 113.166759 
L 90.235366 113.896766 
L 93.732402 114.619439 
L 97.229438 115.334776 
L 100.726474 116.042779 
L 104.223511 116.743446 
L 107.720547 117.436778 
L 111.217583 118.122776 
L 114.714619 118.801438 
L 118.211656 119.472766 
L 121.708692 120.136758 
L 125.205728 120.793416 
L 128.702764 121.442738 
L 132.199801 122.084726 
L 135.696837 122.719378 
L 139.193873 123.346696 
L 142.690909 123.966678 
L 146.187946 124.579326 
L 149.684982 125.184638 
L 153.182018 125.782616 
L 156.679054 126.373259 
L 160.176091 126.956566 
L 163.673127 127.532539 
L 167.170163 128.101176 
L 170.667199 128.662479 
L 174.164236 129.216447 
L 177.661272 129.763079 
L 181.158308 130.302377 
L 184.655344 130.83434 
L 188.152381 131.358967 
L 191.649417 131.87626 
L 195.146453 132.386218 
L 198.643489 132.888841 
L 202.140526 133.384128 
L 205.637562 133.872081 
L 209.134598 134.352699 
L 212.631634 134.825982 
L 216.128671 135.291929 
L 219.625707 135.750542 
L 223.122743 136.20182 
L 226.619779 136.645763 
L 230.116816 137.082371 
L 233.613852 137.511644 
L 237.110888 137.933581 
L 240.607924 138.348184 
L 244.104961 138.755452 
L 247.601997 139.155385 
L 251.099033 139.547983 
L 254.596069 139.933246 
L 258.093106 140.311174 
L 261.590142 140.681767 
L 265.087178 141.045025 
L 268.584214 141.400948 
L 272.081251 141.749536 
L 275.578287 142.090789 
L 279.075323 142.424707 
L 282.572359 142.75129 
L 286.069396 143.070538 
L 289.566432 143.382451 
L 293.063468 143.687029 
L 296.560504 143.984272 
L 300.057541 144.27418 
L 303.554577 144.556753 
L 307.051613 144.831991 
L 310.548649 145.099894 
L 314.045686 145.360462 
L 317.542722 145.613695 
L 321.039758 145.859593 
L 324.536794 146.098157 
L 328.033831 146.329385 
L 331.530867 146.553278 
L 335.027903 146.769836 
L 338.524939 146.979059 
L 342.021976 147.180947 
L 345.519012 147.375501 
L 349.016048 147.562719 
L 352.513084 147.742602 
L 356.010121 147.91515 
L 359.507157 148.080364 
L 363.004193 148.238242 
L 366.501229 148.388785 
L 369.998266 148.531993 
L 373.495302 148.667867 
L 376.992338 148.796405 
L 380.489374 148.917608 
L 383.986411 149.031477 
L 387.483447 149.13801 
L 390.980483 149.237208 
L 394.477519 149.329072 
L 397.974556 149.4136 
L 401.471592 149.490794 
L 404.968628 149.560652 
L 408.465664 149.623175 
L 411.962701 149.678364 
L 415.459737 149.726217 
L 418.956773 149.766736 
L 422.453809 149.799919 
L 425.950846 149.825768 
L 429.447882 149.844281 
L 432.944918 149.85546 
" clip-path="url(#p8cb5b284d9)" style="fill: none; stroke: #800000; stroke-width: 1.5; stroke-linecap: square"/>
   </g>
   <g id="patch_3">
    <path d="M 69.428 174.04 
L 69.428 10.8 
" style="fill: none; stroke: #000000; stroke-width: 0.8; stroke-linejoin: miter; stroke-linecap: square"/>
   </g>
   <g id="patch_4">
    <path d="M 450.255247 174.04 
L 450.255247 10.8 
" style="fill: none; stroke: #000000; stroke-width: 0.8; stroke-linejoin: miter; stroke-linecap: square"/>
   </g>
   <g id="patch_5">
    <path d="M 69.428 174.04 
L 450.255247 174.04 
" style="fill: none; stroke: #000000; stroke-width: 0.8; stroke-linejoin: miter; stroke-linecap: square"/>
   </g>
   <g id="patch_6">
    <path d="M 69.428 10.8 
L 450.255247 10.8 
" style="fill: none; stroke: #000000; stroke-width: 0.8; stroke-linejoin: miter; stroke-linecap: square"/>
   </g>
   <g id="legend_1">
    <g id="patch_7">
     <path d="M 459.255247 162.878 
L 564.455247 162.878 
Q 566.455247 162.878 566.455247 160.878 
L 566.455247 88.385812 
Q 566.455247 86.385812 564.455247 86.385812 
L 459.255247 86.385812 
Q 457.255247 86.385812 457.255247 88.385812 
L 457.255247 160.878 
Q 457.255247 162.878 459.255247 162.878 
z
" style="fill: #4d4d4d; opacity: 0.5; stroke: #4d4d4d; stroke-linejoin: miter"/>
    </g>
    <g id="patch_8">
     <path d="M 457.255247 160.878 
L 562.455247 160.878 
Q 564.455247 160.878 564.455247 158.878 
L 564.455247 86.385812 
Q 564.455247 84.385812 562.455247 84.385812 
L 457.255247 84.385812 
Q 455.255247 84.385812 455.255247 86.385812 
L 455.255247 158.878 
Q 455.255247 160.878 457.255247 160.878 
z
" style="fill: #ffffff; stroke: #cccccc; stroke-linejoin: miter"/>
    </g>
    <g id="line2d_28">
     <path d="M 459.255247 92.48425 
L 469.255247 92.48425 
L 479.255247 92.48425 
" style="fill: none; stroke: #000080; stroke-width: 1.5; stroke-linecap: square"/>
    </g>
    <g id="text_14">
     <!-- $\delta_e = 0$, $J = 1.60$ -->
     <g transform="translate(487.255247 95.98425) scale(0.1 -0.1)">
      <defs>
       <path id="DejaVuSans-3d" d="M 678 2906 
L 4684 2906 
L 4684 2381 
L 678 2381 
L 678 2906 
z
M 678 1631 
L 4684 1631 
L 4684 1100 
L 678 1100 
L 678 1631 
z
" transform="scale(0.015625)"/>
       <path id="DejaVuSans-2c" d="M 750 794 
L 1409 794 
L 1409 256 
L 897 -744 
L 494 -744 
L 750 256 
L 750 794 
z
" transform="scale(0.015625)"/>
       <path id="DejaVuSans-Oblique-4a" d="M 1069 4666 
L 1703 4666 
L 856 325 
Q 691 -522 298 -901 
Q -94 -1281 -800 -1281 
L -1050 -1281 
L -947 -750 
L -750 -750 
Q -328 -750 -109 -509 
Q 109 -269 225 325 
L 1069 4666 
z
" transform="scale(0.015625)"/>
      </defs>
      <use xlink:href="#DejaVuSans-Oblique-3b4" transform="translate(0 0.78125)"/>
      <use xlink:href="#DejaVuSans-Oblique-65" transform="translate(61.181641 -15.625) scale(0.7)"/>
      <use xlink:href="#DejaVuSans-3d" transform="translate(126.464844 0.78125)"/>
      <use xlink:href="#DejaVuSans-30" transform="translate(229.736328 0.78125)"/>
      <use xlink:href="#DejaVuSans-2c" transform="translate(293.359375 0.78125)"/>
      <use xlink:href="#DejaVuSans-20" transform="translate(325.146484 0.78125)"/>
      <use xlink:href="#DejaVuSans-Oblique-4a" transform="translate(356.933594 0.78125)"/>
      <use xlink:href="#DejaVuSans-3d" transform="translate(405.908203 0.78125)"/>
      <use xlink:href="#DejaVuSans-31" transform="translate(509.179688 0.78125)"/>
      <use xlink:href="#DejaVuSans-2e" transform="translate(572.802734 0.78125)"/>
      <use xlink:href="#DejaVuSans-36" transform="translate(604.589844 0.78125)"/>
      <use xlink:href="#DejaVuSans-30" transform="translate(668.212891 0.78125)"/>
     </g>
    </g>
    <g id="line2d_29">
     <path d="M 459.255247 107.182688 
L 469.255247 107.182688 
L 479.255247 107.182688 
" style="fill: none; stroke: #0080ff; stroke-width: 1.5; stroke-linecap: square"/>
    </g>
    <g id="text_15">
     <!-- $\delta_e = 0$, $J = 1.80$ -->
     <g transform="translate(487.255247 110.682688) scale(0.1 -0.1)">
      <use xlink:href="#DejaVuSans-Oblique-3b4" transform="translate(0 0.78125)"/>
      <use xlink:href="#DejaVuSans-Oblique-65" transform="translate(61.181641 -15.625) scale(0.7)"/>
      <use xlink:href="#DejaVuSans-3d" transform="translate(126.464844 0.78125)"/>
      <use xlink:href="#DejaVuSans-30" transform="translate(229.736328 0.78125)"/>
      <use xlink:href="#DejaVuSans-2c" transform="translate(293.359375 0.78125)"/>
      <use xlink:href="#DejaVuSans-20" transform="translate(325.146484 0.78125)"/>
      <use xlink:href="#DejaVuSans-Oblique-4a" transform="translate(356.933594 0.78125)"/>
      <use xlink:href="#DejaVuSans-3d" transform="translate(405.908203 0.78125)"/>
      <use xlink:href="#DejaVuSans-31" transform="translate(509.179688 0.78125)"/>
      <use xlink:href="#DejaVuSans-2e" transform="translate(572.802734 0.78125)"/>
      <use xlink:href="#DejaVuSans-38" transform="translate(601.964844 0.78125)"/>
      <use xlink:href="#DejaVuSans-30" transform="translate(665.587891 0.78125)"/>
     </g>
    </g>
    <g id="line2d_30">
     <path d="M 459.255247 121.881125 
L 469.255247 121.881125 
L 479.255247 121.881125 
" style="fill: none; stroke: #7dff7a; stroke-width: 1.5; stroke-linecap: square"/>
    </g>
    <g id="text_16">
     <!-- $\delta_e = 0$, $J = 2.00$ -->
     <g transform="translate(487.255247 125.381125) scale(0.1 -0.1)">
      <use xlink:href="#DejaVuSans-Oblique-3b4" transform="translate(0 0.78125)"/>
      <use xlink:href="#DejaVuSans-Oblique-65" transform="translate(61.181641 -15.625) scale(0.7)"/>
      <use xlink:href="#DejaVuSans-3d" transform="translate(126.464844 0.78125)"/>
      <use xlink:href="#DejaVuSans-30" transform="translate(229.736328 0.78125)"/>
      <use xlink:href="#DejaVuSans-2c" transform="translate(293.359375 0.78125)"/>
      <use xlink:href="#DejaVuSans-20" transform="translate(325.146484 0.78125)"/>
      <use xlink:href="#DejaVuSans-Oblique-4a" transform="translate(356.933594 0.78125)"/>
      <use xlink:href="#DejaVuSans-3d" transform="translate(405.908203 0.78125)"/>
      <use xlink:href="#DejaVuSans-32" transform="translate(509.179688 0.78125)"/>
      <use xlink:href="#DejaVuSans-2e" transform="translate(572.802734 0.78125)"/>
      <use xlink:href="#DejaVuSans-30" transform="translate(604.589844 0.78125)"/>
      <use xlink:href="#DejaVuSans-30" transform="translate(668.212891 0.78125)"/>
     </g>
    </g>
    <g id="line2d_31">
     <path d="M 459.255247 136.579563 
L 469.255247 136.579563 
L 479.255247 136.579563 
" style="fill: none; stroke: #ff9400; stroke-width: 1.5; stroke-linecap: square"/>
    </g>
    <g id="text_17">
     <!-- $\delta_e = 0$, $J = 2.20$ -->
     <g transform="translate(487.255247 140.079563) scale(0.1 -0.1)">
      <use xlink:href="#DejaVuSans-Oblique-3b4" transform="translate(0 0.78125)"/>
      <use xlink:href="#DejaVuSans-Oblique-65" transform="translate(61.181641 -15.625) scale(0.7)"/>
      <use xlink:href="#DejaVuSans-3d" transform="translate(126.464844 0.78125)"/>
      <use xlink:href="#DejaVuSans-30" transform="translate(229.736328 0.78125)"/>
      <use xlink:href="#DejaVuSans-2c" transform="translate(293.359375 0.78125)"/>
      <use xlink:href="#DejaVuSans-20" transform="translate(325.146484 0.78125)"/>
      <use xlink:href="#DejaVuSans-Oblique-4a" transform="translate(356.933594 0.78125)"/>
      <use xlink:href="#DejaVuSans-3d" transform="translate(405.908203 0.78125)"/>
      <use xlink:href="#DejaVuSans-32" transform="translate(509.179688 0.78125)"/>
      <use xlink:href="#DejaVuSans-2e" transform="translate(572.802734 0.78125)"/>
      <use xlink:href="#DejaVuSans-32" transform="translate(599.089844 0.78125)"/>
      <use xlink:href="#DejaVuSans-30" transform="translate(662.712891 0.78125)"/>
     </g>
    </g>
    <g id="line2d_32">
     <path d="M 459.255247 151.278 
L 469.255247 151.278 
L 479.255247 151.278 
" style="fill: none; stroke: #800000; stroke-width: 1.5; stroke-linecap: square"/>
    </g>
    <g id="text_18">
     <!-- $\delta_e = 0$, $J = 2.40$ -->
     <g transform="translate(487.255247 154.778) scale(0.1 -0.1)">
      <use xlink:href="#DejaVuSans-Oblique-3b4" transform="translate(0 0.78125)"/>
      <use xlink:href="#DejaVuSans-Oblique-65" transform="translate(61.181641 -15.625) scale(0.7)"/>
      <use xlink:href="#DejaVuSans-3d" transform="translate(126.464844 0.78125)"/>
      <use xlink:href="#DejaVuSans-30" transform="translate(229.736328 0.78125)"/>
      <use xlink:href="#DejaVuSans-2c" transform="translate(293.359375 0.78125)"/>
      <use xlink:href="#DejaVuSans-20" transform="translate(325.146484 0.78125)"/>
      <use xlink:href="#DejaVuSans-Oblique-4a" transform="translate(356.933594 0.78125)"/>
      <use xlink:href="#DejaVuSans-3d" transform="translate(405.908203 0.78125)"/>
      <use xlink:href="#DejaVuSans-32" transform="translate(509.179688 0.78125)"/>
      <use xlink:href="#DejaVuSans-2e" transform="translate(572.802734 0.78125)"/>
      <use xlink:href="#DejaVuSans-34" transform="translate(604.589844 0.78125)"/>
      <use xlink:href="#DejaVuSans-30" transform="translate(668.212891 0.78125)"/>
     </g>
    </g>
   </g>
  </g>
 </g>
 <defs>
  <clipPath id="p8cb5b284d9">
   <rect x="69.428" y="10.8" width="380.827247" height="163.24"/>
  </clipPath>
 </defs>
</svg>
