<?xml version="1.0" encoding="utf-8" standalone="no"?>
<!DOCTYPE svg PUBLIC "-//W3C//DTD SVG 1.1//EN"
  "http://www.w3.org/Graphics/SVG/1.1/DTD/svg11.dtd">
<svg xmlns:xlink="http://www.w3.org/1999/xlink" width="432pt" height="216pt" viewBox="0 0 432 216" xmlns="http://www.w3.org/2000/svg" version="1.1">
 <metadata>
  <rdf:RDF xmlns:dc="http://purl.org/dc/elements/1.1/" xmlns:cc="http://creativecommons.org/ns#" xmlns:rdf="http://www.w3.org/1999/02/22-rdf-syntax-ns#">
   <cc:Work>
    <dc:type rdf:resource="http://purl.org/dc/dcmitype/StillImage"/>
    <dc:date>2025-03-28T12:22:07.957019</dc:date>
    <dc:format>image/svg+xml</dc:format>
    <dc:creator>
     <cc:Agent>
      <dc:title>Matplotlib v3.9.2, https://matplotlib.org/</dc:title>
     </cc:Agent>
    </dc:creator>
   </cc:Work>
  </rdf:RDF>
 </metadata>
 <defs>
  <style type="text/css">*{stroke-linejoin: round; stroke-linecap: butt}</style>
 </defs>
 <g id="figure_1">
  <g id="patch_1">
   <path d="M 0 216 
L 432 216 
L 432 0 
L 0 0 
z
" style="fill: #ffffff"/>
  </g>
  <g id="axes_1">
   <g id="patch_2">
    <path d="M 69.428 174.04 
L 306.255247 174.04 
L 306.255247 10.8 
L 69.428 10.8 
z
" style="fill: #ffffff"/>
   </g>
   <g id="matplotlib.axis_1">
    <g id="xtick_1">
     <g id="line2d_1">
      <path d="M 80.192875 174.04 
L 80.192875 10.8 
" clip-path="url(#p1657c1a9b0)" style="fill: none; stroke: #b0b0b0; stroke-width: 0.8; stroke-linecap: square"/>
     </g>
     <g id="line2d_2">
      <defs>
       <path id="m40f198b3c9" d="M 0 0 
L 0 3.5 
" style="stroke: #000000; stroke-width: 0.8"/>
      </defs>
      <g>
       <use xlink:href="#m40f198b3c9" x="80.192875" y="174.04" style="stroke: #000000; stroke-width: 0.8"/>
      </g>
     </g>
     <g id="text_1">
      <!-- −4 -->
      <g transform="translate(72.821781 188.638438) scale(0.1 -0.1)">
       <defs>
        <path id="DejaVuSans-2212" d="M 678 2272 
L 4684 2272 
L 4684 1741 
L 678 1741 
L 678 2272 
z
" transform="scale(0.015625)"/>
        <path id="DejaVuSans-34" d="M 2419 4116 
L 825 1625 
L 2419 1625 
L 2419 4116 
z
M 2253 4666 
L 3047 4666 
L 3047 1625 
L 3713 1625 
L 3713 1100 
L 3047 1100 
L 3047 0 
L 2419 0 
L 2419 1100 
L 313 1100 
L 313 1709 
L 2253 4666 
z
" transform="scale(0.015625)"/>
       </defs>
       <use xlink:href="#DejaVuSans-2212"/>
       <use xlink:href="#DejaVuSans-34" x="83.789062"/>
      </g>
     </g>
    </g>
    <g id="xtick_2">
     <g id="line2d_3">
      <path d="M 119.337874 174.04 
L 119.337874 10.8 
" clip-path="url(#p1657c1a9b0)" style="fill: none; stroke: #b0b0b0; stroke-width: 0.8; stroke-linecap: square"/>
     </g>
     <g id="line2d_4">
      <g>
       <use xlink:href="#m40f198b3c9" x="119.337874" y="174.04" style="stroke: #000000; stroke-width: 0.8"/>
      </g>
     </g>
     <g id="text_2">
      <!-- −2 -->
      <g transform="translate(111.966781 188.638438) scale(0.1 -0.1)">
       <defs>
        <path id="DejaVuSans-32" d="M 1228 531 
L 3431 531 
L 3431 0 
L 469 0 
L 469 531 
Q 828 903 1448 1529 
Q 2069 2156 2228 2338 
Q 2531 2678 2651 2914 
Q 2772 3150 2772 3378 
Q 2772 3750 2511 3984 
Q 2250 4219 1831 4219 
Q 1534 4219 1204 4116 
Q 875 4013 500 3803 
L 500 4441 
Q 881 4594 1212 4672 
Q 1544 4750 1819 4750 
Q 2544 4750 2975 4387 
Q 3406 4025 3406 3419 
Q 3406 3131 3298 2873 
Q 3191 2616 2906 2266 
Q 2828 2175 2409 1742 
Q 1991 1309 1228 531 
z
" transform="scale(0.015625)"/>
       </defs>
       <use xlink:href="#DejaVuSans-2212"/>
       <use xlink:href="#DejaVuSans-32" x="83.789062"/>
      </g>
     </g>
    </g>
    <g id="xtick_3">
     <g id="line2d_5">
      <path d="M 158.482874 174.04 
L 158.482874 10.8 
" clip-path="url(#p1657c1a9b0)" style="fill: none; stroke: #b0b0b0; stroke-width: 0.8; stroke-linecap: square"/>
     </g>
     <g id="line2d_6">
      <g>
       <use xlink:href="#m40f198b3c9" x="158.482874" y="174.04" style="stroke: #000000; stroke-width: 0.8"/>
      </g>
     </g>
     <g id="text_3">
      <!-- 0 -->
      <g transform="translate(155.301624 188.638438) scale(0.1 -0.1)">
       <defs>
        <path id="DejaVuSans-30" d="M 2034 4250 
Q 1547 4250 1301 3770 
Q 1056 3291 1056 2328 
Q 1056 1369 1301 889 
Q 1547 409 2034 409 
Q 2525 409 2770 889 
Q 3016 1369 3016 2328 
Q 3016 3291 2770 3770 
Q 2525 4250 2034 4250 
z
M 2034 4750 
Q 2819 4750 3233 4129 
Q 3647 3509 3647 2328 
Q 3647 1150 3233 529 
Q 2819 -91 2034 -91 
Q 1250 -91 836 529 
Q 422 1150 422 2328 
Q 422 3509 836 4129 
Q 1250 4750 2034 4750 
z
" transform="scale(0.015625)"/>
       </defs>
       <use xlink:href="#DejaVuSans-30"/>
      </g>
     </g>
    </g>
    <g id="xtick_4">
     <g id="line2d_7">
      <path d="M 197.627874 174.04 
L 197.627874 10.8 
" clip-path="url(#p1657c1a9b0)" style="fill: none; stroke: #b0b0b0; stroke-width: 0.8; stroke-linecap: square"/>
     </g>
     <g id="line2d_8">
      <g>
       <use xlink:href="#m40f198b3c9" x="197.627874" y="174.04" style="stroke: #000000; stroke-width: 0.8"/>
      </g>
     </g>
     <g id="text_4">
      <!-- 2 -->
      <g transform="translate(194.446624 188.638438) scale(0.1 -0.1)">
       <use xlink:href="#DejaVuSans-32"/>
      </g>
     </g>
    </g>
    <g id="xtick_5">
     <g id="line2d_9">
      <path d="M 236.772873 174.04 
L 236.772873 10.8 
" clip-path="url(#p1657c1a9b0)" style="fill: none; stroke: #b0b0b0; stroke-width: 0.8; stroke-linecap: square"/>
     </g>
     <g id="line2d_10">
      <g>
       <use xlink:href="#m40f198b3c9" x="236.772873" y="174.04" style="stroke: #000000; stroke-width: 0.8"/>
      </g>
     </g>
     <g id="text_5">
      <!-- 4 -->
      <g transform="translate(233.591623 188.638438) scale(0.1 -0.1)">
       <use xlink:href="#DejaVuSans-34"/>
      </g>
     </g>
    </g>
    <g id="xtick_6">
     <g id="line2d_11">
      <path d="M 275.917873 174.04 
L 275.917873 10.8 
" clip-path="url(#p1657c1a9b0)" style="fill: none; stroke: #b0b0b0; stroke-width: 0.8; stroke-linecap: square"/>
     </g>
     <g id="line2d_12">
      <g>
       <use xlink:href="#m40f198b3c9" x="275.917873" y="174.04" style="stroke: #000000; stroke-width: 0.8"/>
      </g>
     </g>
     <g id="text_6">
      <!-- 6 -->
      <g transform="translate(272.736623 188.638438) scale(0.1 -0.1)">
       <defs>
        <path id="DejaVuSans-36" d="M 2113 2584 
Q 1688 2584 1439 2293 
Q 1191 2003 1191 1497 
Q 1191 994 1439 701 
Q 1688 409 2113 409 
Q 2538 409 2786 701 
Q 3034 994 3034 1497 
Q 3034 2003 2786 2293 
Q 2538 2584 2113 2584 
z
M 3366 4563 
L 3366 3988 
Q 3128 4100 2886 4159 
Q 2644 4219 2406 4219 
Q 1781 4219 1451 3797 
Q 1122 3375 1075 2522 
Q 1259 2794 1537 2939 
Q 1816 3084 2150 3084 
Q 2853 3084 3261 2657 
Q 3669 2231 3669 1497 
Q 3669 778 3244 343 
Q 2819 -91 2113 -91 
Q 1303 -91 875 529 
Q 447 1150 447 2328 
Q 447 3434 972 4092 
Q 1497 4750 2381 4750 
Q 2619 4750 2861 4703 
Q 3103 4656 3366 4563 
z
" transform="scale(0.015625)"/>
       </defs>
       <use xlink:href="#DejaVuSans-36"/>
      </g>
     </g>
    </g>
    <g id="text_7">
     <!-- $\alpha$ -->
     <g transform="translate(184.541624 202.316563) scale(0.1 -0.1)">
      <defs>
       <path id="DejaVuSans-Oblique-3b1" d="M 2619 1628 
L 2622 2350 
Q 2625 3088 2069 3091 
Q 1653 3094 1394 2747 
Q 1069 2319 959 1747 
Q 825 1059 994 731 
Q 1169 397 1547 397 
Q 1966 397 2319 1063 
L 2619 1628 
z
M 2166 3578 
Q 3141 3594 3128 2584 
Q 3128 2584 3616 3500 
L 4128 3500 
L 3119 1603 
L 3109 919 
Q 3109 766 3194 638 
Q 3291 488 3391 488 
L 3669 488 
L 3575 0 
L 3228 0 
Q 2934 0 2722 263 
Q 2622 394 2619 669 
Q 2416 334 2066 50 
Q 1900 -81 1453 -78 
Q 722 -72 456 397 
Q 184 884 353 1747 
Q 534 2675 1009 3097 
Q 1544 3569 2166 3578 
z
" transform="scale(0.015625)"/>
      </defs>
      <use xlink:href="#DejaVuSans-Oblique-3b1" transform="translate(0 0.84375)"/>
     </g>
    </g>
   </g>
   <g id="matplotlib.axis_2">
    <g id="ytick_1">
     <g id="line2d_13">
      <path d="M 69.428 159.759053 
L 306.255247 159.759053 
" clip-path="url(#p1657c1a9b0)" style="fill: none; stroke: #b0b0b0; stroke-width: 0.8; stroke-linecap: square"/>
     </g>
     <g id="line2d_14">
      <defs>
       <path id="ma9dfca989e" d="M 0 0 
L -3.5 0 
" style="stroke: #000000; stroke-width: 0.8"/>
      </defs>
      <g>
       <use xlink:href="#ma9dfca989e" x="69.428" y="159.759053" style="stroke: #000000; stroke-width: 0.8"/>
      </g>
     </g>
     <g id="text_8">
      <!-- 0.0080 -->
      <g transform="translate(27.437375 163.558272) scale(0.1 -0.1)">
       <defs>
        <path id="DejaVuSans-2e" d="M 684 794 
L 1344 794 
L 1344 0 
L 684 0 
L 684 794 
z
" transform="scale(0.015625)"/>
        <path id="DejaVuSans-38" d="M 2034 2216 
Q 1584 2216 1326 1975 
Q 1069 1734 1069 1313 
Q 1069 891 1326 650 
Q 1584 409 2034 409 
Q 2484 409 2743 651 
Q 3003 894 3003 1313 
Q 3003 1734 2745 1975 
Q 2488 2216 2034 2216 
z
M 1403 2484 
Q 997 2584 770 2862 
Q 544 3141 544 3541 
Q 544 4100 942 4425 
Q 1341 4750 2034 4750 
Q 2731 4750 3128 4425 
Q 3525 4100 3525 3541 
Q 3525 3141 3298 2862 
Q 3072 2584 2669 2484 
Q 3125 2378 3379 2068 
Q 3634 1759 3634 1313 
Q 3634 634 3220 271 
Q 2806 -91 2034 -91 
Q 1263 -91 848 271 
Q 434 634 434 1313 
Q 434 1759 690 2068 
Q 947 2378 1403 2484 
z
M 1172 3481 
Q 1172 3119 1398 2916 
Q 1625 2713 2034 2713 
Q 2441 2713 2670 2916 
Q 2900 3119 2900 3481 
Q 2900 3844 2670 4047 
Q 2441 4250 2034 4250 
Q 1625 4250 1398 4047 
Q 1172 3844 1172 3481 
z
" transform="scale(0.015625)"/>
       </defs>
       <use xlink:href="#DejaVuSans-30"/>
       <use xlink:href="#DejaVuSans-2e" x="63.623047"/>
       <use xlink:href="#DejaVuSans-30" x="95.410156"/>
       <use xlink:href="#DejaVuSans-30" x="159.033203"/>
       <use xlink:href="#DejaVuSans-38" x="222.65625"/>
       <use xlink:href="#DejaVuSans-30" x="286.279297"/>
      </g>
     </g>
    </g>
    <g id="ytick_2">
     <g id="line2d_15">
      <path d="M 69.428 126.540823 
L 306.255247 126.540823 
" clip-path="url(#p1657c1a9b0)" style="fill: none; stroke: #b0b0b0; stroke-width: 0.8; stroke-linecap: square"/>
     </g>
     <g id="line2d_16">
      <g>
       <use xlink:href="#ma9dfca989e" x="69.428" y="126.540823" style="stroke: #000000; stroke-width: 0.8"/>
      </g>
     </g>
     <g id="text_9">
      <!-- 0.0085 -->
      <g transform="translate(27.437375 130.340042) scale(0.1 -0.1)">
       <defs>
        <path id="DejaVuSans-35" d="M 691 4666 
L 3169 4666 
L 3169 4134 
L 1269 4134 
L 1269 2991 
Q 1406 3038 1543 3061 
Q 1681 3084 1819 3084 
Q 2600 3084 3056 2656 
Q 3513 2228 3513 1497 
Q 3513 744 3044 326 
Q 2575 -91 1722 -91 
Q 1428 -91 1123 -41 
Q 819 9 494 109 
L 494 744 
Q 775 591 1075 516 
Q 1375 441 1709 441 
Q 2250 441 2565 725 
Q 2881 1009 2881 1497 
Q 2881 1984 2565 2268 
Q 2250 2553 1709 2553 
Q 1456 2553 1204 2497 
Q 953 2441 691 2322 
L 691 4666 
z
" transform="scale(0.015625)"/>
       </defs>
       <use xlink:href="#DejaVuSans-30"/>
       <use xlink:href="#DejaVuSans-2e" x="63.623047"/>
       <use xlink:href="#DejaVuSans-30" x="95.410156"/>
       <use xlink:href="#DejaVuSans-30" x="159.033203"/>
       <use xlink:href="#DejaVuSans-38" x="222.65625"/>
       <use xlink:href="#DejaVuSans-35" x="286.279297"/>
      </g>
     </g>
    </g>
    <g id="ytick_3">
     <g id="line2d_17">
      <path d="M 69.428 93.322594 
L 306.255247 93.322594 
" clip-path="url(#p1657c1a9b0)" style="fill: none; stroke: #b0b0b0; stroke-width: 0.8; stroke-linecap: square"/>
     </g>
     <g id="line2d_18">
      <g>
       <use xlink:href="#ma9dfca989e" x="69.428" y="93.322594" style="stroke: #000000; stroke-width: 0.8"/>
      </g>
     </g>
     <g id="text_10">
      <!-- 0.0090 -->
      <g transform="translate(27.437375 97.121812) scale(0.1 -0.1)">
       <defs>
        <path id="DejaVuSans-39" d="M 703 97 
L 703 672 
Q 941 559 1184 500 
Q 1428 441 1663 441 
Q 2288 441 2617 861 
Q 2947 1281 2994 2138 
Q 2813 1869 2534 1725 
Q 2256 1581 1919 1581 
Q 1219 1581 811 2004 
Q 403 2428 403 3163 
Q 403 3881 828 4315 
Q 1253 4750 1959 4750 
Q 2769 4750 3195 4129 
Q 3622 3509 3622 2328 
Q 3622 1225 3098 567 
Q 2575 -91 1691 -91 
Q 1453 -91 1209 -44 
Q 966 3 703 97 
z
M 1959 2075 
Q 2384 2075 2632 2365 
Q 2881 2656 2881 3163 
Q 2881 3666 2632 3958 
Q 2384 4250 1959 4250 
Q 1534 4250 1286 3958 
Q 1038 3666 1038 3163 
Q 1038 2656 1286 2365 
Q 1534 2075 1959 2075 
z
" transform="scale(0.015625)"/>
       </defs>
       <use xlink:href="#DejaVuSans-30"/>
       <use xlink:href="#DejaVuSans-2e" x="63.623047"/>
       <use xlink:href="#DejaVuSans-30" x="95.410156"/>
       <use xlink:href="#DejaVuSans-30" x="159.033203"/>
       <use xlink:href="#DejaVuSans-39" x="222.65625"/>
       <use xlink:href="#DejaVuSans-30" x="286.279297"/>
      </g>
     </g>
    </g>
    <g id="ytick_4">
     <g id="line2d_19">
      <path d="M 69.428 60.104364 
L 306.255247 60.104364 
" clip-path="url(#p1657c1a9b0)" style="fill: none; stroke: #b0b0b0; stroke-width: 0.8; stroke-linecap: square"/>
     </g>
     <g id="line2d_20">
      <g>
       <use xlink:href="#ma9dfca989e" x="69.428" y="60.104364" style="stroke: #000000; stroke-width: 0.8"/>
      </g>
     </g>
     <g id="text_11">
      <!-- 0.0095 -->
      <g transform="translate(27.437375 63.903583) scale(0.1 -0.1)">
       <use xlink:href="#DejaVuSans-30"/>
       <use xlink:href="#DejaVuSans-2e" x="63.623047"/>
       <use xlink:href="#DejaVuSans-30" x="95.410156"/>
       <use xlink:href="#DejaVuSans-30" x="159.033203"/>
       <use xlink:href="#DejaVuSans-39" x="222.65625"/>
       <use xlink:href="#DejaVuSans-35" x="286.279297"/>
      </g>
     </g>
    </g>
    <g id="ytick_5">
     <g id="line2d_21">
      <path d="M 69.428 26.886134 
L 306.255247 26.886134 
" clip-path="url(#p1657c1a9b0)" style="fill: none; stroke: #b0b0b0; stroke-width: 0.8; stroke-linecap: square"/>
     </g>
     <g id="line2d_22">
      <g>
       <use xlink:href="#ma9dfca989e" x="69.428" y="26.886134" style="stroke: #000000; stroke-width: 0.8"/>
      </g>
     </g>
     <g id="text_12">
      <!-- 0.0100 -->
      <g transform="translate(27.437375 30.685353) scale(0.1 -0.1)">
       <defs>
        <path id="DejaVuSans-31" d="M 794 531 
L 1825 531 
L 1825 4091 
L 703 3866 
L 703 4441 
L 1819 4666 
L 2450 4666 
L 2450 531 
L 3481 531 
L 3481 0 
L 794 0 
L 794 531 
z
" transform="scale(0.015625)"/>
       </defs>
       <use xlink:href="#DejaVuSans-30"/>
       <use xlink:href="#DejaVuSans-2e" x="63.623047"/>
       <use xlink:href="#DejaVuSans-30" x="95.410156"/>
       <use xlink:href="#DejaVuSans-31" x="159.033203"/>
       <use xlink:href="#DejaVuSans-30" x="222.65625"/>
       <use xlink:href="#DejaVuSans-30" x="286.279297"/>
      </g>
     </g>
    </g>
    <g id="text_13">
     <!-- d$C_L$ / d$\delta_e$ -->
     <g transform="translate(21.357688 114.57) rotate(-90) scale(0.1 -0.1)">
      <defs>
       <path id="DejaVuSans-64" d="M 2906 2969 
L 2906 4863 
L 3481 4863 
L 3481 0 
L 2906 0 
L 2906 525 
Q 2725 213 2448 61 
Q 2172 -91 1784 -91 
Q 1150 -91 751 415 
Q 353 922 353 1747 
Q 353 2572 751 3078 
Q 1150 3584 1784 3584 
Q 2172 3584 2448 3432 
Q 2725 3281 2906 2969 
z
M 947 1747 
Q 947 1113 1208 752 
Q 1469 391 1925 391 
Q 2381 391 2643 752 
Q 2906 1113 2906 1747 
Q 2906 2381 2643 2742 
Q 2381 3103 1925 3103 
Q 1469 3103 1208 2742 
Q 947 2381 947 1747 
z
" transform="scale(0.015625)"/>
       <path id="DejaVuSans-Oblique-43" d="M 4447 4306 
L 4319 3641 
Q 4019 3944 3683 4091 
Q 3347 4238 2956 4238 
Q 2422 4238 2017 3981 
Q 1613 3725 1319 3200 
Q 1131 2863 1032 2486 
Q 934 2109 934 1728 
Q 934 1091 1264 756 
Q 1594 422 2222 422 
Q 2656 422 3056 561 
Q 3456 700 3834 978 
L 3688 231 
Q 3316 72 2936 -9 
Q 2556 -91 2175 -91 
Q 1278 -91 773 396 
Q 269 884 269 1753 
Q 269 2309 461 2846 
Q 653 3384 1013 3828 
Q 1394 4300 1883 4525 
Q 2372 4750 3022 4750 
Q 3422 4750 3780 4639 
Q 4138 4528 4447 4306 
z
" transform="scale(0.015625)"/>
       <path id="DejaVuSans-Oblique-4c" d="M 1075 4666 
L 1709 4666 
L 909 525 
L 3181 525 
L 3078 0 
L 172 0 
L 1075 4666 
z
" transform="scale(0.015625)"/>
       <path id="DejaVuSans-20" transform="scale(0.015625)"/>
       <path id="DejaVuSans-2f" d="M 1625 4666 
L 2156 4666 
L 531 -594 
L 0 -594 
L 1625 4666 
z
" transform="scale(0.015625)"/>
       <path id="DejaVuSans-Oblique-3b4" d="M 3472 4053 
Q 3197 4272 2450 4272 
Q 1659 4272 1588 3906 
Q 1531 3619 2328 3469 
Q 2953 3353 3253 3003 
Q 3616 2581 3447 1716 
Q 3284 888 2763 400 
Q 2238 -91 1488 -91 
Q 741 -91 406 400 
Q 72 888 241 1747 
Q 363 2384 891 2900 
Q 1097 3100 1353 3213 
Q 913 3459 1000 3900 
Q 1166 4750 2544 4750 
Q 3234 4750 3566 4531 
L 3472 4053 
z
M 1753 3056 
Q 1525 2966 1306 2738 
Q 969 2384 847 1747 
Q 722 1113 919 756 
Q 1119 397 1584 397 
Q 2044 397 2381 759 
Q 2722 1122 2838 1716 
Q 2956 2338 2731 2638 
Q 2491 2959 2103 2994 
Q 1906 3013 1753 3056 
z
" transform="scale(0.015625)"/>
       <path id="DejaVuSans-Oblique-65" d="M 3078 2063 
Q 3088 2113 3092 2166 
Q 3097 2219 3097 2272 
Q 3097 2653 2873 2875 
Q 2650 3097 2266 3097 
Q 1838 3097 1509 2826 
Q 1181 2556 1013 2059 
L 3078 2063 
z
M 3578 1613 
L 903 1613 
Q 884 1494 878 1425 
Q 872 1356 872 1306 
Q 872 872 1139 634 
Q 1406 397 1894 397 
Q 2269 397 2603 481 
Q 2938 566 3225 728 
L 3116 159 
Q 2806 34 2476 -28 
Q 2147 -91 1806 -91 
Q 1078 -91 686 257 
Q 294 606 294 1247 
Q 294 1794 489 2264 
Q 684 2734 1063 3103 
Q 1306 3334 1642 3459 
Q 1978 3584 2356 3584 
Q 2950 3584 3301 3228 
Q 3653 2872 3653 2272 
Q 3653 2128 3634 1964 
Q 3616 1800 3578 1613 
z
" transform="scale(0.015625)"/>
      </defs>
      <use xlink:href="#DejaVuSans-64" transform="translate(0 0.015625)"/>
      <use xlink:href="#DejaVuSans-Oblique-43" transform="translate(63.476562 0.015625)"/>
      <use xlink:href="#DejaVuSans-Oblique-4c" transform="translate(133.300781 -16.390625) scale(0.7)"/>
      <use xlink:href="#DejaVuSans-20" transform="translate(175.03418 0.015625)"/>
      <use xlink:href="#DejaVuSans-2f" transform="translate(206.821289 0.015625)"/>
      <use xlink:href="#DejaVuSans-20" transform="translate(240.512695 0.015625)"/>
      <use xlink:href="#DejaVuSans-64" transform="translate(272.299805 0.015625)"/>
      <use xlink:href="#DejaVuSans-Oblique-3b4" transform="translate(335.776367 0.015625)"/>
      <use xlink:href="#DejaVuSans-Oblique-65" transform="translate(396.958008 -16.390625) scale(0.7)"/>
     </g>
    </g>
   </g>
   <g id="line2d_23">
    <path d="M 80.192875 28.129297 
L 82.367597 27.321022 
L 84.542319 26.547129 
L 86.717041 25.807617 
L 88.891764 25.102487 
L 91.066486 24.431738 
L 93.241208 23.795371 
L 95.41593 23.193385 
L 97.590652 22.625781 
L 99.765375 22.092558 
L 101.940097 21.593717 
L 104.114819 21.129257 
L 106.289541 20.699179 
L 108.464263 20.303483 
L 110.638986 19.942167 
L 112.813708 19.615234 
L 114.98843 19.322682 
L 117.163152 19.064511 
L 119.337874 18.840722 
L 121.512597 18.651315 
L 123.687319 18.496289 
L 125.862041 18.375644 
L 128.036763 18.289381 
L 130.211485 18.2375 
L 132.386208 18.22 
L 134.56093 18.236882 
L 136.735652 18.288145 
L 138.910374 18.373789 
L 141.085096 18.493815 
L 143.259819 18.648223 
L 145.434541 18.837012 
L 147.609263 19.060183 
L 149.783985 19.317735 
L 151.958707 19.609669 
L 154.13343 19.935984 
L 156.308152 20.296681 
L 158.482874 20.691759 
L 160.657596 21.121219 
L 162.832318 21.58506 
L 165.007041 22.083283 
L 167.181763 22.615887 
L 169.356485 23.182873 
L 171.531207 23.784241 
L 173.705929 24.41999 
L 175.880652 25.09012 
L 178.055374 25.794632 
L 180.230096 26.533525 
L 182.404818 27.3068 
L 184.57954 28.114457 
L 186.754263 28.956495 
L 188.928985 29.832914 
L 191.103707 30.743715 
L 193.278429 31.688898 
L 195.453151 32.668462 
L 197.627874 33.682408 
L 199.802596 34.730735 
L 201.977318 35.813443 
L 204.15204 36.930533 
L 206.326762 38.082005 
L 208.501485 39.267858 
L 210.676207 40.488093 
L 212.850929 41.742709 
L 215.025651 43.031707 
L 217.200373 44.355086 
L 219.375096 45.712847 
L 221.549818 47.104989 
L 223.72454 48.531513 
L 225.899262 49.992418 
L 228.073984 51.487705 
L 230.248707 53.017373 
L 232.423429 54.581423 
L 234.598151 56.179854 
L 236.772873 57.812667 
L 238.947595 59.479862 
L 241.122318 61.181438 
L 243.29704 62.917395 
L 245.471762 64.687734 
L 247.646484 66.492454 
L 249.821206 68.331556 
L 251.995929 70.20504 
L 254.170651 72.112905 
L 256.345373 74.055151 
L 258.520095 76.03178 
L 260.694817 78.042789 
L 262.86954 80.08818 
L 265.044262 82.167953 
L 267.218984 84.282107 
L 269.393706 86.430643 
L 271.568428 88.61356 
L 273.743151 90.830858 
L 275.917873 93.082538 
L 278.092595 95.3686 
L 280.267317 97.689043 
L 282.442039 100.043868 
L 284.616762 102.433074 
L 286.791484 104.856662 
L 288.966206 107.314631 
L 291.140928 109.806982 
L 293.31565 112.333715 
L 295.490373 114.894828 
" clip-path="url(#p1657c1a9b0)" style="fill: none; stroke: #000080; stroke-width: 1.5; stroke-linecap: square"/>
   </g>
   <g id="line2d_24">
    <path d="M 80.192875 53.942377 
L 82.367597 53.83146 
L 84.542319 53.742708 
L 86.717041 53.676119 
L 88.891764 53.631695 
L 91.066486 53.609434 
L 93.241208 53.609338 
L 95.41593 53.631406 
L 97.590652 53.675638 
L 99.765375 53.742034 
L 101.940097 53.830594 
L 104.114819 53.941318 
L 106.289541 54.074206 
L 108.464263 54.229259 
L 110.638986 54.406475 
L 112.813708 54.605856 
L 114.98843 54.8274 
L 117.163152 55.071109 
L 119.337874 55.336981 
L 121.512597 55.625018 
L 123.687319 55.935219 
L 125.862041 56.267584 
L 128.036763 56.622113 
L 130.211485 56.998806 
L 132.386208 57.397663 
L 134.56093 57.818685 
L 136.735652 58.26187 
L 138.910374 58.72722 
L 141.085096 59.214733 
L 143.259819 59.724411 
L 145.434541 60.256252 
L 147.609263 60.810258 
L 149.783985 61.386428 
L 151.958707 61.984762 
L 154.13343 62.60526 
L 156.308152 63.247922 
L 158.482874 63.912748 
L 160.657596 64.599739 
L 162.832318 65.308893 
L 165.007041 66.040212 
L 167.181763 66.793694 
L 169.356485 67.569341 
L 171.531207 68.367151 
L 173.705929 69.187126 
L 175.880652 70.029265 
L 178.055374 70.893568 
L 180.230096 71.780035 
L 182.404818 72.688666 
L 184.57954 73.619461 
L 186.754263 74.57242 
L 188.928985 75.547544 
L 191.103707 76.544831 
L 193.278429 77.564283 
L 195.453151 78.605898 
L 197.627874 79.669678 
L 199.802596 80.755622 
L 201.977318 81.86373 
L 204.15204 82.994002 
L 206.326762 84.146438 
L 208.501485 85.321038 
L 210.676207 86.517802 
L 212.850929 87.73673 
L 215.025651 88.977822 
L 217.200373 90.241079 
L 219.375096 91.526499 
L 221.549818 92.834084 
L 223.72454 94.163832 
L 225.899262 95.515745 
L 228.073984 96.889822 
L 230.248707 98.286063 
L 232.423429 99.704468 
L 234.598151 101.145037 
L 236.772873 102.60777 
L 238.947595 104.092667 
L 241.122318 105.599729 
L 243.29704 107.128954 
L 245.471762 108.680344 
L 247.646484 110.253897 
L 249.821206 111.849615 
L 251.995929 113.467496 
L 254.170651 115.107542 
L 256.345373 116.769752 
L 258.520095 118.454126 
L 260.694817 120.160664 
L 262.86954 121.889366 
L 265.044262 123.640233 
L 267.218984 125.413263 
L 269.393706 127.208457 
L 271.568428 129.025816 
L 273.743151 130.865338 
L 275.917873 132.727025 
L 278.092595 134.610876 
L 280.267317 136.51689 
L 282.442039 138.445069 
L 284.616762 140.395412 
L 286.791484 142.367919 
L 288.966206 144.36259 
L 291.140928 146.379425 
L 293.31565 148.418425 
L 295.490373 150.479588 
" clip-path="url(#p1657c1a9b0)" style="fill: none; stroke: #0080ff; stroke-width: 1.5; stroke-linecap: square"/>
   </g>
   <g id="line2d_25">
    <path d="M 80.192875 78.057778 
L 82.367597 78.42003 
L 84.542319 78.793145 
L 86.717041 79.177124 
L 88.891764 79.571967 
L 91.066486 79.977674 
L 93.241208 80.394244 
L 95.41593 80.821677 
L 97.590652 81.259974 
L 99.765375 81.709135 
L 101.940097 82.169159 
L 104.114819 82.640047 
L 106.289541 83.121799 
L 108.464263 83.614414 
L 110.638986 84.117892 
L 112.813708 84.632235 
L 114.98843 85.15744 
L 117.163152 85.69351 
L 119.337874 86.240443 
L 121.512597 86.79824 
L 123.687319 87.3669 
L 125.862041 87.946424 
L 128.036763 88.536811 
L 130.211485 89.138062 
L 132.386208 89.750176 
L 134.56093 90.373155 
L 136.735652 91.006996 
L 138.910374 91.651702 
L 141.085096 92.307271 
L 143.259819 92.973703 
L 145.434541 93.650999 
L 147.609263 94.339159 
L 149.783985 95.038182 
L 151.958707 95.748069 
L 154.13343 96.46882 
L 156.308152 97.200434 
L 158.482874 97.942911 
L 160.657596 98.696253 
L 162.832318 99.460457 
L 165.007041 100.235526 
L 167.181763 101.021458 
L 169.356485 101.818253 
L 171.531207 102.625913 
L 173.705929 103.444435 
L 175.880652 104.273822 
L 178.055374 105.114072 
L 180.230096 105.965185 
L 182.404818 106.827162 
L 184.57954 107.700003 
L 186.754263 108.583707 
L 188.928985 109.478275 
L 191.103707 110.383707 
L 193.278429 111.300002 
L 195.453151 112.22716 
L 197.627874 113.165183 
L 199.802596 114.114069 
L 201.977318 115.073818 
L 204.15204 116.044431 
L 206.326762 117.025908 
L 208.501485 118.018248 
L 210.676207 119.021452 
L 212.850929 120.035519 
L 215.025651 121.06045 
L 217.200373 122.096245 
L 219.375096 123.142903 
L 221.549818 124.200425 
L 223.72454 125.26881 
L 225.899262 126.348059 
L 228.073984 127.438171 
L 230.248707 128.539147 
L 232.423429 129.650987 
L 234.598151 130.77369 
L 236.772873 131.907257 
L 238.947595 133.051688 
L 241.122318 134.206982 
L 243.29704 135.373139 
L 245.471762 136.550161 
L 247.646484 137.738046 
L 249.821206 138.936794 
L 251.995929 140.146406 
L 254.170651 141.366882 
L 256.345373 142.598221 
L 258.520095 143.840424 
L 260.694817 145.09349 
L 262.86954 146.35742 
L 265.044262 147.632213 
L 267.218984 148.917871 
L 269.393706 150.214391 
L 271.568428 151.521776 
L 273.743151 152.840023 
L 275.917873 154.169135 
L 278.092595 155.50911 
L 280.267317 156.859949 
L 282.442039 158.221651 
L 284.616762 159.594217 
L 286.791484 160.977646 
L 288.966206 162.371939 
L 291.140928 163.777096 
L 293.31565 165.193116 
L 295.490373 166.62 
" clip-path="url(#p1657c1a9b0)" style="fill: none; stroke: #7dff7a; stroke-width: 1.5; stroke-linecap: square"/>
   </g>
   <g id="line2d_26">
    <path d="M 80.192875 100.475499 
L 82.367597 101.08673 
L 84.542319 101.698441 
L 86.717041 102.310633 
L 88.891764 102.923304 
L 91.066486 103.536455 
L 93.241208 104.150087 
L 95.41593 104.764198 
L 97.590652 105.37879 
L 99.765375 105.993861 
L 101.940097 106.609413 
L 104.114819 107.225444 
L 106.289541 107.841956 
L 108.464263 108.458948 
L 110.638986 109.076419 
L 112.813708 109.694371 
L 114.98843 110.312803 
L 117.163152 110.931715 
L 119.337874 111.551107 
L 121.512597 112.170979 
L 123.687319 112.791331 
L 125.862041 113.412163 
L 128.036763 114.033475 
L 130.211485 114.655267 
L 132.386208 115.277539 
L 134.56093 115.900291 
L 136.735652 116.523523 
L 138.910374 117.147236 
L 141.085096 117.771428 
L 143.259819 118.3961 
L 145.434541 119.021253 
L 147.609263 119.646885 
L 149.783985 120.272998 
L 151.958707 120.89959 
L 154.13343 121.526663 
L 156.308152 122.154215 
L 158.482874 122.782248 
L 160.657596 123.41076 
L 162.832318 124.039753 
L 165.007041 124.669226 
L 167.181763 125.299179 
L 169.356485 125.929611 
L 171.531207 126.560524 
L 173.705929 127.191917 
L 175.880652 127.82379 
L 178.055374 128.456143 
L 180.230096 129.088976 
L 182.404818 129.722289 
L 184.57954 130.356082 
L 186.754263 130.990355 
L 188.928985 131.625109 
L 191.103707 132.260342 
L 193.278429 132.896055 
L 195.453151 133.532248 
L 197.627874 134.168922 
L 199.802596 134.806075 
L 201.977318 135.443709 
L 204.15204 136.081822 
L 206.326762 136.720416 
L 208.501485 137.359489 
L 210.676207 137.999043 
L 212.850929 138.639076 
L 215.025651 139.27959 
L 217.200373 139.920584 
L 219.375096 140.562057 
L 221.549818 141.204011 
L 223.72454 141.846445 
L 225.899262 142.489359 
L 228.073984 143.132753 
L 230.248707 143.776627 
L 232.423429 144.420981 
L 234.598151 145.065815 
L 236.772873 145.711129 
L 238.947595 146.356923 
L 241.122318 147.003197 
L 243.29704 147.649951 
L 245.471762 148.297186 
L 247.646484 148.9449 
L 249.821206 149.593094 
L 251.995929 150.241769 
L 254.170651 150.890923 
L 256.345373 151.540557 
L 258.520095 152.190672 
L 260.694817 152.841266 
L 262.86954 153.492341 
L 265.044262 154.143895 
L 267.218984 154.79593 
L 269.393706 155.448445 
L 271.568428 156.10144 
L 273.743151 156.754914 
L 275.917873 157.408869 
L 278.092595 158.063304 
L 280.267317 158.718219 
L 282.442039 159.373614 
L 284.616762 160.029489 
L 286.791484 160.685844 
L 288.966206 161.342679 
L 291.140928 161.999994 
L 293.31565 162.657789 
L 295.490373 163.316064 
" clip-path="url(#p1657c1a9b0)" style="fill: none; stroke: #ff9400; stroke-width: 1.5; stroke-linecap: square"/>
   </g>
   <g id="line2d_27">
    <path d="M 80.192875 121.195541 
L 82.367597 121.831562 
L 84.542319 122.458596 
L 86.717041 123.076644 
L 88.891764 123.685705 
L 91.066486 124.28578 
L 93.241208 124.876868 
L 95.41593 125.458969 
L 97.590652 126.032084 
L 99.765375 126.596213 
L 101.940097 127.151355 
L 104.114819 127.69751 
L 106.289541 128.234679 
L 108.464263 128.762861 
L 110.638986 129.282056 
L 112.813708 129.792265 
L 114.98843 130.293488 
L 117.163152 130.785724 
L 119.337874 131.268973 
L 121.512597 131.743236 
L 123.687319 132.208512 
L 125.862041 132.664802 
L 128.036763 133.112105 
L 130.211485 133.550421 
L 132.386208 133.979751 
L 134.56093 134.400094 
L 136.735652 134.811451 
L 138.910374 135.213821 
L 141.085096 135.607205 
L 143.259819 135.991602 
L 145.434541 136.367013 
L 147.609263 136.733437 
L 149.783985 137.090874 
L 151.958707 137.439325 
L 154.13343 137.778789 
L 156.308152 138.109267 
L 158.482874 138.430758 
L 160.657596 138.743262 
L 162.832318 139.04678 
L 165.007041 139.341312 
L 167.181763 139.626857 
L 169.356485 139.903415 
L 171.531207 140.170987 
L 173.705929 140.429572 
L 175.880652 140.67917 
L 178.055374 140.919782 
L 180.230096 141.151408 
L 182.404818 141.374047 
L 184.57954 141.587699 
L 186.754263 141.792365 
L 188.928985 141.988044 
L 191.103707 142.174737 
L 193.278429 142.352443 
L 195.453151 142.521162 
L 197.627874 142.680895 
L 199.802596 142.831641 
L 201.977318 142.973401 
L 204.15204 143.106174 
L 206.326762 143.229961 
L 208.501485 143.344761 
L 210.676207 143.450575 
L 212.850929 143.547402 
L 215.025651 143.635242 
L 217.200373 143.714096 
L 219.375096 143.783963 
L 221.549818 143.844844 
L 223.72454 143.896738 
L 225.899262 143.939646 
L 228.073984 143.973567 
L 230.248707 143.998501 
L 232.423429 144.014449 
L 234.598151 144.02141 
L 236.772873 144.019385 
L 238.947595 144.008373 
L 241.122318 143.988375 
L 243.29704 143.95939 
L 245.471762 143.921418 
L 247.646484 143.87446 
L 249.821206 143.818515 
L 251.995929 143.753584 
L 254.170651 143.679666 
L 256.345373 143.596762 
L 258.520095 143.504871 
L 260.694817 143.403993 
L 262.86954 143.294129 
L 265.044262 143.175279 
L 267.218984 143.047442 
L 269.393706 142.910618 
L 271.568428 142.764807 
L 273.743151 142.610011 
L 275.917873 142.446227 
L 278.092595 142.273457 
L 280.267317 142.0917 
L 282.442039 141.900957 
L 284.616762 141.701227 
L 286.791484 141.492511 
L 288.966206 141.274808 
L 291.140928 141.048119 
L 293.31565 140.812443 
L 295.490373 140.56778 
" clip-path="url(#p1657c1a9b0)" style="fill: none; stroke: #800000; stroke-width: 1.5; stroke-linecap: square"/>
   </g>
   <g id="patch_3">
    <path d="M 69.428 174.04 
L 69.428 10.8 
" style="fill: none; stroke: #000000; stroke-width: 0.8; stroke-linejoin: miter; stroke-linecap: square"/>
   </g>
   <g id="patch_4">
    <path d="M 306.255247 174.04 
L 306.255247 10.8 
" style="fill: none; stroke: #000000; stroke-width: 0.8; stroke-linejoin: miter; stroke-linecap: square"/>
   </g>
   <g id="patch_5">
    <path d="M 69.428 174.04 
L 306.255247 174.04 
" style="fill: none; stroke: #000000; stroke-width: 0.8; stroke-linejoin: miter; stroke-linecap: square"/>
   </g>
   <g id="patch_6">
    <path d="M 69.428 10.8 
L 306.255247 10.8 
" style="fill: none; stroke: #000000; stroke-width: 0.8; stroke-linejoin: miter; stroke-linecap: square"/>
   </g>
   <g id="legend_1">
    <g id="patch_7">
     <path d="M 315.255247 162.878 
L 420.455247 162.878 
Q 422.455247 162.878 422.455247 160.878 
L 422.455247 88.385813 
Q 422.455247 86.385813 420.455247 86.385813 
L 315.255247 86.385813 
Q 313.255247 86.385813 313.255247 88.385813 
L 313.255247 160.878 
Q 313.255247 162.878 315.255247 162.878 
z
" style="fill: #4d4d4d; opacity: 0.5; stroke: #4d4d4d; stroke-linejoin: miter"/>
    </g>
    <g id="patch_8">
     <path d="M 313.255247 160.878 
L 418.455247 160.878 
Q 420.455247 160.878 420.455247 158.878 
L 420.455247 86.385813 
Q 420.455247 84.385813 418.455247 84.385813 
L 313.255247 84.385813 
Q 311.255247 84.385813 311.255247 86.385813 
L 311.255247 158.878 
Q 311.255247 160.878 313.255247 160.878 
z
" style="fill: #ffffff; stroke: #cccccc; stroke-linejoin: miter"/>
    </g>
    <g id="line2d_28">
     <path d="M 315.255247 92.48425 
L 325.255247 92.48425 
L 335.255247 92.48425 
" style="fill: none; stroke: #000080; stroke-width: 1.5; stroke-linecap: square"/>
    </g>
    <g id="text_14">
     <!-- $\delta_e = 0$, $J = 1.60$ -->
     <g transform="translate(343.255247 95.98425) scale(0.1 -0.1)">
      <defs>
       <path id="DejaVuSans-3d" d="M 678 2906 
L 4684 2906 
L 4684 2381 
L 678 2381 
L 678 2906 
z
M 678 1631 
L 4684 1631 
L 4684 1100 
L 678 1100 
L 678 1631 
z
" transform="scale(0.015625)"/>
       <path id="DejaVuSans-2c" d="M 750 794 
L 1409 794 
L 1409 256 
L 897 -744 
L 494 -744 
L 750 256 
L 750 794 
z
" transform="scale(0.015625)"/>
       <path id="DejaVuSans-Oblique-4a" d="M 1069 4666 
L 1703 4666 
L 856 325 
Q 691 -522 298 -901 
Q -94 -1281 -800 -1281 
L -1050 -1281 
L -947 -750 
L -750 -750 
Q -328 -750 -109 -509 
Q 109 -269 225 325 
L 1069 4666 
z
" transform="scale(0.015625)"/>
      </defs>
      <use xlink:href="#DejaVuSans-Oblique-3b4" transform="translate(0 0.78125)"/>
      <use xlink:href="#DejaVuSans-Oblique-65" transform="translate(61.181641 -15.625) scale(0.7)"/>
      <use xlink:href="#DejaVuSans-3d" transform="translate(126.464844 0.78125)"/>
      <use xlink:href="#DejaVuSans-30" transform="translate(229.736328 0.78125)"/>
      <use xlink:href="#DejaVuSans-2c" transform="translate(293.359375 0.78125)"/>
      <use xlink:href="#DejaVuSans-20" transform="translate(325.146484 0.78125)"/>
      <use xlink:href="#DejaVuSans-Oblique-4a" transform="translate(356.933594 0.78125)"/>
      <use xlink:href="#DejaVuSans-3d" transform="translate(405.908203 0.78125)"/>
      <use xlink:href="#DejaVuSans-31" transform="translate(509.179688 0.78125)"/>
      <use xlink:href="#DejaVuSans-2e" transform="translate(572.802734 0.78125)"/>
      <use xlink:href="#DejaVuSans-36" transform="translate(604.589844 0.78125)"/>
      <use xlink:href="#DejaVuSans-30" transform="translate(668.212891 0.78125)"/>
     </g>
    </g>
    <g id="line2d_29">
     <path d="M 315.255247 107.182688 
L 325.255247 107.182688 
L 335.255247 107.182688 
" style="fill: none; stroke: #0080ff; stroke-width: 1.5; stroke-linecap: square"/>
    </g>
    <g id="text_15">
     <!-- $\delta_e = 0$, $J = 1.80$ -->
     <g transform="translate(343.255247 110.682688) scale(0.1 -0.1)">
      <use xlink:href="#DejaVuSans-Oblique-3b4" transform="translate(0 0.78125)"/>
      <use xlink:href="#DejaVuSans-Oblique-65" transform="translate(61.181641 -15.625) scale(0.7)"/>
      <use xlink:href="#DejaVuSans-3d" transform="translate(126.464844 0.78125)"/>
      <use xlink:href="#DejaVuSans-30" transform="translate(229.736328 0.78125)"/>
      <use xlink:href="#DejaVuSans-2c" transform="translate(293.359375 0.78125)"/>
      <use xlink:href="#DejaVuSans-20" transform="translate(325.146484 0.78125)"/>
      <use xlink:href="#DejaVuSans-Oblique-4a" transform="translate(356.933594 0.78125)"/>
      <use xlink:href="#DejaVuSans-3d" transform="translate(405.908203 0.78125)"/>
      <use xlink:href="#DejaVuSans-31" transform="translate(509.179688 0.78125)"/>
      <use xlink:href="#DejaVuSans-2e" transform="translate(572.802734 0.78125)"/>
      <use xlink:href="#DejaVuSans-38" transform="translate(601.964844 0.78125)"/>
      <use xlink:href="#DejaVuSans-30" transform="translate(665.587891 0.78125)"/>
     </g>
    </g>
    <g id="line2d_30">
     <path d="M 315.255247 121.881125 
L 325.255247 121.881125 
L 335.255247 121.881125 
" style="fill: none; stroke: #7dff7a; stroke-width: 1.5; stroke-linecap: square"/>
    </g>
    <g id="text_16">
     <!-- $\delta_e = 0$, $J = 2.00$ -->
     <g transform="translate(343.255247 125.381125) scale(0.1 -0.1)">
      <use xlink:href="#DejaVuSans-Oblique-3b4" transform="translate(0 0.78125)"/>
      <use xlink:href="#DejaVuSans-Oblique-65" transform="translate(61.181641 -15.625) scale(0.7)"/>
      <use xlink:href="#DejaVuSans-3d" transform="translate(126.464844 0.78125)"/>
      <use xlink:href="#DejaVuSans-30" transform="translate(229.736328 0.78125)"/>
      <use xlink:href="#DejaVuSans-2c" transform="translate(293.359375 0.78125)"/>
      <use xlink:href="#DejaVuSans-20" transform="translate(325.146484 0.78125)"/>
      <use xlink:href="#DejaVuSans-Oblique-4a" transform="translate(356.933594 0.78125)"/>
      <use xlink:href="#DejaVuSans-3d" transform="translate(405.908203 0.78125)"/>
      <use xlink:href="#DejaVuSans-32" transform="translate(509.179688 0.78125)"/>
      <use xlink:href="#DejaVuSans-2e" transform="translate(572.802734 0.78125)"/>
      <use xlink:href="#DejaVuSans-30" transform="translate(604.589844 0.78125)"/>
      <use xlink:href="#DejaVuSans-30" transform="translate(668.212891 0.78125)"/>
     </g>
    </g>
    <g id="line2d_31">
     <path d="M 315.255247 136.579563 
L 325.255247 136.579563 
L 335.255247 136.579563 
" style="fill: none; stroke: #ff9400; stroke-width: 1.5; stroke-linecap: square"/>
    </g>
    <g id="text_17">
     <!-- $\delta_e = 0$, $J = 2.20$ -->
     <g transform="translate(343.255247 140.079563) scale(0.1 -0.1)">
      <use xlink:href="#DejaVuSans-Oblique-3b4" transform="translate(0 0.78125)"/>
      <use xlink:href="#DejaVuSans-Oblique-65" transform="translate(61.181641 -15.625) scale(0.7)"/>
      <use xlink:href="#DejaVuSans-3d" transform="translate(126.464844 0.78125)"/>
      <use xlink:href="#DejaVuSans-30" transform="translate(229.736328 0.78125)"/>
      <use xlink:href="#DejaVuSans-2c" transform="translate(293.359375 0.78125)"/>
      <use xlink:href="#DejaVuSans-20" transform="translate(325.146484 0.78125)"/>
      <use xlink:href="#DejaVuSans-Oblique-4a" transform="translate(356.933594 0.78125)"/>
      <use xlink:href="#DejaVuSans-3d" transform="translate(405.908203 0.78125)"/>
      <use xlink:href="#DejaVuSans-32" transform="translate(509.179688 0.78125)"/>
      <use xlink:href="#DejaVuSans-2e" transform="translate(572.802734 0.78125)"/>
      <use xlink:href="#DejaVuSans-32" transform="translate(599.089844 0.78125)"/>
      <use xlink:href="#DejaVuSans-30" transform="translate(662.712891 0.78125)"/>
     </g>
    </g>
    <g id="line2d_32">
     <path d="M 315.255247 151.278 
L 325.255247 151.278 
L 335.255247 151.278 
" style="fill: none; stroke: #800000; stroke-width: 1.5; stroke-linecap: square"/>
    </g>
    <g id="text_18">
     <!-- $\delta_e = 0$, $J = 2.40$ -->
     <g transform="translate(343.255247 154.778) scale(0.1 -0.1)">
      <use xlink:href="#DejaVuSans-Oblique-3b4" transform="translate(0 0.78125)"/>
      <use xlink:href="#DejaVuSans-Oblique-65" transform="translate(61.181641 -15.625) scale(0.7)"/>
      <use xlink:href="#DejaVuSans-3d" transform="translate(126.464844 0.78125)"/>
      <use xlink:href="#DejaVuSans-30" transform="translate(229.736328 0.78125)"/>
      <use xlink:href="#DejaVuSans-2c" transform="translate(293.359375 0.78125)"/>
      <use xlink:href="#DejaVuSans-20" transform="translate(325.146484 0.78125)"/>
      <use xlink:href="#DejaVuSans-Oblique-4a" transform="translate(356.933594 0.78125)"/>
      <use xlink:href="#DejaVuSans-3d" transform="translate(405.908203 0.78125)"/>
      <use xlink:href="#DejaVuSans-32" transform="translate(509.179688 0.78125)"/>
      <use xlink:href="#DejaVuSans-2e" transform="translate(572.802734 0.78125)"/>
      <use xlink:href="#DejaVuSans-34" transform="translate(604.589844 0.78125)"/>
      <use xlink:href="#DejaVuSans-30" transform="translate(668.212891 0.78125)"/>
     </g>
    </g>
   </g>
  </g>
 </g>
 <defs>
  <clipPath id="p1657c1a9b0">
   <rect x="69.428" y="10.8" width="236.827247" height="163.24"/>
  </clipPath>
 </defs>
</svg>
