<?xml version="1.0" encoding="utf-8" standalone="no"?>
<!DOCTYPE svg PUBLIC "-//W3C//DTD SVG 1.1//EN"
  "http://www.w3.org/Graphics/SVG/1.1/DTD/svg11.dtd">
<svg xmlns:xlink="http://www.w3.org/1999/xlink" width="432pt" height="216pt" viewBox="0 0 432 216" xmlns="http://www.w3.org/2000/svg" version="1.1">
 <metadata>
  <rdf:RDF xmlns:dc="http://purl.org/dc/elements/1.1/" xmlns:cc="http://creativecommons.org/ns#" xmlns:rdf="http://www.w3.org/1999/02/22-rdf-syntax-ns#">
   <cc:Work>
    <dc:type rdf:resource="http://purl.org/dc/dcmitype/StillImage"/>
    <dc:date>2025-03-31T00:27:31.449124</dc:date>
    <dc:format>image/svg+xml</dc:format>
    <dc:creator>
     <cc:Agent>
      <dc:title>Matplotlib v3.9.2, https://matplotlib.org/</dc:title>
     </cc:Agent>
    </dc:creator>
   </cc:Work>
  </rdf:RDF>
 </metadata>
 <defs>
  <style type="text/css">*{stroke-linejoin: round; stroke-linecap: butt}</style>
 </defs>
 <g id="figure_1">
  <g id="patch_1">
   <path d="M 0 216 
L 432 216 
L 432 0 
L 0 0 
z
" style="fill: #ffffff"/>
  </g>
  <g id="axes_1">
   <g id="patch_2">
    <path d="M 69.428 174.04 
L 306.255247 174.04 
L 306.255247 10.8 
L 69.428 10.8 
z
" style="fill: #ffffff"/>
   </g>
   <g id="matplotlib.axis_1">
    <g id="xtick_1">
     <g id="line2d_1">
      <path d="M 80.192875 174.04 
L 80.192875 10.8 
" clip-path="url(#p6405773117)" style="fill: none; stroke: #b0b0b0; stroke-width: 0.8; stroke-linecap: square"/>
     </g>
     <g id="line2d_2">
      <defs>
       <path id="mcf72581830" d="M 0 0 
L 0 3.5 
" style="stroke: #000000; stroke-width: 0.8"/>
      </defs>
      <g>
       <use xlink:href="#mcf72581830" x="80.192875" y="174.04" style="stroke: #000000; stroke-width: 0.8"/>
      </g>
     </g>
     <g id="text_1">
      <!-- −4 -->
      <g transform="translate(72.821781 188.638438) scale(0.1 -0.1)">
       <defs>
        <path id="DejaVuSans-2212" d="M 678 2272 
L 4684 2272 
L 4684 1741 
L 678 1741 
L 678 2272 
z
" transform="scale(0.015625)"/>
        <path id="DejaVuSans-34" d="M 2419 4116 
L 825 1625 
L 2419 1625 
L 2419 4116 
z
M 2253 4666 
L 3047 4666 
L 3047 1625 
L 3713 1625 
L 3713 1100 
L 3047 1100 
L 3047 0 
L 2419 0 
L 2419 1100 
L 313 1100 
L 313 1709 
L 2253 4666 
z
" transform="scale(0.015625)"/>
       </defs>
       <use xlink:href="#DejaVuSans-2212"/>
       <use xlink:href="#DejaVuSans-34" x="83.789062"/>
      </g>
     </g>
    </g>
    <g id="xtick_2">
     <g id="line2d_3">
      <path d="M 119.337874 174.04 
L 119.337874 10.8 
" clip-path="url(#p6405773117)" style="fill: none; stroke: #b0b0b0; stroke-width: 0.8; stroke-linecap: square"/>
     </g>
     <g id="line2d_4">
      <g>
       <use xlink:href="#mcf72581830" x="119.337874" y="174.04" style="stroke: #000000; stroke-width: 0.8"/>
      </g>
     </g>
     <g id="text_2">
      <!-- −2 -->
      <g transform="translate(111.966781 188.638438) scale(0.1 -0.1)">
       <defs>
        <path id="DejaVuSans-32" d="M 1228 531 
L 3431 531 
L 3431 0 
L 469 0 
L 469 531 
Q 828 903 1448 1529 
Q 2069 2156 2228 2338 
Q 2531 2678 2651 2914 
Q 2772 3150 2772 3378 
Q 2772 3750 2511 3984 
Q 2250 4219 1831 4219 
Q 1534 4219 1204 4116 
Q 875 4013 500 3803 
L 500 4441 
Q 881 4594 1212 4672 
Q 1544 4750 1819 4750 
Q 2544 4750 2975 4387 
Q 3406 4025 3406 3419 
Q 3406 3131 3298 2873 
Q 3191 2616 2906 2266 
Q 2828 2175 2409 1742 
Q 1991 1309 1228 531 
z
" transform="scale(0.015625)"/>
       </defs>
       <use xlink:href="#DejaVuSans-2212"/>
       <use xlink:href="#DejaVuSans-32" x="83.789062"/>
      </g>
     </g>
    </g>
    <g id="xtick_3">
     <g id="line2d_5">
      <path d="M 158.482874 174.04 
L 158.482874 10.8 
" clip-path="url(#p6405773117)" style="fill: none; stroke: #b0b0b0; stroke-width: 0.8; stroke-linecap: square"/>
     </g>
     <g id="line2d_6">
      <g>
       <use xlink:href="#mcf72581830" x="158.482874" y="174.04" style="stroke: #000000; stroke-width: 0.8"/>
      </g>
     </g>
     <g id="text_3">
      <!-- 0 -->
      <g transform="translate(155.301624 188.638438) scale(0.1 -0.1)">
       <defs>
        <path id="DejaVuSans-30" d="M 2034 4250 
Q 1547 4250 1301 3770 
Q 1056 3291 1056 2328 
Q 1056 1369 1301 889 
Q 1547 409 2034 409 
Q 2525 409 2770 889 
Q 3016 1369 3016 2328 
Q 3016 3291 2770 3770 
Q 2525 4250 2034 4250 
z
M 2034 4750 
Q 2819 4750 3233 4129 
Q 3647 3509 3647 2328 
Q 3647 1150 3233 529 
Q 2819 -91 2034 -91 
Q 1250 -91 836 529 
Q 422 1150 422 2328 
Q 422 3509 836 4129 
Q 1250 4750 2034 4750 
z
" transform="scale(0.015625)"/>
       </defs>
       <use xlink:href="#DejaVuSans-30"/>
      </g>
     </g>
    </g>
    <g id="xtick_4">
     <g id="line2d_7">
      <path d="M 197.627874 174.04 
L 197.627874 10.8 
" clip-path="url(#p6405773117)" style="fill: none; stroke: #b0b0b0; stroke-width: 0.8; stroke-linecap: square"/>
     </g>
     <g id="line2d_8">
      <g>
       <use xlink:href="#mcf72581830" x="197.627874" y="174.04" style="stroke: #000000; stroke-width: 0.8"/>
      </g>
     </g>
     <g id="text_4">
      <!-- 2 -->
      <g transform="translate(194.446624 188.638438) scale(0.1 -0.1)">
       <use xlink:href="#DejaVuSans-32"/>
      </g>
     </g>
    </g>
    <g id="xtick_5">
     <g id="line2d_9">
      <path d="M 236.772873 174.04 
L 236.772873 10.8 
" clip-path="url(#p6405773117)" style="fill: none; stroke: #b0b0b0; stroke-width: 0.8; stroke-linecap: square"/>
     </g>
     <g id="line2d_10">
      <g>
       <use xlink:href="#mcf72581830" x="236.772873" y="174.04" style="stroke: #000000; stroke-width: 0.8"/>
      </g>
     </g>
     <g id="text_5">
      <!-- 4 -->
      <g transform="translate(233.591623 188.638438) scale(0.1 -0.1)">
       <use xlink:href="#DejaVuSans-34"/>
      </g>
     </g>
    </g>
    <g id="xtick_6">
     <g id="line2d_11">
      <path d="M 275.917873 174.04 
L 275.917873 10.8 
" clip-path="url(#p6405773117)" style="fill: none; stroke: #b0b0b0; stroke-width: 0.8; stroke-linecap: square"/>
     </g>
     <g id="line2d_12">
      <g>
       <use xlink:href="#mcf72581830" x="275.917873" y="174.04" style="stroke: #000000; stroke-width: 0.8"/>
      </g>
     </g>
     <g id="text_6">
      <!-- 6 -->
      <g transform="translate(272.736623 188.638438) scale(0.1 -0.1)">
       <defs>
        <path id="DejaVuSans-36" d="M 2113 2584 
Q 1688 2584 1439 2293 
Q 1191 2003 1191 1497 
Q 1191 994 1439 701 
Q 1688 409 2113 409 
Q 2538 409 2786 701 
Q 3034 994 3034 1497 
Q 3034 2003 2786 2293 
Q 2538 2584 2113 2584 
z
M 3366 4563 
L 3366 3988 
Q 3128 4100 2886 4159 
Q 2644 4219 2406 4219 
Q 1781 4219 1451 3797 
Q 1122 3375 1075 2522 
Q 1259 2794 1537 2939 
Q 1816 3084 2150 3084 
Q 2853 3084 3261 2657 
Q 3669 2231 3669 1497 
Q 3669 778 3244 343 
Q 2819 -91 2113 -91 
Q 1303 -91 875 529 
Q 447 1150 447 2328 
Q 447 3434 972 4092 
Q 1497 4750 2381 4750 
Q 2619 4750 2861 4703 
Q 3103 4656 3366 4563 
z
" transform="scale(0.015625)"/>
       </defs>
       <use xlink:href="#DejaVuSans-36"/>
      </g>
     </g>
    </g>
    <g id="text_7">
     <!-- $\alpha$ -->
     <g transform="translate(184.541624 202.316563) scale(0.1 -0.1)">
      <defs>
       <path id="DejaVuSans-Oblique-3b1" d="M 2619 1628 
L 2622 2350 
Q 2625 3088 2069 3091 
Q 1653 3094 1394 2747 
Q 1069 2319 959 1747 
Q 825 1059 994 731 
Q 1169 397 1547 397 
Q 1966 397 2319 1063 
L 2619 1628 
z
M 2166 3578 
Q 3141 3594 3128 2584 
Q 3128 2584 3616 3500 
L 4128 3500 
L 3119 1603 
L 3109 919 
Q 3109 766 3194 638 
Q 3291 488 3391 488 
L 3669 488 
L 3575 0 
L 3228 0 
Q 2934 0 2722 263 
Q 2622 394 2619 669 
Q 2416 334 2066 50 
Q 1900 -81 1453 -78 
Q 722 -72 456 397 
Q 184 884 353 1747 
Q 534 2675 1009 3097 
Q 1544 3569 2166 3578 
z
" transform="scale(0.015625)"/>
      </defs>
      <use xlink:href="#DejaVuSans-Oblique-3b1" transform="translate(0 0.84375)"/>
     </g>
    </g>
   </g>
   <g id="matplotlib.axis_2">
    <g id="ytick_1">
     <g id="line2d_13">
      <path d="M 69.428 153.684082 
L 306.255247 153.684082 
" clip-path="url(#p6405773117)" style="fill: none; stroke: #b0b0b0; stroke-width: 0.8; stroke-linecap: square"/>
     </g>
     <g id="line2d_14">
      <defs>
       <path id="m3cb997f89f" d="M 0 0 
L -3.5 0 
" style="stroke: #000000; stroke-width: 0.8"/>
      </defs>
      <g>
       <use xlink:href="#m3cb997f89f" x="69.428" y="153.684082" style="stroke: #000000; stroke-width: 0.8"/>
      </g>
     </g>
     <g id="text_8">
      <!-- 0.0080 -->
      <g transform="translate(27.437375 157.483301) scale(0.1 -0.1)">
       <defs>
        <path id="DejaVuSans-2e" d="M 684 794 
L 1344 794 
L 1344 0 
L 684 0 
L 684 794 
z
" transform="scale(0.015625)"/>
        <path id="DejaVuSans-38" d="M 2034 2216 
Q 1584 2216 1326 1975 
Q 1069 1734 1069 1313 
Q 1069 891 1326 650 
Q 1584 409 2034 409 
Q 2484 409 2743 651 
Q 3003 894 3003 1313 
Q 3003 1734 2745 1975 
Q 2488 2216 2034 2216 
z
M 1403 2484 
Q 997 2584 770 2862 
Q 544 3141 544 3541 
Q 544 4100 942 4425 
Q 1341 4750 2034 4750 
Q 2731 4750 3128 4425 
Q 3525 4100 3525 3541 
Q 3525 3141 3298 2862 
Q 3072 2584 2669 2484 
Q 3125 2378 3379 2068 
Q 3634 1759 3634 1313 
Q 3634 634 3220 271 
Q 2806 -91 2034 -91 
Q 1263 -91 848 271 
Q 434 634 434 1313 
Q 434 1759 690 2068 
Q 947 2378 1403 2484 
z
M 1172 3481 
Q 1172 3119 1398 2916 
Q 1625 2713 2034 2713 
Q 2441 2713 2670 2916 
Q 2900 3119 2900 3481 
Q 2900 3844 2670 4047 
Q 2441 4250 2034 4250 
Q 1625 4250 1398 4047 
Q 1172 3844 1172 3481 
z
" transform="scale(0.015625)"/>
       </defs>
       <use xlink:href="#DejaVuSans-30"/>
       <use xlink:href="#DejaVuSans-2e" x="63.623047"/>
       <use xlink:href="#DejaVuSans-30" x="95.410156"/>
       <use xlink:href="#DejaVuSans-30" x="159.033203"/>
       <use xlink:href="#DejaVuSans-38" x="222.65625"/>
       <use xlink:href="#DejaVuSans-30" x="286.279297"/>
      </g>
     </g>
    </g>
    <g id="ytick_2">
     <g id="line2d_15">
      <path d="M 69.428 122.28783 
L 306.255247 122.28783 
" clip-path="url(#p6405773117)" style="fill: none; stroke: #b0b0b0; stroke-width: 0.8; stroke-linecap: square"/>
     </g>
     <g id="line2d_16">
      <g>
       <use xlink:href="#m3cb997f89f" x="69.428" y="122.28783" style="stroke: #000000; stroke-width: 0.8"/>
      </g>
     </g>
     <g id="text_9">
      <!-- 0.0085 -->
      <g transform="translate(27.437375 126.087048) scale(0.1 -0.1)">
       <defs>
        <path id="DejaVuSans-35" d="M 691 4666 
L 3169 4666 
L 3169 4134 
L 1269 4134 
L 1269 2991 
Q 1406 3038 1543 3061 
Q 1681 3084 1819 3084 
Q 2600 3084 3056 2656 
Q 3513 2228 3513 1497 
Q 3513 744 3044 326 
Q 2575 -91 1722 -91 
Q 1428 -91 1123 -41 
Q 819 9 494 109 
L 494 744 
Q 775 591 1075 516 
Q 1375 441 1709 441 
Q 2250 441 2565 725 
Q 2881 1009 2881 1497 
Q 2881 1984 2565 2268 
Q 2250 2553 1709 2553 
Q 1456 2553 1204 2497 
Q 953 2441 691 2322 
L 691 4666 
z
" transform="scale(0.015625)"/>
       </defs>
       <use xlink:href="#DejaVuSans-30"/>
       <use xlink:href="#DejaVuSans-2e" x="63.623047"/>
       <use xlink:href="#DejaVuSans-30" x="95.410156"/>
       <use xlink:href="#DejaVuSans-30" x="159.033203"/>
       <use xlink:href="#DejaVuSans-38" x="222.65625"/>
       <use xlink:href="#DejaVuSans-35" x="286.279297"/>
      </g>
     </g>
    </g>
    <g id="ytick_3">
     <g id="line2d_17">
      <path d="M 69.428 90.891577 
L 306.255247 90.891577 
" clip-path="url(#p6405773117)" style="fill: none; stroke: #b0b0b0; stroke-width: 0.8; stroke-linecap: square"/>
     </g>
     <g id="line2d_18">
      <g>
       <use xlink:href="#m3cb997f89f" x="69.428" y="90.891577" style="stroke: #000000; stroke-width: 0.8"/>
      </g>
     </g>
     <g id="text_10">
      <!-- 0.0090 -->
      <g transform="translate(27.437375 94.690796) scale(0.1 -0.1)">
       <defs>
        <path id="DejaVuSans-39" d="M 703 97 
L 703 672 
Q 941 559 1184 500 
Q 1428 441 1663 441 
Q 2288 441 2617 861 
Q 2947 1281 2994 2138 
Q 2813 1869 2534 1725 
Q 2256 1581 1919 1581 
Q 1219 1581 811 2004 
Q 403 2428 403 3163 
Q 403 3881 828 4315 
Q 1253 4750 1959 4750 
Q 2769 4750 3195 4129 
Q 3622 3509 3622 2328 
Q 3622 1225 3098 567 
Q 2575 -91 1691 -91 
Q 1453 -91 1209 -44 
Q 966 3 703 97 
z
M 1959 2075 
Q 2384 2075 2632 2365 
Q 2881 2656 2881 3163 
Q 2881 3666 2632 3958 
Q 2384 4250 1959 4250 
Q 1534 4250 1286 3958 
Q 1038 3666 1038 3163 
Q 1038 2656 1286 2365 
Q 1534 2075 1959 2075 
z
" transform="scale(0.015625)"/>
       </defs>
       <use xlink:href="#DejaVuSans-30"/>
       <use xlink:href="#DejaVuSans-2e" x="63.623047"/>
       <use xlink:href="#DejaVuSans-30" x="95.410156"/>
       <use xlink:href="#DejaVuSans-30" x="159.033203"/>
       <use xlink:href="#DejaVuSans-39" x="222.65625"/>
       <use xlink:href="#DejaVuSans-30" x="286.279297"/>
      </g>
     </g>
    </g>
    <g id="ytick_4">
     <g id="line2d_19">
      <path d="M 69.428 59.495325 
L 306.255247 59.495325 
" clip-path="url(#p6405773117)" style="fill: none; stroke: #b0b0b0; stroke-width: 0.8; stroke-linecap: square"/>
     </g>
     <g id="line2d_20">
      <g>
       <use xlink:href="#m3cb997f89f" x="69.428" y="59.495325" style="stroke: #000000; stroke-width: 0.8"/>
      </g>
     </g>
     <g id="text_11">
      <!-- 0.0095 -->
      <g transform="translate(27.437375 63.294544) scale(0.1 -0.1)">
       <use xlink:href="#DejaVuSans-30"/>
       <use xlink:href="#DejaVuSans-2e" x="63.623047"/>
       <use xlink:href="#DejaVuSans-30" x="95.410156"/>
       <use xlink:href="#DejaVuSans-30" x="159.033203"/>
       <use xlink:href="#DejaVuSans-39" x="222.65625"/>
       <use xlink:href="#DejaVuSans-35" x="286.279297"/>
      </g>
     </g>
    </g>
    <g id="ytick_5">
     <g id="line2d_21">
      <path d="M 69.428 28.099072 
L 306.255247 28.099072 
" clip-path="url(#p6405773117)" style="fill: none; stroke: #b0b0b0; stroke-width: 0.8; stroke-linecap: square"/>
     </g>
     <g id="line2d_22">
      <g>
       <use xlink:href="#m3cb997f89f" x="69.428" y="28.099072" style="stroke: #000000; stroke-width: 0.8"/>
      </g>
     </g>
     <g id="text_12">
      <!-- 0.0100 -->
      <g transform="translate(27.437375 31.898291) scale(0.1 -0.1)">
       <defs>
        <path id="DejaVuSans-31" d="M 794 531 
L 1825 531 
L 1825 4091 
L 703 3866 
L 703 4441 
L 1819 4666 
L 2450 4666 
L 2450 531 
L 3481 531 
L 3481 0 
L 794 0 
L 794 531 
z
" transform="scale(0.015625)"/>
       </defs>
       <use xlink:href="#DejaVuSans-30"/>
       <use xlink:href="#DejaVuSans-2e" x="63.623047"/>
       <use xlink:href="#DejaVuSans-30" x="95.410156"/>
       <use xlink:href="#DejaVuSans-31" x="159.033203"/>
       <use xlink:href="#DejaVuSans-30" x="222.65625"/>
       <use xlink:href="#DejaVuSans-30" x="286.279297"/>
      </g>
     </g>
    </g>
    <g id="text_13">
     <!-- d$C_L$ / d$\delta_e$ -->
     <g transform="translate(21.357688 114.57) rotate(-90) scale(0.1 -0.1)">
      <defs>
       <path id="DejaVuSans-64" d="M 2906 2969 
L 2906 4863 
L 3481 4863 
L 3481 0 
L 2906 0 
L 2906 525 
Q 2725 213 2448 61 
Q 2172 -91 1784 -91 
Q 1150 -91 751 415 
Q 353 922 353 1747 
Q 353 2572 751 3078 
Q 1150 3584 1784 3584 
Q 2172 3584 2448 3432 
Q 2725 3281 2906 2969 
z
M 947 1747 
Q 947 1113 1208 752 
Q 1469 391 1925 391 
Q 2381 391 2643 752 
Q 2906 1113 2906 1747 
Q 2906 2381 2643 2742 
Q 2381 3103 1925 3103 
Q 1469 3103 1208 2742 
Q 947 2381 947 1747 
z
" transform="scale(0.015625)"/>
       <path id="DejaVuSans-Oblique-43" d="M 4447 4306 
L 4319 3641 
Q 4019 3944 3683 4091 
Q 3347 4238 2956 4238 
Q 2422 4238 2017 3981 
Q 1613 3725 1319 3200 
Q 1131 2863 1032 2486 
Q 934 2109 934 1728 
Q 934 1091 1264 756 
Q 1594 422 2222 422 
Q 2656 422 3056 561 
Q 3456 700 3834 978 
L 3688 231 
Q 3316 72 2936 -9 
Q 2556 -91 2175 -91 
Q 1278 -91 773 396 
Q 269 884 269 1753 
Q 269 2309 461 2846 
Q 653 3384 1013 3828 
Q 1394 4300 1883 4525 
Q 2372 4750 3022 4750 
Q 3422 4750 3780 4639 
Q 4138 4528 4447 4306 
z
" transform="scale(0.015625)"/>
       <path id="DejaVuSans-Oblique-4c" d="M 1075 4666 
L 1709 4666 
L 909 525 
L 3181 525 
L 3078 0 
L 172 0 
L 1075 4666 
z
" transform="scale(0.015625)"/>
       <path id="DejaVuSans-20" transform="scale(0.015625)"/>
       <path id="DejaVuSans-2f" d="M 1625 4666 
L 2156 4666 
L 531 -594 
L 0 -594 
L 1625 4666 
z
" transform="scale(0.015625)"/>
       <path id="DejaVuSans-Oblique-3b4" d="M 3472 4053 
Q 3197 4272 2450 4272 
Q 1659 4272 1588 3906 
Q 1531 3619 2328 3469 
Q 2953 3353 3253 3003 
Q 3616 2581 3447 1716 
Q 3284 888 2763 400 
Q 2238 -91 1488 -91 
Q 741 -91 406 400 
Q 72 888 241 1747 
Q 363 2384 891 2900 
Q 1097 3100 1353 3213 
Q 913 3459 1000 3900 
Q 1166 4750 2544 4750 
Q 3234 4750 3566 4531 
L 3472 4053 
z
M 1753 3056 
Q 1525 2966 1306 2738 
Q 969 2384 847 1747 
Q 722 1113 919 756 
Q 1119 397 1584 397 
Q 2044 397 2381 759 
Q 2722 1122 2838 1716 
Q 2956 2338 2731 2638 
Q 2491 2959 2103 2994 
Q 1906 3013 1753 3056 
z
" transform="scale(0.015625)"/>
       <path id="DejaVuSans-Oblique-65" d="M 3078 2063 
Q 3088 2113 3092 2166 
Q 3097 2219 3097 2272 
Q 3097 2653 2873 2875 
Q 2650 3097 2266 3097 
Q 1838 3097 1509 2826 
Q 1181 2556 1013 2059 
L 3078 2063 
z
M 3578 1613 
L 903 1613 
Q 884 1494 878 1425 
Q 872 1356 872 1306 
Q 872 872 1139 634 
Q 1406 397 1894 397 
Q 2269 397 2603 481 
Q 2938 566 3225 728 
L 3116 159 
Q 2806 34 2476 -28 
Q 2147 -91 1806 -91 
Q 1078 -91 686 257 
Q 294 606 294 1247 
Q 294 1794 489 2264 
Q 684 2734 1063 3103 
Q 1306 3334 1642 3459 
Q 1978 3584 2356 3584 
Q 2950 3584 3301 3228 
Q 3653 2872 3653 2272 
Q 3653 2128 3634 1964 
Q 3616 1800 3578 1613 
z
" transform="scale(0.015625)"/>
      </defs>
      <use xlink:href="#DejaVuSans-64" transform="translate(0 0.015625)"/>
      <use xlink:href="#DejaVuSans-Oblique-43" transform="translate(63.476562 0.015625)"/>
      <use xlink:href="#DejaVuSans-Oblique-4c" transform="translate(133.300781 -16.390625) scale(0.7)"/>
      <use xlink:href="#DejaVuSans-20" transform="translate(175.03418 0.015625)"/>
      <use xlink:href="#DejaVuSans-2f" transform="translate(206.821289 0.015625)"/>
      <use xlink:href="#DejaVuSans-20" transform="translate(240.512695 0.015625)"/>
      <use xlink:href="#DejaVuSans-64" transform="translate(272.299805 0.015625)"/>
      <use xlink:href="#DejaVuSans-Oblique-3b4" transform="translate(335.776367 0.015625)"/>
      <use xlink:href="#DejaVuSans-Oblique-65" transform="translate(396.958008 -16.390625) scale(0.7)"/>
     </g>
    </g>
   </g>
   <g id="line2d_23">
    <path d="M 80.192875 34.699151 
L 82.367597 33.650371 
L 84.542319 32.636071 
L 86.717041 31.656251 
L 88.891764 30.71091 
L 91.066486 29.800049 
L 93.241208 28.923668 
L 95.41593 28.081766 
L 97.590652 27.274343 
L 99.765375 26.501401 
L 101.940097 25.762937 
L 104.114819 25.058954 
L 106.289541 24.38945 
L 108.464263 23.754426 
L 110.638986 23.153881 
L 112.813708 22.587816 
L 114.98843 22.05623 
L 117.163152 21.559124 
L 119.337874 21.096498 
L 121.512597 20.668351 
L 123.687319 20.274684 
L 125.862041 19.915497 
L 128.036763 19.590789 
L 130.211485 19.300561 
L 132.386208 19.044812 
L 134.56093 18.823543 
L 136.735652 18.636753 
L 138.910374 18.484443 
L 141.085096 18.366613 
L 143.259819 18.283263 
L 145.434541 18.234391 
L 147.609263 18.22 
L 149.783985 18.240088 
L 151.958707 18.294656 
L 154.13343 18.383703 
L 156.308152 18.50723 
L 158.482874 18.665237 
L 160.657596 18.857723 
L 162.832318 19.084689 
L 165.007041 19.346134 
L 167.181763 19.642059 
L 169.356485 19.972463 
L 171.531207 20.337348 
L 173.705929 20.736711 
L 175.880652 21.170555 
L 178.055374 21.638878 
L 180.230096 22.14168 
L 182.404818 22.678963 
L 184.57954 23.250724 
L 186.754263 23.856966 
L 188.928985 24.497687 
L 191.103707 25.172887 
L 193.278429 25.882567 
L 195.453151 26.626727 
L 197.627874 27.405367 
L 199.802596 28.218486 
L 201.977318 29.066084 
L 204.15204 29.948162 
L 206.326762 30.86472 
L 208.501485 31.815758 
L 210.676207 32.801275 
L 212.850929 33.821271 
L 215.025651 34.875748 
L 217.200373 35.964703 
L 219.375096 37.088139 
L 221.549818 38.246054 
L 223.72454 39.438449 
L 225.899262 40.665323 
L 228.073984 41.926677 
L 230.248707 43.22251 
L 232.423429 44.552823 
L 234.598151 45.917616 
L 236.772873 47.316888 
L 238.947595 48.75064 
L 241.122318 50.218871 
L 243.29704 51.721582 
L 245.471762 53.258773 
L 247.646484 54.830443 
L 249.821206 56.436593 
L 251.995929 58.077223 
L 254.170651 59.752332 
L 256.345373 61.46192 
L 258.520095 63.205989 
L 260.694817 64.984537 
L 262.86954 66.797564 
L 265.044262 68.645071 
L 267.218984 70.527058 
L 269.393706 72.443524 
L 271.568428 74.39447 
L 273.743151 76.379896 
L 275.917873 78.399801 
L 278.092595 80.454185 
L 280.267317 82.54305 
L 282.442039 84.666394 
L 284.616762 86.824217 
L 286.791484 89.01652 
L 288.966206 91.243303 
L 291.140928 93.504565 
L 293.31565 95.800307 
L 295.490373 98.130529 
" clip-path="url(#p6405773117)" style="fill: none; stroke: #000080; stroke-width: 1.5; stroke-linecap: square"/>
   </g>
   <g id="line2d_24">
    <path d="M 80.192875 55.585737 
L 82.367597 55.364572 
L 84.542319 55.165545 
L 86.717041 54.988655 
L 88.891764 54.833903 
L 91.066486 54.701289 
L 93.241208 54.590812 
L 95.41593 54.502473 
L 97.590652 54.436272 
L 99.765375 54.392208 
L 101.940097 54.370282 
L 104.114819 54.370494 
L 106.289541 54.392844 
L 108.464263 54.437331 
L 110.638986 54.503956 
L 112.813708 54.592719 
L 114.98843 54.703619 
L 117.163152 54.836657 
L 119.337874 54.991833 
L 121.512597 55.169146 
L 123.687319 55.368597 
L 125.862041 55.590186 
L 128.036763 55.833913 
L 130.211485 56.099777 
L 132.386208 56.387779 
L 134.56093 56.697918 
L 136.735652 57.030196 
L 138.910374 57.384611 
L 141.085096 57.761163 
L 143.259819 58.159854 
L 145.434541 58.580682 
L 147.609263 59.023648 
L 149.783985 59.488751 
L 151.958707 59.975993 
L 154.13343 60.485371 
L 156.308152 61.016888 
L 158.482874 61.570542 
L 160.657596 62.146334 
L 162.832318 62.744264 
L 165.007041 63.364331 
L 167.181763 64.006536 
L 169.356485 64.670879 
L 171.531207 65.35736 
L 173.705929 66.065978 
L 175.880652 66.796734 
L 178.055374 67.549627 
L 180.230096 68.324659 
L 182.404818 69.121828 
L 184.57954 69.941134 
L 186.754263 70.782579 
L 188.928985 71.646161 
L 191.103707 72.53188 
L 193.278429 73.439738 
L 195.453151 74.369733 
L 197.627874 75.321866 
L 199.802596 76.296136 
L 201.977318 77.292545 
L 204.15204 78.311091 
L 206.326762 79.351774 
L 208.501485 80.414596 
L 210.676207 81.499555 
L 212.850929 82.606651 
L 215.025651 83.735886 
L 217.200373 84.887258 
L 219.375096 86.060768 
L 221.549818 87.256415 
L 223.72454 88.474201 
L 225.899262 89.714123 
L 228.073984 90.976184 
L 230.248707 92.260382 
L 232.423429 93.566718 
L 234.598151 94.895192 
L 236.772873 96.245804 
L 238.947595 97.618553 
L 241.122318 99.013439 
L 243.29704 100.430464 
L 245.471762 101.869626 
L 247.646484 103.330926 
L 249.821206 104.814364 
L 251.995929 106.319939 
L 254.170651 107.847652 
L 256.345373 109.397503 
L 258.520095 110.969491 
L 260.694817 112.563617 
L 262.86954 114.179881 
L 265.044262 115.818282 
L 267.218984 117.478822 
L 269.393706 119.161498 
L 271.568428 120.866313 
L 273.743151 122.593265 
L 275.917873 124.342355 
L 278.092595 126.113583 
L 280.267317 127.906948 
L 282.442039 129.722451 
L 284.616762 131.560092 
L 286.791484 133.419871 
L 288.966206 135.301787 
L 291.140928 137.205841 
L 293.31565 139.132032 
L 295.490373 141.080361 
" clip-path="url(#p6405773117)" style="fill: none; stroke: #0080ff; stroke-width: 1.5; stroke-linecap: square"/>
   </g>
   <g id="line2d_25">
    <path d="M 80.192875 75.740892 
L 82.367597 76.096015 
L 84.542319 76.462067 
L 86.717041 76.839046 
L 88.891764 77.226954 
L 91.066486 77.62579 
L 93.241208 78.035554 
L 95.41593 78.456245 
L 97.590652 78.887865 
L 99.765375 79.330413 
L 101.940097 79.783889 
L 104.114819 80.248294 
L 106.289541 80.723626 
L 108.464263 81.209886 
L 110.638986 81.707075 
L 112.813708 82.215191 
L 114.98843 82.734235 
L 117.163152 83.264208 
L 119.337874 83.805109 
L 121.512597 84.356937 
L 123.687319 84.919694 
L 125.862041 85.493379 
L 128.036763 86.077992 
L 130.211485 86.673533 
L 132.386208 87.280002 
L 134.56093 87.897399 
L 136.735652 88.525724 
L 138.910374 89.164978 
L 141.085096 89.815159 
L 143.259819 90.476269 
L 145.434541 91.148306 
L 147.609263 91.831272 
L 149.783985 92.525165 
L 151.958707 93.229987 
L 154.13343 93.945737 
L 156.308152 94.672415 
L 158.482874 95.410021 
L 160.657596 96.158555 
L 162.832318 96.918017 
L 165.007041 97.688407 
L 167.181763 98.469725 
L 169.356485 99.261971 
L 171.531207 100.065146 
L 173.705929 100.879248 
L 175.880652 101.704279 
L 178.055374 102.540237 
L 180.230096 103.387124 
L 182.404818 104.244938 
L 184.57954 105.113681 
L 186.754263 105.993352 
L 188.928985 106.883951 
L 191.103707 107.785478 
L 193.278429 108.697933 
L 195.453151 109.621316 
L 197.627874 110.555627 
L 199.802596 111.500867 
L 201.977318 112.457034 
L 204.15204 113.424129 
L 206.326762 114.402153 
L 208.501485 115.391105 
L 210.676207 116.390984 
L 212.850929 117.401792 
L 215.025651 118.423528 
L 217.200373 119.456191 
L 219.375096 120.499783 
L 221.549818 121.554303 
L 223.72454 122.619751 
L 225.899262 123.696128 
L 228.073984 124.783432 
L 230.248707 125.881664 
L 232.423429 126.990824 
L 234.598151 128.110913 
L 236.772873 129.241929 
L 238.947595 130.383874 
L 241.122318 131.536746 
L 243.29704 132.700547 
L 245.471762 133.875276 
L 247.646484 135.060933 
L 249.821206 136.257518 
L 251.995929 137.465031 
L 254.170651 138.683472 
L 256.345373 139.912841 
L 258.520095 141.153138 
L 260.694817 142.404363 
L 262.86954 143.666517 
L 265.044262 144.939598 
L 267.218984 146.223608 
L 269.393706 147.518545 
L 271.568428 148.824411 
L 273.743151 150.141204 
L 275.917873 151.468926 
L 278.092595 152.807576 
L 280.267317 154.157154 
L 282.442039 155.51766 
L 284.616762 156.889094 
L 286.791484 158.271456 
L 288.966206 159.664746 
L 291.140928 161.068964 
L 293.31565 162.484111 
L 295.490373 163.910185 
" clip-path="url(#p6405773117)" style="fill: none; stroke: #7dff7a; stroke-width: 1.5; stroke-linecap: square"/>
   </g>
   <g id="line2d_26">
    <path d="M 80.192875 95.164614 
L 82.367597 95.8447 
L 84.542319 96.525637 
L 86.717041 97.207425 
L 88.891764 97.890063 
L 91.066486 98.573552 
L 93.241208 99.257892 
L 95.41593 99.943083 
L 97.590652 100.629124 
L 99.765375 101.316016 
L 101.940097 102.003758 
L 104.114819 102.692352 
L 106.289541 103.381796 
L 108.464263 104.072091 
L 110.638986 104.763236 
L 112.813708 105.455233 
L 114.98843 106.14808 
L 117.163152 106.841777 
L 119.337874 107.536326 
L 121.512597 108.231725 
L 123.687319 108.927975 
L 125.862041 109.625076 
L 128.036763 110.323027 
L 130.211485 111.021829 
L 132.386208 111.721482 
L 134.56093 112.421985 
L 136.735652 113.12334 
L 138.910374 113.825544 
L 141.085096 114.5286 
L 143.259819 115.232507 
L 145.434541 115.937264 
L 147.609263 116.642872 
L 149.783985 117.34933 
L 151.958707 118.056639 
L 154.13343 118.764799 
L 156.308152 119.47381 
L 158.482874 120.183672 
L 160.657596 120.894384 
L 162.832318 121.605947 
L 165.007041 122.31836 
L 167.181763 123.031625 
L 169.356485 123.74574 
L 171.531207 124.460706 
L 173.705929 125.176522 
L 175.880652 125.893189 
L 178.055374 126.610707 
L 180.230096 127.329076 
L 182.404818 128.048295 
L 184.57954 128.768365 
L 186.754263 129.489286 
L 188.928985 130.211058 
L 191.103707 130.93368 
L 193.278429 131.657153 
L 195.453151 132.381477 
L 197.627874 133.106651 
L 199.802596 133.832677 
L 201.977318 134.559552 
L 204.15204 135.287279 
L 206.326762 136.015856 
L 208.501485 136.745285 
L 210.676207 137.475563 
L 212.850929 138.206693 
L 215.025651 138.938673 
L 217.200373 139.671504 
L 219.375096 140.405186 
L 221.549818 141.139718 
L 223.72454 141.875101 
L 225.899262 142.611335 
L 228.073984 143.34842 
L 230.248707 144.086355 
L 232.423429 144.825141 
L 234.598151 145.564778 
L 236.772873 146.305265 
L 238.947595 147.046603 
L 241.122318 147.788792 
L 243.29704 148.531832 
L 245.471762 149.275722 
L 247.646484 150.020463 
L 249.821206 150.766055 
L 251.995929 151.512498 
L 254.170651 152.259791 
L 256.345373 153.007935 
L 258.520095 153.75693 
L 260.694817 154.506775 
L 262.86954 155.257471 
L 265.044262 156.009018 
L 267.218984 156.761416 
L 269.393706 157.514664 
L 271.568428 158.268763 
L 273.743151 159.023713 
L 275.917873 159.779513 
L 278.092595 160.536164 
L 280.267317 161.293666 
L 282.442039 162.052019 
L 284.616762 162.811222 
L 286.791484 163.571276 
L 288.966206 164.332181 
L 291.140928 165.093937 
L 293.31565 165.856543 
L 295.490373 166.62 
" clip-path="url(#p6405773117)" style="fill: none; stroke: #ff9400; stroke-width: 1.5; stroke-linecap: square"/>
   </g>
   <g id="line2d_27">
    <path d="M 80.192875 113.856905 
L 82.367597 114.610628 
L 84.542319 115.356256 
L 86.717041 116.093791 
L 88.891764 116.823231 
L 91.066486 117.544576 
L 93.241208 118.257828 
L 95.41593 118.962985 
L 97.590652 119.660047 
L 99.765375 120.349015 
L 101.940097 121.029889 
L 104.114819 121.702669 
L 106.289541 122.367354 
L 108.464263 123.023945 
L 110.638986 123.672442 
L 112.813708 124.312844 
L 114.98843 124.945152 
L 117.163152 125.569365 
L 119.337874 126.185484 
L 121.512597 126.793509 
L 123.687319 127.393439 
L 125.862041 127.985276 
L 128.036763 128.569017 
L 130.211485 129.144665 
L 132.386208 129.712218 
L 134.56093 130.271676 
L 136.735652 130.823041 
L 138.910374 131.366311 
L 141.085096 131.901487 
L 143.259819 132.428568 
L 145.434541 132.947555 
L 147.609263 133.458447 
L 149.783985 133.961246 
L 151.958707 134.45595 
L 154.13343 134.942559 
L 156.308152 135.421074 
L 158.482874 135.891495 
L 160.657596 136.353822 
L 162.832318 136.808054 
L 165.007041 137.254192 
L 167.181763 137.692235 
L 169.356485 138.122184 
L 171.531207 138.544039 
L 173.705929 138.9578 
L 175.880652 139.363466 
L 178.055374 139.761038 
L 180.230096 140.150515 
L 182.404818 140.531898 
L 184.57954 140.905187 
L 186.754263 141.270381 
L 188.928985 141.627481 
L 191.103707 141.976487 
L 193.278429 142.317398 
L 195.453151 142.650215 
L 197.627874 142.974938 
L 199.802596 143.291566 
L 201.977318 143.6001 
L 204.15204 143.900539 
L 206.326762 144.192885 
L 208.501485 144.477136 
L 210.676207 144.753292 
L 212.850929 145.021354 
L 215.025651 145.281322 
L 217.200373 145.533196 
L 219.375096 145.776975 
L 221.549818 146.01266 
L 223.72454 146.24025 
L 225.899262 146.459746 
L 228.073984 146.671148 
L 230.248707 146.874455 
L 232.423429 147.069668 
L 234.598151 147.256787 
L 236.772873 147.435811 
L 238.947595 147.606741 
L 241.122318 147.769577 
L 243.29704 147.924318 
L 245.471762 148.070965 
L 247.646484 148.209518 
L 249.821206 148.339976 
L 251.995929 148.46234 
L 254.170651 148.57661 
L 256.345373 148.682785 
L 258.520095 148.780866 
L 260.694817 148.870853 
L 262.86954 148.952745 
L 265.044262 149.026543 
L 267.218984 149.092246 
L 269.393706 149.149855 
L 271.568428 149.19937 
L 273.743151 149.24079 
L 275.917873 149.274117 
L 278.092595 149.299348 
L 280.267317 149.316486 
L 282.442039 149.325529 
L 284.616762 149.326478 
L 286.791484 149.319332 
L 288.966206 149.304092 
L 291.140928 149.280758 
L 293.31565 149.249329 
L 295.490373 149.209806 
" clip-path="url(#p6405773117)" style="fill: none; stroke: #800000; stroke-width: 1.5; stroke-linecap: square"/>
   </g>
   <g id="patch_3">
    <path d="M 69.428 174.04 
L 69.428 10.8 
" style="fill: none; stroke: #000000; stroke-width: 0.8; stroke-linejoin: miter; stroke-linecap: square"/>
   </g>
   <g id="patch_4">
    <path d="M 306.255247 174.04 
L 306.255247 10.8 
" style="fill: none; stroke: #000000; stroke-width: 0.8; stroke-linejoin: miter; stroke-linecap: square"/>
   </g>
   <g id="patch_5">
    <path d="M 69.428 174.04 
L 306.255247 174.04 
" style="fill: none; stroke: #000000; stroke-width: 0.8; stroke-linejoin: miter; stroke-linecap: square"/>
   </g>
   <g id="patch_6">
    <path d="M 69.428 10.8 
L 306.255247 10.8 
" style="fill: none; stroke: #000000; stroke-width: 0.8; stroke-linejoin: miter; stroke-linecap: square"/>
   </g>
   <g id="legend_1">
    <g id="patch_7">
     <path d="M 315.255247 162.878 
L 420.455247 162.878 
Q 422.455247 162.878 422.455247 160.878 
L 422.455247 88.385812 
Q 422.455247 86.385812 420.455247 86.385812 
L 315.255247 86.385812 
Q 313.255247 86.385812 313.255247 88.385812 
L 313.255247 160.878 
Q 313.255247 162.878 315.255247 162.878 
z
" style="fill: #4d4d4d; opacity: 0.5; stroke: #4d4d4d; stroke-linejoin: miter"/>
    </g>
    <g id="patch_8">
     <path d="M 313.255247 160.878 
L 418.455247 160.878 
Q 420.455247 160.878 420.455247 158.878 
L 420.455247 86.385812 
Q 420.455247 84.385812 418.455247 84.385812 
L 313.255247 84.385812 
Q 311.255247 84.385812 311.255247 86.385812 
L 311.255247 158.878 
Q 311.255247 160.878 313.255247 160.878 
z
" style="fill: #ffffff; stroke: #cccccc; stroke-linejoin: miter"/>
    </g>
    <g id="line2d_28">
     <path d="M 315.255247 92.48425 
L 325.255247 92.48425 
L 335.255247 92.48425 
" style="fill: none; stroke: #000080; stroke-width: 1.5; stroke-linecap: square"/>
    </g>
    <g id="text_14">
     <!-- $\delta_e = 0$, $J = 1.60$ -->
     <g transform="translate(343.255247 95.98425) scale(0.1 -0.1)">
      <defs>
       <path id="DejaVuSans-3d" d="M 678 2906 
L 4684 2906 
L 4684 2381 
L 678 2381 
L 678 2906 
z
M 678 1631 
L 4684 1631 
L 4684 1100 
L 678 1100 
L 678 1631 
z
" transform="scale(0.015625)"/>
       <path id="DejaVuSans-2c" d="M 750 794 
L 1409 794 
L 1409 256 
L 897 -744 
L 494 -744 
L 750 256 
L 750 794 
z
" transform="scale(0.015625)"/>
       <path id="DejaVuSans-Oblique-4a" d="M 1069 4666 
L 1703 4666 
L 856 325 
Q 691 -522 298 -901 
Q -94 -1281 -800 -1281 
L -1050 -1281 
L -947 -750 
L -750 -750 
Q -328 -750 -109 -509 
Q 109 -269 225 325 
L 1069 4666 
z
" transform="scale(0.015625)"/>
      </defs>
      <use xlink:href="#DejaVuSans-Oblique-3b4" transform="translate(0 0.78125)"/>
      <use xlink:href="#DejaVuSans-Oblique-65" transform="translate(61.181641 -15.625) scale(0.7)"/>
      <use xlink:href="#DejaVuSans-3d" transform="translate(126.464844 0.78125)"/>
      <use xlink:href="#DejaVuSans-30" transform="translate(229.736328 0.78125)"/>
      <use xlink:href="#DejaVuSans-2c" transform="translate(293.359375 0.78125)"/>
      <use xlink:href="#DejaVuSans-20" transform="translate(325.146484 0.78125)"/>
      <use xlink:href="#DejaVuSans-Oblique-4a" transform="translate(356.933594 0.78125)"/>
      <use xlink:href="#DejaVuSans-3d" transform="translate(405.908203 0.78125)"/>
      <use xlink:href="#DejaVuSans-31" transform="translate(509.179688 0.78125)"/>
      <use xlink:href="#DejaVuSans-2e" transform="translate(572.802734 0.78125)"/>
      <use xlink:href="#DejaVuSans-36" transform="translate(604.589844 0.78125)"/>
      <use xlink:href="#DejaVuSans-30" transform="translate(668.212891 0.78125)"/>
     </g>
    </g>
    <g id="line2d_29">
     <path d="M 315.255247 107.182688 
L 325.255247 107.182688 
L 335.255247 107.182688 
" style="fill: none; stroke: #0080ff; stroke-width: 1.5; stroke-linecap: square"/>
    </g>
    <g id="text_15">
     <!-- $\delta_e = 0$, $J = 1.80$ -->
     <g transform="translate(343.255247 110.682688) scale(0.1 -0.1)">
      <use xlink:href="#DejaVuSans-Oblique-3b4" transform="translate(0 0.78125)"/>
      <use xlink:href="#DejaVuSans-Oblique-65" transform="translate(61.181641 -15.625) scale(0.7)"/>
      <use xlink:href="#DejaVuSans-3d" transform="translate(126.464844 0.78125)"/>
      <use xlink:href="#DejaVuSans-30" transform="translate(229.736328 0.78125)"/>
      <use xlink:href="#DejaVuSans-2c" transform="translate(293.359375 0.78125)"/>
      <use xlink:href="#DejaVuSans-20" transform="translate(325.146484 0.78125)"/>
      <use xlink:href="#DejaVuSans-Oblique-4a" transform="translate(356.933594 0.78125)"/>
      <use xlink:href="#DejaVuSans-3d" transform="translate(405.908203 0.78125)"/>
      <use xlink:href="#DejaVuSans-31" transform="translate(509.179688 0.78125)"/>
      <use xlink:href="#DejaVuSans-2e" transform="translate(572.802734 0.78125)"/>
      <use xlink:href="#DejaVuSans-38" transform="translate(601.964844 0.78125)"/>
      <use xlink:href="#DejaVuSans-30" transform="translate(665.587891 0.78125)"/>
     </g>
    </g>
    <g id="line2d_30">
     <path d="M 315.255247 121.881125 
L 325.255247 121.881125 
L 335.255247 121.881125 
" style="fill: none; stroke: #7dff7a; stroke-width: 1.5; stroke-linecap: square"/>
    </g>
    <g id="text_16">
     <!-- $\delta_e = 0$, $J = 2.00$ -->
     <g transform="translate(343.255247 125.381125) scale(0.1 -0.1)">
      <use xlink:href="#DejaVuSans-Oblique-3b4" transform="translate(0 0.78125)"/>
      <use xlink:href="#DejaVuSans-Oblique-65" transform="translate(61.181641 -15.625) scale(0.7)"/>
      <use xlink:href="#DejaVuSans-3d" transform="translate(126.464844 0.78125)"/>
      <use xlink:href="#DejaVuSans-30" transform="translate(229.736328 0.78125)"/>
      <use xlink:href="#DejaVuSans-2c" transform="translate(293.359375 0.78125)"/>
      <use xlink:href="#DejaVuSans-20" transform="translate(325.146484 0.78125)"/>
      <use xlink:href="#DejaVuSans-Oblique-4a" transform="translate(356.933594 0.78125)"/>
      <use xlink:href="#DejaVuSans-3d" transform="translate(405.908203 0.78125)"/>
      <use xlink:href="#DejaVuSans-32" transform="translate(509.179688 0.78125)"/>
      <use xlink:href="#DejaVuSans-2e" transform="translate(572.802734 0.78125)"/>
      <use xlink:href="#DejaVuSans-30" transform="translate(604.589844 0.78125)"/>
      <use xlink:href="#DejaVuSans-30" transform="translate(668.212891 0.78125)"/>
     </g>
    </g>
    <g id="line2d_31">
     <path d="M 315.255247 136.579563 
L 325.255247 136.579563 
L 335.255247 136.579563 
" style="fill: none; stroke: #ff9400; stroke-width: 1.5; stroke-linecap: square"/>
    </g>
    <g id="text_17">
     <!-- $\delta_e = 0$, $J = 2.20$ -->
     <g transform="translate(343.255247 140.079563) scale(0.1 -0.1)">
      <use xlink:href="#DejaVuSans-Oblique-3b4" transform="translate(0 0.78125)"/>
      <use xlink:href="#DejaVuSans-Oblique-65" transform="translate(61.181641 -15.625) scale(0.7)"/>
      <use xlink:href="#DejaVuSans-3d" transform="translate(126.464844 0.78125)"/>
      <use xlink:href="#DejaVuSans-30" transform="translate(229.736328 0.78125)"/>
      <use xlink:href="#DejaVuSans-2c" transform="translate(293.359375 0.78125)"/>
      <use xlink:href="#DejaVuSans-20" transform="translate(325.146484 0.78125)"/>
      <use xlink:href="#DejaVuSans-Oblique-4a" transform="translate(356.933594 0.78125)"/>
      <use xlink:href="#DejaVuSans-3d" transform="translate(405.908203 0.78125)"/>
      <use xlink:href="#DejaVuSans-32" transform="translate(509.179688 0.78125)"/>
      <use xlink:href="#DejaVuSans-2e" transform="translate(572.802734 0.78125)"/>
      <use xlink:href="#DejaVuSans-32" transform="translate(599.089844 0.78125)"/>
      <use xlink:href="#DejaVuSans-30" transform="translate(662.712891 0.78125)"/>
     </g>
    </g>
    <g id="line2d_32">
     <path d="M 315.255247 151.278 
L 325.255247 151.278 
L 335.255247 151.278 
" style="fill: none; stroke: #800000; stroke-width: 1.5; stroke-linecap: square"/>
    </g>
    <g id="text_18">
     <!-- $\delta_e = 0$, $J = 2.40$ -->
     <g transform="translate(343.255247 154.778) scale(0.1 -0.1)">
      <use xlink:href="#DejaVuSans-Oblique-3b4" transform="translate(0 0.78125)"/>
      <use xlink:href="#DejaVuSans-Oblique-65" transform="translate(61.181641 -15.625) scale(0.7)"/>
      <use xlink:href="#DejaVuSans-3d" transform="translate(126.464844 0.78125)"/>
      <use xlink:href="#DejaVuSans-30" transform="translate(229.736328 0.78125)"/>
      <use xlink:href="#DejaVuSans-2c" transform="translate(293.359375 0.78125)"/>
      <use xlink:href="#DejaVuSans-20" transform="translate(325.146484 0.78125)"/>
      <use xlink:href="#DejaVuSans-Oblique-4a" transform="translate(356.933594 0.78125)"/>
      <use xlink:href="#DejaVuSans-3d" transform="translate(405.908203 0.78125)"/>
      <use xlink:href="#DejaVuSans-32" transform="translate(509.179688 0.78125)"/>
      <use xlink:href="#DejaVuSans-2e" transform="translate(572.802734 0.78125)"/>
      <use xlink:href="#DejaVuSans-34" transform="translate(604.589844 0.78125)"/>
      <use xlink:href="#DejaVuSans-30" transform="translate(668.212891 0.78125)"/>
     </g>
    </g>
   </g>
  </g>
 </g>
 <defs>
  <clipPath id="p6405773117">
   <rect x="69.428" y="10.8" width="236.827247" height="163.24"/>
  </clipPath>
 </defs>
</svg>
