<?xml version="1.0" encoding="utf-8" standalone="no"?>
<!DOCTYPE svg PUBLIC "-//W3C//DTD SVG 1.1//EN"
  "http://www.w3.org/Graphics/SVG/1.1/DTD/svg11.dtd">
<svg xmlns:xlink="http://www.w3.org/1999/xlink" width="432pt" height="216pt" viewBox="0 0 432 216" xmlns="http://www.w3.org/2000/svg" version="1.1">
 <metadata>
  <rdf:RDF xmlns:dc="http://purl.org/dc/elements/1.1/" xmlns:cc="http://creativecommons.org/ns#" xmlns:rdf="http://www.w3.org/1999/02/22-rdf-syntax-ns#">
   <cc:Work>
    <dc:type rdf:resource="http://purl.org/dc/dcmitype/StillImage"/>
    <dc:date>2025-03-31T11:57:48.190629</dc:date>
    <dc:format>image/svg+xml</dc:format>
    <dc:creator>
     <cc:Agent>
      <dc:title>Matplotlib v3.9.2, https://matplotlib.org/</dc:title>
     </cc:Agent>
    </dc:creator>
   </cc:Work>
  </rdf:RDF>
 </metadata>
 <defs>
  <style type="text/css">*{stroke-linejoin: round; stroke-linecap: butt}</style>
 </defs>
 <g id="figure_1">
  <g id="patch_1">
   <path d="M 0 216 
L 432 216 
L 432 0 
L 0 0 
z
" style="fill: #ffffff"/>
  </g>
  <g id="axes_1">
   <g id="patch_2">
    <path d="M 69.428 168.568 
L 288.833656 168.568 
L 288.833656 28.876 
L 69.428 28.876 
z
" style="fill: #ffffff"/>
   </g>
   <g id="PathCollection_1">
    <defs>
     <path id="ma2b62b2513" d="M -3 3 
L 3 -3 
M -3 -3 
L 3 3 
" style="stroke: #000080; stroke-width: 1.5"/>
    </defs>
    <g clip-path="url(#pce696b3a13)">
     <use xlink:href="#ma2b62b2513" x="110.523892" y="100.330732" style="fill: #000080; stroke: #000080; stroke-width: 1.5"/>
     <use xlink:href="#ma2b62b2513" x="84.479273" y="116.201781" style="fill: #000080; stroke: #000080; stroke-width: 1.5"/>
     <use xlink:href="#ma2b62b2513" x="255.987568" y="49.042604" style="fill: #000080; stroke: #000080; stroke-width: 1.5"/>
     <use xlink:href="#ma2b62b2513" x="144.88421" y="83.861938" style="fill: #000080; stroke: #000080; stroke-width: 1.5"/>
     <use xlink:href="#ma2b62b2513" x="191.783699" y="66.792805" style="fill: #000080; stroke: #000080; stroke-width: 1.5"/>
     <use xlink:href="#ma2b62b2513" x="254.06876" y="49.083507" style="fill: #000080; stroke: #000080; stroke-width: 1.5"/>
     <use xlink:href="#ma2b62b2513" x="253.981866" y="49.083507" style="fill: #000080; stroke: #000080; stroke-width: 1.5"/>
    </g>
   </g>
   <g id="PathCollection_2">
    <defs>
     <path id="m7a27e6b39b" d="M -3 0 
L 3 0 
M 0 3 
L 0 -3 
" style="stroke: #0000ff; stroke-width: 1.5"/>
    </defs>
    <g clip-path="url(#pce696b3a13)">
     <use xlink:href="#m7a27e6b39b" x="161.99238" y="83.867235" style="fill: #0000ff; stroke: #0000ff; stroke-width: 1.5"/>
     <use xlink:href="#m7a27e6b39b" x="208.28269" y="66.78018" style="fill: #0000ff; stroke: #0000ff; stroke-width: 1.5"/>
     <use xlink:href="#m7a27e6b39b" x="128.16656" y="100.367029" style="fill: #0000ff; stroke: #0000ff; stroke-width: 1.5"/>
     <use xlink:href="#m7a27e6b39b" x="102.15427" y="116.230758" style="fill: #0000ff; stroke: #0000ff; stroke-width: 1.5"/>
    </g>
   </g>
   <g id="PathCollection_3">
    <defs>
     <path id="m90dd939810" d="M -3 3 
L 3 -3 
M -3 -3 
L 3 3 
" style="stroke: #0060ff; stroke-width: 1.5"/>
    </defs>
    <g clip-path="url(#pce696b3a13)">
     <use xlink:href="#m90dd939810" x="261.628781" y="35.225636" style="fill: #0060ff; stroke: #0060ff; stroke-width: 1.5"/>
    </g>
   </g>
   <g id="PathCollection_4">
    <defs>
     <path id="m0b7a2a6b54" d="M -3 0 
L 3 0 
M 0 3 
L 0 -3 
" style="stroke: #00d4ff; stroke-width: 1.5"/>
    </defs>
    <g clip-path="url(#pce696b3a13)">
     <use xlink:href="#m0b7a2a6b54" x="123.739448" y="116.207561" style="fill: #00d4ff; stroke: #00d4ff; stroke-width: 1.5"/>
     <use xlink:href="#m0b7a2a6b54" x="268.332552" y="35.230849" style="fill: #00d4ff; stroke: #00d4ff; stroke-width: 1.5"/>
     <use xlink:href="#m0b7a2a6b54" x="138.844098" y="106.488944" style="fill: #00d4ff; stroke: #00d4ff; stroke-width: 1.5"/>
    </g>
   </g>
   <g id="PathCollection_5">
    <defs>
     <path id="md6441b806a" d="M -3 3 
L 3 -3 
M -3 -3 
L 3 3 
" style="stroke: #4dffaa; stroke-width: 1.5"/>
    </defs>
    <g clip-path="url(#pce696b3a13)">
     <use xlink:href="#md6441b806a" x="100.310138" y="139.728852" style="fill: #4dffaa; stroke: #4dffaa; stroke-width: 1.5"/>
     <use xlink:href="#md6441b806a" x="141.252045" y="121.112442" style="fill: #4dffaa; stroke: #4dffaa; stroke-width: 1.5"/>
    </g>
   </g>
   <g id="PathCollection_6">
    <defs>
     <path id="m244353bfef" d="M -3 0 
L 3 0 
M 0 3 
L 0 -3 
" style="stroke: #aaff4d; stroke-width: 1.5"/>
    </defs>
    <g clip-path="url(#pce696b3a13)">
     <use xlink:href="#m244353bfef" x="173.991222" y="96.23497" style="fill: #aaff4d; stroke: #aaff4d; stroke-width: 1.5"/>
     <use xlink:href="#m244353bfef" x="91.854997" y="139.695841" style="fill: #aaff4d; stroke: #aaff4d; stroke-width: 1.5"/>
    </g>
   </g>
   <g id="PathCollection_7">
    <defs>
     <path id="mcfef956489" d="M -3 3 
L 3 -3 
M -3 -3 
L 3 3 
" style="stroke: #ffe600; stroke-width: 1.5"/>
    </defs>
    <g clip-path="url(#pce696b3a13)">
     <use xlink:href="#mcfef956489" x="211.864592" y="106.601918" style="fill: #ffe600; stroke: #ffe600; stroke-width: 1.5"/>
    </g>
   </g>
   <g id="PathCollection_8">
    <defs>
     <path id="m10078cb279" d="M -3 0 
L 3 0 
M 0 3 
L 0 -3 
" style="stroke: #ff7a00; stroke-width: 1.5"/>
    </defs>
    <g clip-path="url(#pce696b3a13)">
     <use xlink:href="#m10078cb279" x="228.957052" y="87.84034" style="fill: #ff7a00; stroke: #ff7a00; stroke-width: 1.5"/>
    </g>
   </g>
   <g id="PathCollection_9">
    <defs>
     <path id="m6e2eaba750" d="M -3 3 
L 3 -3 
M -3 -3 
L 3 3 
" style="stroke: #ff1300; stroke-width: 1.5"/>
    </defs>
    <g clip-path="url(#pce696b3a13)">
     <use xlink:href="#m6e2eaba750" x="193.1372" y="151.17637" style="fill: #ff1300; stroke: #ff1300; stroke-width: 1.5"/>
     <use xlink:href="#m6e2eaba750" x="278.640354" y="102.865749" style="fill: #ff1300; stroke: #ff1300; stroke-width: 1.5"/>
     <use xlink:href="#m6e2eaba750" x="154.534269" y="162.10049" style="fill: #ff1300; stroke: #ff1300; stroke-width: 1.5"/>
     <use xlink:href="#m6e2eaba750" x="113.213948" y="146.471523" style="fill: #ff1300; stroke: #ff1300; stroke-width: 1.5"/>
     <use xlink:href="#m6e2eaba750" x="278.800684" y="102.955592" style="fill: #ff1300; stroke: #ff1300; stroke-width: 1.5"/>
     <use xlink:href="#m6e2eaba750" x="278.860671" y="102.955592" style="fill: #ff1300; stroke: #ff1300; stroke-width: 1.5"/>
    </g>
   </g>
   <g id="PathCollection_10">
    <defs>
     <path id="mddb24861f2" d="M -3 0 
L 3 0 
M 0 3 
L 0 -3 
" style="stroke: #800000; stroke-width: 1.5"/>
    </defs>
    <g clip-path="url(#pce696b3a13)">
     <use xlink:href="#mddb24861f2" x="147.308801" y="158.830882" style="fill: #800000; stroke: #800000; stroke-width: 1.5"/>
     <use xlink:href="#mddb24861f2" x="169.467623" y="151.18949" style="fill: #800000; stroke: #800000; stroke-width: 1.5"/>
     <use xlink:href="#mddb24861f2" x="259.858338" y="102.865749" style="fill: #800000; stroke: #800000; stroke-width: 1.5"/>
    </g>
   </g>
   <g id="matplotlib.axis_1">
    <g id="xtick_1">
     <g id="line2d_1">
      <path d="M 91.337957 168.568 
L 91.337957 28.876 
" clip-path="url(#pce696b3a13)" style="fill: none; stroke: #b0b0b0; stroke-width: 0.8; stroke-linecap: square"/>
     </g>
     <g id="line2d_2">
      <defs>
       <path id="mf660ccefb8" d="M 0 0 
L 0 3.5 
" style="stroke: #000000; stroke-width: 0.8"/>
      </defs>
      <g>
       <use xlink:href="#mf660ccefb8" x="91.337957" y="168.568" style="stroke: #000000; stroke-width: 0.8"/>
      </g>
     </g>
     <g id="text_1">
      <!-- −0.05 -->
      <g transform="translate(76.015301 183.166437) scale(0.1 -0.1)">
       <defs>
        <path id="DejaVuSans-2212" d="M 678 2272 
L 4684 2272 
L 4684 1741 
L 678 1741 
L 678 2272 
z
" transform="scale(0.015625)"/>
        <path id="DejaVuSans-30" d="M 2034 4250 
Q 1547 4250 1301 3770 
Q 1056 3291 1056 2328 
Q 1056 1369 1301 889 
Q 1547 409 2034 409 
Q 2525 409 2770 889 
Q 3016 1369 3016 2328 
Q 3016 3291 2770 3770 
Q 2525 4250 2034 4250 
z
M 2034 4750 
Q 2819 4750 3233 4129 
Q 3647 3509 3647 2328 
Q 3647 1150 3233 529 
Q 2819 -91 2034 -91 
Q 1250 -91 836 529 
Q 422 1150 422 2328 
Q 422 3509 836 4129 
Q 1250 4750 2034 4750 
z
" transform="scale(0.015625)"/>
        <path id="DejaVuSans-2e" d="M 684 794 
L 1344 794 
L 1344 0 
L 684 0 
L 684 794 
z
" transform="scale(0.015625)"/>
        <path id="DejaVuSans-35" d="M 691 4666 
L 3169 4666 
L 3169 4134 
L 1269 4134 
L 1269 2991 
Q 1406 3038 1543 3061 
Q 1681 3084 1819 3084 
Q 2600 3084 3056 2656 
Q 3513 2228 3513 1497 
Q 3513 744 3044 326 
Q 2575 -91 1722 -91 
Q 1428 -91 1123 -41 
Q 819 9 494 109 
L 494 744 
Q 775 591 1075 516 
Q 1375 441 1709 441 
Q 2250 441 2565 725 
Q 2881 1009 2881 1497 
Q 2881 1984 2565 2268 
Q 2250 2553 1709 2553 
Q 1456 2553 1204 2497 
Q 953 2441 691 2322 
L 691 4666 
z
" transform="scale(0.015625)"/>
       </defs>
       <use xlink:href="#DejaVuSans-2212"/>
       <use xlink:href="#DejaVuSans-30" x="83.789062"/>
       <use xlink:href="#DejaVuSans-2e" x="147.412109"/>
       <use xlink:href="#DejaVuSans-30" x="179.199219"/>
       <use xlink:href="#DejaVuSans-35" x="242.822266"/>
      </g>
     </g>
    </g>
    <g id="xtick_2">
     <g id="line2d_3">
      <path d="M 124.95942 168.568 
L 124.95942 28.876 
" clip-path="url(#pce696b3a13)" style="fill: none; stroke: #b0b0b0; stroke-width: 0.8; stroke-linecap: square"/>
     </g>
     <g id="line2d_4">
      <g>
       <use xlink:href="#mf660ccefb8" x="124.95942" y="168.568" style="stroke: #000000; stroke-width: 0.8"/>
      </g>
     </g>
     <g id="text_2">
      <!-- 0.00 -->
      <g transform="translate(113.826607 183.166437) scale(0.1 -0.1)">
       <use xlink:href="#DejaVuSans-30"/>
       <use xlink:href="#DejaVuSans-2e" x="63.623047"/>
       <use xlink:href="#DejaVuSans-30" x="95.410156"/>
       <use xlink:href="#DejaVuSans-30" x="159.033203"/>
      </g>
     </g>
    </g>
    <g id="xtick_3">
     <g id="line2d_5">
      <path d="M 158.580882 168.568 
L 158.580882 28.876 
" clip-path="url(#pce696b3a13)" style="fill: none; stroke: #b0b0b0; stroke-width: 0.8; stroke-linecap: square"/>
     </g>
     <g id="line2d_6">
      <g>
       <use xlink:href="#mf660ccefb8" x="158.580882" y="168.568" style="stroke: #000000; stroke-width: 0.8"/>
      </g>
     </g>
     <g id="text_3">
      <!-- 0.05 -->
      <g transform="translate(147.44807 183.166437) scale(0.1 -0.1)">
       <use xlink:href="#DejaVuSans-30"/>
       <use xlink:href="#DejaVuSans-2e" x="63.623047"/>
       <use xlink:href="#DejaVuSans-30" x="95.410156"/>
       <use xlink:href="#DejaVuSans-35" x="159.033203"/>
      </g>
     </g>
    </g>
    <g id="xtick_4">
     <g id="line2d_7">
      <path d="M 192.202345 168.568 
L 192.202345 28.876 
" clip-path="url(#pce696b3a13)" style="fill: none; stroke: #b0b0b0; stroke-width: 0.8; stroke-linecap: square"/>
     </g>
     <g id="line2d_8">
      <g>
       <use xlink:href="#mf660ccefb8" x="192.202345" y="168.568" style="stroke: #000000; stroke-width: 0.8"/>
      </g>
     </g>
     <g id="text_4">
      <!-- 0.10 -->
      <g transform="translate(181.069532 183.166437) scale(0.1 -0.1)">
       <defs>
        <path id="DejaVuSans-31" d="M 794 531 
L 1825 531 
L 1825 4091 
L 703 3866 
L 703 4441 
L 1819 4666 
L 2450 4666 
L 2450 531 
L 3481 531 
L 3481 0 
L 794 0 
L 794 531 
z
" transform="scale(0.015625)"/>
       </defs>
       <use xlink:href="#DejaVuSans-30"/>
       <use xlink:href="#DejaVuSans-2e" x="63.623047"/>
       <use xlink:href="#DejaVuSans-31" x="95.410156"/>
       <use xlink:href="#DejaVuSans-30" x="159.033203"/>
      </g>
     </g>
    </g>
    <g id="xtick_5">
     <g id="line2d_9">
      <path d="M 225.823807 168.568 
L 225.823807 28.876 
" clip-path="url(#pce696b3a13)" style="fill: none; stroke: #b0b0b0; stroke-width: 0.8; stroke-linecap: square"/>
     </g>
     <g id="line2d_10">
      <g>
       <use xlink:href="#mf660ccefb8" x="225.823807" y="168.568" style="stroke: #000000; stroke-width: 0.8"/>
      </g>
     </g>
     <g id="text_5">
      <!-- 0.15 -->
      <g transform="translate(214.690995 183.166437) scale(0.1 -0.1)">
       <use xlink:href="#DejaVuSans-30"/>
       <use xlink:href="#DejaVuSans-2e" x="63.623047"/>
       <use xlink:href="#DejaVuSans-31" x="95.410156"/>
       <use xlink:href="#DejaVuSans-35" x="159.033203"/>
      </g>
     </g>
    </g>
    <g id="xtick_6">
     <g id="line2d_11">
      <path d="M 259.44527 168.568 
L 259.44527 28.876 
" clip-path="url(#pce696b3a13)" style="fill: none; stroke: #b0b0b0; stroke-width: 0.8; stroke-linecap: square"/>
     </g>
     <g id="line2d_12">
      <g>
       <use xlink:href="#mf660ccefb8" x="259.44527" y="168.568" style="stroke: #000000; stroke-width: 0.8"/>
      </g>
     </g>
     <g id="text_6">
      <!-- 0.20 -->
      <g transform="translate(248.312457 183.166437) scale(0.1 -0.1)">
       <defs>
        <path id="DejaVuSans-32" d="M 1228 531 
L 3431 531 
L 3431 0 
L 469 0 
L 469 531 
Q 828 903 1448 1529 
Q 2069 2156 2228 2338 
Q 2531 2678 2651 2914 
Q 2772 3150 2772 3378 
Q 2772 3750 2511 3984 
Q 2250 4219 1831 4219 
Q 1534 4219 1204 4116 
Q 875 4013 500 3803 
L 500 4441 
Q 881 4594 1212 4672 
Q 1544 4750 1819 4750 
Q 2544 4750 2975 4387 
Q 3406 4025 3406 3419 
Q 3406 3131 3298 2873 
Q 3191 2616 2906 2266 
Q 2828 2175 2409 1742 
Q 1991 1309 1228 531 
z
" transform="scale(0.015625)"/>
       </defs>
       <use xlink:href="#DejaVuSans-30"/>
       <use xlink:href="#DejaVuSans-2e" x="63.623047"/>
       <use xlink:href="#DejaVuSans-32" x="95.410156"/>
       <use xlink:href="#DejaVuSans-30" x="159.033203"/>
      </g>
     </g>
    </g>
    <g id="text_7">
     <!-- $T_C = T / \rho V^2 D^2$ -->
     <g transform="translate(146.730828 198.346125) scale(0.1 -0.1)">
      <defs>
       <path id="DejaVuSans-Oblique-54" d="M 378 4666 
L 4325 4666 
L 4225 4134 
L 2559 4134 
L 1759 0 
L 1125 0 
L 1925 4134 
L 275 4134 
L 378 4666 
z
" transform="scale(0.015625)"/>
       <path id="DejaVuSans-Oblique-43" d="M 4447 4306 
L 4319 3641 
Q 4019 3944 3683 4091 
Q 3347 4238 2956 4238 
Q 2422 4238 2017 3981 
Q 1613 3725 1319 3200 
Q 1131 2863 1032 2486 
Q 934 2109 934 1728 
Q 934 1091 1264 756 
Q 1594 422 2222 422 
Q 2656 422 3056 561 
Q 3456 700 3834 978 
L 3688 231 
Q 3316 72 2936 -9 
Q 2556 -91 2175 -91 
Q 1278 -91 773 396 
Q 269 884 269 1753 
Q 269 2309 461 2846 
Q 653 3384 1013 3828 
Q 1394 4300 1883 4525 
Q 2372 4750 3022 4750 
Q 3422 4750 3780 4639 
Q 4138 4528 4447 4306 
z
" transform="scale(0.015625)"/>
       <path id="DejaVuSans-3d" d="M 678 2906 
L 4684 2906 
L 4684 2381 
L 678 2381 
L 678 2906 
z
M 678 1631 
L 4684 1631 
L 4684 1100 
L 678 1100 
L 678 1631 
z
" transform="scale(0.015625)"/>
       <path id="DejaVuSans-2f" d="M 1625 4666 
L 2156 4666 
L 531 -594 
L 0 -594 
L 1625 4666 
z
" transform="scale(0.015625)"/>
       <path id="DejaVuSans-Oblique-3c1" d="M 1203 2875 
Q 1453 3194 1981 3475 
Q 2188 3584 2756 3584 
Q 3394 3584 3694 3078 
Q 3994 2572 3834 1747 
Q 3672 922 3175 415 
Q 2678 -91 2041 -91 
Q 1656 -91 1409 63 
Q 1163 213 1044 525 
L 681 -1331 
L 103 -1331 
L 697 1716 
Q 838 2438 1203 2875 
z
M 3238 1747 
Q 3359 2381 3169 2744 
Q 2978 3103 2522 3103 
Q 2066 3103 1734 2744 
Q 1403 2381 1281 1747 
Q 1156 1113 1347 750 
Q 1538 391 1994 391 
Q 2450 391 2781 750 
Q 3113 1113 3238 1747 
z
" transform="scale(0.015625)"/>
       <path id="DejaVuSans-Oblique-56" d="M 1319 0 
L 500 4666 
L 1119 4666 
L 1797 653 
L 4063 4666 
L 4750 4666 
L 2053 0 
L 1319 0 
z
" transform="scale(0.015625)"/>
       <path id="DejaVuSans-Oblique-44" d="M 1081 4666 
L 2438 4666 
Q 3519 4666 4070 4208 
Q 4622 3750 4622 2847 
Q 4622 2250 4412 1698 
Q 4203 1147 3834 769 
Q 3463 381 2891 190 
Q 2319 0 1538 0 
L 172 0 
L 1081 4666 
z
M 1613 4147 
L 909 519 
L 1734 519 
Q 2794 519 3375 1128 
Q 3956 1738 3956 2847 
Q 3956 3519 3581 3833 
Q 3206 4147 2406 4147 
L 1613 4147 
z
" transform="scale(0.015625)"/>
      </defs>
      <use xlink:href="#DejaVuSans-Oblique-54" transform="translate(0 0.765625)"/>
      <use xlink:href="#DejaVuSans-Oblique-43" transform="translate(61.083984 -15.640625) scale(0.7)"/>
      <use xlink:href="#DejaVuSans-3d" transform="translate(132.177734 0.765625)"/>
      <use xlink:href="#DejaVuSans-Oblique-54" transform="translate(235.449219 0.765625)"/>
      <use xlink:href="#DejaVuSans-2f" transform="translate(296.533203 0.765625)"/>
      <use xlink:href="#DejaVuSans-Oblique-3c1" transform="translate(330.224609 0.765625)"/>
      <use xlink:href="#DejaVuSans-Oblique-56" transform="translate(393.701172 0.765625)"/>
      <use xlink:href="#DejaVuSans-32" transform="translate(469.126146 39.046875) scale(0.7)"/>
      <use xlink:href="#DejaVuSans-Oblique-44" transform="translate(516.396654 0.765625)"/>
      <use xlink:href="#DejaVuSans-32" transform="translate(600.415378 39.046875) scale(0.7)"/>
     </g>
    </g>
   </g>
   <g id="matplotlib.axis_2">
    <g id="ytick_1">
     <g id="line2d_13">
      <path d="M 69.428 150.108067 
L 288.833656 150.108067 
" clip-path="url(#pce696b3a13)" style="fill: none; stroke: #b0b0b0; stroke-width: 0.8; stroke-linecap: square"/>
     </g>
     <g id="line2d_14">
      <defs>
       <path id="mf53b900670" d="M 0 0 
L -3.5 0 
" style="stroke: #000000; stroke-width: 0.8"/>
      </defs>
      <g>
       <use xlink:href="#mf53b900670" x="69.428" y="150.108067" style="stroke: #000000; stroke-width: 0.8"/>
      </g>
     </g>
     <g id="text_8">
      <!-- 0.0080 -->
      <g transform="translate(27.437375 153.907286) scale(0.1 -0.1)">
       <defs>
        <path id="DejaVuSans-38" d="M 2034 2216 
Q 1584 2216 1326 1975 
Q 1069 1734 1069 1313 
Q 1069 891 1326 650 
Q 1584 409 2034 409 
Q 2484 409 2743 651 
Q 3003 894 3003 1313 
Q 3003 1734 2745 1975 
Q 2488 2216 2034 2216 
z
M 1403 2484 
Q 997 2584 770 2862 
Q 544 3141 544 3541 
Q 544 4100 942 4425 
Q 1341 4750 2034 4750 
Q 2731 4750 3128 4425 
Q 3525 4100 3525 3541 
Q 3525 3141 3298 2862 
Q 3072 2584 2669 2484 
Q 3125 2378 3379 2068 
Q 3634 1759 3634 1313 
Q 3634 634 3220 271 
Q 2806 -91 2034 -91 
Q 1263 -91 848 271 
Q 434 634 434 1313 
Q 434 1759 690 2068 
Q 947 2378 1403 2484 
z
M 1172 3481 
Q 1172 3119 1398 2916 
Q 1625 2713 2034 2713 
Q 2441 2713 2670 2916 
Q 2900 3119 2900 3481 
Q 2900 3844 2670 4047 
Q 2441 4250 2034 4250 
Q 1625 4250 1398 4047 
Q 1172 3844 1172 3481 
z
" transform="scale(0.015625)"/>
       </defs>
       <use xlink:href="#DejaVuSans-30"/>
       <use xlink:href="#DejaVuSans-2e" x="63.623047"/>
       <use xlink:href="#DejaVuSans-30" x="95.410156"/>
       <use xlink:href="#DejaVuSans-30" x="159.033203"/>
       <use xlink:href="#DejaVuSans-38" x="222.65625"/>
       <use xlink:href="#DejaVuSans-30" x="286.279297"/>
      </g>
     </g>
    </g>
    <g id="ytick_2">
     <g id="line2d_15">
      <path d="M 69.428 123.470395 
L 288.833656 123.470395 
" clip-path="url(#pce696b3a13)" style="fill: none; stroke: #b0b0b0; stroke-width: 0.8; stroke-linecap: square"/>
     </g>
     <g id="line2d_16">
      <g>
       <use xlink:href="#mf53b900670" x="69.428" y="123.470395" style="stroke: #000000; stroke-width: 0.8"/>
      </g>
     </g>
     <g id="text_9">
      <!-- 0.0085 -->
      <g transform="translate(27.437375 127.269613) scale(0.1 -0.1)">
       <use xlink:href="#DejaVuSans-30"/>
       <use xlink:href="#DejaVuSans-2e" x="63.623047"/>
       <use xlink:href="#DejaVuSans-30" x="95.410156"/>
       <use xlink:href="#DejaVuSans-30" x="159.033203"/>
       <use xlink:href="#DejaVuSans-38" x="222.65625"/>
       <use xlink:href="#DejaVuSans-35" x="286.279297"/>
      </g>
     </g>
    </g>
    <g id="ytick_3">
     <g id="line2d_17">
      <path d="M 69.428 96.832722 
L 288.833656 96.832722 
" clip-path="url(#pce696b3a13)" style="fill: none; stroke: #b0b0b0; stroke-width: 0.8; stroke-linecap: square"/>
     </g>
     <g id="line2d_18">
      <g>
       <use xlink:href="#mf53b900670" x="69.428" y="96.832722" style="stroke: #000000; stroke-width: 0.8"/>
      </g>
     </g>
     <g id="text_10">
      <!-- 0.0090 -->
      <g transform="translate(27.437375 100.631941) scale(0.1 -0.1)">
       <defs>
        <path id="DejaVuSans-39" d="M 703 97 
L 703 672 
Q 941 559 1184 500 
Q 1428 441 1663 441 
Q 2288 441 2617 861 
Q 2947 1281 2994 2138 
Q 2813 1869 2534 1725 
Q 2256 1581 1919 1581 
Q 1219 1581 811 2004 
Q 403 2428 403 3163 
Q 403 3881 828 4315 
Q 1253 4750 1959 4750 
Q 2769 4750 3195 4129 
Q 3622 3509 3622 2328 
Q 3622 1225 3098 567 
Q 2575 -91 1691 -91 
Q 1453 -91 1209 -44 
Q 966 3 703 97 
z
M 1959 2075 
Q 2384 2075 2632 2365 
Q 2881 2656 2881 3163 
Q 2881 3666 2632 3958 
Q 2384 4250 1959 4250 
Q 1534 4250 1286 3958 
Q 1038 3666 1038 3163 
Q 1038 2656 1286 2365 
Q 1534 2075 1959 2075 
z
" transform="scale(0.015625)"/>
       </defs>
       <use xlink:href="#DejaVuSans-30"/>
       <use xlink:href="#DejaVuSans-2e" x="63.623047"/>
       <use xlink:href="#DejaVuSans-30" x="95.410156"/>
       <use xlink:href="#DejaVuSans-30" x="159.033203"/>
       <use xlink:href="#DejaVuSans-39" x="222.65625"/>
       <use xlink:href="#DejaVuSans-30" x="286.279297"/>
      </g>
     </g>
    </g>
    <g id="ytick_4">
     <g id="line2d_19">
      <path d="M 69.428 70.195049 
L 288.833656 70.195049 
" clip-path="url(#pce696b3a13)" style="fill: none; stroke: #b0b0b0; stroke-width: 0.8; stroke-linecap: square"/>
     </g>
     <g id="line2d_20">
      <g>
       <use xlink:href="#mf53b900670" x="69.428" y="70.195049" style="stroke: #000000; stroke-width: 0.8"/>
      </g>
     </g>
     <g id="text_11">
      <!-- 0.0095 -->
      <g transform="translate(27.437375 73.994268) scale(0.1 -0.1)">
       <use xlink:href="#DejaVuSans-30"/>
       <use xlink:href="#DejaVuSans-2e" x="63.623047"/>
       <use xlink:href="#DejaVuSans-30" x="95.410156"/>
       <use xlink:href="#DejaVuSans-30" x="159.033203"/>
       <use xlink:href="#DejaVuSans-39" x="222.65625"/>
       <use xlink:href="#DejaVuSans-35" x="286.279297"/>
      </g>
     </g>
    </g>
    <g id="ytick_5">
     <g id="line2d_21">
      <path d="M 69.428 43.557376 
L 288.833656 43.557376 
" clip-path="url(#pce696b3a13)" style="fill: none; stroke: #b0b0b0; stroke-width: 0.8; stroke-linecap: square"/>
     </g>
     <g id="line2d_22">
      <g>
       <use xlink:href="#mf53b900670" x="69.428" y="43.557376" style="stroke: #000000; stroke-width: 0.8"/>
      </g>
     </g>
     <g id="text_12">
      <!-- 0.0100 -->
      <g transform="translate(27.437375 47.356595) scale(0.1 -0.1)">
       <use xlink:href="#DejaVuSans-30"/>
       <use xlink:href="#DejaVuSans-2e" x="63.623047"/>
       <use xlink:href="#DejaVuSans-30" x="95.410156"/>
       <use xlink:href="#DejaVuSans-31" x="159.033203"/>
       <use xlink:href="#DejaVuSans-30" x="222.65625"/>
       <use xlink:href="#DejaVuSans-30" x="286.279297"/>
      </g>
     </g>
    </g>
    <g id="text_13">
     <!-- d$C_L$ / d$\delta_e$ -->
     <g transform="translate(21.357688 120.872) rotate(-90) scale(0.1 -0.1)">
      <defs>
       <path id="DejaVuSans-64" d="M 2906 2969 
L 2906 4863 
L 3481 4863 
L 3481 0 
L 2906 0 
L 2906 525 
Q 2725 213 2448 61 
Q 2172 -91 1784 -91 
Q 1150 -91 751 415 
Q 353 922 353 1747 
Q 353 2572 751 3078 
Q 1150 3584 1784 3584 
Q 2172 3584 2448 3432 
Q 2725 3281 2906 2969 
z
M 947 1747 
Q 947 1113 1208 752 
Q 1469 391 1925 391 
Q 2381 391 2643 752 
Q 2906 1113 2906 1747 
Q 2906 2381 2643 2742 
Q 2381 3103 1925 3103 
Q 1469 3103 1208 2742 
Q 947 2381 947 1747 
z
" transform="scale(0.015625)"/>
       <path id="DejaVuSans-Oblique-4c" d="M 1075 4666 
L 1709 4666 
L 909 525 
L 3181 525 
L 3078 0 
L 172 0 
L 1075 4666 
z
" transform="scale(0.015625)"/>
       <path id="DejaVuSans-20" transform="scale(0.015625)"/>
       <path id="DejaVuSans-Oblique-3b4" d="M 3472 4053 
Q 3197 4272 2450 4272 
Q 1659 4272 1588 3906 
Q 1531 3619 2328 3469 
Q 2953 3353 3253 3003 
Q 3616 2581 3447 1716 
Q 3284 888 2763 400 
Q 2238 -91 1488 -91 
Q 741 -91 406 400 
Q 72 888 241 1747 
Q 363 2384 891 2900 
Q 1097 3100 1353 3213 
Q 913 3459 1000 3900 
Q 1166 4750 2544 4750 
Q 3234 4750 3566 4531 
L 3472 4053 
z
M 1753 3056 
Q 1525 2966 1306 2738 
Q 969 2384 847 1747 
Q 722 1113 919 756 
Q 1119 397 1584 397 
Q 2044 397 2381 759 
Q 2722 1122 2838 1716 
Q 2956 2338 2731 2638 
Q 2491 2959 2103 2994 
Q 1906 3013 1753 3056 
z
" transform="scale(0.015625)"/>
       <path id="DejaVuSans-Oblique-65" d="M 3078 2063 
Q 3088 2113 3092 2166 
Q 3097 2219 3097 2272 
Q 3097 2653 2873 2875 
Q 2650 3097 2266 3097 
Q 1838 3097 1509 2826 
Q 1181 2556 1013 2059 
L 3078 2063 
z
M 3578 1613 
L 903 1613 
Q 884 1494 878 1425 
Q 872 1356 872 1306 
Q 872 872 1139 634 
Q 1406 397 1894 397 
Q 2269 397 2603 481 
Q 2938 566 3225 728 
L 3116 159 
Q 2806 34 2476 -28 
Q 2147 -91 1806 -91 
Q 1078 -91 686 257 
Q 294 606 294 1247 
Q 294 1794 489 2264 
Q 684 2734 1063 3103 
Q 1306 3334 1642 3459 
Q 1978 3584 2356 3584 
Q 2950 3584 3301 3228 
Q 3653 2872 3653 2272 
Q 3653 2128 3634 1964 
Q 3616 1800 3578 1613 
z
" transform="scale(0.015625)"/>
      </defs>
      <use xlink:href="#DejaVuSans-64" transform="translate(0 0.015625)"/>
      <use xlink:href="#DejaVuSans-Oblique-43" transform="translate(63.476562 0.015625)"/>
      <use xlink:href="#DejaVuSans-Oblique-4c" transform="translate(133.300781 -16.390625) scale(0.7)"/>
      <use xlink:href="#DejaVuSans-20" transform="translate(175.03418 0.015625)"/>
      <use xlink:href="#DejaVuSans-2f" transform="translate(206.821289 0.015625)"/>
      <use xlink:href="#DejaVuSans-20" transform="translate(240.512695 0.015625)"/>
      <use xlink:href="#DejaVuSans-64" transform="translate(272.299805 0.015625)"/>
      <use xlink:href="#DejaVuSans-Oblique-3b4" transform="translate(335.776367 0.015625)"/>
      <use xlink:href="#DejaVuSans-Oblique-65" transform="translate(396.958008 -16.390625) scale(0.7)"/>
     </g>
    </g>
   </g>
   <g id="line2d_23">
    <path d="M 254.665949 49.156378 
L 248.694972 50.626274 
L 242.869161 52.092034 
L 237.185876 53.553659 
L 231.642474 55.011147 
L 226.236314 56.4645 
L 220.964753 57.913716 
L 215.82515 59.358797 
L 210.814863 60.799742 
L 205.93125 62.236551 
L 201.171669 63.669224 
L 196.533479 65.097761 
L 192.014037 66.522162 
L 187.610703 67.942427 
L 183.320833 69.358557 
L 179.141786 70.77055 
L 175.070921 72.178408 
L 171.105595 73.58213 
L 167.243167 74.981715 
L 163.480995 76.377165 
L 159.816437 77.768479 
L 156.246851 79.155658 
L 152.769595 80.5387 
L 149.382028 81.917606 
L 146.081508 83.292377 
L 142.865392 84.663011 
L 139.731039 86.02951 
L 136.675808 87.391872 
L 133.697056 88.750099 
L 130.792142 90.10419 
L 127.958423 91.454145 
L 125.193258 92.799964 
L 122.494005 94.141647 
L 119.858023 95.479195 
L 117.282669 96.812606 
L 114.765301 98.141882 
L 112.303279 99.467021 
L 109.893959 100.788025 
L 107.5347 102.104893 
L 105.222861 103.417625 
L 102.955798 104.726221 
L 100.730872 106.030681 
L 98.545439 107.331005 
L 96.396859 108.627193 
L 94.282488 109.919246 
L 92.199686 111.207162 
L 90.14581 112.490943 
L 88.118219 113.770588 
L 86.11427 115.046096 
L 84.131323 116.317469 
" clip-path="url(#pce696b3a13)" style="fill: none; stroke: #000080; stroke-width: 1.5; stroke-linecap: square"/>
   </g>
   <g id="line2d_24">
    <path d="M 271.409356 49.156378 
L 265.480661 50.626274 
L 259.696182 52.092034 
L 254.053278 53.553659 
L 248.549306 55.011147 
L 243.181625 56.4645 
L 237.947594 57.913716 
L 232.844569 59.358797 
L 227.869909 60.799742 
L 223.020973 62.236551 
L 218.295119 63.669224 
L 213.689704 65.097761 
L 209.202088 66.522162 
L 204.829627 67.942427 
L 200.569681 69.358557 
L 196.419607 70.77055 
L 192.376764 72.178408 
L 188.43851 73.58213 
L 184.602203 74.981715 
L 180.865201 76.377165 
L 177.224862 77.768479 
L 173.678545 79.155658 
L 170.223608 80.5387 
L 166.857408 81.917606 
L 163.577304 83.292377 
L 160.380655 84.663011 
L 157.264818 86.02951 
L 154.227152 87.391872 
L 151.265014 88.750099 
L 148.375763 90.10419 
L 145.556757 91.454145 
L 142.805354 92.799964 
L 140.118913 94.141647 
L 137.494791 95.479195 
L 134.930347 96.812606 
L 132.422939 98.141882 
L 129.969926 99.467021 
L 127.568664 100.788025 
L 125.216513 102.104893 
L 122.91083 103.417625 
L 120.648974 104.726221 
L 118.428303 106.030681 
L 116.246175 107.331005 
L 114.099948 108.627193 
L 111.986981 109.919246 
L 109.904632 111.207162 
L 107.850258 112.490943 
L 105.821218 113.770588 
L 103.81487 115.046096 
L 101.828573 116.317469 
" clip-path="url(#pce696b3a13)" style="fill: none; stroke: #0000ff; stroke-width: 1.5; stroke-linecap: square"/>
   </g>
   <g id="line2d_25">
    <path d="M 261.807189 35.400332 
L 255.92644 38.320889 
L 250.187462 41.201195 
L 244.587613 44.041252 
L 239.124251 46.841058 
L 233.794734 49.600614 
L 228.59642 52.319921 
L 223.526668 54.998977 
L 218.582836 57.637784 
L 213.762282 60.23634 
L 209.062364 62.794646 
L 204.48044 65.312703 
L 200.013868 67.790509 
L 195.660008 70.228066 
L 191.416215 72.625372 
L 187.27985 74.982428 
L 183.24827 77.299235 
L 179.318833 79.575791 
L 175.488898 81.812097 
L 171.755822 84.008154 
L 168.116964 86.16396 
L 164.569682 88.279516 
L 161.111335 90.354823 
L 157.739279 92.389879 
L 154.450874 94.384685 
L 151.243478 96.339241 
L 148.114448 98.253548 
L 145.061144 100.127604 
L 142.080922 101.96141 
L 139.171142 103.754966 
L 136.329162 105.508273 
L 133.552339 107.221329 
L 130.838032 108.894135 
L 128.183599 110.526691 
L 125.586398 112.118998 
L 123.043787 113.671054 
L 120.553125 115.18286 
L 118.11177 116.654416 
L 115.71708 118.085723 
L 113.366412 119.476779 
L 111.057126 120.827585 
L 108.78658 122.138141 
L 106.55213 123.408447 
L 104.351137 124.638503 
L 102.180957 125.82831 
L 100.03895 126.977866 
L 97.922473 128.087172 
L 95.828884 129.156228 
L 93.755542 130.185034 
L 91.699804 131.17359 
" clip-path="url(#pce696b3a13)" style="fill: none; stroke: #0060ff; stroke-width: 1.5; stroke-linecap: square"/>
   </g>
   <g id="line2d_26">
    <path d="M 267.643217 35.400332 
L 261.610924 38.320889 
L 255.726262 41.201195 
L 249.986591 44.041252 
L 244.389269 46.841058 
L 238.931653 49.600614 
L 233.611102 52.319921 
L 228.424973 54.998977 
L 223.370627 57.637784 
L 218.445419 60.23634 
L 213.646709 62.794646 
L 208.971854 65.312703 
L 204.418214 67.790509 
L 199.983145 70.228066 
L 195.664007 72.625372 
L 191.458157 74.982428 
L 187.362954 77.299235 
L 183.375755 79.575791 
L 179.493919 81.812097 
L 175.714805 84.008154 
L 172.035769 86.16396 
L 168.454171 88.279516 
L 164.967368 90.354823 
L 161.57272 92.389879 
L 158.267583 94.384685 
L 155.049316 96.339241 
L 151.915277 98.253548 
L 148.862825 100.127604 
L 145.889318 101.96141 
L 142.992113 103.754966 
L 140.168569 105.508273 
L 137.416044 107.221329 
L 134.731897 108.894135 
L 132.113485 110.526691 
L 129.558167 112.118998 
L 127.0633 113.671054 
L 124.626243 115.18286 
L 122.244355 116.654416 
L 119.914993 118.085723 
L 117.635515 119.476779 
L 115.40328 120.827585 
L 113.215646 122.138141 
L 111.069971 123.408447 
L 108.963612 124.638503 
L 106.89393 125.82831 
L 104.85828 126.977866 
L 102.854023 128.087172 
L 100.878515 129.156228 
L 98.929115 130.185034 
L 97.003182 131.17359 
" clip-path="url(#pce696b3a13)" style="fill: none; stroke: #00d4ff; stroke-width: 1.5; stroke-linecap: square"/>
   </g>
   <g id="line2d_27">
    <path d="M 267.576388 40.227075 
L 261.752758 43.860522 
L 256.069302 47.427186 
L 250.523378 50.927067 
L 245.112344 54.360164 
L 239.833557 57.726479 
L 234.684377 61.02601 
L 229.662161 64.258758 
L 224.764267 67.424722 
L 219.988054 70.523904 
L 215.33088 73.556302 
L 210.790103 76.521917 
L 206.363081 79.420749 
L 202.047173 82.252798 
L 197.839736 85.018063 
L 193.738129 87.716546 
L 189.739709 90.348245 
L 185.841836 92.913161 
L 182.041867 95.411294 
L 178.33716 97.842643 
L 174.725073 100.207209 
L 171.202966 102.504993 
L 167.768195 104.735992 
L 164.41812 106.900209 
L 161.150097 108.997643 
L 157.961486 111.028293 
L 154.849645 112.99216 
L 151.811931 114.889244 
L 148.845703 116.719545 
L 145.94832 118.483062 
L 143.117138 120.179797 
L 140.349517 121.809748 
L 137.642815 123.372916 
L 134.994389 124.869301 
L 132.401598 126.298902 
L 129.861801 127.66172 
L 127.372354 128.957756 
L 124.930618 130.187008 
L 122.533948 131.349476 
L 120.179705 132.445162 
L 117.865245 133.474064 
L 115.587928 134.436183 
L 113.345111 135.331519 
L 111.134152 136.160072 
L 108.952411 136.921842 
L 106.797243 137.616828 
L 104.666009 138.245031 
L 102.556066 138.806451 
L 100.464773 139.301088 
L 98.389487 139.728941 
" clip-path="url(#pce696b3a13)" style="fill: none; stroke: #4dffaa; stroke-width: 1.5; stroke-linecap: square"/>
   </g>
   <g id="line2d_28">
    <path d="M 264.988331 40.227075 
L 258.92754 43.860522 
L 253.013947 47.427186 
L 247.244909 50.927067 
L 241.617784 54.360164 
L 236.129931 57.726479 
L 230.778708 61.02601 
L 225.561473 64.258758 
L 220.475583 67.424722 
L 215.518398 70.523904 
L 210.687276 73.556302 
L 205.979574 76.521917 
L 201.39265 79.420749 
L 196.923864 82.252798 
L 192.570573 85.018063 
L 188.330135 87.716546 
L 184.199908 90.348245 
L 180.177251 92.913161 
L 176.259522 95.411294 
L 172.444079 97.842643 
L 168.72828 100.207209 
L 165.109483 102.504993 
L 161.585047 104.735992 
L 158.15233 106.900209 
L 154.808689 108.997643 
L 151.551483 111.028293 
L 148.378071 112.99216 
L 145.285809 114.889244 
L 142.272058 116.719545 
L 139.334174 118.483062 
L 136.469515 120.179797 
L 133.675441 121.809748 
L 130.949309 123.372916 
L 128.288477 124.869301 
L 125.690304 126.298902 
L 123.152148 127.66172 
L 120.671366 128.957756 
L 118.245318 130.187008 
L 115.87136 131.349476 
L 113.546852 132.445162 
L 111.269152 133.474064 
L 109.035617 134.436183 
L 106.843607 135.331519 
L 104.690478 136.160072 
L 102.573589 136.921842 
L 100.490299 137.616828 
L 98.437966 138.245031 
L 96.413947 138.806451 
L 94.415601 139.301088 
L 92.440287 139.728941 
" clip-path="url(#pce696b3a13)" style="fill: none; stroke: #aaff4d; stroke-width: 1.5; stroke-linecap: square"/>
   </g>
   <g id="line2d_29">
    <path d="M 273.913974 65.567303 
L 268.137202 69.461028 
L 262.500167 73.260403 
L 257.000227 76.96543 
L 251.634739 80.576108 
L 246.401062 84.092438 
L 241.296553 87.514418 
L 236.318572 90.84205 
L 231.464477 94.075333 
L 226.731624 97.214268 
L 222.117374 100.258853 
L 217.619083 103.20909 
L 213.23411 106.064978 
L 208.959814 108.826517 
L 204.793551 111.493708 
L 200.732682 114.06655 
L 196.774562 116.545043 
L 192.916552 118.929187 
L 189.156009 121.218983 
L 185.490291 123.41443 
L 181.916756 125.515528 
L 178.432763 127.522277 
L 175.03567 129.434678 
L 171.722834 131.252729 
L 168.491615 132.976432 
L 165.339369 134.605787 
L 162.263456 136.140792 
L 159.261234 137.581449 
L 156.33006 138.927757 
L 153.467294 140.179716 
L 150.670292 141.337327 
L 147.936414 142.400588 
L 145.263017 143.369501 
L 142.647459 144.244066 
L 140.0871 145.024281 
L 137.579296 145.710148 
L 135.121406 146.301666 
L 132.710789 146.798835 
L 130.344802 147.201656 
L 128.020804 147.510127 
L 125.736152 147.72425 
L 123.488205 147.844025 
L 121.274322 147.86945 
L 119.09186 147.800527 
L 116.938177 147.637255 
L 114.810632 147.379634 
L 112.706583 147.027664 
L 110.623388 146.581346 
L 108.558404 146.040679 
L 106.508992 145.405663 
" clip-path="url(#pce696b3a13)" style="fill: none; stroke: #ffe600; stroke-width: 1.5; stroke-linecap: square"/>
   </g>
   <g id="line2d_30">
    <path d="M 262.015489 65.567303 
L 255.989905 69.461028 
L 250.107058 73.260403 
L 244.364307 76.96543 
L 238.759008 80.576108 
L 233.288521 84.092438 
L 227.950204 87.514418 
L 222.741414 90.84205 
L 217.659511 94.075333 
L 212.701851 97.214268 
L 207.865794 100.258853 
L 203.148698 103.20909 
L 198.54792 106.064978 
L 194.060819 108.826517 
L 189.684753 111.493708 
L 185.41708 114.06655 
L 181.255158 116.545043 
L 177.196346 118.929187 
L 173.238002 121.218983 
L 169.377483 123.41443 
L 165.612149 125.515528 
L 161.939356 127.522277 
L 158.356464 129.434678 
L 154.860831 131.252729 
L 151.449814 132.976432 
L 148.120772 134.605787 
L 144.871064 136.140792 
L 141.698046 137.581449 
L 138.599078 138.927757 
L 135.571517 140.179716 
L 132.612723 141.337327 
L 129.720052 142.400588 
L 126.890863 143.369501 
L 124.122514 144.244066 
L 121.412364 145.024281 
L 118.75777 145.710148 
L 116.156091 146.301666 
L 113.604686 146.798835 
L 111.100911 147.201656 
L 108.642125 147.510127 
L 106.225687 147.72425 
L 103.848955 147.844025 
L 101.509286 147.86945 
L 99.204039 147.800527 
L 96.930573 147.637255 
L 94.686244 147.379634 
L 92.468413 147.027664 
L 90.274435 146.581346 
L 88.101671 146.040679 
L 85.947478 145.405663 
" clip-path="url(#pce696b3a13)" style="fill: none; stroke: #ff7a00; stroke-width: 1.5; stroke-linecap: square"/>
   </g>
   <g id="line2d_31">
    <path d="M 278.419378 102.974274 
L 272.663584 106.588903 
L 267.048395 110.089774 
L 261.571169 113.476887 
L 256.229264 116.750242 
L 251.020039 119.909839 
L 245.940851 122.955677 
L 240.989059 125.887757 
L 236.162021 128.706079 
L 231.457095 131.410643 
L 226.87164 134.001449 
L 222.403012 136.478497 
L 218.048572 138.841786 
L 213.805676 141.091318 
L 209.671683 143.227091 
L 205.643951 145.249106 
L 201.719839 147.157363 
L 197.896704 148.951862 
L 194.171904 150.632602 
L 190.542799 152.199584 
L 187.006745 153.652809 
L 183.561102 154.992275 
L 180.203226 156.217983 
L 176.930478 157.329933 
L 173.740214 158.328124 
L 170.629793 159.212558 
L 167.596572 159.983233 
L 164.637911 160.64015 
L 161.751168 161.183309 
L 158.933699 161.61271 
L 156.182865 161.928353 
L 153.496022 162.130237 
L 150.87053 162.218364 
L 148.303745 162.192732 
L 145.793027 162.053342 
L 143.335734 161.800194 
L 140.929223 161.433288 
L 138.570853 160.952623 
L 136.257982 160.358201 
L 133.987969 159.65002 
L 131.75817 158.828081 
L 129.565946 157.892384 
L 127.408653 156.842929 
L 125.28365 155.679716 
L 123.188295 154.402744 
L 121.119946 153.012015 
L 119.075962 151.507527 
L 117.0537 149.889281 
L 115.050519 148.157277 
L 113.063777 146.311515 
" clip-path="url(#pce696b3a13)" style="fill: none; stroke: #ff1300; stroke-width: 1.5; stroke-linecap: square"/>
   </g>
   <g id="line2d_32">
    <path d="M 259.4276 102.974274 
L 253.48919 106.588903 
L 247.686519 110.089774 
L 242.016945 113.476887 
L 236.477825 116.750242 
L 231.066519 119.909839 
L 225.780384 122.955677 
L 220.616778 125.887757 
L 215.57306 128.706079 
L 210.646587 131.410643 
L 205.834719 134.001449 
L 201.134812 136.478497 
L 196.544226 138.841786 
L 192.060318 141.091318 
L 187.680447 143.227091 
L 183.40197 145.249106 
L 179.222247 147.157363 
L 175.138634 148.951862 
L 171.148491 150.632602 
L 167.249175 152.199584 
L 163.438045 153.652809 
L 159.712458 154.992275 
L 156.069774 156.217983 
L 152.507349 157.329933 
L 149.022543 158.328124 
L 145.612714 159.212558 
L 142.275219 159.983233 
L 139.007416 160.64015 
L 135.806665 161.183309 
L 132.670323 161.61271 
L 129.595748 161.928353 
L 126.580299 162.130237 
L 123.621333 162.218364 
L 120.716209 162.192732 
L 117.862286 162.053342 
L 115.05692 161.800194 
L 112.297471 161.433288 
L 109.581296 160.952623 
L 106.905754 160.358201 
L 104.268202 159.65002 
L 101.666 158.828081 
L 99.096505 157.892384 
L 96.557076 156.842929 
L 94.045069 155.679716 
L 91.557845 154.402744 
L 89.09276 153.012015 
L 86.647174 151.507527 
L 84.218444 149.889281 
L 81.803928 148.157277 
L 79.400984 146.311515 
" clip-path="url(#pce696b3a13)" style="fill: none; stroke: #800000; stroke-width: 1.5; stroke-linecap: square"/>
   </g>
   <g id="patch_3">
    <path d="M 69.428 168.568 
L 69.428 28.876 
" style="fill: none; stroke: #000000; stroke-width: 0.8; stroke-linejoin: miter; stroke-linecap: square"/>
   </g>
   <g id="patch_4">
    <path d="M 288.833656 168.568 
L 288.833656 28.876 
" style="fill: none; stroke: #000000; stroke-width: 0.8; stroke-linejoin: miter; stroke-linecap: square"/>
   </g>
   <g id="patch_5">
    <path d="M 69.428 168.568 
L 288.833656 168.568 
" style="fill: none; stroke: #000000; stroke-width: 0.8; stroke-linejoin: miter; stroke-linecap: square"/>
   </g>
   <g id="patch_6">
    <path d="M 69.428 28.876 
L 288.833656 28.876 
" style="fill: none; stroke: #000000; stroke-width: 0.8; stroke-linejoin: miter; stroke-linecap: square"/>
   </g>
   <g id="legend_1">
    <g id="patch_7">
     <path d="M 297.833656 158.5834 
L 420.533656 158.5834 
Q 422.533656 158.5834 422.533656 156.5834 
L 422.533656 10.80215 
Q 422.533656 8.80215 420.533656 8.80215 
L 297.833656 8.80215 
Q 295.833656 8.80215 295.833656 10.80215 
L 295.833656 156.5834 
Q 295.833656 158.5834 297.833656 158.5834 
z
" style="fill: #4d4d4d; opacity: 0.5; stroke: #4d4d4d; stroke-linejoin: miter"/>
    </g>
    <g id="patch_8">
     <path d="M 295.833656 156.5834 
L 418.533656 156.5834 
Q 420.533656 156.5834 420.533656 154.5834 
L 420.533656 8.80215 
Q 420.533656 6.80215 418.533656 6.80215 
L 295.833656 6.80215 
Q 293.833656 6.80215 293.833656 8.80215 
L 293.833656 154.5834 
Q 293.833656 156.5834 295.833656 156.5834 
z
" style="fill: #ffffff; stroke: #cccccc; stroke-linejoin: miter"/>
    </g>
    <g id="PathCollection_11">
     <g>
      <use xlink:href="#ma2b62b2513" x="307.833656" y="15.775588" style="fill: #000080; stroke: #000080; stroke-width: 1.5"/>
     </g>
    </g>
    <g id="text_14">
     <!-- $\alpha = -4, \delta_e = -10$ -->
     <g transform="translate(325.833656 18.400588) scale(0.1 -0.1)">
      <defs>
       <path id="DejaVuSans-Oblique-3b1" d="M 2619 1628 
L 2622 2350 
Q 2625 3088 2069 3091 
Q 1653 3094 1394 2747 
Q 1069 2319 959 1747 
Q 825 1059 994 731 
Q 1169 397 1547 397 
Q 1966 397 2319 1063 
L 2619 1628 
z
M 2166 3578 
Q 3141 3594 3128 2584 
Q 3128 2584 3616 3500 
L 4128 3500 
L 3119 1603 
L 3109 919 
Q 3109 766 3194 638 
Q 3291 488 3391 488 
L 3669 488 
L 3575 0 
L 3228 0 
Q 2934 0 2722 263 
Q 2622 394 2619 669 
Q 2416 334 2066 50 
Q 1900 -81 1453 -78 
Q 722 -72 456 397 
Q 184 884 353 1747 
Q 534 2675 1009 3097 
Q 1544 3569 2166 3578 
z
" transform="scale(0.015625)"/>
       <path id="DejaVuSans-34" d="M 2419 4116 
L 825 1625 
L 2419 1625 
L 2419 4116 
z
M 2253 4666 
L 3047 4666 
L 3047 1625 
L 3713 1625 
L 3713 1100 
L 3047 1100 
L 3047 0 
L 2419 0 
L 2419 1100 
L 313 1100 
L 313 1709 
L 2253 4666 
z
" transform="scale(0.015625)"/>
       <path id="DejaVuSans-2c" d="M 750 794 
L 1409 794 
L 1409 256 
L 897 -744 
L 494 -744 
L 750 256 
L 750 794 
z
" transform="scale(0.015625)"/>
      </defs>
      <use xlink:href="#DejaVuSans-Oblique-3b1" transform="translate(0 0.78125)"/>
      <use xlink:href="#DejaVuSans-3d" transform="translate(85.400391 0.78125)"/>
      <use xlink:href="#DejaVuSans-2212" transform="translate(208.154297 0.78125)"/>
      <use xlink:href="#DejaVuSans-34" transform="translate(311.425781 0.78125)"/>
      <use xlink:href="#DejaVuSans-2c" transform="translate(375.048828 0.78125)"/>
      <use xlink:href="#DejaVuSans-Oblique-3b4" transform="translate(426.318359 0.78125)"/>
      <use xlink:href="#DejaVuSans-Oblique-65" transform="translate(487.5 -15.625) scale(0.7)"/>
      <use xlink:href="#DejaVuSans-3d" transform="translate(552.783203 0.78125)"/>
      <use xlink:href="#DejaVuSans-2212" transform="translate(675.537109 0.78125)"/>
      <use xlink:href="#DejaVuSans-31" transform="translate(778.808594 0.78125)"/>
      <use xlink:href="#DejaVuSans-30" transform="translate(842.431641 0.78125)"/>
     </g>
    </g>
    <g id="PathCollection_12">
     <g>
      <use xlink:href="#m7a27e6b39b" x="307.833656" y="30.453713" style="fill: #0000ff; stroke: #0000ff; stroke-width: 1.5"/>
     </g>
    </g>
    <g id="text_15">
     <!-- $\alpha = -4, \delta_e = 10$ -->
     <g transform="translate(325.833656 33.078713) scale(0.1 -0.1)">
      <use xlink:href="#DejaVuSans-Oblique-3b1" transform="translate(0 0.78125)"/>
      <use xlink:href="#DejaVuSans-3d" transform="translate(85.400391 0.78125)"/>
      <use xlink:href="#DejaVuSans-2212" transform="translate(208.154297 0.78125)"/>
      <use xlink:href="#DejaVuSans-34" transform="translate(311.425781 0.78125)"/>
      <use xlink:href="#DejaVuSans-2c" transform="translate(375.048828 0.78125)"/>
      <use xlink:href="#DejaVuSans-Oblique-3b4" transform="translate(426.318359 0.78125)"/>
      <use xlink:href="#DejaVuSans-Oblique-65" transform="translate(487.5 -15.625) scale(0.7)"/>
      <use xlink:href="#DejaVuSans-3d" transform="translate(552.783203 0.78125)"/>
      <use xlink:href="#DejaVuSans-31" transform="translate(656.054688 0.78125)"/>
      <use xlink:href="#DejaVuSans-30" transform="translate(719.677734 0.78125)"/>
     </g>
    </g>
    <g id="PathCollection_13">
     <g>
      <use xlink:href="#m90dd939810" x="307.833656" y="45.131838" style="fill: #0060ff; stroke: #0060ff; stroke-width: 1.5"/>
     </g>
    </g>
    <g id="text_16">
     <!-- $\alpha = -1, \delta_e = -10$ -->
     <g transform="translate(325.833656 47.756838) scale(0.1 -0.1)">
      <use xlink:href="#DejaVuSans-Oblique-3b1" transform="translate(0 0.78125)"/>
      <use xlink:href="#DejaVuSans-3d" transform="translate(85.400391 0.78125)"/>
      <use xlink:href="#DejaVuSans-2212" transform="translate(208.154297 0.78125)"/>
      <use xlink:href="#DejaVuSans-31" transform="translate(311.425781 0.78125)"/>
      <use xlink:href="#DejaVuSans-2c" transform="translate(375.048828 0.78125)"/>
      <use xlink:href="#DejaVuSans-Oblique-3b4" transform="translate(426.318359 0.78125)"/>
      <use xlink:href="#DejaVuSans-Oblique-65" transform="translate(487.5 -15.625) scale(0.7)"/>
      <use xlink:href="#DejaVuSans-3d" transform="translate(552.783203 0.78125)"/>
      <use xlink:href="#DejaVuSans-2212" transform="translate(675.537109 0.78125)"/>
      <use xlink:href="#DejaVuSans-31" transform="translate(778.808594 0.78125)"/>
      <use xlink:href="#DejaVuSans-30" transform="translate(842.431641 0.78125)"/>
     </g>
    </g>
    <g id="PathCollection_14">
     <g>
      <use xlink:href="#m0b7a2a6b54" x="307.833656" y="59.809963" style="fill: #00d4ff; stroke: #00d4ff; stroke-width: 1.5"/>
     </g>
    </g>
    <g id="text_17">
     <!-- $\alpha = -1, \delta_e = 10$ -->
     <g transform="translate(325.833656 62.434963) scale(0.1 -0.1)">
      <use xlink:href="#DejaVuSans-Oblique-3b1" transform="translate(0 0.78125)"/>
      <use xlink:href="#DejaVuSans-3d" transform="translate(85.400391 0.78125)"/>
      <use xlink:href="#DejaVuSans-2212" transform="translate(208.154297 0.78125)"/>
      <use xlink:href="#DejaVuSans-31" transform="translate(311.425781 0.78125)"/>
      <use xlink:href="#DejaVuSans-2c" transform="translate(375.048828 0.78125)"/>
      <use xlink:href="#DejaVuSans-Oblique-3b4" transform="translate(426.318359 0.78125)"/>
      <use xlink:href="#DejaVuSans-Oblique-65" transform="translate(487.5 -15.625) scale(0.7)"/>
      <use xlink:href="#DejaVuSans-3d" transform="translate(552.783203 0.78125)"/>
      <use xlink:href="#DejaVuSans-31" transform="translate(656.054688 0.78125)"/>
      <use xlink:href="#DejaVuSans-30" transform="translate(719.677734 0.78125)"/>
     </g>
    </g>
    <g id="PathCollection_15">
     <g>
      <use xlink:href="#md6441b806a" x="307.833656" y="74.488088" style="fill: #4dffaa; stroke: #4dffaa; stroke-width: 1.5"/>
     </g>
    </g>
    <g id="text_18">
     <!-- $\alpha = 2, \delta_e = -10$ -->
     <g transform="translate(325.833656 77.113088) scale(0.1 -0.1)">
      <use xlink:href="#DejaVuSans-Oblique-3b1" transform="translate(0 0.78125)"/>
      <use xlink:href="#DejaVuSans-3d" transform="translate(85.400391 0.78125)"/>
      <use xlink:href="#DejaVuSans-32" transform="translate(188.671875 0.78125)"/>
      <use xlink:href="#DejaVuSans-2c" transform="translate(252.294922 0.78125)"/>
      <use xlink:href="#DejaVuSans-Oblique-3b4" transform="translate(303.564453 0.78125)"/>
      <use xlink:href="#DejaVuSans-Oblique-65" transform="translate(364.746094 -15.625) scale(0.7)"/>
      <use xlink:href="#DejaVuSans-3d" transform="translate(430.029297 0.78125)"/>
      <use xlink:href="#DejaVuSans-2212" transform="translate(552.783203 0.78125)"/>
      <use xlink:href="#DejaVuSans-31" transform="translate(656.054688 0.78125)"/>
      <use xlink:href="#DejaVuSans-30" transform="translate(719.677734 0.78125)"/>
     </g>
    </g>
    <g id="PathCollection_16">
     <g>
      <use xlink:href="#m244353bfef" x="307.833656" y="89.166213" style="fill: #aaff4d; stroke: #aaff4d; stroke-width: 1.5"/>
     </g>
    </g>
    <g id="text_19">
     <!-- $\alpha = 2, \delta_e = 10$ -->
     <g transform="translate(325.833656 91.791213) scale(0.1 -0.1)">
      <use xlink:href="#DejaVuSans-Oblique-3b1" transform="translate(0 0.78125)"/>
      <use xlink:href="#DejaVuSans-3d" transform="translate(85.400391 0.78125)"/>
      <use xlink:href="#DejaVuSans-32" transform="translate(188.671875 0.78125)"/>
      <use xlink:href="#DejaVuSans-2c" transform="translate(252.294922 0.78125)"/>
      <use xlink:href="#DejaVuSans-Oblique-3b4" transform="translate(303.564453 0.78125)"/>
      <use xlink:href="#DejaVuSans-Oblique-65" transform="translate(364.746094 -15.625) scale(0.7)"/>
      <use xlink:href="#DejaVuSans-3d" transform="translate(430.029297 0.78125)"/>
      <use xlink:href="#DejaVuSans-31" transform="translate(533.300781 0.78125)"/>
      <use xlink:href="#DejaVuSans-30" transform="translate(596.923828 0.78125)"/>
     </g>
    </g>
    <g id="PathCollection_17">
     <g>
      <use xlink:href="#mcfef956489" x="307.833656" y="103.844338" style="fill: #ffe600; stroke: #ffe600; stroke-width: 1.5"/>
     </g>
    </g>
    <g id="text_20">
     <!-- $\alpha = 4, \delta_e = -10$ -->
     <g transform="translate(325.833656 106.469338) scale(0.1 -0.1)">
      <use xlink:href="#DejaVuSans-Oblique-3b1" transform="translate(0 0.78125)"/>
      <use xlink:href="#DejaVuSans-3d" transform="translate(85.400391 0.78125)"/>
      <use xlink:href="#DejaVuSans-34" transform="translate(188.671875 0.78125)"/>
      <use xlink:href="#DejaVuSans-2c" transform="translate(252.294922 0.78125)"/>
      <use xlink:href="#DejaVuSans-Oblique-3b4" transform="translate(303.564453 0.78125)"/>
      <use xlink:href="#DejaVuSans-Oblique-65" transform="translate(364.746094 -15.625) scale(0.7)"/>
      <use xlink:href="#DejaVuSans-3d" transform="translate(430.029297 0.78125)"/>
      <use xlink:href="#DejaVuSans-2212" transform="translate(552.783203 0.78125)"/>
      <use xlink:href="#DejaVuSans-31" transform="translate(656.054688 0.78125)"/>
      <use xlink:href="#DejaVuSans-30" transform="translate(719.677734 0.78125)"/>
     </g>
    </g>
    <g id="PathCollection_18">
     <g>
      <use xlink:href="#m10078cb279" x="307.833656" y="118.522463" style="fill: #ff7a00; stroke: #ff7a00; stroke-width: 1.5"/>
     </g>
    </g>
    <g id="text_21">
     <!-- $\alpha = 4, \delta_e = 10$ -->
     <g transform="translate(325.833656 121.147463) scale(0.1 -0.1)">
      <use xlink:href="#DejaVuSans-Oblique-3b1" transform="translate(0 0.78125)"/>
      <use xlink:href="#DejaVuSans-3d" transform="translate(85.400391 0.78125)"/>
      <use xlink:href="#DejaVuSans-34" transform="translate(188.671875 0.78125)"/>
      <use xlink:href="#DejaVuSans-2c" transform="translate(252.294922 0.78125)"/>
      <use xlink:href="#DejaVuSans-Oblique-3b4" transform="translate(303.564453 0.78125)"/>
      <use xlink:href="#DejaVuSans-Oblique-65" transform="translate(364.746094 -15.625) scale(0.7)"/>
      <use xlink:href="#DejaVuSans-3d" transform="translate(430.029297 0.78125)"/>
      <use xlink:href="#DejaVuSans-31" transform="translate(533.300781 0.78125)"/>
      <use xlink:href="#DejaVuSans-30" transform="translate(596.923828 0.78125)"/>
     </g>
    </g>
    <g id="PathCollection_19">
     <g>
      <use xlink:href="#m6e2eaba750" x="307.833656" y="133.200587" style="fill: #ff1300; stroke: #ff1300; stroke-width: 1.5"/>
     </g>
    </g>
    <g id="text_22">
     <!-- $\alpha = 7, \delta_e = -10$ -->
     <g transform="translate(325.833656 135.825587) scale(0.1 -0.1)">
      <defs>
       <path id="DejaVuSans-37" d="M 525 4666 
L 3525 4666 
L 3525 4397 
L 1831 0 
L 1172 0 
L 2766 4134 
L 525 4134 
L 525 4666 
z
" transform="scale(0.015625)"/>
      </defs>
      <use xlink:href="#DejaVuSans-Oblique-3b1" transform="translate(0 0.78125)"/>
      <use xlink:href="#DejaVuSans-3d" transform="translate(85.400391 0.78125)"/>
      <use xlink:href="#DejaVuSans-37" transform="translate(188.671875 0.78125)"/>
      <use xlink:href="#DejaVuSans-2c" transform="translate(252.294922 0.78125)"/>
      <use xlink:href="#DejaVuSans-Oblique-3b4" transform="translate(303.564453 0.78125)"/>
      <use xlink:href="#DejaVuSans-Oblique-65" transform="translate(364.746094 -15.625) scale(0.7)"/>
      <use xlink:href="#DejaVuSans-3d" transform="translate(430.029297 0.78125)"/>
      <use xlink:href="#DejaVuSans-2212" transform="translate(552.783203 0.78125)"/>
      <use xlink:href="#DejaVuSans-31" transform="translate(656.054688 0.78125)"/>
      <use xlink:href="#DejaVuSans-30" transform="translate(719.677734 0.78125)"/>
     </g>
    </g>
    <g id="PathCollection_20">
     <g>
      <use xlink:href="#mddb24861f2" x="307.833656" y="147.878712" style="fill: #800000; stroke: #800000; stroke-width: 1.5"/>
     </g>
    </g>
    <g id="text_23">
     <!-- $\alpha = 7, \delta_e = 10$ -->
     <g transform="translate(325.833656 150.503712) scale(0.1 -0.1)">
      <use xlink:href="#DejaVuSans-Oblique-3b1" transform="translate(0 0.78125)"/>
      <use xlink:href="#DejaVuSans-3d" transform="translate(85.400391 0.78125)"/>
      <use xlink:href="#DejaVuSans-37" transform="translate(188.671875 0.78125)"/>
      <use xlink:href="#DejaVuSans-2c" transform="translate(252.294922 0.78125)"/>
      <use xlink:href="#DejaVuSans-Oblique-3b4" transform="translate(303.564453 0.78125)"/>
      <use xlink:href="#DejaVuSans-Oblique-65" transform="translate(364.746094 -15.625) scale(0.7)"/>
      <use xlink:href="#DejaVuSans-3d" transform="translate(430.029297 0.78125)"/>
      <use xlink:href="#DejaVuSans-31" transform="translate(533.300781 0.78125)"/>
      <use xlink:href="#DejaVuSans-30" transform="translate(596.923828 0.78125)"/>
     </g>
    </g>
   </g>
  </g>
 </g>
 <defs>
  <clipPath id="pce696b3a13">
   <rect x="69.428" y="28.876" width="219.405656" height="139.692"/>
  </clipPath>
 </defs>
</svg>
