<?xml version="1.0" encoding="utf-8" standalone="no"?>
<!DOCTYPE svg PUBLIC "-//W3C//DTD SVG 1.1//EN"
  "http://www.w3.org/Graphics/SVG/1.1/DTD/svg11.dtd">
<svg xmlns:xlink="http://www.w3.org/1999/xlink" width="576pt" height="216pt" viewBox="0 0 576 216" xmlns="http://www.w3.org/2000/svg" version="1.1">
 <metadata>
  <rdf:RDF xmlns:dc="http://purl.org/dc/elements/1.1/" xmlns:cc="http://creativecommons.org/ns#" xmlns:rdf="http://www.w3.org/1999/02/22-rdf-syntax-ns#">
   <cc:Work>
    <dc:type rdf:resource="http://purl.org/dc/dcmitype/StillImage"/>
    <dc:date>2025-03-27T17:43:40.505689</dc:date>
    <dc:format>image/svg+xml</dc:format>
    <dc:creator>
     <cc:Agent>
      <dc:title>Matplotlib v3.9.2, https://matplotlib.org/</dc:title>
     </cc:Agent>
    </dc:creator>
   </cc:Work>
  </rdf:RDF>
 </metadata>
 <defs>
  <style type="text/css">*{stroke-linejoin: round; stroke-linecap: butt}</style>
 </defs>
 <g id="figure_1">
  <g id="patch_1">
   <path d="M 0 216 
L 576 216 
L 576 0 
L 0 0 
z
" style="fill: #ffffff"/>
  </g>
  <g id="axes_1">
   <g id="patch_2">
    <path d="M 63.038 174.04 
L 450.255247 174.04 
L 450.255247 10.8 
L 63.038 10.8 
z
" style="fill: #ffffff"/>
   </g>
   <g id="matplotlib.axis_1">
    <g id="xtick_1">
     <g id="line2d_1">
      <path d="M 80.638784 174.04 
L 80.638784 10.8 
" clip-path="url(#pdc5ffabdeb)" style="fill: none; stroke: #b0b0b0; stroke-width: 0.8; stroke-linecap: square"/>
     </g>
     <g id="line2d_2">
      <defs>
       <path id="m9b98c38af1" d="M 0 0 
L 0 3.5 
" style="stroke: #000000; stroke-width: 0.8"/>
      </defs>
      <g>
       <use xlink:href="#m9b98c38af1" x="80.638784" y="174.04" style="stroke: #000000; stroke-width: 0.8"/>
      </g>
     </g>
     <g id="text_1">
      <!-- −4 -->
      <g transform="translate(73.26769 188.638438) scale(0.1 -0.1)">
       <defs>
        <path id="DejaVuSans-2212" d="M 678 2272 
L 4684 2272 
L 4684 1741 
L 678 1741 
L 678 2272 
z
" transform="scale(0.015625)"/>
        <path id="DejaVuSans-34" d="M 2419 4116 
L 825 1625 
L 2419 1625 
L 2419 4116 
z
M 2253 4666 
L 3047 4666 
L 3047 1625 
L 3713 1625 
L 3713 1100 
L 3047 1100 
L 3047 0 
L 2419 0 
L 2419 1100 
L 313 1100 
L 313 1709 
L 2253 4666 
z
" transform="scale(0.015625)"/>
       </defs>
       <use xlink:href="#DejaVuSans-2212"/>
       <use xlink:href="#DejaVuSans-34" x="83.789062"/>
      </g>
     </g>
    </g>
    <g id="xtick_2">
     <g id="line2d_3">
      <path d="M 144.641635 174.04 
L 144.641635 10.8 
" clip-path="url(#pdc5ffabdeb)" style="fill: none; stroke: #b0b0b0; stroke-width: 0.8; stroke-linecap: square"/>
     </g>
     <g id="line2d_4">
      <g>
       <use xlink:href="#m9b98c38af1" x="144.641635" y="174.04" style="stroke: #000000; stroke-width: 0.8"/>
      </g>
     </g>
     <g id="text_2">
      <!-- −2 -->
      <g transform="translate(137.270541 188.638438) scale(0.1 -0.1)">
       <defs>
        <path id="DejaVuSans-32" d="M 1228 531 
L 3431 531 
L 3431 0 
L 469 0 
L 469 531 
Q 828 903 1448 1529 
Q 2069 2156 2228 2338 
Q 2531 2678 2651 2914 
Q 2772 3150 2772 3378 
Q 2772 3750 2511 3984 
Q 2250 4219 1831 4219 
Q 1534 4219 1204 4116 
Q 875 4013 500 3803 
L 500 4441 
Q 881 4594 1212 4672 
Q 1544 4750 1819 4750 
Q 2544 4750 2975 4387 
Q 3406 4025 3406 3419 
Q 3406 3131 3298 2873 
Q 3191 2616 2906 2266 
Q 2828 2175 2409 1742 
Q 1991 1309 1228 531 
z
" transform="scale(0.015625)"/>
       </defs>
       <use xlink:href="#DejaVuSans-2212"/>
       <use xlink:href="#DejaVuSans-32" x="83.789062"/>
      </g>
     </g>
    </g>
    <g id="xtick_3">
     <g id="line2d_5">
      <path d="M 208.644486 174.04 
L 208.644486 10.8 
" clip-path="url(#pdc5ffabdeb)" style="fill: none; stroke: #b0b0b0; stroke-width: 0.8; stroke-linecap: square"/>
     </g>
     <g id="line2d_6">
      <g>
       <use xlink:href="#m9b98c38af1" x="208.644486" y="174.04" style="stroke: #000000; stroke-width: 0.8"/>
      </g>
     </g>
     <g id="text_3">
      <!-- 0 -->
      <g transform="translate(205.463236 188.638438) scale(0.1 -0.1)">
       <defs>
        <path id="DejaVuSans-30" d="M 2034 4250 
Q 1547 4250 1301 3770 
Q 1056 3291 1056 2328 
Q 1056 1369 1301 889 
Q 1547 409 2034 409 
Q 2525 409 2770 889 
Q 3016 1369 3016 2328 
Q 3016 3291 2770 3770 
Q 2525 4250 2034 4250 
z
M 2034 4750 
Q 2819 4750 3233 4129 
Q 3647 3509 3647 2328 
Q 3647 1150 3233 529 
Q 2819 -91 2034 -91 
Q 1250 -91 836 529 
Q 422 1150 422 2328 
Q 422 3509 836 4129 
Q 1250 4750 2034 4750 
z
" transform="scale(0.015625)"/>
       </defs>
       <use xlink:href="#DejaVuSans-30"/>
      </g>
     </g>
    </g>
    <g id="xtick_4">
     <g id="line2d_7">
      <path d="M 272.647336 174.04 
L 272.647336 10.8 
" clip-path="url(#pdc5ffabdeb)" style="fill: none; stroke: #b0b0b0; stroke-width: 0.8; stroke-linecap: square"/>
     </g>
     <g id="line2d_8">
      <g>
       <use xlink:href="#m9b98c38af1" x="272.647336" y="174.04" style="stroke: #000000; stroke-width: 0.8"/>
      </g>
     </g>
     <g id="text_4">
      <!-- 2 -->
      <g transform="translate(269.466086 188.638438) scale(0.1 -0.1)">
       <use xlink:href="#DejaVuSans-32"/>
      </g>
     </g>
    </g>
    <g id="xtick_5">
     <g id="line2d_9">
      <path d="M 336.650187 174.04 
L 336.650187 10.8 
" clip-path="url(#pdc5ffabdeb)" style="fill: none; stroke: #b0b0b0; stroke-width: 0.8; stroke-linecap: square"/>
     </g>
     <g id="line2d_10">
      <g>
       <use xlink:href="#m9b98c38af1" x="336.650187" y="174.04" style="stroke: #000000; stroke-width: 0.8"/>
      </g>
     </g>
     <g id="text_5">
      <!-- 4 -->
      <g transform="translate(333.468937 188.638438) scale(0.1 -0.1)">
       <use xlink:href="#DejaVuSans-34"/>
      </g>
     </g>
    </g>
    <g id="xtick_6">
     <g id="line2d_11">
      <path d="M 400.653038 174.04 
L 400.653038 10.8 
" clip-path="url(#pdc5ffabdeb)" style="fill: none; stroke: #b0b0b0; stroke-width: 0.8; stroke-linecap: square"/>
     </g>
     <g id="line2d_12">
      <g>
       <use xlink:href="#m9b98c38af1" x="400.653038" y="174.04" style="stroke: #000000; stroke-width: 0.8"/>
      </g>
     </g>
     <g id="text_6">
      <!-- 6 -->
      <g transform="translate(397.471788 188.638438) scale(0.1 -0.1)">
       <defs>
        <path id="DejaVuSans-36" d="M 2113 2584 
Q 1688 2584 1439 2293 
Q 1191 2003 1191 1497 
Q 1191 994 1439 701 
Q 1688 409 2113 409 
Q 2538 409 2786 701 
Q 3034 994 3034 1497 
Q 3034 2003 2786 2293 
Q 2538 2584 2113 2584 
z
M 3366 4563 
L 3366 3988 
Q 3128 4100 2886 4159 
Q 2644 4219 2406 4219 
Q 1781 4219 1451 3797 
Q 1122 3375 1075 2522 
Q 1259 2794 1537 2939 
Q 1816 3084 2150 3084 
Q 2853 3084 3261 2657 
Q 3669 2231 3669 1497 
Q 3669 778 3244 343 
Q 2819 -91 2113 -91 
Q 1303 -91 875 529 
Q 447 1150 447 2328 
Q 447 3434 972 4092 
Q 1497 4750 2381 4750 
Q 2619 4750 2861 4703 
Q 3103 4656 3366 4563 
z
" transform="scale(0.015625)"/>
       </defs>
       <use xlink:href="#DejaVuSans-36"/>
      </g>
     </g>
    </g>
    <g id="text_7">
     <!-- $\alpha$ -->
     <g transform="translate(253.346624 202.316563) scale(0.1 -0.1)">
      <defs>
       <path id="DejaVuSans-Oblique-3b1" d="M 2619 1628 
L 2622 2350 
Q 2625 3088 2069 3091 
Q 1653 3094 1394 2747 
Q 1069 2319 959 1747 
Q 825 1059 994 731 
Q 1169 397 1547 397 
Q 1966 397 2319 1063 
L 2619 1628 
z
M 2166 3578 
Q 3141 3594 3128 2584 
Q 3128 2584 3616 3500 
L 4128 3500 
L 3119 1603 
L 3109 919 
Q 3109 766 3194 638 
Q 3291 488 3391 488 
L 3669 488 
L 3575 0 
L 3228 0 
Q 2934 0 2722 263 
Q 2622 394 2619 669 
Q 2416 334 2066 50 
Q 1900 -81 1453 -78 
Q 722 -72 456 397 
Q 184 884 353 1747 
Q 534 2675 1009 3097 
Q 1544 3569 2166 3578 
z
" transform="scale(0.015625)"/>
      </defs>
      <use xlink:href="#DejaVuSans-Oblique-3b1" transform="translate(0 0.84375)"/>
     </g>
    </g>
   </g>
   <g id="matplotlib.axis_2">
    <g id="ytick_1">
     <g id="line2d_13">
      <path d="M 63.038 160.280673 
L 450.255247 160.280673 
" clip-path="url(#pdc5ffabdeb)" style="fill: none; stroke: #b0b0b0; stroke-width: 0.8; stroke-linecap: square"/>
     </g>
     <g id="line2d_14">
      <defs>
       <path id="m7972341f95" d="M 0 0 
L -3.5 0 
" style="stroke: #000000; stroke-width: 0.8"/>
      </defs>
      <g>
       <use xlink:href="#m7972341f95" x="63.038" y="160.280673" style="stroke: #000000; stroke-width: 0.8"/>
      </g>
     </g>
     <g id="text_8">
      <!-- 0.090 -->
      <g transform="translate(27.409875 164.079892) scale(0.1 -0.1)">
       <defs>
        <path id="DejaVuSans-2e" d="M 684 794 
L 1344 794 
L 1344 0 
L 684 0 
L 684 794 
z
" transform="scale(0.015625)"/>
        <path id="DejaVuSans-39" d="M 703 97 
L 703 672 
Q 941 559 1184 500 
Q 1428 441 1663 441 
Q 2288 441 2617 861 
Q 2947 1281 2994 2138 
Q 2813 1869 2534 1725 
Q 2256 1581 1919 1581 
Q 1219 1581 811 2004 
Q 403 2428 403 3163 
Q 403 3881 828 4315 
Q 1253 4750 1959 4750 
Q 2769 4750 3195 4129 
Q 3622 3509 3622 2328 
Q 3622 1225 3098 567 
Q 2575 -91 1691 -91 
Q 1453 -91 1209 -44 
Q 966 3 703 97 
z
M 1959 2075 
Q 2384 2075 2632 2365 
Q 2881 2656 2881 3163 
Q 2881 3666 2632 3958 
Q 2384 4250 1959 4250 
Q 1534 4250 1286 3958 
Q 1038 3666 1038 3163 
Q 1038 2656 1286 2365 
Q 1534 2075 1959 2075 
z
" transform="scale(0.015625)"/>
       </defs>
       <use xlink:href="#DejaVuSans-30"/>
       <use xlink:href="#DejaVuSans-2e" x="63.623047"/>
       <use xlink:href="#DejaVuSans-30" x="95.410156"/>
       <use xlink:href="#DejaVuSans-39" x="159.033203"/>
       <use xlink:href="#DejaVuSans-30" x="222.65625"/>
      </g>
     </g>
    </g>
    <g id="ytick_2">
     <g id="line2d_15">
      <path d="M 63.038 137.256164 
L 450.255247 137.256164 
" clip-path="url(#pdc5ffabdeb)" style="fill: none; stroke: #b0b0b0; stroke-width: 0.8; stroke-linecap: square"/>
     </g>
     <g id="line2d_16">
      <g>
       <use xlink:href="#m7972341f95" x="63.038" y="137.256164" style="stroke: #000000; stroke-width: 0.8"/>
      </g>
     </g>
     <g id="text_9">
      <!-- 0.095 -->
      <g transform="translate(27.409875 141.055383) scale(0.1 -0.1)">
       <defs>
        <path id="DejaVuSans-35" d="M 691 4666 
L 3169 4666 
L 3169 4134 
L 1269 4134 
L 1269 2991 
Q 1406 3038 1543 3061 
Q 1681 3084 1819 3084 
Q 2600 3084 3056 2656 
Q 3513 2228 3513 1497 
Q 3513 744 3044 326 
Q 2575 -91 1722 -91 
Q 1428 -91 1123 -41 
Q 819 9 494 109 
L 494 744 
Q 775 591 1075 516 
Q 1375 441 1709 441 
Q 2250 441 2565 725 
Q 2881 1009 2881 1497 
Q 2881 1984 2565 2268 
Q 2250 2553 1709 2553 
Q 1456 2553 1204 2497 
Q 953 2441 691 2322 
L 691 4666 
z
" transform="scale(0.015625)"/>
       </defs>
       <use xlink:href="#DejaVuSans-30"/>
       <use xlink:href="#DejaVuSans-2e" x="63.623047"/>
       <use xlink:href="#DejaVuSans-30" x="95.410156"/>
       <use xlink:href="#DejaVuSans-39" x="159.033203"/>
       <use xlink:href="#DejaVuSans-35" x="222.65625"/>
      </g>
     </g>
    </g>
    <g id="ytick_3">
     <g id="line2d_17">
      <path d="M 63.038 114.231656 
L 450.255247 114.231656 
" clip-path="url(#pdc5ffabdeb)" style="fill: none; stroke: #b0b0b0; stroke-width: 0.8; stroke-linecap: square"/>
     </g>
     <g id="line2d_18">
      <g>
       <use xlink:href="#m7972341f95" x="63.038" y="114.231656" style="stroke: #000000; stroke-width: 0.8"/>
      </g>
     </g>
     <g id="text_10">
      <!-- 0.100 -->
      <g transform="translate(27.409875 118.030875) scale(0.1 -0.1)">
       <defs>
        <path id="DejaVuSans-31" d="M 794 531 
L 1825 531 
L 1825 4091 
L 703 3866 
L 703 4441 
L 1819 4666 
L 2450 4666 
L 2450 531 
L 3481 531 
L 3481 0 
L 794 0 
L 794 531 
z
" transform="scale(0.015625)"/>
       </defs>
       <use xlink:href="#DejaVuSans-30"/>
       <use xlink:href="#DejaVuSans-2e" x="63.623047"/>
       <use xlink:href="#DejaVuSans-31" x="95.410156"/>
       <use xlink:href="#DejaVuSans-30" x="159.033203"/>
       <use xlink:href="#DejaVuSans-30" x="222.65625"/>
      </g>
     </g>
    </g>
    <g id="ytick_4">
     <g id="line2d_19">
      <path d="M 63.038 91.207147 
L 450.255247 91.207147 
" clip-path="url(#pdc5ffabdeb)" style="fill: none; stroke: #b0b0b0; stroke-width: 0.8; stroke-linecap: square"/>
     </g>
     <g id="line2d_20">
      <g>
       <use xlink:href="#m7972341f95" x="63.038" y="91.207147" style="stroke: #000000; stroke-width: 0.8"/>
      </g>
     </g>
     <g id="text_11">
      <!-- 0.105 -->
      <g transform="translate(27.409875 95.006366) scale(0.1 -0.1)">
       <use xlink:href="#DejaVuSans-30"/>
       <use xlink:href="#DejaVuSans-2e" x="63.623047"/>
       <use xlink:href="#DejaVuSans-31" x="95.410156"/>
       <use xlink:href="#DejaVuSans-30" x="159.033203"/>
       <use xlink:href="#DejaVuSans-35" x="222.65625"/>
      </g>
     </g>
    </g>
    <g id="ytick_5">
     <g id="line2d_21">
      <path d="M 63.038 68.182639 
L 450.255247 68.182639 
" clip-path="url(#pdc5ffabdeb)" style="fill: none; stroke: #b0b0b0; stroke-width: 0.8; stroke-linecap: square"/>
     </g>
     <g id="line2d_22">
      <g>
       <use xlink:href="#m7972341f95" x="63.038" y="68.182639" style="stroke: #000000; stroke-width: 0.8"/>
      </g>
     </g>
     <g id="text_12">
      <!-- 0.110 -->
      <g transform="translate(27.409875 71.981858) scale(0.1 -0.1)">
       <use xlink:href="#DejaVuSans-30"/>
       <use xlink:href="#DejaVuSans-2e" x="63.623047"/>
       <use xlink:href="#DejaVuSans-31" x="95.410156"/>
       <use xlink:href="#DejaVuSans-31" x="159.033203"/>
       <use xlink:href="#DejaVuSans-30" x="222.65625"/>
      </g>
     </g>
    </g>
    <g id="ytick_6">
     <g id="line2d_23">
      <path d="M 63.038 45.15813 
L 450.255247 45.15813 
" clip-path="url(#pdc5ffabdeb)" style="fill: none; stroke: #b0b0b0; stroke-width: 0.8; stroke-linecap: square"/>
     </g>
     <g id="line2d_24">
      <g>
       <use xlink:href="#m7972341f95" x="63.038" y="45.15813" style="stroke: #000000; stroke-width: 0.8"/>
      </g>
     </g>
     <g id="text_13">
      <!-- 0.115 -->
      <g transform="translate(27.409875 48.957349) scale(0.1 -0.1)">
       <use xlink:href="#DejaVuSans-30"/>
       <use xlink:href="#DejaVuSans-2e" x="63.623047"/>
       <use xlink:href="#DejaVuSans-31" x="95.410156"/>
       <use xlink:href="#DejaVuSans-31" x="159.033203"/>
       <use xlink:href="#DejaVuSans-35" x="222.65625"/>
      </g>
     </g>
    </g>
    <g id="ytick_7">
     <g id="line2d_25">
      <path d="M 63.038 22.133622 
L 450.255247 22.133622 
" clip-path="url(#pdc5ffabdeb)" style="fill: none; stroke: #b0b0b0; stroke-width: 0.8; stroke-linecap: square"/>
     </g>
     <g id="line2d_26">
      <g>
       <use xlink:href="#m7972341f95" x="63.038" y="22.133622" style="stroke: #000000; stroke-width: 0.8"/>
      </g>
     </g>
     <g id="text_14">
      <!-- 0.120 -->
      <g transform="translate(27.409875 25.93284) scale(0.1 -0.1)">
       <use xlink:href="#DejaVuSans-30"/>
       <use xlink:href="#DejaVuSans-2e" x="63.623047"/>
       <use xlink:href="#DejaVuSans-31" x="95.410156"/>
       <use xlink:href="#DejaVuSans-32" x="159.033203"/>
       <use xlink:href="#DejaVuSans-30" x="222.65625"/>
      </g>
     </g>
    </g>
    <g id="text_15">
     <!-- d$C_L$ / d$\alpha$ -->
     <g transform="translate(21.330188 112.52) rotate(-90) scale(0.1 -0.1)">
      <defs>
       <path id="DejaVuSans-64" d="M 2906 2969 
L 2906 4863 
L 3481 4863 
L 3481 0 
L 2906 0 
L 2906 525 
Q 2725 213 2448 61 
Q 2172 -91 1784 -91 
Q 1150 -91 751 415 
Q 353 922 353 1747 
Q 353 2572 751 3078 
Q 1150 3584 1784 3584 
Q 2172 3584 2448 3432 
Q 2725 3281 2906 2969 
z
M 947 1747 
Q 947 1113 1208 752 
Q 1469 391 1925 391 
Q 2381 391 2643 752 
Q 2906 1113 2906 1747 
Q 2906 2381 2643 2742 
Q 2381 3103 1925 3103 
Q 1469 3103 1208 2742 
Q 947 2381 947 1747 
z
" transform="scale(0.015625)"/>
       <path id="DejaVuSans-Oblique-43" d="M 4447 4306 
L 4319 3641 
Q 4019 3944 3683 4091 
Q 3347 4238 2956 4238 
Q 2422 4238 2017 3981 
Q 1613 3725 1319 3200 
Q 1131 2863 1032 2486 
Q 934 2109 934 1728 
Q 934 1091 1264 756 
Q 1594 422 2222 422 
Q 2656 422 3056 561 
Q 3456 700 3834 978 
L 3688 231 
Q 3316 72 2936 -9 
Q 2556 -91 2175 -91 
Q 1278 -91 773 396 
Q 269 884 269 1753 
Q 269 2309 461 2846 
Q 653 3384 1013 3828 
Q 1394 4300 1883 4525 
Q 2372 4750 3022 4750 
Q 3422 4750 3780 4639 
Q 4138 4528 4447 4306 
z
" transform="scale(0.015625)"/>
       <path id="DejaVuSans-Oblique-4c" d="M 1075 4666 
L 1709 4666 
L 909 525 
L 3181 525 
L 3078 0 
L 172 0 
L 1075 4666 
z
" transform="scale(0.015625)"/>
       <path id="DejaVuSans-20" transform="scale(0.015625)"/>
       <path id="DejaVuSans-2f" d="M 1625 4666 
L 2156 4666 
L 531 -594 
L 0 -594 
L 1625 4666 
z
" transform="scale(0.015625)"/>
      </defs>
      <use xlink:href="#DejaVuSans-64" transform="translate(0 0.015625)"/>
      <use xlink:href="#DejaVuSans-Oblique-43" transform="translate(63.476562 0.015625)"/>
      <use xlink:href="#DejaVuSans-Oblique-4c" transform="translate(133.300781 -16.390625) scale(0.7)"/>
      <use xlink:href="#DejaVuSans-20" transform="translate(175.03418 0.015625)"/>
      <use xlink:href="#DejaVuSans-2f" transform="translate(206.821289 0.015625)"/>
      <use xlink:href="#DejaVuSans-20" transform="translate(240.512695 0.015625)"/>
      <use xlink:href="#DejaVuSans-64" transform="translate(272.299805 0.015625)"/>
      <use xlink:href="#DejaVuSans-Oblique-3b1" transform="translate(335.776367 0.015625)"/>
     </g>
    </g>
   </g>
   <g id="line2d_27">
    <path d="M 80.638784 19.453796 
L 84.194498 19.174317 
L 87.750212 18.930624 
L 91.305926 18.722719 
L 94.86164 18.550601 
L 98.417354 18.41427 
L 101.973068 18.313726 
L 105.528782 18.24897 
L 109.084495 18.22 
L 112.640209 18.226818 
L 116.195923 18.269422 
L 119.751637 18.347814 
L 123.307351 18.461993 
L 126.863065 18.611959 
L 130.418779 18.797712 
L 133.974493 19.019252 
L 137.530207 19.27658 
L 141.085921 19.569694 
L 144.641635 19.898596 
L 148.197349 20.263285 
L 151.753063 20.66376 
L 155.308777 21.100023 
L 158.864491 21.572074 
L 162.420204 22.079911 
L 165.975918 22.623535 
L 169.531632 23.202947 
L 173.087346 23.818145 
L 176.64306 24.469131 
L 180.198774 25.155904 
L 183.754488 25.878464 
L 187.310202 26.636811 
L 190.865916 27.430945 
L 194.42163 28.260867 
L 197.977344 29.126575 
L 201.533058 30.028071 
L 205.088772 30.965354 
L 208.644486 31.938423 
L 212.2002 32.94728 
L 215.755913 33.991925 
L 219.311627 35.072356 
L 222.867341 36.188574 
L 226.423055 37.34058 
L 229.978769 38.528372 
L 233.534483 39.751952 
L 237.090197 41.011319 
L 240.645911 42.306473 
L 244.201625 43.637414 
L 247.757339 45.004142 
L 251.313053 46.406657 
L 254.868767 47.84496 
L 258.424481 49.31905 
L 261.980195 50.828926 
L 265.535909 52.37459 
L 269.091622 53.956041 
L 272.647336 55.573279 
L 276.20305 57.226304 
L 279.758764 58.915117 
L 283.314478 60.639716 
L 286.870192 62.400103 
L 290.425906 64.196277 
L 293.98162 66.028237 
L 297.537334 67.895985 
L 301.093048 69.79952 
L 304.648762 71.738843 
L 308.204476 73.713952 
L 311.76019 75.724848 
L 315.315904 77.771532 
L 318.871618 79.854003 
L 322.427332 81.972261 
L 325.983045 84.126305 
L 329.538759 86.316138 
L 333.094473 88.541757 
L 336.650187 90.803163 
L 340.205901 93.100357 
L 343.761615 95.433337 
L 347.317329 97.802105 
L 350.873043 100.20666 
L 354.428757 102.647002 
L 357.984471 105.123131 
L 361.540185 107.635047 
L 365.095899 110.18275 
L 368.651613 112.766241 
L 372.207327 115.385518 
L 375.763041 118.040583 
L 379.318754 120.731435 
L 382.874468 123.458074 
L 386.430182 126.2205 
L 389.985896 129.018713 
L 393.54161 131.852713 
L 397.097324 134.722501 
L 400.653038 137.628075 
L 404.208752 140.569437 
L 407.764466 143.546586 
L 411.32018 146.559522 
L 414.875894 149.608245 
L 418.431608 152.692755 
L 421.987322 155.813052 
L 425.543036 158.969137 
L 429.09875 162.161008 
L 432.654463 165.388667 
" clip-path="url(#pdc5ffabdeb)" style="fill: none; stroke: #000080; stroke-width: 1.5; stroke-linecap: square"/>
   </g>
   <g id="line2d_28">
    <path d="M 80.638784 33.356921 
L 84.194498 32.935803 
L 87.750212 32.550472 
L 91.305926 32.200928 
L 94.86164 31.887171 
L 98.417354 31.609201 
L 101.973068 31.367019 
L 105.528782 31.160623 
L 109.084495 30.990015 
L 112.640209 30.855194 
L 116.195923 30.75616 
L 119.751637 30.692913 
L 123.307351 30.665453 
L 126.863065 30.673781 
L 130.418779 30.717895 
L 133.974493 30.797797 
L 137.530207 30.913485 
L 141.085921 31.064961 
L 144.641635 31.252224 
L 148.197349 31.475274 
L 151.753063 31.734111 
L 155.308777 32.028736 
L 158.864491 32.359147 
L 162.420204 32.725346 
L 165.975918 33.127331 
L 169.531632 33.565104 
L 173.087346 34.038664 
L 176.64306 34.548011 
L 180.198774 35.093145 
L 183.754488 35.674067 
L 187.310202 36.290775 
L 190.865916 36.943271 
L 194.42163 37.631553 
L 197.977344 38.355623 
L 201.533058 39.11548 
L 205.088772 39.911124 
L 208.644486 40.742555 
L 212.2002 41.609774 
L 215.755913 42.512779 
L 219.311627 43.451572 
L 222.867341 44.426151 
L 226.423055 45.436518 
L 229.978769 46.482672 
L 233.534483 47.564613 
L 237.090197 48.682341 
L 240.645911 49.835856 
L 244.201625 51.025159 
L 247.757339 52.250248 
L 251.313053 53.511125 
L 254.868767 54.807789 
L 258.424481 56.14024 
L 261.980195 57.508478 
L 265.535909 58.912503 
L 269.091622 60.352315 
L 272.647336 61.827915 
L 276.20305 63.339301 
L 279.758764 64.886475 
L 283.314478 66.469436 
L 286.870192 68.088184 
L 290.425906 69.742719 
L 293.98162 71.433041 
L 297.537334 73.15915 
L 301.093048 74.921046 
L 304.648762 76.71873 
L 308.204476 78.552201 
L 311.76019 80.421458 
L 315.315904 82.326503 
L 318.871618 84.267335 
L 322.427332 86.243954 
L 325.983045 88.256361 
L 329.538759 90.304554 
L 333.094473 92.388535 
L 336.650187 94.508302 
L 340.205901 96.663857 
L 343.761615 98.855199 
L 347.317329 101.082328 
L 350.873043 103.345244 
L 354.428757 105.643947 
L 357.984471 107.978438 
L 361.540185 110.348715 
L 365.095899 112.75478 
L 368.651613 115.196632 
L 372.207327 117.67427 
L 375.763041 120.187696 
L 379.318754 122.73691 
L 382.874468 125.32191 
L 386.430182 127.942697 
L 389.985896 130.599272 
L 393.54161 133.291633 
L 397.097324 136.019782 
L 400.653038 138.783718 
L 404.208752 141.583441 
L 407.764466 144.418951 
L 411.32018 147.290248 
L 414.875894 150.197333 
L 418.431608 153.140204 
L 421.987322 156.118863 
L 425.543036 159.133308 
L 429.09875 162.183541 
L 432.654463 165.269561 
" clip-path="url(#pdc5ffabdeb)" style="fill: none; stroke: #0080ff; stroke-width: 1.5; stroke-linecap: square"/>
   </g>
   <g id="line2d_29">
    <path d="M 80.638784 42.78186 
L 84.194498 42.267212 
L 87.750212 41.788352 
L 91.305926 41.345278 
L 94.86164 40.937992 
L 98.417354 40.566493 
L 101.973068 40.230781 
L 105.528782 39.930856 
L 109.084495 39.666718 
L 112.640209 39.438368 
L 116.195923 39.245804 
L 119.751637 39.089028 
L 123.307351 38.968038 
L 126.863065 38.882836 
L 130.418779 38.833421 
L 133.974493 38.819793 
L 137.530207 38.841953 
L 141.085921 38.899899 
L 144.641635 38.993632 
L 148.197349 39.123153 
L 151.753063 39.288461 
L 155.308777 39.489555 
L 158.864491 39.726437 
L 162.420204 39.999107 
L 165.975918 40.307563 
L 169.531632 40.651806 
L 173.087346 41.031837 
L 176.64306 41.447654 
L 180.198774 41.899259 
L 183.754488 42.386651 
L 187.310202 42.90983 
L 190.865916 43.468796 
L 194.42163 44.063549 
L 197.977344 44.694089 
L 201.533058 45.360417 
L 205.088772 46.062531 
L 208.644486 46.800433 
L 212.2002 47.574122 
L 215.755913 48.383598 
L 219.311627 49.228861 
L 222.867341 50.109911 
L 226.423055 51.026748 
L 229.978769 51.979373 
L 233.534483 52.967784 
L 237.090197 53.991983 
L 240.645911 55.051969 
L 244.201625 56.147742 
L 247.757339 57.279302 
L 251.313053 58.446649 
L 254.868767 59.649783 
L 258.424481 60.888705 
L 261.980195 62.163413 
L 265.535909 63.473909 
L 269.091622 64.820192 
L 272.647336 66.202262 
L 276.20305 67.620119 
L 279.758764 69.073763 
L 283.314478 70.563194 
L 286.870192 72.088413 
L 290.425906 73.649418 
L 293.98162 75.246211 
L 297.537334 76.878791 
L 301.093048 78.547158 
L 304.648762 80.251312 
L 308.204476 81.991253 
L 311.76019 83.766981 
L 315.315904 85.578496 
L 318.871618 87.425799 
L 322.427332 89.308889 
L 325.983045 91.227765 
L 329.538759 93.182429 
L 333.094473 95.17288 
L 336.650187 97.199119 
L 340.205901 99.261144 
L 343.761615 101.358956 
L 347.317329 103.492556 
L 350.873043 105.661942 
L 354.428757 107.867116 
L 357.984471 110.108077 
L 361.540185 112.384825 
L 365.095899 114.69736 
L 368.651613 117.045683 
L 372.207327 119.429792 
L 375.763041 121.849688 
L 379.318754 124.305372 
L 382.874468 126.796843 
L 386.430182 129.324101 
L 389.985896 131.887146 
L 393.54161 134.485978 
L 397.097324 137.120597 
L 400.653038 139.791004 
L 404.208752 142.497197 
L 407.764466 145.239178 
L 411.32018 148.016945 
L 414.875894 150.8305 
L 418.431608 153.679842 
L 421.987322 156.564972 
L 425.543036 159.485888 
L 429.09875 162.442591 
L 432.654463 165.435082 
" clip-path="url(#pdc5ffabdeb)" style="fill: none; stroke: #7dff7a; stroke-width: 1.5; stroke-linecap: square"/>
   </g>
   <g id="line2d_30">
    <path d="M 80.638784 47.728613 
L 84.194498 47.168545 
L 87.750212 46.644264 
L 91.305926 46.155771 
L 94.86164 45.703064 
L 98.417354 45.286145 
L 101.973068 44.905012 
L 105.528782 44.559667 
L 109.084495 44.250109 
L 112.640209 43.976338 
L 116.195923 43.738354 
L 119.751637 43.536158 
L 123.307351 43.369748 
L 126.863065 43.239126 
L 130.418779 43.144291 
L 133.974493 43.085242 
L 137.530207 43.061981 
L 141.085921 43.074507 
L 144.641635 43.122821 
L 148.197349 43.206921 
L 151.753063 43.326808 
L 155.308777 43.482483 
L 158.864491 43.673945 
L 162.420204 43.901193 
L 165.975918 44.164229 
L 169.531632 44.463052 
L 173.087346 44.797663 
L 176.64306 45.16806 
L 180.198774 45.574244 
L 183.754488 46.016216 
L 187.310202 46.493975 
L 190.865916 47.00752 
L 194.42163 47.556853 
L 197.977344 48.141973 
L 201.533058 48.762881 
L 205.088772 49.419575 
L 208.644486 50.112056 
L 212.2002 50.840325 
L 215.755913 51.604381 
L 219.311627 52.404223 
L 222.867341 53.239853 
L 226.423055 54.11127 
L 229.978769 55.018474 
L 233.534483 55.961466 
L 237.090197 56.940244 
L 240.645911 57.95481 
L 244.201625 59.005162 
L 247.757339 60.091302 
L 251.313053 61.213229 
L 254.868767 62.370943 
L 258.424481 63.564444 
L 261.980195 64.793733 
L 265.535909 66.058808 
L 269.091622 67.35967 
L 272.647336 68.69632 
L 276.20305 70.068757 
L 279.758764 71.476981 
L 283.314478 72.920992 
L 286.870192 74.40079 
L 290.425906 75.916375 
L 293.98162 77.467748 
L 297.537334 79.054907 
L 301.093048 80.677854 
L 304.648762 82.336588 
L 308.204476 84.031109 
L 311.76019 85.761417 
L 315.315904 87.527512 
L 318.871618 89.329394 
L 322.427332 91.167063 
L 325.983045 93.04052 
L 329.538759 94.949763 
L 333.094473 96.894794 
L 336.650187 98.875612 
L 340.205901 100.892217 
L 343.761615 102.944609 
L 347.317329 105.032789 
L 350.873043 107.156755 
L 354.428757 109.316508 
L 357.984471 111.512049 
L 361.540185 113.743377 
L 365.095899 116.010492 
L 368.651613 118.313394 
L 372.207327 120.652083 
L 375.763041 123.026559 
L 379.318754 125.436822 
L 382.874468 127.882873 
L 386.430182 130.364711 
L 389.985896 132.882335 
L 393.54161 135.435747 
L 397.097324 138.024946 
L 400.653038 140.649932 
L 404.208752 143.310706 
L 407.764466 146.007266 
L 411.32018 148.739613 
L 414.875894 151.507748 
L 418.431608 154.31167 
L 421.987322 157.151379 
L 425.543036 160.026875 
L 429.09875 162.938158 
L 432.654463 165.885228 
" clip-path="url(#pdc5ffabdeb)" style="fill: none; stroke: #ff9400; stroke-width: 1.5; stroke-linecap: square"/>
   </g>
   <g id="line2d_31">
    <path d="M 80.638784 48.19718 
L 84.194498 47.639801 
L 87.750212 47.11821 
L 91.305926 46.632405 
L 94.86164 46.182387 
L 98.417354 45.768157 
L 101.973068 45.389713 
L 105.528782 45.047057 
L 109.084495 44.740188 
L 112.640209 44.469106 
L 116.195923 44.233811 
L 119.751637 44.034303 
L 123.307351 43.870583 
L 126.863065 43.742649 
L 130.418779 43.650503 
L 133.974493 43.594144 
L 137.530207 43.573572 
L 141.085921 43.588787 
L 144.641635 43.639789 
L 148.197349 43.726578 
L 151.753063 43.849154 
L 155.308777 44.007518 
L 158.864491 44.201669 
L 162.420204 44.431606 
L 165.975918 44.697331 
L 169.531632 44.998843 
L 173.087346 45.336142 
L 176.64306 45.709229 
L 180.198774 46.118102 
L 183.754488 46.562762 
L 187.310202 47.04321 
L 190.865916 47.559445 
L 194.42163 48.111467 
L 197.977344 48.699276 
L 201.533058 49.322872 
L 205.088772 49.982255 
L 208.644486 50.677425 
L 212.2002 51.408383 
L 215.755913 52.175127 
L 219.311627 52.977659 
L 222.867341 53.815978 
L 226.423055 54.690084 
L 229.978769 55.599977 
L 233.534483 56.545657 
L 237.090197 57.527125 
L 240.645911 58.544379 
L 244.201625 59.597421 
L 247.757339 60.68625 
L 251.313053 61.810865 
L 254.868767 62.971268 
L 258.424481 64.167458 
L 261.980195 65.399436 
L 265.535909 66.6672 
L 269.091622 67.970751 
L 272.647336 69.31009 
L 276.20305 70.685216 
L 279.758764 72.096129 
L 283.314478 73.542829 
L 286.870192 75.025316 
L 290.425906 76.54359 
L 293.98162 78.097651 
L 297.537334 79.6875 
L 301.093048 81.313135 
L 304.648762 82.974558 
L 308.204476 84.671768 
L 311.76019 86.404765 
L 315.315904 88.173549 
L 318.871618 89.97812 
L 322.427332 91.818478 
L 325.983045 93.694624 
L 329.538759 95.606556 
L 333.094473 97.554276 
L 336.650187 99.537783 
L 340.205901 101.557077 
L 343.761615 103.612158 
L 347.317329 105.703026 
L 350.873043 107.829681 
L 354.428757 109.992124 
L 357.984471 112.190353 
L 361.540185 114.42437 
L 365.095899 116.694174 
L 368.651613 118.999765 
L 372.207327 121.341143 
L 375.763041 123.718308 
L 379.318754 126.13126 
L 382.874468 128.58 
L 386.430182 131.064526 
L 389.985896 133.58484 
L 393.54161 136.140941 
L 397.097324 138.732829 
L 400.653038 141.360504 
L 404.208752 144.023966 
L 407.764466 146.723215 
L 411.32018 149.458252 
L 414.875894 152.229075 
L 418.431608 155.035686 
L 421.987322 157.878084 
L 425.543036 160.756269 
L 429.09875 163.670241 
L 432.654463 166.62 
" clip-path="url(#pdc5ffabdeb)" style="fill: none; stroke: #800000; stroke-width: 1.5; stroke-linecap: square"/>
   </g>
   <g id="patch_3">
    <path d="M 63.038 174.04 
L 63.038 10.8 
" style="fill: none; stroke: #000000; stroke-width: 0.8; stroke-linejoin: miter; stroke-linecap: square"/>
   </g>
   <g id="patch_4">
    <path d="M 450.255247 174.04 
L 450.255247 10.8 
" style="fill: none; stroke: #000000; stroke-width: 0.8; stroke-linejoin: miter; stroke-linecap: square"/>
   </g>
   <g id="patch_5">
    <path d="M 63.038 174.04 
L 450.255247 174.04 
" style="fill: none; stroke: #000000; stroke-width: 0.8; stroke-linejoin: miter; stroke-linecap: square"/>
   </g>
   <g id="patch_6">
    <path d="M 63.038 10.8 
L 450.255247 10.8 
" style="fill: none; stroke: #000000; stroke-width: 0.8; stroke-linejoin: miter; stroke-linecap: square"/>
   </g>
   <g id="legend_1">
    <g id="patch_7">
     <path d="M 459.255247 162.878 
L 564.455247 162.878 
Q 566.455247 162.878 566.455247 160.878 
L 566.455247 88.385812 
Q 566.455247 86.385812 564.455247 86.385812 
L 459.255247 86.385812 
Q 457.255247 86.385812 457.255247 88.385812 
L 457.255247 160.878 
Q 457.255247 162.878 459.255247 162.878 
z
" style="fill: #4d4d4d; opacity: 0.5; stroke: #4d4d4d; stroke-linejoin: miter"/>
    </g>
    <g id="patch_8">
     <path d="M 457.255247 160.878 
L 562.455247 160.878 
Q 564.455247 160.878 564.455247 158.878 
L 564.455247 86.385812 
Q 564.455247 84.385812 562.455247 84.385812 
L 457.255247 84.385812 
Q 455.255247 84.385812 455.255247 86.385812 
L 455.255247 158.878 
Q 455.255247 160.878 457.255247 160.878 
z
" style="fill: #ffffff; stroke: #cccccc; stroke-linejoin: miter"/>
    </g>
    <g id="line2d_32">
     <path d="M 459.255247 92.48425 
L 469.255247 92.48425 
L 479.255247 92.48425 
" style="fill: none; stroke: #000080; stroke-width: 1.5; stroke-linecap: square"/>
    </g>
    <g id="text_16">
     <!-- $\delta_e = 0$, $J = 1.60$ -->
     <g transform="translate(487.255247 95.98425) scale(0.1 -0.1)">
      <defs>
       <path id="DejaVuSans-Oblique-3b4" d="M 3472 4053 
Q 3197 4272 2450 4272 
Q 1659 4272 1588 3906 
Q 1531 3619 2328 3469 
Q 2953 3353 3253 3003 
Q 3616 2581 3447 1716 
Q 3284 888 2763 400 
Q 2238 -91 1488 -91 
Q 741 -91 406 400 
Q 72 888 241 1747 
Q 363 2384 891 2900 
Q 1097 3100 1353 3213 
Q 913 3459 1000 3900 
Q 1166 4750 2544 4750 
Q 3234 4750 3566 4531 
L 3472 4053 
z
M 1753 3056 
Q 1525 2966 1306 2738 
Q 969 2384 847 1747 
Q 722 1113 919 756 
Q 1119 397 1584 397 
Q 2044 397 2381 759 
Q 2722 1122 2838 1716 
Q 2956 2338 2731 2638 
Q 2491 2959 2103 2994 
Q 1906 3013 1753 3056 
z
" transform="scale(0.015625)"/>
       <path id="DejaVuSans-Oblique-65" d="M 3078 2063 
Q 3088 2113 3092 2166 
Q 3097 2219 3097 2272 
Q 3097 2653 2873 2875 
Q 2650 3097 2266 3097 
Q 1838 3097 1509 2826 
Q 1181 2556 1013 2059 
L 3078 2063 
z
M 3578 1613 
L 903 1613 
Q 884 1494 878 1425 
Q 872 1356 872 1306 
Q 872 872 1139 634 
Q 1406 397 1894 397 
Q 2269 397 2603 481 
Q 2938 566 3225 728 
L 3116 159 
Q 2806 34 2476 -28 
Q 2147 -91 1806 -91 
Q 1078 -91 686 257 
Q 294 606 294 1247 
Q 294 1794 489 2264 
Q 684 2734 1063 3103 
Q 1306 3334 1642 3459 
Q 1978 3584 2356 3584 
Q 2950 3584 3301 3228 
Q 3653 2872 3653 2272 
Q 3653 2128 3634 1964 
Q 3616 1800 3578 1613 
z
" transform="scale(0.015625)"/>
       <path id="DejaVuSans-3d" d="M 678 2906 
L 4684 2906 
L 4684 2381 
L 678 2381 
L 678 2906 
z
M 678 1631 
L 4684 1631 
L 4684 1100 
L 678 1100 
L 678 1631 
z
" transform="scale(0.015625)"/>
       <path id="DejaVuSans-2c" d="M 750 794 
L 1409 794 
L 1409 256 
L 897 -744 
L 494 -744 
L 750 256 
L 750 794 
z
" transform="scale(0.015625)"/>
       <path id="DejaVuSans-Oblique-4a" d="M 1069 4666 
L 1703 4666 
L 856 325 
Q 691 -522 298 -901 
Q -94 -1281 -800 -1281 
L -1050 -1281 
L -947 -750 
L -750 -750 
Q -328 -750 -109 -509 
Q 109 -269 225 325 
L 1069 4666 
z
" transform="scale(0.015625)"/>
      </defs>
      <use xlink:href="#DejaVuSans-Oblique-3b4" transform="translate(0 0.78125)"/>
      <use xlink:href="#DejaVuSans-Oblique-65" transform="translate(61.181641 -15.625) scale(0.7)"/>
      <use xlink:href="#DejaVuSans-3d" transform="translate(126.464844 0.78125)"/>
      <use xlink:href="#DejaVuSans-30" transform="translate(229.736328 0.78125)"/>
      <use xlink:href="#DejaVuSans-2c" transform="translate(293.359375 0.78125)"/>
      <use xlink:href="#DejaVuSans-20" transform="translate(325.146484 0.78125)"/>
      <use xlink:href="#DejaVuSans-Oblique-4a" transform="translate(356.933594 0.78125)"/>
      <use xlink:href="#DejaVuSans-3d" transform="translate(405.908203 0.78125)"/>
      <use xlink:href="#DejaVuSans-31" transform="translate(509.179688 0.78125)"/>
      <use xlink:href="#DejaVuSans-2e" transform="translate(572.802734 0.78125)"/>
      <use xlink:href="#DejaVuSans-36" transform="translate(604.589844 0.78125)"/>
      <use xlink:href="#DejaVuSans-30" transform="translate(668.212891 0.78125)"/>
     </g>
    </g>
    <g id="line2d_33">
     <path d="M 459.255247 107.182688 
L 469.255247 107.182688 
L 479.255247 107.182688 
" style="fill: none; stroke: #0080ff; stroke-width: 1.5; stroke-linecap: square"/>
    </g>
    <g id="text_17">
     <!-- $\delta_e = 0$, $J = 1.80$ -->
     <g transform="translate(487.255247 110.682688) scale(0.1 -0.1)">
      <defs>
       <path id="DejaVuSans-38" d="M 2034 2216 
Q 1584 2216 1326 1975 
Q 1069 1734 1069 1313 
Q 1069 891 1326 650 
Q 1584 409 2034 409 
Q 2484 409 2743 651 
Q 3003 894 3003 1313 
Q 3003 1734 2745 1975 
Q 2488 2216 2034 2216 
z
M 1403 2484 
Q 997 2584 770 2862 
Q 544 3141 544 3541 
Q 544 4100 942 4425 
Q 1341 4750 2034 4750 
Q 2731 4750 3128 4425 
Q 3525 4100 3525 3541 
Q 3525 3141 3298 2862 
Q 3072 2584 2669 2484 
Q 3125 2378 3379 2068 
Q 3634 1759 3634 1313 
Q 3634 634 3220 271 
Q 2806 -91 2034 -91 
Q 1263 -91 848 271 
Q 434 634 434 1313 
Q 434 1759 690 2068 
Q 947 2378 1403 2484 
z
M 1172 3481 
Q 1172 3119 1398 2916 
Q 1625 2713 2034 2713 
Q 2441 2713 2670 2916 
Q 2900 3119 2900 3481 
Q 2900 3844 2670 4047 
Q 2441 4250 2034 4250 
Q 1625 4250 1398 4047 
Q 1172 3844 1172 3481 
z
" transform="scale(0.015625)"/>
      </defs>
      <use xlink:href="#DejaVuSans-Oblique-3b4" transform="translate(0 0.78125)"/>
      <use xlink:href="#DejaVuSans-Oblique-65" transform="translate(61.181641 -15.625) scale(0.7)"/>
      <use xlink:href="#DejaVuSans-3d" transform="translate(126.464844 0.78125)"/>
      <use xlink:href="#DejaVuSans-30" transform="translate(229.736328 0.78125)"/>
      <use xlink:href="#DejaVuSans-2c" transform="translate(293.359375 0.78125)"/>
      <use xlink:href="#DejaVuSans-20" transform="translate(325.146484 0.78125)"/>
      <use xlink:href="#DejaVuSans-Oblique-4a" transform="translate(356.933594 0.78125)"/>
      <use xlink:href="#DejaVuSans-3d" transform="translate(405.908203 0.78125)"/>
      <use xlink:href="#DejaVuSans-31" transform="translate(509.179688 0.78125)"/>
      <use xlink:href="#DejaVuSans-2e" transform="translate(572.802734 0.78125)"/>
      <use xlink:href="#DejaVuSans-38" transform="translate(601.964844 0.78125)"/>
      <use xlink:href="#DejaVuSans-30" transform="translate(665.587891 0.78125)"/>
     </g>
    </g>
    <g id="line2d_34">
     <path d="M 459.255247 121.881125 
L 469.255247 121.881125 
L 479.255247 121.881125 
" style="fill: none; stroke: #7dff7a; stroke-width: 1.5; stroke-linecap: square"/>
    </g>
    <g id="text_18">
     <!-- $\delta_e = 0$, $J = 2.00$ -->
     <g transform="translate(487.255247 125.381125) scale(0.1 -0.1)">
      <use xlink:href="#DejaVuSans-Oblique-3b4" transform="translate(0 0.78125)"/>
      <use xlink:href="#DejaVuSans-Oblique-65" transform="translate(61.181641 -15.625) scale(0.7)"/>
      <use xlink:href="#DejaVuSans-3d" transform="translate(126.464844 0.78125)"/>
      <use xlink:href="#DejaVuSans-30" transform="translate(229.736328 0.78125)"/>
      <use xlink:href="#DejaVuSans-2c" transform="translate(293.359375 0.78125)"/>
      <use xlink:href="#DejaVuSans-20" transform="translate(325.146484 0.78125)"/>
      <use xlink:href="#DejaVuSans-Oblique-4a" transform="translate(356.933594 0.78125)"/>
      <use xlink:href="#DejaVuSans-3d" transform="translate(405.908203 0.78125)"/>
      <use xlink:href="#DejaVuSans-32" transform="translate(509.179688 0.78125)"/>
      <use xlink:href="#DejaVuSans-2e" transform="translate(572.802734 0.78125)"/>
      <use xlink:href="#DejaVuSans-30" transform="translate(604.589844 0.78125)"/>
      <use xlink:href="#DejaVuSans-30" transform="translate(668.212891 0.78125)"/>
     </g>
    </g>
    <g id="line2d_35">
     <path d="M 459.255247 136.579563 
L 469.255247 136.579563 
L 479.255247 136.579563 
" style="fill: none; stroke: #ff9400; stroke-width: 1.5; stroke-linecap: square"/>
    </g>
    <g id="text_19">
     <!-- $\delta_e = 0$, $J = 2.20$ -->
     <g transform="translate(487.255247 140.079563) scale(0.1 -0.1)">
      <use xlink:href="#DejaVuSans-Oblique-3b4" transform="translate(0 0.78125)"/>
      <use xlink:href="#DejaVuSans-Oblique-65" transform="translate(61.181641 -15.625) scale(0.7)"/>
      <use xlink:href="#DejaVuSans-3d" transform="translate(126.464844 0.78125)"/>
      <use xlink:href="#DejaVuSans-30" transform="translate(229.736328 0.78125)"/>
      <use xlink:href="#DejaVuSans-2c" transform="translate(293.359375 0.78125)"/>
      <use xlink:href="#DejaVuSans-20" transform="translate(325.146484 0.78125)"/>
      <use xlink:href="#DejaVuSans-Oblique-4a" transform="translate(356.933594 0.78125)"/>
      <use xlink:href="#DejaVuSans-3d" transform="translate(405.908203 0.78125)"/>
      <use xlink:href="#DejaVuSans-32" transform="translate(509.179688 0.78125)"/>
      <use xlink:href="#DejaVuSans-2e" transform="translate(572.802734 0.78125)"/>
      <use xlink:href="#DejaVuSans-32" transform="translate(599.089844 0.78125)"/>
      <use xlink:href="#DejaVuSans-30" transform="translate(662.712891 0.78125)"/>
     </g>
    </g>
    <g id="line2d_36">
     <path d="M 459.255247 151.278 
L 469.255247 151.278 
L 479.255247 151.278 
" style="fill: none; stroke: #800000; stroke-width: 1.5; stroke-linecap: square"/>
    </g>
    <g id="text_20">
     <!-- $\delta_e = 0$, $J = 2.40$ -->
     <g transform="translate(487.255247 154.778) scale(0.1 -0.1)">
      <use xlink:href="#DejaVuSans-Oblique-3b4" transform="translate(0 0.78125)"/>
      <use xlink:href="#DejaVuSans-Oblique-65" transform="translate(61.181641 -15.625) scale(0.7)"/>
      <use xlink:href="#DejaVuSans-3d" transform="translate(126.464844 0.78125)"/>
      <use xlink:href="#DejaVuSans-30" transform="translate(229.736328 0.78125)"/>
      <use xlink:href="#DejaVuSans-2c" transform="translate(293.359375 0.78125)"/>
      <use xlink:href="#DejaVuSans-20" transform="translate(325.146484 0.78125)"/>
      <use xlink:href="#DejaVuSans-Oblique-4a" transform="translate(356.933594 0.78125)"/>
      <use xlink:href="#DejaVuSans-3d" transform="translate(405.908203 0.78125)"/>
      <use xlink:href="#DejaVuSans-32" transform="translate(509.179688 0.78125)"/>
      <use xlink:href="#DejaVuSans-2e" transform="translate(572.802734 0.78125)"/>
      <use xlink:href="#DejaVuSans-34" transform="translate(604.589844 0.78125)"/>
      <use xlink:href="#DejaVuSans-30" transform="translate(668.212891 0.78125)"/>
     </g>
    </g>
   </g>
  </g>
 </g>
 <defs>
  <clipPath id="pdc5ffabdeb">
   <rect x="63.038" y="10.8" width="387.217247" height="163.24"/>
  </clipPath>
 </defs>
</svg>
