<?xml version="1.0" encoding="utf-8" standalone="no"?>
<!DOCTYPE svg PUBLIC "-//W3C//DTD SVG 1.1//EN"
  "http://www.w3.org/Graphics/SVG/1.1/DTD/svg11.dtd">
<svg xmlns:xlink="http://www.w3.org/1999/xlink" width="576pt" height="216pt" viewBox="0 0 576 216" xmlns="http://www.w3.org/2000/svg" version="1.1">
 <metadata>
  <rdf:RDF xmlns:dc="http://purl.org/dc/elements/1.1/" xmlns:cc="http://creativecommons.org/ns#" xmlns:rdf="http://www.w3.org/1999/02/22-rdf-syntax-ns#">
   <cc:Work>
    <dc:type rdf:resource="http://purl.org/dc/dcmitype/StillImage"/>
    <dc:date>2025-03-28T09:42:38.376114</dc:date>
    <dc:format>image/svg+xml</dc:format>
    <dc:creator>
     <cc:Agent>
      <dc:title>Matplotlib v3.9.2, https://matplotlib.org/</dc:title>
     </cc:Agent>
    </dc:creator>
   </cc:Work>
  </rdf:RDF>
 </metadata>
 <defs>
  <style type="text/css">*{stroke-linejoin: round; stroke-linecap: butt}</style>
 </defs>
 <g id="figure_1">
  <g id="patch_1">
   <path d="M 0 216 
L 576 216 
L 576 0 
L 0 0 
z
" style="fill: #ffffff"/>
  </g>
  <g id="axes_1">
   <g id="patch_2">
    <path d="M 63.038 174.04 
L 450.255247 174.04 
L 450.255247 10.8 
L 63.038 10.8 
z
" style="fill: #ffffff"/>
   </g>
   <g id="matplotlib.axis_1">
    <g id="xtick_1">
     <g id="line2d_1">
      <path d="M 80.638784 174.04 
L 80.638784 10.8 
" clip-path="url(#pd99f4a8bab)" style="fill: none; stroke: #b0b0b0; stroke-width: 0.8; stroke-linecap: square"/>
     </g>
     <g id="line2d_2">
      <defs>
       <path id="m64e2e72d19" d="M 0 0 
L 0 3.5 
" style="stroke: #000000; stroke-width: 0.8"/>
      </defs>
      <g>
       <use xlink:href="#m64e2e72d19" x="80.638784" y="174.04" style="stroke: #000000; stroke-width: 0.8"/>
      </g>
     </g>
     <g id="text_1">
      <!-- −4 -->
      <g transform="translate(73.26769 188.638438) scale(0.1 -0.1)">
       <defs>
        <path id="DejaVuSans-2212" d="M 678 2272 
L 4684 2272 
L 4684 1741 
L 678 1741 
L 678 2272 
z
" transform="scale(0.015625)"/>
        <path id="DejaVuSans-34" d="M 2419 4116 
L 825 1625 
L 2419 1625 
L 2419 4116 
z
M 2253 4666 
L 3047 4666 
L 3047 1625 
L 3713 1625 
L 3713 1100 
L 3047 1100 
L 3047 0 
L 2419 0 
L 2419 1100 
L 313 1100 
L 313 1709 
L 2253 4666 
z
" transform="scale(0.015625)"/>
       </defs>
       <use xlink:href="#DejaVuSans-2212"/>
       <use xlink:href="#DejaVuSans-34" x="83.789062"/>
      </g>
     </g>
    </g>
    <g id="xtick_2">
     <g id="line2d_3">
      <path d="M 144.641635 174.04 
L 144.641635 10.8 
" clip-path="url(#pd99f4a8bab)" style="fill: none; stroke: #b0b0b0; stroke-width: 0.8; stroke-linecap: square"/>
     </g>
     <g id="line2d_4">
      <g>
       <use xlink:href="#m64e2e72d19" x="144.641635" y="174.04" style="stroke: #000000; stroke-width: 0.8"/>
      </g>
     </g>
     <g id="text_2">
      <!-- −2 -->
      <g transform="translate(137.270541 188.638438) scale(0.1 -0.1)">
       <defs>
        <path id="DejaVuSans-32" d="M 1228 531 
L 3431 531 
L 3431 0 
L 469 0 
L 469 531 
Q 828 903 1448 1529 
Q 2069 2156 2228 2338 
Q 2531 2678 2651 2914 
Q 2772 3150 2772 3378 
Q 2772 3750 2511 3984 
Q 2250 4219 1831 4219 
Q 1534 4219 1204 4116 
Q 875 4013 500 3803 
L 500 4441 
Q 881 4594 1212 4672 
Q 1544 4750 1819 4750 
Q 2544 4750 2975 4387 
Q 3406 4025 3406 3419 
Q 3406 3131 3298 2873 
Q 3191 2616 2906 2266 
Q 2828 2175 2409 1742 
Q 1991 1309 1228 531 
z
" transform="scale(0.015625)"/>
       </defs>
       <use xlink:href="#DejaVuSans-2212"/>
       <use xlink:href="#DejaVuSans-32" x="83.789062"/>
      </g>
     </g>
    </g>
    <g id="xtick_3">
     <g id="line2d_5">
      <path d="M 208.644486 174.04 
L 208.644486 10.8 
" clip-path="url(#pd99f4a8bab)" style="fill: none; stroke: #b0b0b0; stroke-width: 0.8; stroke-linecap: square"/>
     </g>
     <g id="line2d_6">
      <g>
       <use xlink:href="#m64e2e72d19" x="208.644486" y="174.04" style="stroke: #000000; stroke-width: 0.8"/>
      </g>
     </g>
     <g id="text_3">
      <!-- 0 -->
      <g transform="translate(205.463236 188.638438) scale(0.1 -0.1)">
       <defs>
        <path id="DejaVuSans-30" d="M 2034 4250 
Q 1547 4250 1301 3770 
Q 1056 3291 1056 2328 
Q 1056 1369 1301 889 
Q 1547 409 2034 409 
Q 2525 409 2770 889 
Q 3016 1369 3016 2328 
Q 3016 3291 2770 3770 
Q 2525 4250 2034 4250 
z
M 2034 4750 
Q 2819 4750 3233 4129 
Q 3647 3509 3647 2328 
Q 3647 1150 3233 529 
Q 2819 -91 2034 -91 
Q 1250 -91 836 529 
Q 422 1150 422 2328 
Q 422 3509 836 4129 
Q 1250 4750 2034 4750 
z
" transform="scale(0.015625)"/>
       </defs>
       <use xlink:href="#DejaVuSans-30"/>
      </g>
     </g>
    </g>
    <g id="xtick_4">
     <g id="line2d_7">
      <path d="M 272.647336 174.04 
L 272.647336 10.8 
" clip-path="url(#pd99f4a8bab)" style="fill: none; stroke: #b0b0b0; stroke-width: 0.8; stroke-linecap: square"/>
     </g>
     <g id="line2d_8">
      <g>
       <use xlink:href="#m64e2e72d19" x="272.647336" y="174.04" style="stroke: #000000; stroke-width: 0.8"/>
      </g>
     </g>
     <g id="text_4">
      <!-- 2 -->
      <g transform="translate(269.466086 188.638438) scale(0.1 -0.1)">
       <use xlink:href="#DejaVuSans-32"/>
      </g>
     </g>
    </g>
    <g id="xtick_5">
     <g id="line2d_9">
      <path d="M 336.650187 174.04 
L 336.650187 10.8 
" clip-path="url(#pd99f4a8bab)" style="fill: none; stroke: #b0b0b0; stroke-width: 0.8; stroke-linecap: square"/>
     </g>
     <g id="line2d_10">
      <g>
       <use xlink:href="#m64e2e72d19" x="336.650187" y="174.04" style="stroke: #000000; stroke-width: 0.8"/>
      </g>
     </g>
     <g id="text_5">
      <!-- 4 -->
      <g transform="translate(333.468937 188.638438) scale(0.1 -0.1)">
       <use xlink:href="#DejaVuSans-34"/>
      </g>
     </g>
    </g>
    <g id="xtick_6">
     <g id="line2d_11">
      <path d="M 400.653038 174.04 
L 400.653038 10.8 
" clip-path="url(#pd99f4a8bab)" style="fill: none; stroke: #b0b0b0; stroke-width: 0.8; stroke-linecap: square"/>
     </g>
     <g id="line2d_12">
      <g>
       <use xlink:href="#m64e2e72d19" x="400.653038" y="174.04" style="stroke: #000000; stroke-width: 0.8"/>
      </g>
     </g>
     <g id="text_6">
      <!-- 6 -->
      <g transform="translate(397.471788 188.638438) scale(0.1 -0.1)">
       <defs>
        <path id="DejaVuSans-36" d="M 2113 2584 
Q 1688 2584 1439 2293 
Q 1191 2003 1191 1497 
Q 1191 994 1439 701 
Q 1688 409 2113 409 
Q 2538 409 2786 701 
Q 3034 994 3034 1497 
Q 3034 2003 2786 2293 
Q 2538 2584 2113 2584 
z
M 3366 4563 
L 3366 3988 
Q 3128 4100 2886 4159 
Q 2644 4219 2406 4219 
Q 1781 4219 1451 3797 
Q 1122 3375 1075 2522 
Q 1259 2794 1537 2939 
Q 1816 3084 2150 3084 
Q 2853 3084 3261 2657 
Q 3669 2231 3669 1497 
Q 3669 778 3244 343 
Q 2819 -91 2113 -91 
Q 1303 -91 875 529 
Q 447 1150 447 2328 
Q 447 3434 972 4092 
Q 1497 4750 2381 4750 
Q 2619 4750 2861 4703 
Q 3103 4656 3366 4563 
z
" transform="scale(0.015625)"/>
       </defs>
       <use xlink:href="#DejaVuSans-36"/>
      </g>
     </g>
    </g>
    <g id="text_7">
     <!-- $\alpha$ -->
     <g transform="translate(253.346624 202.316563) scale(0.1 -0.1)">
      <defs>
       <path id="DejaVuSans-Oblique-3b1" d="M 2619 1628 
L 2622 2350 
Q 2625 3088 2069 3091 
Q 1653 3094 1394 2747 
Q 1069 2319 959 1747 
Q 825 1059 994 731 
Q 1169 397 1547 397 
Q 1966 397 2319 1063 
L 2619 1628 
z
M 2166 3578 
Q 3141 3594 3128 2584 
Q 3128 2584 3616 3500 
L 4128 3500 
L 3119 1603 
L 3109 919 
Q 3109 766 3194 638 
Q 3291 488 3391 488 
L 3669 488 
L 3575 0 
L 3228 0 
Q 2934 0 2722 263 
Q 2622 394 2619 669 
Q 2416 334 2066 50 
Q 1900 -81 1453 -78 
Q 722 -72 456 397 
Q 184 884 353 1747 
Q 534 2675 1009 3097 
Q 1544 3569 2166 3578 
z
" transform="scale(0.015625)"/>
      </defs>
      <use xlink:href="#DejaVuSans-Oblique-3b1" transform="translate(0 0.84375)"/>
     </g>
    </g>
   </g>
   <g id="matplotlib.axis_2">
    <g id="ytick_1">
     <g id="line2d_13">
      <path d="M 63.038 160.280691 
L 450.255247 160.280691 
" clip-path="url(#pd99f4a8bab)" style="fill: none; stroke: #b0b0b0; stroke-width: 0.8; stroke-linecap: square"/>
     </g>
     <g id="line2d_14">
      <defs>
       <path id="m3a841111fa" d="M 0 0 
L -3.5 0 
" style="stroke: #000000; stroke-width: 0.8"/>
      </defs>
      <g>
       <use xlink:href="#m3a841111fa" x="63.038" y="160.280691" style="stroke: #000000; stroke-width: 0.8"/>
      </g>
     </g>
     <g id="text_8">
      <!-- 0.090 -->
      <g transform="translate(27.409875 164.07991) scale(0.1 -0.1)">
       <defs>
        <path id="DejaVuSans-2e" d="M 684 794 
L 1344 794 
L 1344 0 
L 684 0 
L 684 794 
z
" transform="scale(0.015625)"/>
        <path id="DejaVuSans-39" d="M 703 97 
L 703 672 
Q 941 559 1184 500 
Q 1428 441 1663 441 
Q 2288 441 2617 861 
Q 2947 1281 2994 2138 
Q 2813 1869 2534 1725 
Q 2256 1581 1919 1581 
Q 1219 1581 811 2004 
Q 403 2428 403 3163 
Q 403 3881 828 4315 
Q 1253 4750 1959 4750 
Q 2769 4750 3195 4129 
Q 3622 3509 3622 2328 
Q 3622 1225 3098 567 
Q 2575 -91 1691 -91 
Q 1453 -91 1209 -44 
Q 966 3 703 97 
z
M 1959 2075 
Q 2384 2075 2632 2365 
Q 2881 2656 2881 3163 
Q 2881 3666 2632 3958 
Q 2384 4250 1959 4250 
Q 1534 4250 1286 3958 
Q 1038 3666 1038 3163 
Q 1038 2656 1286 2365 
Q 1534 2075 1959 2075 
z
" transform="scale(0.015625)"/>
       </defs>
       <use xlink:href="#DejaVuSans-30"/>
       <use xlink:href="#DejaVuSans-2e" x="63.623047"/>
       <use xlink:href="#DejaVuSans-30" x="95.410156"/>
       <use xlink:href="#DejaVuSans-39" x="159.033203"/>
       <use xlink:href="#DejaVuSans-30" x="222.65625"/>
      </g>
     </g>
    </g>
    <g id="ytick_2">
     <g id="line2d_15">
      <path d="M 63.038 137.256168 
L 450.255247 137.256168 
" clip-path="url(#pd99f4a8bab)" style="fill: none; stroke: #b0b0b0; stroke-width: 0.8; stroke-linecap: square"/>
     </g>
     <g id="line2d_16">
      <g>
       <use xlink:href="#m3a841111fa" x="63.038" y="137.256168" style="stroke: #000000; stroke-width: 0.8"/>
      </g>
     </g>
     <g id="text_9">
      <!-- 0.095 -->
      <g transform="translate(27.409875 141.055386) scale(0.1 -0.1)">
       <defs>
        <path id="DejaVuSans-35" d="M 691 4666 
L 3169 4666 
L 3169 4134 
L 1269 4134 
L 1269 2991 
Q 1406 3038 1543 3061 
Q 1681 3084 1819 3084 
Q 2600 3084 3056 2656 
Q 3513 2228 3513 1497 
Q 3513 744 3044 326 
Q 2575 -91 1722 -91 
Q 1428 -91 1123 -41 
Q 819 9 494 109 
L 494 744 
Q 775 591 1075 516 
Q 1375 441 1709 441 
Q 2250 441 2565 725 
Q 2881 1009 2881 1497 
Q 2881 1984 2565 2268 
Q 2250 2553 1709 2553 
Q 1456 2553 1204 2497 
Q 953 2441 691 2322 
L 691 4666 
z
" transform="scale(0.015625)"/>
       </defs>
       <use xlink:href="#DejaVuSans-30"/>
       <use xlink:href="#DejaVuSans-2e" x="63.623047"/>
       <use xlink:href="#DejaVuSans-30" x="95.410156"/>
       <use xlink:href="#DejaVuSans-39" x="159.033203"/>
       <use xlink:href="#DejaVuSans-35" x="222.65625"/>
      </g>
     </g>
    </g>
    <g id="ytick_3">
     <g id="line2d_17">
      <path d="M 63.038 114.231644 
L 450.255247 114.231644 
" clip-path="url(#pd99f4a8bab)" style="fill: none; stroke: #b0b0b0; stroke-width: 0.8; stroke-linecap: square"/>
     </g>
     <g id="line2d_18">
      <g>
       <use xlink:href="#m3a841111fa" x="63.038" y="114.231644" style="stroke: #000000; stroke-width: 0.8"/>
      </g>
     </g>
     <g id="text_10">
      <!-- 0.100 -->
      <g transform="translate(27.409875 118.030862) scale(0.1 -0.1)">
       <defs>
        <path id="DejaVuSans-31" d="M 794 531 
L 1825 531 
L 1825 4091 
L 703 3866 
L 703 4441 
L 1819 4666 
L 2450 4666 
L 2450 531 
L 3481 531 
L 3481 0 
L 794 0 
L 794 531 
z
" transform="scale(0.015625)"/>
       </defs>
       <use xlink:href="#DejaVuSans-30"/>
       <use xlink:href="#DejaVuSans-2e" x="63.623047"/>
       <use xlink:href="#DejaVuSans-31" x="95.410156"/>
       <use xlink:href="#DejaVuSans-30" x="159.033203"/>
       <use xlink:href="#DejaVuSans-30" x="222.65625"/>
      </g>
     </g>
    </g>
    <g id="ytick_4">
     <g id="line2d_19">
      <path d="M 63.038 91.20712 
L 450.255247 91.20712 
" clip-path="url(#pd99f4a8bab)" style="fill: none; stroke: #b0b0b0; stroke-width: 0.8; stroke-linecap: square"/>
     </g>
     <g id="line2d_20">
      <g>
       <use xlink:href="#m3a841111fa" x="63.038" y="91.20712" style="stroke: #000000; stroke-width: 0.8"/>
      </g>
     </g>
     <g id="text_11">
      <!-- 0.105 -->
      <g transform="translate(27.409875 95.006339) scale(0.1 -0.1)">
       <use xlink:href="#DejaVuSans-30"/>
       <use xlink:href="#DejaVuSans-2e" x="63.623047"/>
       <use xlink:href="#DejaVuSans-31" x="95.410156"/>
       <use xlink:href="#DejaVuSans-30" x="159.033203"/>
       <use xlink:href="#DejaVuSans-35" x="222.65625"/>
      </g>
     </g>
    </g>
    <g id="ytick_5">
     <g id="line2d_21">
      <path d="M 63.038 68.182596 
L 450.255247 68.182596 
" clip-path="url(#pd99f4a8bab)" style="fill: none; stroke: #b0b0b0; stroke-width: 0.8; stroke-linecap: square"/>
     </g>
     <g id="line2d_22">
      <g>
       <use xlink:href="#m3a841111fa" x="63.038" y="68.182596" style="stroke: #000000; stroke-width: 0.8"/>
      </g>
     </g>
     <g id="text_12">
      <!-- 0.110 -->
      <g transform="translate(27.409875 71.981815) scale(0.1 -0.1)">
       <use xlink:href="#DejaVuSans-30"/>
       <use xlink:href="#DejaVuSans-2e" x="63.623047"/>
       <use xlink:href="#DejaVuSans-31" x="95.410156"/>
       <use xlink:href="#DejaVuSans-31" x="159.033203"/>
       <use xlink:href="#DejaVuSans-30" x="222.65625"/>
      </g>
     </g>
    </g>
    <g id="ytick_6">
     <g id="line2d_23">
      <path d="M 63.038 45.158072 
L 450.255247 45.158072 
" clip-path="url(#pd99f4a8bab)" style="fill: none; stroke: #b0b0b0; stroke-width: 0.8; stroke-linecap: square"/>
     </g>
     <g id="line2d_24">
      <g>
       <use xlink:href="#m3a841111fa" x="63.038" y="45.158072" style="stroke: #000000; stroke-width: 0.8"/>
      </g>
     </g>
     <g id="text_13">
      <!-- 0.115 -->
      <g transform="translate(27.409875 48.957291) scale(0.1 -0.1)">
       <use xlink:href="#DejaVuSans-30"/>
       <use xlink:href="#DejaVuSans-2e" x="63.623047"/>
       <use xlink:href="#DejaVuSans-31" x="95.410156"/>
       <use xlink:href="#DejaVuSans-31" x="159.033203"/>
       <use xlink:href="#DejaVuSans-35" x="222.65625"/>
      </g>
     </g>
    </g>
    <g id="ytick_7">
     <g id="line2d_25">
      <path d="M 63.038 22.133548 
L 450.255247 22.133548 
" clip-path="url(#pd99f4a8bab)" style="fill: none; stroke: #b0b0b0; stroke-width: 0.8; stroke-linecap: square"/>
     </g>
     <g id="line2d_26">
      <g>
       <use xlink:href="#m3a841111fa" x="63.038" y="22.133548" style="stroke: #000000; stroke-width: 0.8"/>
      </g>
     </g>
     <g id="text_14">
      <!-- 0.120 -->
      <g transform="translate(27.409875 25.932767) scale(0.1 -0.1)">
       <use xlink:href="#DejaVuSans-30"/>
       <use xlink:href="#DejaVuSans-2e" x="63.623047"/>
       <use xlink:href="#DejaVuSans-31" x="95.410156"/>
       <use xlink:href="#DejaVuSans-32" x="159.033203"/>
       <use xlink:href="#DejaVuSans-30" x="222.65625"/>
      </g>
     </g>
    </g>
    <g id="text_15">
     <!-- d$C_L$ / d$\alpha$ -->
     <g transform="translate(21.330188 112.52) rotate(-90) scale(0.1 -0.1)">
      <defs>
       <path id="DejaVuSans-64" d="M 2906 2969 
L 2906 4863 
L 3481 4863 
L 3481 0 
L 2906 0 
L 2906 525 
Q 2725 213 2448 61 
Q 2172 -91 1784 -91 
Q 1150 -91 751 415 
Q 353 922 353 1747 
Q 353 2572 751 3078 
Q 1150 3584 1784 3584 
Q 2172 3584 2448 3432 
Q 2725 3281 2906 2969 
z
M 947 1747 
Q 947 1113 1208 752 
Q 1469 391 1925 391 
Q 2381 391 2643 752 
Q 2906 1113 2906 1747 
Q 2906 2381 2643 2742 
Q 2381 3103 1925 3103 
Q 1469 3103 1208 2742 
Q 947 2381 947 1747 
z
" transform="scale(0.015625)"/>
       <path id="DejaVuSans-Oblique-43" d="M 4447 4306 
L 4319 3641 
Q 4019 3944 3683 4091 
Q 3347 4238 2956 4238 
Q 2422 4238 2017 3981 
Q 1613 3725 1319 3200 
Q 1131 2863 1032 2486 
Q 934 2109 934 1728 
Q 934 1091 1264 756 
Q 1594 422 2222 422 
Q 2656 422 3056 561 
Q 3456 700 3834 978 
L 3688 231 
Q 3316 72 2936 -9 
Q 2556 -91 2175 -91 
Q 1278 -91 773 396 
Q 269 884 269 1753 
Q 269 2309 461 2846 
Q 653 3384 1013 3828 
Q 1394 4300 1883 4525 
Q 2372 4750 3022 4750 
Q 3422 4750 3780 4639 
Q 4138 4528 4447 4306 
z
" transform="scale(0.015625)"/>
       <path id="DejaVuSans-Oblique-4c" d="M 1075 4666 
L 1709 4666 
L 909 525 
L 3181 525 
L 3078 0 
L 172 0 
L 1075 4666 
z
" transform="scale(0.015625)"/>
       <path id="DejaVuSans-20" transform="scale(0.015625)"/>
       <path id="DejaVuSans-2f" d="M 1625 4666 
L 2156 4666 
L 531 -594 
L 0 -594 
L 1625 4666 
z
" transform="scale(0.015625)"/>
      </defs>
      <use xlink:href="#DejaVuSans-64" transform="translate(0 0.015625)"/>
      <use xlink:href="#DejaVuSans-Oblique-43" transform="translate(63.476562 0.015625)"/>
      <use xlink:href="#DejaVuSans-Oblique-4c" transform="translate(133.300781 -16.390625) scale(0.7)"/>
      <use xlink:href="#DejaVuSans-20" transform="translate(175.03418 0.015625)"/>
      <use xlink:href="#DejaVuSans-2f" transform="translate(206.821289 0.015625)"/>
      <use xlink:href="#DejaVuSans-20" transform="translate(240.512695 0.015625)"/>
      <use xlink:href="#DejaVuSans-64" transform="translate(272.299805 0.015625)"/>
      <use xlink:href="#DejaVuSans-Oblique-3b1" transform="translate(335.776367 0.015625)"/>
     </g>
    </g>
   </g>
   <g id="line2d_27">
    <path d="M 80.638784 19.4538 
L 84.194498 19.17432 
L 87.750212 18.930627 
L 91.305926 18.722721 
L 94.86164 18.550603 
L 98.417354 18.414271 
L 101.973068 18.313727 
L 105.528782 18.24897 
L 109.084495 18.22 
L 112.640209 18.226817 
L 116.195923 18.269421 
L 119.751637 18.347813 
L 123.307351 18.461991 
L 126.863065 18.611957 
L 130.418779 18.79771 
L 133.974493 19.019249 
L 137.530207 19.276576 
L 141.085921 19.569691 
L 144.641635 19.898592 
L 148.197349 20.26328 
L 151.753063 20.663756 
L 155.308777 21.100018 
L 158.864491 21.572068 
L 162.420204 22.079905 
L 165.975918 22.623529 
L 169.531632 23.20294 
L 173.087346 23.818138 
L 176.64306 24.469124 
L 180.198774 25.155896 
L 183.754488 25.878456 
L 187.310202 26.636803 
L 190.865916 27.430936 
L 194.42163 28.260857 
L 197.977344 29.126566 
L 201.533058 30.028061 
L 205.088772 30.965343 
L 208.644486 31.938413 
L 212.2002 32.947269 
L 215.755913 33.991913 
L 219.311627 35.072344 
L 222.867341 36.188562 
L 226.423055 37.340567 
L 229.978769 38.52836 
L 233.534483 39.751939 
L 237.090197 41.011305 
L 240.645911 42.306459 
L 244.201625 43.6374 
L 247.757339 45.004128 
L 251.313053 46.406643 
L 254.868767 47.844945 
L 258.424481 49.319034 
L 261.980195 50.828911 
L 265.535909 52.374574 
L 269.091622 53.956025 
L 272.647336 55.573263 
L 276.20305 57.226287 
L 279.758764 58.9151 
L 283.314478 60.639699 
L 286.870192 62.400085 
L 290.425906 64.196258 
L 293.98162 66.028219 
L 297.537334 67.895967 
L 301.093048 69.799501 
L 304.648762 71.738823 
L 308.204476 73.713932 
L 311.76019 75.724828 
L 315.315904 77.771512 
L 318.871618 79.853982 
L 322.427332 81.97224 
L 325.983045 84.126284 
L 329.538759 86.316116 
L 333.094473 88.541735 
L 336.650187 90.803141 
L 340.205901 93.100334 
L 343.761615 95.433315 
L 347.317329 97.802082 
L 350.873043 100.206637 
L 354.428757 102.646978 
L 357.984471 105.123107 
L 361.540185 107.635023 
L 365.095899 110.182726 
L 368.651613 112.766216 
L 372.207327 115.385494 
L 375.763041 118.040558 
L 379.318754 120.73141 
L 382.874468 123.458048 
L 386.430182 126.220474 
L 389.985896 129.018687 
L 393.54161 131.852687 
L 397.097324 134.722474 
L 400.653038 137.628049 
L 404.208752 140.56941 
L 407.764466 143.546559 
L 411.32018 146.559494 
L 414.875894 149.608217 
L 418.431608 152.692727 
L 421.987322 155.813024 
L 425.543036 158.969108 
L 429.09875 162.16098 
L 432.654463 165.388638 
" clip-path="url(#pd99f4a8bab)" style="fill: none; stroke: #000080; stroke-width: 1.5; stroke-linecap: square"/>
   </g>
   <g id="line2d_28">
    <path d="M 80.638784 33.356859 
L 84.194498 32.935741 
L 87.750212 32.55041 
L 91.305926 32.200866 
L 94.86164 31.887109 
L 98.417354 31.60914 
L 101.973068 31.366958 
L 105.528782 31.160562 
L 109.084495 30.989954 
L 112.640209 30.855133 
L 116.195923 30.756099 
L 119.751637 30.692853 
L 123.307351 30.665393 
L 126.863065 30.673721 
L 130.418779 30.717835 
L 133.974493 30.797737 
L 137.530207 30.913426 
L 141.085921 31.064902 
L 144.641635 31.252165 
L 148.197349 31.475215 
L 151.753063 31.734053 
L 155.308777 32.028677 
L 158.864491 32.359089 
L 162.420204 32.725288 
L 165.975918 33.127274 
L 169.531632 33.565047 
L 173.087346 34.038607 
L 176.64306 34.547954 
L 180.198774 35.093089 
L 183.754488 35.67401 
L 187.310202 36.290719 
L 190.865916 36.943215 
L 194.42163 37.631498 
L 197.977344 38.355568 
L 201.533058 39.115425 
L 205.088772 39.911069 
L 208.644486 40.742501 
L 212.2002 41.609719 
L 215.755913 42.512725 
L 219.311627 43.451518 
L 222.867341 44.426098 
L 226.423055 45.436465 
L 229.978769 46.482619 
L 233.534483 47.56456 
L 237.090197 48.682289 
L 240.645911 49.835804 
L 244.201625 51.025107 
L 247.757339 52.250197 
L 251.313053 53.511074 
L 254.868767 54.807738 
L 258.424481 56.140189 
L 261.980195 57.508427 
L 265.535909 58.912453 
L 269.091622 60.352265 
L 272.647336 61.827865 
L 276.20305 63.339252 
L 279.758764 64.886426 
L 283.314478 66.469387 
L 286.870192 68.088135 
L 290.425906 69.74267 
L 293.98162 71.432993 
L 297.537334 73.159102 
L 301.093048 74.920999 
L 304.648762 76.718683 
L 308.204476 78.552154 
L 311.76019 80.421412 
L 315.315904 82.326457 
L 318.871618 84.267289 
L 322.427332 86.243909 
L 325.983045 88.256315 
L 329.538759 90.304509 
L 333.094473 92.38849 
L 336.650187 94.508258 
L 340.205901 96.663813 
L 343.761615 98.855155 
L 347.317329 101.082285 
L 350.873043 103.345201 
L 354.428757 105.643905 
L 357.984471 107.978395 
L 361.540185 110.348673 
L 365.095899 112.754738 
L 368.651613 115.19659 
L 372.207327 117.67423 
L 375.763041 120.187656 
L 379.318754 122.736869 
L 382.874468 125.32187 
L 386.430182 127.942658 
L 389.985896 130.599233 
L 393.54161 133.291595 
L 397.097324 136.019744 
L 400.653038 138.78368 
L 404.208752 141.583403 
L 407.764466 144.418914 
L 411.32018 147.290211 
L 414.875894 150.197296 
L 418.431608 153.140168 
L 421.987322 156.118827 
L 425.543036 159.133273 
L 429.09875 162.183506 
L 432.654463 165.269527 
" clip-path="url(#pd99f4a8bab)" style="fill: none; stroke: #0080ff; stroke-width: 1.5; stroke-linecap: square"/>
   </g>
   <g id="line2d_29">
    <path d="M 80.638784 42.781768 
L 84.194498 42.267121 
L 87.750212 41.788261 
L 91.305926 41.345188 
L 94.86164 40.937903 
L 98.417354 40.566404 
L 101.973068 40.230692 
L 105.528782 39.930768 
L 109.084495 39.666631 
L 112.640209 39.438281 
L 116.195923 39.245718 
L 119.751637 39.088942 
L 123.307351 38.967953 
L 126.863065 38.882751 
L 130.418779 38.833337 
L 133.974493 38.81971 
L 137.530207 38.841869 
L 141.085921 38.899816 
L 144.641635 38.99355 
L 148.197349 39.123071 
L 151.753063 39.28838 
L 155.308777 39.489475 
L 158.864491 39.726357 
L 162.420204 39.999027 
L 165.975918 40.307484 
L 169.531632 40.651728 
L 173.087346 41.031759 
L 176.64306 41.447577 
L 180.198774 41.899182 
L 183.754488 42.386575 
L 187.310202 42.909754 
L 190.865916 43.468721 
L 194.42163 44.063474 
L 197.977344 44.694015 
L 201.533058 45.360343 
L 205.088772 46.062459 
L 208.644486 46.800361 
L 212.2002 47.57405 
L 215.755913 48.383527 
L 219.311627 49.22879 
L 222.867341 50.109841 
L 226.423055 51.026679 
L 229.978769 51.979304 
L 233.534483 52.967716 
L 237.090197 53.991915 
L 240.645911 55.051902 
L 244.201625 56.147675 
L 247.757339 57.279236 
L 251.313053 58.446584 
L 254.868767 59.649719 
L 258.424481 60.888641 
L 261.980195 62.16335 
L 265.535909 63.473846 
L 269.091622 64.82013 
L 272.647336 66.2022 
L 276.20305 67.620058 
L 279.758764 69.073703 
L 283.314478 70.563135 
L 286.870192 72.088354 
L 290.425906 73.64936 
L 293.98162 75.246153 
L 297.537334 76.878734 
L 301.093048 78.547101 
L 304.648762 80.251256 
L 308.204476 81.991198 
L 311.76019 83.766926 
L 315.315904 85.578443 
L 318.871618 87.425746 
L 322.427332 89.308836 
L 325.983045 91.227713 
L 329.538759 93.182378 
L 333.094473 95.17283 
L 336.650187 97.199068 
L 340.205901 99.261094 
L 343.761615 101.358907 
L 347.317329 103.492508 
L 350.873043 105.661895 
L 354.428757 107.867069 
L 357.984471 110.108031 
L 361.540185 112.38478 
L 365.095899 114.697315 
L 368.651613 117.045638 
L 372.207327 119.429748 
L 375.763041 121.849646 
L 379.318754 124.30533 
L 382.874468 126.796801 
L 386.430182 129.32406 
L 389.985896 131.887106 
L 393.54161 134.485938 
L 397.097324 137.120558 
L 400.653038 139.790965 
L 404.208752 142.49716 
L 407.764466 145.239141 
L 411.32018 148.016909 
L 414.875894 150.830465 
L 418.431608 153.679808 
L 421.987322 156.564938 
L 425.543036 159.485855 
L 429.09875 162.442559 
L 432.654463 165.43505 
" clip-path="url(#pd99f4a8bab)" style="fill: none; stroke: #7dff7a; stroke-width: 1.5; stroke-linecap: square"/>
   </g>
   <g id="line2d_30">
    <path d="M 80.638784 47.728529 
L 84.194498 47.168462 
L 87.750212 46.644181 
L 91.305926 46.155688 
L 94.86164 45.702982 
L 98.417354 45.286064 
L 101.973068 44.904932 
L 105.528782 44.559587 
L 109.084495 44.25003 
L 112.640209 43.976259 
L 116.195923 43.738276 
L 119.751637 43.53608 
L 123.307351 43.369671 
L 126.863065 43.239049 
L 130.418779 43.144214 
L 133.974493 43.085167 
L 137.530207 43.061906 
L 141.085921 43.074433 
L 144.641635 43.122747 
L 148.197349 43.206848 
L 151.753063 43.326736 
L 155.308777 43.482411 
L 158.864491 43.673873 
L 162.420204 43.901122 
L 165.975918 44.164159 
L 169.531632 44.462983 
L 173.087346 44.797593 
L 176.64306 45.167991 
L 180.198774 45.574176 
L 183.754488 46.016149 
L 187.310202 46.493908 
L 190.865916 47.007454 
L 194.42163 47.556788 
L 197.977344 48.141908 
L 201.533058 48.762816 
L 205.088772 49.419511 
L 208.644486 50.111993 
L 212.2002 50.840262 
L 215.755913 51.604319 
L 219.311627 52.404162 
L 222.867341 53.239793 
L 226.423055 54.11121 
L 229.978769 55.018415 
L 233.534483 55.961407 
L 237.090197 56.940186 
L 240.645911 57.954752 
L 244.201625 59.005106 
L 247.757339 60.091246 
L 251.313053 61.213173 
L 254.868767 62.370888 
L 258.424481 63.56439 
L 261.980195 64.793679 
L 265.535909 66.058755 
L 269.091622 67.359618 
L 272.647336 68.696268 
L 276.20305 70.068706 
L 279.758764 71.47693 
L 283.314478 72.920942 
L 286.870192 74.400741 
L 290.425906 75.916327 
L 293.98162 77.4677 
L 297.537334 79.05486 
L 301.093048 80.677807 
L 304.648762 82.336542 
L 308.204476 84.031063 
L 311.76019 85.761372 
L 315.315904 87.527468 
L 318.871618 89.329351 
L 322.427332 91.167021 
L 325.983045 93.040478 
L 329.538759 94.949722 
L 333.094473 96.894754 
L 336.650187 98.875572 
L 340.205901 100.892178 
L 343.761615 102.944571 
L 347.317329 105.032751 
L 350.873043 107.156718 
L 354.428757 109.316472 
L 357.984471 111.512014 
L 361.540185 113.743342 
L 365.095899 116.010458 
L 368.651613 118.31336 
L 372.207327 120.65205 
L 375.763041 123.026527 
L 379.318754 125.436791 
L 382.874468 127.882842 
L 386.430182 130.364681 
L 389.985896 132.882306 
L 393.54161 135.435719 
L 397.097324 138.024919 
L 400.653038 140.649905 
L 404.208752 143.310679 
L 407.764466 146.00724 
L 411.32018 148.739589 
L 414.875894 151.507724 
L 418.431608 154.311646 
L 421.987322 157.151356 
L 425.543036 160.026853 
L 429.09875 162.938137 
L 432.654463 165.885208 
" clip-path="url(#pd99f4a8bab)" style="fill: none; stroke: #ff9400; stroke-width: 1.5; stroke-linecap: square"/>
   </g>
   <g id="line2d_31">
    <path d="M 80.638784 48.197141 
L 84.194498 47.639762 
L 87.750212 47.118171 
L 91.305926 46.632366 
L 94.86164 46.182349 
L 98.417354 45.768119 
L 101.973068 45.389676 
L 105.528782 45.04702 
L 109.084495 44.740151 
L 112.640209 44.469069 
L 116.195923 44.233775 
L 119.751637 44.034267 
L 123.307351 43.870547 
L 126.863065 43.742614 
L 130.418779 43.650468 
L 133.974493 43.594109 
L 137.530207 43.573537 
L 141.085921 43.588752 
L 144.641635 43.639755 
L 148.197349 43.726545 
L 151.753063 43.849121 
L 155.308777 44.007485 
L 158.864491 44.201636 
L 162.420204 44.431574 
L 165.975918 44.697299 
L 169.531632 44.998812 
L 173.087346 45.336111 
L 176.64306 45.709198 
L 180.198774 46.118072 
L 183.754488 46.562732 
L 187.310202 47.04318 
L 190.865916 47.559415 
L 194.42163 48.111438 
L 197.977344 48.699247 
L 201.533058 49.322844 
L 205.088772 49.982227 
L 208.644486 50.677398 
L 212.2002 51.408356 
L 215.755913 52.175101 
L 219.311627 52.977633 
L 222.867341 53.815952 
L 226.423055 54.690058 
L 229.978769 55.599952 
L 233.534483 56.545633 
L 237.090197 57.5271 
L 240.645911 58.544355 
L 244.201625 59.597397 
L 247.757339 60.686226 
L 251.313053 61.810842 
L 254.868767 62.971246 
L 258.424481 64.167436 
L 261.980195 65.399414 
L 265.535909 66.667179 
L 269.091622 67.970731 
L 272.647336 69.31007 
L 276.20305 70.685196 
L 279.758764 72.096109 
L 283.314478 73.542809 
L 286.870192 75.025297 
L 290.425906 76.543572 
L 293.98162 78.097633 
L 297.537334 79.687482 
L 301.093048 81.313118 
L 304.648762 82.974541 
L 308.204476 84.671752 
L 311.76019 86.404749 
L 315.315904 88.173533 
L 318.871618 89.978105 
L 322.427332 91.818464 
L 325.983045 93.69461 
L 329.538759 95.606543 
L 333.094473 97.554263 
L 336.650187 99.53777 
L 340.205901 101.557065 
L 343.761615 103.612146 
L 347.317329 105.703015 
L 350.873043 107.82967 
L 354.428757 109.992113 
L 357.984471 112.190343 
L 361.540185 114.424361 
L 365.095899 116.694165 
L 368.651613 118.999756 
L 372.207327 121.341135 
L 375.763041 123.7183 
L 379.318754 126.131253 
L 382.874468 128.579993 
L 386.430182 131.06452 
L 389.985896 133.584834 
L 393.54161 136.140936 
L 397.097324 138.732824 
L 400.653038 141.3605 
L 404.208752 144.023962 
L 407.764466 146.723212 
L 411.32018 149.458249 
L 414.875894 152.229073 
L 418.431608 155.035684 
L 421.987322 157.878082 
L 425.543036 160.756268 
L 429.09875 163.67024 
L 432.654463 166.62 
" clip-path="url(#pd99f4a8bab)" style="fill: none; stroke: #800000; stroke-width: 1.5; stroke-linecap: square"/>
   </g>
   <g id="patch_3">
    <path d="M 63.038 174.04 
L 63.038 10.8 
" style="fill: none; stroke: #000000; stroke-width: 0.8; stroke-linejoin: miter; stroke-linecap: square"/>
   </g>
   <g id="patch_4">
    <path d="M 450.255247 174.04 
L 450.255247 10.8 
" style="fill: none; stroke: #000000; stroke-width: 0.8; stroke-linejoin: miter; stroke-linecap: square"/>
   </g>
   <g id="patch_5">
    <path d="M 63.038 174.04 
L 450.255247 174.04 
" style="fill: none; stroke: #000000; stroke-width: 0.8; stroke-linejoin: miter; stroke-linecap: square"/>
   </g>
   <g id="patch_6">
    <path d="M 63.038 10.8 
L 450.255247 10.8 
" style="fill: none; stroke: #000000; stroke-width: 0.8; stroke-linejoin: miter; stroke-linecap: square"/>
   </g>
   <g id="legend_1">
    <g id="patch_7">
     <path d="M 459.255247 162.878 
L 564.455247 162.878 
Q 566.455247 162.878 566.455247 160.878 
L 566.455247 88.385812 
Q 566.455247 86.385812 564.455247 86.385812 
L 459.255247 86.385812 
Q 457.255247 86.385812 457.255247 88.385812 
L 457.255247 160.878 
Q 457.255247 162.878 459.255247 162.878 
z
" style="fill: #4d4d4d; opacity: 0.5; stroke: #4d4d4d; stroke-linejoin: miter"/>
    </g>
    <g id="patch_8">
     <path d="M 457.255247 160.878 
L 562.455247 160.878 
Q 564.455247 160.878 564.455247 158.878 
L 564.455247 86.385812 
Q 564.455247 84.385812 562.455247 84.385812 
L 457.255247 84.385812 
Q 455.255247 84.385812 455.255247 86.385812 
L 455.255247 158.878 
Q 455.255247 160.878 457.255247 160.878 
z
" style="fill: #ffffff; stroke: #cccccc; stroke-linejoin: miter"/>
    </g>
    <g id="line2d_32">
     <path d="M 459.255247 92.48425 
L 469.255247 92.48425 
L 479.255247 92.48425 
" style="fill: none; stroke: #000080; stroke-width: 1.5; stroke-linecap: square"/>
    </g>
    <g id="text_16">
     <!-- $\delta_e = 0$, $J = 1.60$ -->
     <g transform="translate(487.255247 95.98425) scale(0.1 -0.1)">
      <defs>
       <path id="DejaVuSans-Oblique-3b4" d="M 3472 4053 
Q 3197 4272 2450 4272 
Q 1659 4272 1588 3906 
Q 1531 3619 2328 3469 
Q 2953 3353 3253 3003 
Q 3616 2581 3447 1716 
Q 3284 888 2763 400 
Q 2238 -91 1488 -91 
Q 741 -91 406 400 
Q 72 888 241 1747 
Q 363 2384 891 2900 
Q 1097 3100 1353 3213 
Q 913 3459 1000 3900 
Q 1166 4750 2544 4750 
Q 3234 4750 3566 4531 
L 3472 4053 
z
M 1753 3056 
Q 1525 2966 1306 2738 
Q 969 2384 847 1747 
Q 722 1113 919 756 
Q 1119 397 1584 397 
Q 2044 397 2381 759 
Q 2722 1122 2838 1716 
Q 2956 2338 2731 2638 
Q 2491 2959 2103 2994 
Q 1906 3013 1753 3056 
z
" transform="scale(0.015625)"/>
       <path id="DejaVuSans-Oblique-65" d="M 3078 2063 
Q 3088 2113 3092 2166 
Q 3097 2219 3097 2272 
Q 3097 2653 2873 2875 
Q 2650 3097 2266 3097 
Q 1838 3097 1509 2826 
Q 1181 2556 1013 2059 
L 3078 2063 
z
M 3578 1613 
L 903 1613 
Q 884 1494 878 1425 
Q 872 1356 872 1306 
Q 872 872 1139 634 
Q 1406 397 1894 397 
Q 2269 397 2603 481 
Q 2938 566 3225 728 
L 3116 159 
Q 2806 34 2476 -28 
Q 2147 -91 1806 -91 
Q 1078 -91 686 257 
Q 294 606 294 1247 
Q 294 1794 489 2264 
Q 684 2734 1063 3103 
Q 1306 3334 1642 3459 
Q 1978 3584 2356 3584 
Q 2950 3584 3301 3228 
Q 3653 2872 3653 2272 
Q 3653 2128 3634 1964 
Q 3616 1800 3578 1613 
z
" transform="scale(0.015625)"/>
       <path id="DejaVuSans-3d" d="M 678 2906 
L 4684 2906 
L 4684 2381 
L 678 2381 
L 678 2906 
z
M 678 1631 
L 4684 1631 
L 4684 1100 
L 678 1100 
L 678 1631 
z
" transform="scale(0.015625)"/>
       <path id="DejaVuSans-2c" d="M 750 794 
L 1409 794 
L 1409 256 
L 897 -744 
L 494 -744 
L 750 256 
L 750 794 
z
" transform="scale(0.015625)"/>
       <path id="DejaVuSans-Oblique-4a" d="M 1069 4666 
L 1703 4666 
L 856 325 
Q 691 -522 298 -901 
Q -94 -1281 -800 -1281 
L -1050 -1281 
L -947 -750 
L -750 -750 
Q -328 -750 -109 -509 
Q 109 -269 225 325 
L 1069 4666 
z
" transform="scale(0.015625)"/>
      </defs>
      <use xlink:href="#DejaVuSans-Oblique-3b4" transform="translate(0 0.78125)"/>
      <use xlink:href="#DejaVuSans-Oblique-65" transform="translate(61.181641 -15.625) scale(0.7)"/>
      <use xlink:href="#DejaVuSans-3d" transform="translate(126.464844 0.78125)"/>
      <use xlink:href="#DejaVuSans-30" transform="translate(229.736328 0.78125)"/>
      <use xlink:href="#DejaVuSans-2c" transform="translate(293.359375 0.78125)"/>
      <use xlink:href="#DejaVuSans-20" transform="translate(325.146484 0.78125)"/>
      <use xlink:href="#DejaVuSans-Oblique-4a" transform="translate(356.933594 0.78125)"/>
      <use xlink:href="#DejaVuSans-3d" transform="translate(405.908203 0.78125)"/>
      <use xlink:href="#DejaVuSans-31" transform="translate(509.179688 0.78125)"/>
      <use xlink:href="#DejaVuSans-2e" transform="translate(572.802734 0.78125)"/>
      <use xlink:href="#DejaVuSans-36" transform="translate(604.589844 0.78125)"/>
      <use xlink:href="#DejaVuSans-30" transform="translate(668.212891 0.78125)"/>
     </g>
    </g>
    <g id="line2d_33">
     <path d="M 459.255247 107.182688 
L 469.255247 107.182688 
L 479.255247 107.182688 
" style="fill: none; stroke: #0080ff; stroke-width: 1.5; stroke-linecap: square"/>
    </g>
    <g id="text_17">
     <!-- $\delta_e = 0$, $J = 1.80$ -->
     <g transform="translate(487.255247 110.682688) scale(0.1 -0.1)">
      <defs>
       <path id="DejaVuSans-38" d="M 2034 2216 
Q 1584 2216 1326 1975 
Q 1069 1734 1069 1313 
Q 1069 891 1326 650 
Q 1584 409 2034 409 
Q 2484 409 2743 651 
Q 3003 894 3003 1313 
Q 3003 1734 2745 1975 
Q 2488 2216 2034 2216 
z
M 1403 2484 
Q 997 2584 770 2862 
Q 544 3141 544 3541 
Q 544 4100 942 4425 
Q 1341 4750 2034 4750 
Q 2731 4750 3128 4425 
Q 3525 4100 3525 3541 
Q 3525 3141 3298 2862 
Q 3072 2584 2669 2484 
Q 3125 2378 3379 2068 
Q 3634 1759 3634 1313 
Q 3634 634 3220 271 
Q 2806 -91 2034 -91 
Q 1263 -91 848 271 
Q 434 634 434 1313 
Q 434 1759 690 2068 
Q 947 2378 1403 2484 
z
M 1172 3481 
Q 1172 3119 1398 2916 
Q 1625 2713 2034 2713 
Q 2441 2713 2670 2916 
Q 2900 3119 2900 3481 
Q 2900 3844 2670 4047 
Q 2441 4250 2034 4250 
Q 1625 4250 1398 4047 
Q 1172 3844 1172 3481 
z
" transform="scale(0.015625)"/>
      </defs>
      <use xlink:href="#DejaVuSans-Oblique-3b4" transform="translate(0 0.78125)"/>
      <use xlink:href="#DejaVuSans-Oblique-65" transform="translate(61.181641 -15.625) scale(0.7)"/>
      <use xlink:href="#DejaVuSans-3d" transform="translate(126.464844 0.78125)"/>
      <use xlink:href="#DejaVuSans-30" transform="translate(229.736328 0.78125)"/>
      <use xlink:href="#DejaVuSans-2c" transform="translate(293.359375 0.78125)"/>
      <use xlink:href="#DejaVuSans-20" transform="translate(325.146484 0.78125)"/>
      <use xlink:href="#DejaVuSans-Oblique-4a" transform="translate(356.933594 0.78125)"/>
      <use xlink:href="#DejaVuSans-3d" transform="translate(405.908203 0.78125)"/>
      <use xlink:href="#DejaVuSans-31" transform="translate(509.179688 0.78125)"/>
      <use xlink:href="#DejaVuSans-2e" transform="translate(572.802734 0.78125)"/>
      <use xlink:href="#DejaVuSans-38" transform="translate(601.964844 0.78125)"/>
      <use xlink:href="#DejaVuSans-30" transform="translate(665.587891 0.78125)"/>
     </g>
    </g>
    <g id="line2d_34">
     <path d="M 459.255247 121.881125 
L 469.255247 121.881125 
L 479.255247 121.881125 
" style="fill: none; stroke: #7dff7a; stroke-width: 1.5; stroke-linecap: square"/>
    </g>
    <g id="text_18">
     <!-- $\delta_e = 0$, $J = 2.00$ -->
     <g transform="translate(487.255247 125.381125) scale(0.1 -0.1)">
      <use xlink:href="#DejaVuSans-Oblique-3b4" transform="translate(0 0.78125)"/>
      <use xlink:href="#DejaVuSans-Oblique-65" transform="translate(61.181641 -15.625) scale(0.7)"/>
      <use xlink:href="#DejaVuSans-3d" transform="translate(126.464844 0.78125)"/>
      <use xlink:href="#DejaVuSans-30" transform="translate(229.736328 0.78125)"/>
      <use xlink:href="#DejaVuSans-2c" transform="translate(293.359375 0.78125)"/>
      <use xlink:href="#DejaVuSans-20" transform="translate(325.146484 0.78125)"/>
      <use xlink:href="#DejaVuSans-Oblique-4a" transform="translate(356.933594 0.78125)"/>
      <use xlink:href="#DejaVuSans-3d" transform="translate(405.908203 0.78125)"/>
      <use xlink:href="#DejaVuSans-32" transform="translate(509.179688 0.78125)"/>
      <use xlink:href="#DejaVuSans-2e" transform="translate(572.802734 0.78125)"/>
      <use xlink:href="#DejaVuSans-30" transform="translate(604.589844 0.78125)"/>
      <use xlink:href="#DejaVuSans-30" transform="translate(668.212891 0.78125)"/>
     </g>
    </g>
    <g id="line2d_35">
     <path d="M 459.255247 136.579563 
L 469.255247 136.579563 
L 479.255247 136.579563 
" style="fill: none; stroke: #ff9400; stroke-width: 1.5; stroke-linecap: square"/>
    </g>
    <g id="text_19">
     <!-- $\delta_e = 0$, $J = 2.20$ -->
     <g transform="translate(487.255247 140.079563) scale(0.1 -0.1)">
      <use xlink:href="#DejaVuSans-Oblique-3b4" transform="translate(0 0.78125)"/>
      <use xlink:href="#DejaVuSans-Oblique-65" transform="translate(61.181641 -15.625) scale(0.7)"/>
      <use xlink:href="#DejaVuSans-3d" transform="translate(126.464844 0.78125)"/>
      <use xlink:href="#DejaVuSans-30" transform="translate(229.736328 0.78125)"/>
      <use xlink:href="#DejaVuSans-2c" transform="translate(293.359375 0.78125)"/>
      <use xlink:href="#DejaVuSans-20" transform="translate(325.146484 0.78125)"/>
      <use xlink:href="#DejaVuSans-Oblique-4a" transform="translate(356.933594 0.78125)"/>
      <use xlink:href="#DejaVuSans-3d" transform="translate(405.908203 0.78125)"/>
      <use xlink:href="#DejaVuSans-32" transform="translate(509.179688 0.78125)"/>
      <use xlink:href="#DejaVuSans-2e" transform="translate(572.802734 0.78125)"/>
      <use xlink:href="#DejaVuSans-32" transform="translate(599.089844 0.78125)"/>
      <use xlink:href="#DejaVuSans-30" transform="translate(662.712891 0.78125)"/>
     </g>
    </g>
    <g id="line2d_36">
     <path d="M 459.255247 151.278 
L 469.255247 151.278 
L 479.255247 151.278 
" style="fill: none; stroke: #800000; stroke-width: 1.5; stroke-linecap: square"/>
    </g>
    <g id="text_20">
     <!-- $\delta_e = 0$, $J = 2.40$ -->
     <g transform="translate(487.255247 154.778) scale(0.1 -0.1)">
      <use xlink:href="#DejaVuSans-Oblique-3b4" transform="translate(0 0.78125)"/>
      <use xlink:href="#DejaVuSans-Oblique-65" transform="translate(61.181641 -15.625) scale(0.7)"/>
      <use xlink:href="#DejaVuSans-3d" transform="translate(126.464844 0.78125)"/>
      <use xlink:href="#DejaVuSans-30" transform="translate(229.736328 0.78125)"/>
      <use xlink:href="#DejaVuSans-2c" transform="translate(293.359375 0.78125)"/>
      <use xlink:href="#DejaVuSans-20" transform="translate(325.146484 0.78125)"/>
      <use xlink:href="#DejaVuSans-Oblique-4a" transform="translate(356.933594 0.78125)"/>
      <use xlink:href="#DejaVuSans-3d" transform="translate(405.908203 0.78125)"/>
      <use xlink:href="#DejaVuSans-32" transform="translate(509.179688 0.78125)"/>
      <use xlink:href="#DejaVuSans-2e" transform="translate(572.802734 0.78125)"/>
      <use xlink:href="#DejaVuSans-34" transform="translate(604.589844 0.78125)"/>
      <use xlink:href="#DejaVuSans-30" transform="translate(668.212891 0.78125)"/>
     </g>
    </g>
   </g>
  </g>
 </g>
 <defs>
  <clipPath id="pd99f4a8bab">
   <rect x="63.038" y="10.8" width="387.217247" height="163.24"/>
  </clipPath>
 </defs>
</svg>
