<?xml version="1.0" encoding="utf-8" standalone="no"?>
<!DOCTYPE svg PUBLIC "-//W3C//DTD SVG 1.1//EN"
  "http://www.w3.org/Graphics/SVG/1.1/DTD/svg11.dtd">
<svg xmlns:xlink="http://www.w3.org/1999/xlink" width="288pt" height="216pt" viewBox="0 0 288 216" xmlns="http://www.w3.org/2000/svg" version="1.1">
 <metadata>
  <rdf:RDF xmlns:dc="http://purl.org/dc/elements/1.1/" xmlns:cc="http://creativecommons.org/ns#" xmlns:rdf="http://www.w3.org/1999/02/22-rdf-syntax-ns#">
   <cc:Work>
    <dc:type rdf:resource="http://purl.org/dc/dcmitype/StillImage"/>
    <dc:date>2025-03-27T12:21:03.446679</dc:date>
    <dc:format>image/svg+xml</dc:format>
    <dc:creator>
     <cc:Agent>
      <dc:title>Matplotlib v3.9.2, https://matplotlib.org/</dc:title>
     </cc:Agent>
    </dc:creator>
   </cc:Work>
  </rdf:RDF>
 </metadata>
 <defs>
  <style type="text/css">*{stroke-linejoin: round; stroke-linecap: butt}</style>
 </defs>
 <g id="figure_1">
  <g id="patch_1">
   <path d="M 0 216 
L 288 216 
L 288 0 
L 0 0 
z
" style="fill: #ffffff"/>
  </g>
  <g id="axes_1">
   <g id="patch_2">
    <path d="M 57.08 174.04 
L 277.2 174.04 
L 277.2 10.8 
L 57.08 10.8 
z
" style="fill: #ffffff"/>
   </g>
   <g id="matplotlib.axis_1">
    <g id="xtick_1">
     <g id="line2d_1">
      <path d="M 67.085455 174.04 
L 67.085455 10.8 
" clip-path="url(#p93c8e7d343)" style="fill: none; stroke: #b0b0b0; stroke-width: 0.8; stroke-linecap: square"/>
     </g>
     <g id="line2d_2">
      <defs>
       <path id="m77e06a685d" d="M 0 0 
L 0 3.5 
" style="stroke: #000000; stroke-width: 0.8"/>
      </defs>
      <g>
       <use xlink:href="#m77e06a685d" x="67.085455" y="174.04" style="stroke: #000000; stroke-width: 0.8"/>
      </g>
     </g>
     <g id="text_1">
      <!-- −4 -->
      <g transform="translate(59.714361 188.638438) scale(0.1 -0.1)">
       <defs>
        <path id="DejaVuSans-2212" d="M 678 2272 
L 4684 2272 
L 4684 1741 
L 678 1741 
L 678 2272 
z
" transform="scale(0.015625)"/>
        <path id="DejaVuSans-34" d="M 2419 4116 
L 825 1625 
L 2419 1625 
L 2419 4116 
z
M 2253 4666 
L 3047 4666 
L 3047 1625 
L 3713 1625 
L 3713 1100 
L 3047 1100 
L 3047 0 
L 2419 0 
L 2419 1100 
L 313 1100 
L 313 1709 
L 2253 4666 
z
" transform="scale(0.015625)"/>
       </defs>
       <use xlink:href="#DejaVuSans-2212"/>
       <use xlink:href="#DejaVuSans-34" x="83.789062"/>
      </g>
     </g>
    </g>
    <g id="xtick_2">
     <g id="line2d_3">
      <path d="M 103.468926 174.04 
L 103.468926 10.8 
" clip-path="url(#p93c8e7d343)" style="fill: none; stroke: #b0b0b0; stroke-width: 0.8; stroke-linecap: square"/>
     </g>
     <g id="line2d_4">
      <g>
       <use xlink:href="#m77e06a685d" x="103.468926" y="174.04" style="stroke: #000000; stroke-width: 0.8"/>
      </g>
     </g>
     <g id="text_2">
      <!-- −2 -->
      <g transform="translate(96.097832 188.638438) scale(0.1 -0.1)">
       <defs>
        <path id="DejaVuSans-32" d="M 1228 531 
L 3431 531 
L 3431 0 
L 469 0 
L 469 531 
Q 828 903 1448 1529 
Q 2069 2156 2228 2338 
Q 2531 2678 2651 2914 
Q 2772 3150 2772 3378 
Q 2772 3750 2511 3984 
Q 2250 4219 1831 4219 
Q 1534 4219 1204 4116 
Q 875 4013 500 3803 
L 500 4441 
Q 881 4594 1212 4672 
Q 1544 4750 1819 4750 
Q 2544 4750 2975 4387 
Q 3406 4025 3406 3419 
Q 3406 3131 3298 2873 
Q 3191 2616 2906 2266 
Q 2828 2175 2409 1742 
Q 1991 1309 1228 531 
z
" transform="scale(0.015625)"/>
       </defs>
       <use xlink:href="#DejaVuSans-2212"/>
       <use xlink:href="#DejaVuSans-32" x="83.789062"/>
      </g>
     </g>
    </g>
    <g id="xtick_3">
     <g id="line2d_5">
      <path d="M 139.852397 174.04 
L 139.852397 10.8 
" clip-path="url(#p93c8e7d343)" style="fill: none; stroke: #b0b0b0; stroke-width: 0.8; stroke-linecap: square"/>
     </g>
     <g id="line2d_6">
      <g>
       <use xlink:href="#m77e06a685d" x="139.852397" y="174.04" style="stroke: #000000; stroke-width: 0.8"/>
      </g>
     </g>
     <g id="text_3">
      <!-- 0 -->
      <g transform="translate(136.671147 188.638438) scale(0.1 -0.1)">
       <defs>
        <path id="DejaVuSans-30" d="M 2034 4250 
Q 1547 4250 1301 3770 
Q 1056 3291 1056 2328 
Q 1056 1369 1301 889 
Q 1547 409 2034 409 
Q 2525 409 2770 889 
Q 3016 1369 3016 2328 
Q 3016 3291 2770 3770 
Q 2525 4250 2034 4250 
z
M 2034 4750 
Q 2819 4750 3233 4129 
Q 3647 3509 3647 2328 
Q 3647 1150 3233 529 
Q 2819 -91 2034 -91 
Q 1250 -91 836 529 
Q 422 1150 422 2328 
Q 422 3509 836 4129 
Q 1250 4750 2034 4750 
z
" transform="scale(0.015625)"/>
       </defs>
       <use xlink:href="#DejaVuSans-30"/>
      </g>
     </g>
    </g>
    <g id="xtick_4">
     <g id="line2d_7">
      <path d="M 176.235868 174.04 
L 176.235868 10.8 
" clip-path="url(#p93c8e7d343)" style="fill: none; stroke: #b0b0b0; stroke-width: 0.8; stroke-linecap: square"/>
     </g>
     <g id="line2d_8">
      <g>
       <use xlink:href="#m77e06a685d" x="176.235868" y="174.04" style="stroke: #000000; stroke-width: 0.8"/>
      </g>
     </g>
     <g id="text_4">
      <!-- 2 -->
      <g transform="translate(173.054618 188.638438) scale(0.1 -0.1)">
       <use xlink:href="#DejaVuSans-32"/>
      </g>
     </g>
    </g>
    <g id="xtick_5">
     <g id="line2d_9">
      <path d="M 212.619339 174.04 
L 212.619339 10.8 
" clip-path="url(#p93c8e7d343)" style="fill: none; stroke: #b0b0b0; stroke-width: 0.8; stroke-linecap: square"/>
     </g>
     <g id="line2d_10">
      <g>
       <use xlink:href="#m77e06a685d" x="212.619339" y="174.04" style="stroke: #000000; stroke-width: 0.8"/>
      </g>
     </g>
     <g id="text_5">
      <!-- 4 -->
      <g transform="translate(209.438089 188.638438) scale(0.1 -0.1)">
       <use xlink:href="#DejaVuSans-34"/>
      </g>
     </g>
    </g>
    <g id="xtick_6">
     <g id="line2d_11">
      <path d="M 249.00281 174.04 
L 249.00281 10.8 
" clip-path="url(#p93c8e7d343)" style="fill: none; stroke: #b0b0b0; stroke-width: 0.8; stroke-linecap: square"/>
     </g>
     <g id="line2d_12">
      <g>
       <use xlink:href="#m77e06a685d" x="249.00281" y="174.04" style="stroke: #000000; stroke-width: 0.8"/>
      </g>
     </g>
     <g id="text_6">
      <!-- 6 -->
      <g transform="translate(245.82156 188.638438) scale(0.1 -0.1)">
       <defs>
        <path id="DejaVuSans-36" d="M 2113 2584 
Q 1688 2584 1439 2293 
Q 1191 2003 1191 1497 
Q 1191 994 1439 701 
Q 1688 409 2113 409 
Q 2538 409 2786 701 
Q 3034 994 3034 1497 
Q 3034 2003 2786 2293 
Q 2538 2584 2113 2584 
z
M 3366 4563 
L 3366 3988 
Q 3128 4100 2886 4159 
Q 2644 4219 2406 4219 
Q 1781 4219 1451 3797 
Q 1122 3375 1075 2522 
Q 1259 2794 1537 2939 
Q 1816 3084 2150 3084 
Q 2853 3084 3261 2657 
Q 3669 2231 3669 1497 
Q 3669 778 3244 343 
Q 2819 -91 2113 -91 
Q 1303 -91 875 529 
Q 447 1150 447 2328 
Q 447 3434 972 4092 
Q 1497 4750 2381 4750 
Q 2619 4750 2861 4703 
Q 3103 4656 3366 4563 
z
" transform="scale(0.015625)"/>
       </defs>
       <use xlink:href="#DejaVuSans-36"/>
      </g>
     </g>
    </g>
    <g id="text_7">
     <!-- $\alpha$ -->
     <g transform="translate(163.84 202.316563) scale(0.1 -0.1)">
      <defs>
       <path id="DejaVuSans-Oblique-3b1" d="M 2619 1628 
L 2622 2350 
Q 2625 3088 2069 3091 
Q 1653 3094 1394 2747 
Q 1069 2319 959 1747 
Q 825 1059 994 731 
Q 1169 397 1547 397 
Q 1966 397 2319 1063 
L 2619 1628 
z
M 2166 3578 
Q 3141 3594 3128 2584 
Q 3128 2584 3616 3500 
L 4128 3500 
L 3119 1603 
L 3109 919 
Q 3109 766 3194 638 
Q 3291 488 3391 488 
L 3669 488 
L 3575 0 
L 3228 0 
Q 2934 0 2722 263 
Q 2622 394 2619 669 
Q 2416 334 2066 50 
Q 1900 -81 1453 -78 
Q 722 -72 456 397 
Q 184 884 353 1747 
Q 534 2675 1009 3097 
Q 1544 3569 2166 3578 
z
" transform="scale(0.015625)"/>
      </defs>
      <use xlink:href="#DejaVuSans-Oblique-3b1" transform="translate(0 0.84375)"/>
     </g>
    </g>
   </g>
   <g id="matplotlib.axis_2">
    <g id="ytick_1">
     <g id="line2d_13">
      <path d="M 57.08 148.74973 
L 277.2 148.74973 
" clip-path="url(#p93c8e7d343)" style="fill: none; stroke: #b0b0b0; stroke-width: 0.8; stroke-linecap: square"/>
     </g>
     <g id="line2d_14">
      <defs>
       <path id="mad4339bbf0" d="M 0 0 
L -3.5 0 
" style="stroke: #000000; stroke-width: 0.8"/>
      </defs>
      <g>
       <use xlink:href="#mad4339bbf0" x="57.08" y="148.74973" style="stroke: #000000; stroke-width: 0.8"/>
      </g>
     </g>
     <g id="text_8">
      <!-- 0.09 -->
      <g transform="translate(27.814375 152.548948) scale(0.1 -0.1)">
       <defs>
        <path id="DejaVuSans-2e" d="M 684 794 
L 1344 794 
L 1344 0 
L 684 0 
L 684 794 
z
" transform="scale(0.015625)"/>
        <path id="DejaVuSans-39" d="M 703 97 
L 703 672 
Q 941 559 1184 500 
Q 1428 441 1663 441 
Q 2288 441 2617 861 
Q 2947 1281 2994 2138 
Q 2813 1869 2534 1725 
Q 2256 1581 1919 1581 
Q 1219 1581 811 2004 
Q 403 2428 403 3163 
Q 403 3881 828 4315 
Q 1253 4750 1959 4750 
Q 2769 4750 3195 4129 
Q 3622 3509 3622 2328 
Q 3622 1225 3098 567 
Q 2575 -91 1691 -91 
Q 1453 -91 1209 -44 
Q 966 3 703 97 
z
M 1959 2075 
Q 2384 2075 2632 2365 
Q 2881 2656 2881 3163 
Q 2881 3666 2632 3958 
Q 2384 4250 1959 4250 
Q 1534 4250 1286 3958 
Q 1038 3666 1038 3163 
Q 1038 2656 1286 2365 
Q 1534 2075 1959 2075 
z
" transform="scale(0.015625)"/>
       </defs>
       <use xlink:href="#DejaVuSans-30"/>
       <use xlink:href="#DejaVuSans-2e" x="63.623047"/>
       <use xlink:href="#DejaVuSans-30" x="95.410156"/>
       <use xlink:href="#DejaVuSans-39" x="159.033203"/>
      </g>
     </g>
    </g>
    <g id="ytick_2">
     <g id="line2d_15">
      <path d="M 57.08 108.048964 
L 277.2 108.048964 
" clip-path="url(#p93c8e7d343)" style="fill: none; stroke: #b0b0b0; stroke-width: 0.8; stroke-linecap: square"/>
     </g>
     <g id="line2d_16">
      <g>
       <use xlink:href="#mad4339bbf0" x="57.08" y="108.048964" style="stroke: #000000; stroke-width: 0.8"/>
      </g>
     </g>
     <g id="text_9">
      <!-- 0.10 -->
      <g transform="translate(27.814375 111.848183) scale(0.1 -0.1)">
       <defs>
        <path id="DejaVuSans-31" d="M 794 531 
L 1825 531 
L 1825 4091 
L 703 3866 
L 703 4441 
L 1819 4666 
L 2450 4666 
L 2450 531 
L 3481 531 
L 3481 0 
L 794 0 
L 794 531 
z
" transform="scale(0.015625)"/>
       </defs>
       <use xlink:href="#DejaVuSans-30"/>
       <use xlink:href="#DejaVuSans-2e" x="63.623047"/>
       <use xlink:href="#DejaVuSans-31" x="95.410156"/>
       <use xlink:href="#DejaVuSans-30" x="159.033203"/>
      </g>
     </g>
    </g>
    <g id="ytick_3">
     <g id="line2d_17">
      <path d="M 57.08 67.348198 
L 277.2 67.348198 
" clip-path="url(#p93c8e7d343)" style="fill: none; stroke: #b0b0b0; stroke-width: 0.8; stroke-linecap: square"/>
     </g>
     <g id="line2d_18">
      <g>
       <use xlink:href="#mad4339bbf0" x="57.08" y="67.348198" style="stroke: #000000; stroke-width: 0.8"/>
      </g>
     </g>
     <g id="text_10">
      <!-- 0.11 -->
      <g transform="translate(27.814375 71.147417) scale(0.1 -0.1)">
       <use xlink:href="#DejaVuSans-30"/>
       <use xlink:href="#DejaVuSans-2e" x="63.623047"/>
       <use xlink:href="#DejaVuSans-31" x="95.410156"/>
       <use xlink:href="#DejaVuSans-31" x="159.033203"/>
      </g>
     </g>
    </g>
    <g id="ytick_4">
     <g id="line2d_19">
      <path d="M 57.08 26.647432 
L 277.2 26.647432 
" clip-path="url(#p93c8e7d343)" style="fill: none; stroke: #b0b0b0; stroke-width: 0.8; stroke-linecap: square"/>
     </g>
     <g id="line2d_20">
      <g>
       <use xlink:href="#mad4339bbf0" x="57.08" y="26.647432" style="stroke: #000000; stroke-width: 0.8"/>
      </g>
     </g>
     <g id="text_11">
      <!-- 0.12 -->
      <g transform="translate(27.814375 30.446651) scale(0.1 -0.1)">
       <use xlink:href="#DejaVuSans-30"/>
       <use xlink:href="#DejaVuSans-2e" x="63.623047"/>
       <use xlink:href="#DejaVuSans-31" x="95.410156"/>
       <use xlink:href="#DejaVuSans-32" x="159.033203"/>
      </g>
     </g>
    </g>
    <g id="text_12">
     <!-- $dCL_cor2/dalpha$ -->
     <g transform="translate(21.714375 130.97) rotate(-90) scale(0.1 -0.1)">
      <defs>
       <path id="DejaVuSans-Oblique-64" d="M 2675 525 
Q 2444 222 2128 65 
Q 1813 -91 1428 -91 
Q 903 -91 598 267 
Q 294 625 294 1247 
Q 294 1766 478 2236 
Q 663 2706 1013 3078 
Q 1244 3325 1534 3454 
Q 1825 3584 2144 3584 
Q 2481 3584 2739 3421 
Q 2997 3259 3138 2956 
L 3513 4863 
L 4091 4863 
L 3144 0 
L 2566 0 
L 2675 525 
z
M 891 1350 
Q 891 897 1095 644 
Q 1300 391 1663 391 
Q 1931 391 2161 520 
Q 2391 650 2566 903 
Q 2750 1166 2856 1509 
Q 2963 1853 2963 2188 
Q 2963 2622 2758 2865 
Q 2553 3109 2194 3109 
Q 1922 3109 1687 2981 
Q 1453 2853 1288 2613 
Q 1106 2353 998 2009 
Q 891 1666 891 1350 
z
" transform="scale(0.015625)"/>
       <path id="DejaVuSans-Oblique-43" d="M 4447 4306 
L 4319 3641 
Q 4019 3944 3683 4091 
Q 3347 4238 2956 4238 
Q 2422 4238 2017 3981 
Q 1613 3725 1319 3200 
Q 1131 2863 1032 2486 
Q 934 2109 934 1728 
Q 934 1091 1264 756 
Q 1594 422 2222 422 
Q 2656 422 3056 561 
Q 3456 700 3834 978 
L 3688 231 
Q 3316 72 2936 -9 
Q 2556 -91 2175 -91 
Q 1278 -91 773 396 
Q 269 884 269 1753 
Q 269 2309 461 2846 
Q 653 3384 1013 3828 
Q 1394 4300 1883 4525 
Q 2372 4750 3022 4750 
Q 3422 4750 3780 4639 
Q 4138 4528 4447 4306 
z
" transform="scale(0.015625)"/>
       <path id="DejaVuSans-Oblique-4c" d="M 1075 4666 
L 1709 4666 
L 909 525 
L 3181 525 
L 3078 0 
L 172 0 
L 1075 4666 
z
" transform="scale(0.015625)"/>
       <path id="DejaVuSans-Oblique-63" d="M 3431 3366 
L 3316 2797 
Q 3109 2947 2876 3022 
Q 2644 3097 2394 3097 
Q 2119 3097 1870 3000 
Q 1622 2903 1453 2725 
Q 1184 2453 1037 2087 
Q 891 1722 891 1331 
Q 891 859 1127 628 
Q 1363 397 1844 397 
Q 2081 397 2348 469 
Q 2616 541 2906 684 
L 2797 116 
Q 2547 13 2283 -39 
Q 2019 -91 1741 -91 
Q 1044 -91 669 257 
Q 294 606 294 1253 
Q 294 1797 489 2255 
Q 684 2713 1069 3078 
Q 1331 3328 1684 3456 
Q 2038 3584 2456 3584 
Q 2700 3584 2940 3529 
Q 3181 3475 3431 3366 
z
" transform="scale(0.015625)"/>
       <path id="DejaVuSans-Oblique-6f" d="M 1625 -91 
Q 1009 -91 651 289 
Q 294 669 294 1325 
Q 294 1706 417 2101 
Q 541 2497 738 2766 
Q 1047 3184 1428 3384 
Q 1809 3584 2291 3584 
Q 2888 3584 3255 3212 
Q 3622 2841 3622 2241 
Q 3622 1825 3500 1412 
Q 3378 1000 3181 728 
Q 2875 309 2494 109 
Q 2113 -91 1625 -91 
z
M 891 1344 
Q 891 869 1089 633 
Q 1288 397 1691 397 
Q 2269 397 2648 901 
Q 3028 1406 3028 2181 
Q 3028 2634 2825 2865 
Q 2622 3097 2228 3097 
Q 1903 3097 1650 2945 
Q 1397 2794 1197 2484 
Q 1050 2253 970 1956 
Q 891 1659 891 1344 
z
" transform="scale(0.015625)"/>
       <path id="DejaVuSans-Oblique-72" d="M 2853 2969 
Q 2766 3016 2653 3041 
Q 2541 3066 2413 3066 
Q 1953 3066 1609 2717 
Q 1266 2369 1153 1784 
L 800 0 
L 225 0 
L 909 3500 
L 1484 3500 
L 1375 2956 
Q 1603 3259 1920 3421 
Q 2238 3584 2597 3584 
Q 2691 3584 2781 3573 
Q 2872 3563 2963 3538 
L 2853 2969 
z
" transform="scale(0.015625)"/>
       <path id="DejaVuSans-2f" d="M 1625 4666 
L 2156 4666 
L 531 -594 
L 0 -594 
L 1625 4666 
z
" transform="scale(0.015625)"/>
       <path id="DejaVuSans-Oblique-61" d="M 3438 1997 
L 3047 0 
L 2472 0 
L 2578 531 
Q 2325 219 2001 64 
Q 1678 -91 1281 -91 
Q 834 -91 548 182 
Q 263 456 263 884 
Q 263 1497 752 1853 
Q 1241 2209 2100 2209 
L 2900 2209 
L 2931 2363 
Q 2938 2388 2941 2417 
Q 2944 2447 2944 2509 
Q 2944 2788 2717 2942 
Q 2491 3097 2081 3097 
Q 1800 3097 1504 3025 
Q 1209 2953 897 2809 
L 997 3341 
Q 1322 3463 1633 3523 
Q 1944 3584 2234 3584 
Q 2853 3584 3176 3315 
Q 3500 3047 3500 2534 
Q 3500 2431 3484 2292 
Q 3469 2153 3438 1997 
z
M 2816 1759 
L 2241 1759 
Q 1534 1759 1195 1570 
Q 856 1381 856 984 
Q 856 709 1029 553 
Q 1203 397 1509 397 
Q 1978 397 2328 733 
Q 2678 1069 2791 1631 
L 2816 1759 
z
" transform="scale(0.015625)"/>
       <path id="DejaVuSans-Oblique-6c" d="M 1172 4863 
L 1747 4863 
L 800 0 
L 225 0 
L 1172 4863 
z
" transform="scale(0.015625)"/>
       <path id="DejaVuSans-Oblique-70" d="M 3175 2156 
Q 3175 2616 2975 2859 
Q 2775 3103 2400 3103 
Q 2144 3103 1911 2972 
Q 1678 2841 1497 2591 
Q 1319 2344 1212 1994 
Q 1106 1644 1106 1300 
Q 1106 863 1306 627 
Q 1506 391 1875 391 
Q 2147 391 2380 519 
Q 2613 647 2778 891 
Q 2956 1147 3065 1494 
Q 3175 1841 3175 2156 
z
M 1394 2969 
Q 1625 3272 1939 3428 
Q 2253 3584 2638 3584 
Q 3175 3584 3472 3232 
Q 3769 2881 3769 2247 
Q 3769 1728 3584 1258 
Q 3400 788 3053 416 
Q 2822 169 2531 39 
Q 2241 -91 1919 -91 
Q 1547 -91 1294 64 
Q 1041 219 916 525 
L 556 -1331 
L -19 -1331 
L 922 3500 
L 1497 3500 
L 1394 2969 
z
" transform="scale(0.015625)"/>
       <path id="DejaVuSans-Oblique-68" d="M 3566 2113 
L 3156 0 
L 2578 0 
L 2988 2091 
Q 3016 2238 3031 2350 
Q 3047 2463 3047 2528 
Q 3047 2791 2881 2937 
Q 2716 3084 2419 3084 
Q 1956 3084 1617 2771 
Q 1278 2459 1178 1941 
L 800 0 
L 225 0 
L 1172 4863 
L 1747 4863 
L 1375 2950 
Q 1594 3244 1934 3414 
Q 2275 3584 2650 3584 
Q 3113 3584 3367 3334 
Q 3622 3084 3622 2631 
Q 3622 2519 3608 2391 
Q 3594 2263 3566 2113 
z
" transform="scale(0.015625)"/>
      </defs>
      <use xlink:href="#DejaVuSans-Oblique-64" transform="translate(0 0.015625)"/>
      <use xlink:href="#DejaVuSans-Oblique-43" transform="translate(63.476562 0.015625)"/>
      <use xlink:href="#DejaVuSans-Oblique-4c" transform="translate(133.300781 0.015625)"/>
      <use xlink:href="#DejaVuSans-Oblique-63" transform="translate(189.013672 -16.390625) scale(0.7)"/>
      <use xlink:href="#DejaVuSans-Oblique-6f" transform="translate(230.234375 0.015625)"/>
      <use xlink:href="#DejaVuSans-Oblique-72" transform="translate(291.416016 0.015625)"/>
      <use xlink:href="#DejaVuSans-32" transform="translate(332.529297 0.015625)"/>
      <use xlink:href="#DejaVuSans-2f" transform="translate(396.152344 0.015625)"/>
      <use xlink:href="#DejaVuSans-Oblique-64" transform="translate(429.84375 0.015625)"/>
      <use xlink:href="#DejaVuSans-Oblique-61" transform="translate(493.320312 0.015625)"/>
      <use xlink:href="#DejaVuSans-Oblique-6c" transform="translate(554.599609 0.015625)"/>
      <use xlink:href="#DejaVuSans-Oblique-70" transform="translate(582.382812 0.015625)"/>
      <use xlink:href="#DejaVuSans-Oblique-68" transform="translate(645.859375 0.015625)"/>
      <use xlink:href="#DejaVuSans-Oblique-61" transform="translate(709.238281 0.015625)"/>
     </g>
    </g>
   </g>
   <g id="line2d_21">
    <path d="M 67.085455 30.266191 
L 69.106758 29.823788 
L 71.128062 29.413016 
L 73.149366 29.033875 
L 75.17067 28.686365 
L 77.191974 28.370485 
L 79.213278 28.086236 
L 81.234582 27.833617 
L 83.255886 27.61263 
L 85.27719 27.423273 
L 87.298494 27.265546 
L 89.319798 27.139451 
L 91.341102 27.044986 
L 93.362406 26.982152 
L 95.38371 26.950948 
L 97.405014 26.951376 
L 99.426318 26.983433 
L 101.447622 27.047122 
L 103.468926 27.142441 
L 105.49023 27.269391 
L 107.511534 27.427972 
L 109.532837 27.618183 
L 111.554141 27.840026 
L 113.575445 28.093498 
L 115.596749 28.378602 
L 117.618053 28.695336 
L 119.639357 29.043701 
L 121.660661 29.423696 
L 123.681965 29.835323 
L 125.703269 30.27858 
L 127.724573 30.753467 
L 129.745877 31.259986 
L 131.767181 31.798135 
L 133.788485 32.367914 
L 135.809789 32.969325 
L 137.831093 33.602366 
L 139.852397 34.267038 
L 141.873701 34.96334 
L 143.895005 35.691274 
L 145.916309 36.450837 
L 147.937612 37.242032 
L 149.958916 38.064857 
L 151.98022 38.919313 
L 154.001524 39.8054 
L 156.022828 40.723118 
L 158.044132 41.672466 
L 160.065436 42.653444 
L 162.08674 43.666054 
L 164.108044 44.710294 
L 166.129348 45.786165 
L 168.150652 46.893667 
L 170.171956 48.032799 
L 172.19326 49.203562 
L 174.214564 50.405955 
L 176.235868 51.63998 
L 178.257172 52.905635 
L 180.278476 54.202921 
L 182.29978 55.531837 
L 184.321084 56.892384 
L 186.342388 58.284562 
L 188.363691 59.708371 
L 190.384995 61.16381 
L 192.406299 62.65088 
L 194.427603 64.16958 
L 196.448907 65.719912 
L 198.470211 67.301874 
L 200.491515 68.915466 
L 202.512819 70.56069 
L 204.534123 72.237544 
L 206.555427 73.946029 
L 208.576731 75.686144 
L 210.598035 77.45789 
L 212.619339 79.261267 
L 214.640643 81.096275 
L 216.661947 82.962913 
L 218.683251 84.861182 
L 220.704555 86.791082 
L 222.725859 88.752612 
L 224.747163 90.745773 
L 226.768466 92.770565 
L 228.78977 94.826987 
L 230.811074 96.915041 
L 232.832378 99.034724 
L 234.853682 101.186039 
L 236.874986 103.368984 
L 238.89629 105.58356 
L 240.917594 107.829767 
L 242.938898 110.107604 
L 244.960202 112.417072 
L 246.981506 114.758171 
L 249.00281 117.1309 
L 251.024114 119.53526 
L 253.045418 121.971251 
L 255.066722 124.438873 
L 257.088026 126.938125 
L 259.10933 129.469008 
L 261.130634 132.031521 
L 263.151938 134.625666 
L 265.173242 137.251441 
L 267.194545 139.908846 
" clip-path="url(#p93c8e7d343)" style="fill: none; stroke: #000080; stroke-width: 1.5; stroke-linecap: square"/>
   </g>
   <g id="line2d_22">
    <path d="M 67.085455 24.278918 
L 69.106758 24.031898 
L 71.128062 23.816508 
L 73.149366 23.632749 
L 75.17067 23.480621 
L 77.191974 23.360124 
L 79.213278 23.271257 
L 81.234582 23.214021 
L 83.255886 23.188416 
L 85.27719 23.194441 
L 87.298494 23.232097 
L 89.319798 23.301384 
L 91.341102 23.402301 
L 93.362406 23.534849 
L 95.38371 23.699028 
L 97.405014 23.894838 
L 99.426318 24.122278 
L 101.447622 24.381349 
L 103.468926 24.67205 
L 105.49023 24.994383 
L 107.511534 25.348346 
L 109.532837 25.733939 
L 111.554141 26.151164 
L 113.575445 26.600019 
L 115.596749 27.080505 
L 117.618053 27.592621 
L 119.639357 28.136368 
L 121.660661 28.711746 
L 123.681965 29.318755 
L 125.703269 29.957394 
L 127.724573 30.627664 
L 129.745877 31.329565 
L 131.767181 32.063096 
L 133.788485 32.828258 
L 135.809789 33.625051 
L 137.831093 34.453474 
L 139.852397 35.313529 
L 141.873701 36.205213 
L 143.895005 37.128529 
L 145.916309 38.083475 
L 147.937612 39.070052 
L 149.958916 40.08826 
L 151.98022 41.138098 
L 154.001524 42.219567 
L 156.022828 43.332667 
L 158.044132 44.477397 
L 160.065436 45.653758 
L 162.08674 46.86175 
L 164.108044 48.101373 
L 166.129348 49.372626 
L 168.150652 50.67551 
L 170.171956 52.010024 
L 172.19326 53.37617 
L 174.214564 54.773946 
L 176.235868 56.203352 
L 178.257172 57.66439 
L 180.278476 59.157058 
L 182.29978 60.681356 
L 184.321084 62.237286 
L 186.342388 63.824846 
L 188.363691 65.444037 
L 190.384995 67.094858 
L 192.406299 68.777311 
L 194.427603 70.491394 
L 196.448907 72.237107 
L 198.470211 74.014452 
L 200.491515 75.823427 
L 202.512819 77.664032 
L 204.534123 79.536269 
L 206.555427 81.440136 
L 208.576731 83.375634 
L 210.598035 85.342762 
L 212.619339 87.341521 
L 214.640643 89.371911 
L 216.661947 91.433932 
L 218.683251 93.527583 
L 220.704555 95.652865 
L 222.725859 97.809778 
L 224.747163 99.998321 
L 226.768466 102.218495 
L 228.78977 104.4703 
L 230.811074 106.753736 
L 232.832378 109.068802 
L 234.853682 111.415499 
L 236.874986 113.793826 
L 238.89629 116.203785 
L 240.917594 118.645373 
L 242.938898 121.118593 
L 244.960202 123.623443 
L 246.981506 126.159925 
L 249.00281 128.728036 
L 251.024114 131.327779 
L 253.045418 133.959152 
L 255.066722 136.622156 
L 257.088026 139.31679 
L 259.10933 142.043055 
L 261.130634 144.800951 
L 263.151938 147.590478 
L 265.173242 150.411635 
L 267.194545 153.264423 
" clip-path="url(#p93c8e7d343)" style="fill: none; stroke: #7dff7a; stroke-width: 1.5; stroke-linecap: square"/>
   </g>
   <g id="line2d_23">
    <path d="M 67.085455 18.291645 
L 69.106758 18.240007 
L 71.128062 18.22 
L 73.149366 18.231623 
L 75.17067 18.274878 
L 77.191974 18.349763 
L 79.213278 18.456278 
L 81.234582 18.594424 
L 83.255886 18.764201 
L 85.27719 18.965609 
L 87.298494 19.198647 
L 89.319798 19.463317 
L 91.341102 19.759616 
L 93.362406 20.087547 
L 95.38371 20.447108 
L 97.405014 20.8383 
L 99.426318 21.261122 
L 101.447622 21.715576 
L 103.468926 22.201659 
L 105.49023 22.719374 
L 107.511534 23.268719 
L 109.532837 23.849695 
L 111.554141 24.462302 
L 113.575445 25.10654 
L 115.596749 25.782408 
L 117.618053 26.489906 
L 119.639357 27.229036 
L 121.660661 27.999796 
L 123.681965 28.802187 
L 125.703269 29.636209 
L 127.724573 30.501861 
L 129.745877 31.399144 
L 131.767181 32.328058 
L 133.788485 33.288602 
L 135.809789 34.280777 
L 137.831093 35.304583 
L 139.852397 36.360019 
L 141.873701 37.447086 
L 143.895005 38.565784 
L 145.916309 39.716113 
L 147.937612 40.898072 
L 149.958916 42.111662 
L 151.98022 43.356883 
L 154.001524 44.633734 
L 156.022828 45.942216 
L 158.044132 47.282329 
L 160.065436 48.654072 
L 162.08674 50.057446 
L 164.108044 51.492451 
L 166.129348 52.959087 
L 168.150652 54.457353 
L 170.171956 55.98725 
L 172.19326 57.548777 
L 174.214564 59.141936 
L 176.235868 60.766725 
L 178.257172 62.423144 
L 180.278476 64.111195 
L 182.29978 65.830876 
L 184.321084 67.582188 
L 186.342388 69.36513 
L 188.363691 71.179703 
L 190.384995 73.025907 
L 192.406299 74.903742 
L 194.427603 76.813207 
L 196.448907 78.754303 
L 198.470211 80.72703 
L 200.491515 82.731387 
L 202.512819 84.767375 
L 204.534123 86.834994 
L 206.555427 88.934243 
L 208.576731 91.065123 
L 210.598035 93.227634 
L 212.619339 95.421776 
L 214.640643 97.647548 
L 216.661947 99.904951 
L 218.683251 102.193984 
L 220.704555 104.514649 
L 222.725859 106.866944 
L 224.747163 109.250869 
L 226.768466 111.666426 
L 228.78977 114.113613 
L 230.811074 116.592431 
L 232.832378 119.102879 
L 234.853682 121.644958 
L 236.874986 124.218668 
L 238.89629 126.824009 
L 240.917594 129.46098 
L 242.938898 132.129582 
L 244.960202 134.829815 
L 246.981506 137.561678 
L 249.00281 140.325172 
L 251.024114 143.120297 
L 253.045418 145.947052 
L 255.066722 148.805439 
L 257.088026 151.695455 
L 259.10933 154.617103 
L 261.130634 157.570381 
L 263.151938 160.55529 
L 265.173242 163.57183 
L 267.194545 166.62 
" clip-path="url(#p93c8e7d343)" style="fill: none; stroke: #800000; stroke-width: 1.5; stroke-linecap: square"/>
   </g>
   <g id="patch_3">
    <path d="M 57.08 174.04 
L 57.08 10.8 
" style="fill: none; stroke: #000000; stroke-width: 0.8; stroke-linejoin: miter; stroke-linecap: square"/>
   </g>
   <g id="patch_4">
    <path d="M 277.2 174.04 
L 277.2 10.8 
" style="fill: none; stroke: #000000; stroke-width: 0.8; stroke-linejoin: miter; stroke-linecap: square"/>
   </g>
   <g id="patch_5">
    <path d="M 57.08 174.04 
L 277.2 174.04 
" style="fill: none; stroke: #000000; stroke-width: 0.8; stroke-linejoin: miter; stroke-linecap: square"/>
   </g>
   <g id="patch_6">
    <path d="M 57.08 10.8 
L 277.2 10.8 
" style="fill: none; stroke: #000000; stroke-width: 0.8; stroke-linejoin: miter; stroke-linecap: square"/>
   </g>
   <g id="legend_1">
    <g id="patch_7">
     <path d="M 64.08 169.04 
L 144.08 169.04 
Q 146.08 169.04 146.08 167.04 
L 146.08 124.005625 
Q 146.08 122.005625 144.08 122.005625 
L 64.08 122.005625 
Q 62.08 122.005625 62.08 124.005625 
L 62.08 167.04 
Q 62.08 169.04 64.08 169.04 
z
" style="fill: #ffffff; opacity: 0.8; stroke: #cccccc; stroke-linejoin: miter"/>
    </g>
    <g id="line2d_24">
     <path d="M 66.08 130.104062 
L 76.08 130.104062 
L 86.08 130.104062 
" style="fill: none; stroke: #000080; stroke-width: 1.5; stroke-linecap: square"/>
    </g>
    <g id="text_13">
     <!-- $\delta_e = -10$ -->
     <g transform="translate(94.08 133.604062) scale(0.1 -0.1)">
      <defs>
       <path id="DejaVuSans-Oblique-3b4" d="M 3472 4053 
Q 3197 4272 2450 4272 
Q 1659 4272 1588 3906 
Q 1531 3619 2328 3469 
Q 2953 3353 3253 3003 
Q 3616 2581 3447 1716 
Q 3284 888 2763 400 
Q 2238 -91 1488 -91 
Q 741 -91 406 400 
Q 72 888 241 1747 
Q 363 2384 891 2900 
Q 1097 3100 1353 3213 
Q 913 3459 1000 3900 
Q 1166 4750 2544 4750 
Q 3234 4750 3566 4531 
L 3472 4053 
z
M 1753 3056 
Q 1525 2966 1306 2738 
Q 969 2384 847 1747 
Q 722 1113 919 756 
Q 1119 397 1584 397 
Q 2044 397 2381 759 
Q 2722 1122 2838 1716 
Q 2956 2338 2731 2638 
Q 2491 2959 2103 2994 
Q 1906 3013 1753 3056 
z
" transform="scale(0.015625)"/>
       <path id="DejaVuSans-Oblique-65" d="M 3078 2063 
Q 3088 2113 3092 2166 
Q 3097 2219 3097 2272 
Q 3097 2653 2873 2875 
Q 2650 3097 2266 3097 
Q 1838 3097 1509 2826 
Q 1181 2556 1013 2059 
L 3078 2063 
z
M 3578 1613 
L 903 1613 
Q 884 1494 878 1425 
Q 872 1356 872 1306 
Q 872 872 1139 634 
Q 1406 397 1894 397 
Q 2269 397 2603 481 
Q 2938 566 3225 728 
L 3116 159 
Q 2806 34 2476 -28 
Q 2147 -91 1806 -91 
Q 1078 -91 686 257 
Q 294 606 294 1247 
Q 294 1794 489 2264 
Q 684 2734 1063 3103 
Q 1306 3334 1642 3459 
Q 1978 3584 2356 3584 
Q 2950 3584 3301 3228 
Q 3653 2872 3653 2272 
Q 3653 2128 3634 1964 
Q 3616 1800 3578 1613 
z
" transform="scale(0.015625)"/>
       <path id="DejaVuSans-3d" d="M 678 2906 
L 4684 2906 
L 4684 2381 
L 678 2381 
L 678 2906 
z
M 678 1631 
L 4684 1631 
L 4684 1100 
L 678 1100 
L 678 1631 
z
" transform="scale(0.015625)"/>
      </defs>
      <use xlink:href="#DejaVuSans-Oblique-3b4" transform="translate(0 0.78125)"/>
      <use xlink:href="#DejaVuSans-Oblique-65" transform="translate(61.181641 -15.625) scale(0.7)"/>
      <use xlink:href="#DejaVuSans-3d" transform="translate(126.464844 0.78125)"/>
      <use xlink:href="#DejaVuSans-2212" transform="translate(249.21875 0.78125)"/>
      <use xlink:href="#DejaVuSans-31" transform="translate(352.490234 0.78125)"/>
      <use xlink:href="#DejaVuSans-30" transform="translate(416.113281 0.78125)"/>
     </g>
    </g>
    <g id="line2d_25">
     <path d="M 66.08 144.782187 
L 76.08 144.782187 
L 86.08 144.782187 
" style="fill: none; stroke: #7dff7a; stroke-width: 1.5; stroke-linecap: square"/>
    </g>
    <g id="text_14">
     <!-- $\delta_e = 0$ -->
     <g transform="translate(94.08 148.282187) scale(0.1 -0.1)">
      <use xlink:href="#DejaVuSans-Oblique-3b4" transform="translate(0 0.78125)"/>
      <use xlink:href="#DejaVuSans-Oblique-65" transform="translate(61.181641 -15.625) scale(0.7)"/>
      <use xlink:href="#DejaVuSans-3d" transform="translate(126.464844 0.78125)"/>
      <use xlink:href="#DejaVuSans-30" transform="translate(229.736328 0.78125)"/>
     </g>
    </g>
    <g id="line2d_26">
     <path d="M 66.08 159.460312 
L 76.08 159.460312 
L 86.08 159.460312 
" style="fill: none; stroke: #800000; stroke-width: 1.5; stroke-linecap: square"/>
    </g>
    <g id="text_15">
     <!-- $\delta_e = 10$ -->
     <g transform="translate(94.08 162.960312) scale(0.1 -0.1)">
      <use xlink:href="#DejaVuSans-Oblique-3b4" transform="translate(0 0.78125)"/>
      <use xlink:href="#DejaVuSans-Oblique-65" transform="translate(61.181641 -15.625) scale(0.7)"/>
      <use xlink:href="#DejaVuSans-3d" transform="translate(126.464844 0.78125)"/>
      <use xlink:href="#DejaVuSans-31" transform="translate(229.736328 0.78125)"/>
      <use xlink:href="#DejaVuSans-30" transform="translate(293.359375 0.78125)"/>
     </g>
    </g>
   </g>
  </g>
 </g>
 <defs>
  <clipPath id="p93c8e7d343">
   <rect x="57.08" y="10.8" width="220.12" height="163.24"/>
  </clipPath>
 </defs>
</svg>
