<?xml version="1.0" encoding="utf-8" standalone="no"?>
<!DOCTYPE svg PUBLIC "-//W3C//DTD SVG 1.1//EN"
  "http://www.w3.org/Graphics/SVG/1.1/DTD/svg11.dtd">
<svg xmlns:xlink="http://www.w3.org/1999/xlink" width="432pt" height="216pt" viewBox="0 0 432 216" xmlns="http://www.w3.org/2000/svg" version="1.1">
 <metadata>
  <rdf:RDF xmlns:dc="http://purl.org/dc/elements/1.1/" xmlns:cc="http://creativecommons.org/ns#" xmlns:rdf="http://www.w3.org/1999/02/22-rdf-syntax-ns#">
   <cc:Work>
    <dc:type rdf:resource="http://purl.org/dc/dcmitype/StillImage"/>
    <dc:date>2025-03-31T00:27:32.025984</dc:date>
    <dc:format>image/svg+xml</dc:format>
    <dc:creator>
     <cc:Agent>
      <dc:title>Matplotlib v3.9.2, https://matplotlib.org/</dc:title>
     </cc:Agent>
    </dc:creator>
   </cc:Work>
  </rdf:RDF>
 </metadata>
 <defs>
  <style type="text/css">*{stroke-linejoin: round; stroke-linecap: butt}</style>
 </defs>
 <g id="figure_1">
  <g id="patch_1">
   <path d="M 0 216 
L 432 216 
L 432 0 
L 0 0 
z
" style="fill: #ffffff"/>
  </g>
  <g id="axes_1">
   <g id="patch_2">
    <path d="M 71.84 174.04 
L 287.617856 174.04 
L 287.617856 14.541632 
L 71.84 14.541632 
z
" style="fill: #ffffff"/>
   </g>
   <g id="matplotlib.axis_1">
    <g id="xtick_1">
     <g id="line2d_1">
      <path d="M 81.648084 174.04 
L 81.648084 14.541632 
" clip-path="url(#pa47b6e9ad9)" style="fill: none; stroke: #b0b0b0; stroke-width: 0.8; stroke-linecap: square"/>
     </g>
     <g id="line2d_2">
      <defs>
       <path id="m090e1990e0" d="M 0 0 
L 0 3.5 
" style="stroke: #000000; stroke-width: 0.8"/>
      </defs>
      <g>
       <use xlink:href="#m090e1990e0" x="81.648084" y="174.04" style="stroke: #000000; stroke-width: 0.8"/>
      </g>
     </g>
     <g id="text_1">
      <!-- −4 -->
      <g transform="translate(74.276991 188.638438) scale(0.1 -0.1)">
       <defs>
        <path id="DejaVuSans-2212" d="M 678 2272 
L 4684 2272 
L 4684 1741 
L 678 1741 
L 678 2272 
z
" transform="scale(0.015625)"/>
        <path id="DejaVuSans-34" d="M 2419 4116 
L 825 1625 
L 2419 1625 
L 2419 4116 
z
M 2253 4666 
L 3047 4666 
L 3047 1625 
L 3713 1625 
L 3713 1100 
L 3047 1100 
L 3047 0 
L 2419 0 
L 2419 1100 
L 313 1100 
L 313 1709 
L 2253 4666 
z
" transform="scale(0.015625)"/>
       </defs>
       <use xlink:href="#DejaVuSans-2212"/>
       <use xlink:href="#DejaVuSans-34" x="83.789062"/>
      </g>
     </g>
    </g>
    <g id="xtick_2">
     <g id="line2d_3">
      <path d="M 117.313846 174.04 
L 117.313846 14.541632 
" clip-path="url(#pa47b6e9ad9)" style="fill: none; stroke: #b0b0b0; stroke-width: 0.8; stroke-linecap: square"/>
     </g>
     <g id="line2d_4">
      <g>
       <use xlink:href="#m090e1990e0" x="117.313846" y="174.04" style="stroke: #000000; stroke-width: 0.8"/>
      </g>
     </g>
     <g id="text_2">
      <!-- −2 -->
      <g transform="translate(109.942752 188.638438) scale(0.1 -0.1)">
       <defs>
        <path id="DejaVuSans-32" d="M 1228 531 
L 3431 531 
L 3431 0 
L 469 0 
L 469 531 
Q 828 903 1448 1529 
Q 2069 2156 2228 2338 
Q 2531 2678 2651 2914 
Q 2772 3150 2772 3378 
Q 2772 3750 2511 3984 
Q 2250 4219 1831 4219 
Q 1534 4219 1204 4116 
Q 875 4013 500 3803 
L 500 4441 
Q 881 4594 1212 4672 
Q 1544 4750 1819 4750 
Q 2544 4750 2975 4387 
Q 3406 4025 3406 3419 
Q 3406 3131 3298 2873 
Q 3191 2616 2906 2266 
Q 2828 2175 2409 1742 
Q 1991 1309 1228 531 
z
" transform="scale(0.015625)"/>
       </defs>
       <use xlink:href="#DejaVuSans-2212"/>
       <use xlink:href="#DejaVuSans-32" x="83.789062"/>
      </g>
     </g>
    </g>
    <g id="xtick_3">
     <g id="line2d_5">
      <path d="M 152.979607 174.04 
L 152.979607 14.541632 
" clip-path="url(#pa47b6e9ad9)" style="fill: none; stroke: #b0b0b0; stroke-width: 0.8; stroke-linecap: square"/>
     </g>
     <g id="line2d_6">
      <g>
       <use xlink:href="#m090e1990e0" x="152.979607" y="174.04" style="stroke: #000000; stroke-width: 0.8"/>
      </g>
     </g>
     <g id="text_3">
      <!-- 0 -->
      <g transform="translate(149.798357 188.638438) scale(0.1 -0.1)">
       <defs>
        <path id="DejaVuSans-30" d="M 2034 4250 
Q 1547 4250 1301 3770 
Q 1056 3291 1056 2328 
Q 1056 1369 1301 889 
Q 1547 409 2034 409 
Q 2525 409 2770 889 
Q 3016 1369 3016 2328 
Q 3016 3291 2770 3770 
Q 2525 4250 2034 4250 
z
M 2034 4750 
Q 2819 4750 3233 4129 
Q 3647 3509 3647 2328 
Q 3647 1150 3233 529 
Q 2819 -91 2034 -91 
Q 1250 -91 836 529 
Q 422 1150 422 2328 
Q 422 3509 836 4129 
Q 1250 4750 2034 4750 
z
" transform="scale(0.015625)"/>
       </defs>
       <use xlink:href="#DejaVuSans-30"/>
      </g>
     </g>
    </g>
    <g id="xtick_4">
     <g id="line2d_7">
      <path d="M 188.645368 174.04 
L 188.645368 14.541632 
" clip-path="url(#pa47b6e9ad9)" style="fill: none; stroke: #b0b0b0; stroke-width: 0.8; stroke-linecap: square"/>
     </g>
     <g id="line2d_8">
      <g>
       <use xlink:href="#m090e1990e0" x="188.645368" y="174.04" style="stroke: #000000; stroke-width: 0.8"/>
      </g>
     </g>
     <g id="text_4">
      <!-- 2 -->
      <g transform="translate(185.464118 188.638438) scale(0.1 -0.1)">
       <use xlink:href="#DejaVuSans-32"/>
      </g>
     </g>
    </g>
    <g id="xtick_5">
     <g id="line2d_9">
      <path d="M 224.31113 174.04 
L 224.31113 14.541632 
" clip-path="url(#pa47b6e9ad9)" style="fill: none; stroke: #b0b0b0; stroke-width: 0.8; stroke-linecap: square"/>
     </g>
     <g id="line2d_10">
      <g>
       <use xlink:href="#m090e1990e0" x="224.31113" y="174.04" style="stroke: #000000; stroke-width: 0.8"/>
      </g>
     </g>
     <g id="text_5">
      <!-- 4 -->
      <g transform="translate(221.12988 188.638438) scale(0.1 -0.1)">
       <use xlink:href="#DejaVuSans-34"/>
      </g>
     </g>
    </g>
    <g id="xtick_6">
     <g id="line2d_11">
      <path d="M 259.976891 174.04 
L 259.976891 14.541632 
" clip-path="url(#pa47b6e9ad9)" style="fill: none; stroke: #b0b0b0; stroke-width: 0.8; stroke-linecap: square"/>
     </g>
     <g id="line2d_12">
      <g>
       <use xlink:href="#m090e1990e0" x="259.976891" y="174.04" style="stroke: #000000; stroke-width: 0.8"/>
      </g>
     </g>
     <g id="text_6">
      <!-- 6 -->
      <g transform="translate(256.795641 188.638438) scale(0.1 -0.1)">
       <defs>
        <path id="DejaVuSans-36" d="M 2113 2584 
Q 1688 2584 1439 2293 
Q 1191 2003 1191 1497 
Q 1191 994 1439 701 
Q 1688 409 2113 409 
Q 2538 409 2786 701 
Q 3034 994 3034 1497 
Q 3034 2003 2786 2293 
Q 2538 2584 2113 2584 
z
M 3366 4563 
L 3366 3988 
Q 3128 4100 2886 4159 
Q 2644 4219 2406 4219 
Q 1781 4219 1451 3797 
Q 1122 3375 1075 2522 
Q 1259 2794 1537 2939 
Q 1816 3084 2150 3084 
Q 2853 3084 3261 2657 
Q 3669 2231 3669 1497 
Q 3669 778 3244 343 
Q 2819 -91 2113 -91 
Q 1303 -91 875 529 
Q 447 1150 447 2328 
Q 447 3434 972 4092 
Q 1497 4750 2381 4750 
Q 2619 4750 2861 4703 
Q 3103 4656 3366 4563 
z
" transform="scale(0.015625)"/>
       </defs>
       <use xlink:href="#DejaVuSans-36"/>
      </g>
     </g>
    </g>
    <g id="text_7">
     <!-- $\alpha$ -->
     <g transform="translate(176.428928 202.316563) scale(0.1 -0.1)">
      <defs>
       <path id="DejaVuSans-Oblique-3b1" d="M 2619 1628 
L 2622 2350 
Q 2625 3088 2069 3091 
Q 1653 3094 1394 2747 
Q 1069 2319 959 1747 
Q 825 1059 994 731 
Q 1169 397 1547 397 
Q 1966 397 2319 1063 
L 2619 1628 
z
M 2166 3578 
Q 3141 3594 3128 2584 
Q 3128 2584 3616 3500 
L 4128 3500 
L 3119 1603 
L 3109 919 
Q 3109 766 3194 638 
Q 3291 488 3391 488 
L 3669 488 
L 3575 0 
L 3228 0 
Q 2934 0 2722 263 
Q 2622 394 2619 669 
Q 2416 334 2066 50 
Q 1900 -81 1453 -78 
Q 722 -72 456 397 
Q 184 884 353 1747 
Q 534 2675 1009 3097 
Q 1544 3569 2166 3578 
z
" transform="scale(0.015625)"/>
      </defs>
      <use xlink:href="#DejaVuSans-Oblique-3b1" transform="translate(0 0.84375)"/>
     </g>
    </g>
   </g>
   <g id="matplotlib.axis_2">
    <g id="ytick_1">
     <g id="line2d_13">
      <path d="M 71.84 155.889373 
L 287.617856 155.889373 
" clip-path="url(#pa47b6e9ad9)" style="fill: none; stroke: #b0b0b0; stroke-width: 0.8; stroke-linecap: square"/>
     </g>
     <g id="line2d_14">
      <defs>
       <path id="m0b3c1bef32" d="M 0 0 
L -3.5 0 
" style="stroke: #000000; stroke-width: 0.8"/>
      </defs>
      <g>
       <use xlink:href="#m0b3c1bef32" x="71.84" y="155.889373" style="stroke: #000000; stroke-width: 0.8"/>
      </g>
     </g>
     <g id="text_8">
      <!-- −0.075 -->
      <g transform="translate(27.832188 159.688592) scale(0.1 -0.1)">
       <defs>
        <path id="DejaVuSans-2e" d="M 684 794 
L 1344 794 
L 1344 0 
L 684 0 
L 684 794 
z
" transform="scale(0.015625)"/>
        <path id="DejaVuSans-37" d="M 525 4666 
L 3525 4666 
L 3525 4397 
L 1831 0 
L 1172 0 
L 2766 4134 
L 525 4134 
L 525 4666 
z
" transform="scale(0.015625)"/>
        <path id="DejaVuSans-35" d="M 691 4666 
L 3169 4666 
L 3169 4134 
L 1269 4134 
L 1269 2991 
Q 1406 3038 1543 3061 
Q 1681 3084 1819 3084 
Q 2600 3084 3056 2656 
Q 3513 2228 3513 1497 
Q 3513 744 3044 326 
Q 2575 -91 1722 -91 
Q 1428 -91 1123 -41 
Q 819 9 494 109 
L 494 744 
Q 775 591 1075 516 
Q 1375 441 1709 441 
Q 2250 441 2565 725 
Q 2881 1009 2881 1497 
Q 2881 1984 2565 2268 
Q 2250 2553 1709 2553 
Q 1456 2553 1204 2497 
Q 953 2441 691 2322 
L 691 4666 
z
" transform="scale(0.015625)"/>
       </defs>
       <use xlink:href="#DejaVuSans-2212"/>
       <use xlink:href="#DejaVuSans-30" x="83.789062"/>
       <use xlink:href="#DejaVuSans-2e" x="147.412109"/>
       <use xlink:href="#DejaVuSans-30" x="179.199219"/>
       <use xlink:href="#DejaVuSans-37" x="242.822266"/>
       <use xlink:href="#DejaVuSans-35" x="306.445312"/>
      </g>
     </g>
    </g>
    <g id="ytick_2">
     <g id="line2d_15">
      <path d="M 71.84 132.366318 
L 287.617856 132.366318 
" clip-path="url(#pa47b6e9ad9)" style="fill: none; stroke: #b0b0b0; stroke-width: 0.8; stroke-linecap: square"/>
     </g>
     <g id="line2d_16">
      <g>
       <use xlink:href="#m0b3c1bef32" x="71.84" y="132.366318" style="stroke: #000000; stroke-width: 0.8"/>
      </g>
     </g>
     <g id="text_9">
      <!-- −0.050 -->
      <g transform="translate(27.832188 136.165537) scale(0.1 -0.1)">
       <use xlink:href="#DejaVuSans-2212"/>
       <use xlink:href="#DejaVuSans-30" x="83.789062"/>
       <use xlink:href="#DejaVuSans-2e" x="147.412109"/>
       <use xlink:href="#DejaVuSans-30" x="179.199219"/>
       <use xlink:href="#DejaVuSans-35" x="242.822266"/>
       <use xlink:href="#DejaVuSans-30" x="306.445312"/>
      </g>
     </g>
    </g>
    <g id="ytick_3">
     <g id="line2d_17">
      <path d="M 71.84 108.843263 
L 287.617856 108.843263 
" clip-path="url(#pa47b6e9ad9)" style="fill: none; stroke: #b0b0b0; stroke-width: 0.8; stroke-linecap: square"/>
     </g>
     <g id="line2d_18">
      <g>
       <use xlink:href="#m0b3c1bef32" x="71.84" y="108.843263" style="stroke: #000000; stroke-width: 0.8"/>
      </g>
     </g>
     <g id="text_10">
      <!-- −0.025 -->
      <g transform="translate(27.832188 112.642482) scale(0.1 -0.1)">
       <use xlink:href="#DejaVuSans-2212"/>
       <use xlink:href="#DejaVuSans-30" x="83.789062"/>
       <use xlink:href="#DejaVuSans-2e" x="147.412109"/>
       <use xlink:href="#DejaVuSans-30" x="179.199219"/>
       <use xlink:href="#DejaVuSans-32" x="242.822266"/>
       <use xlink:href="#DejaVuSans-35" x="306.445312"/>
      </g>
     </g>
    </g>
    <g id="ytick_4">
     <g id="line2d_19">
      <path d="M 71.84 85.320208 
L 287.617856 85.320208 
" clip-path="url(#pa47b6e9ad9)" style="fill: none; stroke: #b0b0b0; stroke-width: 0.8; stroke-linecap: square"/>
     </g>
     <g id="line2d_20">
      <g>
       <use xlink:href="#m0b3c1bef32" x="71.84" y="85.320208" style="stroke: #000000; stroke-width: 0.8"/>
      </g>
     </g>
     <g id="text_11">
      <!-- 0.000 -->
      <g transform="translate(36.211875 89.119427) scale(0.1 -0.1)">
       <use xlink:href="#DejaVuSans-30"/>
       <use xlink:href="#DejaVuSans-2e" x="63.623047"/>
       <use xlink:href="#DejaVuSans-30" x="95.410156"/>
       <use xlink:href="#DejaVuSans-30" x="159.033203"/>
       <use xlink:href="#DejaVuSans-30" x="222.65625"/>
      </g>
     </g>
    </g>
    <g id="ytick_5">
     <g id="line2d_21">
      <path d="M 71.84 61.797154 
L 287.617856 61.797154 
" clip-path="url(#pa47b6e9ad9)" style="fill: none; stroke: #b0b0b0; stroke-width: 0.8; stroke-linecap: square"/>
     </g>
     <g id="line2d_22">
      <g>
       <use xlink:href="#m0b3c1bef32" x="71.84" y="61.797154" style="stroke: #000000; stroke-width: 0.8"/>
      </g>
     </g>
     <g id="text_12">
      <!-- 0.025 -->
      <g transform="translate(36.211875 65.596372) scale(0.1 -0.1)">
       <use xlink:href="#DejaVuSans-30"/>
       <use xlink:href="#DejaVuSans-2e" x="63.623047"/>
       <use xlink:href="#DejaVuSans-30" x="95.410156"/>
       <use xlink:href="#DejaVuSans-32" x="159.033203"/>
       <use xlink:href="#DejaVuSans-35" x="222.65625"/>
      </g>
     </g>
    </g>
    <g id="ytick_6">
     <g id="line2d_23">
      <path d="M 71.84 38.274099 
L 287.617856 38.274099 
" clip-path="url(#pa47b6e9ad9)" style="fill: none; stroke: #b0b0b0; stroke-width: 0.8; stroke-linecap: square"/>
     </g>
     <g id="line2d_24">
      <g>
       <use xlink:href="#m0b3c1bef32" x="71.84" y="38.274099" style="stroke: #000000; stroke-width: 0.8"/>
      </g>
     </g>
     <g id="text_13">
      <!-- 0.050 -->
      <g transform="translate(36.211875 42.073317) scale(0.1 -0.1)">
       <use xlink:href="#DejaVuSans-30"/>
       <use xlink:href="#DejaVuSans-2e" x="63.623047"/>
       <use xlink:href="#DejaVuSans-30" x="95.410156"/>
       <use xlink:href="#DejaVuSans-35" x="159.033203"/>
       <use xlink:href="#DejaVuSans-30" x="222.65625"/>
      </g>
     </g>
    </g>
    <g id="ytick_7">
     <g id="line2d_25">
      <path d="M 71.84 14.751044 
L 287.617856 14.751044 
" clip-path="url(#pa47b6e9ad9)" style="fill: none; stroke: #b0b0b0; stroke-width: 0.8; stroke-linecap: square"/>
     </g>
     <g id="line2d_26">
      <g>
       <use xlink:href="#m0b3c1bef32" x="71.84" y="14.751044" style="stroke: #000000; stroke-width: 0.8"/>
      </g>
     </g>
     <g id="text_14">
      <!-- 0.075 -->
      <g transform="translate(36.211875 18.550262) scale(0.1 -0.1)">
       <use xlink:href="#DejaVuSans-30"/>
       <use xlink:href="#DejaVuSans-2e" x="63.623047"/>
       <use xlink:href="#DejaVuSans-30" x="95.410156"/>
       <use xlink:href="#DejaVuSans-37" x="159.033203"/>
       <use xlink:href="#DejaVuSans-35" x="222.65625"/>
      </g>
     </g>
    </g>
    <g id="text_15">
     <!-- d$C_L$ / d$J$ -->
     <g transform="translate(21.732188 112.590816) rotate(-90) scale(0.1 -0.1)">
      <defs>
       <path id="DejaVuSans-64" d="M 2906 2969 
L 2906 4863 
L 3481 4863 
L 3481 0 
L 2906 0 
L 2906 525 
Q 2725 213 2448 61 
Q 2172 -91 1784 -91 
Q 1150 -91 751 415 
Q 353 922 353 1747 
Q 353 2572 751 3078 
Q 1150 3584 1784 3584 
Q 2172 3584 2448 3432 
Q 2725 3281 2906 2969 
z
M 947 1747 
Q 947 1113 1208 752 
Q 1469 391 1925 391 
Q 2381 391 2643 752 
Q 2906 1113 2906 1747 
Q 2906 2381 2643 2742 
Q 2381 3103 1925 3103 
Q 1469 3103 1208 2742 
Q 947 2381 947 1747 
z
" transform="scale(0.015625)"/>
       <path id="DejaVuSans-Oblique-43" d="M 4447 4306 
L 4319 3641 
Q 4019 3944 3683 4091 
Q 3347 4238 2956 4238 
Q 2422 4238 2017 3981 
Q 1613 3725 1319 3200 
Q 1131 2863 1032 2486 
Q 934 2109 934 1728 
Q 934 1091 1264 756 
Q 1594 422 2222 422 
Q 2656 422 3056 561 
Q 3456 700 3834 978 
L 3688 231 
Q 3316 72 2936 -9 
Q 2556 -91 2175 -91 
Q 1278 -91 773 396 
Q 269 884 269 1753 
Q 269 2309 461 2846 
Q 653 3384 1013 3828 
Q 1394 4300 1883 4525 
Q 2372 4750 3022 4750 
Q 3422 4750 3780 4639 
Q 4138 4528 4447 4306 
z
" transform="scale(0.015625)"/>
       <path id="DejaVuSans-Oblique-4c" d="M 1075 4666 
L 1709 4666 
L 909 525 
L 3181 525 
L 3078 0 
L 172 0 
L 1075 4666 
z
" transform="scale(0.015625)"/>
       <path id="DejaVuSans-20" transform="scale(0.015625)"/>
       <path id="DejaVuSans-2f" d="M 1625 4666 
L 2156 4666 
L 531 -594 
L 0 -594 
L 1625 4666 
z
" transform="scale(0.015625)"/>
       <path id="DejaVuSans-Oblique-4a" d="M 1069 4666 
L 1703 4666 
L 856 325 
Q 691 -522 298 -901 
Q -94 -1281 -800 -1281 
L -1050 -1281 
L -947 -750 
L -750 -750 
Q -328 -750 -109 -509 
Q 109 -269 225 325 
L 1069 4666 
z
" transform="scale(0.015625)"/>
      </defs>
      <use xlink:href="#DejaVuSans-64" transform="translate(0 0.015625)"/>
      <use xlink:href="#DejaVuSans-Oblique-43" transform="translate(63.476562 0.015625)"/>
      <use xlink:href="#DejaVuSans-Oblique-4c" transform="translate(133.300781 -16.390625) scale(0.7)"/>
      <use xlink:href="#DejaVuSans-20" transform="translate(175.03418 0.015625)"/>
      <use xlink:href="#DejaVuSans-2f" transform="translate(206.821289 0.015625)"/>
      <use xlink:href="#DejaVuSans-20" transform="translate(240.512695 0.015625)"/>
      <use xlink:href="#DejaVuSans-64" transform="translate(272.299805 0.015625)"/>
      <use xlink:href="#DejaVuSans-Oblique-4a" transform="translate(335.776367 0.015625)"/>
     </g>
    </g>
   </g>
   <g id="line2d_27">
    <path d="M 81.648084 21.791558 
L 83.629516 22.832706 
L 85.610947 23.865948 
L 87.592378 24.891285 
L 89.573809 25.908716 
L 91.55524 26.918241 
L 93.536671 27.91986 
L 95.518103 28.913573 
L 97.499534 29.899381 
L 99.480965 30.877283 
L 101.462396 31.847279 
L 103.443827 32.809369 
L 105.425259 33.763553 
L 107.40669 34.709831 
L 109.388121 35.648204 
L 111.369552 36.57867 
L 113.350983 37.501231 
L 115.332414 38.415887 
L 117.313846 39.322636 
L 119.295277 40.221479 
L 121.276708 41.112417 
L 123.258139 41.995449 
L 125.23957 42.870575 
L 127.221002 43.737795 
L 129.202433 44.597109 
L 131.183864 45.448518 
L 133.165295 46.29202 
L 135.146726 47.127617 
L 137.128157 47.955308 
L 139.109589 48.775093 
L 141.09102 49.586973 
L 143.072451 50.390946 
L 145.053882 51.187014 
L 147.035313 51.975176 
L 149.016745 52.755432 
L 150.998176 53.527782 
L 152.979607 54.292227 
L 154.961038 55.048765 
L 156.942469 55.797398 
L 158.9239 56.538125 
L 160.905332 57.270946 
L 162.886763 57.995861 
L 164.868194 58.712871 
L 166.849625 59.421975 
L 168.831056 60.123172 
L 170.812488 60.816464 
L 172.793919 61.501851 
L 174.77535 62.179331 
L 176.756781 62.848905 
L 178.738212 63.510574 
L 180.719644 64.164337 
L 182.701075 64.810194 
L 184.682506 65.448145 
L 186.663937 66.078191 
L 188.645368 66.70033 
L 190.626799 67.314564 
L 192.608231 67.920892 
L 194.589662 68.519314 
L 196.571093 69.10983 
L 198.552524 69.692441 
L 200.533955 70.267145 
L 202.515387 70.833944 
L 204.496818 71.392837 
L 206.478249 71.943824 
L 208.45968 72.486906 
L 210.441111 73.022081 
L 212.422542 73.549351 
L 214.403974 74.068715 
L 216.385405 74.580173 
L 218.366836 75.083725 
L 220.348267 75.579371 
L 222.329698 76.067112 
L 224.31113 76.546947 
L 226.292561 77.018876 
L 228.273992 77.482899 
L 230.255423 77.939016 
L 232.236854 78.387227 
L 234.218285 78.827533 
L 236.199717 79.259933 
L 238.181148 79.684427 
L 240.162579 80.101015 
L 242.14401 80.509697 
L 244.125441 80.910474 
L 246.106873 81.303344 
L 248.088304 81.688309 
L 250.069735 82.065368 
L 252.051166 82.434521 
L 254.032597 82.795769 
L 256.014028 83.14911 
L 257.99546 83.494546 
L 259.976891 83.832076 
L 261.958322 84.1617 
L 263.939753 84.483418 
L 265.921184 84.797231 
L 267.902616 85.103137 
L 269.884047 85.401138 
L 271.865478 85.691233 
L 273.846909 85.973422 
L 275.82834 86.247705 
L 277.809771 86.514083 
" clip-path="url(#pa47b6e9ad9)" style="fill: none; stroke: #000080; stroke-width: 1.5; stroke-linecap: square"/>
   </g>
   <g id="line2d_28">
    <path d="M 81.648084 37.714448 
L 83.629516 39.469821 
L 85.610947 41.207618 
L 87.592378 42.927838 
L 89.573809 44.63048 
L 91.55524 46.315546 
L 93.536671 47.983035 
L 95.518103 49.632947 
L 97.499534 51.265282 
L 99.480965 52.88004 
L 101.462396 54.477221 
L 103.443827 56.056825 
L 105.425259 57.618852 
L 107.40669 59.163303 
L 109.388121 60.690176 
L 111.369552 62.199473 
L 113.350983 63.691192 
L 115.332414 65.165335 
L 117.313846 66.6219 
L 119.295277 68.060889 
L 121.276708 69.482301 
L 123.258139 70.886135 
L 125.23957 72.272393 
L 127.221002 73.641074 
L 129.202433 74.992178 
L 131.183864 76.325705 
L 133.165295 77.641655 
L 135.146726 78.940029 
L 137.128157 80.220825 
L 139.109589 81.484044 
L 141.09102 82.729687 
L 143.072451 83.957752 
L 145.053882 85.168241 
L 147.035313 86.361152 
L 149.016745 87.536487 
L 150.998176 88.694245 
L 152.979607 89.834425 
L 154.961038 90.957029 
L 156.942469 92.062056 
L 158.9239 93.149506 
L 160.905332 94.219379 
L 162.886763 95.271675 
L 164.868194 96.306394 
L 166.849625 97.323537 
L 168.831056 98.323102 
L 170.812488 99.30509 
L 172.793919 100.269502 
L 174.77535 101.216336 
L 176.756781 102.145594 
L 178.738212 103.057274 
L 180.719644 103.951378 
L 182.701075 104.827905 
L 184.682506 105.686854 
L 186.663937 106.528227 
L 188.645368 107.352023 
L 190.626799 108.158242 
L 192.608231 108.946884 
L 194.589662 109.717949 
L 196.571093 110.471438 
L 198.552524 111.207349 
L 200.533955 111.925683 
L 202.515387 112.626441 
L 204.496818 113.309621 
L 206.478249 113.975225 
L 208.45968 114.623251 
L 210.441111 115.253701 
L 212.422542 115.866573 
L 214.403974 116.461869 
L 216.385405 117.039588 
L 218.366836 117.59973 
L 220.348267 118.142295 
L 222.329698 118.667283 
L 224.31113 119.174694 
L 226.292561 119.664528 
L 228.273992 120.136785 
L 230.255423 120.591466 
L 232.236854 121.028569 
L 234.218285 121.448095 
L 236.199717 121.850045 
L 238.181148 122.234417 
L 240.162579 122.601213 
L 242.14401 122.950432 
L 244.125441 123.282074 
L 246.106873 123.596138 
L 248.088304 123.892626 
L 250.069735 124.171537 
L 252.051166 124.432871 
L 254.032597 124.676628 
L 256.014028 124.902808 
L 257.99546 125.111411 
L 259.976891 125.302438 
L 261.958322 125.475887 
L 263.939753 125.631759 
L 265.921184 125.770055 
L 267.902616 125.890773 
L 269.884047 125.993915 
L 271.865478 126.07948 
L 273.846909 126.147467 
L 275.82834 126.197878 
L 277.809771 126.230712 
" clip-path="url(#pa47b6e9ad9)" style="fill: none; stroke: #7dff7a; stroke-width: 1.5; stroke-linecap: square"/>
   </g>
   <g id="line2d_29">
    <path d="M 81.648084 53.637338 
L 83.629516 56.106937 
L 85.610947 58.549288 
L 87.592378 60.96439 
L 89.573809 63.352245 
L 91.55524 65.712852 
L 93.536671 68.04621 
L 95.518103 70.352321 
L 97.499534 72.631183 
L 99.480965 74.882797 
L 101.462396 77.107164 
L 103.443827 79.304282 
L 105.425259 81.474152 
L 107.40669 83.616774 
L 109.388121 85.732149 
L 111.369552 87.820275 
L 113.350983 89.881153 
L 115.332414 91.914783 
L 117.313846 93.921165 
L 119.295277 95.900299 
L 121.276708 97.852184 
L 123.258139 99.776822 
L 125.23957 101.674212 
L 127.221002 103.544354 
L 129.202433 105.387247 
L 131.183864 107.202893 
L 133.165295 108.991291 
L 135.146726 110.75244 
L 137.128157 112.486342 
L 139.109589 114.192995 
L 141.09102 115.872401 
L 143.072451 117.524558 
L 145.053882 119.149467 
L 147.035313 120.747128 
L 149.016745 122.317542 
L 150.998176 123.860707 
L 152.979607 125.376624 
L 154.961038 126.865293 
L 156.942469 128.326714 
L 158.9239 129.760887 
L 160.905332 131.167812 
L 162.886763 132.547489 
L 164.868194 133.899918 
L 166.849625 135.225099 
L 168.831056 136.523031 
L 170.812488 137.793716 
L 172.793919 139.037153 
L 174.77535 140.253341 
L 176.756781 141.442282 
L 178.738212 142.603974 
L 180.719644 143.738419 
L 182.701075 144.845615 
L 184.682506 145.925564 
L 186.663937 146.978264 
L 188.645368 148.003716 
L 190.626799 149.00192 
L 192.608231 149.972877 
L 194.589662 150.916585 
L 196.571093 151.833045 
L 198.552524 152.722257 
L 200.533955 153.584221 
L 202.515387 154.418937 
L 204.496818 155.226405 
L 206.478249 156.006625 
L 208.45968 156.759597 
L 210.441111 157.48532 
L 212.422542 158.183796 
L 214.403974 158.855024 
L 216.385405 159.499003 
L 218.366836 160.115735 
L 220.348267 160.705218 
L 222.329698 161.267454 
L 224.31113 161.802441 
L 226.292561 162.310181 
L 228.273992 162.790672 
L 230.255423 163.243916 
L 232.236854 163.669911 
L 234.218285 164.068658 
L 236.199717 164.440157 
L 238.181148 164.784408 
L 240.162579 165.101411 
L 242.14401 165.391166 
L 244.125441 165.653673 
L 246.106873 165.888932 
L 248.088304 166.096943 
L 250.069735 166.277706 
L 252.051166 166.431221 
L 254.032597 166.557488 
L 256.014028 166.656506 
L 257.99546 166.728277 
L 259.976891 166.7728 
L 261.958322 166.790074 
L 263.939753 166.780101 
L 265.921184 166.742879 
L 267.902616 166.67841 
L 269.884047 166.586692 
L 271.865478 166.467726 
L 273.846909 166.321513 
L 275.82834 166.148051 
L 277.809771 165.947341 
" clip-path="url(#pa47b6e9ad9)" style="fill: none; stroke: #800000; stroke-width: 1.5; stroke-linecap: square"/>
   </g>
   <g id="patch_3">
    <path d="M 71.84 174.04 
L 71.84 14.541632 
" style="fill: none; stroke: #000000; stroke-width: 0.8; stroke-linejoin: miter; stroke-linecap: square"/>
   </g>
   <g id="patch_4">
    <path d="M 287.617856 174.04 
L 287.617856 14.541632 
" style="fill: none; stroke: #000000; stroke-width: 0.8; stroke-linejoin: miter; stroke-linecap: square"/>
   </g>
   <g id="patch_5">
    <path d="M 71.84 174.04 
L 287.617856 174.04 
" style="fill: none; stroke: #000000; stroke-width: 0.8; stroke-linejoin: miter; stroke-linecap: square"/>
   </g>
   <g id="patch_6">
    <path d="M 71.84 14.541632 
L 287.617856 14.541632 
" style="fill: none; stroke: #000000; stroke-width: 0.8; stroke-linejoin: miter; stroke-linecap: square"/>
   </g>
   <g id="legend_1">
    <g id="patch_7">
     <path d="M 296.617856 163.065082 
L 420.517856 163.065082 
Q 422.517856 163.065082 422.517856 161.065082 
L 422.517856 117.969769 
Q 422.517856 115.969769 420.517856 115.969769 
L 296.617856 115.969769 
Q 294.617856 115.969769 294.617856 117.969769 
L 294.617856 161.065082 
Q 294.617856 163.065082 296.617856 163.065082 
z
" style="fill: #4d4d4d; opacity: 0.5; stroke: #4d4d4d; stroke-linejoin: miter"/>
    </g>
    <g id="patch_8">
     <path d="M 294.617856 161.065082 
L 418.517856 161.065082 
Q 420.517856 161.065082 420.517856 159.065082 
L 420.517856 115.969769 
Q 420.517856 113.969769 418.517856 113.969769 
L 294.617856 113.969769 
Q 292.617856 113.969769 292.617856 115.969769 
L 292.617856 159.065082 
Q 292.617856 161.065082 294.617856 161.065082 
z
" style="fill: #ffffff; stroke: #cccccc; stroke-linejoin: miter"/>
    </g>
    <g id="line2d_30">
     <path d="M 296.617856 122.068207 
L 306.617856 122.068207 
L 316.617856 122.068207 
" style="fill: none; stroke: #000080; stroke-width: 1.5; stroke-linecap: square"/>
    </g>
    <g id="text_16">
     <!-- $\delta_e = -10$, $J = 1.60$ -->
     <g transform="translate(324.617856 125.568207) scale(0.1 -0.1)">
      <defs>
       <path id="DejaVuSans-Oblique-3b4" d="M 3472 4053 
Q 3197 4272 2450 4272 
Q 1659 4272 1588 3906 
Q 1531 3619 2328 3469 
Q 2953 3353 3253 3003 
Q 3616 2581 3447 1716 
Q 3284 888 2763 400 
Q 2238 -91 1488 -91 
Q 741 -91 406 400 
Q 72 888 241 1747 
Q 363 2384 891 2900 
Q 1097 3100 1353 3213 
Q 913 3459 1000 3900 
Q 1166 4750 2544 4750 
Q 3234 4750 3566 4531 
L 3472 4053 
z
M 1753 3056 
Q 1525 2966 1306 2738 
Q 969 2384 847 1747 
Q 722 1113 919 756 
Q 1119 397 1584 397 
Q 2044 397 2381 759 
Q 2722 1122 2838 1716 
Q 2956 2338 2731 2638 
Q 2491 2959 2103 2994 
Q 1906 3013 1753 3056 
z
" transform="scale(0.015625)"/>
       <path id="DejaVuSans-Oblique-65" d="M 3078 2063 
Q 3088 2113 3092 2166 
Q 3097 2219 3097 2272 
Q 3097 2653 2873 2875 
Q 2650 3097 2266 3097 
Q 1838 3097 1509 2826 
Q 1181 2556 1013 2059 
L 3078 2063 
z
M 3578 1613 
L 903 1613 
Q 884 1494 878 1425 
Q 872 1356 872 1306 
Q 872 872 1139 634 
Q 1406 397 1894 397 
Q 2269 397 2603 481 
Q 2938 566 3225 728 
L 3116 159 
Q 2806 34 2476 -28 
Q 2147 -91 1806 -91 
Q 1078 -91 686 257 
Q 294 606 294 1247 
Q 294 1794 489 2264 
Q 684 2734 1063 3103 
Q 1306 3334 1642 3459 
Q 1978 3584 2356 3584 
Q 2950 3584 3301 3228 
Q 3653 2872 3653 2272 
Q 3653 2128 3634 1964 
Q 3616 1800 3578 1613 
z
" transform="scale(0.015625)"/>
       <path id="DejaVuSans-3d" d="M 678 2906 
L 4684 2906 
L 4684 2381 
L 678 2381 
L 678 2906 
z
M 678 1631 
L 4684 1631 
L 4684 1100 
L 678 1100 
L 678 1631 
z
" transform="scale(0.015625)"/>
       <path id="DejaVuSans-31" d="M 794 531 
L 1825 531 
L 1825 4091 
L 703 3866 
L 703 4441 
L 1819 4666 
L 2450 4666 
L 2450 531 
L 3481 531 
L 3481 0 
L 794 0 
L 794 531 
z
" transform="scale(0.015625)"/>
       <path id="DejaVuSans-2c" d="M 750 794 
L 1409 794 
L 1409 256 
L 897 -744 
L 494 -744 
L 750 256 
L 750 794 
z
" transform="scale(0.015625)"/>
      </defs>
      <use xlink:href="#DejaVuSans-Oblique-3b4" transform="translate(0 0.78125)"/>
      <use xlink:href="#DejaVuSans-Oblique-65" transform="translate(61.181641 -15.625) scale(0.7)"/>
      <use xlink:href="#DejaVuSans-3d" transform="translate(126.464844 0.78125)"/>
      <use xlink:href="#DejaVuSans-2212" transform="translate(249.21875 0.78125)"/>
      <use xlink:href="#DejaVuSans-31" transform="translate(352.490234 0.78125)"/>
      <use xlink:href="#DejaVuSans-30" transform="translate(416.113281 0.78125)"/>
      <use xlink:href="#DejaVuSans-2c" transform="translate(479.736328 0.78125)"/>
      <use xlink:href="#DejaVuSans-20" transform="translate(511.523438 0.78125)"/>
      <use xlink:href="#DejaVuSans-Oblique-4a" transform="translate(543.310547 0.78125)"/>
      <use xlink:href="#DejaVuSans-3d" transform="translate(592.285156 0.78125)"/>
      <use xlink:href="#DejaVuSans-31" transform="translate(695.556641 0.78125)"/>
      <use xlink:href="#DejaVuSans-2e" transform="translate(759.179688 0.78125)"/>
      <use xlink:href="#DejaVuSans-36" transform="translate(790.966797 0.78125)"/>
      <use xlink:href="#DejaVuSans-30" transform="translate(854.589844 0.78125)"/>
     </g>
    </g>
    <g id="line2d_31">
     <path d="M 296.617856 136.766644 
L 306.617856 136.766644 
L 316.617856 136.766644 
" style="fill: none; stroke: #7dff7a; stroke-width: 1.5; stroke-linecap: square"/>
    </g>
    <g id="text_17">
     <!-- $\delta_e = 0$, $J = 1.60$ -->
     <g transform="translate(324.617856 140.266644) scale(0.1 -0.1)">
      <use xlink:href="#DejaVuSans-Oblique-3b4" transform="translate(0 0.78125)"/>
      <use xlink:href="#DejaVuSans-Oblique-65" transform="translate(61.181641 -15.625) scale(0.7)"/>
      <use xlink:href="#DejaVuSans-3d" transform="translate(126.464844 0.78125)"/>
      <use xlink:href="#DejaVuSans-30" transform="translate(229.736328 0.78125)"/>
      <use xlink:href="#DejaVuSans-2c" transform="translate(293.359375 0.78125)"/>
      <use xlink:href="#DejaVuSans-20" transform="translate(325.146484 0.78125)"/>
      <use xlink:href="#DejaVuSans-Oblique-4a" transform="translate(356.933594 0.78125)"/>
      <use xlink:href="#DejaVuSans-3d" transform="translate(405.908203 0.78125)"/>
      <use xlink:href="#DejaVuSans-31" transform="translate(509.179688 0.78125)"/>
      <use xlink:href="#DejaVuSans-2e" transform="translate(572.802734 0.78125)"/>
      <use xlink:href="#DejaVuSans-36" transform="translate(604.589844 0.78125)"/>
      <use xlink:href="#DejaVuSans-30" transform="translate(668.212891 0.78125)"/>
     </g>
    </g>
    <g id="line2d_32">
     <path d="M 296.617856 151.465082 
L 306.617856 151.465082 
L 316.617856 151.465082 
" style="fill: none; stroke: #800000; stroke-width: 1.5; stroke-linecap: square"/>
    </g>
    <g id="text_18">
     <!-- $\delta_e = 10$, $J = 1.60$ -->
     <g transform="translate(324.617856 154.965082) scale(0.1 -0.1)">
      <use xlink:href="#DejaVuSans-Oblique-3b4" transform="translate(0 0.78125)"/>
      <use xlink:href="#DejaVuSans-Oblique-65" transform="translate(61.181641 -15.625) scale(0.7)"/>
      <use xlink:href="#DejaVuSans-3d" transform="translate(126.464844 0.78125)"/>
      <use xlink:href="#DejaVuSans-31" transform="translate(229.736328 0.78125)"/>
      <use xlink:href="#DejaVuSans-30" transform="translate(293.359375 0.78125)"/>
      <use xlink:href="#DejaVuSans-2c" transform="translate(356.982422 0.78125)"/>
      <use xlink:href="#DejaVuSans-20" transform="translate(388.769531 0.78125)"/>
      <use xlink:href="#DejaVuSans-Oblique-4a" transform="translate(420.556641 0.78125)"/>
      <use xlink:href="#DejaVuSans-3d" transform="translate(469.53125 0.78125)"/>
      <use xlink:href="#DejaVuSans-31" transform="translate(572.802734 0.78125)"/>
      <use xlink:href="#DejaVuSans-2e" transform="translate(636.425781 0.78125)"/>
      <use xlink:href="#DejaVuSans-36" transform="translate(668.212891 0.78125)"/>
      <use xlink:href="#DejaVuSans-30" transform="translate(731.835938 0.78125)"/>
     </g>
    </g>
   </g>
  </g>
 </g>
 <defs>
  <clipPath id="pa47b6e9ad9">
   <rect x="71.84" y="14.541632" width="215.777856" height="159.498368"/>
  </clipPath>
 </defs>
</svg>
