<?xml version="1.0" encoding="utf-8" standalone="no"?>
<!DOCTYPE svg PUBLIC "-//W3C//DTD SVG 1.1//EN"
  "http://www.w3.org/Graphics/SVG/1.1/DTD/svg11.dtd">
<svg xmlns:xlink="http://www.w3.org/1999/xlink" width="432pt" height="216pt" viewBox="0 0 432 216" xmlns="http://www.w3.org/2000/svg" version="1.1">
 <metadata>
  <rdf:RDF xmlns:dc="http://purl.org/dc/elements/1.1/" xmlns:cc="http://creativecommons.org/ns#" xmlns:rdf="http://www.w3.org/1999/02/22-rdf-syntax-ns#">
   <cc:Work>
    <dc:type rdf:resource="http://purl.org/dc/dcmitype/StillImage"/>
    <dc:date>2025-03-31T00:02:06.703677</dc:date>
    <dc:format>image/svg+xml</dc:format>
    <dc:creator>
     <cc:Agent>
      <dc:title>Matplotlib v3.9.2, https://matplotlib.org/</dc:title>
     </cc:Agent>
    </dc:creator>
   </cc:Work>
  </rdf:RDF>
 </metadata>
 <defs>
  <style type="text/css">*{stroke-linejoin: round; stroke-linecap: butt}</style>
 </defs>
 <g id="figure_1">
  <g id="patch_1">
   <path d="M 0 216 
L 432 216 
L 432 0 
L 0 0 
z
" style="fill: #ffffff"/>
  </g>
  <g id="axes_1">
   <g id="patch_2">
    <path d="M 63.038 174.04 
L 306.255247 174.04 
L 306.255247 10.8 
L 63.038 10.8 
z
" style="fill: #ffffff"/>
   </g>
   <g id="matplotlib.axis_1">
    <g id="xtick_1">
     <g id="line2d_1">
      <path d="M 74.093329 174.04 
L 74.093329 10.8 
" clip-path="url(#p95b3412d0f)" style="fill: none; stroke: #b0b0b0; stroke-width: 0.8; stroke-linecap: square"/>
     </g>
     <g id="line2d_2">
      <defs>
       <path id="m92889e05f9" d="M 0 0 
L 0 3.5 
" style="stroke: #000000; stroke-width: 0.8"/>
      </defs>
      <g>
       <use xlink:href="#m92889e05f9" x="74.093329" y="174.04" style="stroke: #000000; stroke-width: 0.8"/>
      </g>
     </g>
     <g id="text_1">
      <!-- −4 -->
      <g transform="translate(66.722236 188.638438) scale(0.1 -0.1)">
       <defs>
        <path id="DejaVuSans-2212" d="M 678 2272 
L 4684 2272 
L 4684 1741 
L 678 1741 
L 678 2272 
z
" transform="scale(0.015625)"/>
        <path id="DejaVuSans-34" d="M 2419 4116 
L 825 1625 
L 2419 1625 
L 2419 4116 
z
M 2253 4666 
L 3047 4666 
L 3047 1625 
L 3713 1625 
L 3713 1100 
L 3047 1100 
L 3047 0 
L 2419 0 
L 2419 1100 
L 313 1100 
L 313 1709 
L 2253 4666 
z
" transform="scale(0.015625)"/>
       </defs>
       <use xlink:href="#DejaVuSans-2212"/>
       <use xlink:href="#DejaVuSans-34" x="83.789062"/>
      </g>
     </g>
    </g>
    <g id="xtick_2">
     <g id="line2d_3">
      <path d="M 114.294527 174.04 
L 114.294527 10.8 
" clip-path="url(#p95b3412d0f)" style="fill: none; stroke: #b0b0b0; stroke-width: 0.8; stroke-linecap: square"/>
     </g>
     <g id="line2d_4">
      <g>
       <use xlink:href="#m92889e05f9" x="114.294527" y="174.04" style="stroke: #000000; stroke-width: 0.8"/>
      </g>
     </g>
     <g id="text_2">
      <!-- −2 -->
      <g transform="translate(106.923434 188.638438) scale(0.1 -0.1)">
       <defs>
        <path id="DejaVuSans-32" d="M 1228 531 
L 3431 531 
L 3431 0 
L 469 0 
L 469 531 
Q 828 903 1448 1529 
Q 2069 2156 2228 2338 
Q 2531 2678 2651 2914 
Q 2772 3150 2772 3378 
Q 2772 3750 2511 3984 
Q 2250 4219 1831 4219 
Q 1534 4219 1204 4116 
Q 875 4013 500 3803 
L 500 4441 
Q 881 4594 1212 4672 
Q 1544 4750 1819 4750 
Q 2544 4750 2975 4387 
Q 3406 4025 3406 3419 
Q 3406 3131 3298 2873 
Q 3191 2616 2906 2266 
Q 2828 2175 2409 1742 
Q 1991 1309 1228 531 
z
" transform="scale(0.015625)"/>
       </defs>
       <use xlink:href="#DejaVuSans-2212"/>
       <use xlink:href="#DejaVuSans-32" x="83.789062"/>
      </g>
     </g>
    </g>
    <g id="xtick_3">
     <g id="line2d_5">
      <path d="M 154.495725 174.04 
L 154.495725 10.8 
" clip-path="url(#p95b3412d0f)" style="fill: none; stroke: #b0b0b0; stroke-width: 0.8; stroke-linecap: square"/>
     </g>
     <g id="line2d_6">
      <g>
       <use xlink:href="#m92889e05f9" x="154.495725" y="174.04" style="stroke: #000000; stroke-width: 0.8"/>
      </g>
     </g>
     <g id="text_3">
      <!-- 0 -->
      <g transform="translate(151.314475 188.638438) scale(0.1 -0.1)">
       <defs>
        <path id="DejaVuSans-30" d="M 2034 4250 
Q 1547 4250 1301 3770 
Q 1056 3291 1056 2328 
Q 1056 1369 1301 889 
Q 1547 409 2034 409 
Q 2525 409 2770 889 
Q 3016 1369 3016 2328 
Q 3016 3291 2770 3770 
Q 2525 4250 2034 4250 
z
M 2034 4750 
Q 2819 4750 3233 4129 
Q 3647 3509 3647 2328 
Q 3647 1150 3233 529 
Q 2819 -91 2034 -91 
Q 1250 -91 836 529 
Q 422 1150 422 2328 
Q 422 3509 836 4129 
Q 1250 4750 2034 4750 
z
" transform="scale(0.015625)"/>
       </defs>
       <use xlink:href="#DejaVuSans-30"/>
      </g>
     </g>
    </g>
    <g id="xtick_4">
     <g id="line2d_7">
      <path d="M 194.696923 174.04 
L 194.696923 10.8 
" clip-path="url(#p95b3412d0f)" style="fill: none; stroke: #b0b0b0; stroke-width: 0.8; stroke-linecap: square"/>
     </g>
     <g id="line2d_8">
      <g>
       <use xlink:href="#m92889e05f9" x="194.696923" y="174.04" style="stroke: #000000; stroke-width: 0.8"/>
      </g>
     </g>
     <g id="text_4">
      <!-- 2 -->
      <g transform="translate(191.515673 188.638438) scale(0.1 -0.1)">
       <use xlink:href="#DejaVuSans-32"/>
      </g>
     </g>
    </g>
    <g id="xtick_5">
     <g id="line2d_9">
      <path d="M 234.898121 174.04 
L 234.898121 10.8 
" clip-path="url(#p95b3412d0f)" style="fill: none; stroke: #b0b0b0; stroke-width: 0.8; stroke-linecap: square"/>
     </g>
     <g id="line2d_10">
      <g>
       <use xlink:href="#m92889e05f9" x="234.898121" y="174.04" style="stroke: #000000; stroke-width: 0.8"/>
      </g>
     </g>
     <g id="text_5">
      <!-- 4 -->
      <g transform="translate(231.716871 188.638438) scale(0.1 -0.1)">
       <use xlink:href="#DejaVuSans-34"/>
      </g>
     </g>
    </g>
    <g id="xtick_6">
     <g id="line2d_11">
      <path d="M 275.099319 174.04 
L 275.099319 10.8 
" clip-path="url(#p95b3412d0f)" style="fill: none; stroke: #b0b0b0; stroke-width: 0.8; stroke-linecap: square"/>
     </g>
     <g id="line2d_12">
      <g>
       <use xlink:href="#m92889e05f9" x="275.099319" y="174.04" style="stroke: #000000; stroke-width: 0.8"/>
      </g>
     </g>
     <g id="text_6">
      <!-- 6 -->
      <g transform="translate(271.918069 188.638438) scale(0.1 -0.1)">
       <defs>
        <path id="DejaVuSans-36" d="M 2113 2584 
Q 1688 2584 1439 2293 
Q 1191 2003 1191 1497 
Q 1191 994 1439 701 
Q 1688 409 2113 409 
Q 2538 409 2786 701 
Q 3034 994 3034 1497 
Q 3034 2003 2786 2293 
Q 2538 2584 2113 2584 
z
M 3366 4563 
L 3366 3988 
Q 3128 4100 2886 4159 
Q 2644 4219 2406 4219 
Q 1781 4219 1451 3797 
Q 1122 3375 1075 2522 
Q 1259 2794 1537 2939 
Q 1816 3084 2150 3084 
Q 2853 3084 3261 2657 
Q 3669 2231 3669 1497 
Q 3669 778 3244 343 
Q 2819 -91 2113 -91 
Q 1303 -91 875 529 
Q 447 1150 447 2328 
Q 447 3434 972 4092 
Q 1497 4750 2381 4750 
Q 2619 4750 2861 4703 
Q 3103 4656 3366 4563 
z
" transform="scale(0.015625)"/>
       </defs>
       <use xlink:href="#DejaVuSans-36"/>
      </g>
     </g>
    </g>
    <g id="text_7">
     <!-- $\alpha$ -->
     <g transform="translate(181.346624 202.316563) scale(0.1 -0.1)">
      <defs>
       <path id="DejaVuSans-Oblique-3b1" d="M 2619 1628 
L 2622 2350 
Q 2625 3088 2069 3091 
Q 1653 3094 1394 2747 
Q 1069 2319 959 1747 
Q 825 1059 994 731 
Q 1169 397 1547 397 
Q 1966 397 2319 1063 
L 2619 1628 
z
M 2166 3578 
Q 3141 3594 3128 2584 
Q 3128 2584 3616 3500 
L 4128 3500 
L 3119 1603 
L 3109 919 
Q 3109 766 3194 638 
Q 3291 488 3391 488 
L 3669 488 
L 3575 0 
L 3228 0 
Q 2934 0 2722 263 
Q 2622 394 2619 669 
Q 2416 334 2066 50 
Q 1900 -81 1453 -78 
Q 722 -72 456 397 
Q 184 884 353 1747 
Q 534 2675 1009 3097 
Q 1544 3569 2166 3578 
z
" transform="scale(0.015625)"/>
      </defs>
      <use xlink:href="#DejaVuSans-Oblique-3b1" transform="translate(0 0.84375)"/>
     </g>
    </g>
   </g>
   <g id="matplotlib.axis_2">
    <g id="ytick_1">
     <g id="line2d_13">
      <path d="M 63.038 159.087376 
L 306.255247 159.087376 
" clip-path="url(#p95b3412d0f)" style="fill: none; stroke: #b0b0b0; stroke-width: 0.8; stroke-linecap: square"/>
     </g>
     <g id="line2d_14">
      <defs>
       <path id="m1fbd8466c0" d="M 0 0 
L -3.5 0 
" style="stroke: #000000; stroke-width: 0.8"/>
      </defs>
      <g>
       <use xlink:href="#m1fbd8466c0" x="63.038" y="159.087376" style="stroke: #000000; stroke-width: 0.8"/>
      </g>
     </g>
     <g id="text_8">
      <!-- 0.090 -->
      <g transform="translate(27.409875 162.886594) scale(0.1 -0.1)">
       <defs>
        <path id="DejaVuSans-2e" d="M 684 794 
L 1344 794 
L 1344 0 
L 684 0 
L 684 794 
z
" transform="scale(0.015625)"/>
        <path id="DejaVuSans-39" d="M 703 97 
L 703 672 
Q 941 559 1184 500 
Q 1428 441 1663 441 
Q 2288 441 2617 861 
Q 2947 1281 2994 2138 
Q 2813 1869 2534 1725 
Q 2256 1581 1919 1581 
Q 1219 1581 811 2004 
Q 403 2428 403 3163 
Q 403 3881 828 4315 
Q 1253 4750 1959 4750 
Q 2769 4750 3195 4129 
Q 3622 3509 3622 2328 
Q 3622 1225 3098 567 
Q 2575 -91 1691 -91 
Q 1453 -91 1209 -44 
Q 966 3 703 97 
z
M 1959 2075 
Q 2384 2075 2632 2365 
Q 2881 2656 2881 3163 
Q 2881 3666 2632 3958 
Q 2384 4250 1959 4250 
Q 1534 4250 1286 3958 
Q 1038 3666 1038 3163 
Q 1038 2656 1286 2365 
Q 1534 2075 1959 2075 
z
" transform="scale(0.015625)"/>
       </defs>
       <use xlink:href="#DejaVuSans-30"/>
       <use xlink:href="#DejaVuSans-2e" x="63.623047"/>
       <use xlink:href="#DejaVuSans-30" x="95.410156"/>
       <use xlink:href="#DejaVuSans-39" x="159.033203"/>
       <use xlink:href="#DejaVuSans-30" x="222.65625"/>
      </g>
     </g>
    </g>
    <g id="ytick_2">
     <g id="line2d_15">
      <path d="M 63.038 136.094426 
L 306.255247 136.094426 
" clip-path="url(#p95b3412d0f)" style="fill: none; stroke: #b0b0b0; stroke-width: 0.8; stroke-linecap: square"/>
     </g>
     <g id="line2d_16">
      <g>
       <use xlink:href="#m1fbd8466c0" x="63.038" y="136.094426" style="stroke: #000000; stroke-width: 0.8"/>
      </g>
     </g>
     <g id="text_9">
      <!-- 0.095 -->
      <g transform="translate(27.409875 139.893645) scale(0.1 -0.1)">
       <defs>
        <path id="DejaVuSans-35" d="M 691 4666 
L 3169 4666 
L 3169 4134 
L 1269 4134 
L 1269 2991 
Q 1406 3038 1543 3061 
Q 1681 3084 1819 3084 
Q 2600 3084 3056 2656 
Q 3513 2228 3513 1497 
Q 3513 744 3044 326 
Q 2575 -91 1722 -91 
Q 1428 -91 1123 -41 
Q 819 9 494 109 
L 494 744 
Q 775 591 1075 516 
Q 1375 441 1709 441 
Q 2250 441 2565 725 
Q 2881 1009 2881 1497 
Q 2881 1984 2565 2268 
Q 2250 2553 1709 2553 
Q 1456 2553 1204 2497 
Q 953 2441 691 2322 
L 691 4666 
z
" transform="scale(0.015625)"/>
       </defs>
       <use xlink:href="#DejaVuSans-30"/>
       <use xlink:href="#DejaVuSans-2e" x="63.623047"/>
       <use xlink:href="#DejaVuSans-30" x="95.410156"/>
       <use xlink:href="#DejaVuSans-39" x="159.033203"/>
       <use xlink:href="#DejaVuSans-35" x="222.65625"/>
      </g>
     </g>
    </g>
    <g id="ytick_3">
     <g id="line2d_17">
      <path d="M 63.038 113.101476 
L 306.255247 113.101476 
" clip-path="url(#p95b3412d0f)" style="fill: none; stroke: #b0b0b0; stroke-width: 0.8; stroke-linecap: square"/>
     </g>
     <g id="line2d_18">
      <g>
       <use xlink:href="#m1fbd8466c0" x="63.038" y="113.101476" style="stroke: #000000; stroke-width: 0.8"/>
      </g>
     </g>
     <g id="text_10">
      <!-- 0.100 -->
      <g transform="translate(27.409875 116.900695) scale(0.1 -0.1)">
       <defs>
        <path id="DejaVuSans-31" d="M 794 531 
L 1825 531 
L 1825 4091 
L 703 3866 
L 703 4441 
L 1819 4666 
L 2450 4666 
L 2450 531 
L 3481 531 
L 3481 0 
L 794 0 
L 794 531 
z
" transform="scale(0.015625)"/>
       </defs>
       <use xlink:href="#DejaVuSans-30"/>
       <use xlink:href="#DejaVuSans-2e" x="63.623047"/>
       <use xlink:href="#DejaVuSans-31" x="95.410156"/>
       <use xlink:href="#DejaVuSans-30" x="159.033203"/>
       <use xlink:href="#DejaVuSans-30" x="222.65625"/>
      </g>
     </g>
    </g>
    <g id="ytick_4">
     <g id="line2d_19">
      <path d="M 63.038 90.108527 
L 306.255247 90.108527 
" clip-path="url(#p95b3412d0f)" style="fill: none; stroke: #b0b0b0; stroke-width: 0.8; stroke-linecap: square"/>
     </g>
     <g id="line2d_20">
      <g>
       <use xlink:href="#m1fbd8466c0" x="63.038" y="90.108527" style="stroke: #000000; stroke-width: 0.8"/>
      </g>
     </g>
     <g id="text_11">
      <!-- 0.105 -->
      <g transform="translate(27.409875 93.907745) scale(0.1 -0.1)">
       <use xlink:href="#DejaVuSans-30"/>
       <use xlink:href="#DejaVuSans-2e" x="63.623047"/>
       <use xlink:href="#DejaVuSans-31" x="95.410156"/>
       <use xlink:href="#DejaVuSans-30" x="159.033203"/>
       <use xlink:href="#DejaVuSans-35" x="222.65625"/>
      </g>
     </g>
    </g>
    <g id="ytick_5">
     <g id="line2d_21">
      <path d="M 63.038 67.115577 
L 306.255247 67.115577 
" clip-path="url(#p95b3412d0f)" style="fill: none; stroke: #b0b0b0; stroke-width: 0.8; stroke-linecap: square"/>
     </g>
     <g id="line2d_22">
      <g>
       <use xlink:href="#m1fbd8466c0" x="63.038" y="67.115577" style="stroke: #000000; stroke-width: 0.8"/>
      </g>
     </g>
     <g id="text_12">
      <!-- 0.110 -->
      <g transform="translate(27.409875 70.914796) scale(0.1 -0.1)">
       <use xlink:href="#DejaVuSans-30"/>
       <use xlink:href="#DejaVuSans-2e" x="63.623047"/>
       <use xlink:href="#DejaVuSans-31" x="95.410156"/>
       <use xlink:href="#DejaVuSans-31" x="159.033203"/>
       <use xlink:href="#DejaVuSans-30" x="222.65625"/>
      </g>
     </g>
    </g>
    <g id="ytick_6">
     <g id="line2d_23">
      <path d="M 63.038 44.122627 
L 306.255247 44.122627 
" clip-path="url(#p95b3412d0f)" style="fill: none; stroke: #b0b0b0; stroke-width: 0.8; stroke-linecap: square"/>
     </g>
     <g id="line2d_24">
      <g>
       <use xlink:href="#m1fbd8466c0" x="63.038" y="44.122627" style="stroke: #000000; stroke-width: 0.8"/>
      </g>
     </g>
     <g id="text_13">
      <!-- 0.115 -->
      <g transform="translate(27.409875 47.921846) scale(0.1 -0.1)">
       <use xlink:href="#DejaVuSans-30"/>
       <use xlink:href="#DejaVuSans-2e" x="63.623047"/>
       <use xlink:href="#DejaVuSans-31" x="95.410156"/>
       <use xlink:href="#DejaVuSans-31" x="159.033203"/>
       <use xlink:href="#DejaVuSans-35" x="222.65625"/>
      </g>
     </g>
    </g>
    <g id="ytick_7">
     <g id="line2d_25">
      <path d="M 63.038 21.129678 
L 306.255247 21.129678 
" clip-path="url(#p95b3412d0f)" style="fill: none; stroke: #b0b0b0; stroke-width: 0.8; stroke-linecap: square"/>
     </g>
     <g id="line2d_26">
      <g>
       <use xlink:href="#m1fbd8466c0" x="63.038" y="21.129678" style="stroke: #000000; stroke-width: 0.8"/>
      </g>
     </g>
     <g id="text_14">
      <!-- 0.120 -->
      <g transform="translate(27.409875 24.928896) scale(0.1 -0.1)">
       <use xlink:href="#DejaVuSans-30"/>
       <use xlink:href="#DejaVuSans-2e" x="63.623047"/>
       <use xlink:href="#DejaVuSans-31" x="95.410156"/>
       <use xlink:href="#DejaVuSans-32" x="159.033203"/>
       <use xlink:href="#DejaVuSans-30" x="222.65625"/>
      </g>
     </g>
    </g>
    <g id="text_15">
     <!-- d$C_L$ / d$\alpha$ -->
     <g transform="translate(21.330188 112.52) rotate(-90) scale(0.1 -0.1)">
      <defs>
       <path id="DejaVuSans-64" d="M 2906 2969 
L 2906 4863 
L 3481 4863 
L 3481 0 
L 2906 0 
L 2906 525 
Q 2725 213 2448 61 
Q 2172 -91 1784 -91 
Q 1150 -91 751 415 
Q 353 922 353 1747 
Q 353 2572 751 3078 
Q 1150 3584 1784 3584 
Q 2172 3584 2448 3432 
Q 2725 3281 2906 2969 
z
M 947 1747 
Q 947 1113 1208 752 
Q 1469 391 1925 391 
Q 2381 391 2643 752 
Q 2906 1113 2906 1747 
Q 2906 2381 2643 2742 
Q 2381 3103 1925 3103 
Q 1469 3103 1208 2742 
Q 947 2381 947 1747 
z
" transform="scale(0.015625)"/>
       <path id="DejaVuSans-Oblique-43" d="M 4447 4306 
L 4319 3641 
Q 4019 3944 3683 4091 
Q 3347 4238 2956 4238 
Q 2422 4238 2017 3981 
Q 1613 3725 1319 3200 
Q 1131 2863 1032 2486 
Q 934 2109 934 1728 
Q 934 1091 1264 756 
Q 1594 422 2222 422 
Q 2656 422 3056 561 
Q 3456 700 3834 978 
L 3688 231 
Q 3316 72 2936 -9 
Q 2556 -91 2175 -91 
Q 1278 -91 773 396 
Q 269 884 269 1753 
Q 269 2309 461 2846 
Q 653 3384 1013 3828 
Q 1394 4300 1883 4525 
Q 2372 4750 3022 4750 
Q 3422 4750 3780 4639 
Q 4138 4528 4447 4306 
z
" transform="scale(0.015625)"/>
       <path id="DejaVuSans-Oblique-4c" d="M 1075 4666 
L 1709 4666 
L 909 525 
L 3181 525 
L 3078 0 
L 172 0 
L 1075 4666 
z
" transform="scale(0.015625)"/>
       <path id="DejaVuSans-20" transform="scale(0.015625)"/>
       <path id="DejaVuSans-2f" d="M 1625 4666 
L 2156 4666 
L 531 -594 
L 0 -594 
L 1625 4666 
z
" transform="scale(0.015625)"/>
      </defs>
      <use xlink:href="#DejaVuSans-64" transform="translate(0 0.015625)"/>
      <use xlink:href="#DejaVuSans-Oblique-43" transform="translate(63.476562 0.015625)"/>
      <use xlink:href="#DejaVuSans-Oblique-4c" transform="translate(133.300781 -16.390625) scale(0.7)"/>
      <use xlink:href="#DejaVuSans-20" transform="translate(175.03418 0.015625)"/>
      <use xlink:href="#DejaVuSans-2f" transform="translate(206.821289 0.015625)"/>
      <use xlink:href="#DejaVuSans-20" transform="translate(240.512695 0.015625)"/>
      <use xlink:href="#DejaVuSans-64" transform="translate(272.299805 0.015625)"/>
      <use xlink:href="#DejaVuSans-Oblique-3b1" transform="translate(335.776367 0.015625)"/>
     </g>
    </g>
   </g>
   <g id="line2d_27">
    <path d="M 74.093329 19.743737 
L 76.326729 19.429904 
L 78.560129 19.152203 
L 80.793529 18.910634 
L 83.026929 18.705198 
L 85.260329 18.535894 
L 87.493729 18.402722 
L 89.727129 18.305682 
L 91.960529 18.244775 
L 94.193928 18.22 
L 96.427328 18.231357 
L 98.660728 18.278847 
L 100.894128 18.362468 
L 103.127528 18.482223 
L 105.360928 18.638109 
L 107.594328 18.830127 
L 109.827728 19.058278 
L 112.061127 19.322561 
L 114.294527 19.622977 
L 116.527927 19.959524 
L 118.761327 20.332204 
L 120.994727 20.741016 
L 123.228127 21.185961 
L 125.461527 21.667038 
L 127.694927 22.184247 
L 129.928327 22.737588 
L 132.161726 23.327061 
L 134.395126 23.952667 
L 136.628526 24.614405 
L 138.861926 25.312276 
L 141.095326 26.046278 
L 143.328726 26.816413 
L 145.562126 27.62268 
L 147.795526 28.46508 
L 150.028926 29.343611 
L 152.262325 30.258275 
L 154.495725 31.209072 
L 156.729125 32.196 
L 158.962525 33.219061 
L 161.195925 34.278254 
L 163.429325 35.373579 
L 165.662725 36.505037 
L 167.896125 37.672627 
L 170.129524 38.876349 
L 172.362924 40.116203 
L 174.596324 41.39219 
L 176.829724 42.704309 
L 179.063124 44.05256 
L 181.296524 45.436943 
L 183.529924 46.857459 
L 185.763324 48.314107 
L 187.996724 49.806887 
L 190.230123 51.3358 
L 192.463523 52.900845 
L 194.696923 54.502022 
L 196.930323 56.139331 
L 199.163723 57.812773 
L 201.397123 59.522347 
L 203.630523 61.268053 
L 205.863923 63.049891 
L 208.097323 64.867862 
L 210.330722 66.721965 
L 212.564122 68.6122 
L 214.797522 70.538568 
L 217.030922 72.501068 
L 219.264322 74.4997 
L 221.497722 76.534464 
L 223.731122 78.605361 
L 225.964522 80.712389 
L 228.197921 82.855551 
L 230.431321 85.034844 
L 232.664721 87.25027 
L 234.898121 89.501828 
L 237.131521 91.789518 
L 239.364921 94.11334 
L 241.598321 96.473295 
L 243.831721 98.869382 
L 246.065121 101.301601 
L 248.29852 103.769953 
L 250.53192 106.274437 
L 252.76532 108.815053 
L 254.99872 111.391801 
L 257.23212 114.004682 
L 259.46552 116.653695 
L 261.69892 119.33884 
L 263.93232 122.060117 
L 266.16572 124.817527 
L 268.399119 127.611069 
L 270.632519 130.440743 
L 272.865919 133.30655 
L 275.099319 136.208488 
L 277.332719 139.14656 
L 279.566119 142.120763 
L 281.799519 145.131098 
L 284.032919 148.177566 
L 286.266318 151.260166 
L 288.499718 154.378899 
L 290.733118 157.533764 
L 292.966518 160.72476 
L 295.199918 163.95189 
" clip-path="url(#p95b3412d0f)" style="fill: none; stroke: #000080; stroke-width: 1.5; stroke-linecap: square"/>
   </g>
   <g id="line2d_28">
    <path d="M 74.093329 33.076968 
L 76.326729 32.631743 
L 78.560129 32.22265 
L 80.793529 31.849689 
L 83.026929 31.51286 
L 85.260329 31.212164 
L 87.493729 30.9476 
L 89.727129 30.719168 
L 91.960529 30.526869 
L 94.193928 30.370701 
L 96.427328 30.250667 
L 98.660728 30.166764 
L 100.894128 30.118993 
L 103.127528 30.107355 
L 105.360928 30.131849 
L 107.594328 30.192476 
L 109.827728 30.289234 
L 112.061127 30.422125 
L 114.294527 30.591149 
L 116.527927 30.796304 
L 118.761327 31.037592 
L 120.994727 31.315012 
L 123.228127 31.628564 
L 125.461527 31.978249 
L 127.694927 32.364065 
L 129.928327 32.786015 
L 132.161726 33.244096 
L 134.395126 33.73831 
L 136.628526 34.268655 
L 138.861926 34.835134 
L 141.095326 35.437744 
L 143.328726 36.076487 
L 145.562126 36.751362 
L 147.795526 37.462369 
L 150.028926 38.209508 
L 152.262325 38.99278 
L 154.495725 39.812184 
L 156.729125 40.667721 
L 158.962525 41.559389 
L 161.195925 42.48719 
L 163.429325 43.451123 
L 165.662725 44.451189 
L 167.896125 45.487386 
L 170.129524 46.559716 
L 172.362924 47.668178 
L 174.596324 48.812773 
L 176.829724 49.9935 
L 179.063124 51.210359 
L 181.296524 52.46335 
L 183.529924 53.752474 
L 185.763324 55.077729 
L 187.996724 56.439117 
L 190.230123 57.836638 
L 192.463523 59.27029 
L 194.696923 60.740075 
L 196.930323 62.245993 
L 199.163723 63.788042 
L 201.397123 65.366224 
L 203.630523 66.980538 
L 205.863923 68.630984 
L 208.097323 70.317562 
L 210.330722 72.040273 
L 212.564122 73.799116 
L 214.797522 75.594092 
L 217.030922 77.425199 
L 219.264322 79.292439 
L 221.497722 81.195811 
L 223.731122 83.135316 
L 225.964522 85.110952 
L 228.197921 87.122721 
L 230.431321 89.170623 
L 232.664721 91.254656 
L 234.898121 93.374822 
L 237.131521 95.53112 
L 239.364921 97.72355 
L 241.598321 99.952113 
L 243.831721 102.216807 
L 246.065121 104.517635 
L 248.29852 106.854594 
L 250.53192 109.227686 
L 252.76532 111.63691 
L 254.99872 114.082266 
L 257.23212 116.563754 
L 259.46552 119.081375 
L 261.69892 121.635128 
L 263.93232 124.225013 
L 266.16572 126.851031 
L 268.399119 129.51318 
L 270.632519 132.211463 
L 272.865919 134.945877 
L 275.099319 137.716423 
L 277.332719 140.523102 
L 279.566119 143.365914 
L 281.799519 146.244857 
L 284.032919 149.159933 
L 286.266318 152.111141 
L 288.499718 155.098481 
L 290.733118 158.121953 
L 292.966518 161.181558 
L 295.199918 164.277295 
" clip-path="url(#p95b3412d0f)" style="fill: none; stroke: #0080ff; stroke-width: 1.5; stroke-linecap: square"/>
   </g>
   <g id="line2d_29">
    <path d="M 74.093329 42.037361 
L 76.326729 41.507214 
L 78.560129 41.013199 
L 80.793529 40.555316 
L 83.026929 40.133566 
L 85.260329 39.747948 
L 87.493729 39.398463 
L 89.727129 39.085109 
L 91.960529 38.807888 
L 94.193928 38.566799 
L 96.427328 38.361843 
L 98.660728 38.193019 
L 100.894128 38.060327 
L 103.127528 37.963767 
L 105.360928 37.903339 
L 107.594328 37.879044 
L 109.827728 37.890881 
L 112.061127 37.93885 
L 114.294527 38.022952 
L 116.527927 38.143186 
L 118.761327 38.299552 
L 120.994727 38.49205 
L 123.228127 38.720681 
L 125.461527 38.985444 
L 127.694927 39.286339 
L 129.928327 39.623367 
L 132.161726 39.996527 
L 134.395126 40.405819 
L 136.628526 40.851243 
L 138.861926 41.332799 
L 141.095326 41.850488 
L 143.328726 42.404309 
L 145.562126 42.994263 
L 147.795526 43.620348 
L 150.028926 44.282566 
L 152.262325 44.980916 
L 154.495725 45.715399 
L 156.729125 46.486014 
L 158.962525 47.292761 
L 161.195925 48.13564 
L 163.429325 49.014651 
L 165.662725 49.929795 
L 167.896125 50.881071 
L 170.129524 51.86848 
L 172.362924 52.89202 
L 174.596324 53.951693 
L 176.829724 55.047498 
L 179.063124 56.179436 
L 181.296524 57.347505 
L 183.529924 58.551707 
L 185.763324 59.792042 
L 187.996724 61.068508 
L 190.230123 62.381107 
L 192.463523 63.729838 
L 194.696923 65.114701 
L 196.930323 66.535697 
L 199.163723 67.992825 
L 201.397123 69.486085 
L 203.630523 71.015477 
L 205.863923 72.581002 
L 208.097323 74.182659 
L 210.330722 75.820448 
L 212.564122 77.494369 
L 214.797522 79.204423 
L 217.030922 80.950609 
L 219.264322 82.732927 
L 221.497722 84.551378 
L 223.731122 86.405961 
L 225.964522 88.296676 
L 228.197921 90.223523 
L 230.431321 92.186503 
L 232.664721 94.185614 
L 234.898121 96.220859 
L 237.131521 98.292235 
L 239.364921 100.399744 
L 241.598321 102.543385 
L 243.831721 104.723158 
L 246.065121 106.939063 
L 248.29852 109.191101 
L 250.53192 111.479271 
L 252.76532 113.803574 
L 254.99872 116.164008 
L 257.23212 118.560575 
L 259.46552 120.993274 
L 261.69892 123.462105 
L 263.93232 125.967069 
L 266.16572 128.508165 
L 268.399119 131.085393 
L 270.632519 133.698754 
L 272.865919 136.348246 
L 275.099319 139.033871 
L 277.332719 141.755629 
L 279.566119 144.513518 
L 281.799519 147.30754 
L 284.032919 150.137694 
L 286.266318 153.003981 
L 288.499718 155.906399 
L 290.733118 158.84495 
L 292.966518 161.819633 
L 295.199918 164.830449 
" clip-path="url(#p95b3412d0f)" style="fill: none; stroke: #7dff7a; stroke-width: 1.5; stroke-linecap: square"/>
   </g>
   <g id="line2d_30">
    <path d="M 74.093329 46.624914 
L 76.326729 46.056316 
L 78.560129 45.52385 
L 80.793529 45.027517 
L 83.026929 44.567316 
L 85.260329 44.143247 
L 87.493729 43.75531 
L 89.727129 43.403506 
L 91.960529 43.087834 
L 94.193928 42.808294 
L 96.427328 42.564886 
L 98.660728 42.357611 
L 100.894128 42.186468 
L 103.127528 42.051457 
L 105.360928 41.952578 
L 107.594328 41.889832 
L 109.827728 41.863218 
L 112.061127 41.872737 
L 114.294527 41.918387 
L 116.527927 42.00017 
L 118.761327 42.118085 
L 120.994727 42.272132 
L 123.228127 42.462312 
L 125.461527 42.688624 
L 127.694927 42.951068 
L 129.928327 43.249645 
L 132.161726 43.584353 
L 134.395126 43.955194 
L 136.628526 44.362168 
L 138.861926 44.805273 
L 141.095326 45.284511 
L 143.328726 45.799881 
L 145.562126 46.351383 
L 147.795526 46.939018 
L 150.028926 47.562785 
L 152.262325 48.222684 
L 154.495725 48.918715 
L 156.729125 49.650879 
L 158.962525 50.419175 
L 161.195925 51.223603 
L 163.429325 52.064164 
L 165.662725 52.940857 
L 167.896125 53.853682 
L 170.129524 54.802639 
L 172.362924 55.787728 
L 174.596324 56.80895 
L 176.829724 57.866304 
L 179.063124 58.959791 
L 181.296524 60.089409 
L 183.529924 61.25516 
L 185.763324 62.457044 
L 187.996724 63.695059 
L 190.230123 64.969207 
L 192.463523 66.279487 
L 194.696923 67.625899 
L 196.930323 69.008444 
L 199.163723 70.42712 
L 201.397123 71.88193 
L 203.630523 73.372871 
L 205.863923 74.899944 
L 208.097323 76.46315 
L 210.330722 78.062489 
L 212.564122 79.697959 
L 214.797522 81.369562 
L 217.030922 83.077297 
L 219.264322 84.821164 
L 221.497722 86.601163 
L 223.731122 88.417295 
L 225.964522 90.269559 
L 228.197921 92.157955 
L 230.431321 94.082484 
L 232.664721 96.043145 
L 234.898121 98.039938 
L 237.131521 100.072863 
L 239.364921 102.141921 
L 241.598321 104.247111 
L 243.831721 106.388433 
L 246.065121 108.565888 
L 248.29852 110.779474 
L 250.53192 113.029193 
L 252.76532 115.315045 
L 254.99872 117.637028 
L 257.23212 119.995144 
L 259.46552 122.389392 
L 261.69892 124.819773 
L 263.93232 127.286285 
L 266.16572 129.78893 
L 268.399119 132.327707 
L 270.632519 134.902617 
L 272.865919 137.513658 
L 275.099319 140.160832 
L 277.332719 142.844139 
L 279.566119 145.563577 
L 281.799519 148.319148 
L 284.032919 151.110851 
L 286.266318 153.938686 
L 288.499718 156.802654 
L 290.733118 159.702754 
L 292.966518 162.638986 
L 295.199918 165.61135 
" clip-path="url(#p95b3412d0f)" style="fill: none; stroke: #ff9400; stroke-width: 1.5; stroke-linecap: square"/>
   </g>
   <g id="line2d_31">
    <path d="M 74.093329 46.839629 
L 76.326729 46.279051 
L 78.560129 45.754604 
L 80.793529 45.26629 
L 83.026929 44.814109 
L 85.260329 44.398059 
L 87.493729 44.018142 
L 89.727129 43.674357 
L 91.960529 43.366705 
L 94.193928 43.095184 
L 96.427328 42.859796 
L 98.660728 42.660541 
L 100.894128 42.497417 
L 103.127528 42.370426 
L 105.360928 42.279567 
L 107.594328 42.22484 
L 109.827728 42.206246 
L 112.061127 42.223784 
L 114.294527 42.277454 
L 116.527927 42.367256 
L 118.761327 42.493191 
L 120.994727 42.655258 
L 123.228127 42.853457 
L 125.461527 43.087788 
L 127.694927 43.358252 
L 129.928327 43.664848 
L 132.161726 44.007576 
L 134.395126 44.386437 
L 136.628526 44.80143 
L 138.861926 45.252555 
L 141.095326 45.739812 
L 143.328726 46.263202 
L 145.562126 46.822724 
L 147.795526 47.418378 
L 150.028926 48.050164 
L 152.262325 48.718083 
L 154.495725 49.422134 
L 156.729125 50.162317 
L 158.962525 50.938633 
L 161.195925 51.75108 
L 163.429325 52.59966 
L 165.662725 53.484373 
L 167.896125 54.405217 
L 170.129524 55.362194 
L 172.362924 56.355303 
L 174.596324 57.384545 
L 176.829724 58.449918 
L 179.063124 59.551424 
L 181.296524 60.689062 
L 183.529924 61.862833 
L 185.763324 63.072736 
L 187.996724 64.318771 
L 190.230123 65.600938 
L 192.463523 66.919238 
L 194.696923 68.273669 
L 196.930323 69.664233 
L 199.163723 71.09093 
L 201.397123 72.553758 
L 203.630523 74.052719 
L 205.863923 75.587812 
L 208.097323 77.159038 
L 210.330722 78.766396 
L 212.564122 80.409886 
L 214.797522 82.089508 
L 217.030922 83.805262 
L 219.264322 85.557149 
L 221.497722 87.345168 
L 223.731122 89.169319 
L 225.964522 91.029603 
L 228.197921 92.926019 
L 230.431321 94.858567 
L 232.664721 96.827247 
L 234.898121 98.83206 
L 237.131521 100.873005 
L 239.364921 102.950082 
L 241.598321 105.063292 
L 243.831721 107.212633 
L 246.065121 109.398107 
L 248.29852 111.619714 
L 250.53192 113.877452 
L 252.76532 116.171323 
L 254.99872 118.501326 
L 257.23212 120.867462 
L 259.46552 123.269729 
L 261.69892 125.708129 
L 263.93232 128.182661 
L 266.16572 130.693326 
L 268.399119 133.240122 
L 270.632519 135.823051 
L 272.865919 138.442113 
L 275.099319 141.097306 
L 277.332719 143.788632 
L 279.566119 146.51609 
L 281.799519 149.27968 
L 284.032919 152.079403 
L 286.266318 154.915258 
L 288.499718 157.787245 
L 290.733118 160.695364 
L 292.966518 163.639616 
L 295.199918 166.62 
" clip-path="url(#p95b3412d0f)" style="fill: none; stroke: #800000; stroke-width: 1.5; stroke-linecap: square"/>
   </g>
   <g id="patch_3">
    <path d="M 63.038 174.04 
L 63.038 10.8 
" style="fill: none; stroke: #000000; stroke-width: 0.8; stroke-linejoin: miter; stroke-linecap: square"/>
   </g>
   <g id="patch_4">
    <path d="M 306.255247 174.04 
L 306.255247 10.8 
" style="fill: none; stroke: #000000; stroke-width: 0.8; stroke-linejoin: miter; stroke-linecap: square"/>
   </g>
   <g id="patch_5">
    <path d="M 63.038 174.04 
L 306.255247 174.04 
" style="fill: none; stroke: #000000; stroke-width: 0.8; stroke-linejoin: miter; stroke-linecap: square"/>
   </g>
   <g id="patch_6">
    <path d="M 63.038 10.8 
L 306.255247 10.8 
" style="fill: none; stroke: #000000; stroke-width: 0.8; stroke-linejoin: miter; stroke-linecap: square"/>
   </g>
   <g id="legend_1">
    <g id="patch_7">
     <path d="M 315.255247 162.878 
L 420.455247 162.878 
Q 422.455247 162.878 422.455247 160.878 
L 422.455247 88.385812 
Q 422.455247 86.385812 420.455247 86.385812 
L 315.255247 86.385812 
Q 313.255247 86.385812 313.255247 88.385812 
L 313.255247 160.878 
Q 313.255247 162.878 315.255247 162.878 
z
" style="fill: #4d4d4d; opacity: 0.5; stroke: #4d4d4d; stroke-linejoin: miter"/>
    </g>
    <g id="patch_8">
     <path d="M 313.255247 160.878 
L 418.455247 160.878 
Q 420.455247 160.878 420.455247 158.878 
L 420.455247 86.385812 
Q 420.455247 84.385812 418.455247 84.385812 
L 313.255247 84.385812 
Q 311.255247 84.385812 311.255247 86.385812 
L 311.255247 158.878 
Q 311.255247 160.878 313.255247 160.878 
z
" style="fill: #ffffff; stroke: #cccccc; stroke-linejoin: miter"/>
    </g>
    <g id="line2d_32">
     <path d="M 315.255247 92.48425 
L 325.255247 92.48425 
L 335.255247 92.48425 
" style="fill: none; stroke: #000080; stroke-width: 1.5; stroke-linecap: square"/>
    </g>
    <g id="text_16">
     <!-- $\delta_e = 0$, $J = 1.60$ -->
     <g transform="translate(343.255247 95.98425) scale(0.1 -0.1)">
      <defs>
       <path id="DejaVuSans-Oblique-3b4" d="M 3472 4053 
Q 3197 4272 2450 4272 
Q 1659 4272 1588 3906 
Q 1531 3619 2328 3469 
Q 2953 3353 3253 3003 
Q 3616 2581 3447 1716 
Q 3284 888 2763 400 
Q 2238 -91 1488 -91 
Q 741 -91 406 400 
Q 72 888 241 1747 
Q 363 2384 891 2900 
Q 1097 3100 1353 3213 
Q 913 3459 1000 3900 
Q 1166 4750 2544 4750 
Q 3234 4750 3566 4531 
L 3472 4053 
z
M 1753 3056 
Q 1525 2966 1306 2738 
Q 969 2384 847 1747 
Q 722 1113 919 756 
Q 1119 397 1584 397 
Q 2044 397 2381 759 
Q 2722 1122 2838 1716 
Q 2956 2338 2731 2638 
Q 2491 2959 2103 2994 
Q 1906 3013 1753 3056 
z
" transform="scale(0.015625)"/>
       <path id="DejaVuSans-Oblique-65" d="M 3078 2063 
Q 3088 2113 3092 2166 
Q 3097 2219 3097 2272 
Q 3097 2653 2873 2875 
Q 2650 3097 2266 3097 
Q 1838 3097 1509 2826 
Q 1181 2556 1013 2059 
L 3078 2063 
z
M 3578 1613 
L 903 1613 
Q 884 1494 878 1425 
Q 872 1356 872 1306 
Q 872 872 1139 634 
Q 1406 397 1894 397 
Q 2269 397 2603 481 
Q 2938 566 3225 728 
L 3116 159 
Q 2806 34 2476 -28 
Q 2147 -91 1806 -91 
Q 1078 -91 686 257 
Q 294 606 294 1247 
Q 294 1794 489 2264 
Q 684 2734 1063 3103 
Q 1306 3334 1642 3459 
Q 1978 3584 2356 3584 
Q 2950 3584 3301 3228 
Q 3653 2872 3653 2272 
Q 3653 2128 3634 1964 
Q 3616 1800 3578 1613 
z
" transform="scale(0.015625)"/>
       <path id="DejaVuSans-3d" d="M 678 2906 
L 4684 2906 
L 4684 2381 
L 678 2381 
L 678 2906 
z
M 678 1631 
L 4684 1631 
L 4684 1100 
L 678 1100 
L 678 1631 
z
" transform="scale(0.015625)"/>
       <path id="DejaVuSans-2c" d="M 750 794 
L 1409 794 
L 1409 256 
L 897 -744 
L 494 -744 
L 750 256 
L 750 794 
z
" transform="scale(0.015625)"/>
       <path id="DejaVuSans-Oblique-4a" d="M 1069 4666 
L 1703 4666 
L 856 325 
Q 691 -522 298 -901 
Q -94 -1281 -800 -1281 
L -1050 -1281 
L -947 -750 
L -750 -750 
Q -328 -750 -109 -509 
Q 109 -269 225 325 
L 1069 4666 
z
" transform="scale(0.015625)"/>
      </defs>
      <use xlink:href="#DejaVuSans-Oblique-3b4" transform="translate(0 0.78125)"/>
      <use xlink:href="#DejaVuSans-Oblique-65" transform="translate(61.181641 -15.625) scale(0.7)"/>
      <use xlink:href="#DejaVuSans-3d" transform="translate(126.464844 0.78125)"/>
      <use xlink:href="#DejaVuSans-30" transform="translate(229.736328 0.78125)"/>
      <use xlink:href="#DejaVuSans-2c" transform="translate(293.359375 0.78125)"/>
      <use xlink:href="#DejaVuSans-20" transform="translate(325.146484 0.78125)"/>
      <use xlink:href="#DejaVuSans-Oblique-4a" transform="translate(356.933594 0.78125)"/>
      <use xlink:href="#DejaVuSans-3d" transform="translate(405.908203 0.78125)"/>
      <use xlink:href="#DejaVuSans-31" transform="translate(509.179688 0.78125)"/>
      <use xlink:href="#DejaVuSans-2e" transform="translate(572.802734 0.78125)"/>
      <use xlink:href="#DejaVuSans-36" transform="translate(604.589844 0.78125)"/>
      <use xlink:href="#DejaVuSans-30" transform="translate(668.212891 0.78125)"/>
     </g>
    </g>
    <g id="line2d_33">
     <path d="M 315.255247 107.182688 
L 325.255247 107.182688 
L 335.255247 107.182688 
" style="fill: none; stroke: #0080ff; stroke-width: 1.5; stroke-linecap: square"/>
    </g>
    <g id="text_17">
     <!-- $\delta_e = 0$, $J = 1.80$ -->
     <g transform="translate(343.255247 110.682688) scale(0.1 -0.1)">
      <defs>
       <path id="DejaVuSans-38" d="M 2034 2216 
Q 1584 2216 1326 1975 
Q 1069 1734 1069 1313 
Q 1069 891 1326 650 
Q 1584 409 2034 409 
Q 2484 409 2743 651 
Q 3003 894 3003 1313 
Q 3003 1734 2745 1975 
Q 2488 2216 2034 2216 
z
M 1403 2484 
Q 997 2584 770 2862 
Q 544 3141 544 3541 
Q 544 4100 942 4425 
Q 1341 4750 2034 4750 
Q 2731 4750 3128 4425 
Q 3525 4100 3525 3541 
Q 3525 3141 3298 2862 
Q 3072 2584 2669 2484 
Q 3125 2378 3379 2068 
Q 3634 1759 3634 1313 
Q 3634 634 3220 271 
Q 2806 -91 2034 -91 
Q 1263 -91 848 271 
Q 434 634 434 1313 
Q 434 1759 690 2068 
Q 947 2378 1403 2484 
z
M 1172 3481 
Q 1172 3119 1398 2916 
Q 1625 2713 2034 2713 
Q 2441 2713 2670 2916 
Q 2900 3119 2900 3481 
Q 2900 3844 2670 4047 
Q 2441 4250 2034 4250 
Q 1625 4250 1398 4047 
Q 1172 3844 1172 3481 
z
" transform="scale(0.015625)"/>
      </defs>
      <use xlink:href="#DejaVuSans-Oblique-3b4" transform="translate(0 0.78125)"/>
      <use xlink:href="#DejaVuSans-Oblique-65" transform="translate(61.181641 -15.625) scale(0.7)"/>
      <use xlink:href="#DejaVuSans-3d" transform="translate(126.464844 0.78125)"/>
      <use xlink:href="#DejaVuSans-30" transform="translate(229.736328 0.78125)"/>
      <use xlink:href="#DejaVuSans-2c" transform="translate(293.359375 0.78125)"/>
      <use xlink:href="#DejaVuSans-20" transform="translate(325.146484 0.78125)"/>
      <use xlink:href="#DejaVuSans-Oblique-4a" transform="translate(356.933594 0.78125)"/>
      <use xlink:href="#DejaVuSans-3d" transform="translate(405.908203 0.78125)"/>
      <use xlink:href="#DejaVuSans-31" transform="translate(509.179688 0.78125)"/>
      <use xlink:href="#DejaVuSans-2e" transform="translate(572.802734 0.78125)"/>
      <use xlink:href="#DejaVuSans-38" transform="translate(601.964844 0.78125)"/>
      <use xlink:href="#DejaVuSans-30" transform="translate(665.587891 0.78125)"/>
     </g>
    </g>
    <g id="line2d_34">
     <path d="M 315.255247 121.881125 
L 325.255247 121.881125 
L 335.255247 121.881125 
" style="fill: none; stroke: #7dff7a; stroke-width: 1.5; stroke-linecap: square"/>
    </g>
    <g id="text_18">
     <!-- $\delta_e = 0$, $J = 2.00$ -->
     <g transform="translate(343.255247 125.381125) scale(0.1 -0.1)">
      <use xlink:href="#DejaVuSans-Oblique-3b4" transform="translate(0 0.78125)"/>
      <use xlink:href="#DejaVuSans-Oblique-65" transform="translate(61.181641 -15.625) scale(0.7)"/>
      <use xlink:href="#DejaVuSans-3d" transform="translate(126.464844 0.78125)"/>
      <use xlink:href="#DejaVuSans-30" transform="translate(229.736328 0.78125)"/>
      <use xlink:href="#DejaVuSans-2c" transform="translate(293.359375 0.78125)"/>
      <use xlink:href="#DejaVuSans-20" transform="translate(325.146484 0.78125)"/>
      <use xlink:href="#DejaVuSans-Oblique-4a" transform="translate(356.933594 0.78125)"/>
      <use xlink:href="#DejaVuSans-3d" transform="translate(405.908203 0.78125)"/>
      <use xlink:href="#DejaVuSans-32" transform="translate(509.179688 0.78125)"/>
      <use xlink:href="#DejaVuSans-2e" transform="translate(572.802734 0.78125)"/>
      <use xlink:href="#DejaVuSans-30" transform="translate(604.589844 0.78125)"/>
      <use xlink:href="#DejaVuSans-30" transform="translate(668.212891 0.78125)"/>
     </g>
    </g>
    <g id="line2d_35">
     <path d="M 315.255247 136.579563 
L 325.255247 136.579563 
L 335.255247 136.579563 
" style="fill: none; stroke: #ff9400; stroke-width: 1.5; stroke-linecap: square"/>
    </g>
    <g id="text_19">
     <!-- $\delta_e = 0$, $J = 2.20$ -->
     <g transform="translate(343.255247 140.079563) scale(0.1 -0.1)">
      <use xlink:href="#DejaVuSans-Oblique-3b4" transform="translate(0 0.78125)"/>
      <use xlink:href="#DejaVuSans-Oblique-65" transform="translate(61.181641 -15.625) scale(0.7)"/>
      <use xlink:href="#DejaVuSans-3d" transform="translate(126.464844 0.78125)"/>
      <use xlink:href="#DejaVuSans-30" transform="translate(229.736328 0.78125)"/>
      <use xlink:href="#DejaVuSans-2c" transform="translate(293.359375 0.78125)"/>
      <use xlink:href="#DejaVuSans-20" transform="translate(325.146484 0.78125)"/>
      <use xlink:href="#DejaVuSans-Oblique-4a" transform="translate(356.933594 0.78125)"/>
      <use xlink:href="#DejaVuSans-3d" transform="translate(405.908203 0.78125)"/>
      <use xlink:href="#DejaVuSans-32" transform="translate(509.179688 0.78125)"/>
      <use xlink:href="#DejaVuSans-2e" transform="translate(572.802734 0.78125)"/>
      <use xlink:href="#DejaVuSans-32" transform="translate(599.089844 0.78125)"/>
      <use xlink:href="#DejaVuSans-30" transform="translate(662.712891 0.78125)"/>
     </g>
    </g>
    <g id="line2d_36">
     <path d="M 315.255247 151.278 
L 325.255247 151.278 
L 335.255247 151.278 
" style="fill: none; stroke: #800000; stroke-width: 1.5; stroke-linecap: square"/>
    </g>
    <g id="text_20">
     <!-- $\delta_e = 0$, $J = 2.40$ -->
     <g transform="translate(343.255247 154.778) scale(0.1 -0.1)">
      <use xlink:href="#DejaVuSans-Oblique-3b4" transform="translate(0 0.78125)"/>
      <use xlink:href="#DejaVuSans-Oblique-65" transform="translate(61.181641 -15.625) scale(0.7)"/>
      <use xlink:href="#DejaVuSans-3d" transform="translate(126.464844 0.78125)"/>
      <use xlink:href="#DejaVuSans-30" transform="translate(229.736328 0.78125)"/>
      <use xlink:href="#DejaVuSans-2c" transform="translate(293.359375 0.78125)"/>
      <use xlink:href="#DejaVuSans-20" transform="translate(325.146484 0.78125)"/>
      <use xlink:href="#DejaVuSans-Oblique-4a" transform="translate(356.933594 0.78125)"/>
      <use xlink:href="#DejaVuSans-3d" transform="translate(405.908203 0.78125)"/>
      <use xlink:href="#DejaVuSans-32" transform="translate(509.179688 0.78125)"/>
      <use xlink:href="#DejaVuSans-2e" transform="translate(572.802734 0.78125)"/>
      <use xlink:href="#DejaVuSans-34" transform="translate(604.589844 0.78125)"/>
      <use xlink:href="#DejaVuSans-30" transform="translate(668.212891 0.78125)"/>
     </g>
    </g>
   </g>
  </g>
 </g>
 <defs>
  <clipPath id="p95b3412d0f">
   <rect x="63.038" y="10.8" width="243.217247" height="163.24"/>
  </clipPath>
 </defs>
</svg>
