<?xml version="1.0" encoding="utf-8" standalone="no"?>
<!DOCTYPE svg PUBLIC "-//W3C//DTD SVG 1.1//EN"
  "http://www.w3.org/Graphics/SVG/1.1/DTD/svg11.dtd">
<svg xmlns:xlink="http://www.w3.org/1999/xlink" width="576pt" height="216pt" viewBox="0 0 576 216" xmlns="http://www.w3.org/2000/svg" version="1.1">
 <metadata>
  <rdf:RDF xmlns:dc="http://purl.org/dc/elements/1.1/" xmlns:cc="http://creativecommons.org/ns#" xmlns:rdf="http://www.w3.org/1999/02/22-rdf-syntax-ns#">
   <cc:Work>
    <dc:type rdf:resource="http://purl.org/dc/dcmitype/StillImage"/>
    <dc:date>2025-03-27T15:29:33.487599</dc:date>
    <dc:format>image/svg+xml</dc:format>
    <dc:creator>
     <cc:Agent>
      <dc:title>Matplotlib v3.9.2, https://matplotlib.org/</dc:title>
     </cc:Agent>
    </dc:creator>
   </cc:Work>
  </rdf:RDF>
 </metadata>
 <defs>
  <style type="text/css">*{stroke-linejoin: round; stroke-linecap: butt}</style>
 </defs>
 <g id="figure_1">
  <g id="patch_1">
   <path d="M 0 216 
L 576 216 
L 576 0 
L 0 0 
z
" style="fill: #ffffff"/>
  </g>
  <g id="axes_1">
   <g id="patch_2">
    <path d="M 56.648 174.04 
L 431.617856 174.04 
L 431.617856 10.8 
L 56.648 10.8 
z
" style="fill: #ffffff"/>
   </g>
   <g id="matplotlib.axis_1">
    <g id="xtick_1">
     <g id="line2d_1">
      <path d="M 73.692084 174.04 
L 73.692084 10.8 
" clip-path="url(#p73075cce44)" style="fill: none; stroke: #b0b0b0; stroke-width: 0.8; stroke-linecap: square"/>
     </g>
     <g id="line2d_2">
      <defs>
       <path id="m931779bb02" d="M 0 0 
L 0 3.5 
" style="stroke: #000000; stroke-width: 0.8"/>
      </defs>
      <g>
       <use xlink:href="#m931779bb02" x="73.692084" y="174.04" style="stroke: #000000; stroke-width: 0.8"/>
      </g>
     </g>
     <g id="text_1">
      <!-- −4 -->
      <g transform="translate(66.320991 188.638438) scale(0.1 -0.1)">
       <defs>
        <path id="DejaVuSans-2212" d="M 678 2272 
L 4684 2272 
L 4684 1741 
L 678 1741 
L 678 2272 
z
" transform="scale(0.015625)"/>
        <path id="DejaVuSans-34" d="M 2419 4116 
L 825 1625 
L 2419 1625 
L 2419 4116 
z
M 2253 4666 
L 3047 4666 
L 3047 1625 
L 3713 1625 
L 3713 1100 
L 3047 1100 
L 3047 0 
L 2419 0 
L 2419 1100 
L 313 1100 
L 313 1709 
L 2253 4666 
z
" transform="scale(0.015625)"/>
       </defs>
       <use xlink:href="#DejaVuSans-2212"/>
       <use xlink:href="#DejaVuSans-34" x="83.789062"/>
      </g>
     </g>
    </g>
    <g id="xtick_2">
     <g id="line2d_3">
      <path d="M 135.670573 174.04 
L 135.670573 10.8 
" clip-path="url(#p73075cce44)" style="fill: none; stroke: #b0b0b0; stroke-width: 0.8; stroke-linecap: square"/>
     </g>
     <g id="line2d_4">
      <g>
       <use xlink:href="#m931779bb02" x="135.670573" y="174.04" style="stroke: #000000; stroke-width: 0.8"/>
      </g>
     </g>
     <g id="text_2">
      <!-- −2 -->
      <g transform="translate(128.299479 188.638438) scale(0.1 -0.1)">
       <defs>
        <path id="DejaVuSans-32" d="M 1228 531 
L 3431 531 
L 3431 0 
L 469 0 
L 469 531 
Q 828 903 1448 1529 
Q 2069 2156 2228 2338 
Q 2531 2678 2651 2914 
Q 2772 3150 2772 3378 
Q 2772 3750 2511 3984 
Q 2250 4219 1831 4219 
Q 1534 4219 1204 4116 
Q 875 4013 500 3803 
L 500 4441 
Q 881 4594 1212 4672 
Q 1544 4750 1819 4750 
Q 2544 4750 2975 4387 
Q 3406 4025 3406 3419 
Q 3406 3131 3298 2873 
Q 3191 2616 2906 2266 
Q 2828 2175 2409 1742 
Q 1991 1309 1228 531 
z
" transform="scale(0.015625)"/>
       </defs>
       <use xlink:href="#DejaVuSans-2212"/>
       <use xlink:href="#DejaVuSans-32" x="83.789062"/>
      </g>
     </g>
    </g>
    <g id="xtick_3">
     <g id="line2d_5">
      <path d="M 197.649061 174.04 
L 197.649061 10.8 
" clip-path="url(#p73075cce44)" style="fill: none; stroke: #b0b0b0; stroke-width: 0.8; stroke-linecap: square"/>
     </g>
     <g id="line2d_6">
      <g>
       <use xlink:href="#m931779bb02" x="197.649061" y="174.04" style="stroke: #000000; stroke-width: 0.8"/>
      </g>
     </g>
     <g id="text_3">
      <!-- 0 -->
      <g transform="translate(194.467811 188.638438) scale(0.1 -0.1)">
       <defs>
        <path id="DejaVuSans-30" d="M 2034 4250 
Q 1547 4250 1301 3770 
Q 1056 3291 1056 2328 
Q 1056 1369 1301 889 
Q 1547 409 2034 409 
Q 2525 409 2770 889 
Q 3016 1369 3016 2328 
Q 3016 3291 2770 3770 
Q 2525 4250 2034 4250 
z
M 2034 4750 
Q 2819 4750 3233 4129 
Q 3647 3509 3647 2328 
Q 3647 1150 3233 529 
Q 2819 -91 2034 -91 
Q 1250 -91 836 529 
Q 422 1150 422 2328 
Q 422 3509 836 4129 
Q 1250 4750 2034 4750 
z
" transform="scale(0.015625)"/>
       </defs>
       <use xlink:href="#DejaVuSans-30"/>
      </g>
     </g>
    </g>
    <g id="xtick_4">
     <g id="line2d_7">
      <path d="M 259.62755 174.04 
L 259.62755 10.8 
" clip-path="url(#p73075cce44)" style="fill: none; stroke: #b0b0b0; stroke-width: 0.8; stroke-linecap: square"/>
     </g>
     <g id="line2d_8">
      <g>
       <use xlink:href="#m931779bb02" x="259.62755" y="174.04" style="stroke: #000000; stroke-width: 0.8"/>
      </g>
     </g>
     <g id="text_4">
      <!-- 2 -->
      <g transform="translate(256.4463 188.638438) scale(0.1 -0.1)">
       <use xlink:href="#DejaVuSans-32"/>
      </g>
     </g>
    </g>
    <g id="xtick_5">
     <g id="line2d_9">
      <path d="M 321.606039 174.04 
L 321.606039 10.8 
" clip-path="url(#p73075cce44)" style="fill: none; stroke: #b0b0b0; stroke-width: 0.8; stroke-linecap: square"/>
     </g>
     <g id="line2d_10">
      <g>
       <use xlink:href="#m931779bb02" x="321.606039" y="174.04" style="stroke: #000000; stroke-width: 0.8"/>
      </g>
     </g>
     <g id="text_5">
      <!-- 4 -->
      <g transform="translate(318.424789 188.638438) scale(0.1 -0.1)">
       <use xlink:href="#DejaVuSans-34"/>
      </g>
     </g>
    </g>
    <g id="xtick_6">
     <g id="line2d_11">
      <path d="M 383.584527 174.04 
L 383.584527 10.8 
" clip-path="url(#p73075cce44)" style="fill: none; stroke: #b0b0b0; stroke-width: 0.8; stroke-linecap: square"/>
     </g>
     <g id="line2d_12">
      <g>
       <use xlink:href="#m931779bb02" x="383.584527" y="174.04" style="stroke: #000000; stroke-width: 0.8"/>
      </g>
     </g>
     <g id="text_6">
      <!-- 6 -->
      <g transform="translate(380.403277 188.638438) scale(0.1 -0.1)">
       <defs>
        <path id="DejaVuSans-36" d="M 2113 2584 
Q 1688 2584 1439 2293 
Q 1191 2003 1191 1497 
Q 1191 994 1439 701 
Q 1688 409 2113 409 
Q 2538 409 2786 701 
Q 3034 994 3034 1497 
Q 3034 2003 2786 2293 
Q 2538 2584 2113 2584 
z
M 3366 4563 
L 3366 3988 
Q 3128 4100 2886 4159 
Q 2644 4219 2406 4219 
Q 1781 4219 1451 3797 
Q 1122 3375 1075 2522 
Q 1259 2794 1537 2939 
Q 1816 3084 2150 3084 
Q 2853 3084 3261 2657 
Q 3669 2231 3669 1497 
Q 3669 778 3244 343 
Q 2819 -91 2113 -91 
Q 1303 -91 875 529 
Q 447 1150 447 2328 
Q 447 3434 972 4092 
Q 1497 4750 2381 4750 
Q 2619 4750 2861 4703 
Q 3103 4656 3366 4563 
z
" transform="scale(0.015625)"/>
       </defs>
       <use xlink:href="#DejaVuSans-36"/>
      </g>
     </g>
    </g>
    <g id="text_7">
     <!-- $\alpha$ -->
     <g transform="translate(240.832928 202.316563) scale(0.1 -0.1)">
      <defs>
       <path id="DejaVuSans-Oblique-3b1" d="M 2619 1628 
L 2622 2350 
Q 2625 3088 2069 3091 
Q 1653 3094 1394 2747 
Q 1069 2319 959 1747 
Q 825 1059 994 731 
Q 1169 397 1547 397 
Q 1966 397 2319 1063 
L 2619 1628 
z
M 2166 3578 
Q 3141 3594 3128 2584 
Q 3128 2584 3616 3500 
L 4128 3500 
L 3119 1603 
L 3109 919 
Q 3109 766 3194 638 
Q 3291 488 3391 488 
L 3669 488 
L 3575 0 
L 3228 0 
Q 2934 0 2722 263 
Q 2622 394 2619 669 
Q 2416 334 2066 50 
Q 1900 -81 1453 -78 
Q 722 -72 456 397 
Q 184 884 353 1747 
Q 534 2675 1009 3097 
Q 1544 3569 2166 3578 
z
" transform="scale(0.015625)"/>
      </defs>
      <use xlink:href="#DejaVuSans-Oblique-3b1" transform="translate(0 0.84375)"/>
     </g>
    </g>
   </g>
   <g id="matplotlib.axis_2">
    <g id="ytick_1">
     <g id="line2d_13">
      <path d="M 56.648 148.749616 
L 431.617856 148.749616 
" clip-path="url(#p73075cce44)" style="fill: none; stroke: #b0b0b0; stroke-width: 0.8; stroke-linecap: square"/>
     </g>
     <g id="line2d_14">
      <defs>
       <path id="m7ea2f04f80" d="M 0 0 
L -3.5 0 
" style="stroke: #000000; stroke-width: 0.8"/>
      </defs>
      <g>
       <use xlink:href="#m7ea2f04f80" x="56.648" y="148.749616" style="stroke: #000000; stroke-width: 0.8"/>
      </g>
     </g>
     <g id="text_8">
      <!-- 0.09 -->
      <g transform="translate(27.382375 152.548835) scale(0.1 -0.1)">
       <defs>
        <path id="DejaVuSans-2e" d="M 684 794 
L 1344 794 
L 1344 0 
L 684 0 
L 684 794 
z
" transform="scale(0.015625)"/>
        <path id="DejaVuSans-39" d="M 703 97 
L 703 672 
Q 941 559 1184 500 
Q 1428 441 1663 441 
Q 2288 441 2617 861 
Q 2947 1281 2994 2138 
Q 2813 1869 2534 1725 
Q 2256 1581 1919 1581 
Q 1219 1581 811 2004 
Q 403 2428 403 3163 
Q 403 3881 828 4315 
Q 1253 4750 1959 4750 
Q 2769 4750 3195 4129 
Q 3622 3509 3622 2328 
Q 3622 1225 3098 567 
Q 2575 -91 1691 -91 
Q 1453 -91 1209 -44 
Q 966 3 703 97 
z
M 1959 2075 
Q 2384 2075 2632 2365 
Q 2881 2656 2881 3163 
Q 2881 3666 2632 3958 
Q 2384 4250 1959 4250 
Q 1534 4250 1286 3958 
Q 1038 3666 1038 3163 
Q 1038 2656 1286 2365 
Q 1534 2075 1959 2075 
z
" transform="scale(0.015625)"/>
       </defs>
       <use xlink:href="#DejaVuSans-30"/>
       <use xlink:href="#DejaVuSans-2e" x="63.623047"/>
       <use xlink:href="#DejaVuSans-30" x="95.410156"/>
       <use xlink:href="#DejaVuSans-39" x="159.033203"/>
      </g>
     </g>
    </g>
    <g id="ytick_2">
     <g id="line2d_15">
      <path d="M 56.648 108.048948 
L 431.617856 108.048948 
" clip-path="url(#p73075cce44)" style="fill: none; stroke: #b0b0b0; stroke-width: 0.8; stroke-linecap: square"/>
     </g>
     <g id="line2d_16">
      <g>
       <use xlink:href="#m7ea2f04f80" x="56.648" y="108.048948" style="stroke: #000000; stroke-width: 0.8"/>
      </g>
     </g>
     <g id="text_9">
      <!-- 0.10 -->
      <g transform="translate(27.382375 111.848166) scale(0.1 -0.1)">
       <defs>
        <path id="DejaVuSans-31" d="M 794 531 
L 1825 531 
L 1825 4091 
L 703 3866 
L 703 4441 
L 1819 4666 
L 2450 4666 
L 2450 531 
L 3481 531 
L 3481 0 
L 794 0 
L 794 531 
z
" transform="scale(0.015625)"/>
       </defs>
       <use xlink:href="#DejaVuSans-30"/>
       <use xlink:href="#DejaVuSans-2e" x="63.623047"/>
       <use xlink:href="#DejaVuSans-31" x="95.410156"/>
       <use xlink:href="#DejaVuSans-30" x="159.033203"/>
      </g>
     </g>
    </g>
    <g id="ytick_3">
     <g id="line2d_17">
      <path d="M 56.648 67.348279 
L 431.617856 67.348279 
" clip-path="url(#p73075cce44)" style="fill: none; stroke: #b0b0b0; stroke-width: 0.8; stroke-linecap: square"/>
     </g>
     <g id="line2d_18">
      <g>
       <use xlink:href="#m7ea2f04f80" x="56.648" y="67.348279" style="stroke: #000000; stroke-width: 0.8"/>
      </g>
     </g>
     <g id="text_10">
      <!-- 0.11 -->
      <g transform="translate(27.382375 71.147498) scale(0.1 -0.1)">
       <use xlink:href="#DejaVuSans-30"/>
       <use xlink:href="#DejaVuSans-2e" x="63.623047"/>
       <use xlink:href="#DejaVuSans-31" x="95.410156"/>
       <use xlink:href="#DejaVuSans-31" x="159.033203"/>
      </g>
     </g>
    </g>
    <g id="ytick_4">
     <g id="line2d_19">
      <path d="M 56.648 26.64761 
L 431.617856 26.64761 
" clip-path="url(#p73075cce44)" style="fill: none; stroke: #b0b0b0; stroke-width: 0.8; stroke-linecap: square"/>
     </g>
     <g id="line2d_20">
      <g>
       <use xlink:href="#m7ea2f04f80" x="56.648" y="26.64761" style="stroke: #000000; stroke-width: 0.8"/>
      </g>
     </g>
     <g id="text_11">
      <!-- 0.12 -->
      <g transform="translate(27.382375 30.446829) scale(0.1 -0.1)">
       <use xlink:href="#DejaVuSans-30"/>
       <use xlink:href="#DejaVuSans-2e" x="63.623047"/>
       <use xlink:href="#DejaVuSans-31" x="95.410156"/>
       <use xlink:href="#DejaVuSans-32" x="159.033203"/>
      </g>
     </g>
    </g>
    <g id="text_12">
     <!-- d$C_L$ / d$\alpha$ -->
     <g transform="translate(21.302688 112.52) rotate(-90) scale(0.1 -0.1)">
      <defs>
       <path id="DejaVuSans-64" d="M 2906 2969 
L 2906 4863 
L 3481 4863 
L 3481 0 
L 2906 0 
L 2906 525 
Q 2725 213 2448 61 
Q 2172 -91 1784 -91 
Q 1150 -91 751 415 
Q 353 922 353 1747 
Q 353 2572 751 3078 
Q 1150 3584 1784 3584 
Q 2172 3584 2448 3432 
Q 2725 3281 2906 2969 
z
M 947 1747 
Q 947 1113 1208 752 
Q 1469 391 1925 391 
Q 2381 391 2643 752 
Q 2906 1113 2906 1747 
Q 2906 2381 2643 2742 
Q 2381 3103 1925 3103 
Q 1469 3103 1208 2742 
Q 947 2381 947 1747 
z
" transform="scale(0.015625)"/>
       <path id="DejaVuSans-Oblique-43" d="M 4447 4306 
L 4319 3641 
Q 4019 3944 3683 4091 
Q 3347 4238 2956 4238 
Q 2422 4238 2017 3981 
Q 1613 3725 1319 3200 
Q 1131 2863 1032 2486 
Q 934 2109 934 1728 
Q 934 1091 1264 756 
Q 1594 422 2222 422 
Q 2656 422 3056 561 
Q 3456 700 3834 978 
L 3688 231 
Q 3316 72 2936 -9 
Q 2556 -91 2175 -91 
Q 1278 -91 773 396 
Q 269 884 269 1753 
Q 269 2309 461 2846 
Q 653 3384 1013 3828 
Q 1394 4300 1883 4525 
Q 2372 4750 3022 4750 
Q 3422 4750 3780 4639 
Q 4138 4528 4447 4306 
z
" transform="scale(0.015625)"/>
       <path id="DejaVuSans-Oblique-4c" d="M 1075 4666 
L 1709 4666 
L 909 525 
L 3181 525 
L 3078 0 
L 172 0 
L 1075 4666 
z
" transform="scale(0.015625)"/>
       <path id="DejaVuSans-20" transform="scale(0.015625)"/>
       <path id="DejaVuSans-2f" d="M 1625 4666 
L 2156 4666 
L 531 -594 
L 0 -594 
L 1625 4666 
z
" transform="scale(0.015625)"/>
      </defs>
      <use xlink:href="#DejaVuSans-64" transform="translate(0 0.015625)"/>
      <use xlink:href="#DejaVuSans-Oblique-43" transform="translate(63.476562 0.015625)"/>
      <use xlink:href="#DejaVuSans-Oblique-4c" transform="translate(133.300781 -16.390625) scale(0.7)"/>
      <use xlink:href="#DejaVuSans-20" transform="translate(175.03418 0.015625)"/>
      <use xlink:href="#DejaVuSans-2f" transform="translate(206.821289 0.015625)"/>
      <use xlink:href="#DejaVuSans-20" transform="translate(240.512695 0.015625)"/>
      <use xlink:href="#DejaVuSans-64" transform="translate(272.299805 0.015625)"/>
      <use xlink:href="#DejaVuSans-Oblique-3b1" transform="translate(335.776367 0.015625)"/>
     </g>
    </g>
   </g>
   <g id="line2d_21">
    <path d="M 73.692084 30.266425 
L 77.135334 29.824021 
L 80.578583 29.413248 
L 84.021832 29.034105 
L 87.465082 28.686594 
L 90.908331 28.370712 
L 94.351581 28.086462 
L 97.79483 27.833842 
L 101.238079 27.612853 
L 104.681329 27.423494 
L 108.124578 27.265766 
L 111.567827 27.139669 
L 115.011077 27.045202 
L 118.454326 26.982366 
L 121.897575 26.951161 
L 125.340825 26.951586 
L 128.784074 26.983642 
L 132.227324 27.047328 
L 135.670573 27.142645 
L 139.113822 27.269593 
L 142.557072 27.428171 
L 146.000321 27.61838 
L 149.44357 27.84022 
L 152.88682 28.09369 
L 156.330069 28.378791 
L 159.773318 28.695523 
L 163.216568 29.043885 
L 166.659817 29.423878 
L 170.103067 29.835502 
L 173.546316 30.278756 
L 176.989565 30.753641 
L 180.432815 31.260156 
L 183.876064 31.798302 
L 187.319313 32.368079 
L 190.762563 32.969486 
L 194.205812 33.602524 
L 197.649061 34.267193 
L 201.092311 34.963492 
L 204.53556 35.691422 
L 207.97881 36.450983 
L 211.422059 37.242174 
L 214.865308 38.064996 
L 218.308558 38.919448 
L 221.751807 39.805531 
L 225.195056 40.723245 
L 228.638306 41.67259 
L 232.081555 42.653565 
L 235.524805 43.66617 
L 238.968054 44.710407 
L 242.411303 45.786274 
L 245.854553 46.893771 
L 249.297802 48.0329 
L 252.741051 49.203658 
L 256.184301 50.406048 
L 259.62755 51.640068 
L 263.070799 52.905719 
L 266.514049 54.203 
L 269.957298 55.531912 
L 273.400548 56.892455 
L 276.843797 58.284629 
L 280.287046 59.708433 
L 283.730296 61.163867 
L 287.173545 62.650933 
L 290.616794 64.169628 
L 294.060044 65.719955 
L 297.503293 67.301912 
L 300.946542 68.9155 
L 304.389792 70.560719 
L 307.833041 72.237568 
L 311.276291 73.946047 
L 314.71954 75.686158 
L 318.162789 77.457899 
L 321.606039 79.261271 
L 325.049288 81.096273 
L 328.492537 82.962906 
L 331.935787 84.861169 
L 335.379036 86.791064 
L 338.822285 88.752589 
L 342.265535 90.745744 
L 345.708784 92.77053 
L 349.152034 94.826947 
L 352.595283 96.914995 
L 356.038532 99.034673 
L 359.481782 101.185981 
L 362.925031 103.368921 
L 366.36828 105.583491 
L 369.81153 107.829691 
L 373.254779 110.107523 
L 376.698028 112.416985 
L 380.141278 114.758077 
L 383.584527 117.1308 
L 387.027777 119.535154 
L 390.471026 121.971139 
L 393.914275 124.438754 
L 397.357525 126.938 
L 400.800774 129.468876 
L 404.244023 132.031383 
L 407.687273 134.625521 
L 411.130522 137.251289 
L 414.573771 139.908688 
" clip-path="url(#p73075cce44)" style="fill: none; stroke: #000080; stroke-width: 1.5; stroke-linecap: square"/>
   </g>
   <g id="line2d_22">
    <path d="M 73.692084 24.279032 
L 77.135334 24.032013 
L 80.578583 23.816624 
L 84.021832 23.632866 
L 87.465082 23.480738 
L 90.908331 23.360241 
L 94.351581 23.271375 
L 97.79483 23.21414 
L 101.238079 23.188535 
L 104.681329 23.19456 
L 108.124578 23.232217 
L 111.567827 23.301504 
L 115.011077 23.402421 
L 118.454326 23.53497 
L 121.897575 23.699149 
L 125.340825 23.894958 
L 128.784074 24.122398 
L 132.227324 24.381469 
L 135.670573 24.672171 
L 139.113822 24.994503 
L 142.557072 25.348465 
L 146.000321 25.734059 
L 149.44357 26.151283 
L 152.88682 26.600137 
L 156.330069 27.080623 
L 159.773318 27.592739 
L 163.216568 28.136485 
L 166.659817 28.711862 
L 170.103067 29.31887 
L 173.546316 29.957509 
L 176.989565 30.627778 
L 180.432815 31.329678 
L 183.876064 32.063208 
L 187.319313 32.828369 
L 190.762563 33.625161 
L 194.205812 34.453583 
L 197.649061 35.313636 
L 201.092311 36.20532 
L 204.53556 37.128634 
L 207.97881 38.083579 
L 211.422059 39.070155 
L 214.865308 40.088361 
L 218.308558 41.138198 
L 221.751807 42.219665 
L 225.195056 43.332763 
L 228.638306 44.477492 
L 232.081555 45.653851 
L 235.524805 46.861841 
L 238.968054 48.101462 
L 242.411303 49.372713 
L 245.854553 50.675595 
L 249.297802 52.010108 
L 252.741051 53.376251 
L 256.184301 54.774025 
L 259.62755 56.203429 
L 263.070799 57.664464 
L 266.514049 59.15713 
L 269.957298 60.681427 
L 273.400548 62.237354 
L 276.843797 63.824911 
L 280.287046 65.4441 
L 283.730296 67.094919 
L 287.173545 68.777368 
L 290.616794 70.491449 
L 294.060044 72.237159 
L 297.503293 74.014501 
L 300.946542 75.823473 
L 304.389792 77.664076 
L 307.833041 79.536309 
L 311.276291 81.440174 
L 314.71954 83.375668 
L 318.162789 85.342794 
L 321.606039 87.34155 
L 325.049288 89.371936 
L 328.492537 91.433954 
L 331.935787 93.527602 
L 335.379036 95.65288 
L 338.822285 97.809789 
L 342.265535 99.998329 
L 345.708784 102.2185 
L 349.152034 104.470301 
L 352.595283 106.753733 
L 356.038532 109.068795 
L 359.481782 111.415488 
L 362.925031 113.793812 
L 366.36828 116.203766 
L 369.81153 118.645351 
L 373.254779 121.118567 
L 376.698028 123.623413 
L 380.141278 126.15989 
L 383.584527 128.727997 
L 387.027777 131.327736 
L 390.471026 133.959104 
L 393.914275 136.622104 
L 397.357525 139.316734 
L 400.800774 142.042995 
L 404.244023 144.800886 
L 407.687273 147.590408 
L 411.130522 150.411561 
L 414.573771 153.264344 
" clip-path="url(#p73075cce44)" style="fill: none; stroke: #7dff7a; stroke-width: 1.5; stroke-linecap: square"/>
   </g>
   <g id="line2d_23">
    <path d="M 73.692084 18.29164 
L 77.135334 18.240004 
L 80.578583 18.22 
L 84.021832 18.231626 
L 87.465082 18.274883 
L 90.908331 18.34977 
L 94.351581 18.456289 
L 97.79483 18.594437 
L 101.238079 18.764217 
L 104.681329 18.965627 
L 108.124578 19.198667 
L 111.567827 19.463339 
L 115.011077 19.759641 
L 118.454326 20.087573 
L 121.897575 20.447137 
L 125.340825 20.83833 
L 128.784074 21.261155 
L 132.227324 21.71561 
L 135.670573 22.201696 
L 139.113822 22.719412 
L 142.557072 23.268759 
L 146.000321 23.849737 
L 149.44357 24.462345 
L 152.88682 25.106584 
L 156.330069 25.782454 
L 159.773318 26.489954 
L 163.216568 27.229085 
L 166.659817 27.999847 
L 170.103067 28.802239 
L 173.546316 29.636262 
L 176.989565 30.501915 
L 180.432815 31.399199 
L 183.876064 32.328114 
L 187.319313 33.288659 
L 190.762563 34.280836 
L 194.205812 35.304642 
L 197.649061 36.360079 
L 201.092311 37.447147 
L 204.53556 38.565846 
L 207.97881 39.716175 
L 211.422059 40.898135 
L 214.865308 42.111726 
L 218.308558 43.356947 
L 221.751807 44.633799 
L 225.195056 45.942281 
L 228.638306 47.282394 
L 232.081555 48.654138 
L 235.524805 50.057512 
L 238.968054 51.492517 
L 242.411303 52.959153 
L 245.854553 54.457419 
L 249.297802 55.987316 
L 252.741051 57.548843 
L 256.184301 59.142002 
L 259.62755 60.76679 
L 263.070799 62.42321 
L 266.514049 64.11126 
L 269.957298 65.830941 
L 273.400548 67.582252 
L 276.843797 69.365194 
L 280.287046 71.179767 
L 283.730296 73.02597 
L 287.173545 74.903804 
L 290.616794 76.813269 
L 294.060044 78.754364 
L 297.503293 80.72709 
L 300.946542 82.731446 
L 304.389792 84.767433 
L 307.833041 86.835051 
L 311.276291 88.9343 
L 314.71954 91.065179 
L 318.162789 93.227688 
L 321.606039 95.421829 
L 325.049288 97.6476 
L 328.492537 99.905001 
L 331.935787 102.194034 
L 335.379036 104.514697 
L 338.822285 106.86699 
L 342.265535 109.250914 
L 345.708784 111.666469 
L 349.152034 114.113655 
L 352.595283 116.592471 
L 356.038532 119.102917 
L 359.481782 121.644995 
L 362.925031 124.218703 
L 366.36828 126.824042 
L 369.81153 129.461011 
L 373.254779 132.129611 
L 376.698028 134.829841 
L 380.141278 137.561703 
L 383.584527 140.325194 
L 387.027777 143.120317 
L 390.471026 145.94707 
L 393.914275 148.805454 
L 397.357525 151.695468 
L 400.800774 154.617113 
L 404.244023 157.570389 
L 407.687273 160.555295 
L 411.130522 163.571832 
L 414.573771 166.62 
" clip-path="url(#p73075cce44)" style="fill: none; stroke: #800000; stroke-width: 1.5; stroke-linecap: square"/>
   </g>
   <g id="patch_3">
    <path d="M 56.648 174.04 
L 56.648 10.8 
" style="fill: none; stroke: #000000; stroke-width: 0.8; stroke-linejoin: miter; stroke-linecap: square"/>
   </g>
   <g id="patch_4">
    <path d="M 431.617856 174.04 
L 431.617856 10.8 
" style="fill: none; stroke: #000000; stroke-width: 0.8; stroke-linejoin: miter; stroke-linecap: square"/>
   </g>
   <g id="patch_5">
    <path d="M 56.648 174.04 
L 431.617856 174.04 
" style="fill: none; stroke: #000000; stroke-width: 0.8; stroke-linejoin: miter; stroke-linecap: square"/>
   </g>
   <g id="patch_6">
    <path d="M 56.648 10.8 
L 431.617856 10.8 
" style="fill: none; stroke: #000000; stroke-width: 0.8; stroke-linejoin: miter; stroke-linecap: square"/>
   </g>
   <g id="legend_1">
    <g id="patch_7">
     <path d="M 440.617856 162.878 
L 564.517856 162.878 
Q 566.517856 162.878 566.517856 160.878 
L 566.517856 117.782687 
Q 566.517856 115.782687 564.517856 115.782687 
L 440.617856 115.782687 
Q 438.617856 115.782687 438.617856 117.782687 
L 438.617856 160.878 
Q 438.617856 162.878 440.617856 162.878 
z
" style="fill: #4d4d4d; opacity: 0.5; stroke: #4d4d4d; stroke-linejoin: miter"/>
    </g>
    <g id="patch_8">
     <path d="M 438.617856 160.878 
L 562.517856 160.878 
Q 564.517856 160.878 564.517856 158.878 
L 564.517856 115.782687 
Q 564.517856 113.782687 562.517856 113.782687 
L 438.617856 113.782687 
Q 436.617856 113.782687 436.617856 115.782687 
L 436.617856 158.878 
Q 436.617856 160.878 438.617856 160.878 
z
" style="fill: #ffffff; stroke: #cccccc; stroke-linejoin: miter"/>
    </g>
    <g id="line2d_24">
     <path d="M 440.617856 121.881125 
L 450.617856 121.881125 
L 460.617856 121.881125 
" style="fill: none; stroke: #000080; stroke-width: 1.5; stroke-linecap: square"/>
    </g>
    <g id="text_13">
     <!-- $\delta_e = -10$, $J = 1.60$ -->
     <g transform="translate(468.617856 125.381125) scale(0.1 -0.1)">
      <defs>
       <path id="DejaVuSans-Oblique-3b4" d="M 3472 4053 
Q 3197 4272 2450 4272 
Q 1659 4272 1588 3906 
Q 1531 3619 2328 3469 
Q 2953 3353 3253 3003 
Q 3616 2581 3447 1716 
Q 3284 888 2763 400 
Q 2238 -91 1488 -91 
Q 741 -91 406 400 
Q 72 888 241 1747 
Q 363 2384 891 2900 
Q 1097 3100 1353 3213 
Q 913 3459 1000 3900 
Q 1166 4750 2544 4750 
Q 3234 4750 3566 4531 
L 3472 4053 
z
M 1753 3056 
Q 1525 2966 1306 2738 
Q 969 2384 847 1747 
Q 722 1113 919 756 
Q 1119 397 1584 397 
Q 2044 397 2381 759 
Q 2722 1122 2838 1716 
Q 2956 2338 2731 2638 
Q 2491 2959 2103 2994 
Q 1906 3013 1753 3056 
z
" transform="scale(0.015625)"/>
       <path id="DejaVuSans-Oblique-65" d="M 3078 2063 
Q 3088 2113 3092 2166 
Q 3097 2219 3097 2272 
Q 3097 2653 2873 2875 
Q 2650 3097 2266 3097 
Q 1838 3097 1509 2826 
Q 1181 2556 1013 2059 
L 3078 2063 
z
M 3578 1613 
L 903 1613 
Q 884 1494 878 1425 
Q 872 1356 872 1306 
Q 872 872 1139 634 
Q 1406 397 1894 397 
Q 2269 397 2603 481 
Q 2938 566 3225 728 
L 3116 159 
Q 2806 34 2476 -28 
Q 2147 -91 1806 -91 
Q 1078 -91 686 257 
Q 294 606 294 1247 
Q 294 1794 489 2264 
Q 684 2734 1063 3103 
Q 1306 3334 1642 3459 
Q 1978 3584 2356 3584 
Q 2950 3584 3301 3228 
Q 3653 2872 3653 2272 
Q 3653 2128 3634 1964 
Q 3616 1800 3578 1613 
z
" transform="scale(0.015625)"/>
       <path id="DejaVuSans-3d" d="M 678 2906 
L 4684 2906 
L 4684 2381 
L 678 2381 
L 678 2906 
z
M 678 1631 
L 4684 1631 
L 4684 1100 
L 678 1100 
L 678 1631 
z
" transform="scale(0.015625)"/>
       <path id="DejaVuSans-2c" d="M 750 794 
L 1409 794 
L 1409 256 
L 897 -744 
L 494 -744 
L 750 256 
L 750 794 
z
" transform="scale(0.015625)"/>
       <path id="DejaVuSans-Oblique-4a" d="M 1069 4666 
L 1703 4666 
L 856 325 
Q 691 -522 298 -901 
Q -94 -1281 -800 -1281 
L -1050 -1281 
L -947 -750 
L -750 -750 
Q -328 -750 -109 -509 
Q 109 -269 225 325 
L 1069 4666 
z
" transform="scale(0.015625)"/>
      </defs>
      <use xlink:href="#DejaVuSans-Oblique-3b4" transform="translate(0 0.78125)"/>
      <use xlink:href="#DejaVuSans-Oblique-65" transform="translate(61.181641 -15.625) scale(0.7)"/>
      <use xlink:href="#DejaVuSans-3d" transform="translate(126.464844 0.78125)"/>
      <use xlink:href="#DejaVuSans-2212" transform="translate(249.21875 0.78125)"/>
      <use xlink:href="#DejaVuSans-31" transform="translate(352.490234 0.78125)"/>
      <use xlink:href="#DejaVuSans-30" transform="translate(416.113281 0.78125)"/>
      <use xlink:href="#DejaVuSans-2c" transform="translate(479.736328 0.78125)"/>
      <use xlink:href="#DejaVuSans-20" transform="translate(511.523438 0.78125)"/>
      <use xlink:href="#DejaVuSans-Oblique-4a" transform="translate(543.310547 0.78125)"/>
      <use xlink:href="#DejaVuSans-3d" transform="translate(592.285156 0.78125)"/>
      <use xlink:href="#DejaVuSans-31" transform="translate(695.556641 0.78125)"/>
      <use xlink:href="#DejaVuSans-2e" transform="translate(759.179688 0.78125)"/>
      <use xlink:href="#DejaVuSans-36" transform="translate(790.966797 0.78125)"/>
      <use xlink:href="#DejaVuSans-30" transform="translate(854.589844 0.78125)"/>
     </g>
    </g>
    <g id="line2d_25">
     <path d="M 440.617856 136.579563 
L 450.617856 136.579563 
L 460.617856 136.579563 
" style="fill: none; stroke: #7dff7a; stroke-width: 1.5; stroke-linecap: square"/>
    </g>
    <g id="text_14">
     <!-- $\delta_e = 0$, $J = 1.60$ -->
     <g transform="translate(468.617856 140.079563) scale(0.1 -0.1)">
      <use xlink:href="#DejaVuSans-Oblique-3b4" transform="translate(0 0.78125)"/>
      <use xlink:href="#DejaVuSans-Oblique-65" transform="translate(61.181641 -15.625) scale(0.7)"/>
      <use xlink:href="#DejaVuSans-3d" transform="translate(126.464844 0.78125)"/>
      <use xlink:href="#DejaVuSans-30" transform="translate(229.736328 0.78125)"/>
      <use xlink:href="#DejaVuSans-2c" transform="translate(293.359375 0.78125)"/>
      <use xlink:href="#DejaVuSans-20" transform="translate(325.146484 0.78125)"/>
      <use xlink:href="#DejaVuSans-Oblique-4a" transform="translate(356.933594 0.78125)"/>
      <use xlink:href="#DejaVuSans-3d" transform="translate(405.908203 0.78125)"/>
      <use xlink:href="#DejaVuSans-31" transform="translate(509.179688 0.78125)"/>
      <use xlink:href="#DejaVuSans-2e" transform="translate(572.802734 0.78125)"/>
      <use xlink:href="#DejaVuSans-36" transform="translate(604.589844 0.78125)"/>
      <use xlink:href="#DejaVuSans-30" transform="translate(668.212891 0.78125)"/>
     </g>
    </g>
    <g id="line2d_26">
     <path d="M 440.617856 151.278 
L 450.617856 151.278 
L 460.617856 151.278 
" style="fill: none; stroke: #800000; stroke-width: 1.5; stroke-linecap: square"/>
    </g>
    <g id="text_15">
     <!-- $\delta_e = 10$, $J = 1.60$ -->
     <g transform="translate(468.617856 154.778) scale(0.1 -0.1)">
      <use xlink:href="#DejaVuSans-Oblique-3b4" transform="translate(0 0.78125)"/>
      <use xlink:href="#DejaVuSans-Oblique-65" transform="translate(61.181641 -15.625) scale(0.7)"/>
      <use xlink:href="#DejaVuSans-3d" transform="translate(126.464844 0.78125)"/>
      <use xlink:href="#DejaVuSans-31" transform="translate(229.736328 0.78125)"/>
      <use xlink:href="#DejaVuSans-30" transform="translate(293.359375 0.78125)"/>
      <use xlink:href="#DejaVuSans-2c" transform="translate(356.982422 0.78125)"/>
      <use xlink:href="#DejaVuSans-20" transform="translate(388.769531 0.78125)"/>
      <use xlink:href="#DejaVuSans-Oblique-4a" transform="translate(420.556641 0.78125)"/>
      <use xlink:href="#DejaVuSans-3d" transform="translate(469.53125 0.78125)"/>
      <use xlink:href="#DejaVuSans-31" transform="translate(572.802734 0.78125)"/>
      <use xlink:href="#DejaVuSans-2e" transform="translate(636.425781 0.78125)"/>
      <use xlink:href="#DejaVuSans-36" transform="translate(668.212891 0.78125)"/>
      <use xlink:href="#DejaVuSans-30" transform="translate(731.835938 0.78125)"/>
     </g>
    </g>
   </g>
  </g>
 </g>
 <defs>
  <clipPath id="p73075cce44">
   <rect x="56.648" y="10.8" width="374.969856" height="163.24"/>
  </clipPath>
 </defs>
</svg>
