<?xml version="1.0" encoding="utf-8" standalone="no"?>
<!DOCTYPE svg PUBLIC "-//W3C//DTD SVG 1.1//EN"
  "http://www.w3.org/Graphics/SVG/1.1/DTD/svg11.dtd">
<svg xmlns:xlink="http://www.w3.org/1999/xlink" width="432pt" height="216pt" viewBox="0 0 432 216" xmlns="http://www.w3.org/2000/svg" version="1.1">
 <metadata>
  <rdf:RDF xmlns:dc="http://purl.org/dc/elements/1.1/" xmlns:cc="http://creativecommons.org/ns#" xmlns:rdf="http://www.w3.org/1999/02/22-rdf-syntax-ns#">
   <cc:Work>
    <dc:type rdf:resource="http://purl.org/dc/dcmitype/StillImage"/>
    <dc:date>2025-03-31T11:57:47.822617</dc:date>
    <dc:format>image/svg+xml</dc:format>
    <dc:creator>
     <cc:Agent>
      <dc:title>Matplotlib v3.9.2, https://matplotlib.org/</dc:title>
     </cc:Agent>
    </dc:creator>
   </cc:Work>
  </rdf:RDF>
 </metadata>
 <defs>
  <style type="text/css">*{stroke-linejoin: round; stroke-linecap: butt}</style>
 </defs>
 <g id="figure_1">
  <g id="patch_1">
   <path d="M 0 216 
L 432 216 
L 432 0 
L 0 0 
z
" style="fill: #ffffff"/>
  </g>
  <g id="axes_1">
   <g id="patch_2">
    <path d="M 63.038 168.568 
L 288.833656 168.568 
L 288.833656 28.876 
L 63.038 28.876 
z
" style="fill: #ffffff"/>
   </g>
   <g id="PathCollection_1">
    <defs>
     <path id="m186672a666" d="M -3 3 
L 3 -3 
M -3 -3 
L 3 3 
" style="stroke: #000080; stroke-width: 1.5"/>
    </defs>
    <g clip-path="url(#p34f4e2ef6c)">
     <use xlink:href="#m186672a666" x="105.330775" y="57.625931" style="fill: #000080; stroke: #000080; stroke-width: 1.5"/>
     <use xlink:href="#m186672a666" x="78.527628" y="57.402841" style="fill: #000080; stroke: #000080; stroke-width: 1.5"/>
     <use xlink:href="#m186672a666" x="255.030954" y="45.871586" style="fill: #000080; stroke: #000080; stroke-width: 1.5"/>
     <use xlink:href="#m186672a666" x="140.691807" y="55.778008" style="fill: #000080; stroke: #000080; stroke-width: 1.5"/>
     <use xlink:href="#m186672a666" x="188.957203" y="51.870466" style="fill: #000080; stroke: #000080; stroke-width: 1.5"/>
     <use xlink:href="#m186672a666" x="253.056263" y="45.890732" style="fill: #000080; stroke: #000080; stroke-width: 1.5"/>
     <use xlink:href="#m186672a666" x="252.966838" y="45.890732" style="fill: #000080; stroke: #000080; stroke-width: 1.5"/>
    </g>
   </g>
   <g id="PathCollection_2">
    <defs>
     <path id="m1bfc77a134" d="M -3 0 
L 3 0 
M 0 3 
L 0 -3 
" style="stroke: #0000ff; stroke-width: 1.5"/>
    </defs>
    <g clip-path="url(#p34f4e2ef6c)">
     <use xlink:href="#m1bfc77a134" x="158.298237" y="59.245836" style="fill: #0000ff; stroke: #0000ff; stroke-width: 1.5"/>
     <use xlink:href="#m1bfc77a134" x="205.936713" y="49.481943" style="fill: #0000ff; stroke: #0000ff; stroke-width: 1.5"/>
     <use xlink:href="#m1bfc77a134" x="123.487269" y="64.40113" style="fill: #0000ff; stroke: #0000ff; stroke-width: 1.5"/>
     <use xlink:href="#m1bfc77a134" x="96.717395" y="64.986891" style="fill: #0000ff; stroke: #0000ff; stroke-width: 1.5"/>
    </g>
   </g>
   <g id="PathCollection_3">
    <defs>
     <path id="m1e4a06afe5" d="M -3 3 
L 3 -3 
M -3 -3 
L 3 3 
" style="stroke: #0060ff; stroke-width: 1.5"/>
    </defs>
    <g clip-path="url(#p34f4e2ef6c)">
     <use xlink:href="#m1e4a06afe5" x="260.836462" y="44.447131" style="fill: #0060ff; stroke: #0060ff; stroke-width: 1.5"/>
    </g>
   </g>
   <g id="PathCollection_4">
    <defs>
     <path id="m0a86c69393" d="M -3 0 
L 3 0 
M 0 3 
L 0 -3 
" style="stroke: #00d4ff; stroke-width: 1.5"/>
    </defs>
    <g clip-path="url(#p34f4e2ef6c)">
     <use xlink:href="#m0a86c69393" x="118.931222" y="62.530522" style="fill: #00d4ff; stroke: #00d4ff; stroke-width: 1.5"/>
     <use xlink:href="#m0a86c69393" x="267.735475" y="43.05712" style="fill: #00d4ff; stroke: #00d4ff; stroke-width: 1.5"/>
     <use xlink:href="#m0a86c69393" x="134.475782" y="61.461855" style="fill: #00d4ff; stroke: #00d4ff; stroke-width: 1.5"/>
    </g>
   </g>
   <g id="PathCollection_5">
    <defs>
     <path id="m8dcd4b02e4" d="M -3 3 
L 3 -3 
M -3 -3 
L 3 3 
" style="stroke: #4dffaa; stroke-width: 1.5"/>
    </defs>
    <g clip-path="url(#p34f4e2ef6c)">
     <use xlink:href="#m8dcd4b02e4" x="94.819554" y="71.380321" style="fill: #4dffaa; stroke: #4dffaa; stroke-width: 1.5"/>
     <use xlink:href="#m8dcd4b02e4" x="136.953858" y="67.647016" style="fill: #4dffaa; stroke: #4dffaa; stroke-width: 1.5"/>
    </g>
   </g>
   <g id="PathCollection_6">
    <defs>
     <path id="m756d7e0ad8" d="M -3 0 
L 3 0 
M 0 3 
L 0 -3 
" style="stroke: #aaff4d; stroke-width: 1.5"/>
    </defs>
    <g clip-path="url(#p34f4e2ef6c)">
     <use xlink:href="#m756d7e0ad8" x="170.646535" y="73.573955" style="fill: #aaff4d; stroke: #aaff4d; stroke-width: 1.5"/>
     <use xlink:href="#m756d7e0ad8" x="86.118164" y="74.890258" style="fill: #aaff4d; stroke: #aaff4d; stroke-width: 1.5"/>
    </g>
   </g>
   <g id="PathCollection_7">
    <defs>
     <path id="m0b9234ec9c" d="M -3 3 
L 3 -3 
M -3 -3 
L 3 3 
" style="stroke: #ffe600; stroke-width: 1.5"/>
    </defs>
    <g clip-path="url(#p34f4e2ef6c)">
     <use xlink:href="#m0b9234ec9c" x="209.622935" y="96.87608" style="fill: #ffe600; stroke: #ffe600; stroke-width: 1.5"/>
    </g>
   </g>
   <g id="PathCollection_8">
    <defs>
     <path id="m4c3d817c91" d="M -3 0 
L 3 0 
M 0 3 
L 0 -3 
" style="stroke: #ff7a00; stroke-width: 1.5"/>
    </defs>
    <g clip-path="url(#p34f4e2ef6c)">
     <use xlink:href="#m4c3d817c91" x="227.213198" y="110.877339" style="fill: #ff7a00; stroke: #ff7a00; stroke-width: 1.5"/>
    </g>
   </g>
   <g id="PathCollection_9">
    <defs>
     <path id="m0030315901" d="M -3 3 
L 3 -3 
M -3 -3 
L 3 3 
" style="stroke: #ff1300; stroke-width: 1.5"/>
    </defs>
    <g clip-path="url(#p34f4e2ef6c)">
     <use xlink:href="#m0030315901" x="190.350124" y="142.224852" style="fill: #ff1300; stroke: #ff1300; stroke-width: 1.5"/>
     <use xlink:href="#m0030315901" x="278.343482" y="138.639504" style="fill: #ff1300; stroke: #ff1300; stroke-width: 1.5"/>
     <use xlink:href="#m0030315901" x="150.622916" y="145.744335" style="fill: #ff1300; stroke: #ff1300; stroke-width: 1.5"/>
     <use xlink:href="#m0030315901" x="108.099176" y="152.634851" style="fill: #ff1300; stroke: #ff1300; stroke-width: 1.5"/>
     <use xlink:href="#m0030315901" x="278.508483" y="138.743025" style="fill: #ff1300; stroke: #ff1300; stroke-width: 1.5"/>
     <use xlink:href="#m0030315901" x="278.570217" y="138.743025" style="fill: #ff1300; stroke: #ff1300; stroke-width: 1.5"/>
    </g>
   </g>
   <g id="PathCollection_10">
    <defs>
     <path id="m0c987fe7cf" d="M -3 0 
L 3 0 
M 0 3 
L 0 -3 
" style="stroke: #800000; stroke-width: 1.5"/>
    </defs>
    <g clip-path="url(#p34f4e2ef6c)">
     <use xlink:href="#m0c987fe7cf" x="143.187012" y="158.39511" style="fill: #800000; stroke: #800000; stroke-width: 1.5"/>
     <use xlink:href="#m0c987fe7cf" x="165.99119" y="159.468209" style="fill: #800000; stroke: #800000; stroke-width: 1.5"/>
     <use xlink:href="#m0c987fe7cf" x="259.014457" y="162.218364" style="fill: #800000; stroke: #800000; stroke-width: 1.5"/>
    </g>
   </g>
   <g id="matplotlib.axis_1">
    <g id="xtick_1">
     <g id="line2d_1">
      <path d="M 85.586066 168.568 
L 85.586066 28.876 
" clip-path="url(#p34f4e2ef6c)" style="fill: none; stroke: #b0b0b0; stroke-width: 0.8; stroke-linecap: square"/>
     </g>
     <g id="line2d_2">
      <defs>
       <path id="mc801f15a5d" d="M 0 0 
L 0 3.5 
" style="stroke: #000000; stroke-width: 0.8"/>
      </defs>
      <g>
       <use xlink:href="#mc801f15a5d" x="85.586066" y="168.568" style="stroke: #000000; stroke-width: 0.8"/>
      </g>
     </g>
     <g id="text_1">
      <!-- −0.05 -->
      <g transform="translate(70.263409 183.166437) scale(0.1 -0.1)">
       <defs>
        <path id="DejaVuSans-2212" d="M 678 2272 
L 4684 2272 
L 4684 1741 
L 678 1741 
L 678 2272 
z
" transform="scale(0.015625)"/>
        <path id="DejaVuSans-30" d="M 2034 4250 
Q 1547 4250 1301 3770 
Q 1056 3291 1056 2328 
Q 1056 1369 1301 889 
Q 1547 409 2034 409 
Q 2525 409 2770 889 
Q 3016 1369 3016 2328 
Q 3016 3291 2770 3770 
Q 2525 4250 2034 4250 
z
M 2034 4750 
Q 2819 4750 3233 4129 
Q 3647 3509 3647 2328 
Q 3647 1150 3233 529 
Q 2819 -91 2034 -91 
Q 1250 -91 836 529 
Q 422 1150 422 2328 
Q 422 3509 836 4129 
Q 1250 4750 2034 4750 
z
" transform="scale(0.015625)"/>
        <path id="DejaVuSans-2e" d="M 684 794 
L 1344 794 
L 1344 0 
L 684 0 
L 684 794 
z
" transform="scale(0.015625)"/>
        <path id="DejaVuSans-35" d="M 691 4666 
L 3169 4666 
L 3169 4134 
L 1269 4134 
L 1269 2991 
Q 1406 3038 1543 3061 
Q 1681 3084 1819 3084 
Q 2600 3084 3056 2656 
Q 3513 2228 3513 1497 
Q 3513 744 3044 326 
Q 2575 -91 1722 -91 
Q 1428 -91 1123 -41 
Q 819 9 494 109 
L 494 744 
Q 775 591 1075 516 
Q 1375 441 1709 441 
Q 2250 441 2565 725 
Q 2881 1009 2881 1497 
Q 2881 1984 2565 2268 
Q 2250 2553 1709 2553 
Q 1456 2553 1204 2497 
Q 953 2441 691 2322 
L 691 4666 
z
" transform="scale(0.015625)"/>
       </defs>
       <use xlink:href="#DejaVuSans-2212"/>
       <use xlink:href="#DejaVuSans-30" x="83.789062"/>
       <use xlink:href="#DejaVuSans-2e" x="147.412109"/>
       <use xlink:href="#DejaVuSans-30" x="179.199219"/>
       <use xlink:href="#DejaVuSans-35" x="242.822266"/>
      </g>
     </g>
    </g>
    <g id="xtick_2">
     <g id="line2d_3">
      <path d="M 120.186724 168.568 
L 120.186724 28.876 
" clip-path="url(#p34f4e2ef6c)" style="fill: none; stroke: #b0b0b0; stroke-width: 0.8; stroke-linecap: square"/>
     </g>
     <g id="line2d_4">
      <g>
       <use xlink:href="#mc801f15a5d" x="120.186724" y="168.568" style="stroke: #000000; stroke-width: 0.8"/>
      </g>
     </g>
     <g id="text_2">
      <!-- 0.00 -->
      <g transform="translate(109.053912 183.166437) scale(0.1 -0.1)">
       <use xlink:href="#DejaVuSans-30"/>
       <use xlink:href="#DejaVuSans-2e" x="63.623047"/>
       <use xlink:href="#DejaVuSans-30" x="95.410156"/>
       <use xlink:href="#DejaVuSans-30" x="159.033203"/>
      </g>
     </g>
    </g>
    <g id="xtick_3">
     <g id="line2d_5">
      <path d="M 154.787383 168.568 
L 154.787383 28.876 
" clip-path="url(#p34f4e2ef6c)" style="fill: none; stroke: #b0b0b0; stroke-width: 0.8; stroke-linecap: square"/>
     </g>
     <g id="line2d_6">
      <g>
       <use xlink:href="#mc801f15a5d" x="154.787383" y="168.568" style="stroke: #000000; stroke-width: 0.8"/>
      </g>
     </g>
     <g id="text_3">
      <!-- 0.05 -->
      <g transform="translate(143.65457 183.166437) scale(0.1 -0.1)">
       <use xlink:href="#DejaVuSans-30"/>
       <use xlink:href="#DejaVuSans-2e" x="63.623047"/>
       <use xlink:href="#DejaVuSans-30" x="95.410156"/>
       <use xlink:href="#DejaVuSans-35" x="159.033203"/>
      </g>
     </g>
    </g>
    <g id="xtick_4">
     <g id="line2d_7">
      <path d="M 189.388041 168.568 
L 189.388041 28.876 
" clip-path="url(#p34f4e2ef6c)" style="fill: none; stroke: #b0b0b0; stroke-width: 0.8; stroke-linecap: square"/>
     </g>
     <g id="line2d_8">
      <g>
       <use xlink:href="#mc801f15a5d" x="189.388041" y="168.568" style="stroke: #000000; stroke-width: 0.8"/>
      </g>
     </g>
     <g id="text_4">
      <!-- 0.10 -->
      <g transform="translate(178.255229 183.166437) scale(0.1 -0.1)">
       <defs>
        <path id="DejaVuSans-31" d="M 794 531 
L 1825 531 
L 1825 4091 
L 703 3866 
L 703 4441 
L 1819 4666 
L 2450 4666 
L 2450 531 
L 3481 531 
L 3481 0 
L 794 0 
L 794 531 
z
" transform="scale(0.015625)"/>
       </defs>
       <use xlink:href="#DejaVuSans-30"/>
       <use xlink:href="#DejaVuSans-2e" x="63.623047"/>
       <use xlink:href="#DejaVuSans-31" x="95.410156"/>
       <use xlink:href="#DejaVuSans-30" x="159.033203"/>
      </g>
     </g>
    </g>
    <g id="xtick_5">
     <g id="line2d_9">
      <path d="M 223.9887 168.568 
L 223.9887 28.876 
" clip-path="url(#p34f4e2ef6c)" style="fill: none; stroke: #b0b0b0; stroke-width: 0.8; stroke-linecap: square"/>
     </g>
     <g id="line2d_10">
      <g>
       <use xlink:href="#mc801f15a5d" x="223.9887" y="168.568" style="stroke: #000000; stroke-width: 0.8"/>
      </g>
     </g>
     <g id="text_5">
      <!-- 0.15 -->
      <g transform="translate(212.855887 183.166437) scale(0.1 -0.1)">
       <use xlink:href="#DejaVuSans-30"/>
       <use xlink:href="#DejaVuSans-2e" x="63.623047"/>
       <use xlink:href="#DejaVuSans-31" x="95.410156"/>
       <use xlink:href="#DejaVuSans-35" x="159.033203"/>
      </g>
     </g>
    </g>
    <g id="xtick_6">
     <g id="line2d_11">
      <path d="M 258.589358 168.568 
L 258.589358 28.876 
" clip-path="url(#p34f4e2ef6c)" style="fill: none; stroke: #b0b0b0; stroke-width: 0.8; stroke-linecap: square"/>
     </g>
     <g id="line2d_12">
      <g>
       <use xlink:href="#mc801f15a5d" x="258.589358" y="168.568" style="stroke: #000000; stroke-width: 0.8"/>
      </g>
     </g>
     <g id="text_6">
      <!-- 0.20 -->
      <g transform="translate(247.456546 183.166437) scale(0.1 -0.1)">
       <defs>
        <path id="DejaVuSans-32" d="M 1228 531 
L 3431 531 
L 3431 0 
L 469 0 
L 469 531 
Q 828 903 1448 1529 
Q 2069 2156 2228 2338 
Q 2531 2678 2651 2914 
Q 2772 3150 2772 3378 
Q 2772 3750 2511 3984 
Q 2250 4219 1831 4219 
Q 1534 4219 1204 4116 
Q 875 4013 500 3803 
L 500 4441 
Q 881 4594 1212 4672 
Q 1544 4750 1819 4750 
Q 2544 4750 2975 4387 
Q 3406 4025 3406 3419 
Q 3406 3131 3298 2873 
Q 3191 2616 2906 2266 
Q 2828 2175 2409 1742 
Q 1991 1309 1228 531 
z
" transform="scale(0.015625)"/>
       </defs>
       <use xlink:href="#DejaVuSans-30"/>
       <use xlink:href="#DejaVuSans-2e" x="63.623047"/>
       <use xlink:href="#DejaVuSans-32" x="95.410156"/>
       <use xlink:href="#DejaVuSans-30" x="159.033203"/>
      </g>
     </g>
    </g>
    <g id="text_7">
     <!-- $T_C = T / \rho V^2 D^2$ -->
     <g transform="translate(143.535828 198.346125) scale(0.1 -0.1)">
      <defs>
       <path id="DejaVuSans-Oblique-54" d="M 378 4666 
L 4325 4666 
L 4225 4134 
L 2559 4134 
L 1759 0 
L 1125 0 
L 1925 4134 
L 275 4134 
L 378 4666 
z
" transform="scale(0.015625)"/>
       <path id="DejaVuSans-Oblique-43" d="M 4447 4306 
L 4319 3641 
Q 4019 3944 3683 4091 
Q 3347 4238 2956 4238 
Q 2422 4238 2017 3981 
Q 1613 3725 1319 3200 
Q 1131 2863 1032 2486 
Q 934 2109 934 1728 
Q 934 1091 1264 756 
Q 1594 422 2222 422 
Q 2656 422 3056 561 
Q 3456 700 3834 978 
L 3688 231 
Q 3316 72 2936 -9 
Q 2556 -91 2175 -91 
Q 1278 -91 773 396 
Q 269 884 269 1753 
Q 269 2309 461 2846 
Q 653 3384 1013 3828 
Q 1394 4300 1883 4525 
Q 2372 4750 3022 4750 
Q 3422 4750 3780 4639 
Q 4138 4528 4447 4306 
z
" transform="scale(0.015625)"/>
       <path id="DejaVuSans-3d" d="M 678 2906 
L 4684 2906 
L 4684 2381 
L 678 2381 
L 678 2906 
z
M 678 1631 
L 4684 1631 
L 4684 1100 
L 678 1100 
L 678 1631 
z
" transform="scale(0.015625)"/>
       <path id="DejaVuSans-2f" d="M 1625 4666 
L 2156 4666 
L 531 -594 
L 0 -594 
L 1625 4666 
z
" transform="scale(0.015625)"/>
       <path id="DejaVuSans-Oblique-3c1" d="M 1203 2875 
Q 1453 3194 1981 3475 
Q 2188 3584 2756 3584 
Q 3394 3584 3694 3078 
Q 3994 2572 3834 1747 
Q 3672 922 3175 415 
Q 2678 -91 2041 -91 
Q 1656 -91 1409 63 
Q 1163 213 1044 525 
L 681 -1331 
L 103 -1331 
L 697 1716 
Q 838 2438 1203 2875 
z
M 3238 1747 
Q 3359 2381 3169 2744 
Q 2978 3103 2522 3103 
Q 2066 3103 1734 2744 
Q 1403 2381 1281 1747 
Q 1156 1113 1347 750 
Q 1538 391 1994 391 
Q 2450 391 2781 750 
Q 3113 1113 3238 1747 
z
" transform="scale(0.015625)"/>
       <path id="DejaVuSans-Oblique-56" d="M 1319 0 
L 500 4666 
L 1119 4666 
L 1797 653 
L 4063 4666 
L 4750 4666 
L 2053 0 
L 1319 0 
z
" transform="scale(0.015625)"/>
       <path id="DejaVuSans-Oblique-44" d="M 1081 4666 
L 2438 4666 
Q 3519 4666 4070 4208 
Q 4622 3750 4622 2847 
Q 4622 2250 4412 1698 
Q 4203 1147 3834 769 
Q 3463 381 2891 190 
Q 2319 0 1538 0 
L 172 0 
L 1081 4666 
z
M 1613 4147 
L 909 519 
L 1734 519 
Q 2794 519 3375 1128 
Q 3956 1738 3956 2847 
Q 3956 3519 3581 3833 
Q 3206 4147 2406 4147 
L 1613 4147 
z
" transform="scale(0.015625)"/>
      </defs>
      <use xlink:href="#DejaVuSans-Oblique-54" transform="translate(0 0.765625)"/>
      <use xlink:href="#DejaVuSans-Oblique-43" transform="translate(61.083984 -15.640625) scale(0.7)"/>
      <use xlink:href="#DejaVuSans-3d" transform="translate(132.177734 0.765625)"/>
      <use xlink:href="#DejaVuSans-Oblique-54" transform="translate(235.449219 0.765625)"/>
      <use xlink:href="#DejaVuSans-2f" transform="translate(296.533203 0.765625)"/>
      <use xlink:href="#DejaVuSans-Oblique-3c1" transform="translate(330.224609 0.765625)"/>
      <use xlink:href="#DejaVuSans-Oblique-56" transform="translate(393.701172 0.765625)"/>
      <use xlink:href="#DejaVuSans-32" transform="translate(469.126146 39.046875) scale(0.7)"/>
      <use xlink:href="#DejaVuSans-Oblique-44" transform="translate(516.396654 0.765625)"/>
      <use xlink:href="#DejaVuSans-32" transform="translate(600.415378 39.046875) scale(0.7)"/>
     </g>
    </g>
   </g>
   <g id="matplotlib.axis_2">
    <g id="ytick_1">
     <g id="line2d_13">
      <path d="M 63.038 146.604113 
L 288.833656 146.604113 
" clip-path="url(#p34f4e2ef6c)" style="fill: none; stroke: #b0b0b0; stroke-width: 0.8; stroke-linecap: square"/>
     </g>
     <g id="line2d_14">
      <defs>
       <path id="m94413486c4" d="M 0 0 
L -3.5 0 
" style="stroke: #000000; stroke-width: 0.8"/>
      </defs>
      <g>
       <use xlink:href="#m94413486c4" x="63.038" y="146.604113" style="stroke: #000000; stroke-width: 0.8"/>
      </g>
     </g>
     <g id="text_8">
      <!-- 0.09 -->
      <g transform="translate(33.772375 150.403332) scale(0.1 -0.1)">
       <defs>
        <path id="DejaVuSans-39" d="M 703 97 
L 703 672 
Q 941 559 1184 500 
Q 1428 441 1663 441 
Q 2288 441 2617 861 
Q 2947 1281 2994 2138 
Q 2813 1869 2534 1725 
Q 2256 1581 1919 1581 
Q 1219 1581 811 2004 
Q 403 2428 403 3163 
Q 403 3881 828 4315 
Q 1253 4750 1959 4750 
Q 2769 4750 3195 4129 
Q 3622 3509 3622 2328 
Q 3622 1225 3098 567 
Q 2575 -91 1691 -91 
Q 1453 -91 1209 -44 
Q 966 3 703 97 
z
M 1959 2075 
Q 2384 2075 2632 2365 
Q 2881 2656 2881 3163 
Q 2881 3666 2632 3958 
Q 2384 4250 1959 4250 
Q 1534 4250 1286 3958 
Q 1038 3666 1038 3163 
Q 1038 2656 1286 2365 
Q 1534 2075 1959 2075 
z
" transform="scale(0.015625)"/>
       </defs>
       <use xlink:href="#DejaVuSans-30"/>
       <use xlink:href="#DejaVuSans-2e" x="63.623047"/>
       <use xlink:href="#DejaVuSans-30" x="95.410156"/>
       <use xlink:href="#DejaVuSans-39" x="159.033203"/>
      </g>
     </g>
    </g>
    <g id="ytick_2">
     <g id="line2d_15">
      <path d="M 63.038 111.611524 
L 288.833656 111.611524 
" clip-path="url(#p34f4e2ef6c)" style="fill: none; stroke: #b0b0b0; stroke-width: 0.8; stroke-linecap: square"/>
     </g>
     <g id="line2d_16">
      <g>
       <use xlink:href="#m94413486c4" x="63.038" y="111.611524" style="stroke: #000000; stroke-width: 0.8"/>
      </g>
     </g>
     <g id="text_9">
      <!-- 0.10 -->
      <g transform="translate(33.772375 115.410743) scale(0.1 -0.1)">
       <use xlink:href="#DejaVuSans-30"/>
       <use xlink:href="#DejaVuSans-2e" x="63.623047"/>
       <use xlink:href="#DejaVuSans-31" x="95.410156"/>
       <use xlink:href="#DejaVuSans-30" x="159.033203"/>
      </g>
     </g>
    </g>
    <g id="ytick_3">
     <g id="line2d_17">
      <path d="M 63.038 76.618935 
L 288.833656 76.618935 
" clip-path="url(#p34f4e2ef6c)" style="fill: none; stroke: #b0b0b0; stroke-width: 0.8; stroke-linecap: square"/>
     </g>
     <g id="line2d_18">
      <g>
       <use xlink:href="#m94413486c4" x="63.038" y="76.618935" style="stroke: #000000; stroke-width: 0.8"/>
      </g>
     </g>
     <g id="text_10">
      <!-- 0.11 -->
      <g transform="translate(33.772375 80.418154) scale(0.1 -0.1)">
       <use xlink:href="#DejaVuSans-30"/>
       <use xlink:href="#DejaVuSans-2e" x="63.623047"/>
       <use xlink:href="#DejaVuSans-31" x="95.410156"/>
       <use xlink:href="#DejaVuSans-31" x="159.033203"/>
      </g>
     </g>
    </g>
    <g id="ytick_4">
     <g id="line2d_19">
      <path d="M 63.038 41.626347 
L 288.833656 41.626347 
" clip-path="url(#p34f4e2ef6c)" style="fill: none; stroke: #b0b0b0; stroke-width: 0.8; stroke-linecap: square"/>
     </g>
     <g id="line2d_20">
      <g>
       <use xlink:href="#m94413486c4" x="63.038" y="41.626347" style="stroke: #000000; stroke-width: 0.8"/>
      </g>
     </g>
     <g id="text_11">
      <!-- 0.12 -->
      <g transform="translate(33.772375 45.425565) scale(0.1 -0.1)">
       <use xlink:href="#DejaVuSans-30"/>
       <use xlink:href="#DejaVuSans-2e" x="63.623047"/>
       <use xlink:href="#DejaVuSans-31" x="95.410156"/>
       <use xlink:href="#DejaVuSans-32" x="159.033203"/>
      </g>
     </g>
    </g>
    <g id="text_12">
     <!-- d$C_L$ / d$\alpha$ -->
     <g transform="translate(27.692688 118.822) rotate(-90) scale(0.1 -0.1)">
      <defs>
       <path id="DejaVuSans-64" d="M 2906 2969 
L 2906 4863 
L 3481 4863 
L 3481 0 
L 2906 0 
L 2906 525 
Q 2725 213 2448 61 
Q 2172 -91 1784 -91 
Q 1150 -91 751 415 
Q 353 922 353 1747 
Q 353 2572 751 3078 
Q 1150 3584 1784 3584 
Q 2172 3584 2448 3432 
Q 2725 3281 2906 2969 
z
M 947 1747 
Q 947 1113 1208 752 
Q 1469 391 1925 391 
Q 2381 391 2643 752 
Q 2906 1113 2906 1747 
Q 2906 2381 2643 2742 
Q 2381 3103 1925 3103 
Q 1469 3103 1208 2742 
Q 947 2381 947 1747 
z
" transform="scale(0.015625)"/>
       <path id="DejaVuSans-Oblique-4c" d="M 1075 4666 
L 1709 4666 
L 909 525 
L 3181 525 
L 3078 0 
L 172 0 
L 1075 4666 
z
" transform="scale(0.015625)"/>
       <path id="DejaVuSans-20" transform="scale(0.015625)"/>
       <path id="DejaVuSans-Oblique-3b1" d="M 2619 1628 
L 2622 2350 
Q 2625 3088 2069 3091 
Q 1653 3094 1394 2747 
Q 1069 2319 959 1747 
Q 825 1059 994 731 
Q 1169 397 1547 397 
Q 1966 397 2319 1063 
L 2619 1628 
z
M 2166 3578 
Q 3141 3594 3128 2584 
Q 3128 2584 3616 3500 
L 4128 3500 
L 3119 1603 
L 3109 919 
Q 3109 766 3194 638 
Q 3291 488 3391 488 
L 3669 488 
L 3575 0 
L 3228 0 
Q 2934 0 2722 263 
Q 2622 394 2619 669 
Q 2416 334 2066 50 
Q 1900 -81 1453 -78 
Q 722 -72 456 397 
Q 184 884 353 1747 
Q 534 2675 1009 3097 
Q 1544 3569 2166 3578 
z
" transform="scale(0.015625)"/>
      </defs>
      <use xlink:href="#DejaVuSans-64" transform="translate(0 0.015625)"/>
      <use xlink:href="#DejaVuSans-Oblique-43" transform="translate(63.476562 0.015625)"/>
      <use xlink:href="#DejaVuSans-Oblique-4c" transform="translate(133.300781 -16.390625) scale(0.7)"/>
      <use xlink:href="#DejaVuSans-20" transform="translate(175.03418 0.015625)"/>
      <use xlink:href="#DejaVuSans-2f" transform="translate(206.821289 0.015625)"/>
      <use xlink:href="#DejaVuSans-20" transform="translate(240.512695 0.015625)"/>
      <use xlink:href="#DejaVuSans-64" transform="translate(272.299805 0.015625)"/>
      <use xlink:href="#DejaVuSans-Oblique-3b1" transform="translate(335.776367 0.015625)"/>
     </g>
    </g>
   </g>
   <g id="line2d_21">
    <path d="M 253.670844 45.918166 
L 247.525967 46.482419 
L 241.530485 47.032916 
L 235.681679 47.569656 
L 229.976831 48.092641 
L 224.41322 48.60187 
L 218.98813 49.097342 
L 213.69884 49.579059 
L 208.542633 50.047019 
L 203.516789 50.501223 
L 198.61859 50.941671 
L 193.845316 51.368363 
L 189.19425 51.781299 
L 184.662672 52.180479 
L 180.247863 52.565903 
L 175.947106 52.937571 
L 171.75768 53.295483 
L 167.676867 53.639638 
L 163.701949 53.970038 
L 159.830207 54.286681 
L 156.058922 54.589569 
L 152.385375 54.8787 
L 148.806847 55.154075 
L 145.32062 55.415694 
L 141.923975 55.663557 
L 138.614192 55.897664 
L 135.388555 56.118015 
L 132.244342 56.32461 
L 129.178837 56.517449 
L 126.189319 56.696532 
L 123.273071 56.861858 
L 120.427373 57.013429 
L 117.649507 57.151243 
L 114.936754 57.275302 
L 112.286395 57.385604 
L 109.695711 57.48215 
L 107.161984 57.564941 
L 104.682495 57.633975 
L 102.254525 57.689253 
L 99.875355 57.730775 
L 97.542267 57.75854 
L 95.252541 57.77255 
L 93.00346 57.772804 
L 90.792303 57.759302 
L 88.616353 57.732043 
L 86.472891 57.691029 
L 84.359198 57.636258 
L 82.272555 57.567731 
L 80.210243 57.485448 
L 78.169544 57.38941 
" clip-path="url(#p34f4e2ef6c)" style="fill: none; stroke: #000080; stroke-width: 1.5; stroke-linecap: square"/>
   </g>
   <g id="line2d_22">
    <path d="M 270.901888 35.225636 
L 264.800525 36.567268 
L 258.847578 37.878309 
L 253.040329 39.15876 
L 247.376059 40.408619 
L 241.85205 41.627888 
L 236.465581 42.816566 
L 231.213935 43.974654 
L 226.094393 45.10215 
L 221.104236 46.199056 
L 216.240745 47.265372 
L 211.501202 48.301096 
L 206.882887 49.30623 
L 202.383082 50.280773 
L 197.999069 51.224725 
L 193.728128 52.138086 
L 189.567541 53.020857 
L 185.514588 53.873037 
L 181.566552 54.694626 
L 177.720713 55.485625 
L 173.974353 56.246033 
L 170.324752 56.97585 
L 166.769193 57.675076 
L 163.304955 58.343712 
L 159.929322 58.981757 
L 156.639572 59.589211 
L 153.432989 60.166074 
L 150.306853 60.712347 
L 147.258446 61.228029 
L 144.285048 61.71312 
L 141.383941 62.16762 
L 138.552406 62.59153 
L 135.787725 62.984849 
L 133.087178 63.347577 
L 130.448047 63.679715 
L 127.867613 63.981262 
L 125.343157 64.252218 
L 122.87196 64.492583 
L 120.451305 64.702357 
L 118.078471 64.881541 
L 115.75074 65.030134 
L 113.465394 65.148137 
L 111.219714 65.235548 
L 109.01098 65.292369 
L 106.836475 65.318599 
L 104.693479 65.314238 
L 102.579273 65.279287 
L 100.491139 65.213745 
L 98.426358 65.117612 
L 96.382212 64.990889 
" clip-path="url(#p34f4e2ef6c)" style="fill: none; stroke: #0000ff; stroke-width: 1.5; stroke-linecap: square"/>
   </g>
   <g id="line2d_23">
    <path d="M 261.020066 44.451891 
L 254.968046 44.90215 
L 249.061925 45.343994 
L 243.298985 45.777424 
L 237.676507 46.202439 
L 232.191773 46.619039 
L 226.842063 47.027224 
L 221.624659 47.426995 
L 216.536842 47.818352 
L 211.575893 48.201293 
L 206.739094 48.57582 
L 202.023725 48.941932 
L 197.427069 49.29963 
L 192.946406 49.648913 
L 188.579017 49.989781 
L 184.322183 50.322234 
L 180.173187 50.646273 
L 176.129309 50.961897 
L 172.18783 51.269107 
L 168.346032 51.567902 
L 164.601195 51.858282 
L 160.950602 52.140247 
L 157.391533 52.413798 
L 153.921269 52.678934 
L 150.537092 52.935656 
L 147.236283 53.183963 
L 144.016123 53.423855 
L 140.873894 53.655332 
L 137.806876 53.878395 
L 134.812351 54.093043 
L 131.8876 54.299276 
L 129.029905 54.497095 
L 126.236546 54.686499 
L 123.504805 54.867489 
L 120.831963 55.040063 
L 118.215301 55.204223 
L 115.6521 55.359969 
L 113.139643 55.507299 
L 110.675209 55.646215 
L 108.256081 55.776717 
L 105.879539 55.898803 
L 103.542864 56.012475 
L 101.243339 56.117733 
L 98.978243 56.214575 
L 96.744859 56.303003 
L 94.540467 56.383017 
L 92.36235 56.454615 
L 90.207787 56.517799 
L 88.07406 56.572569 
L 85.958451 56.618923 
" clip-path="url(#p34f4e2ef6c)" style="fill: none; stroke: #0060ff; stroke-width: 1.5; stroke-linecap: square"/>
   </g>
   <g id="line2d_24">
    <path d="M 267.026064 43.097331 
L 260.818085 44.040651 
L 254.762038 44.960764 
L 248.855204 45.857669 
L 243.094864 46.731367 
L 237.4783 47.581857 
L 232.002792 48.409139 
L 226.665623 49.213214 
L 221.464072 49.994082 
L 216.395422 50.751742 
L 211.456954 51.486194 
L 206.645949 52.197439 
L 201.959687 52.885476 
L 197.395451 53.550306 
L 192.950522 54.191928 
L 188.62218 54.810342 
L 184.407707 55.405549 
L 180.304385 55.977549 
L 176.309494 56.526341 
L 172.420316 57.051925 
L 168.634132 57.554302 
L 164.948223 58.033471 
L 161.35987 58.489433 
L 157.866355 58.922187 
L 154.464959 59.331733 
L 151.152963 59.718072 
L 147.927648 60.081204 
L 144.786296 60.421128 
L 141.726188 60.737844 
L 138.744604 61.031353 
L 135.838827 61.301654 
L 133.006137 61.548748 
L 130.243817 61.772634 
L 127.549146 61.973313 
L 124.919406 62.150784 
L 122.351878 62.305047 
L 119.843845 62.436103 
L 117.392586 62.543952 
L 114.995383 62.628593 
L 112.649517 62.690026 
L 110.35227 62.728252 
L 108.100923 62.74327 
L 105.892757 62.735081 
L 103.725053 62.703684 
L 101.595093 62.649079 
L 99.500157 62.571267 
L 97.437527 62.470248 
L 95.404484 62.346021 
L 93.39831 62.198586 
L 91.416285 62.027944 
" clip-path="url(#p34f4e2ef6c)" style="fill: none; stroke: #00d4ff; stroke-width: 1.5; stroke-linecap: square"/>
   </g>
   <g id="line2d_25">
    <path d="M 266.957288 58.541004 
L 260.964051 58.896268 
L 255.115069 59.247568 
L 249.407624 59.594905 
L 243.838998 59.938279 
L 238.406472 60.277689 
L 233.107326 60.613135 
L 227.938842 60.944618 
L 222.898302 61.272138 
L 217.982986 61.595694 
L 213.190176 61.915286 
L 208.517152 62.230915 
L 203.961197 62.542581 
L 199.519592 62.850283 
L 195.189617 63.154021 
L 190.968554 63.453796 
L 186.853684 63.749608 
L 182.842288 64.041455 
L 178.931648 64.32934 
L 175.119045 64.613261 
L 171.40176 64.893218 
L 167.777074 65.169212 
L 164.242268 65.441243 
L 160.794625 65.70931 
L 157.431424 65.973413 
L 154.149947 66.233553 
L 150.947476 66.489729 
L 147.821292 66.741942 
L 144.768675 66.990192 
L 141.786908 67.234478 
L 138.873271 67.4748 
L 136.025045 67.711159 
L 133.239512 67.943554 
L 130.513953 68.171986 
L 127.84565 68.396455 
L 125.231883 68.61696 
L 122.669934 68.833501 
L 120.157083 69.046079 
L 117.690613 69.254693 
L 115.267804 69.459344 
L 112.885938 69.660032 
L 110.542296 69.856755 
L 108.234159 70.049516 
L 105.958808 70.238313 
L 103.713525 70.423146 
L 101.49559 70.604016 
L 99.302286 70.780922 
L 97.130893 70.953865 
L 94.978692 71.122844 
L 92.842965 71.28786 
" clip-path="url(#p34f4e2ef6c)" style="fill: none; stroke: #4dffaa; stroke-width: 1.5; stroke-linecap: square"/>
   </g>
   <g id="line2d_26">
    <path d="M 264.293856 64.968085 
L 258.05655 65.579479 
L 251.970729 66.173818 
L 246.033673 66.751103 
L 240.242663 67.311332 
L 234.594981 67.854506 
L 229.087908 68.380626 
L 223.718725 68.88969 
L 218.484713 69.3817 
L 213.383155 69.856655 
L 208.41133 70.314555 
L 203.56652 70.7554 
L 198.846007 71.17919 
L 194.247071 71.585925 
L 189.766994 71.975605 
L 185.403057 72.348231 
L 181.152541 72.703801 
L 177.012728 73.042317 
L 172.980898 73.363778 
L 169.054333 73.668184 
L 165.230315 73.955534 
L 161.506124 74.225831 
L 157.879042 74.479072 
L 154.346349 74.715258 
L 150.905328 74.934389 
L 147.553259 75.136466 
L 144.287423 75.321487 
L 141.105102 75.489454 
L 138.003578 75.640366 
L 134.98013 75.774223 
L 132.032041 75.891025 
L 129.156592 75.990772 
L 126.351064 76.073464 
L 123.612738 76.139101 
L 120.938895 76.187684 
L 118.326817 76.219211 
L 115.773785 76.233684 
L 113.27708 76.231101 
L 110.833983 76.211464 
L 108.441776 76.174772 
L 106.097739 76.121025 
L 103.799155 76.050223 
L 101.543304 75.962366 
L 99.327467 75.857455 
L 97.148926 75.735488 
L 95.004962 75.596467 
L 92.892856 75.44039 
L 90.809889 75.267259 
L 88.753344 75.077073 
L 86.7205 74.869832 
" clip-path="url(#p34f4e2ef6c)" style="fill: none; stroke: #aaff4d; stroke-width: 1.5; stroke-linecap: square"/>
   </g>
   <g id="line2d_27">
    <path d="M 273.479451 93.821149 
L 267.534436 94.062419 
L 261.733227 94.305068 
L 256.073106 94.549093 
L 250.551353 94.794497 
L 245.165249 95.041279 
L 239.912076 95.289439 
L 234.789116 95.538976 
L 229.793649 95.789892 
L 224.922956 96.042185 
L 220.17432 96.295856 
L 215.54502 96.550905 
L 211.032339 96.807332 
L 206.633557 97.065137 
L 202.345956 97.32432 
L 198.166817 97.584881 
L 194.093421 97.846819 
L 190.12305 98.110136 
L 186.252984 98.37483 
L 182.480505 98.640902 
L 178.802894 98.908353 
L 175.217433 99.177181 
L 171.721402 99.447387 
L 168.312083 99.718971 
L 164.986757 99.991933 
L 161.742705 100.266272 
L 158.577209 100.54199 
L 155.487549 100.819085 
L 152.471008 101.097559 
L 149.524865 101.37741 
L 146.646404 101.658639 
L 143.832903 101.941246 
L 141.081646 102.225231 
L 138.389913 102.510594 
L 135.754985 102.797335 
L 133.174143 103.085454 
L 130.64467 103.37495 
L 128.163845 103.665825 
L 125.728951 103.958077 
L 123.337268 104.251708 
L 120.986078 104.546716 
L 118.672662 104.843102 
L 116.394301 105.140866 
L 114.148277 105.440008 
L 111.93187 105.740527 
L 109.742362 106.042425 
L 107.577034 106.345701 
L 105.433168 106.650354 
L 103.308044 106.956386 
L 101.198943 107.263795 
" clip-path="url(#p34f4e2ef6c)" style="fill: none; stroke: #ffe600; stroke-width: 1.5; stroke-linecap: square"/>
   </g>
   <g id="line2d_28">
    <path d="M 261.234433 109.586201 
L 255.033359 109.799284 
L 248.97918 110.002694 
L 243.069175 110.196433 
L 237.300627 110.3805 
L 231.670817 110.554896 
L 226.177026 110.71962 
L 220.816535 110.874672 
L 215.586625 111.020052 
L 210.484579 111.155761 
L 205.507675 111.281798 
L 200.653198 111.398164 
L 195.918426 111.504857 
L 191.300642 111.601879 
L 186.797127 111.689229 
L 182.405161 111.766908 
L 178.122027 111.834914 
L 173.945006 111.89325 
L 169.871378 111.941913 
L 165.898425 111.980904 
L 162.023429 112.010224 
L 158.24367 112.029873 
L 154.556429 112.039849 
L 150.958988 112.040154 
L 147.448629 112.030787 
L 144.022631 112.011748 
L 140.678278 111.983038 
L 137.412849 111.944656 
L 134.223626 111.896602 
L 131.10789 111.838877 
L 128.062923 111.77148 
L 125.086005 111.694411 
L 122.174419 111.60767 
L 119.325445 111.511258 
L 116.536364 111.405174 
L 113.804457 111.289418 
L 111.127007 111.163991 
L 108.501293 111.028891 
L 105.924598 110.884121 
L 103.394203 110.729678 
L 100.907388 110.565564 
L 98.461435 110.391778 
L 96.053626 110.20832 
L 93.681241 110.015191 
L 91.341561 109.812389 
L 89.031869 109.599917 
L 86.749445 109.377772 
L 84.49157 109.145956 
L 82.255525 108.904468 
L 80.038593 108.653308 
" clip-path="url(#p34f4e2ef6c)" style="fill: none; stroke: #ff7a00; stroke-width: 1.5; stroke-linecap: square"/>
   </g>
   <g id="line2d_29">
    <path d="M 278.116071 138.53228 
L 272.192645 138.678555 
L 266.413918 138.830659 
L 260.777173 138.988592 
L 255.27969 139.152355 
L 249.91875 139.321946 
L 244.691635 139.497367 
L 239.595627 139.678617 
L 234.628006 139.865695 
L 229.786053 140.058603 
L 225.06705 140.25734 
L 220.468277 140.461906 
L 215.987017 140.672301 
L 211.620551 140.888525 
L 207.366159 141.110578 
L 203.221123 141.33846 
L 199.182724 141.572171 
L 195.248244 141.811711 
L 191.414963 142.057081 
L 187.680162 142.308279 
L 184.041124 142.565307 
L 180.495129 142.828163 
L 177.039459 143.096849 
L 173.671394 143.371364 
L 170.388217 143.651707 
L 167.187207 143.93788 
L 164.065647 144.229882 
L 161.020818 144.527713 
L 158.05 144.831373 
L 155.150476 145.140862 
L 152.319525 145.456181 
L 149.554431 145.777328 
L 146.852473 146.104304 
L 144.210933 146.43711 
L 141.627093 146.775744 
L 139.098233 147.120208 
L 136.621634 147.4705 
L 134.194579 147.826622 
L 131.814348 148.188573 
L 129.478222 148.556352 
L 127.183483 148.929961 
L 124.927411 149.309399 
L 122.707289 149.694666 
L 120.520397 150.085762 
L 118.364017 150.482688 
L 116.235429 150.885442 
L 114.131916 151.294025 
L 112.050758 151.708437 
L 109.989236 152.128679 
L 107.944632 152.554749 
" clip-path="url(#p34f4e2ef6c)" style="fill: none; stroke: #ff1300; stroke-width: 1.5; stroke-linecap: square"/>
   </g>
   <g id="line2d_30">
    <path d="M 258.571174 162.078973 
L 252.459813 161.960129 
L 246.488144 161.837766 
L 240.653449 161.711884 
L 234.953007 161.582483 
L 229.384101 161.449563 
L 223.944012 161.313124 
L 218.630021 161.173166 
L 213.439408 161.029688 
L 208.369457 160.882692 
L 203.417447 160.732177 
L 198.580659 160.578142 
L 193.856376 160.420589 
L 189.241878 160.259516 
L 184.734447 160.094925 
L 180.331364 159.926814 
L 176.029909 159.755184 
L 171.827365 159.580035 
L 167.721012 159.401368 
L 163.708132 159.219181 
L 159.786006 159.033475 
L 155.951915 158.84425 
L 152.203141 158.651506 
L 148.536964 158.455243 
L 144.950666 158.255461 
L 141.441528 158.052159 
L 138.006831 157.845339 
L 134.643857 157.635 
L 131.349886 157.421141 
L 128.122201 157.203764 
L 124.958082 156.982867 
L 121.85481 156.758452 
L 118.809667 156.530517 
L 115.819934 156.299064 
L 112.882892 156.064091 
L 109.995823 155.825599 
L 107.156007 155.583588 
L 104.360726 155.338059 
L 101.607261 155.08901 
L 98.892893 154.836442 
L 96.214904 154.580355 
L 93.570575 154.320749 
L 90.957186 154.057623 
L 88.37202 153.790979 
L 85.812358 153.520816 
L 83.27548 153.247134 
L 80.758667 152.969932 
L 78.259202 152.689212 
L 75.774366 152.404972 
L 73.301439 152.117214 
" clip-path="url(#p34f4e2ef6c)" style="fill: none; stroke: #800000; stroke-width: 1.5; stroke-linecap: square"/>
   </g>
   <g id="patch_3">
    <path d="M 63.038 168.568 
L 63.038 28.876 
" style="fill: none; stroke: #000000; stroke-width: 0.8; stroke-linejoin: miter; stroke-linecap: square"/>
   </g>
   <g id="patch_4">
    <path d="M 288.833656 168.568 
L 288.833656 28.876 
" style="fill: none; stroke: #000000; stroke-width: 0.8; stroke-linejoin: miter; stroke-linecap: square"/>
   </g>
   <g id="patch_5">
    <path d="M 63.038 168.568 
L 288.833656 168.568 
" style="fill: none; stroke: #000000; stroke-width: 0.8; stroke-linejoin: miter; stroke-linecap: square"/>
   </g>
   <g id="patch_6">
    <path d="M 63.038 28.876 
L 288.833656 28.876 
" style="fill: none; stroke: #000000; stroke-width: 0.8; stroke-linejoin: miter; stroke-linecap: square"/>
   </g>
   <g id="legend_1">
    <g id="patch_7">
     <path d="M 297.833656 158.5834 
L 420.533656 158.5834 
Q 422.533656 158.5834 422.533656 156.5834 
L 422.533656 10.80215 
Q 422.533656 8.80215 420.533656 8.80215 
L 297.833656 8.80215 
Q 295.833656 8.80215 295.833656 10.80215 
L 295.833656 156.5834 
Q 295.833656 158.5834 297.833656 158.5834 
z
" style="fill: #4d4d4d; opacity: 0.5; stroke: #4d4d4d; stroke-linejoin: miter"/>
    </g>
    <g id="patch_8">
     <path d="M 295.833656 156.5834 
L 418.533656 156.5834 
Q 420.533656 156.5834 420.533656 154.5834 
L 420.533656 8.80215 
Q 420.533656 6.80215 418.533656 6.80215 
L 295.833656 6.80215 
Q 293.833656 6.80215 293.833656 8.80215 
L 293.833656 154.5834 
Q 293.833656 156.5834 295.833656 156.5834 
z
" style="fill: #ffffff; stroke: #cccccc; stroke-linejoin: miter"/>
    </g>
    <g id="PathCollection_11">
     <g>
      <use xlink:href="#m186672a666" x="307.833656" y="15.775588" style="fill: #000080; stroke: #000080; stroke-width: 1.5"/>
     </g>
    </g>
    <g id="text_13">
     <!-- $\alpha = -4, \delta_e = -10$ -->
     <g transform="translate(325.833656 18.400588) scale(0.1 -0.1)">
      <defs>
       <path id="DejaVuSans-34" d="M 2419 4116 
L 825 1625 
L 2419 1625 
L 2419 4116 
z
M 2253 4666 
L 3047 4666 
L 3047 1625 
L 3713 1625 
L 3713 1100 
L 3047 1100 
L 3047 0 
L 2419 0 
L 2419 1100 
L 313 1100 
L 313 1709 
L 2253 4666 
z
" transform="scale(0.015625)"/>
       <path id="DejaVuSans-2c" d="M 750 794 
L 1409 794 
L 1409 256 
L 897 -744 
L 494 -744 
L 750 256 
L 750 794 
z
" transform="scale(0.015625)"/>
       <path id="DejaVuSans-Oblique-3b4" d="M 3472 4053 
Q 3197 4272 2450 4272 
Q 1659 4272 1588 3906 
Q 1531 3619 2328 3469 
Q 2953 3353 3253 3003 
Q 3616 2581 3447 1716 
Q 3284 888 2763 400 
Q 2238 -91 1488 -91 
Q 741 -91 406 400 
Q 72 888 241 1747 
Q 363 2384 891 2900 
Q 1097 3100 1353 3213 
Q 913 3459 1000 3900 
Q 1166 4750 2544 4750 
Q 3234 4750 3566 4531 
L 3472 4053 
z
M 1753 3056 
Q 1525 2966 1306 2738 
Q 969 2384 847 1747 
Q 722 1113 919 756 
Q 1119 397 1584 397 
Q 2044 397 2381 759 
Q 2722 1122 2838 1716 
Q 2956 2338 2731 2638 
Q 2491 2959 2103 2994 
Q 1906 3013 1753 3056 
z
" transform="scale(0.015625)"/>
       <path id="DejaVuSans-Oblique-65" d="M 3078 2063 
Q 3088 2113 3092 2166 
Q 3097 2219 3097 2272 
Q 3097 2653 2873 2875 
Q 2650 3097 2266 3097 
Q 1838 3097 1509 2826 
Q 1181 2556 1013 2059 
L 3078 2063 
z
M 3578 1613 
L 903 1613 
Q 884 1494 878 1425 
Q 872 1356 872 1306 
Q 872 872 1139 634 
Q 1406 397 1894 397 
Q 2269 397 2603 481 
Q 2938 566 3225 728 
L 3116 159 
Q 2806 34 2476 -28 
Q 2147 -91 1806 -91 
Q 1078 -91 686 257 
Q 294 606 294 1247 
Q 294 1794 489 2264 
Q 684 2734 1063 3103 
Q 1306 3334 1642 3459 
Q 1978 3584 2356 3584 
Q 2950 3584 3301 3228 
Q 3653 2872 3653 2272 
Q 3653 2128 3634 1964 
Q 3616 1800 3578 1613 
z
" transform="scale(0.015625)"/>
      </defs>
      <use xlink:href="#DejaVuSans-Oblique-3b1" transform="translate(0 0.78125)"/>
      <use xlink:href="#DejaVuSans-3d" transform="translate(85.400391 0.78125)"/>
      <use xlink:href="#DejaVuSans-2212" transform="translate(208.154297 0.78125)"/>
      <use xlink:href="#DejaVuSans-34" transform="translate(311.425781 0.78125)"/>
      <use xlink:href="#DejaVuSans-2c" transform="translate(375.048828 0.78125)"/>
      <use xlink:href="#DejaVuSans-Oblique-3b4" transform="translate(426.318359 0.78125)"/>
      <use xlink:href="#DejaVuSans-Oblique-65" transform="translate(487.5 -15.625) scale(0.7)"/>
      <use xlink:href="#DejaVuSans-3d" transform="translate(552.783203 0.78125)"/>
      <use xlink:href="#DejaVuSans-2212" transform="translate(675.537109 0.78125)"/>
      <use xlink:href="#DejaVuSans-31" transform="translate(778.808594 0.78125)"/>
      <use xlink:href="#DejaVuSans-30" transform="translate(842.431641 0.78125)"/>
     </g>
    </g>
    <g id="PathCollection_12">
     <g>
      <use xlink:href="#m1bfc77a134" x="307.833656" y="30.453713" style="fill: #0000ff; stroke: #0000ff; stroke-width: 1.5"/>
     </g>
    </g>
    <g id="text_14">
     <!-- $\alpha = -4, \delta_e = 10$ -->
     <g transform="translate(325.833656 33.078713) scale(0.1 -0.1)">
      <use xlink:href="#DejaVuSans-Oblique-3b1" transform="translate(0 0.78125)"/>
      <use xlink:href="#DejaVuSans-3d" transform="translate(85.400391 0.78125)"/>
      <use xlink:href="#DejaVuSans-2212" transform="translate(208.154297 0.78125)"/>
      <use xlink:href="#DejaVuSans-34" transform="translate(311.425781 0.78125)"/>
      <use xlink:href="#DejaVuSans-2c" transform="translate(375.048828 0.78125)"/>
      <use xlink:href="#DejaVuSans-Oblique-3b4" transform="translate(426.318359 0.78125)"/>
      <use xlink:href="#DejaVuSans-Oblique-65" transform="translate(487.5 -15.625) scale(0.7)"/>
      <use xlink:href="#DejaVuSans-3d" transform="translate(552.783203 0.78125)"/>
      <use xlink:href="#DejaVuSans-31" transform="translate(656.054688 0.78125)"/>
      <use xlink:href="#DejaVuSans-30" transform="translate(719.677734 0.78125)"/>
     </g>
    </g>
    <g id="PathCollection_13">
     <g>
      <use xlink:href="#m1e4a06afe5" x="307.833656" y="45.131838" style="fill: #0060ff; stroke: #0060ff; stroke-width: 1.5"/>
     </g>
    </g>
    <g id="text_15">
     <!-- $\alpha = -1, \delta_e = -10$ -->
     <g transform="translate(325.833656 47.756838) scale(0.1 -0.1)">
      <use xlink:href="#DejaVuSans-Oblique-3b1" transform="translate(0 0.78125)"/>
      <use xlink:href="#DejaVuSans-3d" transform="translate(85.400391 0.78125)"/>
      <use xlink:href="#DejaVuSans-2212" transform="translate(208.154297 0.78125)"/>
      <use xlink:href="#DejaVuSans-31" transform="translate(311.425781 0.78125)"/>
      <use xlink:href="#DejaVuSans-2c" transform="translate(375.048828 0.78125)"/>
      <use xlink:href="#DejaVuSans-Oblique-3b4" transform="translate(426.318359 0.78125)"/>
      <use xlink:href="#DejaVuSans-Oblique-65" transform="translate(487.5 -15.625) scale(0.7)"/>
      <use xlink:href="#DejaVuSans-3d" transform="translate(552.783203 0.78125)"/>
      <use xlink:href="#DejaVuSans-2212" transform="translate(675.537109 0.78125)"/>
      <use xlink:href="#DejaVuSans-31" transform="translate(778.808594 0.78125)"/>
      <use xlink:href="#DejaVuSans-30" transform="translate(842.431641 0.78125)"/>
     </g>
    </g>
    <g id="PathCollection_14">
     <g>
      <use xlink:href="#m0a86c69393" x="307.833656" y="59.809963" style="fill: #00d4ff; stroke: #00d4ff; stroke-width: 1.5"/>
     </g>
    </g>
    <g id="text_16">
     <!-- $\alpha = -1, \delta_e = 10$ -->
     <g transform="translate(325.833656 62.434963) scale(0.1 -0.1)">
      <use xlink:href="#DejaVuSans-Oblique-3b1" transform="translate(0 0.78125)"/>
      <use xlink:href="#DejaVuSans-3d" transform="translate(85.400391 0.78125)"/>
      <use xlink:href="#DejaVuSans-2212" transform="translate(208.154297 0.78125)"/>
      <use xlink:href="#DejaVuSans-31" transform="translate(311.425781 0.78125)"/>
      <use xlink:href="#DejaVuSans-2c" transform="translate(375.048828 0.78125)"/>
      <use xlink:href="#DejaVuSans-Oblique-3b4" transform="translate(426.318359 0.78125)"/>
      <use xlink:href="#DejaVuSans-Oblique-65" transform="translate(487.5 -15.625) scale(0.7)"/>
      <use xlink:href="#DejaVuSans-3d" transform="translate(552.783203 0.78125)"/>
      <use xlink:href="#DejaVuSans-31" transform="translate(656.054688 0.78125)"/>
      <use xlink:href="#DejaVuSans-30" transform="translate(719.677734 0.78125)"/>
     </g>
    </g>
    <g id="PathCollection_15">
     <g>
      <use xlink:href="#m8dcd4b02e4" x="307.833656" y="74.488088" style="fill: #4dffaa; stroke: #4dffaa; stroke-width: 1.5"/>
     </g>
    </g>
    <g id="text_17">
     <!-- $\alpha = 2, \delta_e = -10$ -->
     <g transform="translate(325.833656 77.113088) scale(0.1 -0.1)">
      <use xlink:href="#DejaVuSans-Oblique-3b1" transform="translate(0 0.78125)"/>
      <use xlink:href="#DejaVuSans-3d" transform="translate(85.400391 0.78125)"/>
      <use xlink:href="#DejaVuSans-32" transform="translate(188.671875 0.78125)"/>
      <use xlink:href="#DejaVuSans-2c" transform="translate(252.294922 0.78125)"/>
      <use xlink:href="#DejaVuSans-Oblique-3b4" transform="translate(303.564453 0.78125)"/>
      <use xlink:href="#DejaVuSans-Oblique-65" transform="translate(364.746094 -15.625) scale(0.7)"/>
      <use xlink:href="#DejaVuSans-3d" transform="translate(430.029297 0.78125)"/>
      <use xlink:href="#DejaVuSans-2212" transform="translate(552.783203 0.78125)"/>
      <use xlink:href="#DejaVuSans-31" transform="translate(656.054688 0.78125)"/>
      <use xlink:href="#DejaVuSans-30" transform="translate(719.677734 0.78125)"/>
     </g>
    </g>
    <g id="PathCollection_16">
     <g>
      <use xlink:href="#m756d7e0ad8" x="307.833656" y="89.166213" style="fill: #aaff4d; stroke: #aaff4d; stroke-width: 1.5"/>
     </g>
    </g>
    <g id="text_18">
     <!-- $\alpha = 2, \delta_e = 10$ -->
     <g transform="translate(325.833656 91.791213) scale(0.1 -0.1)">
      <use xlink:href="#DejaVuSans-Oblique-3b1" transform="translate(0 0.78125)"/>
      <use xlink:href="#DejaVuSans-3d" transform="translate(85.400391 0.78125)"/>
      <use xlink:href="#DejaVuSans-32" transform="translate(188.671875 0.78125)"/>
      <use xlink:href="#DejaVuSans-2c" transform="translate(252.294922 0.78125)"/>
      <use xlink:href="#DejaVuSans-Oblique-3b4" transform="translate(303.564453 0.78125)"/>
      <use xlink:href="#DejaVuSans-Oblique-65" transform="translate(364.746094 -15.625) scale(0.7)"/>
      <use xlink:href="#DejaVuSans-3d" transform="translate(430.029297 0.78125)"/>
      <use xlink:href="#DejaVuSans-31" transform="translate(533.300781 0.78125)"/>
      <use xlink:href="#DejaVuSans-30" transform="translate(596.923828 0.78125)"/>
     </g>
    </g>
    <g id="PathCollection_17">
     <g>
      <use xlink:href="#m0b9234ec9c" x="307.833656" y="103.844338" style="fill: #ffe600; stroke: #ffe600; stroke-width: 1.5"/>
     </g>
    </g>
    <g id="text_19">
     <!-- $\alpha = 4, \delta_e = -10$ -->
     <g transform="translate(325.833656 106.469338) scale(0.1 -0.1)">
      <use xlink:href="#DejaVuSans-Oblique-3b1" transform="translate(0 0.78125)"/>
      <use xlink:href="#DejaVuSans-3d" transform="translate(85.400391 0.78125)"/>
      <use xlink:href="#DejaVuSans-34" transform="translate(188.671875 0.78125)"/>
      <use xlink:href="#DejaVuSans-2c" transform="translate(252.294922 0.78125)"/>
      <use xlink:href="#DejaVuSans-Oblique-3b4" transform="translate(303.564453 0.78125)"/>
      <use xlink:href="#DejaVuSans-Oblique-65" transform="translate(364.746094 -15.625) scale(0.7)"/>
      <use xlink:href="#DejaVuSans-3d" transform="translate(430.029297 0.78125)"/>
      <use xlink:href="#DejaVuSans-2212" transform="translate(552.783203 0.78125)"/>
      <use xlink:href="#DejaVuSans-31" transform="translate(656.054688 0.78125)"/>
      <use xlink:href="#DejaVuSans-30" transform="translate(719.677734 0.78125)"/>
     </g>
    </g>
    <g id="PathCollection_18">
     <g>
      <use xlink:href="#m4c3d817c91" x="307.833656" y="118.522463" style="fill: #ff7a00; stroke: #ff7a00; stroke-width: 1.5"/>
     </g>
    </g>
    <g id="text_20">
     <!-- $\alpha = 4, \delta_e = 10$ -->
     <g transform="translate(325.833656 121.147463) scale(0.1 -0.1)">
      <use xlink:href="#DejaVuSans-Oblique-3b1" transform="translate(0 0.78125)"/>
      <use xlink:href="#DejaVuSans-3d" transform="translate(85.400391 0.78125)"/>
      <use xlink:href="#DejaVuSans-34" transform="translate(188.671875 0.78125)"/>
      <use xlink:href="#DejaVuSans-2c" transform="translate(252.294922 0.78125)"/>
      <use xlink:href="#DejaVuSans-Oblique-3b4" transform="translate(303.564453 0.78125)"/>
      <use xlink:href="#DejaVuSans-Oblique-65" transform="translate(364.746094 -15.625) scale(0.7)"/>
      <use xlink:href="#DejaVuSans-3d" transform="translate(430.029297 0.78125)"/>
      <use xlink:href="#DejaVuSans-31" transform="translate(533.300781 0.78125)"/>
      <use xlink:href="#DejaVuSans-30" transform="translate(596.923828 0.78125)"/>
     </g>
    </g>
    <g id="PathCollection_19">
     <g>
      <use xlink:href="#m0030315901" x="307.833656" y="133.200587" style="fill: #ff1300; stroke: #ff1300; stroke-width: 1.5"/>
     </g>
    </g>
    <g id="text_21">
     <!-- $\alpha = 7, \delta_e = -10$ -->
     <g transform="translate(325.833656 135.825587) scale(0.1 -0.1)">
      <defs>
       <path id="DejaVuSans-37" d="M 525 4666 
L 3525 4666 
L 3525 4397 
L 1831 0 
L 1172 0 
L 2766 4134 
L 525 4134 
L 525 4666 
z
" transform="scale(0.015625)"/>
      </defs>
      <use xlink:href="#DejaVuSans-Oblique-3b1" transform="translate(0 0.78125)"/>
      <use xlink:href="#DejaVuSans-3d" transform="translate(85.400391 0.78125)"/>
      <use xlink:href="#DejaVuSans-37" transform="translate(188.671875 0.78125)"/>
      <use xlink:href="#DejaVuSans-2c" transform="translate(252.294922 0.78125)"/>
      <use xlink:href="#DejaVuSans-Oblique-3b4" transform="translate(303.564453 0.78125)"/>
      <use xlink:href="#DejaVuSans-Oblique-65" transform="translate(364.746094 -15.625) scale(0.7)"/>
      <use xlink:href="#DejaVuSans-3d" transform="translate(430.029297 0.78125)"/>
      <use xlink:href="#DejaVuSans-2212" transform="translate(552.783203 0.78125)"/>
      <use xlink:href="#DejaVuSans-31" transform="translate(656.054688 0.78125)"/>
      <use xlink:href="#DejaVuSans-30" transform="translate(719.677734 0.78125)"/>
     </g>
    </g>
    <g id="PathCollection_20">
     <g>
      <use xlink:href="#m0c987fe7cf" x="307.833656" y="147.878712" style="fill: #800000; stroke: #800000; stroke-width: 1.5"/>
     </g>
    </g>
    <g id="text_22">
     <!-- $\alpha = 7, \delta_e = 10$ -->
     <g transform="translate(325.833656 150.503712) scale(0.1 -0.1)">
      <use xlink:href="#DejaVuSans-Oblique-3b1" transform="translate(0 0.78125)"/>
      <use xlink:href="#DejaVuSans-3d" transform="translate(85.400391 0.78125)"/>
      <use xlink:href="#DejaVuSans-37" transform="translate(188.671875 0.78125)"/>
      <use xlink:href="#DejaVuSans-2c" transform="translate(252.294922 0.78125)"/>
      <use xlink:href="#DejaVuSans-Oblique-3b4" transform="translate(303.564453 0.78125)"/>
      <use xlink:href="#DejaVuSans-Oblique-65" transform="translate(364.746094 -15.625) scale(0.7)"/>
      <use xlink:href="#DejaVuSans-3d" transform="translate(430.029297 0.78125)"/>
      <use xlink:href="#DejaVuSans-31" transform="translate(533.300781 0.78125)"/>
      <use xlink:href="#DejaVuSans-30" transform="translate(596.923828 0.78125)"/>
     </g>
    </g>
   </g>
  </g>
 </g>
 <defs>
  <clipPath id="p34f4e2ef6c">
   <rect x="63.038" y="28.876" width="225.795656" height="139.692"/>
  </clipPath>
 </defs>
</svg>
