<?xml version="1.0" encoding="utf-8" standalone="no"?>
<!DOCTYPE svg PUBLIC "-//W3C//DTD SVG 1.1//EN"
  "http://www.w3.org/Graphics/SVG/1.1/DTD/svg11.dtd">
<svg xmlns:xlink="http://www.w3.org/1999/xlink" width="432pt" height="216pt" viewBox="0 0 432 216" xmlns="http://www.w3.org/2000/svg" version="1.1">
 <metadata>
  <rdf:RDF xmlns:dc="http://purl.org/dc/elements/1.1/" xmlns:cc="http://creativecommons.org/ns#" xmlns:rdf="http://www.w3.org/1999/02/22-rdf-syntax-ns#">
   <cc:Work>
    <dc:type rdf:resource="http://purl.org/dc/dcmitype/StillImage"/>
    <dc:date>2025-03-28T12:13:02.242764</dc:date>
    <dc:format>image/svg+xml</dc:format>
    <dc:creator>
     <cc:Agent>
      <dc:title>Matplotlib v3.9.2, https://matplotlib.org/</dc:title>
     </cc:Agent>
    </dc:creator>
   </cc:Work>
  </rdf:RDF>
 </metadata>
 <defs>
  <style type="text/css">*{stroke-linejoin: round; stroke-linecap: butt}</style>
 </defs>
 <g id="figure_1">
  <g id="patch_1">
   <path d="M 0 216 
L 432 216 
L 432 0 
L 0 0 
z
" style="fill: #ffffff"/>
  </g>
  <g id="axes_1">
   <g id="patch_2">
    <path d="M 69.428 174.04 
L 306.255247 174.04 
L 306.255247 10.8 
L 69.428 10.8 
z
" style="fill: #ffffff"/>
   </g>
   <g id="matplotlib.axis_1">
    <g id="xtick_1">
     <g id="line2d_1">
      <path d="M 80.192875 174.04 
L 80.192875 10.8 
" clip-path="url(#p3d76684203)" style="fill: none; stroke: #b0b0b0; stroke-width: 0.8; stroke-linecap: square"/>
     </g>
     <g id="line2d_2">
      <defs>
       <path id="m4b1064141c" d="M 0 0 
L 0 3.5 
" style="stroke: #000000; stroke-width: 0.8"/>
      </defs>
      <g>
       <use xlink:href="#m4b1064141c" x="80.192875" y="174.04" style="stroke: #000000; stroke-width: 0.8"/>
      </g>
     </g>
     <g id="text_1">
      <!-- −4 -->
      <g transform="translate(72.821781 188.638438) scale(0.1 -0.1)">
       <defs>
        <path id="DejaVuSans-2212" d="M 678 2272 
L 4684 2272 
L 4684 1741 
L 678 1741 
L 678 2272 
z
" transform="scale(0.015625)"/>
        <path id="DejaVuSans-34" d="M 2419 4116 
L 825 1625 
L 2419 1625 
L 2419 4116 
z
M 2253 4666 
L 3047 4666 
L 3047 1625 
L 3713 1625 
L 3713 1100 
L 3047 1100 
L 3047 0 
L 2419 0 
L 2419 1100 
L 313 1100 
L 313 1709 
L 2253 4666 
z
" transform="scale(0.015625)"/>
       </defs>
       <use xlink:href="#DejaVuSans-2212"/>
       <use xlink:href="#DejaVuSans-34" x="83.789062"/>
      </g>
     </g>
    </g>
    <g id="xtick_2">
     <g id="line2d_3">
      <path d="M 119.337874 174.04 
L 119.337874 10.8 
" clip-path="url(#p3d76684203)" style="fill: none; stroke: #b0b0b0; stroke-width: 0.8; stroke-linecap: square"/>
     </g>
     <g id="line2d_4">
      <g>
       <use xlink:href="#m4b1064141c" x="119.337874" y="174.04" style="stroke: #000000; stroke-width: 0.8"/>
      </g>
     </g>
     <g id="text_2">
      <!-- −2 -->
      <g transform="translate(111.966781 188.638438) scale(0.1 -0.1)">
       <defs>
        <path id="DejaVuSans-32" d="M 1228 531 
L 3431 531 
L 3431 0 
L 469 0 
L 469 531 
Q 828 903 1448 1529 
Q 2069 2156 2228 2338 
Q 2531 2678 2651 2914 
Q 2772 3150 2772 3378 
Q 2772 3750 2511 3984 
Q 2250 4219 1831 4219 
Q 1534 4219 1204 4116 
Q 875 4013 500 3803 
L 500 4441 
Q 881 4594 1212 4672 
Q 1544 4750 1819 4750 
Q 2544 4750 2975 4387 
Q 3406 4025 3406 3419 
Q 3406 3131 3298 2873 
Q 3191 2616 2906 2266 
Q 2828 2175 2409 1742 
Q 1991 1309 1228 531 
z
" transform="scale(0.015625)"/>
       </defs>
       <use xlink:href="#DejaVuSans-2212"/>
       <use xlink:href="#DejaVuSans-32" x="83.789062"/>
      </g>
     </g>
    </g>
    <g id="xtick_3">
     <g id="line2d_5">
      <path d="M 158.482874 174.04 
L 158.482874 10.8 
" clip-path="url(#p3d76684203)" style="fill: none; stroke: #b0b0b0; stroke-width: 0.8; stroke-linecap: square"/>
     </g>
     <g id="line2d_6">
      <g>
       <use xlink:href="#m4b1064141c" x="158.482874" y="174.04" style="stroke: #000000; stroke-width: 0.8"/>
      </g>
     </g>
     <g id="text_3">
      <!-- 0 -->
      <g transform="translate(155.301624 188.638438) scale(0.1 -0.1)">
       <defs>
        <path id="DejaVuSans-30" d="M 2034 4250 
Q 1547 4250 1301 3770 
Q 1056 3291 1056 2328 
Q 1056 1369 1301 889 
Q 1547 409 2034 409 
Q 2525 409 2770 889 
Q 3016 1369 3016 2328 
Q 3016 3291 2770 3770 
Q 2525 4250 2034 4250 
z
M 2034 4750 
Q 2819 4750 3233 4129 
Q 3647 3509 3647 2328 
Q 3647 1150 3233 529 
Q 2819 -91 2034 -91 
Q 1250 -91 836 529 
Q 422 1150 422 2328 
Q 422 3509 836 4129 
Q 1250 4750 2034 4750 
z
" transform="scale(0.015625)"/>
       </defs>
       <use xlink:href="#DejaVuSans-30"/>
      </g>
     </g>
    </g>
    <g id="xtick_4">
     <g id="line2d_7">
      <path d="M 197.627874 174.04 
L 197.627874 10.8 
" clip-path="url(#p3d76684203)" style="fill: none; stroke: #b0b0b0; stroke-width: 0.8; stroke-linecap: square"/>
     </g>
     <g id="line2d_8">
      <g>
       <use xlink:href="#m4b1064141c" x="197.627874" y="174.04" style="stroke: #000000; stroke-width: 0.8"/>
      </g>
     </g>
     <g id="text_4">
      <!-- 2 -->
      <g transform="translate(194.446624 188.638438) scale(0.1 -0.1)">
       <use xlink:href="#DejaVuSans-32"/>
      </g>
     </g>
    </g>
    <g id="xtick_5">
     <g id="line2d_9">
      <path d="M 236.772873 174.04 
L 236.772873 10.8 
" clip-path="url(#p3d76684203)" style="fill: none; stroke: #b0b0b0; stroke-width: 0.8; stroke-linecap: square"/>
     </g>
     <g id="line2d_10">
      <g>
       <use xlink:href="#m4b1064141c" x="236.772873" y="174.04" style="stroke: #000000; stroke-width: 0.8"/>
      </g>
     </g>
     <g id="text_5">
      <!-- 4 -->
      <g transform="translate(233.591623 188.638438) scale(0.1 -0.1)">
       <use xlink:href="#DejaVuSans-34"/>
      </g>
     </g>
    </g>
    <g id="xtick_6">
     <g id="line2d_11">
      <path d="M 275.917873 174.04 
L 275.917873 10.8 
" clip-path="url(#p3d76684203)" style="fill: none; stroke: #b0b0b0; stroke-width: 0.8; stroke-linecap: square"/>
     </g>
     <g id="line2d_12">
      <g>
       <use xlink:href="#m4b1064141c" x="275.917873" y="174.04" style="stroke: #000000; stroke-width: 0.8"/>
      </g>
     </g>
     <g id="text_6">
      <!-- 6 -->
      <g transform="translate(272.736623 188.638438) scale(0.1 -0.1)">
       <defs>
        <path id="DejaVuSans-36" d="M 2113 2584 
Q 1688 2584 1439 2293 
Q 1191 2003 1191 1497 
Q 1191 994 1439 701 
Q 1688 409 2113 409 
Q 2538 409 2786 701 
Q 3034 994 3034 1497 
Q 3034 2003 2786 2293 
Q 2538 2584 2113 2584 
z
M 3366 4563 
L 3366 3988 
Q 3128 4100 2886 4159 
Q 2644 4219 2406 4219 
Q 1781 4219 1451 3797 
Q 1122 3375 1075 2522 
Q 1259 2794 1537 2939 
Q 1816 3084 2150 3084 
Q 2853 3084 3261 2657 
Q 3669 2231 3669 1497 
Q 3669 778 3244 343 
Q 2819 -91 2113 -91 
Q 1303 -91 875 529 
Q 447 1150 447 2328 
Q 447 3434 972 4092 
Q 1497 4750 2381 4750 
Q 2619 4750 2861 4703 
Q 3103 4656 3366 4563 
z
" transform="scale(0.015625)"/>
       </defs>
       <use xlink:href="#DejaVuSans-36"/>
      </g>
     </g>
    </g>
    <g id="text_7">
     <!-- $\alpha$ -->
     <g transform="translate(184.541624 202.316563) scale(0.1 -0.1)">
      <defs>
       <path id="DejaVuSans-Oblique-3b1" d="M 2619 1628 
L 2622 2350 
Q 2625 3088 2069 3091 
Q 1653 3094 1394 2747 
Q 1069 2319 959 1747 
Q 825 1059 994 731 
Q 1169 397 1547 397 
Q 1966 397 2319 1063 
L 2619 1628 
z
M 2166 3578 
Q 3141 3594 3128 2584 
Q 3128 2584 3616 3500 
L 4128 3500 
L 3119 1603 
L 3109 919 
Q 3109 766 3194 638 
Q 3291 488 3391 488 
L 3669 488 
L 3575 0 
L 3228 0 
Q 2934 0 2722 263 
Q 2622 394 2619 669 
Q 2416 334 2066 50 
Q 1900 -81 1453 -78 
Q 722 -72 456 397 
Q 184 884 353 1747 
Q 534 2675 1009 3097 
Q 1544 3569 2166 3578 
z
" transform="scale(0.015625)"/>
      </defs>
      <use xlink:href="#DejaVuSans-Oblique-3b1" transform="translate(0 0.84375)"/>
     </g>
    </g>
   </g>
   <g id="matplotlib.axis_2">
    <g id="ytick_1">
     <g id="line2d_13">
      <path d="M 69.428 151.854178 
L 306.255247 151.854178 
" clip-path="url(#p3d76684203)" style="fill: none; stroke: #b0b0b0; stroke-width: 0.8; stroke-linecap: square"/>
     </g>
     <g id="line2d_14">
      <defs>
       <path id="m497e7e0c21" d="M 0 0 
L -3.5 0 
" style="stroke: #000000; stroke-width: 0.8"/>
      </defs>
      <g>
       <use xlink:href="#m497e7e0c21" x="69.428" y="151.854178" style="stroke: #000000; stroke-width: 0.8"/>
      </g>
     </g>
     <g id="text_8">
      <!-- 0.0080 -->
      <g transform="translate(27.437375 155.653397) scale(0.1 -0.1)">
       <defs>
        <path id="DejaVuSans-2e" d="M 684 794 
L 1344 794 
L 1344 0 
L 684 0 
L 684 794 
z
" transform="scale(0.015625)"/>
        <path id="DejaVuSans-38" d="M 2034 2216 
Q 1584 2216 1326 1975 
Q 1069 1734 1069 1313 
Q 1069 891 1326 650 
Q 1584 409 2034 409 
Q 2484 409 2743 651 
Q 3003 894 3003 1313 
Q 3003 1734 2745 1975 
Q 2488 2216 2034 2216 
z
M 1403 2484 
Q 997 2584 770 2862 
Q 544 3141 544 3541 
Q 544 4100 942 4425 
Q 1341 4750 2034 4750 
Q 2731 4750 3128 4425 
Q 3525 4100 3525 3541 
Q 3525 3141 3298 2862 
Q 3072 2584 2669 2484 
Q 3125 2378 3379 2068 
Q 3634 1759 3634 1313 
Q 3634 634 3220 271 
Q 2806 -91 2034 -91 
Q 1263 -91 848 271 
Q 434 634 434 1313 
Q 434 1759 690 2068 
Q 947 2378 1403 2484 
z
M 1172 3481 
Q 1172 3119 1398 2916 
Q 1625 2713 2034 2713 
Q 2441 2713 2670 2916 
Q 2900 3119 2900 3481 
Q 2900 3844 2670 4047 
Q 2441 4250 2034 4250 
Q 1625 4250 1398 4047 
Q 1172 3844 1172 3481 
z
" transform="scale(0.015625)"/>
       </defs>
       <use xlink:href="#DejaVuSans-30"/>
       <use xlink:href="#DejaVuSans-2e" x="63.623047"/>
       <use xlink:href="#DejaVuSans-30" x="95.410156"/>
       <use xlink:href="#DejaVuSans-30" x="159.033203"/>
       <use xlink:href="#DejaVuSans-38" x="222.65625"/>
       <use xlink:href="#DejaVuSans-30" x="286.279297"/>
      </g>
     </g>
    </g>
    <g id="ytick_2">
     <g id="line2d_15">
      <path d="M 69.428 121.038761 
L 306.255247 121.038761 
" clip-path="url(#p3d76684203)" style="fill: none; stroke: #b0b0b0; stroke-width: 0.8; stroke-linecap: square"/>
     </g>
     <g id="line2d_16">
      <g>
       <use xlink:href="#m497e7e0c21" x="69.428" y="121.038761" style="stroke: #000000; stroke-width: 0.8"/>
      </g>
     </g>
     <g id="text_9">
      <!-- 0.0085 -->
      <g transform="translate(27.437375 124.837979) scale(0.1 -0.1)">
       <defs>
        <path id="DejaVuSans-35" d="M 691 4666 
L 3169 4666 
L 3169 4134 
L 1269 4134 
L 1269 2991 
Q 1406 3038 1543 3061 
Q 1681 3084 1819 3084 
Q 2600 3084 3056 2656 
Q 3513 2228 3513 1497 
Q 3513 744 3044 326 
Q 2575 -91 1722 -91 
Q 1428 -91 1123 -41 
Q 819 9 494 109 
L 494 744 
Q 775 591 1075 516 
Q 1375 441 1709 441 
Q 2250 441 2565 725 
Q 2881 1009 2881 1497 
Q 2881 1984 2565 2268 
Q 2250 2553 1709 2553 
Q 1456 2553 1204 2497 
Q 953 2441 691 2322 
L 691 4666 
z
" transform="scale(0.015625)"/>
       </defs>
       <use xlink:href="#DejaVuSans-30"/>
       <use xlink:href="#DejaVuSans-2e" x="63.623047"/>
       <use xlink:href="#DejaVuSans-30" x="95.410156"/>
       <use xlink:href="#DejaVuSans-30" x="159.033203"/>
       <use xlink:href="#DejaVuSans-38" x="222.65625"/>
       <use xlink:href="#DejaVuSans-35" x="286.279297"/>
      </g>
     </g>
    </g>
    <g id="ytick_3">
     <g id="line2d_17">
      <path d="M 69.428 90.223343 
L 306.255247 90.223343 
" clip-path="url(#p3d76684203)" style="fill: none; stroke: #b0b0b0; stroke-width: 0.8; stroke-linecap: square"/>
     </g>
     <g id="line2d_18">
      <g>
       <use xlink:href="#m497e7e0c21" x="69.428" y="90.223343" style="stroke: #000000; stroke-width: 0.8"/>
      </g>
     </g>
     <g id="text_10">
      <!-- 0.0090 -->
      <g transform="translate(27.437375 94.022562) scale(0.1 -0.1)">
       <defs>
        <path id="DejaVuSans-39" d="M 703 97 
L 703 672 
Q 941 559 1184 500 
Q 1428 441 1663 441 
Q 2288 441 2617 861 
Q 2947 1281 2994 2138 
Q 2813 1869 2534 1725 
Q 2256 1581 1919 1581 
Q 1219 1581 811 2004 
Q 403 2428 403 3163 
Q 403 3881 828 4315 
Q 1253 4750 1959 4750 
Q 2769 4750 3195 4129 
Q 3622 3509 3622 2328 
Q 3622 1225 3098 567 
Q 2575 -91 1691 -91 
Q 1453 -91 1209 -44 
Q 966 3 703 97 
z
M 1959 2075 
Q 2384 2075 2632 2365 
Q 2881 2656 2881 3163 
Q 2881 3666 2632 3958 
Q 2384 4250 1959 4250 
Q 1534 4250 1286 3958 
Q 1038 3666 1038 3163 
Q 1038 2656 1286 2365 
Q 1534 2075 1959 2075 
z
" transform="scale(0.015625)"/>
       </defs>
       <use xlink:href="#DejaVuSans-30"/>
       <use xlink:href="#DejaVuSans-2e" x="63.623047"/>
       <use xlink:href="#DejaVuSans-30" x="95.410156"/>
       <use xlink:href="#DejaVuSans-30" x="159.033203"/>
       <use xlink:href="#DejaVuSans-39" x="222.65625"/>
       <use xlink:href="#DejaVuSans-30" x="286.279297"/>
      </g>
     </g>
    </g>
    <g id="ytick_4">
     <g id="line2d_19">
      <path d="M 69.428 59.407925 
L 306.255247 59.407925 
" clip-path="url(#p3d76684203)" style="fill: none; stroke: #b0b0b0; stroke-width: 0.8; stroke-linecap: square"/>
     </g>
     <g id="line2d_20">
      <g>
       <use xlink:href="#m497e7e0c21" x="69.428" y="59.407925" style="stroke: #000000; stroke-width: 0.8"/>
      </g>
     </g>
     <g id="text_11">
      <!-- 0.0095 -->
      <g transform="translate(27.437375 63.207144) scale(0.1 -0.1)">
       <use xlink:href="#DejaVuSans-30"/>
       <use xlink:href="#DejaVuSans-2e" x="63.623047"/>
       <use xlink:href="#DejaVuSans-30" x="95.410156"/>
       <use xlink:href="#DejaVuSans-30" x="159.033203"/>
       <use xlink:href="#DejaVuSans-39" x="222.65625"/>
       <use xlink:href="#DejaVuSans-35" x="286.279297"/>
      </g>
     </g>
    </g>
    <g id="ytick_5">
     <g id="line2d_21">
      <path d="M 69.428 28.592508 
L 306.255247 28.592508 
" clip-path="url(#p3d76684203)" style="fill: none; stroke: #b0b0b0; stroke-width: 0.8; stroke-linecap: square"/>
     </g>
     <g id="line2d_22">
      <g>
       <use xlink:href="#m497e7e0c21" x="69.428" y="28.592508" style="stroke: #000000; stroke-width: 0.8"/>
      </g>
     </g>
     <g id="text_12">
      <!-- 0.0100 -->
      <g transform="translate(27.437375 32.391726) scale(0.1 -0.1)">
       <defs>
        <path id="DejaVuSans-31" d="M 794 531 
L 1825 531 
L 1825 4091 
L 703 3866 
L 703 4441 
L 1819 4666 
L 2450 4666 
L 2450 531 
L 3481 531 
L 3481 0 
L 794 0 
L 794 531 
z
" transform="scale(0.015625)"/>
       </defs>
       <use xlink:href="#DejaVuSans-30"/>
       <use xlink:href="#DejaVuSans-2e" x="63.623047"/>
       <use xlink:href="#DejaVuSans-30" x="95.410156"/>
       <use xlink:href="#DejaVuSans-31" x="159.033203"/>
       <use xlink:href="#DejaVuSans-30" x="222.65625"/>
       <use xlink:href="#DejaVuSans-30" x="286.279297"/>
      </g>
     </g>
    </g>
    <g id="text_13">
     <!-- d$C_L$ / d$\delta_e$ -->
     <g transform="translate(21.357688 114.57) rotate(-90) scale(0.1 -0.1)">
      <defs>
       <path id="DejaVuSans-64" d="M 2906 2969 
L 2906 4863 
L 3481 4863 
L 3481 0 
L 2906 0 
L 2906 525 
Q 2725 213 2448 61 
Q 2172 -91 1784 -91 
Q 1150 -91 751 415 
Q 353 922 353 1747 
Q 353 2572 751 3078 
Q 1150 3584 1784 3584 
Q 2172 3584 2448 3432 
Q 2725 3281 2906 2969 
z
M 947 1747 
Q 947 1113 1208 752 
Q 1469 391 1925 391 
Q 2381 391 2643 752 
Q 2906 1113 2906 1747 
Q 2906 2381 2643 2742 
Q 2381 3103 1925 3103 
Q 1469 3103 1208 2742 
Q 947 2381 947 1747 
z
" transform="scale(0.015625)"/>
       <path id="DejaVuSans-Oblique-43" d="M 4447 4306 
L 4319 3641 
Q 4019 3944 3683 4091 
Q 3347 4238 2956 4238 
Q 2422 4238 2017 3981 
Q 1613 3725 1319 3200 
Q 1131 2863 1032 2486 
Q 934 2109 934 1728 
Q 934 1091 1264 756 
Q 1594 422 2222 422 
Q 2656 422 3056 561 
Q 3456 700 3834 978 
L 3688 231 
Q 3316 72 2936 -9 
Q 2556 -91 2175 -91 
Q 1278 -91 773 396 
Q 269 884 269 1753 
Q 269 2309 461 2846 
Q 653 3384 1013 3828 
Q 1394 4300 1883 4525 
Q 2372 4750 3022 4750 
Q 3422 4750 3780 4639 
Q 4138 4528 4447 4306 
z
" transform="scale(0.015625)"/>
       <path id="DejaVuSans-Oblique-4c" d="M 1075 4666 
L 1709 4666 
L 909 525 
L 3181 525 
L 3078 0 
L 172 0 
L 1075 4666 
z
" transform="scale(0.015625)"/>
       <path id="DejaVuSans-20" transform="scale(0.015625)"/>
       <path id="DejaVuSans-2f" d="M 1625 4666 
L 2156 4666 
L 531 -594 
L 0 -594 
L 1625 4666 
z
" transform="scale(0.015625)"/>
       <path id="DejaVuSans-Oblique-3b4" d="M 3472 4053 
Q 3197 4272 2450 4272 
Q 1659 4272 1588 3906 
Q 1531 3619 2328 3469 
Q 2953 3353 3253 3003 
Q 3616 2581 3447 1716 
Q 3284 888 2763 400 
Q 2238 -91 1488 -91 
Q 741 -91 406 400 
Q 72 888 241 1747 
Q 363 2384 891 2900 
Q 1097 3100 1353 3213 
Q 913 3459 1000 3900 
Q 1166 4750 2544 4750 
Q 3234 4750 3566 4531 
L 3472 4053 
z
M 1753 3056 
Q 1525 2966 1306 2738 
Q 969 2384 847 1747 
Q 722 1113 919 756 
Q 1119 397 1584 397 
Q 2044 397 2381 759 
Q 2722 1122 2838 1716 
Q 2956 2338 2731 2638 
Q 2491 2959 2103 2994 
Q 1906 3013 1753 3056 
z
" transform="scale(0.015625)"/>
       <path id="DejaVuSans-Oblique-65" d="M 3078 2063 
Q 3088 2113 3092 2166 
Q 3097 2219 3097 2272 
Q 3097 2653 2873 2875 
Q 2650 3097 2266 3097 
Q 1838 3097 1509 2826 
Q 1181 2556 1013 2059 
L 3078 2063 
z
M 3578 1613 
L 903 1613 
Q 884 1494 878 1425 
Q 872 1356 872 1306 
Q 872 872 1139 634 
Q 1406 397 1894 397 
Q 2269 397 2603 481 
Q 2938 566 3225 728 
L 3116 159 
Q 2806 34 2476 -28 
Q 2147 -91 1806 -91 
Q 1078 -91 686 257 
Q 294 606 294 1247 
Q 294 1794 489 2264 
Q 684 2734 1063 3103 
Q 1306 3334 1642 3459 
Q 1978 3584 2356 3584 
Q 2950 3584 3301 3228 
Q 3653 2872 3653 2272 
Q 3653 2128 3634 1964 
Q 3616 1800 3578 1613 
z
" transform="scale(0.015625)"/>
      </defs>
      <use xlink:href="#DejaVuSans-64" transform="translate(0 0.015625)"/>
      <use xlink:href="#DejaVuSans-Oblique-43" transform="translate(63.476562 0.015625)"/>
      <use xlink:href="#DejaVuSans-Oblique-4c" transform="translate(133.300781 -16.390625) scale(0.7)"/>
      <use xlink:href="#DejaVuSans-20" transform="translate(175.03418 0.015625)"/>
      <use xlink:href="#DejaVuSans-2f" transform="translate(206.821289 0.015625)"/>
      <use xlink:href="#DejaVuSans-20" transform="translate(240.512695 0.015625)"/>
      <use xlink:href="#DejaVuSans-64" transform="translate(272.299805 0.015625)"/>
      <use xlink:href="#DejaVuSans-Oblique-3b4" transform="translate(335.776367 0.015625)"/>
      <use xlink:href="#DejaVuSans-Oblique-65" transform="translate(396.958008 -16.390625) scale(0.7)"/>
     </g>
    </g>
   </g>
   <g id="line2d_23">
    <path d="M 80.192875 33.65253 
L 82.367597 32.661613 
L 84.542319 31.703568 
L 86.717041 30.778397 
L 88.891764 29.886098 
L 91.066486 29.026673 
L 93.241208 28.20012 
L 95.41593 27.40644 
L 97.590652 26.645633 
L 99.765375 25.9177 
L 101.940097 25.222638 
L 104.114819 24.56045 
L 106.289541 23.931135 
L 108.464263 23.334693 
L 110.638986 22.771123 
L 112.813708 22.240427 
L 114.98843 21.742603 
L 117.163152 21.277653 
L 119.337874 20.845575 
L 121.512597 20.44637 
L 123.687319 20.080038 
L 125.862041 19.746579 
L 128.036763 19.445993 
L 130.211485 19.17828 
L 132.386208 18.94344 
L 134.56093 18.741473 
L 136.735652 18.572378 
L 138.910374 18.436157 
L 141.085096 18.332808 
L 143.259819 18.262333 
L 145.434541 18.22473 
L 147.609263 18.22 
L 149.783985 18.248143 
L 151.958707 18.309159 
L 154.13343 18.403048 
L 156.308152 18.52981 
L 158.482874 18.689445 
L 160.657596 18.881952 
L 162.832318 19.107333 
L 165.007041 19.365586 
L 167.181763 19.656713 
L 169.356485 19.980712 
L 171.531207 20.337584 
L 173.705929 20.72733 
L 175.880652 21.149948 
L 178.055374 21.605439 
L 180.230096 22.093803 
L 182.404818 22.615039 
L 184.57954 23.169149 
L 186.754263 23.756132 
L 188.928985 24.375987 
L 191.103707 25.028716 
L 193.278429 25.714317 
L 195.453151 26.432791 
L 197.627874 27.184139 
L 199.802596 27.968359 
L 201.977318 28.785452 
L 204.15204 29.635418 
L 206.326762 30.518257 
L 208.501485 31.433969 
L 210.676207 32.382553 
L 212.850929 33.364011 
L 215.025651 34.378342 
L 217.200373 35.425545 
L 219.375096 36.505621 
L 221.549818 37.618571 
L 223.72454 38.764393 
L 225.899262 39.943088 
L 228.073984 41.154656 
L 230.248707 42.399097 
L 232.423429 43.676411 
L 234.598151 44.986598 
L 236.772873 46.329657 
L 238.947595 47.70559 
L 241.122318 49.114396 
L 243.29704 50.556074 
L 245.471762 52.030625 
L 247.646484 53.53805 
L 249.821206 55.078347 
L 251.995929 56.651517 
L 254.170651 58.25756 
L 256.345373 59.896476 
L 258.520095 61.568265 
L 260.694817 63.272927 
L 262.86954 65.010461 
L 265.044262 66.780869 
L 267.218984 68.584149 
L 269.393706 70.420303 
L 271.568428 72.289329 
L 273.743151 74.191229 
L 275.917873 76.126001 
L 278.092595 78.093646 
L 280.267317 80.094164 
L 282.442039 82.127555 
L 284.616762 84.193819 
L 286.791484 86.292955 
L 288.966206 88.424965 
L 291.140928 90.589848 
L 293.31565 92.787603 
L 295.490373 95.018232 
" clip-path="url(#p3d76684203)" style="fill: none; stroke: #000080; stroke-width: 1.5; stroke-linecap: square"/>
   </g>
   <g id="line2d_24">
    <path d="M 80.192875 54.810922 
L 82.367597 54.612218 
L 84.542319 54.434965 
L 86.717041 54.279165 
L 88.891764 54.144816 
L 91.066486 54.031918 
L 93.241208 53.940473 
L 95.41593 53.870479 
L 97.590652 53.821937 
L 99.765375 53.794846 
L 101.940097 53.789208 
L 104.114819 53.805021 
L 106.289541 53.842285 
L 108.464263 53.901002 
L 110.638986 53.98117 
L 112.813708 54.08279 
L 114.98843 54.205862 
L 117.163152 54.350385 
L 119.337874 54.51636 
L 121.512597 54.703787 
L 123.687319 54.912666 
L 125.862041 55.142996 
L 128.036763 55.394778 
L 130.211485 55.668012 
L 132.386208 55.962697 
L 134.56093 56.278834 
L 136.735652 56.616423 
L 138.910374 56.975464 
L 141.085096 57.355956 
L 143.259819 57.757901 
L 145.434541 58.181296 
L 147.609263 58.626144 
L 149.783985 59.092443 
L 151.958707 59.580194 
L 154.13343 60.089397 
L 156.308152 60.620051 
L 158.482874 61.172157 
L 160.657596 61.745715 
L 162.832318 62.340725 
L 165.007041 62.957186 
L 167.181763 63.595099 
L 169.356485 64.254464 
L 171.531207 64.935281 
L 173.705929 65.637549 
L 175.880652 66.361269 
L 178.055374 67.106441 
L 180.230096 67.873064 
L 182.404818 68.661139 
L 184.57954 69.470666 
L 186.754263 70.301645 
L 188.928985 71.154075 
L 191.103707 72.027957 
L 193.278429 72.923291 
L 195.453151 73.840076 
L 197.627874 74.778313 
L 199.802596 75.738002 
L 201.977318 76.719143 
L 204.15204 77.721735 
L 206.326762 78.745779 
L 208.501485 79.791275 
L 210.676207 80.858223 
L 212.850929 81.946622 
L 215.025651 83.056473 
L 217.200373 84.187776 
L 219.375096 85.34053 
L 221.549818 86.514736 
L 223.72454 87.710394 
L 225.899262 88.927504 
L 228.073984 90.166065 
L 230.248707 91.426078 
L 232.423429 92.707543 
L 234.598151 94.01046 
L 236.772873 95.334828 
L 238.947595 96.680648 
L 241.122318 98.04792 
L 243.29704 99.436643 
L 245.471762 100.846818 
L 247.646484 102.278445 
L 249.821206 103.731524 
L 251.995929 105.206054 
L 254.170651 106.702036 
L 256.345373 108.21947 
L 258.520095 109.758355 
L 260.694817 111.318692 
L 262.86954 112.900481 
L 265.044262 114.503722 
L 267.218984 116.128414 
L 269.393706 117.774558 
L 271.568428 119.442154 
L 273.743151 121.131202 
L 275.917873 122.841701 
L 278.092595 124.573652 
L 280.267317 126.327055 
L 282.442039 128.101909 
L 284.616762 129.898216 
L 286.791484 131.715973 
L 288.966206 133.555183 
L 291.140928 135.415844 
L 293.31565 137.297957 
L 295.490373 139.201522 
" clip-path="url(#p3d76684203)" style="fill: none; stroke: #0080ff; stroke-width: 1.5; stroke-linecap: square"/>
   </g>
   <g id="line2d_25">
    <path d="M 80.192875 75.116087 
L 82.367597 75.468277 
L 84.542319 75.831411 
L 86.717041 76.205487 
L 88.891764 76.590507 
L 91.066486 76.98647 
L 93.241208 77.393377 
L 95.41593 77.811226 
L 97.590652 78.240019 
L 99.765375 78.679755 
L 101.940097 79.130435 
L 104.114819 79.592058 
L 106.289541 80.064624 
L 108.464263 80.548133 
L 110.638986 81.042586 
L 112.813708 81.547982 
L 114.98843 82.064321 
L 117.163152 82.591604 
L 119.337874 83.12983 
L 121.512597 83.678999 
L 123.687319 84.239111 
L 125.862041 84.810167 
L 128.036763 85.392166 
L 130.211485 85.985108 
L 132.386208 86.588994 
L 134.56093 87.203823 
L 136.735652 87.829595 
L 138.910374 88.46631 
L 141.085096 89.113969 
L 143.259819 89.772571 
L 145.434541 90.442116 
L 147.609263 91.122605 
L 149.783985 91.814037 
L 151.958707 92.516412 
L 154.13343 93.22973 
L 156.308152 93.953992 
L 158.482874 94.689197 
L 160.657596 95.435345 
L 162.832318 96.192437 
L 165.007041 96.960472 
L 167.181763 97.73945 
L 169.356485 98.529371 
L 171.531207 99.330236 
L 173.705929 100.142044 
L 175.880652 100.964795 
L 178.055374 101.79849 
L 180.230096 102.643128 
L 182.404818 103.498709 
L 184.57954 104.365234 
L 186.754263 105.242701 
L 188.928985 106.131112 
L 191.103707 107.030467 
L 193.278429 107.940764 
L 195.453151 108.862005 
L 197.627874 109.794189 
L 199.802596 110.737317 
L 201.977318 111.691387 
L 204.15204 112.656401 
L 206.326762 113.632359 
L 208.501485 114.619259 
L 210.676207 115.617103 
L 212.850929 116.62589 
L 215.025651 117.645621 
L 217.200373 118.676295 
L 219.375096 119.717912 
L 221.549818 120.770472 
L 223.72454 121.833976 
L 225.899262 122.908423 
L 228.073984 123.993813 
L 230.248707 125.090146 
L 232.423429 126.197423 
L 234.598151 127.315643 
L 236.772873 128.444806 
L 238.947595 129.584913 
L 241.122318 130.735963 
L 243.29704 131.897956 
L 245.471762 133.070892 
L 247.646484 134.254772 
L 249.821206 135.449595 
L 251.995929 136.655362 
L 254.170651 137.872071 
L 256.345373 139.099724 
L 258.520095 140.33832 
L 260.694817 141.58786 
L 262.86954 142.848343 
L 265.044262 144.119769 
L 267.218984 145.402138 
L 269.393706 146.695451 
L 271.568428 147.999706 
L 273.743151 149.314906 
L 275.917873 150.641048 
L 278.092595 151.978134 
L 280.267317 153.326163 
L 282.442039 154.685135 
L 284.616762 156.055051 
L 286.791484 157.43591 
L 288.966206 158.827712 
L 291.140928 160.230458 
L 293.31565 161.644146 
L 295.490373 163.068778 
" clip-path="url(#p3d76684203)" style="fill: none; stroke: #7dff7a; stroke-width: 1.5; stroke-linecap: square"/>
   </g>
   <g id="line2d_26">
    <path d="M 80.192875 94.568026 
L 82.367597 95.229792 
L 84.542319 95.892905 
L 86.717041 96.557365 
L 88.891764 97.223173 
L 91.066486 97.890329 
L 93.241208 98.558832 
L 95.41593 99.228683 
L 97.590652 99.899881 
L 99.765375 100.572427 
L 101.940097 101.246321 
L 104.114819 101.921562 
L 106.289541 102.598151 
L 108.464263 103.276087 
L 110.638986 103.955371 
L 112.813708 104.636003 
L 114.98843 105.317982 
L 117.163152 106.001309 
L 119.337874 106.685984 
L 121.512597 107.372006 
L 123.687319 108.059375 
L 125.862041 108.748092 
L 128.036763 109.438157 
L 130.211485 110.12957 
L 132.386208 110.82233 
L 134.56093 111.516438 
L 136.735652 112.211893 
L 138.910374 112.908696 
L 141.085096 113.606846 
L 143.259819 114.306344 
L 145.434541 115.00719 
L 147.609263 115.709383 
L 149.783985 116.412924 
L 151.958707 117.117812 
L 154.13343 117.824049 
L 156.308152 118.531632 
L 158.482874 119.240564 
L 160.657596 119.950842 
L 162.832318 120.662469 
L 165.007041 121.375443 
L 167.181763 122.089765 
L 169.356485 122.805434 
L 171.531207 123.522451 
L 173.705929 124.240815 
L 175.880652 124.960527 
L 178.055374 125.681587 
L 180.230096 126.403995 
L 182.404818 127.127749 
L 184.57954 127.852852 
L 186.754263 128.579302 
L 188.928985 129.3071 
L 191.103707 130.036245 
L 193.278429 130.766738 
L 195.453151 131.498578 
L 197.627874 132.231767 
L 199.802596 132.966302 
L 201.977318 133.702186 
L 204.15204 134.439417 
L 206.326762 135.177995 
L 208.501485 135.917921 
L 210.676207 136.659195 
L 212.850929 137.401816 
L 215.025651 138.145785 
L 217.200373 138.891102 
L 219.375096 139.637766 
L 221.549818 140.385778 
L 223.72454 141.135137 
L 225.899262 141.885844 
L 228.073984 142.637898 
L 230.248707 143.391301 
L 232.423429 144.14605 
L 234.598151 144.902148 
L 236.772873 145.659593 
L 238.947595 146.418385 
L 241.122318 147.178525 
L 243.29704 147.940013 
L 245.471762 148.702849 
L 247.646484 149.467032 
L 249.821206 150.232562 
L 251.995929 150.99944 
L 254.170651 151.767666 
L 256.345373 152.537239 
L 258.520095 153.30816 
L 260.694817 154.080429 
L 262.86954 154.854045 
L 265.044262 155.629009 
L 267.218984 156.40532 
L 269.393706 157.182979 
L 271.568428 157.961986 
L 273.743151 158.74234 
L 275.917873 159.524042 
L 278.092595 160.307091 
L 280.267317 161.091488 
L 282.442039 161.877233 
L 284.616762 162.664325 
L 286.791484 163.452765 
L 288.966206 164.242552 
L 291.140928 165.033687 
L 293.31565 165.82617 
L 295.490373 166.62 
" clip-path="url(#p3d76684203)" style="fill: none; stroke: #ff9400; stroke-width: 1.5; stroke-linecap: square"/>
   </g>
   <g id="line2d_27">
    <path d="M 80.192875 113.166739 
L 82.367597 113.896761 
L 84.542319 114.619447 
L 86.717041 115.334798 
L 88.891764 116.042813 
L 91.066486 116.743494 
L 93.241208 117.436839 
L 95.41593 118.122848 
L 97.590652 118.801522 
L 99.765375 119.472861 
L 101.940097 120.136865 
L 104.114819 120.793533 
L 106.289541 121.442866 
L 108.464263 122.084863 
L 110.638986 122.719526 
L 112.813708 123.346853 
L 114.98843 123.966844 
L 117.163152 124.579501 
L 119.337874 125.184821 
L 121.512597 125.782807 
L 123.687319 126.373457 
L 125.862041 126.956772 
L 128.036763 127.532752 
L 130.211485 128.101396 
L 132.386208 128.662705 
L 134.56093 129.216679 
L 136.735652 129.763317 
L 138.910374 130.30262 
L 141.085096 130.834588 
L 143.259819 131.35922 
L 145.434541 131.876517 
L 147.609263 132.386479 
L 149.783985 132.889105 
L 151.958707 133.384396 
L 154.13343 133.872351 
L 156.308152 134.352972 
L 158.482874 134.826257 
L 160.657596 135.292206 
L 162.832318 135.750821 
L 165.007041 136.2021 
L 167.181763 136.646044 
L 169.356485 137.082652 
L 171.531207 137.511925 
L 173.705929 137.933863 
L 175.880652 138.348465 
L 178.055374 138.755732 
L 180.230096 139.155664 
L 182.404818 139.54826 
L 184.57954 139.933521 
L 186.754263 140.311447 
L 188.928985 140.682037 
L 191.103707 141.045292 
L 193.278429 141.401212 
L 195.453151 141.749796 
L 197.627874 142.091045 
L 199.802596 142.424959 
L 201.977318 142.751538 
L 204.15204 143.070781 
L 206.326762 143.382688 
L 208.501485 143.687261 
L 210.676207 143.984498 
L 212.850929 144.2744 
L 215.025651 144.556966 
L 217.200373 144.832197 
L 219.375096 145.100093 
L 221.549818 145.360653 
L 223.72454 145.613878 
L 225.899262 145.859768 
L 228.073984 146.098323 
L 230.248707 146.329542 
L 232.423429 146.553426 
L 234.598151 146.769974 
L 236.772873 146.979187 
L 238.947595 147.181065 
L 241.122318 147.375607 
L 243.29704 147.562815 
L 245.471762 147.742686 
L 247.646484 147.915223 
L 249.821206 148.080424 
L 251.995929 148.23829 
L 254.170651 148.38882 
L 256.345373 148.532015 
L 258.520095 148.667875 
L 260.694817 148.7964 
L 262.86954 148.917589 
L 265.044262 149.031443 
L 267.218984 149.137961 
L 269.393706 149.237144 
L 271.568428 149.328992 
L 273.743151 149.413505 
L 275.917873 149.490682 
L 278.092595 149.560524 
L 280.267317 149.62303 
L 282.442039 149.678202 
L 284.616762 149.726038 
L 286.791484 149.766538 
L 288.966206 149.799703 
L 291.140928 149.825533 
L 293.31565 149.844028 
L 295.490373 149.855187 
" clip-path="url(#p3d76684203)" style="fill: none; stroke: #800000; stroke-width: 1.5; stroke-linecap: square"/>
   </g>
   <g id="patch_3">
    <path d="M 69.428 174.04 
L 69.428 10.8 
" style="fill: none; stroke: #000000; stroke-width: 0.8; stroke-linejoin: miter; stroke-linecap: square"/>
   </g>
   <g id="patch_4">
    <path d="M 306.255247 174.04 
L 306.255247 10.8 
" style="fill: none; stroke: #000000; stroke-width: 0.8; stroke-linejoin: miter; stroke-linecap: square"/>
   </g>
   <g id="patch_5">
    <path d="M 69.428 174.04 
L 306.255247 174.04 
" style="fill: none; stroke: #000000; stroke-width: 0.8; stroke-linejoin: miter; stroke-linecap: square"/>
   </g>
   <g id="patch_6">
    <path d="M 69.428 10.8 
L 306.255247 10.8 
" style="fill: none; stroke: #000000; stroke-width: 0.8; stroke-linejoin: miter; stroke-linecap: square"/>
   </g>
   <g id="legend_1">
    <g id="patch_7">
     <path d="M 315.255247 162.878 
L 420.455247 162.878 
Q 422.455247 162.878 422.455247 160.878 
L 422.455247 88.385813 
Q 422.455247 86.385813 420.455247 86.385813 
L 315.255247 86.385813 
Q 313.255247 86.385813 313.255247 88.385813 
L 313.255247 160.878 
Q 313.255247 162.878 315.255247 162.878 
z
" style="fill: #4d4d4d; opacity: 0.5; stroke: #4d4d4d; stroke-linejoin: miter"/>
    </g>
    <g id="patch_8">
     <path d="M 313.255247 160.878 
L 418.455247 160.878 
Q 420.455247 160.878 420.455247 158.878 
L 420.455247 86.385813 
Q 420.455247 84.385813 418.455247 84.385813 
L 313.255247 84.385813 
Q 311.255247 84.385813 311.255247 86.385813 
L 311.255247 158.878 
Q 311.255247 160.878 313.255247 160.878 
z
" style="fill: #ffffff; stroke: #cccccc; stroke-linejoin: miter"/>
    </g>
    <g id="line2d_28">
     <path d="M 315.255247 92.48425 
L 325.255247 92.48425 
L 335.255247 92.48425 
" style="fill: none; stroke: #000080; stroke-width: 1.5; stroke-linecap: square"/>
    </g>
    <g id="text_14">
     <!-- $\delta_e = 0$, $J = 1.60$ -->
     <g transform="translate(343.255247 95.98425) scale(0.1 -0.1)">
      <defs>
       <path id="DejaVuSans-3d" d="M 678 2906 
L 4684 2906 
L 4684 2381 
L 678 2381 
L 678 2906 
z
M 678 1631 
L 4684 1631 
L 4684 1100 
L 678 1100 
L 678 1631 
z
" transform="scale(0.015625)"/>
       <path id="DejaVuSans-2c" d="M 750 794 
L 1409 794 
L 1409 256 
L 897 -744 
L 494 -744 
L 750 256 
L 750 794 
z
" transform="scale(0.015625)"/>
       <path id="DejaVuSans-Oblique-4a" d="M 1069 4666 
L 1703 4666 
L 856 325 
Q 691 -522 298 -901 
Q -94 -1281 -800 -1281 
L -1050 -1281 
L -947 -750 
L -750 -750 
Q -328 -750 -109 -509 
Q 109 -269 225 325 
L 1069 4666 
z
" transform="scale(0.015625)"/>
      </defs>
      <use xlink:href="#DejaVuSans-Oblique-3b4" transform="translate(0 0.78125)"/>
      <use xlink:href="#DejaVuSans-Oblique-65" transform="translate(61.181641 -15.625) scale(0.7)"/>
      <use xlink:href="#DejaVuSans-3d" transform="translate(126.464844 0.78125)"/>
      <use xlink:href="#DejaVuSans-30" transform="translate(229.736328 0.78125)"/>
      <use xlink:href="#DejaVuSans-2c" transform="translate(293.359375 0.78125)"/>
      <use xlink:href="#DejaVuSans-20" transform="translate(325.146484 0.78125)"/>
      <use xlink:href="#DejaVuSans-Oblique-4a" transform="translate(356.933594 0.78125)"/>
      <use xlink:href="#DejaVuSans-3d" transform="translate(405.908203 0.78125)"/>
      <use xlink:href="#DejaVuSans-31" transform="translate(509.179688 0.78125)"/>
      <use xlink:href="#DejaVuSans-2e" transform="translate(572.802734 0.78125)"/>
      <use xlink:href="#DejaVuSans-36" transform="translate(604.589844 0.78125)"/>
      <use xlink:href="#DejaVuSans-30" transform="translate(668.212891 0.78125)"/>
     </g>
    </g>
    <g id="line2d_29">
     <path d="M 315.255247 107.182688 
L 325.255247 107.182688 
L 335.255247 107.182688 
" style="fill: none; stroke: #0080ff; stroke-width: 1.5; stroke-linecap: square"/>
    </g>
    <g id="text_15">
     <!-- $\delta_e = 0$, $J = 1.80$ -->
     <g transform="translate(343.255247 110.682688) scale(0.1 -0.1)">
      <use xlink:href="#DejaVuSans-Oblique-3b4" transform="translate(0 0.78125)"/>
      <use xlink:href="#DejaVuSans-Oblique-65" transform="translate(61.181641 -15.625) scale(0.7)"/>
      <use xlink:href="#DejaVuSans-3d" transform="translate(126.464844 0.78125)"/>
      <use xlink:href="#DejaVuSans-30" transform="translate(229.736328 0.78125)"/>
      <use xlink:href="#DejaVuSans-2c" transform="translate(293.359375 0.78125)"/>
      <use xlink:href="#DejaVuSans-20" transform="translate(325.146484 0.78125)"/>
      <use xlink:href="#DejaVuSans-Oblique-4a" transform="translate(356.933594 0.78125)"/>
      <use xlink:href="#DejaVuSans-3d" transform="translate(405.908203 0.78125)"/>
      <use xlink:href="#DejaVuSans-31" transform="translate(509.179688 0.78125)"/>
      <use xlink:href="#DejaVuSans-2e" transform="translate(572.802734 0.78125)"/>
      <use xlink:href="#DejaVuSans-38" transform="translate(601.964844 0.78125)"/>
      <use xlink:href="#DejaVuSans-30" transform="translate(665.587891 0.78125)"/>
     </g>
    </g>
    <g id="line2d_30">
     <path d="M 315.255247 121.881125 
L 325.255247 121.881125 
L 335.255247 121.881125 
" style="fill: none; stroke: #7dff7a; stroke-width: 1.5; stroke-linecap: square"/>
    </g>
    <g id="text_16">
     <!-- $\delta_e = 0$, $J = 2.00$ -->
     <g transform="translate(343.255247 125.381125) scale(0.1 -0.1)">
      <use xlink:href="#DejaVuSans-Oblique-3b4" transform="translate(0 0.78125)"/>
      <use xlink:href="#DejaVuSans-Oblique-65" transform="translate(61.181641 -15.625) scale(0.7)"/>
      <use xlink:href="#DejaVuSans-3d" transform="translate(126.464844 0.78125)"/>
      <use xlink:href="#DejaVuSans-30" transform="translate(229.736328 0.78125)"/>
      <use xlink:href="#DejaVuSans-2c" transform="translate(293.359375 0.78125)"/>
      <use xlink:href="#DejaVuSans-20" transform="translate(325.146484 0.78125)"/>
      <use xlink:href="#DejaVuSans-Oblique-4a" transform="translate(356.933594 0.78125)"/>
      <use xlink:href="#DejaVuSans-3d" transform="translate(405.908203 0.78125)"/>
      <use xlink:href="#DejaVuSans-32" transform="translate(509.179688 0.78125)"/>
      <use xlink:href="#DejaVuSans-2e" transform="translate(572.802734 0.78125)"/>
      <use xlink:href="#DejaVuSans-30" transform="translate(604.589844 0.78125)"/>
      <use xlink:href="#DejaVuSans-30" transform="translate(668.212891 0.78125)"/>
     </g>
    </g>
    <g id="line2d_31">
     <path d="M 315.255247 136.579563 
L 325.255247 136.579563 
L 335.255247 136.579563 
" style="fill: none; stroke: #ff9400; stroke-width: 1.5; stroke-linecap: square"/>
    </g>
    <g id="text_17">
     <!-- $\delta_e = 0$, $J = 2.20$ -->
     <g transform="translate(343.255247 140.079563) scale(0.1 -0.1)">
      <use xlink:href="#DejaVuSans-Oblique-3b4" transform="translate(0 0.78125)"/>
      <use xlink:href="#DejaVuSans-Oblique-65" transform="translate(61.181641 -15.625) scale(0.7)"/>
      <use xlink:href="#DejaVuSans-3d" transform="translate(126.464844 0.78125)"/>
      <use xlink:href="#DejaVuSans-30" transform="translate(229.736328 0.78125)"/>
      <use xlink:href="#DejaVuSans-2c" transform="translate(293.359375 0.78125)"/>
      <use xlink:href="#DejaVuSans-20" transform="translate(325.146484 0.78125)"/>
      <use xlink:href="#DejaVuSans-Oblique-4a" transform="translate(356.933594 0.78125)"/>
      <use xlink:href="#DejaVuSans-3d" transform="translate(405.908203 0.78125)"/>
      <use xlink:href="#DejaVuSans-32" transform="translate(509.179688 0.78125)"/>
      <use xlink:href="#DejaVuSans-2e" transform="translate(572.802734 0.78125)"/>
      <use xlink:href="#DejaVuSans-32" transform="translate(599.089844 0.78125)"/>
      <use xlink:href="#DejaVuSans-30" transform="translate(662.712891 0.78125)"/>
     </g>
    </g>
    <g id="line2d_32">
     <path d="M 315.255247 151.278 
L 325.255247 151.278 
L 335.255247 151.278 
" style="fill: none; stroke: #800000; stroke-width: 1.5; stroke-linecap: square"/>
    </g>
    <g id="text_18">
     <!-- $\delta_e = 0$, $J = 2.40$ -->
     <g transform="translate(343.255247 154.778) scale(0.1 -0.1)">
      <use xlink:href="#DejaVuSans-Oblique-3b4" transform="translate(0 0.78125)"/>
      <use xlink:href="#DejaVuSans-Oblique-65" transform="translate(61.181641 -15.625) scale(0.7)"/>
      <use xlink:href="#DejaVuSans-3d" transform="translate(126.464844 0.78125)"/>
      <use xlink:href="#DejaVuSans-30" transform="translate(229.736328 0.78125)"/>
      <use xlink:href="#DejaVuSans-2c" transform="translate(293.359375 0.78125)"/>
      <use xlink:href="#DejaVuSans-20" transform="translate(325.146484 0.78125)"/>
      <use xlink:href="#DejaVuSans-Oblique-4a" transform="translate(356.933594 0.78125)"/>
      <use xlink:href="#DejaVuSans-3d" transform="translate(405.908203 0.78125)"/>
      <use xlink:href="#DejaVuSans-32" transform="translate(509.179688 0.78125)"/>
      <use xlink:href="#DejaVuSans-2e" transform="translate(572.802734 0.78125)"/>
      <use xlink:href="#DejaVuSans-34" transform="translate(604.589844 0.78125)"/>
      <use xlink:href="#DejaVuSans-30" transform="translate(668.212891 0.78125)"/>
     </g>
    </g>
   </g>
  </g>
 </g>
 <defs>
  <clipPath id="p3d76684203">
   <rect x="69.428" y="10.8" width="236.827247" height="163.24"/>
  </clipPath>
 </defs>
</svg>
