<?xml version="1.0" encoding="utf-8" standalone="no"?>
<!DOCTYPE svg PUBLIC "-//W3C//DTD SVG 1.1//EN"
  "http://www.w3.org/Graphics/SVG/1.1/DTD/svg11.dtd">
<svg xmlns:xlink="http://www.w3.org/1999/xlink" width="288pt" height="216pt" viewBox="0 0 288 216" xmlns="http://www.w3.org/2000/svg" version="1.1">
 <metadata>
  <rdf:RDF xmlns:dc="http://purl.org/dc/elements/1.1/" xmlns:cc="http://creativecommons.org/ns#" xmlns:rdf="http://www.w3.org/1999/02/22-rdf-syntax-ns#">
   <cc:Work>
    <dc:type rdf:resource="http://purl.org/dc/dcmitype/StillImage"/>
    <dc:date>2025-03-26T10:31:44.921008</dc:date>
    <dc:format>image/svg+xml</dc:format>
    <dc:creator>
     <cc:Agent>
      <dc:title>Matplotlib v3.9.2, https://matplotlib.org/</dc:title>
     </cc:Agent>
    </dc:creator>
   </cc:Work>
  </rdf:RDF>
 </metadata>
 <defs>
  <style type="text/css">*{stroke-linejoin: round; stroke-linecap: butt}</style>
 </defs>
 <g id="figure_1">
  <g id="patch_1">
   <path d="M 0 216 
L 288 216 
L 288 0 
L 0 0 
z
" style="fill: #ffffff"/>
  </g>
  <g id="axes_1">
   <g id="patch_2">
    <path d="M 65.45 174.04 
L 277.2 174.04 
L 277.2 10.8 
L 65.45 10.8 
z
" style="fill: #ffffff"/>
   </g>
   <g id="matplotlib.axis_1">
    <g id="xtick_1">
     <g id="line2d_1">
      <path d="M 75.075 174.04 
L 75.075 10.8 
" clip-path="url(#pe9aaad0d20)" style="fill: none; stroke: #b0b0b0; stroke-width: 0.8; stroke-linecap: square"/>
     </g>
     <g id="line2d_2">
      <defs>
       <path id="mb6ca296916" d="M 0 0 
L 0 3.5 
" style="stroke: #000000; stroke-width: 0.8"/>
      </defs>
      <g>
       <use xlink:href="#mb6ca296916" x="75.075" y="174.04" style="stroke: #000000; stroke-width: 0.8"/>
      </g>
     </g>
     <g id="text_1">
      <!-- 0 -->
      <g transform="translate(71.89375 188.638438) scale(0.1 -0.1)">
       <defs>
        <path id="DejaVuSans-30" d="M 2034 4250 
Q 1547 4250 1301 3770 
Q 1056 3291 1056 2328 
Q 1056 1369 1301 889 
Q 1547 409 2034 409 
Q 2525 409 2770 889 
Q 3016 1369 3016 2328 
Q 3016 3291 2770 3770 
Q 2525 4250 2034 4250 
z
M 2034 4750 
Q 2819 4750 3233 4129 
Q 3647 3509 3647 2328 
Q 3647 1150 3233 529 
Q 2819 -91 2034 -91 
Q 1250 -91 836 529 
Q 422 1150 422 2328 
Q 422 3509 836 4129 
Q 1250 4750 2034 4750 
z
" transform="scale(0.015625)"/>
       </defs>
       <use xlink:href="#DejaVuSans-30"/>
      </g>
     </g>
    </g>
    <g id="xtick_2">
     <g id="line2d_3">
      <path d="M 130.075 174.04 
L 130.075 10.8 
" clip-path="url(#pe9aaad0d20)" style="fill: none; stroke: #b0b0b0; stroke-width: 0.8; stroke-linecap: square"/>
     </g>
     <g id="line2d_4">
      <g>
       <use xlink:href="#mb6ca296916" x="130.075" y="174.04" style="stroke: #000000; stroke-width: 0.8"/>
      </g>
     </g>
     <g id="text_2">
      <!-- 2 -->
      <g transform="translate(126.89375 188.638438) scale(0.1 -0.1)">
       <defs>
        <path id="DejaVuSans-32" d="M 1228 531 
L 3431 531 
L 3431 0 
L 469 0 
L 469 531 
Q 828 903 1448 1529 
Q 2069 2156 2228 2338 
Q 2531 2678 2651 2914 
Q 2772 3150 2772 3378 
Q 2772 3750 2511 3984 
Q 2250 4219 1831 4219 
Q 1534 4219 1204 4116 
Q 875 4013 500 3803 
L 500 4441 
Q 881 4594 1212 4672 
Q 1544 4750 1819 4750 
Q 2544 4750 2975 4387 
Q 3406 4025 3406 3419 
Q 3406 3131 3298 2873 
Q 3191 2616 2906 2266 
Q 2828 2175 2409 1742 
Q 1991 1309 1228 531 
z
" transform="scale(0.015625)"/>
       </defs>
       <use xlink:href="#DejaVuSans-32"/>
      </g>
     </g>
    </g>
    <g id="xtick_3">
     <g id="line2d_5">
      <path d="M 185.075 174.04 
L 185.075 10.8 
" clip-path="url(#pe9aaad0d20)" style="fill: none; stroke: #b0b0b0; stroke-width: 0.8; stroke-linecap: square"/>
     </g>
     <g id="line2d_6">
      <g>
       <use xlink:href="#mb6ca296916" x="185.075" y="174.04" style="stroke: #000000; stroke-width: 0.8"/>
      </g>
     </g>
     <g id="text_3">
      <!-- 4 -->
      <g transform="translate(181.89375 188.638438) scale(0.1 -0.1)">
       <defs>
        <path id="DejaVuSans-34" d="M 2419 4116 
L 825 1625 
L 2419 1625 
L 2419 4116 
z
M 2253 4666 
L 3047 4666 
L 3047 1625 
L 3713 1625 
L 3713 1100 
L 3047 1100 
L 3047 0 
L 2419 0 
L 2419 1100 
L 313 1100 
L 313 1709 
L 2253 4666 
z
" transform="scale(0.015625)"/>
       </defs>
       <use xlink:href="#DejaVuSans-34"/>
      </g>
     </g>
    </g>
    <g id="xtick_4">
     <g id="line2d_7">
      <path d="M 240.075 174.04 
L 240.075 10.8 
" clip-path="url(#pe9aaad0d20)" style="fill: none; stroke: #b0b0b0; stroke-width: 0.8; stroke-linecap: square"/>
     </g>
     <g id="line2d_8">
      <g>
       <use xlink:href="#mb6ca296916" x="240.075" y="174.04" style="stroke: #000000; stroke-width: 0.8"/>
      </g>
     </g>
     <g id="text_4">
      <!-- 6 -->
      <g transform="translate(236.89375 188.638438) scale(0.1 -0.1)">
       <defs>
        <path id="DejaVuSans-36" d="M 2113 2584 
Q 1688 2584 1439 2293 
Q 1191 2003 1191 1497 
Q 1191 994 1439 701 
Q 1688 409 2113 409 
Q 2538 409 2786 701 
Q 3034 994 3034 1497 
Q 3034 2003 2786 2293 
Q 2538 2584 2113 2584 
z
M 3366 4563 
L 3366 3988 
Q 3128 4100 2886 4159 
Q 2644 4219 2406 4219 
Q 1781 4219 1451 3797 
Q 1122 3375 1075 2522 
Q 1259 2794 1537 2939 
Q 1816 3084 2150 3084 
Q 2853 3084 3261 2657 
Q 3669 2231 3669 1497 
Q 3669 778 3244 343 
Q 2819 -91 2113 -91 
Q 1303 -91 875 529 
Q 447 1150 447 2328 
Q 447 3434 972 4092 
Q 1497 4750 2381 4750 
Q 2619 4750 2861 4703 
Q 3103 4656 3366 4563 
z
" transform="scale(0.015625)"/>
       </defs>
       <use xlink:href="#DejaVuSans-36"/>
      </g>
     </g>
    </g>
    <g id="text_5">
     <!-- $\alpha$ -->
     <g transform="translate(168.025 202.316563) scale(0.1 -0.1)">
      <defs>
       <path id="DejaVuSans-Oblique-3b1" d="M 2619 1628 
L 2622 2350 
Q 2625 3088 2069 3091 
Q 1653 3094 1394 2747 
Q 1069 2319 959 1747 
Q 825 1059 994 731 
Q 1169 397 1547 397 
Q 1966 397 2319 1063 
L 2619 1628 
z
M 2166 3578 
Q 3141 3594 3128 2584 
Q 3128 2584 3616 3500 
L 4128 3500 
L 3119 1603 
L 3109 919 
Q 3109 766 3194 638 
Q 3291 488 3391 488 
L 3669 488 
L 3575 0 
L 3228 0 
Q 2934 0 2722 263 
Q 2622 394 2619 669 
Q 2416 334 2066 50 
Q 1900 -81 1453 -78 
Q 722 -72 456 397 
Q 184 884 353 1747 
Q 534 2675 1009 3097 
Q 1544 3569 2166 3578 
z
" transform="scale(0.015625)"/>
      </defs>
      <use xlink:href="#DejaVuSans-Oblique-3b1" transform="translate(0 0.84375)"/>
     </g>
    </g>
   </g>
   <g id="matplotlib.axis_2">
    <g id="ytick_1">
     <g id="line2d_9">
      <path d="M 65.45 156.676468 
L 277.2 156.676468 
" clip-path="url(#pe9aaad0d20)" style="fill: none; stroke: #b0b0b0; stroke-width: 0.8; stroke-linecap: square"/>
     </g>
     <g id="line2d_10">
      <defs>
       <path id="m4eafdbb846" d="M 0 0 
L -3.5 0 
" style="stroke: #000000; stroke-width: 0.8"/>
      </defs>
      <g>
       <use xlink:href="#m4eafdbb846" x="65.45" y="156.676468" style="stroke: #000000; stroke-width: 0.8"/>
      </g>
     </g>
     <g id="text_6">
      <!-- −0.06 -->
      <g transform="translate(27.804688 160.475687) scale(0.1 -0.1)">
       <defs>
        <path id="DejaVuSans-2212" d="M 678 2272 
L 4684 2272 
L 4684 1741 
L 678 1741 
L 678 2272 
z
" transform="scale(0.015625)"/>
        <path id="DejaVuSans-2e" d="M 684 794 
L 1344 794 
L 1344 0 
L 684 0 
L 684 794 
z
" transform="scale(0.015625)"/>
       </defs>
       <use xlink:href="#DejaVuSans-2212"/>
       <use xlink:href="#DejaVuSans-30" x="83.789062"/>
       <use xlink:href="#DejaVuSans-2e" x="147.412109"/>
       <use xlink:href="#DejaVuSans-30" x="179.199219"/>
       <use xlink:href="#DejaVuSans-36" x="242.822266"/>
      </g>
     </g>
    </g>
    <g id="ytick_2">
     <g id="line2d_11">
      <path d="M 65.45 131.994374 
L 277.2 131.994374 
" clip-path="url(#pe9aaad0d20)" style="fill: none; stroke: #b0b0b0; stroke-width: 0.8; stroke-linecap: square"/>
     </g>
     <g id="line2d_12">
      <g>
       <use xlink:href="#m4eafdbb846" x="65.45" y="131.994374" style="stroke: #000000; stroke-width: 0.8"/>
      </g>
     </g>
     <g id="text_7">
      <!-- −0.04 -->
      <g transform="translate(27.804688 135.793592) scale(0.1 -0.1)">
       <use xlink:href="#DejaVuSans-2212"/>
       <use xlink:href="#DejaVuSans-30" x="83.789062"/>
       <use xlink:href="#DejaVuSans-2e" x="147.412109"/>
       <use xlink:href="#DejaVuSans-30" x="179.199219"/>
       <use xlink:href="#DejaVuSans-34" x="242.822266"/>
      </g>
     </g>
    </g>
    <g id="ytick_3">
     <g id="line2d_13">
      <path d="M 65.45 107.312279 
L 277.2 107.312279 
" clip-path="url(#pe9aaad0d20)" style="fill: none; stroke: #b0b0b0; stroke-width: 0.8; stroke-linecap: square"/>
     </g>
     <g id="line2d_14">
      <g>
       <use xlink:href="#m4eafdbb846" x="65.45" y="107.312279" style="stroke: #000000; stroke-width: 0.8"/>
      </g>
     </g>
     <g id="text_8">
      <!-- −0.02 -->
      <g transform="translate(27.804688 111.111498) scale(0.1 -0.1)">
       <use xlink:href="#DejaVuSans-2212"/>
       <use xlink:href="#DejaVuSans-30" x="83.789062"/>
       <use xlink:href="#DejaVuSans-2e" x="147.412109"/>
       <use xlink:href="#DejaVuSans-30" x="179.199219"/>
       <use xlink:href="#DejaVuSans-32" x="242.822266"/>
      </g>
     </g>
    </g>
    <g id="ytick_4">
     <g id="line2d_15">
      <path d="M 65.45 82.630185 
L 277.2 82.630185 
" clip-path="url(#pe9aaad0d20)" style="fill: none; stroke: #b0b0b0; stroke-width: 0.8; stroke-linecap: square"/>
     </g>
     <g id="line2d_16">
      <g>
       <use xlink:href="#m4eafdbb846" x="65.45" y="82.630185" style="stroke: #000000; stroke-width: 0.8"/>
      </g>
     </g>
     <g id="text_9">
      <!-- 0.00 -->
      <g transform="translate(36.184375 86.429404) scale(0.1 -0.1)">
       <use xlink:href="#DejaVuSans-30"/>
       <use xlink:href="#DejaVuSans-2e" x="63.623047"/>
       <use xlink:href="#DejaVuSans-30" x="95.410156"/>
       <use xlink:href="#DejaVuSans-30" x="159.033203"/>
      </g>
     </g>
    </g>
    <g id="ytick_5">
     <g id="line2d_17">
      <path d="M 65.45 57.94809 
L 277.2 57.94809 
" clip-path="url(#pe9aaad0d20)" style="fill: none; stroke: #b0b0b0; stroke-width: 0.8; stroke-linecap: square"/>
     </g>
     <g id="line2d_18">
      <g>
       <use xlink:href="#m4eafdbb846" x="65.45" y="57.94809" style="stroke: #000000; stroke-width: 0.8"/>
      </g>
     </g>
     <g id="text_10">
      <!-- 0.02 -->
      <g transform="translate(36.184375 61.747309) scale(0.1 -0.1)">
       <use xlink:href="#DejaVuSans-30"/>
       <use xlink:href="#DejaVuSans-2e" x="63.623047"/>
       <use xlink:href="#DejaVuSans-30" x="95.410156"/>
       <use xlink:href="#DejaVuSans-32" x="159.033203"/>
      </g>
     </g>
    </g>
    <g id="ytick_6">
     <g id="line2d_19">
      <path d="M 65.45 33.265996 
L 277.2 33.265996 
" clip-path="url(#pe9aaad0d20)" style="fill: none; stroke: #b0b0b0; stroke-width: 0.8; stroke-linecap: square"/>
     </g>
     <g id="line2d_20">
      <g>
       <use xlink:href="#m4eafdbb846" x="65.45" y="33.265996" style="stroke: #000000; stroke-width: 0.8"/>
      </g>
     </g>
     <g id="text_11">
      <!-- 0.04 -->
      <g transform="translate(36.184375 37.065215) scale(0.1 -0.1)">
       <use xlink:href="#DejaVuSans-30"/>
       <use xlink:href="#DejaVuSans-2e" x="63.623047"/>
       <use xlink:href="#DejaVuSans-30" x="95.410156"/>
       <use xlink:href="#DejaVuSans-34" x="159.033203"/>
      </g>
     </g>
    </g>
    <g id="text_12">
     <!-- $dCL/dJ$ -->
     <g transform="translate(21.704687 108.22) rotate(-90) scale(0.1 -0.1)">
      <defs>
       <path id="DejaVuSans-Oblique-64" d="M 2675 525 
Q 2444 222 2128 65 
Q 1813 -91 1428 -91 
Q 903 -91 598 267 
Q 294 625 294 1247 
Q 294 1766 478 2236 
Q 663 2706 1013 3078 
Q 1244 3325 1534 3454 
Q 1825 3584 2144 3584 
Q 2481 3584 2739 3421 
Q 2997 3259 3138 2956 
L 3513 4863 
L 4091 4863 
L 3144 0 
L 2566 0 
L 2675 525 
z
M 891 1350 
Q 891 897 1095 644 
Q 1300 391 1663 391 
Q 1931 391 2161 520 
Q 2391 650 2566 903 
Q 2750 1166 2856 1509 
Q 2963 1853 2963 2188 
Q 2963 2622 2758 2865 
Q 2553 3109 2194 3109 
Q 1922 3109 1687 2981 
Q 1453 2853 1288 2613 
Q 1106 2353 998 2009 
Q 891 1666 891 1350 
z
" transform="scale(0.015625)"/>
       <path id="DejaVuSans-Oblique-43" d="M 4447 4306 
L 4319 3641 
Q 4019 3944 3683 4091 
Q 3347 4238 2956 4238 
Q 2422 4238 2017 3981 
Q 1613 3725 1319 3200 
Q 1131 2863 1032 2486 
Q 934 2109 934 1728 
Q 934 1091 1264 756 
Q 1594 422 2222 422 
Q 2656 422 3056 561 
Q 3456 700 3834 978 
L 3688 231 
Q 3316 72 2936 -9 
Q 2556 -91 2175 -91 
Q 1278 -91 773 396 
Q 269 884 269 1753 
Q 269 2309 461 2846 
Q 653 3384 1013 3828 
Q 1394 4300 1883 4525 
Q 2372 4750 3022 4750 
Q 3422 4750 3780 4639 
Q 4138 4528 4447 4306 
z
" transform="scale(0.015625)"/>
       <path id="DejaVuSans-Oblique-4c" d="M 1075 4666 
L 1709 4666 
L 909 525 
L 3181 525 
L 3078 0 
L 172 0 
L 1075 4666 
z
" transform="scale(0.015625)"/>
       <path id="DejaVuSans-2f" d="M 1625 4666 
L 2156 4666 
L 531 -594 
L 0 -594 
L 1625 4666 
z
" transform="scale(0.015625)"/>
       <path id="DejaVuSans-Oblique-4a" d="M 1069 4666 
L 1703 4666 
L 856 325 
Q 691 -522 298 -901 
Q -94 -1281 -800 -1281 
L -1050 -1281 
L -947 -750 
L -750 -750 
Q -328 -750 -109 -509 
Q 109 -269 225 325 
L 1069 4666 
z
" transform="scale(0.015625)"/>
      </defs>
      <use xlink:href="#DejaVuSans-Oblique-64" transform="translate(0 0.015625)"/>
      <use xlink:href="#DejaVuSans-Oblique-43" transform="translate(63.476562 0.015625)"/>
      <use xlink:href="#DejaVuSans-Oblique-4c" transform="translate(133.300781 0.015625)"/>
      <use xlink:href="#DejaVuSans-2f" transform="translate(189.013672 0.015625)"/>
      <use xlink:href="#DejaVuSans-Oblique-64" transform="translate(222.705078 0.015625)"/>
      <use xlink:href="#DejaVuSans-Oblique-4a" transform="translate(286.181641 0.015625)"/>
     </g>
    </g>
   </g>
   <g id="line2d_21">
    <path d="M 75.075 18.22 
L 77.019444 18.809681 
L 78.963889 19.395705 
L 80.908333 19.978073 
L 82.852778 20.556785 
L 84.797222 21.131841 
L 86.741667 21.70324 
L 88.686111 22.270983 
L 90.630556 22.83507 
L 92.575 23.3955 
L 94.519444 23.952274 
L 96.463889 24.505392 
L 98.408333 25.054854 
L 100.352778 25.600659 
L 102.297222 26.142808 
L 104.241667 26.681301 
L 106.186111 27.216137 
L 108.130556 27.747318 
L 110.075 28.274841 
L 112.019444 28.798709 
L 113.963889 29.31892 
L 115.908333 29.835476 
L 117.852778 30.348374 
L 119.797222 30.857617 
L 121.741667 31.363203 
L 123.686111 31.865133 
L 125.630556 32.363407 
L 127.575 32.858024 
L 129.519444 33.348985 
L 131.463889 33.83629 
L 133.408333 34.319939 
L 135.352778 34.799931 
L 137.297222 35.276267 
L 139.241667 35.748947 
L 141.186111 36.21797 
L 143.130556 36.683337 
L 145.075 37.145048 
L 147.019444 37.603103 
L 148.963889 38.057501 
L 150.908333 38.508243 
L 152.852778 38.955329 
L 154.797222 39.398759 
L 156.741667 39.838532 
L 158.686111 40.274649 
L 160.630556 40.707109 
L 162.575 41.135914 
L 164.519444 41.561062 
L 166.463889 41.982554 
L 168.408333 42.400389 
L 170.352778 42.814569 
L 172.297222 43.225091 
L 174.241667 43.631958 
L 176.186111 44.035169 
L 178.130556 44.434723 
L 180.075 44.830621 
L 182.019444 45.222862 
L 183.963889 45.611448 
L 185.908333 45.996377 
L 187.852778 46.377649 
L 189.797222 46.755266 
L 191.741667 47.129226 
L 193.686111 47.49953 
L 195.630556 47.866177 
L 197.575 48.229169 
L 199.519444 48.588504 
L 201.463889 48.944183 
L 203.408333 49.296205 
L 205.352778 49.644571 
L 207.297222 49.989281 
L 209.241667 50.330335 
L 211.186111 50.667732 
L 213.130556 51.001474 
L 215.075 51.331558 
L 217.019444 51.657987 
L 218.963889 51.980759 
L 220.908333 52.299875 
L 222.852778 52.615335 
L 224.797222 52.927138 
L 226.741667 53.235285 
L 228.686111 53.539776 
L 230.630556 53.840611 
L 232.575 54.137789 
L 234.519444 54.431311 
L 236.463889 54.721177 
L 238.408333 55.007387 
L 240.352778 55.28994 
L 242.297222 55.568837 
L 244.241667 55.844077 
L 246.186111 56.115662 
L 248.130556 56.38359 
L 250.075 56.647862 
L 252.019444 56.908477 
L 253.963889 57.165436 
L 255.908333 57.418739 
L 257.852778 57.668386 
L 259.797222 57.914376 
L 261.741667 58.15671 
L 263.686111 58.395388 
L 265.630556 58.63041 
L 267.575 58.861775 
" clip-path="url(#pe9aaad0d20)" style="fill: none; stroke: #440154; stroke-width: 1.5; stroke-linecap: square"/>
   </g>
   <g id="line2d_22">
    <path d="M 75.075 64.685912 
L 77.019444 65.599376 
L 78.963889 66.504034 
L 80.908333 67.399887 
L 82.852778 68.286935 
L 84.797222 69.165177 
L 86.741667 70.034613 
L 88.686111 70.895244 
L 90.630556 71.74707 
L 92.575 72.59009 
L 94.519444 73.424304 
L 96.463889 74.249713 
L 98.408333 75.066316 
L 100.352778 75.874114 
L 102.297222 76.673106 
L 104.241667 77.463293 
L 106.186111 78.244674 
L 108.130556 79.01725 
L 110.075 79.78102 
L 112.019444 80.535985 
L 113.963889 81.282144 
L 115.908333 82.019498 
L 117.852778 82.748046 
L 119.797222 83.467789 
L 121.741667 84.178726 
L 123.686111 84.880858 
L 125.630556 85.574184 
L 127.575 86.258704 
L 129.519444 86.934419 
L 131.463889 87.601329 
L 133.408333 88.259433 
L 135.352778 88.908731 
L 137.297222 89.549224 
L 139.241667 90.180911 
L 141.186111 90.803793 
L 143.130556 91.41787 
L 145.075 92.023141 
L 147.019444 92.619606 
L 148.963889 93.207266 
L 150.908333 93.78612 
L 152.852778 94.356169 
L 154.797222 94.917412 
L 156.741667 95.46985 
L 158.686111 96.013482 
L 160.630556 96.548309 
L 162.575 97.07433 
L 164.519444 97.591545 
L 166.463889 98.099955 
L 168.408333 98.59956 
L 170.352778 99.090359 
L 172.297222 99.572353 
L 174.241667 100.045541 
L 176.186111 100.509923 
L 178.130556 100.9655 
L 180.075 101.412272 
L 182.019444 101.850238 
L 183.963889 102.279398 
L 185.908333 102.699753 
L 187.852778 103.111302 
L 189.797222 103.514046 
L 191.741667 103.907985 
L 193.686111 104.293117 
L 195.630556 104.669445 
L 197.575 105.036967 
L 199.519444 105.395683 
L 201.463889 105.745594 
L 203.408333 106.086699 
L 205.352778 106.418998 
L 207.297222 106.742493 
L 209.241667 107.057181 
L 211.186111 107.363064 
L 213.130556 107.660142 
L 215.075 107.948414 
L 217.019444 108.227881 
L 218.963889 108.498542 
L 220.908333 108.760397 
L 222.852778 109.013447 
L 224.797222 109.257692 
L 226.741667 109.493131 
L 228.686111 109.719764 
L 230.630556 109.937592 
L 232.575 110.146614 
L 234.519444 110.346831 
L 236.463889 110.538243 
L 238.408333 110.720849 
L 240.352778 110.894649 
L 242.297222 111.059644 
L 244.241667 111.215833 
L 246.186111 111.363217 
L 248.130556 111.501795 
L 250.075 111.631568 
L 252.019444 111.752535 
L 253.963889 111.864696 
L 255.908333 111.968053 
L 257.852778 112.062603 
L 259.797222 112.148348 
L 261.741667 112.225288 
L 263.686111 112.293422 
L 265.630556 112.35275 
L 267.575 112.403274 
" clip-path="url(#pe9aaad0d20)" style="fill: none; stroke: #21918c; stroke-width: 1.5; stroke-linecap: square"/>
   </g>
   <g id="line2d_23">
    <path d="M 75.075 111.151823 
L 77.019444 112.389071 
L 78.963889 113.612363 
L 80.908333 114.821701 
L 82.852778 116.017085 
L 84.797222 117.198513 
L 86.741667 118.365987 
L 88.686111 119.519506 
L 90.630556 120.65907 
L 92.575 121.784679 
L 94.519444 122.896334 
L 96.463889 123.994034 
L 98.408333 125.077779 
L 100.352778 126.147569 
L 102.297222 127.203405 
L 104.241667 128.245286 
L 106.186111 129.273212 
L 108.130556 130.287183 
L 110.075 131.287199 
L 112.019444 132.273261 
L 113.963889 133.245368 
L 115.908333 134.203521 
L 117.852778 135.147718 
L 119.797222 136.077961 
L 121.741667 136.994249 
L 123.686111 137.896582 
L 125.630556 138.78496 
L 127.575 139.659384 
L 129.519444 140.519853 
L 131.463889 141.366367 
L 133.408333 142.198926 
L 135.352778 143.017531 
L 137.297222 143.822181 
L 139.241667 144.612876 
L 141.186111 145.389616 
L 143.130556 146.152402 
L 145.075 146.901233 
L 147.019444 147.636109 
L 148.963889 148.35703 
L 150.908333 149.063997 
L 152.852778 149.757008 
L 154.797222 150.436065 
L 156.741667 151.101168 
L 158.686111 151.752315 
L 160.630556 152.389508 
L 162.575 153.012746 
L 164.519444 153.622029 
L 166.463889 154.217357 
L 168.408333 154.798731 
L 170.352778 155.36615 
L 172.297222 155.919614 
L 174.241667 156.459123 
L 176.186111 156.984678 
L 178.130556 157.496278 
L 180.075 157.993923 
L 182.019444 158.477613 
L 183.963889 158.947349 
L 185.908333 159.403129 
L 187.852778 159.844956 
L 189.797222 160.272827 
L 191.741667 160.686743 
L 193.686111 161.086705 
L 195.630556 161.472712 
L 197.575 161.844764 
L 199.519444 162.202862 
L 201.463889 162.547004 
L 203.408333 162.877192 
L 205.352778 163.193425 
L 207.297222 163.495704 
L 209.241667 163.784027 
L 211.186111 164.058396 
L 213.130556 164.31881 
L 215.075 164.56527 
L 217.019444 164.797774 
L 218.963889 165.016324 
L 220.908333 165.220919 
L 222.852778 165.41156 
L 224.797222 165.588245 
L 226.741667 165.750976 
L 228.686111 165.899752 
L 230.630556 166.034573 
L 232.575 166.15544 
L 234.519444 166.262351 
L 236.463889 166.355308 
L 238.408333 166.43431 
L 240.352778 166.499358 
L 242.297222 166.550451 
L 244.241667 166.587588 
L 246.186111 166.610772 
L 248.130556 166.62 
L 250.075 166.615274 
L 252.019444 166.596592 
L 253.963889 166.563957 
L 255.908333 166.517366 
L 257.852778 166.45682 
L 259.797222 166.38232 
L 261.741667 166.293865 
L 263.686111 166.191456 
L 265.630556 166.075091 
L 267.575 165.944772 
" clip-path="url(#pe9aaad0d20)" style="fill: none; stroke: #fde725; stroke-width: 1.5; stroke-linecap: square"/>
   </g>
   <g id="patch_3">
    <path d="M 65.45 174.04 
L 65.45 10.8 
" style="fill: none; stroke: #000000; stroke-width: 0.8; stroke-linejoin: miter; stroke-linecap: square"/>
   </g>
   <g id="patch_4">
    <path d="M 277.2 174.04 
L 277.2 10.8 
" style="fill: none; stroke: #000000; stroke-width: 0.8; stroke-linejoin: miter; stroke-linecap: square"/>
   </g>
   <g id="patch_5">
    <path d="M 65.45 174.04 
L 277.2 174.04 
" style="fill: none; stroke: #000000; stroke-width: 0.8; stroke-linejoin: miter; stroke-linecap: square"/>
   </g>
   <g id="patch_6">
    <path d="M 65.45 10.8 
L 277.2 10.8 
" style="fill: none; stroke: #000000; stroke-width: 0.8; stroke-linejoin: miter; stroke-linecap: square"/>
   </g>
   <g id="legend_1">
    <g id="patch_7">
     <path d="M 72.45 169.04 
L 152.45 169.04 
Q 154.45 169.04 154.45 167.04 
L 154.45 124.005625 
Q 154.45 122.005625 152.45 122.005625 
L 72.45 122.005625 
Q 70.45 122.005625 70.45 124.005625 
L 70.45 167.04 
Q 70.45 169.04 72.45 169.04 
z
" style="fill: #ffffff; opacity: 0.8; stroke: #cccccc; stroke-linejoin: miter"/>
    </g>
    <g id="line2d_24">
     <path d="M 74.45 130.104062 
L 84.45 130.104062 
L 94.45 130.104062 
" style="fill: none; stroke: #440154; stroke-width: 1.5; stroke-linecap: square"/>
    </g>
    <g id="text_13">
     <!-- $\delta_e = -10$ -->
     <g transform="translate(102.45 133.604062) scale(0.1 -0.1)">
      <defs>
       <path id="DejaVuSans-Oblique-3b4" d="M 3472 4053 
Q 3197 4272 2450 4272 
Q 1659 4272 1588 3906 
Q 1531 3619 2328 3469 
Q 2953 3353 3253 3003 
Q 3616 2581 3447 1716 
Q 3284 888 2763 400 
Q 2238 -91 1488 -91 
Q 741 -91 406 400 
Q 72 888 241 1747 
Q 363 2384 891 2900 
Q 1097 3100 1353 3213 
Q 913 3459 1000 3900 
Q 1166 4750 2544 4750 
Q 3234 4750 3566 4531 
L 3472 4053 
z
M 1753 3056 
Q 1525 2966 1306 2738 
Q 969 2384 847 1747 
Q 722 1113 919 756 
Q 1119 397 1584 397 
Q 2044 397 2381 759 
Q 2722 1122 2838 1716 
Q 2956 2338 2731 2638 
Q 2491 2959 2103 2994 
Q 1906 3013 1753 3056 
z
" transform="scale(0.015625)"/>
       <path id="DejaVuSans-Oblique-65" d="M 3078 2063 
Q 3088 2113 3092 2166 
Q 3097 2219 3097 2272 
Q 3097 2653 2873 2875 
Q 2650 3097 2266 3097 
Q 1838 3097 1509 2826 
Q 1181 2556 1013 2059 
L 3078 2063 
z
M 3578 1613 
L 903 1613 
Q 884 1494 878 1425 
Q 872 1356 872 1306 
Q 872 872 1139 634 
Q 1406 397 1894 397 
Q 2269 397 2603 481 
Q 2938 566 3225 728 
L 3116 159 
Q 2806 34 2476 -28 
Q 2147 -91 1806 -91 
Q 1078 -91 686 257 
Q 294 606 294 1247 
Q 294 1794 489 2264 
Q 684 2734 1063 3103 
Q 1306 3334 1642 3459 
Q 1978 3584 2356 3584 
Q 2950 3584 3301 3228 
Q 3653 2872 3653 2272 
Q 3653 2128 3634 1964 
Q 3616 1800 3578 1613 
z
" transform="scale(0.015625)"/>
       <path id="DejaVuSans-3d" d="M 678 2906 
L 4684 2906 
L 4684 2381 
L 678 2381 
L 678 2906 
z
M 678 1631 
L 4684 1631 
L 4684 1100 
L 678 1100 
L 678 1631 
z
" transform="scale(0.015625)"/>
       <path id="DejaVuSans-31" d="M 794 531 
L 1825 531 
L 1825 4091 
L 703 3866 
L 703 4441 
L 1819 4666 
L 2450 4666 
L 2450 531 
L 3481 531 
L 3481 0 
L 794 0 
L 794 531 
z
" transform="scale(0.015625)"/>
      </defs>
      <use xlink:href="#DejaVuSans-Oblique-3b4" transform="translate(0 0.78125)"/>
      <use xlink:href="#DejaVuSans-Oblique-65" transform="translate(61.181641 -15.625) scale(0.7)"/>
      <use xlink:href="#DejaVuSans-3d" transform="translate(126.464844 0.78125)"/>
      <use xlink:href="#DejaVuSans-2212" transform="translate(249.21875 0.78125)"/>
      <use xlink:href="#DejaVuSans-31" transform="translate(352.490234 0.78125)"/>
      <use xlink:href="#DejaVuSans-30" transform="translate(416.113281 0.78125)"/>
     </g>
    </g>
    <g id="line2d_25">
     <path d="M 74.45 144.782187 
L 84.45 144.782187 
L 94.45 144.782187 
" style="fill: none; stroke: #21918c; stroke-width: 1.5; stroke-linecap: square"/>
    </g>
    <g id="text_14">
     <!-- $\delta_e = 0$ -->
     <g transform="translate(102.45 148.282187) scale(0.1 -0.1)">
      <use xlink:href="#DejaVuSans-Oblique-3b4" transform="translate(0 0.78125)"/>
      <use xlink:href="#DejaVuSans-Oblique-65" transform="translate(61.181641 -15.625) scale(0.7)"/>
      <use xlink:href="#DejaVuSans-3d" transform="translate(126.464844 0.78125)"/>
      <use xlink:href="#DejaVuSans-30" transform="translate(229.736328 0.78125)"/>
     </g>
    </g>
    <g id="line2d_26">
     <path d="M 74.45 159.460312 
L 84.45 159.460312 
L 94.45 159.460312 
" style="fill: none; stroke: #fde725; stroke-width: 1.5; stroke-linecap: square"/>
    </g>
    <g id="text_15">
     <!-- $\delta_e = 10$ -->
     <g transform="translate(102.45 162.960312) scale(0.1 -0.1)">
      <use xlink:href="#DejaVuSans-Oblique-3b4" transform="translate(0 0.78125)"/>
      <use xlink:href="#DejaVuSans-Oblique-65" transform="translate(61.181641 -15.625) scale(0.7)"/>
      <use xlink:href="#DejaVuSans-3d" transform="translate(126.464844 0.78125)"/>
      <use xlink:href="#DejaVuSans-31" transform="translate(229.736328 0.78125)"/>
      <use xlink:href="#DejaVuSans-30" transform="translate(293.359375 0.78125)"/>
     </g>
    </g>
   </g>
  </g>
 </g>
 <defs>
  <clipPath id="pe9aaad0d20">
   <rect x="65.45" y="10.8" width="211.75" height="163.24"/>
  </clipPath>
 </defs>
</svg>
