<?xml version="1.0" encoding="utf-8" standalone="no"?>
<!DOCTYPE svg PUBLIC "-//W3C//DTD SVG 1.1//EN"
  "http://www.w3.org/Graphics/SVG/1.1/DTD/svg11.dtd">
<svg xmlns:xlink="http://www.w3.org/1999/xlink" width="432pt" height="216pt" viewBox="0 0 432 216" xmlns="http://www.w3.org/2000/svg" version="1.1">
 <metadata>
  <rdf:RDF xmlns:dc="http://purl.org/dc/elements/1.1/" xmlns:cc="http://creativecommons.org/ns#" xmlns:rdf="http://www.w3.org/1999/02/22-rdf-syntax-ns#">
   <cc:Work>
    <dc:type rdf:resource="http://purl.org/dc/dcmitype/StillImage"/>
    <dc:date>2025-03-28T12:22:22.613040</dc:date>
    <dc:format>image/svg+xml</dc:format>
    <dc:creator>
     <cc:Agent>
      <dc:title>Matplotlib v3.9.2, https://matplotlib.org/</dc:title>
     </cc:Agent>
    </dc:creator>
   </cc:Work>
  </rdf:RDF>
 </metadata>
 <defs>
  <style type="text/css">*{stroke-linejoin: round; stroke-linecap: butt}</style>
 </defs>
 <g id="figure_1">
  <g id="patch_1">
   <path d="M 0 216 
L 432 216 
L 432 0 
L 0 0 
z
" style="fill: #ffffff"/>
  </g>
  <g id="axes_1">
   <g id="patch_2">
    <path d="M 71.408 174.04 
L 306.255247 174.04 
L 306.255247 10.8 
L 71.408 10.8 
z
" style="fill: #ffffff"/>
   </g>
   <g id="matplotlib.axis_1">
    <g id="xtick_1">
     <g id="line2d_1">
      <path d="M 82.082875 174.04 
L 82.082875 10.8 
" clip-path="url(#p986ac0b6bc)" style="fill: none; stroke: #b0b0b0; stroke-width: 0.8; stroke-linecap: square"/>
     </g>
     <g id="line2d_2">
      <defs>
       <path id="m9fdd58f896" d="M 0 0 
L 0 3.5 
" style="stroke: #000000; stroke-width: 0.8"/>
      </defs>
      <g>
       <use xlink:href="#m9fdd58f896" x="82.082875" y="174.04" style="stroke: #000000; stroke-width: 0.8"/>
      </g>
     </g>
     <g id="text_1">
      <!-- −4 -->
      <g transform="translate(74.711781 188.638438) scale(0.1 -0.1)">
       <defs>
        <path id="DejaVuSans-2212" d="M 678 2272 
L 4684 2272 
L 4684 1741 
L 678 1741 
L 678 2272 
z
" transform="scale(0.015625)"/>
        <path id="DejaVuSans-34" d="M 2419 4116 
L 825 1625 
L 2419 1625 
L 2419 4116 
z
M 2253 4666 
L 3047 4666 
L 3047 1625 
L 3713 1625 
L 3713 1100 
L 3047 1100 
L 3047 0 
L 2419 0 
L 2419 1100 
L 313 1100 
L 313 1709 
L 2253 4666 
z
" transform="scale(0.015625)"/>
       </defs>
       <use xlink:href="#DejaVuSans-2212"/>
       <use xlink:href="#DejaVuSans-34" x="83.789062"/>
      </g>
     </g>
    </g>
    <g id="xtick_2">
     <g id="line2d_3">
      <path d="M 120.900602 174.04 
L 120.900602 10.8 
" clip-path="url(#p986ac0b6bc)" style="fill: none; stroke: #b0b0b0; stroke-width: 0.8; stroke-linecap: square"/>
     </g>
     <g id="line2d_4">
      <g>
       <use xlink:href="#m9fdd58f896" x="120.900602" y="174.04" style="stroke: #000000; stroke-width: 0.8"/>
      </g>
     </g>
     <g id="text_2">
      <!-- −2 -->
      <g transform="translate(113.529508 188.638438) scale(0.1 -0.1)">
       <defs>
        <path id="DejaVuSans-32" d="M 1228 531 
L 3431 531 
L 3431 0 
L 469 0 
L 469 531 
Q 828 903 1448 1529 
Q 2069 2156 2228 2338 
Q 2531 2678 2651 2914 
Q 2772 3150 2772 3378 
Q 2772 3750 2511 3984 
Q 2250 4219 1831 4219 
Q 1534 4219 1204 4116 
Q 875 4013 500 3803 
L 500 4441 
Q 881 4594 1212 4672 
Q 1544 4750 1819 4750 
Q 2544 4750 2975 4387 
Q 3406 4025 3406 3419 
Q 3406 3131 3298 2873 
Q 3191 2616 2906 2266 
Q 2828 2175 2409 1742 
Q 1991 1309 1228 531 
z
" transform="scale(0.015625)"/>
       </defs>
       <use xlink:href="#DejaVuSans-2212"/>
       <use xlink:href="#DejaVuSans-32" x="83.789062"/>
      </g>
     </g>
    </g>
    <g id="xtick_3">
     <g id="line2d_5">
      <path d="M 159.718329 174.04 
L 159.718329 10.8 
" clip-path="url(#p986ac0b6bc)" style="fill: none; stroke: #b0b0b0; stroke-width: 0.8; stroke-linecap: square"/>
     </g>
     <g id="line2d_6">
      <g>
       <use xlink:href="#m9fdd58f896" x="159.718329" y="174.04" style="stroke: #000000; stroke-width: 0.8"/>
      </g>
     </g>
     <g id="text_3">
      <!-- 0 -->
      <g transform="translate(156.537079 188.638438) scale(0.1 -0.1)">
       <defs>
        <path id="DejaVuSans-30" d="M 2034 4250 
Q 1547 4250 1301 3770 
Q 1056 3291 1056 2328 
Q 1056 1369 1301 889 
Q 1547 409 2034 409 
Q 2525 409 2770 889 
Q 3016 1369 3016 2328 
Q 3016 3291 2770 3770 
Q 2525 4250 2034 4250 
z
M 2034 4750 
Q 2819 4750 3233 4129 
Q 3647 3509 3647 2328 
Q 3647 1150 3233 529 
Q 2819 -91 2034 -91 
Q 1250 -91 836 529 
Q 422 1150 422 2328 
Q 422 3509 836 4129 
Q 1250 4750 2034 4750 
z
" transform="scale(0.015625)"/>
       </defs>
       <use xlink:href="#DejaVuSans-30"/>
      </g>
     </g>
    </g>
    <g id="xtick_4">
     <g id="line2d_7">
      <path d="M 198.536055 174.04 
L 198.536055 10.8 
" clip-path="url(#p986ac0b6bc)" style="fill: none; stroke: #b0b0b0; stroke-width: 0.8; stroke-linecap: square"/>
     </g>
     <g id="line2d_8">
      <g>
       <use xlink:href="#m9fdd58f896" x="198.536055" y="174.04" style="stroke: #000000; stroke-width: 0.8"/>
      </g>
     </g>
     <g id="text_4">
      <!-- 2 -->
      <g transform="translate(195.354805 188.638438) scale(0.1 -0.1)">
       <use xlink:href="#DejaVuSans-32"/>
      </g>
     </g>
    </g>
    <g id="xtick_5">
     <g id="line2d_9">
      <path d="M 237.353782 174.04 
L 237.353782 10.8 
" clip-path="url(#p986ac0b6bc)" style="fill: none; stroke: #b0b0b0; stroke-width: 0.8; stroke-linecap: square"/>
     </g>
     <g id="line2d_10">
      <g>
       <use xlink:href="#m9fdd58f896" x="237.353782" y="174.04" style="stroke: #000000; stroke-width: 0.8"/>
      </g>
     </g>
     <g id="text_5">
      <!-- 4 -->
      <g transform="translate(234.172532 188.638438) scale(0.1 -0.1)">
       <use xlink:href="#DejaVuSans-34"/>
      </g>
     </g>
    </g>
    <g id="xtick_6">
     <g id="line2d_11">
      <path d="M 276.171509 174.04 
L 276.171509 10.8 
" clip-path="url(#p986ac0b6bc)" style="fill: none; stroke: #b0b0b0; stroke-width: 0.8; stroke-linecap: square"/>
     </g>
     <g id="line2d_12">
      <g>
       <use xlink:href="#m9fdd58f896" x="276.171509" y="174.04" style="stroke: #000000; stroke-width: 0.8"/>
      </g>
     </g>
     <g id="text_6">
      <!-- 6 -->
      <g transform="translate(272.990259 188.638438) scale(0.1 -0.1)">
       <defs>
        <path id="DejaVuSans-36" d="M 2113 2584 
Q 1688 2584 1439 2293 
Q 1191 2003 1191 1497 
Q 1191 994 1439 701 
Q 1688 409 2113 409 
Q 2538 409 2786 701 
Q 3034 994 3034 1497 
Q 3034 2003 2786 2293 
Q 2538 2584 2113 2584 
z
M 3366 4563 
L 3366 3988 
Q 3128 4100 2886 4159 
Q 2644 4219 2406 4219 
Q 1781 4219 1451 3797 
Q 1122 3375 1075 2522 
Q 1259 2794 1537 2939 
Q 1816 3084 2150 3084 
Q 2853 3084 3261 2657 
Q 3669 2231 3669 1497 
Q 3669 778 3244 343 
Q 2819 -91 2113 -91 
Q 1303 -91 875 529 
Q 447 1150 447 2328 
Q 447 3434 972 4092 
Q 1497 4750 2381 4750 
Q 2619 4750 2861 4703 
Q 3103 4656 3366 4563 
z
" transform="scale(0.015625)"/>
       </defs>
       <use xlink:href="#DejaVuSans-36"/>
      </g>
     </g>
    </g>
    <g id="text_7">
     <!-- $\alpha$ -->
     <g transform="translate(185.531624 202.316563) scale(0.1 -0.1)">
      <defs>
       <path id="DejaVuSans-Oblique-3b1" d="M 2619 1628 
L 2622 2350 
Q 2625 3088 2069 3091 
Q 1653 3094 1394 2747 
Q 1069 2319 959 1747 
Q 825 1059 994 731 
Q 1169 397 1547 397 
Q 1966 397 2319 1063 
L 2619 1628 
z
M 2166 3578 
Q 3141 3594 3128 2584 
Q 3128 2584 3616 3500 
L 4128 3500 
L 3119 1603 
L 3109 919 
Q 3109 766 3194 638 
Q 3291 488 3391 488 
L 3669 488 
L 3575 0 
L 3228 0 
Q 2934 0 2722 263 
Q 2622 394 2619 669 
Q 2416 334 2066 50 
Q 1900 -81 1453 -78 
Q 722 -72 456 397 
Q 184 884 353 1747 
Q 534 2675 1009 3097 
Q 1544 3569 2166 3578 
z
" transform="scale(0.015625)"/>
      </defs>
      <use xlink:href="#DejaVuSans-Oblique-3b1" transform="translate(0 0.84375)"/>
     </g>
    </g>
   </g>
   <g id="matplotlib.axis_2">
    <g id="ytick_1">
     <g id="line2d_13">
      <path d="M 71.408 170.23502 
L 306.255247 170.23502 
" clip-path="url(#p986ac0b6bc)" style="fill: none; stroke: #b0b0b0; stroke-width: 0.8; stroke-linecap: square"/>
     </g>
     <g id="line2d_14">
      <defs>
       <path id="m43e8fd0870" d="M 0 0 
L -3.5 0 
" style="stroke: #000000; stroke-width: 0.8"/>
      </defs>
      <g>
       <use xlink:href="#m43e8fd0870" x="71.408" y="170.23502" style="stroke: #000000; stroke-width: 0.8"/>
      </g>
     </g>
     <g id="text_8">
      <!-- −0.032 -->
      <g transform="translate(27.400188 174.034239) scale(0.1 -0.1)">
       <defs>
        <path id="DejaVuSans-2e" d="M 684 794 
L 1344 794 
L 1344 0 
L 684 0 
L 684 794 
z
" transform="scale(0.015625)"/>
        <path id="DejaVuSans-33" d="M 2597 2516 
Q 3050 2419 3304 2112 
Q 3559 1806 3559 1356 
Q 3559 666 3084 287 
Q 2609 -91 1734 -91 
Q 1441 -91 1130 -33 
Q 819 25 488 141 
L 488 750 
Q 750 597 1062 519 
Q 1375 441 1716 441 
Q 2309 441 2620 675 
Q 2931 909 2931 1356 
Q 2931 1769 2642 2001 
Q 2353 2234 1838 2234 
L 1294 2234 
L 1294 2753 
L 1863 2753 
Q 2328 2753 2575 2939 
Q 2822 3125 2822 3475 
Q 2822 3834 2567 4026 
Q 2313 4219 1838 4219 
Q 1578 4219 1281 4162 
Q 984 4106 628 3988 
L 628 4550 
Q 988 4650 1302 4700 
Q 1616 4750 1894 4750 
Q 2613 4750 3031 4423 
Q 3450 4097 3450 3541 
Q 3450 3153 3228 2886 
Q 3006 2619 2597 2516 
z
" transform="scale(0.015625)"/>
       </defs>
       <use xlink:href="#DejaVuSans-2212"/>
       <use xlink:href="#DejaVuSans-30" x="83.789062"/>
       <use xlink:href="#DejaVuSans-2e" x="147.412109"/>
       <use xlink:href="#DejaVuSans-30" x="179.199219"/>
       <use xlink:href="#DejaVuSans-33" x="242.822266"/>
       <use xlink:href="#DejaVuSans-32" x="306.445312"/>
      </g>
     </g>
    </g>
    <g id="ytick_2">
     <g id="line2d_15">
      <path d="M 71.408 145.920592 
L 306.255247 145.920592 
" clip-path="url(#p986ac0b6bc)" style="fill: none; stroke: #b0b0b0; stroke-width: 0.8; stroke-linecap: square"/>
     </g>
     <g id="line2d_16">
      <g>
       <use xlink:href="#m43e8fd0870" x="71.408" y="145.920592" style="stroke: #000000; stroke-width: 0.8"/>
      </g>
     </g>
     <g id="text_9">
      <!-- −0.031 -->
      <g transform="translate(27.400188 149.719811) scale(0.1 -0.1)">
       <defs>
        <path id="DejaVuSans-31" d="M 794 531 
L 1825 531 
L 1825 4091 
L 703 3866 
L 703 4441 
L 1819 4666 
L 2450 4666 
L 2450 531 
L 3481 531 
L 3481 0 
L 794 0 
L 794 531 
z
" transform="scale(0.015625)"/>
       </defs>
       <use xlink:href="#DejaVuSans-2212"/>
       <use xlink:href="#DejaVuSans-30" x="83.789062"/>
       <use xlink:href="#DejaVuSans-2e" x="147.412109"/>
       <use xlink:href="#DejaVuSans-30" x="179.199219"/>
       <use xlink:href="#DejaVuSans-33" x="242.822266"/>
       <use xlink:href="#DejaVuSans-31" x="306.445312"/>
      </g>
     </g>
    </g>
    <g id="ytick_3">
     <g id="line2d_17">
      <path d="M 71.408 121.606164 
L 306.255247 121.606164 
" clip-path="url(#p986ac0b6bc)" style="fill: none; stroke: #b0b0b0; stroke-width: 0.8; stroke-linecap: square"/>
     </g>
     <g id="line2d_18">
      <g>
       <use xlink:href="#m43e8fd0870" x="71.408" y="121.606164" style="stroke: #000000; stroke-width: 0.8"/>
      </g>
     </g>
     <g id="text_10">
      <!-- −0.030 -->
      <g transform="translate(27.400188 125.405382) scale(0.1 -0.1)">
       <use xlink:href="#DejaVuSans-2212"/>
       <use xlink:href="#DejaVuSans-30" x="83.789062"/>
       <use xlink:href="#DejaVuSans-2e" x="147.412109"/>
       <use xlink:href="#DejaVuSans-30" x="179.199219"/>
       <use xlink:href="#DejaVuSans-33" x="242.822266"/>
       <use xlink:href="#DejaVuSans-30" x="306.445312"/>
      </g>
     </g>
    </g>
    <g id="ytick_4">
     <g id="line2d_19">
      <path d="M 71.408 97.291735 
L 306.255247 97.291735 
" clip-path="url(#p986ac0b6bc)" style="fill: none; stroke: #b0b0b0; stroke-width: 0.8; stroke-linecap: square"/>
     </g>
     <g id="line2d_20">
      <g>
       <use xlink:href="#m43e8fd0870" x="71.408" y="97.291735" style="stroke: #000000; stroke-width: 0.8"/>
      </g>
     </g>
     <g id="text_11">
      <!-- −0.029 -->
      <g transform="translate(27.400188 101.090954) scale(0.1 -0.1)">
       <defs>
        <path id="DejaVuSans-39" d="M 703 97 
L 703 672 
Q 941 559 1184 500 
Q 1428 441 1663 441 
Q 2288 441 2617 861 
Q 2947 1281 2994 2138 
Q 2813 1869 2534 1725 
Q 2256 1581 1919 1581 
Q 1219 1581 811 2004 
Q 403 2428 403 3163 
Q 403 3881 828 4315 
Q 1253 4750 1959 4750 
Q 2769 4750 3195 4129 
Q 3622 3509 3622 2328 
Q 3622 1225 3098 567 
Q 2575 -91 1691 -91 
Q 1453 -91 1209 -44 
Q 966 3 703 97 
z
M 1959 2075 
Q 2384 2075 2632 2365 
Q 2881 2656 2881 3163 
Q 2881 3666 2632 3958 
Q 2384 4250 1959 4250 
Q 1534 4250 1286 3958 
Q 1038 3666 1038 3163 
Q 1038 2656 1286 2365 
Q 1534 2075 1959 2075 
z
" transform="scale(0.015625)"/>
       </defs>
       <use xlink:href="#DejaVuSans-2212"/>
       <use xlink:href="#DejaVuSans-30" x="83.789062"/>
       <use xlink:href="#DejaVuSans-2e" x="147.412109"/>
       <use xlink:href="#DejaVuSans-30" x="179.199219"/>
       <use xlink:href="#DejaVuSans-32" x="242.822266"/>
       <use xlink:href="#DejaVuSans-39" x="306.445312"/>
      </g>
     </g>
    </g>
    <g id="ytick_5">
     <g id="line2d_21">
      <path d="M 71.408 72.977307 
L 306.255247 72.977307 
" clip-path="url(#p986ac0b6bc)" style="fill: none; stroke: #b0b0b0; stroke-width: 0.8; stroke-linecap: square"/>
     </g>
     <g id="line2d_22">
      <g>
       <use xlink:href="#m43e8fd0870" x="71.408" y="72.977307" style="stroke: #000000; stroke-width: 0.8"/>
      </g>
     </g>
     <g id="text_12">
      <!-- −0.028 -->
      <g transform="translate(27.400188 76.776526) scale(0.1 -0.1)">
       <defs>
        <path id="DejaVuSans-38" d="M 2034 2216 
Q 1584 2216 1326 1975 
Q 1069 1734 1069 1313 
Q 1069 891 1326 650 
Q 1584 409 2034 409 
Q 2484 409 2743 651 
Q 3003 894 3003 1313 
Q 3003 1734 2745 1975 
Q 2488 2216 2034 2216 
z
M 1403 2484 
Q 997 2584 770 2862 
Q 544 3141 544 3541 
Q 544 4100 942 4425 
Q 1341 4750 2034 4750 
Q 2731 4750 3128 4425 
Q 3525 4100 3525 3541 
Q 3525 3141 3298 2862 
Q 3072 2584 2669 2484 
Q 3125 2378 3379 2068 
Q 3634 1759 3634 1313 
Q 3634 634 3220 271 
Q 2806 -91 2034 -91 
Q 1263 -91 848 271 
Q 434 634 434 1313 
Q 434 1759 690 2068 
Q 947 2378 1403 2484 
z
M 1172 3481 
Q 1172 3119 1398 2916 
Q 1625 2713 2034 2713 
Q 2441 2713 2670 2916 
Q 2900 3119 2900 3481 
Q 2900 3844 2670 4047 
Q 2441 4250 2034 4250 
Q 1625 4250 1398 4047 
Q 1172 3844 1172 3481 
z
" transform="scale(0.015625)"/>
       </defs>
       <use xlink:href="#DejaVuSans-2212"/>
       <use xlink:href="#DejaVuSans-30" x="83.789062"/>
       <use xlink:href="#DejaVuSans-2e" x="147.412109"/>
       <use xlink:href="#DejaVuSans-30" x="179.199219"/>
       <use xlink:href="#DejaVuSans-32" x="242.822266"/>
       <use xlink:href="#DejaVuSans-38" x="306.445312"/>
      </g>
     </g>
    </g>
    <g id="ytick_6">
     <g id="line2d_23">
      <path d="M 71.408 48.662878 
L 306.255247 48.662878 
" clip-path="url(#p986ac0b6bc)" style="fill: none; stroke: #b0b0b0; stroke-width: 0.8; stroke-linecap: square"/>
     </g>
     <g id="line2d_24">
      <g>
       <use xlink:href="#m43e8fd0870" x="71.408" y="48.662878" style="stroke: #000000; stroke-width: 0.8"/>
      </g>
     </g>
     <g id="text_13">
      <!-- −0.027 -->
      <g transform="translate(27.400188 52.462097) scale(0.1 -0.1)">
       <defs>
        <path id="DejaVuSans-37" d="M 525 4666 
L 3525 4666 
L 3525 4397 
L 1831 0 
L 1172 0 
L 2766 4134 
L 525 4134 
L 525 4666 
z
" transform="scale(0.015625)"/>
       </defs>
       <use xlink:href="#DejaVuSans-2212"/>
       <use xlink:href="#DejaVuSans-30" x="83.789062"/>
       <use xlink:href="#DejaVuSans-2e" x="147.412109"/>
       <use xlink:href="#DejaVuSans-30" x="179.199219"/>
       <use xlink:href="#DejaVuSans-32" x="242.822266"/>
       <use xlink:href="#DejaVuSans-37" x="306.445312"/>
      </g>
     </g>
    </g>
    <g id="ytick_7">
     <g id="line2d_25">
      <path d="M 71.408 24.34845 
L 306.255247 24.34845 
" clip-path="url(#p986ac0b6bc)" style="fill: none; stroke: #b0b0b0; stroke-width: 0.8; stroke-linecap: square"/>
     </g>
     <g id="line2d_26">
      <g>
       <use xlink:href="#m43e8fd0870" x="71.408" y="24.34845" style="stroke: #000000; stroke-width: 0.8"/>
      </g>
     </g>
     <g id="text_14">
      <!-- −0.026 -->
      <g transform="translate(27.400188 28.147669) scale(0.1 -0.1)">
       <use xlink:href="#DejaVuSans-2212"/>
       <use xlink:href="#DejaVuSans-30" x="83.789062"/>
       <use xlink:href="#DejaVuSans-2e" x="147.412109"/>
       <use xlink:href="#DejaVuSans-30" x="179.199219"/>
       <use xlink:href="#DejaVuSans-32" x="242.822266"/>
       <use xlink:href="#DejaVuSans-36" x="306.445312"/>
      </g>
     </g>
    </g>
    <g id="text_15">
     <!-- d$C_M$ / d$\delta_e$ -->
     <g transform="translate(21.3205 115.67) rotate(-90) scale(0.1 -0.1)">
      <defs>
       <path id="DejaVuSans-64" d="M 2906 2969 
L 2906 4863 
L 3481 4863 
L 3481 0 
L 2906 0 
L 2906 525 
Q 2725 213 2448 61 
Q 2172 -91 1784 -91 
Q 1150 -91 751 415 
Q 353 922 353 1747 
Q 353 2572 751 3078 
Q 1150 3584 1784 3584 
Q 2172 3584 2448 3432 
Q 2725 3281 2906 2969 
z
M 947 1747 
Q 947 1113 1208 752 
Q 1469 391 1925 391 
Q 2381 391 2643 752 
Q 2906 1113 2906 1747 
Q 2906 2381 2643 2742 
Q 2381 3103 1925 3103 
Q 1469 3103 1208 2742 
Q 947 2381 947 1747 
z
" transform="scale(0.015625)"/>
       <path id="DejaVuSans-Oblique-43" d="M 4447 4306 
L 4319 3641 
Q 4019 3944 3683 4091 
Q 3347 4238 2956 4238 
Q 2422 4238 2017 3981 
Q 1613 3725 1319 3200 
Q 1131 2863 1032 2486 
Q 934 2109 934 1728 
Q 934 1091 1264 756 
Q 1594 422 2222 422 
Q 2656 422 3056 561 
Q 3456 700 3834 978 
L 3688 231 
Q 3316 72 2936 -9 
Q 2556 -91 2175 -91 
Q 1278 -91 773 396 
Q 269 884 269 1753 
Q 269 2309 461 2846 
Q 653 3384 1013 3828 
Q 1394 4300 1883 4525 
Q 2372 4750 3022 4750 
Q 3422 4750 3780 4639 
Q 4138 4528 4447 4306 
z
" transform="scale(0.015625)"/>
       <path id="DejaVuSans-Oblique-4d" d="M 1081 4666 
L 2028 4666 
L 2572 1522 
L 4378 4666 
L 5350 4666 
L 4441 0 
L 3828 0 
L 4622 4091 
L 2791 897 
L 2175 897 
L 1581 4103 
L 788 0 
L 172 0 
L 1081 4666 
z
" transform="scale(0.015625)"/>
       <path id="DejaVuSans-20" transform="scale(0.015625)"/>
       <path id="DejaVuSans-2f" d="M 1625 4666 
L 2156 4666 
L 531 -594 
L 0 -594 
L 1625 4666 
z
" transform="scale(0.015625)"/>
       <path id="DejaVuSans-Oblique-3b4" d="M 3472 4053 
Q 3197 4272 2450 4272 
Q 1659 4272 1588 3906 
Q 1531 3619 2328 3469 
Q 2953 3353 3253 3003 
Q 3616 2581 3447 1716 
Q 3284 888 2763 400 
Q 2238 -91 1488 -91 
Q 741 -91 406 400 
Q 72 888 241 1747 
Q 363 2384 891 2900 
Q 1097 3100 1353 3213 
Q 913 3459 1000 3900 
Q 1166 4750 2544 4750 
Q 3234 4750 3566 4531 
L 3472 4053 
z
M 1753 3056 
Q 1525 2966 1306 2738 
Q 969 2384 847 1747 
Q 722 1113 919 756 
Q 1119 397 1584 397 
Q 2044 397 2381 759 
Q 2722 1122 2838 1716 
Q 2956 2338 2731 2638 
Q 2491 2959 2103 2994 
Q 1906 3013 1753 3056 
z
" transform="scale(0.015625)"/>
       <path id="DejaVuSans-Oblique-65" d="M 3078 2063 
Q 3088 2113 3092 2166 
Q 3097 2219 3097 2272 
Q 3097 2653 2873 2875 
Q 2650 3097 2266 3097 
Q 1838 3097 1509 2826 
Q 1181 2556 1013 2059 
L 3078 2063 
z
M 3578 1613 
L 903 1613 
Q 884 1494 878 1425 
Q 872 1356 872 1306 
Q 872 872 1139 634 
Q 1406 397 1894 397 
Q 2269 397 2603 481 
Q 2938 566 3225 728 
L 3116 159 
Q 2806 34 2476 -28 
Q 2147 -91 1806 -91 
Q 1078 -91 686 257 
Q 294 606 294 1247 
Q 294 1794 489 2264 
Q 684 2734 1063 3103 
Q 1306 3334 1642 3459 
Q 1978 3584 2356 3584 
Q 2950 3584 3301 3228 
Q 3653 2872 3653 2272 
Q 3653 2128 3634 1964 
Q 3616 1800 3578 1613 
z
" transform="scale(0.015625)"/>
      </defs>
      <use xlink:href="#DejaVuSans-64" transform="translate(0 0.015625)"/>
      <use xlink:href="#DejaVuSans-Oblique-43" transform="translate(63.476562 0.015625)"/>
      <use xlink:href="#DejaVuSans-Oblique-4d" transform="translate(133.300781 -16.390625) scale(0.7)"/>
      <use xlink:href="#DejaVuSans-20" transform="translate(196.430664 0.015625)"/>
      <use xlink:href="#DejaVuSans-2f" transform="translate(228.217773 0.015625)"/>
      <use xlink:href="#DejaVuSans-20" transform="translate(261.90918 0.015625)"/>
      <use xlink:href="#DejaVuSans-64" transform="translate(293.696289 0.015625)"/>
      <use xlink:href="#DejaVuSans-Oblique-3b4" transform="translate(357.172852 0.015625)"/>
      <use xlink:href="#DejaVuSans-Oblique-65" transform="translate(418.354492 -16.390625) scale(0.7)"/>
     </g>
    </g>
   </g>
   <g id="line2d_27">
    <path d="M 82.082875 156.875055 
L 84.239415 157.50734 
L 86.395956 158.118422 
L 88.552496 158.7083 
L 90.709036 159.276974 
L 92.865577 159.824444 
L 95.022117 160.350711 
L 97.178658 160.855774 
L 99.335198 161.339633 
L 101.491738 161.802289 
L 103.648279 162.24374 
L 105.804819 162.663989 
L 107.961359 163.063033 
L 110.1179 163.440874 
L 112.27444 163.797511 
L 114.430981 164.132944 
L 116.587521 164.447174 
L 118.744061 164.7402 
L 120.900602 165.012022 
L 123.057142 165.26264 
L 125.213682 165.492055 
L 127.370223 165.700266 
L 129.526763 165.887274 
L 131.683304 166.053078 
L 133.839844 166.197678 
L 135.996384 166.321074 
L 138.152925 166.423267 
L 140.309465 166.504255 
L 142.466006 166.564041 
L 144.622546 166.602622 
L 146.779086 166.62 
L 148.935627 166.616174 
L 151.092167 166.591145 
L 153.248707 166.544911 
L 155.405248 166.477474 
L 157.561788 166.388834 
L 159.718329 166.278989 
L 161.874869 166.147941 
L 164.031409 165.995689 
L 166.18795 165.822234 
L 168.34449 165.627575 
L 170.50103 165.411712 
L 172.657571 165.174645 
L 174.814111 164.916375 
L 176.970652 164.636901 
L 179.127192 164.336223 
L 181.283732 164.014342 
L 183.440273 163.671256 
L 185.596813 163.306968 
L 187.753354 162.921475 
L 189.909894 162.514779 
L 192.066434 162.086879 
L 194.222975 161.637775 
L 196.379515 161.167468 
L 198.536055 160.675957 
L 200.692596 160.163242 
L 202.849136 159.629324 
L 205.005677 159.074202 
L 207.162217 158.497876 
L 209.318757 157.900346 
L 211.475298 157.281613 
L 213.631838 156.641676 
L 215.788378 155.980535 
L 217.944919 155.298191 
L 220.101459 154.594643 
L 222.258 153.869891 
L 224.41454 153.123936 
L 226.57108 152.356777 
L 228.727621 151.568414 
L 230.884161 150.758847 
L 233.040702 149.928077 
L 235.197242 149.076103 
L 237.353782 148.202925 
L 239.510323 147.308544 
L 241.666863 146.392959 
L 243.823403 145.45617 
L 245.979944 144.498178 
L 248.136484 143.518981 
L 250.293025 142.518582 
L 252.449565 141.496978 
L 254.606105 140.454171 
L 256.762646 139.39016 
L 258.919186 138.304945 
L 261.075726 137.198527 
L 263.232267 136.070905 
L 265.388807 134.922079 
L 267.545348 133.752049 
L 269.701888 132.560816 
L 271.858428 131.348379 
L 274.014969 130.114739 
L 276.171509 128.859894 
L 278.32805 127.583846 
L 280.48459 126.286595 
L 282.64113 124.968139 
L 284.797671 123.62848 
L 286.954211 122.267617 
L 289.110751 120.885551 
L 291.267292 119.48228 
L 293.423832 118.057807 
L 295.580373 116.612129 
" clip-path="url(#p986ac0b6bc)" style="fill: none; stroke: #000080; stroke-width: 1.5; stroke-linecap: square"/>
   </g>
   <g id="line2d_28">
    <path d="M 82.082875 121.388051 
L 84.239415 121.296025 
L 86.395956 121.194877 
L 88.552496 121.084608 
L 90.709036 120.965216 
L 92.865577 120.836703 
L 95.022117 120.699068 
L 97.178658 120.552311 
L 99.335198 120.396432 
L 101.491738 120.231432 
L 103.648279 120.057309 
L 105.804819 119.874065 
L 107.961359 119.681699 
L 110.1179 119.480211 
L 112.27444 119.269601 
L 114.430981 119.049869 
L 116.587521 118.821015 
L 118.744061 118.58304 
L 120.900602 118.335942 
L 123.057142 118.079723 
L 125.213682 117.814382 
L 127.370223 117.539919 
L 129.526763 117.256334 
L 131.683304 116.963628 
L 133.839844 116.661799 
L 135.996384 116.350849 
L 138.152925 116.030777 
L 140.309465 115.701583 
L 142.466006 115.363267 
L 144.622546 115.015829 
L 146.779086 114.659269 
L 148.935627 114.293588 
L 151.092167 113.918784 
L 153.248707 113.534859 
L 155.405248 113.141812 
L 157.561788 112.739643 
L 159.718329 112.328352 
L 161.874869 111.90794 
L 164.031409 111.478405 
L 166.18795 111.039749 
L 168.34449 110.591971 
L 170.50103 110.135071 
L 172.657571 109.669049 
L 174.814111 109.193905 
L 176.970652 108.709639 
L 179.127192 108.216252 
L 181.283732 107.713742 
L 183.440273 107.202111 
L 185.596813 106.681358 
L 187.753354 106.151483 
L 189.909894 105.612486 
L 192.066434 105.064368 
L 194.222975 104.507127 
L 196.379515 103.940765 
L 198.536055 103.36528 
L 200.692596 102.780674 
L 202.849136 102.186946 
L 205.005677 101.584097 
L 207.162217 100.972125 
L 209.318757 100.351031 
L 211.475298 99.720816 
L 213.631838 99.081479 
L 215.788378 98.43302 
L 217.944919 97.775439 
L 220.101459 97.108736 
L 222.258 96.432911 
L 224.41454 95.747965 
L 226.57108 95.053896 
L 228.727621 94.350706 
L 230.884161 93.638394 
L 233.040702 92.91696 
L 235.197242 92.186404 
L 237.353782 91.446727 
L 239.510323 90.697927 
L 241.666863 89.940006 
L 243.823403 89.172962 
L 245.979944 88.396797 
L 248.136484 87.61151 
L 250.293025 86.817102 
L 252.449565 86.013571 
L 254.606105 85.200918 
L 256.762646 84.379144 
L 258.919186 83.548248 
L 261.075726 82.70823 
L 263.232267 81.85909 
L 265.388807 81.000828 
L 267.545348 80.133444 
L 269.701888 79.256939 
L 271.858428 78.371311 
L 274.014969 77.476562 
L 276.171509 76.572691 
L 278.32805 75.659698 
L 280.48459 74.737583 
L 282.64113 73.806346 
L 284.797671 72.865988 
L 286.954211 71.916508 
L 289.110751 70.957905 
L 291.267292 69.990181 
L 293.423832 69.013335 
L 295.580373 68.027367 
" clip-path="url(#p986ac0b6bc)" style="fill: none; stroke: #0080ff; stroke-width: 1.5; stroke-linecap: square"/>
   </g>
   <g id="line2d_29">
    <path d="M 82.082875 91.114496 
L 84.239415 90.563333 
L 86.395956 90.011978 
L 88.552496 89.46043 
L 90.709036 88.908691 
L 92.865577 88.356761 
L 95.022117 87.804638 
L 97.178658 87.252323 
L 99.335198 86.699817 
L 101.491738 86.147119 
L 103.648279 85.594229 
L 105.804819 85.041147 
L 107.961359 84.487873 
L 110.1179 83.934407 
L 112.27444 83.380749 
L 114.430981 82.8269 
L 116.587521 82.272859 
L 118.744061 81.718626 
L 120.900602 81.164201 
L 123.057142 80.609584 
L 125.213682 80.054775 
L 127.370223 79.499775 
L 129.526763 78.944582 
L 131.683304 78.389198 
L 133.839844 77.833622 
L 135.996384 77.277854 
L 138.152925 76.721894 
L 140.309465 76.165742 
L 142.466006 75.609399 
L 144.622546 75.052863 
L 146.779086 74.496136 
L 148.935627 73.939217 
L 151.092167 73.382106 
L 153.248707 72.824803 
L 155.405248 72.267308 
L 157.561788 71.709622 
L 159.718329 71.151743 
L 161.874869 70.593673 
L 164.031409 70.035411 
L 166.18795 69.476957 
L 168.34449 68.918311 
L 170.50103 68.359473 
L 172.657571 67.800444 
L 174.814111 67.241222 
L 176.970652 66.681809 
L 179.127192 66.122204 
L 181.283732 65.562407 
L 183.440273 65.002418 
L 185.596813 64.442237 
L 187.753354 63.881865 
L 189.909894 63.3213 
L 192.066434 62.760544 
L 194.222975 62.199596 
L 196.379515 61.638456 
L 198.536055 61.077124 
L 200.692596 60.515601 
L 202.849136 59.953885 
L 205.005677 59.391978 
L 207.162217 58.829878 
L 209.318757 58.267587 
L 211.475298 57.705104 
L 213.631838 57.142429 
L 215.788378 56.579563 
L 217.944919 56.016504 
L 220.101459 55.453254 
L 222.258 54.889811 
L 224.41454 54.326177 
L 226.57108 53.762351 
L 228.727621 53.198333 
L 230.884161 52.634124 
L 233.040702 52.069722 
L 235.197242 51.505129 
L 237.353782 50.940343 
L 239.510323 50.375366 
L 241.666863 49.810197 
L 243.823403 49.244837 
L 245.979944 48.679284 
L 248.136484 48.113539 
L 250.293025 47.547603 
L 252.449565 46.981475 
L 254.606105 46.415154 
L 256.762646 45.848642 
L 258.919186 45.281939 
L 261.075726 44.715043 
L 263.232267 44.147955 
L 265.388807 43.580676 
L 267.545348 43.013205 
L 269.701888 42.445541 
L 271.858428 41.877687 
L 274.014969 41.30964 
L 276.171509 40.741401 
L 278.32805 40.17297 
L 280.48459 39.604348 
L 282.64113 39.035534 
L 284.797671 38.466528 
L 286.954211 37.89733 
L 289.110751 37.32794 
L 291.267292 36.758358 
L 293.423832 36.188584 
L 295.580373 35.618619 
" clip-path="url(#p986ac0b6bc)" style="fill: none; stroke: #7dff7a; stroke-width: 1.5; stroke-linecap: square"/>
   </g>
   <g id="line2d_30">
    <path d="M 82.082875 66.054392 
L 84.239415 65.309264 
L 86.395956 64.569723 
L 88.552496 63.835768 
L 90.709036 63.107399 
L 92.865577 62.384616 
L 95.022117 61.66742 
L 97.178658 60.95581 
L 99.335198 60.249786 
L 101.491738 59.549349 
L 103.648279 58.854498 
L 105.804819 58.165233 
L 107.961359 57.481555 
L 110.1179 56.803463 
L 112.27444 56.130957 
L 114.430981 55.464037 
L 116.587521 54.802704 
L 118.744061 54.146957 
L 120.900602 53.496796 
L 123.057142 52.852222 
L 125.213682 52.213234 
L 127.370223 51.579832 
L 129.526763 50.952017 
L 131.683304 50.329788 
L 133.839844 49.713145 
L 135.996384 49.102088 
L 138.152925 48.496618 
L 140.309465 47.896734 
L 142.466006 47.302437 
L 144.622546 46.713725 
L 146.779086 46.1306 
L 148.935627 45.553061 
L 151.092167 44.981109 
L 153.248707 44.414743 
L 155.405248 43.853963 
L 157.561788 43.298769 
L 159.718329 42.749162 
L 161.874869 42.205141 
L 164.031409 41.666706 
L 166.18795 41.133858 
L 168.34449 40.606596 
L 170.50103 40.08492 
L 172.657571 39.568831 
L 174.814111 39.058328 
L 176.970652 38.553411 
L 179.127192 38.05408 
L 181.283732 37.560336 
L 183.440273 37.072178 
L 185.596813 36.589606 
L 187.753354 36.112621 
L 189.909894 35.641222 
L 192.066434 35.175409 
L 194.222975 34.715183 
L 196.379515 34.260542 
L 198.536055 33.811489 
L 200.692596 33.368021 
L 202.849136 32.93014 
L 205.005677 32.497845 
L 207.162217 32.071136 
L 209.318757 31.650014 
L 211.475298 31.234478 
L 213.631838 30.824528 
L 215.788378 30.420164 
L 217.944919 30.021387 
L 220.101459 29.628196 
L 222.258 29.240592 
L 224.41454 28.858573 
L 226.57108 28.482141 
L 228.727621 28.111296 
L 230.884161 27.746036 
L 233.040702 27.386363 
L 235.197242 27.032276 
L 237.353782 26.683776 
L 239.510323 26.340862 
L 241.666863 26.003534 
L 243.823403 25.671792 
L 245.979944 25.345637 
L 248.136484 25.025068 
L 250.293025 24.710085 
L 252.449565 24.400689 
L 254.606105 24.096879 
L 256.762646 23.798655 
L 258.919186 23.506018 
L 261.075726 23.218966 
L 263.232267 22.937501 
L 265.388807 22.661623 
L 267.545348 22.391331 
L 269.701888 22.126625 
L 271.858428 21.867505 
L 274.014969 21.613971 
L 276.171509 21.366024 
L 278.32805 21.123664 
L 280.48459 20.886889 
L 282.64113 20.655701 
L 284.797671 20.430099 
L 286.954211 20.210083 
L 289.110751 19.995654 
L 291.267292 19.786811 
L 293.423832 19.583554 
L 295.580373 19.385884 
" clip-path="url(#p986ac0b6bc)" style="fill: none; stroke: #ff9400; stroke-width: 1.5; stroke-linecap: square"/>
   </g>
   <g id="line2d_31">
    <path d="M 82.082875 46.207738 
L 84.239415 45.533819 
L 86.395956 44.868113 
L 88.552496 44.210619 
L 90.709036 43.561338 
L 92.865577 42.92027 
L 95.022117 42.287414 
L 97.178658 41.662771 
L 99.335198 41.046341 
L 101.491738 40.438123 
L 103.648279 39.838118 
L 105.804819 39.246325 
L 107.961359 38.662745 
L 110.1179 38.087378 
L 112.27444 37.520223 
L 114.430981 36.961281 
L 116.587521 36.410551 
L 118.744061 35.868034 
L 120.900602 35.33373 
L 123.057142 34.807638 
L 125.213682 34.289759 
L 127.370223 33.780093 
L 129.526763 33.278639 
L 131.683304 32.785397 
L 133.839844 32.300369 
L 135.996384 31.823553 
L 138.152925 31.354949 
L 140.309465 30.894558 
L 142.466006 30.44238 
L 144.622546 29.998415 
L 146.779086 29.562662 
L 148.935627 29.135121 
L 151.092167 28.715794 
L 153.248707 28.304678 
L 155.405248 27.901776 
L 157.561788 27.507086 
L 159.718329 27.120609 
L 161.874869 26.742344 
L 164.031409 26.372292 
L 166.18795 26.010452 
L 168.34449 25.656825 
L 170.50103 25.311411 
L 172.657571 24.974209 
L 174.814111 24.64522 
L 176.970652 24.324444 
L 179.127192 24.01188 
L 181.283732 23.707529 
L 183.440273 23.41139 
L 185.596813 23.123464 
L 187.753354 22.843751 
L 189.909894 22.57225 
L 192.066434 22.308962 
L 194.222975 22.053886 
L 196.379515 21.807024 
L 198.536055 21.568373 
L 200.692596 21.337936 
L 202.849136 21.11571 
L 205.005677 20.901698 
L 207.162217 20.695898 
L 209.318757 20.498311 
L 211.475298 20.308936 
L 213.631838 20.127774 
L 215.788378 19.954825 
L 217.944919 19.790088 
L 220.101459 19.633564 
L 222.258 19.485252 
L 224.41454 19.345153 
L 226.57108 19.213267 
L 228.727621 19.089593 
L 230.884161 18.974132 
L 233.040702 18.866883 
L 235.197242 18.767847 
L 237.353782 18.677024 
L 239.510323 18.594413 
L 241.666863 18.520015 
L 243.823403 18.45383 
L 245.979944 18.395857 
L 248.136484 18.346097 
L 250.293025 18.304549 
L 252.449565 18.271214 
L 254.606105 18.246092 
L 256.762646 18.229182 
L 258.919186 18.220485 
L 261.075726 18.22 
L 263.232267 18.227728 
L 265.388807 18.243669 
L 267.545348 18.267822 
L 269.701888 18.300188 
L 271.858428 18.340766 
L 274.014969 18.389557 
L 276.171509 18.446561 
L 278.32805 18.511777 
L 280.48459 18.585206 
L 282.64113 18.666848 
L 284.797671 18.756702 
L 286.954211 18.854769 
L 289.110751 18.961048 
L 291.267292 19.07554 
L 293.423832 19.198245 
L 295.580373 19.329162 
" clip-path="url(#p986ac0b6bc)" style="fill: none; stroke: #800000; stroke-width: 1.5; stroke-linecap: square"/>
   </g>
   <g id="patch_3">
    <path d="M 71.408 174.04 
L 71.408 10.8 
" style="fill: none; stroke: #000000; stroke-width: 0.8; stroke-linejoin: miter; stroke-linecap: square"/>
   </g>
   <g id="patch_4">
    <path d="M 306.255247 174.04 
L 306.255247 10.8 
" style="fill: none; stroke: #000000; stroke-width: 0.8; stroke-linejoin: miter; stroke-linecap: square"/>
   </g>
   <g id="patch_5">
    <path d="M 71.408 174.04 
L 306.255247 174.04 
" style="fill: none; stroke: #000000; stroke-width: 0.8; stroke-linejoin: miter; stroke-linecap: square"/>
   </g>
   <g id="patch_6">
    <path d="M 71.408 10.8 
L 306.255247 10.8 
" style="fill: none; stroke: #000000; stroke-width: 0.8; stroke-linejoin: miter; stroke-linecap: square"/>
   </g>
   <g id="legend_1">
    <g id="patch_7">
     <path d="M 315.255247 162.878 
L 420.455247 162.878 
Q 422.455247 162.878 422.455247 160.878 
L 422.455247 88.385812 
Q 422.455247 86.385812 420.455247 86.385812 
L 315.255247 86.385812 
Q 313.255247 86.385812 313.255247 88.385812 
L 313.255247 160.878 
Q 313.255247 162.878 315.255247 162.878 
z
" style="fill: #4d4d4d; opacity: 0.5; stroke: #4d4d4d; stroke-linejoin: miter"/>
    </g>
    <g id="patch_8">
     <path d="M 313.255247 160.878 
L 418.455247 160.878 
Q 420.455247 160.878 420.455247 158.878 
L 420.455247 86.385812 
Q 420.455247 84.385812 418.455247 84.385812 
L 313.255247 84.385812 
Q 311.255247 84.385812 311.255247 86.385812 
L 311.255247 158.878 
Q 311.255247 160.878 313.255247 160.878 
z
" style="fill: #ffffff; stroke: #cccccc; stroke-linejoin: miter"/>
    </g>
    <g id="line2d_32">
     <path d="M 315.255247 92.48425 
L 325.255247 92.48425 
L 335.255247 92.48425 
" style="fill: none; stroke: #000080; stroke-width: 1.5; stroke-linecap: square"/>
    </g>
    <g id="text_16">
     <!-- $\delta_e = 0$, $J = 1.60$ -->
     <g transform="translate(343.255247 95.98425) scale(0.1 -0.1)">
      <defs>
       <path id="DejaVuSans-3d" d="M 678 2906 
L 4684 2906 
L 4684 2381 
L 678 2381 
L 678 2906 
z
M 678 1631 
L 4684 1631 
L 4684 1100 
L 678 1100 
L 678 1631 
z
" transform="scale(0.015625)"/>
       <path id="DejaVuSans-2c" d="M 750 794 
L 1409 794 
L 1409 256 
L 897 -744 
L 494 -744 
L 750 256 
L 750 794 
z
" transform="scale(0.015625)"/>
       <path id="DejaVuSans-Oblique-4a" d="M 1069 4666 
L 1703 4666 
L 856 325 
Q 691 -522 298 -901 
Q -94 -1281 -800 -1281 
L -1050 -1281 
L -947 -750 
L -750 -750 
Q -328 -750 -109 -509 
Q 109 -269 225 325 
L 1069 4666 
z
" transform="scale(0.015625)"/>
      </defs>
      <use xlink:href="#DejaVuSans-Oblique-3b4" transform="translate(0 0.78125)"/>
      <use xlink:href="#DejaVuSans-Oblique-65" transform="translate(61.181641 -15.625) scale(0.7)"/>
      <use xlink:href="#DejaVuSans-3d" transform="translate(126.464844 0.78125)"/>
      <use xlink:href="#DejaVuSans-30" transform="translate(229.736328 0.78125)"/>
      <use xlink:href="#DejaVuSans-2c" transform="translate(293.359375 0.78125)"/>
      <use xlink:href="#DejaVuSans-20" transform="translate(325.146484 0.78125)"/>
      <use xlink:href="#DejaVuSans-Oblique-4a" transform="translate(356.933594 0.78125)"/>
      <use xlink:href="#DejaVuSans-3d" transform="translate(405.908203 0.78125)"/>
      <use xlink:href="#DejaVuSans-31" transform="translate(509.179688 0.78125)"/>
      <use xlink:href="#DejaVuSans-2e" transform="translate(572.802734 0.78125)"/>
      <use xlink:href="#DejaVuSans-36" transform="translate(604.589844 0.78125)"/>
      <use xlink:href="#DejaVuSans-30" transform="translate(668.212891 0.78125)"/>
     </g>
    </g>
    <g id="line2d_33">
     <path d="M 315.255247 107.182688 
L 325.255247 107.182688 
L 335.255247 107.182688 
" style="fill: none; stroke: #0080ff; stroke-width: 1.5; stroke-linecap: square"/>
    </g>
    <g id="text_17">
     <!-- $\delta_e = 0$, $J = 1.80$ -->
     <g transform="translate(343.255247 110.682688) scale(0.1 -0.1)">
      <use xlink:href="#DejaVuSans-Oblique-3b4" transform="translate(0 0.78125)"/>
      <use xlink:href="#DejaVuSans-Oblique-65" transform="translate(61.181641 -15.625) scale(0.7)"/>
      <use xlink:href="#DejaVuSans-3d" transform="translate(126.464844 0.78125)"/>
      <use xlink:href="#DejaVuSans-30" transform="translate(229.736328 0.78125)"/>
      <use xlink:href="#DejaVuSans-2c" transform="translate(293.359375 0.78125)"/>
      <use xlink:href="#DejaVuSans-20" transform="translate(325.146484 0.78125)"/>
      <use xlink:href="#DejaVuSans-Oblique-4a" transform="translate(356.933594 0.78125)"/>
      <use xlink:href="#DejaVuSans-3d" transform="translate(405.908203 0.78125)"/>
      <use xlink:href="#DejaVuSans-31" transform="translate(509.179688 0.78125)"/>
      <use xlink:href="#DejaVuSans-2e" transform="translate(572.802734 0.78125)"/>
      <use xlink:href="#DejaVuSans-38" transform="translate(601.964844 0.78125)"/>
      <use xlink:href="#DejaVuSans-30" transform="translate(665.587891 0.78125)"/>
     </g>
    </g>
    <g id="line2d_34">
     <path d="M 315.255247 121.881125 
L 325.255247 121.881125 
L 335.255247 121.881125 
" style="fill: none; stroke: #7dff7a; stroke-width: 1.5; stroke-linecap: square"/>
    </g>
    <g id="text_18">
     <!-- $\delta_e = 0$, $J = 2.00$ -->
     <g transform="translate(343.255247 125.381125) scale(0.1 -0.1)">
      <use xlink:href="#DejaVuSans-Oblique-3b4" transform="translate(0 0.78125)"/>
      <use xlink:href="#DejaVuSans-Oblique-65" transform="translate(61.181641 -15.625) scale(0.7)"/>
      <use xlink:href="#DejaVuSans-3d" transform="translate(126.464844 0.78125)"/>
      <use xlink:href="#DejaVuSans-30" transform="translate(229.736328 0.78125)"/>
      <use xlink:href="#DejaVuSans-2c" transform="translate(293.359375 0.78125)"/>
      <use xlink:href="#DejaVuSans-20" transform="translate(325.146484 0.78125)"/>
      <use xlink:href="#DejaVuSans-Oblique-4a" transform="translate(356.933594 0.78125)"/>
      <use xlink:href="#DejaVuSans-3d" transform="translate(405.908203 0.78125)"/>
      <use xlink:href="#DejaVuSans-32" transform="translate(509.179688 0.78125)"/>
      <use xlink:href="#DejaVuSans-2e" transform="translate(572.802734 0.78125)"/>
      <use xlink:href="#DejaVuSans-30" transform="translate(604.589844 0.78125)"/>
      <use xlink:href="#DejaVuSans-30" transform="translate(668.212891 0.78125)"/>
     </g>
    </g>
    <g id="line2d_35">
     <path d="M 315.255247 136.579563 
L 325.255247 136.579563 
L 335.255247 136.579563 
" style="fill: none; stroke: #ff9400; stroke-width: 1.5; stroke-linecap: square"/>
    </g>
    <g id="text_19">
     <!-- $\delta_e = 0$, $J = 2.20$ -->
     <g transform="translate(343.255247 140.079563) scale(0.1 -0.1)">
      <use xlink:href="#DejaVuSans-Oblique-3b4" transform="translate(0 0.78125)"/>
      <use xlink:href="#DejaVuSans-Oblique-65" transform="translate(61.181641 -15.625) scale(0.7)"/>
      <use xlink:href="#DejaVuSans-3d" transform="translate(126.464844 0.78125)"/>
      <use xlink:href="#DejaVuSans-30" transform="translate(229.736328 0.78125)"/>
      <use xlink:href="#DejaVuSans-2c" transform="translate(293.359375 0.78125)"/>
      <use xlink:href="#DejaVuSans-20" transform="translate(325.146484 0.78125)"/>
      <use xlink:href="#DejaVuSans-Oblique-4a" transform="translate(356.933594 0.78125)"/>
      <use xlink:href="#DejaVuSans-3d" transform="translate(405.908203 0.78125)"/>
      <use xlink:href="#DejaVuSans-32" transform="translate(509.179688 0.78125)"/>
      <use xlink:href="#DejaVuSans-2e" transform="translate(572.802734 0.78125)"/>
      <use xlink:href="#DejaVuSans-32" transform="translate(599.089844 0.78125)"/>
      <use xlink:href="#DejaVuSans-30" transform="translate(662.712891 0.78125)"/>
     </g>
    </g>
    <g id="line2d_36">
     <path d="M 315.255247 151.278 
L 325.255247 151.278 
L 335.255247 151.278 
" style="fill: none; stroke: #800000; stroke-width: 1.5; stroke-linecap: square"/>
    </g>
    <g id="text_20">
     <!-- $\delta_e = 0$, $J = 2.40$ -->
     <g transform="translate(343.255247 154.778) scale(0.1 -0.1)">
      <use xlink:href="#DejaVuSans-Oblique-3b4" transform="translate(0 0.78125)"/>
      <use xlink:href="#DejaVuSans-Oblique-65" transform="translate(61.181641 -15.625) scale(0.7)"/>
      <use xlink:href="#DejaVuSans-3d" transform="translate(126.464844 0.78125)"/>
      <use xlink:href="#DejaVuSans-30" transform="translate(229.736328 0.78125)"/>
      <use xlink:href="#DejaVuSans-2c" transform="translate(293.359375 0.78125)"/>
      <use xlink:href="#DejaVuSans-20" transform="translate(325.146484 0.78125)"/>
      <use xlink:href="#DejaVuSans-Oblique-4a" transform="translate(356.933594 0.78125)"/>
      <use xlink:href="#DejaVuSans-3d" transform="translate(405.908203 0.78125)"/>
      <use xlink:href="#DejaVuSans-32" transform="translate(509.179688 0.78125)"/>
      <use xlink:href="#DejaVuSans-2e" transform="translate(572.802734 0.78125)"/>
      <use xlink:href="#DejaVuSans-34" transform="translate(604.589844 0.78125)"/>
      <use xlink:href="#DejaVuSans-30" transform="translate(668.212891 0.78125)"/>
     </g>
    </g>
   </g>
  </g>
 </g>
 <defs>
  <clipPath id="p986ac0b6bc">
   <rect x="71.408" y="10.8" width="234.847247" height="163.24"/>
  </clipPath>
 </defs>
</svg>
