<?xml version="1.0" encoding="utf-8" standalone="no"?>
<!DOCTYPE svg PUBLIC "-//W3C//DTD SVG 1.1//EN"
  "http://www.w3.org/Graphics/SVG/1.1/DTD/svg11.dtd">
<svg xmlns:xlink="http://www.w3.org/1999/xlink" width="288pt" height="216pt" viewBox="0 0 288 216" xmlns="http://www.w3.org/2000/svg" version="1.1">
 <metadata>
  <rdf:RDF xmlns:dc="http://purl.org/dc/elements/1.1/" xmlns:cc="http://creativecommons.org/ns#" xmlns:rdf="http://www.w3.org/1999/02/22-rdf-syntax-ns#">
   <cc:Work>
    <dc:type rdf:resource="http://purl.org/dc/dcmitype/StillImage"/>
    <dc:date>2025-03-26T12:44:09.015901</dc:date>
    <dc:format>image/svg+xml</dc:format>
    <dc:creator>
     <cc:Agent>
      <dc:title>Matplotlib v3.9.2, https://matplotlib.org/</dc:title>
     </cc:Agent>
    </dc:creator>
   </cc:Work>
  </rdf:RDF>
 </metadata>
 <defs>
  <style type="text/css">*{stroke-linejoin: round; stroke-linecap: butt}</style>
 </defs>
 <g id="figure_1">
  <g id="patch_1">
   <path d="M 0 216 
L 288 216 
L 288 0 
L 0 0 
z
" style="fill: #ffffff"/>
  </g>
  <g id="axes_1">
   <g id="patch_2">
    <path d="M 71.84 174.04 
L 277.2 174.04 
L 277.2 10.8 
L 71.84 10.8 
z
" style="fill: #ffffff"/>
   </g>
   <g id="matplotlib.axis_1">
    <g id="xtick_1">
     <g id="line2d_1">
      <path d="M 106.632397 174.04 
L 106.632397 10.8 
" clip-path="url(#p9bb8fe7cf0)" style="fill: none; stroke: #b0b0b0; stroke-width: 0.8; stroke-linecap: square"/>
     </g>
     <g id="line2d_2">
      <defs>
       <path id="m9c86026559" d="M 0 0 
L 0 3.5 
" style="stroke: #000000; stroke-width: 0.8"/>
      </defs>
      <g>
       <use xlink:href="#m9c86026559" x="106.632397" y="174.04" style="stroke: #000000; stroke-width: 0.8"/>
      </g>
     </g>
     <g id="text_1">
      <!-- −2.5 -->
      <g transform="translate(94.49099 188.638438) scale(0.1 -0.1)">
       <defs>
        <path id="DejaVuSans-2212" d="M 678 2272 
L 4684 2272 
L 4684 1741 
L 678 1741 
L 678 2272 
z
" transform="scale(0.015625)"/>
        <path id="DejaVuSans-32" d="M 1228 531 
L 3431 531 
L 3431 0 
L 469 0 
L 469 531 
Q 828 903 1448 1529 
Q 2069 2156 2228 2338 
Q 2531 2678 2651 2914 
Q 2772 3150 2772 3378 
Q 2772 3750 2511 3984 
Q 2250 4219 1831 4219 
Q 1534 4219 1204 4116 
Q 875 4013 500 3803 
L 500 4441 
Q 881 4594 1212 4672 
Q 1544 4750 1819 4750 
Q 2544 4750 2975 4387 
Q 3406 4025 3406 3419 
Q 3406 3131 3298 2873 
Q 3191 2616 2906 2266 
Q 2828 2175 2409 1742 
Q 1991 1309 1228 531 
z
" transform="scale(0.015625)"/>
        <path id="DejaVuSans-2e" d="M 684 794 
L 1344 794 
L 1344 0 
L 684 0 
L 684 794 
z
" transform="scale(0.015625)"/>
        <path id="DejaVuSans-35" d="M 691 4666 
L 3169 4666 
L 3169 4134 
L 1269 4134 
L 1269 2991 
Q 1406 3038 1543 3061 
Q 1681 3084 1819 3084 
Q 2600 3084 3056 2656 
Q 3513 2228 3513 1497 
Q 3513 744 3044 326 
Q 2575 -91 1722 -91 
Q 1428 -91 1123 -41 
Q 819 9 494 109 
L 494 744 
Q 775 591 1075 516 
Q 1375 441 1709 441 
Q 2250 441 2565 725 
Q 2881 1009 2881 1497 
Q 2881 1984 2565 2268 
Q 2250 2553 1709 2553 
Q 1456 2553 1204 2497 
Q 953 2441 691 2322 
L 691 4666 
z
" transform="scale(0.015625)"/>
       </defs>
       <use xlink:href="#DejaVuSans-2212"/>
       <use xlink:href="#DejaVuSans-32" x="83.789062"/>
       <use xlink:href="#DejaVuSans-2e" x="147.412109"/>
       <use xlink:href="#DejaVuSans-35" x="179.199219"/>
      </g>
     </g>
    </g>
    <g id="xtick_2">
     <g id="line2d_3">
      <path d="M 149.062149 174.04 
L 149.062149 10.8 
" clip-path="url(#p9bb8fe7cf0)" style="fill: none; stroke: #b0b0b0; stroke-width: 0.8; stroke-linecap: square"/>
     </g>
     <g id="line2d_4">
      <g>
       <use xlink:href="#m9c86026559" x="149.062149" y="174.04" style="stroke: #000000; stroke-width: 0.8"/>
      </g>
     </g>
     <g id="text_2">
      <!-- 0.0 -->
      <g transform="translate(141.110586 188.638438) scale(0.1 -0.1)">
       <defs>
        <path id="DejaVuSans-30" d="M 2034 4250 
Q 1547 4250 1301 3770 
Q 1056 3291 1056 2328 
Q 1056 1369 1301 889 
Q 1547 409 2034 409 
Q 2525 409 2770 889 
Q 3016 1369 3016 2328 
Q 3016 3291 2770 3770 
Q 2525 4250 2034 4250 
z
M 2034 4750 
Q 2819 4750 3233 4129 
Q 3647 3509 3647 2328 
Q 3647 1150 3233 529 
Q 2819 -91 2034 -91 
Q 1250 -91 836 529 
Q 422 1150 422 2328 
Q 422 3509 836 4129 
Q 1250 4750 2034 4750 
z
" transform="scale(0.015625)"/>
       </defs>
       <use xlink:href="#DejaVuSans-30"/>
       <use xlink:href="#DejaVuSans-2e" x="63.623047"/>
       <use xlink:href="#DejaVuSans-30" x="95.410156"/>
      </g>
     </g>
    </g>
    <g id="xtick_3">
     <g id="line2d_5">
      <path d="M 191.491901 174.04 
L 191.491901 10.8 
" clip-path="url(#p9bb8fe7cf0)" style="fill: none; stroke: #b0b0b0; stroke-width: 0.8; stroke-linecap: square"/>
     </g>
     <g id="line2d_6">
      <g>
       <use xlink:href="#m9c86026559" x="191.491901" y="174.04" style="stroke: #000000; stroke-width: 0.8"/>
      </g>
     </g>
     <g id="text_3">
      <!-- 2.5 -->
      <g transform="translate(183.540338 188.638438) scale(0.1 -0.1)">
       <use xlink:href="#DejaVuSans-32"/>
       <use xlink:href="#DejaVuSans-2e" x="63.623047"/>
       <use xlink:href="#DejaVuSans-35" x="95.410156"/>
      </g>
     </g>
    </g>
    <g id="xtick_4">
     <g id="line2d_7">
      <path d="M 233.921653 174.04 
L 233.921653 10.8 
" clip-path="url(#p9bb8fe7cf0)" style="fill: none; stroke: #b0b0b0; stroke-width: 0.8; stroke-linecap: square"/>
     </g>
     <g id="line2d_8">
      <g>
       <use xlink:href="#m9c86026559" x="233.921653" y="174.04" style="stroke: #000000; stroke-width: 0.8"/>
      </g>
     </g>
     <g id="text_4">
      <!-- 5.0 -->
      <g transform="translate(225.97009 188.638438) scale(0.1 -0.1)">
       <use xlink:href="#DejaVuSans-35"/>
       <use xlink:href="#DejaVuSans-2e" x="63.623047"/>
       <use xlink:href="#DejaVuSans-30" x="95.410156"/>
      </g>
     </g>
    </g>
    <g id="xtick_5">
     <g id="line2d_9">
      <path d="M 276.351405 174.04 
L 276.351405 10.8 
" clip-path="url(#p9bb8fe7cf0)" style="fill: none; stroke: #b0b0b0; stroke-width: 0.8; stroke-linecap: square"/>
     </g>
     <g id="line2d_10">
      <g>
       <use xlink:href="#m9c86026559" x="276.351405" y="174.04" style="stroke: #000000; stroke-width: 0.8"/>
      </g>
     </g>
     <g id="text_5">
      <!-- 7.5 -->
      <g transform="translate(268.399842 188.638438) scale(0.1 -0.1)">
       <defs>
        <path id="DejaVuSans-37" d="M 525 4666 
L 3525 4666 
L 3525 4397 
L 1831 0 
L 1172 0 
L 2766 4134 
L 525 4134 
L 525 4666 
z
" transform="scale(0.015625)"/>
       </defs>
       <use xlink:href="#DejaVuSans-37"/>
       <use xlink:href="#DejaVuSans-2e" x="63.623047"/>
       <use xlink:href="#DejaVuSans-35" x="95.410156"/>
      </g>
     </g>
    </g>
    <g id="text_6">
     <!-- $\alpha$ -->
     <g transform="translate(171.22 202.316563) scale(0.1 -0.1)">
      <defs>
       <path id="DejaVuSans-Oblique-3b1" d="M 2619 1628 
L 2622 2350 
Q 2625 3088 2069 3091 
Q 1653 3094 1394 2747 
Q 1069 2319 959 1747 
Q 825 1059 994 731 
Q 1169 397 1547 397 
Q 1966 397 2319 1063 
L 2619 1628 
z
M 2166 3578 
Q 3141 3594 3128 2584 
Q 3128 2584 3616 3500 
L 4128 3500 
L 3119 1603 
L 3109 919 
Q 3109 766 3194 638 
Q 3291 488 3391 488 
L 3669 488 
L 3575 0 
L 3228 0 
Q 2934 0 2722 263 
Q 2622 394 2619 669 
Q 2416 334 2066 50 
Q 1900 -81 1453 -78 
Q 722 -72 456 397 
Q 184 884 353 1747 
Q 534 2675 1009 3097 
Q 1544 3569 2166 3578 
z
" transform="scale(0.015625)"/>
      </defs>
      <use xlink:href="#DejaVuSans-Oblique-3b1" transform="translate(0 0.84375)"/>
     </g>
    </g>
   </g>
   <g id="matplotlib.axis_2">
    <g id="ytick_1">
     <g id="line2d_11">
      <path d="M 71.84 147.279365 
L 277.2 147.279365 
" clip-path="url(#p9bb8fe7cf0)" style="fill: none; stroke: #b0b0b0; stroke-width: 0.8; stroke-linecap: square"/>
     </g>
     <g id="line2d_12">
      <defs>
       <path id="mb7614645dc" d="M 0 0 
L -3.5 0 
" style="stroke: #000000; stroke-width: 0.8"/>
      </defs>
      <g>
       <use xlink:href="#mb7614645dc" x="71.84" y="147.279365" style="stroke: #000000; stroke-width: 0.8"/>
      </g>
     </g>
     <g id="text_7">
      <!-- −0.055 -->
      <g transform="translate(27.832188 151.078584) scale(0.1 -0.1)">
       <use xlink:href="#DejaVuSans-2212"/>
       <use xlink:href="#DejaVuSans-30" x="83.789062"/>
       <use xlink:href="#DejaVuSans-2e" x="147.412109"/>
       <use xlink:href="#DejaVuSans-30" x="179.199219"/>
       <use xlink:href="#DejaVuSans-35" x="242.822266"/>
       <use xlink:href="#DejaVuSans-35" x="306.445312"/>
      </g>
     </g>
    </g>
    <g id="ytick_2">
     <g id="line2d_13">
      <path d="M 71.84 111.256631 
L 277.2 111.256631 
" clip-path="url(#p9bb8fe7cf0)" style="fill: none; stroke: #b0b0b0; stroke-width: 0.8; stroke-linecap: square"/>
     </g>
     <g id="line2d_14">
      <g>
       <use xlink:href="#mb7614645dc" x="71.84" y="111.256631" style="stroke: #000000; stroke-width: 0.8"/>
      </g>
     </g>
     <g id="text_8">
      <!-- −0.050 -->
      <g transform="translate(27.832188 115.05585) scale(0.1 -0.1)">
       <use xlink:href="#DejaVuSans-2212"/>
       <use xlink:href="#DejaVuSans-30" x="83.789062"/>
       <use xlink:href="#DejaVuSans-2e" x="147.412109"/>
       <use xlink:href="#DejaVuSans-30" x="179.199219"/>
       <use xlink:href="#DejaVuSans-35" x="242.822266"/>
       <use xlink:href="#DejaVuSans-30" x="306.445312"/>
      </g>
     </g>
    </g>
    <g id="ytick_3">
     <g id="line2d_15">
      <path d="M 71.84 75.233898 
L 277.2 75.233898 
" clip-path="url(#p9bb8fe7cf0)" style="fill: none; stroke: #b0b0b0; stroke-width: 0.8; stroke-linecap: square"/>
     </g>
     <g id="line2d_16">
      <g>
       <use xlink:href="#mb7614645dc" x="71.84" y="75.233898" style="stroke: #000000; stroke-width: 0.8"/>
      </g>
     </g>
     <g id="text_9">
      <!-- −0.045 -->
      <g transform="translate(27.832188 79.033117) scale(0.1 -0.1)">
       <defs>
        <path id="DejaVuSans-34" d="M 2419 4116 
L 825 1625 
L 2419 1625 
L 2419 4116 
z
M 2253 4666 
L 3047 4666 
L 3047 1625 
L 3713 1625 
L 3713 1100 
L 3047 1100 
L 3047 0 
L 2419 0 
L 2419 1100 
L 313 1100 
L 313 1709 
L 2253 4666 
z
" transform="scale(0.015625)"/>
       </defs>
       <use xlink:href="#DejaVuSans-2212"/>
       <use xlink:href="#DejaVuSans-30" x="83.789062"/>
       <use xlink:href="#DejaVuSans-2e" x="147.412109"/>
       <use xlink:href="#DejaVuSans-30" x="179.199219"/>
       <use xlink:href="#DejaVuSans-34" x="242.822266"/>
       <use xlink:href="#DejaVuSans-35" x="306.445312"/>
      </g>
     </g>
    </g>
    <g id="ytick_4">
     <g id="line2d_17">
      <path d="M 71.84 39.211164 
L 277.2 39.211164 
" clip-path="url(#p9bb8fe7cf0)" style="fill: none; stroke: #b0b0b0; stroke-width: 0.8; stroke-linecap: square"/>
     </g>
     <g id="line2d_18">
      <g>
       <use xlink:href="#mb7614645dc" x="71.84" y="39.211164" style="stroke: #000000; stroke-width: 0.8"/>
      </g>
     </g>
     <g id="text_10">
      <!-- −0.040 -->
      <g transform="translate(27.832188 43.010383) scale(0.1 -0.1)">
       <use xlink:href="#DejaVuSans-2212"/>
       <use xlink:href="#DejaVuSans-30" x="83.789062"/>
       <use xlink:href="#DejaVuSans-2e" x="147.412109"/>
       <use xlink:href="#DejaVuSans-30" x="179.199219"/>
       <use xlink:href="#DejaVuSans-34" x="242.822266"/>
       <use xlink:href="#DejaVuSans-30" x="306.445312"/>
      </g>
     </g>
    </g>
    <g id="text_11">
     <!-- $dCMpitch/dalpha$ -->
     <g transform="translate(21.732188 134.57) rotate(-90) scale(0.1 -0.1)">
      <defs>
       <path id="DejaVuSans-Oblique-64" d="M 2675 525 
Q 2444 222 2128 65 
Q 1813 -91 1428 -91 
Q 903 -91 598 267 
Q 294 625 294 1247 
Q 294 1766 478 2236 
Q 663 2706 1013 3078 
Q 1244 3325 1534 3454 
Q 1825 3584 2144 3584 
Q 2481 3584 2739 3421 
Q 2997 3259 3138 2956 
L 3513 4863 
L 4091 4863 
L 3144 0 
L 2566 0 
L 2675 525 
z
M 891 1350 
Q 891 897 1095 644 
Q 1300 391 1663 391 
Q 1931 391 2161 520 
Q 2391 650 2566 903 
Q 2750 1166 2856 1509 
Q 2963 1853 2963 2188 
Q 2963 2622 2758 2865 
Q 2553 3109 2194 3109 
Q 1922 3109 1687 2981 
Q 1453 2853 1288 2613 
Q 1106 2353 998 2009 
Q 891 1666 891 1350 
z
" transform="scale(0.015625)"/>
       <path id="DejaVuSans-Oblique-43" d="M 4447 4306 
L 4319 3641 
Q 4019 3944 3683 4091 
Q 3347 4238 2956 4238 
Q 2422 4238 2017 3981 
Q 1613 3725 1319 3200 
Q 1131 2863 1032 2486 
Q 934 2109 934 1728 
Q 934 1091 1264 756 
Q 1594 422 2222 422 
Q 2656 422 3056 561 
Q 3456 700 3834 978 
L 3688 231 
Q 3316 72 2936 -9 
Q 2556 -91 2175 -91 
Q 1278 -91 773 396 
Q 269 884 269 1753 
Q 269 2309 461 2846 
Q 653 3384 1013 3828 
Q 1394 4300 1883 4525 
Q 2372 4750 3022 4750 
Q 3422 4750 3780 4639 
Q 4138 4528 4447 4306 
z
" transform="scale(0.015625)"/>
       <path id="DejaVuSans-Oblique-4d" d="M 1081 4666 
L 2028 4666 
L 2572 1522 
L 4378 4666 
L 5350 4666 
L 4441 0 
L 3828 0 
L 4622 4091 
L 2791 897 
L 2175 897 
L 1581 4103 
L 788 0 
L 172 0 
L 1081 4666 
z
" transform="scale(0.015625)"/>
       <path id="DejaVuSans-Oblique-70" d="M 3175 2156 
Q 3175 2616 2975 2859 
Q 2775 3103 2400 3103 
Q 2144 3103 1911 2972 
Q 1678 2841 1497 2591 
Q 1319 2344 1212 1994 
Q 1106 1644 1106 1300 
Q 1106 863 1306 627 
Q 1506 391 1875 391 
Q 2147 391 2380 519 
Q 2613 647 2778 891 
Q 2956 1147 3065 1494 
Q 3175 1841 3175 2156 
z
M 1394 2969 
Q 1625 3272 1939 3428 
Q 2253 3584 2638 3584 
Q 3175 3584 3472 3232 
Q 3769 2881 3769 2247 
Q 3769 1728 3584 1258 
Q 3400 788 3053 416 
Q 2822 169 2531 39 
Q 2241 -91 1919 -91 
Q 1547 -91 1294 64 
Q 1041 219 916 525 
L 556 -1331 
L -19 -1331 
L 922 3500 
L 1497 3500 
L 1394 2969 
z
" transform="scale(0.015625)"/>
       <path id="DejaVuSans-Oblique-69" d="M 1172 4863 
L 1747 4863 
L 1606 4134 
L 1031 4134 
L 1172 4863 
z
M 909 3500 
L 1484 3500 
L 800 0 
L 225 0 
L 909 3500 
z
" transform="scale(0.015625)"/>
       <path id="DejaVuSans-Oblique-74" d="M 2706 3500 
L 2619 3053 
L 1472 3053 
L 1100 1153 
Q 1081 1047 1072 975 
Q 1063 903 1063 863 
Q 1063 663 1183 572 
Q 1303 481 1569 481 
L 2150 481 
L 2053 0 
L 1503 0 
Q 991 0 739 200 
Q 488 400 488 806 
Q 488 878 497 964 
Q 506 1050 525 1153 
L 897 3053 
L 409 3053 
L 500 3500 
L 978 3500 
L 1172 4494 
L 1747 4494 
L 1556 3500 
L 2706 3500 
z
" transform="scale(0.015625)"/>
       <path id="DejaVuSans-Oblique-63" d="M 3431 3366 
L 3316 2797 
Q 3109 2947 2876 3022 
Q 2644 3097 2394 3097 
Q 2119 3097 1870 3000 
Q 1622 2903 1453 2725 
Q 1184 2453 1037 2087 
Q 891 1722 891 1331 
Q 891 859 1127 628 
Q 1363 397 1844 397 
Q 2081 397 2348 469 
Q 2616 541 2906 684 
L 2797 116 
Q 2547 13 2283 -39 
Q 2019 -91 1741 -91 
Q 1044 -91 669 257 
Q 294 606 294 1253 
Q 294 1797 489 2255 
Q 684 2713 1069 3078 
Q 1331 3328 1684 3456 
Q 2038 3584 2456 3584 
Q 2700 3584 2940 3529 
Q 3181 3475 3431 3366 
z
" transform="scale(0.015625)"/>
       <path id="DejaVuSans-Oblique-68" d="M 3566 2113 
L 3156 0 
L 2578 0 
L 2988 2091 
Q 3016 2238 3031 2350 
Q 3047 2463 3047 2528 
Q 3047 2791 2881 2937 
Q 2716 3084 2419 3084 
Q 1956 3084 1617 2771 
Q 1278 2459 1178 1941 
L 800 0 
L 225 0 
L 1172 4863 
L 1747 4863 
L 1375 2950 
Q 1594 3244 1934 3414 
Q 2275 3584 2650 3584 
Q 3113 3584 3367 3334 
Q 3622 3084 3622 2631 
Q 3622 2519 3608 2391 
Q 3594 2263 3566 2113 
z
" transform="scale(0.015625)"/>
       <path id="DejaVuSans-2f" d="M 1625 4666 
L 2156 4666 
L 531 -594 
L 0 -594 
L 1625 4666 
z
" transform="scale(0.015625)"/>
       <path id="DejaVuSans-Oblique-61" d="M 3438 1997 
L 3047 0 
L 2472 0 
L 2578 531 
Q 2325 219 2001 64 
Q 1678 -91 1281 -91 
Q 834 -91 548 182 
Q 263 456 263 884 
Q 263 1497 752 1853 
Q 1241 2209 2100 2209 
L 2900 2209 
L 2931 2363 
Q 2938 2388 2941 2417 
Q 2944 2447 2944 2509 
Q 2944 2788 2717 2942 
Q 2491 3097 2081 3097 
Q 1800 3097 1504 3025 
Q 1209 2953 897 2809 
L 997 3341 
Q 1322 3463 1633 3523 
Q 1944 3584 2234 3584 
Q 2853 3584 3176 3315 
Q 3500 3047 3500 2534 
Q 3500 2431 3484 2292 
Q 3469 2153 3438 1997 
z
M 2816 1759 
L 2241 1759 
Q 1534 1759 1195 1570 
Q 856 1381 856 984 
Q 856 709 1029 553 
Q 1203 397 1509 397 
Q 1978 397 2328 733 
Q 2678 1069 2791 1631 
L 2816 1759 
z
" transform="scale(0.015625)"/>
       <path id="DejaVuSans-Oblique-6c" d="M 1172 4863 
L 1747 4863 
L 800 0 
L 225 0 
L 1172 4863 
z
" transform="scale(0.015625)"/>
      </defs>
      <use xlink:href="#DejaVuSans-Oblique-64" transform="translate(0 0.015625)"/>
      <use xlink:href="#DejaVuSans-Oblique-43" transform="translate(63.476562 0.015625)"/>
      <use xlink:href="#DejaVuSans-Oblique-4d" transform="translate(133.300781 0.015625)"/>
      <use xlink:href="#DejaVuSans-Oblique-70" transform="translate(219.580078 0.015625)"/>
      <use xlink:href="#DejaVuSans-Oblique-69" transform="translate(283.056641 0.015625)"/>
      <use xlink:href="#DejaVuSans-Oblique-74" transform="translate(310.839844 0.015625)"/>
      <use xlink:href="#DejaVuSans-Oblique-63" transform="translate(350.048828 0.015625)"/>
      <use xlink:href="#DejaVuSans-Oblique-68" transform="translate(405.029297 0.015625)"/>
      <use xlink:href="#DejaVuSans-2f" transform="translate(468.408203 0.015625)"/>
      <use xlink:href="#DejaVuSans-Oblique-64" transform="translate(502.099609 0.015625)"/>
      <use xlink:href="#DejaVuSans-Oblique-61" transform="translate(565.576172 0.015625)"/>
      <use xlink:href="#DejaVuSans-Oblique-6c" transform="translate(626.855469 0.015625)"/>
      <use xlink:href="#DejaVuSans-Oblique-70" transform="translate(654.638672 0.015625)"/>
      <use xlink:href="#DejaVuSans-Oblique-68" transform="translate(718.115234 0.015625)"/>
      <use xlink:href="#DejaVuSans-Oblique-61" transform="translate(781.494141 0.015625)"/>
     </g>
    </g>
   </g>
   <g id="line2d_19">
    <path d="M 81.174545 94.578195 
L 83.060312 91.673262 
L 84.946079 88.842465 
L 86.831846 86.085802 
L 88.717612 83.403275 
L 90.603379 80.794884 
L 92.489146 78.260627 
L 94.374913 75.800506 
L 96.26068 73.41452 
L 98.146446 71.102669 
L 100.032213 68.864954 
L 101.91798 66.701373 
L 103.803747 64.611929 
L 105.689513 62.596619 
L 107.57528 60.655444 
L 109.461047 58.788405 
L 111.346814 56.995501 
L 113.23258 55.276733 
L 115.118347 53.632099 
L 117.004114 52.061601 
L 118.889881 50.565238 
L 120.775647 49.143011 
L 122.661414 47.794919 
L 124.547181 46.520962 
L 126.432948 45.32114 
L 128.318714 44.195453 
L 130.204481 43.143902 
L 132.090248 42.166486 
L 133.976015 41.263205 
L 135.861781 40.43406 
L 137.747548 39.679049 
L 139.633315 38.998174 
L 141.519082 38.391435 
L 143.404848 37.85883 
L 145.290615 37.400361 
L 147.176382 37.016027 
L 149.062149 36.705829 
L 150.947916 36.469765 
L 152.833682 36.307837 
L 154.719449 36.220044 
L 156.605216 36.206386 
L 158.490983 36.266864 
L 160.376749 36.401477 
L 162.262516 36.610225 
L 164.148283 36.893109 
L 166.03405 37.250127 
L 167.919816 37.681281 
L 169.805583 38.18657 
L 171.69135 38.765995 
L 173.577117 39.419555 
L 175.462883 40.14725 
L 177.34865 40.94908 
L 179.234417 41.825045 
L 181.120184 42.775146 
L 183.00595 43.799382 
L 184.891717 44.897754 
L 186.777484 46.07026 
L 188.663251 47.316902 
L 190.549017 48.637679 
L 192.434784 50.032591 
L 194.320551 51.501639 
L 196.206318 53.044822 
L 198.092084 54.66214 
L 199.977851 56.353593 
L 201.863618 58.119182 
L 203.749385 59.958906 
L 205.635152 61.872765 
L 207.520918 63.86076 
L 209.406685 65.922889 
L 211.292452 68.059154 
L 213.178219 70.269555 
L 215.063985 72.55409 
L 216.949752 74.912761 
L 218.835519 77.345567 
L 220.721286 79.852508 
L 222.607052 82.433585 
L 224.492819 85.088796 
L 226.378586 87.818144 
L 228.264353 90.621626 
L 230.150119 93.499243 
L 232.035886 96.450996 
L 233.921653 99.476884 
L 235.80742 102.576908 
L 237.693186 105.751066 
L 239.578953 108.99936 
L 241.46472 112.321789 
L 243.350487 115.718354 
L 245.236253 119.189054 
L 247.12202 122.733888 
L 249.007787 126.352859 
L 250.893554 130.045964 
L 252.77932 133.813205 
L 254.665087 137.654581 
L 256.550854 141.570092 
L 258.436621 145.559739 
L 260.322388 149.62352 
L 262.208154 153.761437 
L 264.093921 157.97349 
L 265.979688 162.259677 
L 267.865455 166.62 
" clip-path="url(#p9bb8fe7cf0)" style="fill: none; stroke: #440154; stroke-width: 1.5; stroke-linecap: square"/>
   </g>
   <g id="line2d_20">
    <path d="M 81.174545 111.825734 
L 83.060312 108.364684 
L 84.946079 104.97777 
L 86.831846 101.664991 
L 88.717612 98.426347 
L 90.603379 95.261839 
L 92.489146 92.171466 
L 94.374913 89.155228 
L 96.26068 86.213125 
L 98.146446 83.345158 
L 100.032213 80.551326 
L 101.91798 77.831629 
L 103.803747 75.186067 
L 105.689513 72.614641 
L 107.57528 70.11735 
L 109.461047 67.694194 
L 111.346814 65.345174 
L 113.23258 63.070288 
L 115.118347 60.869538 
L 117.004114 58.742924 
L 118.889881 56.690444 
L 120.775647 54.7121 
L 122.661414 52.807891 
L 124.547181 50.977817 
L 126.432948 49.221879 
L 128.318714 47.540076 
L 130.204481 45.932408 
L 132.090248 44.398875 
L 133.976015 42.939478 
L 135.861781 41.554216 
L 137.747548 40.243089 
L 139.633315 39.006097 
L 141.519082 37.843241 
L 143.404848 36.75452 
L 145.290615 35.739934 
L 147.176382 34.799483 
L 149.062149 33.933168 
L 150.947916 33.140988 
L 152.833682 32.422943 
L 154.719449 31.779034 
L 156.605216 31.209259 
L 158.490983 30.71362 
L 160.376749 30.292117 
L 162.262516 29.944748 
L 164.148283 29.671515 
L 166.03405 29.472417 
L 167.919816 29.347454 
L 169.805583 29.296627 
L 171.69135 29.319935 
L 173.577117 29.417378 
L 175.462883 29.588956 
L 177.34865 29.83467 
L 179.234417 30.154519 
L 181.120184 30.548503 
L 183.00595 31.016622 
L 184.891717 31.558877 
L 186.777484 32.175267 
L 188.663251 32.865792 
L 190.549017 33.630452 
L 192.434784 34.469248 
L 194.320551 35.382179 
L 196.206318 36.369245 
L 198.092084 37.430447 
L 199.977851 38.565784 
L 201.863618 39.775256 
L 203.749385 41.058863 
L 205.635152 42.416605 
L 207.520918 43.848483 
L 209.406685 45.354496 
L 211.292452 46.934645 
L 213.178219 48.588928 
L 215.063985 50.317347 
L 216.949752 52.119901 
L 218.835519 53.99659 
L 220.721286 55.947415 
L 222.607052 57.972375 
L 224.492819 60.07147 
L 226.378586 62.244701 
L 228.264353 64.492066 
L 230.150119 66.813567 
L 232.035886 69.209203 
L 233.921653 71.678975 
L 235.80742 74.222882 
L 237.693186 76.840924 
L 239.578953 79.533101 
L 241.46472 82.299413 
L 243.350487 85.139861 
L 245.236253 88.054444 
L 247.12202 91.043162 
L 249.007787 94.106016 
L 250.893554 97.243005 
L 252.77932 100.454129 
L 254.665087 103.739388 
L 256.550854 107.098783 
L 258.436621 110.532313 
L 260.322388 114.039978 
L 262.208154 117.621778 
L 264.093921 121.277714 
L 265.979688 125.007785 
L 267.865455 128.811991 
" clip-path="url(#p9bb8fe7cf0)" style="fill: none; stroke: #21918c; stroke-width: 1.5; stroke-linecap: square"/>
   </g>
   <g id="line2d_21">
    <path d="M 81.174545 129.073272 
L 83.060312 125.056106 
L 84.946079 121.113075 
L 86.831846 117.24418 
L 88.717612 113.449419 
L 90.603379 109.728794 
L 92.489146 106.082304 
L 94.374913 102.50995 
L 96.26068 99.011731 
L 98.146446 95.587647 
L 100.032213 92.237698 
L 101.91798 88.961884 
L 103.803747 85.760206 
L 105.689513 82.632663 
L 107.57528 79.579256 
L 109.461047 76.599983 
L 111.346814 73.694846 
L 113.23258 70.863844 
L 115.118347 68.106977 
L 117.004114 65.424246 
L 118.889881 62.81565 
L 120.775647 60.281189 
L 122.661414 57.820863 
L 124.547181 55.434673 
L 126.432948 53.122618 
L 128.318714 50.884698 
L 130.204481 48.720914 
L 132.090248 46.631264 
L 133.976015 44.61575 
L 135.861781 42.674371 
L 137.747548 40.807128 
L 139.633315 39.01402 
L 141.519082 37.295047 
L 143.404848 35.650209 
L 145.290615 34.079506 
L 147.176382 32.582939 
L 149.062149 31.160507 
L 150.947916 29.812211 
L 152.833682 28.538049 
L 154.719449 27.338023 
L 156.605216 26.212132 
L 158.490983 25.160376 
L 160.376749 24.182756 
L 162.262516 23.279271 
L 164.148283 22.449921 
L 166.03405 21.694707 
L 167.919816 21.013627 
L 169.805583 20.406683 
L 171.69135 19.873874 
L 173.577117 19.415201 
L 175.462883 19.030663 
L 177.34865 18.720259 
L 179.234417 18.483992 
L 181.120184 18.321859 
L 183.00595 18.233862 
L 184.891717 18.22 
L 186.777484 18.280273 
L 188.663251 18.414682 
L 190.549017 18.623226 
L 192.434784 18.905905 
L 194.320551 19.262719 
L 196.206318 19.693669 
L 198.092084 20.198753 
L 199.977851 20.777974 
L 201.863618 21.431329 
L 203.749385 22.15882 
L 205.635152 22.960445 
L 207.520918 23.836207 
L 209.406685 24.786103 
L 211.292452 25.810135 
L 213.178219 26.908302 
L 215.063985 28.080604 
L 216.949752 29.327041 
L 218.835519 30.647614 
L 220.721286 32.042322 
L 222.607052 33.511165 
L 224.492819 35.054144 
L 226.378586 36.671258 
L 228.264353 38.362507 
L 230.150119 40.127891 
L 232.035886 41.967411 
L 233.921653 43.881065 
L 235.80742 45.868855 
L 237.693186 47.930781 
L 239.578953 50.066841 
L 241.46472 52.277037 
L 243.350487 54.561368 
L 245.236253 56.919835 
L 247.12202 59.352436 
L 249.007787 61.859173 
L 250.893554 64.440046 
L 252.77932 67.095053 
L 254.665087 69.824196 
L 256.550854 72.627474 
L 258.436621 75.504887 
L 260.322388 78.456435 
L 262.208154 81.482119 
L 264.093921 84.581938 
L 265.979688 87.755892 
L 267.865455 91.003982 
" clip-path="url(#p9bb8fe7cf0)" style="fill: none; stroke: #fde725; stroke-width: 1.5; stroke-linecap: square"/>
   </g>
   <g id="patch_3">
    <path d="M 71.84 174.04 
L 71.84 10.8 
" style="fill: none; stroke: #000000; stroke-width: 0.8; stroke-linejoin: miter; stroke-linecap: square"/>
   </g>
   <g id="patch_4">
    <path d="M 277.2 174.04 
L 277.2 10.8 
" style="fill: none; stroke: #000000; stroke-width: 0.8; stroke-linejoin: miter; stroke-linecap: square"/>
   </g>
   <g id="patch_5">
    <path d="M 71.84 174.04 
L 277.2 174.04 
" style="fill: none; stroke: #000000; stroke-width: 0.8; stroke-linejoin: miter; stroke-linecap: square"/>
   </g>
   <g id="patch_6">
    <path d="M 71.84 10.8 
L 277.2 10.8 
" style="fill: none; stroke: #000000; stroke-width: 0.8; stroke-linejoin: miter; stroke-linecap: square"/>
   </g>
   <g id="legend_1">
    <g id="patch_7">
     <path d="M 134.52 169.04 
L 214.52 169.04 
Q 216.52 169.04 216.52 167.04 
L 216.52 124.005625 
Q 216.52 122.005625 214.52 122.005625 
L 134.52 122.005625 
Q 132.52 122.005625 132.52 124.005625 
L 132.52 167.04 
Q 132.52 169.04 134.52 169.04 
z
" style="fill: #ffffff; opacity: 0.8; stroke: #cccccc; stroke-linejoin: miter"/>
    </g>
    <g id="line2d_22">
     <path d="M 136.52 130.104062 
L 146.52 130.104062 
L 156.52 130.104062 
" style="fill: none; stroke: #440154; stroke-width: 1.5; stroke-linecap: square"/>
    </g>
    <g id="text_12">
     <!-- $\delta_e = -10$ -->
     <g transform="translate(164.52 133.604062) scale(0.1 -0.1)">
      <defs>
       <path id="DejaVuSans-Oblique-3b4" d="M 3472 4053 
Q 3197 4272 2450 4272 
Q 1659 4272 1588 3906 
Q 1531 3619 2328 3469 
Q 2953 3353 3253 3003 
Q 3616 2581 3447 1716 
Q 3284 888 2763 400 
Q 2238 -91 1488 -91 
Q 741 -91 406 400 
Q 72 888 241 1747 
Q 363 2384 891 2900 
Q 1097 3100 1353 3213 
Q 913 3459 1000 3900 
Q 1166 4750 2544 4750 
Q 3234 4750 3566 4531 
L 3472 4053 
z
M 1753 3056 
Q 1525 2966 1306 2738 
Q 969 2384 847 1747 
Q 722 1113 919 756 
Q 1119 397 1584 397 
Q 2044 397 2381 759 
Q 2722 1122 2838 1716 
Q 2956 2338 2731 2638 
Q 2491 2959 2103 2994 
Q 1906 3013 1753 3056 
z
" transform="scale(0.015625)"/>
       <path id="DejaVuSans-Oblique-65" d="M 3078 2063 
Q 3088 2113 3092 2166 
Q 3097 2219 3097 2272 
Q 3097 2653 2873 2875 
Q 2650 3097 2266 3097 
Q 1838 3097 1509 2826 
Q 1181 2556 1013 2059 
L 3078 2063 
z
M 3578 1613 
L 903 1613 
Q 884 1494 878 1425 
Q 872 1356 872 1306 
Q 872 872 1139 634 
Q 1406 397 1894 397 
Q 2269 397 2603 481 
Q 2938 566 3225 728 
L 3116 159 
Q 2806 34 2476 -28 
Q 2147 -91 1806 -91 
Q 1078 -91 686 257 
Q 294 606 294 1247 
Q 294 1794 489 2264 
Q 684 2734 1063 3103 
Q 1306 3334 1642 3459 
Q 1978 3584 2356 3584 
Q 2950 3584 3301 3228 
Q 3653 2872 3653 2272 
Q 3653 2128 3634 1964 
Q 3616 1800 3578 1613 
z
" transform="scale(0.015625)"/>
       <path id="DejaVuSans-3d" d="M 678 2906 
L 4684 2906 
L 4684 2381 
L 678 2381 
L 678 2906 
z
M 678 1631 
L 4684 1631 
L 4684 1100 
L 678 1100 
L 678 1631 
z
" transform="scale(0.015625)"/>
       <path id="DejaVuSans-31" d="M 794 531 
L 1825 531 
L 1825 4091 
L 703 3866 
L 703 4441 
L 1819 4666 
L 2450 4666 
L 2450 531 
L 3481 531 
L 3481 0 
L 794 0 
L 794 531 
z
" transform="scale(0.015625)"/>
      </defs>
      <use xlink:href="#DejaVuSans-Oblique-3b4" transform="translate(0 0.78125)"/>
      <use xlink:href="#DejaVuSans-Oblique-65" transform="translate(61.181641 -15.625) scale(0.7)"/>
      <use xlink:href="#DejaVuSans-3d" transform="translate(126.464844 0.78125)"/>
      <use xlink:href="#DejaVuSans-2212" transform="translate(249.21875 0.78125)"/>
      <use xlink:href="#DejaVuSans-31" transform="translate(352.490234 0.78125)"/>
      <use xlink:href="#DejaVuSans-30" transform="translate(416.113281 0.78125)"/>
     </g>
    </g>
    <g id="line2d_23">
     <path d="M 136.52 144.782187 
L 146.52 144.782187 
L 156.52 144.782187 
" style="fill: none; stroke: #21918c; stroke-width: 1.5; stroke-linecap: square"/>
    </g>
    <g id="text_13">
     <!-- $\delta_e = 0$ -->
     <g transform="translate(164.52 148.282187) scale(0.1 -0.1)">
      <use xlink:href="#DejaVuSans-Oblique-3b4" transform="translate(0 0.78125)"/>
      <use xlink:href="#DejaVuSans-Oblique-65" transform="translate(61.181641 -15.625) scale(0.7)"/>
      <use xlink:href="#DejaVuSans-3d" transform="translate(126.464844 0.78125)"/>
      <use xlink:href="#DejaVuSans-30" transform="translate(229.736328 0.78125)"/>
     </g>
    </g>
    <g id="line2d_24">
     <path d="M 136.52 159.460312 
L 146.52 159.460312 
L 156.52 159.460312 
" style="fill: none; stroke: #fde725; stroke-width: 1.5; stroke-linecap: square"/>
    </g>
    <g id="text_14">
     <!-- $\delta_e = 10$ -->
     <g transform="translate(164.52 162.960312) scale(0.1 -0.1)">
      <use xlink:href="#DejaVuSans-Oblique-3b4" transform="translate(0 0.78125)"/>
      <use xlink:href="#DejaVuSans-Oblique-65" transform="translate(61.181641 -15.625) scale(0.7)"/>
      <use xlink:href="#DejaVuSans-3d" transform="translate(126.464844 0.78125)"/>
      <use xlink:href="#DejaVuSans-31" transform="translate(229.736328 0.78125)"/>
      <use xlink:href="#DejaVuSans-30" transform="translate(293.359375 0.78125)"/>
     </g>
    </g>
   </g>
  </g>
 </g>
 <defs>
  <clipPath id="p9bb8fe7cf0">
   <rect x="71.84" y="10.8" width="205.36" height="163.24"/>
  </clipPath>
 </defs>
</svg>
