<?xml version="1.0" encoding="utf-8" standalone="no"?>
<!DOCTYPE svg PUBLIC "-//W3C//DTD SVG 1.1//EN"
  "http://www.w3.org/Graphics/SVG/1.1/DTD/svg11.dtd">
<svg xmlns:xlink="http://www.w3.org/1999/xlink" width="432pt" height="216pt" viewBox="0 0 432 216" xmlns="http://www.w3.org/2000/svg" version="1.1">
 <metadata>
  <rdf:RDF xmlns:dc="http://purl.org/dc/elements/1.1/" xmlns:cc="http://creativecommons.org/ns#" xmlns:rdf="http://www.w3.org/1999/02/22-rdf-syntax-ns#">
   <cc:Work>
    <dc:type rdf:resource="http://purl.org/dc/dcmitype/StillImage"/>
    <dc:date>2025-03-28T12:13:14.204712</dc:date>
    <dc:format>image/svg+xml</dc:format>
    <dc:creator>
     <cc:Agent>
      <dc:title>Matplotlib v3.9.2, https://matplotlib.org/</dc:title>
     </cc:Agent>
    </dc:creator>
   </cc:Work>
  </rdf:RDF>
 </metadata>
 <defs>
  <style type="text/css">*{stroke-linejoin: round; stroke-linecap: butt}</style>
 </defs>
 <g id="figure_1">
  <g id="patch_1">
   <path d="M 0 216 
L 432 216 
L 432 0 
L 0 0 
z
" style="fill: #ffffff"/>
  </g>
  <g id="axes_1">
   <g id="patch_2">
    <path d="M 71.408 174.04 
L 306.255247 174.04 
L 306.255247 10.8 
L 71.408 10.8 
z
" style="fill: #ffffff"/>
   </g>
   <g id="matplotlib.axis_1">
    <g id="xtick_1">
     <g id="line2d_1">
      <path d="M 82.082875 174.04 
L 82.082875 10.8 
" clip-path="url(#pb849999e90)" style="fill: none; stroke: #b0b0b0; stroke-width: 0.8; stroke-linecap: square"/>
     </g>
     <g id="line2d_2">
      <defs>
       <path id="m2a4d6c890b" d="M 0 0 
L 0 3.5 
" style="stroke: #000000; stroke-width: 0.8"/>
      </defs>
      <g>
       <use xlink:href="#m2a4d6c890b" x="82.082875" y="174.04" style="stroke: #000000; stroke-width: 0.8"/>
      </g>
     </g>
     <g id="text_1">
      <!-- −4 -->
      <g transform="translate(74.711781 188.638438) scale(0.1 -0.1)">
       <defs>
        <path id="DejaVuSans-2212" d="M 678 2272 
L 4684 2272 
L 4684 1741 
L 678 1741 
L 678 2272 
z
" transform="scale(0.015625)"/>
        <path id="DejaVuSans-34" d="M 2419 4116 
L 825 1625 
L 2419 1625 
L 2419 4116 
z
M 2253 4666 
L 3047 4666 
L 3047 1625 
L 3713 1625 
L 3713 1100 
L 3047 1100 
L 3047 0 
L 2419 0 
L 2419 1100 
L 313 1100 
L 313 1709 
L 2253 4666 
z
" transform="scale(0.015625)"/>
       </defs>
       <use xlink:href="#DejaVuSans-2212"/>
       <use xlink:href="#DejaVuSans-34" x="83.789062"/>
      </g>
     </g>
    </g>
    <g id="xtick_2">
     <g id="line2d_3">
      <path d="M 120.900602 174.04 
L 120.900602 10.8 
" clip-path="url(#pb849999e90)" style="fill: none; stroke: #b0b0b0; stroke-width: 0.8; stroke-linecap: square"/>
     </g>
     <g id="line2d_4">
      <g>
       <use xlink:href="#m2a4d6c890b" x="120.900602" y="174.04" style="stroke: #000000; stroke-width: 0.8"/>
      </g>
     </g>
     <g id="text_2">
      <!-- −2 -->
      <g transform="translate(113.529508 188.638438) scale(0.1 -0.1)">
       <defs>
        <path id="DejaVuSans-32" d="M 1228 531 
L 3431 531 
L 3431 0 
L 469 0 
L 469 531 
Q 828 903 1448 1529 
Q 2069 2156 2228 2338 
Q 2531 2678 2651 2914 
Q 2772 3150 2772 3378 
Q 2772 3750 2511 3984 
Q 2250 4219 1831 4219 
Q 1534 4219 1204 4116 
Q 875 4013 500 3803 
L 500 4441 
Q 881 4594 1212 4672 
Q 1544 4750 1819 4750 
Q 2544 4750 2975 4387 
Q 3406 4025 3406 3419 
Q 3406 3131 3298 2873 
Q 3191 2616 2906 2266 
Q 2828 2175 2409 1742 
Q 1991 1309 1228 531 
z
" transform="scale(0.015625)"/>
       </defs>
       <use xlink:href="#DejaVuSans-2212"/>
       <use xlink:href="#DejaVuSans-32" x="83.789062"/>
      </g>
     </g>
    </g>
    <g id="xtick_3">
     <g id="line2d_5">
      <path d="M 159.718329 174.04 
L 159.718329 10.8 
" clip-path="url(#pb849999e90)" style="fill: none; stroke: #b0b0b0; stroke-width: 0.8; stroke-linecap: square"/>
     </g>
     <g id="line2d_6">
      <g>
       <use xlink:href="#m2a4d6c890b" x="159.718329" y="174.04" style="stroke: #000000; stroke-width: 0.8"/>
      </g>
     </g>
     <g id="text_3">
      <!-- 0 -->
      <g transform="translate(156.537079 188.638438) scale(0.1 -0.1)">
       <defs>
        <path id="DejaVuSans-30" d="M 2034 4250 
Q 1547 4250 1301 3770 
Q 1056 3291 1056 2328 
Q 1056 1369 1301 889 
Q 1547 409 2034 409 
Q 2525 409 2770 889 
Q 3016 1369 3016 2328 
Q 3016 3291 2770 3770 
Q 2525 4250 2034 4250 
z
M 2034 4750 
Q 2819 4750 3233 4129 
Q 3647 3509 3647 2328 
Q 3647 1150 3233 529 
Q 2819 -91 2034 -91 
Q 1250 -91 836 529 
Q 422 1150 422 2328 
Q 422 3509 836 4129 
Q 1250 4750 2034 4750 
z
" transform="scale(0.015625)"/>
       </defs>
       <use xlink:href="#DejaVuSans-30"/>
      </g>
     </g>
    </g>
    <g id="xtick_4">
     <g id="line2d_7">
      <path d="M 198.536055 174.04 
L 198.536055 10.8 
" clip-path="url(#pb849999e90)" style="fill: none; stroke: #b0b0b0; stroke-width: 0.8; stroke-linecap: square"/>
     </g>
     <g id="line2d_8">
      <g>
       <use xlink:href="#m2a4d6c890b" x="198.536055" y="174.04" style="stroke: #000000; stroke-width: 0.8"/>
      </g>
     </g>
     <g id="text_4">
      <!-- 2 -->
      <g transform="translate(195.354805 188.638438) scale(0.1 -0.1)">
       <use xlink:href="#DejaVuSans-32"/>
      </g>
     </g>
    </g>
    <g id="xtick_5">
     <g id="line2d_9">
      <path d="M 237.353782 174.04 
L 237.353782 10.8 
" clip-path="url(#pb849999e90)" style="fill: none; stroke: #b0b0b0; stroke-width: 0.8; stroke-linecap: square"/>
     </g>
     <g id="line2d_10">
      <g>
       <use xlink:href="#m2a4d6c890b" x="237.353782" y="174.04" style="stroke: #000000; stroke-width: 0.8"/>
      </g>
     </g>
     <g id="text_5">
      <!-- 4 -->
      <g transform="translate(234.172532 188.638438) scale(0.1 -0.1)">
       <use xlink:href="#DejaVuSans-34"/>
      </g>
     </g>
    </g>
    <g id="xtick_6">
     <g id="line2d_11">
      <path d="M 276.171509 174.04 
L 276.171509 10.8 
" clip-path="url(#pb849999e90)" style="fill: none; stroke: #b0b0b0; stroke-width: 0.8; stroke-linecap: square"/>
     </g>
     <g id="line2d_12">
      <g>
       <use xlink:href="#m2a4d6c890b" x="276.171509" y="174.04" style="stroke: #000000; stroke-width: 0.8"/>
      </g>
     </g>
     <g id="text_6">
      <!-- 6 -->
      <g transform="translate(272.990259 188.638438) scale(0.1 -0.1)">
       <defs>
        <path id="DejaVuSans-36" d="M 2113 2584 
Q 1688 2584 1439 2293 
Q 1191 2003 1191 1497 
Q 1191 994 1439 701 
Q 1688 409 2113 409 
Q 2538 409 2786 701 
Q 3034 994 3034 1497 
Q 3034 2003 2786 2293 
Q 2538 2584 2113 2584 
z
M 3366 4563 
L 3366 3988 
Q 3128 4100 2886 4159 
Q 2644 4219 2406 4219 
Q 1781 4219 1451 3797 
Q 1122 3375 1075 2522 
Q 1259 2794 1537 2939 
Q 1816 3084 2150 3084 
Q 2853 3084 3261 2657 
Q 3669 2231 3669 1497 
Q 3669 778 3244 343 
Q 2819 -91 2113 -91 
Q 1303 -91 875 529 
Q 447 1150 447 2328 
Q 447 3434 972 4092 
Q 1497 4750 2381 4750 
Q 2619 4750 2861 4703 
Q 3103 4656 3366 4563 
z
" transform="scale(0.015625)"/>
       </defs>
       <use xlink:href="#DejaVuSans-36"/>
      </g>
     </g>
    </g>
    <g id="text_7">
     <!-- $\alpha$ -->
     <g transform="translate(185.531624 202.316563) scale(0.1 -0.1)">
      <defs>
       <path id="DejaVuSans-Oblique-3b1" d="M 2619 1628 
L 2622 2350 
Q 2625 3088 2069 3091 
Q 1653 3094 1394 2747 
Q 1069 2319 959 1747 
Q 825 1059 994 731 
Q 1169 397 1547 397 
Q 1966 397 2319 1063 
L 2619 1628 
z
M 2166 3578 
Q 3141 3594 3128 2584 
Q 3128 2584 3616 3500 
L 4128 3500 
L 3119 1603 
L 3109 919 
Q 3109 766 3194 638 
Q 3291 488 3391 488 
L 3669 488 
L 3575 0 
L 3228 0 
Q 2934 0 2722 263 
Q 2622 394 2619 669 
Q 2416 334 2066 50 
Q 1900 -81 1453 -78 
Q 722 -72 456 397 
Q 184 884 353 1747 
Q 534 2675 1009 3097 
Q 1544 3569 2166 3578 
z
" transform="scale(0.015625)"/>
      </defs>
      <use xlink:href="#DejaVuSans-Oblique-3b1" transform="translate(0 0.84375)"/>
     </g>
    </g>
   </g>
   <g id="matplotlib.axis_2">
    <g id="ytick_1">
     <g id="line2d_13">
      <path d="M 71.408 169.684679 
L 306.255247 169.684679 
" clip-path="url(#pb849999e90)" style="fill: none; stroke: #b0b0b0; stroke-width: 0.8; stroke-linecap: square"/>
     </g>
     <g id="line2d_14">
      <defs>
       <path id="m99bac7c667" d="M 0 0 
L -3.5 0 
" style="stroke: #000000; stroke-width: 0.8"/>
      </defs>
      <g>
       <use xlink:href="#m99bac7c667" x="71.408" y="169.684679" style="stroke: #000000; stroke-width: 0.8"/>
      </g>
     </g>
     <g id="text_8">
      <!-- −0.032 -->
      <g transform="translate(27.400188 173.483897) scale(0.1 -0.1)">
       <defs>
        <path id="DejaVuSans-2e" d="M 684 794 
L 1344 794 
L 1344 0 
L 684 0 
L 684 794 
z
" transform="scale(0.015625)"/>
        <path id="DejaVuSans-33" d="M 2597 2516 
Q 3050 2419 3304 2112 
Q 3559 1806 3559 1356 
Q 3559 666 3084 287 
Q 2609 -91 1734 -91 
Q 1441 -91 1130 -33 
Q 819 25 488 141 
L 488 750 
Q 750 597 1062 519 
Q 1375 441 1716 441 
Q 2309 441 2620 675 
Q 2931 909 2931 1356 
Q 2931 1769 2642 2001 
Q 2353 2234 1838 2234 
L 1294 2234 
L 1294 2753 
L 1863 2753 
Q 2328 2753 2575 2939 
Q 2822 3125 2822 3475 
Q 2822 3834 2567 4026 
Q 2313 4219 1838 4219 
Q 1578 4219 1281 4162 
Q 984 4106 628 3988 
L 628 4550 
Q 988 4650 1302 4700 
Q 1616 4750 1894 4750 
Q 2613 4750 3031 4423 
Q 3450 4097 3450 3541 
Q 3450 3153 3228 2886 
Q 3006 2619 2597 2516 
z
" transform="scale(0.015625)"/>
       </defs>
       <use xlink:href="#DejaVuSans-2212"/>
       <use xlink:href="#DejaVuSans-30" x="83.789062"/>
       <use xlink:href="#DejaVuSans-2e" x="147.412109"/>
       <use xlink:href="#DejaVuSans-30" x="179.199219"/>
       <use xlink:href="#DejaVuSans-33" x="242.822266"/>
       <use xlink:href="#DejaVuSans-32" x="306.445312"/>
      </g>
     </g>
    </g>
    <g id="ytick_2">
     <g id="line2d_15">
      <path d="M 71.408 145.679305 
L 306.255247 145.679305 
" clip-path="url(#pb849999e90)" style="fill: none; stroke: #b0b0b0; stroke-width: 0.8; stroke-linecap: square"/>
     </g>
     <g id="line2d_16">
      <g>
       <use xlink:href="#m99bac7c667" x="71.408" y="145.679305" style="stroke: #000000; stroke-width: 0.8"/>
      </g>
     </g>
     <g id="text_9">
      <!-- −0.031 -->
      <g transform="translate(27.400188 149.478524) scale(0.1 -0.1)">
       <defs>
        <path id="DejaVuSans-31" d="M 794 531 
L 1825 531 
L 1825 4091 
L 703 3866 
L 703 4441 
L 1819 4666 
L 2450 4666 
L 2450 531 
L 3481 531 
L 3481 0 
L 794 0 
L 794 531 
z
" transform="scale(0.015625)"/>
       </defs>
       <use xlink:href="#DejaVuSans-2212"/>
       <use xlink:href="#DejaVuSans-30" x="83.789062"/>
       <use xlink:href="#DejaVuSans-2e" x="147.412109"/>
       <use xlink:href="#DejaVuSans-30" x="179.199219"/>
       <use xlink:href="#DejaVuSans-33" x="242.822266"/>
       <use xlink:href="#DejaVuSans-31" x="306.445312"/>
      </g>
     </g>
    </g>
    <g id="ytick_3">
     <g id="line2d_17">
      <path d="M 71.408 121.673932 
L 306.255247 121.673932 
" clip-path="url(#pb849999e90)" style="fill: none; stroke: #b0b0b0; stroke-width: 0.8; stroke-linecap: square"/>
     </g>
     <g id="line2d_18">
      <g>
       <use xlink:href="#m99bac7c667" x="71.408" y="121.673932" style="stroke: #000000; stroke-width: 0.8"/>
      </g>
     </g>
     <g id="text_10">
      <!-- −0.030 -->
      <g transform="translate(27.400188 125.473151) scale(0.1 -0.1)">
       <use xlink:href="#DejaVuSans-2212"/>
       <use xlink:href="#DejaVuSans-30" x="83.789062"/>
       <use xlink:href="#DejaVuSans-2e" x="147.412109"/>
       <use xlink:href="#DejaVuSans-30" x="179.199219"/>
       <use xlink:href="#DejaVuSans-33" x="242.822266"/>
       <use xlink:href="#DejaVuSans-30" x="306.445312"/>
      </g>
     </g>
    </g>
    <g id="ytick_4">
     <g id="line2d_19">
      <path d="M 71.408 97.668559 
L 306.255247 97.668559 
" clip-path="url(#pb849999e90)" style="fill: none; stroke: #b0b0b0; stroke-width: 0.8; stroke-linecap: square"/>
     </g>
     <g id="line2d_20">
      <g>
       <use xlink:href="#m99bac7c667" x="71.408" y="97.668559" style="stroke: #000000; stroke-width: 0.8"/>
      </g>
     </g>
     <g id="text_11">
      <!-- −0.029 -->
      <g transform="translate(27.400188 101.467778) scale(0.1 -0.1)">
       <defs>
        <path id="DejaVuSans-39" d="M 703 97 
L 703 672 
Q 941 559 1184 500 
Q 1428 441 1663 441 
Q 2288 441 2617 861 
Q 2947 1281 2994 2138 
Q 2813 1869 2534 1725 
Q 2256 1581 1919 1581 
Q 1219 1581 811 2004 
Q 403 2428 403 3163 
Q 403 3881 828 4315 
Q 1253 4750 1959 4750 
Q 2769 4750 3195 4129 
Q 3622 3509 3622 2328 
Q 3622 1225 3098 567 
Q 2575 -91 1691 -91 
Q 1453 -91 1209 -44 
Q 966 3 703 97 
z
M 1959 2075 
Q 2384 2075 2632 2365 
Q 2881 2656 2881 3163 
Q 2881 3666 2632 3958 
Q 2384 4250 1959 4250 
Q 1534 4250 1286 3958 
Q 1038 3666 1038 3163 
Q 1038 2656 1286 2365 
Q 1534 2075 1959 2075 
z
" transform="scale(0.015625)"/>
       </defs>
       <use xlink:href="#DejaVuSans-2212"/>
       <use xlink:href="#DejaVuSans-30" x="83.789062"/>
       <use xlink:href="#DejaVuSans-2e" x="147.412109"/>
       <use xlink:href="#DejaVuSans-30" x="179.199219"/>
       <use xlink:href="#DejaVuSans-32" x="242.822266"/>
       <use xlink:href="#DejaVuSans-39" x="306.445312"/>
      </g>
     </g>
    </g>
    <g id="ytick_5">
     <g id="line2d_21">
      <path d="M 71.408 73.663186 
L 306.255247 73.663186 
" clip-path="url(#pb849999e90)" style="fill: none; stroke: #b0b0b0; stroke-width: 0.8; stroke-linecap: square"/>
     </g>
     <g id="line2d_22">
      <g>
       <use xlink:href="#m99bac7c667" x="71.408" y="73.663186" style="stroke: #000000; stroke-width: 0.8"/>
      </g>
     </g>
     <g id="text_12">
      <!-- −0.028 -->
      <g transform="translate(27.400188 77.462404) scale(0.1 -0.1)">
       <defs>
        <path id="DejaVuSans-38" d="M 2034 2216 
Q 1584 2216 1326 1975 
Q 1069 1734 1069 1313 
Q 1069 891 1326 650 
Q 1584 409 2034 409 
Q 2484 409 2743 651 
Q 3003 894 3003 1313 
Q 3003 1734 2745 1975 
Q 2488 2216 2034 2216 
z
M 1403 2484 
Q 997 2584 770 2862 
Q 544 3141 544 3541 
Q 544 4100 942 4425 
Q 1341 4750 2034 4750 
Q 2731 4750 3128 4425 
Q 3525 4100 3525 3541 
Q 3525 3141 3298 2862 
Q 3072 2584 2669 2484 
Q 3125 2378 3379 2068 
Q 3634 1759 3634 1313 
Q 3634 634 3220 271 
Q 2806 -91 2034 -91 
Q 1263 -91 848 271 
Q 434 634 434 1313 
Q 434 1759 690 2068 
Q 947 2378 1403 2484 
z
M 1172 3481 
Q 1172 3119 1398 2916 
Q 1625 2713 2034 2713 
Q 2441 2713 2670 2916 
Q 2900 3119 2900 3481 
Q 2900 3844 2670 4047 
Q 2441 4250 2034 4250 
Q 1625 4250 1398 4047 
Q 1172 3844 1172 3481 
z
" transform="scale(0.015625)"/>
       </defs>
       <use xlink:href="#DejaVuSans-2212"/>
       <use xlink:href="#DejaVuSans-30" x="83.789062"/>
       <use xlink:href="#DejaVuSans-2e" x="147.412109"/>
       <use xlink:href="#DejaVuSans-30" x="179.199219"/>
       <use xlink:href="#DejaVuSans-32" x="242.822266"/>
       <use xlink:href="#DejaVuSans-38" x="306.445312"/>
      </g>
     </g>
    </g>
    <g id="ytick_6">
     <g id="line2d_23">
      <path d="M 71.408 49.657812 
L 306.255247 49.657812 
" clip-path="url(#pb849999e90)" style="fill: none; stroke: #b0b0b0; stroke-width: 0.8; stroke-linecap: square"/>
     </g>
     <g id="line2d_24">
      <g>
       <use xlink:href="#m99bac7c667" x="71.408" y="49.657812" style="stroke: #000000; stroke-width: 0.8"/>
      </g>
     </g>
     <g id="text_13">
      <!-- −0.027 -->
      <g transform="translate(27.400188 53.457031) scale(0.1 -0.1)">
       <defs>
        <path id="DejaVuSans-37" d="M 525 4666 
L 3525 4666 
L 3525 4397 
L 1831 0 
L 1172 0 
L 2766 4134 
L 525 4134 
L 525 4666 
z
" transform="scale(0.015625)"/>
       </defs>
       <use xlink:href="#DejaVuSans-2212"/>
       <use xlink:href="#DejaVuSans-30" x="83.789062"/>
       <use xlink:href="#DejaVuSans-2e" x="147.412109"/>
       <use xlink:href="#DejaVuSans-30" x="179.199219"/>
       <use xlink:href="#DejaVuSans-32" x="242.822266"/>
       <use xlink:href="#DejaVuSans-37" x="306.445312"/>
      </g>
     </g>
    </g>
    <g id="ytick_7">
     <g id="line2d_25">
      <path d="M 71.408 25.652439 
L 306.255247 25.652439 
" clip-path="url(#pb849999e90)" style="fill: none; stroke: #b0b0b0; stroke-width: 0.8; stroke-linecap: square"/>
     </g>
     <g id="line2d_26">
      <g>
       <use xlink:href="#m99bac7c667" x="71.408" y="25.652439" style="stroke: #000000; stroke-width: 0.8"/>
      </g>
     </g>
     <g id="text_14">
      <!-- −0.026 -->
      <g transform="translate(27.400188 29.451658) scale(0.1 -0.1)">
       <use xlink:href="#DejaVuSans-2212"/>
       <use xlink:href="#DejaVuSans-30" x="83.789062"/>
       <use xlink:href="#DejaVuSans-2e" x="147.412109"/>
       <use xlink:href="#DejaVuSans-30" x="179.199219"/>
       <use xlink:href="#DejaVuSans-32" x="242.822266"/>
       <use xlink:href="#DejaVuSans-36" x="306.445312"/>
      </g>
     </g>
    </g>
    <g id="text_15">
     <!-- d$C_M$ / d$\delta_e$ -->
     <g transform="translate(21.3205 115.67) rotate(-90) scale(0.1 -0.1)">
      <defs>
       <path id="DejaVuSans-64" d="M 2906 2969 
L 2906 4863 
L 3481 4863 
L 3481 0 
L 2906 0 
L 2906 525 
Q 2725 213 2448 61 
Q 2172 -91 1784 -91 
Q 1150 -91 751 415 
Q 353 922 353 1747 
Q 353 2572 751 3078 
Q 1150 3584 1784 3584 
Q 2172 3584 2448 3432 
Q 2725 3281 2906 2969 
z
M 947 1747 
Q 947 1113 1208 752 
Q 1469 391 1925 391 
Q 2381 391 2643 752 
Q 2906 1113 2906 1747 
Q 2906 2381 2643 2742 
Q 2381 3103 1925 3103 
Q 1469 3103 1208 2742 
Q 947 2381 947 1747 
z
" transform="scale(0.015625)"/>
       <path id="DejaVuSans-Oblique-43" d="M 4447 4306 
L 4319 3641 
Q 4019 3944 3683 4091 
Q 3347 4238 2956 4238 
Q 2422 4238 2017 3981 
Q 1613 3725 1319 3200 
Q 1131 2863 1032 2486 
Q 934 2109 934 1728 
Q 934 1091 1264 756 
Q 1594 422 2222 422 
Q 2656 422 3056 561 
Q 3456 700 3834 978 
L 3688 231 
Q 3316 72 2936 -9 
Q 2556 -91 2175 -91 
Q 1278 -91 773 396 
Q 269 884 269 1753 
Q 269 2309 461 2846 
Q 653 3384 1013 3828 
Q 1394 4300 1883 4525 
Q 2372 4750 3022 4750 
Q 3422 4750 3780 4639 
Q 4138 4528 4447 4306 
z
" transform="scale(0.015625)"/>
       <path id="DejaVuSans-Oblique-4d" d="M 1081 4666 
L 2028 4666 
L 2572 1522 
L 4378 4666 
L 5350 4666 
L 4441 0 
L 3828 0 
L 4622 4091 
L 2791 897 
L 2175 897 
L 1581 4103 
L 788 0 
L 172 0 
L 1081 4666 
z
" transform="scale(0.015625)"/>
       <path id="DejaVuSans-20" transform="scale(0.015625)"/>
       <path id="DejaVuSans-2f" d="M 1625 4666 
L 2156 4666 
L 531 -594 
L 0 -594 
L 1625 4666 
z
" transform="scale(0.015625)"/>
       <path id="DejaVuSans-Oblique-3b4" d="M 3472 4053 
Q 3197 4272 2450 4272 
Q 1659 4272 1588 3906 
Q 1531 3619 2328 3469 
Q 2953 3353 3253 3003 
Q 3616 2581 3447 1716 
Q 3284 888 2763 400 
Q 2238 -91 1488 -91 
Q 741 -91 406 400 
Q 72 888 241 1747 
Q 363 2384 891 2900 
Q 1097 3100 1353 3213 
Q 913 3459 1000 3900 
Q 1166 4750 2544 4750 
Q 3234 4750 3566 4531 
L 3472 4053 
z
M 1753 3056 
Q 1525 2966 1306 2738 
Q 969 2384 847 1747 
Q 722 1113 919 756 
Q 1119 397 1584 397 
Q 2044 397 2381 759 
Q 2722 1122 2838 1716 
Q 2956 2338 2731 2638 
Q 2491 2959 2103 2994 
Q 1906 3013 1753 3056 
z
" transform="scale(0.015625)"/>
       <path id="DejaVuSans-Oblique-65" d="M 3078 2063 
Q 3088 2113 3092 2166 
Q 3097 2219 3097 2272 
Q 3097 2653 2873 2875 
Q 2650 3097 2266 3097 
Q 1838 3097 1509 2826 
Q 1181 2556 1013 2059 
L 3078 2063 
z
M 3578 1613 
L 903 1613 
Q 884 1494 878 1425 
Q 872 1356 872 1306 
Q 872 872 1139 634 
Q 1406 397 1894 397 
Q 2269 397 2603 481 
Q 2938 566 3225 728 
L 3116 159 
Q 2806 34 2476 -28 
Q 2147 -91 1806 -91 
Q 1078 -91 686 257 
Q 294 606 294 1247 
Q 294 1794 489 2264 
Q 684 2734 1063 3103 
Q 1306 3334 1642 3459 
Q 1978 3584 2356 3584 
Q 2950 3584 3301 3228 
Q 3653 2872 3653 2272 
Q 3653 2128 3634 1964 
Q 3616 1800 3578 1613 
z
" transform="scale(0.015625)"/>
      </defs>
      <use xlink:href="#DejaVuSans-64" transform="translate(0 0.015625)"/>
      <use xlink:href="#DejaVuSans-Oblique-43" transform="translate(63.476562 0.015625)"/>
      <use xlink:href="#DejaVuSans-Oblique-4d" transform="translate(133.300781 -16.390625) scale(0.7)"/>
      <use xlink:href="#DejaVuSans-20" transform="translate(196.430664 0.015625)"/>
      <use xlink:href="#DejaVuSans-2f" transform="translate(228.217773 0.015625)"/>
      <use xlink:href="#DejaVuSans-20" transform="translate(261.90918 0.015625)"/>
      <use xlink:href="#DejaVuSans-64" transform="translate(293.696289 0.015625)"/>
      <use xlink:href="#DejaVuSans-Oblique-3b4" transform="translate(357.172852 0.015625)"/>
      <use xlink:href="#DejaVuSans-Oblique-65" transform="translate(418.354492 -16.390625) scale(0.7)"/>
     </g>
    </g>
   </g>
   <g id="line2d_27">
    <path d="M 82.082875 156.316607 
L 84.239415 156.9607 
L 86.395956 157.584012 
L 88.552496 158.186542 
L 90.709036 158.76829 
L 92.865577 159.329256 
L 95.022117 159.869441 
L 97.178658 160.388844 
L 99.335198 160.887466 
L 101.491738 161.365305 
L 103.648279 161.822363 
L 105.804819 162.258639 
L 107.961359 162.674134 
L 110.1179 163.068846 
L 112.27444 163.442777 
L 114.430981 163.795927 
L 116.587521 164.128294 
L 118.744061 164.43988 
L 120.900602 164.730684 
L 123.057142 165.000706 
L 125.213682 165.249947 
L 127.370223 165.478406 
L 129.526763 165.686083 
L 131.683304 165.872979 
L 133.839844 166.039092 
L 135.996384 166.184424 
L 138.152925 166.308975 
L 140.309465 166.412743 
L 142.466006 166.49573 
L 144.622546 166.557935 
L 146.779086 166.599358 
L 148.935627 166.62 
L 151.092167 166.61986 
L 153.248707 166.598938 
L 155.405248 166.557235 
L 157.561788 166.494749 
L 159.718329 166.411482 
L 161.874869 166.307434 
L 164.031409 166.182603 
L 166.18795 166.036991 
L 168.34449 165.870597 
L 170.50103 165.683422 
L 172.657571 165.475464 
L 174.814111 165.246725 
L 176.970652 164.997204 
L 179.127192 164.726902 
L 181.283732 164.435818 
L 183.440273 164.123952 
L 185.596813 163.791304 
L 187.753354 163.437875 
L 189.909894 163.063663 
L 192.066434 162.66867 
L 194.222975 162.252896 
L 196.379515 161.81634 
L 198.536055 161.359002 
L 200.692596 160.880882 
L 202.849136 160.38198 
L 205.005677 159.862297 
L 207.162217 159.321832 
L 209.318757 158.760585 
L 211.475298 158.178557 
L 213.631838 157.575747 
L 215.788378 156.952155 
L 217.944919 156.307781 
L 220.101459 155.642626 
L 222.258 154.956689 
L 224.41454 154.24997 
L 226.57108 153.52247 
L 228.727621 152.774188 
L 230.884161 152.005124 
L 233.040702 151.215278 
L 235.197242 150.404651 
L 237.353782 149.573242 
L 239.510323 148.721051 
L 241.666863 147.848078 
L 243.823403 146.954324 
L 245.979944 146.039788 
L 248.136484 145.10447 
L 250.293025 144.148371 
L 252.449565 143.17149 
L 254.606105 142.173827 
L 256.762646 141.155382 
L 258.919186 140.116156 
L 261.075726 139.056148 
L 263.232267 137.975358 
L 265.388807 136.873786 
L 267.545348 135.751433 
L 269.701888 134.608298 
L 271.858428 133.444381 
L 274.014969 132.259683 
L 276.171509 131.054203 
L 278.32805 129.827941 
L 280.48459 128.580897 
L 282.64113 127.313072 
L 284.797671 126.024465 
L 286.954211 124.715076 
L 289.110751 123.384905 
L 291.267292 122.033953 
L 293.423832 120.662219 
L 295.580373 119.269703 
" clip-path="url(#pb849999e90)" style="fill: none; stroke: #000080; stroke-width: 1.5; stroke-linecap: square"/>
   </g>
   <g id="line2d_28">
    <path d="M 82.082875 121.591096 
L 84.239415 121.503945 
L 86.395956 121.40787 
L 88.552496 121.302872 
L 90.709036 121.18895 
L 92.865577 121.066105 
L 95.022117 120.934337 
L 97.178658 120.793644 
L 99.335198 120.644029 
L 101.491738 120.485489 
L 103.648279 120.318026 
L 105.804819 120.14164 
L 107.961359 119.95633 
L 110.1179 119.762096 
L 112.27444 119.558939 
L 114.430981 119.346858 
L 116.587521 119.125854 
L 118.744061 118.895926 
L 120.900602 118.657075 
L 123.057142 118.4093 
L 125.213682 118.152602 
L 127.370223 117.88698 
L 129.526763 117.612434 
L 131.683304 117.328965 
L 133.839844 117.036573 
L 135.996384 116.735256 
L 138.152925 116.425017 
L 140.309465 116.105853 
L 142.466006 115.777767 
L 144.622546 115.440756 
L 146.779086 115.094822 
L 148.935627 114.739965 
L 151.092167 114.376184 
L 153.248707 114.003479 
L 155.405248 113.621851 
L 157.561788 113.231299 
L 159.718329 112.831824 
L 161.874869 112.423425 
L 164.031409 112.006103 
L 166.18795 111.579857 
L 168.34449 111.144687 
L 170.50103 110.700594 
L 172.657571 110.247578 
L 174.814111 109.785638 
L 176.970652 109.314774 
L 179.127192 108.834987 
L 181.283732 108.346276 
L 183.440273 107.848642 
L 185.596813 107.342084 
L 187.753354 106.826602 
L 189.909894 106.302197 
L 192.066434 105.768869 
L 194.222975 105.226617 
L 196.379515 104.675441 
L 198.536055 104.115342 
L 200.692596 103.546319 
L 202.849136 102.968373 
L 205.005677 102.381503 
L 207.162217 101.78571 
L 209.318757 101.180993 
L 211.475298 100.567352 
L 213.631838 99.944788 
L 215.788378 99.3133 
L 217.944919 98.672889 
L 220.101459 98.023555 
L 222.258 97.365296 
L 224.41454 96.698115 
L 226.57108 96.022009 
L 228.727621 95.33698 
L 230.884161 94.643028 
L 233.040702 93.940152 
L 235.197242 93.228352 
L 237.353782 92.507629 
L 239.510323 91.777982 
L 241.666863 91.039412 
L 243.823403 90.291918 
L 245.979944 89.535501 
L 248.136484 88.77016 
L 250.293025 87.995896 
L 252.449565 87.212708 
L 254.606105 86.420596 
L 256.762646 85.619561 
L 258.919186 84.809602 
L 261.075726 83.99072 
L 263.232267 83.162914 
L 265.388807 82.326185 
L 267.545348 81.480532 
L 269.701888 80.625956 
L 271.858428 79.762456 
L 274.014969 78.890032 
L 276.171509 78.008685 
L 278.32805 77.118415 
L 280.48459 76.21922 
L 282.64113 75.311103 
L 284.797671 74.394061 
L 286.954211 73.468097 
L 289.110751 72.533208 
L 291.267292 71.589396 
L 293.423832 70.636661 
L 295.580373 69.675002 
" clip-path="url(#pb849999e90)" style="fill: none; stroke: #0080ff; stroke-width: 1.5; stroke-linecap: square"/>
   </g>
   <g id="line2d_29">
    <path d="M 82.082875 91.940037 
L 84.239415 91.386972 
L 86.395956 90.83375 
L 88.552496 90.280371 
L 90.709036 89.726834 
L 92.865577 89.173141 
L 95.022117 88.61929 
L 97.178658 88.065281 
L 99.335198 87.511116 
L 101.491738 86.956793 
L 103.648279 86.402313 
L 105.804819 85.847675 
L 107.961359 85.292881 
L 110.1179 84.737929 
L 112.27444 84.18282 
L 114.430981 83.627553 
L 116.587521 83.07213 
L 118.744061 82.516549 
L 120.900602 81.96081 
L 123.057142 81.404915 
L 125.213682 80.848862 
L 127.370223 80.292652 
L 129.526763 79.736285 
L 131.683304 79.17976 
L 133.839844 78.623078 
L 135.996384 78.066239 
L 138.152925 77.509243 
L 140.309465 76.952089 
L 142.466006 76.394778 
L 144.622546 75.83731 
L 146.779086 75.279685 
L 148.935627 74.721902 
L 151.092167 74.163962 
L 153.248707 73.605865 
L 155.405248 73.04761 
L 157.561788 72.489199 
L 159.718329 71.930629 
L 161.874869 71.371903 
L 164.031409 70.81302 
L 166.18795 70.253979 
L 168.34449 69.694781 
L 170.50103 69.135425 
L 172.657571 68.575912 
L 174.814111 68.016243 
L 176.970652 67.456415 
L 179.127192 66.896431 
L 181.283732 66.336289 
L 183.440273 65.77599 
L 185.596813 65.215534 
L 187.753354 64.65492 
L 189.909894 64.094149 
L 192.066434 63.533221 
L 194.222975 62.972136 
L 196.379515 62.410893 
L 198.536055 61.849494 
L 200.692596 61.287936 
L 202.849136 60.726222 
L 205.005677 60.16435 
L 207.162217 59.602321 
L 209.318757 59.040135 
L 211.475298 58.477792 
L 213.631838 57.915291 
L 215.788378 57.352633 
L 217.944919 56.789818 
L 220.101459 56.226845 
L 222.258 55.663715 
L 224.41454 55.100428 
L 226.57108 54.536984 
L 228.727621 53.973382 
L 230.884161 53.409623 
L 233.040702 52.845707 
L 235.197242 52.281634 
L 237.353782 51.717403 
L 239.510323 51.153015 
L 241.666863 50.58847 
L 243.823403 50.023767 
L 245.979944 49.458907 
L 248.136484 48.89389 
L 250.293025 48.328716 
L 252.449565 47.763384 
L 254.606105 47.197896 
L 256.762646 46.632249 
L 258.919186 46.066446 
L 261.075726 45.500485 
L 263.232267 44.934367 
L 265.388807 44.368092 
L 267.545348 43.80166 
L 269.701888 43.23507 
L 271.858428 42.668323 
L 274.014969 42.101419 
L 276.171509 41.534357 
L 278.32805 40.967138 
L 280.48459 40.399762 
L 282.64113 39.832229 
L 284.797671 39.264538 
L 286.954211 38.696691 
L 289.110751 38.128685 
L 291.267292 37.560523 
L 293.423832 36.992203 
L 295.580373 36.423726 
" clip-path="url(#pb849999e90)" style="fill: none; stroke: #7dff7a; stroke-width: 1.5; stroke-linecap: square"/>
   </g>
   <g id="line2d_30">
    <path d="M 82.082875 67.36343 
L 84.239415 66.609782 
L 86.395956 65.861651 
L 88.552496 65.119038 
L 90.709036 64.381941 
L 92.865577 63.650362 
L 95.022117 62.9243 
L 97.178658 62.203755 
L 99.335198 61.488727 
L 101.491738 60.779216 
L 103.648279 60.075223 
L 105.804819 59.376746 
L 107.961359 58.683787 
L 110.1179 57.996344 
L 112.27444 57.314419 
L 114.430981 56.638011 
L 116.587521 55.96712 
L 118.744061 55.301747 
L 120.900602 54.64189 
L 123.057142 53.98755 
L 125.213682 53.338728 
L 127.370223 52.695423 
L 129.526763 52.057635 
L 131.683304 51.425364 
L 133.839844 50.79861 
L 135.996384 50.177373 
L 138.152925 49.561653 
L 140.309465 48.951451 
L 142.466006 48.346765 
L 144.622546 47.747597 
L 146.779086 47.153946 
L 148.935627 46.565812 
L 151.092167 45.983195 
L 153.248707 45.406095 
L 155.405248 44.834513 
L 157.561788 44.268447 
L 159.718329 43.707899 
L 161.874869 43.152867 
L 164.031409 42.603353 
L 166.18795 42.059356 
L 168.34449 41.520876 
L 170.50103 40.987914 
L 172.657571 40.460468 
L 174.814111 39.93854 
L 176.970652 39.422128 
L 179.127192 38.911234 
L 181.283732 38.405857 
L 183.440273 37.905997 
L 185.596813 37.411654 
L 187.753354 36.922828 
L 189.909894 36.43952 
L 192.066434 35.961728 
L 194.222975 35.489454 
L 196.379515 35.022697 
L 198.536055 34.561457 
L 200.692596 34.105734 
L 202.849136 33.655528 
L 205.005677 33.210839 
L 207.162217 32.771667 
L 209.318757 32.338013 
L 211.475298 31.909876 
L 213.631838 31.487255 
L 215.788378 31.070152 
L 217.944919 30.658566 
L 220.101459 30.252497 
L 222.258 29.851946 
L 224.41454 29.456911 
L 226.57108 29.067394 
L 228.727621 28.683393 
L 230.884161 28.30491 
L 233.040702 27.931944 
L 235.197242 27.564495 
L 237.353782 27.202563 
L 239.510323 26.846148 
L 241.666863 26.495251 
L 243.823403 26.14987 
L 245.979944 25.810007 
L 248.136484 25.475661 
L 250.293025 25.146832 
L 252.449565 24.82352 
L 254.606105 24.505725 
L 256.762646 24.193447 
L 258.919186 23.886687 
L 261.075726 23.585443 
L 263.232267 23.289717 
L 265.388807 22.999508 
L 267.545348 22.714816 
L 269.701888 22.435641 
L 271.858428 22.161983 
L 274.014969 21.893842 
L 276.171509 21.631219 
L 278.32805 21.374112 
L 280.48459 21.122523 
L 282.64113 20.876451 
L 284.797671 20.635896 
L 286.954211 20.400858 
L 289.110751 20.171337 
L 291.267292 19.947333 
L 293.423832 19.728847 
L 295.580373 19.515877 
" clip-path="url(#pb849999e90)" style="fill: none; stroke: #ff9400; stroke-width: 1.5; stroke-linecap: square"/>
   </g>
   <g id="line2d_31">
    <path d="M 82.082875 47.861275 
L 84.239415 47.172375 
L 86.395956 46.491574 
L 88.552496 45.818873 
L 90.709036 45.154272 
L 92.865577 44.49777 
L 95.022117 43.849368 
L 97.178658 43.209065 
L 99.335198 42.576863 
L 101.491738 41.952759 
L 103.648279 41.336756 
L 105.804819 40.728852 
L 107.961359 40.129047 
L 110.1179 39.537343 
L 112.27444 38.953738 
L 114.430981 38.378232 
L 116.587521 37.810826 
L 118.744061 37.25152 
L 120.900602 36.700313 
L 123.057142 36.157206 
L 125.213682 35.622199 
L 127.370223 35.095291 
L 129.526763 34.576483 
L 131.683304 34.065775 
L 133.839844 33.563166 
L 135.996384 33.068657 
L 138.152925 32.582248 
L 140.309465 32.103938 
L 142.466006 31.633727 
L 144.622546 31.171617 
L 146.779086 30.717606 
L 148.935627 30.271694 
L 151.092167 29.833883 
L 153.248707 29.40417 
L 155.405248 28.982558 
L 157.561788 28.569045 
L 159.718329 28.163632 
L 161.874869 27.766318 
L 164.031409 27.377104 
L 166.18795 26.99599 
L 168.34449 26.622975 
L 170.50103 26.25806 
L 172.657571 25.901245 
L 174.814111 25.552529 
L 176.970652 25.211913 
L 179.127192 24.879396 
L 181.283732 24.554979 
L 183.440273 24.238662 
L 185.596813 23.930444 
L 187.753354 23.630326 
L 189.909894 23.338308 
L 192.066434 23.054389 
L 194.222975 22.77857 
L 196.379515 22.510851 
L 198.536055 22.251231 
L 200.692596 21.99971 
L 202.849136 21.75629 
L 205.005677 21.520969 
L 207.162217 21.293748 
L 209.318757 21.074626 
L 211.475298 20.863604 
L 213.631838 20.660681 
L 215.788378 20.465858 
L 217.944919 20.279135 
L 220.101459 20.100512 
L 222.258 19.929988 
L 224.41454 19.767564 
L 226.57108 19.613239 
L 228.727621 19.467014 
L 230.884161 19.328888 
L 233.040702 19.198863 
L 235.197242 19.076936 
L 237.353782 18.96311 
L 239.510323 18.857383 
L 241.666863 18.759756 
L 243.823403 18.670228 
L 245.979944 18.5888 
L 248.136484 18.515472 
L 250.293025 18.450243 
L 252.449565 18.393114 
L 254.606105 18.344085 
L 256.762646 18.303155 
L 258.919186 18.270325 
L 261.075726 18.245594 
L 263.232267 18.228963 
L 265.388807 18.220432 
L 267.545348 18.22 
L 269.701888 18.227668 
L 271.858428 18.243436 
L 274.014969 18.267303 
L 276.171509 18.29927 
L 278.32805 18.339336 
L 280.48459 18.387502 
L 282.64113 18.443768 
L 284.797671 18.508133 
L 286.954211 18.580598 
L 289.110751 18.661163 
L 291.267292 18.749827 
L 293.423832 18.846591 
L 295.580373 18.951455 
" clip-path="url(#pb849999e90)" style="fill: none; stroke: #800000; stroke-width: 1.5; stroke-linecap: square"/>
   </g>
   <g id="patch_3">
    <path d="M 71.408 174.04 
L 71.408 10.8 
" style="fill: none; stroke: #000000; stroke-width: 0.8; stroke-linejoin: miter; stroke-linecap: square"/>
   </g>
   <g id="patch_4">
    <path d="M 306.255247 174.04 
L 306.255247 10.8 
" style="fill: none; stroke: #000000; stroke-width: 0.8; stroke-linejoin: miter; stroke-linecap: square"/>
   </g>
   <g id="patch_5">
    <path d="M 71.408 174.04 
L 306.255247 174.04 
" style="fill: none; stroke: #000000; stroke-width: 0.8; stroke-linejoin: miter; stroke-linecap: square"/>
   </g>
   <g id="patch_6">
    <path d="M 71.408 10.8 
L 306.255247 10.8 
" style="fill: none; stroke: #000000; stroke-width: 0.8; stroke-linejoin: miter; stroke-linecap: square"/>
   </g>
   <g id="legend_1">
    <g id="patch_7">
     <path d="M 315.255247 162.878 
L 420.455247 162.878 
Q 422.455247 162.878 422.455247 160.878 
L 422.455247 88.385812 
Q 422.455247 86.385812 420.455247 86.385812 
L 315.255247 86.385812 
Q 313.255247 86.385812 313.255247 88.385812 
L 313.255247 160.878 
Q 313.255247 162.878 315.255247 162.878 
z
" style="fill: #4d4d4d; opacity: 0.5; stroke: #4d4d4d; stroke-linejoin: miter"/>
    </g>
    <g id="patch_8">
     <path d="M 313.255247 160.878 
L 418.455247 160.878 
Q 420.455247 160.878 420.455247 158.878 
L 420.455247 86.385812 
Q 420.455247 84.385812 418.455247 84.385812 
L 313.255247 84.385812 
Q 311.255247 84.385812 311.255247 86.385812 
L 311.255247 158.878 
Q 311.255247 160.878 313.255247 160.878 
z
" style="fill: #ffffff; stroke: #cccccc; stroke-linejoin: miter"/>
    </g>
    <g id="line2d_32">
     <path d="M 315.255247 92.48425 
L 325.255247 92.48425 
L 335.255247 92.48425 
" style="fill: none; stroke: #000080; stroke-width: 1.5; stroke-linecap: square"/>
    </g>
    <g id="text_16">
     <!-- $\delta_e = 0$, $J = 1.60$ -->
     <g transform="translate(343.255247 95.98425) scale(0.1 -0.1)">
      <defs>
       <path id="DejaVuSans-3d" d="M 678 2906 
L 4684 2906 
L 4684 2381 
L 678 2381 
L 678 2906 
z
M 678 1631 
L 4684 1631 
L 4684 1100 
L 678 1100 
L 678 1631 
z
" transform="scale(0.015625)"/>
       <path id="DejaVuSans-2c" d="M 750 794 
L 1409 794 
L 1409 256 
L 897 -744 
L 494 -744 
L 750 256 
L 750 794 
z
" transform="scale(0.015625)"/>
       <path id="DejaVuSans-Oblique-4a" d="M 1069 4666 
L 1703 4666 
L 856 325 
Q 691 -522 298 -901 
Q -94 -1281 -800 -1281 
L -1050 -1281 
L -947 -750 
L -750 -750 
Q -328 -750 -109 -509 
Q 109 -269 225 325 
L 1069 4666 
z
" transform="scale(0.015625)"/>
      </defs>
      <use xlink:href="#DejaVuSans-Oblique-3b4" transform="translate(0 0.78125)"/>
      <use xlink:href="#DejaVuSans-Oblique-65" transform="translate(61.181641 -15.625) scale(0.7)"/>
      <use xlink:href="#DejaVuSans-3d" transform="translate(126.464844 0.78125)"/>
      <use xlink:href="#DejaVuSans-30" transform="translate(229.736328 0.78125)"/>
      <use xlink:href="#DejaVuSans-2c" transform="translate(293.359375 0.78125)"/>
      <use xlink:href="#DejaVuSans-20" transform="translate(325.146484 0.78125)"/>
      <use xlink:href="#DejaVuSans-Oblique-4a" transform="translate(356.933594 0.78125)"/>
      <use xlink:href="#DejaVuSans-3d" transform="translate(405.908203 0.78125)"/>
      <use xlink:href="#DejaVuSans-31" transform="translate(509.179688 0.78125)"/>
      <use xlink:href="#DejaVuSans-2e" transform="translate(572.802734 0.78125)"/>
      <use xlink:href="#DejaVuSans-36" transform="translate(604.589844 0.78125)"/>
      <use xlink:href="#DejaVuSans-30" transform="translate(668.212891 0.78125)"/>
     </g>
    </g>
    <g id="line2d_33">
     <path d="M 315.255247 107.182688 
L 325.255247 107.182688 
L 335.255247 107.182688 
" style="fill: none; stroke: #0080ff; stroke-width: 1.5; stroke-linecap: square"/>
    </g>
    <g id="text_17">
     <!-- $\delta_e = 0$, $J = 1.80$ -->
     <g transform="translate(343.255247 110.682688) scale(0.1 -0.1)">
      <use xlink:href="#DejaVuSans-Oblique-3b4" transform="translate(0 0.78125)"/>
      <use xlink:href="#DejaVuSans-Oblique-65" transform="translate(61.181641 -15.625) scale(0.7)"/>
      <use xlink:href="#DejaVuSans-3d" transform="translate(126.464844 0.78125)"/>
      <use xlink:href="#DejaVuSans-30" transform="translate(229.736328 0.78125)"/>
      <use xlink:href="#DejaVuSans-2c" transform="translate(293.359375 0.78125)"/>
      <use xlink:href="#DejaVuSans-20" transform="translate(325.146484 0.78125)"/>
      <use xlink:href="#DejaVuSans-Oblique-4a" transform="translate(356.933594 0.78125)"/>
      <use xlink:href="#DejaVuSans-3d" transform="translate(405.908203 0.78125)"/>
      <use xlink:href="#DejaVuSans-31" transform="translate(509.179688 0.78125)"/>
      <use xlink:href="#DejaVuSans-2e" transform="translate(572.802734 0.78125)"/>
      <use xlink:href="#DejaVuSans-38" transform="translate(601.964844 0.78125)"/>
      <use xlink:href="#DejaVuSans-30" transform="translate(665.587891 0.78125)"/>
     </g>
    </g>
    <g id="line2d_34">
     <path d="M 315.255247 121.881125 
L 325.255247 121.881125 
L 335.255247 121.881125 
" style="fill: none; stroke: #7dff7a; stroke-width: 1.5; stroke-linecap: square"/>
    </g>
    <g id="text_18">
     <!-- $\delta_e = 0$, $J = 2.00$ -->
     <g transform="translate(343.255247 125.381125) scale(0.1 -0.1)">
      <use xlink:href="#DejaVuSans-Oblique-3b4" transform="translate(0 0.78125)"/>
      <use xlink:href="#DejaVuSans-Oblique-65" transform="translate(61.181641 -15.625) scale(0.7)"/>
      <use xlink:href="#DejaVuSans-3d" transform="translate(126.464844 0.78125)"/>
      <use xlink:href="#DejaVuSans-30" transform="translate(229.736328 0.78125)"/>
      <use xlink:href="#DejaVuSans-2c" transform="translate(293.359375 0.78125)"/>
      <use xlink:href="#DejaVuSans-20" transform="translate(325.146484 0.78125)"/>
      <use xlink:href="#DejaVuSans-Oblique-4a" transform="translate(356.933594 0.78125)"/>
      <use xlink:href="#DejaVuSans-3d" transform="translate(405.908203 0.78125)"/>
      <use xlink:href="#DejaVuSans-32" transform="translate(509.179688 0.78125)"/>
      <use xlink:href="#DejaVuSans-2e" transform="translate(572.802734 0.78125)"/>
      <use xlink:href="#DejaVuSans-30" transform="translate(604.589844 0.78125)"/>
      <use xlink:href="#DejaVuSans-30" transform="translate(668.212891 0.78125)"/>
     </g>
    </g>
    <g id="line2d_35">
     <path d="M 315.255247 136.579563 
L 325.255247 136.579563 
L 335.255247 136.579563 
" style="fill: none; stroke: #ff9400; stroke-width: 1.5; stroke-linecap: square"/>
    </g>
    <g id="text_19">
     <!-- $\delta_e = 0$, $J = 2.20$ -->
     <g transform="translate(343.255247 140.079563) scale(0.1 -0.1)">
      <use xlink:href="#DejaVuSans-Oblique-3b4" transform="translate(0 0.78125)"/>
      <use xlink:href="#DejaVuSans-Oblique-65" transform="translate(61.181641 -15.625) scale(0.7)"/>
      <use xlink:href="#DejaVuSans-3d" transform="translate(126.464844 0.78125)"/>
      <use xlink:href="#DejaVuSans-30" transform="translate(229.736328 0.78125)"/>
      <use xlink:href="#DejaVuSans-2c" transform="translate(293.359375 0.78125)"/>
      <use xlink:href="#DejaVuSans-20" transform="translate(325.146484 0.78125)"/>
      <use xlink:href="#DejaVuSans-Oblique-4a" transform="translate(356.933594 0.78125)"/>
      <use xlink:href="#DejaVuSans-3d" transform="translate(405.908203 0.78125)"/>
      <use xlink:href="#DejaVuSans-32" transform="translate(509.179688 0.78125)"/>
      <use xlink:href="#DejaVuSans-2e" transform="translate(572.802734 0.78125)"/>
      <use xlink:href="#DejaVuSans-32" transform="translate(599.089844 0.78125)"/>
      <use xlink:href="#DejaVuSans-30" transform="translate(662.712891 0.78125)"/>
     </g>
    </g>
    <g id="line2d_36">
     <path d="M 315.255247 151.278 
L 325.255247 151.278 
L 335.255247 151.278 
" style="fill: none; stroke: #800000; stroke-width: 1.5; stroke-linecap: square"/>
    </g>
    <g id="text_20">
     <!-- $\delta_e = 0$, $J = 2.40$ -->
     <g transform="translate(343.255247 154.778) scale(0.1 -0.1)">
      <use xlink:href="#DejaVuSans-Oblique-3b4" transform="translate(0 0.78125)"/>
      <use xlink:href="#DejaVuSans-Oblique-65" transform="translate(61.181641 -15.625) scale(0.7)"/>
      <use xlink:href="#DejaVuSans-3d" transform="translate(126.464844 0.78125)"/>
      <use xlink:href="#DejaVuSans-30" transform="translate(229.736328 0.78125)"/>
      <use xlink:href="#DejaVuSans-2c" transform="translate(293.359375 0.78125)"/>
      <use xlink:href="#DejaVuSans-20" transform="translate(325.146484 0.78125)"/>
      <use xlink:href="#DejaVuSans-Oblique-4a" transform="translate(356.933594 0.78125)"/>
      <use xlink:href="#DejaVuSans-3d" transform="translate(405.908203 0.78125)"/>
      <use xlink:href="#DejaVuSans-32" transform="translate(509.179688 0.78125)"/>
      <use xlink:href="#DejaVuSans-2e" transform="translate(572.802734 0.78125)"/>
      <use xlink:href="#DejaVuSans-34" transform="translate(604.589844 0.78125)"/>
      <use xlink:href="#DejaVuSans-30" transform="translate(668.212891 0.78125)"/>
     </g>
    </g>
   </g>
  </g>
 </g>
 <defs>
  <clipPath id="pb849999e90">
   <rect x="71.408" y="10.8" width="234.847247" height="163.24"/>
  </clipPath>
 </defs>
</svg>
