<?xml version="1.0" encoding="utf-8" standalone="no"?>
<!DOCTYPE svg PUBLIC "-//W3C//DTD SVG 1.1//EN"
  "http://www.w3.org/Graphics/SVG/1.1/DTD/svg11.dtd">
<svg xmlns:xlink="http://www.w3.org/1999/xlink" width="432pt" height="216pt" viewBox="0 0 432 216" xmlns="http://www.w3.org/2000/svg" version="1.1">
 <metadata>
  <rdf:RDF xmlns:dc="http://purl.org/dc/elements/1.1/" xmlns:cc="http://creativecommons.org/ns#" xmlns:rdf="http://www.w3.org/1999/02/22-rdf-syntax-ns#">
   <cc:Work>
    <dc:type rdf:resource="http://purl.org/dc/dcmitype/StillImage"/>
    <dc:date>2025-03-28T12:22:22.000227</dc:date>
    <dc:format>image/svg+xml</dc:format>
    <dc:creator>
     <cc:Agent>
      <dc:title>Matplotlib v3.9.2, https://matplotlib.org/</dc:title>
     </cc:Agent>
    </dc:creator>
   </cc:Work>
  </rdf:RDF>
 </metadata>
 <defs>
  <style type="text/css">*{stroke-linejoin: round; stroke-linecap: butt}</style>
 </defs>
 <g id="figure_1">
  <g id="patch_1">
   <path d="M 0 216 
L 432 216 
L 432 0 
L 0 0 
z
" style="fill: #ffffff"/>
  </g>
  <g id="axes_1">
   <g id="patch_2">
    <path d="M 77.798 174.04 
L 306.255247 174.04 
L 306.255247 10.8 
L 77.798 10.8 
z
" style="fill: #ffffff"/>
   </g>
   <g id="matplotlib.axis_1">
    <g id="xtick_1">
     <g id="line2d_1">
      <path d="M 88.18242 174.04 
L 88.18242 10.8 
" clip-path="url(#p79defb5cac)" style="fill: none; stroke: #b0b0b0; stroke-width: 0.8; stroke-linecap: square"/>
     </g>
     <g id="line2d_2">
      <defs>
       <path id="m7c674a79c7" d="M 0 0 
L 0 3.5 
" style="stroke: #000000; stroke-width: 0.8"/>
      </defs>
      <g>
       <use xlink:href="#m7c674a79c7" x="88.18242" y="174.04" style="stroke: #000000; stroke-width: 0.8"/>
      </g>
     </g>
     <g id="text_1">
      <!-- −4 -->
      <g transform="translate(80.811327 188.638438) scale(0.1 -0.1)">
       <defs>
        <path id="DejaVuSans-2212" d="M 678 2272 
L 4684 2272 
L 4684 1741 
L 678 1741 
L 678 2272 
z
" transform="scale(0.015625)"/>
        <path id="DejaVuSans-34" d="M 2419 4116 
L 825 1625 
L 2419 1625 
L 2419 4116 
z
M 2253 4666 
L 3047 4666 
L 3047 1625 
L 3713 1625 
L 3713 1100 
L 3047 1100 
L 3047 0 
L 2419 0 
L 2419 1100 
L 313 1100 
L 313 1709 
L 2253 4666 
z
" transform="scale(0.015625)"/>
       </defs>
       <use xlink:href="#DejaVuSans-2212"/>
       <use xlink:href="#DejaVuSans-34" x="83.789062"/>
      </g>
     </g>
    </g>
    <g id="xtick_2">
     <g id="line2d_3">
      <path d="M 125.943949 174.04 
L 125.943949 10.8 
" clip-path="url(#p79defb5cac)" style="fill: none; stroke: #b0b0b0; stroke-width: 0.8; stroke-linecap: square"/>
     </g>
     <g id="line2d_4">
      <g>
       <use xlink:href="#m7c674a79c7" x="125.943949" y="174.04" style="stroke: #000000; stroke-width: 0.8"/>
      </g>
     </g>
     <g id="text_2">
      <!-- −2 -->
      <g transform="translate(118.572855 188.638438) scale(0.1 -0.1)">
       <defs>
        <path id="DejaVuSans-32" d="M 1228 531 
L 3431 531 
L 3431 0 
L 469 0 
L 469 531 
Q 828 903 1448 1529 
Q 2069 2156 2228 2338 
Q 2531 2678 2651 2914 
Q 2772 3150 2772 3378 
Q 2772 3750 2511 3984 
Q 2250 4219 1831 4219 
Q 1534 4219 1204 4116 
Q 875 4013 500 3803 
L 500 4441 
Q 881 4594 1212 4672 
Q 1544 4750 1819 4750 
Q 2544 4750 2975 4387 
Q 3406 4025 3406 3419 
Q 3406 3131 3298 2873 
Q 3191 2616 2906 2266 
Q 2828 2175 2409 1742 
Q 1991 1309 1228 531 
z
" transform="scale(0.015625)"/>
       </defs>
       <use xlink:href="#DejaVuSans-2212"/>
       <use xlink:href="#DejaVuSans-32" x="83.789062"/>
      </g>
     </g>
    </g>
    <g id="xtick_3">
     <g id="line2d_5">
      <path d="M 163.705477 174.04 
L 163.705477 10.8 
" clip-path="url(#p79defb5cac)" style="fill: none; stroke: #b0b0b0; stroke-width: 0.8; stroke-linecap: square"/>
     </g>
     <g id="line2d_6">
      <g>
       <use xlink:href="#m7c674a79c7" x="163.705477" y="174.04" style="stroke: #000000; stroke-width: 0.8"/>
      </g>
     </g>
     <g id="text_3">
      <!-- 0 -->
      <g transform="translate(160.524227 188.638438) scale(0.1 -0.1)">
       <defs>
        <path id="DejaVuSans-30" d="M 2034 4250 
Q 1547 4250 1301 3770 
Q 1056 3291 1056 2328 
Q 1056 1369 1301 889 
Q 1547 409 2034 409 
Q 2525 409 2770 889 
Q 3016 1369 3016 2328 
Q 3016 3291 2770 3770 
Q 2525 4250 2034 4250 
z
M 2034 4750 
Q 2819 4750 3233 4129 
Q 3647 3509 3647 2328 
Q 3647 1150 3233 529 
Q 2819 -91 2034 -91 
Q 1250 -91 836 529 
Q 422 1150 422 2328 
Q 422 3509 836 4129 
Q 1250 4750 2034 4750 
z
" transform="scale(0.015625)"/>
       </defs>
       <use xlink:href="#DejaVuSans-30"/>
      </g>
     </g>
    </g>
    <g id="xtick_4">
     <g id="line2d_7">
      <path d="M 201.467006 174.04 
L 201.467006 10.8 
" clip-path="url(#p79defb5cac)" style="fill: none; stroke: #b0b0b0; stroke-width: 0.8; stroke-linecap: square"/>
     </g>
     <g id="line2d_8">
      <g>
       <use xlink:href="#m7c674a79c7" x="201.467006" y="174.04" style="stroke: #000000; stroke-width: 0.8"/>
      </g>
     </g>
     <g id="text_4">
      <!-- 2 -->
      <g transform="translate(198.285756 188.638438) scale(0.1 -0.1)">
       <use xlink:href="#DejaVuSans-32"/>
      </g>
     </g>
    </g>
    <g id="xtick_5">
     <g id="line2d_9">
      <path d="M 239.228534 174.04 
L 239.228534 10.8 
" clip-path="url(#p79defb5cac)" style="fill: none; stroke: #b0b0b0; stroke-width: 0.8; stroke-linecap: square"/>
     </g>
     <g id="line2d_10">
      <g>
       <use xlink:href="#m7c674a79c7" x="239.228534" y="174.04" style="stroke: #000000; stroke-width: 0.8"/>
      </g>
     </g>
     <g id="text_5">
      <!-- 4 -->
      <g transform="translate(236.047284 188.638438) scale(0.1 -0.1)">
       <use xlink:href="#DejaVuSans-34"/>
      </g>
     </g>
    </g>
    <g id="xtick_6">
     <g id="line2d_11">
      <path d="M 276.990063 174.04 
L 276.990063 10.8 
" clip-path="url(#p79defb5cac)" style="fill: none; stroke: #b0b0b0; stroke-width: 0.8; stroke-linecap: square"/>
     </g>
     <g id="line2d_12">
      <g>
       <use xlink:href="#m7c674a79c7" x="276.990063" y="174.04" style="stroke: #000000; stroke-width: 0.8"/>
      </g>
     </g>
     <g id="text_6">
      <!-- 6 -->
      <g transform="translate(273.808813 188.638438) scale(0.1 -0.1)">
       <defs>
        <path id="DejaVuSans-36" d="M 2113 2584 
Q 1688 2584 1439 2293 
Q 1191 2003 1191 1497 
Q 1191 994 1439 701 
Q 1688 409 2113 409 
Q 2538 409 2786 701 
Q 3034 994 3034 1497 
Q 3034 2003 2786 2293 
Q 2538 2584 2113 2584 
z
M 3366 4563 
L 3366 3988 
Q 3128 4100 2886 4159 
Q 2644 4219 2406 4219 
Q 1781 4219 1451 3797 
Q 1122 3375 1075 2522 
Q 1259 2794 1537 2939 
Q 1816 3084 2150 3084 
Q 2853 3084 3261 2657 
Q 3669 2231 3669 1497 
Q 3669 778 3244 343 
Q 2819 -91 2113 -91 
Q 1303 -91 875 529 
Q 447 1150 447 2328 
Q 447 3434 972 4092 
Q 1497 4750 2381 4750 
Q 2619 4750 2861 4703 
Q 3103 4656 3366 4563 
z
" transform="scale(0.015625)"/>
       </defs>
       <use xlink:href="#DejaVuSans-36"/>
      </g>
     </g>
    </g>
    <g id="text_7">
     <!-- $\alpha$ -->
     <g transform="translate(188.726624 202.316563) scale(0.1 -0.1)">
      <defs>
       <path id="DejaVuSans-Oblique-3b1" d="M 2619 1628 
L 2622 2350 
Q 2625 3088 2069 3091 
Q 1653 3094 1394 2747 
Q 1069 2319 959 1747 
Q 825 1059 994 731 
Q 1169 397 1547 397 
Q 1966 397 2319 1063 
L 2619 1628 
z
M 2166 3578 
Q 3141 3594 3128 2584 
Q 3128 2584 3616 3500 
L 4128 3500 
L 3119 1603 
L 3109 919 
Q 3109 766 3194 638 
Q 3291 488 3391 488 
L 3669 488 
L 3575 0 
L 3228 0 
Q 2934 0 2722 263 
Q 2622 394 2619 669 
Q 2416 334 2066 50 
Q 1900 -81 1453 -78 
Q 722 -72 456 397 
Q 184 884 353 1747 
Q 534 2675 1009 3097 
Q 1544 3569 2166 3578 
z
" transform="scale(0.015625)"/>
      </defs>
      <use xlink:href="#DejaVuSans-Oblique-3b1" transform="translate(0 0.84375)"/>
     </g>
    </g>
   </g>
   <g id="matplotlib.axis_2">
    <g id="ytick_1">
     <g id="line2d_13">
      <path d="M 77.798 173.564598 
L 306.255247 173.564598 
" clip-path="url(#p79defb5cac)" style="fill: none; stroke: #b0b0b0; stroke-width: 0.8; stroke-linecap: square"/>
     </g>
     <g id="line2d_14">
      <defs>
       <path id="mf342ffe19c" d="M 0 0 
L -3.5 0 
" style="stroke: #000000; stroke-width: 0.8"/>
      </defs>
      <g>
       <use xlink:href="#mf342ffe19c" x="77.798" y="173.564598" style="stroke: #000000; stroke-width: 0.8"/>
      </g>
     </g>
     <g id="text_8">
      <!-- −0.0525 -->
      <g transform="translate(27.427687 177.363817) scale(0.1 -0.1)">
       <defs>
        <path id="DejaVuSans-2e" d="M 684 794 
L 1344 794 
L 1344 0 
L 684 0 
L 684 794 
z
" transform="scale(0.015625)"/>
        <path id="DejaVuSans-35" d="M 691 4666 
L 3169 4666 
L 3169 4134 
L 1269 4134 
L 1269 2991 
Q 1406 3038 1543 3061 
Q 1681 3084 1819 3084 
Q 2600 3084 3056 2656 
Q 3513 2228 3513 1497 
Q 3513 744 3044 326 
Q 2575 -91 1722 -91 
Q 1428 -91 1123 -41 
Q 819 9 494 109 
L 494 744 
Q 775 591 1075 516 
Q 1375 441 1709 441 
Q 2250 441 2565 725 
Q 2881 1009 2881 1497 
Q 2881 1984 2565 2268 
Q 2250 2553 1709 2553 
Q 1456 2553 1204 2497 
Q 953 2441 691 2322 
L 691 4666 
z
" transform="scale(0.015625)"/>
       </defs>
       <use xlink:href="#DejaVuSans-2212"/>
       <use xlink:href="#DejaVuSans-30" x="83.789062"/>
       <use xlink:href="#DejaVuSans-2e" x="147.412109"/>
       <use xlink:href="#DejaVuSans-30" x="179.199219"/>
       <use xlink:href="#DejaVuSans-35" x="242.822266"/>
       <use xlink:href="#DejaVuSans-32" x="306.445312"/>
       <use xlink:href="#DejaVuSans-35" x="370.068359"/>
      </g>
     </g>
    </g>
    <g id="ytick_2">
     <g id="line2d_15">
      <path d="M 77.798 153.03764 
L 306.255247 153.03764 
" clip-path="url(#p79defb5cac)" style="fill: none; stroke: #b0b0b0; stroke-width: 0.8; stroke-linecap: square"/>
     </g>
     <g id="line2d_16">
      <g>
       <use xlink:href="#mf342ffe19c" x="77.798" y="153.03764" style="stroke: #000000; stroke-width: 0.8"/>
      </g>
     </g>
     <g id="text_9">
      <!-- −0.0500 -->
      <g transform="translate(27.427687 156.836859) scale(0.1 -0.1)">
       <use xlink:href="#DejaVuSans-2212"/>
       <use xlink:href="#DejaVuSans-30" x="83.789062"/>
       <use xlink:href="#DejaVuSans-2e" x="147.412109"/>
       <use xlink:href="#DejaVuSans-30" x="179.199219"/>
       <use xlink:href="#DejaVuSans-35" x="242.822266"/>
       <use xlink:href="#DejaVuSans-30" x="306.445312"/>
       <use xlink:href="#DejaVuSans-30" x="370.068359"/>
      </g>
     </g>
    </g>
    <g id="ytick_3">
     <g id="line2d_17">
      <path d="M 77.798 132.510682 
L 306.255247 132.510682 
" clip-path="url(#p79defb5cac)" style="fill: none; stroke: #b0b0b0; stroke-width: 0.8; stroke-linecap: square"/>
     </g>
     <g id="line2d_18">
      <g>
       <use xlink:href="#mf342ffe19c" x="77.798" y="132.510682" style="stroke: #000000; stroke-width: 0.8"/>
      </g>
     </g>
     <g id="text_10">
      <!-- −0.0475 -->
      <g transform="translate(27.427687 136.309901) scale(0.1 -0.1)">
       <defs>
        <path id="DejaVuSans-37" d="M 525 4666 
L 3525 4666 
L 3525 4397 
L 1831 0 
L 1172 0 
L 2766 4134 
L 525 4134 
L 525 4666 
z
" transform="scale(0.015625)"/>
       </defs>
       <use xlink:href="#DejaVuSans-2212"/>
       <use xlink:href="#DejaVuSans-30" x="83.789062"/>
       <use xlink:href="#DejaVuSans-2e" x="147.412109"/>
       <use xlink:href="#DejaVuSans-30" x="179.199219"/>
       <use xlink:href="#DejaVuSans-34" x="242.822266"/>
       <use xlink:href="#DejaVuSans-37" x="306.445312"/>
       <use xlink:href="#DejaVuSans-35" x="370.068359"/>
      </g>
     </g>
    </g>
    <g id="ytick_4">
     <g id="line2d_19">
      <path d="M 77.798 111.983725 
L 306.255247 111.983725 
" clip-path="url(#p79defb5cac)" style="fill: none; stroke: #b0b0b0; stroke-width: 0.8; stroke-linecap: square"/>
     </g>
     <g id="line2d_20">
      <g>
       <use xlink:href="#mf342ffe19c" x="77.798" y="111.983725" style="stroke: #000000; stroke-width: 0.8"/>
      </g>
     </g>
     <g id="text_11">
      <!-- −0.0450 -->
      <g transform="translate(27.427687 115.782943) scale(0.1 -0.1)">
       <use xlink:href="#DejaVuSans-2212"/>
       <use xlink:href="#DejaVuSans-30" x="83.789062"/>
       <use xlink:href="#DejaVuSans-2e" x="147.412109"/>
       <use xlink:href="#DejaVuSans-30" x="179.199219"/>
       <use xlink:href="#DejaVuSans-34" x="242.822266"/>
       <use xlink:href="#DejaVuSans-35" x="306.445312"/>
       <use xlink:href="#DejaVuSans-30" x="370.068359"/>
      </g>
     </g>
    </g>
    <g id="ytick_5">
     <g id="line2d_21">
      <path d="M 77.798 91.456767 
L 306.255247 91.456767 
" clip-path="url(#p79defb5cac)" style="fill: none; stroke: #b0b0b0; stroke-width: 0.8; stroke-linecap: square"/>
     </g>
     <g id="line2d_22">
      <g>
       <use xlink:href="#mf342ffe19c" x="77.798" y="91.456767" style="stroke: #000000; stroke-width: 0.8"/>
      </g>
     </g>
     <g id="text_12">
      <!-- −0.0425 -->
      <g transform="translate(27.427687 95.255985) scale(0.1 -0.1)">
       <use xlink:href="#DejaVuSans-2212"/>
       <use xlink:href="#DejaVuSans-30" x="83.789062"/>
       <use xlink:href="#DejaVuSans-2e" x="147.412109"/>
       <use xlink:href="#DejaVuSans-30" x="179.199219"/>
       <use xlink:href="#DejaVuSans-34" x="242.822266"/>
       <use xlink:href="#DejaVuSans-32" x="306.445312"/>
       <use xlink:href="#DejaVuSans-35" x="370.068359"/>
      </g>
     </g>
    </g>
    <g id="ytick_6">
     <g id="line2d_23">
      <path d="M 77.798 70.929809 
L 306.255247 70.929809 
" clip-path="url(#p79defb5cac)" style="fill: none; stroke: #b0b0b0; stroke-width: 0.8; stroke-linecap: square"/>
     </g>
     <g id="line2d_24">
      <g>
       <use xlink:href="#mf342ffe19c" x="77.798" y="70.929809" style="stroke: #000000; stroke-width: 0.8"/>
      </g>
     </g>
     <g id="text_13">
      <!-- −0.0400 -->
      <g transform="translate(27.427687 74.729028) scale(0.1 -0.1)">
       <use xlink:href="#DejaVuSans-2212"/>
       <use xlink:href="#DejaVuSans-30" x="83.789062"/>
       <use xlink:href="#DejaVuSans-2e" x="147.412109"/>
       <use xlink:href="#DejaVuSans-30" x="179.199219"/>
       <use xlink:href="#DejaVuSans-34" x="242.822266"/>
       <use xlink:href="#DejaVuSans-30" x="306.445312"/>
       <use xlink:href="#DejaVuSans-30" x="370.068359"/>
      </g>
     </g>
    </g>
    <g id="ytick_7">
     <g id="line2d_25">
      <path d="M 77.798 50.402851 
L 306.255247 50.402851 
" clip-path="url(#p79defb5cac)" style="fill: none; stroke: #b0b0b0; stroke-width: 0.8; stroke-linecap: square"/>
     </g>
     <g id="line2d_26">
      <g>
       <use xlink:href="#mf342ffe19c" x="77.798" y="50.402851" style="stroke: #000000; stroke-width: 0.8"/>
      </g>
     </g>
     <g id="text_14">
      <!-- −0.0375 -->
      <g transform="translate(27.427687 54.20207) scale(0.1 -0.1)">
       <defs>
        <path id="DejaVuSans-33" d="M 2597 2516 
Q 3050 2419 3304 2112 
Q 3559 1806 3559 1356 
Q 3559 666 3084 287 
Q 2609 -91 1734 -91 
Q 1441 -91 1130 -33 
Q 819 25 488 141 
L 488 750 
Q 750 597 1062 519 
Q 1375 441 1716 441 
Q 2309 441 2620 675 
Q 2931 909 2931 1356 
Q 2931 1769 2642 2001 
Q 2353 2234 1838 2234 
L 1294 2234 
L 1294 2753 
L 1863 2753 
Q 2328 2753 2575 2939 
Q 2822 3125 2822 3475 
Q 2822 3834 2567 4026 
Q 2313 4219 1838 4219 
Q 1578 4219 1281 4162 
Q 984 4106 628 3988 
L 628 4550 
Q 988 4650 1302 4700 
Q 1616 4750 1894 4750 
Q 2613 4750 3031 4423 
Q 3450 4097 3450 3541 
Q 3450 3153 3228 2886 
Q 3006 2619 2597 2516 
z
" transform="scale(0.015625)"/>
       </defs>
       <use xlink:href="#DejaVuSans-2212"/>
       <use xlink:href="#DejaVuSans-30" x="83.789062"/>
       <use xlink:href="#DejaVuSans-2e" x="147.412109"/>
       <use xlink:href="#DejaVuSans-30" x="179.199219"/>
       <use xlink:href="#DejaVuSans-33" x="242.822266"/>
       <use xlink:href="#DejaVuSans-37" x="306.445312"/>
       <use xlink:href="#DejaVuSans-35" x="370.068359"/>
      </g>
     </g>
    </g>
    <g id="ytick_8">
     <g id="line2d_27">
      <path d="M 77.798 29.875893 
L 306.255247 29.875893 
" clip-path="url(#p79defb5cac)" style="fill: none; stroke: #b0b0b0; stroke-width: 0.8; stroke-linecap: square"/>
     </g>
     <g id="line2d_28">
      <g>
       <use xlink:href="#mf342ffe19c" x="77.798" y="29.875893" style="stroke: #000000; stroke-width: 0.8"/>
      </g>
     </g>
     <g id="text_15">
      <!-- −0.0350 -->
      <g transform="translate(27.427687 33.675112) scale(0.1 -0.1)">
       <use xlink:href="#DejaVuSans-2212"/>
       <use xlink:href="#DejaVuSans-30" x="83.789062"/>
       <use xlink:href="#DejaVuSans-2e" x="147.412109"/>
       <use xlink:href="#DejaVuSans-30" x="179.199219"/>
       <use xlink:href="#DejaVuSans-33" x="242.822266"/>
       <use xlink:href="#DejaVuSans-35" x="306.445312"/>
       <use xlink:href="#DejaVuSans-30" x="370.068359"/>
      </g>
     </g>
    </g>
    <g id="text_16">
     <!-- d$C_M$ / d$\alpha$ -->
     <g transform="translate(21.348 113.62) rotate(-90) scale(0.1 -0.1)">
      <defs>
       <path id="DejaVuSans-64" d="M 2906 2969 
L 2906 4863 
L 3481 4863 
L 3481 0 
L 2906 0 
L 2906 525 
Q 2725 213 2448 61 
Q 2172 -91 1784 -91 
Q 1150 -91 751 415 
Q 353 922 353 1747 
Q 353 2572 751 3078 
Q 1150 3584 1784 3584 
Q 2172 3584 2448 3432 
Q 2725 3281 2906 2969 
z
M 947 1747 
Q 947 1113 1208 752 
Q 1469 391 1925 391 
Q 2381 391 2643 752 
Q 2906 1113 2906 1747 
Q 2906 2381 2643 2742 
Q 2381 3103 1925 3103 
Q 1469 3103 1208 2742 
Q 947 2381 947 1747 
z
" transform="scale(0.015625)"/>
       <path id="DejaVuSans-Oblique-43" d="M 4447 4306 
L 4319 3641 
Q 4019 3944 3683 4091 
Q 3347 4238 2956 4238 
Q 2422 4238 2017 3981 
Q 1613 3725 1319 3200 
Q 1131 2863 1032 2486 
Q 934 2109 934 1728 
Q 934 1091 1264 756 
Q 1594 422 2222 422 
Q 2656 422 3056 561 
Q 3456 700 3834 978 
L 3688 231 
Q 3316 72 2936 -9 
Q 2556 -91 2175 -91 
Q 1278 -91 773 396 
Q 269 884 269 1753 
Q 269 2309 461 2846 
Q 653 3384 1013 3828 
Q 1394 4300 1883 4525 
Q 2372 4750 3022 4750 
Q 3422 4750 3780 4639 
Q 4138 4528 4447 4306 
z
" transform="scale(0.015625)"/>
       <path id="DejaVuSans-Oblique-4d" d="M 1081 4666 
L 2028 4666 
L 2572 1522 
L 4378 4666 
L 5350 4666 
L 4441 0 
L 3828 0 
L 4622 4091 
L 2791 897 
L 2175 897 
L 1581 4103 
L 788 0 
L 172 0 
L 1081 4666 
z
" transform="scale(0.015625)"/>
       <path id="DejaVuSans-20" transform="scale(0.015625)"/>
       <path id="DejaVuSans-2f" d="M 1625 4666 
L 2156 4666 
L 531 -594 
L 0 -594 
L 1625 4666 
z
" transform="scale(0.015625)"/>
      </defs>
      <use xlink:href="#DejaVuSans-64" transform="translate(0 0.015625)"/>
      <use xlink:href="#DejaVuSans-Oblique-43" transform="translate(63.476562 0.015625)"/>
      <use xlink:href="#DejaVuSans-Oblique-4d" transform="translate(133.300781 -16.390625) scale(0.7)"/>
      <use xlink:href="#DejaVuSans-20" transform="translate(196.430664 0.015625)"/>
      <use xlink:href="#DejaVuSans-2f" transform="translate(228.217773 0.015625)"/>
      <use xlink:href="#DejaVuSans-20" transform="translate(261.90918 0.015625)"/>
      <use xlink:href="#DejaVuSans-64" transform="translate(293.696289 0.015625)"/>
      <use xlink:href="#DejaVuSans-Oblique-3b1" transform="translate(357.172852 0.015625)"/>
     </g>
    </g>
   </g>
   <g id="line2d_29">
    <path d="M 88.18242 151.409275 
L 90.280283 147.529264 
L 92.378146 143.731573 
L 94.476008 140.016201 
L 96.573871 136.383149 
L 98.671734 132.832416 
L 100.769597 129.364003 
L 102.867459 125.977909 
L 104.965322 122.674135 
L 107.063185 119.45268 
L 109.161047 116.313545 
L 111.25891 113.256729 
L 113.356773 110.282232 
L 115.454635 107.390055 
L 117.552498 104.580198 
L 119.650361 101.85266 
L 121.748223 99.207441 
L 123.846086 96.644542 
L 125.943949 94.163962 
L 128.041812 91.765702 
L 130.139674 89.449762 
L 132.237537 87.21614 
L 134.3354 85.064839 
L 136.433262 82.995857 
L 138.531125 81.009194 
L 140.628988 79.104851 
L 142.72685 77.282827 
L 144.824713 75.543123 
L 146.922576 73.885738 
L 149.020438 72.310672 
L 151.118301 70.817926 
L 153.216164 69.4075 
L 155.314027 68.079393 
L 157.411889 66.833606 
L 159.509752 65.670138 
L 161.607615 64.588989 
L 163.705477 63.59016 
L 165.80334 62.673651 
L 167.901203 61.839461 
L 169.999065 61.08759 
L 172.096928 60.418039 
L 174.194791 59.830807 
L 176.292654 59.325895 
L 178.390516 58.903303 
L 180.488379 58.563029 
L 182.586242 58.305076 
L 184.684104 58.129442 
L 186.781967 58.036127 
L 188.87983 58.025132 
L 190.977692 58.096456 
L 193.075555 58.250099 
L 195.173418 58.486063 
L 197.27128 58.804345 
L 199.369143 59.204947 
L 201.467006 59.687869 
L 203.564869 60.25311 
L 205.662731 60.900671 
L 207.760594 61.630551 
L 209.858457 62.44275 
L 211.956319 63.337269 
L 214.054182 64.314108 
L 216.152045 65.373265 
L 218.249907 66.514743 
L 220.34777 67.73854 
L 222.445633 69.044656 
L 224.543495 70.433092 
L 226.641358 71.903847 
L 228.739221 73.456922 
L 230.837084 75.092316 
L 232.934946 76.81003 
L 235.032809 78.610063 
L 237.130672 80.492416 
L 239.228534 82.457088 
L 241.326397 84.50408 
L 243.42426 86.633391 
L 245.522122 88.845022 
L 247.619985 91.138972 
L 249.717848 93.515241 
L 251.815711 95.973831 
L 253.913573 98.514739 
L 256.011436 101.137967 
L 258.109299 103.843515 
L 260.207161 106.631382 
L 262.305024 109.501568 
L 264.402887 112.454074 
L 266.500749 115.488899 
L 268.598612 118.606044 
L 270.696475 121.805508 
L 272.794337 125.087292 
L 274.8922 128.451396 
L 276.990063 131.897818 
L 279.087926 135.426561 
L 281.185788 139.037622 
L 283.283651 142.731004 
L 285.381514 146.506704 
L 287.479376 150.364725 
L 289.577239 154.305064 
L 291.675102 158.327723 
L 293.772964 162.432702 
L 295.870827 166.62 
" clip-path="url(#p79defb5cac)" style="fill: none; stroke: #000080; stroke-width: 1.5; stroke-linecap: square"/>
   </g>
   <g id="line2d_30">
    <path d="M 88.18242 117.010918 
L 90.280283 113.469818 
L 92.378146 110.011037 
L 94.476008 106.634576 
L 96.573871 103.340435 
L 98.671734 100.128613 
L 100.769597 96.99911 
L 102.867459 93.951927 
L 104.965322 90.987063 
L 107.063185 88.104519 
L 109.161047 85.304294 
L 111.25891 82.586389 
L 113.356773 79.950803 
L 115.454635 77.397537 
L 117.552498 74.92659 
L 119.650361 72.537963 
L 121.748223 70.231655 
L 123.846086 68.007667 
L 125.943949 65.865998 
L 128.041812 63.806648 
L 130.139674 61.829618 
L 132.237537 59.934908 
L 134.3354 58.122517 
L 136.433262 56.392445 
L 138.531125 54.744693 
L 140.628988 53.179261 
L 142.72685 51.696148 
L 144.824713 50.295354 
L 146.922576 48.97688 
L 149.020438 47.740725 
L 151.118301 46.58689 
L 153.216164 45.515375 
L 155.314027 44.526178 
L 157.411889 43.619302 
L 159.509752 42.794744 
L 161.607615 42.052507 
L 163.705477 41.392588 
L 165.80334 40.814989 
L 167.901203 40.31971 
L 169.999065 39.90675 
L 172.096928 39.57611 
L 174.194791 39.327789 
L 176.292654 39.161788 
L 178.390516 39.078106 
L 180.488379 39.076743 
L 182.586242 39.1577 
L 184.684104 39.320977 
L 186.781967 39.566573 
L 188.87983 39.894488 
L 190.977692 40.304723 
L 193.075555 40.797277 
L 195.173418 41.372151 
L 197.27128 42.029344 
L 199.369143 42.768857 
L 201.467006 43.59069 
L 203.564869 44.494841 
L 205.662731 45.481313 
L 207.760594 46.550103 
L 209.858457 47.701214 
L 211.956319 48.934643 
L 214.054182 50.250392 
L 216.152045 51.648461 
L 218.249907 53.128849 
L 220.34777 54.691557 
L 222.445633 56.336584 
L 224.543495 58.06393 
L 226.641358 59.873596 
L 228.739221 61.765582 
L 230.837084 63.739887 
L 232.934946 65.796511 
L 235.032809 67.935455 
L 237.130672 70.156719 
L 239.228534 72.460302 
L 241.326397 74.846204 
L 243.42426 77.314426 
L 245.522122 79.864967 
L 247.619985 82.497828 
L 249.717848 85.213008 
L 251.815711 88.010508 
L 253.913573 90.890327 
L 256.011436 93.852466 
L 258.109299 96.896924 
L 260.207161 100.023702 
L 262.305024 103.232799 
L 264.402887 106.524216 
L 266.500749 109.897952 
L 268.598612 113.354007 
L 270.696475 116.892382 
L 272.794337 120.513077 
L 274.8922 124.216091 
L 276.990063 128.001424 
L 279.087926 131.869077 
L 281.185788 135.81905 
L 283.283651 139.851342 
L 285.381514 143.965953 
L 287.479376 148.162884 
L 289.577239 152.442134 
L 291.675102 156.803704 
L 293.772964 161.247594 
L 295.870827 165.773802 
" clip-path="url(#p79defb5cac)" style="fill: none; stroke: #0080ff; stroke-width: 1.5; stroke-linecap: square"/>
   </g>
   <g id="line2d_31">
    <path d="M 88.18242 94.768577 
L 90.280283 91.434132 
L 92.378146 88.182007 
L 94.476008 85.012201 
L 96.573871 81.924715 
L 98.671734 78.919548 
L 100.769597 75.996701 
L 102.867459 73.156173 
L 104.965322 70.397964 
L 107.063185 67.722076 
L 109.161047 65.128506 
L 111.25891 62.617256 
L 113.356773 60.188326 
L 115.454635 57.841715 
L 117.552498 55.577423 
L 119.650361 53.395451 
L 121.748223 51.295799 
L 123.846086 49.278466 
L 125.943949 47.343452 
L 128.041812 45.490758 
L 130.139674 43.720383 
L 132.237537 42.032328 
L 134.3354 40.426592 
L 136.433262 38.903176 
L 138.531125 37.462079 
L 140.628988 36.103302 
L 142.72685 34.826844 
L 144.824713 33.632706 
L 146.922576 32.520887 
L 149.020438 31.491388 
L 151.118301 30.544208 
L 153.216164 29.679348 
L 155.314027 28.896807 
L 157.411889 28.196585 
L 159.509752 27.578683 
L 161.607615 27.043101 
L 163.705477 26.589838 
L 165.80334 26.218894 
L 167.901203 25.93027 
L 169.999065 25.723966 
L 172.096928 25.59998 
L 174.194791 25.558315 
L 176.292654 25.598969 
L 178.390516 25.721942 
L 180.488379 25.927235 
L 182.586242 26.214847 
L 184.684104 26.584779 
L 186.781967 27.03703 
L 188.87983 27.571601 
L 190.977692 28.188491 
L 193.075555 28.887701 
L 195.173418 29.66923 
L 197.27128 30.533079 
L 199.369143 31.479247 
L 201.467006 32.507734 
L 203.564869 33.618541 
L 205.662731 34.811668 
L 207.760594 36.087114 
L 209.858457 37.444879 
L 211.956319 38.884964 
L 214.054182 40.407369 
L 216.152045 42.012093 
L 218.249907 43.699136 
L 220.34777 45.468499 
L 222.445633 47.320181 
L 224.543495 49.254183 
L 226.641358 51.270505 
L 228.739221 53.369145 
L 230.837084 55.550106 
L 232.934946 57.813385 
L 235.032809 60.158985 
L 237.130672 62.586903 
L 239.228534 65.097142 
L 241.326397 67.689699 
L 243.42426 70.364576 
L 245.522122 73.121773 
L 247.619985 75.961289 
L 249.717848 78.883125 
L 251.815711 81.88728 
L 253.913573 84.973754 
L 256.011436 88.142548 
L 258.109299 91.393662 
L 260.207161 94.727095 
L 262.305024 98.142847 
L 264.402887 101.640919 
L 266.500749 105.22131 
L 268.598612 108.884021 
L 270.696475 112.629052 
L 272.794337 116.456401 
L 274.8922 120.366071 
L 276.990063 124.358059 
L 279.087926 128.432368 
L 281.185788 132.588995 
L 283.283651 136.827943 
L 285.381514 141.149209 
L 287.479376 145.552796 
L 289.577239 150.038701 
L 291.675102 154.606926 
L 293.772964 159.257471 
L 295.870827 163.990335 
" clip-path="url(#p79defb5cac)" style="fill: none; stroke: #7dff7a; stroke-width: 1.5; stroke-linecap: square"/>
   </g>
   <g id="line2d_32">
    <path d="M 88.18242 84.682252 
L 90.280283 81.422208 
L 92.378146 78.244482 
L 94.476008 75.149076 
L 96.573871 72.13599 
L 98.671734 69.205223 
L 100.769597 66.356775 
L 102.867459 63.590647 
L 104.965322 60.906839 
L 107.063185 58.30535 
L 109.161047 55.78618 
L 111.25891 53.34933 
L 113.356773 50.9948 
L 115.454635 48.722589 
L 117.552498 46.532697 
L 119.650361 44.425125 
L 121.748223 42.399872 
L 123.846086 40.456939 
L 125.943949 38.596325 
L 128.041812 36.818031 
L 130.139674 35.122056 
L 132.237537 33.508401 
L 134.3354 31.977065 
L 136.433262 30.528049 
L 138.531125 29.161352 
L 140.628988 27.876974 
L 142.72685 26.674917 
L 144.824713 25.555178 
L 146.922576 24.517759 
L 149.020438 23.56266 
L 151.118301 22.68988 
L 153.216164 21.899419 
L 155.314027 21.191278 
L 157.411889 20.565457 
L 159.509752 20.021954 
L 161.607615 19.560772 
L 163.705477 19.181909 
L 165.80334 18.885365 
L 167.901203 18.671141 
L 169.999065 18.539236 
L 172.096928 18.489651 
L 174.194791 18.522385 
L 176.292654 18.637439 
L 178.390516 18.834812 
L 180.488379 19.114505 
L 182.586242 19.476517 
L 184.684104 19.920849 
L 186.781967 20.4475 
L 188.87983 21.05647 
L 190.977692 21.74776 
L 193.075555 22.52137 
L 195.173418 23.377299 
L 197.27128 24.315548 
L 199.369143 25.336116 
L 201.467006 26.439003 
L 203.564869 27.62421 
L 205.662731 28.891736 
L 207.760594 30.241582 
L 209.858457 31.673748 
L 211.956319 33.188232 
L 214.054182 34.785037 
L 216.152045 36.464161 
L 218.249907 38.225604 
L 220.34777 40.069367 
L 222.445633 41.995449 
L 224.543495 44.003851 
L 226.641358 46.094572 
L 228.739221 48.267612 
L 230.837084 50.522973 
L 232.934946 52.860652 
L 235.032809 55.280651 
L 237.130672 57.78297 
L 239.228534 60.367608 
L 241.326397 63.034565 
L 243.42426 65.783843 
L 245.522122 68.615439 
L 247.619985 71.529355 
L 249.717848 74.52559 
L 251.815711 77.604145 
L 253.913573 80.76502 
L 256.011436 84.008214 
L 258.109299 87.333727 
L 260.207161 90.74156 
L 262.305024 94.231712 
L 264.402887 97.804184 
L 266.500749 101.458975 
L 268.598612 105.196086 
L 270.696475 109.015516 
L 272.794337 112.917266 
L 274.8922 116.901335 
L 276.990063 120.967724 
L 279.087926 125.116432 
L 281.185788 129.347459 
L 283.283651 133.660806 
L 285.381514 138.056473 
L 287.479376 142.534459 
L 289.577239 147.094765 
L 291.675102 151.73739 
L 293.772964 156.462334 
L 295.870827 161.269598 
" clip-path="url(#p79defb5cac)" style="fill: none; stroke: #ff9400; stroke-width: 1.5; stroke-linecap: square"/>
   </g>
   <g id="line2d_33">
    <path d="M 88.18242 86.751944 
L 90.280283 83.434044 
L 92.378146 80.198463 
L 94.476008 77.045202 
L 96.573871 73.97426 
L 98.671734 70.985637 
L 100.769597 68.079334 
L 102.867459 65.255351 
L 104.965322 62.513687 
L 107.063185 59.854342 
L 109.161047 57.277317 
L 111.25891 54.782611 
L 113.356773 52.370225 
L 115.454635 50.040159 
L 117.552498 47.792411 
L 119.650361 45.626984 
L 121.748223 43.543875 
L 123.846086 41.543087 
L 125.943949 39.624617 
L 128.041812 37.788468 
L 130.139674 36.034637 
L 132.237537 34.363126 
L 134.3354 32.773935 
L 136.433262 31.267063 
L 138.531125 29.842511 
L 140.628988 28.500278 
L 142.72685 27.240364 
L 144.824713 26.06277 
L 146.922576 24.967496 
L 149.020438 23.954541 
L 151.118301 23.023905 
L 153.216164 22.175589 
L 155.314027 21.409593 
L 157.411889 20.725916 
L 159.509752 20.124558 
L 161.607615 19.60552 
L 163.705477 19.168801 
L 165.80334 18.814402 
L 167.901203 18.542322 
L 169.999065 18.352562 
L 172.096928 18.245121 
L 174.194791 18.22 
L 176.292654 18.277198 
L 178.390516 18.416716 
L 180.488379 18.638553 
L 182.586242 18.94271 
L 184.684104 19.329186 
L 186.781967 19.797981 
L 188.87983 20.349096 
L 190.977692 20.982531 
L 193.075555 21.698285 
L 195.173418 22.496358 
L 197.27128 23.376751 
L 199.369143 24.339464 
L 201.467006 25.384496 
L 203.564869 26.511847 
L 205.662731 27.721518 
L 207.760594 29.013508 
L 209.858457 30.387818 
L 211.956319 31.844447 
L 214.054182 33.383396 
L 216.152045 35.004665 
L 218.249907 36.708252 
L 220.34777 38.49416 
L 222.445633 40.362386 
L 224.543495 42.312932 
L 226.641358 44.345798 
L 228.739221 46.460983 
L 230.837084 48.658488 
L 232.934946 50.938312 
L 235.032809 53.300455 
L 237.130672 55.744918 
L 239.228534 58.271701 
L 241.326397 60.880803 
L 243.42426 63.572224 
L 245.522122 66.345965 
L 247.619985 69.202026 
L 249.717848 72.140406 
L 251.815711 75.161105 
L 253.913573 78.264124 
L 256.011436 81.449462 
L 258.109299 84.71712 
L 260.207161 88.067097 
L 262.305024 91.499394 
L 264.402887 95.01401 
L 266.500749 98.610946 
L 268.598612 102.290201 
L 270.696475 106.051776 
L 272.794337 109.89567 
L 274.8922 113.821884 
L 276.990063 117.830417 
L 279.087926 121.92127 
L 281.185788 126.094442 
L 283.283651 130.349933 
L 285.381514 134.687744 
L 287.479376 139.107875 
L 289.577239 143.610325 
L 291.675102 148.195094 
L 293.772964 152.862183 
L 295.870827 157.611591 
" clip-path="url(#p79defb5cac)" style="fill: none; stroke: #800000; stroke-width: 1.5; stroke-linecap: square"/>
   </g>
   <g id="patch_3">
    <path d="M 77.798 174.04 
L 77.798 10.8 
" style="fill: none; stroke: #000000; stroke-width: 0.8; stroke-linejoin: miter; stroke-linecap: square"/>
   </g>
   <g id="patch_4">
    <path d="M 306.255247 174.04 
L 306.255247 10.8 
" style="fill: none; stroke: #000000; stroke-width: 0.8; stroke-linejoin: miter; stroke-linecap: square"/>
   </g>
   <g id="patch_5">
    <path d="M 77.798 174.04 
L 306.255247 174.04 
" style="fill: none; stroke: #000000; stroke-width: 0.8; stroke-linejoin: miter; stroke-linecap: square"/>
   </g>
   <g id="patch_6">
    <path d="M 77.798 10.8 
L 306.255247 10.8 
" style="fill: none; stroke: #000000; stroke-width: 0.8; stroke-linejoin: miter; stroke-linecap: square"/>
   </g>
   <g id="legend_1">
    <g id="patch_7">
     <path d="M 315.255247 162.878 
L 420.455247 162.878 
Q 422.455247 162.878 422.455247 160.878 
L 422.455247 88.385812 
Q 422.455247 86.385812 420.455247 86.385812 
L 315.255247 86.385812 
Q 313.255247 86.385812 313.255247 88.385812 
L 313.255247 160.878 
Q 313.255247 162.878 315.255247 162.878 
z
" style="fill: #4d4d4d; opacity: 0.5; stroke: #4d4d4d; stroke-linejoin: miter"/>
    </g>
    <g id="patch_8">
     <path d="M 313.255247 160.878 
L 418.455247 160.878 
Q 420.455247 160.878 420.455247 158.878 
L 420.455247 86.385812 
Q 420.455247 84.385812 418.455247 84.385812 
L 313.255247 84.385812 
Q 311.255247 84.385812 311.255247 86.385812 
L 311.255247 158.878 
Q 311.255247 160.878 313.255247 160.878 
z
" style="fill: #ffffff; stroke: #cccccc; stroke-linejoin: miter"/>
    </g>
    <g id="line2d_34">
     <path d="M 315.255247 92.48425 
L 325.255247 92.48425 
L 335.255247 92.48425 
" style="fill: none; stroke: #000080; stroke-width: 1.5; stroke-linecap: square"/>
    </g>
    <g id="text_17">
     <!-- $\delta_e = 0$, $J = 1.60$ -->
     <g transform="translate(343.255247 95.98425) scale(0.1 -0.1)">
      <defs>
       <path id="DejaVuSans-Oblique-3b4" d="M 3472 4053 
Q 3197 4272 2450 4272 
Q 1659 4272 1588 3906 
Q 1531 3619 2328 3469 
Q 2953 3353 3253 3003 
Q 3616 2581 3447 1716 
Q 3284 888 2763 400 
Q 2238 -91 1488 -91 
Q 741 -91 406 400 
Q 72 888 241 1747 
Q 363 2384 891 2900 
Q 1097 3100 1353 3213 
Q 913 3459 1000 3900 
Q 1166 4750 2544 4750 
Q 3234 4750 3566 4531 
L 3472 4053 
z
M 1753 3056 
Q 1525 2966 1306 2738 
Q 969 2384 847 1747 
Q 722 1113 919 756 
Q 1119 397 1584 397 
Q 2044 397 2381 759 
Q 2722 1122 2838 1716 
Q 2956 2338 2731 2638 
Q 2491 2959 2103 2994 
Q 1906 3013 1753 3056 
z
" transform="scale(0.015625)"/>
       <path id="DejaVuSans-Oblique-65" d="M 3078 2063 
Q 3088 2113 3092 2166 
Q 3097 2219 3097 2272 
Q 3097 2653 2873 2875 
Q 2650 3097 2266 3097 
Q 1838 3097 1509 2826 
Q 1181 2556 1013 2059 
L 3078 2063 
z
M 3578 1613 
L 903 1613 
Q 884 1494 878 1425 
Q 872 1356 872 1306 
Q 872 872 1139 634 
Q 1406 397 1894 397 
Q 2269 397 2603 481 
Q 2938 566 3225 728 
L 3116 159 
Q 2806 34 2476 -28 
Q 2147 -91 1806 -91 
Q 1078 -91 686 257 
Q 294 606 294 1247 
Q 294 1794 489 2264 
Q 684 2734 1063 3103 
Q 1306 3334 1642 3459 
Q 1978 3584 2356 3584 
Q 2950 3584 3301 3228 
Q 3653 2872 3653 2272 
Q 3653 2128 3634 1964 
Q 3616 1800 3578 1613 
z
" transform="scale(0.015625)"/>
       <path id="DejaVuSans-3d" d="M 678 2906 
L 4684 2906 
L 4684 2381 
L 678 2381 
L 678 2906 
z
M 678 1631 
L 4684 1631 
L 4684 1100 
L 678 1100 
L 678 1631 
z
" transform="scale(0.015625)"/>
       <path id="DejaVuSans-2c" d="M 750 794 
L 1409 794 
L 1409 256 
L 897 -744 
L 494 -744 
L 750 256 
L 750 794 
z
" transform="scale(0.015625)"/>
       <path id="DejaVuSans-Oblique-4a" d="M 1069 4666 
L 1703 4666 
L 856 325 
Q 691 -522 298 -901 
Q -94 -1281 -800 -1281 
L -1050 -1281 
L -947 -750 
L -750 -750 
Q -328 -750 -109 -509 
Q 109 -269 225 325 
L 1069 4666 
z
" transform="scale(0.015625)"/>
       <path id="DejaVuSans-31" d="M 794 531 
L 1825 531 
L 1825 4091 
L 703 3866 
L 703 4441 
L 1819 4666 
L 2450 4666 
L 2450 531 
L 3481 531 
L 3481 0 
L 794 0 
L 794 531 
z
" transform="scale(0.015625)"/>
      </defs>
      <use xlink:href="#DejaVuSans-Oblique-3b4" transform="translate(0 0.78125)"/>
      <use xlink:href="#DejaVuSans-Oblique-65" transform="translate(61.181641 -15.625) scale(0.7)"/>
      <use xlink:href="#DejaVuSans-3d" transform="translate(126.464844 0.78125)"/>
      <use xlink:href="#DejaVuSans-30" transform="translate(229.736328 0.78125)"/>
      <use xlink:href="#DejaVuSans-2c" transform="translate(293.359375 0.78125)"/>
      <use xlink:href="#DejaVuSans-20" transform="translate(325.146484 0.78125)"/>
      <use xlink:href="#DejaVuSans-Oblique-4a" transform="translate(356.933594 0.78125)"/>
      <use xlink:href="#DejaVuSans-3d" transform="translate(405.908203 0.78125)"/>
      <use xlink:href="#DejaVuSans-31" transform="translate(509.179688 0.78125)"/>
      <use xlink:href="#DejaVuSans-2e" transform="translate(572.802734 0.78125)"/>
      <use xlink:href="#DejaVuSans-36" transform="translate(604.589844 0.78125)"/>
      <use xlink:href="#DejaVuSans-30" transform="translate(668.212891 0.78125)"/>
     </g>
    </g>
    <g id="line2d_35">
     <path d="M 315.255247 107.182688 
L 325.255247 107.182688 
L 335.255247 107.182688 
" style="fill: none; stroke: #0080ff; stroke-width: 1.5; stroke-linecap: square"/>
    </g>
    <g id="text_18">
     <!-- $\delta_e = 0$, $J = 1.80$ -->
     <g transform="translate(343.255247 110.682688) scale(0.1 -0.1)">
      <defs>
       <path id="DejaVuSans-38" d="M 2034 2216 
Q 1584 2216 1326 1975 
Q 1069 1734 1069 1313 
Q 1069 891 1326 650 
Q 1584 409 2034 409 
Q 2484 409 2743 651 
Q 3003 894 3003 1313 
Q 3003 1734 2745 1975 
Q 2488 2216 2034 2216 
z
M 1403 2484 
Q 997 2584 770 2862 
Q 544 3141 544 3541 
Q 544 4100 942 4425 
Q 1341 4750 2034 4750 
Q 2731 4750 3128 4425 
Q 3525 4100 3525 3541 
Q 3525 3141 3298 2862 
Q 3072 2584 2669 2484 
Q 3125 2378 3379 2068 
Q 3634 1759 3634 1313 
Q 3634 634 3220 271 
Q 2806 -91 2034 -91 
Q 1263 -91 848 271 
Q 434 634 434 1313 
Q 434 1759 690 2068 
Q 947 2378 1403 2484 
z
M 1172 3481 
Q 1172 3119 1398 2916 
Q 1625 2713 2034 2713 
Q 2441 2713 2670 2916 
Q 2900 3119 2900 3481 
Q 2900 3844 2670 4047 
Q 2441 4250 2034 4250 
Q 1625 4250 1398 4047 
Q 1172 3844 1172 3481 
z
" transform="scale(0.015625)"/>
      </defs>
      <use xlink:href="#DejaVuSans-Oblique-3b4" transform="translate(0 0.78125)"/>
      <use xlink:href="#DejaVuSans-Oblique-65" transform="translate(61.181641 -15.625) scale(0.7)"/>
      <use xlink:href="#DejaVuSans-3d" transform="translate(126.464844 0.78125)"/>
      <use xlink:href="#DejaVuSans-30" transform="translate(229.736328 0.78125)"/>
      <use xlink:href="#DejaVuSans-2c" transform="translate(293.359375 0.78125)"/>
      <use xlink:href="#DejaVuSans-20" transform="translate(325.146484 0.78125)"/>
      <use xlink:href="#DejaVuSans-Oblique-4a" transform="translate(356.933594 0.78125)"/>
      <use xlink:href="#DejaVuSans-3d" transform="translate(405.908203 0.78125)"/>
      <use xlink:href="#DejaVuSans-31" transform="translate(509.179688 0.78125)"/>
      <use xlink:href="#DejaVuSans-2e" transform="translate(572.802734 0.78125)"/>
      <use xlink:href="#DejaVuSans-38" transform="translate(601.964844 0.78125)"/>
      <use xlink:href="#DejaVuSans-30" transform="translate(665.587891 0.78125)"/>
     </g>
    </g>
    <g id="line2d_36">
     <path d="M 315.255247 121.881125 
L 325.255247 121.881125 
L 335.255247 121.881125 
" style="fill: none; stroke: #7dff7a; stroke-width: 1.5; stroke-linecap: square"/>
    </g>
    <g id="text_19">
     <!-- $\delta_e = 0$, $J = 2.00$ -->
     <g transform="translate(343.255247 125.381125) scale(0.1 -0.1)">
      <use xlink:href="#DejaVuSans-Oblique-3b4" transform="translate(0 0.78125)"/>
      <use xlink:href="#DejaVuSans-Oblique-65" transform="translate(61.181641 -15.625) scale(0.7)"/>
      <use xlink:href="#DejaVuSans-3d" transform="translate(126.464844 0.78125)"/>
      <use xlink:href="#DejaVuSans-30" transform="translate(229.736328 0.78125)"/>
      <use xlink:href="#DejaVuSans-2c" transform="translate(293.359375 0.78125)"/>
      <use xlink:href="#DejaVuSans-20" transform="translate(325.146484 0.78125)"/>
      <use xlink:href="#DejaVuSans-Oblique-4a" transform="translate(356.933594 0.78125)"/>
      <use xlink:href="#DejaVuSans-3d" transform="translate(405.908203 0.78125)"/>
      <use xlink:href="#DejaVuSans-32" transform="translate(509.179688 0.78125)"/>
      <use xlink:href="#DejaVuSans-2e" transform="translate(572.802734 0.78125)"/>
      <use xlink:href="#DejaVuSans-30" transform="translate(604.589844 0.78125)"/>
      <use xlink:href="#DejaVuSans-30" transform="translate(668.212891 0.78125)"/>
     </g>
    </g>
    <g id="line2d_37">
     <path d="M 315.255247 136.579563 
L 325.255247 136.579563 
L 335.255247 136.579563 
" style="fill: none; stroke: #ff9400; stroke-width: 1.5; stroke-linecap: square"/>
    </g>
    <g id="text_20">
     <!-- $\delta_e = 0$, $J = 2.20$ -->
     <g transform="translate(343.255247 140.079563) scale(0.1 -0.1)">
      <use xlink:href="#DejaVuSans-Oblique-3b4" transform="translate(0 0.78125)"/>
      <use xlink:href="#DejaVuSans-Oblique-65" transform="translate(61.181641 -15.625) scale(0.7)"/>
      <use xlink:href="#DejaVuSans-3d" transform="translate(126.464844 0.78125)"/>
      <use xlink:href="#DejaVuSans-30" transform="translate(229.736328 0.78125)"/>
      <use xlink:href="#DejaVuSans-2c" transform="translate(293.359375 0.78125)"/>
      <use xlink:href="#DejaVuSans-20" transform="translate(325.146484 0.78125)"/>
      <use xlink:href="#DejaVuSans-Oblique-4a" transform="translate(356.933594 0.78125)"/>
      <use xlink:href="#DejaVuSans-3d" transform="translate(405.908203 0.78125)"/>
      <use xlink:href="#DejaVuSans-32" transform="translate(509.179688 0.78125)"/>
      <use xlink:href="#DejaVuSans-2e" transform="translate(572.802734 0.78125)"/>
      <use xlink:href="#DejaVuSans-32" transform="translate(599.089844 0.78125)"/>
      <use xlink:href="#DejaVuSans-30" transform="translate(662.712891 0.78125)"/>
     </g>
    </g>
    <g id="line2d_38">
     <path d="M 315.255247 151.278 
L 325.255247 151.278 
L 335.255247 151.278 
" style="fill: none; stroke: #800000; stroke-width: 1.5; stroke-linecap: square"/>
    </g>
    <g id="text_21">
     <!-- $\delta_e = 0$, $J = 2.40$ -->
     <g transform="translate(343.255247 154.778) scale(0.1 -0.1)">
      <use xlink:href="#DejaVuSans-Oblique-3b4" transform="translate(0 0.78125)"/>
      <use xlink:href="#DejaVuSans-Oblique-65" transform="translate(61.181641 -15.625) scale(0.7)"/>
      <use xlink:href="#DejaVuSans-3d" transform="translate(126.464844 0.78125)"/>
      <use xlink:href="#DejaVuSans-30" transform="translate(229.736328 0.78125)"/>
      <use xlink:href="#DejaVuSans-2c" transform="translate(293.359375 0.78125)"/>
      <use xlink:href="#DejaVuSans-20" transform="translate(325.146484 0.78125)"/>
      <use xlink:href="#DejaVuSans-Oblique-4a" transform="translate(356.933594 0.78125)"/>
      <use xlink:href="#DejaVuSans-3d" transform="translate(405.908203 0.78125)"/>
      <use xlink:href="#DejaVuSans-32" transform="translate(509.179688 0.78125)"/>
      <use xlink:href="#DejaVuSans-2e" transform="translate(572.802734 0.78125)"/>
      <use xlink:href="#DejaVuSans-34" transform="translate(604.589844 0.78125)"/>
      <use xlink:href="#DejaVuSans-30" transform="translate(668.212891 0.78125)"/>
     </g>
    </g>
   </g>
  </g>
 </g>
 <defs>
  <clipPath id="p79defb5cac">
   <rect x="77.798" y="10.8" width="228.457247" height="163.24"/>
  </clipPath>
 </defs>
</svg>
