<?xml version="1.0" encoding="utf-8" standalone="no"?>
<!DOCTYPE svg PUBLIC "-//W3C//DTD SVG 1.1//EN"
  "http://www.w3.org/Graphics/SVG/1.1/DTD/svg11.dtd">
<svg xmlns:xlink="http://www.w3.org/1999/xlink" width="288pt" height="216pt" viewBox="0 0 288 216" xmlns="http://www.w3.org/2000/svg" version="1.1">
 <metadata>
  <rdf:RDF xmlns:dc="http://purl.org/dc/elements/1.1/" xmlns:cc="http://creativecommons.org/ns#" xmlns:rdf="http://www.w3.org/1999/02/22-rdf-syntax-ns#">
   <cc:Work>
    <dc:type rdf:resource="http://purl.org/dc/dcmitype/StillImage"/>
    <dc:date>2025-03-26T10:31:45.906447</dc:date>
    <dc:format>image/svg+xml</dc:format>
    <dc:creator>
     <cc:Agent>
      <dc:title>Matplotlib v3.9.2, https://matplotlib.org/</dc:title>
     </cc:Agent>
    </dc:creator>
   </cc:Work>
  </rdf:RDF>
 </metadata>
 <defs>
  <style type="text/css">*{stroke-linejoin: round; stroke-linecap: butt}</style>
 </defs>
 <g id="figure_1">
  <g id="patch_1">
   <path d="M 0 216 
L 288 216 
L 288 0 
L 0 0 
z
" style="fill: #ffffff"/>
  </g>
  <g id="axes_1">
   <g id="patch_2">
    <path d="M 65.45 174.04 
L 277.2 174.04 
L 277.2 10.8 
L 65.45 10.8 
z
" style="fill: #ffffff"/>
   </g>
   <g id="matplotlib.axis_1">
    <g id="xtick_1">
     <g id="line2d_1">
      <path d="M 75.075 174.04 
L 75.075 10.8 
" clip-path="url(#p102e1f0e73)" style="fill: none; stroke: #b0b0b0; stroke-width: 0.8; stroke-linecap: square"/>
     </g>
     <g id="line2d_2">
      <defs>
       <path id="m93131051a4" d="M 0 0 
L 0 3.5 
" style="stroke: #000000; stroke-width: 0.8"/>
      </defs>
      <g>
       <use xlink:href="#m93131051a4" x="75.075" y="174.04" style="stroke: #000000; stroke-width: 0.8"/>
      </g>
     </g>
     <g id="text_1">
      <!-- 0 -->
      <g transform="translate(71.89375 188.638438) scale(0.1 -0.1)">
       <defs>
        <path id="DejaVuSans-30" d="M 2034 4250 
Q 1547 4250 1301 3770 
Q 1056 3291 1056 2328 
Q 1056 1369 1301 889 
Q 1547 409 2034 409 
Q 2525 409 2770 889 
Q 3016 1369 3016 2328 
Q 3016 3291 2770 3770 
Q 2525 4250 2034 4250 
z
M 2034 4750 
Q 2819 4750 3233 4129 
Q 3647 3509 3647 2328 
Q 3647 1150 3233 529 
Q 2819 -91 2034 -91 
Q 1250 -91 836 529 
Q 422 1150 422 2328 
Q 422 3509 836 4129 
Q 1250 4750 2034 4750 
z
" transform="scale(0.015625)"/>
       </defs>
       <use xlink:href="#DejaVuSans-30"/>
      </g>
     </g>
    </g>
    <g id="xtick_2">
     <g id="line2d_3">
      <path d="M 130.075 174.04 
L 130.075 10.8 
" clip-path="url(#p102e1f0e73)" style="fill: none; stroke: #b0b0b0; stroke-width: 0.8; stroke-linecap: square"/>
     </g>
     <g id="line2d_4">
      <g>
       <use xlink:href="#m93131051a4" x="130.075" y="174.04" style="stroke: #000000; stroke-width: 0.8"/>
      </g>
     </g>
     <g id="text_2">
      <!-- 2 -->
      <g transform="translate(126.89375 188.638438) scale(0.1 -0.1)">
       <defs>
        <path id="DejaVuSans-32" d="M 1228 531 
L 3431 531 
L 3431 0 
L 469 0 
L 469 531 
Q 828 903 1448 1529 
Q 2069 2156 2228 2338 
Q 2531 2678 2651 2914 
Q 2772 3150 2772 3378 
Q 2772 3750 2511 3984 
Q 2250 4219 1831 4219 
Q 1534 4219 1204 4116 
Q 875 4013 500 3803 
L 500 4441 
Q 881 4594 1212 4672 
Q 1544 4750 1819 4750 
Q 2544 4750 2975 4387 
Q 3406 4025 3406 3419 
Q 3406 3131 3298 2873 
Q 3191 2616 2906 2266 
Q 2828 2175 2409 1742 
Q 1991 1309 1228 531 
z
" transform="scale(0.015625)"/>
       </defs>
       <use xlink:href="#DejaVuSans-32"/>
      </g>
     </g>
    </g>
    <g id="xtick_3">
     <g id="line2d_5">
      <path d="M 185.075 174.04 
L 185.075 10.8 
" clip-path="url(#p102e1f0e73)" style="fill: none; stroke: #b0b0b0; stroke-width: 0.8; stroke-linecap: square"/>
     </g>
     <g id="line2d_6">
      <g>
       <use xlink:href="#m93131051a4" x="185.075" y="174.04" style="stroke: #000000; stroke-width: 0.8"/>
      </g>
     </g>
     <g id="text_3">
      <!-- 4 -->
      <g transform="translate(181.89375 188.638438) scale(0.1 -0.1)">
       <defs>
        <path id="DejaVuSans-34" d="M 2419 4116 
L 825 1625 
L 2419 1625 
L 2419 4116 
z
M 2253 4666 
L 3047 4666 
L 3047 1625 
L 3713 1625 
L 3713 1100 
L 3047 1100 
L 3047 0 
L 2419 0 
L 2419 1100 
L 313 1100 
L 313 1709 
L 2253 4666 
z
" transform="scale(0.015625)"/>
       </defs>
       <use xlink:href="#DejaVuSans-34"/>
      </g>
     </g>
    </g>
    <g id="xtick_4">
     <g id="line2d_7">
      <path d="M 240.075 174.04 
L 240.075 10.8 
" clip-path="url(#p102e1f0e73)" style="fill: none; stroke: #b0b0b0; stroke-width: 0.8; stroke-linecap: square"/>
     </g>
     <g id="line2d_8">
      <g>
       <use xlink:href="#m93131051a4" x="240.075" y="174.04" style="stroke: #000000; stroke-width: 0.8"/>
      </g>
     </g>
     <g id="text_4">
      <!-- 6 -->
      <g transform="translate(236.89375 188.638438) scale(0.1 -0.1)">
       <defs>
        <path id="DejaVuSans-36" d="M 2113 2584 
Q 1688 2584 1439 2293 
Q 1191 2003 1191 1497 
Q 1191 994 1439 701 
Q 1688 409 2113 409 
Q 2538 409 2786 701 
Q 3034 994 3034 1497 
Q 3034 2003 2786 2293 
Q 2538 2584 2113 2584 
z
M 3366 4563 
L 3366 3988 
Q 3128 4100 2886 4159 
Q 2644 4219 2406 4219 
Q 1781 4219 1451 3797 
Q 1122 3375 1075 2522 
Q 1259 2794 1537 2939 
Q 1816 3084 2150 3084 
Q 2853 3084 3261 2657 
Q 3669 2231 3669 1497 
Q 3669 778 3244 343 
Q 2819 -91 2113 -91 
Q 1303 -91 875 529 
Q 447 1150 447 2328 
Q 447 3434 972 4092 
Q 1497 4750 2381 4750 
Q 2619 4750 2861 4703 
Q 3103 4656 3366 4563 
z
" transform="scale(0.015625)"/>
       </defs>
       <use xlink:href="#DejaVuSans-36"/>
      </g>
     </g>
    </g>
    <g id="text_5">
     <!-- $\alpha$ -->
     <g transform="translate(168.025 202.316563) scale(0.1 -0.1)">
      <defs>
       <path id="DejaVuSans-Oblique-3b1" d="M 2619 1628 
L 2622 2350 
Q 2625 3088 2069 3091 
Q 1653 3094 1394 2747 
Q 1069 2319 959 1747 
Q 825 1059 994 731 
Q 1169 397 1547 397 
Q 1966 397 2319 1063 
L 2619 1628 
z
M 2166 3578 
Q 3141 3594 3128 2584 
Q 3128 2584 3616 3500 
L 4128 3500 
L 3119 1603 
L 3109 919 
Q 3109 766 3194 638 
Q 3291 488 3391 488 
L 3669 488 
L 3575 0 
L 3228 0 
Q 2934 0 2722 263 
Q 2622 394 2619 669 
Q 2416 334 2066 50 
Q 1900 -81 1453 -78 
Q 722 -72 456 397 
Q 184 884 353 1747 
Q 534 2675 1009 3097 
Q 1544 3569 2166 3578 
z
" transform="scale(0.015625)"/>
      </defs>
      <use xlink:href="#DejaVuSans-Oblique-3b1" transform="translate(0 0.84375)"/>
     </g>
    </g>
   </g>
   <g id="matplotlib.axis_2">
    <g id="ytick_1">
     <g id="line2d_9">
      <path d="M 65.45 165.461929 
L 277.2 165.461929 
" clip-path="url(#p102e1f0e73)" style="fill: none; stroke: #b0b0b0; stroke-width: 0.8; stroke-linecap: square"/>
     </g>
     <g id="line2d_10">
      <defs>
       <path id="m80a610444e" d="M 0 0 
L -3.5 0 
" style="stroke: #000000; stroke-width: 0.8"/>
      </defs>
      <g>
       <use xlink:href="#m80a610444e" x="65.45" y="165.461929" style="stroke: #000000; stroke-width: 0.8"/>
      </g>
     </g>
     <g id="text_6">
      <!-- −0.15 -->
      <g transform="translate(27.804688 169.261148) scale(0.1 -0.1)">
       <defs>
        <path id="DejaVuSans-2212" d="M 678 2272 
L 4684 2272 
L 4684 1741 
L 678 1741 
L 678 2272 
z
" transform="scale(0.015625)"/>
        <path id="DejaVuSans-2e" d="M 684 794 
L 1344 794 
L 1344 0 
L 684 0 
L 684 794 
z
" transform="scale(0.015625)"/>
        <path id="DejaVuSans-31" d="M 794 531 
L 1825 531 
L 1825 4091 
L 703 3866 
L 703 4441 
L 1819 4666 
L 2450 4666 
L 2450 531 
L 3481 531 
L 3481 0 
L 794 0 
L 794 531 
z
" transform="scale(0.015625)"/>
        <path id="DejaVuSans-35" d="M 691 4666 
L 3169 4666 
L 3169 4134 
L 1269 4134 
L 1269 2991 
Q 1406 3038 1543 3061 
Q 1681 3084 1819 3084 
Q 2600 3084 3056 2656 
Q 3513 2228 3513 1497 
Q 3513 744 3044 326 
Q 2575 -91 1722 -91 
Q 1428 -91 1123 -41 
Q 819 9 494 109 
L 494 744 
Q 775 591 1075 516 
Q 1375 441 1709 441 
Q 2250 441 2565 725 
Q 2881 1009 2881 1497 
Q 2881 1984 2565 2268 
Q 2250 2553 1709 2553 
Q 1456 2553 1204 2497 
Q 953 2441 691 2322 
L 691 4666 
z
" transform="scale(0.015625)"/>
       </defs>
       <use xlink:href="#DejaVuSans-2212"/>
       <use xlink:href="#DejaVuSans-30" x="83.789062"/>
       <use xlink:href="#DejaVuSans-2e" x="147.412109"/>
       <use xlink:href="#DejaVuSans-31" x="179.199219"/>
       <use xlink:href="#DejaVuSans-35" x="242.822266"/>
      </g>
     </g>
    </g>
    <g id="ytick_2">
     <g id="line2d_11">
      <path d="M 65.45 141.281277 
L 277.2 141.281277 
" clip-path="url(#p102e1f0e73)" style="fill: none; stroke: #b0b0b0; stroke-width: 0.8; stroke-linecap: square"/>
     </g>
     <g id="line2d_12">
      <g>
       <use xlink:href="#m80a610444e" x="65.45" y="141.281277" style="stroke: #000000; stroke-width: 0.8"/>
      </g>
     </g>
     <g id="text_7">
      <!-- −0.10 -->
      <g transform="translate(27.804688 145.080496) scale(0.1 -0.1)">
       <use xlink:href="#DejaVuSans-2212"/>
       <use xlink:href="#DejaVuSans-30" x="83.789062"/>
       <use xlink:href="#DejaVuSans-2e" x="147.412109"/>
       <use xlink:href="#DejaVuSans-31" x="179.199219"/>
       <use xlink:href="#DejaVuSans-30" x="242.822266"/>
      </g>
     </g>
    </g>
    <g id="ytick_3">
     <g id="line2d_13">
      <path d="M 65.45 117.100626 
L 277.2 117.100626 
" clip-path="url(#p102e1f0e73)" style="fill: none; stroke: #b0b0b0; stroke-width: 0.8; stroke-linecap: square"/>
     </g>
     <g id="line2d_14">
      <g>
       <use xlink:href="#m80a610444e" x="65.45" y="117.100626" style="stroke: #000000; stroke-width: 0.8"/>
      </g>
     </g>
     <g id="text_8">
      <!-- −0.05 -->
      <g transform="translate(27.804688 120.899845) scale(0.1 -0.1)">
       <use xlink:href="#DejaVuSans-2212"/>
       <use xlink:href="#DejaVuSans-30" x="83.789062"/>
       <use xlink:href="#DejaVuSans-2e" x="147.412109"/>
       <use xlink:href="#DejaVuSans-30" x="179.199219"/>
       <use xlink:href="#DejaVuSans-35" x="242.822266"/>
      </g>
     </g>
    </g>
    <g id="ytick_4">
     <g id="line2d_15">
      <path d="M 65.45 92.919974 
L 277.2 92.919974 
" clip-path="url(#p102e1f0e73)" style="fill: none; stroke: #b0b0b0; stroke-width: 0.8; stroke-linecap: square"/>
     </g>
     <g id="line2d_16">
      <g>
       <use xlink:href="#m80a610444e" x="65.45" y="92.919974" style="stroke: #000000; stroke-width: 0.8"/>
      </g>
     </g>
     <g id="text_9">
      <!-- 0.00 -->
      <g transform="translate(36.184375 96.719193) scale(0.1 -0.1)">
       <use xlink:href="#DejaVuSans-30"/>
       <use xlink:href="#DejaVuSans-2e" x="63.623047"/>
       <use xlink:href="#DejaVuSans-30" x="95.410156"/>
       <use xlink:href="#DejaVuSans-30" x="159.033203"/>
      </g>
     </g>
    </g>
    <g id="ytick_5">
     <g id="line2d_17">
      <path d="M 65.45 68.739322 
L 277.2 68.739322 
" clip-path="url(#p102e1f0e73)" style="fill: none; stroke: #b0b0b0; stroke-width: 0.8; stroke-linecap: square"/>
     </g>
     <g id="line2d_18">
      <g>
       <use xlink:href="#m80a610444e" x="65.45" y="68.739322" style="stroke: #000000; stroke-width: 0.8"/>
      </g>
     </g>
     <g id="text_10">
      <!-- 0.05 -->
      <g transform="translate(36.184375 72.538541) scale(0.1 -0.1)">
       <use xlink:href="#DejaVuSans-30"/>
       <use xlink:href="#DejaVuSans-2e" x="63.623047"/>
       <use xlink:href="#DejaVuSans-30" x="95.410156"/>
       <use xlink:href="#DejaVuSans-35" x="159.033203"/>
      </g>
     </g>
    </g>
    <g id="ytick_6">
     <g id="line2d_19">
      <path d="M 65.45 44.558671 
L 277.2 44.558671 
" clip-path="url(#p102e1f0e73)" style="fill: none; stroke: #b0b0b0; stroke-width: 0.8; stroke-linecap: square"/>
     </g>
     <g id="line2d_20">
      <g>
       <use xlink:href="#m80a610444e" x="65.45" y="44.558671" style="stroke: #000000; stroke-width: 0.8"/>
      </g>
     </g>
     <g id="text_11">
      <!-- 0.10 -->
      <g transform="translate(36.184375 48.35789) scale(0.1 -0.1)">
       <use xlink:href="#DejaVuSans-30"/>
       <use xlink:href="#DejaVuSans-2e" x="63.623047"/>
       <use xlink:href="#DejaVuSans-31" x="95.410156"/>
       <use xlink:href="#DejaVuSans-30" x="159.033203"/>
      </g>
     </g>
    </g>
    <g id="ytick_7">
     <g id="line2d_21">
      <path d="M 65.45 20.378019 
L 277.2 20.378019 
" clip-path="url(#p102e1f0e73)" style="fill: none; stroke: #b0b0b0; stroke-width: 0.8; stroke-linecap: square"/>
     </g>
     <g id="line2d_22">
      <g>
       <use xlink:href="#m80a610444e" x="65.45" y="20.378019" style="stroke: #000000; stroke-width: 0.8"/>
      </g>
     </g>
     <g id="text_12">
      <!-- 0.15 -->
      <g transform="translate(36.184375 24.177238) scale(0.1 -0.1)">
       <use xlink:href="#DejaVuSans-30"/>
       <use xlink:href="#DejaVuSans-2e" x="63.623047"/>
       <use xlink:href="#DejaVuSans-31" x="95.410156"/>
       <use xlink:href="#DejaVuSans-35" x="159.033203"/>
      </g>
     </g>
    </g>
    <g id="text_13">
     <!-- $dCMpitch/dJ$ -->
     <g transform="translate(21.704687 122.22) rotate(-90) scale(0.1 -0.1)">
      <defs>
       <path id="DejaVuSans-Oblique-64" d="M 2675 525 
Q 2444 222 2128 65 
Q 1813 -91 1428 -91 
Q 903 -91 598 267 
Q 294 625 294 1247 
Q 294 1766 478 2236 
Q 663 2706 1013 3078 
Q 1244 3325 1534 3454 
Q 1825 3584 2144 3584 
Q 2481 3584 2739 3421 
Q 2997 3259 3138 2956 
L 3513 4863 
L 4091 4863 
L 3144 0 
L 2566 0 
L 2675 525 
z
M 891 1350 
Q 891 897 1095 644 
Q 1300 391 1663 391 
Q 1931 391 2161 520 
Q 2391 650 2566 903 
Q 2750 1166 2856 1509 
Q 2963 1853 2963 2188 
Q 2963 2622 2758 2865 
Q 2553 3109 2194 3109 
Q 1922 3109 1687 2981 
Q 1453 2853 1288 2613 
Q 1106 2353 998 2009 
Q 891 1666 891 1350 
z
" transform="scale(0.015625)"/>
       <path id="DejaVuSans-Oblique-43" d="M 4447 4306 
L 4319 3641 
Q 4019 3944 3683 4091 
Q 3347 4238 2956 4238 
Q 2422 4238 2017 3981 
Q 1613 3725 1319 3200 
Q 1131 2863 1032 2486 
Q 934 2109 934 1728 
Q 934 1091 1264 756 
Q 1594 422 2222 422 
Q 2656 422 3056 561 
Q 3456 700 3834 978 
L 3688 231 
Q 3316 72 2936 -9 
Q 2556 -91 2175 -91 
Q 1278 -91 773 396 
Q 269 884 269 1753 
Q 269 2309 461 2846 
Q 653 3384 1013 3828 
Q 1394 4300 1883 4525 
Q 2372 4750 3022 4750 
Q 3422 4750 3780 4639 
Q 4138 4528 4447 4306 
z
" transform="scale(0.015625)"/>
       <path id="DejaVuSans-Oblique-4d" d="M 1081 4666 
L 2028 4666 
L 2572 1522 
L 4378 4666 
L 5350 4666 
L 4441 0 
L 3828 0 
L 4622 4091 
L 2791 897 
L 2175 897 
L 1581 4103 
L 788 0 
L 172 0 
L 1081 4666 
z
" transform="scale(0.015625)"/>
       <path id="DejaVuSans-Oblique-70" d="M 3175 2156 
Q 3175 2616 2975 2859 
Q 2775 3103 2400 3103 
Q 2144 3103 1911 2972 
Q 1678 2841 1497 2591 
Q 1319 2344 1212 1994 
Q 1106 1644 1106 1300 
Q 1106 863 1306 627 
Q 1506 391 1875 391 
Q 2147 391 2380 519 
Q 2613 647 2778 891 
Q 2956 1147 3065 1494 
Q 3175 1841 3175 2156 
z
M 1394 2969 
Q 1625 3272 1939 3428 
Q 2253 3584 2638 3584 
Q 3175 3584 3472 3232 
Q 3769 2881 3769 2247 
Q 3769 1728 3584 1258 
Q 3400 788 3053 416 
Q 2822 169 2531 39 
Q 2241 -91 1919 -91 
Q 1547 -91 1294 64 
Q 1041 219 916 525 
L 556 -1331 
L -19 -1331 
L 922 3500 
L 1497 3500 
L 1394 2969 
z
" transform="scale(0.015625)"/>
       <path id="DejaVuSans-Oblique-69" d="M 1172 4863 
L 1747 4863 
L 1606 4134 
L 1031 4134 
L 1172 4863 
z
M 909 3500 
L 1484 3500 
L 800 0 
L 225 0 
L 909 3500 
z
" transform="scale(0.015625)"/>
       <path id="DejaVuSans-Oblique-74" d="M 2706 3500 
L 2619 3053 
L 1472 3053 
L 1100 1153 
Q 1081 1047 1072 975 
Q 1063 903 1063 863 
Q 1063 663 1183 572 
Q 1303 481 1569 481 
L 2150 481 
L 2053 0 
L 1503 0 
Q 991 0 739 200 
Q 488 400 488 806 
Q 488 878 497 964 
Q 506 1050 525 1153 
L 897 3053 
L 409 3053 
L 500 3500 
L 978 3500 
L 1172 4494 
L 1747 4494 
L 1556 3500 
L 2706 3500 
z
" transform="scale(0.015625)"/>
       <path id="DejaVuSans-Oblique-63" d="M 3431 3366 
L 3316 2797 
Q 3109 2947 2876 3022 
Q 2644 3097 2394 3097 
Q 2119 3097 1870 3000 
Q 1622 2903 1453 2725 
Q 1184 2453 1037 2087 
Q 891 1722 891 1331 
Q 891 859 1127 628 
Q 1363 397 1844 397 
Q 2081 397 2348 469 
Q 2616 541 2906 684 
L 2797 116 
Q 2547 13 2283 -39 
Q 2019 -91 1741 -91 
Q 1044 -91 669 257 
Q 294 606 294 1253 
Q 294 1797 489 2255 
Q 684 2713 1069 3078 
Q 1331 3328 1684 3456 
Q 2038 3584 2456 3584 
Q 2700 3584 2940 3529 
Q 3181 3475 3431 3366 
z
" transform="scale(0.015625)"/>
       <path id="DejaVuSans-Oblique-68" d="M 3566 2113 
L 3156 0 
L 2578 0 
L 2988 2091 
Q 3016 2238 3031 2350 
Q 3047 2463 3047 2528 
Q 3047 2791 2881 2937 
Q 2716 3084 2419 3084 
Q 1956 3084 1617 2771 
Q 1278 2459 1178 1941 
L 800 0 
L 225 0 
L 1172 4863 
L 1747 4863 
L 1375 2950 
Q 1594 3244 1934 3414 
Q 2275 3584 2650 3584 
Q 3113 3584 3367 3334 
Q 3622 3084 3622 2631 
Q 3622 2519 3608 2391 
Q 3594 2263 3566 2113 
z
" transform="scale(0.015625)"/>
       <path id="DejaVuSans-2f" d="M 1625 4666 
L 2156 4666 
L 531 -594 
L 0 -594 
L 1625 4666 
z
" transform="scale(0.015625)"/>
       <path id="DejaVuSans-Oblique-4a" d="M 1069 4666 
L 1703 4666 
L 856 325 
Q 691 -522 298 -901 
Q -94 -1281 -800 -1281 
L -1050 -1281 
L -947 -750 
L -750 -750 
Q -328 -750 -109 -509 
Q 109 -269 225 325 
L 1069 4666 
z
" transform="scale(0.015625)"/>
      </defs>
      <use xlink:href="#DejaVuSans-Oblique-64" transform="translate(0 0.015625)"/>
      <use xlink:href="#DejaVuSans-Oblique-43" transform="translate(63.476562 0.015625)"/>
      <use xlink:href="#DejaVuSans-Oblique-4d" transform="translate(133.300781 0.015625)"/>
      <use xlink:href="#DejaVuSans-Oblique-70" transform="translate(219.580078 0.015625)"/>
      <use xlink:href="#DejaVuSans-Oblique-69" transform="translate(283.056641 0.015625)"/>
      <use xlink:href="#DejaVuSans-Oblique-74" transform="translate(310.839844 0.015625)"/>
      <use xlink:href="#DejaVuSans-Oblique-63" transform="translate(350.048828 0.015625)"/>
      <use xlink:href="#DejaVuSans-Oblique-68" transform="translate(405.029297 0.015625)"/>
      <use xlink:href="#DejaVuSans-2f" transform="translate(468.408203 0.015625)"/>
      <use xlink:href="#DejaVuSans-Oblique-64" transform="translate(502.099609 0.015625)"/>
      <use xlink:href="#DejaVuSans-Oblique-4a" transform="translate(565.576172 0.015625)"/>
     </g>
    </g>
   </g>
   <g id="line2d_23">
    <path d="M 75.075 166.62 
L 77.019444 166.340166 
L 78.963889 166.060114 
L 80.908333 165.779847 
L 82.852778 165.499362 
L 84.797222 165.218661 
L 86.741667 164.937743 
L 88.686111 164.656608 
L 90.630556 164.375257 
L 92.575 164.093688 
L 94.519444 163.811904 
L 96.463889 163.529902 
L 98.408333 163.247684 
L 100.352778 162.965249 
L 102.297222 162.682597 
L 104.241667 162.399729 
L 106.186111 162.116644 
L 108.130556 161.833342 
L 110.075 161.549823 
L 112.019444 161.266088 
L 113.963889 160.982136 
L 115.908333 160.697967 
L 117.852778 160.413582 
L 119.797222 160.12898 
L 121.741667 159.844161 
L 123.686111 159.559126 
L 125.630556 159.273874 
L 127.575 158.988405 
L 129.519444 158.702719 
L 131.463889 158.416817 
L 133.408333 158.130698 
L 135.352778 157.844362 
L 137.297222 157.55781 
L 139.241667 157.27104 
L 141.186111 156.984054 
L 143.130556 156.696852 
L 145.075 156.409433 
L 147.019444 156.121797 
L 148.963889 155.833944 
L 150.908333 155.545874 
L 152.852778 155.257588 
L 154.797222 154.969085 
L 156.741667 154.680366 
L 158.686111 154.39143 
L 160.630556 154.102277 
L 162.575 153.812907 
L 164.519444 153.523321 
L 166.463889 153.233518 
L 168.408333 152.943498 
L 170.352778 152.653261 
L 172.297222 152.362808 
L 174.241667 152.072138 
L 176.186111 151.781251 
L 178.130556 151.490148 
L 180.075 151.198828 
L 182.019444 150.907291 
L 183.963889 150.615538 
L 185.908333 150.323567 
L 187.852778 150.031381 
L 189.797222 149.738977 
L 191.741667 149.446357 
L 193.686111 149.15352 
L 195.630556 148.860466 
L 197.575 148.567195 
L 199.519444 148.273708 
L 201.463889 147.980004 
L 203.408333 147.686084 
L 205.352778 147.391946 
L 207.297222 147.097592 
L 209.241667 146.803022 
L 211.186111 146.508234 
L 213.130556 146.21323 
L 215.075 145.918009 
L 217.019444 145.622572 
L 218.963889 145.326917 
L 220.908333 145.031046 
L 222.852778 144.734959 
L 224.797222 144.438654 
L 226.741667 144.142133 
L 228.686111 143.845395 
L 230.630556 143.548441 
L 232.575 143.25127 
L 234.519444 142.953882 
L 236.463889 142.656277 
L 238.408333 142.358456 
L 240.352778 142.060418 
L 242.297222 141.762163 
L 244.241667 141.463691 
L 246.186111 141.165003 
L 248.130556 140.866098 
L 250.075 140.566977 
L 252.019444 140.267638 
L 253.963889 139.968083 
L 255.908333 139.668311 
L 257.852778 139.368323 
L 259.797222 139.068118 
L 261.741667 138.767696 
L 263.686111 138.467057 
L 265.630556 138.166202 
L 267.575 137.86513 
" clip-path="url(#p102e1f0e73)" style="fill: none; stroke: #440154; stroke-width: 1.5; stroke-linecap: square"/>
   </g>
   <g id="line2d_24">
    <path d="M 75.075 106.625394 
L 77.019444 106.09516 
L 78.963889 105.570254 
L 80.908333 105.050678 
L 82.852778 104.53643 
L 84.797222 104.02751 
L 86.741667 103.52392 
L 88.686111 103.025659 
L 90.630556 102.532726 
L 92.575 102.045122 
L 94.519444 101.562847 
L 96.463889 101.085901 
L 98.408333 100.614284 
L 100.352778 100.147995 
L 102.297222 99.687036 
L 104.241667 99.231405 
L 106.186111 98.781103 
L 108.130556 98.33613 
L 110.075 97.896485 
L 112.019444 97.46217 
L 113.963889 97.033183 
L 115.908333 96.609525 
L 117.852778 96.191196 
L 119.797222 95.778196 
L 121.741667 95.370525 
L 123.686111 94.968182 
L 125.630556 94.571168 
L 127.575 94.179484 
L 129.519444 93.793127 
L 131.463889 93.4121 
L 133.408333 93.036402 
L 135.352778 92.666032 
L 137.297222 92.300992 
L 139.241667 91.94128 
L 141.186111 91.586897 
L 143.130556 91.237843 
L 145.075 90.894117 
L 147.019444 90.555721 
L 148.963889 90.222653 
L 150.908333 89.894914 
L 152.852778 89.572504 
L 154.797222 89.255423 
L 156.741667 88.94367 
L 158.686111 88.637247 
L 160.630556 88.336152 
L 162.575 88.040386 
L 164.519444 87.749949 
L 166.463889 87.464841 
L 168.408333 87.185061 
L 170.352778 86.910611 
L 172.297222 86.641489 
L 174.241667 86.377696 
L 176.186111 86.119232 
L 178.130556 85.866097 
L 180.075 85.61829 
L 182.019444 85.375813 
L 183.963889 85.138664 
L 185.908333 84.906844 
L 187.852778 84.680353 
L 189.797222 84.459191 
L 191.741667 84.243357 
L 193.686111 84.032853 
L 195.630556 83.827677 
L 197.575 83.62783 
L 199.519444 83.433312 
L 201.463889 83.244122 
L 203.408333 83.060262 
L 205.352778 82.88173 
L 207.297222 82.708528 
L 209.241667 82.540654 
L 211.186111 82.378108 
L 213.130556 82.220892 
L 215.075 82.069005 
L 217.019444 81.922446 
L 218.963889 81.781216 
L 220.908333 81.645315 
L 222.852778 81.514743 
L 224.797222 81.3895 
L 226.741667 81.269585 
L 228.686111 81.155 
L 230.630556 81.045743 
L 232.575 80.941815 
L 234.519444 80.843216 
L 236.463889 80.749945 
L 238.408333 80.662004 
L 240.352778 80.579391 
L 242.297222 80.502107 
L 244.241667 80.430152 
L 246.186111 80.363526 
L 248.130556 80.302229 
L 250.075 80.24626 
L 252.019444 80.195621 
L 253.963889 80.15031 
L 255.908333 80.110328 
L 257.852778 80.075674 
L 259.797222 80.04635 
L 261.741667 80.022355 
L 263.686111 80.003688 
L 265.630556 79.99035 
L 267.575 79.982341 
" clip-path="url(#p102e1f0e73)" style="fill: none; stroke: #21918c; stroke-width: 1.5; stroke-linecap: square"/>
   </g>
   <g id="line2d_25">
    <path d="M 75.075 46.630789 
L 77.019444 45.850154 
L 78.963889 45.080394 
L 80.908333 44.321509 
L 82.852778 43.573497 
L 84.797222 42.83636 
L 86.741667 42.110098 
L 88.686111 41.394709 
L 90.630556 40.690195 
L 92.575 39.996556 
L 94.519444 39.313791 
L 96.463889 38.6419 
L 98.408333 37.980884 
L 100.352778 37.330742 
L 102.297222 36.691474 
L 104.241667 36.063081 
L 106.186111 35.445562 
L 108.130556 34.838917 
L 110.075 34.243147 
L 112.019444 33.658251 
L 113.963889 33.08423 
L 115.908333 32.521083 
L 117.852778 31.96881 
L 119.797222 31.427412 
L 121.741667 30.896888 
L 123.686111 30.377238 
L 125.630556 29.868463 
L 127.575 29.370562 
L 129.519444 28.883536 
L 131.463889 28.407384 
L 133.408333 27.942106 
L 135.352778 27.487703 
L 137.297222 27.044174 
L 139.241667 26.611519 
L 141.186111 26.189739 
L 143.130556 25.778833 
L 145.075 25.378802 
L 147.019444 24.989645 
L 148.963889 24.611362 
L 150.908333 24.243953 
L 152.852778 23.887419 
L 154.797222 23.54176 
L 156.741667 23.206975 
L 158.686111 22.883064 
L 160.630556 22.570027 
L 162.575 22.267865 
L 164.519444 21.976577 
L 166.463889 21.696164 
L 168.408333 21.426625 
L 170.352778 21.16796 
L 172.297222 20.92017 
L 174.241667 20.683254 
L 176.186111 20.457213 
L 178.130556 20.242045 
L 180.075 20.037753 
L 182.019444 19.844334 
L 183.963889 19.66179 
L 185.908333 19.49012 
L 187.852778 19.329325 
L 189.797222 19.179404 
L 191.741667 19.040358 
L 193.686111 18.912186 
L 195.630556 18.794888 
L 197.575 18.688464 
L 199.519444 18.592915 
L 201.463889 18.50824 
L 203.408333 18.43444 
L 205.352778 18.371514 
L 207.297222 18.319463 
L 209.241667 18.278285 
L 211.186111 18.247983 
L 213.130556 18.228554 
L 215.075 18.22 
L 217.019444 18.22232 
L 218.963889 18.235515 
L 220.908333 18.259584 
L 222.852778 18.294527 
L 224.797222 18.340345 
L 226.741667 18.397037 
L 228.686111 18.464604 
L 230.630556 18.543045 
L 232.575 18.63236 
L 234.519444 18.732549 
L 236.463889 18.843613 
L 238.408333 18.965552 
L 240.352778 19.098365 
L 242.297222 19.242052 
L 244.241667 19.396613 
L 246.186111 19.562049 
L 248.130556 19.738359 
L 250.075 19.925544 
L 252.019444 20.123603 
L 253.963889 20.332536 
L 255.908333 20.552344 
L 257.852778 20.783026 
L 259.797222 21.024582 
L 261.741667 21.277013 
L 263.686111 21.540318 
L 265.630556 21.814498 
L 267.575 22.099552 
" clip-path="url(#p102e1f0e73)" style="fill: none; stroke: #fde725; stroke-width: 1.5; stroke-linecap: square"/>
   </g>
   <g id="patch_3">
    <path d="M 65.45 174.04 
L 65.45 10.8 
" style="fill: none; stroke: #000000; stroke-width: 0.8; stroke-linejoin: miter; stroke-linecap: square"/>
   </g>
   <g id="patch_4">
    <path d="M 277.2 174.04 
L 277.2 10.8 
" style="fill: none; stroke: #000000; stroke-width: 0.8; stroke-linejoin: miter; stroke-linecap: square"/>
   </g>
   <g id="patch_5">
    <path d="M 65.45 174.04 
L 277.2 174.04 
" style="fill: none; stroke: #000000; stroke-width: 0.8; stroke-linejoin: miter; stroke-linecap: square"/>
   </g>
   <g id="patch_6">
    <path d="M 65.45 10.8 
L 277.2 10.8 
" style="fill: none; stroke: #000000; stroke-width: 0.8; stroke-linejoin: miter; stroke-linecap: square"/>
   </g>
   <g id="legend_1">
    <g id="patch_7">
     <path d="M 190.2 62.834375 
L 270.2 62.834375 
Q 272.2 62.834375 272.2 60.834375 
L 272.2 17.8 
Q 272.2 15.8 270.2 15.8 
L 190.2 15.8 
Q 188.2 15.8 188.2 17.8 
L 188.2 60.834375 
Q 188.2 62.834375 190.2 62.834375 
z
" style="fill: #ffffff; opacity: 0.8; stroke: #cccccc; stroke-linejoin: miter"/>
    </g>
    <g id="line2d_26">
     <path d="M 192.2 23.898438 
L 202.2 23.898438 
L 212.2 23.898438 
" style="fill: none; stroke: #440154; stroke-width: 1.5; stroke-linecap: square"/>
    </g>
    <g id="text_14">
     <!-- $\delta_e = -10$ -->
     <g transform="translate(220.2 27.398438) scale(0.1 -0.1)">
      <defs>
       <path id="DejaVuSans-Oblique-3b4" d="M 3472 4053 
Q 3197 4272 2450 4272 
Q 1659 4272 1588 3906 
Q 1531 3619 2328 3469 
Q 2953 3353 3253 3003 
Q 3616 2581 3447 1716 
Q 3284 888 2763 400 
Q 2238 -91 1488 -91 
Q 741 -91 406 400 
Q 72 888 241 1747 
Q 363 2384 891 2900 
Q 1097 3100 1353 3213 
Q 913 3459 1000 3900 
Q 1166 4750 2544 4750 
Q 3234 4750 3566 4531 
L 3472 4053 
z
M 1753 3056 
Q 1525 2966 1306 2738 
Q 969 2384 847 1747 
Q 722 1113 919 756 
Q 1119 397 1584 397 
Q 2044 397 2381 759 
Q 2722 1122 2838 1716 
Q 2956 2338 2731 2638 
Q 2491 2959 2103 2994 
Q 1906 3013 1753 3056 
z
" transform="scale(0.015625)"/>
       <path id="DejaVuSans-Oblique-65" d="M 3078 2063 
Q 3088 2113 3092 2166 
Q 3097 2219 3097 2272 
Q 3097 2653 2873 2875 
Q 2650 3097 2266 3097 
Q 1838 3097 1509 2826 
Q 1181 2556 1013 2059 
L 3078 2063 
z
M 3578 1613 
L 903 1613 
Q 884 1494 878 1425 
Q 872 1356 872 1306 
Q 872 872 1139 634 
Q 1406 397 1894 397 
Q 2269 397 2603 481 
Q 2938 566 3225 728 
L 3116 159 
Q 2806 34 2476 -28 
Q 2147 -91 1806 -91 
Q 1078 -91 686 257 
Q 294 606 294 1247 
Q 294 1794 489 2264 
Q 684 2734 1063 3103 
Q 1306 3334 1642 3459 
Q 1978 3584 2356 3584 
Q 2950 3584 3301 3228 
Q 3653 2872 3653 2272 
Q 3653 2128 3634 1964 
Q 3616 1800 3578 1613 
z
" transform="scale(0.015625)"/>
       <path id="DejaVuSans-3d" d="M 678 2906 
L 4684 2906 
L 4684 2381 
L 678 2381 
L 678 2906 
z
M 678 1631 
L 4684 1631 
L 4684 1100 
L 678 1100 
L 678 1631 
z
" transform="scale(0.015625)"/>
      </defs>
      <use xlink:href="#DejaVuSans-Oblique-3b4" transform="translate(0 0.78125)"/>
      <use xlink:href="#DejaVuSans-Oblique-65" transform="translate(61.181641 -15.625) scale(0.7)"/>
      <use xlink:href="#DejaVuSans-3d" transform="translate(126.464844 0.78125)"/>
      <use xlink:href="#DejaVuSans-2212" transform="translate(249.21875 0.78125)"/>
      <use xlink:href="#DejaVuSans-31" transform="translate(352.490234 0.78125)"/>
      <use xlink:href="#DejaVuSans-30" transform="translate(416.113281 0.78125)"/>
     </g>
    </g>
    <g id="line2d_27">
     <path d="M 192.2 38.576563 
L 202.2 38.576563 
L 212.2 38.576563 
" style="fill: none; stroke: #21918c; stroke-width: 1.5; stroke-linecap: square"/>
    </g>
    <g id="text_15">
     <!-- $\delta_e = 0$ -->
     <g transform="translate(220.2 42.076563) scale(0.1 -0.1)">
      <use xlink:href="#DejaVuSans-Oblique-3b4" transform="translate(0 0.78125)"/>
      <use xlink:href="#DejaVuSans-Oblique-65" transform="translate(61.181641 -15.625) scale(0.7)"/>
      <use xlink:href="#DejaVuSans-3d" transform="translate(126.464844 0.78125)"/>
      <use xlink:href="#DejaVuSans-30" transform="translate(229.736328 0.78125)"/>
     </g>
    </g>
    <g id="line2d_28">
     <path d="M 192.2 53.254688 
L 202.2 53.254688 
L 212.2 53.254688 
" style="fill: none; stroke: #fde725; stroke-width: 1.5; stroke-linecap: square"/>
    </g>
    <g id="text_16">
     <!-- $\delta_e = 10$ -->
     <g transform="translate(220.2 56.754688) scale(0.1 -0.1)">
      <use xlink:href="#DejaVuSans-Oblique-3b4" transform="translate(0 0.78125)"/>
      <use xlink:href="#DejaVuSans-Oblique-65" transform="translate(61.181641 -15.625) scale(0.7)"/>
      <use xlink:href="#DejaVuSans-3d" transform="translate(126.464844 0.78125)"/>
      <use xlink:href="#DejaVuSans-31" transform="translate(229.736328 0.78125)"/>
      <use xlink:href="#DejaVuSans-30" transform="translate(293.359375 0.78125)"/>
     </g>
    </g>
   </g>
  </g>
 </g>
 <defs>
  <clipPath id="p102e1f0e73">
   <rect x="65.45" y="10.8" width="211.75" height="163.24"/>
  </clipPath>
 </defs>
</svg>
