<?xml version="1.0" encoding="utf-8" standalone="no"?>
<!DOCTYPE svg PUBLIC "-//W3C//DTD SVG 1.1//EN"
  "http://www.w3.org/Graphics/SVG/1.1/DTD/svg11.dtd">
<svg xmlns:xlink="http://www.w3.org/1999/xlink" width="432pt" height="216pt" viewBox="0 0 432 216" xmlns="http://www.w3.org/2000/svg" version="1.1">
 <metadata>
  <rdf:RDF xmlns:dc="http://purl.org/dc/elements/1.1/" xmlns:cc="http://creativecommons.org/ns#" xmlns:rdf="http://www.w3.org/1999/02/22-rdf-syntax-ns#">
   <cc:Work>
    <dc:type rdf:resource="http://purl.org/dc/dcmitype/StillImage"/>
    <dc:date>2025-03-28T12:22:23.186676</dc:date>
    <dc:format>image/svg+xml</dc:format>
    <dc:creator>
     <cc:Agent>
      <dc:title>Matplotlib v3.9.2, https://matplotlib.org/</dc:title>
     </cc:Agent>
    </dc:creator>
   </cc:Work>
  </rdf:RDF>
 </metadata>
 <defs>
  <style type="text/css">*{stroke-linejoin: round; stroke-linecap: butt}</style>
 </defs>
 <g id="figure_1">
  <g id="patch_1">
   <path d="M 0 216 
L 432 216 
L 432 0 
L 0 0 
z
" style="fill: #ffffff"/>
  </g>
  <g id="axes_1">
   <g id="patch_2">
    <path d="M 65.45 174.04 
L 287.617856 174.04 
L 287.617856 10.8 
L 65.45 10.8 
z
" style="fill: #ffffff"/>
   </g>
   <g id="matplotlib.axis_1">
    <g id="xtick_1">
     <g id="line2d_1">
      <path d="M 75.548539 174.04 
L 75.548539 10.8 
" clip-path="url(#p51bd1e3656)" style="fill: none; stroke: #b0b0b0; stroke-width: 0.8; stroke-linecap: square"/>
     </g>
     <g id="line2d_2">
      <defs>
       <path id="m104d2b2bd5" d="M 0 0 
L 0 3.5 
" style="stroke: #000000; stroke-width: 0.8"/>
      </defs>
      <g>
       <use xlink:href="#m104d2b2bd5" x="75.548539" y="174.04" style="stroke: #000000; stroke-width: 0.8"/>
      </g>
     </g>
     <g id="text_1">
      <!-- −4 -->
      <g transform="translate(68.177445 188.638438) scale(0.1 -0.1)">
       <defs>
        <path id="DejaVuSans-2212" d="M 678 2272 
L 4684 2272 
L 4684 1741 
L 678 1741 
L 678 2272 
z
" transform="scale(0.015625)"/>
        <path id="DejaVuSans-34" d="M 2419 4116 
L 825 1625 
L 2419 1625 
L 2419 4116 
z
M 2253 4666 
L 3047 4666 
L 3047 1625 
L 3713 1625 
L 3713 1100 
L 3047 1100 
L 3047 0 
L 2419 0 
L 2419 1100 
L 313 1100 
L 313 1709 
L 2253 4666 
z
" transform="scale(0.015625)"/>
       </defs>
       <use xlink:href="#DejaVuSans-2212"/>
       <use xlink:href="#DejaVuSans-34" x="83.789062"/>
      </g>
     </g>
    </g>
    <g id="xtick_2">
     <g id="line2d_3">
      <path d="M 112.270499 174.04 
L 112.270499 10.8 
" clip-path="url(#p51bd1e3656)" style="fill: none; stroke: #b0b0b0; stroke-width: 0.8; stroke-linecap: square"/>
     </g>
     <g id="line2d_4">
      <g>
       <use xlink:href="#m104d2b2bd5" x="112.270499" y="174.04" style="stroke: #000000; stroke-width: 0.8"/>
      </g>
     </g>
     <g id="text_2">
      <!-- −2 -->
      <g transform="translate(104.899405 188.638438) scale(0.1 -0.1)">
       <defs>
        <path id="DejaVuSans-32" d="M 1228 531 
L 3431 531 
L 3431 0 
L 469 0 
L 469 531 
Q 828 903 1448 1529 
Q 2069 2156 2228 2338 
Q 2531 2678 2651 2914 
Q 2772 3150 2772 3378 
Q 2772 3750 2511 3984 
Q 2250 4219 1831 4219 
Q 1534 4219 1204 4116 
Q 875 4013 500 3803 
L 500 4441 
Q 881 4594 1212 4672 
Q 1544 4750 1819 4750 
Q 2544 4750 2975 4387 
Q 3406 4025 3406 3419 
Q 3406 3131 3298 2873 
Q 3191 2616 2906 2266 
Q 2828 2175 2409 1742 
Q 1991 1309 1228 531 
z
" transform="scale(0.015625)"/>
       </defs>
       <use xlink:href="#DejaVuSans-2212"/>
       <use xlink:href="#DejaVuSans-32" x="83.789062"/>
      </g>
     </g>
    </g>
    <g id="xtick_3">
     <g id="line2d_5">
      <path d="M 148.992458 174.04 
L 148.992458 10.8 
" clip-path="url(#p51bd1e3656)" style="fill: none; stroke: #b0b0b0; stroke-width: 0.8; stroke-linecap: square"/>
     </g>
     <g id="line2d_6">
      <g>
       <use xlink:href="#m104d2b2bd5" x="148.992458" y="174.04" style="stroke: #000000; stroke-width: 0.8"/>
      </g>
     </g>
     <g id="text_3">
      <!-- 0 -->
      <g transform="translate(145.811208 188.638438) scale(0.1 -0.1)">
       <defs>
        <path id="DejaVuSans-30" d="M 2034 4250 
Q 1547 4250 1301 3770 
Q 1056 3291 1056 2328 
Q 1056 1369 1301 889 
Q 1547 409 2034 409 
Q 2525 409 2770 889 
Q 3016 1369 3016 2328 
Q 3016 3291 2770 3770 
Q 2525 4250 2034 4250 
z
M 2034 4750 
Q 2819 4750 3233 4129 
Q 3647 3509 3647 2328 
Q 3647 1150 3233 529 
Q 2819 -91 2034 -91 
Q 1250 -91 836 529 
Q 422 1150 422 2328 
Q 422 3509 836 4129 
Q 1250 4750 2034 4750 
z
" transform="scale(0.015625)"/>
       </defs>
       <use xlink:href="#DejaVuSans-30"/>
      </g>
     </g>
    </g>
    <g id="xtick_4">
     <g id="line2d_7">
      <path d="M 185.714418 174.04 
L 185.714418 10.8 
" clip-path="url(#p51bd1e3656)" style="fill: none; stroke: #b0b0b0; stroke-width: 0.8; stroke-linecap: square"/>
     </g>
     <g id="line2d_8">
      <g>
       <use xlink:href="#m104d2b2bd5" x="185.714418" y="174.04" style="stroke: #000000; stroke-width: 0.8"/>
      </g>
     </g>
     <g id="text_4">
      <!-- 2 -->
      <g transform="translate(182.533168 188.638438) scale(0.1 -0.1)">
       <use xlink:href="#DejaVuSans-32"/>
      </g>
     </g>
    </g>
    <g id="xtick_5">
     <g id="line2d_9">
      <path d="M 222.436377 174.04 
L 222.436377 10.8 
" clip-path="url(#p51bd1e3656)" style="fill: none; stroke: #b0b0b0; stroke-width: 0.8; stroke-linecap: square"/>
     </g>
     <g id="line2d_10">
      <g>
       <use xlink:href="#m104d2b2bd5" x="222.436377" y="174.04" style="stroke: #000000; stroke-width: 0.8"/>
      </g>
     </g>
     <g id="text_5">
      <!-- 4 -->
      <g transform="translate(219.255127 188.638438) scale(0.1 -0.1)">
       <use xlink:href="#DejaVuSans-34"/>
      </g>
     </g>
    </g>
    <g id="xtick_6">
     <g id="line2d_11">
      <path d="M 259.158337 174.04 
L 259.158337 10.8 
" clip-path="url(#p51bd1e3656)" style="fill: none; stroke: #b0b0b0; stroke-width: 0.8; stroke-linecap: square"/>
     </g>
     <g id="line2d_12">
      <g>
       <use xlink:href="#m104d2b2bd5" x="259.158337" y="174.04" style="stroke: #000000; stroke-width: 0.8"/>
      </g>
     </g>
     <g id="text_6">
      <!-- 6 -->
      <g transform="translate(255.977087 188.638438) scale(0.1 -0.1)">
       <defs>
        <path id="DejaVuSans-36" d="M 2113 2584 
Q 1688 2584 1439 2293 
Q 1191 2003 1191 1497 
Q 1191 994 1439 701 
Q 1688 409 2113 409 
Q 2538 409 2786 701 
Q 3034 994 3034 1497 
Q 3034 2003 2786 2293 
Q 2538 2584 2113 2584 
z
M 3366 4563 
L 3366 3988 
Q 3128 4100 2886 4159 
Q 2644 4219 2406 4219 
Q 1781 4219 1451 3797 
Q 1122 3375 1075 2522 
Q 1259 2794 1537 2939 
Q 1816 3084 2150 3084 
Q 2853 3084 3261 2657 
Q 3669 2231 3669 1497 
Q 3669 778 3244 343 
Q 2819 -91 2113 -91 
Q 1303 -91 875 529 
Q 447 1150 447 2328 
Q 447 3434 972 4092 
Q 1497 4750 2381 4750 
Q 2619 4750 2861 4703 
Q 3103 4656 3366 4563 
z
" transform="scale(0.015625)"/>
       </defs>
       <use xlink:href="#DejaVuSans-36"/>
      </g>
     </g>
    </g>
    <g id="text_7">
     <!-- $\alpha$ -->
     <g transform="translate(173.233928 202.316563) scale(0.1 -0.1)">
      <defs>
       <path id="DejaVuSans-Oblique-3b1" d="M 2619 1628 
L 2622 2350 
Q 2625 3088 2069 3091 
Q 1653 3094 1394 2747 
Q 1069 2319 959 1747 
Q 825 1059 994 731 
Q 1169 397 1547 397 
Q 1966 397 2319 1063 
L 2619 1628 
z
M 2166 3578 
Q 3141 3594 3128 2584 
Q 3128 2584 3616 3500 
L 4128 3500 
L 3119 1603 
L 3109 919 
Q 3109 766 3194 638 
Q 3291 488 3391 488 
L 3669 488 
L 3575 0 
L 3228 0 
Q 2934 0 2722 263 
Q 2622 394 2619 669 
Q 2416 334 2066 50 
Q 1900 -81 1453 -78 
Q 722 -72 456 397 
Q 184 884 353 1747 
Q 534 2675 1009 3097 
Q 1544 3569 2166 3578 
z
" transform="scale(0.015625)"/>
      </defs>
      <use xlink:href="#DejaVuSans-Oblique-3b1" transform="translate(0 0.84375)"/>
     </g>
    </g>
   </g>
   <g id="matplotlib.axis_2">
    <g id="ytick_1">
     <g id="line2d_13">
      <path d="M 65.45 170.670477 
L 287.617856 170.670477 
" clip-path="url(#p51bd1e3656)" style="fill: none; stroke: #b0b0b0; stroke-width: 0.8; stroke-linecap: square"/>
     </g>
     <g id="line2d_14">
      <defs>
       <path id="ma6907e0db5" d="M 0 0 
L -3.5 0 
" style="stroke: #000000; stroke-width: 0.8"/>
      </defs>
      <g>
       <use xlink:href="#ma6907e0db5" x="65.45" y="170.670477" style="stroke: #000000; stroke-width: 0.8"/>
      </g>
     </g>
     <g id="text_8">
      <!-- −0.20 -->
      <g transform="translate(27.804688 174.469696) scale(0.1 -0.1)">
       <defs>
        <path id="DejaVuSans-2e" d="M 684 794 
L 1344 794 
L 1344 0 
L 684 0 
L 684 794 
z
" transform="scale(0.015625)"/>
       </defs>
       <use xlink:href="#DejaVuSans-2212"/>
       <use xlink:href="#DejaVuSans-30" x="83.789062"/>
       <use xlink:href="#DejaVuSans-2e" x="147.412109"/>
       <use xlink:href="#DejaVuSans-32" x="179.199219"/>
       <use xlink:href="#DejaVuSans-30" x="242.822266"/>
      </g>
     </g>
    </g>
    <g id="ytick_2">
     <g id="line2d_15">
      <path d="M 65.45 148.868475 
L 287.617856 148.868475 
" clip-path="url(#p51bd1e3656)" style="fill: none; stroke: #b0b0b0; stroke-width: 0.8; stroke-linecap: square"/>
     </g>
     <g id="line2d_16">
      <g>
       <use xlink:href="#ma6907e0db5" x="65.45" y="148.868475" style="stroke: #000000; stroke-width: 0.8"/>
      </g>
     </g>
     <g id="text_9">
      <!-- −0.15 -->
      <g transform="translate(27.804688 152.667694) scale(0.1 -0.1)">
       <defs>
        <path id="DejaVuSans-31" d="M 794 531 
L 1825 531 
L 1825 4091 
L 703 3866 
L 703 4441 
L 1819 4666 
L 2450 4666 
L 2450 531 
L 3481 531 
L 3481 0 
L 794 0 
L 794 531 
z
" transform="scale(0.015625)"/>
        <path id="DejaVuSans-35" d="M 691 4666 
L 3169 4666 
L 3169 4134 
L 1269 4134 
L 1269 2991 
Q 1406 3038 1543 3061 
Q 1681 3084 1819 3084 
Q 2600 3084 3056 2656 
Q 3513 2228 3513 1497 
Q 3513 744 3044 326 
Q 2575 -91 1722 -91 
Q 1428 -91 1123 -41 
Q 819 9 494 109 
L 494 744 
Q 775 591 1075 516 
Q 1375 441 1709 441 
Q 2250 441 2565 725 
Q 2881 1009 2881 1497 
Q 2881 1984 2565 2268 
Q 2250 2553 1709 2553 
Q 1456 2553 1204 2497 
Q 953 2441 691 2322 
L 691 4666 
z
" transform="scale(0.015625)"/>
       </defs>
       <use xlink:href="#DejaVuSans-2212"/>
       <use xlink:href="#DejaVuSans-30" x="83.789062"/>
       <use xlink:href="#DejaVuSans-2e" x="147.412109"/>
       <use xlink:href="#DejaVuSans-31" x="179.199219"/>
       <use xlink:href="#DejaVuSans-35" x="242.822266"/>
      </g>
     </g>
    </g>
    <g id="ytick_3">
     <g id="line2d_17">
      <path d="M 65.45 127.066473 
L 287.617856 127.066473 
" clip-path="url(#p51bd1e3656)" style="fill: none; stroke: #b0b0b0; stroke-width: 0.8; stroke-linecap: square"/>
     </g>
     <g id="line2d_18">
      <g>
       <use xlink:href="#ma6907e0db5" x="65.45" y="127.066473" style="stroke: #000000; stroke-width: 0.8"/>
      </g>
     </g>
     <g id="text_10">
      <!-- −0.10 -->
      <g transform="translate(27.804688 130.865692) scale(0.1 -0.1)">
       <use xlink:href="#DejaVuSans-2212"/>
       <use xlink:href="#DejaVuSans-30" x="83.789062"/>
       <use xlink:href="#DejaVuSans-2e" x="147.412109"/>
       <use xlink:href="#DejaVuSans-31" x="179.199219"/>
       <use xlink:href="#DejaVuSans-30" x="242.822266"/>
      </g>
     </g>
    </g>
    <g id="ytick_4">
     <g id="line2d_19">
      <path d="M 65.45 105.264471 
L 287.617856 105.264471 
" clip-path="url(#p51bd1e3656)" style="fill: none; stroke: #b0b0b0; stroke-width: 0.8; stroke-linecap: square"/>
     </g>
     <g id="line2d_20">
      <g>
       <use xlink:href="#ma6907e0db5" x="65.45" y="105.264471" style="stroke: #000000; stroke-width: 0.8"/>
      </g>
     </g>
     <g id="text_11">
      <!-- −0.05 -->
      <g transform="translate(27.804688 109.06369) scale(0.1 -0.1)">
       <use xlink:href="#DejaVuSans-2212"/>
       <use xlink:href="#DejaVuSans-30" x="83.789062"/>
       <use xlink:href="#DejaVuSans-2e" x="147.412109"/>
       <use xlink:href="#DejaVuSans-30" x="179.199219"/>
       <use xlink:href="#DejaVuSans-35" x="242.822266"/>
      </g>
     </g>
    </g>
    <g id="ytick_5">
     <g id="line2d_21">
      <path d="M 65.45 83.462469 
L 287.617856 83.462469 
" clip-path="url(#p51bd1e3656)" style="fill: none; stroke: #b0b0b0; stroke-width: 0.8; stroke-linecap: square"/>
     </g>
     <g id="line2d_22">
      <g>
       <use xlink:href="#ma6907e0db5" x="65.45" y="83.462469" style="stroke: #000000; stroke-width: 0.8"/>
      </g>
     </g>
     <g id="text_12">
      <!-- 0.00 -->
      <g transform="translate(36.184375 87.261688) scale(0.1 -0.1)">
       <use xlink:href="#DejaVuSans-30"/>
       <use xlink:href="#DejaVuSans-2e" x="63.623047"/>
       <use xlink:href="#DejaVuSans-30" x="95.410156"/>
       <use xlink:href="#DejaVuSans-30" x="159.033203"/>
      </g>
     </g>
    </g>
    <g id="ytick_6">
     <g id="line2d_23">
      <path d="M 65.45 61.660467 
L 287.617856 61.660467 
" clip-path="url(#p51bd1e3656)" style="fill: none; stroke: #b0b0b0; stroke-width: 0.8; stroke-linecap: square"/>
     </g>
     <g id="line2d_24">
      <g>
       <use xlink:href="#ma6907e0db5" x="65.45" y="61.660467" style="stroke: #000000; stroke-width: 0.8"/>
      </g>
     </g>
     <g id="text_13">
      <!-- 0.05 -->
      <g transform="translate(36.184375 65.459686) scale(0.1 -0.1)">
       <use xlink:href="#DejaVuSans-30"/>
       <use xlink:href="#DejaVuSans-2e" x="63.623047"/>
       <use xlink:href="#DejaVuSans-30" x="95.410156"/>
       <use xlink:href="#DejaVuSans-35" x="159.033203"/>
      </g>
     </g>
    </g>
    <g id="ytick_7">
     <g id="line2d_25">
      <path d="M 65.45 39.858465 
L 287.617856 39.858465 
" clip-path="url(#p51bd1e3656)" style="fill: none; stroke: #b0b0b0; stroke-width: 0.8; stroke-linecap: square"/>
     </g>
     <g id="line2d_26">
      <g>
       <use xlink:href="#ma6907e0db5" x="65.45" y="39.858465" style="stroke: #000000; stroke-width: 0.8"/>
      </g>
     </g>
     <g id="text_14">
      <!-- 0.10 -->
      <g transform="translate(36.184375 43.657684) scale(0.1 -0.1)">
       <use xlink:href="#DejaVuSans-30"/>
       <use xlink:href="#DejaVuSans-2e" x="63.623047"/>
       <use xlink:href="#DejaVuSans-31" x="95.410156"/>
       <use xlink:href="#DejaVuSans-30" x="159.033203"/>
      </g>
     </g>
    </g>
    <g id="ytick_8">
     <g id="line2d_27">
      <path d="M 65.45 18.056463 
L 287.617856 18.056463 
" clip-path="url(#p51bd1e3656)" style="fill: none; stroke: #b0b0b0; stroke-width: 0.8; stroke-linecap: square"/>
     </g>
     <g id="line2d_28">
      <g>
       <use xlink:href="#ma6907e0db5" x="65.45" y="18.056463" style="stroke: #000000; stroke-width: 0.8"/>
      </g>
     </g>
     <g id="text_15">
      <!-- 0.15 -->
      <g transform="translate(36.184375 21.855682) scale(0.1 -0.1)">
       <use xlink:href="#DejaVuSans-30"/>
       <use xlink:href="#DejaVuSans-2e" x="63.623047"/>
       <use xlink:href="#DejaVuSans-31" x="95.410156"/>
       <use xlink:href="#DejaVuSans-35" x="159.033203"/>
      </g>
     </g>
    </g>
    <g id="text_16">
     <!-- d$C_M$ / d$J$ -->
     <g transform="translate(21.704687 111.77) rotate(-90) scale(0.1 -0.1)">
      <defs>
       <path id="DejaVuSans-64" d="M 2906 2969 
L 2906 4863 
L 3481 4863 
L 3481 0 
L 2906 0 
L 2906 525 
Q 2725 213 2448 61 
Q 2172 -91 1784 -91 
Q 1150 -91 751 415 
Q 353 922 353 1747 
Q 353 2572 751 3078 
Q 1150 3584 1784 3584 
Q 2172 3584 2448 3432 
Q 2725 3281 2906 2969 
z
M 947 1747 
Q 947 1113 1208 752 
Q 1469 391 1925 391 
Q 2381 391 2643 752 
Q 2906 1113 2906 1747 
Q 2906 2381 2643 2742 
Q 2381 3103 1925 3103 
Q 1469 3103 1208 2742 
Q 947 2381 947 1747 
z
" transform="scale(0.015625)"/>
       <path id="DejaVuSans-Oblique-43" d="M 4447 4306 
L 4319 3641 
Q 4019 3944 3683 4091 
Q 3347 4238 2956 4238 
Q 2422 4238 2017 3981 
Q 1613 3725 1319 3200 
Q 1131 2863 1032 2486 
Q 934 2109 934 1728 
Q 934 1091 1264 756 
Q 1594 422 2222 422 
Q 2656 422 3056 561 
Q 3456 700 3834 978 
L 3688 231 
Q 3316 72 2936 -9 
Q 2556 -91 2175 -91 
Q 1278 -91 773 396 
Q 269 884 269 1753 
Q 269 2309 461 2846 
Q 653 3384 1013 3828 
Q 1394 4300 1883 4525 
Q 2372 4750 3022 4750 
Q 3422 4750 3780 4639 
Q 4138 4528 4447 4306 
z
" transform="scale(0.015625)"/>
       <path id="DejaVuSans-Oblique-4d" d="M 1081 4666 
L 2028 4666 
L 2572 1522 
L 4378 4666 
L 5350 4666 
L 4441 0 
L 3828 0 
L 4622 4091 
L 2791 897 
L 2175 897 
L 1581 4103 
L 788 0 
L 172 0 
L 1081 4666 
z
" transform="scale(0.015625)"/>
       <path id="DejaVuSans-20" transform="scale(0.015625)"/>
       <path id="DejaVuSans-2f" d="M 1625 4666 
L 2156 4666 
L 531 -594 
L 0 -594 
L 1625 4666 
z
" transform="scale(0.015625)"/>
       <path id="DejaVuSans-Oblique-4a" d="M 1069 4666 
L 1703 4666 
L 856 325 
Q 691 -522 298 -901 
Q -94 -1281 -800 -1281 
L -1050 -1281 
L -947 -750 
L -750 -750 
Q -328 -750 -109 -509 
Q 109 -269 225 325 
L 1069 4666 
z
" transform="scale(0.015625)"/>
      </defs>
      <use xlink:href="#DejaVuSans-64" transform="translate(0 0.015625)"/>
      <use xlink:href="#DejaVuSans-Oblique-43" transform="translate(63.476562 0.015625)"/>
      <use xlink:href="#DejaVuSans-Oblique-4d" transform="translate(133.300781 -16.390625) scale(0.7)"/>
      <use xlink:href="#DejaVuSans-20" transform="translate(196.430664 0.015625)"/>
      <use xlink:href="#DejaVuSans-2f" transform="translate(228.217773 0.015625)"/>
      <use xlink:href="#DejaVuSans-20" transform="translate(261.90918 0.015625)"/>
      <use xlink:href="#DejaVuSans-64" transform="translate(293.696289 0.015625)"/>
      <use xlink:href="#DejaVuSans-Oblique-4a" transform="translate(357.172852 0.015625)"/>
     </g>
    </g>
   </g>
   <g id="line2d_29">
    <path d="M 75.548539 166.62 
L 77.588648 166.200146 
L 79.628757 165.779995 
L 81.668866 165.359548 
L 83.708974 164.938805 
L 85.749083 164.517764 
L 87.789192 164.096428 
L 89.829301 163.674794 
L 91.86941 163.252864 
L 93.909519 162.830638 
L 95.949628 162.408115 
L 97.989736 161.985295 
L 100.029845 161.562179 
L 102.069954 161.138766 
L 104.110063 160.715057 
L 106.150172 160.291051 
L 108.190281 159.866748 
L 110.23039 159.442149 
L 112.270499 159.017254 
L 114.310607 158.592061 
L 116.350716 158.166573 
L 118.390825 157.740787 
L 120.430934 157.314705 
L 122.471043 156.888327 
L 124.511152 156.461652 
L 126.551261 156.03468 
L 128.591369 155.607412 
L 130.631478 155.179848 
L 132.671587 154.751986 
L 134.711696 154.323828 
L 136.751805 153.895374 
L 138.791914 153.466623 
L 140.832023 153.037575 
L 142.872132 152.608231 
L 144.91224 152.178591 
L 146.952349 151.748653 
L 148.992458 151.31842 
L 151.032567 150.887889 
L 153.072676 150.457062 
L 155.112785 150.025939 
L 157.152894 149.594519 
L 159.193003 149.162802 
L 161.233111 148.730789 
L 163.27322 148.298479 
L 165.313329 147.865873 
L 167.353438 147.43297 
L 169.393547 146.99977 
L 171.433656 146.566274 
L 173.473765 146.132482 
L 175.513873 145.698392 
L 177.553982 145.264007 
L 179.594091 144.829324 
L 181.6342 144.394346 
L 183.674309 143.95907 
L 185.714418 143.523498 
L 187.754527 143.08763 
L 189.794636 142.651464 
L 191.834744 142.215003 
L 193.874853 141.778244 
L 195.914962 141.34119 
L 197.955071 140.903838 
L 199.99518 140.46619 
L 202.035289 140.028246 
L 204.075398 139.590005 
L 206.115507 139.151467 
L 208.155615 138.712633 
L 210.195724 138.273502 
L 212.235833 137.834074 
L 214.275942 137.39435 
L 216.316051 136.95433 
L 218.35616 136.514013 
L 220.396269 136.073399 
L 222.436377 135.632489 
L 224.476486 135.191282 
L 226.516595 134.749779 
L 228.556704 134.307979 
L 230.596813 133.865883 
L 232.636922 133.42349 
L 234.677031 132.9808 
L 236.71714 132.537814 
L 238.757248 132.094531 
L 240.797357 131.650952 
L 242.837466 131.207076 
L 244.877575 130.762903 
L 246.917684 130.318434 
L 248.957793 129.873669 
L 250.997902 129.428607 
L 253.038011 128.983248 
L 255.078119 128.537593 
L 257.118228 128.091641 
L 259.158337 127.645393 
L 261.198446 127.198848 
L 263.238555 126.752006 
L 265.278664 126.304868 
L 267.318773 125.857433 
L 269.358881 125.409702 
L 271.39899 124.961674 
L 273.439099 124.51335 
L 275.479208 124.064729 
L 277.519317 123.615811 
" clip-path="url(#p51bd1e3656)" style="fill: none; stroke: #000080; stroke-width: 1.5; stroke-linecap: square"/>
   </g>
   <g id="line2d_30">
    <path d="M 75.548539 132.462521 
L 77.588648 131.274314 
L 79.628757 130.098056 
L 81.668866 128.933748 
L 83.708974 127.78139 
L 85.749083 126.640982 
L 87.789192 125.512524 
L 89.829301 124.396015 
L 91.86941 123.291457 
L 93.909519 122.198849 
L 95.949628 121.118191 
L 97.989736 120.049482 
L 100.029845 118.992724 
L 102.069954 117.947915 
L 104.110063 116.915056 
L 106.150172 115.894148 
L 108.190281 114.885189 
L 110.23039 113.88818 
L 112.270499 112.903121 
L 114.310607 111.930012 
L 116.350716 110.968853 
L 118.390825 110.019644 
L 120.430934 109.082385 
L 122.471043 108.157076 
L 124.511152 107.243716 
L 126.551261 106.342307 
L 128.591369 105.452847 
L 130.631478 104.575338 
L 132.671587 103.709778 
L 134.711696 102.856169 
L 136.751805 102.014509 
L 138.791914 101.184799 
L 140.832023 100.367039 
L 142.872132 99.561229 
L 144.91224 98.767369 
L 146.952349 97.985459 
L 148.992458 97.215499 
L 151.032567 96.457489 
L 153.072676 95.711429 
L 155.112785 94.977319 
L 157.152894 94.255158 
L 159.193003 93.544948 
L 161.233111 92.846687 
L 163.27322 92.160377 
L 165.313329 91.486016 
L 167.353438 90.823605 
L 169.393547 90.173145 
L 171.433656 89.534634 
L 173.473765 88.908073 
L 175.513873 88.293462 
L 177.553982 87.690801 
L 179.594091 87.10009 
L 181.6342 86.521329 
L 183.674309 85.954517 
L 185.714418 85.399656 
L 187.754527 84.856745 
L 189.794636 84.325783 
L 191.834744 83.806772 
L 193.874853 83.29971 
L 195.914962 82.804599 
L 197.955071 82.321437 
L 199.99518 81.850225 
L 202.035289 81.390963 
L 204.075398 80.943651 
L 206.115507 80.508289 
L 208.155615 80.084877 
L 210.195724 79.673415 
L 212.235833 79.273903 
L 214.275942 78.886341 
L 216.316051 78.510729 
L 218.35616 78.147066 
L 220.396269 77.795354 
L 222.436377 77.455591 
L 224.476486 77.127779 
L 226.516595 76.811916 
L 228.556704 76.508003 
L 230.596813 76.216041 
L 232.636922 75.936028 
L 234.677031 75.667965 
L 236.71714 75.411852 
L 238.757248 75.167689 
L 240.797357 74.935476 
L 242.837466 74.715213 
L 244.877575 74.506899 
L 246.917684 74.310536 
L 248.957793 74.126123 
L 250.997902 73.953659 
L 253.038011 73.793146 
L 255.078119 73.644582 
L 257.118228 73.507969 
L 259.158337 73.383305 
L 261.198446 73.270591 
L 263.238555 73.169828 
L 265.278664 73.081014 
L 267.318773 73.00415 
L 269.358881 72.939236 
L 271.39899 72.886272 
L 273.439099 72.845257 
L 275.479208 72.816193 
L 277.519317 72.799079 
" clip-path="url(#p51bd1e3656)" style="fill: none; stroke: #7dff7a; stroke-width: 1.5; stroke-linecap: square"/>
   </g>
   <g id="line2d_31">
    <path d="M 75.548539 98.305043 
L 77.588648 96.348481 
L 79.628757 94.416116 
L 81.668866 92.507947 
L 83.708974 90.623975 
L 85.749083 88.764199 
L 87.789192 86.92862 
L 89.829301 85.117237 
L 91.86941 83.33005 
L 93.909519 81.56706 
L 95.949628 79.828266 
L 97.989736 78.113669 
L 100.029845 76.423268 
L 102.069954 74.757064 
L 104.110063 73.115056 
L 106.150172 71.497245 
L 108.190281 69.903629 
L 110.23039 68.334211 
L 112.270499 66.788989 
L 114.310607 65.267963 
L 116.350716 63.771133 
L 118.390825 62.298501 
L 120.430934 60.850064 
L 122.471043 59.425824 
L 124.511152 58.02578 
L 126.551261 56.649933 
L 128.591369 55.298283 
L 130.631478 53.970828 
L 132.671587 52.66757 
L 134.711696 51.388509 
L 136.751805 50.133644 
L 138.791914 48.902975 
L 140.832023 47.696503 
L 142.872132 46.514228 
L 144.91224 45.356148 
L 146.952349 44.222265 
L 148.992458 43.112579 
L 151.032567 42.027089 
L 153.072676 40.965796 
L 155.112785 39.928698 
L 157.152894 38.915798 
L 159.193003 37.927094 
L 161.233111 36.962586 
L 163.27322 36.022274 
L 165.313329 35.106159 
L 167.353438 34.214241 
L 169.393547 33.346519 
L 171.433656 32.502993 
L 173.473765 31.683664 
L 175.513873 30.888531 
L 177.553982 30.117595 
L 179.594091 29.370855 
L 181.6342 28.648312 
L 183.674309 27.949965 
L 185.714418 27.275814 
L 187.754527 26.62586 
L 189.794636 26.000102 
L 191.834744 25.398541 
L 193.874853 24.821176 
L 195.914962 24.268008 
L 197.955071 23.739036 
L 199.99518 23.23426 
L 202.035289 22.753681 
L 204.075398 22.297298 
L 206.115507 21.865112 
L 208.155615 21.457122 
L 210.195724 21.073329 
L 212.235833 20.713732 
L 214.275942 20.378331 
L 216.316051 20.067127 
L 218.35616 19.78012 
L 220.396269 19.517308 
L 222.436377 19.278694 
L 224.476486 19.064275 
L 226.516595 18.874053 
L 228.556704 18.708028 
L 230.596813 18.566199 
L 232.636922 18.448566 
L 234.677031 18.35513 
L 236.71714 18.28589 
L 238.757248 18.240847 
L 240.797357 18.22 
L 242.837466 18.22335 
L 244.877575 18.250896 
L 246.917684 18.302638 
L 248.957793 18.378577 
L 250.997902 18.478712 
L 253.038011 18.603044 
L 255.078119 18.751572 
L 257.118228 18.924297 
L 259.158337 19.121218 
L 261.198446 19.342335 
L 263.238555 19.587649 
L 265.278664 19.857159 
L 267.318773 20.150866 
L 269.358881 20.468769 
L 271.39899 20.810869 
L 273.439099 21.177165 
L 275.479208 21.567657 
L 277.519317 21.982346 
" clip-path="url(#p51bd1e3656)" style="fill: none; stroke: #800000; stroke-width: 1.5; stroke-linecap: square"/>
   </g>
   <g id="patch_3">
    <path d="M 65.45 174.04 
L 65.45 10.8 
" style="fill: none; stroke: #000000; stroke-width: 0.8; stroke-linejoin: miter; stroke-linecap: square"/>
   </g>
   <g id="patch_4">
    <path d="M 287.617856 174.04 
L 287.617856 10.8 
" style="fill: none; stroke: #000000; stroke-width: 0.8; stroke-linejoin: miter; stroke-linecap: square"/>
   </g>
   <g id="patch_5">
    <path d="M 65.45 174.04 
L 287.617856 174.04 
" style="fill: none; stroke: #000000; stroke-width: 0.8; stroke-linejoin: miter; stroke-linecap: square"/>
   </g>
   <g id="patch_6">
    <path d="M 65.45 10.8 
L 287.617856 10.8 
" style="fill: none; stroke: #000000; stroke-width: 0.8; stroke-linejoin: miter; stroke-linecap: square"/>
   </g>
   <g id="legend_1">
    <g id="patch_7">
     <path d="M 296.617856 162.878 
L 420.517856 162.878 
Q 422.517856 162.878 422.517856 160.878 
L 422.517856 117.782687 
Q 422.517856 115.782687 420.517856 115.782687 
L 296.617856 115.782687 
Q 294.617856 115.782687 294.617856 117.782687 
L 294.617856 160.878 
Q 294.617856 162.878 296.617856 162.878 
z
" style="fill: #4d4d4d; opacity: 0.5; stroke: #4d4d4d; stroke-linejoin: miter"/>
    </g>
    <g id="patch_8">
     <path d="M 294.617856 160.878 
L 418.517856 160.878 
Q 420.517856 160.878 420.517856 158.878 
L 420.517856 115.782687 
Q 420.517856 113.782687 418.517856 113.782687 
L 294.617856 113.782687 
Q 292.617856 113.782687 292.617856 115.782687 
L 292.617856 158.878 
Q 292.617856 160.878 294.617856 160.878 
z
" style="fill: #ffffff; stroke: #cccccc; stroke-linejoin: miter"/>
    </g>
    <g id="line2d_32">
     <path d="M 296.617856 121.881125 
L 306.617856 121.881125 
L 316.617856 121.881125 
" style="fill: none; stroke: #000080; stroke-width: 1.5; stroke-linecap: square"/>
    </g>
    <g id="text_17">
     <!-- $\delta_e = -10$, $J = 1.60$ -->
     <g transform="translate(324.617856 125.381125) scale(0.1 -0.1)">
      <defs>
       <path id="DejaVuSans-Oblique-3b4" d="M 3472 4053 
Q 3197 4272 2450 4272 
Q 1659 4272 1588 3906 
Q 1531 3619 2328 3469 
Q 2953 3353 3253 3003 
Q 3616 2581 3447 1716 
Q 3284 888 2763 400 
Q 2238 -91 1488 -91 
Q 741 -91 406 400 
Q 72 888 241 1747 
Q 363 2384 891 2900 
Q 1097 3100 1353 3213 
Q 913 3459 1000 3900 
Q 1166 4750 2544 4750 
Q 3234 4750 3566 4531 
L 3472 4053 
z
M 1753 3056 
Q 1525 2966 1306 2738 
Q 969 2384 847 1747 
Q 722 1113 919 756 
Q 1119 397 1584 397 
Q 2044 397 2381 759 
Q 2722 1122 2838 1716 
Q 2956 2338 2731 2638 
Q 2491 2959 2103 2994 
Q 1906 3013 1753 3056 
z
" transform="scale(0.015625)"/>
       <path id="DejaVuSans-Oblique-65" d="M 3078 2063 
Q 3088 2113 3092 2166 
Q 3097 2219 3097 2272 
Q 3097 2653 2873 2875 
Q 2650 3097 2266 3097 
Q 1838 3097 1509 2826 
Q 1181 2556 1013 2059 
L 3078 2063 
z
M 3578 1613 
L 903 1613 
Q 884 1494 878 1425 
Q 872 1356 872 1306 
Q 872 872 1139 634 
Q 1406 397 1894 397 
Q 2269 397 2603 481 
Q 2938 566 3225 728 
L 3116 159 
Q 2806 34 2476 -28 
Q 2147 -91 1806 -91 
Q 1078 -91 686 257 
Q 294 606 294 1247 
Q 294 1794 489 2264 
Q 684 2734 1063 3103 
Q 1306 3334 1642 3459 
Q 1978 3584 2356 3584 
Q 2950 3584 3301 3228 
Q 3653 2872 3653 2272 
Q 3653 2128 3634 1964 
Q 3616 1800 3578 1613 
z
" transform="scale(0.015625)"/>
       <path id="DejaVuSans-3d" d="M 678 2906 
L 4684 2906 
L 4684 2381 
L 678 2381 
L 678 2906 
z
M 678 1631 
L 4684 1631 
L 4684 1100 
L 678 1100 
L 678 1631 
z
" transform="scale(0.015625)"/>
       <path id="DejaVuSans-2c" d="M 750 794 
L 1409 794 
L 1409 256 
L 897 -744 
L 494 -744 
L 750 256 
L 750 794 
z
" transform="scale(0.015625)"/>
      </defs>
      <use xlink:href="#DejaVuSans-Oblique-3b4" transform="translate(0 0.78125)"/>
      <use xlink:href="#DejaVuSans-Oblique-65" transform="translate(61.181641 -15.625) scale(0.7)"/>
      <use xlink:href="#DejaVuSans-3d" transform="translate(126.464844 0.78125)"/>
      <use xlink:href="#DejaVuSans-2212" transform="translate(249.21875 0.78125)"/>
      <use xlink:href="#DejaVuSans-31" transform="translate(352.490234 0.78125)"/>
      <use xlink:href="#DejaVuSans-30" transform="translate(416.113281 0.78125)"/>
      <use xlink:href="#DejaVuSans-2c" transform="translate(479.736328 0.78125)"/>
      <use xlink:href="#DejaVuSans-20" transform="translate(511.523438 0.78125)"/>
      <use xlink:href="#DejaVuSans-Oblique-4a" transform="translate(543.310547 0.78125)"/>
      <use xlink:href="#DejaVuSans-3d" transform="translate(592.285156 0.78125)"/>
      <use xlink:href="#DejaVuSans-31" transform="translate(695.556641 0.78125)"/>
      <use xlink:href="#DejaVuSans-2e" transform="translate(759.179688 0.78125)"/>
      <use xlink:href="#DejaVuSans-36" transform="translate(790.966797 0.78125)"/>
      <use xlink:href="#DejaVuSans-30" transform="translate(854.589844 0.78125)"/>
     </g>
    </g>
    <g id="line2d_33">
     <path d="M 296.617856 136.579563 
L 306.617856 136.579563 
L 316.617856 136.579563 
" style="fill: none; stroke: #7dff7a; stroke-width: 1.5; stroke-linecap: square"/>
    </g>
    <g id="text_18">
     <!-- $\delta_e = 0$, $J = 1.60$ -->
     <g transform="translate(324.617856 140.079563) scale(0.1 -0.1)">
      <use xlink:href="#DejaVuSans-Oblique-3b4" transform="translate(0 0.78125)"/>
      <use xlink:href="#DejaVuSans-Oblique-65" transform="translate(61.181641 -15.625) scale(0.7)"/>
      <use xlink:href="#DejaVuSans-3d" transform="translate(126.464844 0.78125)"/>
      <use xlink:href="#DejaVuSans-30" transform="translate(229.736328 0.78125)"/>
      <use xlink:href="#DejaVuSans-2c" transform="translate(293.359375 0.78125)"/>
      <use xlink:href="#DejaVuSans-20" transform="translate(325.146484 0.78125)"/>
      <use xlink:href="#DejaVuSans-Oblique-4a" transform="translate(356.933594 0.78125)"/>
      <use xlink:href="#DejaVuSans-3d" transform="translate(405.908203 0.78125)"/>
      <use xlink:href="#DejaVuSans-31" transform="translate(509.179688 0.78125)"/>
      <use xlink:href="#DejaVuSans-2e" transform="translate(572.802734 0.78125)"/>
      <use xlink:href="#DejaVuSans-36" transform="translate(604.589844 0.78125)"/>
      <use xlink:href="#DejaVuSans-30" transform="translate(668.212891 0.78125)"/>
     </g>
    </g>
    <g id="line2d_34">
     <path d="M 296.617856 151.278 
L 306.617856 151.278 
L 316.617856 151.278 
" style="fill: none; stroke: #800000; stroke-width: 1.5; stroke-linecap: square"/>
    </g>
    <g id="text_19">
     <!-- $\delta_e = 10$, $J = 1.60$ -->
     <g transform="translate(324.617856 154.778) scale(0.1 -0.1)">
      <use xlink:href="#DejaVuSans-Oblique-3b4" transform="translate(0 0.78125)"/>
      <use xlink:href="#DejaVuSans-Oblique-65" transform="translate(61.181641 -15.625) scale(0.7)"/>
      <use xlink:href="#DejaVuSans-3d" transform="translate(126.464844 0.78125)"/>
      <use xlink:href="#DejaVuSans-31" transform="translate(229.736328 0.78125)"/>
      <use xlink:href="#DejaVuSans-30" transform="translate(293.359375 0.78125)"/>
      <use xlink:href="#DejaVuSans-2c" transform="translate(356.982422 0.78125)"/>
      <use xlink:href="#DejaVuSans-20" transform="translate(388.769531 0.78125)"/>
      <use xlink:href="#DejaVuSans-Oblique-4a" transform="translate(420.556641 0.78125)"/>
      <use xlink:href="#DejaVuSans-3d" transform="translate(469.53125 0.78125)"/>
      <use xlink:href="#DejaVuSans-31" transform="translate(572.802734 0.78125)"/>
      <use xlink:href="#DejaVuSans-2e" transform="translate(636.425781 0.78125)"/>
      <use xlink:href="#DejaVuSans-36" transform="translate(668.212891 0.78125)"/>
      <use xlink:href="#DejaVuSans-30" transform="translate(731.835938 0.78125)"/>
     </g>
    </g>
   </g>
  </g>
 </g>
 <defs>
  <clipPath id="p51bd1e3656">
   <rect x="65.45" y="10.8" width="222.167856" height="163.24"/>
  </clipPath>
 </defs>
</svg>
