<?xml version="1.0" encoding="utf-8" standalone="no"?>
<!DOCTYPE svg PUBLIC "-//W3C//DTD SVG 1.1//EN"
  "http://www.w3.org/Graphics/SVG/1.1/DTD/svg11.dtd">
<svg xmlns:xlink="http://www.w3.org/1999/xlink" width="288pt" height="216pt" viewBox="0 0 288 216" xmlns="http://www.w3.org/2000/svg" version="1.1">
 <metadata>
  <rdf:RDF xmlns:dc="http://purl.org/dc/elements/1.1/" xmlns:cc="http://creativecommons.org/ns#" xmlns:rdf="http://www.w3.org/1999/02/22-rdf-syntax-ns#">
   <cc:Work>
    <dc:type rdf:resource="http://purl.org/dc/dcmitype/StillImage"/>
    <dc:date>2025-03-26T11:03:56.337686</dc:date>
    <dc:format>image/svg+xml</dc:format>
    <dc:creator>
     <cc:Agent>
      <dc:title>Matplotlib v3.9.2, https://matplotlib.org/</dc:title>
     </cc:Agent>
    </dc:creator>
   </cc:Work>
  </rdf:RDF>
 </metadata>
 <defs>
  <style type="text/css">*{stroke-linejoin: round; stroke-linecap: butt}</style>
 </defs>
 <g id="figure_1">
  <g id="patch_1">
   <path d="M 0 216 
L 288 216 
L 288 0 
L 0 0 
z
" style="fill: #ffffff"/>
  </g>
  <g id="axes_1">
   <g id="patch_2">
    <path d="M 71.84 174.04 
L 277.2 174.04 
L 277.2 10.8 
L 71.84 10.8 
z
" style="fill: #ffffff"/>
   </g>
   <g id="matplotlib.axis_1">
    <g id="xtick_1">
     <g id="line2d_1">
      <path d="M 81.174545 174.04 
L 81.174545 10.8 
" clip-path="url(#p40fdf60b6b)" style="fill: none; stroke: #b0b0b0; stroke-width: 0.8; stroke-linecap: square"/>
     </g>
     <g id="line2d_2">
      <defs>
       <path id="mf1dd5a37ee" d="M 0 0 
L 0 3.5 
" style="stroke: #000000; stroke-width: 0.8"/>
      </defs>
      <g>
       <use xlink:href="#mf1dd5a37ee" x="81.174545" y="174.04" style="stroke: #000000; stroke-width: 0.8"/>
      </g>
     </g>
     <g id="text_1">
      <!-- 0 -->
      <g transform="translate(77.993295 188.638438) scale(0.1 -0.1)">
       <defs>
        <path id="DejaVuSans-30" d="M 2034 4250 
Q 1547 4250 1301 3770 
Q 1056 3291 1056 2328 
Q 1056 1369 1301 889 
Q 1547 409 2034 409 
Q 2525 409 2770 889 
Q 3016 1369 3016 2328 
Q 3016 3291 2770 3770 
Q 2525 4250 2034 4250 
z
M 2034 4750 
Q 2819 4750 3233 4129 
Q 3647 3509 3647 2328 
Q 3647 1150 3233 529 
Q 2819 -91 2034 -91 
Q 1250 -91 836 529 
Q 422 1150 422 2328 
Q 422 3509 836 4129 
Q 1250 4750 2034 4750 
z
" transform="scale(0.015625)"/>
       </defs>
       <use xlink:href="#DejaVuSans-30"/>
      </g>
     </g>
    </g>
    <g id="xtick_2">
     <g id="line2d_3">
      <path d="M 134.514805 174.04 
L 134.514805 10.8 
" clip-path="url(#p40fdf60b6b)" style="fill: none; stroke: #b0b0b0; stroke-width: 0.8; stroke-linecap: square"/>
     </g>
     <g id="line2d_4">
      <g>
       <use xlink:href="#mf1dd5a37ee" x="134.514805" y="174.04" style="stroke: #000000; stroke-width: 0.8"/>
      </g>
     </g>
     <g id="text_2">
      <!-- 2 -->
      <g transform="translate(131.333555 188.638438) scale(0.1 -0.1)">
       <defs>
        <path id="DejaVuSans-32" d="M 1228 531 
L 3431 531 
L 3431 0 
L 469 0 
L 469 531 
Q 828 903 1448 1529 
Q 2069 2156 2228 2338 
Q 2531 2678 2651 2914 
Q 2772 3150 2772 3378 
Q 2772 3750 2511 3984 
Q 2250 4219 1831 4219 
Q 1534 4219 1204 4116 
Q 875 4013 500 3803 
L 500 4441 
Q 881 4594 1212 4672 
Q 1544 4750 1819 4750 
Q 2544 4750 2975 4387 
Q 3406 4025 3406 3419 
Q 3406 3131 3298 2873 
Q 3191 2616 2906 2266 
Q 2828 2175 2409 1742 
Q 1991 1309 1228 531 
z
" transform="scale(0.015625)"/>
       </defs>
       <use xlink:href="#DejaVuSans-32"/>
      </g>
     </g>
    </g>
    <g id="xtick_3">
     <g id="line2d_5">
      <path d="M 187.855065 174.04 
L 187.855065 10.8 
" clip-path="url(#p40fdf60b6b)" style="fill: none; stroke: #b0b0b0; stroke-width: 0.8; stroke-linecap: square"/>
     </g>
     <g id="line2d_6">
      <g>
       <use xlink:href="#mf1dd5a37ee" x="187.855065" y="174.04" style="stroke: #000000; stroke-width: 0.8"/>
      </g>
     </g>
     <g id="text_3">
      <!-- 4 -->
      <g transform="translate(184.673815 188.638438) scale(0.1 -0.1)">
       <defs>
        <path id="DejaVuSans-34" d="M 2419 4116 
L 825 1625 
L 2419 1625 
L 2419 4116 
z
M 2253 4666 
L 3047 4666 
L 3047 1625 
L 3713 1625 
L 3713 1100 
L 3047 1100 
L 3047 0 
L 2419 0 
L 2419 1100 
L 313 1100 
L 313 1709 
L 2253 4666 
z
" transform="scale(0.015625)"/>
       </defs>
       <use xlink:href="#DejaVuSans-34"/>
      </g>
     </g>
    </g>
    <g id="xtick_4">
     <g id="line2d_7">
      <path d="M 241.195325 174.04 
L 241.195325 10.8 
" clip-path="url(#p40fdf60b6b)" style="fill: none; stroke: #b0b0b0; stroke-width: 0.8; stroke-linecap: square"/>
     </g>
     <g id="line2d_8">
      <g>
       <use xlink:href="#mf1dd5a37ee" x="241.195325" y="174.04" style="stroke: #000000; stroke-width: 0.8"/>
      </g>
     </g>
     <g id="text_4">
      <!-- 6 -->
      <g transform="translate(238.014075 188.638438) scale(0.1 -0.1)">
       <defs>
        <path id="DejaVuSans-36" d="M 2113 2584 
Q 1688 2584 1439 2293 
Q 1191 2003 1191 1497 
Q 1191 994 1439 701 
Q 1688 409 2113 409 
Q 2538 409 2786 701 
Q 3034 994 3034 1497 
Q 3034 2003 2786 2293 
Q 2538 2584 2113 2584 
z
M 3366 4563 
L 3366 3988 
Q 3128 4100 2886 4159 
Q 2644 4219 2406 4219 
Q 1781 4219 1451 3797 
Q 1122 3375 1075 2522 
Q 1259 2794 1537 2939 
Q 1816 3084 2150 3084 
Q 2853 3084 3261 2657 
Q 3669 2231 3669 1497 
Q 3669 778 3244 343 
Q 2819 -91 2113 -91 
Q 1303 -91 875 529 
Q 447 1150 447 2328 
Q 447 3434 972 4092 
Q 1497 4750 2381 4750 
Q 2619 4750 2861 4703 
Q 3103 4656 3366 4563 
z
" transform="scale(0.015625)"/>
       </defs>
       <use xlink:href="#DejaVuSans-36"/>
      </g>
     </g>
    </g>
    <g id="text_5">
     <!-- $\alpha$ -->
     <g transform="translate(171.22 202.316563) scale(0.1 -0.1)">
      <defs>
       <path id="DejaVuSans-Oblique-3b1" d="M 2619 1628 
L 2622 2350 
Q 2625 3088 2069 3091 
Q 1653 3094 1394 2747 
Q 1069 2319 959 1747 
Q 825 1059 994 731 
Q 1169 397 1547 397 
Q 1966 397 2319 1063 
L 2619 1628 
z
M 2166 3578 
Q 3141 3594 3128 2584 
Q 3128 2584 3616 3500 
L 4128 3500 
L 3119 1603 
L 3109 919 
Q 3109 766 3194 638 
Q 3291 488 3391 488 
L 3669 488 
L 3575 0 
L 3228 0 
Q 2934 0 2722 263 
Q 2622 394 2619 669 
Q 2416 334 2066 50 
Q 1900 -81 1453 -78 
Q 722 -72 456 397 
Q 184 884 353 1747 
Q 534 2675 1009 3097 
Q 1544 3569 2166 3578 
z
" transform="scale(0.015625)"/>
      </defs>
      <use xlink:href="#DejaVuSans-Oblique-3b1" transform="translate(0 0.84375)"/>
     </g>
    </g>
   </g>
   <g id="matplotlib.axis_2">
    <g id="ytick_1">
     <g id="line2d_9">
      <path d="M 71.84 147.279577 
L 277.2 147.279577 
" clip-path="url(#p40fdf60b6b)" style="fill: none; stroke: #b0b0b0; stroke-width: 0.8; stroke-linecap: square"/>
     </g>
     <g id="line2d_10">
      <defs>
       <path id="m51c22e2a39" d="M 0 0 
L -3.5 0 
" style="stroke: #000000; stroke-width: 0.8"/>
      </defs>
      <g>
       <use xlink:href="#m51c22e2a39" x="71.84" y="147.279577" style="stroke: #000000; stroke-width: 0.8"/>
      </g>
     </g>
     <g id="text_6">
      <!-- −0.055 -->
      <g transform="translate(27.832188 151.078796) scale(0.1 -0.1)">
       <defs>
        <path id="DejaVuSans-2212" d="M 678 2272 
L 4684 2272 
L 4684 1741 
L 678 1741 
L 678 2272 
z
" transform="scale(0.015625)"/>
        <path id="DejaVuSans-2e" d="M 684 794 
L 1344 794 
L 1344 0 
L 684 0 
L 684 794 
z
" transform="scale(0.015625)"/>
        <path id="DejaVuSans-35" d="M 691 4666 
L 3169 4666 
L 3169 4134 
L 1269 4134 
L 1269 2991 
Q 1406 3038 1543 3061 
Q 1681 3084 1819 3084 
Q 2600 3084 3056 2656 
Q 3513 2228 3513 1497 
Q 3513 744 3044 326 
Q 2575 -91 1722 -91 
Q 1428 -91 1123 -41 
Q 819 9 494 109 
L 494 744 
Q 775 591 1075 516 
Q 1375 441 1709 441 
Q 2250 441 2565 725 
Q 2881 1009 2881 1497 
Q 2881 1984 2565 2268 
Q 2250 2553 1709 2553 
Q 1456 2553 1204 2497 
Q 953 2441 691 2322 
L 691 4666 
z
" transform="scale(0.015625)"/>
       </defs>
       <use xlink:href="#DejaVuSans-2212"/>
       <use xlink:href="#DejaVuSans-30" x="83.789062"/>
       <use xlink:href="#DejaVuSans-2e" x="147.412109"/>
       <use xlink:href="#DejaVuSans-30" x="179.199219"/>
       <use xlink:href="#DejaVuSans-35" x="242.822266"/>
       <use xlink:href="#DejaVuSans-35" x="306.445312"/>
      </g>
     </g>
    </g>
    <g id="ytick_2">
     <g id="line2d_11">
      <path d="M 71.84 111.257239 
L 277.2 111.257239 
" clip-path="url(#p40fdf60b6b)" style="fill: none; stroke: #b0b0b0; stroke-width: 0.8; stroke-linecap: square"/>
     </g>
     <g id="line2d_12">
      <g>
       <use xlink:href="#m51c22e2a39" x="71.84" y="111.257239" style="stroke: #000000; stroke-width: 0.8"/>
      </g>
     </g>
     <g id="text_7">
      <!-- −0.050 -->
      <g transform="translate(27.832188 115.056458) scale(0.1 -0.1)">
       <use xlink:href="#DejaVuSans-2212"/>
       <use xlink:href="#DejaVuSans-30" x="83.789062"/>
       <use xlink:href="#DejaVuSans-2e" x="147.412109"/>
       <use xlink:href="#DejaVuSans-30" x="179.199219"/>
       <use xlink:href="#DejaVuSans-35" x="242.822266"/>
       <use xlink:href="#DejaVuSans-30" x="306.445312"/>
      </g>
     </g>
    </g>
    <g id="ytick_3">
     <g id="line2d_13">
      <path d="M 71.84 75.234901 
L 277.2 75.234901 
" clip-path="url(#p40fdf60b6b)" style="fill: none; stroke: #b0b0b0; stroke-width: 0.8; stroke-linecap: square"/>
     </g>
     <g id="line2d_14">
      <g>
       <use xlink:href="#m51c22e2a39" x="71.84" y="75.234901" style="stroke: #000000; stroke-width: 0.8"/>
      </g>
     </g>
     <g id="text_8">
      <!-- −0.045 -->
      <g transform="translate(27.832188 79.03412) scale(0.1 -0.1)">
       <use xlink:href="#DejaVuSans-2212"/>
       <use xlink:href="#DejaVuSans-30" x="83.789062"/>
       <use xlink:href="#DejaVuSans-2e" x="147.412109"/>
       <use xlink:href="#DejaVuSans-30" x="179.199219"/>
       <use xlink:href="#DejaVuSans-34" x="242.822266"/>
       <use xlink:href="#DejaVuSans-35" x="306.445312"/>
      </g>
     </g>
    </g>
    <g id="ytick_4">
     <g id="line2d_15">
      <path d="M 71.84 39.212563 
L 277.2 39.212563 
" clip-path="url(#p40fdf60b6b)" style="fill: none; stroke: #b0b0b0; stroke-width: 0.8; stroke-linecap: square"/>
     </g>
     <g id="line2d_16">
      <g>
       <use xlink:href="#m51c22e2a39" x="71.84" y="39.212563" style="stroke: #000000; stroke-width: 0.8"/>
      </g>
     </g>
     <g id="text_9">
      <!-- −0.040 -->
      <g transform="translate(27.832188 43.011782) scale(0.1 -0.1)">
       <use xlink:href="#DejaVuSans-2212"/>
       <use xlink:href="#DejaVuSans-30" x="83.789062"/>
       <use xlink:href="#DejaVuSans-2e" x="147.412109"/>
       <use xlink:href="#DejaVuSans-30" x="179.199219"/>
       <use xlink:href="#DejaVuSans-34" x="242.822266"/>
       <use xlink:href="#DejaVuSans-30" x="306.445312"/>
      </g>
     </g>
    </g>
    <g id="text_10">
     <!-- $dCMpitch/dalpha$ -->
     <g transform="translate(21.732188 134.57) rotate(-90) scale(0.1 -0.1)">
      <defs>
       <path id="DejaVuSans-Oblique-64" d="M 2675 525 
Q 2444 222 2128 65 
Q 1813 -91 1428 -91 
Q 903 -91 598 267 
Q 294 625 294 1247 
Q 294 1766 478 2236 
Q 663 2706 1013 3078 
Q 1244 3325 1534 3454 
Q 1825 3584 2144 3584 
Q 2481 3584 2739 3421 
Q 2997 3259 3138 2956 
L 3513 4863 
L 4091 4863 
L 3144 0 
L 2566 0 
L 2675 525 
z
M 891 1350 
Q 891 897 1095 644 
Q 1300 391 1663 391 
Q 1931 391 2161 520 
Q 2391 650 2566 903 
Q 2750 1166 2856 1509 
Q 2963 1853 2963 2188 
Q 2963 2622 2758 2865 
Q 2553 3109 2194 3109 
Q 1922 3109 1687 2981 
Q 1453 2853 1288 2613 
Q 1106 2353 998 2009 
Q 891 1666 891 1350 
z
" transform="scale(0.015625)"/>
       <path id="DejaVuSans-Oblique-43" d="M 4447 4306 
L 4319 3641 
Q 4019 3944 3683 4091 
Q 3347 4238 2956 4238 
Q 2422 4238 2017 3981 
Q 1613 3725 1319 3200 
Q 1131 2863 1032 2486 
Q 934 2109 934 1728 
Q 934 1091 1264 756 
Q 1594 422 2222 422 
Q 2656 422 3056 561 
Q 3456 700 3834 978 
L 3688 231 
Q 3316 72 2936 -9 
Q 2556 -91 2175 -91 
Q 1278 -91 773 396 
Q 269 884 269 1753 
Q 269 2309 461 2846 
Q 653 3384 1013 3828 
Q 1394 4300 1883 4525 
Q 2372 4750 3022 4750 
Q 3422 4750 3780 4639 
Q 4138 4528 4447 4306 
z
" transform="scale(0.015625)"/>
       <path id="DejaVuSans-Oblique-4d" d="M 1081 4666 
L 2028 4666 
L 2572 1522 
L 4378 4666 
L 5350 4666 
L 4441 0 
L 3828 0 
L 4622 4091 
L 2791 897 
L 2175 897 
L 1581 4103 
L 788 0 
L 172 0 
L 1081 4666 
z
" transform="scale(0.015625)"/>
       <path id="DejaVuSans-Oblique-70" d="M 3175 2156 
Q 3175 2616 2975 2859 
Q 2775 3103 2400 3103 
Q 2144 3103 1911 2972 
Q 1678 2841 1497 2591 
Q 1319 2344 1212 1994 
Q 1106 1644 1106 1300 
Q 1106 863 1306 627 
Q 1506 391 1875 391 
Q 2147 391 2380 519 
Q 2613 647 2778 891 
Q 2956 1147 3065 1494 
Q 3175 1841 3175 2156 
z
M 1394 2969 
Q 1625 3272 1939 3428 
Q 2253 3584 2638 3584 
Q 3175 3584 3472 3232 
Q 3769 2881 3769 2247 
Q 3769 1728 3584 1258 
Q 3400 788 3053 416 
Q 2822 169 2531 39 
Q 2241 -91 1919 -91 
Q 1547 -91 1294 64 
Q 1041 219 916 525 
L 556 -1331 
L -19 -1331 
L 922 3500 
L 1497 3500 
L 1394 2969 
z
" transform="scale(0.015625)"/>
       <path id="DejaVuSans-Oblique-69" d="M 1172 4863 
L 1747 4863 
L 1606 4134 
L 1031 4134 
L 1172 4863 
z
M 909 3500 
L 1484 3500 
L 800 0 
L 225 0 
L 909 3500 
z
" transform="scale(0.015625)"/>
       <path id="DejaVuSans-Oblique-74" d="M 2706 3500 
L 2619 3053 
L 1472 3053 
L 1100 1153 
Q 1081 1047 1072 975 
Q 1063 903 1063 863 
Q 1063 663 1183 572 
Q 1303 481 1569 481 
L 2150 481 
L 2053 0 
L 1503 0 
Q 991 0 739 200 
Q 488 400 488 806 
Q 488 878 497 964 
Q 506 1050 525 1153 
L 897 3053 
L 409 3053 
L 500 3500 
L 978 3500 
L 1172 4494 
L 1747 4494 
L 1556 3500 
L 2706 3500 
z
" transform="scale(0.015625)"/>
       <path id="DejaVuSans-Oblique-63" d="M 3431 3366 
L 3316 2797 
Q 3109 2947 2876 3022 
Q 2644 3097 2394 3097 
Q 2119 3097 1870 3000 
Q 1622 2903 1453 2725 
Q 1184 2453 1037 2087 
Q 891 1722 891 1331 
Q 891 859 1127 628 
Q 1363 397 1844 397 
Q 2081 397 2348 469 
Q 2616 541 2906 684 
L 2797 116 
Q 2547 13 2283 -39 
Q 2019 -91 1741 -91 
Q 1044 -91 669 257 
Q 294 606 294 1253 
Q 294 1797 489 2255 
Q 684 2713 1069 3078 
Q 1331 3328 1684 3456 
Q 2038 3584 2456 3584 
Q 2700 3584 2940 3529 
Q 3181 3475 3431 3366 
z
" transform="scale(0.015625)"/>
       <path id="DejaVuSans-Oblique-68" d="M 3566 2113 
L 3156 0 
L 2578 0 
L 2988 2091 
Q 3016 2238 3031 2350 
Q 3047 2463 3047 2528 
Q 3047 2791 2881 2937 
Q 2716 3084 2419 3084 
Q 1956 3084 1617 2771 
Q 1278 2459 1178 1941 
L 800 0 
L 225 0 
L 1172 4863 
L 1747 4863 
L 1375 2950 
Q 1594 3244 1934 3414 
Q 2275 3584 2650 3584 
Q 3113 3584 3367 3334 
Q 3622 3084 3622 2631 
Q 3622 2519 3608 2391 
Q 3594 2263 3566 2113 
z
" transform="scale(0.015625)"/>
       <path id="DejaVuSans-2f" d="M 1625 4666 
L 2156 4666 
L 531 -594 
L 0 -594 
L 1625 4666 
z
" transform="scale(0.015625)"/>
       <path id="DejaVuSans-Oblique-61" d="M 3438 1997 
L 3047 0 
L 2472 0 
L 2578 531 
Q 2325 219 2001 64 
Q 1678 -91 1281 -91 
Q 834 -91 548 182 
Q 263 456 263 884 
Q 263 1497 752 1853 
Q 1241 2209 2100 2209 
L 2900 2209 
L 2931 2363 
Q 2938 2388 2941 2417 
Q 2944 2447 2944 2509 
Q 2944 2788 2717 2942 
Q 2491 3097 2081 3097 
Q 1800 3097 1504 3025 
Q 1209 2953 897 2809 
L 997 3341 
Q 1322 3463 1633 3523 
Q 1944 3584 2234 3584 
Q 2853 3584 3176 3315 
Q 3500 3047 3500 2534 
Q 3500 2431 3484 2292 
Q 3469 2153 3438 1997 
z
M 2816 1759 
L 2241 1759 
Q 1534 1759 1195 1570 
Q 856 1381 856 984 
Q 856 709 1029 553 
Q 1203 397 1509 397 
Q 1978 397 2328 733 
Q 2678 1069 2791 1631 
L 2816 1759 
z
" transform="scale(0.015625)"/>
       <path id="DejaVuSans-Oblique-6c" d="M 1172 4863 
L 1747 4863 
L 800 0 
L 225 0 
L 1172 4863 
z
" transform="scale(0.015625)"/>
      </defs>
      <use xlink:href="#DejaVuSans-Oblique-64" transform="translate(0 0.015625)"/>
      <use xlink:href="#DejaVuSans-Oblique-43" transform="translate(63.476562 0.015625)"/>
      <use xlink:href="#DejaVuSans-Oblique-4d" transform="translate(133.300781 0.015625)"/>
      <use xlink:href="#DejaVuSans-Oblique-70" transform="translate(219.580078 0.015625)"/>
      <use xlink:href="#DejaVuSans-Oblique-69" transform="translate(283.056641 0.015625)"/>
      <use xlink:href="#DejaVuSans-Oblique-74" transform="translate(310.839844 0.015625)"/>
      <use xlink:href="#DejaVuSans-Oblique-63" transform="translate(350.048828 0.015625)"/>
      <use xlink:href="#DejaVuSans-Oblique-68" transform="translate(405.029297 0.015625)"/>
      <use xlink:href="#DejaVuSans-2f" transform="translate(468.408203 0.015625)"/>
      <use xlink:href="#DejaVuSans-Oblique-64" transform="translate(502.099609 0.015625)"/>
      <use xlink:href="#DejaVuSans-Oblique-61" transform="translate(565.576172 0.015625)"/>
      <use xlink:href="#DejaVuSans-Oblique-6c" transform="translate(626.855469 0.015625)"/>
      <use xlink:href="#DejaVuSans-Oblique-70" transform="translate(654.638672 0.015625)"/>
      <use xlink:href="#DejaVuSans-Oblique-68" transform="translate(718.115234 0.015625)"/>
      <use xlink:href="#DejaVuSans-Oblique-61" transform="translate(781.494141 0.015625)"/>
     </g>
    </g>
   </g>
   <g id="line2d_17">
    <path d="M 81.174545 36.707255 
L 83.060312 36.548457 
L 84.946079 36.41968 
L 86.831846 36.320925 
L 88.717612 36.252191 
L 90.603379 36.213478 
L 92.489146 36.204787 
L 94.374913 36.226118 
L 96.26068 36.277469 
L 98.146446 36.358842 
L 100.032213 36.470237 
L 101.91798 36.611653 
L 103.803747 36.78309 
L 105.689513 36.984548 
L 107.57528 37.216028 
L 109.461047 37.47753 
L 111.346814 37.769052 
L 113.23258 38.090597 
L 115.118347 38.442162 
L 117.004114 38.823749 
L 118.889881 39.235357 
L 120.775647 39.676987 
L 122.661414 40.148638 
L 124.547181 40.650311 
L 126.432948 41.182005 
L 128.318714 41.74372 
L 130.204481 42.335456 
L 132.090248 42.957214 
L 133.976015 43.608994 
L 135.861781 44.290795 
L 137.747548 45.002617 
L 139.633315 45.74446 
L 141.519082 46.516325 
L 143.404848 47.318212 
L 145.290615 48.15012 
L 147.176382 49.012049 
L 149.062149 49.903999 
L 150.947916 50.825971 
L 152.833682 51.777964 
L 154.719449 52.759979 
L 156.605216 53.772015 
L 158.490983 54.814073 
L 160.376749 55.886151 
L 162.262516 56.988252 
L 164.148283 58.120373 
L 166.03405 59.282516 
L 167.919816 60.474681 
L 169.805583 61.696867 
L 171.69135 62.949074 
L 173.577117 64.231302 
L 175.462883 65.543552 
L 177.34865 66.885824 
L 179.234417 68.258116 
L 181.120184 69.66043 
L 183.00595 71.092766 
L 184.891717 72.555123 
L 186.777484 74.047501 
L 188.663251 75.569901 
L 190.549017 77.122322 
L 192.434784 78.704764 
L 194.320551 80.317228 
L 196.206318 81.959713 
L 198.092084 83.63222 
L 199.977851 85.334748 
L 201.863618 87.067297 
L 203.749385 88.829868 
L 205.635152 90.62246 
L 207.520918 92.445074 
L 209.406685 94.297709 
L 211.292452 96.180365 
L 213.178219 98.093043 
L 215.063985 100.035742 
L 216.949752 102.008462 
L 218.835519 104.011204 
L 220.721286 106.043967 
L 222.607052 108.106752 
L 224.492819 110.199558 
L 226.378586 112.322386 
L 228.264353 114.475234 
L 230.150119 116.658105 
L 232.035886 118.870996 
L 233.921653 121.113909 
L 235.80742 123.386843 
L 237.693186 125.689799 
L 239.578953 128.022776 
L 241.46472 130.385775 
L 243.350487 132.778795 
L 245.236253 135.201836 
L 247.12202 137.654899 
L 249.007787 140.137983 
L 250.893554 142.651088 
L 252.77932 145.194215 
L 254.665087 147.767363 
L 256.550854 150.370533 
L 258.436621 153.003724 
L 260.322388 155.666936 
L 262.208154 158.36017 
L 264.093921 161.083425 
L 265.979688 163.836702 
L 267.865455 166.62 
" clip-path="url(#p40fdf60b6b)" style="fill: none; stroke: #440154; stroke-width: 1.5; stroke-linecap: square"/>
   </g>
   <g id="line2d_18">
    <path d="M 81.174545 33.934625 
L 83.060312 33.421938 
L 84.946079 32.939273 
L 86.831846 32.486629 
L 88.717612 32.064007 
L 90.603379 31.671406 
L 92.489146 31.308826 
L 94.374913 30.976268 
L 96.26068 30.673731 
L 98.146446 30.401215 
L 100.032213 30.158721 
L 101.91798 29.946249 
L 103.803747 29.763797 
L 105.689513 29.611367 
L 107.57528 29.488959 
L 109.461047 29.396572 
L 111.346814 29.334206 
L 113.23258 29.301862 
L 115.118347 29.299539 
L 117.004114 29.327237 
L 118.889881 29.384957 
L 120.775647 29.472698 
L 122.661414 29.590461 
L 124.547181 29.738244 
L 126.432948 29.91605 
L 128.318714 30.123877 
L 130.204481 30.361725 
L 132.090248 30.629594 
L 133.976015 30.927485 
L 135.861781 31.255397 
L 137.747548 31.613331 
L 139.633315 32.001286 
L 141.519082 32.419263 
L 143.404848 32.86726 
L 145.290615 33.34528 
L 147.176382 33.85332 
L 149.062149 34.391382 
L 150.947916 34.959466 
L 152.833682 35.55757 
L 154.719449 36.185697 
L 156.605216 36.843844 
L 158.490983 37.532013 
L 160.376749 38.250203 
L 162.262516 38.998415 
L 164.148283 39.776648 
L 166.03405 40.584903 
L 167.919816 41.423178 
L 169.805583 42.291476 
L 171.69135 43.189794 
L 173.577117 44.118134 
L 175.462883 45.076496 
L 177.34865 46.064879 
L 179.234417 47.083283 
L 181.120184 48.131708 
L 183.00595 49.210155 
L 184.891717 50.318624 
L 186.777484 51.457114 
L 188.663251 52.625625 
L 190.549017 53.824157 
L 192.434784 55.052711 
L 194.320551 56.311286 
L 196.206318 57.599883 
L 198.092084 58.918501 
L 199.977851 60.267141 
L 201.863618 61.645802 
L 203.749385 63.054484 
L 205.635152 64.493187 
L 207.520918 65.961913 
L 209.406685 67.460659 
L 211.292452 68.989427 
L 213.178219 70.548216 
L 215.063985 72.137026 
L 216.949752 73.755858 
L 218.835519 75.404712 
L 220.721286 77.083587 
L 222.607052 78.792483 
L 224.492819 80.5314 
L 226.378586 82.300339 
L 228.264353 84.099299 
L 230.150119 85.928281 
L 232.035886 87.787284 
L 233.921653 89.676309 
L 235.80742 91.595354 
L 237.693186 93.544422 
L 239.578953 95.52351 
L 241.46472 97.53262 
L 243.350487 99.571752 
L 245.236253 101.640904 
L 247.12202 103.740079 
L 249.007787 105.869274 
L 250.893554 108.028491 
L 252.77932 110.217729 
L 254.665087 112.436989 
L 256.550854 114.68627 
L 258.436621 116.965573 
L 260.322388 119.274897 
L 262.208154 121.614242 
L 264.093921 123.983609 
L 265.979688 126.382997 
L 267.865455 128.812406 
" clip-path="url(#p40fdf60b6b)" style="fill: none; stroke: #21918c; stroke-width: 1.5; stroke-linecap: square"/>
   </g>
   <g id="line2d_19">
    <path d="M 81.174545 31.161994 
L 83.060312 30.295419 
L 84.946079 29.458866 
L 86.831846 28.652333 
L 88.717612 27.875822 
L 90.603379 27.129333 
L 92.489146 26.412865 
L 94.374913 25.726418 
L 96.26068 25.069993 
L 98.146446 24.443589 
L 100.032213 23.847206 
L 101.91798 23.280845 
L 103.803747 22.744505 
L 105.689513 22.238186 
L 107.57528 21.761889 
L 109.461047 21.315614 
L 111.346814 20.899359 
L 113.23258 20.513126 
L 115.118347 20.156915 
L 117.004114 19.830725 
L 118.889881 19.534556 
L 120.775647 19.268409 
L 122.661414 19.032283 
L 124.547181 18.826178 
L 126.432948 18.650095 
L 128.318714 18.504033 
L 130.204481 18.387993 
L 132.090248 18.301974 
L 133.976015 18.245976 
L 135.861781 18.22 
L 137.747548 18.224045 
L 139.633315 18.258112 
L 141.519082 18.3222 
L 143.404848 18.416309 
L 145.290615 18.54044 
L 147.176382 18.694592 
L 149.062149 18.878765 
L 150.947916 19.09296 
L 152.833682 19.337176 
L 154.719449 19.611414 
L 156.605216 19.915673 
L 158.490983 20.249953 
L 160.376749 20.614255 
L 162.262516 21.008578 
L 164.148283 21.432923 
L 166.03405 21.887289 
L 167.919816 22.371676 
L 169.805583 22.886085 
L 171.69135 23.430515 
L 173.577117 24.004967 
L 175.462883 24.60944 
L 177.34865 25.243934 
L 179.234417 25.90845 
L 181.120184 26.602987 
L 183.00595 27.327545 
L 184.891717 28.082125 
L 186.777484 28.866726 
L 188.663251 29.681349 
L 190.549017 30.525993 
L 192.434784 31.400658 
L 194.320551 32.305345 
L 196.206318 33.240053 
L 198.092084 34.204783 
L 199.977851 35.199534 
L 201.863618 36.224306 
L 203.749385 37.2791 
L 205.635152 38.363915 
L 207.520918 39.478751 
L 209.406685 40.623609 
L 211.292452 41.798488 
L 213.178219 43.003389 
L 215.063985 44.238311 
L 216.949752 45.503255 
L 218.835519 46.798219 
L 220.721286 48.123206 
L 222.607052 49.478213 
L 224.492819 50.863242 
L 226.378586 52.278293 
L 228.264353 53.723364 
L 230.150119 55.198457 
L 232.035886 56.703572 
L 233.921653 58.238708 
L 235.80742 59.803865 
L 237.693186 61.399044 
L 239.578953 63.024244 
L 241.46472 64.679466 
L 243.350487 66.364708 
L 245.236253 68.079973 
L 247.12202 69.825258 
L 249.007787 71.600565 
L 250.893554 73.405894 
L 252.77932 75.241244 
L 254.665087 77.106615 
L 256.550854 79.002007 
L 258.436621 80.927421 
L 260.322388 82.882857 
L 262.208154 84.868313 
L 264.093921 86.883792 
L 265.979688 88.929291 
L 267.865455 91.004812 
" clip-path="url(#p40fdf60b6b)" style="fill: none; stroke: #fde725; stroke-width: 1.5; stroke-linecap: square"/>
   </g>
   <g id="patch_3">
    <path d="M 71.84 174.04 
L 71.84 10.8 
" style="fill: none; stroke: #000000; stroke-width: 0.8; stroke-linejoin: miter; stroke-linecap: square"/>
   </g>
   <g id="patch_4">
    <path d="M 277.2 174.04 
L 277.2 10.8 
" style="fill: none; stroke: #000000; stroke-width: 0.8; stroke-linejoin: miter; stroke-linecap: square"/>
   </g>
   <g id="patch_5">
    <path d="M 71.84 174.04 
L 277.2 174.04 
" style="fill: none; stroke: #000000; stroke-width: 0.8; stroke-linejoin: miter; stroke-linecap: square"/>
   </g>
   <g id="patch_6">
    <path d="M 71.84 10.8 
L 277.2 10.8 
" style="fill: none; stroke: #000000; stroke-width: 0.8; stroke-linejoin: miter; stroke-linecap: square"/>
   </g>
   <g id="legend_1">
    <g id="patch_7">
     <path d="M 78.84 169.04 
L 158.84 169.04 
Q 160.84 169.04 160.84 167.04 
L 160.84 124.005625 
Q 160.84 122.005625 158.84 122.005625 
L 78.84 122.005625 
Q 76.84 122.005625 76.84 124.005625 
L 76.84 167.04 
Q 76.84 169.04 78.84 169.04 
z
" style="fill: #ffffff; opacity: 0.8; stroke: #cccccc; stroke-linejoin: miter"/>
    </g>
    <g id="line2d_20">
     <path d="M 80.84 130.104062 
L 90.84 130.104062 
L 100.84 130.104062 
" style="fill: none; stroke: #440154; stroke-width: 1.5; stroke-linecap: square"/>
    </g>
    <g id="text_11">
     <!-- $\delta_e = -10$ -->
     <g transform="translate(108.84 133.604062) scale(0.1 -0.1)">
      <defs>
       <path id="DejaVuSans-Oblique-3b4" d="M 3472 4053 
Q 3197 4272 2450 4272 
Q 1659 4272 1588 3906 
Q 1531 3619 2328 3469 
Q 2953 3353 3253 3003 
Q 3616 2581 3447 1716 
Q 3284 888 2763 400 
Q 2238 -91 1488 -91 
Q 741 -91 406 400 
Q 72 888 241 1747 
Q 363 2384 891 2900 
Q 1097 3100 1353 3213 
Q 913 3459 1000 3900 
Q 1166 4750 2544 4750 
Q 3234 4750 3566 4531 
L 3472 4053 
z
M 1753 3056 
Q 1525 2966 1306 2738 
Q 969 2384 847 1747 
Q 722 1113 919 756 
Q 1119 397 1584 397 
Q 2044 397 2381 759 
Q 2722 1122 2838 1716 
Q 2956 2338 2731 2638 
Q 2491 2959 2103 2994 
Q 1906 3013 1753 3056 
z
" transform="scale(0.015625)"/>
       <path id="DejaVuSans-Oblique-65" d="M 3078 2063 
Q 3088 2113 3092 2166 
Q 3097 2219 3097 2272 
Q 3097 2653 2873 2875 
Q 2650 3097 2266 3097 
Q 1838 3097 1509 2826 
Q 1181 2556 1013 2059 
L 3078 2063 
z
M 3578 1613 
L 903 1613 
Q 884 1494 878 1425 
Q 872 1356 872 1306 
Q 872 872 1139 634 
Q 1406 397 1894 397 
Q 2269 397 2603 481 
Q 2938 566 3225 728 
L 3116 159 
Q 2806 34 2476 -28 
Q 2147 -91 1806 -91 
Q 1078 -91 686 257 
Q 294 606 294 1247 
Q 294 1794 489 2264 
Q 684 2734 1063 3103 
Q 1306 3334 1642 3459 
Q 1978 3584 2356 3584 
Q 2950 3584 3301 3228 
Q 3653 2872 3653 2272 
Q 3653 2128 3634 1964 
Q 3616 1800 3578 1613 
z
" transform="scale(0.015625)"/>
       <path id="DejaVuSans-3d" d="M 678 2906 
L 4684 2906 
L 4684 2381 
L 678 2381 
L 678 2906 
z
M 678 1631 
L 4684 1631 
L 4684 1100 
L 678 1100 
L 678 1631 
z
" transform="scale(0.015625)"/>
       <path id="DejaVuSans-31" d="M 794 531 
L 1825 531 
L 1825 4091 
L 703 3866 
L 703 4441 
L 1819 4666 
L 2450 4666 
L 2450 531 
L 3481 531 
L 3481 0 
L 794 0 
L 794 531 
z
" transform="scale(0.015625)"/>
      </defs>
      <use xlink:href="#DejaVuSans-Oblique-3b4" transform="translate(0 0.78125)"/>
      <use xlink:href="#DejaVuSans-Oblique-65" transform="translate(61.181641 -15.625) scale(0.7)"/>
      <use xlink:href="#DejaVuSans-3d" transform="translate(126.464844 0.78125)"/>
      <use xlink:href="#DejaVuSans-2212" transform="translate(249.21875 0.78125)"/>
      <use xlink:href="#DejaVuSans-31" transform="translate(352.490234 0.78125)"/>
      <use xlink:href="#DejaVuSans-30" transform="translate(416.113281 0.78125)"/>
     </g>
    </g>
    <g id="line2d_21">
     <path d="M 80.84 144.782187 
L 90.84 144.782187 
L 100.84 144.782187 
" style="fill: none; stroke: #21918c; stroke-width: 1.5; stroke-linecap: square"/>
    </g>
    <g id="text_12">
     <!-- $\delta_e = 0$ -->
     <g transform="translate(108.84 148.282187) scale(0.1 -0.1)">
      <use xlink:href="#DejaVuSans-Oblique-3b4" transform="translate(0 0.78125)"/>
      <use xlink:href="#DejaVuSans-Oblique-65" transform="translate(61.181641 -15.625) scale(0.7)"/>
      <use xlink:href="#DejaVuSans-3d" transform="translate(126.464844 0.78125)"/>
      <use xlink:href="#DejaVuSans-30" transform="translate(229.736328 0.78125)"/>
     </g>
    </g>
    <g id="line2d_22">
     <path d="M 80.84 159.460312 
L 90.84 159.460312 
L 100.84 159.460312 
" style="fill: none; stroke: #fde725; stroke-width: 1.5; stroke-linecap: square"/>
    </g>
    <g id="text_13">
     <!-- $\delta_e = 10$ -->
     <g transform="translate(108.84 162.960312) scale(0.1 -0.1)">
      <use xlink:href="#DejaVuSans-Oblique-3b4" transform="translate(0 0.78125)"/>
      <use xlink:href="#DejaVuSans-Oblique-65" transform="translate(61.181641 -15.625) scale(0.7)"/>
      <use xlink:href="#DejaVuSans-3d" transform="translate(126.464844 0.78125)"/>
      <use xlink:href="#DejaVuSans-31" transform="translate(229.736328 0.78125)"/>
      <use xlink:href="#DejaVuSans-30" transform="translate(293.359375 0.78125)"/>
     </g>
    </g>
   </g>
  </g>
 </g>
 <defs>
  <clipPath id="p40fdf60b6b">
   <rect x="71.84" y="10.8" width="205.36" height="163.24"/>
  </clipPath>
 </defs>
</svg>
