<?xml version="1.0" encoding="utf-8" standalone="no"?>
<!DOCTYPE svg PUBLIC "-//W3C//DTD SVG 1.1//EN"
  "http://www.w3.org/Graphics/SVG/1.1/DTD/svg11.dtd">
<svg xmlns:xlink="http://www.w3.org/1999/xlink" width="432pt" height="216pt" viewBox="0 0 432 216" xmlns="http://www.w3.org/2000/svg" version="1.1">
 <metadata>
  <rdf:RDF xmlns:dc="http://purl.org/dc/elements/1.1/" xmlns:cc="http://creativecommons.org/ns#" xmlns:rdf="http://www.w3.org/1999/02/22-rdf-syntax-ns#">
   <cc:Work>
    <dc:type rdf:resource="http://purl.org/dc/dcmitype/StillImage"/>
    <dc:date>2025-03-31T11:57:49.218966</dc:date>
    <dc:format>image/svg+xml</dc:format>
    <dc:creator>
     <cc:Agent>
      <dc:title>Matplotlib v3.9.2, https://matplotlib.org/</dc:title>
     </cc:Agent>
    </dc:creator>
   </cc:Work>
  </rdf:RDF>
 </metadata>
 <defs>
  <style type="text/css">*{stroke-linejoin: round; stroke-linecap: butt}</style>
 </defs>
 <g id="figure_1">
  <g id="patch_1">
   <path d="M 0 216 
L 432 216 
L 432 0 
L 0 0 
z
" style="fill: #ffffff"/>
  </g>
  <g id="axes_1">
   <g id="patch_2">
    <path d="M 71.408 168.568 
L 288.833656 168.568 
L 288.833656 28.876 
L 71.408 28.876 
z
" style="fill: #ffffff"/>
   </g>
   <g id="PathCollection_1">
    <defs>
     <path id="m7abb28bb61" d="M -3 3 
L 3 -3 
M -3 -3 
L 3 3 
" style="stroke: #000080; stroke-width: 1.5"/>
    </defs>
    <g clip-path="url(#pa942d7a64a)">
     <use xlink:href="#m7abb28bb61" x="112.133028" y="98.461549" style="fill: #000080; stroke: #000080; stroke-width: 1.5"/>
     <use xlink:href="#m7abb28bb61" x="86.323444" y="98.541867" style="fill: #000080; stroke: #000080; stroke-width: 1.5"/>
     <use xlink:href="#m7abb28bb61" x="256.283983" y="111.742439" style="fill: #000080; stroke: #000080; stroke-width: 1.5"/>
     <use xlink:href="#m7abb28bb61" x="146.183265" y="100.637332" style="fill: #000080; stroke: #000080; stroke-width: 1.5"/>
     <use xlink:href="#m7abb28bb61" x="192.659515" y="105.105043" style="fill: #000080; stroke: #000080; stroke-width: 1.5"/>
     <use xlink:href="#m7abb28bb61" x="254.382492" y="111.833745" style="fill: #000080; stroke: #000080; stroke-width: 1.5"/>
     <use xlink:href="#m7abb28bb61" x="254.296382" y="111.833745" style="fill: #000080; stroke: #000080; stroke-width: 1.5"/>
    </g>
   </g>
   <g id="PathCollection_2">
    <defs>
     <path id="m1c82d08750" d="M -3 0 
L 3 0 
M 0 3 
L 0 -3 
" style="stroke: #0000ff; stroke-width: 1.5"/>
    </defs>
    <g clip-path="url(#pa942d7a64a)">
     <use xlink:href="#m1c82d08750" x="163.137044" y="79.732915" style="fill: #0000ff; stroke: #0000ff; stroke-width: 1.5"/>
     <use xlink:href="#m1c82d08750" x="209.009613" y="102.541129" style="fill: #0000ff; stroke: #0000ff; stroke-width: 1.5"/>
     <use xlink:href="#m1c82d08750" x="129.616481" y="69.376136" style="fill: #0000ff; stroke: #0000ff; stroke-width: 1.5"/>
     <use xlink:href="#m1c82d08750" x="103.838936" y="71.780587" style="fill: #0000ff; stroke: #0000ff; stroke-width: 1.5"/>
    </g>
   </g>
   <g id="PathCollection_3">
    <defs>
     <path id="m518bc19ae0" d="M -3 3 
L 3 -3 
M -3 -3 
L 3 3 
" style="stroke: #0060ff; stroke-width: 1.5"/>
    </defs>
    <g clip-path="url(#pa942d7a64a)">
     <use xlink:href="#m518bc19ae0" x="261.874288" y="75.690398" style="fill: #0060ff; stroke: #0060ff; stroke-width: 1.5"/>
    </g>
   </g>
   <g id="PathCollection_4">
    <defs>
     <path id="m87fd21273f" d="M -3 0 
L 3 0 
M 0 3 
L 0 -3 
" style="stroke: #00d4ff; stroke-width: 1.5"/>
    </defs>
    <g clip-path="url(#pa942d7a64a)">
     <use xlink:href="#m87fd21273f" x="125.22932" y="35.34414" style="fill: #00d4ff; stroke: #00d4ff; stroke-width: 1.5"/>
     <use xlink:href="#m87fd21273f" x="268.517561" y="80.159153" style="fill: #00d4ff; stroke: #00d4ff; stroke-width: 1.5"/>
     <use xlink:href="#m87fd21273f" x="140.19766" y="37.277308" style="fill: #00d4ff; stroke: #00d4ff; stroke-width: 1.5"/>
    </g>
   </g>
   <g id="PathCollection_5">
    <defs>
     <path id="mc56daf9b2b" d="M -3 3 
L 3 -3 
M -3 -3 
L 3 3 
" style="stroke: #4dffaa; stroke-width: 1.5"/>
    </defs>
    <g clip-path="url(#pa942d7a64a)">
     <use xlink:href="#mc56daf9b2b" x="102.011446" y="49.995171" style="fill: #4dffaa; stroke: #4dffaa; stroke-width: 1.5"/>
     <use xlink:href="#mc56daf9b2b" x="142.583877" y="56.671251" style="fill: #4dffaa; stroke: #4dffaa; stroke-width: 1.5"/>
    </g>
   </g>
   <g id="PathCollection_6">
    <defs>
     <path id="m19d3690206" d="M -3 0 
L 3 0 
M 0 3 
L 0 -3 
" style="stroke: #aaff4d; stroke-width: 1.5"/>
    </defs>
    <g clip-path="url(#pa942d7a64a)">
     <use xlink:href="#m19d3690206" x="175.027603" y="41.574187" style="fill: #aaff4d; stroke: #aaff4d; stroke-width: 1.5"/>
     <use xlink:href="#m19d3690206" x="93.632607" y="38.568481" style="fill: #aaff4d; stroke: #aaff4d; stroke-width: 1.5"/>
    </g>
   </g>
   <g id="PathCollection_7">
    <defs>
     <path id="m0664f3317c" d="M -3 3 
L 3 -3 
M -3 -3 
L 3 3 
" style="stroke: #ffe600; stroke-width: 1.5"/>
    </defs>
    <g clip-path="url(#pa942d7a64a)">
     <use xlink:href="#m0664f3317c" x="212.55919" y="97.89915" style="fill: #ffe600; stroke: #ffe600; stroke-width: 1.5"/>
    </g>
   </g>
   <g id="PathCollection_8">
    <defs>
     <path id="m28b802a5fe" d="M -3 0 
L 3 0 
M 0 3 
L 0 -3 
" style="stroke: #ff7a00; stroke-width: 1.5"/>
    </defs>
    <g clip-path="url(#pa942d7a64a)">
     <use xlink:href="#m28b802a5fe" x="229.497401" y="69.511676" style="fill: #ff7a00; stroke: #ff7a00; stroke-width: 1.5"/>
    </g>
   </g>
   <g id="PathCollection_9">
    <defs>
     <path id="m7de83cd9fc" d="M -3 3 
L 3 -3 
M -3 -3 
L 3 3 
" style="stroke: #ff1300; stroke-width: 1.5"/>
    </defs>
    <g clip-path="url(#pa942d7a64a)">
     <use xlink:href="#m7de83cd9fc" x="194.000801" y="148.410273" style="fill: #ff1300; stroke: #ff1300; stroke-width: 1.5"/>
     <use xlink:href="#m7de83cd9fc" x="278.732342" y="162.08131" style="fill: #ff1300; stroke: #ff1300; stroke-width: 1.5"/>
     <use xlink:href="#m7de83cd9fc" x="155.746238" y="139.653277" style="fill: #ff1300; stroke: #ff1300; stroke-width: 1.5"/>
     <use xlink:href="#m7de83cd9fc" x="114.798807" y="126.953154" style="fill: #ff1300; stroke: #ff1300; stroke-width: 1.5"/>
     <use xlink:href="#m7de83cd9fc" x="278.891226" y="162.218364" style="fill: #ff1300; stroke: #ff1300; stroke-width: 1.5"/>
     <use xlink:href="#m7de83cd9fc" x="278.950671" y="162.218364" style="fill: #ff1300; stroke: #ff1300; stroke-width: 1.5"/>
    </g>
   </g>
   <g id="PathCollection_10">
    <defs>
     <path id="m4315cafc0c" d="M -3 0 
L 3 0 
M 0 3 
L 0 -3 
" style="stroke: #800000; stroke-width: 1.5"/>
    </defs>
    <g clip-path="url(#pa942d7a64a)">
     <use xlink:href="#m4315cafc0c" x="148.585975" y="122.192472" style="fill: #800000; stroke: #800000; stroke-width: 1.5"/>
     <use xlink:href="#m4315cafc0c" x="170.544827" y="119.036202" style="fill: #800000; stroke: #800000; stroke-width: 1.5"/>
     <use xlink:href="#m4315cafc0c" x="260.119822" y="107.986249" style="fill: #800000; stroke: #800000; stroke-width: 1.5"/>
    </g>
   </g>
   <g id="matplotlib.axis_1">
    <g id="xtick_1">
     <g id="line2d_1">
      <path d="M 93.120233 168.568 
L 93.120233 28.876 
" clip-path="url(#pa942d7a64a)" style="fill: none; stroke: #b0b0b0; stroke-width: 0.8; stroke-linecap: square"/>
     </g>
     <g id="line2d_2">
      <defs>
       <path id="m626e4acbe2" d="M 0 0 
L 0 3.5 
" style="stroke: #000000; stroke-width: 0.8"/>
      </defs>
      <g>
       <use xlink:href="#m626e4acbe2" x="93.120233" y="168.568" style="stroke: #000000; stroke-width: 0.8"/>
      </g>
     </g>
     <g id="text_1">
      <!-- −0.05 -->
      <g transform="translate(77.797577 183.166437) scale(0.1 -0.1)">
       <defs>
        <path id="DejaVuSans-2212" d="M 678 2272 
L 4684 2272 
L 4684 1741 
L 678 1741 
L 678 2272 
z
" transform="scale(0.015625)"/>
        <path id="DejaVuSans-30" d="M 2034 4250 
Q 1547 4250 1301 3770 
Q 1056 3291 1056 2328 
Q 1056 1369 1301 889 
Q 1547 409 2034 409 
Q 2525 409 2770 889 
Q 3016 1369 3016 2328 
Q 3016 3291 2770 3770 
Q 2525 4250 2034 4250 
z
M 2034 4750 
Q 2819 4750 3233 4129 
Q 3647 3509 3647 2328 
Q 3647 1150 3233 529 
Q 2819 -91 2034 -91 
Q 1250 -91 836 529 
Q 422 1150 422 2328 
Q 422 3509 836 4129 
Q 1250 4750 2034 4750 
z
" transform="scale(0.015625)"/>
        <path id="DejaVuSans-2e" d="M 684 794 
L 1344 794 
L 1344 0 
L 684 0 
L 684 794 
z
" transform="scale(0.015625)"/>
        <path id="DejaVuSans-35" d="M 691 4666 
L 3169 4666 
L 3169 4134 
L 1269 4134 
L 1269 2991 
Q 1406 3038 1543 3061 
Q 1681 3084 1819 3084 
Q 2600 3084 3056 2656 
Q 3513 2228 3513 1497 
Q 3513 744 3044 326 
Q 2575 -91 1722 -91 
Q 1428 -91 1123 -41 
Q 819 9 494 109 
L 494 744 
Q 775 591 1075 516 
Q 1375 441 1709 441 
Q 2250 441 2565 725 
Q 2881 1009 2881 1497 
Q 2881 1984 2565 2268 
Q 2250 2553 1709 2553 
Q 1456 2553 1204 2497 
Q 953 2441 691 2322 
L 691 4666 
z
" transform="scale(0.015625)"/>
       </defs>
       <use xlink:href="#DejaVuSans-2212"/>
       <use xlink:href="#DejaVuSans-30" x="83.789062"/>
       <use xlink:href="#DejaVuSans-2e" x="147.412109"/>
       <use xlink:href="#DejaVuSans-30" x="179.199219"/>
       <use xlink:href="#DejaVuSans-35" x="242.822266"/>
      </g>
     </g>
    </g>
    <g id="xtick_2">
     <g id="line2d_3">
      <path d="M 126.438283 168.568 
L 126.438283 28.876 
" clip-path="url(#pa942d7a64a)" style="fill: none; stroke: #b0b0b0; stroke-width: 0.8; stroke-linecap: square"/>
     </g>
     <g id="line2d_4">
      <g>
       <use xlink:href="#m626e4acbe2" x="126.438283" y="168.568" style="stroke: #000000; stroke-width: 0.8"/>
      </g>
     </g>
     <g id="text_2">
      <!-- 0.00 -->
      <g transform="translate(115.305471 183.166437) scale(0.1 -0.1)">
       <use xlink:href="#DejaVuSans-30"/>
       <use xlink:href="#DejaVuSans-2e" x="63.623047"/>
       <use xlink:href="#DejaVuSans-30" x="95.410156"/>
       <use xlink:href="#DejaVuSans-30" x="159.033203"/>
      </g>
     </g>
    </g>
    <g id="xtick_3">
     <g id="line2d_5">
      <path d="M 159.756333 168.568 
L 159.756333 28.876 
" clip-path="url(#pa942d7a64a)" style="fill: none; stroke: #b0b0b0; stroke-width: 0.8; stroke-linecap: square"/>
     </g>
     <g id="line2d_6">
      <g>
       <use xlink:href="#m626e4acbe2" x="159.756333" y="168.568" style="stroke: #000000; stroke-width: 0.8"/>
      </g>
     </g>
     <g id="text_3">
      <!-- 0.05 -->
      <g transform="translate(148.62352 183.166437) scale(0.1 -0.1)">
       <use xlink:href="#DejaVuSans-30"/>
       <use xlink:href="#DejaVuSans-2e" x="63.623047"/>
       <use xlink:href="#DejaVuSans-30" x="95.410156"/>
       <use xlink:href="#DejaVuSans-35" x="159.033203"/>
      </g>
     </g>
    </g>
    <g id="xtick_4">
     <g id="line2d_7">
      <path d="M 193.074382 168.568 
L 193.074382 28.876 
" clip-path="url(#pa942d7a64a)" style="fill: none; stroke: #b0b0b0; stroke-width: 0.8; stroke-linecap: square"/>
     </g>
     <g id="line2d_8">
      <g>
       <use xlink:href="#m626e4acbe2" x="193.074382" y="168.568" style="stroke: #000000; stroke-width: 0.8"/>
      </g>
     </g>
     <g id="text_4">
      <!-- 0.10 -->
      <g transform="translate(181.94157 183.166437) scale(0.1 -0.1)">
       <defs>
        <path id="DejaVuSans-31" d="M 794 531 
L 1825 531 
L 1825 4091 
L 703 3866 
L 703 4441 
L 1819 4666 
L 2450 4666 
L 2450 531 
L 3481 531 
L 3481 0 
L 794 0 
L 794 531 
z
" transform="scale(0.015625)"/>
       </defs>
       <use xlink:href="#DejaVuSans-30"/>
       <use xlink:href="#DejaVuSans-2e" x="63.623047"/>
       <use xlink:href="#DejaVuSans-31" x="95.410156"/>
       <use xlink:href="#DejaVuSans-30" x="159.033203"/>
      </g>
     </g>
    </g>
    <g id="xtick_5">
     <g id="line2d_9">
      <path d="M 226.392432 168.568 
L 226.392432 28.876 
" clip-path="url(#pa942d7a64a)" style="fill: none; stroke: #b0b0b0; stroke-width: 0.8; stroke-linecap: square"/>
     </g>
     <g id="line2d_10">
      <g>
       <use xlink:href="#m626e4acbe2" x="226.392432" y="168.568" style="stroke: #000000; stroke-width: 0.8"/>
      </g>
     </g>
     <g id="text_5">
      <!-- 0.15 -->
      <g transform="translate(215.259619 183.166437) scale(0.1 -0.1)">
       <use xlink:href="#DejaVuSans-30"/>
       <use xlink:href="#DejaVuSans-2e" x="63.623047"/>
       <use xlink:href="#DejaVuSans-31" x="95.410156"/>
       <use xlink:href="#DejaVuSans-35" x="159.033203"/>
      </g>
     </g>
    </g>
    <g id="xtick_6">
     <g id="line2d_11">
      <path d="M 259.710482 168.568 
L 259.710482 28.876 
" clip-path="url(#pa942d7a64a)" style="fill: none; stroke: #b0b0b0; stroke-width: 0.8; stroke-linecap: square"/>
     </g>
     <g id="line2d_12">
      <g>
       <use xlink:href="#m626e4acbe2" x="259.710482" y="168.568" style="stroke: #000000; stroke-width: 0.8"/>
      </g>
     </g>
     <g id="text_6">
      <!-- 0.20 -->
      <g transform="translate(248.577669 183.166437) scale(0.1 -0.1)">
       <defs>
        <path id="DejaVuSans-32" d="M 1228 531 
L 3431 531 
L 3431 0 
L 469 0 
L 469 531 
Q 828 903 1448 1529 
Q 2069 2156 2228 2338 
Q 2531 2678 2651 2914 
Q 2772 3150 2772 3378 
Q 2772 3750 2511 3984 
Q 2250 4219 1831 4219 
Q 1534 4219 1204 4116 
Q 875 4013 500 3803 
L 500 4441 
Q 881 4594 1212 4672 
Q 1544 4750 1819 4750 
Q 2544 4750 2975 4387 
Q 3406 4025 3406 3419 
Q 3406 3131 3298 2873 
Q 3191 2616 2906 2266 
Q 2828 2175 2409 1742 
Q 1991 1309 1228 531 
z
" transform="scale(0.015625)"/>
       </defs>
       <use xlink:href="#DejaVuSans-30"/>
       <use xlink:href="#DejaVuSans-2e" x="63.623047"/>
       <use xlink:href="#DejaVuSans-32" x="95.410156"/>
       <use xlink:href="#DejaVuSans-30" x="159.033203"/>
      </g>
     </g>
    </g>
    <g id="text_7">
     <!-- $T_C = T / \rho V^2 D^2$ -->
     <g transform="translate(147.720828 198.346125) scale(0.1 -0.1)">
      <defs>
       <path id="DejaVuSans-Oblique-54" d="M 378 4666 
L 4325 4666 
L 4225 4134 
L 2559 4134 
L 1759 0 
L 1125 0 
L 1925 4134 
L 275 4134 
L 378 4666 
z
" transform="scale(0.015625)"/>
       <path id="DejaVuSans-Oblique-43" d="M 4447 4306 
L 4319 3641 
Q 4019 3944 3683 4091 
Q 3347 4238 2956 4238 
Q 2422 4238 2017 3981 
Q 1613 3725 1319 3200 
Q 1131 2863 1032 2486 
Q 934 2109 934 1728 
Q 934 1091 1264 756 
Q 1594 422 2222 422 
Q 2656 422 3056 561 
Q 3456 700 3834 978 
L 3688 231 
Q 3316 72 2936 -9 
Q 2556 -91 2175 -91 
Q 1278 -91 773 396 
Q 269 884 269 1753 
Q 269 2309 461 2846 
Q 653 3384 1013 3828 
Q 1394 4300 1883 4525 
Q 2372 4750 3022 4750 
Q 3422 4750 3780 4639 
Q 4138 4528 4447 4306 
z
" transform="scale(0.015625)"/>
       <path id="DejaVuSans-3d" d="M 678 2906 
L 4684 2906 
L 4684 2381 
L 678 2381 
L 678 2906 
z
M 678 1631 
L 4684 1631 
L 4684 1100 
L 678 1100 
L 678 1631 
z
" transform="scale(0.015625)"/>
       <path id="DejaVuSans-2f" d="M 1625 4666 
L 2156 4666 
L 531 -594 
L 0 -594 
L 1625 4666 
z
" transform="scale(0.015625)"/>
       <path id="DejaVuSans-Oblique-3c1" d="M 1203 2875 
Q 1453 3194 1981 3475 
Q 2188 3584 2756 3584 
Q 3394 3584 3694 3078 
Q 3994 2572 3834 1747 
Q 3672 922 3175 415 
Q 2678 -91 2041 -91 
Q 1656 -91 1409 63 
Q 1163 213 1044 525 
L 681 -1331 
L 103 -1331 
L 697 1716 
Q 838 2438 1203 2875 
z
M 3238 1747 
Q 3359 2381 3169 2744 
Q 2978 3103 2522 3103 
Q 2066 3103 1734 2744 
Q 1403 2381 1281 1747 
Q 1156 1113 1347 750 
Q 1538 391 1994 391 
Q 2450 391 2781 750 
Q 3113 1113 3238 1747 
z
" transform="scale(0.015625)"/>
       <path id="DejaVuSans-Oblique-56" d="M 1319 0 
L 500 4666 
L 1119 4666 
L 1797 653 
L 4063 4666 
L 4750 4666 
L 2053 0 
L 1319 0 
z
" transform="scale(0.015625)"/>
       <path id="DejaVuSans-Oblique-44" d="M 1081 4666 
L 2438 4666 
Q 3519 4666 4070 4208 
Q 4622 3750 4622 2847 
Q 4622 2250 4412 1698 
Q 4203 1147 3834 769 
Q 3463 381 2891 190 
Q 2319 0 1538 0 
L 172 0 
L 1081 4666 
z
M 1613 4147 
L 909 519 
L 1734 519 
Q 2794 519 3375 1128 
Q 3956 1738 3956 2847 
Q 3956 3519 3581 3833 
Q 3206 4147 2406 4147 
L 1613 4147 
z
" transform="scale(0.015625)"/>
      </defs>
      <use xlink:href="#DejaVuSans-Oblique-54" transform="translate(0 0.765625)"/>
      <use xlink:href="#DejaVuSans-Oblique-43" transform="translate(61.083984 -15.640625) scale(0.7)"/>
      <use xlink:href="#DejaVuSans-3d" transform="translate(132.177734 0.765625)"/>
      <use xlink:href="#DejaVuSans-Oblique-54" transform="translate(235.449219 0.765625)"/>
      <use xlink:href="#DejaVuSans-2f" transform="translate(296.533203 0.765625)"/>
      <use xlink:href="#DejaVuSans-Oblique-3c1" transform="translate(330.224609 0.765625)"/>
      <use xlink:href="#DejaVuSans-Oblique-56" transform="translate(393.701172 0.765625)"/>
      <use xlink:href="#DejaVuSans-32" transform="translate(469.126146 39.046875) scale(0.7)"/>
      <use xlink:href="#DejaVuSans-Oblique-44" transform="translate(516.396654 0.765625)"/>
      <use xlink:href="#DejaVuSans-32" transform="translate(600.415378 39.046875) scale(0.7)"/>
     </g>
    </g>
   </g>
   <g id="matplotlib.axis_2">
    <g id="ytick_1">
     <g id="line2d_13">
      <path d="M 71.408 151.719081 
L 288.833656 151.719081 
" clip-path="url(#pa942d7a64a)" style="fill: none; stroke: #b0b0b0; stroke-width: 0.8; stroke-linecap: square"/>
     </g>
     <g id="line2d_14">
      <defs>
       <path id="mafc4bca5f2" d="M 0 0 
L -3.5 0 
" style="stroke: #000000; stroke-width: 0.8"/>
      </defs>
      <g>
       <use xlink:href="#mafc4bca5f2" x="71.408" y="151.719081" style="stroke: #000000; stroke-width: 0.8"/>
      </g>
     </g>
     <g id="text_8">
      <!-- −0.055 -->
      <g transform="translate(27.400188 155.5183) scale(0.1 -0.1)">
       <use xlink:href="#DejaVuSans-2212"/>
       <use xlink:href="#DejaVuSans-30" x="83.789062"/>
       <use xlink:href="#DejaVuSans-2e" x="147.412109"/>
       <use xlink:href="#DejaVuSans-30" x="179.199219"/>
       <use xlink:href="#DejaVuSans-35" x="242.822266"/>
       <use xlink:href="#DejaVuSans-35" x="306.445312"/>
      </g>
     </g>
    </g>
    <g id="ytick_2">
     <g id="line2d_15">
      <path d="M 71.408 126.194185 
L 288.833656 126.194185 
" clip-path="url(#pa942d7a64a)" style="fill: none; stroke: #b0b0b0; stroke-width: 0.8; stroke-linecap: square"/>
     </g>
     <g id="line2d_16">
      <g>
       <use xlink:href="#mafc4bca5f2" x="71.408" y="126.194185" style="stroke: #000000; stroke-width: 0.8"/>
      </g>
     </g>
     <g id="text_9">
      <!-- −0.050 -->
      <g transform="translate(27.400188 129.993404) scale(0.1 -0.1)">
       <use xlink:href="#DejaVuSans-2212"/>
       <use xlink:href="#DejaVuSans-30" x="83.789062"/>
       <use xlink:href="#DejaVuSans-2e" x="147.412109"/>
       <use xlink:href="#DejaVuSans-30" x="179.199219"/>
       <use xlink:href="#DejaVuSans-35" x="242.822266"/>
       <use xlink:href="#DejaVuSans-30" x="306.445312"/>
      </g>
     </g>
    </g>
    <g id="ytick_3">
     <g id="line2d_17">
      <path d="M 71.408 100.669289 
L 288.833656 100.669289 
" clip-path="url(#pa942d7a64a)" style="fill: none; stroke: #b0b0b0; stroke-width: 0.8; stroke-linecap: square"/>
     </g>
     <g id="line2d_18">
      <g>
       <use xlink:href="#mafc4bca5f2" x="71.408" y="100.669289" style="stroke: #000000; stroke-width: 0.8"/>
      </g>
     </g>
     <g id="text_10">
      <!-- −0.045 -->
      <g transform="translate(27.400188 104.468508) scale(0.1 -0.1)">
       <defs>
        <path id="DejaVuSans-34" d="M 2419 4116 
L 825 1625 
L 2419 1625 
L 2419 4116 
z
M 2253 4666 
L 3047 4666 
L 3047 1625 
L 3713 1625 
L 3713 1100 
L 3047 1100 
L 3047 0 
L 2419 0 
L 2419 1100 
L 313 1100 
L 313 1709 
L 2253 4666 
z
" transform="scale(0.015625)"/>
       </defs>
       <use xlink:href="#DejaVuSans-2212"/>
       <use xlink:href="#DejaVuSans-30" x="83.789062"/>
       <use xlink:href="#DejaVuSans-2e" x="147.412109"/>
       <use xlink:href="#DejaVuSans-30" x="179.199219"/>
       <use xlink:href="#DejaVuSans-34" x="242.822266"/>
       <use xlink:href="#DejaVuSans-35" x="306.445312"/>
      </g>
     </g>
    </g>
    <g id="ytick_4">
     <g id="line2d_19">
      <path d="M 71.408 75.144393 
L 288.833656 75.144393 
" clip-path="url(#pa942d7a64a)" style="fill: none; stroke: #b0b0b0; stroke-width: 0.8; stroke-linecap: square"/>
     </g>
     <g id="line2d_20">
      <g>
       <use xlink:href="#mafc4bca5f2" x="71.408" y="75.144393" style="stroke: #000000; stroke-width: 0.8"/>
      </g>
     </g>
     <g id="text_11">
      <!-- −0.040 -->
      <g transform="translate(27.400188 78.943612) scale(0.1 -0.1)">
       <use xlink:href="#DejaVuSans-2212"/>
       <use xlink:href="#DejaVuSans-30" x="83.789062"/>
       <use xlink:href="#DejaVuSans-2e" x="147.412109"/>
       <use xlink:href="#DejaVuSans-30" x="179.199219"/>
       <use xlink:href="#DejaVuSans-34" x="242.822266"/>
       <use xlink:href="#DejaVuSans-30" x="306.445312"/>
      </g>
     </g>
    </g>
    <g id="ytick_5">
     <g id="line2d_21">
      <path d="M 71.408 49.619497 
L 288.833656 49.619497 
" clip-path="url(#pa942d7a64a)" style="fill: none; stroke: #b0b0b0; stroke-width: 0.8; stroke-linecap: square"/>
     </g>
     <g id="line2d_22">
      <g>
       <use xlink:href="#mafc4bca5f2" x="71.408" y="49.619497" style="stroke: #000000; stroke-width: 0.8"/>
      </g>
     </g>
     <g id="text_12">
      <!-- −0.035 -->
      <g transform="translate(27.400188 53.418716) scale(0.1 -0.1)">
       <defs>
        <path id="DejaVuSans-33" d="M 2597 2516 
Q 3050 2419 3304 2112 
Q 3559 1806 3559 1356 
Q 3559 666 3084 287 
Q 2609 -91 1734 -91 
Q 1441 -91 1130 -33 
Q 819 25 488 141 
L 488 750 
Q 750 597 1062 519 
Q 1375 441 1716 441 
Q 2309 441 2620 675 
Q 2931 909 2931 1356 
Q 2931 1769 2642 2001 
Q 2353 2234 1838 2234 
L 1294 2234 
L 1294 2753 
L 1863 2753 
Q 2328 2753 2575 2939 
Q 2822 3125 2822 3475 
Q 2822 3834 2567 4026 
Q 2313 4219 1838 4219 
Q 1578 4219 1281 4162 
Q 984 4106 628 3988 
L 628 4550 
Q 988 4650 1302 4700 
Q 1616 4750 1894 4750 
Q 2613 4750 3031 4423 
Q 3450 4097 3450 3541 
Q 3450 3153 3228 2886 
Q 3006 2619 2597 2516 
z
" transform="scale(0.015625)"/>
       </defs>
       <use xlink:href="#DejaVuSans-2212"/>
       <use xlink:href="#DejaVuSans-30" x="83.789062"/>
       <use xlink:href="#DejaVuSans-2e" x="147.412109"/>
       <use xlink:href="#DejaVuSans-30" x="179.199219"/>
       <use xlink:href="#DejaVuSans-33" x="242.822266"/>
       <use xlink:href="#DejaVuSans-35" x="306.445312"/>
      </g>
     </g>
    </g>
    <g id="text_13">
     <!-- d$C_M$ / d$\alpha$ -->
     <g transform="translate(21.3205 119.922) rotate(-90) scale(0.1 -0.1)">
      <defs>
       <path id="DejaVuSans-64" d="M 2906 2969 
L 2906 4863 
L 3481 4863 
L 3481 0 
L 2906 0 
L 2906 525 
Q 2725 213 2448 61 
Q 2172 -91 1784 -91 
Q 1150 -91 751 415 
Q 353 922 353 1747 
Q 353 2572 751 3078 
Q 1150 3584 1784 3584 
Q 2172 3584 2448 3432 
Q 2725 3281 2906 2969 
z
M 947 1747 
Q 947 1113 1208 752 
Q 1469 391 1925 391 
Q 2381 391 2643 752 
Q 2906 1113 2906 1747 
Q 2906 2381 2643 2742 
Q 2381 3103 1925 3103 
Q 1469 3103 1208 2742 
Q 947 2381 947 1747 
z
" transform="scale(0.015625)"/>
       <path id="DejaVuSans-Oblique-4d" d="M 1081 4666 
L 2028 4666 
L 2572 1522 
L 4378 4666 
L 5350 4666 
L 4441 0 
L 3828 0 
L 4622 4091 
L 2791 897 
L 2175 897 
L 1581 4103 
L 788 0 
L 172 0 
L 1081 4666 
z
" transform="scale(0.015625)"/>
       <path id="DejaVuSans-20" transform="scale(0.015625)"/>
       <path id="DejaVuSans-Oblique-3b1" d="M 2619 1628 
L 2622 2350 
Q 2625 3088 2069 3091 
Q 1653 3094 1394 2747 
Q 1069 2319 959 1747 
Q 825 1059 994 731 
Q 1169 397 1547 397 
Q 1966 397 2319 1063 
L 2619 1628 
z
M 2166 3578 
Q 3141 3594 3128 2584 
Q 3128 2584 3616 3500 
L 4128 3500 
L 3119 1603 
L 3109 919 
Q 3109 766 3194 638 
Q 3291 488 3391 488 
L 3669 488 
L 3575 0 
L 3228 0 
Q 2934 0 2722 263 
Q 2622 394 2619 669 
Q 2416 334 2066 50 
Q 1900 -81 1453 -78 
Q 722 -72 456 397 
Q 184 884 353 1747 
Q 534 2675 1009 3097 
Q 1544 3569 2166 3578 
z
" transform="scale(0.015625)"/>
      </defs>
      <use xlink:href="#DejaVuSans-64" transform="translate(0 0.015625)"/>
      <use xlink:href="#DejaVuSans-Oblique-43" transform="translate(63.476562 0.015625)"/>
      <use xlink:href="#DejaVuSans-Oblique-4d" transform="translate(133.300781 -16.390625) scale(0.7)"/>
      <use xlink:href="#DejaVuSans-20" transform="translate(196.430664 0.015625)"/>
      <use xlink:href="#DejaVuSans-2f" transform="translate(228.217773 0.015625)"/>
      <use xlink:href="#DejaVuSans-20" transform="translate(261.90918 0.015625)"/>
      <use xlink:href="#DejaVuSans-64" transform="translate(293.696289 0.015625)"/>
      <use xlink:href="#DejaVuSans-Oblique-3b1" transform="translate(357.172852 0.015625)"/>
     </g>
    </g>
   </g>
   <g id="line2d_23">
    <path d="M 254.974291 111.773184 
L 249.057198 111.13534 
L 243.283962 110.512807 
L 237.651965 109.905585 
L 232.158589 109.313673 
L 226.801216 108.737072 
L 221.577228 108.175781 
L 216.484006 107.629802 
L 211.518934 107.099133 
L 206.679393 106.583775 
L 201.962764 106.083727 
L 197.366431 105.598991 
L 192.887774 105.129565 
L 188.524177 104.67545 
L 184.273021 104.236645 
L 180.131687 103.813151 
L 176.097559 103.404968 
L 172.168018 103.012096 
L 168.340446 102.634534 
L 164.612225 102.272283 
L 160.980737 101.925343 
L 157.443365 101.593714 
L 153.997489 101.277395 
L 150.640492 100.976387 
L 147.369757 100.69069 
L 144.182665 100.420303 
L 141.076598 100.165227 
L 138.048938 99.925462 
L 135.097068 99.701008 
L 132.218368 99.491864 
L 129.410222 99.298031 
L 126.670011 99.119509 
L 123.995118 98.956298 
L 121.382923 98.808397 
L 118.83081 98.675807 
L 116.33616 98.558528 
L 113.896356 98.456559 
L 111.508779 98.369901 
L 109.170811 98.298554 
L 106.879834 98.242518 
L 104.633231 98.201792 
L 102.428383 98.176377 
L 100.262673 98.166273 
L 98.133481 98.171479 
L 96.038192 98.191996 
L 93.974185 98.227824 
L 91.938844 98.278963 
L 89.929551 98.345412 
L 87.943687 98.427173 
L 85.978634 98.524243 
" clip-path="url(#pa942d7a64a)" style="fill: none; stroke: #000080; stroke-width: 1.5; stroke-linecap: square"/>
   </g>
   <g id="line2d_24">
    <path d="M 271.566599 138.014283 
L 265.691407 134.637326 
L 259.95913 131.344861 
L 254.367149 128.136888 
L 248.912848 125.013407 
L 243.593607 121.974418 
L 238.406809 119.019922 
L 233.349836 116.149918 
L 228.420069 113.364406 
L 223.614892 110.663386 
L 218.931685 108.046858 
L 214.367832 105.514822 
L 209.920713 103.067279 
L 205.587711 100.704227 
L 201.366209 98.425668 
L 197.253587 96.231601 
L 193.247228 94.122026 
L 189.344514 92.096944 
L 185.542827 90.156353 
L 181.839549 88.300255 
L 178.232062 86.528649 
L 174.717749 84.841535 
L 171.29399 83.238913 
L 167.958168 81.720783 
L 164.707665 80.287145 
L 161.539864 78.938 
L 158.452145 77.673347 
L 155.441892 76.493186 
L 152.506485 75.397517 
L 149.643308 74.38634 
L 146.849742 73.459655 
L 144.123169 72.617463 
L 141.460971 71.859762 
L 138.860531 71.186554 
L 136.319229 70.597838 
L 133.834449 70.093614 
L 131.403572 69.673883 
L 129.02398 69.338643 
L 126.693056 69.087896 
L 124.40818 68.92164 
L 122.166736 68.839877 
L 119.966106 68.842606 
L 117.80367 68.929828 
L 115.676812 69.101541 
L 113.582913 69.357747 
L 111.519355 69.698444 
L 109.483521 70.123634 
L 107.472792 70.633316 
L 105.48455 71.22749 
L 103.516178 71.906157 
" clip-path="url(#pa942d7a64a)" style="fill: none; stroke: #0000ff; stroke-width: 1.5; stroke-linecap: square"/>
   </g>
   <g id="line2d_25">
    <path d="M 262.051086 75.694589 
L 256.223407 75.024041 
L 250.53622 74.365091 
L 244.986906 73.71774 
L 239.572847 73.081988 
L 234.291426 72.457834 
L 229.140024 71.845279 
L 224.116023 71.244322 
L 219.216806 70.654964 
L 214.439755 70.077204 
L 209.78225 69.511044 
L 205.241675 68.956481 
L 200.815412 68.413518 
L 196.500842 67.882152 
L 192.295347 67.362386 
L 188.19631 66.854218 
L 184.201113 66.357649 
L 180.307137 65.872678 
L 176.511764 65.399306 
L 172.812377 64.937532 
L 169.206358 64.487357 
L 165.691088 64.048781 
L 162.263949 63.621803 
L 158.922325 63.206424 
L 155.663595 62.802643 
L 152.485144 62.410461 
L 149.384352 62.029878 
L 146.358601 61.660893 
L 143.405275 61.303506 
L 140.521754 60.957719 
L 137.70542 60.623529 
L 134.953656 60.300939 
L 132.263844 59.989947 
L 129.633366 59.690554 
L 127.059603 59.402759 
L 124.539938 59.126563 
L 122.071753 58.861965 
L 119.652429 58.608966 
L 117.27935 58.367566 
L 114.949896 58.137764 
L 112.661449 57.919561 
L 110.411393 57.712956 
L 108.197108 57.51795 
L 106.015977 57.334542 
L 103.865382 57.162734 
L 101.742705 57.002523 
L 99.645328 56.853912 
L 97.570632 56.716898 
L 95.516001 56.591484 
L 93.478815 56.477668 
" clip-path="url(#pa942d7a64a)" style="fill: none; stroke: #0060ff; stroke-width: 1.5; stroke-linecap: square"/>
   </g>
   <g id="line2d_26">
    <path d="M 267.834448 80.059239 
L 261.856592 77.787626 
L 256.025036 75.575067 
L 250.337162 73.421563 
L 244.790352 71.327113 
L 239.381987 69.291717 
L 234.109451 67.315376 
L 228.970124 65.39809 
L 223.96139 63.539857 
L 219.080629 61.740679 
L 214.325224 60.000556 
L 209.692558 58.319487 
L 205.180011 56.697472 
L 200.784966 55.134512 
L 196.504805 53.630606 
L 192.336911 52.185754 
L 188.278664 50.799957 
L 184.327447 49.473214 
L 180.480643 48.205526 
L 176.735632 46.996892 
L 173.089798 45.847313 
L 169.540521 44.756787 
L 166.085185 43.725317 
L 162.721171 42.7529 
L 159.445861 41.839538 
L 156.256637 40.985231 
L 153.150881 40.189978 
L 150.125975 39.453779 
L 147.179302 38.776634 
L 144.308242 38.158544 
L 141.510179 37.599509 
L 138.782494 37.099528 
L 136.12257 36.658601 
L 133.527787 36.276728 
L 130.995529 35.95391 
L 128.523177 35.690147 
L 126.108114 35.485438 
L 123.74772 35.339783 
L 121.439379 35.253182 
L 119.180472 35.225636 
L 116.968382 35.257145 
L 114.800489 35.347708 
L 112.674178 35.497325 
L 110.586828 35.705996 
L 108.535823 35.973722 
L 106.518544 36.300503 
L 104.532374 36.686337 
L 102.574694 37.131226 
L 100.642886 37.63517 
L 98.734333 38.198168 
" clip-path="url(#pa942d7a64a)" style="fill: none; stroke: #00d4ff; stroke-width: 1.5; stroke-linecap: square"/>
   </g>
   <g id="line2d_27">
    <path d="M 267.768221 74.129179 
L 261.997147 73.431378 
L 256.36498 72.742081 
L 250.869105 72.06129 
L 245.506901 71.389003 
L 240.275753 70.725222 
L 235.17304 70.069946 
L 230.196147 69.423175 
L 225.342454 68.78491 
L 220.609343 68.155149 
L 215.994197 67.533894 
L 211.494398 66.921143 
L 207.107327 66.316898 
L 202.830367 65.721158 
L 198.6609 65.133923 
L 194.596307 64.555194 
L 190.633971 63.984969 
L 186.771273 63.42325 
L 183.005596 62.870035 
L 179.334322 62.325326 
L 175.754833 61.789122 
L 172.26451 61.261423 
L 168.860736 60.742229 
L 165.540893 60.231541 
L 162.302362 59.729357 
L 159.142526 59.235679 
L 156.058767 58.750506 
L 153.048467 58.273838 
L 150.109008 57.805675 
L 147.237771 57.346017 
L 144.432139 56.894865 
L 141.689494 56.452217 
L 139.007218 56.018075 
L 136.382693 55.592438 
L 133.813301 55.175306 
L 131.296423 54.766679 
L 128.829443 54.366557 
L 126.409741 53.97494 
L 124.0347 53.591829 
L 121.701702 53.217222 
L 119.408129 52.851121 
L 117.151363 52.493525 
L 114.928786 52.144434 
L 112.73778 51.803848 
L 110.575727 51.471768 
L 108.440009 51.148192 
L 106.328008 50.833122 
L 104.237106 50.526557 
L 102.164685 50.228497 
L 100.108127 49.938942 
" clip-path="url(#pa942d7a64a)" style="fill: none; stroke: #4dffaa; stroke-width: 1.5; stroke-linecap: square"/>
   </g>
   <g id="line2d_28">
    <path d="M 265.20352 60.263455 
L 259.197424 58.912962 
L 253.337198 57.600326 
L 247.620222 56.325545 
L 242.043878 55.088621 
L 236.60555 53.889553 
L 231.302618 52.728342 
L 226.132465 51.604986 
L 221.092472 50.519487 
L 216.180023 49.471844 
L 211.392498 48.462057 
L 206.72728 47.490127 
L 202.181751 46.556053 
L 197.753293 45.659835 
L 193.439287 44.801474 
L 189.237117 43.980968 
L 185.144163 43.198319 
L 181.157808 42.453527 
L 177.275434 41.74659 
L 173.494423 41.07751 
L 169.812157 40.446286 
L 166.226017 39.852918 
L 162.733387 39.297407 
L 159.331648 38.779751 
L 156.018181 38.299952 
L 152.79037 37.85801 
L 149.645595 37.453923 
L 146.58124 37.087693 
L 143.594685 36.759319 
L 140.683314 36.468802 
L 137.844507 36.21614 
L 135.075648 36.001335 
L 132.374117 35.824386 
L 129.737298 35.685294 
L 127.162572 35.584057 
L 124.647321 35.520677 
L 122.188927 35.495154 
L 119.784772 35.507486 
L 117.432238 35.557675 
L 115.128707 35.64572 
L 112.871562 35.771621 
L 110.658183 35.935378 
L 108.485954 36.136992 
L 106.352256 36.376462 
L 104.254471 36.653789 
L 102.189981 36.968971 
L 100.156169 37.32201 
L 98.150416 37.712905 
L 96.170104 38.141656 
L 94.212615 38.608264 
" clip-path="url(#pa942d7a64a)" style="fill: none; stroke: #aaff4d; stroke-width: 1.5; stroke-linecap: square"/>
   </g>
   <g id="line2d_29">
    <path d="M 274.048615 106.450792 
L 268.323975 105.720286 
L 262.737811 104.994573 
L 257.287504 104.273653 
L 251.970436 103.557526 
L 246.783989 102.846192 
L 241.725546 102.139651 
L 236.792488 101.437903 
L 231.982198 100.740949 
L 227.292057 100.048787 
L 222.719447 99.361418 
L 218.26175 98.678842 
L 213.916349 98.001059 
L 209.680626 97.328069 
L 205.551961 96.659872 
L 201.527738 95.996468 
L 197.605339 95.337858 
L 193.782145 94.68404 
L 190.055538 94.035015 
L 186.422901 93.390783 
L 182.881615 92.751344 
L 179.429063 92.116698 
L 176.062626 91.486845 
L 172.779687 90.861786 
L 169.577627 90.241519 
L 166.453829 89.626045 
L 163.405674 89.015364 
L 160.430545 88.409476 
L 157.525823 87.808381 
L 154.688891 87.21208 
L 151.917131 86.620571 
L 149.207924 86.033855 
L 146.558653 85.451932 
L 143.966699 84.874802 
L 141.429445 84.302466 
L 138.944273 83.734922 
L 136.508564 83.172171 
L 134.119701 82.614213 
L 131.775066 82.061048 
L 129.47204 81.512677 
L 127.208006 80.969098 
L 124.980346 80.430312 
L 122.786441 79.896319 
L 120.623674 79.36712 
L 118.489427 78.842713 
L 116.381082 78.323099 
L 114.29602 77.808278 
L 112.231625 77.298251 
L 110.185277 76.793016 
L 108.154359 76.292574 
" clip-path="url(#pa942d7a64a)" style="fill: none; stroke: #ffe600; stroke-width: 1.5; stroke-linecap: square"/>
   </g>
   <g id="line2d_30">
    <path d="M 262.257506 70.708619 
L 256.2863 70.463471 
L 250.456542 70.23074 
L 244.765615 70.010428 
L 239.210901 69.802535 
L 233.789782 69.60706 
L 228.499639 69.424004 
L 223.337856 69.253366 
L 218.301813 69.095147 
L 213.388894 68.949346 
L 208.596479 68.815963 
L 203.921951 68.695 
L 199.362693 68.586454 
L 194.916085 68.490327 
L 190.57951 68.406619 
L 186.35035 68.335329 
L 182.225987 68.276458 
L 178.203804 68.230005 
L 174.281181 68.195971 
L 170.455501 68.174355 
L 166.724146 68.165158 
L 163.084499 68.168379 
L 159.53394 68.184019 
L 156.069853 68.212077 
L 152.689618 68.252553 
L 149.390619 68.305449 
L 146.170237 68.370762 
L 143.025854 68.448494 
L 139.954852 68.538645 
L 136.954613 68.641214 
L 134.02252 68.756202 
L 131.155953 68.883608 
L 128.352296 69.023433 
L 125.60893 69.175676 
L 122.923237 69.340338 
L 120.2926 69.517418 
L 117.714399 69.706917 
L 115.186018 69.908834 
L 112.704839 70.12317 
L 110.268242 70.349924 
L 107.873611 70.589096 
L 105.518327 70.840688 
L 103.199772 71.104697 
L 100.915329 71.381126 
L 98.662379 71.669972 
L 96.438304 71.971237 
L 94.240487 72.284921 
L 92.066309 72.611023 
L 89.913153 72.949544 
L 87.7784 73.300483 
" clip-path="url(#pa942d7a64a)" style="fill: none; stroke: #ff7a00; stroke-width: 1.5; stroke-linecap: square"/>
   </g>
   <g id="line2d_31">
    <path d="M 278.51336 161.885556 
L 272.809509 161.127796 
L 267.244993 160.371736 
L 261.817196 159.617376 
L 256.523499 158.864715 
L 251.361283 158.113754 
L 246.327932 157.364492 
L 241.420827 156.61693 
L 236.63735 155.871068 
L 231.974883 155.126905 
L 227.430808 154.384441 
L 223.002508 153.643677 
L 218.687363 152.904613 
L 214.482757 152.167248 
L 210.386071 151.431583 
L 206.394687 150.697617 
L 202.505987 149.965351 
L 198.717353 149.234785 
L 195.026168 148.505918 
L 191.429813 147.77875 
L 187.92567 147.053282 
L 184.511121 146.329514 
L 181.183549 145.607445 
L 177.940335 144.887076 
L 174.778861 144.168407 
L 171.696509 143.451436 
L 168.690662 142.736166 
L 165.758701 142.022595 
L 162.898008 141.310723 
L 160.105966 140.600552 
L 157.379956 139.892079 
L 154.717361 139.185307 
L 152.115561 138.480233 
L 149.571941 137.77686 
L 147.08388 137.075186 
L 144.648762 136.375211 
L 142.263969 135.676936 
L 139.926882 134.980361 
L 137.634883 134.285485 
L 135.385355 133.592309 
L 133.175679 132.900832 
L 131.003238 132.211055 
L 128.865413 131.522977 
L 126.759587 130.836599 
L 124.683142 130.151921 
L 122.633458 129.468942 
L 120.60792 128.787662 
L 118.603908 128.108082 
L 116.618804 127.430202 
L 114.649992 126.754021 
" clip-path="url(#pa942d7a64a)" style="fill: none; stroke: #ff1300; stroke-width: 1.5; stroke-linecap: square"/>
   </g>
   <g id="line2d_32">
    <path d="M 259.692971 107.913009 
L 253.808152 108.588981 
L 248.057847 109.256172 
L 242.439437 109.914584 
L 236.950304 110.564217 
L 231.587832 111.205069 
L 226.349401 111.837142 
L 221.232393 112.460436 
L 216.234191 113.07495 
L 211.352177 113.680684 
L 206.583733 114.277638 
L 201.92624 114.865813 
L 197.377081 115.445209 
L 192.933638 116.015824 
L 188.593292 116.57766 
L 184.353426 117.130717 
L 180.211422 117.674994 
L 176.164661 118.210491 
L 172.210527 118.737208 
L 168.3464 119.255146 
L 164.569662 119.764304 
L 160.877697 120.264683 
L 157.267886 120.756282 
L 153.73761 121.239101 
L 150.284252 121.713141 
L 146.905194 122.178401 
L 143.597818 122.634881 
L 140.359505 123.082582 
L 137.187639 123.521503 
L 134.0796 123.951645 
L 131.032772 124.373007 
L 128.044535 124.785589 
L 125.112272 125.189392 
L 122.233365 125.584415 
L 119.405196 125.970658 
L 116.625147 126.348122 
L 113.8906 126.716806 
L 111.198937 127.07671 
L 108.54754 127.427835 
L 105.933791 127.77018 
L 103.355072 128.103746 
L 100.808765 128.428532 
L 98.292252 128.744538 
L 95.802916 129.051765 
L 93.338137 129.350212 
L 90.895298 129.639879 
L 88.471781 129.920767 
L 86.064969 130.192875 
L 83.672243 130.456204 
L 81.290984 130.710753 
" clip-path="url(#pa942d7a64a)" style="fill: none; stroke: #800000; stroke-width: 1.5; stroke-linecap: square"/>
   </g>
   <g id="patch_3">
    <path d="M 71.408 168.568 
L 71.408 28.876 
" style="fill: none; stroke: #000000; stroke-width: 0.8; stroke-linejoin: miter; stroke-linecap: square"/>
   </g>
   <g id="patch_4">
    <path d="M 288.833656 168.568 
L 288.833656 28.876 
" style="fill: none; stroke: #000000; stroke-width: 0.8; stroke-linejoin: miter; stroke-linecap: square"/>
   </g>
   <g id="patch_5">
    <path d="M 71.408 168.568 
L 288.833656 168.568 
" style="fill: none; stroke: #000000; stroke-width: 0.8; stroke-linejoin: miter; stroke-linecap: square"/>
   </g>
   <g id="patch_6">
    <path d="M 71.408 28.876 
L 288.833656 28.876 
" style="fill: none; stroke: #000000; stroke-width: 0.8; stroke-linejoin: miter; stroke-linecap: square"/>
   </g>
   <g id="legend_1">
    <g id="patch_7">
     <path d="M 297.833656 158.5834 
L 420.533656 158.5834 
Q 422.533656 158.5834 422.533656 156.5834 
L 422.533656 10.80215 
Q 422.533656 8.80215 420.533656 8.80215 
L 297.833656 8.80215 
Q 295.833656 8.80215 295.833656 10.80215 
L 295.833656 156.5834 
Q 295.833656 158.5834 297.833656 158.5834 
z
" style="fill: #4d4d4d; opacity: 0.5; stroke: #4d4d4d; stroke-linejoin: miter"/>
    </g>
    <g id="patch_8">
     <path d="M 295.833656 156.5834 
L 418.533656 156.5834 
Q 420.533656 156.5834 420.533656 154.5834 
L 420.533656 8.80215 
Q 420.533656 6.80215 418.533656 6.80215 
L 295.833656 6.80215 
Q 293.833656 6.80215 293.833656 8.80215 
L 293.833656 154.5834 
Q 293.833656 156.5834 295.833656 156.5834 
z
" style="fill: #ffffff; stroke: #cccccc; stroke-linejoin: miter"/>
    </g>
    <g id="PathCollection_11">
     <g>
      <use xlink:href="#m7abb28bb61" x="307.833656" y="15.775588" style="fill: #000080; stroke: #000080; stroke-width: 1.5"/>
     </g>
    </g>
    <g id="text_14">
     <!-- $\alpha = -4, \delta_e = -10$ -->
     <g transform="translate(325.833656 18.400588) scale(0.1 -0.1)">
      <defs>
       <path id="DejaVuSans-2c" d="M 750 794 
L 1409 794 
L 1409 256 
L 897 -744 
L 494 -744 
L 750 256 
L 750 794 
z
" transform="scale(0.015625)"/>
       <path id="DejaVuSans-Oblique-3b4" d="M 3472 4053 
Q 3197 4272 2450 4272 
Q 1659 4272 1588 3906 
Q 1531 3619 2328 3469 
Q 2953 3353 3253 3003 
Q 3616 2581 3447 1716 
Q 3284 888 2763 400 
Q 2238 -91 1488 -91 
Q 741 -91 406 400 
Q 72 888 241 1747 
Q 363 2384 891 2900 
Q 1097 3100 1353 3213 
Q 913 3459 1000 3900 
Q 1166 4750 2544 4750 
Q 3234 4750 3566 4531 
L 3472 4053 
z
M 1753 3056 
Q 1525 2966 1306 2738 
Q 969 2384 847 1747 
Q 722 1113 919 756 
Q 1119 397 1584 397 
Q 2044 397 2381 759 
Q 2722 1122 2838 1716 
Q 2956 2338 2731 2638 
Q 2491 2959 2103 2994 
Q 1906 3013 1753 3056 
z
" transform="scale(0.015625)"/>
       <path id="DejaVuSans-Oblique-65" d="M 3078 2063 
Q 3088 2113 3092 2166 
Q 3097 2219 3097 2272 
Q 3097 2653 2873 2875 
Q 2650 3097 2266 3097 
Q 1838 3097 1509 2826 
Q 1181 2556 1013 2059 
L 3078 2063 
z
M 3578 1613 
L 903 1613 
Q 884 1494 878 1425 
Q 872 1356 872 1306 
Q 872 872 1139 634 
Q 1406 397 1894 397 
Q 2269 397 2603 481 
Q 2938 566 3225 728 
L 3116 159 
Q 2806 34 2476 -28 
Q 2147 -91 1806 -91 
Q 1078 -91 686 257 
Q 294 606 294 1247 
Q 294 1794 489 2264 
Q 684 2734 1063 3103 
Q 1306 3334 1642 3459 
Q 1978 3584 2356 3584 
Q 2950 3584 3301 3228 
Q 3653 2872 3653 2272 
Q 3653 2128 3634 1964 
Q 3616 1800 3578 1613 
z
" transform="scale(0.015625)"/>
      </defs>
      <use xlink:href="#DejaVuSans-Oblique-3b1" transform="translate(0 0.78125)"/>
      <use xlink:href="#DejaVuSans-3d" transform="translate(85.400391 0.78125)"/>
      <use xlink:href="#DejaVuSans-2212" transform="translate(208.154297 0.78125)"/>
      <use xlink:href="#DejaVuSans-34" transform="translate(311.425781 0.78125)"/>
      <use xlink:href="#DejaVuSans-2c" transform="translate(375.048828 0.78125)"/>
      <use xlink:href="#DejaVuSans-Oblique-3b4" transform="translate(426.318359 0.78125)"/>
      <use xlink:href="#DejaVuSans-Oblique-65" transform="translate(487.5 -15.625) scale(0.7)"/>
      <use xlink:href="#DejaVuSans-3d" transform="translate(552.783203 0.78125)"/>
      <use xlink:href="#DejaVuSans-2212" transform="translate(675.537109 0.78125)"/>
      <use xlink:href="#DejaVuSans-31" transform="translate(778.808594 0.78125)"/>
      <use xlink:href="#DejaVuSans-30" transform="translate(842.431641 0.78125)"/>
     </g>
    </g>
    <g id="PathCollection_12">
     <g>
      <use xlink:href="#m1c82d08750" x="307.833656" y="30.453713" style="fill: #0000ff; stroke: #0000ff; stroke-width: 1.5"/>
     </g>
    </g>
    <g id="text_15">
     <!-- $\alpha = -4, \delta_e = 10$ -->
     <g transform="translate(325.833656 33.078713) scale(0.1 -0.1)">
      <use xlink:href="#DejaVuSans-Oblique-3b1" transform="translate(0 0.78125)"/>
      <use xlink:href="#DejaVuSans-3d" transform="translate(85.400391 0.78125)"/>
      <use xlink:href="#DejaVuSans-2212" transform="translate(208.154297 0.78125)"/>
      <use xlink:href="#DejaVuSans-34" transform="translate(311.425781 0.78125)"/>
      <use xlink:href="#DejaVuSans-2c" transform="translate(375.048828 0.78125)"/>
      <use xlink:href="#DejaVuSans-Oblique-3b4" transform="translate(426.318359 0.78125)"/>
      <use xlink:href="#DejaVuSans-Oblique-65" transform="translate(487.5 -15.625) scale(0.7)"/>
      <use xlink:href="#DejaVuSans-3d" transform="translate(552.783203 0.78125)"/>
      <use xlink:href="#DejaVuSans-31" transform="translate(656.054688 0.78125)"/>
      <use xlink:href="#DejaVuSans-30" transform="translate(719.677734 0.78125)"/>
     </g>
    </g>
    <g id="PathCollection_13">
     <g>
      <use xlink:href="#m518bc19ae0" x="307.833656" y="45.131838" style="fill: #0060ff; stroke: #0060ff; stroke-width: 1.5"/>
     </g>
    </g>
    <g id="text_16">
     <!-- $\alpha = -1, \delta_e = -10$ -->
     <g transform="translate(325.833656 47.756838) scale(0.1 -0.1)">
      <use xlink:href="#DejaVuSans-Oblique-3b1" transform="translate(0 0.78125)"/>
      <use xlink:href="#DejaVuSans-3d" transform="translate(85.400391 0.78125)"/>
      <use xlink:href="#DejaVuSans-2212" transform="translate(208.154297 0.78125)"/>
      <use xlink:href="#DejaVuSans-31" transform="translate(311.425781 0.78125)"/>
      <use xlink:href="#DejaVuSans-2c" transform="translate(375.048828 0.78125)"/>
      <use xlink:href="#DejaVuSans-Oblique-3b4" transform="translate(426.318359 0.78125)"/>
      <use xlink:href="#DejaVuSans-Oblique-65" transform="translate(487.5 -15.625) scale(0.7)"/>
      <use xlink:href="#DejaVuSans-3d" transform="translate(552.783203 0.78125)"/>
      <use xlink:href="#DejaVuSans-2212" transform="translate(675.537109 0.78125)"/>
      <use xlink:href="#DejaVuSans-31" transform="translate(778.808594 0.78125)"/>
      <use xlink:href="#DejaVuSans-30" transform="translate(842.431641 0.78125)"/>
     </g>
    </g>
    <g id="PathCollection_14">
     <g>
      <use xlink:href="#m87fd21273f" x="307.833656" y="59.809963" style="fill: #00d4ff; stroke: #00d4ff; stroke-width: 1.5"/>
     </g>
    </g>
    <g id="text_17">
     <!-- $\alpha = -1, \delta_e = 10$ -->
     <g transform="translate(325.833656 62.434963) scale(0.1 -0.1)">
      <use xlink:href="#DejaVuSans-Oblique-3b1" transform="translate(0 0.78125)"/>
      <use xlink:href="#DejaVuSans-3d" transform="translate(85.400391 0.78125)"/>
      <use xlink:href="#DejaVuSans-2212" transform="translate(208.154297 0.78125)"/>
      <use xlink:href="#DejaVuSans-31" transform="translate(311.425781 0.78125)"/>
      <use xlink:href="#DejaVuSans-2c" transform="translate(375.048828 0.78125)"/>
      <use xlink:href="#DejaVuSans-Oblique-3b4" transform="translate(426.318359 0.78125)"/>
      <use xlink:href="#DejaVuSans-Oblique-65" transform="translate(487.5 -15.625) scale(0.7)"/>
      <use xlink:href="#DejaVuSans-3d" transform="translate(552.783203 0.78125)"/>
      <use xlink:href="#DejaVuSans-31" transform="translate(656.054688 0.78125)"/>
      <use xlink:href="#DejaVuSans-30" transform="translate(719.677734 0.78125)"/>
     </g>
    </g>
    <g id="PathCollection_15">
     <g>
      <use xlink:href="#mc56daf9b2b" x="307.833656" y="74.488088" style="fill: #4dffaa; stroke: #4dffaa; stroke-width: 1.5"/>
     </g>
    </g>
    <g id="text_18">
     <!-- $\alpha = 2, \delta_e = -10$ -->
     <g transform="translate(325.833656 77.113088) scale(0.1 -0.1)">
      <use xlink:href="#DejaVuSans-Oblique-3b1" transform="translate(0 0.78125)"/>
      <use xlink:href="#DejaVuSans-3d" transform="translate(85.400391 0.78125)"/>
      <use xlink:href="#DejaVuSans-32" transform="translate(188.671875 0.78125)"/>
      <use xlink:href="#DejaVuSans-2c" transform="translate(252.294922 0.78125)"/>
      <use xlink:href="#DejaVuSans-Oblique-3b4" transform="translate(303.564453 0.78125)"/>
      <use xlink:href="#DejaVuSans-Oblique-65" transform="translate(364.746094 -15.625) scale(0.7)"/>
      <use xlink:href="#DejaVuSans-3d" transform="translate(430.029297 0.78125)"/>
      <use xlink:href="#DejaVuSans-2212" transform="translate(552.783203 0.78125)"/>
      <use xlink:href="#DejaVuSans-31" transform="translate(656.054688 0.78125)"/>
      <use xlink:href="#DejaVuSans-30" transform="translate(719.677734 0.78125)"/>
     </g>
    </g>
    <g id="PathCollection_16">
     <g>
      <use xlink:href="#m19d3690206" x="307.833656" y="89.166213" style="fill: #aaff4d; stroke: #aaff4d; stroke-width: 1.5"/>
     </g>
    </g>
    <g id="text_19">
     <!-- $\alpha = 2, \delta_e = 10$ -->
     <g transform="translate(325.833656 91.791213) scale(0.1 -0.1)">
      <use xlink:href="#DejaVuSans-Oblique-3b1" transform="translate(0 0.78125)"/>
      <use xlink:href="#DejaVuSans-3d" transform="translate(85.400391 0.78125)"/>
      <use xlink:href="#DejaVuSans-32" transform="translate(188.671875 0.78125)"/>
      <use xlink:href="#DejaVuSans-2c" transform="translate(252.294922 0.78125)"/>
      <use xlink:href="#DejaVuSans-Oblique-3b4" transform="translate(303.564453 0.78125)"/>
      <use xlink:href="#DejaVuSans-Oblique-65" transform="translate(364.746094 -15.625) scale(0.7)"/>
      <use xlink:href="#DejaVuSans-3d" transform="translate(430.029297 0.78125)"/>
      <use xlink:href="#DejaVuSans-31" transform="translate(533.300781 0.78125)"/>
      <use xlink:href="#DejaVuSans-30" transform="translate(596.923828 0.78125)"/>
     </g>
    </g>
    <g id="PathCollection_17">
     <g>
      <use xlink:href="#m0664f3317c" x="307.833656" y="103.844338" style="fill: #ffe600; stroke: #ffe600; stroke-width: 1.5"/>
     </g>
    </g>
    <g id="text_20">
     <!-- $\alpha = 4, \delta_e = -10$ -->
     <g transform="translate(325.833656 106.469338) scale(0.1 -0.1)">
      <use xlink:href="#DejaVuSans-Oblique-3b1" transform="translate(0 0.78125)"/>
      <use xlink:href="#DejaVuSans-3d" transform="translate(85.400391 0.78125)"/>
      <use xlink:href="#DejaVuSans-34" transform="translate(188.671875 0.78125)"/>
      <use xlink:href="#DejaVuSans-2c" transform="translate(252.294922 0.78125)"/>
      <use xlink:href="#DejaVuSans-Oblique-3b4" transform="translate(303.564453 0.78125)"/>
      <use xlink:href="#DejaVuSans-Oblique-65" transform="translate(364.746094 -15.625) scale(0.7)"/>
      <use xlink:href="#DejaVuSans-3d" transform="translate(430.029297 0.78125)"/>
      <use xlink:href="#DejaVuSans-2212" transform="translate(552.783203 0.78125)"/>
      <use xlink:href="#DejaVuSans-31" transform="translate(656.054688 0.78125)"/>
      <use xlink:href="#DejaVuSans-30" transform="translate(719.677734 0.78125)"/>
     </g>
    </g>
    <g id="PathCollection_18">
     <g>
      <use xlink:href="#m28b802a5fe" x="307.833656" y="118.522463" style="fill: #ff7a00; stroke: #ff7a00; stroke-width: 1.5"/>
     </g>
    </g>
    <g id="text_21">
     <!-- $\alpha = 4, \delta_e = 10$ -->
     <g transform="translate(325.833656 121.147463) scale(0.1 -0.1)">
      <use xlink:href="#DejaVuSans-Oblique-3b1" transform="translate(0 0.78125)"/>
      <use xlink:href="#DejaVuSans-3d" transform="translate(85.400391 0.78125)"/>
      <use xlink:href="#DejaVuSans-34" transform="translate(188.671875 0.78125)"/>
      <use xlink:href="#DejaVuSans-2c" transform="translate(252.294922 0.78125)"/>
      <use xlink:href="#DejaVuSans-Oblique-3b4" transform="translate(303.564453 0.78125)"/>
      <use xlink:href="#DejaVuSans-Oblique-65" transform="translate(364.746094 -15.625) scale(0.7)"/>
      <use xlink:href="#DejaVuSans-3d" transform="translate(430.029297 0.78125)"/>
      <use xlink:href="#DejaVuSans-31" transform="translate(533.300781 0.78125)"/>
      <use xlink:href="#DejaVuSans-30" transform="translate(596.923828 0.78125)"/>
     </g>
    </g>
    <g id="PathCollection_19">
     <g>
      <use xlink:href="#m7de83cd9fc" x="307.833656" y="133.200587" style="fill: #ff1300; stroke: #ff1300; stroke-width: 1.5"/>
     </g>
    </g>
    <g id="text_22">
     <!-- $\alpha = 7, \delta_e = -10$ -->
     <g transform="translate(325.833656 135.825587) scale(0.1 -0.1)">
      <defs>
       <path id="DejaVuSans-37" d="M 525 4666 
L 3525 4666 
L 3525 4397 
L 1831 0 
L 1172 0 
L 2766 4134 
L 525 4134 
L 525 4666 
z
" transform="scale(0.015625)"/>
      </defs>
      <use xlink:href="#DejaVuSans-Oblique-3b1" transform="translate(0 0.78125)"/>
      <use xlink:href="#DejaVuSans-3d" transform="translate(85.400391 0.78125)"/>
      <use xlink:href="#DejaVuSans-37" transform="translate(188.671875 0.78125)"/>
      <use xlink:href="#DejaVuSans-2c" transform="translate(252.294922 0.78125)"/>
      <use xlink:href="#DejaVuSans-Oblique-3b4" transform="translate(303.564453 0.78125)"/>
      <use xlink:href="#DejaVuSans-Oblique-65" transform="translate(364.746094 -15.625) scale(0.7)"/>
      <use xlink:href="#DejaVuSans-3d" transform="translate(430.029297 0.78125)"/>
      <use xlink:href="#DejaVuSans-2212" transform="translate(552.783203 0.78125)"/>
      <use xlink:href="#DejaVuSans-31" transform="translate(656.054688 0.78125)"/>
      <use xlink:href="#DejaVuSans-30" transform="translate(719.677734 0.78125)"/>
     </g>
    </g>
    <g id="PathCollection_20">
     <g>
      <use xlink:href="#m4315cafc0c" x="307.833656" y="147.878712" style="fill: #800000; stroke: #800000; stroke-width: 1.5"/>
     </g>
    </g>
    <g id="text_23">
     <!-- $\alpha = 7, \delta_e = 10$ -->
     <g transform="translate(325.833656 150.503712) scale(0.1 -0.1)">
      <use xlink:href="#DejaVuSans-Oblique-3b1" transform="translate(0 0.78125)"/>
      <use xlink:href="#DejaVuSans-3d" transform="translate(85.400391 0.78125)"/>
      <use xlink:href="#DejaVuSans-37" transform="translate(188.671875 0.78125)"/>
      <use xlink:href="#DejaVuSans-2c" transform="translate(252.294922 0.78125)"/>
      <use xlink:href="#DejaVuSans-Oblique-3b4" transform="translate(303.564453 0.78125)"/>
      <use xlink:href="#DejaVuSans-Oblique-65" transform="translate(364.746094 -15.625) scale(0.7)"/>
      <use xlink:href="#DejaVuSans-3d" transform="translate(430.029297 0.78125)"/>
      <use xlink:href="#DejaVuSans-31" transform="translate(533.300781 0.78125)"/>
      <use xlink:href="#DejaVuSans-30" transform="translate(596.923828 0.78125)"/>
     </g>
    </g>
   </g>
  </g>
 </g>
 <defs>
  <clipPath id="pa942d7a64a">
   <rect x="71.408" y="28.876" width="217.425656" height="139.692"/>
  </clipPath>
 </defs>
</svg>
