<?xml version="1.0" encoding="utf-8" standalone="no"?>
<!DOCTYPE svg PUBLIC "-//W3C//DTD SVG 1.1//EN"
  "http://www.w3.org/Graphics/SVG/1.1/DTD/svg11.dtd">
<svg xmlns:xlink="http://www.w3.org/1999/xlink" width="288pt" height="216pt" viewBox="0 0 288 216" xmlns="http://www.w3.org/2000/svg" version="1.1">
 <metadata>
  <rdf:RDF xmlns:dc="http://purl.org/dc/elements/1.1/" xmlns:cc="http://creativecommons.org/ns#" xmlns:rdf="http://www.w3.org/1999/02/22-rdf-syntax-ns#">
   <cc:Work>
    <dc:type rdf:resource="http://purl.org/dc/dcmitype/StillImage"/>
    <dc:date>2025-03-27T14:27:55.020802</dc:date>
    <dc:format>image/svg+xml</dc:format>
    <dc:creator>
     <cc:Agent>
      <dc:title>Matplotlib v3.9.2, https://matplotlib.org/</dc:title>
     </cc:Agent>
    </dc:creator>
   </cc:Work>
  </rdf:RDF>
 </metadata>
 <defs>
  <style type="text/css">*{stroke-linejoin: round; stroke-linecap: butt}</style>
 </defs>
 <g id="figure_1">
  <g id="patch_1">
   <path d="M 0 216 
L 288 216 
L 288 0 
L 0 0 
z
" style="fill: #ffffff"/>
  </g>
  <g id="axes_1">
   <g id="patch_2">
    <path d="M 71.84 174.04 
L 277.2 174.04 
L 277.2 10.8 
L 71.84 10.8 
z
" style="fill: #ffffff"/>
   </g>
   <g id="matplotlib.axis_1">
    <g id="xtick_1">
     <g id="line2d_1">
      <path d="M 106.632397 174.04 
L 106.632397 10.8 
" clip-path="url(#p0e89756220)" style="fill: none; stroke: #b0b0b0; stroke-width: 0.8; stroke-linecap: square"/>
     </g>
     <g id="line2d_2">
      <defs>
       <path id="m923590a272" d="M 0 0 
L 0 3.5 
" style="stroke: #000000; stroke-width: 0.8"/>
      </defs>
      <g>
       <use xlink:href="#m923590a272" x="106.632397" y="174.04" style="stroke: #000000; stroke-width: 0.8"/>
      </g>
     </g>
     <g id="text_1">
      <!-- −2.5 -->
      <g transform="translate(94.49099 188.638438) scale(0.1 -0.1)">
       <defs>
        <path id="DejaVuSans-2212" d="M 678 2272 
L 4684 2272 
L 4684 1741 
L 678 1741 
L 678 2272 
z
" transform="scale(0.015625)"/>
        <path id="DejaVuSans-32" d="M 1228 531 
L 3431 531 
L 3431 0 
L 469 0 
L 469 531 
Q 828 903 1448 1529 
Q 2069 2156 2228 2338 
Q 2531 2678 2651 2914 
Q 2772 3150 2772 3378 
Q 2772 3750 2511 3984 
Q 2250 4219 1831 4219 
Q 1534 4219 1204 4116 
Q 875 4013 500 3803 
L 500 4441 
Q 881 4594 1212 4672 
Q 1544 4750 1819 4750 
Q 2544 4750 2975 4387 
Q 3406 4025 3406 3419 
Q 3406 3131 3298 2873 
Q 3191 2616 2906 2266 
Q 2828 2175 2409 1742 
Q 1991 1309 1228 531 
z
" transform="scale(0.015625)"/>
        <path id="DejaVuSans-2e" d="M 684 794 
L 1344 794 
L 1344 0 
L 684 0 
L 684 794 
z
" transform="scale(0.015625)"/>
        <path id="DejaVuSans-35" d="M 691 4666 
L 3169 4666 
L 3169 4134 
L 1269 4134 
L 1269 2991 
Q 1406 3038 1543 3061 
Q 1681 3084 1819 3084 
Q 2600 3084 3056 2656 
Q 3513 2228 3513 1497 
Q 3513 744 3044 326 
Q 2575 -91 1722 -91 
Q 1428 -91 1123 -41 
Q 819 9 494 109 
L 494 744 
Q 775 591 1075 516 
Q 1375 441 1709 441 
Q 2250 441 2565 725 
Q 2881 1009 2881 1497 
Q 2881 1984 2565 2268 
Q 2250 2553 1709 2553 
Q 1456 2553 1204 2497 
Q 953 2441 691 2322 
L 691 4666 
z
" transform="scale(0.015625)"/>
       </defs>
       <use xlink:href="#DejaVuSans-2212"/>
       <use xlink:href="#DejaVuSans-32" x="83.789062"/>
       <use xlink:href="#DejaVuSans-2e" x="147.412109"/>
       <use xlink:href="#DejaVuSans-35" x="179.199219"/>
      </g>
     </g>
    </g>
    <g id="xtick_2">
     <g id="line2d_3">
      <path d="M 149.062149 174.04 
L 149.062149 10.8 
" clip-path="url(#p0e89756220)" style="fill: none; stroke: #b0b0b0; stroke-width: 0.8; stroke-linecap: square"/>
     </g>
     <g id="line2d_4">
      <g>
       <use xlink:href="#m923590a272" x="149.062149" y="174.04" style="stroke: #000000; stroke-width: 0.8"/>
      </g>
     </g>
     <g id="text_2">
      <!-- 0.0 -->
      <g transform="translate(141.110586 188.638438) scale(0.1 -0.1)">
       <defs>
        <path id="DejaVuSans-30" d="M 2034 4250 
Q 1547 4250 1301 3770 
Q 1056 3291 1056 2328 
Q 1056 1369 1301 889 
Q 1547 409 2034 409 
Q 2525 409 2770 889 
Q 3016 1369 3016 2328 
Q 3016 3291 2770 3770 
Q 2525 4250 2034 4250 
z
M 2034 4750 
Q 2819 4750 3233 4129 
Q 3647 3509 3647 2328 
Q 3647 1150 3233 529 
Q 2819 -91 2034 -91 
Q 1250 -91 836 529 
Q 422 1150 422 2328 
Q 422 3509 836 4129 
Q 1250 4750 2034 4750 
z
" transform="scale(0.015625)"/>
       </defs>
       <use xlink:href="#DejaVuSans-30"/>
       <use xlink:href="#DejaVuSans-2e" x="63.623047"/>
       <use xlink:href="#DejaVuSans-30" x="95.410156"/>
      </g>
     </g>
    </g>
    <g id="xtick_3">
     <g id="line2d_5">
      <path d="M 191.491901 174.04 
L 191.491901 10.8 
" clip-path="url(#p0e89756220)" style="fill: none; stroke: #b0b0b0; stroke-width: 0.8; stroke-linecap: square"/>
     </g>
     <g id="line2d_6">
      <g>
       <use xlink:href="#m923590a272" x="191.491901" y="174.04" style="stroke: #000000; stroke-width: 0.8"/>
      </g>
     </g>
     <g id="text_3">
      <!-- 2.5 -->
      <g transform="translate(183.540338 188.638438) scale(0.1 -0.1)">
       <use xlink:href="#DejaVuSans-32"/>
       <use xlink:href="#DejaVuSans-2e" x="63.623047"/>
       <use xlink:href="#DejaVuSans-35" x="95.410156"/>
      </g>
     </g>
    </g>
    <g id="xtick_4">
     <g id="line2d_7">
      <path d="M 233.921653 174.04 
L 233.921653 10.8 
" clip-path="url(#p0e89756220)" style="fill: none; stroke: #b0b0b0; stroke-width: 0.8; stroke-linecap: square"/>
     </g>
     <g id="line2d_8">
      <g>
       <use xlink:href="#m923590a272" x="233.921653" y="174.04" style="stroke: #000000; stroke-width: 0.8"/>
      </g>
     </g>
     <g id="text_4">
      <!-- 5.0 -->
      <g transform="translate(225.97009 188.638438) scale(0.1 -0.1)">
       <use xlink:href="#DejaVuSans-35"/>
       <use xlink:href="#DejaVuSans-2e" x="63.623047"/>
       <use xlink:href="#DejaVuSans-30" x="95.410156"/>
      </g>
     </g>
    </g>
    <g id="xtick_5">
     <g id="line2d_9">
      <path d="M 276.351405 174.04 
L 276.351405 10.8 
" clip-path="url(#p0e89756220)" style="fill: none; stroke: #b0b0b0; stroke-width: 0.8; stroke-linecap: square"/>
     </g>
     <g id="line2d_10">
      <g>
       <use xlink:href="#m923590a272" x="276.351405" y="174.04" style="stroke: #000000; stroke-width: 0.8"/>
      </g>
     </g>
     <g id="text_5">
      <!-- 7.5 -->
      <g transform="translate(268.399842 188.638438) scale(0.1 -0.1)">
       <defs>
        <path id="DejaVuSans-37" d="M 525 4666 
L 3525 4666 
L 3525 4397 
L 1831 0 
L 1172 0 
L 2766 4134 
L 525 4134 
L 525 4666 
z
" transform="scale(0.015625)"/>
       </defs>
       <use xlink:href="#DejaVuSans-37"/>
       <use xlink:href="#DejaVuSans-2e" x="63.623047"/>
       <use xlink:href="#DejaVuSans-35" x="95.410156"/>
      </g>
     </g>
    </g>
    <g id="text_6">
     <!-- $\alpha$ -->
     <g transform="translate(171.22 202.316563) scale(0.1 -0.1)">
      <defs>
       <path id="DejaVuSans-Oblique-3b1" d="M 2619 1628 
L 2622 2350 
Q 2625 3088 2069 3091 
Q 1653 3094 1394 2747 
Q 1069 2319 959 1747 
Q 825 1059 994 731 
Q 1169 397 1547 397 
Q 1966 397 2319 1063 
L 2619 1628 
z
M 2166 3578 
Q 3141 3594 3128 2584 
Q 3128 2584 3616 3500 
L 4128 3500 
L 3119 1603 
L 3109 919 
Q 3109 766 3194 638 
Q 3291 488 3391 488 
L 3669 488 
L 3575 0 
L 3228 0 
Q 2934 0 2722 263 
Q 2622 394 2619 669 
Q 2416 334 2066 50 
Q 1900 -81 1453 -78 
Q 722 -72 456 397 
Q 184 884 353 1747 
Q 534 2675 1009 3097 
Q 1544 3569 2166 3578 
z
" transform="scale(0.015625)"/>
      </defs>
      <use xlink:href="#DejaVuSans-Oblique-3b1" transform="translate(0 0.84375)"/>
     </g>
    </g>
   </g>
   <g id="matplotlib.axis_2">
    <g id="ytick_1">
     <g id="line2d_11">
      <path d="M 71.84 152.145898 
L 277.2 152.145898 
" clip-path="url(#p0e89756220)" style="fill: none; stroke: #b0b0b0; stroke-width: 0.8; stroke-linecap: square"/>
     </g>
     <g id="line2d_12">
      <defs>
       <path id="m7867f305f6" d="M 0 0 
L -3.5 0 
" style="stroke: #000000; stroke-width: 0.8"/>
      </defs>
      <g>
       <use xlink:href="#m7867f305f6" x="71.84" y="152.145898" style="stroke: #000000; stroke-width: 0.8"/>
      </g>
     </g>
     <g id="text_7">
      <!-- −0.055 -->
      <g transform="translate(27.832188 155.945117) scale(0.1 -0.1)">
       <use xlink:href="#DejaVuSans-2212"/>
       <use xlink:href="#DejaVuSans-30" x="83.789062"/>
       <use xlink:href="#DejaVuSans-2e" x="147.412109"/>
       <use xlink:href="#DejaVuSans-30" x="179.199219"/>
       <use xlink:href="#DejaVuSans-35" x="242.822266"/>
       <use xlink:href="#DejaVuSans-35" x="306.445312"/>
      </g>
     </g>
    </g>
    <g id="ytick_2">
     <g id="line2d_13">
      <path d="M 71.84 115.167403 
L 277.2 115.167403 
" clip-path="url(#p0e89756220)" style="fill: none; stroke: #b0b0b0; stroke-width: 0.8; stroke-linecap: square"/>
     </g>
     <g id="line2d_14">
      <g>
       <use xlink:href="#m7867f305f6" x="71.84" y="115.167403" style="stroke: #000000; stroke-width: 0.8"/>
      </g>
     </g>
     <g id="text_8">
      <!-- −0.050 -->
      <g transform="translate(27.832188 118.966622) scale(0.1 -0.1)">
       <use xlink:href="#DejaVuSans-2212"/>
       <use xlink:href="#DejaVuSans-30" x="83.789062"/>
       <use xlink:href="#DejaVuSans-2e" x="147.412109"/>
       <use xlink:href="#DejaVuSans-30" x="179.199219"/>
       <use xlink:href="#DejaVuSans-35" x="242.822266"/>
       <use xlink:href="#DejaVuSans-30" x="306.445312"/>
      </g>
     </g>
    </g>
    <g id="ytick_3">
     <g id="line2d_15">
      <path d="M 71.84 78.188908 
L 277.2 78.188908 
" clip-path="url(#p0e89756220)" style="fill: none; stroke: #b0b0b0; stroke-width: 0.8; stroke-linecap: square"/>
     </g>
     <g id="line2d_16">
      <g>
       <use xlink:href="#m7867f305f6" x="71.84" y="78.188908" style="stroke: #000000; stroke-width: 0.8"/>
      </g>
     </g>
     <g id="text_9">
      <!-- −0.045 -->
      <g transform="translate(27.832188 81.988127) scale(0.1 -0.1)">
       <defs>
        <path id="DejaVuSans-34" d="M 2419 4116 
L 825 1625 
L 2419 1625 
L 2419 4116 
z
M 2253 4666 
L 3047 4666 
L 3047 1625 
L 3713 1625 
L 3713 1100 
L 3047 1100 
L 3047 0 
L 2419 0 
L 2419 1100 
L 313 1100 
L 313 1709 
L 2253 4666 
z
" transform="scale(0.015625)"/>
       </defs>
       <use xlink:href="#DejaVuSans-2212"/>
       <use xlink:href="#DejaVuSans-30" x="83.789062"/>
       <use xlink:href="#DejaVuSans-2e" x="147.412109"/>
       <use xlink:href="#DejaVuSans-30" x="179.199219"/>
       <use xlink:href="#DejaVuSans-34" x="242.822266"/>
       <use xlink:href="#DejaVuSans-35" x="306.445312"/>
      </g>
     </g>
    </g>
    <g id="ytick_4">
     <g id="line2d_17">
      <path d="M 71.84 41.210413 
L 277.2 41.210413 
" clip-path="url(#p0e89756220)" style="fill: none; stroke: #b0b0b0; stroke-width: 0.8; stroke-linecap: square"/>
     </g>
     <g id="line2d_18">
      <g>
       <use xlink:href="#m7867f305f6" x="71.84" y="41.210413" style="stroke: #000000; stroke-width: 0.8"/>
      </g>
     </g>
     <g id="text_10">
      <!-- −0.040 -->
      <g transform="translate(27.832188 45.009632) scale(0.1 -0.1)">
       <use xlink:href="#DejaVuSans-2212"/>
       <use xlink:href="#DejaVuSans-30" x="83.789062"/>
       <use xlink:href="#DejaVuSans-2e" x="147.412109"/>
       <use xlink:href="#DejaVuSans-30" x="179.199219"/>
       <use xlink:href="#DejaVuSans-34" x="242.822266"/>
       <use xlink:href="#DejaVuSans-30" x="306.445312"/>
      </g>
     </g>
    </g>
    <g id="text_11">
     <!-- $dCMpitch_cor2/dalpha$ -->
     <g transform="translate(21.732188 144.92) rotate(-90) scale(0.1 -0.1)">
      <defs>
       <path id="DejaVuSans-Oblique-64" d="M 2675 525 
Q 2444 222 2128 65 
Q 1813 -91 1428 -91 
Q 903 -91 598 267 
Q 294 625 294 1247 
Q 294 1766 478 2236 
Q 663 2706 1013 3078 
Q 1244 3325 1534 3454 
Q 1825 3584 2144 3584 
Q 2481 3584 2739 3421 
Q 2997 3259 3138 2956 
L 3513 4863 
L 4091 4863 
L 3144 0 
L 2566 0 
L 2675 525 
z
M 891 1350 
Q 891 897 1095 644 
Q 1300 391 1663 391 
Q 1931 391 2161 520 
Q 2391 650 2566 903 
Q 2750 1166 2856 1509 
Q 2963 1853 2963 2188 
Q 2963 2622 2758 2865 
Q 2553 3109 2194 3109 
Q 1922 3109 1687 2981 
Q 1453 2853 1288 2613 
Q 1106 2353 998 2009 
Q 891 1666 891 1350 
z
" transform="scale(0.015625)"/>
       <path id="DejaVuSans-Oblique-43" d="M 4447 4306 
L 4319 3641 
Q 4019 3944 3683 4091 
Q 3347 4238 2956 4238 
Q 2422 4238 2017 3981 
Q 1613 3725 1319 3200 
Q 1131 2863 1032 2486 
Q 934 2109 934 1728 
Q 934 1091 1264 756 
Q 1594 422 2222 422 
Q 2656 422 3056 561 
Q 3456 700 3834 978 
L 3688 231 
Q 3316 72 2936 -9 
Q 2556 -91 2175 -91 
Q 1278 -91 773 396 
Q 269 884 269 1753 
Q 269 2309 461 2846 
Q 653 3384 1013 3828 
Q 1394 4300 1883 4525 
Q 2372 4750 3022 4750 
Q 3422 4750 3780 4639 
Q 4138 4528 4447 4306 
z
" transform="scale(0.015625)"/>
       <path id="DejaVuSans-Oblique-4d" d="M 1081 4666 
L 2028 4666 
L 2572 1522 
L 4378 4666 
L 5350 4666 
L 4441 0 
L 3828 0 
L 4622 4091 
L 2791 897 
L 2175 897 
L 1581 4103 
L 788 0 
L 172 0 
L 1081 4666 
z
" transform="scale(0.015625)"/>
       <path id="DejaVuSans-Oblique-70" d="M 3175 2156 
Q 3175 2616 2975 2859 
Q 2775 3103 2400 3103 
Q 2144 3103 1911 2972 
Q 1678 2841 1497 2591 
Q 1319 2344 1212 1994 
Q 1106 1644 1106 1300 
Q 1106 863 1306 627 
Q 1506 391 1875 391 
Q 2147 391 2380 519 
Q 2613 647 2778 891 
Q 2956 1147 3065 1494 
Q 3175 1841 3175 2156 
z
M 1394 2969 
Q 1625 3272 1939 3428 
Q 2253 3584 2638 3584 
Q 3175 3584 3472 3232 
Q 3769 2881 3769 2247 
Q 3769 1728 3584 1258 
Q 3400 788 3053 416 
Q 2822 169 2531 39 
Q 2241 -91 1919 -91 
Q 1547 -91 1294 64 
Q 1041 219 916 525 
L 556 -1331 
L -19 -1331 
L 922 3500 
L 1497 3500 
L 1394 2969 
z
" transform="scale(0.015625)"/>
       <path id="DejaVuSans-Oblique-69" d="M 1172 4863 
L 1747 4863 
L 1606 4134 
L 1031 4134 
L 1172 4863 
z
M 909 3500 
L 1484 3500 
L 800 0 
L 225 0 
L 909 3500 
z
" transform="scale(0.015625)"/>
       <path id="DejaVuSans-Oblique-74" d="M 2706 3500 
L 2619 3053 
L 1472 3053 
L 1100 1153 
Q 1081 1047 1072 975 
Q 1063 903 1063 863 
Q 1063 663 1183 572 
Q 1303 481 1569 481 
L 2150 481 
L 2053 0 
L 1503 0 
Q 991 0 739 200 
Q 488 400 488 806 
Q 488 878 497 964 
Q 506 1050 525 1153 
L 897 3053 
L 409 3053 
L 500 3500 
L 978 3500 
L 1172 4494 
L 1747 4494 
L 1556 3500 
L 2706 3500 
z
" transform="scale(0.015625)"/>
       <path id="DejaVuSans-Oblique-63" d="M 3431 3366 
L 3316 2797 
Q 3109 2947 2876 3022 
Q 2644 3097 2394 3097 
Q 2119 3097 1870 3000 
Q 1622 2903 1453 2725 
Q 1184 2453 1037 2087 
Q 891 1722 891 1331 
Q 891 859 1127 628 
Q 1363 397 1844 397 
Q 2081 397 2348 469 
Q 2616 541 2906 684 
L 2797 116 
Q 2547 13 2283 -39 
Q 2019 -91 1741 -91 
Q 1044 -91 669 257 
Q 294 606 294 1253 
Q 294 1797 489 2255 
Q 684 2713 1069 3078 
Q 1331 3328 1684 3456 
Q 2038 3584 2456 3584 
Q 2700 3584 2940 3529 
Q 3181 3475 3431 3366 
z
" transform="scale(0.015625)"/>
       <path id="DejaVuSans-Oblique-68" d="M 3566 2113 
L 3156 0 
L 2578 0 
L 2988 2091 
Q 3016 2238 3031 2350 
Q 3047 2463 3047 2528 
Q 3047 2791 2881 2937 
Q 2716 3084 2419 3084 
Q 1956 3084 1617 2771 
Q 1278 2459 1178 1941 
L 800 0 
L 225 0 
L 1172 4863 
L 1747 4863 
L 1375 2950 
Q 1594 3244 1934 3414 
Q 2275 3584 2650 3584 
Q 3113 3584 3367 3334 
Q 3622 3084 3622 2631 
Q 3622 2519 3608 2391 
Q 3594 2263 3566 2113 
z
" transform="scale(0.015625)"/>
       <path id="DejaVuSans-Oblique-6f" d="M 1625 -91 
Q 1009 -91 651 289 
Q 294 669 294 1325 
Q 294 1706 417 2101 
Q 541 2497 738 2766 
Q 1047 3184 1428 3384 
Q 1809 3584 2291 3584 
Q 2888 3584 3255 3212 
Q 3622 2841 3622 2241 
Q 3622 1825 3500 1412 
Q 3378 1000 3181 728 
Q 2875 309 2494 109 
Q 2113 -91 1625 -91 
z
M 891 1344 
Q 891 869 1089 633 
Q 1288 397 1691 397 
Q 2269 397 2648 901 
Q 3028 1406 3028 2181 
Q 3028 2634 2825 2865 
Q 2622 3097 2228 3097 
Q 1903 3097 1650 2945 
Q 1397 2794 1197 2484 
Q 1050 2253 970 1956 
Q 891 1659 891 1344 
z
" transform="scale(0.015625)"/>
       <path id="DejaVuSans-Oblique-72" d="M 2853 2969 
Q 2766 3016 2653 3041 
Q 2541 3066 2413 3066 
Q 1953 3066 1609 2717 
Q 1266 2369 1153 1784 
L 800 0 
L 225 0 
L 909 3500 
L 1484 3500 
L 1375 2956 
Q 1603 3259 1920 3421 
Q 2238 3584 2597 3584 
Q 2691 3584 2781 3573 
Q 2872 3563 2963 3538 
L 2853 2969 
z
" transform="scale(0.015625)"/>
       <path id="DejaVuSans-2f" d="M 1625 4666 
L 2156 4666 
L 531 -594 
L 0 -594 
L 1625 4666 
z
" transform="scale(0.015625)"/>
       <path id="DejaVuSans-Oblique-61" d="M 3438 1997 
L 3047 0 
L 2472 0 
L 2578 531 
Q 2325 219 2001 64 
Q 1678 -91 1281 -91 
Q 834 -91 548 182 
Q 263 456 263 884 
Q 263 1497 752 1853 
Q 1241 2209 2100 2209 
L 2900 2209 
L 2931 2363 
Q 2938 2388 2941 2417 
Q 2944 2447 2944 2509 
Q 2944 2788 2717 2942 
Q 2491 3097 2081 3097 
Q 1800 3097 1504 3025 
Q 1209 2953 897 2809 
L 997 3341 
Q 1322 3463 1633 3523 
Q 1944 3584 2234 3584 
Q 2853 3584 3176 3315 
Q 3500 3047 3500 2534 
Q 3500 2431 3484 2292 
Q 3469 2153 3438 1997 
z
M 2816 1759 
L 2241 1759 
Q 1534 1759 1195 1570 
Q 856 1381 856 984 
Q 856 709 1029 553 
Q 1203 397 1509 397 
Q 1978 397 2328 733 
Q 2678 1069 2791 1631 
L 2816 1759 
z
" transform="scale(0.015625)"/>
       <path id="DejaVuSans-Oblique-6c" d="M 1172 4863 
L 1747 4863 
L 800 0 
L 225 0 
L 1172 4863 
z
" transform="scale(0.015625)"/>
      </defs>
      <use xlink:href="#DejaVuSans-Oblique-64" transform="translate(0 0.015625)"/>
      <use xlink:href="#DejaVuSans-Oblique-43" transform="translate(63.476562 0.015625)"/>
      <use xlink:href="#DejaVuSans-Oblique-4d" transform="translate(133.300781 0.015625)"/>
      <use xlink:href="#DejaVuSans-Oblique-70" transform="translate(219.580078 0.015625)"/>
      <use xlink:href="#DejaVuSans-Oblique-69" transform="translate(283.056641 0.015625)"/>
      <use xlink:href="#DejaVuSans-Oblique-74" transform="translate(310.839844 0.015625)"/>
      <use xlink:href="#DejaVuSans-Oblique-63" transform="translate(350.048828 0.015625)"/>
      <use xlink:href="#DejaVuSans-Oblique-68" transform="translate(405.029297 0.015625)"/>
      <use xlink:href="#DejaVuSans-Oblique-63" transform="translate(468.408203 -16.390625) scale(0.7)"/>
      <use xlink:href="#DejaVuSans-Oblique-6f" transform="translate(509.628906 0.015625)"/>
      <use xlink:href="#DejaVuSans-Oblique-72" transform="translate(570.810547 0.015625)"/>
      <use xlink:href="#DejaVuSans-32" transform="translate(611.923828 0.015625)"/>
      <use xlink:href="#DejaVuSans-2f" transform="translate(675.546875 0.015625)"/>
      <use xlink:href="#DejaVuSans-Oblique-64" transform="translate(709.238281 0.015625)"/>
      <use xlink:href="#DejaVuSans-Oblique-61" transform="translate(772.714844 0.015625)"/>
      <use xlink:href="#DejaVuSans-Oblique-6c" transform="translate(833.994141 0.015625)"/>
      <use xlink:href="#DejaVuSans-Oblique-70" transform="translate(861.777344 0.015625)"/>
      <use xlink:href="#DejaVuSans-Oblique-68" transform="translate(925.253906 0.015625)"/>
      <use xlink:href="#DejaVuSans-Oblique-61" transform="translate(988.632812 0.015625)"/>
     </g>
    </g>
   </g>
   <g id="line2d_19">
    <path d="M 81.174545 96.189388 
L 83.060312 93.255897 
L 84.946079 90.396793 
L 86.831846 87.612074 
L 88.717612 84.901742 
L 90.603379 82.265795 
L 92.489146 79.704234 
L 94.374913 77.21706 
L 96.26068 74.804271 
L 98.146446 72.465868 
L 100.032213 70.201851 
L 101.91798 68.01222 
L 103.803747 65.896974 
L 105.689513 63.856115 
L 107.57528 61.889642 
L 109.461047 59.997555 
L 111.346814 58.179853 
L 113.23258 56.436538 
L 115.118347 54.767608 
L 117.004114 53.173064 
L 118.889881 51.652907 
L 120.775647 50.207135 
L 122.661414 48.835749 
L 124.547181 47.538749 
L 126.432948 46.316135 
L 128.318714 45.167907 
L 130.204481 44.094065 
L 132.090248 43.094609 
L 133.976015 42.169539 
L 135.861781 41.318855 
L 137.747548 40.542556 
L 139.633315 39.840644 
L 141.519082 39.213117 
L 143.404848 38.659977 
L 145.290615 38.181222 
L 147.176382 37.776854 
L 149.062149 37.446871 
L 150.947916 37.191274 
L 152.833682 37.010063 
L 154.719449 36.903238 
L 156.605216 36.870799 
L 158.490983 36.912746 
L 160.376749 37.029079 
L 162.262516 37.219798 
L 164.148283 37.484902 
L 166.03405 37.824393 
L 167.919816 38.23827 
L 169.805583 38.726532 
L 171.69135 39.289181 
L 173.577117 39.926215 
L 175.462883 40.637635 
L 177.34865 41.423442 
L 179.234417 42.283634 
L 181.120184 43.218212 
L 183.00595 44.227176 
L 184.891717 45.310526 
L 186.777484 46.468262 
L 188.663251 47.700384 
L 190.549017 49.006892 
L 192.434784 50.387785 
L 194.320551 51.843065 
L 196.206318 53.372731 
L 198.092084 54.976782 
L 199.977851 56.65522 
L 201.863618 58.408043 
L 203.749385 60.235252 
L 205.635152 62.136848 
L 207.520918 64.112829 
L 209.406685 66.163196 
L 211.292452 68.287949 
L 213.178219 70.487088 
L 215.063985 72.760613 
L 216.949752 75.108524 
L 218.835519 77.530821 
L 220.721286 80.027503 
L 222.607052 82.598572 
L 224.492819 85.244027 
L 226.378586 87.963867 
L 228.264353 90.758094 
L 230.150119 93.626706 
L 232.035886 96.569704 
L 233.921653 99.587089 
L 235.80742 102.678859 
L 237.693186 105.845015 
L 239.578953 109.085557 
L 241.46472 112.400485 
L 243.350487 115.789799 
L 245.236253 119.253499 
L 247.12202 122.791585 
L 249.007787 126.404056 
L 250.893554 130.090914 
L 252.77932 133.852158 
L 254.665087 137.687787 
L 256.550854 141.597803 
L 258.436621 145.582204 
L 260.322388 149.640991 
L 262.208154 153.774165 
L 264.093921 157.981724 
L 265.979688 162.263669 
L 267.865455 166.62 
" clip-path="url(#p0e89756220)" style="fill: none; stroke: #000080; stroke-width: 1.5; stroke-linecap: square"/>
   </g>
   <g id="line2d_20">
    <path d="M 81.174545 114.33668 
L 83.060312 110.826961 
L 84.946079 107.391629 
L 86.831846 104.030682 
L 88.717612 100.744121 
L 90.603379 97.531946 
L 92.489146 94.394157 
L 94.374913 91.330754 
L 96.26068 88.341737 
L 98.146446 85.427105 
L 100.032213 82.58686 
L 101.91798 79.821001 
L 103.803747 77.129527 
L 105.689513 74.51244 
L 107.57528 71.969738 
L 109.461047 69.501423 
L 111.346814 67.107493 
L 113.23258 64.787949 
L 115.118347 62.542791 
L 117.004114 60.372019 
L 118.889881 58.275633 
L 120.775647 56.253633 
L 122.661414 54.306019 
L 124.547181 52.432791 
L 126.432948 50.633949 
L 128.318714 48.909493 
L 130.204481 47.259422 
L 132.090248 45.683738 
L 133.976015 44.182439 
L 135.861781 42.755527 
L 137.747548 41.403 
L 139.633315 40.124859 
L 141.519082 38.921105 
L 143.404848 37.791736 
L 145.290615 36.736753 
L 147.176382 35.756156 
L 149.062149 34.849945 
L 150.947916 34.01812 
L 152.833682 33.260681 
L 154.719449 32.577628 
L 156.605216 31.96896 
L 158.490983 31.434679 
L 160.376749 30.974784 
L 162.262516 30.589274 
L 164.148283 30.27815 
L 166.03405 30.041413 
L 167.919816 29.879061 
L 169.805583 29.791095 
L 171.69135 29.777516 
L 173.577117 29.838322 
L 175.462883 29.973514 
L 177.34865 30.183092 
L 179.234417 30.467056 
L 181.120184 30.825406 
L 183.00595 31.258141 
L 184.891717 31.765263 
L 186.777484 32.346771 
L 188.663251 33.002664 
L 190.549017 33.732944 
L 192.434784 34.537609 
L 194.320551 35.416661 
L 196.206318 36.370098 
L 198.092084 37.397921 
L 199.977851 38.50013 
L 201.863618 39.676725 
L 203.749385 40.927707 
L 205.635152 42.253074 
L 207.520918 43.652826 
L 209.406685 45.126965 
L 211.292452 46.67549 
L 213.178219 48.298401 
L 215.063985 49.995697 
L 216.949752 51.76738 
L 218.835519 53.613449 
L 220.721286 55.533903 
L 222.607052 57.528743 
L 224.492819 59.59797 
L 226.378586 61.741582 
L 228.264353 63.95958 
L 230.150119 66.251964 
L 232.035886 68.618734 
L 233.921653 71.05989 
L 235.80742 73.575432 
L 237.693186 76.16536 
L 239.578953 78.829674 
L 241.46472 81.568374 
L 243.350487 84.381459 
L 245.236253 87.268931 
L 247.12202 90.230788 
L 249.007787 93.267032 
L 250.893554 96.377661 
L 252.77932 99.562677 
L 254.665087 102.822078 
L 256.550854 106.155865 
L 258.436621 109.564038 
L 260.322388 113.046597 
L 262.208154 116.603542 
L 264.093921 120.234873 
L 265.979688 123.94059 
L 267.865455 127.720693 
" clip-path="url(#p0e89756220)" style="fill: none; stroke: #7dff7a; stroke-width: 1.5; stroke-linecap: square"/>
   </g>
   <g id="line2d_21">
    <path d="M 81.174545 132.483972 
L 83.060312 128.398025 
L 84.946079 124.386464 
L 86.831846 120.449289 
L 88.717612 116.5865 
L 90.603379 112.798097 
L 92.489146 109.084079 
L 94.374913 105.444448 
L 96.26068 101.879203 
L 98.146446 98.388343 
L 100.032213 94.971869 
L 101.91798 91.629782 
L 103.803747 88.36208 
L 105.689513 85.168764 
L 107.57528 82.049835 
L 109.461047 79.005291 
L 111.346814 76.035133 
L 113.23258 73.139361 
L 115.118347 70.317974 
L 117.004114 67.570974 
L 118.889881 64.89836 
L 120.775647 62.300132 
L 122.661414 59.776289 
L 124.547181 57.326833 
L 126.432948 54.951762 
L 128.318714 52.651078 
L 130.204481 50.424779 
L 132.090248 48.272867 
L 133.976015 46.19534 
L 135.861781 44.192199 
L 137.747548 42.263444 
L 139.633315 40.409075 
L 141.519082 38.629092 
L 143.404848 36.923495 
L 145.290615 35.292284 
L 147.176382 33.735459 
L 149.062149 32.253019 
L 150.947916 30.844966 
L 152.833682 29.511298 
L 154.719449 28.252017 
L 156.605216 27.067121 
L 158.490983 25.956612 
L 160.376749 24.920488 
L 162.262516 23.95875 
L 164.148283 23.071399 
L 166.03405 22.258433 
L 167.919816 21.519853 
L 169.805583 20.855659 
L 171.69135 20.265851 
L 173.577117 19.750428 
L 175.462883 19.309392 
L 177.34865 18.942742 
L 179.234417 18.650477 
L 181.120184 18.432599 
L 183.00595 18.289107 
L 184.891717 18.22 
L 186.777484 18.225279 
L 188.663251 18.304945 
L 190.549017 18.458996 
L 192.434784 18.687433 
L 194.320551 18.990256 
L 196.206318 19.367465 
L 198.092084 19.81906 
L 199.977851 20.345041 
L 201.863618 20.945408 
L 203.749385 21.620161 
L 205.635152 22.369299 
L 207.520918 23.192824 
L 209.406685 24.090735 
L 211.292452 25.063031 
L 213.178219 26.109714 
L 215.063985 27.230782 
L 216.949752 28.426236 
L 218.835519 29.696077 
L 220.721286 31.040303 
L 222.607052 32.458915 
L 224.492819 33.951913 
L 226.378586 35.519297 
L 228.264353 37.161067 
L 230.150119 38.877223 
L 232.035886 40.667764 
L 233.921653 42.532692 
L 235.80742 44.472006 
L 237.693186 46.485705 
L 239.578953 48.573791 
L 241.46472 50.736262 
L 243.350487 52.97312 
L 245.236253 55.284363 
L 247.12202 57.669992 
L 249.007787 60.130008 
L 250.893554 62.664409 
L 252.77932 65.273196 
L 254.665087 67.956369 
L 256.550854 70.713928 
L 258.436621 73.545872 
L 260.322388 76.452203 
L 262.208154 79.43292 
L 264.093921 82.488023 
L 265.979688 85.617511 
L 267.865455 88.821386 
" clip-path="url(#p0e89756220)" style="fill: none; stroke: #800000; stroke-width: 1.5; stroke-linecap: square"/>
   </g>
   <g id="patch_3">
    <path d="M 71.84 174.04 
L 71.84 10.8 
" style="fill: none; stroke: #000000; stroke-width: 0.8; stroke-linejoin: miter; stroke-linecap: square"/>
   </g>
   <g id="patch_4">
    <path d="M 277.2 174.04 
L 277.2 10.8 
" style="fill: none; stroke: #000000; stroke-width: 0.8; stroke-linejoin: miter; stroke-linecap: square"/>
   </g>
   <g id="patch_5">
    <path d="M 71.84 174.04 
L 277.2 174.04 
" style="fill: none; stroke: #000000; stroke-width: 0.8; stroke-linejoin: miter; stroke-linecap: square"/>
   </g>
   <g id="patch_6">
    <path d="M 71.84 10.8 
L 277.2 10.8 
" style="fill: none; stroke: #000000; stroke-width: 0.8; stroke-linejoin: miter; stroke-linecap: square"/>
   </g>
   <g id="legend_1">
    <g id="patch_7">
     <path d="M 134.52 169.04 
L 214.52 169.04 
Q 216.52 169.04 216.52 167.04 
L 216.52 124.005625 
Q 216.52 122.005625 214.52 122.005625 
L 134.52 122.005625 
Q 132.52 122.005625 132.52 124.005625 
L 132.52 167.04 
Q 132.52 169.04 134.52 169.04 
z
" style="fill: #ffffff; opacity: 0.8; stroke: #cccccc; stroke-linejoin: miter"/>
    </g>
    <g id="line2d_22">
     <path d="M 136.52 130.104062 
L 146.52 130.104062 
L 156.52 130.104062 
" style="fill: none; stroke: #000080; stroke-width: 1.5; stroke-linecap: square"/>
    </g>
    <g id="text_12">
     <!-- $\delta_e = -10$ -->
     <g transform="translate(164.52 133.604062) scale(0.1 -0.1)">
      <defs>
       <path id="DejaVuSans-Oblique-3b4" d="M 3472 4053 
Q 3197 4272 2450 4272 
Q 1659 4272 1588 3906 
Q 1531 3619 2328 3469 
Q 2953 3353 3253 3003 
Q 3616 2581 3447 1716 
Q 3284 888 2763 400 
Q 2238 -91 1488 -91 
Q 741 -91 406 400 
Q 72 888 241 1747 
Q 363 2384 891 2900 
Q 1097 3100 1353 3213 
Q 913 3459 1000 3900 
Q 1166 4750 2544 4750 
Q 3234 4750 3566 4531 
L 3472 4053 
z
M 1753 3056 
Q 1525 2966 1306 2738 
Q 969 2384 847 1747 
Q 722 1113 919 756 
Q 1119 397 1584 397 
Q 2044 397 2381 759 
Q 2722 1122 2838 1716 
Q 2956 2338 2731 2638 
Q 2491 2959 2103 2994 
Q 1906 3013 1753 3056 
z
" transform="scale(0.015625)"/>
       <path id="DejaVuSans-Oblique-65" d="M 3078 2063 
Q 3088 2113 3092 2166 
Q 3097 2219 3097 2272 
Q 3097 2653 2873 2875 
Q 2650 3097 2266 3097 
Q 1838 3097 1509 2826 
Q 1181 2556 1013 2059 
L 3078 2063 
z
M 3578 1613 
L 903 1613 
Q 884 1494 878 1425 
Q 872 1356 872 1306 
Q 872 872 1139 634 
Q 1406 397 1894 397 
Q 2269 397 2603 481 
Q 2938 566 3225 728 
L 3116 159 
Q 2806 34 2476 -28 
Q 2147 -91 1806 -91 
Q 1078 -91 686 257 
Q 294 606 294 1247 
Q 294 1794 489 2264 
Q 684 2734 1063 3103 
Q 1306 3334 1642 3459 
Q 1978 3584 2356 3584 
Q 2950 3584 3301 3228 
Q 3653 2872 3653 2272 
Q 3653 2128 3634 1964 
Q 3616 1800 3578 1613 
z
" transform="scale(0.015625)"/>
       <path id="DejaVuSans-3d" d="M 678 2906 
L 4684 2906 
L 4684 2381 
L 678 2381 
L 678 2906 
z
M 678 1631 
L 4684 1631 
L 4684 1100 
L 678 1100 
L 678 1631 
z
" transform="scale(0.015625)"/>
       <path id="DejaVuSans-31" d="M 794 531 
L 1825 531 
L 1825 4091 
L 703 3866 
L 703 4441 
L 1819 4666 
L 2450 4666 
L 2450 531 
L 3481 531 
L 3481 0 
L 794 0 
L 794 531 
z
" transform="scale(0.015625)"/>
      </defs>
      <use xlink:href="#DejaVuSans-Oblique-3b4" transform="translate(0 0.78125)"/>
      <use xlink:href="#DejaVuSans-Oblique-65" transform="translate(61.181641 -15.625) scale(0.7)"/>
      <use xlink:href="#DejaVuSans-3d" transform="translate(126.464844 0.78125)"/>
      <use xlink:href="#DejaVuSans-2212" transform="translate(249.21875 0.78125)"/>
      <use xlink:href="#DejaVuSans-31" transform="translate(352.490234 0.78125)"/>
      <use xlink:href="#DejaVuSans-30" transform="translate(416.113281 0.78125)"/>
     </g>
    </g>
    <g id="line2d_23">
     <path d="M 136.52 144.782187 
L 146.52 144.782187 
L 156.52 144.782187 
" style="fill: none; stroke: #7dff7a; stroke-width: 1.5; stroke-linecap: square"/>
    </g>
    <g id="text_13">
     <!-- $\delta_e = 0$ -->
     <g transform="translate(164.52 148.282187) scale(0.1 -0.1)">
      <use xlink:href="#DejaVuSans-Oblique-3b4" transform="translate(0 0.78125)"/>
      <use xlink:href="#DejaVuSans-Oblique-65" transform="translate(61.181641 -15.625) scale(0.7)"/>
      <use xlink:href="#DejaVuSans-3d" transform="translate(126.464844 0.78125)"/>
      <use xlink:href="#DejaVuSans-30" transform="translate(229.736328 0.78125)"/>
     </g>
    </g>
    <g id="line2d_24">
     <path d="M 136.52 159.460312 
L 146.52 159.460312 
L 156.52 159.460312 
" style="fill: none; stroke: #800000; stroke-width: 1.5; stroke-linecap: square"/>
    </g>
    <g id="text_14">
     <!-- $\delta_e = 10$ -->
     <g transform="translate(164.52 162.960312) scale(0.1 -0.1)">
      <use xlink:href="#DejaVuSans-Oblique-3b4" transform="translate(0 0.78125)"/>
      <use xlink:href="#DejaVuSans-Oblique-65" transform="translate(61.181641 -15.625) scale(0.7)"/>
      <use xlink:href="#DejaVuSans-3d" transform="translate(126.464844 0.78125)"/>
      <use xlink:href="#DejaVuSans-31" transform="translate(229.736328 0.78125)"/>
      <use xlink:href="#DejaVuSans-30" transform="translate(293.359375 0.78125)"/>
     </g>
    </g>
   </g>
  </g>
 </g>
 <defs>
  <clipPath id="p0e89756220">
   <rect x="71.84" y="10.8" width="205.36" height="163.24"/>
  </clipPath>
 </defs>
</svg>
