<?xml version="1.0" encoding="utf-8" standalone="no"?>
<!DOCTYPE svg PUBLIC "-//W3C//DTD SVG 1.1//EN"
  "http://www.w3.org/Graphics/SVG/1.1/DTD/svg11.dtd">
<svg xmlns:xlink="http://www.w3.org/1999/xlink" width="432pt" height="216pt" viewBox="0 0 432 216" xmlns="http://www.w3.org/2000/svg" version="1.1">
 <metadata>
  <rdf:RDF xmlns:dc="http://purl.org/dc/elements/1.1/" xmlns:cc="http://creativecommons.org/ns#" xmlns:rdf="http://www.w3.org/1999/02/22-rdf-syntax-ns#">
   <cc:Work>
    <dc:type rdf:resource="http://purl.org/dc/dcmitype/StillImage"/>
    <dc:date>2025-03-31T00:27:46.212437</dc:date>
    <dc:format>image/svg+xml</dc:format>
    <dc:creator>
     <cc:Agent>
      <dc:title>Matplotlib v3.9.2, https://matplotlib.org/</dc:title>
     </cc:Agent>
    </dc:creator>
   </cc:Work>
  </rdf:RDF>
 </metadata>
 <defs>
  <style type="text/css">*{stroke-linejoin: round; stroke-linecap: butt}</style>
 </defs>
 <g id="figure_1">
  <g id="patch_1">
   <path d="M 0 216 
L 432 216 
L 432 0 
L 0 0 
z
" style="fill: #ffffff"/>
  </g>
  <g id="axes_1">
   <g id="patch_2">
    <path d="M 71.408 174.04 
L 306.255247 174.04 
L 306.255247 10.8 
L 71.408 10.8 
z
" style="fill: #ffffff"/>
   </g>
   <g id="matplotlib.axis_1">
    <g id="xtick_1">
     <g id="line2d_1">
      <path d="M 82.082875 174.04 
L 82.082875 10.8 
" clip-path="url(#p7e64fd8570)" style="fill: none; stroke: #b0b0b0; stroke-width: 0.8; stroke-linecap: square"/>
     </g>
     <g id="line2d_2">
      <defs>
       <path id="me5e4097cde" d="M 0 0 
L 0 3.5 
" style="stroke: #000000; stroke-width: 0.8"/>
      </defs>
      <g>
       <use xlink:href="#me5e4097cde" x="82.082875" y="174.04" style="stroke: #000000; stroke-width: 0.8"/>
      </g>
     </g>
     <g id="text_1">
      <!-- −4 -->
      <g transform="translate(74.711781 188.638438) scale(0.1 -0.1)">
       <defs>
        <path id="DejaVuSans-2212" d="M 678 2272 
L 4684 2272 
L 4684 1741 
L 678 1741 
L 678 2272 
z
" transform="scale(0.015625)"/>
        <path id="DejaVuSans-34" d="M 2419 4116 
L 825 1625 
L 2419 1625 
L 2419 4116 
z
M 2253 4666 
L 3047 4666 
L 3047 1625 
L 3713 1625 
L 3713 1100 
L 3047 1100 
L 3047 0 
L 2419 0 
L 2419 1100 
L 313 1100 
L 313 1709 
L 2253 4666 
z
" transform="scale(0.015625)"/>
       </defs>
       <use xlink:href="#DejaVuSans-2212"/>
       <use xlink:href="#DejaVuSans-34" x="83.789062"/>
      </g>
     </g>
    </g>
    <g id="xtick_2">
     <g id="line2d_3">
      <path d="M 120.900602 174.04 
L 120.900602 10.8 
" clip-path="url(#p7e64fd8570)" style="fill: none; stroke: #b0b0b0; stroke-width: 0.8; stroke-linecap: square"/>
     </g>
     <g id="line2d_4">
      <g>
       <use xlink:href="#me5e4097cde" x="120.900602" y="174.04" style="stroke: #000000; stroke-width: 0.8"/>
      </g>
     </g>
     <g id="text_2">
      <!-- −2 -->
      <g transform="translate(113.529508 188.638438) scale(0.1 -0.1)">
       <defs>
        <path id="DejaVuSans-32" d="M 1228 531 
L 3431 531 
L 3431 0 
L 469 0 
L 469 531 
Q 828 903 1448 1529 
Q 2069 2156 2228 2338 
Q 2531 2678 2651 2914 
Q 2772 3150 2772 3378 
Q 2772 3750 2511 3984 
Q 2250 4219 1831 4219 
Q 1534 4219 1204 4116 
Q 875 4013 500 3803 
L 500 4441 
Q 881 4594 1212 4672 
Q 1544 4750 1819 4750 
Q 2544 4750 2975 4387 
Q 3406 4025 3406 3419 
Q 3406 3131 3298 2873 
Q 3191 2616 2906 2266 
Q 2828 2175 2409 1742 
Q 1991 1309 1228 531 
z
" transform="scale(0.015625)"/>
       </defs>
       <use xlink:href="#DejaVuSans-2212"/>
       <use xlink:href="#DejaVuSans-32" x="83.789062"/>
      </g>
     </g>
    </g>
    <g id="xtick_3">
     <g id="line2d_5">
      <path d="M 159.718329 174.04 
L 159.718329 10.8 
" clip-path="url(#p7e64fd8570)" style="fill: none; stroke: #b0b0b0; stroke-width: 0.8; stroke-linecap: square"/>
     </g>
     <g id="line2d_6">
      <g>
       <use xlink:href="#me5e4097cde" x="159.718329" y="174.04" style="stroke: #000000; stroke-width: 0.8"/>
      </g>
     </g>
     <g id="text_3">
      <!-- 0 -->
      <g transform="translate(156.537079 188.638438) scale(0.1 -0.1)">
       <defs>
        <path id="DejaVuSans-30" d="M 2034 4250 
Q 1547 4250 1301 3770 
Q 1056 3291 1056 2328 
Q 1056 1369 1301 889 
Q 1547 409 2034 409 
Q 2525 409 2770 889 
Q 3016 1369 3016 2328 
Q 3016 3291 2770 3770 
Q 2525 4250 2034 4250 
z
M 2034 4750 
Q 2819 4750 3233 4129 
Q 3647 3509 3647 2328 
Q 3647 1150 3233 529 
Q 2819 -91 2034 -91 
Q 1250 -91 836 529 
Q 422 1150 422 2328 
Q 422 3509 836 4129 
Q 1250 4750 2034 4750 
z
" transform="scale(0.015625)"/>
       </defs>
       <use xlink:href="#DejaVuSans-30"/>
      </g>
     </g>
    </g>
    <g id="xtick_4">
     <g id="line2d_7">
      <path d="M 198.536055 174.04 
L 198.536055 10.8 
" clip-path="url(#p7e64fd8570)" style="fill: none; stroke: #b0b0b0; stroke-width: 0.8; stroke-linecap: square"/>
     </g>
     <g id="line2d_8">
      <g>
       <use xlink:href="#me5e4097cde" x="198.536055" y="174.04" style="stroke: #000000; stroke-width: 0.8"/>
      </g>
     </g>
     <g id="text_4">
      <!-- 2 -->
      <g transform="translate(195.354805 188.638438) scale(0.1 -0.1)">
       <use xlink:href="#DejaVuSans-32"/>
      </g>
     </g>
    </g>
    <g id="xtick_5">
     <g id="line2d_9">
      <path d="M 237.353782 174.04 
L 237.353782 10.8 
" clip-path="url(#p7e64fd8570)" style="fill: none; stroke: #b0b0b0; stroke-width: 0.8; stroke-linecap: square"/>
     </g>
     <g id="line2d_10">
      <g>
       <use xlink:href="#me5e4097cde" x="237.353782" y="174.04" style="stroke: #000000; stroke-width: 0.8"/>
      </g>
     </g>
     <g id="text_5">
      <!-- 4 -->
      <g transform="translate(234.172532 188.638438) scale(0.1 -0.1)">
       <use xlink:href="#DejaVuSans-34"/>
      </g>
     </g>
    </g>
    <g id="xtick_6">
     <g id="line2d_11">
      <path d="M 276.171509 174.04 
L 276.171509 10.8 
" clip-path="url(#p7e64fd8570)" style="fill: none; stroke: #b0b0b0; stroke-width: 0.8; stroke-linecap: square"/>
     </g>
     <g id="line2d_12">
      <g>
       <use xlink:href="#me5e4097cde" x="276.171509" y="174.04" style="stroke: #000000; stroke-width: 0.8"/>
      </g>
     </g>
     <g id="text_6">
      <!-- 6 -->
      <g transform="translate(272.990259 188.638438) scale(0.1 -0.1)">
       <defs>
        <path id="DejaVuSans-36" d="M 2113 2584 
Q 1688 2584 1439 2293 
Q 1191 2003 1191 1497 
Q 1191 994 1439 701 
Q 1688 409 2113 409 
Q 2538 409 2786 701 
Q 3034 994 3034 1497 
Q 3034 2003 2786 2293 
Q 2538 2584 2113 2584 
z
M 3366 4563 
L 3366 3988 
Q 3128 4100 2886 4159 
Q 2644 4219 2406 4219 
Q 1781 4219 1451 3797 
Q 1122 3375 1075 2522 
Q 1259 2794 1537 2939 
Q 1816 3084 2150 3084 
Q 2853 3084 3261 2657 
Q 3669 2231 3669 1497 
Q 3669 778 3244 343 
Q 2819 -91 2113 -91 
Q 1303 -91 875 529 
Q 447 1150 447 2328 
Q 447 3434 972 4092 
Q 1497 4750 2381 4750 
Q 2619 4750 2861 4703 
Q 3103 4656 3366 4563 
z
" transform="scale(0.015625)"/>
       </defs>
       <use xlink:href="#DejaVuSans-36"/>
      </g>
     </g>
    </g>
    <g id="text_7">
     <!-- $\alpha$ -->
     <g transform="translate(185.531624 202.316563) scale(0.1 -0.1)">
      <defs>
       <path id="DejaVuSans-Oblique-3b1" d="M 2619 1628 
L 2622 2350 
Q 2625 3088 2069 3091 
Q 1653 3094 1394 2747 
Q 1069 2319 959 1747 
Q 825 1059 994 731 
Q 1169 397 1547 397 
Q 1966 397 2319 1063 
L 2619 1628 
z
M 2166 3578 
Q 3141 3594 3128 2584 
Q 3128 2584 3616 3500 
L 4128 3500 
L 3119 1603 
L 3109 919 
Q 3109 766 3194 638 
Q 3291 488 3391 488 
L 3669 488 
L 3575 0 
L 3228 0 
Q 2934 0 2722 263 
Q 2622 394 2619 669 
Q 2416 334 2066 50 
Q 1900 -81 1453 -78 
Q 722 -72 456 397 
Q 184 884 353 1747 
Q 534 2675 1009 3097 
Q 1544 3569 2166 3578 
z
" transform="scale(0.015625)"/>
      </defs>
      <use xlink:href="#DejaVuSans-Oblique-3b1" transform="translate(0 0.84375)"/>
     </g>
    </g>
   </g>
   <g id="matplotlib.axis_2">
    <g id="ytick_1">
     <g id="line2d_13">
      <path d="M 71.408 170.36558 
L 306.255247 170.36558 
" clip-path="url(#p7e64fd8570)" style="fill: none; stroke: #b0b0b0; stroke-width: 0.8; stroke-linecap: square"/>
     </g>
     <g id="line2d_14">
      <defs>
       <path id="m7d360ba2bc" d="M 0 0 
L -3.5 0 
" style="stroke: #000000; stroke-width: 0.8"/>
      </defs>
      <g>
       <use xlink:href="#m7d360ba2bc" x="71.408" y="170.36558" style="stroke: #000000; stroke-width: 0.8"/>
      </g>
     </g>
     <g id="text_8">
      <!-- −0.032 -->
      <g transform="translate(27.400188 174.164799) scale(0.1 -0.1)">
       <defs>
        <path id="DejaVuSans-2e" d="M 684 794 
L 1344 794 
L 1344 0 
L 684 0 
L 684 794 
z
" transform="scale(0.015625)"/>
        <path id="DejaVuSans-33" d="M 2597 2516 
Q 3050 2419 3304 2112 
Q 3559 1806 3559 1356 
Q 3559 666 3084 287 
Q 2609 -91 1734 -91 
Q 1441 -91 1130 -33 
Q 819 25 488 141 
L 488 750 
Q 750 597 1062 519 
Q 1375 441 1716 441 
Q 2309 441 2620 675 
Q 2931 909 2931 1356 
Q 2931 1769 2642 2001 
Q 2353 2234 1838 2234 
L 1294 2234 
L 1294 2753 
L 1863 2753 
Q 2328 2753 2575 2939 
Q 2822 3125 2822 3475 
Q 2822 3834 2567 4026 
Q 2313 4219 1838 4219 
Q 1578 4219 1281 4162 
Q 984 4106 628 3988 
L 628 4550 
Q 988 4650 1302 4700 
Q 1616 4750 1894 4750 
Q 2613 4750 3031 4423 
Q 3450 4097 3450 3541 
Q 3450 3153 3228 2886 
Q 3006 2619 2597 2516 
z
" transform="scale(0.015625)"/>
       </defs>
       <use xlink:href="#DejaVuSans-2212"/>
       <use xlink:href="#DejaVuSans-30" x="83.789062"/>
       <use xlink:href="#DejaVuSans-2e" x="147.412109"/>
       <use xlink:href="#DejaVuSans-30" x="179.199219"/>
       <use xlink:href="#DejaVuSans-33" x="242.822266"/>
       <use xlink:href="#DejaVuSans-32" x="306.445312"/>
      </g>
     </g>
    </g>
    <g id="ytick_2">
     <g id="line2d_15">
      <path d="M 71.408 146.237859 
L 306.255247 146.237859 
" clip-path="url(#p7e64fd8570)" style="fill: none; stroke: #b0b0b0; stroke-width: 0.8; stroke-linecap: square"/>
     </g>
     <g id="line2d_16">
      <g>
       <use xlink:href="#m7d360ba2bc" x="71.408" y="146.237859" style="stroke: #000000; stroke-width: 0.8"/>
      </g>
     </g>
     <g id="text_9">
      <!-- −0.031 -->
      <g transform="translate(27.400188 150.037078) scale(0.1 -0.1)">
       <defs>
        <path id="DejaVuSans-31" d="M 794 531 
L 1825 531 
L 1825 4091 
L 703 3866 
L 703 4441 
L 1819 4666 
L 2450 4666 
L 2450 531 
L 3481 531 
L 3481 0 
L 794 0 
L 794 531 
z
" transform="scale(0.015625)"/>
       </defs>
       <use xlink:href="#DejaVuSans-2212"/>
       <use xlink:href="#DejaVuSans-30" x="83.789062"/>
       <use xlink:href="#DejaVuSans-2e" x="147.412109"/>
       <use xlink:href="#DejaVuSans-30" x="179.199219"/>
       <use xlink:href="#DejaVuSans-33" x="242.822266"/>
       <use xlink:href="#DejaVuSans-31" x="306.445312"/>
      </g>
     </g>
    </g>
    <g id="ytick_3">
     <g id="line2d_17">
      <path d="M 71.408 122.110138 
L 306.255247 122.110138 
" clip-path="url(#p7e64fd8570)" style="fill: none; stroke: #b0b0b0; stroke-width: 0.8; stroke-linecap: square"/>
     </g>
     <g id="line2d_18">
      <g>
       <use xlink:href="#m7d360ba2bc" x="71.408" y="122.110138" style="stroke: #000000; stroke-width: 0.8"/>
      </g>
     </g>
     <g id="text_10">
      <!-- −0.030 -->
      <g transform="translate(27.400188 125.909357) scale(0.1 -0.1)">
       <use xlink:href="#DejaVuSans-2212"/>
       <use xlink:href="#DejaVuSans-30" x="83.789062"/>
       <use xlink:href="#DejaVuSans-2e" x="147.412109"/>
       <use xlink:href="#DejaVuSans-30" x="179.199219"/>
       <use xlink:href="#DejaVuSans-33" x="242.822266"/>
       <use xlink:href="#DejaVuSans-30" x="306.445312"/>
      </g>
     </g>
    </g>
    <g id="ytick_4">
     <g id="line2d_19">
      <path d="M 71.408 97.982417 
L 306.255247 97.982417 
" clip-path="url(#p7e64fd8570)" style="fill: none; stroke: #b0b0b0; stroke-width: 0.8; stroke-linecap: square"/>
     </g>
     <g id="line2d_20">
      <g>
       <use xlink:href="#m7d360ba2bc" x="71.408" y="97.982417" style="stroke: #000000; stroke-width: 0.8"/>
      </g>
     </g>
     <g id="text_11">
      <!-- −0.029 -->
      <g transform="translate(27.400188 101.781635) scale(0.1 -0.1)">
       <defs>
        <path id="DejaVuSans-39" d="M 703 97 
L 703 672 
Q 941 559 1184 500 
Q 1428 441 1663 441 
Q 2288 441 2617 861 
Q 2947 1281 2994 2138 
Q 2813 1869 2534 1725 
Q 2256 1581 1919 1581 
Q 1219 1581 811 2004 
Q 403 2428 403 3163 
Q 403 3881 828 4315 
Q 1253 4750 1959 4750 
Q 2769 4750 3195 4129 
Q 3622 3509 3622 2328 
Q 3622 1225 3098 567 
Q 2575 -91 1691 -91 
Q 1453 -91 1209 -44 
Q 966 3 703 97 
z
M 1959 2075 
Q 2384 2075 2632 2365 
Q 2881 2656 2881 3163 
Q 2881 3666 2632 3958 
Q 2384 4250 1959 4250 
Q 1534 4250 1286 3958 
Q 1038 3666 1038 3163 
Q 1038 2656 1286 2365 
Q 1534 2075 1959 2075 
z
" transform="scale(0.015625)"/>
       </defs>
       <use xlink:href="#DejaVuSans-2212"/>
       <use xlink:href="#DejaVuSans-30" x="83.789062"/>
       <use xlink:href="#DejaVuSans-2e" x="147.412109"/>
       <use xlink:href="#DejaVuSans-30" x="179.199219"/>
       <use xlink:href="#DejaVuSans-32" x="242.822266"/>
       <use xlink:href="#DejaVuSans-39" x="306.445312"/>
      </g>
     </g>
    </g>
    <g id="ytick_5">
     <g id="line2d_21">
      <path d="M 71.408 73.854696 
L 306.255247 73.854696 
" clip-path="url(#p7e64fd8570)" style="fill: none; stroke: #b0b0b0; stroke-width: 0.8; stroke-linecap: square"/>
     </g>
     <g id="line2d_22">
      <g>
       <use xlink:href="#m7d360ba2bc" x="71.408" y="73.854696" style="stroke: #000000; stroke-width: 0.8"/>
      </g>
     </g>
     <g id="text_12">
      <!-- −0.028 -->
      <g transform="translate(27.400188 77.653914) scale(0.1 -0.1)">
       <defs>
        <path id="DejaVuSans-38" d="M 2034 2216 
Q 1584 2216 1326 1975 
Q 1069 1734 1069 1313 
Q 1069 891 1326 650 
Q 1584 409 2034 409 
Q 2484 409 2743 651 
Q 3003 894 3003 1313 
Q 3003 1734 2745 1975 
Q 2488 2216 2034 2216 
z
M 1403 2484 
Q 997 2584 770 2862 
Q 544 3141 544 3541 
Q 544 4100 942 4425 
Q 1341 4750 2034 4750 
Q 2731 4750 3128 4425 
Q 3525 4100 3525 3541 
Q 3525 3141 3298 2862 
Q 3072 2584 2669 2484 
Q 3125 2378 3379 2068 
Q 3634 1759 3634 1313 
Q 3634 634 3220 271 
Q 2806 -91 2034 -91 
Q 1263 -91 848 271 
Q 434 634 434 1313 
Q 434 1759 690 2068 
Q 947 2378 1403 2484 
z
M 1172 3481 
Q 1172 3119 1398 2916 
Q 1625 2713 2034 2713 
Q 2441 2713 2670 2916 
Q 2900 3119 2900 3481 
Q 2900 3844 2670 4047 
Q 2441 4250 2034 4250 
Q 1625 4250 1398 4047 
Q 1172 3844 1172 3481 
z
" transform="scale(0.015625)"/>
       </defs>
       <use xlink:href="#DejaVuSans-2212"/>
       <use xlink:href="#DejaVuSans-30" x="83.789062"/>
       <use xlink:href="#DejaVuSans-2e" x="147.412109"/>
       <use xlink:href="#DejaVuSans-30" x="179.199219"/>
       <use xlink:href="#DejaVuSans-32" x="242.822266"/>
       <use xlink:href="#DejaVuSans-38" x="306.445312"/>
      </g>
     </g>
    </g>
    <g id="ytick_6">
     <g id="line2d_23">
      <path d="M 71.408 49.726974 
L 306.255247 49.726974 
" clip-path="url(#p7e64fd8570)" style="fill: none; stroke: #b0b0b0; stroke-width: 0.8; stroke-linecap: square"/>
     </g>
     <g id="line2d_24">
      <g>
       <use xlink:href="#m7d360ba2bc" x="71.408" y="49.726974" style="stroke: #000000; stroke-width: 0.8"/>
      </g>
     </g>
     <g id="text_13">
      <!-- −0.027 -->
      <g transform="translate(27.400188 53.526193) scale(0.1 -0.1)">
       <defs>
        <path id="DejaVuSans-37" d="M 525 4666 
L 3525 4666 
L 3525 4397 
L 1831 0 
L 1172 0 
L 2766 4134 
L 525 4134 
L 525 4666 
z
" transform="scale(0.015625)"/>
       </defs>
       <use xlink:href="#DejaVuSans-2212"/>
       <use xlink:href="#DejaVuSans-30" x="83.789062"/>
       <use xlink:href="#DejaVuSans-2e" x="147.412109"/>
       <use xlink:href="#DejaVuSans-30" x="179.199219"/>
       <use xlink:href="#DejaVuSans-32" x="242.822266"/>
       <use xlink:href="#DejaVuSans-37" x="306.445312"/>
      </g>
     </g>
    </g>
    <g id="ytick_7">
     <g id="line2d_25">
      <path d="M 71.408 25.599253 
L 306.255247 25.599253 
" clip-path="url(#p7e64fd8570)" style="fill: none; stroke: #b0b0b0; stroke-width: 0.8; stroke-linecap: square"/>
     </g>
     <g id="line2d_26">
      <g>
       <use xlink:href="#m7d360ba2bc" x="71.408" y="25.599253" style="stroke: #000000; stroke-width: 0.8"/>
      </g>
     </g>
     <g id="text_14">
      <!-- −0.026 -->
      <g transform="translate(27.400188 29.398472) scale(0.1 -0.1)">
       <use xlink:href="#DejaVuSans-2212"/>
       <use xlink:href="#DejaVuSans-30" x="83.789062"/>
       <use xlink:href="#DejaVuSans-2e" x="147.412109"/>
       <use xlink:href="#DejaVuSans-30" x="179.199219"/>
       <use xlink:href="#DejaVuSans-32" x="242.822266"/>
       <use xlink:href="#DejaVuSans-36" x="306.445312"/>
      </g>
     </g>
    </g>
    <g id="text_15">
     <!-- d$C_M$ / d$\delta_e$ -->
     <g transform="translate(21.3205 115.67) rotate(-90) scale(0.1 -0.1)">
      <defs>
       <path id="DejaVuSans-64" d="M 2906 2969 
L 2906 4863 
L 3481 4863 
L 3481 0 
L 2906 0 
L 2906 525 
Q 2725 213 2448 61 
Q 2172 -91 1784 -91 
Q 1150 -91 751 415 
Q 353 922 353 1747 
Q 353 2572 751 3078 
Q 1150 3584 1784 3584 
Q 2172 3584 2448 3432 
Q 2725 3281 2906 2969 
z
M 947 1747 
Q 947 1113 1208 752 
Q 1469 391 1925 391 
Q 2381 391 2643 752 
Q 2906 1113 2906 1747 
Q 2906 2381 2643 2742 
Q 2381 3103 1925 3103 
Q 1469 3103 1208 2742 
Q 947 2381 947 1747 
z
" transform="scale(0.015625)"/>
       <path id="DejaVuSans-Oblique-43" d="M 4447 4306 
L 4319 3641 
Q 4019 3944 3683 4091 
Q 3347 4238 2956 4238 
Q 2422 4238 2017 3981 
Q 1613 3725 1319 3200 
Q 1131 2863 1032 2486 
Q 934 2109 934 1728 
Q 934 1091 1264 756 
Q 1594 422 2222 422 
Q 2656 422 3056 561 
Q 3456 700 3834 978 
L 3688 231 
Q 3316 72 2936 -9 
Q 2556 -91 2175 -91 
Q 1278 -91 773 396 
Q 269 884 269 1753 
Q 269 2309 461 2846 
Q 653 3384 1013 3828 
Q 1394 4300 1883 4525 
Q 2372 4750 3022 4750 
Q 3422 4750 3780 4639 
Q 4138 4528 4447 4306 
z
" transform="scale(0.015625)"/>
       <path id="DejaVuSans-Oblique-4d" d="M 1081 4666 
L 2028 4666 
L 2572 1522 
L 4378 4666 
L 5350 4666 
L 4441 0 
L 3828 0 
L 4622 4091 
L 2791 897 
L 2175 897 
L 1581 4103 
L 788 0 
L 172 0 
L 1081 4666 
z
" transform="scale(0.015625)"/>
       <path id="DejaVuSans-20" transform="scale(0.015625)"/>
       <path id="DejaVuSans-2f" d="M 1625 4666 
L 2156 4666 
L 531 -594 
L 0 -594 
L 1625 4666 
z
" transform="scale(0.015625)"/>
       <path id="DejaVuSans-Oblique-3b4" d="M 3472 4053 
Q 3197 4272 2450 4272 
Q 1659 4272 1588 3906 
Q 1531 3619 2328 3469 
Q 2953 3353 3253 3003 
Q 3616 2581 3447 1716 
Q 3284 888 2763 400 
Q 2238 -91 1488 -91 
Q 741 -91 406 400 
Q 72 888 241 1747 
Q 363 2384 891 2900 
Q 1097 3100 1353 3213 
Q 913 3459 1000 3900 
Q 1166 4750 2544 4750 
Q 3234 4750 3566 4531 
L 3472 4053 
z
M 1753 3056 
Q 1525 2966 1306 2738 
Q 969 2384 847 1747 
Q 722 1113 919 756 
Q 1119 397 1584 397 
Q 2044 397 2381 759 
Q 2722 1122 2838 1716 
Q 2956 2338 2731 2638 
Q 2491 2959 2103 2994 
Q 1906 3013 1753 3056 
z
" transform="scale(0.015625)"/>
       <path id="DejaVuSans-Oblique-65" d="M 3078 2063 
Q 3088 2113 3092 2166 
Q 3097 2219 3097 2272 
Q 3097 2653 2873 2875 
Q 2650 3097 2266 3097 
Q 1838 3097 1509 2826 
Q 1181 2556 1013 2059 
L 3078 2063 
z
M 3578 1613 
L 903 1613 
Q 884 1494 878 1425 
Q 872 1356 872 1306 
Q 872 872 1139 634 
Q 1406 397 1894 397 
Q 2269 397 2603 481 
Q 2938 566 3225 728 
L 3116 159 
Q 2806 34 2476 -28 
Q 2147 -91 1806 -91 
Q 1078 -91 686 257 
Q 294 606 294 1247 
Q 294 1794 489 2264 
Q 684 2734 1063 3103 
Q 1306 3334 1642 3459 
Q 1978 3584 2356 3584 
Q 2950 3584 3301 3228 
Q 3653 2872 3653 2272 
Q 3653 2128 3634 1964 
Q 3616 1800 3578 1613 
z
" transform="scale(0.015625)"/>
      </defs>
      <use xlink:href="#DejaVuSans-64" transform="translate(0 0.015625)"/>
      <use xlink:href="#DejaVuSans-Oblique-43" transform="translate(63.476562 0.015625)"/>
      <use xlink:href="#DejaVuSans-Oblique-4d" transform="translate(133.300781 -16.390625) scale(0.7)"/>
      <use xlink:href="#DejaVuSans-20" transform="translate(196.430664 0.015625)"/>
      <use xlink:href="#DejaVuSans-2f" transform="translate(228.217773 0.015625)"/>
      <use xlink:href="#DejaVuSans-20" transform="translate(261.90918 0.015625)"/>
      <use xlink:href="#DejaVuSans-64" transform="translate(293.696289 0.015625)"/>
      <use xlink:href="#DejaVuSans-Oblique-3b4" transform="translate(357.172852 0.015625)"/>
      <use xlink:href="#DejaVuSans-Oblique-65" transform="translate(418.354492 -16.390625) scale(0.7)"/>
     </g>
    </g>
   </g>
   <g id="line2d_27">
    <path d="M 82.082875 155.463523 
L 84.239415 156.141925 
L 86.395956 156.799052 
L 88.552496 157.434904 
L 90.709036 158.049481 
L 92.865577 158.642783 
L 95.022117 159.214811 
L 97.178658 159.765563 
L 99.335198 160.29504 
L 101.491738 160.803242 
L 103.648279 161.29017 
L 105.804819 161.755822 
L 107.961359 162.200199 
L 110.1179 162.623302 
L 112.27444 163.025129 
L 114.430981 163.405681 
L 116.587521 163.764959 
L 118.744061 164.102961 
L 120.900602 164.419689 
L 123.057142 164.715141 
L 125.213682 164.989319 
L 127.370223 165.242221 
L 129.526763 165.473849 
L 131.683304 165.684201 
L 133.839844 165.873279 
L 135.996384 166.041081 
L 138.152925 166.187609 
L 140.309465 166.312862 
L 142.466006 166.416839 
L 144.622546 166.499542 
L 146.779086 166.56097 
L 148.935627 166.601122 
L 151.092167 166.62 
L 153.248707 166.617603 
L 155.405248 166.593931 
L 157.561788 166.548983 
L 159.718329 166.482761 
L 161.874869 166.395264 
L 164.031409 166.286492 
L 166.18795 166.156445 
L 168.34449 166.005123 
L 170.50103 165.832526 
L 172.657571 165.638653 
L 174.814111 165.423506 
L 176.970652 165.187084 
L 179.127192 164.929387 
L 181.283732 164.650415 
L 183.440273 164.350168 
L 185.596813 164.028646 
L 187.753354 163.68585 
L 189.909894 163.321778 
L 192.066434 162.936431 
L 194.222975 162.529809 
L 196.379515 162.101912 
L 198.536055 161.65274 
L 200.692596 161.182293 
L 202.849136 160.690572 
L 205.005677 160.177575 
L 207.162217 159.643303 
L 209.318757 159.087756 
L 211.475298 158.510935 
L 213.631838 157.912838 
L 215.788378 157.293466 
L 217.944919 156.65282 
L 220.101459 155.990898 
L 222.258 155.307702 
L 224.41454 154.60323 
L 226.57108 153.877483 
L 228.727621 153.130462 
L 230.884161 152.362165 
L 233.040702 151.572594 
L 235.197242 150.761747 
L 237.353782 149.929626 
L 239.510323 149.07623 
L 241.666863 148.201558 
L 243.823403 147.305612 
L 245.979944 146.38839 
L 248.136484 145.449894 
L 250.293025 144.490123 
L 252.449565 143.509076 
L 254.606105 142.506755 
L 256.762646 141.483159 
L 258.919186 140.438288 
L 261.075726 139.372141 
L 263.232267 138.28472 
L 265.388807 137.176024 
L 267.545348 136.046053 
L 269.701888 134.894807 
L 271.858428 133.722285 
L 274.014969 132.528489 
L 276.171509 131.313418 
L 278.32805 130.077072 
L 280.48459 128.819451 
L 282.64113 127.540555 
L 284.797671 126.240384 
L 286.954211 124.918938 
L 289.110751 123.576217 
L 291.267292 122.212221 
L 293.423832 120.82695 
L 295.580373 119.420404 
" clip-path="url(#p7e64fd8570)" style="fill: none; stroke: #000080; stroke-width: 1.5; stroke-linecap: square"/>
   </g>
   <g id="line2d_28">
    <path d="M 82.082875 121.309439 
L 84.239415 121.238002 
L 86.395956 121.157392 
L 88.552496 121.06761 
L 90.709036 120.968654 
L 92.865577 120.860526 
L 95.022117 120.743225 
L 97.178658 120.61675 
L 99.335198 120.481103 
L 101.491738 120.336283 
L 103.648279 120.18229 
L 105.804819 120.019124 
L 107.961359 119.846785 
L 110.1179 119.665274 
L 112.27444 119.474589 
L 114.430981 119.274731 
L 116.587521 119.065701 
L 118.744061 118.847497 
L 120.900602 118.620121 
L 123.057142 118.383572 
L 125.213682 118.137849 
L 127.370223 117.882954 
L 129.526763 117.618886 
L 131.683304 117.345645 
L 133.839844 117.063231 
L 135.996384 116.771644 
L 138.152925 116.470885 
L 140.309465 116.160952 
L 142.466006 115.841846 
L 144.622546 115.513568 
L 146.779086 115.176116 
L 148.935627 114.829492 
L 151.092167 114.473695 
L 153.248707 114.108725 
L 155.405248 113.734581 
L 157.561788 113.351265 
L 159.718329 112.958776 
L 161.874869 112.557114 
L 164.031409 112.14628 
L 166.18795 111.726272 
L 168.34449 111.297091 
L 170.50103 110.858738 
L 172.657571 110.411211 
L 174.814111 109.954512 
L 176.970652 109.488639 
L 179.127192 109.013594 
L 181.283732 108.529376 
L 183.440273 108.035985 
L 185.596813 107.533421 
L 187.753354 107.021684 
L 189.909894 106.500774 
L 192.066434 105.970691 
L 194.222975 105.431435 
L 196.379515 104.883007 
L 198.536055 104.325405 
L 200.692596 103.758631 
L 202.849136 103.182683 
L 205.005677 102.597563 
L 207.162217 102.00327 
L 209.318757 101.399803 
L 211.475298 100.787164 
L 213.631838 100.165352 
L 215.788378 99.534367 
L 217.944919 98.894209 
L 220.101459 98.244879 
L 222.258 97.586375 
L 224.41454 96.918698 
L 226.57108 96.241849 
L 228.727621 95.555826 
L 230.884161 94.860631 
L 233.040702 94.156262 
L 235.197242 93.442721 
L 237.353782 92.720007 
L 239.510323 91.98812 
L 241.666863 91.24706 
L 243.823403 90.496827 
L 245.979944 89.737421 
L 248.136484 88.968842 
L 250.293025 88.191091 
L 252.449565 87.404166 
L 254.606105 86.608068 
L 256.762646 85.802798 
L 258.919186 84.988355 
L 261.075726 84.164738 
L 263.232267 83.331949 
L 265.388807 82.489987 
L 267.545348 81.638852 
L 269.701888 80.778544 
L 271.858428 79.909063 
L 274.014969 79.030409 
L 276.171509 78.142582 
L 278.32805 77.245582 
L 280.48459 76.33941 
L 282.64113 75.424064 
L 284.797671 74.499546 
L 286.954211 73.565854 
L 289.110751 72.62299 
L 291.267292 71.670953 
L 293.423832 70.709743 
L 295.580373 69.73936 
" clip-path="url(#p7e64fd8570)" style="fill: none; stroke: #0080ff; stroke-width: 1.5; stroke-linecap: square"/>
   </g>
   <g id="line2d_29">
    <path d="M 82.082875 92.070602 
L 84.239415 91.520342 
L 86.395956 90.969841 
L 88.552496 90.419099 
L 90.709036 89.868114 
L 92.865577 89.316889 
L 95.022117 88.765421 
L 97.178658 88.213713 
L 99.335198 87.661762 
L 101.491738 87.10957 
L 103.648279 86.557137 
L 105.804819 86.004462 
L 107.961359 85.451545 
L 110.1179 84.898387 
L 112.27444 84.344988 
L 114.430981 83.791347 
L 116.587521 83.237464 
L 118.744061 82.68334 
L 120.900602 82.128974 
L 123.057142 81.574367 
L 125.213682 81.019518 
L 127.370223 80.464427 
L 129.526763 79.909095 
L 131.683304 79.353522 
L 133.839844 78.797707 
L 135.996384 78.24165 
L 138.152925 77.685352 
L 140.309465 77.128813 
L 142.466006 76.572031 
L 144.622546 76.015009 
L 146.779086 75.457744 
L 148.935627 74.900239 
L 151.092167 74.342491 
L 153.248707 73.784502 
L 155.405248 73.226272 
L 157.561788 72.6678 
L 159.718329 72.109086 
L 161.874869 71.550131 
L 164.031409 70.990935 
L 166.18795 70.431496 
L 168.34449 69.871817 
L 170.50103 69.311896 
L 172.657571 68.751733 
L 174.814111 68.191328 
L 176.970652 67.630683 
L 179.127192 67.069795 
L 181.283732 66.508666 
L 183.440273 65.947296 
L 185.596813 65.385684 
L 187.753354 64.82383 
L 189.909894 64.261735 
L 192.066434 63.699398 
L 194.222975 63.13682 
L 196.379515 62.574 
L 198.536055 62.010939 
L 200.692596 61.447636 
L 202.849136 60.884092 
L 205.005677 60.320306 
L 207.162217 59.756278 
L 209.318757 59.192009 
L 211.475298 58.627499 
L 213.631838 58.062747 
L 215.788378 57.497753 
L 217.944919 56.932518 
L 220.101459 56.367041 
L 222.258 55.801323 
L 224.41454 55.235363 
L 226.57108 54.669162 
L 228.727621 54.102719 
L 230.884161 53.536034 
L 233.040702 52.969108 
L 235.197242 52.401941 
L 237.353782 51.834532 
L 239.510323 51.266881 
L 241.666863 50.698989 
L 243.823403 50.130855 
L 245.979944 49.56248 
L 248.136484 48.993863 
L 250.293025 48.425005 
L 252.449565 47.855905 
L 254.606105 47.286563 
L 256.762646 46.716981 
L 258.919186 46.147156 
L 261.075726 45.57709 
L 263.232267 45.006782 
L 265.388807 44.436233 
L 267.545348 43.865443 
L 269.701888 43.29441 
L 271.858428 42.723137 
L 274.014969 42.151621 
L 276.171509 41.579865 
L 278.32805 41.007866 
L 280.48459 40.435626 
L 282.64113 39.863145 
L 284.797671 39.290422 
L 286.954211 38.717457 
L 289.110751 38.144251 
L 291.267292 37.570803 
L 293.423832 36.997114 
L 295.580373 36.423184 
" clip-path="url(#p7e64fd8570)" style="fill: none; stroke: #7dff7a; stroke-width: 1.5; stroke-linecap: square"/>
   </g>
   <g id="line2d_30">
    <path d="M 82.082875 67.747012 
L 84.239415 66.988946 
L 86.395956 66.236398 
L 88.552496 65.48937 
L 90.709036 64.747861 
L 92.865577 64.011872 
L 95.022117 63.281401 
L 97.178658 62.55645 
L 99.335198 61.837017 
L 101.491738 61.123104 
L 103.648279 60.41471 
L 105.804819 59.711835 
L 107.961359 59.01448 
L 110.1179 58.322643 
L 112.27444 57.636326 
L 114.430981 56.955528 
L 116.587521 56.280248 
L 118.744061 55.610489 
L 120.900602 54.946248 
L 123.057142 54.287526 
L 125.213682 53.634324 
L 127.370223 52.986641 
L 129.526763 52.344477 
L 131.683304 51.707832 
L 133.839844 51.076706 
L 135.996384 50.451099 
L 138.152925 49.831012 
L 140.309465 49.216444 
L 142.466006 48.607394 
L 144.622546 48.003864 
L 146.779086 47.405854 
L 148.935627 46.813362 
L 151.092167 46.22639 
L 153.248707 45.644936 
L 155.405248 45.069002 
L 157.561788 44.498587 
L 159.718329 43.933691 
L 161.874869 43.374314 
L 164.031409 42.820457 
L 166.18795 42.272118 
L 168.34449 41.729299 
L 170.50103 41.191999 
L 172.657571 40.660218 
L 174.814111 40.133957 
L 176.970652 39.613214 
L 179.127192 39.09799 
L 181.283732 38.588286 
L 183.440273 38.084101 
L 185.596813 37.585435 
L 187.753354 37.092288 
L 189.909894 36.604661 
L 192.066434 36.122552 
L 194.222975 35.645963 
L 196.379515 35.174893 
L 198.536055 34.709342 
L 200.692596 34.24931 
L 202.849136 33.794797 
L 205.005677 33.345804 
L 207.162217 32.902329 
L 209.318757 32.464374 
L 211.475298 32.031938 
L 213.631838 31.605021 
L 215.788378 31.183623 
L 217.944919 30.767745 
L 220.101459 30.357385 
L 222.258 29.952545 
L 224.41454 29.553224 
L 226.57108 29.159422 
L 228.727621 28.771139 
L 230.884161 28.388376 
L 233.040702 28.011131 
L 235.197242 27.639406 
L 237.353782 27.2732 
L 239.510323 26.912513 
L 241.666863 26.557345 
L 243.823403 26.207696 
L 245.979944 25.863567 
L 248.136484 25.524956 
L 250.293025 25.191865 
L 252.449565 24.864293 
L 254.606105 24.54224 
L 256.762646 24.225707 
L 258.919186 23.914692 
L 261.075726 23.609197 
L 263.232267 23.30922 
L 265.388807 23.014763 
L 267.545348 22.725825 
L 269.701888 22.442407 
L 271.858428 22.164507 
L 274.014969 21.892127 
L 276.171509 21.625265 
L 278.32805 21.363923 
L 280.48459 21.1081 
L 282.64113 20.857796 
L 284.797671 20.613012 
L 286.954211 20.373746 
L 289.110751 20.14 
L 291.267292 19.911773 
L 293.423832 19.689065 
L 295.580373 19.471876 
" clip-path="url(#p7e64fd8570)" style="fill: none; stroke: #ff9400; stroke-width: 1.5; stroke-linecap: square"/>
   </g>
   <g id="line2d_31">
    <path d="M 82.082875 48.338669 
L 84.239415 47.643812 
L 86.395956 46.957064 
L 88.552496 46.278425 
L 90.709036 45.607895 
L 92.865577 44.945475 
L 95.022117 44.291163 
L 97.178658 43.644961 
L 99.335198 43.006868 
L 101.491738 42.376884 
L 103.648279 41.755009 
L 105.804819 41.141244 
L 107.961359 40.535588 
L 110.1179 39.938041 
L 112.27444 39.348603 
L 114.430981 38.767274 
L 116.587521 38.194054 
L 118.744061 37.628944 
L 120.900602 37.071943 
L 123.057142 36.523051 
L 125.213682 35.982268 
L 127.370223 35.449594 
L 129.526763 34.925029 
L 131.683304 34.408574 
L 133.839844 33.900228 
L 135.996384 33.399991 
L 138.152925 32.907863 
L 140.309465 32.423845 
L 142.466006 31.947935 
L 144.622546 31.480135 
L 146.779086 31.020444 
L 148.935627 30.568862 
L 151.092167 30.12539 
L 153.248707 29.690026 
L 155.405248 29.262772 
L 157.561788 28.843627 
L 159.718329 28.432591 
L 161.874869 28.029664 
L 164.031409 27.634846 
L 166.18795 27.248138 
L 168.34449 26.869539 
L 170.50103 26.499049 
L 172.657571 26.136668 
L 174.814111 25.782396 
L 176.970652 25.436234 
L 179.127192 25.09818 
L 181.283732 24.768236 
L 183.440273 24.446401 
L 185.596813 24.132675 
L 187.753354 23.827059 
L 189.909894 23.529551 
L 192.066434 23.240153 
L 194.222975 22.958864 
L 196.379515 22.685684 
L 198.536055 22.420614 
L 200.692596 22.163652 
L 202.849136 21.9148 
L 205.005677 21.674057 
L 207.162217 21.441423 
L 209.318757 21.216898 
L 211.475298 21.000482 
L 213.631838 20.792176 
L 215.788378 20.591979 
L 217.944919 20.399891 
L 220.101459 20.215912 
L 222.258 20.040042 
L 224.41454 19.872282 
L 226.57108 19.71263 
L 228.727621 19.561088 
L 230.884161 19.417655 
L 233.040702 19.282332 
L 235.197242 19.155117 
L 237.353782 19.036012 
L 239.510323 18.925015 
L 241.666863 18.822128 
L 243.823403 18.72735 
L 245.979944 18.640682 
L 248.136484 18.562122 
L 250.293025 18.491672 
L 252.449565 18.429331 
L 254.606105 18.375099 
L 256.762646 18.328976 
L 258.919186 18.290963 
L 261.075726 18.261058 
L 263.232267 18.239263 
L 265.388807 18.225577 
L 267.545348 18.22 
L 269.701888 18.222532 
L 271.858428 18.233174 
L 274.014969 18.251925 
L 276.171509 18.278784 
L 278.32805 18.313753 
L 280.48459 18.356832 
L 282.64113 18.408019 
L 284.797671 18.467316 
L 286.954211 18.534721 
L 289.110751 18.610236 
L 291.267292 18.693861 
L 293.423832 18.785594 
L 295.580373 18.885436 
" clip-path="url(#p7e64fd8570)" style="fill: none; stroke: #800000; stroke-width: 1.5; stroke-linecap: square"/>
   </g>
   <g id="patch_3">
    <path d="M 71.408 174.04 
L 71.408 10.8 
" style="fill: none; stroke: #000000; stroke-width: 0.8; stroke-linejoin: miter; stroke-linecap: square"/>
   </g>
   <g id="patch_4">
    <path d="M 306.255247 174.04 
L 306.255247 10.8 
" style="fill: none; stroke: #000000; stroke-width: 0.8; stroke-linejoin: miter; stroke-linecap: square"/>
   </g>
   <g id="patch_5">
    <path d="M 71.408 174.04 
L 306.255247 174.04 
" style="fill: none; stroke: #000000; stroke-width: 0.8; stroke-linejoin: miter; stroke-linecap: square"/>
   </g>
   <g id="patch_6">
    <path d="M 71.408 10.8 
L 306.255247 10.8 
" style="fill: none; stroke: #000000; stroke-width: 0.8; stroke-linejoin: miter; stroke-linecap: square"/>
   </g>
   <g id="legend_1">
    <g id="patch_7">
     <path d="M 315.255247 162.878 
L 420.455247 162.878 
Q 422.455247 162.878 422.455247 160.878 
L 422.455247 88.385812 
Q 422.455247 86.385812 420.455247 86.385812 
L 315.255247 86.385812 
Q 313.255247 86.385812 313.255247 88.385812 
L 313.255247 160.878 
Q 313.255247 162.878 315.255247 162.878 
z
" style="fill: #4d4d4d; opacity: 0.5; stroke: #4d4d4d; stroke-linejoin: miter"/>
    </g>
    <g id="patch_8">
     <path d="M 313.255247 160.878 
L 418.455247 160.878 
Q 420.455247 160.878 420.455247 158.878 
L 420.455247 86.385812 
Q 420.455247 84.385812 418.455247 84.385812 
L 313.255247 84.385812 
Q 311.255247 84.385812 311.255247 86.385812 
L 311.255247 158.878 
Q 311.255247 160.878 313.255247 160.878 
z
" style="fill: #ffffff; stroke: #cccccc; stroke-linejoin: miter"/>
    </g>
    <g id="line2d_32">
     <path d="M 315.255247 92.48425 
L 325.255247 92.48425 
L 335.255247 92.48425 
" style="fill: none; stroke: #000080; stroke-width: 1.5; stroke-linecap: square"/>
    </g>
    <g id="text_16">
     <!-- $\delta_e = 0$, $J = 1.60$ -->
     <g transform="translate(343.255247 95.98425) scale(0.1 -0.1)">
      <defs>
       <path id="DejaVuSans-3d" d="M 678 2906 
L 4684 2906 
L 4684 2381 
L 678 2381 
L 678 2906 
z
M 678 1631 
L 4684 1631 
L 4684 1100 
L 678 1100 
L 678 1631 
z
" transform="scale(0.015625)"/>
       <path id="DejaVuSans-2c" d="M 750 794 
L 1409 794 
L 1409 256 
L 897 -744 
L 494 -744 
L 750 256 
L 750 794 
z
" transform="scale(0.015625)"/>
       <path id="DejaVuSans-Oblique-4a" d="M 1069 4666 
L 1703 4666 
L 856 325 
Q 691 -522 298 -901 
Q -94 -1281 -800 -1281 
L -1050 -1281 
L -947 -750 
L -750 -750 
Q -328 -750 -109 -509 
Q 109 -269 225 325 
L 1069 4666 
z
" transform="scale(0.015625)"/>
      </defs>
      <use xlink:href="#DejaVuSans-Oblique-3b4" transform="translate(0 0.78125)"/>
      <use xlink:href="#DejaVuSans-Oblique-65" transform="translate(61.181641 -15.625) scale(0.7)"/>
      <use xlink:href="#DejaVuSans-3d" transform="translate(126.464844 0.78125)"/>
      <use xlink:href="#DejaVuSans-30" transform="translate(229.736328 0.78125)"/>
      <use xlink:href="#DejaVuSans-2c" transform="translate(293.359375 0.78125)"/>
      <use xlink:href="#DejaVuSans-20" transform="translate(325.146484 0.78125)"/>
      <use xlink:href="#DejaVuSans-Oblique-4a" transform="translate(356.933594 0.78125)"/>
      <use xlink:href="#DejaVuSans-3d" transform="translate(405.908203 0.78125)"/>
      <use xlink:href="#DejaVuSans-31" transform="translate(509.179688 0.78125)"/>
      <use xlink:href="#DejaVuSans-2e" transform="translate(572.802734 0.78125)"/>
      <use xlink:href="#DejaVuSans-36" transform="translate(604.589844 0.78125)"/>
      <use xlink:href="#DejaVuSans-30" transform="translate(668.212891 0.78125)"/>
     </g>
    </g>
    <g id="line2d_33">
     <path d="M 315.255247 107.182688 
L 325.255247 107.182688 
L 335.255247 107.182688 
" style="fill: none; stroke: #0080ff; stroke-width: 1.5; stroke-linecap: square"/>
    </g>
    <g id="text_17">
     <!-- $\delta_e = 0$, $J = 1.80$ -->
     <g transform="translate(343.255247 110.682688) scale(0.1 -0.1)">
      <use xlink:href="#DejaVuSans-Oblique-3b4" transform="translate(0 0.78125)"/>
      <use xlink:href="#DejaVuSans-Oblique-65" transform="translate(61.181641 -15.625) scale(0.7)"/>
      <use xlink:href="#DejaVuSans-3d" transform="translate(126.464844 0.78125)"/>
      <use xlink:href="#DejaVuSans-30" transform="translate(229.736328 0.78125)"/>
      <use xlink:href="#DejaVuSans-2c" transform="translate(293.359375 0.78125)"/>
      <use xlink:href="#DejaVuSans-20" transform="translate(325.146484 0.78125)"/>
      <use xlink:href="#DejaVuSans-Oblique-4a" transform="translate(356.933594 0.78125)"/>
      <use xlink:href="#DejaVuSans-3d" transform="translate(405.908203 0.78125)"/>
      <use xlink:href="#DejaVuSans-31" transform="translate(509.179688 0.78125)"/>
      <use xlink:href="#DejaVuSans-2e" transform="translate(572.802734 0.78125)"/>
      <use xlink:href="#DejaVuSans-38" transform="translate(601.964844 0.78125)"/>
      <use xlink:href="#DejaVuSans-30" transform="translate(665.587891 0.78125)"/>
     </g>
    </g>
    <g id="line2d_34">
     <path d="M 315.255247 121.881125 
L 325.255247 121.881125 
L 335.255247 121.881125 
" style="fill: none; stroke: #7dff7a; stroke-width: 1.5; stroke-linecap: square"/>
    </g>
    <g id="text_18">
     <!-- $\delta_e = 0$, $J = 2.00$ -->
     <g transform="translate(343.255247 125.381125) scale(0.1 -0.1)">
      <use xlink:href="#DejaVuSans-Oblique-3b4" transform="translate(0 0.78125)"/>
      <use xlink:href="#DejaVuSans-Oblique-65" transform="translate(61.181641 -15.625) scale(0.7)"/>
      <use xlink:href="#DejaVuSans-3d" transform="translate(126.464844 0.78125)"/>
      <use xlink:href="#DejaVuSans-30" transform="translate(229.736328 0.78125)"/>
      <use xlink:href="#DejaVuSans-2c" transform="translate(293.359375 0.78125)"/>
      <use xlink:href="#DejaVuSans-20" transform="translate(325.146484 0.78125)"/>
      <use xlink:href="#DejaVuSans-Oblique-4a" transform="translate(356.933594 0.78125)"/>
      <use xlink:href="#DejaVuSans-3d" transform="translate(405.908203 0.78125)"/>
      <use xlink:href="#DejaVuSans-32" transform="translate(509.179688 0.78125)"/>
      <use xlink:href="#DejaVuSans-2e" transform="translate(572.802734 0.78125)"/>
      <use xlink:href="#DejaVuSans-30" transform="translate(604.589844 0.78125)"/>
      <use xlink:href="#DejaVuSans-30" transform="translate(668.212891 0.78125)"/>
     </g>
    </g>
    <g id="line2d_35">
     <path d="M 315.255247 136.579563 
L 325.255247 136.579563 
L 335.255247 136.579563 
" style="fill: none; stroke: #ff9400; stroke-width: 1.5; stroke-linecap: square"/>
    </g>
    <g id="text_19">
     <!-- $\delta_e = 0$, $J = 2.20$ -->
     <g transform="translate(343.255247 140.079563) scale(0.1 -0.1)">
      <use xlink:href="#DejaVuSans-Oblique-3b4" transform="translate(0 0.78125)"/>
      <use xlink:href="#DejaVuSans-Oblique-65" transform="translate(61.181641 -15.625) scale(0.7)"/>
      <use xlink:href="#DejaVuSans-3d" transform="translate(126.464844 0.78125)"/>
      <use xlink:href="#DejaVuSans-30" transform="translate(229.736328 0.78125)"/>
      <use xlink:href="#DejaVuSans-2c" transform="translate(293.359375 0.78125)"/>
      <use xlink:href="#DejaVuSans-20" transform="translate(325.146484 0.78125)"/>
      <use xlink:href="#DejaVuSans-Oblique-4a" transform="translate(356.933594 0.78125)"/>
      <use xlink:href="#DejaVuSans-3d" transform="translate(405.908203 0.78125)"/>
      <use xlink:href="#DejaVuSans-32" transform="translate(509.179688 0.78125)"/>
      <use xlink:href="#DejaVuSans-2e" transform="translate(572.802734 0.78125)"/>
      <use xlink:href="#DejaVuSans-32" transform="translate(599.089844 0.78125)"/>
      <use xlink:href="#DejaVuSans-30" transform="translate(662.712891 0.78125)"/>
     </g>
    </g>
    <g id="line2d_36">
     <path d="M 315.255247 151.278 
L 325.255247 151.278 
L 335.255247 151.278 
" style="fill: none; stroke: #800000; stroke-width: 1.5; stroke-linecap: square"/>
    </g>
    <g id="text_20">
     <!-- $\delta_e = 0$, $J = 2.40$ -->
     <g transform="translate(343.255247 154.778) scale(0.1 -0.1)">
      <use xlink:href="#DejaVuSans-Oblique-3b4" transform="translate(0 0.78125)"/>
      <use xlink:href="#DejaVuSans-Oblique-65" transform="translate(61.181641 -15.625) scale(0.7)"/>
      <use xlink:href="#DejaVuSans-3d" transform="translate(126.464844 0.78125)"/>
      <use xlink:href="#DejaVuSans-30" transform="translate(229.736328 0.78125)"/>
      <use xlink:href="#DejaVuSans-2c" transform="translate(293.359375 0.78125)"/>
      <use xlink:href="#DejaVuSans-20" transform="translate(325.146484 0.78125)"/>
      <use xlink:href="#DejaVuSans-Oblique-4a" transform="translate(356.933594 0.78125)"/>
      <use xlink:href="#DejaVuSans-3d" transform="translate(405.908203 0.78125)"/>
      <use xlink:href="#DejaVuSans-32" transform="translate(509.179688 0.78125)"/>
      <use xlink:href="#DejaVuSans-2e" transform="translate(572.802734 0.78125)"/>
      <use xlink:href="#DejaVuSans-34" transform="translate(604.589844 0.78125)"/>
      <use xlink:href="#DejaVuSans-30" transform="translate(668.212891 0.78125)"/>
     </g>
    </g>
   </g>
  </g>
 </g>
 <defs>
  <clipPath id="p7e64fd8570">
   <rect x="71.408" y="10.8" width="234.847247" height="163.24"/>
  </clipPath>
 </defs>
</svg>
