<?xml version="1.0" encoding="utf-8" standalone="no"?>
<!DOCTYPE svg PUBLIC "-//W3C//DTD SVG 1.1//EN"
  "http://www.w3.org/Graphics/SVG/1.1/DTD/svg11.dtd">
<svg xmlns:xlink="http://www.w3.org/1999/xlink" width="576pt" height="216pt" viewBox="0 0 576 216" xmlns="http://www.w3.org/2000/svg" version="1.1">
 <metadata>
  <rdf:RDF xmlns:dc="http://purl.org/dc/elements/1.1/" xmlns:cc="http://creativecommons.org/ns#" xmlns:rdf="http://www.w3.org/1999/02/22-rdf-syntax-ns#">
   <cc:Work>
    <dc:type rdf:resource="http://purl.org/dc/dcmitype/StillImage"/>
    <dc:date>2025-03-28T09:42:58.040785</dc:date>
    <dc:format>image/svg+xml</dc:format>
    <dc:creator>
     <cc:Agent>
      <dc:title>Matplotlib v3.9.2, https://matplotlib.org/</dc:title>
     </cc:Agent>
    </dc:creator>
   </cc:Work>
  </rdf:RDF>
 </metadata>
 <defs>
  <style type="text/css">*{stroke-linejoin: round; stroke-linecap: butt}</style>
 </defs>
 <g id="figure_1">
  <g id="patch_1">
   <path d="M 0 216 
L 576 216 
L 576 0 
L 0 0 
z
" style="fill: #ffffff"/>
  </g>
  <g id="axes_1">
   <g id="patch_2">
    <path d="M 77.798 174.04 
L 450.255247 174.04 
L 450.255247 10.8 
L 77.798 10.8 
z
" style="fill: #ffffff"/>
   </g>
   <g id="matplotlib.axis_1">
    <g id="xtick_1">
     <g id="line2d_1">
      <path d="M 94.727875 174.04 
L 94.727875 10.8 
" clip-path="url(#p7ebe0ecaff)" style="fill: none; stroke: #b0b0b0; stroke-width: 0.8; stroke-linecap: square"/>
     </g>
     <g id="line2d_2">
      <defs>
       <path id="m196d2a511f" d="M 0 0 
L 0 3.5 
" style="stroke: #000000; stroke-width: 0.8"/>
      </defs>
      <g>
       <use xlink:href="#m196d2a511f" x="94.727875" y="174.04" style="stroke: #000000; stroke-width: 0.8"/>
      </g>
     </g>
     <g id="text_1">
      <!-- −4 -->
      <g transform="translate(87.356781 188.638438) scale(0.1 -0.1)">
       <defs>
        <path id="DejaVuSans-2212" d="M 678 2272 
L 4684 2272 
L 4684 1741 
L 678 1741 
L 678 2272 
z
" transform="scale(0.015625)"/>
        <path id="DejaVuSans-34" d="M 2419 4116 
L 825 1625 
L 2419 1625 
L 2419 4116 
z
M 2253 4666 
L 3047 4666 
L 3047 1625 
L 3713 1625 
L 3713 1100 
L 3047 1100 
L 3047 0 
L 2419 0 
L 2419 1100 
L 313 1100 
L 313 1709 
L 2253 4666 
z
" transform="scale(0.015625)"/>
       </defs>
       <use xlink:href="#DejaVuSans-2212"/>
       <use xlink:href="#DejaVuSans-34" x="83.789062"/>
      </g>
     </g>
    </g>
    <g id="xtick_2">
     <g id="line2d_3">
      <path d="M 156.291056 174.04 
L 156.291056 10.8 
" clip-path="url(#p7ebe0ecaff)" style="fill: none; stroke: #b0b0b0; stroke-width: 0.8; stroke-linecap: square"/>
     </g>
     <g id="line2d_4">
      <g>
       <use xlink:href="#m196d2a511f" x="156.291056" y="174.04" style="stroke: #000000; stroke-width: 0.8"/>
      </g>
     </g>
     <g id="text_2">
      <!-- −2 -->
      <g transform="translate(148.919963 188.638438) scale(0.1 -0.1)">
       <defs>
        <path id="DejaVuSans-32" d="M 1228 531 
L 3431 531 
L 3431 0 
L 469 0 
L 469 531 
Q 828 903 1448 1529 
Q 2069 2156 2228 2338 
Q 2531 2678 2651 2914 
Q 2772 3150 2772 3378 
Q 2772 3750 2511 3984 
Q 2250 4219 1831 4219 
Q 1534 4219 1204 4116 
Q 875 4013 500 3803 
L 500 4441 
Q 881 4594 1212 4672 
Q 1544 4750 1819 4750 
Q 2544 4750 2975 4387 
Q 3406 4025 3406 3419 
Q 3406 3131 3298 2873 
Q 3191 2616 2906 2266 
Q 2828 2175 2409 1742 
Q 1991 1309 1228 531 
z
" transform="scale(0.015625)"/>
       </defs>
       <use xlink:href="#DejaVuSans-2212"/>
       <use xlink:href="#DejaVuSans-32" x="83.789062"/>
      </g>
     </g>
    </g>
    <g id="xtick_3">
     <g id="line2d_5">
      <path d="M 217.854238 174.04 
L 217.854238 10.8 
" clip-path="url(#p7ebe0ecaff)" style="fill: none; stroke: #b0b0b0; stroke-width: 0.8; stroke-linecap: square"/>
     </g>
     <g id="line2d_6">
      <g>
       <use xlink:href="#m196d2a511f" x="217.854238" y="174.04" style="stroke: #000000; stroke-width: 0.8"/>
      </g>
     </g>
     <g id="text_3">
      <!-- 0 -->
      <g transform="translate(214.672988 188.638438) scale(0.1 -0.1)">
       <defs>
        <path id="DejaVuSans-30" d="M 2034 4250 
Q 1547 4250 1301 3770 
Q 1056 3291 1056 2328 
Q 1056 1369 1301 889 
Q 1547 409 2034 409 
Q 2525 409 2770 889 
Q 3016 1369 3016 2328 
Q 3016 3291 2770 3770 
Q 2525 4250 2034 4250 
z
M 2034 4750 
Q 2819 4750 3233 4129 
Q 3647 3509 3647 2328 
Q 3647 1150 3233 529 
Q 2819 -91 2034 -91 
Q 1250 -91 836 529 
Q 422 1150 422 2328 
Q 422 3509 836 4129 
Q 1250 4750 2034 4750 
z
" transform="scale(0.015625)"/>
       </defs>
       <use xlink:href="#DejaVuSans-30"/>
      </g>
     </g>
    </g>
    <g id="xtick_4">
     <g id="line2d_7">
      <path d="M 279.417419 174.04 
L 279.417419 10.8 
" clip-path="url(#p7ebe0ecaff)" style="fill: none; stroke: #b0b0b0; stroke-width: 0.8; stroke-linecap: square"/>
     </g>
     <g id="line2d_8">
      <g>
       <use xlink:href="#m196d2a511f" x="279.417419" y="174.04" style="stroke: #000000; stroke-width: 0.8"/>
      </g>
     </g>
     <g id="text_4">
      <!-- 2 -->
      <g transform="translate(276.236169 188.638438) scale(0.1 -0.1)">
       <use xlink:href="#DejaVuSans-32"/>
      </g>
     </g>
    </g>
    <g id="xtick_5">
     <g id="line2d_9">
      <path d="M 340.9806 174.04 
L 340.9806 10.8 
" clip-path="url(#p7ebe0ecaff)" style="fill: none; stroke: #b0b0b0; stroke-width: 0.8; stroke-linecap: square"/>
     </g>
     <g id="line2d_10">
      <g>
       <use xlink:href="#m196d2a511f" x="340.9806" y="174.04" style="stroke: #000000; stroke-width: 0.8"/>
      </g>
     </g>
     <g id="text_5">
      <!-- 4 -->
      <g transform="translate(337.79935 188.638438) scale(0.1 -0.1)">
       <use xlink:href="#DejaVuSans-34"/>
      </g>
     </g>
    </g>
    <g id="xtick_6">
     <g id="line2d_11">
      <path d="M 402.543782 174.04 
L 402.543782 10.8 
" clip-path="url(#p7ebe0ecaff)" style="fill: none; stroke: #b0b0b0; stroke-width: 0.8; stroke-linecap: square"/>
     </g>
     <g id="line2d_12">
      <g>
       <use xlink:href="#m196d2a511f" x="402.543782" y="174.04" style="stroke: #000000; stroke-width: 0.8"/>
      </g>
     </g>
     <g id="text_6">
      <!-- 6 -->
      <g transform="translate(399.362532 188.638438) scale(0.1 -0.1)">
       <defs>
        <path id="DejaVuSans-36" d="M 2113 2584 
Q 1688 2584 1439 2293 
Q 1191 2003 1191 1497 
Q 1191 994 1439 701 
Q 1688 409 2113 409 
Q 2538 409 2786 701 
Q 3034 994 3034 1497 
Q 3034 2003 2786 2293 
Q 2538 2584 2113 2584 
z
M 3366 4563 
L 3366 3988 
Q 3128 4100 2886 4159 
Q 2644 4219 2406 4219 
Q 1781 4219 1451 3797 
Q 1122 3375 1075 2522 
Q 1259 2794 1537 2939 
Q 1816 3084 2150 3084 
Q 2853 3084 3261 2657 
Q 3669 2231 3669 1497 
Q 3669 778 3244 343 
Q 2819 -91 2113 -91 
Q 1303 -91 875 529 
Q 447 1150 447 2328 
Q 447 3434 972 4092 
Q 1497 4750 2381 4750 
Q 2619 4750 2861 4703 
Q 3103 4656 3366 4563 
z
" transform="scale(0.015625)"/>
       </defs>
       <use xlink:href="#DejaVuSans-36"/>
      </g>
     </g>
    </g>
    <g id="text_7">
     <!-- $\alpha$ -->
     <g transform="translate(260.726624 202.316563) scale(0.1 -0.1)">
      <defs>
       <path id="DejaVuSans-Oblique-3b1" d="M 2619 1628 
L 2622 2350 
Q 2625 3088 2069 3091 
Q 1653 3094 1394 2747 
Q 1069 2319 959 1747 
Q 825 1059 994 731 
Q 1169 397 1547 397 
Q 1966 397 2319 1063 
L 2619 1628 
z
M 2166 3578 
Q 3141 3594 3128 2584 
Q 3128 2584 3616 3500 
L 4128 3500 
L 3119 1603 
L 3109 919 
Q 3109 766 3194 638 
Q 3291 488 3391 488 
L 3669 488 
L 3575 0 
L 3228 0 
Q 2934 0 2722 263 
Q 2622 394 2619 669 
Q 2416 334 2066 50 
Q 1900 -81 1453 -78 
Q 722 -72 456 397 
Q 184 884 353 1747 
Q 534 2675 1009 3097 
Q 1544 3569 2166 3578 
z
" transform="scale(0.015625)"/>
      </defs>
      <use xlink:href="#DejaVuSans-Oblique-3b1" transform="translate(0 0.84375)"/>
     </g>
    </g>
   </g>
   <g id="matplotlib.axis_2">
    <g id="ytick_1">
     <g id="line2d_13">
      <path d="M 77.798 173.185728 
L 450.255247 173.185728 
" clip-path="url(#p7ebe0ecaff)" style="fill: none; stroke: #b0b0b0; stroke-width: 0.8; stroke-linecap: square"/>
     </g>
     <g id="line2d_14">
      <defs>
       <path id="mc908cbc9d8" d="M 0 0 
L -3.5 0 
" style="stroke: #000000; stroke-width: 0.8"/>
      </defs>
      <g>
       <use xlink:href="#mc908cbc9d8" x="77.798" y="173.185728" style="stroke: #000000; stroke-width: 0.8"/>
      </g>
     </g>
     <g id="text_8">
      <!-- −0.0525 -->
      <g transform="translate(27.427687 176.984947) scale(0.1 -0.1)">
       <defs>
        <path id="DejaVuSans-2e" d="M 684 794 
L 1344 794 
L 1344 0 
L 684 0 
L 684 794 
z
" transform="scale(0.015625)"/>
        <path id="DejaVuSans-35" d="M 691 4666 
L 3169 4666 
L 3169 4134 
L 1269 4134 
L 1269 2991 
Q 1406 3038 1543 3061 
Q 1681 3084 1819 3084 
Q 2600 3084 3056 2656 
Q 3513 2228 3513 1497 
Q 3513 744 3044 326 
Q 2575 -91 1722 -91 
Q 1428 -91 1123 -41 
Q 819 9 494 109 
L 494 744 
Q 775 591 1075 516 
Q 1375 441 1709 441 
Q 2250 441 2565 725 
Q 2881 1009 2881 1497 
Q 2881 1984 2565 2268 
Q 2250 2553 1709 2553 
Q 1456 2553 1204 2497 
Q 953 2441 691 2322 
L 691 4666 
z
" transform="scale(0.015625)"/>
       </defs>
       <use xlink:href="#DejaVuSans-2212"/>
       <use xlink:href="#DejaVuSans-30" x="83.789062"/>
       <use xlink:href="#DejaVuSans-2e" x="147.412109"/>
       <use xlink:href="#DejaVuSans-30" x="179.199219"/>
       <use xlink:href="#DejaVuSans-35" x="242.822266"/>
       <use xlink:href="#DejaVuSans-32" x="306.445312"/>
       <use xlink:href="#DejaVuSans-35" x="370.068359"/>
      </g>
     </g>
    </g>
    <g id="ytick_2">
     <g id="line2d_15">
      <path d="M 77.798 152.734871 
L 450.255247 152.734871 
" clip-path="url(#p7ebe0ecaff)" style="fill: none; stroke: #b0b0b0; stroke-width: 0.8; stroke-linecap: square"/>
     </g>
     <g id="line2d_16">
      <g>
       <use xlink:href="#mc908cbc9d8" x="77.798" y="152.734871" style="stroke: #000000; stroke-width: 0.8"/>
      </g>
     </g>
     <g id="text_9">
      <!-- −0.0500 -->
      <g transform="translate(27.427687 156.53409) scale(0.1 -0.1)">
       <use xlink:href="#DejaVuSans-2212"/>
       <use xlink:href="#DejaVuSans-30" x="83.789062"/>
       <use xlink:href="#DejaVuSans-2e" x="147.412109"/>
       <use xlink:href="#DejaVuSans-30" x="179.199219"/>
       <use xlink:href="#DejaVuSans-35" x="242.822266"/>
       <use xlink:href="#DejaVuSans-30" x="306.445312"/>
       <use xlink:href="#DejaVuSans-30" x="370.068359"/>
      </g>
     </g>
    </g>
    <g id="ytick_3">
     <g id="line2d_17">
      <path d="M 77.798 132.284014 
L 450.255247 132.284014 
" clip-path="url(#p7ebe0ecaff)" style="fill: none; stroke: #b0b0b0; stroke-width: 0.8; stroke-linecap: square"/>
     </g>
     <g id="line2d_18">
      <g>
       <use xlink:href="#mc908cbc9d8" x="77.798" y="132.284014" style="stroke: #000000; stroke-width: 0.8"/>
      </g>
     </g>
     <g id="text_10">
      <!-- −0.0475 -->
      <g transform="translate(27.427687 136.083233) scale(0.1 -0.1)">
       <defs>
        <path id="DejaVuSans-37" d="M 525 4666 
L 3525 4666 
L 3525 4397 
L 1831 0 
L 1172 0 
L 2766 4134 
L 525 4134 
L 525 4666 
z
" transform="scale(0.015625)"/>
       </defs>
       <use xlink:href="#DejaVuSans-2212"/>
       <use xlink:href="#DejaVuSans-30" x="83.789062"/>
       <use xlink:href="#DejaVuSans-2e" x="147.412109"/>
       <use xlink:href="#DejaVuSans-30" x="179.199219"/>
       <use xlink:href="#DejaVuSans-34" x="242.822266"/>
       <use xlink:href="#DejaVuSans-37" x="306.445312"/>
       <use xlink:href="#DejaVuSans-35" x="370.068359"/>
      </g>
     </g>
    </g>
    <g id="ytick_4">
     <g id="line2d_19">
      <path d="M 77.798 111.833157 
L 450.255247 111.833157 
" clip-path="url(#p7ebe0ecaff)" style="fill: none; stroke: #b0b0b0; stroke-width: 0.8; stroke-linecap: square"/>
     </g>
     <g id="line2d_20">
      <g>
       <use xlink:href="#mc908cbc9d8" x="77.798" y="111.833157" style="stroke: #000000; stroke-width: 0.8"/>
      </g>
     </g>
     <g id="text_11">
      <!-- −0.0450 -->
      <g transform="translate(27.427687 115.632376) scale(0.1 -0.1)">
       <use xlink:href="#DejaVuSans-2212"/>
       <use xlink:href="#DejaVuSans-30" x="83.789062"/>
       <use xlink:href="#DejaVuSans-2e" x="147.412109"/>
       <use xlink:href="#DejaVuSans-30" x="179.199219"/>
       <use xlink:href="#DejaVuSans-34" x="242.822266"/>
       <use xlink:href="#DejaVuSans-35" x="306.445312"/>
       <use xlink:href="#DejaVuSans-30" x="370.068359"/>
      </g>
     </g>
    </g>
    <g id="ytick_5">
     <g id="line2d_21">
      <path d="M 77.798 91.3823 
L 450.255247 91.3823 
" clip-path="url(#p7ebe0ecaff)" style="fill: none; stroke: #b0b0b0; stroke-width: 0.8; stroke-linecap: square"/>
     </g>
     <g id="line2d_22">
      <g>
       <use xlink:href="#mc908cbc9d8" x="77.798" y="91.3823" style="stroke: #000000; stroke-width: 0.8"/>
      </g>
     </g>
     <g id="text_12">
      <!-- −0.0425 -->
      <g transform="translate(27.427687 95.181519) scale(0.1 -0.1)">
       <use xlink:href="#DejaVuSans-2212"/>
       <use xlink:href="#DejaVuSans-30" x="83.789062"/>
       <use xlink:href="#DejaVuSans-2e" x="147.412109"/>
       <use xlink:href="#DejaVuSans-30" x="179.199219"/>
       <use xlink:href="#DejaVuSans-34" x="242.822266"/>
       <use xlink:href="#DejaVuSans-32" x="306.445312"/>
       <use xlink:href="#DejaVuSans-35" x="370.068359"/>
      </g>
     </g>
    </g>
    <g id="ytick_6">
     <g id="line2d_23">
      <path d="M 77.798 70.931444 
L 450.255247 70.931444 
" clip-path="url(#p7ebe0ecaff)" style="fill: none; stroke: #b0b0b0; stroke-width: 0.8; stroke-linecap: square"/>
     </g>
     <g id="line2d_24">
      <g>
       <use xlink:href="#mc908cbc9d8" x="77.798" y="70.931444" style="stroke: #000000; stroke-width: 0.8"/>
      </g>
     </g>
     <g id="text_13">
      <!-- −0.0400 -->
      <g transform="translate(27.427687 74.730662) scale(0.1 -0.1)">
       <use xlink:href="#DejaVuSans-2212"/>
       <use xlink:href="#DejaVuSans-30" x="83.789062"/>
       <use xlink:href="#DejaVuSans-2e" x="147.412109"/>
       <use xlink:href="#DejaVuSans-30" x="179.199219"/>
       <use xlink:href="#DejaVuSans-34" x="242.822266"/>
       <use xlink:href="#DejaVuSans-30" x="306.445312"/>
       <use xlink:href="#DejaVuSans-30" x="370.068359"/>
      </g>
     </g>
    </g>
    <g id="ytick_7">
     <g id="line2d_25">
      <path d="M 77.798 50.480587 
L 450.255247 50.480587 
" clip-path="url(#p7ebe0ecaff)" style="fill: none; stroke: #b0b0b0; stroke-width: 0.8; stroke-linecap: square"/>
     </g>
     <g id="line2d_26">
      <g>
       <use xlink:href="#mc908cbc9d8" x="77.798" y="50.480587" style="stroke: #000000; stroke-width: 0.8"/>
      </g>
     </g>
     <g id="text_14">
      <!-- −0.0375 -->
      <g transform="translate(27.427687 54.279805) scale(0.1 -0.1)">
       <defs>
        <path id="DejaVuSans-33" d="M 2597 2516 
Q 3050 2419 3304 2112 
Q 3559 1806 3559 1356 
Q 3559 666 3084 287 
Q 2609 -91 1734 -91 
Q 1441 -91 1130 -33 
Q 819 25 488 141 
L 488 750 
Q 750 597 1062 519 
Q 1375 441 1716 441 
Q 2309 441 2620 675 
Q 2931 909 2931 1356 
Q 2931 1769 2642 2001 
Q 2353 2234 1838 2234 
L 1294 2234 
L 1294 2753 
L 1863 2753 
Q 2328 2753 2575 2939 
Q 2822 3125 2822 3475 
Q 2822 3834 2567 4026 
Q 2313 4219 1838 4219 
Q 1578 4219 1281 4162 
Q 984 4106 628 3988 
L 628 4550 
Q 988 4650 1302 4700 
Q 1616 4750 1894 4750 
Q 2613 4750 3031 4423 
Q 3450 4097 3450 3541 
Q 3450 3153 3228 2886 
Q 3006 2619 2597 2516 
z
" transform="scale(0.015625)"/>
       </defs>
       <use xlink:href="#DejaVuSans-2212"/>
       <use xlink:href="#DejaVuSans-30" x="83.789062"/>
       <use xlink:href="#DejaVuSans-2e" x="147.412109"/>
       <use xlink:href="#DejaVuSans-30" x="179.199219"/>
       <use xlink:href="#DejaVuSans-33" x="242.822266"/>
       <use xlink:href="#DejaVuSans-37" x="306.445312"/>
       <use xlink:href="#DejaVuSans-35" x="370.068359"/>
      </g>
     </g>
    </g>
    <g id="ytick_8">
     <g id="line2d_27">
      <path d="M 77.798 30.02973 
L 450.255247 30.02973 
" clip-path="url(#p7ebe0ecaff)" style="fill: none; stroke: #b0b0b0; stroke-width: 0.8; stroke-linecap: square"/>
     </g>
     <g id="line2d_28">
      <g>
       <use xlink:href="#mc908cbc9d8" x="77.798" y="30.02973" style="stroke: #000000; stroke-width: 0.8"/>
      </g>
     </g>
     <g id="text_15">
      <!-- −0.0350 -->
      <g transform="translate(27.427687 33.828949) scale(0.1 -0.1)">
       <use xlink:href="#DejaVuSans-2212"/>
       <use xlink:href="#DejaVuSans-30" x="83.789062"/>
       <use xlink:href="#DejaVuSans-2e" x="147.412109"/>
       <use xlink:href="#DejaVuSans-30" x="179.199219"/>
       <use xlink:href="#DejaVuSans-33" x="242.822266"/>
       <use xlink:href="#DejaVuSans-35" x="306.445312"/>
       <use xlink:href="#DejaVuSans-30" x="370.068359"/>
      </g>
     </g>
    </g>
    <g id="text_16">
     <!-- d$C_M$ / d$\alpha$ -->
     <g transform="translate(21.348 113.62) rotate(-90) scale(0.1 -0.1)">
      <defs>
       <path id="DejaVuSans-64" d="M 2906 2969 
L 2906 4863 
L 3481 4863 
L 3481 0 
L 2906 0 
L 2906 525 
Q 2725 213 2448 61 
Q 2172 -91 1784 -91 
Q 1150 -91 751 415 
Q 353 922 353 1747 
Q 353 2572 751 3078 
Q 1150 3584 1784 3584 
Q 2172 3584 2448 3432 
Q 2725 3281 2906 2969 
z
M 947 1747 
Q 947 1113 1208 752 
Q 1469 391 1925 391 
Q 2381 391 2643 752 
Q 2906 1113 2906 1747 
Q 2906 2381 2643 2742 
Q 2381 3103 1925 3103 
Q 1469 3103 1208 2742 
Q 947 2381 947 1747 
z
" transform="scale(0.015625)"/>
       <path id="DejaVuSans-Oblique-43" d="M 4447 4306 
L 4319 3641 
Q 4019 3944 3683 4091 
Q 3347 4238 2956 4238 
Q 2422 4238 2017 3981 
Q 1613 3725 1319 3200 
Q 1131 2863 1032 2486 
Q 934 2109 934 1728 
Q 934 1091 1264 756 
Q 1594 422 2222 422 
Q 2656 422 3056 561 
Q 3456 700 3834 978 
L 3688 231 
Q 3316 72 2936 -9 
Q 2556 -91 2175 -91 
Q 1278 -91 773 396 
Q 269 884 269 1753 
Q 269 2309 461 2846 
Q 653 3384 1013 3828 
Q 1394 4300 1883 4525 
Q 2372 4750 3022 4750 
Q 3422 4750 3780 4639 
Q 4138 4528 4447 4306 
z
" transform="scale(0.015625)"/>
       <path id="DejaVuSans-Oblique-4d" d="M 1081 4666 
L 2028 4666 
L 2572 1522 
L 4378 4666 
L 5350 4666 
L 4441 0 
L 3828 0 
L 4622 4091 
L 2791 897 
L 2175 897 
L 1581 4103 
L 788 0 
L 172 0 
L 1081 4666 
z
" transform="scale(0.015625)"/>
       <path id="DejaVuSans-20" transform="scale(0.015625)"/>
       <path id="DejaVuSans-2f" d="M 1625 4666 
L 2156 4666 
L 531 -594 
L 0 -594 
L 1625 4666 
z
" transform="scale(0.015625)"/>
      </defs>
      <use xlink:href="#DejaVuSans-64" transform="translate(0 0.015625)"/>
      <use xlink:href="#DejaVuSans-Oblique-43" transform="translate(63.476562 0.015625)"/>
      <use xlink:href="#DejaVuSans-Oblique-4d" transform="translate(133.300781 -16.390625) scale(0.7)"/>
      <use xlink:href="#DejaVuSans-20" transform="translate(196.430664 0.015625)"/>
      <use xlink:href="#DejaVuSans-2f" transform="translate(228.217773 0.015625)"/>
      <use xlink:href="#DejaVuSans-20" transform="translate(261.90918 0.015625)"/>
      <use xlink:href="#DejaVuSans-64" transform="translate(293.696289 0.015625)"/>
      <use xlink:href="#DejaVuSans-Oblique-3b1" transform="translate(357.172852 0.015625)"/>
     </g>
    </g>
   </g>
   <g id="line2d_29">
    <path d="M 94.727875 151.816053 
L 98.148052 147.933971 
L 101.568228 144.134167 
L 104.988405 140.416641 
L 108.408582 136.781393 
L 111.828759 133.228422 
L 115.248935 129.757729 
L 118.669112 126.369315 
L 122.089289 123.063178 
L 125.509466 119.839319 
L 128.929642 116.697738 
L 132.349819 113.638435 
L 135.769996 110.66141 
L 139.190173 107.766662 
L 142.610349 104.954193 
L 146.030526 102.224002 
L 149.450703 99.576088 
L 152.87088 97.010452 
L 156.291056 94.527094 
L 159.711233 92.126014 
L 163.13141 89.807212 
L 166.551587 87.570688 
L 169.971763 85.416442 
L 173.39194 83.344474 
L 176.812117 81.354783 
L 180.232293 79.447371 
L 183.65247 77.622236 
L 187.072647 75.879379 
L 190.492824 74.2188 
L 193.913 72.640499 
L 197.333177 71.144476 
L 200.753354 69.730731 
L 204.173531 68.399264 
L 207.593707 67.150074 
L 211.013884 65.983163 
L 214.434061 64.898529 
L 217.854238 63.896173 
L 221.274414 62.976096 
L 224.694591 62.138296 
L 228.114768 61.382774 
L 231.534945 60.70953 
L 234.955121 60.118563 
L 238.375298 59.609875 
L 241.795475 59.183464 
L 245.215652 58.839332 
L 248.635828 58.577477 
L 252.056005 58.3979 
L 255.476182 58.300602 
L 258.896359 58.285581 
L 262.316535 58.352838 
L 265.736712 58.502372 
L 269.156889 58.734185 
L 272.577066 59.048276 
L 275.997242 59.444644 
L 279.417419 59.923291 
L 282.837596 60.484215 
L 286.257773 61.127417 
L 289.677949 61.852897 
L 293.098126 62.660655 
L 296.518303 63.550691 
L 299.93848 64.523005 
L 303.358656 65.577596 
L 306.778833 66.714466 
L 310.19901 67.933613 
L 313.619187 69.235039 
L 317.039363 70.618742 
L 320.45954 72.084723 
L 323.879717 73.632982 
L 327.299893 75.263519 
L 330.72007 76.976334 
L 334.140247 78.771427 
L 337.560424 80.648797 
L 340.9806 82.608446 
L 344.400777 84.650372 
L 347.820954 86.774577 
L 351.241131 88.981059 
L 354.661307 91.269819 
L 358.081484 93.640857 
L 361.501661 96.094173 
L 364.921838 98.629766 
L 368.342014 101.247638 
L 371.762191 103.947788 
L 375.182368 106.730215 
L 378.602545 109.594921 
L 382.022721 112.541904 
L 385.442898 115.571165 
L 388.863075 118.682704 
L 392.283252 121.876521 
L 395.703428 125.152616 
L 399.123605 128.510988 
L 402.543782 131.951639 
L 405.963959 135.474568 
L 409.384135 139.079774 
L 412.804312 142.767258 
L 416.224489 146.537021 
L 419.644666 150.389061 
L 423.064842 154.323379 
L 426.485019 158.339975 
L 429.905196 162.438848 
L 433.325373 166.62 
" clip-path="url(#p7ebe0ecaff)" style="fill: none; stroke: #000080; stroke-width: 1.5; stroke-linecap: square"/>
   </g>
   <g id="line2d_30">
    <path d="M 94.727875 117.395699 
L 98.148052 113.851233 
L 101.568228 110.389045 
L 104.988405 107.009136 
L 108.408582 103.711503 
L 111.828759 100.496149 
L 115.248935 97.363073 
L 118.669112 94.312275 
L 122.089289 91.343754 
L 125.509466 88.457511 
L 128.929642 85.653547 
L 132.349819 82.93186 
L 135.769996 80.292451 
L 139.190173 77.73532 
L 142.610349 75.260467 
L 146.030526 72.867892 
L 149.450703 70.557594 
L 152.87088 68.329575 
L 156.291056 66.183833 
L 159.711233 64.12037 
L 163.13141 62.139184 
L 166.551587 60.240276 
L 169.971763 58.423646 
L 173.39194 56.689294 
L 176.812117 55.03722 
L 180.232293 53.467424 
L 183.65247 51.979905 
L 187.072647 50.574665 
L 190.492824 49.251702 
L 193.913 48.011018 
L 197.333177 46.852611 
L 200.753354 45.776482 
L 204.173531 44.782631 
L 207.593707 43.871058 
L 211.013884 43.041763 
L 214.434061 42.294745 
L 217.854238 41.630006 
L 221.274414 41.047544 
L 224.694591 40.547361 
L 228.114768 40.129455 
L 231.534945 39.793827 
L 234.955121 39.540477 
L 238.375298 39.369405 
L 241.795475 39.280611 
L 245.215652 39.274095 
L 248.635828 39.349856 
L 252.056005 39.507896 
L 255.476182 39.748213 
L 258.896359 40.070808 
L 262.316535 40.475682 
L 265.736712 40.962833 
L 269.156889 41.532262 
L 272.577066 42.183969 
L 275.997242 42.917953 
L 279.417419 43.734216 
L 282.837596 44.632757 
L 286.257773 45.613575 
L 289.677949 46.676672 
L 293.098126 47.822046 
L 296.518303 49.049698 
L 299.93848 50.359628 
L 303.358656 51.751836 
L 306.778833 53.226322 
L 310.19901 54.783086 
L 313.619187 56.422127 
L 317.039363 58.143447 
L 320.45954 59.947044 
L 323.879717 61.83292 
L 327.299893 63.801073 
L 330.72007 65.851504 
L 334.140247 67.984213 
L 337.560424 70.1992 
L 340.9806 72.496465 
L 344.400777 74.876007 
L 347.820954 77.337828 
L 351.241131 79.881926 
L 354.661307 82.508303 
L 358.081484 85.216957 
L 361.501661 88.007889 
L 364.921838 90.881099 
L 368.342014 93.836587 
L 371.762191 96.874353 
L 375.182368 99.994397 
L 378.602545 103.196719 
L 382.022721 106.481318 
L 385.442898 109.848196 
L 388.863075 113.297351 
L 392.283252 116.828784 
L 395.703428 120.442495 
L 399.123605 124.138484 
L 402.543782 127.916751 
L 405.963959 131.777296 
L 409.384135 135.720119 
L 412.804312 139.745219 
L 416.224489 143.852598 
L 419.644666 148.042254 
L 423.064842 152.314189 
L 426.485019 156.668401 
L 429.905196 161.104891 
L 433.325373 165.623659 
" clip-path="url(#p7ebe0ecaff)" style="fill: none; stroke: #0080ff; stroke-width: 1.5; stroke-linecap: square"/>
   </g>
   <g id="line2d_31">
    <path d="M 94.727875 95.100896 
L 98.148052 91.762585 
L 101.568228 88.506552 
L 104.988405 85.332797 
L 108.408582 82.241319 
L 111.828759 79.23212 
L 115.248935 76.305199 
L 118.669112 73.460555 
L 122.089289 70.698189 
L 125.509466 68.018101 
L 128.929642 65.420292 
L 132.349819 62.90476 
L 135.769996 60.471505 
L 139.190173 58.120529 
L 142.610349 55.851831 
L 146.030526 53.665411 
L 149.450703 51.561268 
L 152.87088 49.539403 
L 156.291056 47.599817 
L 159.711233 45.742508 
L 163.13141 43.967477 
L 166.551587 42.274724 
L 169.971763 40.664249 
L 173.39194 39.136052 
L 176.812117 37.690132 
L 180.232293 36.326491 
L 183.65247 35.045127 
L 187.072647 33.846041 
L 190.492824 32.729234 
L 193.913 31.694704 
L 197.333177 30.742452 
L 200.753354 29.872478 
L 204.173531 29.084782 
L 207.593707 28.379363 
L 211.013884 27.756223 
L 214.434061 27.21536 
L 217.854238 26.756776 
L 221.274414 26.380469 
L 224.694591 26.08644 
L 228.114768 25.874689 
L 231.534945 25.745216 
L 234.955121 25.698021 
L 238.375298 25.733104 
L 241.795475 25.850465 
L 245.215652 26.050103 
L 248.635828 26.33202 
L 252.056005 26.696214 
L 255.476182 27.142686 
L 258.896359 27.671436 
L 262.316535 28.282464 
L 265.736712 28.97577 
L 269.156889 29.751354 
L 272.577066 30.609216 
L 275.997242 31.549355 
L 279.417419 32.571773 
L 282.837596 33.676468 
L 286.257773 34.863442 
L 289.677949 36.132693 
L 293.098126 37.484222 
L 296.518303 38.918029 
L 299.93848 40.434114 
L 303.358656 42.032476 
L 306.778833 43.713117 
L 310.19901 45.476036 
L 313.619187 47.321232 
L 317.039363 49.248706 
L 320.45954 51.258459 
L 323.879717 53.350489 
L 327.299893 55.524797 
L 330.72007 57.781383 
L 334.140247 60.120247 
L 337.560424 62.541388 
L 340.9806 65.044808 
L 344.400777 67.630505 
L 347.820954 70.298481 
L 351.241131 73.048734 
L 354.661307 75.881265 
L 358.081484 78.796074 
L 361.501661 81.793161 
L 364.921838 84.872526 
L 368.342014 88.034169 
L 371.762191 91.27809 
L 375.182368 94.604288 
L 378.602545 98.012765 
L 382.022721 101.503519 
L 385.442898 105.076551 
L 388.863075 108.731862 
L 392.283252 112.46945 
L 395.703428 116.289316 
L 399.123605 120.191459 
L 402.543782 124.175881 
L 405.963959 128.242581 
L 409.384135 132.391558 
L 412.804312 136.622814 
L 416.224489 140.936347 
L 419.644666 145.332158 
L 423.064842 149.810247 
L 426.485019 154.370614 
L 429.905196 159.013259 
L 433.325373 163.738182 
" clip-path="url(#p7ebe0ecaff)" style="fill: none; stroke: #7dff7a; stroke-width: 1.5; stroke-linecap: square"/>
   </g>
   <g id="line2d_32">
    <path d="M 94.727875 84.931643 
L 98.148052 81.668026 
L 101.568228 78.486686 
L 104.988405 75.387624 
L 108.408582 72.37084 
L 111.828759 69.436334 
L 115.248935 66.584106 
L 118.669112 63.814156 
L 122.089289 61.126483 
L 125.509466 58.521089 
L 128.929642 55.997972 
L 132.349819 53.557134 
L 135.769996 51.198573 
L 139.190173 48.92229 
L 142.610349 46.728285 
L 146.030526 44.616558 
L 149.450703 42.587109 
L 152.87088 40.639938 
L 156.291056 38.775044 
L 159.711233 36.992429 
L 163.13141 35.292091 
L 166.551587 33.674032 
L 169.971763 32.13825 
L 173.39194 30.684746 
L 176.812117 29.31352 
L 180.232293 28.024572 
L 183.65247 26.817901 
L 187.072647 25.693509 
L 190.492824 24.651395 
L 193.913 23.691558 
L 197.333177 22.813999 
L 200.753354 22.018719 
L 204.173531 21.305716 
L 207.593707 20.674991 
L 211.013884 20.126544 
L 214.434061 19.660375 
L 217.854238 19.276483 
L 221.274414 18.97487 
L 224.694591 18.755534 
L 228.114768 18.618477 
L 231.534945 18.563697 
L 234.955121 18.591195 
L 238.375298 18.700972 
L 241.795475 18.893025 
L 245.215652 19.167357 
L 248.635828 19.523967 
L 252.056005 19.962855 
L 255.476182 20.48402 
L 258.896359 21.087464 
L 262.316535 21.773185 
L 265.736712 22.541185 
L 269.156889 23.391462 
L 272.577066 24.324017 
L 275.997242 25.33885 
L 279.417419 26.43596 
L 282.837596 27.615349 
L 286.257773 28.877016 
L 289.677949 30.22096 
L 293.098126 31.647183 
L 296.518303 33.155683 
L 299.93848 34.746461 
L 303.358656 36.419517 
L 306.778833 38.174851 
L 310.19901 40.012463 
L 313.619187 41.932353 
L 317.039363 43.934521 
L 320.45954 46.018966 
L 323.879717 48.18569 
L 327.299893 50.434691 
L 330.72007 52.76597 
L 334.140247 55.179528 
L 337.560424 57.675363 
L 340.9806 60.253476 
L 344.400777 62.913867 
L 347.820954 65.656535 
L 351.241131 68.481482 
L 354.661307 71.388706 
L 358.081484 74.378209 
L 361.501661 77.449989 
L 364.921838 80.604047 
L 368.342014 83.840384 
L 371.762191 87.158998 
L 375.182368 90.559889 
L 378.602545 94.043059 
L 382.022721 97.608507 
L 385.442898 101.256233 
L 388.863075 104.986236 
L 392.283252 108.798517 
L 395.703428 112.693077 
L 399.123605 116.669914 
L 402.543782 120.729029 
L 405.963959 124.870422 
L 409.384135 129.094093 
L 412.804312 133.400042 
L 416.224489 137.788268 
L 419.644666 142.258773 
L 423.064842 146.811555 
L 426.485019 151.446615 
L 429.905196 156.163954 
L 433.325373 160.96357 
" clip-path="url(#p7ebe0ecaff)" style="fill: none; stroke: #ff9400; stroke-width: 1.5; stroke-linecap: square"/>
   </g>
   <g id="line2d_33">
    <path d="M 94.727875 86.887942 
L 98.148052 83.567556 
L 101.568228 80.329448 
L 104.988405 77.173618 
L 108.408582 74.100066 
L 111.828759 71.108792 
L 115.248935 68.199796 
L 118.669112 65.373077 
L 122.089289 62.628637 
L 125.509466 59.966474 
L 128.929642 57.38659 
L 132.349819 54.888983 
L 135.769996 52.473654 
L 139.190173 50.140603 
L 142.610349 47.88983 
L 146.030526 45.721334 
L 149.450703 43.635117 
L 152.87088 41.631178 
L 156.291056 39.709516 
L 159.711233 37.870133 
L 163.13141 36.113027 
L 166.551587 34.438199 
L 169.971763 32.845649 
L 173.39194 31.335377 
L 176.812117 29.907383 
L 180.232293 28.561667 
L 183.65247 27.298228 
L 187.072647 26.117068 
L 190.492824 25.018185 
L 193.913 24.00158 
L 197.333177 23.067254 
L 200.753354 22.215205 
L 204.173531 21.445434 
L 207.593707 20.757941 
L 211.013884 20.152725 
L 214.434061 19.629788 
L 217.854238 19.189129 
L 221.274414 18.830747 
L 224.694591 18.554644 
L 228.114768 18.360818 
L 231.534945 18.24927 
L 234.955121 18.22 
L 238.375298 18.273008 
L 241.795475 18.408294 
L 245.215652 18.625858 
L 248.635828 18.925699 
L 252.056005 19.307819 
L 255.476182 19.772216 
L 258.896359 20.318891 
L 262.316535 20.947845 
L 265.736712 21.659076 
L 269.156889 22.452585 
L 272.577066 23.328372 
L 275.997242 24.286437 
L 279.417419 25.326779 
L 282.837596 26.4494 
L 286.257773 27.654298 
L 289.677949 28.941475 
L 293.098126 30.310929 
L 296.518303 31.762661 
L 299.93848 33.296671 
L 303.358656 34.912959 
L 306.778833 36.611525 
L 310.19901 38.392369 
L 313.619187 40.25549 
L 317.039363 42.20089 
L 320.45954 44.228567 
L 323.879717 46.338523 
L 327.299893 48.530756 
L 330.72007 50.805267 
L 334.140247 53.162056 
L 337.560424 55.601123 
L 340.9806 58.122468 
L 344.400777 60.726091 
L 347.820954 63.411991 
L 351.241131 66.18017 
L 354.661307 69.030626 
L 358.081484 71.96336 
L 361.501661 74.978372 
L 364.921838 78.075663 
L 368.342014 81.255231 
L 371.762191 84.517076 
L 375.182368 87.8612 
L 378.602545 91.287602 
L 382.022721 94.796281 
L 385.442898 98.387239 
L 388.863075 102.060474 
L 392.283252 105.815987 
L 395.703428 109.653779 
L 399.123605 113.573848 
L 402.543782 117.576194 
L 405.963959 121.660819 
L 409.384135 125.827722 
L 412.804312 130.076903 
L 416.224489 134.408361 
L 419.644666 138.822098 
L 423.064842 143.318112 
L 426.485019 147.896404 
L 429.905196 152.556974 
L 433.325373 157.299822 
" clip-path="url(#p7ebe0ecaff)" style="fill: none; stroke: #800000; stroke-width: 1.5; stroke-linecap: square"/>
   </g>
   <g id="patch_3">
    <path d="M 77.798 174.04 
L 77.798 10.8 
" style="fill: none; stroke: #000000; stroke-width: 0.8; stroke-linejoin: miter; stroke-linecap: square"/>
   </g>
   <g id="patch_4">
    <path d="M 450.255247 174.04 
L 450.255247 10.8 
" style="fill: none; stroke: #000000; stroke-width: 0.8; stroke-linejoin: miter; stroke-linecap: square"/>
   </g>
   <g id="patch_5">
    <path d="M 77.798 174.04 
L 450.255247 174.04 
" style="fill: none; stroke: #000000; stroke-width: 0.8; stroke-linejoin: miter; stroke-linecap: square"/>
   </g>
   <g id="patch_6">
    <path d="M 77.798 10.8 
L 450.255247 10.8 
" style="fill: none; stroke: #000000; stroke-width: 0.8; stroke-linejoin: miter; stroke-linecap: square"/>
   </g>
   <g id="legend_1">
    <g id="patch_7">
     <path d="M 459.255247 162.878 
L 564.455247 162.878 
Q 566.455247 162.878 566.455247 160.878 
L 566.455247 88.385812 
Q 566.455247 86.385812 564.455247 86.385812 
L 459.255247 86.385812 
Q 457.255247 86.385812 457.255247 88.385812 
L 457.255247 160.878 
Q 457.255247 162.878 459.255247 162.878 
z
" style="fill: #4d4d4d; opacity: 0.5; stroke: #4d4d4d; stroke-linejoin: miter"/>
    </g>
    <g id="patch_8">
     <path d="M 457.255247 160.878 
L 562.455247 160.878 
Q 564.455247 160.878 564.455247 158.878 
L 564.455247 86.385812 
Q 564.455247 84.385812 562.455247 84.385812 
L 457.255247 84.385812 
Q 455.255247 84.385812 455.255247 86.385812 
L 455.255247 158.878 
Q 455.255247 160.878 457.255247 160.878 
z
" style="fill: #ffffff; stroke: #cccccc; stroke-linejoin: miter"/>
    </g>
    <g id="line2d_34">
     <path d="M 459.255247 92.48425 
L 469.255247 92.48425 
L 479.255247 92.48425 
" style="fill: none; stroke: #000080; stroke-width: 1.5; stroke-linecap: square"/>
    </g>
    <g id="text_17">
     <!-- $\delta_e = 0$, $J = 1.60$ -->
     <g transform="translate(487.255247 95.98425) scale(0.1 -0.1)">
      <defs>
       <path id="DejaVuSans-Oblique-3b4" d="M 3472 4053 
Q 3197 4272 2450 4272 
Q 1659 4272 1588 3906 
Q 1531 3619 2328 3469 
Q 2953 3353 3253 3003 
Q 3616 2581 3447 1716 
Q 3284 888 2763 400 
Q 2238 -91 1488 -91 
Q 741 -91 406 400 
Q 72 888 241 1747 
Q 363 2384 891 2900 
Q 1097 3100 1353 3213 
Q 913 3459 1000 3900 
Q 1166 4750 2544 4750 
Q 3234 4750 3566 4531 
L 3472 4053 
z
M 1753 3056 
Q 1525 2966 1306 2738 
Q 969 2384 847 1747 
Q 722 1113 919 756 
Q 1119 397 1584 397 
Q 2044 397 2381 759 
Q 2722 1122 2838 1716 
Q 2956 2338 2731 2638 
Q 2491 2959 2103 2994 
Q 1906 3013 1753 3056 
z
" transform="scale(0.015625)"/>
       <path id="DejaVuSans-Oblique-65" d="M 3078 2063 
Q 3088 2113 3092 2166 
Q 3097 2219 3097 2272 
Q 3097 2653 2873 2875 
Q 2650 3097 2266 3097 
Q 1838 3097 1509 2826 
Q 1181 2556 1013 2059 
L 3078 2063 
z
M 3578 1613 
L 903 1613 
Q 884 1494 878 1425 
Q 872 1356 872 1306 
Q 872 872 1139 634 
Q 1406 397 1894 397 
Q 2269 397 2603 481 
Q 2938 566 3225 728 
L 3116 159 
Q 2806 34 2476 -28 
Q 2147 -91 1806 -91 
Q 1078 -91 686 257 
Q 294 606 294 1247 
Q 294 1794 489 2264 
Q 684 2734 1063 3103 
Q 1306 3334 1642 3459 
Q 1978 3584 2356 3584 
Q 2950 3584 3301 3228 
Q 3653 2872 3653 2272 
Q 3653 2128 3634 1964 
Q 3616 1800 3578 1613 
z
" transform="scale(0.015625)"/>
       <path id="DejaVuSans-3d" d="M 678 2906 
L 4684 2906 
L 4684 2381 
L 678 2381 
L 678 2906 
z
M 678 1631 
L 4684 1631 
L 4684 1100 
L 678 1100 
L 678 1631 
z
" transform="scale(0.015625)"/>
       <path id="DejaVuSans-2c" d="M 750 794 
L 1409 794 
L 1409 256 
L 897 -744 
L 494 -744 
L 750 256 
L 750 794 
z
" transform="scale(0.015625)"/>
       <path id="DejaVuSans-Oblique-4a" d="M 1069 4666 
L 1703 4666 
L 856 325 
Q 691 -522 298 -901 
Q -94 -1281 -800 -1281 
L -1050 -1281 
L -947 -750 
L -750 -750 
Q -328 -750 -109 -509 
Q 109 -269 225 325 
L 1069 4666 
z
" transform="scale(0.015625)"/>
       <path id="DejaVuSans-31" d="M 794 531 
L 1825 531 
L 1825 4091 
L 703 3866 
L 703 4441 
L 1819 4666 
L 2450 4666 
L 2450 531 
L 3481 531 
L 3481 0 
L 794 0 
L 794 531 
z
" transform="scale(0.015625)"/>
      </defs>
      <use xlink:href="#DejaVuSans-Oblique-3b4" transform="translate(0 0.78125)"/>
      <use xlink:href="#DejaVuSans-Oblique-65" transform="translate(61.181641 -15.625) scale(0.7)"/>
      <use xlink:href="#DejaVuSans-3d" transform="translate(126.464844 0.78125)"/>
      <use xlink:href="#DejaVuSans-30" transform="translate(229.736328 0.78125)"/>
      <use xlink:href="#DejaVuSans-2c" transform="translate(293.359375 0.78125)"/>
      <use xlink:href="#DejaVuSans-20" transform="translate(325.146484 0.78125)"/>
      <use xlink:href="#DejaVuSans-Oblique-4a" transform="translate(356.933594 0.78125)"/>
      <use xlink:href="#DejaVuSans-3d" transform="translate(405.908203 0.78125)"/>
      <use xlink:href="#DejaVuSans-31" transform="translate(509.179688 0.78125)"/>
      <use xlink:href="#DejaVuSans-2e" transform="translate(572.802734 0.78125)"/>
      <use xlink:href="#DejaVuSans-36" transform="translate(604.589844 0.78125)"/>
      <use xlink:href="#DejaVuSans-30" transform="translate(668.212891 0.78125)"/>
     </g>
    </g>
    <g id="line2d_35">
     <path d="M 459.255247 107.182688 
L 469.255247 107.182688 
L 479.255247 107.182688 
" style="fill: none; stroke: #0080ff; stroke-width: 1.5; stroke-linecap: square"/>
    </g>
    <g id="text_18">
     <!-- $\delta_e = 0$, $J = 1.80$ -->
     <g transform="translate(487.255247 110.682688) scale(0.1 -0.1)">
      <defs>
       <path id="DejaVuSans-38" d="M 2034 2216 
Q 1584 2216 1326 1975 
Q 1069 1734 1069 1313 
Q 1069 891 1326 650 
Q 1584 409 2034 409 
Q 2484 409 2743 651 
Q 3003 894 3003 1313 
Q 3003 1734 2745 1975 
Q 2488 2216 2034 2216 
z
M 1403 2484 
Q 997 2584 770 2862 
Q 544 3141 544 3541 
Q 544 4100 942 4425 
Q 1341 4750 2034 4750 
Q 2731 4750 3128 4425 
Q 3525 4100 3525 3541 
Q 3525 3141 3298 2862 
Q 3072 2584 2669 2484 
Q 3125 2378 3379 2068 
Q 3634 1759 3634 1313 
Q 3634 634 3220 271 
Q 2806 -91 2034 -91 
Q 1263 -91 848 271 
Q 434 634 434 1313 
Q 434 1759 690 2068 
Q 947 2378 1403 2484 
z
M 1172 3481 
Q 1172 3119 1398 2916 
Q 1625 2713 2034 2713 
Q 2441 2713 2670 2916 
Q 2900 3119 2900 3481 
Q 2900 3844 2670 4047 
Q 2441 4250 2034 4250 
Q 1625 4250 1398 4047 
Q 1172 3844 1172 3481 
z
" transform="scale(0.015625)"/>
      </defs>
      <use xlink:href="#DejaVuSans-Oblique-3b4" transform="translate(0 0.78125)"/>
      <use xlink:href="#DejaVuSans-Oblique-65" transform="translate(61.181641 -15.625) scale(0.7)"/>
      <use xlink:href="#DejaVuSans-3d" transform="translate(126.464844 0.78125)"/>
      <use xlink:href="#DejaVuSans-30" transform="translate(229.736328 0.78125)"/>
      <use xlink:href="#DejaVuSans-2c" transform="translate(293.359375 0.78125)"/>
      <use xlink:href="#DejaVuSans-20" transform="translate(325.146484 0.78125)"/>
      <use xlink:href="#DejaVuSans-Oblique-4a" transform="translate(356.933594 0.78125)"/>
      <use xlink:href="#DejaVuSans-3d" transform="translate(405.908203 0.78125)"/>
      <use xlink:href="#DejaVuSans-31" transform="translate(509.179688 0.78125)"/>
      <use xlink:href="#DejaVuSans-2e" transform="translate(572.802734 0.78125)"/>
      <use xlink:href="#DejaVuSans-38" transform="translate(601.964844 0.78125)"/>
      <use xlink:href="#DejaVuSans-30" transform="translate(665.587891 0.78125)"/>
     </g>
    </g>
    <g id="line2d_36">
     <path d="M 459.255247 121.881125 
L 469.255247 121.881125 
L 479.255247 121.881125 
" style="fill: none; stroke: #7dff7a; stroke-width: 1.5; stroke-linecap: square"/>
    </g>
    <g id="text_19">
     <!-- $\delta_e = 0$, $J = 2.00$ -->
     <g transform="translate(487.255247 125.381125) scale(0.1 -0.1)">
      <use xlink:href="#DejaVuSans-Oblique-3b4" transform="translate(0 0.78125)"/>
      <use xlink:href="#DejaVuSans-Oblique-65" transform="translate(61.181641 -15.625) scale(0.7)"/>
      <use xlink:href="#DejaVuSans-3d" transform="translate(126.464844 0.78125)"/>
      <use xlink:href="#DejaVuSans-30" transform="translate(229.736328 0.78125)"/>
      <use xlink:href="#DejaVuSans-2c" transform="translate(293.359375 0.78125)"/>
      <use xlink:href="#DejaVuSans-20" transform="translate(325.146484 0.78125)"/>
      <use xlink:href="#DejaVuSans-Oblique-4a" transform="translate(356.933594 0.78125)"/>
      <use xlink:href="#DejaVuSans-3d" transform="translate(405.908203 0.78125)"/>
      <use xlink:href="#DejaVuSans-32" transform="translate(509.179688 0.78125)"/>
      <use xlink:href="#DejaVuSans-2e" transform="translate(572.802734 0.78125)"/>
      <use xlink:href="#DejaVuSans-30" transform="translate(604.589844 0.78125)"/>
      <use xlink:href="#DejaVuSans-30" transform="translate(668.212891 0.78125)"/>
     </g>
    </g>
    <g id="line2d_37">
     <path d="M 459.255247 136.579563 
L 469.255247 136.579563 
L 479.255247 136.579563 
" style="fill: none; stroke: #ff9400; stroke-width: 1.5; stroke-linecap: square"/>
    </g>
    <g id="text_20">
     <!-- $\delta_e = 0$, $J = 2.20$ -->
     <g transform="translate(487.255247 140.079563) scale(0.1 -0.1)">
      <use xlink:href="#DejaVuSans-Oblique-3b4" transform="translate(0 0.78125)"/>
      <use xlink:href="#DejaVuSans-Oblique-65" transform="translate(61.181641 -15.625) scale(0.7)"/>
      <use xlink:href="#DejaVuSans-3d" transform="translate(126.464844 0.78125)"/>
      <use xlink:href="#DejaVuSans-30" transform="translate(229.736328 0.78125)"/>
      <use xlink:href="#DejaVuSans-2c" transform="translate(293.359375 0.78125)"/>
      <use xlink:href="#DejaVuSans-20" transform="translate(325.146484 0.78125)"/>
      <use xlink:href="#DejaVuSans-Oblique-4a" transform="translate(356.933594 0.78125)"/>
      <use xlink:href="#DejaVuSans-3d" transform="translate(405.908203 0.78125)"/>
      <use xlink:href="#DejaVuSans-32" transform="translate(509.179688 0.78125)"/>
      <use xlink:href="#DejaVuSans-2e" transform="translate(572.802734 0.78125)"/>
      <use xlink:href="#DejaVuSans-32" transform="translate(599.089844 0.78125)"/>
      <use xlink:href="#DejaVuSans-30" transform="translate(662.712891 0.78125)"/>
     </g>
    </g>
    <g id="line2d_38">
     <path d="M 459.255247 151.278 
L 469.255247 151.278 
L 479.255247 151.278 
" style="fill: none; stroke: #800000; stroke-width: 1.5; stroke-linecap: square"/>
    </g>
    <g id="text_21">
     <!-- $\delta_e = 0$, $J = 2.40$ -->
     <g transform="translate(487.255247 154.778) scale(0.1 -0.1)">
      <use xlink:href="#DejaVuSans-Oblique-3b4" transform="translate(0 0.78125)"/>
      <use xlink:href="#DejaVuSans-Oblique-65" transform="translate(61.181641 -15.625) scale(0.7)"/>
      <use xlink:href="#DejaVuSans-3d" transform="translate(126.464844 0.78125)"/>
      <use xlink:href="#DejaVuSans-30" transform="translate(229.736328 0.78125)"/>
      <use xlink:href="#DejaVuSans-2c" transform="translate(293.359375 0.78125)"/>
      <use xlink:href="#DejaVuSans-20" transform="translate(325.146484 0.78125)"/>
      <use xlink:href="#DejaVuSans-Oblique-4a" transform="translate(356.933594 0.78125)"/>
      <use xlink:href="#DejaVuSans-3d" transform="translate(405.908203 0.78125)"/>
      <use xlink:href="#DejaVuSans-32" transform="translate(509.179688 0.78125)"/>
      <use xlink:href="#DejaVuSans-2e" transform="translate(572.802734 0.78125)"/>
      <use xlink:href="#DejaVuSans-34" transform="translate(604.589844 0.78125)"/>
      <use xlink:href="#DejaVuSans-30" transform="translate(668.212891 0.78125)"/>
     </g>
    </g>
   </g>
  </g>
 </g>
 <defs>
  <clipPath id="p7ebe0ecaff">
   <rect x="77.798" y="10.8" width="372.457247" height="163.24"/>
  </clipPath>
 </defs>
</svg>
