<?xml version="1.0" encoding="utf-8" standalone="no"?>
<!DOCTYPE svg PUBLIC "-//W3C//DTD SVG 1.1//EN"
  "http://www.w3.org/Graphics/SVG/1.1/DTD/svg11.dtd">
<svg xmlns:xlink="http://www.w3.org/1999/xlink" width="432pt" height="216pt" viewBox="0 0 432 216" xmlns="http://www.w3.org/2000/svg" version="1.1">
 <metadata>
  <rdf:RDF xmlns:dc="http://purl.org/dc/elements/1.1/" xmlns:cc="http://creativecommons.org/ns#" xmlns:rdf="http://www.w3.org/1999/02/22-rdf-syntax-ns#">
   <cc:Work>
    <dc:type rdf:resource="http://purl.org/dc/dcmitype/StillImage"/>
    <dc:date>2025-03-31T00:02:35.672076</dc:date>
    <dc:format>image/svg+xml</dc:format>
    <dc:creator>
     <cc:Agent>
      <dc:title>Matplotlib v3.9.2, https://matplotlib.org/</dc:title>
     </cc:Agent>
    </dc:creator>
   </cc:Work>
  </rdf:RDF>
 </metadata>
 <defs>
  <style type="text/css">*{stroke-linejoin: round; stroke-linecap: butt}</style>
 </defs>
 <g id="figure_1">
  <g id="patch_1">
   <path d="M 0 216 
L 432 216 
L 432 0 
L 0 0 
z
" style="fill: #ffffff"/>
  </g>
  <g id="axes_1">
   <g id="patch_2">
    <path d="M 74.432 174.04 
L 306.255247 174.04 
L 306.255247 10.8 
L 74.432 10.8 
z
" style="fill: #ffffff"/>
   </g>
   <g id="matplotlib.axis_1">
    <g id="xtick_1">
     <g id="line2d_1">
      <path d="M 84.96942 174.04 
L 84.96942 10.8 
" clip-path="url(#p1a8e3ef288)" style="fill: none; stroke: #b0b0b0; stroke-width: 0.8; stroke-linecap: square"/>
     </g>
     <g id="line2d_2">
      <defs>
       <path id="mf2e0ad78b3" d="M 0 0 
L 0 3.5 
" style="stroke: #000000; stroke-width: 0.8"/>
      </defs>
      <g>
       <use xlink:href="#mf2e0ad78b3" x="84.96942" y="174.04" style="stroke: #000000; stroke-width: 0.8"/>
      </g>
     </g>
     <g id="text_1">
      <!-- −4 -->
      <g transform="translate(77.598327 188.638438) scale(0.1 -0.1)">
       <defs>
        <path id="DejaVuSans-2212" d="M 678 2272 
L 4684 2272 
L 4684 1741 
L 678 1741 
L 678 2272 
z
" transform="scale(0.015625)"/>
        <path id="DejaVuSans-34" d="M 2419 4116 
L 825 1625 
L 2419 1625 
L 2419 4116 
z
M 2253 4666 
L 3047 4666 
L 3047 1625 
L 3713 1625 
L 3713 1100 
L 3047 1100 
L 3047 0 
L 2419 0 
L 2419 1100 
L 313 1100 
L 313 1709 
L 2253 4666 
z
" transform="scale(0.015625)"/>
       </defs>
       <use xlink:href="#DejaVuSans-2212"/>
       <use xlink:href="#DejaVuSans-34" x="83.789062"/>
      </g>
     </g>
    </g>
    <g id="xtick_2">
     <g id="line2d_3">
      <path d="M 123.287312 174.04 
L 123.287312 10.8 
" clip-path="url(#p1a8e3ef288)" style="fill: none; stroke: #b0b0b0; stroke-width: 0.8; stroke-linecap: square"/>
     </g>
     <g id="line2d_4">
      <g>
       <use xlink:href="#mf2e0ad78b3" x="123.287312" y="174.04" style="stroke: #000000; stroke-width: 0.8"/>
      </g>
     </g>
     <g id="text_2">
      <!-- −2 -->
      <g transform="translate(115.916219 188.638438) scale(0.1 -0.1)">
       <defs>
        <path id="DejaVuSans-32" d="M 1228 531 
L 3431 531 
L 3431 0 
L 469 0 
L 469 531 
Q 828 903 1448 1529 
Q 2069 2156 2228 2338 
Q 2531 2678 2651 2914 
Q 2772 3150 2772 3378 
Q 2772 3750 2511 3984 
Q 2250 4219 1831 4219 
Q 1534 4219 1204 4116 
Q 875 4013 500 3803 
L 500 4441 
Q 881 4594 1212 4672 
Q 1544 4750 1819 4750 
Q 2544 4750 2975 4387 
Q 3406 4025 3406 3419 
Q 3406 3131 3298 2873 
Q 3191 2616 2906 2266 
Q 2828 2175 2409 1742 
Q 1991 1309 1228 531 
z
" transform="scale(0.015625)"/>
       </defs>
       <use xlink:href="#DejaVuSans-2212"/>
       <use xlink:href="#DejaVuSans-32" x="83.789062"/>
      </g>
     </g>
    </g>
    <g id="xtick_3">
     <g id="line2d_5">
      <path d="M 161.605205 174.04 
L 161.605205 10.8 
" clip-path="url(#p1a8e3ef288)" style="fill: none; stroke: #b0b0b0; stroke-width: 0.8; stroke-linecap: square"/>
     </g>
     <g id="line2d_6">
      <g>
       <use xlink:href="#mf2e0ad78b3" x="161.605205" y="174.04" style="stroke: #000000; stroke-width: 0.8"/>
      </g>
     </g>
     <g id="text_3">
      <!-- 0 -->
      <g transform="translate(158.423955 188.638438) scale(0.1 -0.1)">
       <defs>
        <path id="DejaVuSans-30" d="M 2034 4250 
Q 1547 4250 1301 3770 
Q 1056 3291 1056 2328 
Q 1056 1369 1301 889 
Q 1547 409 2034 409 
Q 2525 409 2770 889 
Q 3016 1369 3016 2328 
Q 3016 3291 2770 3770 
Q 2525 4250 2034 4250 
z
M 2034 4750 
Q 2819 4750 3233 4129 
Q 3647 3509 3647 2328 
Q 3647 1150 3233 529 
Q 2819 -91 2034 -91 
Q 1250 -91 836 529 
Q 422 1150 422 2328 
Q 422 3509 836 4129 
Q 1250 4750 2034 4750 
z
" transform="scale(0.015625)"/>
       </defs>
       <use xlink:href="#DejaVuSans-30"/>
      </g>
     </g>
    </g>
    <g id="xtick_4">
     <g id="line2d_7">
      <path d="M 199.923097 174.04 
L 199.923097 10.8 
" clip-path="url(#p1a8e3ef288)" style="fill: none; stroke: #b0b0b0; stroke-width: 0.8; stroke-linecap: square"/>
     </g>
     <g id="line2d_8">
      <g>
       <use xlink:href="#mf2e0ad78b3" x="199.923097" y="174.04" style="stroke: #000000; stroke-width: 0.8"/>
      </g>
     </g>
     <g id="text_4">
      <!-- 2 -->
      <g transform="translate(196.741847 188.638438) scale(0.1 -0.1)">
       <use xlink:href="#DejaVuSans-32"/>
      </g>
     </g>
    </g>
    <g id="xtick_5">
     <g id="line2d_9">
      <path d="M 238.240989 174.04 
L 238.240989 10.8 
" clip-path="url(#p1a8e3ef288)" style="fill: none; stroke: #b0b0b0; stroke-width: 0.8; stroke-linecap: square"/>
     </g>
     <g id="line2d_10">
      <g>
       <use xlink:href="#mf2e0ad78b3" x="238.240989" y="174.04" style="stroke: #000000; stroke-width: 0.8"/>
      </g>
     </g>
     <g id="text_5">
      <!-- 4 -->
      <g transform="translate(235.059739 188.638438) scale(0.1 -0.1)">
       <use xlink:href="#DejaVuSans-34"/>
      </g>
     </g>
    </g>
    <g id="xtick_6">
     <g id="line2d_11">
      <path d="M 276.558881 174.04 
L 276.558881 10.8 
" clip-path="url(#p1a8e3ef288)" style="fill: none; stroke: #b0b0b0; stroke-width: 0.8; stroke-linecap: square"/>
     </g>
     <g id="line2d_12">
      <g>
       <use xlink:href="#mf2e0ad78b3" x="276.558881" y="174.04" style="stroke: #000000; stroke-width: 0.8"/>
      </g>
     </g>
     <g id="text_6">
      <!-- 6 -->
      <g transform="translate(273.377631 188.638438) scale(0.1 -0.1)">
       <defs>
        <path id="DejaVuSans-36" d="M 2113 2584 
Q 1688 2584 1439 2293 
Q 1191 2003 1191 1497 
Q 1191 994 1439 701 
Q 1688 409 2113 409 
Q 2538 409 2786 701 
Q 3034 994 3034 1497 
Q 3034 2003 2786 2293 
Q 2538 2584 2113 2584 
z
M 3366 4563 
L 3366 3988 
Q 3128 4100 2886 4159 
Q 2644 4219 2406 4219 
Q 1781 4219 1451 3797 
Q 1122 3375 1075 2522 
Q 1259 2794 1537 2939 
Q 1816 3084 2150 3084 
Q 2853 3084 3261 2657 
Q 3669 2231 3669 1497 
Q 3669 778 3244 343 
Q 2819 -91 2113 -91 
Q 1303 -91 875 529 
Q 447 1150 447 2328 
Q 447 3434 972 4092 
Q 1497 4750 2381 4750 
Q 2619 4750 2861 4703 
Q 3103 4656 3366 4563 
z
" transform="scale(0.015625)"/>
       </defs>
       <use xlink:href="#DejaVuSans-36"/>
      </g>
     </g>
    </g>
    <g id="text_7">
     <!-- $\alpha$ -->
     <g transform="translate(187.043624 202.316563) scale(0.1 -0.1)">
      <defs>
       <path id="DejaVuSans-Oblique-3b1" d="M 2619 1628 
L 2622 2350 
Q 2625 3088 2069 3091 
Q 1653 3094 1394 2747 
Q 1069 2319 959 1747 
Q 825 1059 994 731 
Q 1169 397 1547 397 
Q 1966 397 2319 1063 
L 2619 1628 
z
M 2166 3578 
Q 3141 3594 3128 2584 
Q 3128 2584 3616 3500 
L 4128 3500 
L 3119 1603 
L 3109 919 
Q 3109 766 3194 638 
Q 3291 488 3391 488 
L 3669 488 
L 3575 0 
L 3228 0 
Q 2934 0 2722 263 
Q 2622 394 2619 669 
Q 2416 334 2066 50 
Q 1900 -81 1453 -78 
Q 722 -72 456 397 
Q 184 884 353 1747 
Q 534 2675 1009 3097 
Q 1544 3569 2166 3578 
z
" transform="scale(0.015625)"/>
      </defs>
      <use xlink:href="#DejaVuSans-Oblique-3b1" transform="translate(0 0.84375)"/>
     </g>
    </g>
   </g>
   <g id="matplotlib.axis_2">
    <g id="ytick_1">
     <g id="line2d_13">
      <path d="M 74.432 140.566575 
L 306.255247 140.566575 
" clip-path="url(#p1a8e3ef288)" style="fill: none; stroke: #b0b0b0; stroke-width: 0.8; stroke-linecap: square"/>
     </g>
     <g id="line2d_14">
      <defs>
       <path id="mb452d07654" d="M 0 0 
L -3.5 0 
" style="stroke: #000000; stroke-width: 0.8"/>
      </defs>
      <g>
       <use xlink:href="#mb452d07654" x="74.432" y="140.566575" style="stroke: #000000; stroke-width: 0.8"/>
      </g>
     </g>
     <g id="text_8">
      <!-- −0.010 -->
      <g transform="translate(30.424188 144.365793) scale(0.1 -0.1)">
       <defs>
        <path id="DejaVuSans-2e" d="M 684 794 
L 1344 794 
L 1344 0 
L 684 0 
L 684 794 
z
" transform="scale(0.015625)"/>
        <path id="DejaVuSans-31" d="M 794 531 
L 1825 531 
L 1825 4091 
L 703 3866 
L 703 4441 
L 1819 4666 
L 2450 4666 
L 2450 531 
L 3481 531 
L 3481 0 
L 794 0 
L 794 531 
z
" transform="scale(0.015625)"/>
       </defs>
       <use xlink:href="#DejaVuSans-2212"/>
       <use xlink:href="#DejaVuSans-30" x="83.789062"/>
       <use xlink:href="#DejaVuSans-2e" x="147.412109"/>
       <use xlink:href="#DejaVuSans-30" x="179.199219"/>
       <use xlink:href="#DejaVuSans-31" x="242.822266"/>
       <use xlink:href="#DejaVuSans-30" x="306.445312"/>
      </g>
     </g>
    </g>
    <g id="ytick_2">
     <g id="line2d_15">
      <path d="M 74.432 106.035226 
L 306.255247 106.035226 
" clip-path="url(#p1a8e3ef288)" style="fill: none; stroke: #b0b0b0; stroke-width: 0.8; stroke-linecap: square"/>
     </g>
     <g id="line2d_16">
      <g>
       <use xlink:href="#mb452d07654" x="74.432" y="106.035226" style="stroke: #000000; stroke-width: 0.8"/>
      </g>
     </g>
     <g id="text_9">
      <!-- −0.005 -->
      <g transform="translate(30.424188 109.834444) scale(0.1 -0.1)">
       <defs>
        <path id="DejaVuSans-35" d="M 691 4666 
L 3169 4666 
L 3169 4134 
L 1269 4134 
L 1269 2991 
Q 1406 3038 1543 3061 
Q 1681 3084 1819 3084 
Q 2600 3084 3056 2656 
Q 3513 2228 3513 1497 
Q 3513 744 3044 326 
Q 2575 -91 1722 -91 
Q 1428 -91 1123 -41 
Q 819 9 494 109 
L 494 744 
Q 775 591 1075 516 
Q 1375 441 1709 441 
Q 2250 441 2565 725 
Q 2881 1009 2881 1497 
Q 2881 1984 2565 2268 
Q 2250 2553 1709 2553 
Q 1456 2553 1204 2497 
Q 953 2441 691 2322 
L 691 4666 
z
" transform="scale(0.015625)"/>
       </defs>
       <use xlink:href="#DejaVuSans-2212"/>
       <use xlink:href="#DejaVuSans-30" x="83.789062"/>
       <use xlink:href="#DejaVuSans-2e" x="147.412109"/>
       <use xlink:href="#DejaVuSans-30" x="179.199219"/>
       <use xlink:href="#DejaVuSans-30" x="242.822266"/>
       <use xlink:href="#DejaVuSans-35" x="306.445312"/>
      </g>
     </g>
    </g>
    <g id="ytick_3">
     <g id="line2d_17">
      <path d="M 74.432 71.503877 
L 306.255247 71.503877 
" clip-path="url(#p1a8e3ef288)" style="fill: none; stroke: #b0b0b0; stroke-width: 0.8; stroke-linecap: square"/>
     </g>
     <g id="line2d_18">
      <g>
       <use xlink:href="#mb452d07654" x="74.432" y="71.503877" style="stroke: #000000; stroke-width: 0.8"/>
      </g>
     </g>
     <g id="text_10">
      <!-- 0.000 -->
      <g transform="translate(38.803875 75.303095) scale(0.1 -0.1)">
       <use xlink:href="#DejaVuSans-30"/>
       <use xlink:href="#DejaVuSans-2e" x="63.623047"/>
       <use xlink:href="#DejaVuSans-30" x="95.410156"/>
       <use xlink:href="#DejaVuSans-30" x="159.033203"/>
       <use xlink:href="#DejaVuSans-30" x="222.65625"/>
      </g>
     </g>
    </g>
    <g id="ytick_4">
     <g id="line2d_19">
      <path d="M 74.432 36.972527 
L 306.255247 36.972527 
" clip-path="url(#p1a8e3ef288)" style="fill: none; stroke: #b0b0b0; stroke-width: 0.8; stroke-linecap: square"/>
     </g>
     <g id="line2d_20">
      <g>
       <use xlink:href="#mb452d07654" x="74.432" y="36.972527" style="stroke: #000000; stroke-width: 0.8"/>
      </g>
     </g>
     <g id="text_11">
      <!-- 0.005 -->
      <g transform="translate(38.803875 40.771746) scale(0.1 -0.1)">
       <use xlink:href="#DejaVuSans-30"/>
       <use xlink:href="#DejaVuSans-2e" x="63.623047"/>
       <use xlink:href="#DejaVuSans-30" x="95.410156"/>
       <use xlink:href="#DejaVuSans-30" x="159.033203"/>
       <use xlink:href="#DejaVuSans-35" x="222.65625"/>
      </g>
     </g>
    </g>
    <g id="text_12">
     <!-- d$C_T = T / \rho n^2 D^4$ / d$\delta_e$ -->
     <g transform="translate(24.324188 141.17) rotate(-90) scale(0.1 -0.1)">
      <defs>
       <path id="DejaVuSans-64" d="M 2906 2969 
L 2906 4863 
L 3481 4863 
L 3481 0 
L 2906 0 
L 2906 525 
Q 2725 213 2448 61 
Q 2172 -91 1784 -91 
Q 1150 -91 751 415 
Q 353 922 353 1747 
Q 353 2572 751 3078 
Q 1150 3584 1784 3584 
Q 2172 3584 2448 3432 
Q 2725 3281 2906 2969 
z
M 947 1747 
Q 947 1113 1208 752 
Q 1469 391 1925 391 
Q 2381 391 2643 752 
Q 2906 1113 2906 1747 
Q 2906 2381 2643 2742 
Q 2381 3103 1925 3103 
Q 1469 3103 1208 2742 
Q 947 2381 947 1747 
z
" transform="scale(0.015625)"/>
       <path id="DejaVuSans-Oblique-43" d="M 4447 4306 
L 4319 3641 
Q 4019 3944 3683 4091 
Q 3347 4238 2956 4238 
Q 2422 4238 2017 3981 
Q 1613 3725 1319 3200 
Q 1131 2863 1032 2486 
Q 934 2109 934 1728 
Q 934 1091 1264 756 
Q 1594 422 2222 422 
Q 2656 422 3056 561 
Q 3456 700 3834 978 
L 3688 231 
Q 3316 72 2936 -9 
Q 2556 -91 2175 -91 
Q 1278 -91 773 396 
Q 269 884 269 1753 
Q 269 2309 461 2846 
Q 653 3384 1013 3828 
Q 1394 4300 1883 4525 
Q 2372 4750 3022 4750 
Q 3422 4750 3780 4639 
Q 4138 4528 4447 4306 
z
" transform="scale(0.015625)"/>
       <path id="DejaVuSans-Oblique-54" d="M 378 4666 
L 4325 4666 
L 4225 4134 
L 2559 4134 
L 1759 0 
L 1125 0 
L 1925 4134 
L 275 4134 
L 378 4666 
z
" transform="scale(0.015625)"/>
       <path id="DejaVuSans-3d" d="M 678 2906 
L 4684 2906 
L 4684 2381 
L 678 2381 
L 678 2906 
z
M 678 1631 
L 4684 1631 
L 4684 1100 
L 678 1100 
L 678 1631 
z
" transform="scale(0.015625)"/>
       <path id="DejaVuSans-2f" d="M 1625 4666 
L 2156 4666 
L 531 -594 
L 0 -594 
L 1625 4666 
z
" transform="scale(0.015625)"/>
       <path id="DejaVuSans-Oblique-3c1" d="M 1203 2875 
Q 1453 3194 1981 3475 
Q 2188 3584 2756 3584 
Q 3394 3584 3694 3078 
Q 3994 2572 3834 1747 
Q 3672 922 3175 415 
Q 2678 -91 2041 -91 
Q 1656 -91 1409 63 
Q 1163 213 1044 525 
L 681 -1331 
L 103 -1331 
L 697 1716 
Q 838 2438 1203 2875 
z
M 3238 1747 
Q 3359 2381 3169 2744 
Q 2978 3103 2522 3103 
Q 2066 3103 1734 2744 
Q 1403 2381 1281 1747 
Q 1156 1113 1347 750 
Q 1538 391 1994 391 
Q 2450 391 2781 750 
Q 3113 1113 3238 1747 
z
" transform="scale(0.015625)"/>
       <path id="DejaVuSans-Oblique-6e" d="M 3566 2113 
L 3156 0 
L 2578 0 
L 2988 2091 
Q 3016 2238 3031 2350 
Q 3047 2463 3047 2528 
Q 3047 2791 2881 2937 
Q 2716 3084 2419 3084 
Q 1956 3084 1622 2776 
Q 1288 2469 1184 1941 
L 800 0 
L 225 0 
L 903 3500 
L 1478 3500 
L 1363 2950 
Q 1603 3253 1940 3418 
Q 2278 3584 2650 3584 
Q 3113 3584 3367 3334 
Q 3622 3084 3622 2631 
Q 3622 2519 3608 2391 
Q 3594 2263 3566 2113 
z
" transform="scale(0.015625)"/>
       <path id="DejaVuSans-Oblique-44" d="M 1081 4666 
L 2438 4666 
Q 3519 4666 4070 4208 
Q 4622 3750 4622 2847 
Q 4622 2250 4412 1698 
Q 4203 1147 3834 769 
Q 3463 381 2891 190 
Q 2319 0 1538 0 
L 172 0 
L 1081 4666 
z
M 1613 4147 
L 909 519 
L 1734 519 
Q 2794 519 3375 1128 
Q 3956 1738 3956 2847 
Q 3956 3519 3581 3833 
Q 3206 4147 2406 4147 
L 1613 4147 
z
" transform="scale(0.015625)"/>
       <path id="DejaVuSans-20" transform="scale(0.015625)"/>
       <path id="DejaVuSans-Oblique-3b4" d="M 3472 4053 
Q 3197 4272 2450 4272 
Q 1659 4272 1588 3906 
Q 1531 3619 2328 3469 
Q 2953 3353 3253 3003 
Q 3616 2581 3447 1716 
Q 3284 888 2763 400 
Q 2238 -91 1488 -91 
Q 741 -91 406 400 
Q 72 888 241 1747 
Q 363 2384 891 2900 
Q 1097 3100 1353 3213 
Q 913 3459 1000 3900 
Q 1166 4750 2544 4750 
Q 3234 4750 3566 4531 
L 3472 4053 
z
M 1753 3056 
Q 1525 2966 1306 2738 
Q 969 2384 847 1747 
Q 722 1113 919 756 
Q 1119 397 1584 397 
Q 2044 397 2381 759 
Q 2722 1122 2838 1716 
Q 2956 2338 2731 2638 
Q 2491 2959 2103 2994 
Q 1906 3013 1753 3056 
z
" transform="scale(0.015625)"/>
       <path id="DejaVuSans-Oblique-65" d="M 3078 2063 
Q 3088 2113 3092 2166 
Q 3097 2219 3097 2272 
Q 3097 2653 2873 2875 
Q 2650 3097 2266 3097 
Q 1838 3097 1509 2826 
Q 1181 2556 1013 2059 
L 3078 2063 
z
M 3578 1613 
L 903 1613 
Q 884 1494 878 1425 
Q 872 1356 872 1306 
Q 872 872 1139 634 
Q 1406 397 1894 397 
Q 2269 397 2603 481 
Q 2938 566 3225 728 
L 3116 159 
Q 2806 34 2476 -28 
Q 2147 -91 1806 -91 
Q 1078 -91 686 257 
Q 294 606 294 1247 
Q 294 1794 489 2264 
Q 684 2734 1063 3103 
Q 1306 3334 1642 3459 
Q 1978 3584 2356 3584 
Q 2950 3584 3301 3228 
Q 3653 2872 3653 2272 
Q 3653 2128 3634 1964 
Q 3616 1800 3578 1613 
z
" transform="scale(0.015625)"/>
      </defs>
      <use xlink:href="#DejaVuSans-64" transform="translate(0 0.765625)"/>
      <use xlink:href="#DejaVuSans-Oblique-43" transform="translate(63.476562 0.765625)"/>
      <use xlink:href="#DejaVuSans-Oblique-54" transform="translate(133.300781 -15.640625) scale(0.7)"/>
      <use xlink:href="#DejaVuSans-3d" transform="translate(198.276367 0.765625)"/>
      <use xlink:href="#DejaVuSans-Oblique-54" transform="translate(301.547852 0.765625)"/>
      <use xlink:href="#DejaVuSans-2f" transform="translate(362.631836 0.765625)"/>
      <use xlink:href="#DejaVuSans-Oblique-3c1" transform="translate(396.323242 0.765625)"/>
      <use xlink:href="#DejaVuSans-Oblique-6e" transform="translate(459.799805 0.765625)"/>
      <use xlink:href="#DejaVuSans-32" transform="translate(527.828607 39.046875) scale(0.7)"/>
      <use xlink:href="#DejaVuSans-Oblique-44" transform="translate(575.099115 0.765625)"/>
      <use xlink:href="#DejaVuSans-34" transform="translate(659.117839 39.046875) scale(0.7)"/>
      <use xlink:href="#DejaVuSans-20" transform="translate(706.388346 0.765625)"/>
      <use xlink:href="#DejaVuSans-2f" transform="translate(738.175456 0.765625)"/>
      <use xlink:href="#DejaVuSans-20" transform="translate(771.866862 0.765625)"/>
      <use xlink:href="#DejaVuSans-64" transform="translate(803.653971 0.765625)"/>
      <use xlink:href="#DejaVuSans-Oblique-3b4" transform="translate(867.130534 0.765625)"/>
      <use xlink:href="#DejaVuSans-Oblique-65" transform="translate(928.312174 -15.640625) scale(0.7)"/>
     </g>
    </g>
   </g>
   <g id="line2d_21">
    <path d="M 84.96942 47.874722 
L 87.098192 48.487703 
L 89.226964 49.098091 
L 91.355736 49.705887 
L 93.484507 50.31109 
L 95.613279 50.913701 
L 97.742051 51.51372 
L 99.870823 52.111146 
L 101.999595 52.705979 
L 104.128366 53.29822 
L 106.257138 53.887869 
L 108.38591 54.474925 
L 110.514682 55.059389 
L 112.643454 55.641261 
L 114.772225 56.220539 
L 116.900997 56.797226 
L 119.029769 57.37132 
L 121.158541 57.942822 
L 123.287312 58.511731 
L 125.416084 59.078048 
L 127.544856 59.641772 
L 129.673628 60.202904 
L 131.8024 60.761443 
L 133.931171 61.31739 
L 136.059943 61.870745 
L 138.188715 62.421507 
L 140.317487 62.969676 
L 142.446259 63.515254 
L 144.57503 64.058239 
L 146.703802 64.598631 
L 148.832574 65.136431 
L 150.961346 65.671638 
L 153.090117 66.204253 
L 155.218889 66.734276 
L 157.347661 67.261706 
L 159.476433 67.786544 
L 161.605205 68.308789 
L 163.733976 68.828442 
L 165.862748 69.345502 
L 167.99152 69.85997 
L 170.120292 70.371846 
L 172.249064 70.881129 
L 174.377835 71.38782 
L 176.506607 71.891918 
L 178.635379 72.393424 
L 180.764151 72.892337 
L 182.892922 73.388658 
L 185.021694 73.882386 
L 187.150466 74.373522 
L 189.279238 74.862066 
L 191.40801 75.348017 
L 193.536781 75.831376 
L 195.665553 76.312142 
L 197.794325 76.790316 
L 199.923097 77.265897 
L 202.051869 77.738886 
L 204.18064 78.209283 
L 206.309412 78.677087 
L 208.438184 79.142298 
L 210.566956 79.604917 
L 212.695727 80.064944 
L 214.824499 80.522379 
L 216.953271 80.97722 
L 219.082043 81.42947 
L 221.210815 81.879127 
L 223.339586 82.326191 
L 225.468358 82.770664 
L 227.59713 83.212543 
L 229.725902 83.65183 
L 231.854674 84.088525 
L 233.983445 84.522628 
L 236.112217 84.954138 
L 238.240989 85.383055 
L 240.369761 85.80938 
L 242.498532 86.233113 
L 244.627304 86.654253 
L 246.756076 87.072801 
L 248.884848 87.488756 
L 251.01362 87.902119 
L 253.142391 88.312889 
L 255.271163 88.721067 
L 257.399935 89.126653 
L 259.528707 89.529646 
L 261.657479 89.930046 
L 263.78625 90.327855 
L 265.915022 90.72307 
L 268.043794 91.115694 
L 270.172566 91.505725 
L 272.301337 91.893163 
L 274.430109 92.278009 
L 276.558881 92.660263 
L 278.687653 93.039924 
L 280.816425 93.416993 
L 282.945196 93.791469 
L 285.073968 94.163353 
L 287.20274 94.532644 
L 289.331512 94.899343 
L 291.460284 95.26345 
L 293.589055 95.624964 
L 295.717827 95.983885 
" clip-path="url(#p1a8e3ef288)" style="fill: none; stroke: #000080; stroke-width: 1.5; stroke-linecap: square"/>
   </g>
   <g id="line2d_22">
    <path d="M 84.96942 42.634815 
L 87.098192 43.485083 
L 89.226964 44.331404 
L 91.355736 45.173778 
L 93.484507 46.012206 
L 95.613279 46.846688 
L 97.742051 47.677222 
L 99.870823 48.503811 
L 101.999595 49.326452 
L 104.128366 50.145148 
L 106.257138 50.959896 
L 108.38591 51.770698 
L 110.514682 52.577554 
L 112.643454 53.380463 
L 114.772225 54.179425 
L 116.900997 54.974441 
L 119.029769 55.76551 
L 121.158541 56.552633 
L 123.287312 57.33581 
L 125.416084 58.115039 
L 127.544856 58.890322 
L 129.673628 59.661659 
L 131.8024 60.429049 
L 133.931171 61.192493 
L 136.059943 61.95199 
L 138.188715 62.70754 
L 140.317487 63.459144 
L 142.446259 64.206801 
L 144.57503 64.950512 
L 146.703802 65.690277 
L 148.832574 66.426094 
L 150.961346 67.157965 
L 153.090117 67.88589 
L 155.218889 68.609868 
L 157.347661 69.3299 
L 159.476433 70.045985 
L 161.605205 70.758123 
L 163.733976 71.466315 
L 165.862748 72.170561 
L 167.99152 72.870859 
L 170.120292 73.567212 
L 172.249064 74.259617 
L 174.377835 74.948077 
L 176.506607 75.632589 
L 178.635379 76.313155 
L 180.764151 76.989775 
L 182.892922 77.662448 
L 185.021694 78.331174 
L 187.150466 78.995954 
L 189.279238 79.656788 
L 191.40801 80.313675 
L 193.536781 80.966615 
L 195.665553 81.615609 
L 197.794325 82.260656 
L 199.923097 82.901756 
L 202.051869 83.538911 
L 204.18064 84.172118 
L 206.309412 84.801379 
L 208.438184 85.426694 
L 210.566956 86.048062 
L 212.695727 86.665483 
L 214.824499 87.278958 
L 216.953271 87.888486 
L 219.082043 88.494068 
L 221.210815 89.095703 
L 223.339586 89.693392 
L 225.468358 90.287134 
L 227.59713 90.876929 
L 229.725902 91.462778 
L 231.854674 92.044681 
L 233.983445 92.622637 
L 236.112217 93.196646 
L 238.240989 93.766709 
L 240.369761 94.332825 
L 242.498532 94.894995 
L 244.627304 95.453218 
L 246.756076 96.007495 
L 248.884848 96.557825 
L 251.01362 97.104209 
L 253.142391 97.646646 
L 255.271163 98.185136 
L 257.399935 98.71968 
L 259.528707 99.250278 
L 261.657479 99.776929 
L 263.78625 100.299633 
L 265.915022 100.818391 
L 268.043794 101.333202 
L 270.172566 101.844067 
L 272.301337 102.350985 
L 274.430109 102.853956 
L 276.558881 103.352981 
L 278.687653 103.84806 
L 280.816425 104.339192 
L 282.945196 104.826377 
L 285.073968 105.309616 
L 287.20274 105.788908 
L 289.331512 106.264254 
L 291.460284 106.735653 
L 293.589055 107.203106 
L 295.717827 107.666612 
" clip-path="url(#p1a8e3ef288)" style="fill: none; stroke: #0080ff; stroke-width: 1.5; stroke-linecap: square"/>
   </g>
   <g id="line2d_23">
    <path d="M 84.96942 35.945726 
L 87.098192 37.007955 
L 89.226964 38.066519 
L 91.355736 39.121421 
L 93.484507 40.172658 
L 95.613279 41.220232 
L 97.742051 42.264142 
L 99.870823 43.304388 
L 101.999595 44.34097 
L 104.128366 45.373889 
L 106.257138 46.403144 
L 108.38591 47.428735 
L 110.514682 48.450663 
L 112.643454 49.468926 
L 114.772225 50.483526 
L 116.900997 51.494463 
L 119.029769 52.501735 
L 121.158541 53.505344 
L 123.287312 54.505289 
L 125.416084 55.50157 
L 127.544856 56.494188 
L 129.673628 57.483142 
L 131.8024 58.468432 
L 133.931171 59.450058 
L 136.059943 60.42802 
L 138.188715 61.402319 
L 140.317487 62.372954 
L 142.446259 63.339926 
L 144.57503 64.303233 
L 146.703802 65.262877 
L 148.832574 66.218857 
L 150.961346 67.171173 
L 153.090117 68.119826 
L 155.218889 69.064815 
L 157.347661 70.00614 
L 159.476433 70.943801 
L 161.605205 71.877799 
L 163.733976 72.808133 
L 165.862748 73.734803 
L 167.99152 74.657809 
L 170.120292 75.577152 
L 172.249064 76.492831 
L 174.377835 77.404846 
L 176.506607 78.313197 
L 178.635379 79.217885 
L 180.764151 80.118909 
L 182.892922 81.016269 
L 185.021694 81.909966 
L 187.150466 82.799998 
L 189.279238 83.686367 
L 191.40801 84.569072 
L 193.536781 85.448114 
L 195.665553 86.323492 
L 197.794325 87.195206 
L 199.923097 88.063256 
L 202.051869 88.927642 
L 204.18064 89.788365 
L 206.309412 90.645424 
L 208.438184 91.498819 
L 210.566956 92.348551 
L 212.695727 93.194618 
L 214.824499 94.037022 
L 216.953271 94.875763 
L 219.082043 95.710839 
L 221.210815 96.542252 
L 223.339586 97.370001 
L 225.468358 98.194086 
L 227.59713 99.014508 
L 229.725902 99.831266 
L 231.854674 100.64436 
L 233.983445 101.45379 
L 236.112217 102.259557 
L 238.240989 103.061659 
L 240.369761 103.860098 
L 242.498532 104.654874 
L 244.627304 105.445985 
L 246.756076 106.233433 
L 248.884848 107.017217 
L 251.01362 107.797338 
L 253.142391 108.573794 
L 255.271163 109.346587 
L 257.399935 110.115716 
L 259.528707 110.881182 
L 261.657479 111.642983 
L 263.78625 112.401121 
L 265.915022 113.155595 
L 268.043794 113.906406 
L 270.172566 114.653552 
L 272.301337 115.397035 
L 274.430109 116.136854 
L 276.558881 116.87301 
L 278.687653 117.605502 
L 280.816425 118.33433 
L 282.945196 119.059494 
L 285.073968 119.780994 
L 287.20274 120.498831 
L 289.331512 121.213004 
L 291.460284 121.923513 
L 293.589055 122.630359 
L 295.717827 123.33354 
" clip-path="url(#p1a8e3ef288)" style="fill: none; stroke: #7dff7a; stroke-width: 1.5; stroke-linecap: square"/>
   </g>
   <g id="line2d_24">
    <path d="M 84.96942 27.807454 
L 87.098192 29.056318 
L 89.226964 30.303438 
L 91.355736 31.548814 
L 93.484507 32.792446 
L 95.613279 34.034334 
L 97.742051 35.274478 
L 99.870823 36.512878 
L 101.999595 37.749533 
L 104.128366 38.984445 
L 106.257138 40.217613 
L 108.38591 41.449037 
L 110.514682 42.678716 
L 112.643454 43.906652 
L 114.772225 45.132843 
L 116.900997 46.357291 
L 119.029769 47.579994 
L 121.158541 48.800954 
L 123.287312 50.020169 
L 125.416084 51.237641 
L 127.544856 52.453368 
L 129.673628 53.667351 
L 131.8024 54.87959 
L 133.931171 56.090086 
L 136.059943 57.298837 
L 138.188715 58.505844 
L 140.317487 59.711107 
L 142.446259 60.914626 
L 144.57503 62.116401 
L 146.703802 63.316432 
L 148.832574 64.514719 
L 150.961346 65.711262 
L 153.090117 66.906061 
L 155.218889 68.099116 
L 157.347661 69.290427 
L 159.476433 70.479993 
L 161.605205 71.667816 
L 163.733976 72.853895 
L 165.862748 74.03823 
L 167.99152 75.22082 
L 170.120292 76.401667 
L 172.249064 77.580769 
L 174.377835 78.758128 
L 176.506607 79.933742 
L 178.635379 81.107613 
L 180.764151 82.279739 
L 182.892922 83.450121 
L 185.021694 84.61876 
L 187.150466 85.785654 
L 189.279238 86.950804 
L 191.40801 88.114211 
L 193.536781 89.275873 
L 195.665553 90.435791 
L 197.794325 91.593965 
L 199.923097 92.750395 
L 202.051869 93.905081 
L 204.18064 95.058023 
L 206.309412 96.209221 
L 208.438184 97.358675 
L 210.566956 98.506385 
L 212.695727 99.652351 
L 214.824499 100.796572 
L 216.953271 101.93905 
L 219.082043 103.079784 
L 221.210815 104.218774 
L 223.339586 105.356019 
L 225.468358 106.491521 
L 227.59713 107.625279 
L 229.725902 108.757292 
L 231.854674 109.887562 
L 233.983445 111.016087 
L 236.112217 112.142868 
L 238.240989 113.267906 
L 240.369761 114.391199 
L 242.498532 115.512749 
L 244.627304 116.632554 
L 246.756076 117.750615 
L 248.884848 118.866932 
L 251.01362 119.981505 
L 253.142391 121.094335 
L 255.271163 122.20542 
L 257.399935 123.314761 
L 259.528707 124.422358 
L 261.657479 125.528211 
L 263.78625 126.63232 
L 265.915022 127.734685 
L 268.043794 128.835306 
L 270.172566 129.934182 
L 272.301337 131.031315 
L 274.430109 132.126704 
L 276.558881 133.220349 
L 278.687653 134.312249 
L 280.816425 135.402406 
L 282.945196 136.490819 
L 285.073968 137.577487 
L 287.20274 138.662412 
L 289.331512 139.745592 
L 291.460284 140.827029 
L 293.589055 141.906721 
L 295.717827 142.98467 
" clip-path="url(#p1a8e3ef288)" style="fill: none; stroke: #ff9400; stroke-width: 1.5; stroke-linecap: square"/>
   </g>
   <g id="line2d_25">
    <path d="M 84.96942 18.22 
L 87.098192 19.630174 
L 89.226964 21.04216 
L 91.355736 22.455959 
L 93.484507 23.87157 
L 95.613279 25.288994 
L 97.742051 26.708231 
L 99.870823 28.12928 
L 101.999595 29.552141 
L 104.128366 30.976816 
L 106.257138 32.403303 
L 108.38591 33.831602 
L 110.514682 35.261714 
L 112.643454 36.693639 
L 114.772225 38.127376 
L 116.900997 39.562925 
L 119.029769 41.000288 
L 121.158541 42.439463 
L 123.287312 43.88045 
L 125.416084 45.32325 
L 127.544856 46.767863 
L 129.673628 48.214288 
L 131.8024 49.662526 
L 133.931171 51.112576 
L 136.059943 52.564439 
L 138.188715 54.018114 
L 140.317487 55.473602 
L 142.446259 56.930903 
L 144.57503 58.390016 
L 146.703802 59.850942 
L 148.832574 61.313681 
L 150.961346 62.778231 
L 153.090117 64.244595 
L 155.218889 65.712771 
L 157.347661 67.18276 
L 159.476433 68.654561 
L 161.605205 70.128175 
L 163.733976 71.603601 
L 165.862748 73.08084 
L 167.99152 74.559892 
L 170.120292 76.040756 
L 172.249064 77.523433 
L 174.377835 79.007922 
L 176.506607 80.494224 
L 178.635379 81.982338 
L 180.764151 83.472265 
L 182.892922 84.964005 
L 185.021694 86.457557 
L 187.150466 87.952922 
L 189.279238 89.450099 
L 191.40801 90.949089 
L 193.536781 92.449891 
L 195.665553 93.952507 
L 197.794325 95.456934 
L 199.923097 96.963174 
L 202.051869 98.471227 
L 204.18064 99.981093 
L 206.309412 101.49277 
L 208.438184 103.006261 
L 210.566956 104.521564 
L 212.695727 106.03868 
L 214.824499 107.557608 
L 216.953271 109.078349 
L 219.082043 110.600902 
L 221.210815 112.125268 
L 223.339586 113.651447 
L 225.468358 115.179438 
L 227.59713 116.709241 
L 229.725902 118.240858 
L 231.854674 119.774287 
L 233.983445 121.309528 
L 236.112217 122.846582 
L 238.240989 124.385449 
L 240.369761 125.926128 
L 242.498532 127.468619 
L 244.627304 129.012924 
L 246.756076 130.559041 
L 248.884848 132.10697 
L 251.01362 133.656712 
L 253.142391 135.208267 
L 255.271163 136.761634 
L 257.399935 138.316814 
L 259.528707 139.873806 
L 261.657479 141.432611 
L 263.78625 142.993228 
L 265.915022 144.555659 
L 268.043794 146.119901 
L 270.172566 147.685956 
L 272.301337 149.253824 
L 274.430109 150.823505 
L 276.558881 152.394998 
L 278.687653 153.968303 
L 280.816425 155.543421 
L 282.945196 157.120352 
L 285.073968 158.699095 
L 287.20274 160.279651 
L 289.331512 161.862019 
L 291.460284 163.4462 
L 293.589055 165.032194 
L 295.717827 166.62 
" clip-path="url(#p1a8e3ef288)" style="fill: none; stroke: #800000; stroke-width: 1.5; stroke-linecap: square"/>
   </g>
   <g id="patch_3">
    <path d="M 74.432 174.04 
L 74.432 10.8 
" style="fill: none; stroke: #000000; stroke-width: 0.8; stroke-linejoin: miter; stroke-linecap: square"/>
   </g>
   <g id="patch_4">
    <path d="M 306.255247 174.04 
L 306.255247 10.8 
" style="fill: none; stroke: #000000; stroke-width: 0.8; stroke-linejoin: miter; stroke-linecap: square"/>
   </g>
   <g id="patch_5">
    <path d="M 74.432 174.04 
L 306.255247 174.04 
" style="fill: none; stroke: #000000; stroke-width: 0.8; stroke-linejoin: miter; stroke-linecap: square"/>
   </g>
   <g id="patch_6">
    <path d="M 74.432 10.8 
L 306.255247 10.8 
" style="fill: none; stroke: #000000; stroke-width: 0.8; stroke-linejoin: miter; stroke-linecap: square"/>
   </g>
   <g id="legend_1">
    <g id="patch_7">
     <path d="M 315.255247 162.878 
L 420.455247 162.878 
Q 422.455247 162.878 422.455247 160.878 
L 422.455247 88.385812 
Q 422.455247 86.385812 420.455247 86.385812 
L 315.255247 86.385812 
Q 313.255247 86.385812 313.255247 88.385812 
L 313.255247 160.878 
Q 313.255247 162.878 315.255247 162.878 
z
" style="fill: #4d4d4d; opacity: 0.5; stroke: #4d4d4d; stroke-linejoin: miter"/>
    </g>
    <g id="patch_8">
     <path d="M 313.255247 160.878 
L 418.455247 160.878 
Q 420.455247 160.878 420.455247 158.878 
L 420.455247 86.385812 
Q 420.455247 84.385812 418.455247 84.385812 
L 313.255247 84.385812 
Q 311.255247 84.385812 311.255247 86.385812 
L 311.255247 158.878 
Q 311.255247 160.878 313.255247 160.878 
z
" style="fill: #ffffff; stroke: #cccccc; stroke-linejoin: miter"/>
    </g>
    <g id="line2d_26">
     <path d="M 315.255247 92.48425 
L 325.255247 92.48425 
L 335.255247 92.48425 
" style="fill: none; stroke: #000080; stroke-width: 1.5; stroke-linecap: square"/>
    </g>
    <g id="text_13">
     <!-- $\delta_e = 0$, $J = 1.60$ -->
     <g transform="translate(343.255247 95.98425) scale(0.1 -0.1)">
      <defs>
       <path id="DejaVuSans-2c" d="M 750 794 
L 1409 794 
L 1409 256 
L 897 -744 
L 494 -744 
L 750 256 
L 750 794 
z
" transform="scale(0.015625)"/>
       <path id="DejaVuSans-Oblique-4a" d="M 1069 4666 
L 1703 4666 
L 856 325 
Q 691 -522 298 -901 
Q -94 -1281 -800 -1281 
L -1050 -1281 
L -947 -750 
L -750 -750 
Q -328 -750 -109 -509 
Q 109 -269 225 325 
L 1069 4666 
z
" transform="scale(0.015625)"/>
      </defs>
      <use xlink:href="#DejaVuSans-Oblique-3b4" transform="translate(0 0.78125)"/>
      <use xlink:href="#DejaVuSans-Oblique-65" transform="translate(61.181641 -15.625) scale(0.7)"/>
      <use xlink:href="#DejaVuSans-3d" transform="translate(126.464844 0.78125)"/>
      <use xlink:href="#DejaVuSans-30" transform="translate(229.736328 0.78125)"/>
      <use xlink:href="#DejaVuSans-2c" transform="translate(293.359375 0.78125)"/>
      <use xlink:href="#DejaVuSans-20" transform="translate(325.146484 0.78125)"/>
      <use xlink:href="#DejaVuSans-Oblique-4a" transform="translate(356.933594 0.78125)"/>
      <use xlink:href="#DejaVuSans-3d" transform="translate(405.908203 0.78125)"/>
      <use xlink:href="#DejaVuSans-31" transform="translate(509.179688 0.78125)"/>
      <use xlink:href="#DejaVuSans-2e" transform="translate(572.802734 0.78125)"/>
      <use xlink:href="#DejaVuSans-36" transform="translate(604.589844 0.78125)"/>
      <use xlink:href="#DejaVuSans-30" transform="translate(668.212891 0.78125)"/>
     </g>
    </g>
    <g id="line2d_27">
     <path d="M 315.255247 107.182688 
L 325.255247 107.182688 
L 335.255247 107.182688 
" style="fill: none; stroke: #0080ff; stroke-width: 1.5; stroke-linecap: square"/>
    </g>
    <g id="text_14">
     <!-- $\delta_e = 0$, $J = 1.80$ -->
     <g transform="translate(343.255247 110.682688) scale(0.1 -0.1)">
      <defs>
       <path id="DejaVuSans-38" d="M 2034 2216 
Q 1584 2216 1326 1975 
Q 1069 1734 1069 1313 
Q 1069 891 1326 650 
Q 1584 409 2034 409 
Q 2484 409 2743 651 
Q 3003 894 3003 1313 
Q 3003 1734 2745 1975 
Q 2488 2216 2034 2216 
z
M 1403 2484 
Q 997 2584 770 2862 
Q 544 3141 544 3541 
Q 544 4100 942 4425 
Q 1341 4750 2034 4750 
Q 2731 4750 3128 4425 
Q 3525 4100 3525 3541 
Q 3525 3141 3298 2862 
Q 3072 2584 2669 2484 
Q 3125 2378 3379 2068 
Q 3634 1759 3634 1313 
Q 3634 634 3220 271 
Q 2806 -91 2034 -91 
Q 1263 -91 848 271 
Q 434 634 434 1313 
Q 434 1759 690 2068 
Q 947 2378 1403 2484 
z
M 1172 3481 
Q 1172 3119 1398 2916 
Q 1625 2713 2034 2713 
Q 2441 2713 2670 2916 
Q 2900 3119 2900 3481 
Q 2900 3844 2670 4047 
Q 2441 4250 2034 4250 
Q 1625 4250 1398 4047 
Q 1172 3844 1172 3481 
z
" transform="scale(0.015625)"/>
      </defs>
      <use xlink:href="#DejaVuSans-Oblique-3b4" transform="translate(0 0.78125)"/>
      <use xlink:href="#DejaVuSans-Oblique-65" transform="translate(61.181641 -15.625) scale(0.7)"/>
      <use xlink:href="#DejaVuSans-3d" transform="translate(126.464844 0.78125)"/>
      <use xlink:href="#DejaVuSans-30" transform="translate(229.736328 0.78125)"/>
      <use xlink:href="#DejaVuSans-2c" transform="translate(293.359375 0.78125)"/>
      <use xlink:href="#DejaVuSans-20" transform="translate(325.146484 0.78125)"/>
      <use xlink:href="#DejaVuSans-Oblique-4a" transform="translate(356.933594 0.78125)"/>
      <use xlink:href="#DejaVuSans-3d" transform="translate(405.908203 0.78125)"/>
      <use xlink:href="#DejaVuSans-31" transform="translate(509.179688 0.78125)"/>
      <use xlink:href="#DejaVuSans-2e" transform="translate(572.802734 0.78125)"/>
      <use xlink:href="#DejaVuSans-38" transform="translate(601.964844 0.78125)"/>
      <use xlink:href="#DejaVuSans-30" transform="translate(665.587891 0.78125)"/>
     </g>
    </g>
    <g id="line2d_28">
     <path d="M 315.255247 121.881125 
L 325.255247 121.881125 
L 335.255247 121.881125 
" style="fill: none; stroke: #7dff7a; stroke-width: 1.5; stroke-linecap: square"/>
    </g>
    <g id="text_15">
     <!-- $\delta_e = 0$, $J = 2.00$ -->
     <g transform="translate(343.255247 125.381125) scale(0.1 -0.1)">
      <use xlink:href="#DejaVuSans-Oblique-3b4" transform="translate(0 0.78125)"/>
      <use xlink:href="#DejaVuSans-Oblique-65" transform="translate(61.181641 -15.625) scale(0.7)"/>
      <use xlink:href="#DejaVuSans-3d" transform="translate(126.464844 0.78125)"/>
      <use xlink:href="#DejaVuSans-30" transform="translate(229.736328 0.78125)"/>
      <use xlink:href="#DejaVuSans-2c" transform="translate(293.359375 0.78125)"/>
      <use xlink:href="#DejaVuSans-20" transform="translate(325.146484 0.78125)"/>
      <use xlink:href="#DejaVuSans-Oblique-4a" transform="translate(356.933594 0.78125)"/>
      <use xlink:href="#DejaVuSans-3d" transform="translate(405.908203 0.78125)"/>
      <use xlink:href="#DejaVuSans-32" transform="translate(509.179688 0.78125)"/>
      <use xlink:href="#DejaVuSans-2e" transform="translate(572.802734 0.78125)"/>
      <use xlink:href="#DejaVuSans-30" transform="translate(604.589844 0.78125)"/>
      <use xlink:href="#DejaVuSans-30" transform="translate(668.212891 0.78125)"/>
     </g>
    </g>
    <g id="line2d_29">
     <path d="M 315.255247 136.579563 
L 325.255247 136.579563 
L 335.255247 136.579563 
" style="fill: none; stroke: #ff9400; stroke-width: 1.5; stroke-linecap: square"/>
    </g>
    <g id="text_16">
     <!-- $\delta_e = 0$, $J = 2.20$ -->
     <g transform="translate(343.255247 140.079563) scale(0.1 -0.1)">
      <use xlink:href="#DejaVuSans-Oblique-3b4" transform="translate(0 0.78125)"/>
      <use xlink:href="#DejaVuSans-Oblique-65" transform="translate(61.181641 -15.625) scale(0.7)"/>
      <use xlink:href="#DejaVuSans-3d" transform="translate(126.464844 0.78125)"/>
      <use xlink:href="#DejaVuSans-30" transform="translate(229.736328 0.78125)"/>
      <use xlink:href="#DejaVuSans-2c" transform="translate(293.359375 0.78125)"/>
      <use xlink:href="#DejaVuSans-20" transform="translate(325.146484 0.78125)"/>
      <use xlink:href="#DejaVuSans-Oblique-4a" transform="translate(356.933594 0.78125)"/>
      <use xlink:href="#DejaVuSans-3d" transform="translate(405.908203 0.78125)"/>
      <use xlink:href="#DejaVuSans-32" transform="translate(509.179688 0.78125)"/>
      <use xlink:href="#DejaVuSans-2e" transform="translate(572.802734 0.78125)"/>
      <use xlink:href="#DejaVuSans-32" transform="translate(599.089844 0.78125)"/>
      <use xlink:href="#DejaVuSans-30" transform="translate(662.712891 0.78125)"/>
     </g>
    </g>
    <g id="line2d_30">
     <path d="M 315.255247 151.278 
L 325.255247 151.278 
L 335.255247 151.278 
" style="fill: none; stroke: #800000; stroke-width: 1.5; stroke-linecap: square"/>
    </g>
    <g id="text_17">
     <!-- $\delta_e = 0$, $J = 2.40$ -->
     <g transform="translate(343.255247 154.778) scale(0.1 -0.1)">
      <use xlink:href="#DejaVuSans-Oblique-3b4" transform="translate(0 0.78125)"/>
      <use xlink:href="#DejaVuSans-Oblique-65" transform="translate(61.181641 -15.625) scale(0.7)"/>
      <use xlink:href="#DejaVuSans-3d" transform="translate(126.464844 0.78125)"/>
      <use xlink:href="#DejaVuSans-30" transform="translate(229.736328 0.78125)"/>
      <use xlink:href="#DejaVuSans-2c" transform="translate(293.359375 0.78125)"/>
      <use xlink:href="#DejaVuSans-20" transform="translate(325.146484 0.78125)"/>
      <use xlink:href="#DejaVuSans-Oblique-4a" transform="translate(356.933594 0.78125)"/>
      <use xlink:href="#DejaVuSans-3d" transform="translate(405.908203 0.78125)"/>
      <use xlink:href="#DejaVuSans-32" transform="translate(509.179688 0.78125)"/>
      <use xlink:href="#DejaVuSans-2e" transform="translate(572.802734 0.78125)"/>
      <use xlink:href="#DejaVuSans-34" transform="translate(604.589844 0.78125)"/>
      <use xlink:href="#DejaVuSans-30" transform="translate(668.212891 0.78125)"/>
     </g>
    </g>
   </g>
  </g>
 </g>
 <defs>
  <clipPath id="p1a8e3ef288">
   <rect x="74.432" y="10.8" width="231.823247" height="163.24"/>
  </clipPath>
 </defs>
</svg>
