<?xml version="1.0" encoding="utf-8" standalone="no"?>
<!DOCTYPE svg PUBLIC "-//W3C//DTD SVG 1.1//EN"
  "http://www.w3.org/Graphics/SVG/1.1/DTD/svg11.dtd">
<svg xmlns:xlink="http://www.w3.org/1999/xlink" width="432pt" height="216pt" viewBox="0 0 432 216" xmlns="http://www.w3.org/2000/svg" version="1.1">
 <metadata>
  <rdf:RDF xmlns:dc="http://purl.org/dc/elements/1.1/" xmlns:cc="http://creativecommons.org/ns#" xmlns:rdf="http://www.w3.org/1999/02/22-rdf-syntax-ns#">
   <cc:Work>
    <dc:type rdf:resource="http://purl.org/dc/dcmitype/StillImage"/>
    <dc:date>2025-03-31T00:27:59.479007</dc:date>
    <dc:format>image/svg+xml</dc:format>
    <dc:creator>
     <cc:Agent>
      <dc:title>Matplotlib v3.9.2, https://matplotlib.org/</dc:title>
     </cc:Agent>
    </dc:creator>
   </cc:Work>
  </rdf:RDF>
 </metadata>
 <defs>
  <style type="text/css">*{stroke-linejoin: round; stroke-linecap: butt}</style>
 </defs>
 <g id="figure_1">
  <g id="patch_1">
   <path d="M 0 216 
L 432 216 
L 432 0 
L 0 0 
z
" style="fill: #ffffff"/>
  </g>
  <g id="axes_1">
   <g id="patch_2">
    <path d="M 74.432 174.04 
L 287.617856 174.04 
L 287.617856 14.501183 
L 74.432 14.501183 
z
" style="fill: #ffffff"/>
   </g>
   <g id="matplotlib.axis_1">
    <g id="xtick_1">
     <g id="line2d_1">
      <path d="M 84.122266 174.04 
L 84.122266 14.501183 
" clip-path="url(#p6fd96f525b)" style="fill: none; stroke: #b0b0b0; stroke-width: 0.8; stroke-linecap: square"/>
     </g>
     <g id="line2d_2">
      <defs>
       <path id="m1263f3ceab" d="M 0 0 
L 0 3.5 
" style="stroke: #000000; stroke-width: 0.8"/>
      </defs>
      <g>
       <use xlink:href="#m1263f3ceab" x="84.122266" y="174.04" style="stroke: #000000; stroke-width: 0.8"/>
      </g>
     </g>
     <g id="text_1">
      <!-- −4 -->
      <g transform="translate(76.751172 188.638438) scale(0.1 -0.1)">
       <defs>
        <path id="DejaVuSans-2212" d="M 678 2272 
L 4684 2272 
L 4684 1741 
L 678 1741 
L 678 2272 
z
" transform="scale(0.015625)"/>
        <path id="DejaVuSans-34" d="M 2419 4116 
L 825 1625 
L 2419 1625 
L 2419 4116 
z
M 2253 4666 
L 3047 4666 
L 3047 1625 
L 3713 1625 
L 3713 1100 
L 3047 1100 
L 3047 0 
L 2419 0 
L 2419 1100 
L 313 1100 
L 313 1709 
L 2253 4666 
z
" transform="scale(0.015625)"/>
       </defs>
       <use xlink:href="#DejaVuSans-2212"/>
       <use xlink:href="#DejaVuSans-34" x="83.789062"/>
      </g>
     </g>
    </g>
    <g id="xtick_2">
     <g id="line2d_3">
      <path d="M 119.359598 174.04 
L 119.359598 14.501183 
" clip-path="url(#p6fd96f525b)" style="fill: none; stroke: #b0b0b0; stroke-width: 0.8; stroke-linecap: square"/>
     </g>
     <g id="line2d_4">
      <g>
       <use xlink:href="#m1263f3ceab" x="119.359598" y="174.04" style="stroke: #000000; stroke-width: 0.8"/>
      </g>
     </g>
     <g id="text_2">
      <!-- −2 -->
      <g transform="translate(111.988504 188.638438) scale(0.1 -0.1)">
       <defs>
        <path id="DejaVuSans-32" d="M 1228 531 
L 3431 531 
L 3431 0 
L 469 0 
L 469 531 
Q 828 903 1448 1529 
Q 2069 2156 2228 2338 
Q 2531 2678 2651 2914 
Q 2772 3150 2772 3378 
Q 2772 3750 2511 3984 
Q 2250 4219 1831 4219 
Q 1534 4219 1204 4116 
Q 875 4013 500 3803 
L 500 4441 
Q 881 4594 1212 4672 
Q 1544 4750 1819 4750 
Q 2544 4750 2975 4387 
Q 3406 4025 3406 3419 
Q 3406 3131 3298 2873 
Q 3191 2616 2906 2266 
Q 2828 2175 2409 1742 
Q 1991 1309 1228 531 
z
" transform="scale(0.015625)"/>
       </defs>
       <use xlink:href="#DejaVuSans-2212"/>
       <use xlink:href="#DejaVuSans-32" x="83.789062"/>
      </g>
     </g>
    </g>
    <g id="xtick_3">
     <g id="line2d_5">
      <path d="M 154.596929 174.04 
L 154.596929 14.501183 
" clip-path="url(#p6fd96f525b)" style="fill: none; stroke: #b0b0b0; stroke-width: 0.8; stroke-linecap: square"/>
     </g>
     <g id="line2d_6">
      <g>
       <use xlink:href="#m1263f3ceab" x="154.596929" y="174.04" style="stroke: #000000; stroke-width: 0.8"/>
      </g>
     </g>
     <g id="text_3">
      <!-- 0 -->
      <g transform="translate(151.415679 188.638438) scale(0.1 -0.1)">
       <defs>
        <path id="DejaVuSans-30" d="M 2034 4250 
Q 1547 4250 1301 3770 
Q 1056 3291 1056 2328 
Q 1056 1369 1301 889 
Q 1547 409 2034 409 
Q 2525 409 2770 889 
Q 3016 1369 3016 2328 
Q 3016 3291 2770 3770 
Q 2525 4250 2034 4250 
z
M 2034 4750 
Q 2819 4750 3233 4129 
Q 3647 3509 3647 2328 
Q 3647 1150 3233 529 
Q 2819 -91 2034 -91 
Q 1250 -91 836 529 
Q 422 1150 422 2328 
Q 422 3509 836 4129 
Q 1250 4750 2034 4750 
z
" transform="scale(0.015625)"/>
       </defs>
       <use xlink:href="#DejaVuSans-30"/>
      </g>
     </g>
    </g>
    <g id="xtick_4">
     <g id="line2d_7">
      <path d="M 189.834261 174.04 
L 189.834261 14.501183 
" clip-path="url(#p6fd96f525b)" style="fill: none; stroke: #b0b0b0; stroke-width: 0.8; stroke-linecap: square"/>
     </g>
     <g id="line2d_8">
      <g>
       <use xlink:href="#m1263f3ceab" x="189.834261" y="174.04" style="stroke: #000000; stroke-width: 0.8"/>
      </g>
     </g>
     <g id="text_4">
      <!-- 2 -->
      <g transform="translate(186.653011 188.638438) scale(0.1 -0.1)">
       <use xlink:href="#DejaVuSans-32"/>
      </g>
     </g>
    </g>
    <g id="xtick_5">
     <g id="line2d_9">
      <path d="M 225.071592 174.04 
L 225.071592 14.501183 
" clip-path="url(#p6fd96f525b)" style="fill: none; stroke: #b0b0b0; stroke-width: 0.8; stroke-linecap: square"/>
     </g>
     <g id="line2d_10">
      <g>
       <use xlink:href="#m1263f3ceab" x="225.071592" y="174.04" style="stroke: #000000; stroke-width: 0.8"/>
      </g>
     </g>
     <g id="text_5">
      <!-- 4 -->
      <g transform="translate(221.890342 188.638438) scale(0.1 -0.1)">
       <use xlink:href="#DejaVuSans-34"/>
      </g>
     </g>
    </g>
    <g id="xtick_6">
     <g id="line2d_11">
      <path d="M 260.308924 174.04 
L 260.308924 14.501183 
" clip-path="url(#p6fd96f525b)" style="fill: none; stroke: #b0b0b0; stroke-width: 0.8; stroke-linecap: square"/>
     </g>
     <g id="line2d_12">
      <g>
       <use xlink:href="#m1263f3ceab" x="260.308924" y="174.04" style="stroke: #000000; stroke-width: 0.8"/>
      </g>
     </g>
     <g id="text_6">
      <!-- 6 -->
      <g transform="translate(257.127674 188.638438) scale(0.1 -0.1)">
       <defs>
        <path id="DejaVuSans-36" d="M 2113 2584 
Q 1688 2584 1439 2293 
Q 1191 2003 1191 1497 
Q 1191 994 1439 701 
Q 1688 409 2113 409 
Q 2538 409 2786 701 
Q 3034 994 3034 1497 
Q 3034 2003 2786 2293 
Q 2538 2584 2113 2584 
z
M 3366 4563 
L 3366 3988 
Q 3128 4100 2886 4159 
Q 2644 4219 2406 4219 
Q 1781 4219 1451 3797 
Q 1122 3375 1075 2522 
Q 1259 2794 1537 2939 
Q 1816 3084 2150 3084 
Q 2853 3084 3261 2657 
Q 3669 2231 3669 1497 
Q 3669 778 3244 343 
Q 2819 -91 2113 -91 
Q 1303 -91 875 529 
Q 447 1150 447 2328 
Q 447 3434 972 4092 
Q 1497 4750 2381 4750 
Q 2619 4750 2861 4703 
Q 3103 4656 3366 4563 
z
" transform="scale(0.015625)"/>
       </defs>
       <use xlink:href="#DejaVuSans-36"/>
      </g>
     </g>
    </g>
    <g id="text_7">
     <!-- $\alpha$ -->
     <g transform="translate(177.724928 202.316563) scale(0.1 -0.1)">
      <defs>
       <path id="DejaVuSans-Oblique-3b1" d="M 2619 1628 
L 2622 2350 
Q 2625 3088 2069 3091 
Q 1653 3094 1394 2747 
Q 1069 2319 959 1747 
Q 825 1059 994 731 
Q 1169 397 1547 397 
Q 1966 397 2319 1063 
L 2619 1628 
z
M 2166 3578 
Q 3141 3594 3128 2584 
Q 3128 2584 3616 3500 
L 4128 3500 
L 3119 1603 
L 3109 919 
Q 3109 766 3194 638 
Q 3291 488 3391 488 
L 3669 488 
L 3575 0 
L 3228 0 
Q 2934 0 2722 263 
Q 2622 394 2619 669 
Q 2416 334 2066 50 
Q 1900 -81 1453 -78 
Q 722 -72 456 397 
Q 184 884 353 1747 
Q 534 2675 1009 3097 
Q 1544 3569 2166 3578 
z
" transform="scale(0.015625)"/>
      </defs>
      <use xlink:href="#DejaVuSans-Oblique-3b1" transform="translate(0 0.84375)"/>
     </g>
    </g>
   </g>
   <g id="matplotlib.axis_2">
    <g id="ytick_1">
     <g id="line2d_13">
      <path d="M 74.432 135.006442 
L 287.617856 135.006442 
" clip-path="url(#p6fd96f525b)" style="fill: none; stroke: #b0b0b0; stroke-width: 0.8; stroke-linecap: square"/>
     </g>
     <g id="line2d_14">
      <defs>
       <path id="ma9e32559f3" d="M 0 0 
L -3.5 0 
" style="stroke: #000000; stroke-width: 0.8"/>
      </defs>
      <g>
       <use xlink:href="#ma9e32559f3" x="74.432" y="135.006442" style="stroke: #000000; stroke-width: 0.8"/>
      </g>
     </g>
     <g id="text_8">
      <!-- −0.80 -->
      <g transform="translate(36.786687 138.805661) scale(0.1 -0.1)">
       <defs>
        <path id="DejaVuSans-2e" d="M 684 794 
L 1344 794 
L 1344 0 
L 684 0 
L 684 794 
z
" transform="scale(0.015625)"/>
        <path id="DejaVuSans-38" d="M 2034 2216 
Q 1584 2216 1326 1975 
Q 1069 1734 1069 1313 
Q 1069 891 1326 650 
Q 1584 409 2034 409 
Q 2484 409 2743 651 
Q 3003 894 3003 1313 
Q 3003 1734 2745 1975 
Q 2488 2216 2034 2216 
z
M 1403 2484 
Q 997 2584 770 2862 
Q 544 3141 544 3541 
Q 544 4100 942 4425 
Q 1341 4750 2034 4750 
Q 2731 4750 3128 4425 
Q 3525 4100 3525 3541 
Q 3525 3141 3298 2862 
Q 3072 2584 2669 2484 
Q 3125 2378 3379 2068 
Q 3634 1759 3634 1313 
Q 3634 634 3220 271 
Q 2806 -91 2034 -91 
Q 1263 -91 848 271 
Q 434 634 434 1313 
Q 434 1759 690 2068 
Q 947 2378 1403 2484 
z
M 1172 3481 
Q 1172 3119 1398 2916 
Q 1625 2713 2034 2713 
Q 2441 2713 2670 2916 
Q 2900 3119 2900 3481 
Q 2900 3844 2670 4047 
Q 2441 4250 2034 4250 
Q 1625 4250 1398 4047 
Q 1172 3844 1172 3481 
z
" transform="scale(0.015625)"/>
       </defs>
       <use xlink:href="#DejaVuSans-2212"/>
       <use xlink:href="#DejaVuSans-30" x="83.789062"/>
       <use xlink:href="#DejaVuSans-2e" x="147.412109"/>
       <use xlink:href="#DejaVuSans-38" x="179.199219"/>
       <use xlink:href="#DejaVuSans-30" x="242.822266"/>
      </g>
     </g>
    </g>
    <g id="ytick_2">
     <g id="line2d_15">
      <path d="M 74.432 94.920777 
L 287.617856 94.920777 
" clip-path="url(#p6fd96f525b)" style="fill: none; stroke: #b0b0b0; stroke-width: 0.8; stroke-linecap: square"/>
     </g>
     <g id="line2d_16">
      <g>
       <use xlink:href="#ma9e32559f3" x="74.432" y="94.920777" style="stroke: #000000; stroke-width: 0.8"/>
      </g>
     </g>
     <g id="text_9">
      <!-- −0.75 -->
      <g transform="translate(36.786687 98.719996) scale(0.1 -0.1)">
       <defs>
        <path id="DejaVuSans-37" d="M 525 4666 
L 3525 4666 
L 3525 4397 
L 1831 0 
L 1172 0 
L 2766 4134 
L 525 4134 
L 525 4666 
z
" transform="scale(0.015625)"/>
        <path id="DejaVuSans-35" d="M 691 4666 
L 3169 4666 
L 3169 4134 
L 1269 4134 
L 1269 2991 
Q 1406 3038 1543 3061 
Q 1681 3084 1819 3084 
Q 2600 3084 3056 2656 
Q 3513 2228 3513 1497 
Q 3513 744 3044 326 
Q 2575 -91 1722 -91 
Q 1428 -91 1123 -41 
Q 819 9 494 109 
L 494 744 
Q 775 591 1075 516 
Q 1375 441 1709 441 
Q 2250 441 2565 725 
Q 2881 1009 2881 1497 
Q 2881 1984 2565 2268 
Q 2250 2553 1709 2553 
Q 1456 2553 1204 2497 
Q 953 2441 691 2322 
L 691 4666 
z
" transform="scale(0.015625)"/>
       </defs>
       <use xlink:href="#DejaVuSans-2212"/>
       <use xlink:href="#DejaVuSans-30" x="83.789062"/>
       <use xlink:href="#DejaVuSans-2e" x="147.412109"/>
       <use xlink:href="#DejaVuSans-37" x="179.199219"/>
       <use xlink:href="#DejaVuSans-35" x="242.822266"/>
      </g>
     </g>
    </g>
    <g id="ytick_3">
     <g id="line2d_17">
      <path d="M 74.432 54.835112 
L 287.617856 54.835112 
" clip-path="url(#p6fd96f525b)" style="fill: none; stroke: #b0b0b0; stroke-width: 0.8; stroke-linecap: square"/>
     </g>
     <g id="line2d_18">
      <g>
       <use xlink:href="#ma9e32559f3" x="74.432" y="54.835112" style="stroke: #000000; stroke-width: 0.8"/>
      </g>
     </g>
     <g id="text_10">
      <!-- −0.70 -->
      <g transform="translate(36.786687 58.634331) scale(0.1 -0.1)">
       <use xlink:href="#DejaVuSans-2212"/>
       <use xlink:href="#DejaVuSans-30" x="83.789062"/>
       <use xlink:href="#DejaVuSans-2e" x="147.412109"/>
       <use xlink:href="#DejaVuSans-37" x="179.199219"/>
       <use xlink:href="#DejaVuSans-30" x="242.822266"/>
      </g>
     </g>
    </g>
    <g id="ytick_4">
     <g id="line2d_19">
      <path d="M 74.432 14.749448 
L 287.617856 14.749448 
" clip-path="url(#p6fd96f525b)" style="fill: none; stroke: #b0b0b0; stroke-width: 0.8; stroke-linecap: square"/>
     </g>
     <g id="line2d_20">
      <g>
       <use xlink:href="#ma9e32559f3" x="74.432" y="14.749448" style="stroke: #000000; stroke-width: 0.8"/>
      </g>
     </g>
     <g id="text_11">
      <!-- −0.65 -->
      <g transform="translate(36.786687 18.548666) scale(0.1 -0.1)">
       <use xlink:href="#DejaVuSans-2212"/>
       <use xlink:href="#DejaVuSans-30" x="83.789062"/>
       <use xlink:href="#DejaVuSans-2e" x="147.412109"/>
       <use xlink:href="#DejaVuSans-36" x="179.199219"/>
       <use xlink:href="#DejaVuSans-35" x="242.822266"/>
      </g>
     </g>
    </g>
    <g id="text_12">
     <!-- d$C_T = T / \rho n^2 D^4$ / d$J$ -->
     <g transform="translate(30.686687 139.120592) rotate(-90) scale(0.1 -0.1)">
      <defs>
       <path id="DejaVuSans-64" d="M 2906 2969 
L 2906 4863 
L 3481 4863 
L 3481 0 
L 2906 0 
L 2906 525 
Q 2725 213 2448 61 
Q 2172 -91 1784 -91 
Q 1150 -91 751 415 
Q 353 922 353 1747 
Q 353 2572 751 3078 
Q 1150 3584 1784 3584 
Q 2172 3584 2448 3432 
Q 2725 3281 2906 2969 
z
M 947 1747 
Q 947 1113 1208 752 
Q 1469 391 1925 391 
Q 2381 391 2643 752 
Q 2906 1113 2906 1747 
Q 2906 2381 2643 2742 
Q 2381 3103 1925 3103 
Q 1469 3103 1208 2742 
Q 947 2381 947 1747 
z
" transform="scale(0.015625)"/>
       <path id="DejaVuSans-Oblique-43" d="M 4447 4306 
L 4319 3641 
Q 4019 3944 3683 4091 
Q 3347 4238 2956 4238 
Q 2422 4238 2017 3981 
Q 1613 3725 1319 3200 
Q 1131 2863 1032 2486 
Q 934 2109 934 1728 
Q 934 1091 1264 756 
Q 1594 422 2222 422 
Q 2656 422 3056 561 
Q 3456 700 3834 978 
L 3688 231 
Q 3316 72 2936 -9 
Q 2556 -91 2175 -91 
Q 1278 -91 773 396 
Q 269 884 269 1753 
Q 269 2309 461 2846 
Q 653 3384 1013 3828 
Q 1394 4300 1883 4525 
Q 2372 4750 3022 4750 
Q 3422 4750 3780 4639 
Q 4138 4528 4447 4306 
z
" transform="scale(0.015625)"/>
       <path id="DejaVuSans-Oblique-54" d="M 378 4666 
L 4325 4666 
L 4225 4134 
L 2559 4134 
L 1759 0 
L 1125 0 
L 1925 4134 
L 275 4134 
L 378 4666 
z
" transform="scale(0.015625)"/>
       <path id="DejaVuSans-3d" d="M 678 2906 
L 4684 2906 
L 4684 2381 
L 678 2381 
L 678 2906 
z
M 678 1631 
L 4684 1631 
L 4684 1100 
L 678 1100 
L 678 1631 
z
" transform="scale(0.015625)"/>
       <path id="DejaVuSans-2f" d="M 1625 4666 
L 2156 4666 
L 531 -594 
L 0 -594 
L 1625 4666 
z
" transform="scale(0.015625)"/>
       <path id="DejaVuSans-Oblique-3c1" d="M 1203 2875 
Q 1453 3194 1981 3475 
Q 2188 3584 2756 3584 
Q 3394 3584 3694 3078 
Q 3994 2572 3834 1747 
Q 3672 922 3175 415 
Q 2678 -91 2041 -91 
Q 1656 -91 1409 63 
Q 1163 213 1044 525 
L 681 -1331 
L 103 -1331 
L 697 1716 
Q 838 2438 1203 2875 
z
M 3238 1747 
Q 3359 2381 3169 2744 
Q 2978 3103 2522 3103 
Q 2066 3103 1734 2744 
Q 1403 2381 1281 1747 
Q 1156 1113 1347 750 
Q 1538 391 1994 391 
Q 2450 391 2781 750 
Q 3113 1113 3238 1747 
z
" transform="scale(0.015625)"/>
       <path id="DejaVuSans-Oblique-6e" d="M 3566 2113 
L 3156 0 
L 2578 0 
L 2988 2091 
Q 3016 2238 3031 2350 
Q 3047 2463 3047 2528 
Q 3047 2791 2881 2937 
Q 2716 3084 2419 3084 
Q 1956 3084 1622 2776 
Q 1288 2469 1184 1941 
L 800 0 
L 225 0 
L 903 3500 
L 1478 3500 
L 1363 2950 
Q 1603 3253 1940 3418 
Q 2278 3584 2650 3584 
Q 3113 3584 3367 3334 
Q 3622 3084 3622 2631 
Q 3622 2519 3608 2391 
Q 3594 2263 3566 2113 
z
" transform="scale(0.015625)"/>
       <path id="DejaVuSans-Oblique-44" d="M 1081 4666 
L 2438 4666 
Q 3519 4666 4070 4208 
Q 4622 3750 4622 2847 
Q 4622 2250 4412 1698 
Q 4203 1147 3834 769 
Q 3463 381 2891 190 
Q 2319 0 1538 0 
L 172 0 
L 1081 4666 
z
M 1613 4147 
L 909 519 
L 1734 519 
Q 2794 519 3375 1128 
Q 3956 1738 3956 2847 
Q 3956 3519 3581 3833 
Q 3206 4147 2406 4147 
L 1613 4147 
z
" transform="scale(0.015625)"/>
       <path id="DejaVuSans-20" transform="scale(0.015625)"/>
       <path id="DejaVuSans-Oblique-4a" d="M 1069 4666 
L 1703 4666 
L 856 325 
Q 691 -522 298 -901 
Q -94 -1281 -800 -1281 
L -1050 -1281 
L -947 -750 
L -750 -750 
Q -328 -750 -109 -509 
Q 109 -269 225 325 
L 1069 4666 
z
" transform="scale(0.015625)"/>
      </defs>
      <use xlink:href="#DejaVuSans-64" transform="translate(0 0.765625)"/>
      <use xlink:href="#DejaVuSans-Oblique-43" transform="translate(63.476562 0.765625)"/>
      <use xlink:href="#DejaVuSans-Oblique-54" transform="translate(133.300781 -15.640625) scale(0.7)"/>
      <use xlink:href="#DejaVuSans-3d" transform="translate(198.276367 0.765625)"/>
      <use xlink:href="#DejaVuSans-Oblique-54" transform="translate(301.547852 0.765625)"/>
      <use xlink:href="#DejaVuSans-2f" transform="translate(362.631836 0.765625)"/>
      <use xlink:href="#DejaVuSans-Oblique-3c1" transform="translate(396.323242 0.765625)"/>
      <use xlink:href="#DejaVuSans-Oblique-6e" transform="translate(459.799805 0.765625)"/>
      <use xlink:href="#DejaVuSans-32" transform="translate(527.828607 39.046875) scale(0.7)"/>
      <use xlink:href="#DejaVuSans-Oblique-44" transform="translate(575.099115 0.765625)"/>
      <use xlink:href="#DejaVuSans-34" transform="translate(659.117839 39.046875) scale(0.7)"/>
      <use xlink:href="#DejaVuSans-20" transform="translate(706.388346 0.765625)"/>
      <use xlink:href="#DejaVuSans-2f" transform="translate(738.175456 0.765625)"/>
      <use xlink:href="#DejaVuSans-20" transform="translate(771.866862 0.765625)"/>
      <use xlink:href="#DejaVuSans-64" transform="translate(803.653971 0.765625)"/>
      <use xlink:href="#DejaVuSans-Oblique-4a" transform="translate(867.130534 0.765625)"/>
     </g>
    </g>
   </g>
   <g id="line2d_21">
    <path d="M 84.122266 166.788236 
L 86.079896 164.762812 
L 88.037525 162.748825 
L 89.995155 160.746275 
L 91.952784 158.755163 
L 93.910414 156.775488 
L 95.868043 154.80725 
L 97.825673 152.850449 
L 99.783302 150.905085 
L 101.740932 148.971158 
L 103.698561 147.048669 
L 105.656191 145.137617 
L 107.613821 143.238001 
L 109.57145 141.349823 
L 111.52908 139.473083 
L 113.486709 137.607779 
L 115.444339 135.753913 
L 117.401968 133.911483 
L 119.359598 132.080491 
L 121.317227 130.260936 
L 123.274857 128.452818 
L 125.232486 126.656138 
L 127.190116 124.870894 
L 129.147745 123.097088 
L 131.105375 121.334719 
L 133.063004 119.583787 
L 135.020634 117.844292 
L 136.978263 116.116234 
L 138.935893 114.399614 
L 140.893523 112.69443 
L 142.851152 111.000684 
L 144.808782 109.318375 
L 146.766411 107.647503 
L 148.724041 105.988069 
L 150.68167 104.340071 
L 152.6393 102.703511 
L 154.596929 101.078388 
L 156.554559 99.464702 
L 158.512188 97.862453 
L 160.469818 96.271641 
L 162.427447 94.692266 
L 164.385077 93.124329 
L 166.342706 91.567829 
L 168.300336 90.022766 
L 170.257966 88.48914 
L 172.215595 86.966951 
L 174.173225 85.4562 
L 176.130854 83.956885 
L 178.088484 82.469008 
L 180.046113 80.992568 
L 182.003743 79.527565 
L 183.961372 78.073999 
L 185.919002 76.631871 
L 187.876631 75.201179 
L 189.834261 73.781925 
L 191.79189 72.374108 
L 193.74952 70.977728 
L 195.707149 69.592785 
L 197.664779 68.21928 
L 199.622408 66.857211 
L 201.580038 65.50658 
L 203.537668 64.167386 
L 205.495297 62.839629 
L 207.452927 61.523309 
L 209.410556 60.218426 
L 211.368186 58.924981 
L 213.325815 57.642973 
L 215.283445 56.372402 
L 217.241074 55.113268 
L 219.198704 53.865571 
L 221.156333 52.629311 
L 223.113963 51.404489 
L 225.071592 50.191103 
L 227.029222 48.989155 
L 228.986851 47.798644 
L 230.944481 46.61957 
L 232.90211 45.451934 
L 234.85974 44.295734 
L 236.81737 43.150972 
L 238.774999 42.017647 
L 240.732629 40.895759 
L 242.690258 39.785308 
L 244.647888 38.686294 
L 246.605517 37.598718 
L 248.563147 36.522578 
L 250.520776 35.457876 
L 252.478406 34.404611 
L 254.436035 33.362783 
L 256.393665 32.332392 
L 258.351294 31.313439 
L 260.308924 30.305923 
L 262.266553 29.309843 
L 264.224183 28.325201 
L 266.181812 27.351996 
L 268.139442 26.390229 
L 270.097072 25.439898 
L 272.054701 24.501005 
L 274.012331 23.573549 
L 275.96996 22.657529 
L 277.92759 21.752948 
" clip-path="url(#p6fd96f525b)" style="fill: none; stroke: #000080; stroke-width: 1.5; stroke-linecap: square"/>
   </g>
   <g id="line2d_22">
    <path d="M 84.122266 140.580247 
L 86.079896 140.005592 
L 88.037525 139.429764 
L 89.995155 138.852764 
L 91.952784 138.27459 
L 93.910414 137.695244 
L 95.868043 137.114724 
L 97.825673 136.533032 
L 99.783302 135.950167 
L 101.740932 135.366129 
L 103.698561 134.780918 
L 105.656191 134.194534 
L 107.613821 133.606978 
L 109.57145 133.018248 
L 111.52908 132.428345 
L 113.486709 131.83727 
L 115.444339 131.245022 
L 117.401968 130.651601 
L 119.359598 130.057006 
L 121.317227 129.461239 
L 123.274857 128.8643 
L 125.232486 128.266187 
L 127.190116 127.666901 
L 129.147745 127.066443 
L 131.105375 126.464811 
L 133.063004 125.862007 
L 135.020634 125.258029 
L 136.978263 124.652879 
L 138.935893 124.046556 
L 140.893523 123.43906 
L 142.851152 122.830391 
L 144.808782 122.22055 
L 146.766411 121.609535 
L 148.724041 120.997347 
L 150.68167 120.383987 
L 152.6393 119.769454 
L 154.596929 119.153747 
L 156.554559 118.536868 
L 158.512188 117.918816 
L 160.469818 117.299591 
L 162.427447 116.679193 
L 164.385077 116.057623 
L 166.342706 115.434879 
L 168.300336 114.810963 
L 170.257966 114.185873 
L 172.215595 113.559611 
L 174.173225 112.932176 
L 176.130854 112.303567 
L 178.088484 111.673786 
L 180.046113 111.042833 
L 182.003743 110.410706 
L 183.961372 109.777406 
L 185.919002 109.142933 
L 187.876631 108.507288 
L 189.834261 107.870469 
L 191.79189 107.232478 
L 193.74952 106.593314 
L 195.707149 105.952977 
L 197.664779 105.311467 
L 199.622408 104.668784 
L 201.580038 104.024928 
L 203.537668 103.379899 
L 205.495297 102.733698 
L 207.452927 102.086323 
L 209.410556 101.437776 
L 211.368186 100.788056 
L 213.325815 100.137163 
L 215.283445 99.485097 
L 217.241074 98.831858 
L 219.198704 98.177446 
L 221.156333 97.521861 
L 223.113963 96.865103 
L 225.071592 96.207173 
L 227.029222 95.548069 
L 228.986851 94.887793 
L 230.944481 94.226344 
L 232.90211 93.563721 
L 234.85974 92.899926 
L 236.81737 92.234958 
L 238.774999 91.568818 
L 240.732629 90.901504 
L 242.690258 90.233017 
L 244.647888 89.563358 
L 246.605517 88.892525 
L 248.563147 88.22052 
L 250.520776 87.547342 
L 252.478406 86.872991 
L 254.436035 86.197467 
L 256.393665 85.52077 
L 258.351294 84.8429 
L 260.308924 84.163857 
L 262.266553 83.483641 
L 264.224183 82.802253 
L 266.181812 82.119692 
L 268.139442 81.435957 
L 270.097072 80.75105 
L 272.054701 80.06497 
L 274.012331 79.377717 
L 275.96996 78.689291 
L 277.92759 77.999692 
" clip-path="url(#p6fd96f525b)" style="fill: none; stroke: #7dff7a; stroke-width: 1.5; stroke-linecap: square"/>
   </g>
   <g id="line2d_23">
    <path d="M 84.122266 114.372258 
L 86.079896 115.248372 
L 88.037525 116.110703 
L 89.995155 116.959252 
L 91.952784 117.794017 
L 93.910414 118.614999 
L 95.868043 119.422199 
L 97.825673 120.215615 
L 99.783302 120.995249 
L 101.740932 121.7611 
L 103.698561 122.513167 
L 105.656191 123.251452 
L 107.613821 123.975954 
L 109.57145 124.686672 
L 111.52908 125.383608 
L 113.486709 126.066761 
L 115.444339 126.736131 
L 117.401968 127.391718 
L 119.359598 128.033522 
L 121.317227 128.661543 
L 123.274857 129.275781 
L 125.232486 129.876236 
L 127.190116 130.462908 
L 129.147745 131.035797 
L 131.105375 131.594903 
L 133.063004 132.140227 
L 135.020634 132.671767 
L 136.978263 133.189524 
L 138.935893 133.693499 
L 140.893523 134.18369 
L 142.851152 134.660099 
L 144.808782 135.122724 
L 146.766411 135.571567 
L 148.724041 136.006626 
L 150.68167 136.427903 
L 152.6393 136.835396 
L 154.596929 137.229107 
L 156.554559 137.609035 
L 158.512188 137.97518 
L 160.469818 138.327542 
L 162.427447 138.66612 
L 164.385077 138.990916 
L 166.342706 139.301929 
L 168.300336 139.599159 
L 170.257966 139.882606 
L 172.215595 140.15227 
L 174.173225 140.408151 
L 176.130854 140.65025 
L 178.088484 140.878565 
L 180.046113 141.093097 
L 182.003743 141.293846 
L 183.961372 141.480813 
L 185.919002 141.653996 
L 187.876631 141.813396 
L 189.834261 141.959014 
L 191.79189 142.090848 
L 193.74952 142.2089 
L 195.707149 142.313169 
L 197.664779 142.403654 
L 199.622408 142.480357 
L 201.580038 142.543276 
L 203.537668 142.592413 
L 205.495297 142.627767 
L 207.452927 142.649338 
L 209.410556 142.657126 
L 211.368186 142.651131 
L 213.325815 142.631353 
L 215.283445 142.597792 
L 217.241074 142.550448 
L 219.198704 142.489321 
L 221.156333 142.414411 
L 223.113963 142.325718 
L 225.071592 142.223242 
L 227.029222 142.106983 
L 228.986851 141.976942 
L 230.944481 141.833117 
L 232.90211 141.675509 
L 234.85974 141.504119 
L 236.81737 141.318945 
L 238.774999 141.119989 
L 240.732629 140.907249 
L 242.690258 140.680727 
L 244.647888 140.440421 
L 246.605517 140.186333 
L 248.563147 139.918462 
L 250.520776 139.636807 
L 252.478406 139.34137 
L 254.436035 139.03215 
L 256.393665 138.709147 
L 258.351294 138.372361 
L 260.308924 138.021792 
L 262.266553 137.65744 
L 264.224183 137.279305 
L 266.181812 136.887387 
L 268.139442 136.481686 
L 270.097072 136.062202 
L 272.054701 135.628935 
L 274.012331 135.181885 
L 275.96996 134.721053 
L 277.92759 134.246437 
" clip-path="url(#p6fd96f525b)" style="fill: none; stroke: #800000; stroke-width: 1.5; stroke-linecap: square"/>
   </g>
   <g id="patch_3">
    <path d="M 74.432 174.04 
L 74.432 14.501183 
" style="fill: none; stroke: #000000; stroke-width: 0.8; stroke-linejoin: miter; stroke-linecap: square"/>
   </g>
   <g id="patch_4">
    <path d="M 287.617856 174.04 
L 287.617856 14.501183 
" style="fill: none; stroke: #000000; stroke-width: 0.8; stroke-linejoin: miter; stroke-linecap: square"/>
   </g>
   <g id="patch_5">
    <path d="M 74.432 174.04 
L 287.617856 174.04 
" style="fill: none; stroke: #000000; stroke-width: 0.8; stroke-linejoin: miter; stroke-linecap: square"/>
   </g>
   <g id="patch_6">
    <path d="M 74.432 14.501183 
L 287.617856 14.501183 
" style="fill: none; stroke: #000000; stroke-width: 0.8; stroke-linejoin: miter; stroke-linecap: square"/>
   </g>
   <g id="legend_1">
    <g id="patch_7">
     <path d="M 296.617856 163.063059 
L 420.517856 163.063059 
Q 422.517856 163.063059 422.517856 161.063059 
L 422.517856 117.967747 
Q 422.517856 115.967747 420.517856 115.967747 
L 296.617856 115.967747 
Q 294.617856 115.967747 294.617856 117.967747 
L 294.617856 161.063059 
Q 294.617856 163.063059 296.617856 163.063059 
z
" style="fill: #4d4d4d; opacity: 0.5; stroke: #4d4d4d; stroke-linejoin: miter"/>
    </g>
    <g id="patch_8">
     <path d="M 294.617856 161.063059 
L 418.517856 161.063059 
Q 420.517856 161.063059 420.517856 159.063059 
L 420.517856 115.967747 
Q 420.517856 113.967747 418.517856 113.967747 
L 294.617856 113.967747 
Q 292.617856 113.967747 292.617856 115.967747 
L 292.617856 159.063059 
Q 292.617856 161.063059 294.617856 161.063059 
z
" style="fill: #ffffff; stroke: #cccccc; stroke-linejoin: miter"/>
    </g>
    <g id="line2d_24">
     <path d="M 296.617856 122.066184 
L 306.617856 122.066184 
L 316.617856 122.066184 
" style="fill: none; stroke: #000080; stroke-width: 1.5; stroke-linecap: square"/>
    </g>
    <g id="text_13">
     <!-- $\delta_e = -10$, $J = 1.60$ -->
     <g transform="translate(324.617856 125.566184) scale(0.1 -0.1)">
      <defs>
       <path id="DejaVuSans-Oblique-3b4" d="M 3472 4053 
Q 3197 4272 2450 4272 
Q 1659 4272 1588 3906 
Q 1531 3619 2328 3469 
Q 2953 3353 3253 3003 
Q 3616 2581 3447 1716 
Q 3284 888 2763 400 
Q 2238 -91 1488 -91 
Q 741 -91 406 400 
Q 72 888 241 1747 
Q 363 2384 891 2900 
Q 1097 3100 1353 3213 
Q 913 3459 1000 3900 
Q 1166 4750 2544 4750 
Q 3234 4750 3566 4531 
L 3472 4053 
z
M 1753 3056 
Q 1525 2966 1306 2738 
Q 969 2384 847 1747 
Q 722 1113 919 756 
Q 1119 397 1584 397 
Q 2044 397 2381 759 
Q 2722 1122 2838 1716 
Q 2956 2338 2731 2638 
Q 2491 2959 2103 2994 
Q 1906 3013 1753 3056 
z
" transform="scale(0.015625)"/>
       <path id="DejaVuSans-Oblique-65" d="M 3078 2063 
Q 3088 2113 3092 2166 
Q 3097 2219 3097 2272 
Q 3097 2653 2873 2875 
Q 2650 3097 2266 3097 
Q 1838 3097 1509 2826 
Q 1181 2556 1013 2059 
L 3078 2063 
z
M 3578 1613 
L 903 1613 
Q 884 1494 878 1425 
Q 872 1356 872 1306 
Q 872 872 1139 634 
Q 1406 397 1894 397 
Q 2269 397 2603 481 
Q 2938 566 3225 728 
L 3116 159 
Q 2806 34 2476 -28 
Q 2147 -91 1806 -91 
Q 1078 -91 686 257 
Q 294 606 294 1247 
Q 294 1794 489 2264 
Q 684 2734 1063 3103 
Q 1306 3334 1642 3459 
Q 1978 3584 2356 3584 
Q 2950 3584 3301 3228 
Q 3653 2872 3653 2272 
Q 3653 2128 3634 1964 
Q 3616 1800 3578 1613 
z
" transform="scale(0.015625)"/>
       <path id="DejaVuSans-31" d="M 794 531 
L 1825 531 
L 1825 4091 
L 703 3866 
L 703 4441 
L 1819 4666 
L 2450 4666 
L 2450 531 
L 3481 531 
L 3481 0 
L 794 0 
L 794 531 
z
" transform="scale(0.015625)"/>
       <path id="DejaVuSans-2c" d="M 750 794 
L 1409 794 
L 1409 256 
L 897 -744 
L 494 -744 
L 750 256 
L 750 794 
z
" transform="scale(0.015625)"/>
      </defs>
      <use xlink:href="#DejaVuSans-Oblique-3b4" transform="translate(0 0.78125)"/>
      <use xlink:href="#DejaVuSans-Oblique-65" transform="translate(61.181641 -15.625) scale(0.7)"/>
      <use xlink:href="#DejaVuSans-3d" transform="translate(126.464844 0.78125)"/>
      <use xlink:href="#DejaVuSans-2212" transform="translate(249.21875 0.78125)"/>
      <use xlink:href="#DejaVuSans-31" transform="translate(352.490234 0.78125)"/>
      <use xlink:href="#DejaVuSans-30" transform="translate(416.113281 0.78125)"/>
      <use xlink:href="#DejaVuSans-2c" transform="translate(479.736328 0.78125)"/>
      <use xlink:href="#DejaVuSans-20" transform="translate(511.523438 0.78125)"/>
      <use xlink:href="#DejaVuSans-Oblique-4a" transform="translate(543.310547 0.78125)"/>
      <use xlink:href="#DejaVuSans-3d" transform="translate(592.285156 0.78125)"/>
      <use xlink:href="#DejaVuSans-31" transform="translate(695.556641 0.78125)"/>
      <use xlink:href="#DejaVuSans-2e" transform="translate(759.179688 0.78125)"/>
      <use xlink:href="#DejaVuSans-36" transform="translate(790.966797 0.78125)"/>
      <use xlink:href="#DejaVuSans-30" transform="translate(854.589844 0.78125)"/>
     </g>
    </g>
    <g id="line2d_25">
     <path d="M 296.617856 136.764622 
L 306.617856 136.764622 
L 316.617856 136.764622 
" style="fill: none; stroke: #7dff7a; stroke-width: 1.5; stroke-linecap: square"/>
    </g>
    <g id="text_14">
     <!-- $\delta_e = 0$, $J = 1.60$ -->
     <g transform="translate(324.617856 140.264622) scale(0.1 -0.1)">
      <use xlink:href="#DejaVuSans-Oblique-3b4" transform="translate(0 0.78125)"/>
      <use xlink:href="#DejaVuSans-Oblique-65" transform="translate(61.181641 -15.625) scale(0.7)"/>
      <use xlink:href="#DejaVuSans-3d" transform="translate(126.464844 0.78125)"/>
      <use xlink:href="#DejaVuSans-30" transform="translate(229.736328 0.78125)"/>
      <use xlink:href="#DejaVuSans-2c" transform="translate(293.359375 0.78125)"/>
      <use xlink:href="#DejaVuSans-20" transform="translate(325.146484 0.78125)"/>
      <use xlink:href="#DejaVuSans-Oblique-4a" transform="translate(356.933594 0.78125)"/>
      <use xlink:href="#DejaVuSans-3d" transform="translate(405.908203 0.78125)"/>
      <use xlink:href="#DejaVuSans-31" transform="translate(509.179688 0.78125)"/>
      <use xlink:href="#DejaVuSans-2e" transform="translate(572.802734 0.78125)"/>
      <use xlink:href="#DejaVuSans-36" transform="translate(604.589844 0.78125)"/>
      <use xlink:href="#DejaVuSans-30" transform="translate(668.212891 0.78125)"/>
     </g>
    </g>
    <g id="line2d_26">
     <path d="M 296.617856 151.463059 
L 306.617856 151.463059 
L 316.617856 151.463059 
" style="fill: none; stroke: #800000; stroke-width: 1.5; stroke-linecap: square"/>
    </g>
    <g id="text_15">
     <!-- $\delta_e = 10$, $J = 1.60$ -->
     <g transform="translate(324.617856 154.963059) scale(0.1 -0.1)">
      <use xlink:href="#DejaVuSans-Oblique-3b4" transform="translate(0 0.78125)"/>
      <use xlink:href="#DejaVuSans-Oblique-65" transform="translate(61.181641 -15.625) scale(0.7)"/>
      <use xlink:href="#DejaVuSans-3d" transform="translate(126.464844 0.78125)"/>
      <use xlink:href="#DejaVuSans-31" transform="translate(229.736328 0.78125)"/>
      <use xlink:href="#DejaVuSans-30" transform="translate(293.359375 0.78125)"/>
      <use xlink:href="#DejaVuSans-2c" transform="translate(356.982422 0.78125)"/>
      <use xlink:href="#DejaVuSans-20" transform="translate(388.769531 0.78125)"/>
      <use xlink:href="#DejaVuSans-Oblique-4a" transform="translate(420.556641 0.78125)"/>
      <use xlink:href="#DejaVuSans-3d" transform="translate(469.53125 0.78125)"/>
      <use xlink:href="#DejaVuSans-31" transform="translate(572.802734 0.78125)"/>
      <use xlink:href="#DejaVuSans-2e" transform="translate(636.425781 0.78125)"/>
      <use xlink:href="#DejaVuSans-36" transform="translate(668.212891 0.78125)"/>
      <use xlink:href="#DejaVuSans-30" transform="translate(731.835938 0.78125)"/>
     </g>
    </g>
   </g>
  </g>
 </g>
 <defs>
  <clipPath id="p6fd96f525b">
   <rect x="74.432" y="14.501183" width="213.185856" height="159.538817"/>
  </clipPath>
 </defs>
</svg>
