<?xml version="1.0" encoding="utf-8" standalone="no"?>
<!DOCTYPE svg PUBLIC "-//W3C//DTD SVG 1.1//EN"
  "http://www.w3.org/Graphics/SVG/1.1/DTD/svg11.dtd">
<svg xmlns:xlink="http://www.w3.org/1999/xlink" width="576pt" height="216pt" viewBox="0 0 576 216" xmlns="http://www.w3.org/2000/svg" version="1.1">
 <metadata>
  <rdf:RDF xmlns:dc="http://purl.org/dc/elements/1.1/" xmlns:cc="http://creativecommons.org/ns#" xmlns:rdf="http://www.w3.org/1999/02/22-rdf-syntax-ns#">
   <cc:Work>
    <dc:type rdf:resource="http://purl.org/dc/dcmitype/StillImage"/>
    <dc:date>2025-03-27T20:38:21.535557</dc:date>
    <dc:format>image/svg+xml</dc:format>
    <dc:creator>
     <cc:Agent>
      <dc:title>Matplotlib v3.9.2, https://matplotlib.org/</dc:title>
     </cc:Agent>
    </dc:creator>
   </cc:Work>
  </rdf:RDF>
 </metadata>
 <defs>
  <style type="text/css">*{stroke-linejoin: round; stroke-linecap: butt}</style>
 </defs>
 <g id="figure_1">
  <g id="patch_1">
   <path d="M 0 216 
L 576 216 
L 576 0 
L 0 0 
z
" style="fill: #ffffff"/>
  </g>
  <g id="axes_1">
   <g id="patch_2">
    <path d="M 74.432 174.04 
L 450.255247 174.04 
L 450.255247 10.8 
L 74.432 10.8 
z
" style="fill: #ffffff"/>
   </g>
   <g id="matplotlib.axis_1">
    <g id="xtick_1">
     <g id="line2d_1">
      <path d="M 91.514875 174.04 
L 91.514875 10.8 
" clip-path="url(#pc4612bfec0)" style="fill: none; stroke: #b0b0b0; stroke-width: 0.8; stroke-linecap: square"/>
     </g>
     <g id="line2d_2">
      <defs>
       <path id="m47246d870f" d="M 0 0 
L 0 3.5 
" style="stroke: #000000; stroke-width: 0.8"/>
      </defs>
      <g>
       <use xlink:href="#m47246d870f" x="91.514875" y="174.04" style="stroke: #000000; stroke-width: 0.8"/>
      </g>
     </g>
     <g id="text_1">
      <!-- −4 -->
      <g transform="translate(84.143781 188.638438) scale(0.1 -0.1)">
       <defs>
        <path id="DejaVuSans-2212" d="M 678 2272 
L 4684 2272 
L 4684 1741 
L 678 1741 
L 678 2272 
z
" transform="scale(0.015625)"/>
        <path id="DejaVuSans-34" d="M 2419 4116 
L 825 1625 
L 2419 1625 
L 2419 4116 
z
M 2253 4666 
L 3047 4666 
L 3047 1625 
L 3713 1625 
L 3713 1100 
L 3047 1100 
L 3047 0 
L 2419 0 
L 2419 1100 
L 313 1100 
L 313 1709 
L 2253 4666 
z
" transform="scale(0.015625)"/>
       </defs>
       <use xlink:href="#DejaVuSans-2212"/>
       <use xlink:href="#DejaVuSans-34" x="83.789062"/>
      </g>
     </g>
    </g>
    <g id="xtick_2">
     <g id="line2d_3">
      <path d="M 153.63442 174.04 
L 153.63442 10.8 
" clip-path="url(#pc4612bfec0)" style="fill: none; stroke: #b0b0b0; stroke-width: 0.8; stroke-linecap: square"/>
     </g>
     <g id="line2d_4">
      <g>
       <use xlink:href="#m47246d870f" x="153.63442" y="174.04" style="stroke: #000000; stroke-width: 0.8"/>
      </g>
     </g>
     <g id="text_2">
      <!-- −2 -->
      <g transform="translate(146.263326 188.638438) scale(0.1 -0.1)">
       <defs>
        <path id="DejaVuSans-32" d="M 1228 531 
L 3431 531 
L 3431 0 
L 469 0 
L 469 531 
Q 828 903 1448 1529 
Q 2069 2156 2228 2338 
Q 2531 2678 2651 2914 
Q 2772 3150 2772 3378 
Q 2772 3750 2511 3984 
Q 2250 4219 1831 4219 
Q 1534 4219 1204 4116 
Q 875 4013 500 3803 
L 500 4441 
Q 881 4594 1212 4672 
Q 1544 4750 1819 4750 
Q 2544 4750 2975 4387 
Q 3406 4025 3406 3419 
Q 3406 3131 3298 2873 
Q 3191 2616 2906 2266 
Q 2828 2175 2409 1742 
Q 1991 1309 1228 531 
z
" transform="scale(0.015625)"/>
       </defs>
       <use xlink:href="#DejaVuSans-2212"/>
       <use xlink:href="#DejaVuSans-32" x="83.789062"/>
      </g>
     </g>
    </g>
    <g id="xtick_3">
     <g id="line2d_5">
      <path d="M 215.753965 174.04 
L 215.753965 10.8 
" clip-path="url(#pc4612bfec0)" style="fill: none; stroke: #b0b0b0; stroke-width: 0.8; stroke-linecap: square"/>
     </g>
     <g id="line2d_6">
      <g>
       <use xlink:href="#m47246d870f" x="215.753965" y="174.04" style="stroke: #000000; stroke-width: 0.8"/>
      </g>
     </g>
     <g id="text_3">
      <!-- 0 -->
      <g transform="translate(212.572715 188.638438) scale(0.1 -0.1)">
       <defs>
        <path id="DejaVuSans-30" d="M 2034 4250 
Q 1547 4250 1301 3770 
Q 1056 3291 1056 2328 
Q 1056 1369 1301 889 
Q 1547 409 2034 409 
Q 2525 409 2770 889 
Q 3016 1369 3016 2328 
Q 3016 3291 2770 3770 
Q 2525 4250 2034 4250 
z
M 2034 4750 
Q 2819 4750 3233 4129 
Q 3647 3509 3647 2328 
Q 3647 1150 3233 529 
Q 2819 -91 2034 -91 
Q 1250 -91 836 529 
Q 422 1150 422 2328 
Q 422 3509 836 4129 
Q 1250 4750 2034 4750 
z
" transform="scale(0.015625)"/>
       </defs>
       <use xlink:href="#DejaVuSans-30"/>
      </g>
     </g>
    </g>
    <g id="xtick_4">
     <g id="line2d_7">
      <path d="M 277.87351 174.04 
L 277.87351 10.8 
" clip-path="url(#pc4612bfec0)" style="fill: none; stroke: #b0b0b0; stroke-width: 0.8; stroke-linecap: square"/>
     </g>
     <g id="line2d_8">
      <g>
       <use xlink:href="#m47246d870f" x="277.87351" y="174.04" style="stroke: #000000; stroke-width: 0.8"/>
      </g>
     </g>
     <g id="text_4">
      <!-- 2 -->
      <g transform="translate(274.69226 188.638438) scale(0.1 -0.1)">
       <use xlink:href="#DejaVuSans-32"/>
      </g>
     </g>
    </g>
    <g id="xtick_5">
     <g id="line2d_9">
      <path d="M 339.993055 174.04 
L 339.993055 10.8 
" clip-path="url(#pc4612bfec0)" style="fill: none; stroke: #b0b0b0; stroke-width: 0.8; stroke-linecap: square"/>
     </g>
     <g id="line2d_10">
      <g>
       <use xlink:href="#m47246d870f" x="339.993055" y="174.04" style="stroke: #000000; stroke-width: 0.8"/>
      </g>
     </g>
     <g id="text_5">
      <!-- 4 -->
      <g transform="translate(336.811805 188.638438) scale(0.1 -0.1)">
       <use xlink:href="#DejaVuSans-34"/>
      </g>
     </g>
    </g>
    <g id="xtick_6">
     <g id="line2d_11">
      <path d="M 402.1126 174.04 
L 402.1126 10.8 
" clip-path="url(#pc4612bfec0)" style="fill: none; stroke: #b0b0b0; stroke-width: 0.8; stroke-linecap: square"/>
     </g>
     <g id="line2d_12">
      <g>
       <use xlink:href="#m47246d870f" x="402.1126" y="174.04" style="stroke: #000000; stroke-width: 0.8"/>
      </g>
     </g>
     <g id="text_6">
      <!-- 6 -->
      <g transform="translate(398.93135 188.638438) scale(0.1 -0.1)">
       <defs>
        <path id="DejaVuSans-36" d="M 2113 2584 
Q 1688 2584 1439 2293 
Q 1191 2003 1191 1497 
Q 1191 994 1439 701 
Q 1688 409 2113 409 
Q 2538 409 2786 701 
Q 3034 994 3034 1497 
Q 3034 2003 2786 2293 
Q 2538 2584 2113 2584 
z
M 3366 4563 
L 3366 3988 
Q 3128 4100 2886 4159 
Q 2644 4219 2406 4219 
Q 1781 4219 1451 3797 
Q 1122 3375 1075 2522 
Q 1259 2794 1537 2939 
Q 1816 3084 2150 3084 
Q 2853 3084 3261 2657 
Q 3669 2231 3669 1497 
Q 3669 778 3244 343 
Q 2819 -91 2113 -91 
Q 1303 -91 875 529 
Q 447 1150 447 2328 
Q 447 3434 972 4092 
Q 1497 4750 2381 4750 
Q 2619 4750 2861 4703 
Q 3103 4656 3366 4563 
z
" transform="scale(0.015625)"/>
       </defs>
       <use xlink:href="#DejaVuSans-36"/>
      </g>
     </g>
    </g>
    <g id="text_7">
     <!-- $\alpha$ -->
     <g transform="translate(259.043624 202.316563) scale(0.1 -0.1)">
      <defs>
       <path id="DejaVuSans-Oblique-3b1" d="M 2619 1628 
L 2622 2350 
Q 2625 3088 2069 3091 
Q 1653 3094 1394 2747 
Q 1069 2319 959 1747 
Q 825 1059 994 731 
Q 1169 397 1547 397 
Q 1966 397 2319 1063 
L 2619 1628 
z
M 2166 3578 
Q 3141 3594 3128 2584 
Q 3128 2584 3616 3500 
L 4128 3500 
L 3119 1603 
L 3109 919 
Q 3109 766 3194 638 
Q 3291 488 3391 488 
L 3669 488 
L 3575 0 
L 3228 0 
Q 2934 0 2722 263 
Q 2622 394 2619 669 
Q 2416 334 2066 50 
Q 1900 -81 1453 -78 
Q 722 -72 456 397 
Q 184 884 353 1747 
Q 534 2675 1009 3097 
Q 1544 3569 2166 3578 
z
" transform="scale(0.015625)"/>
      </defs>
      <use xlink:href="#DejaVuSans-Oblique-3b1" transform="translate(0 0.84375)"/>
     </g>
    </g>
   </g>
   <g id="matplotlib.axis_2">
    <g id="ytick_1">
     <g id="line2d_13">
      <path d="M 74.432 143.751487 
L 450.255247 143.751487 
" clip-path="url(#pc4612bfec0)" style="fill: none; stroke: #b0b0b0; stroke-width: 0.8; stroke-linecap: square"/>
     </g>
     <g id="line2d_14">
      <defs>
       <path id="m057798fb8a" d="M 0 0 
L -3.5 0 
" style="stroke: #000000; stroke-width: 0.8"/>
      </defs>
      <g>
       <use xlink:href="#m057798fb8a" x="74.432" y="143.751487" style="stroke: #000000; stroke-width: 0.8"/>
      </g>
     </g>
     <g id="text_8">
      <!-- −0.010 -->
      <g transform="translate(30.424188 147.550706) scale(0.1 -0.1)">
       <defs>
        <path id="DejaVuSans-2e" d="M 684 794 
L 1344 794 
L 1344 0 
L 684 0 
L 684 794 
z
" transform="scale(0.015625)"/>
        <path id="DejaVuSans-31" d="M 794 531 
L 1825 531 
L 1825 4091 
L 703 3866 
L 703 4441 
L 1819 4666 
L 2450 4666 
L 2450 531 
L 3481 531 
L 3481 0 
L 794 0 
L 794 531 
z
" transform="scale(0.015625)"/>
       </defs>
       <use xlink:href="#DejaVuSans-2212"/>
       <use xlink:href="#DejaVuSans-30" x="83.789062"/>
       <use xlink:href="#DejaVuSans-2e" x="147.412109"/>
       <use xlink:href="#DejaVuSans-30" x="179.199219"/>
       <use xlink:href="#DejaVuSans-31" x="242.822266"/>
       <use xlink:href="#DejaVuSans-30" x="306.445312"/>
      </g>
     </g>
    </g>
    <g id="ytick_2">
     <g id="line2d_15">
      <path d="M 74.432 105.399336 
L 450.255247 105.399336 
" clip-path="url(#pc4612bfec0)" style="fill: none; stroke: #b0b0b0; stroke-width: 0.8; stroke-linecap: square"/>
     </g>
     <g id="line2d_16">
      <g>
       <use xlink:href="#m057798fb8a" x="74.432" y="105.399336" style="stroke: #000000; stroke-width: 0.8"/>
      </g>
     </g>
     <g id="text_9">
      <!-- −0.005 -->
      <g transform="translate(30.424188 109.198555) scale(0.1 -0.1)">
       <defs>
        <path id="DejaVuSans-35" d="M 691 4666 
L 3169 4666 
L 3169 4134 
L 1269 4134 
L 1269 2991 
Q 1406 3038 1543 3061 
Q 1681 3084 1819 3084 
Q 2600 3084 3056 2656 
Q 3513 2228 3513 1497 
Q 3513 744 3044 326 
Q 2575 -91 1722 -91 
Q 1428 -91 1123 -41 
Q 819 9 494 109 
L 494 744 
Q 775 591 1075 516 
Q 1375 441 1709 441 
Q 2250 441 2565 725 
Q 2881 1009 2881 1497 
Q 2881 1984 2565 2268 
Q 2250 2553 1709 2553 
Q 1456 2553 1204 2497 
Q 953 2441 691 2322 
L 691 4666 
z
" transform="scale(0.015625)"/>
       </defs>
       <use xlink:href="#DejaVuSans-2212"/>
       <use xlink:href="#DejaVuSans-30" x="83.789062"/>
       <use xlink:href="#DejaVuSans-2e" x="147.412109"/>
       <use xlink:href="#DejaVuSans-30" x="179.199219"/>
       <use xlink:href="#DejaVuSans-30" x="242.822266"/>
       <use xlink:href="#DejaVuSans-35" x="306.445312"/>
      </g>
     </g>
    </g>
    <g id="ytick_3">
     <g id="line2d_17">
      <path d="M 74.432 67.047185 
L 450.255247 67.047185 
" clip-path="url(#pc4612bfec0)" style="fill: none; stroke: #b0b0b0; stroke-width: 0.8; stroke-linecap: square"/>
     </g>
     <g id="line2d_18">
      <g>
       <use xlink:href="#m057798fb8a" x="74.432" y="67.047185" style="stroke: #000000; stroke-width: 0.8"/>
      </g>
     </g>
     <g id="text_10">
      <!-- 0.000 -->
      <g transform="translate(38.803875 70.846404) scale(0.1 -0.1)">
       <use xlink:href="#DejaVuSans-30"/>
       <use xlink:href="#DejaVuSans-2e" x="63.623047"/>
       <use xlink:href="#DejaVuSans-30" x="95.410156"/>
       <use xlink:href="#DejaVuSans-30" x="159.033203"/>
       <use xlink:href="#DejaVuSans-30" x="222.65625"/>
      </g>
     </g>
    </g>
    <g id="ytick_4">
     <g id="line2d_19">
      <path d="M 74.432 28.695034 
L 450.255247 28.695034 
" clip-path="url(#pc4612bfec0)" style="fill: none; stroke: #b0b0b0; stroke-width: 0.8; stroke-linecap: square"/>
     </g>
     <g id="line2d_20">
      <g>
       <use xlink:href="#m057798fb8a" x="74.432" y="28.695034" style="stroke: #000000; stroke-width: 0.8"/>
      </g>
     </g>
     <g id="text_11">
      <!-- 0.005 -->
      <g transform="translate(38.803875 32.494252) scale(0.1 -0.1)">
       <use xlink:href="#DejaVuSans-30"/>
       <use xlink:href="#DejaVuSans-2e" x="63.623047"/>
       <use xlink:href="#DejaVuSans-30" x="95.410156"/>
       <use xlink:href="#DejaVuSans-30" x="159.033203"/>
       <use xlink:href="#DejaVuSans-35" x="222.65625"/>
      </g>
     </g>
    </g>
    <g id="text_12">
     <!-- d$C_T = T / \rho n^2 D^4$ / d$\delta_e$ -->
     <g transform="translate(24.324188 141.17) rotate(-90) scale(0.1 -0.1)">
      <defs>
       <path id="DejaVuSans-64" d="M 2906 2969 
L 2906 4863 
L 3481 4863 
L 3481 0 
L 2906 0 
L 2906 525 
Q 2725 213 2448 61 
Q 2172 -91 1784 -91 
Q 1150 -91 751 415 
Q 353 922 353 1747 
Q 353 2572 751 3078 
Q 1150 3584 1784 3584 
Q 2172 3584 2448 3432 
Q 2725 3281 2906 2969 
z
M 947 1747 
Q 947 1113 1208 752 
Q 1469 391 1925 391 
Q 2381 391 2643 752 
Q 2906 1113 2906 1747 
Q 2906 2381 2643 2742 
Q 2381 3103 1925 3103 
Q 1469 3103 1208 2742 
Q 947 2381 947 1747 
z
" transform="scale(0.015625)"/>
       <path id="DejaVuSans-Oblique-43" d="M 4447 4306 
L 4319 3641 
Q 4019 3944 3683 4091 
Q 3347 4238 2956 4238 
Q 2422 4238 2017 3981 
Q 1613 3725 1319 3200 
Q 1131 2863 1032 2486 
Q 934 2109 934 1728 
Q 934 1091 1264 756 
Q 1594 422 2222 422 
Q 2656 422 3056 561 
Q 3456 700 3834 978 
L 3688 231 
Q 3316 72 2936 -9 
Q 2556 -91 2175 -91 
Q 1278 -91 773 396 
Q 269 884 269 1753 
Q 269 2309 461 2846 
Q 653 3384 1013 3828 
Q 1394 4300 1883 4525 
Q 2372 4750 3022 4750 
Q 3422 4750 3780 4639 
Q 4138 4528 4447 4306 
z
" transform="scale(0.015625)"/>
       <path id="DejaVuSans-Oblique-54" d="M 378 4666 
L 4325 4666 
L 4225 4134 
L 2559 4134 
L 1759 0 
L 1125 0 
L 1925 4134 
L 275 4134 
L 378 4666 
z
" transform="scale(0.015625)"/>
       <path id="DejaVuSans-3d" d="M 678 2906 
L 4684 2906 
L 4684 2381 
L 678 2381 
L 678 2906 
z
M 678 1631 
L 4684 1631 
L 4684 1100 
L 678 1100 
L 678 1631 
z
" transform="scale(0.015625)"/>
       <path id="DejaVuSans-2f" d="M 1625 4666 
L 2156 4666 
L 531 -594 
L 0 -594 
L 1625 4666 
z
" transform="scale(0.015625)"/>
       <path id="DejaVuSans-Oblique-3c1" d="M 1203 2875 
Q 1453 3194 1981 3475 
Q 2188 3584 2756 3584 
Q 3394 3584 3694 3078 
Q 3994 2572 3834 1747 
Q 3672 922 3175 415 
Q 2678 -91 2041 -91 
Q 1656 -91 1409 63 
Q 1163 213 1044 525 
L 681 -1331 
L 103 -1331 
L 697 1716 
Q 838 2438 1203 2875 
z
M 3238 1747 
Q 3359 2381 3169 2744 
Q 2978 3103 2522 3103 
Q 2066 3103 1734 2744 
Q 1403 2381 1281 1747 
Q 1156 1113 1347 750 
Q 1538 391 1994 391 
Q 2450 391 2781 750 
Q 3113 1113 3238 1747 
z
" transform="scale(0.015625)"/>
       <path id="DejaVuSans-Oblique-6e" d="M 3566 2113 
L 3156 0 
L 2578 0 
L 2988 2091 
Q 3016 2238 3031 2350 
Q 3047 2463 3047 2528 
Q 3047 2791 2881 2937 
Q 2716 3084 2419 3084 
Q 1956 3084 1622 2776 
Q 1288 2469 1184 1941 
L 800 0 
L 225 0 
L 903 3500 
L 1478 3500 
L 1363 2950 
Q 1603 3253 1940 3418 
Q 2278 3584 2650 3584 
Q 3113 3584 3367 3334 
Q 3622 3084 3622 2631 
Q 3622 2519 3608 2391 
Q 3594 2263 3566 2113 
z
" transform="scale(0.015625)"/>
       <path id="DejaVuSans-Oblique-44" d="M 1081 4666 
L 2438 4666 
Q 3519 4666 4070 4208 
Q 4622 3750 4622 2847 
Q 4622 2250 4412 1698 
Q 4203 1147 3834 769 
Q 3463 381 2891 190 
Q 2319 0 1538 0 
L 172 0 
L 1081 4666 
z
M 1613 4147 
L 909 519 
L 1734 519 
Q 2794 519 3375 1128 
Q 3956 1738 3956 2847 
Q 3956 3519 3581 3833 
Q 3206 4147 2406 4147 
L 1613 4147 
z
" transform="scale(0.015625)"/>
       <path id="DejaVuSans-20" transform="scale(0.015625)"/>
       <path id="DejaVuSans-Oblique-3b4" d="M 3472 4053 
Q 3197 4272 2450 4272 
Q 1659 4272 1588 3906 
Q 1531 3619 2328 3469 
Q 2953 3353 3253 3003 
Q 3616 2581 3447 1716 
Q 3284 888 2763 400 
Q 2238 -91 1488 -91 
Q 741 -91 406 400 
Q 72 888 241 1747 
Q 363 2384 891 2900 
Q 1097 3100 1353 3213 
Q 913 3459 1000 3900 
Q 1166 4750 2544 4750 
Q 3234 4750 3566 4531 
L 3472 4053 
z
M 1753 3056 
Q 1525 2966 1306 2738 
Q 969 2384 847 1747 
Q 722 1113 919 756 
Q 1119 397 1584 397 
Q 2044 397 2381 759 
Q 2722 1122 2838 1716 
Q 2956 2338 2731 2638 
Q 2491 2959 2103 2994 
Q 1906 3013 1753 3056 
z
" transform="scale(0.015625)"/>
       <path id="DejaVuSans-Oblique-65" d="M 3078 2063 
Q 3088 2113 3092 2166 
Q 3097 2219 3097 2272 
Q 3097 2653 2873 2875 
Q 2650 3097 2266 3097 
Q 1838 3097 1509 2826 
Q 1181 2556 1013 2059 
L 3078 2063 
z
M 3578 1613 
L 903 1613 
Q 884 1494 878 1425 
Q 872 1356 872 1306 
Q 872 872 1139 634 
Q 1406 397 1894 397 
Q 2269 397 2603 481 
Q 2938 566 3225 728 
L 3116 159 
Q 2806 34 2476 -28 
Q 2147 -91 1806 -91 
Q 1078 -91 686 257 
Q 294 606 294 1247 
Q 294 1794 489 2264 
Q 684 2734 1063 3103 
Q 1306 3334 1642 3459 
Q 1978 3584 2356 3584 
Q 2950 3584 3301 3228 
Q 3653 2872 3653 2272 
Q 3653 2128 3634 1964 
Q 3616 1800 3578 1613 
z
" transform="scale(0.015625)"/>
      </defs>
      <use xlink:href="#DejaVuSans-64" transform="translate(0 0.765625)"/>
      <use xlink:href="#DejaVuSans-Oblique-43" transform="translate(63.476562 0.765625)"/>
      <use xlink:href="#DejaVuSans-Oblique-54" transform="translate(133.300781 -15.640625) scale(0.7)"/>
      <use xlink:href="#DejaVuSans-3d" transform="translate(198.276367 0.765625)"/>
      <use xlink:href="#DejaVuSans-Oblique-54" transform="translate(301.547852 0.765625)"/>
      <use xlink:href="#DejaVuSans-2f" transform="translate(362.631836 0.765625)"/>
      <use xlink:href="#DejaVuSans-Oblique-3c1" transform="translate(396.323242 0.765625)"/>
      <use xlink:href="#DejaVuSans-Oblique-6e" transform="translate(459.799805 0.765625)"/>
      <use xlink:href="#DejaVuSans-32" transform="translate(527.828607 39.046875) scale(0.7)"/>
      <use xlink:href="#DejaVuSans-Oblique-44" transform="translate(575.099115 0.765625)"/>
      <use xlink:href="#DejaVuSans-34" transform="translate(659.117839 39.046875) scale(0.7)"/>
      <use xlink:href="#DejaVuSans-20" transform="translate(706.388346 0.765625)"/>
      <use xlink:href="#DejaVuSans-2f" transform="translate(738.175456 0.765625)"/>
      <use xlink:href="#DejaVuSans-20" transform="translate(771.866862 0.765625)"/>
      <use xlink:href="#DejaVuSans-64" transform="translate(803.653971 0.765625)"/>
      <use xlink:href="#DejaVuSans-Oblique-3b4" transform="translate(867.130534 0.765625)"/>
      <use xlink:href="#DejaVuSans-Oblique-65" transform="translate(928.312174 -15.640625) scale(0.7)"/>
     </g>
    </g>
   </g>
   <g id="line2d_21">
    <path d="M 91.514875 37.749464 
L 94.965961 38.540105 
L 98.417047 39.330287 
L 101.868132 40.12001 
L 105.319218 40.909274 
L 108.770304 41.698079 
L 112.22139 42.486426 
L 115.672476 43.274314 
L 119.123562 44.061743 
L 122.574647 44.848713 
L 126.025733 45.635224 
L 129.476819 46.421277 
L 132.927905 47.206871 
L 136.378991 47.992006 
L 139.830077 48.776682 
L 143.281162 49.560899 
L 146.732248 50.344658 
L 150.183334 51.127957 
L 153.63442 51.910798 
L 157.085506 52.693181 
L 160.536592 53.475104 
L 163.987677 54.256568 
L 167.438763 55.037574 
L 170.889849 55.818121 
L 174.340935 56.598209 
L 177.792021 57.377839 
L 181.243107 58.157009 
L 184.694192 58.935721 
L 188.145278 59.713974 
L 191.596364 60.491768 
L 195.04745 61.269103 
L 198.498536 62.04598 
L 201.949622 62.822398 
L 205.400707 63.598356 
L 208.851793 64.373857 
L 212.302879 65.148898 
L 215.753965 65.92348 
L 219.205051 66.697604 
L 222.656137 67.471269 
L 226.107222 68.244475 
L 229.558308 69.017222 
L 233.009394 69.789511 
L 236.46048 70.56134 
L 239.911566 71.332711 
L 243.362652 72.103623 
L 246.813737 72.874077 
L 250.264823 73.644071 
L 253.715909 74.413607 
L 257.166995 75.182684 
L 260.618081 75.951302 
L 264.069167 76.719461 
L 267.520252 77.487161 
L 270.971338 78.254403 
L 274.422424 79.021186 
L 277.87351 79.78751 
L 281.324596 80.553375 
L 284.775682 81.318781 
L 288.226767 82.083729 
L 291.677853 82.848218 
L 295.128939 83.612248 
L 298.580025 84.375819 
L 302.031111 85.138932 
L 305.482197 85.901585 
L 308.933282 86.66378 
L 312.384368 87.425516 
L 315.835454 88.186793 
L 319.28654 88.947611 
L 322.737626 89.707971 
L 326.188712 90.467872 
L 329.639798 91.227314 
L 333.090883 91.986297 
L 336.541969 92.744821 
L 339.993055 93.502887 
L 343.444141 94.260494 
L 346.895227 95.017642 
L 350.346313 95.774331 
L 353.797398 96.530561 
L 357.248484 97.286333 
L 360.69957 98.041645 
L 364.150656 98.796499 
L 367.601742 99.550894 
L 371.052828 100.304831 
L 374.503913 101.058308 
L 377.954999 101.811327 
L 381.406085 102.563887 
L 384.857171 103.315988 
L 388.308257 104.06763 
L 391.759343 104.818814 
L 395.210428 105.569539 
L 398.661514 106.319804 
L 402.1126 107.069612 
L 405.563686 107.81896 
L 409.014772 108.567849 
L 412.465858 109.31628 
L 415.916943 110.064252 
L 419.368029 110.811765 
L 422.819115 111.558819 
L 426.270201 112.305415 
L 429.721287 113.051551 
L 433.172373 113.797229 
" clip-path="url(#pc4612bfec0)" style="fill: none; stroke: #000080; stroke-width: 1.5; stroke-linecap: square"/>
   </g>
   <g id="line2d_22">
    <path d="M 91.514875 34.83048 
L 94.965961 35.776136 
L 98.417047 36.720502 
L 101.868132 37.663579 
L 105.319218 38.605367 
L 108.770304 39.545865 
L 112.22139 40.485075 
L 115.672476 41.422995 
L 119.123562 42.359627 
L 122.574647 43.294969 
L 126.025733 44.229022 
L 129.476819 45.161786 
L 132.927905 46.093261 
L 136.378991 47.023446 
L 139.830077 47.952343 
L 143.281162 48.87995 
L 146.732248 49.806268 
L 150.183334 50.731297 
L 153.63442 51.655037 
L 157.085506 52.577488 
L 160.536592 53.49865 
L 163.987677 54.418523 
L 167.438763 55.337106 
L 170.889849 56.2544 
L 174.340935 57.170406 
L 177.792021 58.085122 
L 181.243107 58.998549 
L 184.694192 59.910686 
L 188.145278 60.821535 
L 191.596364 61.731094 
L 195.04745 62.639365 
L 198.498536 63.546346 
L 201.949622 64.452038 
L 205.400707 65.356441 
L 208.851793 66.259555 
L 212.302879 67.16138 
L 215.753965 68.061915 
L 219.205051 68.961162 
L 222.656137 69.859119 
L 226.107222 70.755787 
L 229.558308 71.651166 
L 233.009394 72.545256 
L 236.46048 73.438057 
L 239.911566 74.329569 
L 243.362652 75.219791 
L 246.813737 76.108725 
L 250.264823 76.996369 
L 253.715909 77.882724 
L 257.166995 78.76779 
L 260.618081 79.651567 
L 264.069167 80.534055 
L 267.520252 81.415253 
L 270.971338 82.295163 
L 274.422424 83.173783 
L 277.87351 84.051114 
L 281.324596 84.927156 
L 284.775682 85.801909 
L 288.226767 86.675373 
L 291.677853 87.547548 
L 295.128939 88.418433 
L 298.580025 89.28803 
L 302.031111 90.156337 
L 305.482197 91.023355 
L 308.933282 91.889084 
L 312.384368 92.753524 
L 315.835454 93.616675 
L 319.28654 94.478536 
L 322.737626 95.339109 
L 326.188712 96.198392 
L 329.639798 97.056386 
L 333.090883 97.913091 
L 336.541969 98.768507 
L 339.993055 99.622634 
L 343.444141 100.475472 
L 346.895227 101.32702 
L 350.346313 102.177279 
L 353.797398 103.02625 
L 357.248484 103.873931 
L 360.69957 104.720323 
L 364.150656 105.565426 
L 367.601742 106.409239 
L 371.052828 107.251764 
L 374.503913 108.092999 
L 377.954999 108.932946 
L 381.406085 109.771603 
L 384.857171 110.608971 
L 388.308257 111.44505 
L 391.759343 112.27984 
L 395.210428 113.11334 
L 398.661514 113.945552 
L 402.1126 114.776474 
L 405.563686 115.606108 
L 409.014772 116.434452 
L 412.465858 117.261507 
L 415.916943 118.087273 
L 419.368029 118.911749 
L 422.819115 119.734937 
L 426.270201 120.556835 
L 429.721287 121.377445 
L 433.172373 122.196765 
" clip-path="url(#pc4612bfec0)" style="fill: none; stroke: #0080ff; stroke-width: 1.5; stroke-linecap: square"/>
   </g>
   <g id="line2d_23">
    <path d="M 91.514875 30.602575 
L 94.965961 31.660995 
L 98.417047 32.719088 
L 101.868132 33.776853 
L 105.319218 34.834293 
L 108.770304 35.891405 
L 112.22139 36.94819 
L 115.672476 38.004648 
L 119.123562 39.06078 
L 122.574647 40.116584 
L 126.025733 41.172062 
L 129.476819 42.227213 
L 132.927905 43.282037 
L 136.378991 44.336534 
L 139.830077 45.390704 
L 143.281162 46.444547 
L 146.732248 47.498064 
L 150.183334 48.551253 
L 153.63442 49.604116 
L 157.085506 50.656652 
L 160.536592 51.708861 
L 163.987677 52.760743 
L 167.438763 53.812298 
L 170.889849 54.863526 
L 174.340935 55.914427 
L 177.792021 56.965002 
L 181.243107 58.015249 
L 184.694192 59.06517 
L 188.145278 60.114764 
L 191.596364 61.164031 
L 195.04745 62.212971 
L 198.498536 63.261584 
L 201.949622 64.30987 
L 205.400707 65.357829 
L 208.851793 66.405462 
L 212.302879 67.452768 
L 215.753965 68.499746 
L 219.205051 69.546398 
L 222.656137 70.592723 
L 226.107222 71.638721 
L 229.558308 72.684392 
L 233.009394 73.729737 
L 236.46048 74.774754 
L 239.911566 75.819445 
L 243.362652 76.863808 
L 246.813737 77.907845 
L 250.264823 78.951555 
L 253.715909 79.994938 
L 257.166995 81.037994 
L 260.618081 82.080723 
L 264.069167 83.123125 
L 267.520252 84.165201 
L 270.971338 85.206949 
L 274.422424 86.248371 
L 277.87351 87.289466 
L 281.324596 88.330234 
L 284.775682 89.370675 
L 288.226767 90.410789 
L 291.677853 91.450576 
L 295.128939 92.490036 
L 298.580025 93.52917 
L 302.031111 94.567977 
L 305.482197 95.606456 
L 308.933282 96.644609 
L 312.384368 97.682435 
L 315.835454 98.719934 
L 319.28654 99.757106 
L 322.737626 100.793951 
L 326.188712 101.83047 
L 329.639798 102.866661 
L 333.090883 103.902526 
L 336.541969 104.938064 
L 339.993055 105.973275 
L 343.444141 107.008159 
L 346.895227 108.042716 
L 350.346313 109.076946 
L 353.797398 110.110849 
L 357.248484 111.144426 
L 360.69957 112.177675 
L 364.150656 113.210598 
L 367.601742 114.243194 
L 371.052828 115.275463 
L 374.503913 116.307405 
L 377.954999 117.33902 
L 381.406085 118.370308 
L 384.857171 119.401269 
L 388.308257 120.431904 
L 391.759343 121.462211 
L 395.210428 122.492192 
L 398.661514 123.521846 
L 402.1126 124.551173 
L 405.563686 125.580173 
L 409.014772 126.608846 
L 412.465858 127.637192 
L 415.916943 128.665212 
L 419.368029 129.692904 
L 422.819115 130.72027 
L 426.270201 131.747308 
L 429.721287 132.77402 
L 433.172373 133.800405 
" clip-path="url(#pc4612bfec0)" style="fill: none; stroke: #7dff7a; stroke-width: 1.5; stroke-linecap: square"/>
   </g>
   <g id="line2d_24">
    <path d="M 91.514875 25.065748 
L 94.965961 26.194682 
L 98.417047 27.326044 
L 101.868132 28.459834 
L 105.319218 29.596052 
L 108.770304 30.734697 
L 112.22139 31.875771 
L 115.672476 33.019273 
L 119.123562 34.165202 
L 122.574647 35.31356 
L 126.025733 36.464345 
L 129.476819 37.617558 
L 132.927905 38.7732 
L 136.378991 39.931269 
L 139.830077 41.091766 
L 143.281162 42.254691 
L 146.732248 43.420044 
L 150.183334 44.587825 
L 153.63442 45.758034 
L 157.085506 46.930671 
L 160.536592 48.105736 
L 163.987677 49.283229 
L 167.438763 50.463149 
L 170.889849 51.645498 
L 174.340935 52.830275 
L 177.792021 54.017479 
L 181.243107 55.207112 
L 184.694192 56.399172 
L 188.145278 57.59366 
L 191.596364 58.790577 
L 195.04745 59.989921 
L 198.498536 61.191693 
L 201.949622 62.395893 
L 205.400707 63.602521 
L 208.851793 64.811577 
L 212.302879 66.023061 
L 215.753965 67.236973 
L 219.205051 68.453313 
L 222.656137 69.672081 
L 226.107222 70.893276 
L 229.558308 72.1169 
L 233.009394 73.342951 
L 236.46048 74.571431 
L 239.911566 75.802338 
L 243.362652 77.035674 
L 246.813737 78.271437 
L 250.264823 79.509628 
L 253.715909 80.750248 
L 257.166995 81.993295 
L 260.618081 83.23877 
L 264.069167 84.486673 
L 267.520252 85.737004 
L 270.971338 86.989763 
L 274.422424 88.24495 
L 277.87351 89.502565 
L 281.324596 90.762607 
L 284.775682 92.025078 
L 288.226767 93.289977 
L 291.677853 94.557303 
L 295.128939 95.827058 
L 298.580025 97.09924 
L 302.031111 98.373851 
L 305.482197 99.650889 
L 308.933282 100.930355 
L 312.384368 102.21225 
L 315.835454 103.496572 
L 319.28654 104.783322 
L 322.737626 106.0725 
L 326.188712 107.364106 
L 329.639798 108.65814 
L 333.090883 109.954602 
L 336.541969 111.253491 
L 339.993055 112.554809 
L 343.444141 113.858555 
L 346.895227 115.164729 
L 350.346313 116.47333 
L 353.797398 117.78436 
L 357.248484 119.097817 
L 360.69957 120.413703 
L 364.150656 121.732016 
L 367.601742 123.052757 
L 371.052828 124.375926 
L 374.503913 125.701524 
L 377.954999 127.029549 
L 381.406085 128.360002 
L 384.857171 129.692883 
L 388.308257 131.028192 
L 391.759343 132.365928 
L 395.210428 133.706093 
L 398.661514 135.048686 
L 402.1126 136.393707 
L 405.563686 137.741155 
L 409.014772 139.091032 
L 412.465858 140.443336 
L 415.916943 141.798069 
L 419.368029 143.155229 
L 422.819115 144.514818 
L 426.270201 145.876834 
L 429.721287 147.241278 
L 433.172373 148.60815 
" clip-path="url(#pc4612bfec0)" style="fill: none; stroke: #ff9400; stroke-width: 1.5; stroke-linecap: square"/>
   </g>
   <g id="line2d_25">
    <path d="M 91.514875 18.22 
L 94.965961 19.377198 
L 98.417047 20.541371 
L 101.868132 21.71252 
L 105.319218 22.890644 
L 108.770304 24.075743 
L 112.22139 25.267818 
L 115.672476 26.466868 
L 119.123562 27.672894 
L 122.574647 28.885894 
L 126.025733 30.105871 
L 129.476819 31.332822 
L 132.927905 32.566749 
L 136.378991 33.807651 
L 139.830077 35.055528 
L 143.281162 36.310381 
L 146.732248 37.572209 
L 150.183334 38.841013 
L 153.63442 40.116792 
L 157.085506 41.399546 
L 160.536592 42.689276 
L 163.987677 43.985981 
L 167.438763 45.289661 
L 170.889849 46.600316 
L 174.340935 47.917947 
L 177.792021 49.242554 
L 181.243107 50.574135 
L 184.694192 51.912692 
L 188.145278 53.258225 
L 191.596364 54.610732 
L 195.04745 55.970215 
L 198.498536 57.336674 
L 201.949622 58.710107 
L 205.400707 60.090516 
L 208.851793 61.477901 
L 212.302879 62.87226 
L 215.753965 64.273595 
L 219.205051 65.681906 
L 222.656137 67.097192 
L 226.107222 68.519453 
L 229.558308 69.948689 
L 233.009394 71.384901 
L 236.46048 72.828088 
L 239.911566 74.278251 
L 243.362652 75.735388 
L 246.813737 77.199502 
L 250.264823 78.67059 
L 253.715909 80.148654 
L 257.166995 81.633693 
L 260.618081 83.125708 
L 264.069167 84.624698 
L 267.520252 86.130663 
L 270.971338 87.643603 
L 274.422424 89.163519 
L 277.87351 90.690411 
L 281.324596 92.224277 
L 284.775682 93.765119 
L 288.226767 95.312937 
L 291.677853 96.867729 
L 295.128939 98.429497 
L 298.580025 99.998241 
L 302.031111 101.573959 
L 305.482197 103.156653 
L 308.933282 104.746323 
L 312.384368 106.342967 
L 315.835454 107.946588 
L 319.28654 109.557183 
L 322.737626 111.174754 
L 326.188712 112.7993 
L 329.639798 114.430821 
L 333.090883 116.069318 
L 336.541969 117.71479 
L 339.993055 119.367238 
L 343.444141 121.02666 
L 346.895227 122.693059 
L 350.346313 124.366432 
L 353.797398 126.046781 
L 357.248484 127.734105 
L 360.69957 129.428405 
L 364.150656 131.12968 
L 367.601742 132.83793 
L 371.052828 134.553156 
L 374.503913 136.275356 
L 377.954999 138.004533 
L 381.406085 139.740684 
L 384.857171 141.483811 
L 388.308257 143.233914 
L 391.759343 144.990991 
L 395.210428 146.755044 
L 398.661514 148.526073 
L 402.1126 150.304076 
L 405.563686 152.089055 
L 409.014772 153.88101 
L 412.465858 155.679939 
L 415.916943 157.485844 
L 419.368029 159.298725 
L 422.819115 161.118581 
L 426.270201 162.945412 
L 429.721287 164.779218 
L 433.172373 166.62 
" clip-path="url(#pc4612bfec0)" style="fill: none; stroke: #800000; stroke-width: 1.5; stroke-linecap: square"/>
   </g>
   <g id="patch_3">
    <path d="M 74.432 174.04 
L 74.432 10.8 
" style="fill: none; stroke: #000000; stroke-width: 0.8; stroke-linejoin: miter; stroke-linecap: square"/>
   </g>
   <g id="patch_4">
    <path d="M 450.255247 174.04 
L 450.255247 10.8 
" style="fill: none; stroke: #000000; stroke-width: 0.8; stroke-linejoin: miter; stroke-linecap: square"/>
   </g>
   <g id="patch_5">
    <path d="M 74.432 174.04 
L 450.255247 174.04 
" style="fill: none; stroke: #000000; stroke-width: 0.8; stroke-linejoin: miter; stroke-linecap: square"/>
   </g>
   <g id="patch_6">
    <path d="M 74.432 10.8 
L 450.255247 10.8 
" style="fill: none; stroke: #000000; stroke-width: 0.8; stroke-linejoin: miter; stroke-linecap: square"/>
   </g>
   <g id="legend_1">
    <g id="patch_7">
     <path d="M 459.255247 162.878 
L 564.455247 162.878 
Q 566.455247 162.878 566.455247 160.878 
L 566.455247 88.385812 
Q 566.455247 86.385812 564.455247 86.385812 
L 459.255247 86.385812 
Q 457.255247 86.385812 457.255247 88.385812 
L 457.255247 160.878 
Q 457.255247 162.878 459.255247 162.878 
z
" style="fill: #4d4d4d; opacity: 0.5; stroke: #4d4d4d; stroke-linejoin: miter"/>
    </g>
    <g id="patch_8">
     <path d="M 457.255247 160.878 
L 562.455247 160.878 
Q 564.455247 160.878 564.455247 158.878 
L 564.455247 86.385812 
Q 564.455247 84.385812 562.455247 84.385812 
L 457.255247 84.385812 
Q 455.255247 84.385812 455.255247 86.385812 
L 455.255247 158.878 
Q 455.255247 160.878 457.255247 160.878 
z
" style="fill: #ffffff; stroke: #cccccc; stroke-linejoin: miter"/>
    </g>
    <g id="line2d_26">
     <path d="M 459.255247 92.48425 
L 469.255247 92.48425 
L 479.255247 92.48425 
" style="fill: none; stroke: #000080; stroke-width: 1.5; stroke-linecap: square"/>
    </g>
    <g id="text_13">
     <!-- $\delta_e = 0$, $J = 1.60$ -->
     <g transform="translate(487.255247 95.98425) scale(0.1 -0.1)">
      <defs>
       <path id="DejaVuSans-2c" d="M 750 794 
L 1409 794 
L 1409 256 
L 897 -744 
L 494 -744 
L 750 256 
L 750 794 
z
" transform="scale(0.015625)"/>
       <path id="DejaVuSans-Oblique-4a" d="M 1069 4666 
L 1703 4666 
L 856 325 
Q 691 -522 298 -901 
Q -94 -1281 -800 -1281 
L -1050 -1281 
L -947 -750 
L -750 -750 
Q -328 -750 -109 -509 
Q 109 -269 225 325 
L 1069 4666 
z
" transform="scale(0.015625)"/>
      </defs>
      <use xlink:href="#DejaVuSans-Oblique-3b4" transform="translate(0 0.78125)"/>
      <use xlink:href="#DejaVuSans-Oblique-65" transform="translate(61.181641 -15.625) scale(0.7)"/>
      <use xlink:href="#DejaVuSans-3d" transform="translate(126.464844 0.78125)"/>
      <use xlink:href="#DejaVuSans-30" transform="translate(229.736328 0.78125)"/>
      <use xlink:href="#DejaVuSans-2c" transform="translate(293.359375 0.78125)"/>
      <use xlink:href="#DejaVuSans-20" transform="translate(325.146484 0.78125)"/>
      <use xlink:href="#DejaVuSans-Oblique-4a" transform="translate(356.933594 0.78125)"/>
      <use xlink:href="#DejaVuSans-3d" transform="translate(405.908203 0.78125)"/>
      <use xlink:href="#DejaVuSans-31" transform="translate(509.179688 0.78125)"/>
      <use xlink:href="#DejaVuSans-2e" transform="translate(572.802734 0.78125)"/>
      <use xlink:href="#DejaVuSans-36" transform="translate(604.589844 0.78125)"/>
      <use xlink:href="#DejaVuSans-30" transform="translate(668.212891 0.78125)"/>
     </g>
    </g>
    <g id="line2d_27">
     <path d="M 459.255247 107.182688 
L 469.255247 107.182688 
L 479.255247 107.182688 
" style="fill: none; stroke: #0080ff; stroke-width: 1.5; stroke-linecap: square"/>
    </g>
    <g id="text_14">
     <!-- $\delta_e = 0$, $J = 1.80$ -->
     <g transform="translate(487.255247 110.682688) scale(0.1 -0.1)">
      <defs>
       <path id="DejaVuSans-38" d="M 2034 2216 
Q 1584 2216 1326 1975 
Q 1069 1734 1069 1313 
Q 1069 891 1326 650 
Q 1584 409 2034 409 
Q 2484 409 2743 651 
Q 3003 894 3003 1313 
Q 3003 1734 2745 1975 
Q 2488 2216 2034 2216 
z
M 1403 2484 
Q 997 2584 770 2862 
Q 544 3141 544 3541 
Q 544 4100 942 4425 
Q 1341 4750 2034 4750 
Q 2731 4750 3128 4425 
Q 3525 4100 3525 3541 
Q 3525 3141 3298 2862 
Q 3072 2584 2669 2484 
Q 3125 2378 3379 2068 
Q 3634 1759 3634 1313 
Q 3634 634 3220 271 
Q 2806 -91 2034 -91 
Q 1263 -91 848 271 
Q 434 634 434 1313 
Q 434 1759 690 2068 
Q 947 2378 1403 2484 
z
M 1172 3481 
Q 1172 3119 1398 2916 
Q 1625 2713 2034 2713 
Q 2441 2713 2670 2916 
Q 2900 3119 2900 3481 
Q 2900 3844 2670 4047 
Q 2441 4250 2034 4250 
Q 1625 4250 1398 4047 
Q 1172 3844 1172 3481 
z
" transform="scale(0.015625)"/>
      </defs>
      <use xlink:href="#DejaVuSans-Oblique-3b4" transform="translate(0 0.78125)"/>
      <use xlink:href="#DejaVuSans-Oblique-65" transform="translate(61.181641 -15.625) scale(0.7)"/>
      <use xlink:href="#DejaVuSans-3d" transform="translate(126.464844 0.78125)"/>
      <use xlink:href="#DejaVuSans-30" transform="translate(229.736328 0.78125)"/>
      <use xlink:href="#DejaVuSans-2c" transform="translate(293.359375 0.78125)"/>
      <use xlink:href="#DejaVuSans-20" transform="translate(325.146484 0.78125)"/>
      <use xlink:href="#DejaVuSans-Oblique-4a" transform="translate(356.933594 0.78125)"/>
      <use xlink:href="#DejaVuSans-3d" transform="translate(405.908203 0.78125)"/>
      <use xlink:href="#DejaVuSans-31" transform="translate(509.179688 0.78125)"/>
      <use xlink:href="#DejaVuSans-2e" transform="translate(572.802734 0.78125)"/>
      <use xlink:href="#DejaVuSans-38" transform="translate(601.964844 0.78125)"/>
      <use xlink:href="#DejaVuSans-30" transform="translate(665.587891 0.78125)"/>
     </g>
    </g>
    <g id="line2d_28">
     <path d="M 459.255247 121.881125 
L 469.255247 121.881125 
L 479.255247 121.881125 
" style="fill: none; stroke: #7dff7a; stroke-width: 1.5; stroke-linecap: square"/>
    </g>
    <g id="text_15">
     <!-- $\delta_e = 0$, $J = 2.00$ -->
     <g transform="translate(487.255247 125.381125) scale(0.1 -0.1)">
      <use xlink:href="#DejaVuSans-Oblique-3b4" transform="translate(0 0.78125)"/>
      <use xlink:href="#DejaVuSans-Oblique-65" transform="translate(61.181641 -15.625) scale(0.7)"/>
      <use xlink:href="#DejaVuSans-3d" transform="translate(126.464844 0.78125)"/>
      <use xlink:href="#DejaVuSans-30" transform="translate(229.736328 0.78125)"/>
      <use xlink:href="#DejaVuSans-2c" transform="translate(293.359375 0.78125)"/>
      <use xlink:href="#DejaVuSans-20" transform="translate(325.146484 0.78125)"/>
      <use xlink:href="#DejaVuSans-Oblique-4a" transform="translate(356.933594 0.78125)"/>
      <use xlink:href="#DejaVuSans-3d" transform="translate(405.908203 0.78125)"/>
      <use xlink:href="#DejaVuSans-32" transform="translate(509.179688 0.78125)"/>
      <use xlink:href="#DejaVuSans-2e" transform="translate(572.802734 0.78125)"/>
      <use xlink:href="#DejaVuSans-30" transform="translate(604.589844 0.78125)"/>
      <use xlink:href="#DejaVuSans-30" transform="translate(668.212891 0.78125)"/>
     </g>
    </g>
    <g id="line2d_29">
     <path d="M 459.255247 136.579563 
L 469.255247 136.579563 
L 479.255247 136.579563 
" style="fill: none; stroke: #ff9400; stroke-width: 1.5; stroke-linecap: square"/>
    </g>
    <g id="text_16">
     <!-- $\delta_e = 0$, $J = 2.20$ -->
     <g transform="translate(487.255247 140.079563) scale(0.1 -0.1)">
      <use xlink:href="#DejaVuSans-Oblique-3b4" transform="translate(0 0.78125)"/>
      <use xlink:href="#DejaVuSans-Oblique-65" transform="translate(61.181641 -15.625) scale(0.7)"/>
      <use xlink:href="#DejaVuSans-3d" transform="translate(126.464844 0.78125)"/>
      <use xlink:href="#DejaVuSans-30" transform="translate(229.736328 0.78125)"/>
      <use xlink:href="#DejaVuSans-2c" transform="translate(293.359375 0.78125)"/>
      <use xlink:href="#DejaVuSans-20" transform="translate(325.146484 0.78125)"/>
      <use xlink:href="#DejaVuSans-Oblique-4a" transform="translate(356.933594 0.78125)"/>
      <use xlink:href="#DejaVuSans-3d" transform="translate(405.908203 0.78125)"/>
      <use xlink:href="#DejaVuSans-32" transform="translate(509.179688 0.78125)"/>
      <use xlink:href="#DejaVuSans-2e" transform="translate(572.802734 0.78125)"/>
      <use xlink:href="#DejaVuSans-32" transform="translate(599.089844 0.78125)"/>
      <use xlink:href="#DejaVuSans-30" transform="translate(662.712891 0.78125)"/>
     </g>
    </g>
    <g id="line2d_30">
     <path d="M 459.255247 151.278 
L 469.255247 151.278 
L 479.255247 151.278 
" style="fill: none; stroke: #800000; stroke-width: 1.5; stroke-linecap: square"/>
    </g>
    <g id="text_17">
     <!-- $\delta_e = 0$, $J = 2.40$ -->
     <g transform="translate(487.255247 154.778) scale(0.1 -0.1)">
      <use xlink:href="#DejaVuSans-Oblique-3b4" transform="translate(0 0.78125)"/>
      <use xlink:href="#DejaVuSans-Oblique-65" transform="translate(61.181641 -15.625) scale(0.7)"/>
      <use xlink:href="#DejaVuSans-3d" transform="translate(126.464844 0.78125)"/>
      <use xlink:href="#DejaVuSans-30" transform="translate(229.736328 0.78125)"/>
      <use xlink:href="#DejaVuSans-2c" transform="translate(293.359375 0.78125)"/>
      <use xlink:href="#DejaVuSans-20" transform="translate(325.146484 0.78125)"/>
      <use xlink:href="#DejaVuSans-Oblique-4a" transform="translate(356.933594 0.78125)"/>
      <use xlink:href="#DejaVuSans-3d" transform="translate(405.908203 0.78125)"/>
      <use xlink:href="#DejaVuSans-32" transform="translate(509.179688 0.78125)"/>
      <use xlink:href="#DejaVuSans-2e" transform="translate(572.802734 0.78125)"/>
      <use xlink:href="#DejaVuSans-34" transform="translate(604.589844 0.78125)"/>
      <use xlink:href="#DejaVuSans-30" transform="translate(668.212891 0.78125)"/>
     </g>
    </g>
   </g>
  </g>
 </g>
 <defs>
  <clipPath id="pc4612bfec0">
   <rect x="74.432" y="10.8" width="375.823247" height="163.24"/>
  </clipPath>
 </defs>
</svg>
