<?xml version="1.0" encoding="utf-8" standalone="no"?>
<!DOCTYPE svg PUBLIC "-//W3C//DTD SVG 1.1//EN"
  "http://www.w3.org/Graphics/SVG/1.1/DTD/svg11.dtd">
<svg xmlns:xlink="http://www.w3.org/1999/xlink" width="576pt" height="216pt" viewBox="0 0 576 216" xmlns="http://www.w3.org/2000/svg" version="1.1">
 <metadata>
  <rdf:RDF xmlns:dc="http://purl.org/dc/elements/1.1/" xmlns:cc="http://creativecommons.org/ns#" xmlns:rdf="http://www.w3.org/1999/02/22-rdf-syntax-ns#">
   <cc:Work>
    <dc:type rdf:resource="http://purl.org/dc/dcmitype/StillImage"/>
    <dc:date>2025-03-27T20:38:20.859973</dc:date>
    <dc:format>image/svg+xml</dc:format>
    <dc:creator>
     <cc:Agent>
      <dc:title>Matplotlib v3.9.2, https://matplotlib.org/</dc:title>
     </cc:Agent>
    </dc:creator>
   </cc:Work>
  </rdf:RDF>
 </metadata>
 <defs>
  <style type="text/css">*{stroke-linejoin: round; stroke-linecap: butt}</style>
 </defs>
 <g id="figure_1">
  <g id="patch_1">
   <path d="M 0 216 
L 576 216 
L 576 0 
L 0 0 
z
" style="fill: #ffffff"/>
  </g>
  <g id="axes_1">
   <g id="patch_2">
    <path d="M 74.432 174.04 
L 450.255247 174.04 
L 450.255247 10.8 
L 74.432 10.8 
z
" style="fill: #ffffff"/>
   </g>
   <g id="matplotlib.axis_1">
    <g id="xtick_1">
     <g id="line2d_1">
      <path d="M 91.514875 174.04 
L 91.514875 10.8 
" clip-path="url(#p59f43191bc)" style="fill: none; stroke: #b0b0b0; stroke-width: 0.8; stroke-linecap: square"/>
     </g>
     <g id="line2d_2">
      <defs>
       <path id="m3982b08668" d="M 0 0 
L 0 3.5 
" style="stroke: #000000; stroke-width: 0.8"/>
      </defs>
      <g>
       <use xlink:href="#m3982b08668" x="91.514875" y="174.04" style="stroke: #000000; stroke-width: 0.8"/>
      </g>
     </g>
     <g id="text_1">
      <!-- −4 -->
      <g transform="translate(84.143781 188.638438) scale(0.1 -0.1)">
       <defs>
        <path id="DejaVuSans-2212" d="M 678 2272 
L 4684 2272 
L 4684 1741 
L 678 1741 
L 678 2272 
z
" transform="scale(0.015625)"/>
        <path id="DejaVuSans-34" d="M 2419 4116 
L 825 1625 
L 2419 1625 
L 2419 4116 
z
M 2253 4666 
L 3047 4666 
L 3047 1625 
L 3713 1625 
L 3713 1100 
L 3047 1100 
L 3047 0 
L 2419 0 
L 2419 1100 
L 313 1100 
L 313 1709 
L 2253 4666 
z
" transform="scale(0.015625)"/>
       </defs>
       <use xlink:href="#DejaVuSans-2212"/>
       <use xlink:href="#DejaVuSans-34" x="83.789062"/>
      </g>
     </g>
    </g>
    <g id="xtick_2">
     <g id="line2d_3">
      <path d="M 153.63442 174.04 
L 153.63442 10.8 
" clip-path="url(#p59f43191bc)" style="fill: none; stroke: #b0b0b0; stroke-width: 0.8; stroke-linecap: square"/>
     </g>
     <g id="line2d_4">
      <g>
       <use xlink:href="#m3982b08668" x="153.63442" y="174.04" style="stroke: #000000; stroke-width: 0.8"/>
      </g>
     </g>
     <g id="text_2">
      <!-- −2 -->
      <g transform="translate(146.263326 188.638438) scale(0.1 -0.1)">
       <defs>
        <path id="DejaVuSans-32" d="M 1228 531 
L 3431 531 
L 3431 0 
L 469 0 
L 469 531 
Q 828 903 1448 1529 
Q 2069 2156 2228 2338 
Q 2531 2678 2651 2914 
Q 2772 3150 2772 3378 
Q 2772 3750 2511 3984 
Q 2250 4219 1831 4219 
Q 1534 4219 1204 4116 
Q 875 4013 500 3803 
L 500 4441 
Q 881 4594 1212 4672 
Q 1544 4750 1819 4750 
Q 2544 4750 2975 4387 
Q 3406 4025 3406 3419 
Q 3406 3131 3298 2873 
Q 3191 2616 2906 2266 
Q 2828 2175 2409 1742 
Q 1991 1309 1228 531 
z
" transform="scale(0.015625)"/>
       </defs>
       <use xlink:href="#DejaVuSans-2212"/>
       <use xlink:href="#DejaVuSans-32" x="83.789062"/>
      </g>
     </g>
    </g>
    <g id="xtick_3">
     <g id="line2d_5">
      <path d="M 215.753965 174.04 
L 215.753965 10.8 
" clip-path="url(#p59f43191bc)" style="fill: none; stroke: #b0b0b0; stroke-width: 0.8; stroke-linecap: square"/>
     </g>
     <g id="line2d_6">
      <g>
       <use xlink:href="#m3982b08668" x="215.753965" y="174.04" style="stroke: #000000; stroke-width: 0.8"/>
      </g>
     </g>
     <g id="text_3">
      <!-- 0 -->
      <g transform="translate(212.572715 188.638438) scale(0.1 -0.1)">
       <defs>
        <path id="DejaVuSans-30" d="M 2034 4250 
Q 1547 4250 1301 3770 
Q 1056 3291 1056 2328 
Q 1056 1369 1301 889 
Q 1547 409 2034 409 
Q 2525 409 2770 889 
Q 3016 1369 3016 2328 
Q 3016 3291 2770 3770 
Q 2525 4250 2034 4250 
z
M 2034 4750 
Q 2819 4750 3233 4129 
Q 3647 3509 3647 2328 
Q 3647 1150 3233 529 
Q 2819 -91 2034 -91 
Q 1250 -91 836 529 
Q 422 1150 422 2328 
Q 422 3509 836 4129 
Q 1250 4750 2034 4750 
z
" transform="scale(0.015625)"/>
       </defs>
       <use xlink:href="#DejaVuSans-30"/>
      </g>
     </g>
    </g>
    <g id="xtick_4">
     <g id="line2d_7">
      <path d="M 277.87351 174.04 
L 277.87351 10.8 
" clip-path="url(#p59f43191bc)" style="fill: none; stroke: #b0b0b0; stroke-width: 0.8; stroke-linecap: square"/>
     </g>
     <g id="line2d_8">
      <g>
       <use xlink:href="#m3982b08668" x="277.87351" y="174.04" style="stroke: #000000; stroke-width: 0.8"/>
      </g>
     </g>
     <g id="text_4">
      <!-- 2 -->
      <g transform="translate(274.69226 188.638438) scale(0.1 -0.1)">
       <use xlink:href="#DejaVuSans-32"/>
      </g>
     </g>
    </g>
    <g id="xtick_5">
     <g id="line2d_9">
      <path d="M 339.993055 174.04 
L 339.993055 10.8 
" clip-path="url(#p59f43191bc)" style="fill: none; stroke: #b0b0b0; stroke-width: 0.8; stroke-linecap: square"/>
     </g>
     <g id="line2d_10">
      <g>
       <use xlink:href="#m3982b08668" x="339.993055" y="174.04" style="stroke: #000000; stroke-width: 0.8"/>
      </g>
     </g>
     <g id="text_5">
      <!-- 4 -->
      <g transform="translate(336.811805 188.638438) scale(0.1 -0.1)">
       <use xlink:href="#DejaVuSans-34"/>
      </g>
     </g>
    </g>
    <g id="xtick_6">
     <g id="line2d_11">
      <path d="M 402.1126 174.04 
L 402.1126 10.8 
" clip-path="url(#p59f43191bc)" style="fill: none; stroke: #b0b0b0; stroke-width: 0.8; stroke-linecap: square"/>
     </g>
     <g id="line2d_12">
      <g>
       <use xlink:href="#m3982b08668" x="402.1126" y="174.04" style="stroke: #000000; stroke-width: 0.8"/>
      </g>
     </g>
     <g id="text_6">
      <!-- 6 -->
      <g transform="translate(398.93135 188.638438) scale(0.1 -0.1)">
       <defs>
        <path id="DejaVuSans-36" d="M 2113 2584 
Q 1688 2584 1439 2293 
Q 1191 2003 1191 1497 
Q 1191 994 1439 701 
Q 1688 409 2113 409 
Q 2538 409 2786 701 
Q 3034 994 3034 1497 
Q 3034 2003 2786 2293 
Q 2538 2584 2113 2584 
z
M 3366 4563 
L 3366 3988 
Q 3128 4100 2886 4159 
Q 2644 4219 2406 4219 
Q 1781 4219 1451 3797 
Q 1122 3375 1075 2522 
Q 1259 2794 1537 2939 
Q 1816 3084 2150 3084 
Q 2853 3084 3261 2657 
Q 3669 2231 3669 1497 
Q 3669 778 3244 343 
Q 2819 -91 2113 -91 
Q 1303 -91 875 529 
Q 447 1150 447 2328 
Q 447 3434 972 4092 
Q 1497 4750 2381 4750 
Q 2619 4750 2861 4703 
Q 3103 4656 3366 4563 
z
" transform="scale(0.015625)"/>
       </defs>
       <use xlink:href="#DejaVuSans-36"/>
      </g>
     </g>
    </g>
    <g id="text_7">
     <!-- $\alpha$ -->
     <g transform="translate(259.043624 202.316563) scale(0.1 -0.1)">
      <defs>
       <path id="DejaVuSans-Oblique-3b1" d="M 2619 1628 
L 2622 2350 
Q 2625 3088 2069 3091 
Q 1653 3094 1394 2747 
Q 1069 2319 959 1747 
Q 825 1059 994 731 
Q 1169 397 1547 397 
Q 1966 397 2319 1063 
L 2619 1628 
z
M 2166 3578 
Q 3141 3594 3128 2584 
Q 3128 2584 3616 3500 
L 4128 3500 
L 3119 1603 
L 3109 919 
Q 3109 766 3194 638 
Q 3291 488 3391 488 
L 3669 488 
L 3575 0 
L 3228 0 
Q 2934 0 2722 263 
Q 2622 394 2619 669 
Q 2416 334 2066 50 
Q 1900 -81 1453 -78 
Q 722 -72 456 397 
Q 184 884 353 1747 
Q 534 2675 1009 3097 
Q 1544 3569 2166 3578 
z
" transform="scale(0.015625)"/>
      </defs>
      <use xlink:href="#DejaVuSans-Oblique-3b1" transform="translate(0 0.84375)"/>
     </g>
    </g>
   </g>
   <g id="matplotlib.axis_2">
    <g id="ytick_1">
     <g id="line2d_13">
      <path d="M 74.432 156.578475 
L 450.255247 156.578475 
" clip-path="url(#p59f43191bc)" style="fill: none; stroke: #b0b0b0; stroke-width: 0.8; stroke-linecap: square"/>
     </g>
     <g id="line2d_14">
      <defs>
       <path id="m05e7d1910c" d="M 0 0 
L -3.5 0 
" style="stroke: #000000; stroke-width: 0.8"/>
      </defs>
      <g>
       <use xlink:href="#m05e7d1910c" x="74.432" y="156.578475" style="stroke: #000000; stroke-width: 0.8"/>
      </g>
     </g>
     <g id="text_8">
      <!-- −0.002 -->
      <g transform="translate(30.424188 160.377694) scale(0.1 -0.1)">
       <defs>
        <path id="DejaVuSans-2e" d="M 684 794 
L 1344 794 
L 1344 0 
L 684 0 
L 684 794 
z
" transform="scale(0.015625)"/>
       </defs>
       <use xlink:href="#DejaVuSans-2212"/>
       <use xlink:href="#DejaVuSans-30" x="83.789062"/>
       <use xlink:href="#DejaVuSans-2e" x="147.412109"/>
       <use xlink:href="#DejaVuSans-30" x="179.199219"/>
       <use xlink:href="#DejaVuSans-30" x="242.822266"/>
       <use xlink:href="#DejaVuSans-32" x="306.445312"/>
      </g>
     </g>
    </g>
    <g id="ytick_2">
     <g id="line2d_15">
      <path d="M 74.432 131.422894 
L 450.255247 131.422894 
" clip-path="url(#p59f43191bc)" style="fill: none; stroke: #b0b0b0; stroke-width: 0.8; stroke-linecap: square"/>
     </g>
     <g id="line2d_16">
      <g>
       <use xlink:href="#m05e7d1910c" x="74.432" y="131.422894" style="stroke: #000000; stroke-width: 0.8"/>
      </g>
     </g>
     <g id="text_9">
      <!-- 0.000 -->
      <g transform="translate(38.803875 135.222113) scale(0.1 -0.1)">
       <use xlink:href="#DejaVuSans-30"/>
       <use xlink:href="#DejaVuSans-2e" x="63.623047"/>
       <use xlink:href="#DejaVuSans-30" x="95.410156"/>
       <use xlink:href="#DejaVuSans-30" x="159.033203"/>
       <use xlink:href="#DejaVuSans-30" x="222.65625"/>
      </g>
     </g>
    </g>
    <g id="ytick_3">
     <g id="line2d_17">
      <path d="M 74.432 106.267313 
L 450.255247 106.267313 
" clip-path="url(#p59f43191bc)" style="fill: none; stroke: #b0b0b0; stroke-width: 0.8; stroke-linecap: square"/>
     </g>
     <g id="line2d_18">
      <g>
       <use xlink:href="#m05e7d1910c" x="74.432" y="106.267313" style="stroke: #000000; stroke-width: 0.8"/>
      </g>
     </g>
     <g id="text_10">
      <!-- 0.002 -->
      <g transform="translate(38.803875 110.066532) scale(0.1 -0.1)">
       <use xlink:href="#DejaVuSans-30"/>
       <use xlink:href="#DejaVuSans-2e" x="63.623047"/>
       <use xlink:href="#DejaVuSans-30" x="95.410156"/>
       <use xlink:href="#DejaVuSans-30" x="159.033203"/>
       <use xlink:href="#DejaVuSans-32" x="222.65625"/>
      </g>
     </g>
    </g>
    <g id="ytick_4">
     <g id="line2d_19">
      <path d="M 74.432 81.111732 
L 450.255247 81.111732 
" clip-path="url(#p59f43191bc)" style="fill: none; stroke: #b0b0b0; stroke-width: 0.8; stroke-linecap: square"/>
     </g>
     <g id="line2d_20">
      <g>
       <use xlink:href="#m05e7d1910c" x="74.432" y="81.111732" style="stroke: #000000; stroke-width: 0.8"/>
      </g>
     </g>
     <g id="text_11">
      <!-- 0.004 -->
      <g transform="translate(38.803875 84.910951) scale(0.1 -0.1)">
       <use xlink:href="#DejaVuSans-30"/>
       <use xlink:href="#DejaVuSans-2e" x="63.623047"/>
       <use xlink:href="#DejaVuSans-30" x="95.410156"/>
       <use xlink:href="#DejaVuSans-30" x="159.033203"/>
       <use xlink:href="#DejaVuSans-34" x="222.65625"/>
      </g>
     </g>
    </g>
    <g id="ytick_5">
     <g id="line2d_21">
      <path d="M 74.432 55.956151 
L 450.255247 55.956151 
" clip-path="url(#p59f43191bc)" style="fill: none; stroke: #b0b0b0; stroke-width: 0.8; stroke-linecap: square"/>
     </g>
     <g id="line2d_22">
      <g>
       <use xlink:href="#m05e7d1910c" x="74.432" y="55.956151" style="stroke: #000000; stroke-width: 0.8"/>
      </g>
     </g>
     <g id="text_12">
      <!-- 0.006 -->
      <g transform="translate(38.803875 59.75537) scale(0.1 -0.1)">
       <use xlink:href="#DejaVuSans-30"/>
       <use xlink:href="#DejaVuSans-2e" x="63.623047"/>
       <use xlink:href="#DejaVuSans-30" x="95.410156"/>
       <use xlink:href="#DejaVuSans-30" x="159.033203"/>
       <use xlink:href="#DejaVuSans-36" x="222.65625"/>
      </g>
     </g>
    </g>
    <g id="ytick_6">
     <g id="line2d_23">
      <path d="M 74.432 30.80057 
L 450.255247 30.80057 
" clip-path="url(#p59f43191bc)" style="fill: none; stroke: #b0b0b0; stroke-width: 0.8; stroke-linecap: square"/>
     </g>
     <g id="line2d_24">
      <g>
       <use xlink:href="#m05e7d1910c" x="74.432" y="30.80057" style="stroke: #000000; stroke-width: 0.8"/>
      </g>
     </g>
     <g id="text_13">
      <!-- 0.008 -->
      <g transform="translate(38.803875 34.599789) scale(0.1 -0.1)">
       <defs>
        <path id="DejaVuSans-38" d="M 2034 2216 
Q 1584 2216 1326 1975 
Q 1069 1734 1069 1313 
Q 1069 891 1326 650 
Q 1584 409 2034 409 
Q 2484 409 2743 651 
Q 3003 894 3003 1313 
Q 3003 1734 2745 1975 
Q 2488 2216 2034 2216 
z
M 1403 2484 
Q 997 2584 770 2862 
Q 544 3141 544 3541 
Q 544 4100 942 4425 
Q 1341 4750 2034 4750 
Q 2731 4750 3128 4425 
Q 3525 4100 3525 3541 
Q 3525 3141 3298 2862 
Q 3072 2584 2669 2484 
Q 3125 2378 3379 2068 
Q 3634 1759 3634 1313 
Q 3634 634 3220 271 
Q 2806 -91 2034 -91 
Q 1263 -91 848 271 
Q 434 634 434 1313 
Q 434 1759 690 2068 
Q 947 2378 1403 2484 
z
M 1172 3481 
Q 1172 3119 1398 2916 
Q 1625 2713 2034 2713 
Q 2441 2713 2670 2916 
Q 2900 3119 2900 3481 
Q 2900 3844 2670 4047 
Q 2441 4250 2034 4250 
Q 1625 4250 1398 4047 
Q 1172 3844 1172 3481 
z
" transform="scale(0.015625)"/>
       </defs>
       <use xlink:href="#DejaVuSans-30"/>
       <use xlink:href="#DejaVuSans-2e" x="63.623047"/>
       <use xlink:href="#DejaVuSans-30" x="95.410156"/>
       <use xlink:href="#DejaVuSans-30" x="159.033203"/>
       <use xlink:href="#DejaVuSans-38" x="222.65625"/>
      </g>
     </g>
    </g>
    <g id="text_14">
     <!-- d$C_T = T / \rho n^2 D^4$ / d$\alpha$ -->
     <g transform="translate(24.324188 139.12) rotate(-90) scale(0.1 -0.1)">
      <defs>
       <path id="DejaVuSans-64" d="M 2906 2969 
L 2906 4863 
L 3481 4863 
L 3481 0 
L 2906 0 
L 2906 525 
Q 2725 213 2448 61 
Q 2172 -91 1784 -91 
Q 1150 -91 751 415 
Q 353 922 353 1747 
Q 353 2572 751 3078 
Q 1150 3584 1784 3584 
Q 2172 3584 2448 3432 
Q 2725 3281 2906 2969 
z
M 947 1747 
Q 947 1113 1208 752 
Q 1469 391 1925 391 
Q 2381 391 2643 752 
Q 2906 1113 2906 1747 
Q 2906 2381 2643 2742 
Q 2381 3103 1925 3103 
Q 1469 3103 1208 2742 
Q 947 2381 947 1747 
z
" transform="scale(0.015625)"/>
       <path id="DejaVuSans-Oblique-43" d="M 4447 4306 
L 4319 3641 
Q 4019 3944 3683 4091 
Q 3347 4238 2956 4238 
Q 2422 4238 2017 3981 
Q 1613 3725 1319 3200 
Q 1131 2863 1032 2486 
Q 934 2109 934 1728 
Q 934 1091 1264 756 
Q 1594 422 2222 422 
Q 2656 422 3056 561 
Q 3456 700 3834 978 
L 3688 231 
Q 3316 72 2936 -9 
Q 2556 -91 2175 -91 
Q 1278 -91 773 396 
Q 269 884 269 1753 
Q 269 2309 461 2846 
Q 653 3384 1013 3828 
Q 1394 4300 1883 4525 
Q 2372 4750 3022 4750 
Q 3422 4750 3780 4639 
Q 4138 4528 4447 4306 
z
" transform="scale(0.015625)"/>
       <path id="DejaVuSans-Oblique-54" d="M 378 4666 
L 4325 4666 
L 4225 4134 
L 2559 4134 
L 1759 0 
L 1125 0 
L 1925 4134 
L 275 4134 
L 378 4666 
z
" transform="scale(0.015625)"/>
       <path id="DejaVuSans-3d" d="M 678 2906 
L 4684 2906 
L 4684 2381 
L 678 2381 
L 678 2906 
z
M 678 1631 
L 4684 1631 
L 4684 1100 
L 678 1100 
L 678 1631 
z
" transform="scale(0.015625)"/>
       <path id="DejaVuSans-2f" d="M 1625 4666 
L 2156 4666 
L 531 -594 
L 0 -594 
L 1625 4666 
z
" transform="scale(0.015625)"/>
       <path id="DejaVuSans-Oblique-3c1" d="M 1203 2875 
Q 1453 3194 1981 3475 
Q 2188 3584 2756 3584 
Q 3394 3584 3694 3078 
Q 3994 2572 3834 1747 
Q 3672 922 3175 415 
Q 2678 -91 2041 -91 
Q 1656 -91 1409 63 
Q 1163 213 1044 525 
L 681 -1331 
L 103 -1331 
L 697 1716 
Q 838 2438 1203 2875 
z
M 3238 1747 
Q 3359 2381 3169 2744 
Q 2978 3103 2522 3103 
Q 2066 3103 1734 2744 
Q 1403 2381 1281 1747 
Q 1156 1113 1347 750 
Q 1538 391 1994 391 
Q 2450 391 2781 750 
Q 3113 1113 3238 1747 
z
" transform="scale(0.015625)"/>
       <path id="DejaVuSans-Oblique-6e" d="M 3566 2113 
L 3156 0 
L 2578 0 
L 2988 2091 
Q 3016 2238 3031 2350 
Q 3047 2463 3047 2528 
Q 3047 2791 2881 2937 
Q 2716 3084 2419 3084 
Q 1956 3084 1622 2776 
Q 1288 2469 1184 1941 
L 800 0 
L 225 0 
L 903 3500 
L 1478 3500 
L 1363 2950 
Q 1603 3253 1940 3418 
Q 2278 3584 2650 3584 
Q 3113 3584 3367 3334 
Q 3622 3084 3622 2631 
Q 3622 2519 3608 2391 
Q 3594 2263 3566 2113 
z
" transform="scale(0.015625)"/>
       <path id="DejaVuSans-Oblique-44" d="M 1081 4666 
L 2438 4666 
Q 3519 4666 4070 4208 
Q 4622 3750 4622 2847 
Q 4622 2250 4412 1698 
Q 4203 1147 3834 769 
Q 3463 381 2891 190 
Q 2319 0 1538 0 
L 172 0 
L 1081 4666 
z
M 1613 4147 
L 909 519 
L 1734 519 
Q 2794 519 3375 1128 
Q 3956 1738 3956 2847 
Q 3956 3519 3581 3833 
Q 3206 4147 2406 4147 
L 1613 4147 
z
" transform="scale(0.015625)"/>
       <path id="DejaVuSans-20" transform="scale(0.015625)"/>
      </defs>
      <use xlink:href="#DejaVuSans-64" transform="translate(0 0.765625)"/>
      <use xlink:href="#DejaVuSans-Oblique-43" transform="translate(63.476562 0.765625)"/>
      <use xlink:href="#DejaVuSans-Oblique-54" transform="translate(133.300781 -15.640625) scale(0.7)"/>
      <use xlink:href="#DejaVuSans-3d" transform="translate(198.276367 0.765625)"/>
      <use xlink:href="#DejaVuSans-Oblique-54" transform="translate(301.547852 0.765625)"/>
      <use xlink:href="#DejaVuSans-2f" transform="translate(362.631836 0.765625)"/>
      <use xlink:href="#DejaVuSans-Oblique-3c1" transform="translate(396.323242 0.765625)"/>
      <use xlink:href="#DejaVuSans-Oblique-6e" transform="translate(459.799805 0.765625)"/>
      <use xlink:href="#DejaVuSans-32" transform="translate(527.828607 39.046875) scale(0.7)"/>
      <use xlink:href="#DejaVuSans-Oblique-44" transform="translate(575.099115 0.765625)"/>
      <use xlink:href="#DejaVuSans-34" transform="translate(659.117839 39.046875) scale(0.7)"/>
      <use xlink:href="#DejaVuSans-20" transform="translate(706.388346 0.765625)"/>
      <use xlink:href="#DejaVuSans-2f" transform="translate(738.175456 0.765625)"/>
      <use xlink:href="#DejaVuSans-20" transform="translate(771.866862 0.765625)"/>
      <use xlink:href="#DejaVuSans-64" transform="translate(803.653971 0.765625)"/>
      <use xlink:href="#DejaVuSans-Oblique-3b1" transform="translate(867.130534 0.765625)"/>
     </g>
    </g>
   </g>
   <g id="line2d_25">
    <path d="M 91.514875 39.442927 
L 94.965961 38.49447 
L 98.417047 37.567693 
L 101.868132 36.662596 
L 105.319218 35.779179 
L 108.770304 34.917442 
L 112.22139 34.077384 
L 115.672476 33.259007 
L 119.123562 32.462309 
L 122.574647 31.687291 
L 126.025733 30.933953 
L 129.476819 30.202295 
L 132.927905 29.492317 
L 136.378991 28.804019 
L 139.830077 28.137401 
L 143.281162 27.492462 
L 146.732248 26.869204 
L 150.183334 26.267625 
L 153.63442 25.687727 
L 157.085506 25.129508 
L 160.536592 24.592969 
L 163.987677 24.07811 
L 167.438763 23.58493 
L 170.889849 23.113431 
L 174.340935 22.663612 
L 177.792021 22.235472 
L 181.243107 21.829013 
L 184.694192 21.444233 
L 188.145278 21.081133 
L 191.596364 20.739713 
L 195.04745 20.419973 
L 198.498536 20.121913 
L 201.949622 19.845532 
L 205.400707 19.590832 
L 208.851793 19.357811 
L 212.302879 19.146471 
L 215.753965 18.95681 
L 219.205051 18.788829 
L 222.656137 18.642528 
L 226.107222 18.517907 
L 229.558308 18.414966 
L 233.009394 18.333705 
L 236.46048 18.274123 
L 239.911566 18.236222 
L 243.362652 18.22 
L 246.813737 18.225458 
L 250.264823 18.252596 
L 253.715909 18.301414 
L 257.166995 18.371912 
L 260.618081 18.46409 
L 264.069167 18.577948 
L 267.520252 18.713485 
L 270.971338 18.870703 
L 274.422424 19.0496 
L 277.87351 19.250178 
L 281.324596 19.472435 
L 284.775682 19.716372 
L 288.226767 19.981989 
L 291.677853 20.269285 
L 295.128939 20.578262 
L 298.580025 20.908919 
L 302.031111 21.261255 
L 305.482197 21.635272 
L 308.933282 22.030968 
L 312.384368 22.448344 
L 315.835454 22.8874 
L 319.28654 23.348136 
L 322.737626 23.830552 
L 326.188712 24.334647 
L 329.639798 24.860423 
L 333.090883 25.407878 
L 336.541969 25.977014 
L 339.993055 26.567829 
L 343.444141 27.180324 
L 346.895227 27.814499 
L 350.346313 28.470354 
L 353.797398 29.147889 
L 357.248484 29.847104 
L 360.69957 30.567998 
L 364.150656 31.310573 
L 367.601742 32.074827 
L 371.052828 32.860761 
L 374.503913 33.668376 
L 377.954999 34.49767 
L 381.406085 35.348644 
L 384.857171 36.221297 
L 388.308257 37.115631 
L 391.759343 38.031645 
L 395.210428 38.969338 
L 398.661514 39.928711 
L 402.1126 40.909765 
L 405.563686 41.912498 
L 409.014772 42.936911 
L 412.465858 43.983004 
L 415.916943 45.050777 
L 419.368029 46.140229 
L 422.819115 47.251362 
L 426.270201 48.384174 
L 429.721287 49.538667 
L 433.172373 50.714839 
" clip-path="url(#p59f43191bc)" style="fill: none; stroke: #000080; stroke-width: 1.5; stroke-linecap: square"/>
   </g>
   <g id="line2d_26">
    <path d="M 91.514875 54.912106 
L 94.965961 53.788998 
L 98.417047 52.68757 
L 101.868132 51.607822 
L 105.319218 50.549754 
L 108.770304 49.513366 
L 112.22139 48.498657 
L 115.672476 47.505629 
L 119.123562 46.53428 
L 122.574647 45.584611 
L 126.025733 44.656622 
L 129.476819 43.750313 
L 132.927905 42.865684 
L 136.378991 42.002735 
L 139.830077 41.161465 
L 143.281162 40.341876 
L 146.732248 39.543966 
L 150.183334 38.767737 
L 153.63442 38.013187 
L 157.085506 37.280317 
L 160.536592 36.569127 
L 163.987677 35.879617 
L 167.438763 35.211786 
L 170.889849 34.565636 
L 174.340935 33.941166 
L 177.792021 33.338375 
L 181.243107 32.757264 
L 184.694192 32.197833 
L 188.145278 31.660083 
L 191.596364 31.144012 
L 195.04745 30.64962 
L 198.498536 30.176909 
L 201.949622 29.725878 
L 205.400707 29.296526 
L 208.851793 28.888855 
L 212.302879 28.502863 
L 215.753965 28.138551 
L 219.205051 27.795919 
L 222.656137 27.474967 
L 226.107222 27.175695 
L 229.558308 26.898103 
L 233.009394 26.642191 
L 236.46048 26.407958 
L 239.911566 26.195405 
L 243.362652 26.004533 
L 246.813737 25.83534 
L 250.264823 25.687827 
L 253.715909 25.561994 
L 257.166995 25.457841 
L 260.618081 25.375368 
L 264.069167 25.314574 
L 267.520252 25.275461 
L 270.971338 25.258027 
L 274.422424 25.262274 
L 277.87351 25.2882 
L 281.324596 25.335806 
L 284.775682 25.405092 
L 288.226767 25.496058 
L 291.677853 25.608703 
L 295.128939 25.743029 
L 298.580025 25.899035 
L 302.031111 26.07672 
L 305.482197 26.276085 
L 308.933282 26.49713 
L 312.384368 26.739856 
L 315.835454 27.004261 
L 319.28654 27.290345 
L 322.737626 27.59811 
L 326.188712 27.927555 
L 329.639798 28.278679 
L 333.090883 28.651484 
L 336.541969 29.045968 
L 339.993055 29.462132 
L 343.444141 29.899976 
L 346.895227 30.3595 
L 350.346313 30.840704 
L 353.797398 31.343588 
L 357.248484 31.868152 
L 360.69957 32.414395 
L 364.150656 32.982319 
L 367.601742 33.571922 
L 371.052828 34.183205 
L 374.503913 34.816168 
L 377.954999 35.470811 
L 381.406085 36.147134 
L 384.857171 36.845137 
L 388.308257 37.564819 
L 391.759343 38.306182 
L 395.210428 39.069224 
L 398.661514 39.853947 
L 402.1126 40.660349 
L 405.563686 41.488431 
L 409.014772 42.338193 
L 412.465858 43.209635 
L 415.916943 44.102757 
L 419.368029 45.017558 
L 422.819115 45.95404 
L 426.270201 46.912201 
L 429.721287 47.892043 
L 433.172373 48.893564 
" clip-path="url(#p59f43191bc)" style="fill: none; stroke: #0080ff; stroke-width: 1.5; stroke-linecap: square"/>
   </g>
   <g id="line2d_27">
    <path d="M 91.514875 81.264678 
L 94.965961 80.021831 
L 98.417047 78.800663 
L 101.868132 77.601175 
L 105.319218 76.423367 
L 108.770304 75.267239 
L 112.22139 74.13279 
L 115.672476 73.020022 
L 119.123562 71.928934 
L 122.574647 70.859525 
L 126.025733 69.811796 
L 129.476819 68.785747 
L 132.927905 67.781379 
L 136.378991 66.79869 
L 139.830077 65.83768 
L 143.281162 64.898351 
L 146.732248 63.980702 
L 150.183334 63.084732 
L 153.63442 62.210443 
L 157.085506 61.357833 
L 160.536592 60.526903 
L 163.987677 59.717653 
L 167.438763 58.930083 
L 170.889849 58.164193 
L 174.340935 57.419983 
L 177.792021 56.697453 
L 181.243107 55.996602 
L 184.694192 55.317432 
L 188.145278 54.659941 
L 191.596364 54.02413 
L 195.04745 53.409999 
L 198.498536 52.817548 
L 201.949622 52.246777 
L 205.400707 51.697686 
L 208.851793 51.170274 
L 212.302879 50.664543 
L 215.753965 50.180491 
L 219.205051 49.71812 
L 222.656137 49.277428 
L 226.107222 48.858416 
L 229.558308 48.461084 
L 233.009394 48.085432 
L 236.46048 47.73146 
L 239.911566 47.399167 
L 243.362652 47.088555 
L 246.813737 46.799622 
L 250.264823 46.53237 
L 253.715909 46.286797 
L 257.166995 46.062904 
L 260.618081 45.860691 
L 264.069167 45.680158 
L 267.520252 45.521304 
L 270.971338 45.384131 
L 274.422424 45.268638 
L 277.87351 45.174824 
L 281.324596 45.10269 
L 284.775682 45.052237 
L 288.226767 45.023463 
L 291.677853 45.016369 
L 295.128939 45.030955 
L 298.580025 45.06722 
L 302.031111 45.125166 
L 305.482197 45.204791 
L 308.933282 45.306097 
L 312.384368 45.429082 
L 315.835454 45.573747 
L 319.28654 45.740093 
L 322.737626 45.928117 
L 326.188712 46.137822 
L 329.639798 46.369207 
L 333.090883 46.622272 
L 336.541969 46.897016 
L 339.993055 47.193441 
L 343.444141 47.511545 
L 346.895227 47.851329 
L 350.346313 48.212793 
L 353.797398 48.595937 
L 357.248484 49.000761 
L 360.69957 49.427265 
L 364.150656 49.875449 
L 367.601742 50.345312 
L 371.052828 50.836856 
L 374.503913 51.350079 
L 377.954999 51.884982 
L 381.406085 52.441565 
L 384.857171 53.019828 
L 388.308257 53.619771 
L 391.759343 54.241394 
L 395.210428 54.884697 
L 398.661514 55.549679 
L 402.1126 56.236342 
L 405.563686 56.944684 
L 409.014772 57.674706 
L 412.465858 58.426408 
L 415.916943 59.19979 
L 419.368029 59.994852 
L 422.819115 60.811594 
L 426.270201 61.650015 
L 429.721287 62.510117 
L 433.172373 63.391898 
" clip-path="url(#p59f43191bc)" style="fill: none; stroke: #7dff7a; stroke-width: 1.5; stroke-linecap: square"/>
   </g>
   <g id="line2d_28">
    <path d="M 91.514875 118.500643 
L 94.965961 117.192967 
L 98.417047 115.90697 
L 101.868132 114.642654 
L 105.319218 113.400017 
L 108.770304 112.179061 
L 112.22139 110.979784 
L 115.672476 109.802187 
L 119.123562 108.64627 
L 122.574647 107.512033 
L 126.025733 106.399476 
L 129.476819 105.308599 
L 132.927905 104.239401 
L 136.378991 103.191884 
L 139.830077 102.166046 
L 143.281162 101.161888 
L 146.732248 100.179411 
L 150.183334 99.218613 
L 153.63442 98.279495 
L 157.085506 97.362056 
L 160.536592 96.466298 
L 163.987677 95.59222 
L 167.438763 94.739821 
L 170.889849 93.909103 
L 174.340935 93.100064 
L 177.792021 92.312705 
L 181.243107 91.547026 
L 184.694192 90.803027 
L 188.145278 90.080708 
L 191.596364 89.380069 
L 195.04745 88.701109 
L 198.498536 88.04383 
L 201.949622 87.40823 
L 205.400707 86.79431 
L 208.851793 86.202071 
L 212.302879 85.631511 
L 215.753965 85.082631 
L 219.205051 84.55543 
L 222.656137 84.04991 
L 226.107222 83.56607 
L 229.558308 83.103909 
L 233.009394 82.663429 
L 236.46048 82.244628 
L 239.911566 81.847507 
L 243.362652 81.472066 
L 246.813737 81.118305 
L 250.264823 80.786224 
L 253.715909 80.475823 
L 257.166995 80.187101 
L 260.618081 79.92006 
L 264.069167 79.674698 
L 267.520252 79.451016 
L 270.971338 79.249015 
L 274.422424 79.068693 
L 277.87351 78.910051 
L 281.324596 78.773088 
L 284.775682 78.657806 
L 288.226767 78.564204 
L 291.677853 78.492281 
L 295.128939 78.442039 
L 298.580025 78.413476 
L 302.031111 78.406593 
L 305.482197 78.42139 
L 308.933282 78.457867 
L 312.384368 78.516024 
L 315.835454 78.595861 
L 319.28654 78.697377 
L 322.737626 78.820574 
L 326.188712 78.96545 
L 329.639798 79.132006 
L 333.090883 79.320243 
L 336.541969 79.530159 
L 339.993055 79.761755 
L 343.444141 80.01503 
L 346.895227 80.289986 
L 350.346313 80.586622 
L 353.797398 80.904937 
L 357.248484 81.244933 
L 360.69957 81.606608 
L 364.150656 81.989963 
L 367.601742 82.394998 
L 371.052828 82.821713 
L 374.503913 83.270108 
L 377.954999 83.740183 
L 381.406085 84.231937 
L 384.857171 84.745372 
L 388.308257 85.280486 
L 391.759343 85.83728 
L 395.210428 86.415755 
L 398.661514 87.015909 
L 402.1126 87.637743 
L 405.563686 88.281256 
L 409.014772 88.94645 
L 412.465858 89.633324 
L 415.916943 90.341877 
L 419.368029 91.072111 
L 422.819115 91.824024 
L 426.270201 92.597617 
L 429.721287 93.39289 
L 433.172373 94.209843 
" clip-path="url(#p59f43191bc)" style="fill: none; stroke: #ff9400; stroke-width: 1.5; stroke-linecap: square"/>
   </g>
   <g id="line2d_29">
    <path d="M 91.514875 166.62 
L 94.965961 165.302407 
L 98.417047 164.006493 
L 101.868132 162.73226 
L 105.319218 161.479706 
L 108.770304 160.248832 
L 112.22139 159.039638 
L 115.672476 157.852124 
L 119.123562 156.68629 
L 122.574647 155.542136 
L 126.025733 154.419661 
L 129.476819 153.318867 
L 132.927905 152.239752 
L 136.378991 151.182318 
L 139.830077 150.146563 
L 143.281162 149.132488 
L 146.732248 148.140093 
L 150.183334 147.169378 
L 153.63442 146.220342 
L 157.085506 145.292987 
L 160.536592 144.387311 
L 163.987677 143.503316 
L 167.438763 142.641 
L 170.889849 141.800364 
L 174.340935 140.981408 
L 177.792021 140.184132 
L 181.243107 139.408536 
L 184.694192 138.65462 
L 188.145278 137.922384 
L 191.596364 137.211827 
L 195.04745 136.522951 
L 198.498536 135.855754 
L 201.949622 135.210237 
L 205.400707 134.5864 
L 208.851793 133.984243 
L 212.302879 133.403766 
L 215.753965 132.844969 
L 219.205051 132.307851 
L 222.656137 131.792414 
L 226.107222 131.298656 
L 229.558308 130.826579 
L 233.009394 130.376181 
L 236.46048 129.947463 
L 239.911566 129.540425 
L 243.362652 129.155067 
L 246.813737 128.791388 
L 250.264823 128.44939 
L 253.715909 128.129072 
L 257.166995 127.830433 
L 260.618081 127.553474 
L 264.069167 127.298195 
L 267.520252 127.064597 
L 270.971338 126.852678 
L 274.422424 126.662438 
L 277.87351 126.493879 
L 281.324596 126.347 
L 284.775682 126.2218 
L 288.226767 126.118281 
L 291.677853 126.036441 
L 295.128939 125.976281 
L 298.580025 125.937801 
L 302.031111 125.921001 
L 305.482197 125.925881 
L 308.933282 125.952441 
L 312.384368 126.00068 
L 315.835454 126.0706 
L 319.28654 126.162199 
L 322.737626 126.275479 
L 326.188712 126.410438 
L 329.639798 126.567077 
L 333.090883 126.745396 
L 336.541969 126.945395 
L 339.993055 127.167074 
L 343.444141 127.410432 
L 346.895227 127.675471 
L 350.346313 127.962189 
L 353.797398 128.270587 
L 357.248484 128.600666 
L 360.69957 128.952424 
L 364.150656 129.325862 
L 367.601742 129.72098 
L 371.052828 130.137777 
L 374.503913 130.576255 
L 377.954999 131.036412 
L 381.406085 131.51825 
L 384.857171 132.021767 
L 388.308257 132.546964 
L 391.759343 133.093841 
L 395.210428 133.662398 
L 398.661514 134.252635 
L 402.1126 134.864552 
L 405.563686 135.498149 
L 409.014772 136.153425 
L 412.465858 136.830382 
L 415.916943 137.529018 
L 419.368029 138.249334 
L 422.819115 138.99133 
L 426.270201 139.755006 
L 429.721287 140.540362 
L 433.172373 141.347398 
" clip-path="url(#p59f43191bc)" style="fill: none; stroke: #800000; stroke-width: 1.5; stroke-linecap: square"/>
   </g>
   <g id="patch_3">
    <path d="M 74.432 174.04 
L 74.432 10.8 
" style="fill: none; stroke: #000000; stroke-width: 0.8; stroke-linejoin: miter; stroke-linecap: square"/>
   </g>
   <g id="patch_4">
    <path d="M 450.255247 174.04 
L 450.255247 10.8 
" style="fill: none; stroke: #000000; stroke-width: 0.8; stroke-linejoin: miter; stroke-linecap: square"/>
   </g>
   <g id="patch_5">
    <path d="M 74.432 174.04 
L 450.255247 174.04 
" style="fill: none; stroke: #000000; stroke-width: 0.8; stroke-linejoin: miter; stroke-linecap: square"/>
   </g>
   <g id="patch_6">
    <path d="M 74.432 10.8 
L 450.255247 10.8 
" style="fill: none; stroke: #000000; stroke-width: 0.8; stroke-linejoin: miter; stroke-linecap: square"/>
   </g>
   <g id="legend_1">
    <g id="patch_7">
     <path d="M 459.255247 162.878 
L 564.455247 162.878 
Q 566.455247 162.878 566.455247 160.878 
L 566.455247 88.385812 
Q 566.455247 86.385812 564.455247 86.385812 
L 459.255247 86.385812 
Q 457.255247 86.385812 457.255247 88.385812 
L 457.255247 160.878 
Q 457.255247 162.878 459.255247 162.878 
z
" style="fill: #4d4d4d; opacity: 0.5; stroke: #4d4d4d; stroke-linejoin: miter"/>
    </g>
    <g id="patch_8">
     <path d="M 457.255247 160.878 
L 562.455247 160.878 
Q 564.455247 160.878 564.455247 158.878 
L 564.455247 86.385812 
Q 564.455247 84.385812 562.455247 84.385812 
L 457.255247 84.385812 
Q 455.255247 84.385812 455.255247 86.385812 
L 455.255247 158.878 
Q 455.255247 160.878 457.255247 160.878 
z
" style="fill: #ffffff; stroke: #cccccc; stroke-linejoin: miter"/>
    </g>
    <g id="line2d_30">
     <path d="M 459.255247 92.48425 
L 469.255247 92.48425 
L 479.255247 92.48425 
" style="fill: none; stroke: #000080; stroke-width: 1.5; stroke-linecap: square"/>
    </g>
    <g id="text_15">
     <!-- $\delta_e = 0$, $J = 1.60$ -->
     <g transform="translate(487.255247 95.98425) scale(0.1 -0.1)">
      <defs>
       <path id="DejaVuSans-Oblique-3b4" d="M 3472 4053 
Q 3197 4272 2450 4272 
Q 1659 4272 1588 3906 
Q 1531 3619 2328 3469 
Q 2953 3353 3253 3003 
Q 3616 2581 3447 1716 
Q 3284 888 2763 400 
Q 2238 -91 1488 -91 
Q 741 -91 406 400 
Q 72 888 241 1747 
Q 363 2384 891 2900 
Q 1097 3100 1353 3213 
Q 913 3459 1000 3900 
Q 1166 4750 2544 4750 
Q 3234 4750 3566 4531 
L 3472 4053 
z
M 1753 3056 
Q 1525 2966 1306 2738 
Q 969 2384 847 1747 
Q 722 1113 919 756 
Q 1119 397 1584 397 
Q 2044 397 2381 759 
Q 2722 1122 2838 1716 
Q 2956 2338 2731 2638 
Q 2491 2959 2103 2994 
Q 1906 3013 1753 3056 
z
" transform="scale(0.015625)"/>
       <path id="DejaVuSans-Oblique-65" d="M 3078 2063 
Q 3088 2113 3092 2166 
Q 3097 2219 3097 2272 
Q 3097 2653 2873 2875 
Q 2650 3097 2266 3097 
Q 1838 3097 1509 2826 
Q 1181 2556 1013 2059 
L 3078 2063 
z
M 3578 1613 
L 903 1613 
Q 884 1494 878 1425 
Q 872 1356 872 1306 
Q 872 872 1139 634 
Q 1406 397 1894 397 
Q 2269 397 2603 481 
Q 2938 566 3225 728 
L 3116 159 
Q 2806 34 2476 -28 
Q 2147 -91 1806 -91 
Q 1078 -91 686 257 
Q 294 606 294 1247 
Q 294 1794 489 2264 
Q 684 2734 1063 3103 
Q 1306 3334 1642 3459 
Q 1978 3584 2356 3584 
Q 2950 3584 3301 3228 
Q 3653 2872 3653 2272 
Q 3653 2128 3634 1964 
Q 3616 1800 3578 1613 
z
" transform="scale(0.015625)"/>
       <path id="DejaVuSans-2c" d="M 750 794 
L 1409 794 
L 1409 256 
L 897 -744 
L 494 -744 
L 750 256 
L 750 794 
z
" transform="scale(0.015625)"/>
       <path id="DejaVuSans-Oblique-4a" d="M 1069 4666 
L 1703 4666 
L 856 325 
Q 691 -522 298 -901 
Q -94 -1281 -800 -1281 
L -1050 -1281 
L -947 -750 
L -750 -750 
Q -328 -750 -109 -509 
Q 109 -269 225 325 
L 1069 4666 
z
" transform="scale(0.015625)"/>
       <path id="DejaVuSans-31" d="M 794 531 
L 1825 531 
L 1825 4091 
L 703 3866 
L 703 4441 
L 1819 4666 
L 2450 4666 
L 2450 531 
L 3481 531 
L 3481 0 
L 794 0 
L 794 531 
z
" transform="scale(0.015625)"/>
      </defs>
      <use xlink:href="#DejaVuSans-Oblique-3b4" transform="translate(0 0.78125)"/>
      <use xlink:href="#DejaVuSans-Oblique-65" transform="translate(61.181641 -15.625) scale(0.7)"/>
      <use xlink:href="#DejaVuSans-3d" transform="translate(126.464844 0.78125)"/>
      <use xlink:href="#DejaVuSans-30" transform="translate(229.736328 0.78125)"/>
      <use xlink:href="#DejaVuSans-2c" transform="translate(293.359375 0.78125)"/>
      <use xlink:href="#DejaVuSans-20" transform="translate(325.146484 0.78125)"/>
      <use xlink:href="#DejaVuSans-Oblique-4a" transform="translate(356.933594 0.78125)"/>
      <use xlink:href="#DejaVuSans-3d" transform="translate(405.908203 0.78125)"/>
      <use xlink:href="#DejaVuSans-31" transform="translate(509.179688 0.78125)"/>
      <use xlink:href="#DejaVuSans-2e" transform="translate(572.802734 0.78125)"/>
      <use xlink:href="#DejaVuSans-36" transform="translate(604.589844 0.78125)"/>
      <use xlink:href="#DejaVuSans-30" transform="translate(668.212891 0.78125)"/>
     </g>
    </g>
    <g id="line2d_31">
     <path d="M 459.255247 107.182688 
L 469.255247 107.182688 
L 479.255247 107.182688 
" style="fill: none; stroke: #0080ff; stroke-width: 1.5; stroke-linecap: square"/>
    </g>
    <g id="text_16">
     <!-- $\delta_e = 0$, $J = 1.80$ -->
     <g transform="translate(487.255247 110.682688) scale(0.1 -0.1)">
      <use xlink:href="#DejaVuSans-Oblique-3b4" transform="translate(0 0.78125)"/>
      <use xlink:href="#DejaVuSans-Oblique-65" transform="translate(61.181641 -15.625) scale(0.7)"/>
      <use xlink:href="#DejaVuSans-3d" transform="translate(126.464844 0.78125)"/>
      <use xlink:href="#DejaVuSans-30" transform="translate(229.736328 0.78125)"/>
      <use xlink:href="#DejaVuSans-2c" transform="translate(293.359375 0.78125)"/>
      <use xlink:href="#DejaVuSans-20" transform="translate(325.146484 0.78125)"/>
      <use xlink:href="#DejaVuSans-Oblique-4a" transform="translate(356.933594 0.78125)"/>
      <use xlink:href="#DejaVuSans-3d" transform="translate(405.908203 0.78125)"/>
      <use xlink:href="#DejaVuSans-31" transform="translate(509.179688 0.78125)"/>
      <use xlink:href="#DejaVuSans-2e" transform="translate(572.802734 0.78125)"/>
      <use xlink:href="#DejaVuSans-38" transform="translate(601.964844 0.78125)"/>
      <use xlink:href="#DejaVuSans-30" transform="translate(665.587891 0.78125)"/>
     </g>
    </g>
    <g id="line2d_32">
     <path d="M 459.255247 121.881125 
L 469.255247 121.881125 
L 479.255247 121.881125 
" style="fill: none; stroke: #7dff7a; stroke-width: 1.5; stroke-linecap: square"/>
    </g>
    <g id="text_17">
     <!-- $\delta_e = 0$, $J = 2.00$ -->
     <g transform="translate(487.255247 125.381125) scale(0.1 -0.1)">
      <use xlink:href="#DejaVuSans-Oblique-3b4" transform="translate(0 0.78125)"/>
      <use xlink:href="#DejaVuSans-Oblique-65" transform="translate(61.181641 -15.625) scale(0.7)"/>
      <use xlink:href="#DejaVuSans-3d" transform="translate(126.464844 0.78125)"/>
      <use xlink:href="#DejaVuSans-30" transform="translate(229.736328 0.78125)"/>
      <use xlink:href="#DejaVuSans-2c" transform="translate(293.359375 0.78125)"/>
      <use xlink:href="#DejaVuSans-20" transform="translate(325.146484 0.78125)"/>
      <use xlink:href="#DejaVuSans-Oblique-4a" transform="translate(356.933594 0.78125)"/>
      <use xlink:href="#DejaVuSans-3d" transform="translate(405.908203 0.78125)"/>
      <use xlink:href="#DejaVuSans-32" transform="translate(509.179688 0.78125)"/>
      <use xlink:href="#DejaVuSans-2e" transform="translate(572.802734 0.78125)"/>
      <use xlink:href="#DejaVuSans-30" transform="translate(604.589844 0.78125)"/>
      <use xlink:href="#DejaVuSans-30" transform="translate(668.212891 0.78125)"/>
     </g>
    </g>
    <g id="line2d_33">
     <path d="M 459.255247 136.579563 
L 469.255247 136.579563 
L 479.255247 136.579563 
" style="fill: none; stroke: #ff9400; stroke-width: 1.5; stroke-linecap: square"/>
    </g>
    <g id="text_18">
     <!-- $\delta_e = 0$, $J = 2.20$ -->
     <g transform="translate(487.255247 140.079563) scale(0.1 -0.1)">
      <use xlink:href="#DejaVuSans-Oblique-3b4" transform="translate(0 0.78125)"/>
      <use xlink:href="#DejaVuSans-Oblique-65" transform="translate(61.181641 -15.625) scale(0.7)"/>
      <use xlink:href="#DejaVuSans-3d" transform="translate(126.464844 0.78125)"/>
      <use xlink:href="#DejaVuSans-30" transform="translate(229.736328 0.78125)"/>
      <use xlink:href="#DejaVuSans-2c" transform="translate(293.359375 0.78125)"/>
      <use xlink:href="#DejaVuSans-20" transform="translate(325.146484 0.78125)"/>
      <use xlink:href="#DejaVuSans-Oblique-4a" transform="translate(356.933594 0.78125)"/>
      <use xlink:href="#DejaVuSans-3d" transform="translate(405.908203 0.78125)"/>
      <use xlink:href="#DejaVuSans-32" transform="translate(509.179688 0.78125)"/>
      <use xlink:href="#DejaVuSans-2e" transform="translate(572.802734 0.78125)"/>
      <use xlink:href="#DejaVuSans-32" transform="translate(599.089844 0.78125)"/>
      <use xlink:href="#DejaVuSans-30" transform="translate(662.712891 0.78125)"/>
     </g>
    </g>
    <g id="line2d_34">
     <path d="M 459.255247 151.278 
L 469.255247 151.278 
L 479.255247 151.278 
" style="fill: none; stroke: #800000; stroke-width: 1.5; stroke-linecap: square"/>
    </g>
    <g id="text_19">
     <!-- $\delta_e = 0$, $J = 2.40$ -->
     <g transform="translate(487.255247 154.778) scale(0.1 -0.1)">
      <use xlink:href="#DejaVuSans-Oblique-3b4" transform="translate(0 0.78125)"/>
      <use xlink:href="#DejaVuSans-Oblique-65" transform="translate(61.181641 -15.625) scale(0.7)"/>
      <use xlink:href="#DejaVuSans-3d" transform="translate(126.464844 0.78125)"/>
      <use xlink:href="#DejaVuSans-30" transform="translate(229.736328 0.78125)"/>
      <use xlink:href="#DejaVuSans-2c" transform="translate(293.359375 0.78125)"/>
      <use xlink:href="#DejaVuSans-20" transform="translate(325.146484 0.78125)"/>
      <use xlink:href="#DejaVuSans-Oblique-4a" transform="translate(356.933594 0.78125)"/>
      <use xlink:href="#DejaVuSans-3d" transform="translate(405.908203 0.78125)"/>
      <use xlink:href="#DejaVuSans-32" transform="translate(509.179688 0.78125)"/>
      <use xlink:href="#DejaVuSans-2e" transform="translate(572.802734 0.78125)"/>
      <use xlink:href="#DejaVuSans-34" transform="translate(604.589844 0.78125)"/>
      <use xlink:href="#DejaVuSans-30" transform="translate(668.212891 0.78125)"/>
     </g>
    </g>
   </g>
  </g>
 </g>
 <defs>
  <clipPath id="p59f43191bc">
   <rect x="74.432" y="10.8" width="375.823247" height="163.24"/>
  </clipPath>
 </defs>
</svg>
