<?xml version="1.0" encoding="utf-8" standalone="no"?>
<!DOCTYPE svg PUBLIC "-//W3C//DTD SVG 1.1//EN"
  "http://www.w3.org/Graphics/SVG/1.1/DTD/svg11.dtd">
<svg xmlns:xlink="http://www.w3.org/1999/xlink" width="432pt" height="216pt" viewBox="0 0 432 216" xmlns="http://www.w3.org/2000/svg" version="1.1">
 <metadata>
  <rdf:RDF xmlns:dc="http://purl.org/dc/elements/1.1/" xmlns:cc="http://creativecommons.org/ns#" xmlns:rdf="http://www.w3.org/1999/02/22-rdf-syntax-ns#">
   <cc:Work>
    <dc:type rdf:resource="http://purl.org/dc/dcmitype/StillImage"/>
    <dc:date>2025-03-28T12:22:31.997691</dc:date>
    <dc:format>image/svg+xml</dc:format>
    <dc:creator>
     <cc:Agent>
      <dc:title>Matplotlib v3.9.2, https://matplotlib.org/</dc:title>
     </cc:Agent>
    </dc:creator>
   </cc:Work>
  </rdf:RDF>
 </metadata>
 <defs>
  <style type="text/css">*{stroke-linejoin: round; stroke-linecap: butt}</style>
 </defs>
 <g id="figure_1">
  <g id="patch_1">
   <path d="M 0 216 
L 432 216 
L 432 0 
L 0 0 
z
" style="fill: #ffffff"/>
  </g>
  <g id="axes_1">
   <g id="patch_2">
    <path d="M 80.822 174.04 
L 306.255247 174.04 
L 306.255247 10.8 
L 80.822 10.8 
z
" style="fill: #ffffff"/>
   </g>
   <g id="matplotlib.axis_1">
    <g id="xtick_1">
     <g id="line2d_1">
      <path d="M 91.068966 174.04 
L 91.068966 10.8 
" clip-path="url(#p8cd2e63072)" style="fill: none; stroke: #b0b0b0; stroke-width: 0.8; stroke-linecap: square"/>
     </g>
     <g id="line2d_2">
      <defs>
       <path id="m4317a93cc8" d="M 0 0 
L 0 3.5 
" style="stroke: #000000; stroke-width: 0.8"/>
      </defs>
      <g>
       <use xlink:href="#m4317a93cc8" x="91.068966" y="174.04" style="stroke: #000000; stroke-width: 0.8"/>
      </g>
     </g>
     <g id="text_1">
      <!-- −4 -->
      <g transform="translate(83.697872 188.638438) scale(0.1 -0.1)">
       <defs>
        <path id="DejaVuSans-2212" d="M 678 2272 
L 4684 2272 
L 4684 1741 
L 678 1741 
L 678 2272 
z
" transform="scale(0.015625)"/>
        <path id="DejaVuSans-34" d="M 2419 4116 
L 825 1625 
L 2419 1625 
L 2419 4116 
z
M 2253 4666 
L 3047 4666 
L 3047 1625 
L 3713 1625 
L 3713 1100 
L 3047 1100 
L 3047 0 
L 2419 0 
L 2419 1100 
L 313 1100 
L 313 1709 
L 2253 4666 
z
" transform="scale(0.015625)"/>
       </defs>
       <use xlink:href="#DejaVuSans-2212"/>
       <use xlink:href="#DejaVuSans-34" x="83.789062"/>
      </g>
     </g>
    </g>
    <g id="xtick_2">
     <g id="line2d_3">
      <path d="M 128.33066 174.04 
L 128.33066 10.8 
" clip-path="url(#p8cd2e63072)" style="fill: none; stroke: #b0b0b0; stroke-width: 0.8; stroke-linecap: square"/>
     </g>
     <g id="line2d_4">
      <g>
       <use xlink:href="#m4317a93cc8" x="128.33066" y="174.04" style="stroke: #000000; stroke-width: 0.8"/>
      </g>
     </g>
     <g id="text_2">
      <!-- −2 -->
      <g transform="translate(120.959566 188.638438) scale(0.1 -0.1)">
       <defs>
        <path id="DejaVuSans-32" d="M 1228 531 
L 3431 531 
L 3431 0 
L 469 0 
L 469 531 
Q 828 903 1448 1529 
Q 2069 2156 2228 2338 
Q 2531 2678 2651 2914 
Q 2772 3150 2772 3378 
Q 2772 3750 2511 3984 
Q 2250 4219 1831 4219 
Q 1534 4219 1204 4116 
Q 875 4013 500 3803 
L 500 4441 
Q 881 4594 1212 4672 
Q 1544 4750 1819 4750 
Q 2544 4750 2975 4387 
Q 3406 4025 3406 3419 
Q 3406 3131 3298 2873 
Q 3191 2616 2906 2266 
Q 2828 2175 2409 1742 
Q 1991 1309 1228 531 
z
" transform="scale(0.015625)"/>
       </defs>
       <use xlink:href="#DejaVuSans-2212"/>
       <use xlink:href="#DejaVuSans-32" x="83.789062"/>
      </g>
     </g>
    </g>
    <g id="xtick_3">
     <g id="line2d_5">
      <path d="M 165.592353 174.04 
L 165.592353 10.8 
" clip-path="url(#p8cd2e63072)" style="fill: none; stroke: #b0b0b0; stroke-width: 0.8; stroke-linecap: square"/>
     </g>
     <g id="line2d_6">
      <g>
       <use xlink:href="#m4317a93cc8" x="165.592353" y="174.04" style="stroke: #000000; stroke-width: 0.8"/>
      </g>
     </g>
     <g id="text_3">
      <!-- 0 -->
      <g transform="translate(162.411103 188.638438) scale(0.1 -0.1)">
       <defs>
        <path id="DejaVuSans-30" d="M 2034 4250 
Q 1547 4250 1301 3770 
Q 1056 3291 1056 2328 
Q 1056 1369 1301 889 
Q 1547 409 2034 409 
Q 2525 409 2770 889 
Q 3016 1369 3016 2328 
Q 3016 3291 2770 3770 
Q 2525 4250 2034 4250 
z
M 2034 4750 
Q 2819 4750 3233 4129 
Q 3647 3509 3647 2328 
Q 3647 1150 3233 529 
Q 2819 -91 2034 -91 
Q 1250 -91 836 529 
Q 422 1150 422 2328 
Q 422 3509 836 4129 
Q 1250 4750 2034 4750 
z
" transform="scale(0.015625)"/>
       </defs>
       <use xlink:href="#DejaVuSans-30"/>
      </g>
     </g>
    </g>
    <g id="xtick_4">
     <g id="line2d_7">
      <path d="M 202.854047 174.04 
L 202.854047 10.8 
" clip-path="url(#p8cd2e63072)" style="fill: none; stroke: #b0b0b0; stroke-width: 0.8; stroke-linecap: square"/>
     </g>
     <g id="line2d_8">
      <g>
       <use xlink:href="#m4317a93cc8" x="202.854047" y="174.04" style="stroke: #000000; stroke-width: 0.8"/>
      </g>
     </g>
     <g id="text_4">
      <!-- 2 -->
      <g transform="translate(199.672797 188.638438) scale(0.1 -0.1)">
       <use xlink:href="#DejaVuSans-32"/>
      </g>
     </g>
    </g>
    <g id="xtick_5">
     <g id="line2d_9">
      <path d="M 240.115741 174.04 
L 240.115741 10.8 
" clip-path="url(#p8cd2e63072)" style="fill: none; stroke: #b0b0b0; stroke-width: 0.8; stroke-linecap: square"/>
     </g>
     <g id="line2d_10">
      <g>
       <use xlink:href="#m4317a93cc8" x="240.115741" y="174.04" style="stroke: #000000; stroke-width: 0.8"/>
      </g>
     </g>
     <g id="text_5">
      <!-- 4 -->
      <g transform="translate(236.934491 188.638438) scale(0.1 -0.1)">
       <use xlink:href="#DejaVuSans-34"/>
      </g>
     </g>
    </g>
    <g id="xtick_6">
     <g id="line2d_11">
      <path d="M 277.377435 174.04 
L 277.377435 10.8 
" clip-path="url(#p8cd2e63072)" style="fill: none; stroke: #b0b0b0; stroke-width: 0.8; stroke-linecap: square"/>
     </g>
     <g id="line2d_12">
      <g>
       <use xlink:href="#m4317a93cc8" x="277.377435" y="174.04" style="stroke: #000000; stroke-width: 0.8"/>
      </g>
     </g>
     <g id="text_6">
      <!-- 6 -->
      <g transform="translate(274.196185 188.638438) scale(0.1 -0.1)">
       <defs>
        <path id="DejaVuSans-36" d="M 2113 2584 
Q 1688 2584 1439 2293 
Q 1191 2003 1191 1497 
Q 1191 994 1439 701 
Q 1688 409 2113 409 
Q 2538 409 2786 701 
Q 3034 994 3034 1497 
Q 3034 2003 2786 2293 
Q 2538 2584 2113 2584 
z
M 3366 4563 
L 3366 3988 
Q 3128 4100 2886 4159 
Q 2644 4219 2406 4219 
Q 1781 4219 1451 3797 
Q 1122 3375 1075 2522 
Q 1259 2794 1537 2939 
Q 1816 3084 2150 3084 
Q 2853 3084 3261 2657 
Q 3669 2231 3669 1497 
Q 3669 778 3244 343 
Q 2819 -91 2113 -91 
Q 1303 -91 875 529 
Q 447 1150 447 2328 
Q 447 3434 972 4092 
Q 1497 4750 2381 4750 
Q 2619 4750 2861 4703 
Q 3103 4656 3366 4563 
z
" transform="scale(0.015625)"/>
       </defs>
       <use xlink:href="#DejaVuSans-36"/>
      </g>
     </g>
    </g>
    <g id="text_7">
     <!-- $\alpha$ -->
     <g transform="translate(190.238624 202.316563) scale(0.1 -0.1)">
      <defs>
       <path id="DejaVuSans-Oblique-3b1" d="M 2619 1628 
L 2622 2350 
Q 2625 3088 2069 3091 
Q 1653 3094 1394 2747 
Q 1069 2319 959 1747 
Q 825 1059 994 731 
Q 1169 397 1547 397 
Q 1966 397 2319 1063 
L 2619 1628 
z
M 2166 3578 
Q 3141 3594 3128 2584 
Q 3128 2584 3616 3500 
L 4128 3500 
L 3119 1603 
L 3109 919 
Q 3109 766 3194 638 
Q 3291 488 3391 488 
L 3669 488 
L 3575 0 
L 3228 0 
Q 2934 0 2722 263 
Q 2622 394 2619 669 
Q 2416 334 2066 50 
Q 1900 -81 1453 -78 
Q 722 -72 456 397 
Q 184 884 353 1747 
Q 534 2675 1009 3097 
Q 1544 3569 2166 3578 
z
" transform="scale(0.015625)"/>
      </defs>
      <use xlink:href="#DejaVuSans-Oblique-3b1" transform="translate(0 0.84375)"/>
     </g>
    </g>
   </g>
   <g id="matplotlib.axis_2">
    <g id="ytick_1">
     <g id="line2d_13">
      <path d="M 80.822 151.940468 
L 306.255247 151.940468 
" clip-path="url(#p8cd2e63072)" style="fill: none; stroke: #b0b0b0; stroke-width: 0.8; stroke-linecap: square"/>
     </g>
     <g id="line2d_14">
      <defs>
       <path id="m060ee852d2" d="M 0 0 
L -3.5 0 
" style="stroke: #000000; stroke-width: 0.8"/>
      </defs>
      <g>
       <use xlink:href="#m060ee852d2" x="80.822" y="151.940468" style="stroke: #000000; stroke-width: 0.8"/>
      </g>
     </g>
     <g id="text_8">
      <!-- −0.0050 -->
      <g transform="translate(30.451687 155.739686) scale(0.1 -0.1)">
       <defs>
        <path id="DejaVuSans-2e" d="M 684 794 
L 1344 794 
L 1344 0 
L 684 0 
L 684 794 
z
" transform="scale(0.015625)"/>
        <path id="DejaVuSans-35" d="M 691 4666 
L 3169 4666 
L 3169 4134 
L 1269 4134 
L 1269 2991 
Q 1406 3038 1543 3061 
Q 1681 3084 1819 3084 
Q 2600 3084 3056 2656 
Q 3513 2228 3513 1497 
Q 3513 744 3044 326 
Q 2575 -91 1722 -91 
Q 1428 -91 1123 -41 
Q 819 9 494 109 
L 494 744 
Q 775 591 1075 516 
Q 1375 441 1709 441 
Q 2250 441 2565 725 
Q 2881 1009 2881 1497 
Q 2881 1984 2565 2268 
Q 2250 2553 1709 2553 
Q 1456 2553 1204 2497 
Q 953 2441 691 2322 
L 691 4666 
z
" transform="scale(0.015625)"/>
       </defs>
       <use xlink:href="#DejaVuSans-2212"/>
       <use xlink:href="#DejaVuSans-30" x="83.789062"/>
       <use xlink:href="#DejaVuSans-2e" x="147.412109"/>
       <use xlink:href="#DejaVuSans-30" x="179.199219"/>
       <use xlink:href="#DejaVuSans-30" x="242.822266"/>
       <use xlink:href="#DejaVuSans-35" x="306.445312"/>
       <use xlink:href="#DejaVuSans-30" x="370.068359"/>
      </g>
     </g>
    </g>
    <g id="ytick_2">
     <g id="line2d_15">
      <path d="M 80.822 127.756692 
L 306.255247 127.756692 
" clip-path="url(#p8cd2e63072)" style="fill: none; stroke: #b0b0b0; stroke-width: 0.8; stroke-linecap: square"/>
     </g>
     <g id="line2d_16">
      <g>
       <use xlink:href="#m060ee852d2" x="80.822" y="127.756692" style="stroke: #000000; stroke-width: 0.8"/>
      </g>
     </g>
     <g id="text_9">
      <!-- −0.0025 -->
      <g transform="translate(30.451687 131.55591) scale(0.1 -0.1)">
       <use xlink:href="#DejaVuSans-2212"/>
       <use xlink:href="#DejaVuSans-30" x="83.789062"/>
       <use xlink:href="#DejaVuSans-2e" x="147.412109"/>
       <use xlink:href="#DejaVuSans-30" x="179.199219"/>
       <use xlink:href="#DejaVuSans-30" x="242.822266"/>
       <use xlink:href="#DejaVuSans-32" x="306.445312"/>
       <use xlink:href="#DejaVuSans-35" x="370.068359"/>
      </g>
     </g>
    </g>
    <g id="ytick_3">
     <g id="line2d_17">
      <path d="M 80.822 103.572915 
L 306.255247 103.572915 
" clip-path="url(#p8cd2e63072)" style="fill: none; stroke: #b0b0b0; stroke-width: 0.8; stroke-linecap: square"/>
     </g>
     <g id="line2d_18">
      <g>
       <use xlink:href="#m060ee852d2" x="80.822" y="103.572915" style="stroke: #000000; stroke-width: 0.8"/>
      </g>
     </g>
     <g id="text_10">
      <!-- 0.0000 -->
      <g transform="translate(38.831375 107.372134) scale(0.1 -0.1)">
       <use xlink:href="#DejaVuSans-30"/>
       <use xlink:href="#DejaVuSans-2e" x="63.623047"/>
       <use xlink:href="#DejaVuSans-30" x="95.410156"/>
       <use xlink:href="#DejaVuSans-30" x="159.033203"/>
       <use xlink:href="#DejaVuSans-30" x="222.65625"/>
       <use xlink:href="#DejaVuSans-30" x="286.279297"/>
      </g>
     </g>
    </g>
    <g id="ytick_4">
     <g id="line2d_19">
      <path d="M 80.822 79.389139 
L 306.255247 79.389139 
" clip-path="url(#p8cd2e63072)" style="fill: none; stroke: #b0b0b0; stroke-width: 0.8; stroke-linecap: square"/>
     </g>
     <g id="line2d_20">
      <g>
       <use xlink:href="#m060ee852d2" x="80.822" y="79.389139" style="stroke: #000000; stroke-width: 0.8"/>
      </g>
     </g>
     <g id="text_11">
      <!-- 0.0025 -->
      <g transform="translate(38.831375 83.188358) scale(0.1 -0.1)">
       <use xlink:href="#DejaVuSans-30"/>
       <use xlink:href="#DejaVuSans-2e" x="63.623047"/>
       <use xlink:href="#DejaVuSans-30" x="95.410156"/>
       <use xlink:href="#DejaVuSans-30" x="159.033203"/>
       <use xlink:href="#DejaVuSans-32" x="222.65625"/>
       <use xlink:href="#DejaVuSans-35" x="286.279297"/>
      </g>
     </g>
    </g>
    <g id="ytick_5">
     <g id="line2d_21">
      <path d="M 80.822 55.205363 
L 306.255247 55.205363 
" clip-path="url(#p8cd2e63072)" style="fill: none; stroke: #b0b0b0; stroke-width: 0.8; stroke-linecap: square"/>
     </g>
     <g id="line2d_22">
      <g>
       <use xlink:href="#m060ee852d2" x="80.822" y="55.205363" style="stroke: #000000; stroke-width: 0.8"/>
      </g>
     </g>
     <g id="text_12">
      <!-- 0.0050 -->
      <g transform="translate(38.831375 59.004582) scale(0.1 -0.1)">
       <use xlink:href="#DejaVuSans-30"/>
       <use xlink:href="#DejaVuSans-2e" x="63.623047"/>
       <use xlink:href="#DejaVuSans-30" x="95.410156"/>
       <use xlink:href="#DejaVuSans-30" x="159.033203"/>
       <use xlink:href="#DejaVuSans-35" x="222.65625"/>
       <use xlink:href="#DejaVuSans-30" x="286.279297"/>
      </g>
     </g>
    </g>
    <g id="ytick_6">
     <g id="line2d_23">
      <path d="M 80.822 31.021587 
L 306.255247 31.021587 
" clip-path="url(#p8cd2e63072)" style="fill: none; stroke: #b0b0b0; stroke-width: 0.8; stroke-linecap: square"/>
     </g>
     <g id="line2d_24">
      <g>
       <use xlink:href="#m060ee852d2" x="80.822" y="31.021587" style="stroke: #000000; stroke-width: 0.8"/>
      </g>
     </g>
     <g id="text_13">
      <!-- 0.0075 -->
      <g transform="translate(38.831375 34.820806) scale(0.1 -0.1)">
       <defs>
        <path id="DejaVuSans-37" d="M 525 4666 
L 3525 4666 
L 3525 4397 
L 1831 0 
L 1172 0 
L 2766 4134 
L 525 4134 
L 525 4666 
z
" transform="scale(0.015625)"/>
       </defs>
       <use xlink:href="#DejaVuSans-30"/>
       <use xlink:href="#DejaVuSans-2e" x="63.623047"/>
       <use xlink:href="#DejaVuSans-30" x="95.410156"/>
       <use xlink:href="#DejaVuSans-30" x="159.033203"/>
       <use xlink:href="#DejaVuSans-37" x="222.65625"/>
       <use xlink:href="#DejaVuSans-35" x="286.279297"/>
      </g>
     </g>
    </g>
    <g id="text_14">
     <!-- d$C_T = T / \rho n^2 D^4$ / d$\alpha$ -->
     <g transform="translate(24.351687 139.12) rotate(-90) scale(0.1 -0.1)">
      <defs>
       <path id="DejaVuSans-64" d="M 2906 2969 
L 2906 4863 
L 3481 4863 
L 3481 0 
L 2906 0 
L 2906 525 
Q 2725 213 2448 61 
Q 2172 -91 1784 -91 
Q 1150 -91 751 415 
Q 353 922 353 1747 
Q 353 2572 751 3078 
Q 1150 3584 1784 3584 
Q 2172 3584 2448 3432 
Q 2725 3281 2906 2969 
z
M 947 1747 
Q 947 1113 1208 752 
Q 1469 391 1925 391 
Q 2381 391 2643 752 
Q 2906 1113 2906 1747 
Q 2906 2381 2643 2742 
Q 2381 3103 1925 3103 
Q 1469 3103 1208 2742 
Q 947 2381 947 1747 
z
" transform="scale(0.015625)"/>
       <path id="DejaVuSans-Oblique-43" d="M 4447 4306 
L 4319 3641 
Q 4019 3944 3683 4091 
Q 3347 4238 2956 4238 
Q 2422 4238 2017 3981 
Q 1613 3725 1319 3200 
Q 1131 2863 1032 2486 
Q 934 2109 934 1728 
Q 934 1091 1264 756 
Q 1594 422 2222 422 
Q 2656 422 3056 561 
Q 3456 700 3834 978 
L 3688 231 
Q 3316 72 2936 -9 
Q 2556 -91 2175 -91 
Q 1278 -91 773 396 
Q 269 884 269 1753 
Q 269 2309 461 2846 
Q 653 3384 1013 3828 
Q 1394 4300 1883 4525 
Q 2372 4750 3022 4750 
Q 3422 4750 3780 4639 
Q 4138 4528 4447 4306 
z
" transform="scale(0.015625)"/>
       <path id="DejaVuSans-Oblique-54" d="M 378 4666 
L 4325 4666 
L 4225 4134 
L 2559 4134 
L 1759 0 
L 1125 0 
L 1925 4134 
L 275 4134 
L 378 4666 
z
" transform="scale(0.015625)"/>
       <path id="DejaVuSans-3d" d="M 678 2906 
L 4684 2906 
L 4684 2381 
L 678 2381 
L 678 2906 
z
M 678 1631 
L 4684 1631 
L 4684 1100 
L 678 1100 
L 678 1631 
z
" transform="scale(0.015625)"/>
       <path id="DejaVuSans-2f" d="M 1625 4666 
L 2156 4666 
L 531 -594 
L 0 -594 
L 1625 4666 
z
" transform="scale(0.015625)"/>
       <path id="DejaVuSans-Oblique-3c1" d="M 1203 2875 
Q 1453 3194 1981 3475 
Q 2188 3584 2756 3584 
Q 3394 3584 3694 3078 
Q 3994 2572 3834 1747 
Q 3672 922 3175 415 
Q 2678 -91 2041 -91 
Q 1656 -91 1409 63 
Q 1163 213 1044 525 
L 681 -1331 
L 103 -1331 
L 697 1716 
Q 838 2438 1203 2875 
z
M 3238 1747 
Q 3359 2381 3169 2744 
Q 2978 3103 2522 3103 
Q 2066 3103 1734 2744 
Q 1403 2381 1281 1747 
Q 1156 1113 1347 750 
Q 1538 391 1994 391 
Q 2450 391 2781 750 
Q 3113 1113 3238 1747 
z
" transform="scale(0.015625)"/>
       <path id="DejaVuSans-Oblique-6e" d="M 3566 2113 
L 3156 0 
L 2578 0 
L 2988 2091 
Q 3016 2238 3031 2350 
Q 3047 2463 3047 2528 
Q 3047 2791 2881 2937 
Q 2716 3084 2419 3084 
Q 1956 3084 1622 2776 
Q 1288 2469 1184 1941 
L 800 0 
L 225 0 
L 903 3500 
L 1478 3500 
L 1363 2950 
Q 1603 3253 1940 3418 
Q 2278 3584 2650 3584 
Q 3113 3584 3367 3334 
Q 3622 3084 3622 2631 
Q 3622 2519 3608 2391 
Q 3594 2263 3566 2113 
z
" transform="scale(0.015625)"/>
       <path id="DejaVuSans-Oblique-44" d="M 1081 4666 
L 2438 4666 
Q 3519 4666 4070 4208 
Q 4622 3750 4622 2847 
Q 4622 2250 4412 1698 
Q 4203 1147 3834 769 
Q 3463 381 2891 190 
Q 2319 0 1538 0 
L 172 0 
L 1081 4666 
z
M 1613 4147 
L 909 519 
L 1734 519 
Q 2794 519 3375 1128 
Q 3956 1738 3956 2847 
Q 3956 3519 3581 3833 
Q 3206 4147 2406 4147 
L 1613 4147 
z
" transform="scale(0.015625)"/>
       <path id="DejaVuSans-20" transform="scale(0.015625)"/>
      </defs>
      <use xlink:href="#DejaVuSans-64" transform="translate(0 0.765625)"/>
      <use xlink:href="#DejaVuSans-Oblique-43" transform="translate(63.476562 0.765625)"/>
      <use xlink:href="#DejaVuSans-Oblique-54" transform="translate(133.300781 -15.640625) scale(0.7)"/>
      <use xlink:href="#DejaVuSans-3d" transform="translate(198.276367 0.765625)"/>
      <use xlink:href="#DejaVuSans-Oblique-54" transform="translate(301.547852 0.765625)"/>
      <use xlink:href="#DejaVuSans-2f" transform="translate(362.631836 0.765625)"/>
      <use xlink:href="#DejaVuSans-Oblique-3c1" transform="translate(396.323242 0.765625)"/>
      <use xlink:href="#DejaVuSans-Oblique-6e" transform="translate(459.799805 0.765625)"/>
      <use xlink:href="#DejaVuSans-32" transform="translate(527.828607 39.046875) scale(0.7)"/>
      <use xlink:href="#DejaVuSans-Oblique-44" transform="translate(575.099115 0.765625)"/>
      <use xlink:href="#DejaVuSans-34" transform="translate(659.117839 39.046875) scale(0.7)"/>
      <use xlink:href="#DejaVuSans-20" transform="translate(706.388346 0.765625)"/>
      <use xlink:href="#DejaVuSans-2f" transform="translate(738.175456 0.765625)"/>
      <use xlink:href="#DejaVuSans-20" transform="translate(771.866862 0.765625)"/>
      <use xlink:href="#DejaVuSans-64" transform="translate(803.653971 0.765625)"/>
      <use xlink:href="#DejaVuSans-Oblique-3b1" transform="translate(867.130534 0.765625)"/>
     </g>
    </g>
   </g>
   <g id="line2d_25">
    <path d="M 91.068966 18.22 
L 93.13906 18.400227 
L 95.209154 18.583855 
L 97.279248 18.770884 
L 99.349342 18.961315 
L 101.419436 19.155146 
L 103.48953 19.352379 
L 105.559624 19.553013 
L 107.629719 19.757048 
L 109.699813 19.964484 
L 111.769907 20.175321 
L 113.840001 20.389559 
L 115.910095 20.607199 
L 117.980189 20.828239 
L 120.050283 21.052681 
L 122.120377 21.280524 
L 124.190471 21.511768 
L 126.260565 21.746413 
L 128.33066 21.984459 
L 130.400754 22.225906 
L 132.470848 22.470755 
L 134.540942 22.719004 
L 136.611036 22.970655 
L 138.68113 23.225707 
L 140.751224 23.48416 
L 142.821318 23.746014 
L 144.891412 24.011269 
L 146.961506 24.279925 
L 149.031601 24.551983 
L 151.101695 24.827441 
L 153.171789 25.106301 
L 155.241883 25.388562 
L 157.311977 25.674224 
L 159.382071 25.963287 
L 161.452165 26.255751 
L 163.522259 26.551616 
L 165.592353 26.850883 
L 167.662447 27.15355 
L 169.732542 27.459619 
L 171.802636 27.769089 
L 173.87273 28.08196 
L 175.942824 28.398232 
L 178.012918 28.717905 
L 180.083012 29.040979 
L 182.153106 29.367455 
L 184.2232 29.697332 
L 186.293294 30.030609 
L 188.363388 30.367288 
L 190.433483 30.707368 
L 192.503577 31.050849 
L 194.573671 31.397731 
L 196.643765 31.748015 
L 198.713859 32.101699 
L 200.783953 32.458785 
L 202.854047 32.819272 
L 204.924141 33.18316 
L 206.994235 33.550449 
L 209.064329 33.921139 
L 211.134424 34.29523 
L 213.204518 34.672722 
L 215.274612 35.053616 
L 217.344706 35.43791 
L 219.4148 35.825606 
L 221.484894 36.216703 
L 223.554988 36.611201 
L 225.625082 37.0091 
L 227.695176 37.4104 
L 229.76527 37.815102 
L 231.835365 38.223204 
L 233.905459 38.634708 
L 235.975553 39.049613 
L 238.045647 39.467919 
L 240.115741 39.889626 
L 242.185835 40.314734 
L 244.255929 40.743243 
L 246.326023 41.175154 
L 248.396117 41.610465 
L 250.466211 42.049178 
L 252.536306 42.491292 
L 254.6064 42.936807 
L 256.676494 43.385723 
L 258.746588 43.83804 
L 260.816682 44.293758 
L 262.886776 44.752877 
L 264.95687 45.215398 
L 267.026964 45.68132 
L 269.097058 46.150642 
L 271.167152 46.623366 
L 273.237247 47.099491 
L 275.307341 47.579018 
L 277.377435 48.061945 
L 279.447529 48.548273 
L 281.517623 49.038003 
L 283.587717 49.531134 
L 285.657811 50.027665 
L 287.727905 50.527598 
L 289.797999 51.030932 
L 291.868093 51.537668 
L 293.938188 52.047804 
L 296.008282 52.561341 
" clip-path="url(#p8cd2e63072)" style="fill: none; stroke: #000080; stroke-width: 1.5; stroke-linecap: square"/>
   </g>
   <g id="line2d_26">
    <path d="M 91.068966 41.104936 
L 93.13906 41.050063 
L 95.209154 40.998593 
L 97.279248 40.950523 
L 99.349342 40.905854 
L 101.419436 40.864586 
L 103.48953 40.82672 
L 105.559624 40.792255 
L 107.629719 40.76119 
L 109.699813 40.733527 
L 111.769907 40.709265 
L 113.840001 40.688404 
L 115.910095 40.670945 
L 117.980189 40.656886 
L 120.050283 40.646229 
L 122.120377 40.638972 
L 124.190471 40.635117 
L 126.260565 40.634663 
L 128.33066 40.63761 
L 130.400754 40.643958 
L 132.470848 40.653708 
L 134.540942 40.666858 
L 136.611036 40.68341 
L 138.68113 40.703362 
L 140.751224 40.726716 
L 142.821318 40.753471 
L 144.891412 40.783627 
L 146.961506 40.817184 
L 149.031601 40.854143 
L 151.101695 40.894502 
L 153.171789 40.938263 
L 155.241883 40.985425 
L 157.311977 41.035987 
L 159.382071 41.089951 
L 161.452165 41.147316 
L 163.522259 41.208083 
L 165.592353 41.27225 
L 167.662447 41.339818 
L 169.732542 41.410788 
L 171.802636 41.485159 
L 173.87273 41.562931 
L 175.942824 41.644104 
L 178.012918 41.728678 
L 180.083012 41.816653 
L 182.153106 41.908029 
L 184.2232 42.002807 
L 186.293294 42.100985 
L 188.363388 42.202565 
L 190.433483 42.307546 
L 192.503577 42.415928 
L 194.573671 42.527711 
L 196.643765 42.642895 
L 198.713859 42.761481 
L 200.783953 42.883467 
L 202.854047 43.008855 
L 204.924141 43.137644 
L 206.994235 43.269833 
L 209.064329 43.405424 
L 211.134424 43.544417 
L 213.204518 43.68681 
L 215.274612 43.832604 
L 217.344706 43.9818 
L 219.4148 44.134396 
L 221.484894 44.290394 
L 223.554988 44.449793 
L 225.625082 44.612593 
L 227.695176 44.778794 
L 229.76527 44.948396 
L 231.835365 45.1214 
L 233.905459 45.297804 
L 235.975553 45.47761 
L 238.045647 45.660817 
L 240.115741 45.847425 
L 242.185835 46.037434 
L 244.255929 46.230844 
L 246.326023 46.427655 
L 248.396117 46.627868 
L 250.466211 46.831481 
L 252.536306 47.038496 
L 254.6064 47.248912 
L 256.676494 47.462729 
L 258.746588 47.679947 
L 260.816682 47.900566 
L 262.886776 48.124586 
L 264.95687 48.352008 
L 267.026964 48.58283 
L 269.097058 48.817054 
L 271.167152 49.054679 
L 273.237247 49.295705 
L 275.307341 49.540132 
L 277.377435 49.78796 
L 279.447529 50.039189 
L 281.517623 50.29382 
L 283.587717 50.551851 
L 285.657811 50.813284 
L 287.727905 51.078118 
L 289.797999 51.346353 
L 291.868093 51.617989 
L 293.938188 51.893026 
L 296.008282 52.171464 
" clip-path="url(#p8cd2e63072)" style="fill: none; stroke: #0080ff; stroke-width: 1.5; stroke-linecap: square"/>
   </g>
   <g id="line2d_27">
    <path d="M 91.068966 73.466581 
L 93.13906 73.248263 
L 95.209154 73.033346 
L 97.279248 72.821831 
L 99.349342 72.613716 
L 101.419436 72.409003 
L 103.48953 72.207691 
L 105.559624 72.00978 
L 107.629719 71.81527 
L 109.699813 71.624161 
L 111.769907 71.436453 
L 113.840001 71.252147 
L 115.910095 71.071241 
L 117.980189 70.893737 
L 120.050283 70.719634 
L 122.120377 70.548932 
L 124.190471 70.381631 
L 126.260565 70.217731 
L 128.33066 70.057233 
L 130.400754 69.900135 
L 132.470848 69.746439 
L 134.540942 69.596143 
L 136.611036 69.449249 
L 138.68113 69.305756 
L 140.751224 69.165664 
L 142.821318 69.028974 
L 144.891412 68.895684 
L 146.961506 68.765796 
L 149.031601 68.639308 
L 151.101695 68.516222 
L 153.171789 68.396537 
L 155.241883 68.280253 
L 157.311977 68.16737 
L 159.382071 68.057888 
L 161.452165 67.951808 
L 163.522259 67.849128 
L 165.592353 67.74985 
L 167.662447 67.653972 
L 169.732542 67.561496 
L 171.802636 67.472421 
L 173.87273 67.386747 
L 175.942824 67.304475 
L 178.012918 67.225603 
L 180.083012 67.150133 
L 182.153106 67.078063 
L 184.2232 67.009395 
L 186.293294 66.944128 
L 188.363388 66.882262 
L 190.433483 66.823797 
L 192.503577 66.768733 
L 194.573671 66.717071 
L 196.643765 66.668809 
L 198.713859 66.623949 
L 200.783953 66.58249 
L 202.854047 66.544432 
L 204.924141 66.509775 
L 206.994235 66.478519 
L 209.064329 66.450664 
L 211.134424 66.426211 
L 213.204518 66.405158 
L 215.274612 66.387507 
L 217.344706 66.373257 
L 219.4148 66.362408 
L 221.484894 66.35496 
L 223.554988 66.350913 
L 225.625082 66.350267 
L 227.695176 66.353023 
L 229.76527 66.359179 
L 231.835365 66.368737 
L 233.905459 66.381696 
L 235.975553 66.398056 
L 238.045647 66.417817 
L 240.115741 66.440979 
L 242.185835 66.467542 
L 244.255929 66.497507 
L 246.326023 66.530872 
L 248.396117 66.567639 
L 250.466211 66.607807 
L 252.536306 66.651376 
L 254.6064 66.698346 
L 256.676494 66.748717 
L 258.746588 66.802489 
L 260.816682 66.859663 
L 262.886776 66.920238 
L 264.95687 66.984213 
L 267.026964 67.05159 
L 269.097058 67.122368 
L 271.167152 67.196547 
L 273.237247 67.274127 
L 275.307341 67.355109 
L 277.377435 67.439491 
L 279.447529 67.527275 
L 281.517623 67.61846 
L 283.587717 67.713045 
L 285.657811 67.811032 
L 287.727905 67.912421 
L 289.797999 68.01721 
L 291.868093 68.1254 
L 293.938188 68.236992 
L 296.008282 68.351984 
" clip-path="url(#p8cd2e63072)" style="fill: none; stroke: #7dff7a; stroke-width: 1.5; stroke-linecap: square"/>
   </g>
   <g id="line2d_28">
    <path d="M 91.068966 115.304936 
L 93.13906 114.994825 
L 95.209154 114.688116 
L 97.279248 114.384809 
L 99.349342 114.084902 
L 101.419436 113.788396 
L 103.48953 113.495292 
L 105.559624 113.205589 
L 107.629719 112.919286 
L 109.699813 112.636385 
L 111.769907 112.356885 
L 113.840001 112.080786 
L 115.910095 111.808089 
L 117.980189 111.538792 
L 120.050283 111.272897 
L 122.120377 111.010402 
L 124.190471 110.751309 
L 126.260565 110.495617 
L 128.33066 110.243326 
L 130.400754 109.994436 
L 132.470848 109.748948 
L 134.540942 109.50686 
L 136.611036 109.268174 
L 138.68113 109.032888 
L 140.751224 108.801004 
L 142.821318 108.572521 
L 144.891412 108.347439 
L 146.961506 108.125758 
L 149.031601 107.907479 
L 151.101695 107.6926 
L 153.171789 107.481123 
L 155.241883 107.273046 
L 157.311977 107.068371 
L 159.382071 106.867097 
L 161.452165 106.669224 
L 163.522259 106.474752 
L 165.592353 106.283682 
L 167.662447 106.096012 
L 169.732542 105.911744 
L 171.802636 105.730877 
L 173.87273 105.55341 
L 175.942824 105.379345 
L 178.012918 105.208681 
L 180.083012 105.041419 
L 182.153106 104.877557 
L 184.2232 104.717096 
L 186.293294 104.560037 
L 188.363388 104.406379 
L 190.433483 104.256122 
L 192.503577 104.109266 
L 194.573671 103.965811 
L 196.643765 103.825757 
L 198.713859 103.689104 
L 200.783953 103.555853 
L 202.854047 103.426003 
L 204.924141 103.299553 
L 206.994235 103.176505 
L 209.064329 103.056858 
L 211.134424 102.940612 
L 213.204518 102.827768 
L 215.274612 102.718324 
L 217.344706 102.612281 
L 219.4148 102.50964 
L 221.484894 102.4104 
L 223.554988 102.314561 
L 225.625082 102.222123 
L 227.695176 102.133086 
L 229.76527 102.04745 
L 231.835365 101.965216 
L 233.905459 101.886382 
L 235.975553 101.81095 
L 238.045647 101.738918 
L 240.115741 101.670288 
L 242.185835 101.605059 
L 244.255929 101.543232 
L 246.326023 101.484805 
L 248.396117 101.429779 
L 250.466211 101.378155 
L 252.536306 101.329931 
L 254.6064 101.285109 
L 256.676494 101.243688 
L 258.746588 101.205668 
L 260.816682 101.171049 
L 262.886776 101.139832 
L 264.95687 101.112015 
L 267.026964 101.0876 
L 269.097058 101.066585 
L 271.167152 101.048972 
L 273.237247 101.03476 
L 275.307341 101.023949 
L 277.377435 101.016539 
L 279.447529 101.012531 
L 281.517623 101.011923 
L 283.587717 101.014717 
L 285.657811 101.020911 
L 287.727905 101.030507 
L 289.797999 101.043504 
L 291.868093 101.059902 
L 293.938188 101.079701 
L 296.008282 101.102902 
" clip-path="url(#p8cd2e63072)" style="fill: none; stroke: #ff9400; stroke-width: 1.5; stroke-linecap: square"/>
   </g>
   <g id="line2d_29">
    <path d="M 91.068966 166.62 
L 93.13906 166.289751 
L 95.209154 165.962903 
L 97.279248 165.639456 
L 99.349342 165.319411 
L 101.419436 165.002766 
L 103.48953 164.689523 
L 105.559624 164.379681 
L 107.629719 164.07324 
L 109.699813 163.7702 
L 111.769907 163.470561 
L 113.840001 163.174323 
L 115.910095 162.881486 
L 117.980189 162.592051 
L 120.050283 162.306017 
L 122.120377 162.023383 
L 124.190471 161.744151 
L 126.260565 161.46832 
L 128.33066 161.195891 
L 130.400754 160.926862 
L 132.470848 160.661234 
L 134.540942 160.399008 
L 136.611036 160.140183 
L 138.68113 159.884758 
L 140.751224 159.632735 
L 142.821318 159.384113 
L 144.891412 159.138892 
L 146.961506 158.897073 
L 149.031601 158.658654 
L 151.101695 158.423637 
L 153.171789 158.19202 
L 155.241883 157.963805 
L 157.311977 157.738991 
L 159.382071 157.517578 
L 161.452165 157.299567 
L 163.522259 157.084956 
L 165.592353 156.873746 
L 167.662447 156.665938 
L 169.732542 156.461531 
L 171.802636 156.260524 
L 173.87273 156.062919 
L 175.942824 155.868715 
L 178.012918 155.677913 
L 180.083012 155.490511 
L 182.153106 155.30651 
L 184.2232 155.125911 
L 186.293294 154.948713 
L 188.363388 154.774916 
L 190.433483 154.60452 
L 192.503577 154.437525 
L 194.573671 154.273931 
L 196.643765 154.113738 
L 198.713859 153.956947 
L 200.783953 153.803556 
L 202.854047 153.653567 
L 204.924141 153.506979 
L 206.994235 153.363792 
L 209.064329 153.224006 
L 211.134424 153.087621 
L 213.204518 152.954638 
L 215.274612 152.825055 
L 217.344706 152.698874 
L 219.4148 152.576094 
L 221.484894 152.456714 
L 223.554988 152.340736 
L 225.625082 152.22816 
L 227.695176 152.118984 
L 229.76527 152.013209 
L 231.835365 151.910836 
L 233.905459 151.811863 
L 235.975553 151.716292 
L 238.045647 151.624122 
L 240.115741 151.535353 
L 242.185835 151.449985 
L 244.255929 151.368018 
L 246.326023 151.289453 
L 248.396117 151.214288 
L 250.466211 151.142525 
L 252.536306 151.074163 
L 254.6064 151.009202 
L 256.676494 150.947642 
L 258.746588 150.889483 
L 260.816682 150.834725 
L 262.886776 150.783369 
L 264.95687 150.735413 
L 267.026964 150.690859 
L 269.097058 150.649706 
L 271.167152 150.611953 
L 273.237247 150.577603 
L 275.307341 150.546653 
L 277.377435 150.519104 
L 279.447529 150.494956 
L 281.517623 150.47421 
L 283.587717 150.456865 
L 285.657811 150.44292 
L 287.727905 150.432377 
L 289.797999 150.425235 
L 291.868093 150.421495 
L 293.938188 150.421155 
L 296.008282 150.424216 
" clip-path="url(#p8cd2e63072)" style="fill: none; stroke: #800000; stroke-width: 1.5; stroke-linecap: square"/>
   </g>
   <g id="patch_3">
    <path d="M 80.822 174.04 
L 80.822 10.8 
" style="fill: none; stroke: #000000; stroke-width: 0.8; stroke-linejoin: miter; stroke-linecap: square"/>
   </g>
   <g id="patch_4">
    <path d="M 306.255247 174.04 
L 306.255247 10.8 
" style="fill: none; stroke: #000000; stroke-width: 0.8; stroke-linejoin: miter; stroke-linecap: square"/>
   </g>
   <g id="patch_5">
    <path d="M 80.822 174.04 
L 306.255247 174.04 
" style="fill: none; stroke: #000000; stroke-width: 0.8; stroke-linejoin: miter; stroke-linecap: square"/>
   </g>
   <g id="patch_6">
    <path d="M 80.822 10.8 
L 306.255247 10.8 
" style="fill: none; stroke: #000000; stroke-width: 0.8; stroke-linejoin: miter; stroke-linecap: square"/>
   </g>
   <g id="legend_1">
    <g id="patch_7">
     <path d="M 315.255247 162.878 
L 420.455247 162.878 
Q 422.455247 162.878 422.455247 160.878 
L 422.455247 88.385812 
Q 422.455247 86.385812 420.455247 86.385812 
L 315.255247 86.385812 
Q 313.255247 86.385812 313.255247 88.385812 
L 313.255247 160.878 
Q 313.255247 162.878 315.255247 162.878 
z
" style="fill: #4d4d4d; opacity: 0.5; stroke: #4d4d4d; stroke-linejoin: miter"/>
    </g>
    <g id="patch_8">
     <path d="M 313.255247 160.878 
L 418.455247 160.878 
Q 420.455247 160.878 420.455247 158.878 
L 420.455247 86.385812 
Q 420.455247 84.385812 418.455247 84.385812 
L 313.255247 84.385812 
Q 311.255247 84.385812 311.255247 86.385812 
L 311.255247 158.878 
Q 311.255247 160.878 313.255247 160.878 
z
" style="fill: #ffffff; stroke: #cccccc; stroke-linejoin: miter"/>
    </g>
    <g id="line2d_30">
     <path d="M 315.255247 92.48425 
L 325.255247 92.48425 
L 335.255247 92.48425 
" style="fill: none; stroke: #000080; stroke-width: 1.5; stroke-linecap: square"/>
    </g>
    <g id="text_15">
     <!-- $\delta_e = 0$, $J = 1.60$ -->
     <g transform="translate(343.255247 95.98425) scale(0.1 -0.1)">
      <defs>
       <path id="DejaVuSans-Oblique-3b4" d="M 3472 4053 
Q 3197 4272 2450 4272 
Q 1659 4272 1588 3906 
Q 1531 3619 2328 3469 
Q 2953 3353 3253 3003 
Q 3616 2581 3447 1716 
Q 3284 888 2763 400 
Q 2238 -91 1488 -91 
Q 741 -91 406 400 
Q 72 888 241 1747 
Q 363 2384 891 2900 
Q 1097 3100 1353 3213 
Q 913 3459 1000 3900 
Q 1166 4750 2544 4750 
Q 3234 4750 3566 4531 
L 3472 4053 
z
M 1753 3056 
Q 1525 2966 1306 2738 
Q 969 2384 847 1747 
Q 722 1113 919 756 
Q 1119 397 1584 397 
Q 2044 397 2381 759 
Q 2722 1122 2838 1716 
Q 2956 2338 2731 2638 
Q 2491 2959 2103 2994 
Q 1906 3013 1753 3056 
z
" transform="scale(0.015625)"/>
       <path id="DejaVuSans-Oblique-65" d="M 3078 2063 
Q 3088 2113 3092 2166 
Q 3097 2219 3097 2272 
Q 3097 2653 2873 2875 
Q 2650 3097 2266 3097 
Q 1838 3097 1509 2826 
Q 1181 2556 1013 2059 
L 3078 2063 
z
M 3578 1613 
L 903 1613 
Q 884 1494 878 1425 
Q 872 1356 872 1306 
Q 872 872 1139 634 
Q 1406 397 1894 397 
Q 2269 397 2603 481 
Q 2938 566 3225 728 
L 3116 159 
Q 2806 34 2476 -28 
Q 2147 -91 1806 -91 
Q 1078 -91 686 257 
Q 294 606 294 1247 
Q 294 1794 489 2264 
Q 684 2734 1063 3103 
Q 1306 3334 1642 3459 
Q 1978 3584 2356 3584 
Q 2950 3584 3301 3228 
Q 3653 2872 3653 2272 
Q 3653 2128 3634 1964 
Q 3616 1800 3578 1613 
z
" transform="scale(0.015625)"/>
       <path id="DejaVuSans-2c" d="M 750 794 
L 1409 794 
L 1409 256 
L 897 -744 
L 494 -744 
L 750 256 
L 750 794 
z
" transform="scale(0.015625)"/>
       <path id="DejaVuSans-Oblique-4a" d="M 1069 4666 
L 1703 4666 
L 856 325 
Q 691 -522 298 -901 
Q -94 -1281 -800 -1281 
L -1050 -1281 
L -947 -750 
L -750 -750 
Q -328 -750 -109 -509 
Q 109 -269 225 325 
L 1069 4666 
z
" transform="scale(0.015625)"/>
       <path id="DejaVuSans-31" d="M 794 531 
L 1825 531 
L 1825 4091 
L 703 3866 
L 703 4441 
L 1819 4666 
L 2450 4666 
L 2450 531 
L 3481 531 
L 3481 0 
L 794 0 
L 794 531 
z
" transform="scale(0.015625)"/>
      </defs>
      <use xlink:href="#DejaVuSans-Oblique-3b4" transform="translate(0 0.78125)"/>
      <use xlink:href="#DejaVuSans-Oblique-65" transform="translate(61.181641 -15.625) scale(0.7)"/>
      <use xlink:href="#DejaVuSans-3d" transform="translate(126.464844 0.78125)"/>
      <use xlink:href="#DejaVuSans-30" transform="translate(229.736328 0.78125)"/>
      <use xlink:href="#DejaVuSans-2c" transform="translate(293.359375 0.78125)"/>
      <use xlink:href="#DejaVuSans-20" transform="translate(325.146484 0.78125)"/>
      <use xlink:href="#DejaVuSans-Oblique-4a" transform="translate(356.933594 0.78125)"/>
      <use xlink:href="#DejaVuSans-3d" transform="translate(405.908203 0.78125)"/>
      <use xlink:href="#DejaVuSans-31" transform="translate(509.179688 0.78125)"/>
      <use xlink:href="#DejaVuSans-2e" transform="translate(572.802734 0.78125)"/>
      <use xlink:href="#DejaVuSans-36" transform="translate(604.589844 0.78125)"/>
      <use xlink:href="#DejaVuSans-30" transform="translate(668.212891 0.78125)"/>
     </g>
    </g>
    <g id="line2d_31">
     <path d="M 315.255247 107.182688 
L 325.255247 107.182688 
L 335.255247 107.182688 
" style="fill: none; stroke: #0080ff; stroke-width: 1.5; stroke-linecap: square"/>
    </g>
    <g id="text_16">
     <!-- $\delta_e = 0$, $J = 1.80$ -->
     <g transform="translate(343.255247 110.682688) scale(0.1 -0.1)">
      <defs>
       <path id="DejaVuSans-38" d="M 2034 2216 
Q 1584 2216 1326 1975 
Q 1069 1734 1069 1313 
Q 1069 891 1326 650 
Q 1584 409 2034 409 
Q 2484 409 2743 651 
Q 3003 894 3003 1313 
Q 3003 1734 2745 1975 
Q 2488 2216 2034 2216 
z
M 1403 2484 
Q 997 2584 770 2862 
Q 544 3141 544 3541 
Q 544 4100 942 4425 
Q 1341 4750 2034 4750 
Q 2731 4750 3128 4425 
Q 3525 4100 3525 3541 
Q 3525 3141 3298 2862 
Q 3072 2584 2669 2484 
Q 3125 2378 3379 2068 
Q 3634 1759 3634 1313 
Q 3634 634 3220 271 
Q 2806 -91 2034 -91 
Q 1263 -91 848 271 
Q 434 634 434 1313 
Q 434 1759 690 2068 
Q 947 2378 1403 2484 
z
M 1172 3481 
Q 1172 3119 1398 2916 
Q 1625 2713 2034 2713 
Q 2441 2713 2670 2916 
Q 2900 3119 2900 3481 
Q 2900 3844 2670 4047 
Q 2441 4250 2034 4250 
Q 1625 4250 1398 4047 
Q 1172 3844 1172 3481 
z
" transform="scale(0.015625)"/>
      </defs>
      <use xlink:href="#DejaVuSans-Oblique-3b4" transform="translate(0 0.78125)"/>
      <use xlink:href="#DejaVuSans-Oblique-65" transform="translate(61.181641 -15.625) scale(0.7)"/>
      <use xlink:href="#DejaVuSans-3d" transform="translate(126.464844 0.78125)"/>
      <use xlink:href="#DejaVuSans-30" transform="translate(229.736328 0.78125)"/>
      <use xlink:href="#DejaVuSans-2c" transform="translate(293.359375 0.78125)"/>
      <use xlink:href="#DejaVuSans-20" transform="translate(325.146484 0.78125)"/>
      <use xlink:href="#DejaVuSans-Oblique-4a" transform="translate(356.933594 0.78125)"/>
      <use xlink:href="#DejaVuSans-3d" transform="translate(405.908203 0.78125)"/>
      <use xlink:href="#DejaVuSans-31" transform="translate(509.179688 0.78125)"/>
      <use xlink:href="#DejaVuSans-2e" transform="translate(572.802734 0.78125)"/>
      <use xlink:href="#DejaVuSans-38" transform="translate(601.964844 0.78125)"/>
      <use xlink:href="#DejaVuSans-30" transform="translate(665.587891 0.78125)"/>
     </g>
    </g>
    <g id="line2d_32">
     <path d="M 315.255247 121.881125 
L 325.255247 121.881125 
L 335.255247 121.881125 
" style="fill: none; stroke: #7dff7a; stroke-width: 1.5; stroke-linecap: square"/>
    </g>
    <g id="text_17">
     <!-- $\delta_e = 0$, $J = 2.00$ -->
     <g transform="translate(343.255247 125.381125) scale(0.1 -0.1)">
      <use xlink:href="#DejaVuSans-Oblique-3b4" transform="translate(0 0.78125)"/>
      <use xlink:href="#DejaVuSans-Oblique-65" transform="translate(61.181641 -15.625) scale(0.7)"/>
      <use xlink:href="#DejaVuSans-3d" transform="translate(126.464844 0.78125)"/>
      <use xlink:href="#DejaVuSans-30" transform="translate(229.736328 0.78125)"/>
      <use xlink:href="#DejaVuSans-2c" transform="translate(293.359375 0.78125)"/>
      <use xlink:href="#DejaVuSans-20" transform="translate(325.146484 0.78125)"/>
      <use xlink:href="#DejaVuSans-Oblique-4a" transform="translate(356.933594 0.78125)"/>
      <use xlink:href="#DejaVuSans-3d" transform="translate(405.908203 0.78125)"/>
      <use xlink:href="#DejaVuSans-32" transform="translate(509.179688 0.78125)"/>
      <use xlink:href="#DejaVuSans-2e" transform="translate(572.802734 0.78125)"/>
      <use xlink:href="#DejaVuSans-30" transform="translate(604.589844 0.78125)"/>
      <use xlink:href="#DejaVuSans-30" transform="translate(668.212891 0.78125)"/>
     </g>
    </g>
    <g id="line2d_33">
     <path d="M 315.255247 136.579563 
L 325.255247 136.579563 
L 335.255247 136.579563 
" style="fill: none; stroke: #ff9400; stroke-width: 1.5; stroke-linecap: square"/>
    </g>
    <g id="text_18">
     <!-- $\delta_e = 0$, $J = 2.20$ -->
     <g transform="translate(343.255247 140.079563) scale(0.1 -0.1)">
      <use xlink:href="#DejaVuSans-Oblique-3b4" transform="translate(0 0.78125)"/>
      <use xlink:href="#DejaVuSans-Oblique-65" transform="translate(61.181641 -15.625) scale(0.7)"/>
      <use xlink:href="#DejaVuSans-3d" transform="translate(126.464844 0.78125)"/>
      <use xlink:href="#DejaVuSans-30" transform="translate(229.736328 0.78125)"/>
      <use xlink:href="#DejaVuSans-2c" transform="translate(293.359375 0.78125)"/>
      <use xlink:href="#DejaVuSans-20" transform="translate(325.146484 0.78125)"/>
      <use xlink:href="#DejaVuSans-Oblique-4a" transform="translate(356.933594 0.78125)"/>
      <use xlink:href="#DejaVuSans-3d" transform="translate(405.908203 0.78125)"/>
      <use xlink:href="#DejaVuSans-32" transform="translate(509.179688 0.78125)"/>
      <use xlink:href="#DejaVuSans-2e" transform="translate(572.802734 0.78125)"/>
      <use xlink:href="#DejaVuSans-32" transform="translate(599.089844 0.78125)"/>
      <use xlink:href="#DejaVuSans-30" transform="translate(662.712891 0.78125)"/>
     </g>
    </g>
    <g id="line2d_34">
     <path d="M 315.255247 151.278 
L 325.255247 151.278 
L 335.255247 151.278 
" style="fill: none; stroke: #800000; stroke-width: 1.5; stroke-linecap: square"/>
    </g>
    <g id="text_19">
     <!-- $\delta_e = 0$, $J = 2.40$ -->
     <g transform="translate(343.255247 154.778) scale(0.1 -0.1)">
      <use xlink:href="#DejaVuSans-Oblique-3b4" transform="translate(0 0.78125)"/>
      <use xlink:href="#DejaVuSans-Oblique-65" transform="translate(61.181641 -15.625) scale(0.7)"/>
      <use xlink:href="#DejaVuSans-3d" transform="translate(126.464844 0.78125)"/>
      <use xlink:href="#DejaVuSans-30" transform="translate(229.736328 0.78125)"/>
      <use xlink:href="#DejaVuSans-2c" transform="translate(293.359375 0.78125)"/>
      <use xlink:href="#DejaVuSans-20" transform="translate(325.146484 0.78125)"/>
      <use xlink:href="#DejaVuSans-Oblique-4a" transform="translate(356.933594 0.78125)"/>
      <use xlink:href="#DejaVuSans-3d" transform="translate(405.908203 0.78125)"/>
      <use xlink:href="#DejaVuSans-32" transform="translate(509.179688 0.78125)"/>
      <use xlink:href="#DejaVuSans-2e" transform="translate(572.802734 0.78125)"/>
      <use xlink:href="#DejaVuSans-34" transform="translate(604.589844 0.78125)"/>
      <use xlink:href="#DejaVuSans-30" transform="translate(668.212891 0.78125)"/>
     </g>
    </g>
   </g>
  </g>
 </g>
 <defs>
  <clipPath id="p8cd2e63072">
   <rect x="80.822" y="10.8" width="225.433247" height="163.24"/>
  </clipPath>
 </defs>
</svg>
