<?xml version="1.0" encoding="utf-8" standalone="no"?>
<!DOCTYPE svg PUBLIC "-//W3C//DTD SVG 1.1//EN"
  "http://www.w3.org/Graphics/SVG/1.1/DTD/svg11.dtd">
<svg xmlns:xlink="http://www.w3.org/1999/xlink" width="432pt" height="216pt" viewBox="0 0 432 216" xmlns="http://www.w3.org/2000/svg" version="1.1">
 <metadata>
  <rdf:RDF xmlns:dc="http://purl.org/dc/elements/1.1/" xmlns:cc="http://creativecommons.org/ns#" xmlns:rdf="http://www.w3.org/1999/02/22-rdf-syntax-ns#">
   <cc:Work>
    <dc:type rdf:resource="http://purl.org/dc/dcmitype/StillImage"/>
    <dc:date>2025-03-31T11:57:50.954148</dc:date>
    <dc:format>image/svg+xml</dc:format>
    <dc:creator>
     <cc:Agent>
      <dc:title>Matplotlib v3.9.2, https://matplotlib.org/</dc:title>
     </cc:Agent>
    </dc:creator>
   </cc:Work>
  </rdf:RDF>
 </metadata>
 <defs>
  <style type="text/css">*{stroke-linejoin: round; stroke-linecap: butt}</style>
 </defs>
 <g id="figure_1">
  <g id="patch_1">
   <path d="M 0 216 
L 432 216 
L 432 0 
L 0 0 
z
" style="fill: #ffffff"/>
  </g>
  <g id="axes_1">
   <g id="patch_2">
    <path d="M 74.432 168.568 
L 288.833656 168.568 
L 288.833656 28.876 
L 74.432 28.876 
z
" style="fill: #ffffff"/>
   </g>
   <g id="PathCollection_1">
    <defs>
     <path id="me1fba2a1ce" d="M -3 3 
L 3 -3 
M -3 -3 
L 3 3 
" style="stroke: #000080; stroke-width: 1.5"/>
    </defs>
    <g clip-path="url(#p14aaa3d88d)">
     <use xlink:href="#me1fba2a1ce" x="114.590616" y="43.449908" style="fill: #000080; stroke: #000080; stroke-width: 1.5"/>
     <use xlink:href="#me1fba2a1ce" x="89.139997" y="35.272752" style="fill: #000080; stroke: #000080; stroke-width: 1.5"/>
     <use xlink:href="#me1fba2a1ce" x="256.736691" y="60.637896" style="fill: #000080; stroke: #000080; stroke-width: 1.5"/>
     <use xlink:href="#me1fba2a1ce" x="148.167275" y="50.407842" style="fill: #000080; stroke: #000080; stroke-width: 1.5"/>
     <use xlink:href="#me1fba2a1ce" x="193.997124" y="56.123405" style="fill: #000080; stroke: #000080; stroke-width: 1.5"/>
     <use xlink:href="#me1fba2a1ce" x="254.861645" y="60.614258" style="fill: #000080; stroke: #000080; stroke-width: 1.5"/>
     <use xlink:href="#me1fba2a1ce" x="254.776733" y="60.614258" style="fill: #000080; stroke: #000080; stroke-width: 1.5"/>
    </g>
   </g>
   <g id="PathCollection_2">
    <defs>
     <path id="m372c45757a" d="M -3 0 
L 3 0 
M 0 3 
L 0 -3 
" style="stroke: #0000ff; stroke-width: 1.5"/>
    </defs>
    <g clip-path="url(#p14aaa3d88d)">
     <use xlink:href="#m372c45757a" x="164.885258" y="50.424234" style="fill: #0000ff; stroke: #0000ff; stroke-width: 1.5"/>
     <use xlink:href="#m372c45757a" x="210.119822" y="56.169344" style="fill: #0000ff; stroke: #0000ff; stroke-width: 1.5"/>
     <use xlink:href="#m372c45757a" x="131.830905" y="43.517303" style="fill: #0000ff; stroke: #0000ff; stroke-width: 1.5"/>
     <use xlink:href="#m372c45757a" x="106.41188" y="35.327049" style="fill: #0000ff; stroke: #0000ff; stroke-width: 1.5"/>
    </g>
   </g>
   <g id="PathCollection_3">
    <defs>
     <path id="m9aee676a9e" d="M -3 3 
L 3 -3 
M -3 -3 
L 3 3 
" style="stroke: #0060ff; stroke-width: 1.5"/>
    </defs>
    <g clip-path="url(#p14aaa3d88d)">
     <use xlink:href="#m9aee676a9e" x="262.249244" y="74.011806" style="fill: #0060ff; stroke: #0060ff; stroke-width: 1.5"/>
    </g>
   </g>
   <g id="PathCollection_4">
    <defs>
     <path id="m7313866b59" d="M -3 0 
L 3 0 
M 0 3 
L 0 -3 
" style="stroke: #00d4ff; stroke-width: 1.5"/>
    </defs>
    <g clip-path="url(#p14aaa3d88d)">
     <use xlink:href="#m7313866b59" x="127.504763" y="71.848102" style="fill: #00d4ff; stroke: #00d4ff; stroke-width: 1.5"/>
     <use xlink:href="#m7313866b59" x="268.800122" y="73.99086" style="fill: #00d4ff; stroke: #00d4ff; stroke-width: 1.5"/>
     <use xlink:href="#m7313866b59" x="142.26492" y="73.040268" style="fill: #00d4ff; stroke: #00d4ff; stroke-width: 1.5"/>
    </g>
   </g>
   <g id="PathCollection_5">
    <defs>
     <path id="maf36fb76ae" d="M -3 3 
L 3 -3 
M -3 -3 
L 3 3 
" style="stroke: #4dffaa; stroke-width: 1.5"/>
    </defs>
    <g clip-path="url(#p14aaa3d88d)">
     <use xlink:href="#maf36fb76ae" x="104.609807" y="96.94956" style="fill: #4dffaa; stroke: #4dffaa; stroke-width: 1.5"/>
     <use xlink:href="#maf36fb76ae" x="144.617949" y="93.184472" style="fill: #4dffaa; stroke: #4dffaa; stroke-width: 1.5"/>
    </g>
   </g>
   <g id="PathCollection_6">
    <defs>
     <path id="m6f3a068c85" d="M -3 0 
L 3 0 
M 0 3 
L 0 -3 
" style="stroke: #aaff4d; stroke-width: 1.5"/>
    </defs>
    <g clip-path="url(#p14aaa3d88d)">
     <use xlink:href="#m6f3a068c85" x="176.610441" y="89.983399" style="fill: #aaff4d; stroke: #aaff4d; stroke-width: 1.5"/>
     <use xlink:href="#m6f3a068c85" x="96.347503" y="96.811091" style="fill: #aaff4d; stroke: #aaff4d; stroke-width: 1.5"/>
    </g>
   </g>
   <g id="PathCollection_7">
    <defs>
     <path id="mf476910d29" d="M -3 3 
L 3 -3 
M -3 -3 
L 3 3 
" style="stroke: #ffe600; stroke-width: 1.5"/>
    </defs>
    <g clip-path="url(#p14aaa3d88d)">
     <use xlink:href="#mf476910d29" x="213.620031" y="101.990718" style="fill: #ffe600; stroke: #ffe600; stroke-width: 1.5"/>
    </g>
   </g>
   <g id="PathCollection_8">
    <defs>
     <path id="maac9bc8a88" d="M -3 0 
L 3 0 
M 0 3 
L 0 -3 
" style="stroke: #ff7a00; stroke-width: 1.5"/>
    </defs>
    <g clip-path="url(#p14aaa3d88d)">
     <use xlink:href="#maac9bc8a88" x="230.322662" y="98.026964" style="fill: #ff7a00; stroke: #ff7a00; stroke-width: 1.5"/>
    </g>
   </g>
   <g id="PathCollection_9">
    <defs>
     <path id="m52bb643c68" d="M -3 3 
L 3 -3 
M -3 -3 
L 3 3 
" style="stroke: #ff1300; stroke-width: 1.5"/>
    </defs>
    <g clip-path="url(#p14aaa3d88d)">
     <use xlink:href="#m52bb643c68" x="195.319756" y="117.985514" style="fill: #ff1300; stroke: #ff1300; stroke-width: 1.5"/>
     <use xlink:href="#m52bb643c68" x="278.872833" y="101.748739" style="fill: #ff1300; stroke: #ff1300; stroke-width: 1.5"/>
     <use xlink:href="#m52bb643c68" x="157.597244" y="133.087918" style="fill: #ff1300; stroke: #ff1300; stroke-width: 1.5"/>
     <use xlink:href="#m52bb643c68" x="117.219319" y="162.134081" style="fill: #ff1300; stroke: #ff1300; stroke-width: 1.5"/>
     <use xlink:href="#m52bb643c68" x="279.029507" y="101.762508" style="fill: #ff1300; stroke: #ff1300; stroke-width: 1.5"/>
     <use xlink:href="#m52bb643c68" x="279.088126" y="101.762508" style="fill: #ff1300; stroke: #ff1300; stroke-width: 1.5"/>
    </g>
   </g>
   <g id="PathCollection_10">
    <defs>
     <path id="me94cfb6b9b" d="M -3 0 
L 3 0 
M 0 3 
L 0 -3 
" style="stroke: #800000; stroke-width: 1.5"/>
    </defs>
    <g clip-path="url(#p14aaa3d88d)">
     <use xlink:href="#me94cfb6b9b" x="150.536568" y="125.136449" style="fill: #800000; stroke: #800000; stroke-width: 1.5"/>
     <use xlink:href="#me94cfb6b9b" x="172.190012" y="117.989852" style="fill: #800000; stroke: #800000; stroke-width: 1.5"/>
     <use xlink:href="#me94cfb6b9b" x="260.51918" y="101.748739" style="fill: #800000; stroke: #800000; stroke-width: 1.5"/>
    </g>
   </g>
   <g id="matplotlib.axis_1">
    <g id="xtick_1">
     <g id="line2d_1">
      <path d="M 95.842255 168.568 
L 95.842255 28.876 
" clip-path="url(#p14aaa3d88d)" style="fill: none; stroke: #b0b0b0; stroke-width: 0.8; stroke-linecap: square"/>
     </g>
     <g id="line2d_2">
      <defs>
       <path id="maa5cf9c3b8" d="M 0 0 
L 0 3.5 
" style="stroke: #000000; stroke-width: 0.8"/>
      </defs>
      <g>
       <use xlink:href="#maa5cf9c3b8" x="95.842255" y="168.568" style="stroke: #000000; stroke-width: 0.8"/>
      </g>
     </g>
     <g id="text_1">
      <!-- −0.05 -->
      <g transform="translate(80.519599 183.166437) scale(0.1 -0.1)">
       <defs>
        <path id="DejaVuSans-2212" d="M 678 2272 
L 4684 2272 
L 4684 1741 
L 678 1741 
L 678 2272 
z
" transform="scale(0.015625)"/>
        <path id="DejaVuSans-30" d="M 2034 4250 
Q 1547 4250 1301 3770 
Q 1056 3291 1056 2328 
Q 1056 1369 1301 889 
Q 1547 409 2034 409 
Q 2525 409 2770 889 
Q 3016 1369 3016 2328 
Q 3016 3291 2770 3770 
Q 2525 4250 2034 4250 
z
M 2034 4750 
Q 2819 4750 3233 4129 
Q 3647 3509 3647 2328 
Q 3647 1150 3233 529 
Q 2819 -91 2034 -91 
Q 1250 -91 836 529 
Q 422 1150 422 2328 
Q 422 3509 836 4129 
Q 1250 4750 2034 4750 
z
" transform="scale(0.015625)"/>
        <path id="DejaVuSans-2e" d="M 684 794 
L 1344 794 
L 1344 0 
L 684 0 
L 684 794 
z
" transform="scale(0.015625)"/>
        <path id="DejaVuSans-35" d="M 691 4666 
L 3169 4666 
L 3169 4134 
L 1269 4134 
L 1269 2991 
Q 1406 3038 1543 3061 
Q 1681 3084 1819 3084 
Q 2600 3084 3056 2656 
Q 3513 2228 3513 1497 
Q 3513 744 3044 326 
Q 2575 -91 1722 -91 
Q 1428 -91 1123 -41 
Q 819 9 494 109 
L 494 744 
Q 775 591 1075 516 
Q 1375 441 1709 441 
Q 2250 441 2565 725 
Q 2881 1009 2881 1497 
Q 2881 1984 2565 2268 
Q 2250 2553 1709 2553 
Q 1456 2553 1204 2497 
Q 953 2441 691 2322 
L 691 4666 
z
" transform="scale(0.015625)"/>
       </defs>
       <use xlink:href="#DejaVuSans-2212"/>
       <use xlink:href="#DejaVuSans-30" x="83.789062"/>
       <use xlink:href="#DejaVuSans-2e" x="147.412109"/>
       <use xlink:href="#DejaVuSans-30" x="179.199219"/>
       <use xlink:href="#DejaVuSans-35" x="242.822266"/>
      </g>
     </g>
    </g>
    <g id="xtick_2">
     <g id="line2d_3">
      <path d="M 128.696911 168.568 
L 128.696911 28.876 
" clip-path="url(#p14aaa3d88d)" style="fill: none; stroke: #b0b0b0; stroke-width: 0.8; stroke-linecap: square"/>
     </g>
     <g id="line2d_4">
      <g>
       <use xlink:href="#maa5cf9c3b8" x="128.696911" y="168.568" style="stroke: #000000; stroke-width: 0.8"/>
      </g>
     </g>
     <g id="text_2">
      <!-- 0.00 -->
      <g transform="translate(117.564098 183.166437) scale(0.1 -0.1)">
       <use xlink:href="#DejaVuSans-30"/>
       <use xlink:href="#DejaVuSans-2e" x="63.623047"/>
       <use xlink:href="#DejaVuSans-30" x="95.410156"/>
       <use xlink:href="#DejaVuSans-30" x="159.033203"/>
      </g>
     </g>
    </g>
    <g id="xtick_3">
     <g id="line2d_5">
      <path d="M 161.551566 168.568 
L 161.551566 28.876 
" clip-path="url(#p14aaa3d88d)" style="fill: none; stroke: #b0b0b0; stroke-width: 0.8; stroke-linecap: square"/>
     </g>
     <g id="line2d_6">
      <g>
       <use xlink:href="#maa5cf9c3b8" x="161.551566" y="168.568" style="stroke: #000000; stroke-width: 0.8"/>
      </g>
     </g>
     <g id="text_3">
      <!-- 0.05 -->
      <g transform="translate(150.418754 183.166437) scale(0.1 -0.1)">
       <use xlink:href="#DejaVuSans-30"/>
       <use xlink:href="#DejaVuSans-2e" x="63.623047"/>
       <use xlink:href="#DejaVuSans-30" x="95.410156"/>
       <use xlink:href="#DejaVuSans-35" x="159.033203"/>
      </g>
     </g>
    </g>
    <g id="xtick_4">
     <g id="line2d_7">
      <path d="M 194.406222 168.568 
L 194.406222 28.876 
" clip-path="url(#p14aaa3d88d)" style="fill: none; stroke: #b0b0b0; stroke-width: 0.8; stroke-linecap: square"/>
     </g>
     <g id="line2d_8">
      <g>
       <use xlink:href="#maa5cf9c3b8" x="194.406222" y="168.568" style="stroke: #000000; stroke-width: 0.8"/>
      </g>
     </g>
     <g id="text_4">
      <!-- 0.10 -->
      <g transform="translate(183.273409 183.166437) scale(0.1 -0.1)">
       <defs>
        <path id="DejaVuSans-31" d="M 794 531 
L 1825 531 
L 1825 4091 
L 703 3866 
L 703 4441 
L 1819 4666 
L 2450 4666 
L 2450 531 
L 3481 531 
L 3481 0 
L 794 0 
L 794 531 
z
" transform="scale(0.015625)"/>
       </defs>
       <use xlink:href="#DejaVuSans-30"/>
       <use xlink:href="#DejaVuSans-2e" x="63.623047"/>
       <use xlink:href="#DejaVuSans-31" x="95.410156"/>
       <use xlink:href="#DejaVuSans-30" x="159.033203"/>
      </g>
     </g>
    </g>
    <g id="xtick_5">
     <g id="line2d_9">
      <path d="M 227.260877 168.568 
L 227.260877 28.876 
" clip-path="url(#p14aaa3d88d)" style="fill: none; stroke: #b0b0b0; stroke-width: 0.8; stroke-linecap: square"/>
     </g>
     <g id="line2d_10">
      <g>
       <use xlink:href="#maa5cf9c3b8" x="227.260877" y="168.568" style="stroke: #000000; stroke-width: 0.8"/>
      </g>
     </g>
     <g id="text_5">
      <!-- 0.15 -->
      <g transform="translate(216.128065 183.166437) scale(0.1 -0.1)">
       <use xlink:href="#DejaVuSans-30"/>
       <use xlink:href="#DejaVuSans-2e" x="63.623047"/>
       <use xlink:href="#DejaVuSans-31" x="95.410156"/>
       <use xlink:href="#DejaVuSans-35" x="159.033203"/>
      </g>
     </g>
    </g>
    <g id="xtick_6">
     <g id="line2d_11">
      <path d="M 260.115533 168.568 
L 260.115533 28.876 
" clip-path="url(#p14aaa3d88d)" style="fill: none; stroke: #b0b0b0; stroke-width: 0.8; stroke-linecap: square"/>
     </g>
     <g id="line2d_12">
      <g>
       <use xlink:href="#maa5cf9c3b8" x="260.115533" y="168.568" style="stroke: #000000; stroke-width: 0.8"/>
      </g>
     </g>
     <g id="text_6">
      <!-- 0.20 -->
      <g transform="translate(248.98272 183.166437) scale(0.1 -0.1)">
       <defs>
        <path id="DejaVuSans-32" d="M 1228 531 
L 3431 531 
L 3431 0 
L 469 0 
L 469 531 
Q 828 903 1448 1529 
Q 2069 2156 2228 2338 
Q 2531 2678 2651 2914 
Q 2772 3150 2772 3378 
Q 2772 3750 2511 3984 
Q 2250 4219 1831 4219 
Q 1534 4219 1204 4116 
Q 875 4013 500 3803 
L 500 4441 
Q 881 4594 1212 4672 
Q 1544 4750 1819 4750 
Q 2544 4750 2975 4387 
Q 3406 4025 3406 3419 
Q 3406 3131 3298 2873 
Q 3191 2616 2906 2266 
Q 2828 2175 2409 1742 
Q 1991 1309 1228 531 
z
" transform="scale(0.015625)"/>
       </defs>
       <use xlink:href="#DejaVuSans-30"/>
       <use xlink:href="#DejaVuSans-2e" x="63.623047"/>
       <use xlink:href="#DejaVuSans-32" x="95.410156"/>
       <use xlink:href="#DejaVuSans-30" x="159.033203"/>
      </g>
     </g>
    </g>
    <g id="text_7">
     <!-- $T_C = T / \rho V^2 D^2$ -->
     <g transform="translate(149.232828 198.346125) scale(0.1 -0.1)">
      <defs>
       <path id="DejaVuSans-Oblique-54" d="M 378 4666 
L 4325 4666 
L 4225 4134 
L 2559 4134 
L 1759 0 
L 1125 0 
L 1925 4134 
L 275 4134 
L 378 4666 
z
" transform="scale(0.015625)"/>
       <path id="DejaVuSans-Oblique-43" d="M 4447 4306 
L 4319 3641 
Q 4019 3944 3683 4091 
Q 3347 4238 2956 4238 
Q 2422 4238 2017 3981 
Q 1613 3725 1319 3200 
Q 1131 2863 1032 2486 
Q 934 2109 934 1728 
Q 934 1091 1264 756 
Q 1594 422 2222 422 
Q 2656 422 3056 561 
Q 3456 700 3834 978 
L 3688 231 
Q 3316 72 2936 -9 
Q 2556 -91 2175 -91 
Q 1278 -91 773 396 
Q 269 884 269 1753 
Q 269 2309 461 2846 
Q 653 3384 1013 3828 
Q 1394 4300 1883 4525 
Q 2372 4750 3022 4750 
Q 3422 4750 3780 4639 
Q 4138 4528 4447 4306 
z
" transform="scale(0.015625)"/>
       <path id="DejaVuSans-3d" d="M 678 2906 
L 4684 2906 
L 4684 2381 
L 678 2381 
L 678 2906 
z
M 678 1631 
L 4684 1631 
L 4684 1100 
L 678 1100 
L 678 1631 
z
" transform="scale(0.015625)"/>
       <path id="DejaVuSans-2f" d="M 1625 4666 
L 2156 4666 
L 531 -594 
L 0 -594 
L 1625 4666 
z
" transform="scale(0.015625)"/>
       <path id="DejaVuSans-Oblique-3c1" d="M 1203 2875 
Q 1453 3194 1981 3475 
Q 2188 3584 2756 3584 
Q 3394 3584 3694 3078 
Q 3994 2572 3834 1747 
Q 3672 922 3175 415 
Q 2678 -91 2041 -91 
Q 1656 -91 1409 63 
Q 1163 213 1044 525 
L 681 -1331 
L 103 -1331 
L 697 1716 
Q 838 2438 1203 2875 
z
M 3238 1747 
Q 3359 2381 3169 2744 
Q 2978 3103 2522 3103 
Q 2066 3103 1734 2744 
Q 1403 2381 1281 1747 
Q 1156 1113 1347 750 
Q 1538 391 1994 391 
Q 2450 391 2781 750 
Q 3113 1113 3238 1747 
z
" transform="scale(0.015625)"/>
       <path id="DejaVuSans-Oblique-56" d="M 1319 0 
L 500 4666 
L 1119 4666 
L 1797 653 
L 4063 4666 
L 4750 4666 
L 2053 0 
L 1319 0 
z
" transform="scale(0.015625)"/>
       <path id="DejaVuSans-Oblique-44" d="M 1081 4666 
L 2438 4666 
Q 3519 4666 4070 4208 
Q 4622 3750 4622 2847 
Q 4622 2250 4412 1698 
Q 4203 1147 3834 769 
Q 3463 381 2891 190 
Q 2319 0 1538 0 
L 172 0 
L 1081 4666 
z
M 1613 4147 
L 909 519 
L 1734 519 
Q 2794 519 3375 1128 
Q 3956 1738 3956 2847 
Q 3956 3519 3581 3833 
Q 3206 4147 2406 4147 
L 1613 4147 
z
" transform="scale(0.015625)"/>
      </defs>
      <use xlink:href="#DejaVuSans-Oblique-54" transform="translate(0 0.765625)"/>
      <use xlink:href="#DejaVuSans-Oblique-43" transform="translate(61.083984 -15.640625) scale(0.7)"/>
      <use xlink:href="#DejaVuSans-3d" transform="translate(132.177734 0.765625)"/>
      <use xlink:href="#DejaVuSans-Oblique-54" transform="translate(235.449219 0.765625)"/>
      <use xlink:href="#DejaVuSans-2f" transform="translate(296.533203 0.765625)"/>
      <use xlink:href="#DejaVuSans-Oblique-3c1" transform="translate(330.224609 0.765625)"/>
      <use xlink:href="#DejaVuSans-Oblique-56" transform="translate(393.701172 0.765625)"/>
      <use xlink:href="#DejaVuSans-32" transform="translate(469.126146 39.046875) scale(0.7)"/>
      <use xlink:href="#DejaVuSans-Oblique-44" transform="translate(516.396654 0.765625)"/>
      <use xlink:href="#DejaVuSans-32" transform="translate(600.415378 39.046875) scale(0.7)"/>
     </g>
    </g>
   </g>
   <g id="matplotlib.axis_2">
    <g id="ytick_1">
     <g id="line2d_13">
      <path d="M 74.432 139.923243 
L 288.833656 139.923243 
" clip-path="url(#p14aaa3d88d)" style="fill: none; stroke: #b0b0b0; stroke-width: 0.8; stroke-linecap: square"/>
     </g>
     <g id="line2d_14">
      <defs>
       <path id="m7816586035" d="M 0 0 
L -3.5 0 
" style="stroke: #000000; stroke-width: 0.8"/>
      </defs>
      <g>
       <use xlink:href="#m7816586035" x="74.432" y="139.923243" style="stroke: #000000; stroke-width: 0.8"/>
      </g>
     </g>
     <g id="text_8">
      <!-- −0.010 -->
      <g transform="translate(30.424188 143.722462) scale(0.1 -0.1)">
       <use xlink:href="#DejaVuSans-2212"/>
       <use xlink:href="#DejaVuSans-30" x="83.789062"/>
       <use xlink:href="#DejaVuSans-2e" x="147.412109"/>
       <use xlink:href="#DejaVuSans-30" x="179.199219"/>
       <use xlink:href="#DejaVuSans-31" x="242.822266"/>
       <use xlink:href="#DejaVuSans-30" x="306.445312"/>
      </g>
     </g>
    </g>
    <g id="ytick_2">
     <g id="line2d_15">
      <path d="M 74.432 110.373175 
L 288.833656 110.373175 
" clip-path="url(#p14aaa3d88d)" style="fill: none; stroke: #b0b0b0; stroke-width: 0.8; stroke-linecap: square"/>
     </g>
     <g id="line2d_16">
      <g>
       <use xlink:href="#m7816586035" x="74.432" y="110.373175" style="stroke: #000000; stroke-width: 0.8"/>
      </g>
     </g>
     <g id="text_9">
      <!-- −0.005 -->
      <g transform="translate(30.424188 114.172394) scale(0.1 -0.1)">
       <use xlink:href="#DejaVuSans-2212"/>
       <use xlink:href="#DejaVuSans-30" x="83.789062"/>
       <use xlink:href="#DejaVuSans-2e" x="147.412109"/>
       <use xlink:href="#DejaVuSans-30" x="179.199219"/>
       <use xlink:href="#DejaVuSans-30" x="242.822266"/>
       <use xlink:href="#DejaVuSans-35" x="306.445312"/>
      </g>
     </g>
    </g>
    <g id="ytick_3">
     <g id="line2d_17">
      <path d="M 74.432 80.823107 
L 288.833656 80.823107 
" clip-path="url(#p14aaa3d88d)" style="fill: none; stroke: #b0b0b0; stroke-width: 0.8; stroke-linecap: square"/>
     </g>
     <g id="line2d_18">
      <g>
       <use xlink:href="#m7816586035" x="74.432" y="80.823107" style="stroke: #000000; stroke-width: 0.8"/>
      </g>
     </g>
     <g id="text_10">
      <!-- 0.000 -->
      <g transform="translate(38.803875 84.622326) scale(0.1 -0.1)">
       <use xlink:href="#DejaVuSans-30"/>
       <use xlink:href="#DejaVuSans-2e" x="63.623047"/>
       <use xlink:href="#DejaVuSans-30" x="95.410156"/>
       <use xlink:href="#DejaVuSans-30" x="159.033203"/>
       <use xlink:href="#DejaVuSans-30" x="222.65625"/>
      </g>
     </g>
    </g>
    <g id="ytick_4">
     <g id="line2d_19">
      <path d="M 74.432 51.273039 
L 288.833656 51.273039 
" clip-path="url(#p14aaa3d88d)" style="fill: none; stroke: #b0b0b0; stroke-width: 0.8; stroke-linecap: square"/>
     </g>
     <g id="line2d_20">
      <g>
       <use xlink:href="#m7816586035" x="74.432" y="51.273039" style="stroke: #000000; stroke-width: 0.8"/>
      </g>
     </g>
     <g id="text_11">
      <!-- 0.005 -->
      <g transform="translate(38.803875 55.072258) scale(0.1 -0.1)">
       <use xlink:href="#DejaVuSans-30"/>
       <use xlink:href="#DejaVuSans-2e" x="63.623047"/>
       <use xlink:href="#DejaVuSans-30" x="95.410156"/>
       <use xlink:href="#DejaVuSans-30" x="159.033203"/>
       <use xlink:href="#DejaVuSans-35" x="222.65625"/>
      </g>
     </g>
    </g>
    <g id="text_12">
     <!-- d$C_T = T / \rho n^2 D^4$ / d$\delta_e$ -->
     <g transform="translate(24.324188 147.472) rotate(-90) scale(0.1 -0.1)">
      <defs>
       <path id="DejaVuSans-64" d="M 2906 2969 
L 2906 4863 
L 3481 4863 
L 3481 0 
L 2906 0 
L 2906 525 
Q 2725 213 2448 61 
Q 2172 -91 1784 -91 
Q 1150 -91 751 415 
Q 353 922 353 1747 
Q 353 2572 751 3078 
Q 1150 3584 1784 3584 
Q 2172 3584 2448 3432 
Q 2725 3281 2906 2969 
z
M 947 1747 
Q 947 1113 1208 752 
Q 1469 391 1925 391 
Q 2381 391 2643 752 
Q 2906 1113 2906 1747 
Q 2906 2381 2643 2742 
Q 2381 3103 1925 3103 
Q 1469 3103 1208 2742 
Q 947 2381 947 1747 
z
" transform="scale(0.015625)"/>
       <path id="DejaVuSans-Oblique-6e" d="M 3566 2113 
L 3156 0 
L 2578 0 
L 2988 2091 
Q 3016 2238 3031 2350 
Q 3047 2463 3047 2528 
Q 3047 2791 2881 2937 
Q 2716 3084 2419 3084 
Q 1956 3084 1622 2776 
Q 1288 2469 1184 1941 
L 800 0 
L 225 0 
L 903 3500 
L 1478 3500 
L 1363 2950 
Q 1603 3253 1940 3418 
Q 2278 3584 2650 3584 
Q 3113 3584 3367 3334 
Q 3622 3084 3622 2631 
Q 3622 2519 3608 2391 
Q 3594 2263 3566 2113 
z
" transform="scale(0.015625)"/>
       <path id="DejaVuSans-34" d="M 2419 4116 
L 825 1625 
L 2419 1625 
L 2419 4116 
z
M 2253 4666 
L 3047 4666 
L 3047 1625 
L 3713 1625 
L 3713 1100 
L 3047 1100 
L 3047 0 
L 2419 0 
L 2419 1100 
L 313 1100 
L 313 1709 
L 2253 4666 
z
" transform="scale(0.015625)"/>
       <path id="DejaVuSans-20" transform="scale(0.015625)"/>
       <path id="DejaVuSans-Oblique-3b4" d="M 3472 4053 
Q 3197 4272 2450 4272 
Q 1659 4272 1588 3906 
Q 1531 3619 2328 3469 
Q 2953 3353 3253 3003 
Q 3616 2581 3447 1716 
Q 3284 888 2763 400 
Q 2238 -91 1488 -91 
Q 741 -91 406 400 
Q 72 888 241 1747 
Q 363 2384 891 2900 
Q 1097 3100 1353 3213 
Q 913 3459 1000 3900 
Q 1166 4750 2544 4750 
Q 3234 4750 3566 4531 
L 3472 4053 
z
M 1753 3056 
Q 1525 2966 1306 2738 
Q 969 2384 847 1747 
Q 722 1113 919 756 
Q 1119 397 1584 397 
Q 2044 397 2381 759 
Q 2722 1122 2838 1716 
Q 2956 2338 2731 2638 
Q 2491 2959 2103 2994 
Q 1906 3013 1753 3056 
z
" transform="scale(0.015625)"/>
       <path id="DejaVuSans-Oblique-65" d="M 3078 2063 
Q 3088 2113 3092 2166 
Q 3097 2219 3097 2272 
Q 3097 2653 2873 2875 
Q 2650 3097 2266 3097 
Q 1838 3097 1509 2826 
Q 1181 2556 1013 2059 
L 3078 2063 
z
M 3578 1613 
L 903 1613 
Q 884 1494 878 1425 
Q 872 1356 872 1306 
Q 872 872 1139 634 
Q 1406 397 1894 397 
Q 2269 397 2603 481 
Q 2938 566 3225 728 
L 3116 159 
Q 2806 34 2476 -28 
Q 2147 -91 1806 -91 
Q 1078 -91 686 257 
Q 294 606 294 1247 
Q 294 1794 489 2264 
Q 684 2734 1063 3103 
Q 1306 3334 1642 3459 
Q 1978 3584 2356 3584 
Q 2950 3584 3301 3228 
Q 3653 2872 3653 2272 
Q 3653 2128 3634 1964 
Q 3616 1800 3578 1613 
z
" transform="scale(0.015625)"/>
      </defs>
      <use xlink:href="#DejaVuSans-64" transform="translate(0 0.765625)"/>
      <use xlink:href="#DejaVuSans-Oblique-43" transform="translate(63.476562 0.765625)"/>
      <use xlink:href="#DejaVuSans-Oblique-54" transform="translate(133.300781 -15.640625) scale(0.7)"/>
      <use xlink:href="#DejaVuSans-3d" transform="translate(198.276367 0.765625)"/>
      <use xlink:href="#DejaVuSans-Oblique-54" transform="translate(301.547852 0.765625)"/>
      <use xlink:href="#DejaVuSans-2f" transform="translate(362.631836 0.765625)"/>
      <use xlink:href="#DejaVuSans-Oblique-3c1" transform="translate(396.323242 0.765625)"/>
      <use xlink:href="#DejaVuSans-Oblique-6e" transform="translate(459.799805 0.765625)"/>
      <use xlink:href="#DejaVuSans-32" transform="translate(527.828607 39.046875) scale(0.7)"/>
      <use xlink:href="#DejaVuSans-Oblique-44" transform="translate(575.099115 0.765625)"/>
      <use xlink:href="#DejaVuSans-34" transform="translate(659.117839 39.046875) scale(0.7)"/>
      <use xlink:href="#DejaVuSans-20" transform="translate(706.388346 0.765625)"/>
      <use xlink:href="#DejaVuSans-2f" transform="translate(738.175456 0.765625)"/>
      <use xlink:href="#DejaVuSans-20" transform="translate(771.866862 0.765625)"/>
      <use xlink:href="#DejaVuSans-64" transform="translate(803.653971 0.765625)"/>
      <use xlink:href="#DejaVuSans-Oblique-3b4" transform="translate(867.130534 0.765625)"/>
      <use xlink:href="#DejaVuSans-Oblique-65" transform="translate(928.312174 -15.640625) scale(0.7)"/>
     </g>
    </g>
   </g>
   <g id="line2d_21">
    <path d="M 255.445214 60.602546 
L 249.610417 60.282989 
L 243.917477 59.955167 
L 238.363811 59.619082 
L 232.946837 59.274732 
L 227.663976 58.922118 
L 222.512644 58.56124 
L 217.49026 58.192098 
L 212.594243 57.814692 
L 207.822011 57.429022 
L 203.170982 57.035087 
L 198.638575 56.632888 
L 194.222209 56.222426 
L 189.919302 55.803699 
L 185.727271 55.376708 
L 181.643536 54.941453 
L 177.665516 54.497934 
L 173.790627 54.046151 
L 170.01629 53.586103 
L 166.339922 53.117792 
L 162.758942 52.641216 
L 159.270767 52.156377 
L 155.872818 51.663273 
L 152.562511 51.161905 
L 149.337266 50.652273 
L 146.1945 50.134377 
L 143.131633 49.608217 
L 140.146083 49.073792 
L 137.235267 48.531104 
L 134.396605 47.980151 
L 131.627516 47.420935 
L 128.925416 46.853454 
L 126.287725 46.277709 
L 123.711862 45.6937 
L 121.195244 45.101427 
L 118.73529 44.50089 
L 116.329419 43.892088 
L 113.975049 43.275023 
L 111.669598 42.649693 
L 109.410485 42.016099 
L 107.195128 41.374242 
L 105.020945 40.72412 
L 102.885356 40.065734 
L 100.785778 39.399084 
L 98.71963 38.724169 
L 96.68433 38.040991 
L 94.677297 37.349548 
L 92.695949 36.649842 
L 90.737705 35.941871 
L 88.799983 35.225636 
" clip-path="url(#p14aaa3d88d)" style="fill: none; stroke: #000080; stroke-width: 1.5; stroke-linecap: square"/>
   </g>
   <g id="line2d_22">
    <path d="M 271.806753 60.602546 
L 266.013274 60.282989 
L 260.360722 59.955167 
L 254.846516 59.619082 
L 249.468074 59.274732 
L 244.222814 58.922118 
L 239.108155 58.56124 
L 234.121516 58.192098 
L 229.260314 57.814692 
L 224.521968 57.429022 
L 219.903896 57.035087 
L 215.403518 56.632888 
L 211.01825 56.222426 
L 206.745513 55.803699 
L 202.582724 55.376708 
L 198.527301 54.941453 
L 194.576663 54.497934 
L 190.728229 54.046151 
L 186.979417 53.586103 
L 183.327645 53.117792 
L 179.770332 52.641216 
L 176.304896 52.156377 
L 172.928755 51.663273 
L 169.639329 51.161905 
L 166.434035 50.652273 
L 163.310292 50.134377 
L 160.265518 49.608217 
L 157.297131 49.073792 
L 154.402551 48.531104 
L 151.579196 47.980151 
L 148.824483 47.420935 
L 146.135832 46.853454 
L 143.510661 46.277709 
L 140.946387 45.6937 
L 138.440431 45.101427 
L 135.99021 44.50089 
L 133.593142 43.892088 
L 131.246646 43.275023 
L 128.94814 42.649693 
L 126.695043 42.016099 
L 124.484774 41.374242 
L 122.31475 40.72412 
L 120.18239 40.065734 
L 118.085112 39.399084 
L 116.020336 38.724169 
L 113.985478 38.040991 
L 111.977959 37.349548 
L 109.995195 36.649842 
L 108.034607 35.941871 
L 106.093611 35.225636 
" clip-path="url(#p14aaa3d88d)" style="fill: none; stroke: #0000ff; stroke-width: 1.5; stroke-linecap: square"/>
   </g>
   <g id="line2d_23">
    <path d="M 262.423583 73.986873 
L 256.676957 74.085172 
L 251.068868 74.174584 
L 245.596735 74.255109 
L 240.257977 74.326747 
L 235.05001 74.389498 
L 229.970255 74.443362 
L 225.016129 74.488339 
L 220.185052 74.524428 
L 215.47444 74.551631 
L 210.881713 74.569946 
L 206.40429 74.579375 
L 202.039587 74.579916 
L 197.785025 74.571571 
L 193.638022 74.554338 
L 189.595995 74.528218 
L 185.656363 74.493211 
L 181.816546 74.449317 
L 178.07396 74.396536 
L 174.426025 74.334868 
L 170.870158 74.264313 
L 167.40378 74.184871 
L 164.024306 74.096542 
L 160.729158 73.999325 
L 157.515752 73.893222 
L 154.381506 73.778232 
L 151.323841 73.654354 
L 148.340173 73.52159 
L 145.427922 73.379938 
L 142.584505 73.229399 
L 139.807342 73.069973 
L 137.09385 72.901661 
L 134.441449 72.724461 
L 131.847556 72.538374 
L 129.309589 72.3434 
L 126.824968 72.139538 
L 124.391111 71.92679 
L 122.005436 71.705155 
L 119.665362 71.474633 
L 117.368306 71.235223 
L 115.111688 70.986927 
L 112.892926 70.729743 
L 110.709438 70.463673 
L 108.558643 70.188715 
L 106.437958 69.90487 
L 104.344804 69.612139 
L 102.276597 69.31052 
L 100.230757 69.000014 
L 98.204702 68.680621 
L 96.19585 68.352341 
" clip-path="url(#p14aaa3d88d)" style="fill: none; stroke: #0060ff; stroke-width: 1.5; stroke-linecap: square"/>
   </g>
   <g id="line2d_24">
    <path d="M 268.126509 73.986873 
L 262.231795 74.085172 
L 256.481345 74.174584 
L 250.872579 74.255109 
L 245.402915 74.326747 
L 240.069771 74.389498 
L 234.870566 74.443362 
L 229.802718 74.488339 
L 224.863646 74.524428 
L 220.050768 74.551631 
L 215.361503 74.569946 
L 210.793268 74.579375 
L 206.343483 74.579916 
L 202.009565 74.571571 
L 197.788934 74.554338 
L 193.679007 74.528218 
L 189.677203 74.493211 
L 185.780941 74.449317 
L 181.987638 74.396536 
L 178.294714 74.334868 
L 174.699587 74.264313 
L 171.199674 74.184871 
L 167.792395 74.096542 
L 164.475169 73.999325 
L 161.245412 73.893222 
L 158.100545 73.778232 
L 155.037984 73.654354 
L 152.05515 73.52159 
L 149.149459 73.379938 
L 146.318331 73.229399 
L 143.559184 73.069973 
L 140.869436 72.901661 
L 138.246506 72.724461 
L 135.687813 72.538374 
L 133.190774 72.3434 
L 130.752808 72.139538 
L 128.371333 71.92679 
L 126.043769 71.705155 
L 123.767532 71.474633 
L 121.540043 71.235223 
L 119.358719 70.986927 
L 117.220978 70.729743 
L 115.124239 70.463673 
L 113.065921 70.188715 
L 111.043442 69.90487 
L 109.05422 69.612139 
L 107.095673 69.31052 
L 105.165221 69.000014 
L 103.260281 68.680621 
L 101.378273 68.352341 
" clip-path="url(#p14aaa3d88d)" style="fill: none; stroke: #00d4ff; stroke-width: 1.5; stroke-linecap: square"/>
   </g>
   <g id="line2d_25">
    <path d="M 268.061204 83.905067 
L 262.370394 84.269664 
L 256.816561 84.630052 
L 251.397123 84.986232 
L 246.109499 85.338204 
L 240.951106 85.685969 
L 235.919363 86.029525 
L 231.011689 86.368874 
L 226.225502 86.704014 
L 221.558221 87.034946 
L 217.007263 87.361671 
L 212.570048 87.684187 
L 208.243994 88.002496 
L 204.026518 88.316596 
L 199.915041 88.626489 
L 195.906979 88.932173 
L 191.999752 89.23365 
L 188.190777 89.530919 
L 184.477474 89.823979 
L 180.857261 90.112832 
L 177.327556 90.397476 
L 173.885777 90.677913 
L 170.529344 90.954142 
L 167.255673 91.226163 
L 164.062185 91.493975 
L 160.946297 91.75758 
L 157.905427 92.016977 
L 154.936995 92.272166 
L 152.038418 92.523146 
L 149.207115 92.769919 
L 146.440505 93.012484 
L 143.736005 93.250841 
L 141.091035 93.48499 
L 138.503012 93.714931 
L 135.969355 93.940664 
L 133.487483 94.162189 
L 131.054814 94.379506 
L 128.668766 94.592615 
L 126.326757 94.801516 
L 124.026207 95.006209 
L 121.764534 95.206694 
L 119.539155 95.402971 
L 117.34749 95.59504 
L 115.186957 95.782901 
L 113.054975 95.966554 
L 110.948961 96.146 
L 108.866334 96.321237 
L 106.804512 96.492266 
L 104.760915 96.659087 
L 102.73296 96.821701 
" clip-path="url(#p14aaa3d88d)" style="fill: none; stroke: #4dffaa; stroke-width: 1.5; stroke-linecap: square"/>
   </g>
   <g id="line2d_26">
    <path d="M 265.532172 83.905067 
L 259.609611 84.269664 
L 253.83089 84.630052 
L 248.193426 84.986232 
L 242.69464 85.338204 
L 237.331949 85.685969 
L 232.102771 86.029525 
L 227.004526 86.368874 
L 222.034631 86.704014 
L 217.190504 87.034946 
L 212.469565 87.361671 
L 207.869232 87.684187 
L 203.386923 88.002496 
L 199.020057 88.316596 
L 194.766051 88.626489 
L 190.622325 88.932173 
L 186.586297 89.23365 
L 182.655385 89.530919 
L 178.827008 89.823979 
L 175.098584 90.112832 
L 171.467532 90.397476 
L 167.931269 90.677913 
L 164.487215 90.954142 
L 161.132788 91.226163 
L 157.865406 91.493975 
L 154.682487 91.75758 
L 151.581451 92.016977 
L 148.559715 92.272166 
L 145.614698 92.523146 
L 142.743819 92.769919 
L 139.944495 93.012484 
L 137.214145 93.250841 
L 134.550188 93.48499 
L 131.950042 93.714931 
L 129.411126 93.940664 
L 126.930857 94.162189 
L 124.506655 94.379506 
L 122.135938 94.592615 
L 119.816123 94.801516 
L 117.544631 95.006209 
L 115.318878 95.206694 
L 113.136284 95.402971 
L 110.994266 95.59504 
L 108.890244 95.782901 
L 106.821636 95.966554 
L 104.785859 96.146 
L 102.780334 96.321237 
L 100.802477 96.492266 
L 98.849707 96.659087 
L 96.919444 96.821701 
" clip-path="url(#p14aaa3d88d)" style="fill: none; stroke: #aaff4d; stroke-width: 1.5; stroke-linecap: square"/>
   </g>
   <g id="line2d_27">
    <path d="M 274.254248 94.324407 
L 268.609228 94.91026 
L 263.100757 95.503757 
L 257.726254 96.1049 
L 252.483137 96.713687 
L 247.368825 97.330119 
L 242.380735 97.954195 
L 237.516288 98.585917 
L 232.7729 99.225283 
L 228.14799 99.872294 
L 223.638977 100.52695 
L 219.243279 101.189251 
L 214.958314 101.859196 
L 210.781502 102.536786 
L 206.71026 103.222021 
L 202.742007 103.914901 
L 198.874161 104.615426 
L 195.10414 105.323595 
L 191.429364 106.039409 
L 187.84725 106.762868 
L 184.355217 107.493972 
L 180.950684 108.23272 
L 177.631068 108.979113 
L 174.393789 109.733151 
L 171.236264 110.494834 
L 168.155912 111.264162 
L 165.150152 112.041134 
L 162.216401 112.825751 
L 159.352079 113.618013 
L 156.554604 114.41792 
L 153.821393 115.225471 
L 151.149867 116.040668 
L 148.537442 116.863509 
L 145.981538 117.693995 
L 143.479573 118.532125 
L 141.028965 119.377901 
L 138.627132 120.231321 
L 136.271494 121.092386 
L 133.959468 121.961096 
L 131.688473 122.83745 
L 129.455928 123.72145 
L 127.259251 124.613094 
L 125.095859 125.512383 
L 122.963173 126.419316 
L 120.858609 127.333895 
L 118.779587 128.256118 
L 116.723525 129.185986 
L 114.687842 130.123499 
L 112.669955 131.068657 
L 110.667283 132.021459 
" clip-path="url(#p14aaa3d88d)" style="fill: none; stroke: #ffe600; stroke-width: 1.5; stroke-linecap: square"/>
   </g>
   <g id="line2d_28">
    <path d="M 262.627133 94.324407 
L 256.738975 94.91026 
L 250.990299 95.503757 
L 245.378522 96.1049 
L 239.901064 96.713687 
L 234.555343 97.330119 
L 229.338777 97.954195 
L 224.248785 98.585917 
L 219.282785 99.225283 
L 214.438195 99.872294 
L 209.712434 100.52695 
L 205.102921 101.189251 
L 200.607073 101.859196 
L 196.222309 102.536786 
L 191.946049 103.222021 
L 187.775709 103.914901 
L 183.708708 104.615426 
L 179.742466 105.323595 
L 175.8744 106.039409 
L 172.101928 106.762868 
L 168.42247 107.493972 
L 164.833443 108.23272 
L 161.332267 108.979113 
L 157.916358 109.733151 
L 154.583137 110.494834 
L 151.330021 111.264162 
L 148.154428 112.041134 
L 145.053778 112.825751 
L 142.025488 113.618013 
L 139.066978 114.41792 
L 136.175664 115.225471 
L 133.348967 116.040668 
L 130.584303 116.863509 
L 127.879093 117.693995 
L 125.230753 118.532125 
L 122.636703 119.377901 
L 120.094361 120.231321 
L 117.601145 121.092386 
L 115.154474 121.961096 
L 112.751766 122.83745 
L 110.39044 123.72145 
L 108.067914 124.613094 
L 105.781606 125.512383 
L 103.528935 126.419316 
L 101.30732 127.333895 
L 99.114178 128.256118 
L 96.946928 129.185986 
L 94.802989 130.123499 
L 92.679779 131.068657 
L 90.574717 132.021459 
" clip-path="url(#p14aaa3d88d)" style="fill: none; stroke: #ff7a00; stroke-width: 1.5; stroke-linecap: square"/>
   </g>
   <g id="line2d_29">
    <path d="M 278.656897 101.771779 
L 273.032376 102.460095 
L 267.545253 103.171132 
L 262.192946 103.904889 
L 256.972875 104.661367 
L 251.882457 105.440565 
L 246.91911 106.242483 
L 242.080254 107.067121 
L 237.363307 107.91448 
L 232.765687 108.784558 
L 228.284812 109.677358 
L 223.918101 110.592877 
L 219.662972 111.531117 
L 215.516844 112.492077 
L 211.477136 113.475758 
L 207.541265 114.482158 
L 203.70665 115.511279 
L 199.970709 116.563121 
L 196.330861 117.637682 
L 192.784525 118.734964 
L 189.329118 119.854967 
L 185.96206 120.997689 
L 182.680768 122.163132 
L 179.482661 123.351295 
L 176.365158 124.562179 
L 173.325676 125.795783 
L 170.361635 127.052107 
L 167.470452 128.331151 
L 164.649547 129.632916 
L 161.896337 130.957401 
L 159.208241 132.304606 
L 156.582677 133.674531 
L 154.017064 135.067177 
L 151.508821 136.482544 
L 149.055365 137.92063 
L 146.654115 139.381437 
L 144.30249 140.864964 
L 141.997907 142.371211 
L 139.737786 143.900179 
L 137.519545 145.451867 
L 135.340602 147.026275 
L 133.198376 148.623404 
L 131.090284 150.243253 
L 129.013746 151.885822 
L 126.96618 153.551112 
L 124.945004 155.239121 
L 122.947637 156.949851 
L 120.971498 158.683302 
L 119.014003 160.439473 
L 117.072573 162.218364 
" clip-path="url(#p14aaa3d88d)" style="fill: none; stroke: #ff1300; stroke-width: 1.5; stroke-linecap: square"/>
   </g>
   <g id="line2d_30">
    <path d="M 260.098266 101.771779 
L 254.295294 102.460095 
L 248.624965 103.171132 
L 243.084697 103.904889 
L 237.671908 104.661367 
L 232.384018 105.440565 
L 227.218444 106.242483 
L 222.172605 107.067121 
L 217.243919 107.91448 
L 212.429805 108.784558 
L 207.727681 109.677358 
L 203.134966 110.592877 
L 198.649078 111.531117 
L 194.267434 112.492077 
L 189.987455 113.475758 
L 185.806558 114.482158 
L 181.722162 115.511279 
L 177.731684 116.563121 
L 173.832545 117.637682 
L 170.022161 118.734964 
L 166.297951 119.854967 
L 162.657334 120.997689 
L 159.097729 122.163132 
L 155.616553 123.351295 
L 152.211225 124.562179 
L 148.879164 125.795783 
L 145.617787 127.052107 
L 142.424514 128.331151 
L 139.296762 129.632916 
L 136.231951 130.957401 
L 133.227498 132.304606 
L 130.280823 133.674531 
L 127.389342 135.067177 
L 124.550476 136.482544 
L 121.761642 137.92063 
L 119.020258 139.381437 
L 116.323744 140.864964 
L 113.669517 142.371211 
L 111.054996 143.900179 
L 108.4776 145.451867 
L 105.934746 147.026275 
L 103.423854 148.623404 
L 100.942341 150.243253 
L 98.487626 151.885822 
L 96.057128 153.551112 
L 93.648265 155.239121 
L 91.258455 156.949851 
L 88.885117 158.683302 
L 86.525669 160.439473 
L 84.17753 162.218364 
" clip-path="url(#p14aaa3d88d)" style="fill: none; stroke: #800000; stroke-width: 1.5; stroke-linecap: square"/>
   </g>
   <g id="patch_3">
    <path d="M 74.432 168.568 
L 74.432 28.876 
" style="fill: none; stroke: #000000; stroke-width: 0.8; stroke-linejoin: miter; stroke-linecap: square"/>
   </g>
   <g id="patch_4">
    <path d="M 288.833656 168.568 
L 288.833656 28.876 
" style="fill: none; stroke: #000000; stroke-width: 0.8; stroke-linejoin: miter; stroke-linecap: square"/>
   </g>
   <g id="patch_5">
    <path d="M 74.432 168.568 
L 288.833656 168.568 
" style="fill: none; stroke: #000000; stroke-width: 0.8; stroke-linejoin: miter; stroke-linecap: square"/>
   </g>
   <g id="patch_6">
    <path d="M 74.432 28.876 
L 288.833656 28.876 
" style="fill: none; stroke: #000000; stroke-width: 0.8; stroke-linejoin: miter; stroke-linecap: square"/>
   </g>
   <g id="legend_1">
    <g id="patch_7">
     <path d="M 297.833656 158.5834 
L 420.533656 158.5834 
Q 422.533656 158.5834 422.533656 156.5834 
L 422.533656 10.80215 
Q 422.533656 8.80215 420.533656 8.80215 
L 297.833656 8.80215 
Q 295.833656 8.80215 295.833656 10.80215 
L 295.833656 156.5834 
Q 295.833656 158.5834 297.833656 158.5834 
z
" style="fill: #4d4d4d; opacity: 0.5; stroke: #4d4d4d; stroke-linejoin: miter"/>
    </g>
    <g id="patch_8">
     <path d="M 295.833656 156.5834 
L 418.533656 156.5834 
Q 420.533656 156.5834 420.533656 154.5834 
L 420.533656 8.80215 
Q 420.533656 6.80215 418.533656 6.80215 
L 295.833656 6.80215 
Q 293.833656 6.80215 293.833656 8.80215 
L 293.833656 154.5834 
Q 293.833656 156.5834 295.833656 156.5834 
z
" style="fill: #ffffff; stroke: #cccccc; stroke-linejoin: miter"/>
    </g>
    <g id="PathCollection_11">
     <g>
      <use xlink:href="#me1fba2a1ce" x="307.833656" y="15.775588" style="fill: #000080; stroke: #000080; stroke-width: 1.5"/>
     </g>
    </g>
    <g id="text_13">
     <!-- $\alpha = -4, \delta_e = -10$ -->
     <g transform="translate(325.833656 18.400588) scale(0.1 -0.1)">
      <defs>
       <path id="DejaVuSans-Oblique-3b1" d="M 2619 1628 
L 2622 2350 
Q 2625 3088 2069 3091 
Q 1653 3094 1394 2747 
Q 1069 2319 959 1747 
Q 825 1059 994 731 
Q 1169 397 1547 397 
Q 1966 397 2319 1063 
L 2619 1628 
z
M 2166 3578 
Q 3141 3594 3128 2584 
Q 3128 2584 3616 3500 
L 4128 3500 
L 3119 1603 
L 3109 919 
Q 3109 766 3194 638 
Q 3291 488 3391 488 
L 3669 488 
L 3575 0 
L 3228 0 
Q 2934 0 2722 263 
Q 2622 394 2619 669 
Q 2416 334 2066 50 
Q 1900 -81 1453 -78 
Q 722 -72 456 397 
Q 184 884 353 1747 
Q 534 2675 1009 3097 
Q 1544 3569 2166 3578 
z
" transform="scale(0.015625)"/>
       <path id="DejaVuSans-2c" d="M 750 794 
L 1409 794 
L 1409 256 
L 897 -744 
L 494 -744 
L 750 256 
L 750 794 
z
" transform="scale(0.015625)"/>
      </defs>
      <use xlink:href="#DejaVuSans-Oblique-3b1" transform="translate(0 0.78125)"/>
      <use xlink:href="#DejaVuSans-3d" transform="translate(85.400391 0.78125)"/>
      <use xlink:href="#DejaVuSans-2212" transform="translate(208.154297 0.78125)"/>
      <use xlink:href="#DejaVuSans-34" transform="translate(311.425781 0.78125)"/>
      <use xlink:href="#DejaVuSans-2c" transform="translate(375.048828 0.78125)"/>
      <use xlink:href="#DejaVuSans-Oblique-3b4" transform="translate(426.318359 0.78125)"/>
      <use xlink:href="#DejaVuSans-Oblique-65" transform="translate(487.5 -15.625) scale(0.7)"/>
      <use xlink:href="#DejaVuSans-3d" transform="translate(552.783203 0.78125)"/>
      <use xlink:href="#DejaVuSans-2212" transform="translate(675.537109 0.78125)"/>
      <use xlink:href="#DejaVuSans-31" transform="translate(778.808594 0.78125)"/>
      <use xlink:href="#DejaVuSans-30" transform="translate(842.431641 0.78125)"/>
     </g>
    </g>
    <g id="PathCollection_12">
     <g>
      <use xlink:href="#m372c45757a" x="307.833656" y="30.453713" style="fill: #0000ff; stroke: #0000ff; stroke-width: 1.5"/>
     </g>
    </g>
    <g id="text_14">
     <!-- $\alpha = -4, \delta_e = 10$ -->
     <g transform="translate(325.833656 33.078713) scale(0.1 -0.1)">
      <use xlink:href="#DejaVuSans-Oblique-3b1" transform="translate(0 0.78125)"/>
      <use xlink:href="#DejaVuSans-3d" transform="translate(85.400391 0.78125)"/>
      <use xlink:href="#DejaVuSans-2212" transform="translate(208.154297 0.78125)"/>
      <use xlink:href="#DejaVuSans-34" transform="translate(311.425781 0.78125)"/>
      <use xlink:href="#DejaVuSans-2c" transform="translate(375.048828 0.78125)"/>
      <use xlink:href="#DejaVuSans-Oblique-3b4" transform="translate(426.318359 0.78125)"/>
      <use xlink:href="#DejaVuSans-Oblique-65" transform="translate(487.5 -15.625) scale(0.7)"/>
      <use xlink:href="#DejaVuSans-3d" transform="translate(552.783203 0.78125)"/>
      <use xlink:href="#DejaVuSans-31" transform="translate(656.054688 0.78125)"/>
      <use xlink:href="#DejaVuSans-30" transform="translate(719.677734 0.78125)"/>
     </g>
    </g>
    <g id="PathCollection_13">
     <g>
      <use xlink:href="#m9aee676a9e" x="307.833656" y="45.131838" style="fill: #0060ff; stroke: #0060ff; stroke-width: 1.5"/>
     </g>
    </g>
    <g id="text_15">
     <!-- $\alpha = -1, \delta_e = -10$ -->
     <g transform="translate(325.833656 47.756838) scale(0.1 -0.1)">
      <use xlink:href="#DejaVuSans-Oblique-3b1" transform="translate(0 0.78125)"/>
      <use xlink:href="#DejaVuSans-3d" transform="translate(85.400391 0.78125)"/>
      <use xlink:href="#DejaVuSans-2212" transform="translate(208.154297 0.78125)"/>
      <use xlink:href="#DejaVuSans-31" transform="translate(311.425781 0.78125)"/>
      <use xlink:href="#DejaVuSans-2c" transform="translate(375.048828 0.78125)"/>
      <use xlink:href="#DejaVuSans-Oblique-3b4" transform="translate(426.318359 0.78125)"/>
      <use xlink:href="#DejaVuSans-Oblique-65" transform="translate(487.5 -15.625) scale(0.7)"/>
      <use xlink:href="#DejaVuSans-3d" transform="translate(552.783203 0.78125)"/>
      <use xlink:href="#DejaVuSans-2212" transform="translate(675.537109 0.78125)"/>
      <use xlink:href="#DejaVuSans-31" transform="translate(778.808594 0.78125)"/>
      <use xlink:href="#DejaVuSans-30" transform="translate(842.431641 0.78125)"/>
     </g>
    </g>
    <g id="PathCollection_14">
     <g>
      <use xlink:href="#m7313866b59" x="307.833656" y="59.809963" style="fill: #00d4ff; stroke: #00d4ff; stroke-width: 1.5"/>
     </g>
    </g>
    <g id="text_16">
     <!-- $\alpha = -1, \delta_e = 10$ -->
     <g transform="translate(325.833656 62.434963) scale(0.1 -0.1)">
      <use xlink:href="#DejaVuSans-Oblique-3b1" transform="translate(0 0.78125)"/>
      <use xlink:href="#DejaVuSans-3d" transform="translate(85.400391 0.78125)"/>
      <use xlink:href="#DejaVuSans-2212" transform="translate(208.154297 0.78125)"/>
      <use xlink:href="#DejaVuSans-31" transform="translate(311.425781 0.78125)"/>
      <use xlink:href="#DejaVuSans-2c" transform="translate(375.048828 0.78125)"/>
      <use xlink:href="#DejaVuSans-Oblique-3b4" transform="translate(426.318359 0.78125)"/>
      <use xlink:href="#DejaVuSans-Oblique-65" transform="translate(487.5 -15.625) scale(0.7)"/>
      <use xlink:href="#DejaVuSans-3d" transform="translate(552.783203 0.78125)"/>
      <use xlink:href="#DejaVuSans-31" transform="translate(656.054688 0.78125)"/>
      <use xlink:href="#DejaVuSans-30" transform="translate(719.677734 0.78125)"/>
     </g>
    </g>
    <g id="PathCollection_15">
     <g>
      <use xlink:href="#maf36fb76ae" x="307.833656" y="74.488088" style="fill: #4dffaa; stroke: #4dffaa; stroke-width: 1.5"/>
     </g>
    </g>
    <g id="text_17">
     <!-- $\alpha = 2, \delta_e = -10$ -->
     <g transform="translate(325.833656 77.113088) scale(0.1 -0.1)">
      <use xlink:href="#DejaVuSans-Oblique-3b1" transform="translate(0 0.78125)"/>
      <use xlink:href="#DejaVuSans-3d" transform="translate(85.400391 0.78125)"/>
      <use xlink:href="#DejaVuSans-32" transform="translate(188.671875 0.78125)"/>
      <use xlink:href="#DejaVuSans-2c" transform="translate(252.294922 0.78125)"/>
      <use xlink:href="#DejaVuSans-Oblique-3b4" transform="translate(303.564453 0.78125)"/>
      <use xlink:href="#DejaVuSans-Oblique-65" transform="translate(364.746094 -15.625) scale(0.7)"/>
      <use xlink:href="#DejaVuSans-3d" transform="translate(430.029297 0.78125)"/>
      <use xlink:href="#DejaVuSans-2212" transform="translate(552.783203 0.78125)"/>
      <use xlink:href="#DejaVuSans-31" transform="translate(656.054688 0.78125)"/>
      <use xlink:href="#DejaVuSans-30" transform="translate(719.677734 0.78125)"/>
     </g>
    </g>
    <g id="PathCollection_16">
     <g>
      <use xlink:href="#m6f3a068c85" x="307.833656" y="89.166213" style="fill: #aaff4d; stroke: #aaff4d; stroke-width: 1.5"/>
     </g>
    </g>
    <g id="text_18">
     <!-- $\alpha = 2, \delta_e = 10$ -->
     <g transform="translate(325.833656 91.791213) scale(0.1 -0.1)">
      <use xlink:href="#DejaVuSans-Oblique-3b1" transform="translate(0 0.78125)"/>
      <use xlink:href="#DejaVuSans-3d" transform="translate(85.400391 0.78125)"/>
      <use xlink:href="#DejaVuSans-32" transform="translate(188.671875 0.78125)"/>
      <use xlink:href="#DejaVuSans-2c" transform="translate(252.294922 0.78125)"/>
      <use xlink:href="#DejaVuSans-Oblique-3b4" transform="translate(303.564453 0.78125)"/>
      <use xlink:href="#DejaVuSans-Oblique-65" transform="translate(364.746094 -15.625) scale(0.7)"/>
      <use xlink:href="#DejaVuSans-3d" transform="translate(430.029297 0.78125)"/>
      <use xlink:href="#DejaVuSans-31" transform="translate(533.300781 0.78125)"/>
      <use xlink:href="#DejaVuSans-30" transform="translate(596.923828 0.78125)"/>
     </g>
    </g>
    <g id="PathCollection_17">
     <g>
      <use xlink:href="#mf476910d29" x="307.833656" y="103.844338" style="fill: #ffe600; stroke: #ffe600; stroke-width: 1.5"/>
     </g>
    </g>
    <g id="text_19">
     <!-- $\alpha = 4, \delta_e = -10$ -->
     <g transform="translate(325.833656 106.469338) scale(0.1 -0.1)">
      <use xlink:href="#DejaVuSans-Oblique-3b1" transform="translate(0 0.78125)"/>
      <use xlink:href="#DejaVuSans-3d" transform="translate(85.400391 0.78125)"/>
      <use xlink:href="#DejaVuSans-34" transform="translate(188.671875 0.78125)"/>
      <use xlink:href="#DejaVuSans-2c" transform="translate(252.294922 0.78125)"/>
      <use xlink:href="#DejaVuSans-Oblique-3b4" transform="translate(303.564453 0.78125)"/>
      <use xlink:href="#DejaVuSans-Oblique-65" transform="translate(364.746094 -15.625) scale(0.7)"/>
      <use xlink:href="#DejaVuSans-3d" transform="translate(430.029297 0.78125)"/>
      <use xlink:href="#DejaVuSans-2212" transform="translate(552.783203 0.78125)"/>
      <use xlink:href="#DejaVuSans-31" transform="translate(656.054688 0.78125)"/>
      <use xlink:href="#DejaVuSans-30" transform="translate(719.677734 0.78125)"/>
     </g>
    </g>
    <g id="PathCollection_18">
     <g>
      <use xlink:href="#maac9bc8a88" x="307.833656" y="118.522463" style="fill: #ff7a00; stroke: #ff7a00; stroke-width: 1.5"/>
     </g>
    </g>
    <g id="text_20">
     <!-- $\alpha = 4, \delta_e = 10$ -->
     <g transform="translate(325.833656 121.147463) scale(0.1 -0.1)">
      <use xlink:href="#DejaVuSans-Oblique-3b1" transform="translate(0 0.78125)"/>
      <use xlink:href="#DejaVuSans-3d" transform="translate(85.400391 0.78125)"/>
      <use xlink:href="#DejaVuSans-34" transform="translate(188.671875 0.78125)"/>
      <use xlink:href="#DejaVuSans-2c" transform="translate(252.294922 0.78125)"/>
      <use xlink:href="#DejaVuSans-Oblique-3b4" transform="translate(303.564453 0.78125)"/>
      <use xlink:href="#DejaVuSans-Oblique-65" transform="translate(364.746094 -15.625) scale(0.7)"/>
      <use xlink:href="#DejaVuSans-3d" transform="translate(430.029297 0.78125)"/>
      <use xlink:href="#DejaVuSans-31" transform="translate(533.300781 0.78125)"/>
      <use xlink:href="#DejaVuSans-30" transform="translate(596.923828 0.78125)"/>
     </g>
    </g>
    <g id="PathCollection_19">
     <g>
      <use xlink:href="#m52bb643c68" x="307.833656" y="133.200587" style="fill: #ff1300; stroke: #ff1300; stroke-width: 1.5"/>
     </g>
    </g>
    <g id="text_21">
     <!-- $\alpha = 7, \delta_e = -10$ -->
     <g transform="translate(325.833656 135.825587) scale(0.1 -0.1)">
      <defs>
       <path id="DejaVuSans-37" d="M 525 4666 
L 3525 4666 
L 3525 4397 
L 1831 0 
L 1172 0 
L 2766 4134 
L 525 4134 
L 525 4666 
z
" transform="scale(0.015625)"/>
      </defs>
      <use xlink:href="#DejaVuSans-Oblique-3b1" transform="translate(0 0.78125)"/>
      <use xlink:href="#DejaVuSans-3d" transform="translate(85.400391 0.78125)"/>
      <use xlink:href="#DejaVuSans-37" transform="translate(188.671875 0.78125)"/>
      <use xlink:href="#DejaVuSans-2c" transform="translate(252.294922 0.78125)"/>
      <use xlink:href="#DejaVuSans-Oblique-3b4" transform="translate(303.564453 0.78125)"/>
      <use xlink:href="#DejaVuSans-Oblique-65" transform="translate(364.746094 -15.625) scale(0.7)"/>
      <use xlink:href="#DejaVuSans-3d" transform="translate(430.029297 0.78125)"/>
      <use xlink:href="#DejaVuSans-2212" transform="translate(552.783203 0.78125)"/>
      <use xlink:href="#DejaVuSans-31" transform="translate(656.054688 0.78125)"/>
      <use xlink:href="#DejaVuSans-30" transform="translate(719.677734 0.78125)"/>
     </g>
    </g>
    <g id="PathCollection_20">
     <g>
      <use xlink:href="#me94cfb6b9b" x="307.833656" y="147.878712" style="fill: #800000; stroke: #800000; stroke-width: 1.5"/>
     </g>
    </g>
    <g id="text_22">
     <!-- $\alpha = 7, \delta_e = 10$ -->
     <g transform="translate(325.833656 150.503712) scale(0.1 -0.1)">
      <use xlink:href="#DejaVuSans-Oblique-3b1" transform="translate(0 0.78125)"/>
      <use xlink:href="#DejaVuSans-3d" transform="translate(85.400391 0.78125)"/>
      <use xlink:href="#DejaVuSans-37" transform="translate(188.671875 0.78125)"/>
      <use xlink:href="#DejaVuSans-2c" transform="translate(252.294922 0.78125)"/>
      <use xlink:href="#DejaVuSans-Oblique-3b4" transform="translate(303.564453 0.78125)"/>
      <use xlink:href="#DejaVuSans-Oblique-65" transform="translate(364.746094 -15.625) scale(0.7)"/>
      <use xlink:href="#DejaVuSans-3d" transform="translate(430.029297 0.78125)"/>
      <use xlink:href="#DejaVuSans-31" transform="translate(533.300781 0.78125)"/>
      <use xlink:href="#DejaVuSans-30" transform="translate(596.923828 0.78125)"/>
     </g>
    </g>
   </g>
  </g>
 </g>
 <defs>
  <clipPath id="p14aaa3d88d">
   <rect x="74.432" y="28.876" width="214.401656" height="139.692"/>
  </clipPath>
 </defs>
</svg>
