<?xml version="1.0" encoding="utf-8" standalone="no"?>
<!DOCTYPE svg PUBLIC "-//W3C//DTD SVG 1.1//EN"
  "http://www.w3.org/Graphics/SVG/1.1/DTD/svg11.dtd">
<svg xmlns:xlink="http://www.w3.org/1999/xlink" width="432pt" height="216pt" viewBox="0 0 432 216" xmlns="http://www.w3.org/2000/svg" version="1.1">
 <metadata>
  <rdf:RDF xmlns:dc="http://purl.org/dc/elements/1.1/" xmlns:cc="http://creativecommons.org/ns#" xmlns:rdf="http://www.w3.org/1999/02/22-rdf-syntax-ns#">
   <cc:Work>
    <dc:type rdf:resource="http://purl.org/dc/dcmitype/StillImage"/>
    <dc:date>2025-03-28T12:22:32.544564</dc:date>
    <dc:format>image/svg+xml</dc:format>
    <dc:creator>
     <cc:Agent>
      <dc:title>Matplotlib v3.9.2, https://matplotlib.org/</dc:title>
     </cc:Agent>
    </dc:creator>
   </cc:Work>
  </rdf:RDF>
 </metadata>
 <defs>
  <style type="text/css">*{stroke-linejoin: round; stroke-linecap: butt}</style>
 </defs>
 <g id="figure_1">
  <g id="patch_1">
   <path d="M 0 216 
L 432 216 
L 432 0 
L 0 0 
z
" style="fill: #ffffff"/>
  </g>
  <g id="axes_1">
   <g id="patch_2">
    <path d="M 74.432 174.04 
L 306.255247 174.04 
L 306.255247 10.8 
L 74.432 10.8 
z
" style="fill: #ffffff"/>
   </g>
   <g id="matplotlib.axis_1">
    <g id="xtick_1">
     <g id="line2d_1">
      <path d="M 84.96942 174.04 
L 84.96942 10.8 
" clip-path="url(#p0ebc6702b3)" style="fill: none; stroke: #b0b0b0; stroke-width: 0.8; stroke-linecap: square"/>
     </g>
     <g id="line2d_2">
      <defs>
       <path id="m027c7b1a04" d="M 0 0 
L 0 3.5 
" style="stroke: #000000; stroke-width: 0.8"/>
      </defs>
      <g>
       <use xlink:href="#m027c7b1a04" x="84.96942" y="174.04" style="stroke: #000000; stroke-width: 0.8"/>
      </g>
     </g>
     <g id="text_1">
      <!-- −4 -->
      <g transform="translate(77.598327 188.638438) scale(0.1 -0.1)">
       <defs>
        <path id="DejaVuSans-2212" d="M 678 2272 
L 4684 2272 
L 4684 1741 
L 678 1741 
L 678 2272 
z
" transform="scale(0.015625)"/>
        <path id="DejaVuSans-34" d="M 2419 4116 
L 825 1625 
L 2419 1625 
L 2419 4116 
z
M 2253 4666 
L 3047 4666 
L 3047 1625 
L 3713 1625 
L 3713 1100 
L 3047 1100 
L 3047 0 
L 2419 0 
L 2419 1100 
L 313 1100 
L 313 1709 
L 2253 4666 
z
" transform="scale(0.015625)"/>
       </defs>
       <use xlink:href="#DejaVuSans-2212"/>
       <use xlink:href="#DejaVuSans-34" x="83.789062"/>
      </g>
     </g>
    </g>
    <g id="xtick_2">
     <g id="line2d_3">
      <path d="M 123.287312 174.04 
L 123.287312 10.8 
" clip-path="url(#p0ebc6702b3)" style="fill: none; stroke: #b0b0b0; stroke-width: 0.8; stroke-linecap: square"/>
     </g>
     <g id="line2d_4">
      <g>
       <use xlink:href="#m027c7b1a04" x="123.287312" y="174.04" style="stroke: #000000; stroke-width: 0.8"/>
      </g>
     </g>
     <g id="text_2">
      <!-- −2 -->
      <g transform="translate(115.916219 188.638438) scale(0.1 -0.1)">
       <defs>
        <path id="DejaVuSans-32" d="M 1228 531 
L 3431 531 
L 3431 0 
L 469 0 
L 469 531 
Q 828 903 1448 1529 
Q 2069 2156 2228 2338 
Q 2531 2678 2651 2914 
Q 2772 3150 2772 3378 
Q 2772 3750 2511 3984 
Q 2250 4219 1831 4219 
Q 1534 4219 1204 4116 
Q 875 4013 500 3803 
L 500 4441 
Q 881 4594 1212 4672 
Q 1544 4750 1819 4750 
Q 2544 4750 2975 4387 
Q 3406 4025 3406 3419 
Q 3406 3131 3298 2873 
Q 3191 2616 2906 2266 
Q 2828 2175 2409 1742 
Q 1991 1309 1228 531 
z
" transform="scale(0.015625)"/>
       </defs>
       <use xlink:href="#DejaVuSans-2212"/>
       <use xlink:href="#DejaVuSans-32" x="83.789062"/>
      </g>
     </g>
    </g>
    <g id="xtick_3">
     <g id="line2d_5">
      <path d="M 161.605205 174.04 
L 161.605205 10.8 
" clip-path="url(#p0ebc6702b3)" style="fill: none; stroke: #b0b0b0; stroke-width: 0.8; stroke-linecap: square"/>
     </g>
     <g id="line2d_6">
      <g>
       <use xlink:href="#m027c7b1a04" x="161.605205" y="174.04" style="stroke: #000000; stroke-width: 0.8"/>
      </g>
     </g>
     <g id="text_3">
      <!-- 0 -->
      <g transform="translate(158.423955 188.638438) scale(0.1 -0.1)">
       <defs>
        <path id="DejaVuSans-30" d="M 2034 4250 
Q 1547 4250 1301 3770 
Q 1056 3291 1056 2328 
Q 1056 1369 1301 889 
Q 1547 409 2034 409 
Q 2525 409 2770 889 
Q 3016 1369 3016 2328 
Q 3016 3291 2770 3770 
Q 2525 4250 2034 4250 
z
M 2034 4750 
Q 2819 4750 3233 4129 
Q 3647 3509 3647 2328 
Q 3647 1150 3233 529 
Q 2819 -91 2034 -91 
Q 1250 -91 836 529 
Q 422 1150 422 2328 
Q 422 3509 836 4129 
Q 1250 4750 2034 4750 
z
" transform="scale(0.015625)"/>
       </defs>
       <use xlink:href="#DejaVuSans-30"/>
      </g>
     </g>
    </g>
    <g id="xtick_4">
     <g id="line2d_7">
      <path d="M 199.923097 174.04 
L 199.923097 10.8 
" clip-path="url(#p0ebc6702b3)" style="fill: none; stroke: #b0b0b0; stroke-width: 0.8; stroke-linecap: square"/>
     </g>
     <g id="line2d_8">
      <g>
       <use xlink:href="#m027c7b1a04" x="199.923097" y="174.04" style="stroke: #000000; stroke-width: 0.8"/>
      </g>
     </g>
     <g id="text_4">
      <!-- 2 -->
      <g transform="translate(196.741847 188.638438) scale(0.1 -0.1)">
       <use xlink:href="#DejaVuSans-32"/>
      </g>
     </g>
    </g>
    <g id="xtick_5">
     <g id="line2d_9">
      <path d="M 238.240989 174.04 
L 238.240989 10.8 
" clip-path="url(#p0ebc6702b3)" style="fill: none; stroke: #b0b0b0; stroke-width: 0.8; stroke-linecap: square"/>
     </g>
     <g id="line2d_10">
      <g>
       <use xlink:href="#m027c7b1a04" x="238.240989" y="174.04" style="stroke: #000000; stroke-width: 0.8"/>
      </g>
     </g>
     <g id="text_5">
      <!-- 4 -->
      <g transform="translate(235.059739 188.638438) scale(0.1 -0.1)">
       <use xlink:href="#DejaVuSans-34"/>
      </g>
     </g>
    </g>
    <g id="xtick_6">
     <g id="line2d_11">
      <path d="M 276.558881 174.04 
L 276.558881 10.8 
" clip-path="url(#p0ebc6702b3)" style="fill: none; stroke: #b0b0b0; stroke-width: 0.8; stroke-linecap: square"/>
     </g>
     <g id="line2d_12">
      <g>
       <use xlink:href="#m027c7b1a04" x="276.558881" y="174.04" style="stroke: #000000; stroke-width: 0.8"/>
      </g>
     </g>
     <g id="text_6">
      <!-- 6 -->
      <g transform="translate(273.377631 188.638438) scale(0.1 -0.1)">
       <defs>
        <path id="DejaVuSans-36" d="M 2113 2584 
Q 1688 2584 1439 2293 
Q 1191 2003 1191 1497 
Q 1191 994 1439 701 
Q 1688 409 2113 409 
Q 2538 409 2786 701 
Q 3034 994 3034 1497 
Q 3034 2003 2786 2293 
Q 2538 2584 2113 2584 
z
M 3366 4563 
L 3366 3988 
Q 3128 4100 2886 4159 
Q 2644 4219 2406 4219 
Q 1781 4219 1451 3797 
Q 1122 3375 1075 2522 
Q 1259 2794 1537 2939 
Q 1816 3084 2150 3084 
Q 2853 3084 3261 2657 
Q 3669 2231 3669 1497 
Q 3669 778 3244 343 
Q 2819 -91 2113 -91 
Q 1303 -91 875 529 
Q 447 1150 447 2328 
Q 447 3434 972 4092 
Q 1497 4750 2381 4750 
Q 2619 4750 2861 4703 
Q 3103 4656 3366 4563 
z
" transform="scale(0.015625)"/>
       </defs>
       <use xlink:href="#DejaVuSans-36"/>
      </g>
     </g>
    </g>
    <g id="text_7">
     <!-- $\alpha$ -->
     <g transform="translate(187.043624 202.316563) scale(0.1 -0.1)">
      <defs>
       <path id="DejaVuSans-Oblique-3b1" d="M 2619 1628 
L 2622 2350 
Q 2625 3088 2069 3091 
Q 1653 3094 1394 2747 
Q 1069 2319 959 1747 
Q 825 1059 994 731 
Q 1169 397 1547 397 
Q 1966 397 2319 1063 
L 2619 1628 
z
M 2166 3578 
Q 3141 3594 3128 2584 
Q 3128 2584 3616 3500 
L 4128 3500 
L 3119 1603 
L 3109 919 
Q 3109 766 3194 638 
Q 3291 488 3391 488 
L 3669 488 
L 3575 0 
L 3228 0 
Q 2934 0 2722 263 
Q 2622 394 2619 669 
Q 2416 334 2066 50 
Q 1900 -81 1453 -78 
Q 722 -72 456 397 
Q 184 884 353 1747 
Q 534 2675 1009 3097 
Q 1544 3569 2166 3578 
z
" transform="scale(0.015625)"/>
      </defs>
      <use xlink:href="#DejaVuSans-Oblique-3b1" transform="translate(0 0.84375)"/>
     </g>
    </g>
   </g>
   <g id="matplotlib.axis_2">
    <g id="ytick_1">
     <g id="line2d_13">
      <path d="M 74.432 164.288595 
L 306.255247 164.288595 
" clip-path="url(#p0ebc6702b3)" style="fill: none; stroke: #b0b0b0; stroke-width: 0.8; stroke-linecap: square"/>
     </g>
     <g id="line2d_14">
      <defs>
       <path id="mb366bc5f5f" d="M 0 0 
L -3.5 0 
" style="stroke: #000000; stroke-width: 0.8"/>
      </defs>
      <g>
       <use xlink:href="#mb366bc5f5f" x="74.432" y="164.288595" style="stroke: #000000; stroke-width: 0.8"/>
      </g>
     </g>
     <g id="text_8">
      <!-- −0.020 -->
      <g transform="translate(30.424188 168.087813) scale(0.1 -0.1)">
       <defs>
        <path id="DejaVuSans-2e" d="M 684 794 
L 1344 794 
L 1344 0 
L 684 0 
L 684 794 
z
" transform="scale(0.015625)"/>
       </defs>
       <use xlink:href="#DejaVuSans-2212"/>
       <use xlink:href="#DejaVuSans-30" x="83.789062"/>
       <use xlink:href="#DejaVuSans-2e" x="147.412109"/>
       <use xlink:href="#DejaVuSans-30" x="179.199219"/>
       <use xlink:href="#DejaVuSans-32" x="242.822266"/>
       <use xlink:href="#DejaVuSans-30" x="306.445312"/>
      </g>
     </g>
    </g>
    <g id="ytick_2">
     <g id="line2d_15">
      <path d="M 74.432 143.05685 
L 306.255247 143.05685 
" clip-path="url(#p0ebc6702b3)" style="fill: none; stroke: #b0b0b0; stroke-width: 0.8; stroke-linecap: square"/>
     </g>
     <g id="line2d_16">
      <g>
       <use xlink:href="#mb366bc5f5f" x="74.432" y="143.05685" style="stroke: #000000; stroke-width: 0.8"/>
      </g>
     </g>
     <g id="text_9">
      <!-- −0.015 -->
      <g transform="translate(30.424188 146.856068) scale(0.1 -0.1)">
       <defs>
        <path id="DejaVuSans-31" d="M 794 531 
L 1825 531 
L 1825 4091 
L 703 3866 
L 703 4441 
L 1819 4666 
L 2450 4666 
L 2450 531 
L 3481 531 
L 3481 0 
L 794 0 
L 794 531 
z
" transform="scale(0.015625)"/>
        <path id="DejaVuSans-35" d="M 691 4666 
L 3169 4666 
L 3169 4134 
L 1269 4134 
L 1269 2991 
Q 1406 3038 1543 3061 
Q 1681 3084 1819 3084 
Q 2600 3084 3056 2656 
Q 3513 2228 3513 1497 
Q 3513 744 3044 326 
Q 2575 -91 1722 -91 
Q 1428 -91 1123 -41 
Q 819 9 494 109 
L 494 744 
Q 775 591 1075 516 
Q 1375 441 1709 441 
Q 2250 441 2565 725 
Q 2881 1009 2881 1497 
Q 2881 1984 2565 2268 
Q 2250 2553 1709 2553 
Q 1456 2553 1204 2497 
Q 953 2441 691 2322 
L 691 4666 
z
" transform="scale(0.015625)"/>
       </defs>
       <use xlink:href="#DejaVuSans-2212"/>
       <use xlink:href="#DejaVuSans-30" x="83.789062"/>
       <use xlink:href="#DejaVuSans-2e" x="147.412109"/>
       <use xlink:href="#DejaVuSans-30" x="179.199219"/>
       <use xlink:href="#DejaVuSans-31" x="242.822266"/>
       <use xlink:href="#DejaVuSans-35" x="306.445312"/>
      </g>
     </g>
    </g>
    <g id="ytick_3">
     <g id="line2d_17">
      <path d="M 74.432 121.825105 
L 306.255247 121.825105 
" clip-path="url(#p0ebc6702b3)" style="fill: none; stroke: #b0b0b0; stroke-width: 0.8; stroke-linecap: square"/>
     </g>
     <g id="line2d_18">
      <g>
       <use xlink:href="#mb366bc5f5f" x="74.432" y="121.825105" style="stroke: #000000; stroke-width: 0.8"/>
      </g>
     </g>
     <g id="text_10">
      <!-- −0.010 -->
      <g transform="translate(30.424188 125.624323) scale(0.1 -0.1)">
       <use xlink:href="#DejaVuSans-2212"/>
       <use xlink:href="#DejaVuSans-30" x="83.789062"/>
       <use xlink:href="#DejaVuSans-2e" x="147.412109"/>
       <use xlink:href="#DejaVuSans-30" x="179.199219"/>
       <use xlink:href="#DejaVuSans-31" x="242.822266"/>
       <use xlink:href="#DejaVuSans-30" x="306.445312"/>
      </g>
     </g>
    </g>
    <g id="ytick_4">
     <g id="line2d_19">
      <path d="M 74.432 100.59336 
L 306.255247 100.59336 
" clip-path="url(#p0ebc6702b3)" style="fill: none; stroke: #b0b0b0; stroke-width: 0.8; stroke-linecap: square"/>
     </g>
     <g id="line2d_20">
      <g>
       <use xlink:href="#mb366bc5f5f" x="74.432" y="100.59336" style="stroke: #000000; stroke-width: 0.8"/>
      </g>
     </g>
     <g id="text_11">
      <!-- −0.005 -->
      <g transform="translate(30.424188 104.392578) scale(0.1 -0.1)">
       <use xlink:href="#DejaVuSans-2212"/>
       <use xlink:href="#DejaVuSans-30" x="83.789062"/>
       <use xlink:href="#DejaVuSans-2e" x="147.412109"/>
       <use xlink:href="#DejaVuSans-30" x="179.199219"/>
       <use xlink:href="#DejaVuSans-30" x="242.822266"/>
       <use xlink:href="#DejaVuSans-35" x="306.445312"/>
      </g>
     </g>
    </g>
    <g id="ytick_5">
     <g id="line2d_21">
      <path d="M 74.432 79.361615 
L 306.255247 79.361615 
" clip-path="url(#p0ebc6702b3)" style="fill: none; stroke: #b0b0b0; stroke-width: 0.8; stroke-linecap: square"/>
     </g>
     <g id="line2d_22">
      <g>
       <use xlink:href="#mb366bc5f5f" x="74.432" y="79.361615" style="stroke: #000000; stroke-width: 0.8"/>
      </g>
     </g>
     <g id="text_12">
      <!-- 0.000 -->
      <g transform="translate(38.803875 83.160834) scale(0.1 -0.1)">
       <use xlink:href="#DejaVuSans-30"/>
       <use xlink:href="#DejaVuSans-2e" x="63.623047"/>
       <use xlink:href="#DejaVuSans-30" x="95.410156"/>
       <use xlink:href="#DejaVuSans-30" x="159.033203"/>
       <use xlink:href="#DejaVuSans-30" x="222.65625"/>
      </g>
     </g>
    </g>
    <g id="ytick_6">
     <g id="line2d_23">
      <path d="M 74.432 58.12987 
L 306.255247 58.12987 
" clip-path="url(#p0ebc6702b3)" style="fill: none; stroke: #b0b0b0; stroke-width: 0.8; stroke-linecap: square"/>
     </g>
     <g id="line2d_24">
      <g>
       <use xlink:href="#mb366bc5f5f" x="74.432" y="58.12987" style="stroke: #000000; stroke-width: 0.8"/>
      </g>
     </g>
     <g id="text_13">
      <!-- 0.005 -->
      <g transform="translate(38.803875 61.929089) scale(0.1 -0.1)">
       <use xlink:href="#DejaVuSans-30"/>
       <use xlink:href="#DejaVuSans-2e" x="63.623047"/>
       <use xlink:href="#DejaVuSans-30" x="95.410156"/>
       <use xlink:href="#DejaVuSans-30" x="159.033203"/>
       <use xlink:href="#DejaVuSans-35" x="222.65625"/>
      </g>
     </g>
    </g>
    <g id="ytick_7">
     <g id="line2d_25">
      <path d="M 74.432 36.898125 
L 306.255247 36.898125 
" clip-path="url(#p0ebc6702b3)" style="fill: none; stroke: #b0b0b0; stroke-width: 0.8; stroke-linecap: square"/>
     </g>
     <g id="line2d_26">
      <g>
       <use xlink:href="#mb366bc5f5f" x="74.432" y="36.898125" style="stroke: #000000; stroke-width: 0.8"/>
      </g>
     </g>
     <g id="text_14">
      <!-- 0.010 -->
      <g transform="translate(38.803875 40.697344) scale(0.1 -0.1)">
       <use xlink:href="#DejaVuSans-30"/>
       <use xlink:href="#DejaVuSans-2e" x="63.623047"/>
       <use xlink:href="#DejaVuSans-30" x="95.410156"/>
       <use xlink:href="#DejaVuSans-31" x="159.033203"/>
       <use xlink:href="#DejaVuSans-30" x="222.65625"/>
      </g>
     </g>
    </g>
    <g id="ytick_8">
     <g id="line2d_27">
      <path d="M 74.432 15.66638 
L 306.255247 15.66638 
" clip-path="url(#p0ebc6702b3)" style="fill: none; stroke: #b0b0b0; stroke-width: 0.8; stroke-linecap: square"/>
     </g>
     <g id="line2d_28">
      <g>
       <use xlink:href="#mb366bc5f5f" x="74.432" y="15.66638" style="stroke: #000000; stroke-width: 0.8"/>
      </g>
     </g>
     <g id="text_15">
      <!-- 0.015 -->
      <g transform="translate(38.803875 19.465599) scale(0.1 -0.1)">
       <use xlink:href="#DejaVuSans-30"/>
       <use xlink:href="#DejaVuSans-2e" x="63.623047"/>
       <use xlink:href="#DejaVuSans-30" x="95.410156"/>
       <use xlink:href="#DejaVuSans-31" x="159.033203"/>
       <use xlink:href="#DejaVuSans-35" x="222.65625"/>
      </g>
     </g>
    </g>
    <g id="text_16">
     <!-- d$C_T = T / \rho n^2 D^4$ / d$\delta_e$ -->
     <g transform="translate(24.324188 141.17) rotate(-90) scale(0.1 -0.1)">
      <defs>
       <path id="DejaVuSans-64" d="M 2906 2969 
L 2906 4863 
L 3481 4863 
L 3481 0 
L 2906 0 
L 2906 525 
Q 2725 213 2448 61 
Q 2172 -91 1784 -91 
Q 1150 -91 751 415 
Q 353 922 353 1747 
Q 353 2572 751 3078 
Q 1150 3584 1784 3584 
Q 2172 3584 2448 3432 
Q 2725 3281 2906 2969 
z
M 947 1747 
Q 947 1113 1208 752 
Q 1469 391 1925 391 
Q 2381 391 2643 752 
Q 2906 1113 2906 1747 
Q 2906 2381 2643 2742 
Q 2381 3103 1925 3103 
Q 1469 3103 1208 2742 
Q 947 2381 947 1747 
z
" transform="scale(0.015625)"/>
       <path id="DejaVuSans-Oblique-43" d="M 4447 4306 
L 4319 3641 
Q 4019 3944 3683 4091 
Q 3347 4238 2956 4238 
Q 2422 4238 2017 3981 
Q 1613 3725 1319 3200 
Q 1131 2863 1032 2486 
Q 934 2109 934 1728 
Q 934 1091 1264 756 
Q 1594 422 2222 422 
Q 2656 422 3056 561 
Q 3456 700 3834 978 
L 3688 231 
Q 3316 72 2936 -9 
Q 2556 -91 2175 -91 
Q 1278 -91 773 396 
Q 269 884 269 1753 
Q 269 2309 461 2846 
Q 653 3384 1013 3828 
Q 1394 4300 1883 4525 
Q 2372 4750 3022 4750 
Q 3422 4750 3780 4639 
Q 4138 4528 4447 4306 
z
" transform="scale(0.015625)"/>
       <path id="DejaVuSans-Oblique-54" d="M 378 4666 
L 4325 4666 
L 4225 4134 
L 2559 4134 
L 1759 0 
L 1125 0 
L 1925 4134 
L 275 4134 
L 378 4666 
z
" transform="scale(0.015625)"/>
       <path id="DejaVuSans-3d" d="M 678 2906 
L 4684 2906 
L 4684 2381 
L 678 2381 
L 678 2906 
z
M 678 1631 
L 4684 1631 
L 4684 1100 
L 678 1100 
L 678 1631 
z
" transform="scale(0.015625)"/>
       <path id="DejaVuSans-2f" d="M 1625 4666 
L 2156 4666 
L 531 -594 
L 0 -594 
L 1625 4666 
z
" transform="scale(0.015625)"/>
       <path id="DejaVuSans-Oblique-3c1" d="M 1203 2875 
Q 1453 3194 1981 3475 
Q 2188 3584 2756 3584 
Q 3394 3584 3694 3078 
Q 3994 2572 3834 1747 
Q 3672 922 3175 415 
Q 2678 -91 2041 -91 
Q 1656 -91 1409 63 
Q 1163 213 1044 525 
L 681 -1331 
L 103 -1331 
L 697 1716 
Q 838 2438 1203 2875 
z
M 3238 1747 
Q 3359 2381 3169 2744 
Q 2978 3103 2522 3103 
Q 2066 3103 1734 2744 
Q 1403 2381 1281 1747 
Q 1156 1113 1347 750 
Q 1538 391 1994 391 
Q 2450 391 2781 750 
Q 3113 1113 3238 1747 
z
" transform="scale(0.015625)"/>
       <path id="DejaVuSans-Oblique-6e" d="M 3566 2113 
L 3156 0 
L 2578 0 
L 2988 2091 
Q 3016 2238 3031 2350 
Q 3047 2463 3047 2528 
Q 3047 2791 2881 2937 
Q 2716 3084 2419 3084 
Q 1956 3084 1622 2776 
Q 1288 2469 1184 1941 
L 800 0 
L 225 0 
L 903 3500 
L 1478 3500 
L 1363 2950 
Q 1603 3253 1940 3418 
Q 2278 3584 2650 3584 
Q 3113 3584 3367 3334 
Q 3622 3084 3622 2631 
Q 3622 2519 3608 2391 
Q 3594 2263 3566 2113 
z
" transform="scale(0.015625)"/>
       <path id="DejaVuSans-Oblique-44" d="M 1081 4666 
L 2438 4666 
Q 3519 4666 4070 4208 
Q 4622 3750 4622 2847 
Q 4622 2250 4412 1698 
Q 4203 1147 3834 769 
Q 3463 381 2891 190 
Q 2319 0 1538 0 
L 172 0 
L 1081 4666 
z
M 1613 4147 
L 909 519 
L 1734 519 
Q 2794 519 3375 1128 
Q 3956 1738 3956 2847 
Q 3956 3519 3581 3833 
Q 3206 4147 2406 4147 
L 1613 4147 
z
" transform="scale(0.015625)"/>
       <path id="DejaVuSans-20" transform="scale(0.015625)"/>
       <path id="DejaVuSans-Oblique-3b4" d="M 3472 4053 
Q 3197 4272 2450 4272 
Q 1659 4272 1588 3906 
Q 1531 3619 2328 3469 
Q 2953 3353 3253 3003 
Q 3616 2581 3447 1716 
Q 3284 888 2763 400 
Q 2238 -91 1488 -91 
Q 741 -91 406 400 
Q 72 888 241 1747 
Q 363 2384 891 2900 
Q 1097 3100 1353 3213 
Q 913 3459 1000 3900 
Q 1166 4750 2544 4750 
Q 3234 4750 3566 4531 
L 3472 4053 
z
M 1753 3056 
Q 1525 2966 1306 2738 
Q 969 2384 847 1747 
Q 722 1113 919 756 
Q 1119 397 1584 397 
Q 2044 397 2381 759 
Q 2722 1122 2838 1716 
Q 2956 2338 2731 2638 
Q 2491 2959 2103 2994 
Q 1906 3013 1753 3056 
z
" transform="scale(0.015625)"/>
       <path id="DejaVuSans-Oblique-65" d="M 3078 2063 
Q 3088 2113 3092 2166 
Q 3097 2219 3097 2272 
Q 3097 2653 2873 2875 
Q 2650 3097 2266 3097 
Q 1838 3097 1509 2826 
Q 1181 2556 1013 2059 
L 3078 2063 
z
M 3578 1613 
L 903 1613 
Q 884 1494 878 1425 
Q 872 1356 872 1306 
Q 872 872 1139 634 
Q 1406 397 1894 397 
Q 2269 397 2603 481 
Q 2938 566 3225 728 
L 3116 159 
Q 2806 34 2476 -28 
Q 2147 -91 1806 -91 
Q 1078 -91 686 257 
Q 294 606 294 1247 
Q 294 1794 489 2264 
Q 684 2734 1063 3103 
Q 1306 3334 1642 3459 
Q 1978 3584 2356 3584 
Q 2950 3584 3301 3228 
Q 3653 2872 3653 2272 
Q 3653 2128 3634 1964 
Q 3616 1800 3578 1613 
z
" transform="scale(0.015625)"/>
      </defs>
      <use xlink:href="#DejaVuSans-64" transform="translate(0 0.765625)"/>
      <use xlink:href="#DejaVuSans-Oblique-43" transform="translate(63.476562 0.765625)"/>
      <use xlink:href="#DejaVuSans-Oblique-54" transform="translate(133.300781 -15.640625) scale(0.7)"/>
      <use xlink:href="#DejaVuSans-3d" transform="translate(198.276367 0.765625)"/>
      <use xlink:href="#DejaVuSans-Oblique-54" transform="translate(301.547852 0.765625)"/>
      <use xlink:href="#DejaVuSans-2f" transform="translate(362.631836 0.765625)"/>
      <use xlink:href="#DejaVuSans-Oblique-3c1" transform="translate(396.323242 0.765625)"/>
      <use xlink:href="#DejaVuSans-Oblique-6e" transform="translate(459.799805 0.765625)"/>
      <use xlink:href="#DejaVuSans-32" transform="translate(527.828607 39.046875) scale(0.7)"/>
      <use xlink:href="#DejaVuSans-Oblique-44" transform="translate(575.099115 0.765625)"/>
      <use xlink:href="#DejaVuSans-34" transform="translate(659.117839 39.046875) scale(0.7)"/>
      <use xlink:href="#DejaVuSans-20" transform="translate(706.388346 0.765625)"/>
      <use xlink:href="#DejaVuSans-2f" transform="translate(738.175456 0.765625)"/>
      <use xlink:href="#DejaVuSans-20" transform="translate(771.866862 0.765625)"/>
      <use xlink:href="#DejaVuSans-64" transform="translate(803.653971 0.765625)"/>
      <use xlink:href="#DejaVuSans-Oblique-3b4" transform="translate(867.130534 0.765625)"/>
      <use xlink:href="#DejaVuSans-Oblique-65" transform="translate(928.312174 -15.640625) scale(0.7)"/>
     </g>
    </g>
   </g>
   <g id="line2d_29">
    <path d="M 84.96942 18.22 
L 87.098192 18.59099 
L 89.226964 18.960849 
L 91.355736 19.329578 
L 93.484507 19.697176 
L 95.613279 20.063644 
L 97.742051 20.428981 
L 99.870823 20.793187 
L 101.999595 21.156263 
L 104.128366 21.518208 
L 106.257138 21.879023 
L 108.38591 22.238707 
L 110.514682 22.597261 
L 112.643454 22.954683 
L 114.772225 23.310976 
L 116.900997 23.666137 
L 119.029769 24.020168 
L 121.158541 24.373069 
L 123.287312 24.724838 
L 125.416084 25.075478 
L 127.544856 25.424986 
L 129.673628 25.773364 
L 131.8024 26.120611 
L 133.931171 26.466728 
L 136.059943 26.811714 
L 138.188715 27.15557 
L 140.317487 27.498295 
L 142.446259 27.839889 
L 144.57503 28.180353 
L 146.703802 28.519686 
L 148.832574 28.857889 
L 150.961346 29.194961 
L 153.090117 29.530902 
L 155.218889 29.865713 
L 157.347661 30.199393 
L 159.476433 30.531943 
L 161.605205 30.863362 
L 163.733976 31.19365 
L 165.862748 31.522808 
L 167.99152 31.850835 
L 170.120292 32.177732 
L 172.249064 32.503498 
L 174.377835 32.828133 
L 176.506607 33.151638 
L 178.635379 33.474012 
L 180.764151 33.795256 
L 182.892922 34.115369 
L 185.021694 34.434351 
L 187.150466 34.752203 
L 189.279238 35.068924 
L 191.40801 35.384514 
L 193.536781 35.698974 
L 195.665553 36.012304 
L 197.794325 36.324503 
L 199.923097 36.635571 
L 202.051869 36.945508 
L 204.18064 37.254315 
L 206.309412 37.561992 
L 208.438184 37.868537 
L 210.566956 38.173952 
L 212.695727 38.478237 
L 214.824499 38.781391 
L 216.953271 39.083414 
L 219.082043 39.384307 
L 221.210815 39.684069 
L 223.339586 39.982701 
L 225.468358 40.280202 
L 227.59713 40.576572 
L 229.725902 40.871812 
L 231.854674 41.165921 
L 233.983445 41.458899 
L 236.112217 41.750747 
L 238.240989 42.041465 
L 240.369761 42.331051 
L 242.498532 42.619508 
L 244.627304 42.906833 
L 246.756076 43.193028 
L 248.884848 43.478092 
L 251.01362 43.762026 
L 253.142391 44.044829 
L 255.271163 44.326502 
L 257.399935 44.607044 
L 259.528707 44.886455 
L 261.657479 45.164736 
L 263.78625 45.441886 
L 265.915022 45.717905 
L 268.043794 45.992794 
L 270.172566 46.266553 
L 272.301337 46.53918 
L 274.430109 46.810678 
L 276.558881 47.081044 
L 278.687653 47.35028 
L 280.816425 47.618385 
L 282.945196 47.88536 
L 285.073968 48.151204 
L 287.20274 48.415918 
L 289.331512 48.679501 
L 291.460284 48.941953 
L 293.589055 49.203275 
L 295.717827 49.463466 
" clip-path="url(#p0ebc6702b3)" style="fill: none; stroke: #000080; stroke-width: 1.5; stroke-linecap: square"/>
   </g>
   <g id="line2d_30">
    <path d="M 84.96942 29.551839 
L 87.098192 30.021332 
L 89.226964 30.48924 
L 91.355736 30.955562 
L 93.484507 31.420299 
L 95.613279 31.883451 
L 97.742051 32.345017 
L 99.870823 32.804998 
L 101.999595 33.263394 
L 104.128366 33.720204 
L 106.257138 34.175428 
L 108.38591 34.629067 
L 110.514682 35.081121 
L 112.643454 35.53159 
L 114.772225 35.980473 
L 116.900997 36.42777 
L 119.029769 36.873482 
L 121.158541 37.317609 
L 123.287312 37.76015 
L 125.416084 38.201106 
L 127.544856 38.640477 
L 129.673628 39.078262 
L 131.8024 39.514462 
L 133.931171 39.949076 
L 136.059943 40.382105 
L 138.188715 40.813548 
L 140.317487 41.243407 
L 142.446259 41.671679 
L 144.57503 42.098367 
L 146.703802 42.523468 
L 148.832574 42.946985 
L 150.961346 43.368916 
L 153.090117 43.789262 
L 155.218889 44.208022 
L 157.347661 44.625197 
L 159.476433 45.040786 
L 161.605205 45.45479 
L 163.733976 45.867209 
L 165.862748 46.278042 
L 167.99152 46.68729 
L 170.120292 47.094952 
L 172.249064 47.501029 
L 174.377835 47.905521 
L 176.506607 48.308427 
L 178.635379 48.709748 
L 180.764151 49.109483 
L 182.892922 49.507633 
L 185.021694 49.904197 
L 187.150466 50.299176 
L 189.279238 50.69257 
L 191.40801 51.084378 
L 193.536781 51.474601 
L 195.665553 51.863239 
L 197.794325 52.250291 
L 199.923097 52.635758 
L 202.051869 53.019639 
L 204.18064 53.401935 
L 206.309412 53.782645 
L 208.438184 54.16177 
L 210.566956 54.53931 
L 212.695727 54.915264 
L 214.824499 55.289633 
L 216.953271 55.662416 
L 219.082043 56.033614 
L 221.210815 56.403227 
L 223.339586 56.771254 
L 225.468358 57.137696 
L 227.59713 57.502552 
L 229.725902 57.865823 
L 231.854674 58.227509 
L 233.983445 58.587609 
L 236.112217 58.946124 
L 238.240989 59.303053 
L 240.369761 59.658397 
L 242.498532 60.012156 
L 244.627304 60.364329 
L 246.756076 60.714916 
L 248.884848 61.063919 
L 251.01362 61.411336 
L 253.142391 61.757167 
L 255.271163 62.101413 
L 257.399935 62.444074 
L 259.528707 62.785149 
L 261.657479 63.124639 
L 263.78625 63.462543 
L 265.915022 63.798862 
L 268.043794 64.133596 
L 270.172566 64.466744 
L 272.301337 64.798307 
L 274.430109 65.128285 
L 276.558881 65.456677 
L 278.687653 65.783483 
L 280.816425 66.108704 
L 282.945196 66.43234 
L 285.073968 66.754391 
L 287.20274 67.074855 
L 289.331512 67.393735 
L 291.460284 67.711029 
L 293.589055 68.026738 
L 295.717827 68.340861 
" clip-path="url(#p0ebc6702b3)" style="fill: none; stroke: #0080ff; stroke-width: 1.5; stroke-linecap: square"/>
   </g>
   <g id="line2d_31">
    <path d="M 84.96942 42.984169 
L 87.098192 43.544745 
L 89.226964 44.10443 
L 91.355736 44.663224 
L 93.484507 45.221127 
L 95.613279 45.778139 
L 97.742051 46.334261 
L 99.870823 46.889491 
L 101.999595 47.44383 
L 104.128366 47.997279 
L 106.257138 48.549837 
L 108.38591 49.101503 
L 110.514682 49.652279 
L 112.643454 50.202164 
L 114.772225 50.751158 
L 116.900997 51.299262 
L 119.029769 51.846474 
L 121.158541 52.392795 
L 123.287312 52.938226 
L 125.416084 53.482765 
L 127.544856 54.026414 
L 129.673628 54.569172 
L 131.8024 55.111039 
L 133.931171 55.652015 
L 136.059943 56.1921 
L 138.188715 56.731294 
L 140.317487 57.269597 
L 142.446259 57.80701 
L 144.57503 58.343531 
L 146.703802 58.879162 
L 148.832574 59.413901 
L 150.961346 59.94775 
L 153.090117 60.480708 
L 155.218889 61.012775 
L 157.347661 61.543951 
L 159.476433 62.074236 
L 161.605205 62.60363 
L 163.733976 63.132134 
L 165.862748 63.659746 
L 167.99152 64.186468 
L 170.120292 64.712299 
L 172.249064 65.237238 
L 174.377835 65.761287 
L 176.506607 66.284445 
L 178.635379 66.806712 
L 180.764151 67.328088 
L 182.892922 67.848574 
L 185.021694 68.368168 
L 187.150466 68.886872 
L 189.279238 69.404684 
L 191.40801 69.921606 
L 193.536781 70.437637 
L 195.665553 70.952776 
L 197.794325 71.467025 
L 199.923097 71.980384 
L 202.051869 72.492851 
L 204.18064 73.004427 
L 206.309412 73.515112 
L 208.438184 74.024907 
L 210.566956 74.53381 
L 212.695727 75.041823 
L 214.824499 75.548945 
L 216.953271 76.055176 
L 219.082043 76.560516 
L 221.210815 77.064965 
L 223.339586 77.568523 
L 225.468358 78.07119 
L 227.59713 78.572967 
L 229.725902 79.073852 
L 231.854674 79.573847 
L 233.983445 80.07295 
L 236.112217 80.571163 
L 238.240989 81.068485 
L 240.369761 81.564916 
L 242.498532 82.060456 
L 244.627304 82.555105 
L 246.756076 83.048864 
L 248.884848 83.541731 
L 251.01362 84.033707 
L 253.142391 84.524793 
L 255.271163 85.014988 
L 257.399935 85.504291 
L 259.528707 85.992704 
L 261.657479 86.480226 
L 263.78625 86.966857 
L 265.915022 87.452598 
L 268.043794 87.937447 
L 270.172566 88.421405 
L 272.301337 88.904473 
L 274.430109 89.386649 
L 276.558881 89.867935 
L 278.687653 90.34833 
L 280.816425 90.827834 
L 282.945196 91.306447 
L 285.073968 91.784169 
L 287.20274 92.261 
L 289.331512 92.73694 
L 291.460284 93.211989 
L 293.589055 93.686148 
L 295.717827 94.159416 
" clip-path="url(#p0ebc6702b3)" style="fill: none; stroke: #7dff7a; stroke-width: 1.5; stroke-linecap: square"/>
   </g>
   <g id="line2d_32">
    <path d="M 84.96942 58.516992 
L 87.098192 59.16123 
L 89.226964 59.80642 
L 91.355736 60.452563 
L 93.484507 61.09966 
L 95.613279 61.747709 
L 97.742051 62.396711 
L 99.870823 63.046666 
L 101.999595 63.697574 
L 104.128366 64.349435 
L 106.257138 65.002249 
L 108.38591 65.656015 
L 110.514682 66.310735 
L 112.643454 66.966408 
L 114.772225 67.623033 
L 116.900997 68.280611 
L 119.029769 68.939143 
L 121.158541 69.598627 
L 123.287312 70.259064 
L 125.416084 70.920454 
L 127.544856 71.582797 
L 129.673628 72.246093 
L 131.8024 72.910342 
L 133.931171 73.575544 
L 136.059943 74.241699 
L 138.188715 74.908806 
L 140.317487 75.576867 
L 142.446259 76.24588 
L 144.57503 76.915847 
L 146.703802 77.586766 
L 148.832574 78.258638 
L 150.961346 78.931463 
L 153.090117 79.605241 
L 155.218889 80.279972 
L 157.347661 80.955656 
L 159.476433 81.632293 
L 161.605205 82.309883 
L 163.733976 82.988426 
L 165.862748 83.667921 
L 167.99152 84.34837 
L 170.120292 85.029771 
L 172.249064 85.712126 
L 174.377835 86.395433 
L 176.506607 87.079693 
L 178.635379 87.764906 
L 180.764151 88.451072 
L 182.892922 89.138191 
L 185.021694 89.826263 
L 187.150466 90.515288 
L 189.279238 91.205266 
L 191.40801 91.896196 
L 193.536781 92.58808 
L 195.665553 93.280916 
L 197.794325 93.974706 
L 199.923097 94.669448 
L 202.051869 95.365144 
L 204.18064 96.061792 
L 206.309412 96.759393 
L 208.438184 97.457947 
L 210.566956 98.157454 
L 212.695727 98.857914 
L 214.824499 99.559327 
L 216.953271 100.261692 
L 219.082043 100.965011 
L 221.210815 101.669283 
L 223.339586 102.374507 
L 225.468358 103.080684 
L 227.59713 103.787815 
L 229.725902 104.495898 
L 231.854674 105.204934 
L 233.983445 105.914923 
L 236.112217 106.625865 
L 238.240989 107.33776 
L 240.369761 108.050608 
L 242.498532 108.764409 
L 244.627304 109.479163 
L 246.756076 110.194869 
L 248.884848 110.911529 
L 251.01362 111.629141 
L 253.142391 112.347707 
L 255.271163 113.067225 
L 257.399935 113.787696 
L 259.528707 114.509121 
L 261.657479 115.231498 
L 263.78625 115.954828 
L 265.915022 116.679111 
L 268.043794 117.404346 
L 270.172566 118.130535 
L 272.301337 118.857677 
L 274.430109 119.585772 
L 276.558881 120.314819 
L 278.687653 121.04482 
L 280.816425 121.775773 
L 282.945196 122.507679 
L 285.073968 123.240538 
L 287.20274 123.974351 
L 289.331512 124.709116 
L 291.460284 125.444834 
L 293.589055 126.181505 
L 295.717827 126.919128 
" clip-path="url(#p0ebc6702b3)" style="fill: none; stroke: #ff9400; stroke-width: 1.5; stroke-linecap: square"/>
   </g>
   <g id="line2d_33">
    <path d="M 84.96942 76.150307 
L 87.098192 76.870785 
L 89.226964 77.59521 
L 91.355736 78.323581 
L 93.484507 79.055897 
L 95.613279 79.79216 
L 97.742051 80.532369 
L 99.870823 81.276523 
L 101.999595 82.024624 
L 104.128366 82.776671 
L 106.257138 83.532664 
L 108.38591 84.292603 
L 110.514682 85.056488 
L 112.643454 85.824319 
L 114.772225 86.596097 
L 116.900997 87.37182 
L 119.029769 88.151489 
L 121.158541 88.935104 
L 123.287312 89.722666 
L 125.416084 90.514173 
L 127.544856 91.309627 
L 129.673628 92.109027 
L 131.8024 92.912372 
L 133.931171 93.719664 
L 136.059943 94.530902 
L 138.188715 95.346086 
L 140.317487 96.165215 
L 142.446259 96.988291 
L 144.57503 97.815313 
L 146.703802 98.646281 
L 148.832574 99.481196 
L 150.961346 100.320056 
L 153.090117 101.162862 
L 155.218889 102.009614 
L 157.347661 102.860313 
L 159.476433 103.714957 
L 161.605205 104.573548 
L 163.733976 105.436084 
L 165.862748 106.302567 
L 167.99152 107.172995 
L 170.120292 108.04737 
L 172.249064 108.925691 
L 174.377835 109.807958 
L 176.506607 110.69417 
L 178.635379 111.584329 
L 180.764151 112.478434 
L 182.892922 113.376485 
L 185.021694 114.278483 
L 187.150466 115.184426 
L 189.279238 116.094315 
L 191.40801 117.00815 
L 193.536781 117.925932 
L 195.665553 118.847659 
L 197.794325 119.773332 
L 199.923097 120.702952 
L 202.051869 121.636517 
L 204.18064 122.574029 
L 206.309412 123.515487 
L 208.438184 124.460891 
L 210.566956 125.41024 
L 212.695727 126.363536 
L 214.824499 127.320778 
L 216.953271 128.281966 
L 219.082043 129.2471 
L 221.210815 130.21618 
L 223.339586 131.189206 
L 225.468358 132.166179 
L 227.59713 133.147097 
L 229.725902 134.131961 
L 231.854674 135.120772 
L 233.983445 136.113528 
L 236.112217 137.110231 
L 238.240989 138.110879 
L 240.369761 139.115474 
L 242.498532 140.124014 
L 244.627304 141.136501 
L 246.756076 142.152934 
L 248.884848 143.173313 
L 251.01362 144.197638 
L 253.142391 145.225909 
L 255.271163 146.258126 
L 257.399935 147.294289 
L 259.528707 148.334398 
L 261.657479 149.378453 
L 263.78625 150.426454 
L 265.915022 151.478402 
L 268.043794 152.534295 
L 270.172566 153.594134 
L 272.301337 154.65792 
L 274.430109 155.725651 
L 276.558881 156.797329 
L 278.687653 157.872953 
L 280.816425 158.952522 
L 282.945196 160.036038 
L 285.073968 161.1235 
L 287.20274 162.214908 
L 289.331512 163.310262 
L 291.460284 164.409562 
L 293.589055 165.512808 
L 295.717827 166.62 
" clip-path="url(#p0ebc6702b3)" style="fill: none; stroke: #800000; stroke-width: 1.5; stroke-linecap: square"/>
   </g>
   <g id="patch_3">
    <path d="M 74.432 174.04 
L 74.432 10.8 
" style="fill: none; stroke: #000000; stroke-width: 0.8; stroke-linejoin: miter; stroke-linecap: square"/>
   </g>
   <g id="patch_4">
    <path d="M 306.255247 174.04 
L 306.255247 10.8 
" style="fill: none; stroke: #000000; stroke-width: 0.8; stroke-linejoin: miter; stroke-linecap: square"/>
   </g>
   <g id="patch_5">
    <path d="M 74.432 174.04 
L 306.255247 174.04 
" style="fill: none; stroke: #000000; stroke-width: 0.8; stroke-linejoin: miter; stroke-linecap: square"/>
   </g>
   <g id="patch_6">
    <path d="M 74.432 10.8 
L 306.255247 10.8 
" style="fill: none; stroke: #000000; stroke-width: 0.8; stroke-linejoin: miter; stroke-linecap: square"/>
   </g>
   <g id="legend_1">
    <g id="patch_7">
     <path d="M 315.255247 162.878 
L 420.455247 162.878 
Q 422.455247 162.878 422.455247 160.878 
L 422.455247 88.385812 
Q 422.455247 86.385812 420.455247 86.385812 
L 315.255247 86.385812 
Q 313.255247 86.385812 313.255247 88.385812 
L 313.255247 160.878 
Q 313.255247 162.878 315.255247 162.878 
z
" style="fill: #4d4d4d; opacity: 0.5; stroke: #4d4d4d; stroke-linejoin: miter"/>
    </g>
    <g id="patch_8">
     <path d="M 313.255247 160.878 
L 418.455247 160.878 
Q 420.455247 160.878 420.455247 158.878 
L 420.455247 86.385812 
Q 420.455247 84.385812 418.455247 84.385812 
L 313.255247 84.385812 
Q 311.255247 84.385812 311.255247 86.385812 
L 311.255247 158.878 
Q 311.255247 160.878 313.255247 160.878 
z
" style="fill: #ffffff; stroke: #cccccc; stroke-linejoin: miter"/>
    </g>
    <g id="line2d_34">
     <path d="M 315.255247 92.48425 
L 325.255247 92.48425 
L 335.255247 92.48425 
" style="fill: none; stroke: #000080; stroke-width: 1.5; stroke-linecap: square"/>
    </g>
    <g id="text_17">
     <!-- $\delta_e = 0$, $J = 1.60$ -->
     <g transform="translate(343.255247 95.98425) scale(0.1 -0.1)">
      <defs>
       <path id="DejaVuSans-2c" d="M 750 794 
L 1409 794 
L 1409 256 
L 897 -744 
L 494 -744 
L 750 256 
L 750 794 
z
" transform="scale(0.015625)"/>
       <path id="DejaVuSans-Oblique-4a" d="M 1069 4666 
L 1703 4666 
L 856 325 
Q 691 -522 298 -901 
Q -94 -1281 -800 -1281 
L -1050 -1281 
L -947 -750 
L -750 -750 
Q -328 -750 -109 -509 
Q 109 -269 225 325 
L 1069 4666 
z
" transform="scale(0.015625)"/>
      </defs>
      <use xlink:href="#DejaVuSans-Oblique-3b4" transform="translate(0 0.78125)"/>
      <use xlink:href="#DejaVuSans-Oblique-65" transform="translate(61.181641 -15.625) scale(0.7)"/>
      <use xlink:href="#DejaVuSans-3d" transform="translate(126.464844 0.78125)"/>
      <use xlink:href="#DejaVuSans-30" transform="translate(229.736328 0.78125)"/>
      <use xlink:href="#DejaVuSans-2c" transform="translate(293.359375 0.78125)"/>
      <use xlink:href="#DejaVuSans-20" transform="translate(325.146484 0.78125)"/>
      <use xlink:href="#DejaVuSans-Oblique-4a" transform="translate(356.933594 0.78125)"/>
      <use xlink:href="#DejaVuSans-3d" transform="translate(405.908203 0.78125)"/>
      <use xlink:href="#DejaVuSans-31" transform="translate(509.179688 0.78125)"/>
      <use xlink:href="#DejaVuSans-2e" transform="translate(572.802734 0.78125)"/>
      <use xlink:href="#DejaVuSans-36" transform="translate(604.589844 0.78125)"/>
      <use xlink:href="#DejaVuSans-30" transform="translate(668.212891 0.78125)"/>
     </g>
    </g>
    <g id="line2d_35">
     <path d="M 315.255247 107.182688 
L 325.255247 107.182688 
L 335.255247 107.182688 
" style="fill: none; stroke: #0080ff; stroke-width: 1.5; stroke-linecap: square"/>
    </g>
    <g id="text_18">
     <!-- $\delta_e = 0$, $J = 1.80$ -->
     <g transform="translate(343.255247 110.682688) scale(0.1 -0.1)">
      <defs>
       <path id="DejaVuSans-38" d="M 2034 2216 
Q 1584 2216 1326 1975 
Q 1069 1734 1069 1313 
Q 1069 891 1326 650 
Q 1584 409 2034 409 
Q 2484 409 2743 651 
Q 3003 894 3003 1313 
Q 3003 1734 2745 1975 
Q 2488 2216 2034 2216 
z
M 1403 2484 
Q 997 2584 770 2862 
Q 544 3141 544 3541 
Q 544 4100 942 4425 
Q 1341 4750 2034 4750 
Q 2731 4750 3128 4425 
Q 3525 4100 3525 3541 
Q 3525 3141 3298 2862 
Q 3072 2584 2669 2484 
Q 3125 2378 3379 2068 
Q 3634 1759 3634 1313 
Q 3634 634 3220 271 
Q 2806 -91 2034 -91 
Q 1263 -91 848 271 
Q 434 634 434 1313 
Q 434 1759 690 2068 
Q 947 2378 1403 2484 
z
M 1172 3481 
Q 1172 3119 1398 2916 
Q 1625 2713 2034 2713 
Q 2441 2713 2670 2916 
Q 2900 3119 2900 3481 
Q 2900 3844 2670 4047 
Q 2441 4250 2034 4250 
Q 1625 4250 1398 4047 
Q 1172 3844 1172 3481 
z
" transform="scale(0.015625)"/>
      </defs>
      <use xlink:href="#DejaVuSans-Oblique-3b4" transform="translate(0 0.78125)"/>
      <use xlink:href="#DejaVuSans-Oblique-65" transform="translate(61.181641 -15.625) scale(0.7)"/>
      <use xlink:href="#DejaVuSans-3d" transform="translate(126.464844 0.78125)"/>
      <use xlink:href="#DejaVuSans-30" transform="translate(229.736328 0.78125)"/>
      <use xlink:href="#DejaVuSans-2c" transform="translate(293.359375 0.78125)"/>
      <use xlink:href="#DejaVuSans-20" transform="translate(325.146484 0.78125)"/>
      <use xlink:href="#DejaVuSans-Oblique-4a" transform="translate(356.933594 0.78125)"/>
      <use xlink:href="#DejaVuSans-3d" transform="translate(405.908203 0.78125)"/>
      <use xlink:href="#DejaVuSans-31" transform="translate(509.179688 0.78125)"/>
      <use xlink:href="#DejaVuSans-2e" transform="translate(572.802734 0.78125)"/>
      <use xlink:href="#DejaVuSans-38" transform="translate(601.964844 0.78125)"/>
      <use xlink:href="#DejaVuSans-30" transform="translate(665.587891 0.78125)"/>
     </g>
    </g>
    <g id="line2d_36">
     <path d="M 315.255247 121.881125 
L 325.255247 121.881125 
L 335.255247 121.881125 
" style="fill: none; stroke: #7dff7a; stroke-width: 1.5; stroke-linecap: square"/>
    </g>
    <g id="text_19">
     <!-- $\delta_e = 0$, $J = 2.00$ -->
     <g transform="translate(343.255247 125.381125) scale(0.1 -0.1)">
      <use xlink:href="#DejaVuSans-Oblique-3b4" transform="translate(0 0.78125)"/>
      <use xlink:href="#DejaVuSans-Oblique-65" transform="translate(61.181641 -15.625) scale(0.7)"/>
      <use xlink:href="#DejaVuSans-3d" transform="translate(126.464844 0.78125)"/>
      <use xlink:href="#DejaVuSans-30" transform="translate(229.736328 0.78125)"/>
      <use xlink:href="#DejaVuSans-2c" transform="translate(293.359375 0.78125)"/>
      <use xlink:href="#DejaVuSans-20" transform="translate(325.146484 0.78125)"/>
      <use xlink:href="#DejaVuSans-Oblique-4a" transform="translate(356.933594 0.78125)"/>
      <use xlink:href="#DejaVuSans-3d" transform="translate(405.908203 0.78125)"/>
      <use xlink:href="#DejaVuSans-32" transform="translate(509.179688 0.78125)"/>
      <use xlink:href="#DejaVuSans-2e" transform="translate(572.802734 0.78125)"/>
      <use xlink:href="#DejaVuSans-30" transform="translate(604.589844 0.78125)"/>
      <use xlink:href="#DejaVuSans-30" transform="translate(668.212891 0.78125)"/>
     </g>
    </g>
    <g id="line2d_37">
     <path d="M 315.255247 136.579563 
L 325.255247 136.579563 
L 335.255247 136.579563 
" style="fill: none; stroke: #ff9400; stroke-width: 1.5; stroke-linecap: square"/>
    </g>
    <g id="text_20">
     <!-- $\delta_e = 0$, $J = 2.20$ -->
     <g transform="translate(343.255247 140.079563) scale(0.1 -0.1)">
      <use xlink:href="#DejaVuSans-Oblique-3b4" transform="translate(0 0.78125)"/>
      <use xlink:href="#DejaVuSans-Oblique-65" transform="translate(61.181641 -15.625) scale(0.7)"/>
      <use xlink:href="#DejaVuSans-3d" transform="translate(126.464844 0.78125)"/>
      <use xlink:href="#DejaVuSans-30" transform="translate(229.736328 0.78125)"/>
      <use xlink:href="#DejaVuSans-2c" transform="translate(293.359375 0.78125)"/>
      <use xlink:href="#DejaVuSans-20" transform="translate(325.146484 0.78125)"/>
      <use xlink:href="#DejaVuSans-Oblique-4a" transform="translate(356.933594 0.78125)"/>
      <use xlink:href="#DejaVuSans-3d" transform="translate(405.908203 0.78125)"/>
      <use xlink:href="#DejaVuSans-32" transform="translate(509.179688 0.78125)"/>
      <use xlink:href="#DejaVuSans-2e" transform="translate(572.802734 0.78125)"/>
      <use xlink:href="#DejaVuSans-32" transform="translate(599.089844 0.78125)"/>
      <use xlink:href="#DejaVuSans-30" transform="translate(662.712891 0.78125)"/>
     </g>
    </g>
    <g id="line2d_38">
     <path d="M 315.255247 151.278 
L 325.255247 151.278 
L 335.255247 151.278 
" style="fill: none; stroke: #800000; stroke-width: 1.5; stroke-linecap: square"/>
    </g>
    <g id="text_21">
     <!-- $\delta_e = 0$, $J = 2.40$ -->
     <g transform="translate(343.255247 154.778) scale(0.1 -0.1)">
      <use xlink:href="#DejaVuSans-Oblique-3b4" transform="translate(0 0.78125)"/>
      <use xlink:href="#DejaVuSans-Oblique-65" transform="translate(61.181641 -15.625) scale(0.7)"/>
      <use xlink:href="#DejaVuSans-3d" transform="translate(126.464844 0.78125)"/>
      <use xlink:href="#DejaVuSans-30" transform="translate(229.736328 0.78125)"/>
      <use xlink:href="#DejaVuSans-2c" transform="translate(293.359375 0.78125)"/>
      <use xlink:href="#DejaVuSans-20" transform="translate(325.146484 0.78125)"/>
      <use xlink:href="#DejaVuSans-Oblique-4a" transform="translate(356.933594 0.78125)"/>
      <use xlink:href="#DejaVuSans-3d" transform="translate(405.908203 0.78125)"/>
      <use xlink:href="#DejaVuSans-32" transform="translate(509.179688 0.78125)"/>
      <use xlink:href="#DejaVuSans-2e" transform="translate(572.802734 0.78125)"/>
      <use xlink:href="#DejaVuSans-34" transform="translate(604.589844 0.78125)"/>
      <use xlink:href="#DejaVuSans-30" transform="translate(668.212891 0.78125)"/>
     </g>
    </g>
   </g>
  </g>
 </g>
 <defs>
  <clipPath id="p0ebc6702b3">
   <rect x="74.432" y="10.8" width="231.823247" height="163.24"/>
  </clipPath>
 </defs>
</svg>
