<?xml version="1.0" encoding="utf-8" standalone="no"?>
<!DOCTYPE svg PUBLIC "-//W3C//DTD SVG 1.1//EN"
  "http://www.w3.org/Graphics/SVG/1.1/DTD/svg11.dtd">
<svg xmlns:xlink="http://www.w3.org/1999/xlink" width="432pt" height="216pt" viewBox="0 0 432 216" xmlns="http://www.w3.org/2000/svg" version="1.1">
 <metadata>
  <rdf:RDF xmlns:dc="http://purl.org/dc/elements/1.1/" xmlns:cc="http://creativecommons.org/ns#" xmlns:rdf="http://www.w3.org/1999/02/22-rdf-syntax-ns#">
   <cc:Work>
    <dc:type rdf:resource="http://purl.org/dc/dcmitype/StillImage"/>
    <dc:date>2025-03-31T00:02:35.004531</dc:date>
    <dc:format>image/svg+xml</dc:format>
    <dc:creator>
     <cc:Agent>
      <dc:title>Matplotlib v3.9.2, https://matplotlib.org/</dc:title>
     </cc:Agent>
    </dc:creator>
   </cc:Work>
  </rdf:RDF>
 </metadata>
 <defs>
  <style type="text/css">*{stroke-linejoin: round; stroke-linecap: butt}</style>
 </defs>
 <g id="figure_1">
  <g id="patch_1">
   <path d="M 0 216 
L 432 216 
L 432 0 
L 0 0 
z
" style="fill: #ffffff"/>
  </g>
  <g id="axes_1">
   <g id="patch_2">
    <path d="M 66.062 174.04 
L 306.255247 174.04 
L 306.255247 10.8 
L 66.062 10.8 
z
" style="fill: #ffffff"/>
   </g>
   <g id="matplotlib.axis_1">
    <g id="xtick_1">
     <g id="line2d_1">
      <path d="M 76.979875 174.04 
L 76.979875 10.8 
" clip-path="url(#pf057b039cc)" style="fill: none; stroke: #b0b0b0; stroke-width: 0.8; stroke-linecap: square"/>
     </g>
     <g id="line2d_2">
      <defs>
       <path id="m822e4248bc" d="M 0 0 
L 0 3.5 
" style="stroke: #000000; stroke-width: 0.8"/>
      </defs>
      <g>
       <use xlink:href="#m822e4248bc" x="76.979875" y="174.04" style="stroke: #000000; stroke-width: 0.8"/>
      </g>
     </g>
     <g id="text_1">
      <!-- −4 -->
      <g transform="translate(69.608781 188.638438) scale(0.1 -0.1)">
       <defs>
        <path id="DejaVuSans-2212" d="M 678 2272 
L 4684 2272 
L 4684 1741 
L 678 1741 
L 678 2272 
z
" transform="scale(0.015625)"/>
        <path id="DejaVuSans-34" d="M 2419 4116 
L 825 1625 
L 2419 1625 
L 2419 4116 
z
M 2253 4666 
L 3047 4666 
L 3047 1625 
L 3713 1625 
L 3713 1100 
L 3047 1100 
L 3047 0 
L 2419 0 
L 2419 1100 
L 313 1100 
L 313 1709 
L 2253 4666 
z
" transform="scale(0.015625)"/>
       </defs>
       <use xlink:href="#DejaVuSans-2212"/>
       <use xlink:href="#DejaVuSans-34" x="83.789062"/>
      </g>
     </g>
    </g>
    <g id="xtick_2">
     <g id="line2d_3">
      <path d="M 116.681238 174.04 
L 116.681238 10.8 
" clip-path="url(#pf057b039cc)" style="fill: none; stroke: #b0b0b0; stroke-width: 0.8; stroke-linecap: square"/>
     </g>
     <g id="line2d_4">
      <g>
       <use xlink:href="#m822e4248bc" x="116.681238" y="174.04" style="stroke: #000000; stroke-width: 0.8"/>
      </g>
     </g>
     <g id="text_2">
      <!-- −2 -->
      <g transform="translate(109.310144 188.638438) scale(0.1 -0.1)">
       <defs>
        <path id="DejaVuSans-32" d="M 1228 531 
L 3431 531 
L 3431 0 
L 469 0 
L 469 531 
Q 828 903 1448 1529 
Q 2069 2156 2228 2338 
Q 2531 2678 2651 2914 
Q 2772 3150 2772 3378 
Q 2772 3750 2511 3984 
Q 2250 4219 1831 4219 
Q 1534 4219 1204 4116 
Q 875 4013 500 3803 
L 500 4441 
Q 881 4594 1212 4672 
Q 1544 4750 1819 4750 
Q 2544 4750 2975 4387 
Q 3406 4025 3406 3419 
Q 3406 3131 3298 2873 
Q 3191 2616 2906 2266 
Q 2828 2175 2409 1742 
Q 1991 1309 1228 531 
z
" transform="scale(0.015625)"/>
       </defs>
       <use xlink:href="#DejaVuSans-2212"/>
       <use xlink:href="#DejaVuSans-32" x="83.789062"/>
      </g>
     </g>
    </g>
    <g id="xtick_3">
     <g id="line2d_5">
      <path d="M 156.382601 174.04 
L 156.382601 10.8 
" clip-path="url(#pf057b039cc)" style="fill: none; stroke: #b0b0b0; stroke-width: 0.8; stroke-linecap: square"/>
     </g>
     <g id="line2d_6">
      <g>
       <use xlink:href="#m822e4248bc" x="156.382601" y="174.04" style="stroke: #000000; stroke-width: 0.8"/>
      </g>
     </g>
     <g id="text_3">
      <!-- 0 -->
      <g transform="translate(153.201351 188.638438) scale(0.1 -0.1)">
       <defs>
        <path id="DejaVuSans-30" d="M 2034 4250 
Q 1547 4250 1301 3770 
Q 1056 3291 1056 2328 
Q 1056 1369 1301 889 
Q 1547 409 2034 409 
Q 2525 409 2770 889 
Q 3016 1369 3016 2328 
Q 3016 3291 2770 3770 
Q 2525 4250 2034 4250 
z
M 2034 4750 
Q 2819 4750 3233 4129 
Q 3647 3509 3647 2328 
Q 3647 1150 3233 529 
Q 2819 -91 2034 -91 
Q 1250 -91 836 529 
Q 422 1150 422 2328 
Q 422 3509 836 4129 
Q 1250 4750 2034 4750 
z
" transform="scale(0.015625)"/>
       </defs>
       <use xlink:href="#DejaVuSans-30"/>
      </g>
     </g>
    </g>
    <g id="xtick_4">
     <g id="line2d_7">
      <path d="M 196.083965 174.04 
L 196.083965 10.8 
" clip-path="url(#pf057b039cc)" style="fill: none; stroke: #b0b0b0; stroke-width: 0.8; stroke-linecap: square"/>
     </g>
     <g id="line2d_8">
      <g>
       <use xlink:href="#m822e4248bc" x="196.083965" y="174.04" style="stroke: #000000; stroke-width: 0.8"/>
      </g>
     </g>
     <g id="text_4">
      <!-- 2 -->
      <g transform="translate(192.902715 188.638438) scale(0.1 -0.1)">
       <use xlink:href="#DejaVuSans-32"/>
      </g>
     </g>
    </g>
    <g id="xtick_5">
     <g id="line2d_9">
      <path d="M 235.785328 174.04 
L 235.785328 10.8 
" clip-path="url(#pf057b039cc)" style="fill: none; stroke: #b0b0b0; stroke-width: 0.8; stroke-linecap: square"/>
     </g>
     <g id="line2d_10">
      <g>
       <use xlink:href="#m822e4248bc" x="235.785328" y="174.04" style="stroke: #000000; stroke-width: 0.8"/>
      </g>
     </g>
     <g id="text_5">
      <!-- 4 -->
      <g transform="translate(232.604078 188.638438) scale(0.1 -0.1)">
       <use xlink:href="#DejaVuSans-34"/>
      </g>
     </g>
    </g>
    <g id="xtick_6">
     <g id="line2d_11">
      <path d="M 275.486691 174.04 
L 275.486691 10.8 
" clip-path="url(#pf057b039cc)" style="fill: none; stroke: #b0b0b0; stroke-width: 0.8; stroke-linecap: square"/>
     </g>
     <g id="line2d_12">
      <g>
       <use xlink:href="#m822e4248bc" x="275.486691" y="174.04" style="stroke: #000000; stroke-width: 0.8"/>
      </g>
     </g>
     <g id="text_6">
      <!-- 6 -->
      <g transform="translate(272.305441 188.638438) scale(0.1 -0.1)">
       <defs>
        <path id="DejaVuSans-36" d="M 2113 2584 
Q 1688 2584 1439 2293 
Q 1191 2003 1191 1497 
Q 1191 994 1439 701 
Q 1688 409 2113 409 
Q 2538 409 2786 701 
Q 3034 994 3034 1497 
Q 3034 2003 2786 2293 
Q 2538 2584 2113 2584 
z
M 3366 4563 
L 3366 3988 
Q 3128 4100 2886 4159 
Q 2644 4219 2406 4219 
Q 1781 4219 1451 3797 
Q 1122 3375 1075 2522 
Q 1259 2794 1537 2939 
Q 1816 3084 2150 3084 
Q 2853 3084 3261 2657 
Q 3669 2231 3669 1497 
Q 3669 778 3244 343 
Q 2819 -91 2113 -91 
Q 1303 -91 875 529 
Q 447 1150 447 2328 
Q 447 3434 972 4092 
Q 1497 4750 2381 4750 
Q 2619 4750 2861 4703 
Q 3103 4656 3366 4563 
z
" transform="scale(0.015625)"/>
       </defs>
       <use xlink:href="#DejaVuSans-36"/>
      </g>
     </g>
    </g>
    <g id="text_7">
     <!-- $\alpha$ -->
     <g transform="translate(182.858624 202.316563) scale(0.1 -0.1)">
      <defs>
       <path id="DejaVuSans-Oblique-3b1" d="M 2619 1628 
L 2622 2350 
Q 2625 3088 2069 3091 
Q 1653 3094 1394 2747 
Q 1069 2319 959 1747 
Q 825 1059 994 731 
Q 1169 397 1547 397 
Q 1966 397 2319 1063 
L 2619 1628 
z
M 2166 3578 
Q 3141 3594 3128 2584 
Q 3128 2584 3616 3500 
L 4128 3500 
L 3119 1603 
L 3109 919 
Q 3109 766 3194 638 
Q 3291 488 3391 488 
L 3669 488 
L 3575 0 
L 3228 0 
Q 2934 0 2722 263 
Q 2622 394 2619 669 
Q 2416 334 2066 50 
Q 1900 -81 1453 -78 
Q 722 -72 456 397 
Q 184 884 353 1747 
Q 534 2675 1009 3097 
Q 1544 3569 2166 3578 
z
" transform="scale(0.015625)"/>
      </defs>
      <use xlink:href="#DejaVuSans-Oblique-3b1" transform="translate(0 0.84375)"/>
     </g>
    </g>
   </g>
   <g id="matplotlib.axis_2">
    <g id="ytick_1">
     <g id="line2d_13">
      <path d="M 66.062 139.787653 
L 306.255247 139.787653 
" clip-path="url(#pf057b039cc)" style="fill: none; stroke: #b0b0b0; stroke-width: 0.8; stroke-linecap: square"/>
     </g>
     <g id="line2d_14">
      <defs>
       <path id="m7b2e57fd9a" d="M 0 0 
L -3.5 0 
" style="stroke: #000000; stroke-width: 0.8"/>
      </defs>
      <g>
       <use xlink:href="#m7b2e57fd9a" x="66.062" y="139.787653" style="stroke: #000000; stroke-width: 0.8"/>
      </g>
     </g>
     <g id="text_8">
      <!-- 0.001 -->
      <g transform="translate(30.433875 143.586872) scale(0.1 -0.1)">
       <defs>
        <path id="DejaVuSans-2e" d="M 684 794 
L 1344 794 
L 1344 0 
L 684 0 
L 684 794 
z
" transform="scale(0.015625)"/>
        <path id="DejaVuSans-31" d="M 794 531 
L 1825 531 
L 1825 4091 
L 703 3866 
L 703 4441 
L 1819 4666 
L 2450 4666 
L 2450 531 
L 3481 531 
L 3481 0 
L 794 0 
L 794 531 
z
" transform="scale(0.015625)"/>
       </defs>
       <use xlink:href="#DejaVuSans-30"/>
       <use xlink:href="#DejaVuSans-2e" x="63.623047"/>
       <use xlink:href="#DejaVuSans-30" x="95.410156"/>
       <use xlink:href="#DejaVuSans-30" x="159.033203"/>
       <use xlink:href="#DejaVuSans-31" x="222.65625"/>
      </g>
     </g>
    </g>
    <g id="ytick_2">
     <g id="line2d_15">
      <path d="M 66.062 101.685609 
L 306.255247 101.685609 
" clip-path="url(#pf057b039cc)" style="fill: none; stroke: #b0b0b0; stroke-width: 0.8; stroke-linecap: square"/>
     </g>
     <g id="line2d_16">
      <g>
       <use xlink:href="#m7b2e57fd9a" x="66.062" y="101.685609" style="stroke: #000000; stroke-width: 0.8"/>
      </g>
     </g>
     <g id="text_9">
      <!-- 0.002 -->
      <g transform="translate(30.433875 105.484828) scale(0.1 -0.1)">
       <use xlink:href="#DejaVuSans-30"/>
       <use xlink:href="#DejaVuSans-2e" x="63.623047"/>
       <use xlink:href="#DejaVuSans-30" x="95.410156"/>
       <use xlink:href="#DejaVuSans-30" x="159.033203"/>
       <use xlink:href="#DejaVuSans-32" x="222.65625"/>
      </g>
     </g>
    </g>
    <g id="ytick_3">
     <g id="line2d_17">
      <path d="M 66.062 63.583565 
L 306.255247 63.583565 
" clip-path="url(#pf057b039cc)" style="fill: none; stroke: #b0b0b0; stroke-width: 0.8; stroke-linecap: square"/>
     </g>
     <g id="line2d_18">
      <g>
       <use xlink:href="#m7b2e57fd9a" x="66.062" y="63.583565" style="stroke: #000000; stroke-width: 0.8"/>
      </g>
     </g>
     <g id="text_10">
      <!-- 0.003 -->
      <g transform="translate(30.433875 67.382784) scale(0.1 -0.1)">
       <defs>
        <path id="DejaVuSans-33" d="M 2597 2516 
Q 3050 2419 3304 2112 
Q 3559 1806 3559 1356 
Q 3559 666 3084 287 
Q 2609 -91 1734 -91 
Q 1441 -91 1130 -33 
Q 819 25 488 141 
L 488 750 
Q 750 597 1062 519 
Q 1375 441 1716 441 
Q 2309 441 2620 675 
Q 2931 909 2931 1356 
Q 2931 1769 2642 2001 
Q 2353 2234 1838 2234 
L 1294 2234 
L 1294 2753 
L 1863 2753 
Q 2328 2753 2575 2939 
Q 2822 3125 2822 3475 
Q 2822 3834 2567 4026 
Q 2313 4219 1838 4219 
Q 1578 4219 1281 4162 
Q 984 4106 628 3988 
L 628 4550 
Q 988 4650 1302 4700 
Q 1616 4750 1894 4750 
Q 2613 4750 3031 4423 
Q 3450 4097 3450 3541 
Q 3450 3153 3228 2886 
Q 3006 2619 2597 2516 
z
" transform="scale(0.015625)"/>
       </defs>
       <use xlink:href="#DejaVuSans-30"/>
       <use xlink:href="#DejaVuSans-2e" x="63.623047"/>
       <use xlink:href="#DejaVuSans-30" x="95.410156"/>
       <use xlink:href="#DejaVuSans-30" x="159.033203"/>
       <use xlink:href="#DejaVuSans-33" x="222.65625"/>
      </g>
     </g>
    </g>
    <g id="ytick_4">
     <g id="line2d_19">
      <path d="M 66.062 25.481521 
L 306.255247 25.481521 
" clip-path="url(#pf057b039cc)" style="fill: none; stroke: #b0b0b0; stroke-width: 0.8; stroke-linecap: square"/>
     </g>
     <g id="line2d_20">
      <g>
       <use xlink:href="#m7b2e57fd9a" x="66.062" y="25.481521" style="stroke: #000000; stroke-width: 0.8"/>
      </g>
     </g>
     <g id="text_11">
      <!-- 0.004 -->
      <g transform="translate(30.433875 29.28074) scale(0.1 -0.1)">
       <use xlink:href="#DejaVuSans-30"/>
       <use xlink:href="#DejaVuSans-2e" x="63.623047"/>
       <use xlink:href="#DejaVuSans-30" x="95.410156"/>
       <use xlink:href="#DejaVuSans-30" x="159.033203"/>
       <use xlink:href="#DejaVuSans-34" x="222.65625"/>
      </g>
     </g>
    </g>
    <g id="text_12">
     <!-- d$C_T = T / \rho n^2 D^4$ / d$\alpha$ -->
     <g transform="translate(24.333875 139.12) rotate(-90) scale(0.1 -0.1)">
      <defs>
       <path id="DejaVuSans-64" d="M 2906 2969 
L 2906 4863 
L 3481 4863 
L 3481 0 
L 2906 0 
L 2906 525 
Q 2725 213 2448 61 
Q 2172 -91 1784 -91 
Q 1150 -91 751 415 
Q 353 922 353 1747 
Q 353 2572 751 3078 
Q 1150 3584 1784 3584 
Q 2172 3584 2448 3432 
Q 2725 3281 2906 2969 
z
M 947 1747 
Q 947 1113 1208 752 
Q 1469 391 1925 391 
Q 2381 391 2643 752 
Q 2906 1113 2906 1747 
Q 2906 2381 2643 2742 
Q 2381 3103 1925 3103 
Q 1469 3103 1208 2742 
Q 947 2381 947 1747 
z
" transform="scale(0.015625)"/>
       <path id="DejaVuSans-Oblique-43" d="M 4447 4306 
L 4319 3641 
Q 4019 3944 3683 4091 
Q 3347 4238 2956 4238 
Q 2422 4238 2017 3981 
Q 1613 3725 1319 3200 
Q 1131 2863 1032 2486 
Q 934 2109 934 1728 
Q 934 1091 1264 756 
Q 1594 422 2222 422 
Q 2656 422 3056 561 
Q 3456 700 3834 978 
L 3688 231 
Q 3316 72 2936 -9 
Q 2556 -91 2175 -91 
Q 1278 -91 773 396 
Q 269 884 269 1753 
Q 269 2309 461 2846 
Q 653 3384 1013 3828 
Q 1394 4300 1883 4525 
Q 2372 4750 3022 4750 
Q 3422 4750 3780 4639 
Q 4138 4528 4447 4306 
z
" transform="scale(0.015625)"/>
       <path id="DejaVuSans-Oblique-54" d="M 378 4666 
L 4325 4666 
L 4225 4134 
L 2559 4134 
L 1759 0 
L 1125 0 
L 1925 4134 
L 275 4134 
L 378 4666 
z
" transform="scale(0.015625)"/>
       <path id="DejaVuSans-3d" d="M 678 2906 
L 4684 2906 
L 4684 2381 
L 678 2381 
L 678 2906 
z
M 678 1631 
L 4684 1631 
L 4684 1100 
L 678 1100 
L 678 1631 
z
" transform="scale(0.015625)"/>
       <path id="DejaVuSans-2f" d="M 1625 4666 
L 2156 4666 
L 531 -594 
L 0 -594 
L 1625 4666 
z
" transform="scale(0.015625)"/>
       <path id="DejaVuSans-Oblique-3c1" d="M 1203 2875 
Q 1453 3194 1981 3475 
Q 2188 3584 2756 3584 
Q 3394 3584 3694 3078 
Q 3994 2572 3834 1747 
Q 3672 922 3175 415 
Q 2678 -91 2041 -91 
Q 1656 -91 1409 63 
Q 1163 213 1044 525 
L 681 -1331 
L 103 -1331 
L 697 1716 
Q 838 2438 1203 2875 
z
M 3238 1747 
Q 3359 2381 3169 2744 
Q 2978 3103 2522 3103 
Q 2066 3103 1734 2744 
Q 1403 2381 1281 1747 
Q 1156 1113 1347 750 
Q 1538 391 1994 391 
Q 2450 391 2781 750 
Q 3113 1113 3238 1747 
z
" transform="scale(0.015625)"/>
       <path id="DejaVuSans-Oblique-6e" d="M 3566 2113 
L 3156 0 
L 2578 0 
L 2988 2091 
Q 3016 2238 3031 2350 
Q 3047 2463 3047 2528 
Q 3047 2791 2881 2937 
Q 2716 3084 2419 3084 
Q 1956 3084 1622 2776 
Q 1288 2469 1184 1941 
L 800 0 
L 225 0 
L 903 3500 
L 1478 3500 
L 1363 2950 
Q 1603 3253 1940 3418 
Q 2278 3584 2650 3584 
Q 3113 3584 3367 3334 
Q 3622 3084 3622 2631 
Q 3622 2519 3608 2391 
Q 3594 2263 3566 2113 
z
" transform="scale(0.015625)"/>
       <path id="DejaVuSans-Oblique-44" d="M 1081 4666 
L 2438 4666 
Q 3519 4666 4070 4208 
Q 4622 3750 4622 2847 
Q 4622 2250 4412 1698 
Q 4203 1147 3834 769 
Q 3463 381 2891 190 
Q 2319 0 1538 0 
L 172 0 
L 1081 4666 
z
M 1613 4147 
L 909 519 
L 1734 519 
Q 2794 519 3375 1128 
Q 3956 1738 3956 2847 
Q 3956 3519 3581 3833 
Q 3206 4147 2406 4147 
L 1613 4147 
z
" transform="scale(0.015625)"/>
       <path id="DejaVuSans-20" transform="scale(0.015625)"/>
      </defs>
      <use xlink:href="#DejaVuSans-64" transform="translate(0 0.765625)"/>
      <use xlink:href="#DejaVuSans-Oblique-43" transform="translate(63.476562 0.765625)"/>
      <use xlink:href="#DejaVuSans-Oblique-54" transform="translate(133.300781 -15.640625) scale(0.7)"/>
      <use xlink:href="#DejaVuSans-3d" transform="translate(198.276367 0.765625)"/>
      <use xlink:href="#DejaVuSans-Oblique-54" transform="translate(301.547852 0.765625)"/>
      <use xlink:href="#DejaVuSans-2f" transform="translate(362.631836 0.765625)"/>
      <use xlink:href="#DejaVuSans-Oblique-3c1" transform="translate(396.323242 0.765625)"/>
      <use xlink:href="#DejaVuSans-Oblique-6e" transform="translate(459.799805 0.765625)"/>
      <use xlink:href="#DejaVuSans-32" transform="translate(527.828607 39.046875) scale(0.7)"/>
      <use xlink:href="#DejaVuSans-Oblique-44" transform="translate(575.099115 0.765625)"/>
      <use xlink:href="#DejaVuSans-34" transform="translate(659.117839 39.046875) scale(0.7)"/>
      <use xlink:href="#DejaVuSans-20" transform="translate(706.388346 0.765625)"/>
      <use xlink:href="#DejaVuSans-2f" transform="translate(738.175456 0.765625)"/>
      <use xlink:href="#DejaVuSans-20" transform="translate(771.866862 0.765625)"/>
      <use xlink:href="#DejaVuSans-64" transform="translate(803.653971 0.765625)"/>
      <use xlink:href="#DejaVuSans-Oblique-3b1" transform="translate(867.130534 0.765625)"/>
     </g>
    </g>
   </g>
   <g id="line2d_21">
    <path d="M 76.979875 166.62 
L 79.185506 163.505608 
L 81.391137 160.451237 
L 83.596769 157.456885 
L 85.8024 154.522554 
L 88.008031 151.648243 
L 90.213663 148.833951 
L 92.419294 146.07968 
L 94.624925 143.385429 
L 96.830556 140.751197 
L 99.036188 138.176986 
L 101.241819 135.662795 
L 103.44745 133.208624 
L 105.653082 130.814473 
L 107.858713 128.480342 
L 110.064344 126.206231 
L 112.269976 123.99214 
L 114.475607 121.838069 
L 116.681238 119.744018 
L 118.886869 117.709987 
L 121.092501 115.735976 
L 123.298132 113.821986 
L 125.503763 111.968015 
L 127.709395 110.174064 
L 129.915026 108.440133 
L 132.120657 106.766223 
L 134.326288 105.152332 
L 136.53192 103.598462 
L 138.737551 102.104611 
L 140.943182 100.670781 
L 143.148814 99.29697 
L 145.354445 97.98318 
L 147.560076 96.729409 
L 149.765707 95.535659 
L 151.971339 94.401929 
L 154.17697 93.328219 
L 156.382601 92.314528 
L 158.588233 91.360858 
L 160.793864 90.467208 
L 162.999495 89.633578 
L 165.205126 88.859968 
L 167.410758 88.146378 
L 169.616389 87.492808 
L 171.82202 86.899258 
L 174.027652 86.365728 
L 176.233283 85.892218 
L 178.438914 85.478728 
L 180.644545 85.125259 
L 182.850177 84.831809 
L 185.055808 84.598379 
L 187.261439 84.424969 
L 189.467071 84.31158 
L 191.672702 84.25821 
L 193.878333 84.264861 
L 196.083965 84.331531 
L 198.289596 84.458222 
L 200.495227 84.644932 
L 202.700858 84.891663 
L 204.90649 85.198413 
L 207.112121 85.565184 
L 209.317752 85.991975 
L 211.523384 86.478785 
L 213.729015 87.025616 
L 215.934646 87.632467 
L 218.140277 88.299338 
L 220.345909 89.026229 
L 222.55154 89.81314 
L 224.757171 90.660071 
L 226.962803 91.567022 
L 229.168434 92.533993 
L 231.374065 93.560984 
L 233.579696 94.647995 
L 235.785328 95.795026 
L 237.990959 97.002077 
L 240.19659 98.269149 
L 242.402222 99.59624 
L 244.607853 100.983351 
L 246.813484 102.430483 
L 249.019115 103.937634 
L 251.224747 105.504805 
L 253.430378 107.131997 
L 255.636009 108.819208 
L 257.841641 110.56644 
L 260.047272 112.373691 
L 262.252903 114.240963 
L 264.458534 116.168255 
L 266.664166 118.155566 
L 268.869797 120.202898 
L 271.075428 122.31025 
L 273.28106 124.477622 
L 275.486691 126.705014 
L 277.692322 128.992425 
L 279.897954 131.339857 
L 282.103585 133.747309 
L 284.309216 136.214781 
L 286.514847 138.742273 
L 288.720479 141.329785 
L 290.92611 143.977318 
L 293.131741 146.68487 
L 295.337373 149.452442 
" clip-path="url(#pf057b039cc)" style="fill: none; stroke: #000080; stroke-width: 1.5; stroke-linecap: square"/>
   </g>
   <g id="line2d_22">
    <path d="M 76.979875 123.64172 
L 79.185506 120.521079 
L 81.391137 117.460458 
L 83.596769 114.459857 
L 85.8024 111.519276 
L 88.008031 108.638715 
L 90.213663 105.818174 
L 92.419294 103.057653 
L 94.624925 100.357152 
L 96.830556 97.716671 
L 99.036188 95.136211 
L 101.241819 92.61577 
L 103.44745 90.155349 
L 105.653082 87.754948 
L 107.858713 85.414568 
L 110.064344 83.134207 
L 112.269976 80.913866 
L 114.475607 78.753546 
L 116.681238 76.653245 
L 118.886869 74.612965 
L 121.092501 72.632705 
L 123.298132 70.712464 
L 125.503763 68.852244 
L 127.709395 67.052043 
L 129.915026 65.311863 
L 132.120657 63.631703 
L 134.326288 62.011563 
L 136.53192 60.451443 
L 138.737551 58.951343 
L 140.943182 57.511262 
L 143.148814 56.131202 
L 145.354445 54.811162 
L 147.560076 53.551142 
L 149.765707 52.351142 
L 151.971339 51.211163 
L 154.17697 50.131203 
L 156.382601 49.111263 
L 158.588233 48.151343 
L 160.793864 47.251443 
L 162.999495 46.411564 
L 165.205126 45.631704 
L 167.410758 44.911864 
L 169.616389 44.252045 
L 171.82202 43.652245 
L 174.027652 43.112466 
L 176.233283 42.632706 
L 178.438914 42.212967 
L 180.644545 41.853247 
L 182.850177 41.553548 
L 185.055808 41.313869 
L 187.261439 41.13421 
L 189.467071 41.01457 
L 191.672702 40.954951 
L 193.878333 40.955352 
L 196.083965 41.015773 
L 198.289596 41.136214 
L 200.495227 41.316675 
L 202.700858 41.557156 
L 204.90649 41.857657 
L 207.112121 42.218178 
L 209.317752 42.638719 
L 211.523384 43.11928 
L 213.729015 43.659861 
L 215.934646 44.260462 
L 218.140277 44.921084 
L 220.345909 45.641725 
L 222.55154 46.422386 
L 224.757171 47.263068 
L 226.962803 48.163769 
L 229.168434 49.12449 
L 231.374065 50.145232 
L 233.579696 51.225993 
L 235.785328 52.366775 
L 237.990959 53.567577 
L 240.19659 54.828398 
L 242.402222 56.14924 
L 244.607853 57.530102 
L 246.813484 58.970983 
L 249.019115 60.471885 
L 251.224747 62.032807 
L 253.430378 63.653749 
L 255.636009 65.334711 
L 257.841641 67.075693 
L 260.047272 68.876695 
L 262.252903 70.737717 
L 264.458534 72.658759 
L 266.664166 74.639821 
L 268.869797 76.680903 
L 271.075428 78.782005 
L 273.28106 80.943127 
L 275.486691 83.16427 
L 277.692322 85.445432 
L 279.897954 87.786614 
L 282.103585 90.187816 
L 284.309216 92.649039 
L 286.514847 95.170281 
L 288.720479 97.751544 
L 290.92611 100.392826 
L 293.131741 103.094129 
L 295.337373 105.855451 
" clip-path="url(#pf057b039cc)" style="fill: none; stroke: #0080ff; stroke-width: 1.5; stroke-linecap: square"/>
   </g>
   <g id="line2d_23">
    <path d="M 76.979875 92.925837 
L 79.185506 89.987121 
L 81.391137 87.108426 
L 83.596769 84.28975 
L 85.8024 81.531095 
L 88.008031 78.832459 
L 90.213663 76.193844 
L 92.419294 73.615248 
L 94.624925 71.096673 
L 96.830556 68.638118 
L 99.036188 66.239582 
L 101.241819 63.901067 
L 103.44745 61.622572 
L 105.653082 59.404097 
L 107.858713 57.245642 
L 110.064344 55.147207 
L 112.269976 53.108792 
L 114.475607 51.130397 
L 116.681238 49.212022 
L 118.886869 47.353667 
L 121.092501 45.555332 
L 123.298132 43.817017 
L 125.503763 42.138722 
L 127.709395 40.520447 
L 129.915026 38.962192 
L 132.120657 37.463958 
L 134.326288 36.025743 
L 136.53192 34.647548 
L 138.737551 33.329374 
L 140.943182 32.071219 
L 143.148814 30.873085 
L 145.354445 29.73497 
L 147.560076 28.656876 
L 149.765707 27.638801 
L 151.971339 26.680747 
L 154.17697 25.782713 
L 156.382601 24.944698 
L 158.588233 24.166704 
L 160.793864 23.44873 
L 162.999495 22.790776 
L 165.205126 22.192842 
L 167.410758 21.654927 
L 169.616389 21.177033 
L 171.82202 20.759159 
L 174.027652 20.401305 
L 176.233283 20.103471 
L 178.438914 19.865657 
L 180.644545 19.687864 
L 182.850177 19.57009 
L 185.055808 19.512336 
L 187.261439 19.514602 
L 189.467071 19.576888 
L 191.672702 19.699195 
L 193.878333 19.881521 
L 196.083965 20.123867 
L 198.289596 20.426234 
L 200.495227 20.78862 
L 202.700858 21.211027 
L 204.90649 21.693453 
L 207.112121 22.2359 
L 209.317752 22.838367 
L 211.523384 23.500853 
L 213.729015 24.22336 
L 215.934646 25.005887 
L 218.140277 25.848433 
L 220.345909 26.751 
L 222.55154 27.713587 
L 224.757171 28.736194 
L 226.962803 29.818821 
L 229.168434 30.961468 
L 231.374065 32.164135 
L 233.579696 33.426822 
L 235.785328 34.749529 
L 237.990959 36.132256 
L 240.19659 37.575003 
L 242.402222 39.07777 
L 244.607853 40.640558 
L 246.813484 42.263365 
L 249.019115 43.946192 
L 251.224747 45.68904 
L 253.430378 47.491907 
L 255.636009 49.354794 
L 257.841641 51.277702 
L 260.047272 53.260629 
L 262.252903 55.303577 
L 264.458534 57.406544 
L 266.664166 59.569532 
L 268.869797 61.79254 
L 271.075428 64.075567 
L 273.28106 66.418615 
L 275.486691 68.821683 
L 277.692322 71.284771 
L 279.897954 73.807878 
L 282.103585 76.391006 
L 284.309216 79.034154 
L 286.514847 81.737322 
L 288.720479 84.50051 
L 290.92611 87.323718 
L 293.131741 90.206946 
L 295.337373 93.150194 
" clip-path="url(#pf057b039cc)" style="fill: none; stroke: #7dff7a; stroke-width: 1.5; stroke-linecap: square"/>
   </g>
   <g id="line2d_24">
    <path d="M 76.979875 74.47235 
L 79.185506 71.903735 
L 81.391137 69.39514 
L 83.596769 66.946566 
L 85.8024 64.558011 
L 88.008031 62.229476 
L 90.213663 59.960961 
L 92.419294 57.752466 
L 94.624925 55.603991 
L 96.830556 53.515537 
L 99.036188 51.487102 
L 101.241819 49.518688 
L 103.44745 47.610293 
L 105.653082 45.761918 
L 107.858713 43.973564 
L 110.064344 42.245229 
L 112.269976 40.576915 
L 114.475607 38.968621 
L 116.681238 37.420346 
L 118.886869 35.932092 
L 121.092501 34.503858 
L 123.298132 33.135643 
L 125.503763 31.827449 
L 127.709395 30.579275 
L 129.915026 29.391121 
L 132.120657 28.262987 
L 134.326288 27.194873 
L 136.53192 26.186779 
L 138.737551 25.238705 
L 140.943182 24.350651 
L 143.148814 23.522617 
L 145.354445 22.754603 
L 147.560076 22.046609 
L 149.765707 21.398636 
L 151.971339 20.810682 
L 154.17697 20.282748 
L 156.382601 19.814835 
L 158.588233 19.406941 
L 160.793864 19.059067 
L 162.999495 18.771214 
L 165.205126 18.54338 
L 167.410758 18.375567 
L 169.616389 18.267773 
L 171.82202 18.22 
L 174.027652 18.232247 
L 176.233283 18.304513 
L 178.438914 18.4368 
L 180.644545 18.629107 
L 182.850177 18.881434 
L 185.055808 19.19378 
L 187.261439 19.566147 
L 189.467071 19.998534 
L 191.672702 20.490941 
L 193.878333 21.043368 
L 196.083965 21.655815 
L 198.289596 22.328282 
L 200.495227 23.060769 
L 202.700858 23.853276 
L 204.90649 24.705804 
L 207.112121 25.618351 
L 209.317752 26.590918 
L 211.523384 27.623505 
L 213.729015 28.716113 
L 215.934646 29.86874 
L 218.140277 31.081388 
L 220.345909 32.354055 
L 222.55154 33.686742 
L 224.757171 35.07945 
L 226.962803 36.532178 
L 229.168434 38.044925 
L 231.374065 39.617693 
L 233.579696 41.25048 
L 235.785328 42.943288 
L 237.990959 44.696116 
L 240.19659 46.508964 
L 242.402222 48.381832 
L 244.607853 50.314719 
L 246.813484 52.307627 
L 249.019115 54.360555 
L 251.224747 56.473503 
L 253.430378 58.646471 
L 255.636009 60.879459 
L 257.841641 63.172467 
L 260.047272 65.525496 
L 262.252903 67.938544 
L 264.458534 70.411612 
L 266.664166 72.9447 
L 268.869797 75.537808 
L 271.075428 78.190937 
L 273.28106 80.904085 
L 275.486691 83.677254 
L 277.692322 86.510442 
L 279.897954 89.40365 
L 282.103585 92.356879 
L 284.309216 95.370127 
L 286.514847 98.443396 
L 288.720479 101.576685 
L 290.92611 104.769993 
L 293.131741 108.023322 
L 295.337373 111.336671 
" clip-path="url(#pf057b039cc)" style="fill: none; stroke: #ff9400; stroke-width: 1.5; stroke-linecap: square"/>
   </g>
   <g id="line2d_25">
    <path d="M 76.979875 68.28126 
L 79.185506 66.270921 
L 81.391137 64.320602 
L 83.596769 62.430303 
L 85.8024 60.600023 
L 88.008031 58.829764 
L 90.213663 57.119525 
L 92.419294 55.469306 
L 94.624925 53.879107 
L 96.830556 52.348928 
L 99.036188 50.878769 
L 101.241819 49.468631 
L 103.44745 48.118512 
L 105.653082 46.828413 
L 107.858713 45.598334 
L 110.064344 44.428276 
L 112.269976 43.318237 
L 114.475607 42.268218 
L 116.681238 41.27822 
L 118.886869 40.348241 
L 121.092501 39.478283 
L 123.298132 38.668344 
L 125.503763 37.918426 
L 127.709395 37.228527 
L 129.915026 36.598649 
L 132.120657 36.028791 
L 134.326288 35.518952 
L 136.53192 35.069134 
L 138.737551 34.679336 
L 140.943182 34.349558 
L 143.148814 34.0798 
L 145.354445 33.870062 
L 147.560076 33.720343 
L 149.765707 33.630645 
L 151.971339 33.600967 
L 154.17697 33.63131 
L 156.382601 33.721672 
L 158.588233 33.872054 
L 160.793864 34.082456 
L 162.999495 34.352878 
L 165.205126 34.68332 
L 167.410758 35.073783 
L 169.616389 35.524265 
L 171.82202 36.034767 
L 174.027652 36.60529 
L 176.233283 37.235832 
L 178.438914 37.926395 
L 180.644545 38.676977 
L 182.850177 39.48758 
L 185.055808 40.358202 
L 187.261439 41.288845 
L 189.467071 42.279508 
L 191.672702 43.33019 
L 193.878333 44.440893 
L 196.083965 45.611616 
L 198.289596 46.842359 
L 200.495227 48.133122 
L 202.700858 49.483904 
L 204.90649 50.894707 
L 207.112121 52.36553 
L 209.317752 53.896373 
L 211.523384 55.487236 
L 213.729015 57.13812 
L 215.934646 58.849023 
L 218.140277 60.619946 
L 220.345909 62.450889 
L 222.55154 64.341852 
L 224.757171 66.292836 
L 226.962803 68.303839 
L 229.168434 70.374862 
L 231.374065 72.505906 
L 233.579696 74.696969 
L 235.785328 76.948053 
L 237.990959 79.259156 
L 240.19659 81.63028 
L 242.402222 84.061423 
L 244.607853 86.552587 
L 246.813484 89.10377 
L 249.019115 91.714974 
L 251.224747 94.386198 
L 253.430378 97.117442 
L 255.636009 99.908705 
L 257.841641 102.759989 
L 260.047272 105.671293 
L 262.252903 108.642617 
L 264.458534 111.673961 
L 266.664166 114.765325 
L 268.869797 117.916709 
L 271.075428 121.128113 
L 273.28106 124.399537 
L 275.486691 127.730982 
L 277.692322 131.122446 
L 279.897954 134.57393 
L 282.103585 138.085434 
L 284.309216 141.656959 
L 286.514847 145.288503 
L 288.720479 148.980067 
L 290.92611 152.731652 
L 293.131741 156.543256 
L 295.337373 160.414881 
" clip-path="url(#pf057b039cc)" style="fill: none; stroke: #800000; stroke-width: 1.5; stroke-linecap: square"/>
   </g>
   <g id="patch_3">
    <path d="M 66.062 174.04 
L 66.062 10.8 
" style="fill: none; stroke: #000000; stroke-width: 0.8; stroke-linejoin: miter; stroke-linecap: square"/>
   </g>
   <g id="patch_4">
    <path d="M 306.255247 174.04 
L 306.255247 10.8 
" style="fill: none; stroke: #000000; stroke-width: 0.8; stroke-linejoin: miter; stroke-linecap: square"/>
   </g>
   <g id="patch_5">
    <path d="M 66.062 174.04 
L 306.255247 174.04 
" style="fill: none; stroke: #000000; stroke-width: 0.8; stroke-linejoin: miter; stroke-linecap: square"/>
   </g>
   <g id="patch_6">
    <path d="M 66.062 10.8 
L 306.255247 10.8 
" style="fill: none; stroke: #000000; stroke-width: 0.8; stroke-linejoin: miter; stroke-linecap: square"/>
   </g>
   <g id="legend_1">
    <g id="patch_7">
     <path d="M 315.255247 162.878 
L 420.455247 162.878 
Q 422.455247 162.878 422.455247 160.878 
L 422.455247 88.385812 
Q 422.455247 86.385812 420.455247 86.385812 
L 315.255247 86.385812 
Q 313.255247 86.385812 313.255247 88.385812 
L 313.255247 160.878 
Q 313.255247 162.878 315.255247 162.878 
z
" style="fill: #4d4d4d; opacity: 0.5; stroke: #4d4d4d; stroke-linejoin: miter"/>
    </g>
    <g id="patch_8">
     <path d="M 313.255247 160.878 
L 418.455247 160.878 
Q 420.455247 160.878 420.455247 158.878 
L 420.455247 86.385812 
Q 420.455247 84.385812 418.455247 84.385812 
L 313.255247 84.385812 
Q 311.255247 84.385812 311.255247 86.385812 
L 311.255247 158.878 
Q 311.255247 160.878 313.255247 160.878 
z
" style="fill: #ffffff; stroke: #cccccc; stroke-linejoin: miter"/>
    </g>
    <g id="line2d_26">
     <path d="M 315.255247 92.48425 
L 325.255247 92.48425 
L 335.255247 92.48425 
" style="fill: none; stroke: #000080; stroke-width: 1.5; stroke-linecap: square"/>
    </g>
    <g id="text_13">
     <!-- $\delta_e = 0$, $J = 1.60$ -->
     <g transform="translate(343.255247 95.98425) scale(0.1 -0.1)">
      <defs>
       <path id="DejaVuSans-Oblique-3b4" d="M 3472 4053 
Q 3197 4272 2450 4272 
Q 1659 4272 1588 3906 
Q 1531 3619 2328 3469 
Q 2953 3353 3253 3003 
Q 3616 2581 3447 1716 
Q 3284 888 2763 400 
Q 2238 -91 1488 -91 
Q 741 -91 406 400 
Q 72 888 241 1747 
Q 363 2384 891 2900 
Q 1097 3100 1353 3213 
Q 913 3459 1000 3900 
Q 1166 4750 2544 4750 
Q 3234 4750 3566 4531 
L 3472 4053 
z
M 1753 3056 
Q 1525 2966 1306 2738 
Q 969 2384 847 1747 
Q 722 1113 919 756 
Q 1119 397 1584 397 
Q 2044 397 2381 759 
Q 2722 1122 2838 1716 
Q 2956 2338 2731 2638 
Q 2491 2959 2103 2994 
Q 1906 3013 1753 3056 
z
" transform="scale(0.015625)"/>
       <path id="DejaVuSans-Oblique-65" d="M 3078 2063 
Q 3088 2113 3092 2166 
Q 3097 2219 3097 2272 
Q 3097 2653 2873 2875 
Q 2650 3097 2266 3097 
Q 1838 3097 1509 2826 
Q 1181 2556 1013 2059 
L 3078 2063 
z
M 3578 1613 
L 903 1613 
Q 884 1494 878 1425 
Q 872 1356 872 1306 
Q 872 872 1139 634 
Q 1406 397 1894 397 
Q 2269 397 2603 481 
Q 2938 566 3225 728 
L 3116 159 
Q 2806 34 2476 -28 
Q 2147 -91 1806 -91 
Q 1078 -91 686 257 
Q 294 606 294 1247 
Q 294 1794 489 2264 
Q 684 2734 1063 3103 
Q 1306 3334 1642 3459 
Q 1978 3584 2356 3584 
Q 2950 3584 3301 3228 
Q 3653 2872 3653 2272 
Q 3653 2128 3634 1964 
Q 3616 1800 3578 1613 
z
" transform="scale(0.015625)"/>
       <path id="DejaVuSans-2c" d="M 750 794 
L 1409 794 
L 1409 256 
L 897 -744 
L 494 -744 
L 750 256 
L 750 794 
z
" transform="scale(0.015625)"/>
       <path id="DejaVuSans-Oblique-4a" d="M 1069 4666 
L 1703 4666 
L 856 325 
Q 691 -522 298 -901 
Q -94 -1281 -800 -1281 
L -1050 -1281 
L -947 -750 
L -750 -750 
Q -328 -750 -109 -509 
Q 109 -269 225 325 
L 1069 4666 
z
" transform="scale(0.015625)"/>
      </defs>
      <use xlink:href="#DejaVuSans-Oblique-3b4" transform="translate(0 0.78125)"/>
      <use xlink:href="#DejaVuSans-Oblique-65" transform="translate(61.181641 -15.625) scale(0.7)"/>
      <use xlink:href="#DejaVuSans-3d" transform="translate(126.464844 0.78125)"/>
      <use xlink:href="#DejaVuSans-30" transform="translate(229.736328 0.78125)"/>
      <use xlink:href="#DejaVuSans-2c" transform="translate(293.359375 0.78125)"/>
      <use xlink:href="#DejaVuSans-20" transform="translate(325.146484 0.78125)"/>
      <use xlink:href="#DejaVuSans-Oblique-4a" transform="translate(356.933594 0.78125)"/>
      <use xlink:href="#DejaVuSans-3d" transform="translate(405.908203 0.78125)"/>
      <use xlink:href="#DejaVuSans-31" transform="translate(509.179688 0.78125)"/>
      <use xlink:href="#DejaVuSans-2e" transform="translate(572.802734 0.78125)"/>
      <use xlink:href="#DejaVuSans-36" transform="translate(604.589844 0.78125)"/>
      <use xlink:href="#DejaVuSans-30" transform="translate(668.212891 0.78125)"/>
     </g>
    </g>
    <g id="line2d_27">
     <path d="M 315.255247 107.182688 
L 325.255247 107.182688 
L 335.255247 107.182688 
" style="fill: none; stroke: #0080ff; stroke-width: 1.5; stroke-linecap: square"/>
    </g>
    <g id="text_14">
     <!-- $\delta_e = 0$, $J = 1.80$ -->
     <g transform="translate(343.255247 110.682688) scale(0.1 -0.1)">
      <defs>
       <path id="DejaVuSans-38" d="M 2034 2216 
Q 1584 2216 1326 1975 
Q 1069 1734 1069 1313 
Q 1069 891 1326 650 
Q 1584 409 2034 409 
Q 2484 409 2743 651 
Q 3003 894 3003 1313 
Q 3003 1734 2745 1975 
Q 2488 2216 2034 2216 
z
M 1403 2484 
Q 997 2584 770 2862 
Q 544 3141 544 3541 
Q 544 4100 942 4425 
Q 1341 4750 2034 4750 
Q 2731 4750 3128 4425 
Q 3525 4100 3525 3541 
Q 3525 3141 3298 2862 
Q 3072 2584 2669 2484 
Q 3125 2378 3379 2068 
Q 3634 1759 3634 1313 
Q 3634 634 3220 271 
Q 2806 -91 2034 -91 
Q 1263 -91 848 271 
Q 434 634 434 1313 
Q 434 1759 690 2068 
Q 947 2378 1403 2484 
z
M 1172 3481 
Q 1172 3119 1398 2916 
Q 1625 2713 2034 2713 
Q 2441 2713 2670 2916 
Q 2900 3119 2900 3481 
Q 2900 3844 2670 4047 
Q 2441 4250 2034 4250 
Q 1625 4250 1398 4047 
Q 1172 3844 1172 3481 
z
" transform="scale(0.015625)"/>
      </defs>
      <use xlink:href="#DejaVuSans-Oblique-3b4" transform="translate(0 0.78125)"/>
      <use xlink:href="#DejaVuSans-Oblique-65" transform="translate(61.181641 -15.625) scale(0.7)"/>
      <use xlink:href="#DejaVuSans-3d" transform="translate(126.464844 0.78125)"/>
      <use xlink:href="#DejaVuSans-30" transform="translate(229.736328 0.78125)"/>
      <use xlink:href="#DejaVuSans-2c" transform="translate(293.359375 0.78125)"/>
      <use xlink:href="#DejaVuSans-20" transform="translate(325.146484 0.78125)"/>
      <use xlink:href="#DejaVuSans-Oblique-4a" transform="translate(356.933594 0.78125)"/>
      <use xlink:href="#DejaVuSans-3d" transform="translate(405.908203 0.78125)"/>
      <use xlink:href="#DejaVuSans-31" transform="translate(509.179688 0.78125)"/>
      <use xlink:href="#DejaVuSans-2e" transform="translate(572.802734 0.78125)"/>
      <use xlink:href="#DejaVuSans-38" transform="translate(601.964844 0.78125)"/>
      <use xlink:href="#DejaVuSans-30" transform="translate(665.587891 0.78125)"/>
     </g>
    </g>
    <g id="line2d_28">
     <path d="M 315.255247 121.881125 
L 325.255247 121.881125 
L 335.255247 121.881125 
" style="fill: none; stroke: #7dff7a; stroke-width: 1.5; stroke-linecap: square"/>
    </g>
    <g id="text_15">
     <!-- $\delta_e = 0$, $J = 2.00$ -->
     <g transform="translate(343.255247 125.381125) scale(0.1 -0.1)">
      <use xlink:href="#DejaVuSans-Oblique-3b4" transform="translate(0 0.78125)"/>
      <use xlink:href="#DejaVuSans-Oblique-65" transform="translate(61.181641 -15.625) scale(0.7)"/>
      <use xlink:href="#DejaVuSans-3d" transform="translate(126.464844 0.78125)"/>
      <use xlink:href="#DejaVuSans-30" transform="translate(229.736328 0.78125)"/>
      <use xlink:href="#DejaVuSans-2c" transform="translate(293.359375 0.78125)"/>
      <use xlink:href="#DejaVuSans-20" transform="translate(325.146484 0.78125)"/>
      <use xlink:href="#DejaVuSans-Oblique-4a" transform="translate(356.933594 0.78125)"/>
      <use xlink:href="#DejaVuSans-3d" transform="translate(405.908203 0.78125)"/>
      <use xlink:href="#DejaVuSans-32" transform="translate(509.179688 0.78125)"/>
      <use xlink:href="#DejaVuSans-2e" transform="translate(572.802734 0.78125)"/>
      <use xlink:href="#DejaVuSans-30" transform="translate(604.589844 0.78125)"/>
      <use xlink:href="#DejaVuSans-30" transform="translate(668.212891 0.78125)"/>
     </g>
    </g>
    <g id="line2d_29">
     <path d="M 315.255247 136.579563 
L 325.255247 136.579563 
L 335.255247 136.579563 
" style="fill: none; stroke: #ff9400; stroke-width: 1.5; stroke-linecap: square"/>
    </g>
    <g id="text_16">
     <!-- $\delta_e = 0$, $J = 2.20$ -->
     <g transform="translate(343.255247 140.079563) scale(0.1 -0.1)">
      <use xlink:href="#DejaVuSans-Oblique-3b4" transform="translate(0 0.78125)"/>
      <use xlink:href="#DejaVuSans-Oblique-65" transform="translate(61.181641 -15.625) scale(0.7)"/>
      <use xlink:href="#DejaVuSans-3d" transform="translate(126.464844 0.78125)"/>
      <use xlink:href="#DejaVuSans-30" transform="translate(229.736328 0.78125)"/>
      <use xlink:href="#DejaVuSans-2c" transform="translate(293.359375 0.78125)"/>
      <use xlink:href="#DejaVuSans-20" transform="translate(325.146484 0.78125)"/>
      <use xlink:href="#DejaVuSans-Oblique-4a" transform="translate(356.933594 0.78125)"/>
      <use xlink:href="#DejaVuSans-3d" transform="translate(405.908203 0.78125)"/>
      <use xlink:href="#DejaVuSans-32" transform="translate(509.179688 0.78125)"/>
      <use xlink:href="#DejaVuSans-2e" transform="translate(572.802734 0.78125)"/>
      <use xlink:href="#DejaVuSans-32" transform="translate(599.089844 0.78125)"/>
      <use xlink:href="#DejaVuSans-30" transform="translate(662.712891 0.78125)"/>
     </g>
    </g>
    <g id="line2d_30">
     <path d="M 315.255247 151.278 
L 325.255247 151.278 
L 335.255247 151.278 
" style="fill: none; stroke: #800000; stroke-width: 1.5; stroke-linecap: square"/>
    </g>
    <g id="text_17">
     <!-- $\delta_e = 0$, $J = 2.40$ -->
     <g transform="translate(343.255247 154.778) scale(0.1 -0.1)">
      <use xlink:href="#DejaVuSans-Oblique-3b4" transform="translate(0 0.78125)"/>
      <use xlink:href="#DejaVuSans-Oblique-65" transform="translate(61.181641 -15.625) scale(0.7)"/>
      <use xlink:href="#DejaVuSans-3d" transform="translate(126.464844 0.78125)"/>
      <use xlink:href="#DejaVuSans-30" transform="translate(229.736328 0.78125)"/>
      <use xlink:href="#DejaVuSans-2c" transform="translate(293.359375 0.78125)"/>
      <use xlink:href="#DejaVuSans-20" transform="translate(325.146484 0.78125)"/>
      <use xlink:href="#DejaVuSans-Oblique-4a" transform="translate(356.933594 0.78125)"/>
      <use xlink:href="#DejaVuSans-3d" transform="translate(405.908203 0.78125)"/>
      <use xlink:href="#DejaVuSans-32" transform="translate(509.179688 0.78125)"/>
      <use xlink:href="#DejaVuSans-2e" transform="translate(572.802734 0.78125)"/>
      <use xlink:href="#DejaVuSans-34" transform="translate(604.589844 0.78125)"/>
      <use xlink:href="#DejaVuSans-30" transform="translate(668.212891 0.78125)"/>
     </g>
    </g>
   </g>
  </g>
 </g>
 <defs>
  <clipPath id="pf057b039cc">
   <rect x="66.062" y="10.8" width="240.193247" height="163.24"/>
  </clipPath>
 </defs>
</svg>
