<?xml version="1.0" encoding="utf-8" standalone="no"?>
<!DOCTYPE svg PUBLIC "-//W3C//DTD SVG 1.1//EN"
  "http://www.w3.org/Graphics/SVG/1.1/DTD/svg11.dtd">
<svg xmlns:xlink="http://www.w3.org/1999/xlink" width="288pt" height="252pt" viewBox="0 0 288 252" xmlns="http://www.w3.org/2000/svg" version="1.1">
 <metadata>
  <rdf:RDF xmlns:dc="http://purl.org/dc/elements/1.1/" xmlns:cc="http://creativecommons.org/ns#" xmlns:rdf="http://www.w3.org/1999/02/22-rdf-syntax-ns#">
   <cc:Work>
    <dc:type rdf:resource="http://purl.org/dc/dcmitype/StillImage"/>
    <dc:date>2025-03-27T20:38:23.662165</dc:date>
    <dc:format>image/svg+xml</dc:format>
    <dc:creator>
     <cc:Agent>
      <dc:title>Matplotlib v3.9.2, https://matplotlib.org/</dc:title>
     </cc:Agent>
    </dc:creator>
   </cc:Work>
  </rdf:RDF>
 </metadata>
 <defs>
  <style type="text/css">*{stroke-linejoin: round; stroke-linecap: butt}</style>
 </defs>
 <g id="figure_1">
  <g id="patch_1">
   <path d="M 0 252 
L 288 252 
L 288 0 
L 0 0 
z
" style="fill: #ffffff"/>
  </g>
  <g id="axes_1">
   <g id="patch_2">
    <path d="M 59.672 210.04 
L 277.2 210.04 
L 277.2 62.838 
L 59.672 62.838 
z
" style="fill: #ffffff"/>
   </g>
   <g id="PathCollection_1">
    <defs>
     <path id="me8df8010b0" d="M 0 3 
C 0.795609 3 1.55874 2.683901 2.12132 2.12132 
C 2.683901 1.55874 3 0.795609 3 0 
C 3 -0.795609 2.683901 -1.55874 2.12132 -2.12132 
C 1.55874 -2.683901 0.795609 -3 0 -3 
C -0.795609 -3 -1.55874 -2.683901 -2.12132 -2.12132 
C -2.683901 -1.55874 -3 -0.795609 -3 0 
C -3 0.795609 -2.683901 1.55874 -2.12132 2.12132 
C -1.55874 2.683901 -0.795609 3 0 3 
z
" style="stroke: #ff0000"/>
    </defs>
    <g clip-path="url(#p3fb3255e11)">
     <use xlink:href="#me8df8010b0" x="69.59559" y="198.708737" style="fill: #ff0000; stroke: #ff0000"/>
     <use xlink:href="#me8df8010b0" x="213.292412" y="116.202941" style="fill: #ff0000; stroke: #ff0000"/>
     <use xlink:href="#me8df8010b0" x="267.312364" y="74.316938" style="fill: #ff0000; stroke: #ff0000"/>
     <use xlink:href="#me8df8010b0" x="105.639104" y="179.750335" style="fill: #ff0000; stroke: #ff0000"/>
     <use xlink:href="#me8df8010b0" x="186.350167" y="136.894294" style="fill: #ff0000; stroke: #ff0000"/>
     <use xlink:href="#me8df8010b0" x="150.615817" y="157.434588" style="fill: #ff0000; stroke: #ff0000"/>
     <use xlink:href="#me8df8010b0" x="231.246516" y="104.749265" style="fill: #ff0000; stroke: #ff0000"/>
     <use xlink:href="#me8df8010b0" x="231.246516" y="105.096871" style="fill: #ff0000; stroke: #ff0000"/>
     <use xlink:href="#me8df8010b0" x="204.539585" y="126.147985" style="fill: #ff0000; stroke: #ff0000"/>
    </g>
   </g>
   <g id="PathCollection_2">
    <defs>
     <path id="m822251d2b1" d="M -3 3 
L 3 -3 
M -3 -3 
L 3 3 
" style="stroke: #0000ff; stroke-width: 1.5"/>
    </defs>
    <g clip-path="url(#p3fb3255e11)">
     <use xlink:href="#m822251d2b1" x="267.204553" y="116.443327" style="fill: #0000ff; stroke: #0000ff; stroke-width: 1.5"/>
     <use xlink:href="#m822251d2b1" x="141.412173" y="136.806915" style="fill: #0000ff; stroke: #0000ff; stroke-width: 1.5"/>
     <use xlink:href="#m822251d2b1" x="213.400248" y="95.660718" style="fill: #0000ff; stroke: #0000ff; stroke-width: 1.5"/>
     <use xlink:href="#m822251d2b1" x="132.549941" y="198.54815" style="fill: #0000ff; stroke: #0000ff; stroke-width: 1.5"/>
     <use xlink:href="#m822251d2b1" x="222.260631" y="94.735121" style="fill: #0000ff; stroke: #0000ff; stroke-width: 1.5"/>
     <use xlink:href="#m822251d2b1" x="69.559636" y="180.076214" style="fill: #0000ff; stroke: #0000ff; stroke-width: 1.5"/>
    </g>
   </g>
   <g id="matplotlib.axis_1">
    <g id="xtick_1">
     <g id="line2d_1">
      <path d="M 69.619098 210.04 
L 69.619098 62.838 
" clip-path="url(#p3fb3255e11)" style="fill: none; stroke: #b0b0b0; stroke-width: 0.8; stroke-linecap: square"/>
     </g>
     <g id="line2d_2">
      <defs>
       <path id="m07dd0edc5f" d="M 0 0 
L 0 3.5 
" style="stroke: #000000; stroke-width: 0.8"/>
      </defs>
      <g>
       <use xlink:href="#m07dd0edc5f" x="69.619098" y="210.04" style="stroke: #000000; stroke-width: 0.8"/>
      </g>
     </g>
     <g id="text_1">
      <!-- −4 -->
      <g transform="translate(62.248004 224.638438) scale(0.1 -0.1)">
       <defs>
        <path id="DejaVuSans-2212" d="M 678 2272 
L 4684 2272 
L 4684 1741 
L 678 1741 
L 678 2272 
z
" transform="scale(0.015625)"/>
        <path id="DejaVuSans-34" d="M 2419 4116 
L 825 1625 
L 2419 1625 
L 2419 4116 
z
M 2253 4666 
L 3047 4666 
L 3047 1625 
L 3713 1625 
L 3713 1100 
L 3047 1100 
L 3047 0 
L 2419 0 
L 2419 1100 
L 313 1100 
L 313 1709 
L 2253 4666 
z
" transform="scale(0.015625)"/>
       </defs>
       <use xlink:href="#DejaVuSans-2212"/>
       <use xlink:href="#DejaVuSans-34" x="83.789062"/>
      </g>
     </g>
    </g>
    <g id="xtick_2">
     <g id="line2d_3">
      <path d="M 105.52878 210.04 
L 105.52878 62.838 
" clip-path="url(#p3fb3255e11)" style="fill: none; stroke: #b0b0b0; stroke-width: 0.8; stroke-linecap: square"/>
     </g>
     <g id="line2d_4">
      <g>
       <use xlink:href="#m07dd0edc5f" x="105.52878" y="210.04" style="stroke: #000000; stroke-width: 0.8"/>
      </g>
     </g>
     <g id="text_2">
      <!-- −2 -->
      <g transform="translate(98.157687 224.638438) scale(0.1 -0.1)">
       <defs>
        <path id="DejaVuSans-32" d="M 1228 531 
L 3431 531 
L 3431 0 
L 469 0 
L 469 531 
Q 828 903 1448 1529 
Q 2069 2156 2228 2338 
Q 2531 2678 2651 2914 
Q 2772 3150 2772 3378 
Q 2772 3750 2511 3984 
Q 2250 4219 1831 4219 
Q 1534 4219 1204 4116 
Q 875 4013 500 3803 
L 500 4441 
Q 881 4594 1212 4672 
Q 1544 4750 1819 4750 
Q 2544 4750 2975 4387 
Q 3406 4025 3406 3419 
Q 3406 3131 3298 2873 
Q 3191 2616 2906 2266 
Q 2828 2175 2409 1742 
Q 1991 1309 1228 531 
z
" transform="scale(0.015625)"/>
       </defs>
       <use xlink:href="#DejaVuSans-2212"/>
       <use xlink:href="#DejaVuSans-32" x="83.789062"/>
      </g>
     </g>
    </g>
    <g id="xtick_3">
     <g id="line2d_5">
      <path d="M 141.438463 210.04 
L 141.438463 62.838 
" clip-path="url(#p3fb3255e11)" style="fill: none; stroke: #b0b0b0; stroke-width: 0.8; stroke-linecap: square"/>
     </g>
     <g id="line2d_6">
      <g>
       <use xlink:href="#m07dd0edc5f" x="141.438463" y="210.04" style="stroke: #000000; stroke-width: 0.8"/>
      </g>
     </g>
     <g id="text_3">
      <!-- 0 -->
      <g transform="translate(138.257213 224.638438) scale(0.1 -0.1)">
       <defs>
        <path id="DejaVuSans-30" d="M 2034 4250 
Q 1547 4250 1301 3770 
Q 1056 3291 1056 2328 
Q 1056 1369 1301 889 
Q 1547 409 2034 409 
Q 2525 409 2770 889 
Q 3016 1369 3016 2328 
Q 3016 3291 2770 3770 
Q 2525 4250 2034 4250 
z
M 2034 4750 
Q 2819 4750 3233 4129 
Q 3647 3509 3647 2328 
Q 3647 1150 3233 529 
Q 2819 -91 2034 -91 
Q 1250 -91 836 529 
Q 422 1150 422 2328 
Q 422 3509 836 4129 
Q 1250 4750 2034 4750 
z
" transform="scale(0.015625)"/>
       </defs>
       <use xlink:href="#DejaVuSans-30"/>
      </g>
     </g>
    </g>
    <g id="xtick_4">
     <g id="line2d_7">
      <path d="M 177.348146 210.04 
L 177.348146 62.838 
" clip-path="url(#p3fb3255e11)" style="fill: none; stroke: #b0b0b0; stroke-width: 0.8; stroke-linecap: square"/>
     </g>
     <g id="line2d_8">
      <g>
       <use xlink:href="#m07dd0edc5f" x="177.348146" y="210.04" style="stroke: #000000; stroke-width: 0.8"/>
      </g>
     </g>
     <g id="text_4">
      <!-- 2 -->
      <g transform="translate(174.166896 224.638438) scale(0.1 -0.1)">
       <use xlink:href="#DejaVuSans-32"/>
      </g>
     </g>
    </g>
    <g id="xtick_5">
     <g id="line2d_9">
      <path d="M 213.257828 210.04 
L 213.257828 62.838 
" clip-path="url(#p3fb3255e11)" style="fill: none; stroke: #b0b0b0; stroke-width: 0.8; stroke-linecap: square"/>
     </g>
     <g id="line2d_10">
      <g>
       <use xlink:href="#m07dd0edc5f" x="213.257828" y="210.04" style="stroke: #000000; stroke-width: 0.8"/>
      </g>
     </g>
     <g id="text_5">
      <!-- 4 -->
      <g transform="translate(210.076578 224.638438) scale(0.1 -0.1)">
       <use xlink:href="#DejaVuSans-34"/>
      </g>
     </g>
    </g>
    <g id="xtick_6">
     <g id="line2d_11">
      <path d="M 249.167511 210.04 
L 249.167511 62.838 
" clip-path="url(#p3fb3255e11)" style="fill: none; stroke: #b0b0b0; stroke-width: 0.8; stroke-linecap: square"/>
     </g>
     <g id="line2d_12">
      <g>
       <use xlink:href="#m07dd0edc5f" x="249.167511" y="210.04" style="stroke: #000000; stroke-width: 0.8"/>
      </g>
     </g>
     <g id="text_6">
      <!-- 6 -->
      <g transform="translate(245.986261 224.638438) scale(0.1 -0.1)">
       <defs>
        <path id="DejaVuSans-36" d="M 2113 2584 
Q 1688 2584 1439 2293 
Q 1191 2003 1191 1497 
Q 1191 994 1439 701 
Q 1688 409 2113 409 
Q 2538 409 2786 701 
Q 3034 994 3034 1497 
Q 3034 2003 2786 2293 
Q 2538 2584 2113 2584 
z
M 3366 4563 
L 3366 3988 
Q 3128 4100 2886 4159 
Q 2644 4219 2406 4219 
Q 1781 4219 1451 3797 
Q 1122 3375 1075 2522 
Q 1259 2794 1537 2939 
Q 1816 3084 2150 3084 
Q 2853 3084 3261 2657 
Q 3669 2231 3669 1497 
Q 3669 778 3244 343 
Q 2819 -91 2113 -91 
Q 1303 -91 875 529 
Q 447 1150 447 2328 
Q 447 3434 972 4092 
Q 1497 4750 2381 4750 
Q 2619 4750 2861 4703 
Q 3103 4656 3366 4563 
z
" transform="scale(0.015625)"/>
       </defs>
       <use xlink:href="#DejaVuSans-36"/>
      </g>
     </g>
    </g>
    <g id="text_7">
     <!-- $\alpha$ -->
     <g transform="translate(165.136 238.316563) scale(0.1 -0.1)">
      <defs>
       <path id="DejaVuSans-Oblique-3b1" d="M 2619 1628 
L 2622 2350 
Q 2625 3088 2069 3091 
Q 1653 3094 1394 2747 
Q 1069 2319 959 1747 
Q 825 1059 994 731 
Q 1169 397 1547 397 
Q 1966 397 2319 1063 
L 2619 1628 
z
M 2166 3578 
Q 3141 3594 3128 2584 
Q 3128 2584 3616 3500 
L 4128 3500 
L 3119 1603 
L 3109 919 
Q 3109 766 3194 638 
Q 3291 488 3391 488 
L 3669 488 
L 3575 0 
L 3228 0 
Q 2934 0 2722 263 
Q 2622 394 2619 669 
Q 2416 334 2066 50 
Q 1900 -81 1453 -78 
Q 722 -72 456 397 
Q 184 884 353 1747 
Q 534 2675 1009 3097 
Q 1544 3569 2166 3578 
z
" transform="scale(0.015625)"/>
      </defs>
      <use xlink:href="#DejaVuSans-Oblique-3b1" transform="translate(0 0.84375)"/>
     </g>
    </g>
   </g>
   <g id="matplotlib.axis_2">
    <g id="ytick_1">
     <g id="line2d_13">
      <path d="M 59.672 197.320219 
L 277.2 197.320219 
" clip-path="url(#p3fb3255e11)" style="fill: none; stroke: #b0b0b0; stroke-width: 0.8; stroke-linecap: square"/>
     </g>
     <g id="line2d_14">
      <defs>
       <path id="m106bceec96" d="M 0 0 
L -3.5 0 
" style="stroke: #000000; stroke-width: 0.8"/>
      </defs>
      <g>
       <use xlink:href="#m106bceec96" x="59.672" y="197.320219" style="stroke: #000000; stroke-width: 0.8"/>
      </g>
     </g>
     <g id="text_8">
      <!-- 0.25 -->
      <g transform="translate(30.406375 201.119438) scale(0.1 -0.1)">
       <defs>
        <path id="DejaVuSans-2e" d="M 684 794 
L 1344 794 
L 1344 0 
L 684 0 
L 684 794 
z
" transform="scale(0.015625)"/>
        <path id="DejaVuSans-35" d="M 691 4666 
L 3169 4666 
L 3169 4134 
L 1269 4134 
L 1269 2991 
Q 1406 3038 1543 3061 
Q 1681 3084 1819 3084 
Q 2600 3084 3056 2656 
Q 3513 2228 3513 1497 
Q 3513 744 3044 326 
Q 2575 -91 1722 -91 
Q 1428 -91 1123 -41 
Q 819 9 494 109 
L 494 744 
Q 775 591 1075 516 
Q 1375 441 1709 441 
Q 2250 441 2565 725 
Q 2881 1009 2881 1497 
Q 2881 1984 2565 2268 
Q 2250 2553 1709 2553 
Q 1456 2553 1204 2497 
Q 953 2441 691 2322 
L 691 4666 
z
" transform="scale(0.015625)"/>
       </defs>
       <use xlink:href="#DejaVuSans-30"/>
       <use xlink:href="#DejaVuSans-2e" x="63.623047"/>
       <use xlink:href="#DejaVuSans-32" x="95.410156"/>
       <use xlink:href="#DejaVuSans-35" x="159.033203"/>
      </g>
     </g>
    </g>
    <g id="ytick_2">
     <g id="line2d_15">
      <path d="M 59.672 168.785827 
L 277.2 168.785827 
" clip-path="url(#p3fb3255e11)" style="fill: none; stroke: #b0b0b0; stroke-width: 0.8; stroke-linecap: square"/>
     </g>
     <g id="line2d_16">
      <g>
       <use xlink:href="#m106bceec96" x="59.672" y="168.785827" style="stroke: #000000; stroke-width: 0.8"/>
      </g>
     </g>
     <g id="text_9">
      <!-- 0.30 -->
      <g transform="translate(30.406375 172.585046) scale(0.1 -0.1)">
       <defs>
        <path id="DejaVuSans-33" d="M 2597 2516 
Q 3050 2419 3304 2112 
Q 3559 1806 3559 1356 
Q 3559 666 3084 287 
Q 2609 -91 1734 -91 
Q 1441 -91 1130 -33 
Q 819 25 488 141 
L 488 750 
Q 750 597 1062 519 
Q 1375 441 1716 441 
Q 2309 441 2620 675 
Q 2931 909 2931 1356 
Q 2931 1769 2642 2001 
Q 2353 2234 1838 2234 
L 1294 2234 
L 1294 2753 
L 1863 2753 
Q 2328 2753 2575 2939 
Q 2822 3125 2822 3475 
Q 2822 3834 2567 4026 
Q 2313 4219 1838 4219 
Q 1578 4219 1281 4162 
Q 984 4106 628 3988 
L 628 4550 
Q 988 4650 1302 4700 
Q 1616 4750 1894 4750 
Q 2613 4750 3031 4423 
Q 3450 4097 3450 3541 
Q 3450 3153 3228 2886 
Q 3006 2619 2597 2516 
z
" transform="scale(0.015625)"/>
       </defs>
       <use xlink:href="#DejaVuSans-30"/>
       <use xlink:href="#DejaVuSans-2e" x="63.623047"/>
       <use xlink:href="#DejaVuSans-33" x="95.410156"/>
       <use xlink:href="#DejaVuSans-30" x="159.033203"/>
      </g>
     </g>
    </g>
    <g id="ytick_3">
     <g id="line2d_17">
      <path d="M 59.672 140.251435 
L 277.2 140.251435 
" clip-path="url(#p3fb3255e11)" style="fill: none; stroke: #b0b0b0; stroke-width: 0.8; stroke-linecap: square"/>
     </g>
     <g id="line2d_18">
      <g>
       <use xlink:href="#m106bceec96" x="59.672" y="140.251435" style="stroke: #000000; stroke-width: 0.8"/>
      </g>
     </g>
     <g id="text_10">
      <!-- 0.35 -->
      <g transform="translate(30.406375 144.050654) scale(0.1 -0.1)">
       <use xlink:href="#DejaVuSans-30"/>
       <use xlink:href="#DejaVuSans-2e" x="63.623047"/>
       <use xlink:href="#DejaVuSans-33" x="95.410156"/>
       <use xlink:href="#DejaVuSans-35" x="159.033203"/>
      </g>
     </g>
    </g>
    <g id="ytick_4">
     <g id="line2d_19">
      <path d="M 59.672 111.717043 
L 277.2 111.717043 
" clip-path="url(#p3fb3255e11)" style="fill: none; stroke: #b0b0b0; stroke-width: 0.8; stroke-linecap: square"/>
     </g>
     <g id="line2d_20">
      <g>
       <use xlink:href="#m106bceec96" x="59.672" y="111.717043" style="stroke: #000000; stroke-width: 0.8"/>
      </g>
     </g>
     <g id="text_11">
      <!-- 0.40 -->
      <g transform="translate(30.406375 115.516262) scale(0.1 -0.1)">
       <use xlink:href="#DejaVuSans-30"/>
       <use xlink:href="#DejaVuSans-2e" x="63.623047"/>
       <use xlink:href="#DejaVuSans-34" x="95.410156"/>
       <use xlink:href="#DejaVuSans-30" x="159.033203"/>
      </g>
     </g>
    </g>
    <g id="ytick_5">
     <g id="line2d_21">
      <path d="M 59.672 83.182651 
L 277.2 83.182651 
" clip-path="url(#p3fb3255e11)" style="fill: none; stroke: #b0b0b0; stroke-width: 0.8; stroke-linecap: square"/>
     </g>
     <g id="line2d_22">
      <g>
       <use xlink:href="#m106bceec96" x="59.672" y="83.182651" style="stroke: #000000; stroke-width: 0.8"/>
      </g>
     </g>
     <g id="text_12">
      <!-- 0.45 -->
      <g transform="translate(30.406375 86.98187) scale(0.1 -0.1)">
       <use xlink:href="#DejaVuSans-30"/>
       <use xlink:href="#DejaVuSans-2e" x="63.623047"/>
       <use xlink:href="#DejaVuSans-34" x="95.410156"/>
       <use xlink:href="#DejaVuSans-35" x="159.033203"/>
      </g>
     </g>
    </g>
    <g id="text_13">
     <!-- $C_T = T / \rho n^2 D^4$ -->
     <g transform="translate(24.306375 168.589) rotate(-90) scale(0.1 -0.1)">
      <defs>
       <path id="DejaVuSans-Oblique-43" d="M 4447 4306 
L 4319 3641 
Q 4019 3944 3683 4091 
Q 3347 4238 2956 4238 
Q 2422 4238 2017 3981 
Q 1613 3725 1319 3200 
Q 1131 2863 1032 2486 
Q 934 2109 934 1728 
Q 934 1091 1264 756 
Q 1594 422 2222 422 
Q 2656 422 3056 561 
Q 3456 700 3834 978 
L 3688 231 
Q 3316 72 2936 -9 
Q 2556 -91 2175 -91 
Q 1278 -91 773 396 
Q 269 884 269 1753 
Q 269 2309 461 2846 
Q 653 3384 1013 3828 
Q 1394 4300 1883 4525 
Q 2372 4750 3022 4750 
Q 3422 4750 3780 4639 
Q 4138 4528 4447 4306 
z
" transform="scale(0.015625)"/>
       <path id="DejaVuSans-Oblique-54" d="M 378 4666 
L 4325 4666 
L 4225 4134 
L 2559 4134 
L 1759 0 
L 1125 0 
L 1925 4134 
L 275 4134 
L 378 4666 
z
" transform="scale(0.015625)"/>
       <path id="DejaVuSans-3d" d="M 678 2906 
L 4684 2906 
L 4684 2381 
L 678 2381 
L 678 2906 
z
M 678 1631 
L 4684 1631 
L 4684 1100 
L 678 1100 
L 678 1631 
z
" transform="scale(0.015625)"/>
       <path id="DejaVuSans-2f" d="M 1625 4666 
L 2156 4666 
L 531 -594 
L 0 -594 
L 1625 4666 
z
" transform="scale(0.015625)"/>
       <path id="DejaVuSans-Oblique-3c1" d="M 1203 2875 
Q 1453 3194 1981 3475 
Q 2188 3584 2756 3584 
Q 3394 3584 3694 3078 
Q 3994 2572 3834 1747 
Q 3672 922 3175 415 
Q 2678 -91 2041 -91 
Q 1656 -91 1409 63 
Q 1163 213 1044 525 
L 681 -1331 
L 103 -1331 
L 697 1716 
Q 838 2438 1203 2875 
z
M 3238 1747 
Q 3359 2381 3169 2744 
Q 2978 3103 2522 3103 
Q 2066 3103 1734 2744 
Q 1403 2381 1281 1747 
Q 1156 1113 1347 750 
Q 1538 391 1994 391 
Q 2450 391 2781 750 
Q 3113 1113 3238 1747 
z
" transform="scale(0.015625)"/>
       <path id="DejaVuSans-Oblique-6e" d="M 3566 2113 
L 3156 0 
L 2578 0 
L 2988 2091 
Q 3016 2238 3031 2350 
Q 3047 2463 3047 2528 
Q 3047 2791 2881 2937 
Q 2716 3084 2419 3084 
Q 1956 3084 1622 2776 
Q 1288 2469 1184 1941 
L 800 0 
L 225 0 
L 903 3500 
L 1478 3500 
L 1363 2950 
Q 1603 3253 1940 3418 
Q 2278 3584 2650 3584 
Q 3113 3584 3367 3334 
Q 3622 3084 3622 2631 
Q 3622 2519 3608 2391 
Q 3594 2263 3566 2113 
z
" transform="scale(0.015625)"/>
       <path id="DejaVuSans-Oblique-44" d="M 1081 4666 
L 2438 4666 
Q 3519 4666 4070 4208 
Q 4622 3750 4622 2847 
Q 4622 2250 4412 1698 
Q 4203 1147 3834 769 
Q 3463 381 2891 190 
Q 2319 0 1538 0 
L 172 0 
L 1081 4666 
z
M 1613 4147 
L 909 519 
L 1734 519 
Q 2794 519 3375 1128 
Q 3956 1738 3956 2847 
Q 3956 3519 3581 3833 
Q 3206 4147 2406 4147 
L 1613 4147 
z
" transform="scale(0.015625)"/>
      </defs>
      <use xlink:href="#DejaVuSans-Oblique-43" transform="translate(0 0.765625)"/>
      <use xlink:href="#DejaVuSans-Oblique-54" transform="translate(69.824219 -15.640625) scale(0.7)"/>
      <use xlink:href="#DejaVuSans-3d" transform="translate(134.799805 0.765625)"/>
      <use xlink:href="#DejaVuSans-Oblique-54" transform="translate(238.071289 0.765625)"/>
      <use xlink:href="#DejaVuSans-2f" transform="translate(299.155273 0.765625)"/>
      <use xlink:href="#DejaVuSans-Oblique-3c1" transform="translate(332.84668 0.765625)"/>
      <use xlink:href="#DejaVuSans-Oblique-6e" transform="translate(396.323242 0.765625)"/>
      <use xlink:href="#DejaVuSans-32" transform="translate(464.352044 39.046875) scale(0.7)"/>
      <use xlink:href="#DejaVuSans-Oblique-44" transform="translate(511.622552 0.765625)"/>
      <use xlink:href="#DejaVuSans-34" transform="translate(595.641276 39.046875) scale(0.7)"/>
     </g>
    </g>
   </g>
   <g id="line2d_23">
    <path d="M 69.59559 203.349 
L 71.592729 202.129938 
L 73.589868 200.910876 
L 75.587007 199.691814 
L 77.584146 198.472752 
L 79.581286 197.253691 
L 81.578425 196.034629 
L 83.575564 194.815567 
L 85.572703 193.596505 
L 87.569842 192.377443 
L 89.566981 191.158381 
L 91.56412 189.939319 
L 93.56126 188.720257 
L 95.558399 187.501196 
L 97.555538 186.282134 
L 99.552677 185.063072 
L 101.549816 183.84401 
L 103.546955 182.624948 
L 105.544094 181.405886 
L 107.541233 180.186824 
L 109.538373 178.967762 
L 111.535512 177.748701 
L 113.532651 176.529639 
L 115.52979 175.310577 
L 117.526929 174.091515 
L 119.524068 172.872453 
L 121.521207 171.653391 
L 123.518346 170.434329 
L 125.515486 169.215267 
L 127.512625 167.996205 
L 129.509764 166.777144 
L 131.506903 165.558082 
L 133.504042 164.33902 
L 135.501181 163.119958 
L 137.49832 161.900896 
L 139.495459 160.681834 
L 141.492599 159.462772 
L 143.489738 158.24371 
L 145.486877 157.024649 
L 147.484016 155.805587 
L 149.481155 154.586525 
L 151.478294 153.367463 
L 153.475433 152.148401 
L 155.472572 150.929339 
L 157.469712 149.710277 
L 159.466851 148.491215 
L 161.46399 147.272153 
L 163.461129 146.053092 
L 165.458268 144.83403 
L 167.455407 143.614968 
L 169.452546 142.395906 
L 171.449685 141.176844 
L 173.446825 139.957782 
L 175.443964 138.73872 
L 177.441103 137.519658 
L 179.438242 136.300597 
L 181.435381 135.081535 
L 183.43252 133.862473 
L 185.429659 132.643411 
L 187.426799 131.424349 
L 189.423938 130.205287 
L 191.421077 128.986225 
L 193.418216 127.767163 
L 195.415355 126.548102 
L 197.412494 125.32904 
L 199.409633 124.109978 
L 201.406772 122.890916 
L 203.403912 121.671854 
L 205.401051 120.452792 
L 207.39819 119.23373 
L 209.395329 118.014668 
L 211.392468 116.795606 
L 213.389607 115.576545 
L 215.386746 114.357483 
L 217.383885 113.138421 
L 219.381025 111.919359 
L 221.378164 110.700297 
L 223.375303 109.481235 
L 225.372442 108.262173 
L 227.369581 107.043111 
L 229.36672 105.82405 
L 231.363859 104.604988 
L 233.360998 103.385926 
L 235.358138 102.166864 
L 237.355277 100.947802 
L 239.352416 99.72874 
L 241.349555 98.509678 
L 243.346694 97.290616 
L 245.343833 96.071554 
L 247.340972 94.852493 
L 249.338111 93.633431 
L 251.335251 92.414369 
L 253.33239 91.195307 
L 255.329529 89.976245 
L 257.326668 88.757183 
L 259.323807 87.538121 
L 261.320946 86.319059 
L 263.318085 85.099998 
L 265.315225 83.880936 
L 267.312364 82.661874 
" clip-path="url(#p3fb3255e11)" style="fill: none; stroke-dasharray: 5.55,2.4; stroke-dashoffset: 0; stroke: #ff0000; stroke-width: 1.5"/>
   </g>
   <g id="line2d_24">
    <path d="M 69.619098 183.056387 
L 71.61408 181.964248 
L 73.609062 180.86746 
L 75.604045 179.766134 
L 77.599027 178.660378 
L 79.594009 177.550301 
L 81.588992 176.436013 
L 83.583974 175.317624 
L 85.578957 174.195242 
L 87.573939 173.068977 
L 89.568921 171.938938 
L 91.563904 170.805234 
L 93.558886 169.667975 
L 95.553868 168.527271 
L 97.548851 167.383229 
L 99.543833 166.23596 
L 101.538816 165.085573 
L 103.533798 163.932177 
L 105.52878 162.775881 
L 107.523763 161.616796 
L 109.518745 160.455029 
L 111.513727 159.290691 
L 113.50871 158.123891 
L 115.503692 156.954737 
L 117.498675 155.78334 
L 119.493657 154.609808 
L 121.488639 153.434251 
L 123.483622 152.256779 
L 125.478604 151.077499 
L 127.473586 149.896523 
L 129.468569 148.713958 
L 131.463551 147.529915 
L 133.458534 146.344503 
L 135.453516 145.157831 
L 137.448498 143.970007 
L 139.443481 142.781143 
L 141.438463 141.591346 
L 143.433445 140.400726 
L 145.428428 139.209393 
L 147.42341 138.017455 
L 149.418392 136.825023 
L 151.413375 135.632204 
L 153.408357 134.43911 
L 155.40334 133.245848 
L 157.398322 132.052529 
L 159.393304 130.859261 
L 161.388287 129.666154 
L 163.383269 128.473317 
L 165.378251 127.280859 
L 167.373234 126.08889 
L 169.368216 124.897519 
L 171.363199 123.706855 
L 173.358181 122.517008 
L 175.353163 121.328087 
L 177.348146 120.140201 
L 179.343128 118.95346 
L 181.33811 117.767972 
L 183.333093 116.583847 
L 185.328075 115.401195 
L 187.323058 114.220124 
L 189.31804 113.040745 
L 191.313022 111.863165 
L 193.308005 110.687495 
L 195.302987 109.513844 
L 197.297969 108.342322 
L 199.292952 107.173036 
L 201.287934 106.006098 
L 203.282917 104.841615 
L 205.277899 103.679698 
L 207.272881 102.520455 
L 209.267864 101.363997 
L 211.262846 100.210431 
L 213.257828 99.059868 
L 215.252811 97.912417 
L 217.247793 96.768187 
L 219.242776 95.627288 
L 221.237758 94.489828 
L 223.23274 93.355917 
L 225.227723 92.225665 
L 227.222705 91.09918 
L 229.217687 89.976572 
L 231.21267 88.857951 
L 233.207652 87.743424 
L 235.202634 86.633103 
L 237.197617 85.527096 
L 239.192599 84.425512 
L 241.187582 83.328461 
L 243.182564 82.236051 
L 245.177546 81.148393 
L 247.172529 80.065596 
L 249.167511 78.987769 
L 251.162493 77.91502 
L 253.157476 76.84746 
L 255.152458 75.785198 
L 257.147441 74.728343 
L 259.142423 73.677005 
L 261.137405 72.631292 
L 263.132388 71.591314 
L 265.12737 70.55718 
L 267.122352 69.529 
" clip-path="url(#p3fb3255e11)" style="fill: none; stroke: #0000ff; stroke-width: 1.5; stroke-linecap: square"/>
   </g>
   <g id="patch_3">
    <path d="M 59.672 210.04 
L 59.672 62.838 
" style="fill: none; stroke: #000000; stroke-width: 0.8; stroke-linejoin: miter; stroke-linecap: square"/>
   </g>
   <g id="patch_4">
    <path d="M 277.2 210.04 
L 277.2 62.838 
" style="fill: none; stroke: #000000; stroke-width: 0.8; stroke-linejoin: miter; stroke-linecap: square"/>
   </g>
   <g id="patch_5">
    <path d="M 59.672 210.04 
L 277.2 210.04 
" style="fill: none; stroke: #000000; stroke-width: 0.8; stroke-linejoin: miter; stroke-linecap: square"/>
   </g>
   <g id="patch_6">
    <path d="M 59.672 62.838 
L 277.2 62.838 
" style="fill: none; stroke: #000000; stroke-width: 0.8; stroke-linejoin: miter; stroke-linecap: square"/>
   </g>
   <g id="legend_1">
    <g id="patch_7">
     <path d="M 85.036 52.4779 
L 255.836 52.4779 
Q 257.836 52.4779 257.836 50.4779 
L 257.836 22.12165 
Q 257.836 20.12165 255.836 20.12165 
L 85.036 20.12165 
Q 83.036 20.12165 83.036 22.12165 
L 83.036 50.4779 
Q 83.036 52.4779 85.036 52.4779 
z
" style="fill: #4d4d4d; opacity: 0.5; stroke: #4d4d4d; stroke-linejoin: miter"/>
    </g>
    <g id="patch_8">
     <path d="M 83.036 50.4779 
L 253.836 50.4779 
Q 255.836 50.4779 255.836 48.4779 
L 255.836 20.12165 
Q 255.836 18.12165 253.836 18.12165 
L 83.036 18.12165 
Q 81.036 18.12165 81.036 20.12165 
L 81.036 48.4779 
Q 81.036 50.4779 83.036 50.4779 
z
" style="fill: #ffffff; stroke: #cccccc; stroke-linejoin: miter"/>
    </g>
    <g id="line2d_25">
     <path d="M 85.036 26.220087 
L 95.036 26.220087 
L 105.036 26.220087 
" style="fill: none; stroke-dasharray: 5.55,2.4; stroke-dashoffset: 0; stroke: #ff0000; stroke-width: 1.5"/>
    </g>
    <g id="text_14">
     <!-- Linear fit, $Re_{MAC} = 2.2e+05$ -->
     <g transform="translate(113.036 29.720087) scale(0.1 -0.1)">
      <defs>
       <path id="DejaVuSans-4c" d="M 628 4666 
L 1259 4666 
L 1259 531 
L 3531 531 
L 3531 0 
L 628 0 
L 628 4666 
z
" transform="scale(0.015625)"/>
       <path id="DejaVuSans-69" d="M 603 3500 
L 1178 3500 
L 1178 0 
L 603 0 
L 603 3500 
z
M 603 4863 
L 1178 4863 
L 1178 4134 
L 603 4134 
L 603 4863 
z
" transform="scale(0.015625)"/>
       <path id="DejaVuSans-6e" d="M 3513 2113 
L 3513 0 
L 2938 0 
L 2938 2094 
Q 2938 2591 2744 2837 
Q 2550 3084 2163 3084 
Q 1697 3084 1428 2787 
Q 1159 2491 1159 1978 
L 1159 0 
L 581 0 
L 581 3500 
L 1159 3500 
L 1159 2956 
Q 1366 3272 1645 3428 
Q 1925 3584 2291 3584 
Q 2894 3584 3203 3211 
Q 3513 2838 3513 2113 
z
" transform="scale(0.015625)"/>
       <path id="DejaVuSans-65" d="M 3597 1894 
L 3597 1613 
L 953 1613 
Q 991 1019 1311 708 
Q 1631 397 2203 397 
Q 2534 397 2845 478 
Q 3156 559 3463 722 
L 3463 178 
Q 3153 47 2828 -22 
Q 2503 -91 2169 -91 
Q 1331 -91 842 396 
Q 353 884 353 1716 
Q 353 2575 817 3079 
Q 1281 3584 2069 3584 
Q 2775 3584 3186 3129 
Q 3597 2675 3597 1894 
z
M 3022 2063 
Q 3016 2534 2758 2815 
Q 2500 3097 2075 3097 
Q 1594 3097 1305 2825 
Q 1016 2553 972 2059 
L 3022 2063 
z
" transform="scale(0.015625)"/>
       <path id="DejaVuSans-61" d="M 2194 1759 
Q 1497 1759 1228 1600 
Q 959 1441 959 1056 
Q 959 750 1161 570 
Q 1363 391 1709 391 
Q 2188 391 2477 730 
Q 2766 1069 2766 1631 
L 2766 1759 
L 2194 1759 
z
M 3341 1997 
L 3341 0 
L 2766 0 
L 2766 531 
Q 2569 213 2275 61 
Q 1981 -91 1556 -91 
Q 1019 -91 701 211 
Q 384 513 384 1019 
Q 384 1609 779 1909 
Q 1175 2209 1959 2209 
L 2766 2209 
L 2766 2266 
Q 2766 2663 2505 2880 
Q 2244 3097 1772 3097 
Q 1472 3097 1187 3025 
Q 903 2953 641 2809 
L 641 3341 
Q 956 3463 1253 3523 
Q 1550 3584 1831 3584 
Q 2591 3584 2966 3190 
Q 3341 2797 3341 1997 
z
" transform="scale(0.015625)"/>
       <path id="DejaVuSans-72" d="M 2631 2963 
Q 2534 3019 2420 3045 
Q 2306 3072 2169 3072 
Q 1681 3072 1420 2755 
Q 1159 2438 1159 1844 
L 1159 0 
L 581 0 
L 581 3500 
L 1159 3500 
L 1159 2956 
Q 1341 3275 1631 3429 
Q 1922 3584 2338 3584 
Q 2397 3584 2469 3576 
Q 2541 3569 2628 3553 
L 2631 2963 
z
" transform="scale(0.015625)"/>
       <path id="DejaVuSans-20" transform="scale(0.015625)"/>
       <path id="DejaVuSans-66" d="M 2375 4863 
L 2375 4384 
L 1825 4384 
Q 1516 4384 1395 4259 
Q 1275 4134 1275 3809 
L 1275 3500 
L 2222 3500 
L 2222 3053 
L 1275 3053 
L 1275 0 
L 697 0 
L 697 3053 
L 147 3053 
L 147 3500 
L 697 3500 
L 697 3744 
Q 697 4328 969 4595 
Q 1241 4863 1831 4863 
L 2375 4863 
z
" transform="scale(0.015625)"/>
       <path id="DejaVuSans-74" d="M 1172 4494 
L 1172 3500 
L 2356 3500 
L 2356 3053 
L 1172 3053 
L 1172 1153 
Q 1172 725 1289 603 
Q 1406 481 1766 481 
L 2356 481 
L 2356 0 
L 1766 0 
Q 1100 0 847 248 
Q 594 497 594 1153 
L 594 3053 
L 172 3053 
L 172 3500 
L 594 3500 
L 594 4494 
L 1172 4494 
z
" transform="scale(0.015625)"/>
       <path id="DejaVuSans-2c" d="M 750 794 
L 1409 794 
L 1409 256 
L 897 -744 
L 494 -744 
L 750 256 
L 750 794 
z
" transform="scale(0.015625)"/>
       <path id="DejaVuSans-Oblique-52" d="M 1613 4147 
L 1294 2491 
L 2106 2491 
Q 2584 2491 2879 2755 
Q 3175 3019 3175 3444 
Q 3175 3784 2976 3965 
Q 2778 4147 2406 4147 
L 1613 4147 
z
M 2772 2241 
Q 2972 2194 3105 2009 
Q 3238 1825 3413 1275 
L 3809 0 
L 3144 0 
L 2778 1197 
Q 2638 1659 2453 1815 
Q 2269 1972 1888 1972 
L 1191 1972 
L 806 0 
L 172 0 
L 1081 4666 
L 2503 4666 
Q 3150 4666 3495 4373 
Q 3841 4081 3841 3531 
Q 3841 3044 3547 2687 
Q 3253 2331 2772 2241 
z
" transform="scale(0.015625)"/>
       <path id="DejaVuSans-Oblique-65" d="M 3078 2063 
Q 3088 2113 3092 2166 
Q 3097 2219 3097 2272 
Q 3097 2653 2873 2875 
Q 2650 3097 2266 3097 
Q 1838 3097 1509 2826 
Q 1181 2556 1013 2059 
L 3078 2063 
z
M 3578 1613 
L 903 1613 
Q 884 1494 878 1425 
Q 872 1356 872 1306 
Q 872 872 1139 634 
Q 1406 397 1894 397 
Q 2269 397 2603 481 
Q 2938 566 3225 728 
L 3116 159 
Q 2806 34 2476 -28 
Q 2147 -91 1806 -91 
Q 1078 -91 686 257 
Q 294 606 294 1247 
Q 294 1794 489 2264 
Q 684 2734 1063 3103 
Q 1306 3334 1642 3459 
Q 1978 3584 2356 3584 
Q 2950 3584 3301 3228 
Q 3653 2872 3653 2272 
Q 3653 2128 3634 1964 
Q 3616 1800 3578 1613 
z
" transform="scale(0.015625)"/>
       <path id="DejaVuSans-Oblique-4d" d="M 1081 4666 
L 2028 4666 
L 2572 1522 
L 4378 4666 
L 5350 4666 
L 4441 0 
L 3828 0 
L 4622 4091 
L 2791 897 
L 2175 897 
L 1581 4103 
L 788 0 
L 172 0 
L 1081 4666 
z
" transform="scale(0.015625)"/>
       <path id="DejaVuSans-Oblique-41" d="M 2356 4666 
L 3072 4666 
L 3938 0 
L 3278 0 
L 3084 1197 
L 984 1197 
L 325 0 
L -341 0 
L 2356 4666 
z
M 2584 4044 
L 1275 1722 
L 2988 1722 
L 2584 4044 
z
" transform="scale(0.015625)"/>
       <path id="DejaVuSans-2b" d="M 2944 4013 
L 2944 2272 
L 4684 2272 
L 4684 1741 
L 2944 1741 
L 2944 0 
L 2419 0 
L 2419 1741 
L 678 1741 
L 678 2272 
L 2419 2272 
L 2419 4013 
L 2944 4013 
z
" transform="scale(0.015625)"/>
      </defs>
      <use xlink:href="#DejaVuSans-4c" transform="translate(0 0.015625)"/>
      <use xlink:href="#DejaVuSans-69" transform="translate(55.712891 0.015625)"/>
      <use xlink:href="#DejaVuSans-6e" transform="translate(83.496094 0.015625)"/>
      <use xlink:href="#DejaVuSans-65" transform="translate(146.875 0.015625)"/>
      <use xlink:href="#DejaVuSans-61" transform="translate(208.398438 0.015625)"/>
      <use xlink:href="#DejaVuSans-72" transform="translate(269.677734 0.015625)"/>
      <use xlink:href="#DejaVuSans-20" transform="translate(310.791016 0.015625)"/>
      <use xlink:href="#DejaVuSans-66" transform="translate(342.578125 0.015625)"/>
      <use xlink:href="#DejaVuSans-69" transform="translate(377.783203 0.015625)"/>
      <use xlink:href="#DejaVuSans-74" transform="translate(405.566406 0.015625)"/>
      <use xlink:href="#DejaVuSans-2c" transform="translate(444.775391 0.015625)"/>
      <use xlink:href="#DejaVuSans-20" transform="translate(476.5625 0.015625)"/>
      <use xlink:href="#DejaVuSans-Oblique-52" transform="translate(508.349609 0.015625)"/>
      <use xlink:href="#DejaVuSans-Oblique-65" transform="translate(577.832031 0.015625)"/>
      <use xlink:href="#DejaVuSans-Oblique-4d" transform="translate(639.355469 -16.390625) scale(0.7)"/>
      <use xlink:href="#DejaVuSans-Oblique-41" transform="translate(699.750977 -16.390625) scale(0.7)"/>
      <use xlink:href="#DejaVuSans-Oblique-43" transform="translate(747.636719 -16.390625) scale(0.7)"/>
      <use xlink:href="#DejaVuSans-3d" transform="translate(818.730469 0.015625)"/>
      <use xlink:href="#DejaVuSans-32" transform="translate(922.001953 0.015625)"/>
      <use xlink:href="#DejaVuSans-2e" transform="translate(985.625 0.015625)"/>
      <use xlink:href="#DejaVuSans-32" transform="translate(1011.912109 0.015625)"/>
      <use xlink:href="#DejaVuSans-Oblique-65" transform="translate(1075.535156 0.015625)"/>
      <use xlink:href="#DejaVuSans-2b" transform="translate(1156.541016 0.015625)"/>
      <use xlink:href="#DejaVuSans-30" transform="translate(1259.8125 0.015625)"/>
      <use xlink:href="#DejaVuSans-35" transform="translate(1323.435547 0.015625)"/>
     </g>
    </g>
    <g id="line2d_26">
     <path d="M 85.036 40.898212 
L 95.036 40.898212 
L 105.036 40.898212 
" style="fill: none; stroke: #0000ff; stroke-width: 1.5; stroke-linecap: square"/>
    </g>
    <g id="text_15">
     <!-- RSM, $Re_{MAC} = 4.5e+05$ -->
     <g transform="translate(113.036 44.398212) scale(0.1 -0.1)">
      <defs>
       <path id="DejaVuSans-52" d="M 2841 2188 
Q 3044 2119 3236 1894 
Q 3428 1669 3622 1275 
L 4263 0 
L 3584 0 
L 2988 1197 
Q 2756 1666 2539 1819 
Q 2322 1972 1947 1972 
L 1259 1972 
L 1259 0 
L 628 0 
L 628 4666 
L 2053 4666 
Q 2853 4666 3247 4331 
Q 3641 3997 3641 3322 
Q 3641 2881 3436 2590 
Q 3231 2300 2841 2188 
z
M 1259 4147 
L 1259 2491 
L 2053 2491 
Q 2509 2491 2742 2702 
Q 2975 2913 2975 3322 
Q 2975 3731 2742 3939 
Q 2509 4147 2053 4147 
L 1259 4147 
z
" transform="scale(0.015625)"/>
       <path id="DejaVuSans-53" d="M 3425 4513 
L 3425 3897 
Q 3066 4069 2747 4153 
Q 2428 4238 2131 4238 
Q 1616 4238 1336 4038 
Q 1056 3838 1056 3469 
Q 1056 3159 1242 3001 
Q 1428 2844 1947 2747 
L 2328 2669 
Q 3034 2534 3370 2195 
Q 3706 1856 3706 1288 
Q 3706 609 3251 259 
Q 2797 -91 1919 -91 
Q 1588 -91 1214 -16 
Q 841 59 441 206 
L 441 856 
Q 825 641 1194 531 
Q 1563 422 1919 422 
Q 2459 422 2753 634 
Q 3047 847 3047 1241 
Q 3047 1584 2836 1778 
Q 2625 1972 2144 2069 
L 1759 2144 
Q 1053 2284 737 2584 
Q 422 2884 422 3419 
Q 422 4038 858 4394 
Q 1294 4750 2059 4750 
Q 2388 4750 2728 4690 
Q 3069 4631 3425 4513 
z
" transform="scale(0.015625)"/>
       <path id="DejaVuSans-4d" d="M 628 4666 
L 1569 4666 
L 2759 1491 
L 3956 4666 
L 4897 4666 
L 4897 0 
L 4281 0 
L 4281 4097 
L 3078 897 
L 2444 897 
L 1241 4097 
L 1241 0 
L 628 0 
L 628 4666 
z
" transform="scale(0.015625)"/>
      </defs>
      <use xlink:href="#DejaVuSans-52" transform="translate(0 0.78125)"/>
      <use xlink:href="#DejaVuSans-53" transform="translate(69.482422 0.78125)"/>
      <use xlink:href="#DejaVuSans-4d" transform="translate(132.958984 0.78125)"/>
      <use xlink:href="#DejaVuSans-2c" transform="translate(219.238281 0.78125)"/>
      <use xlink:href="#DejaVuSans-20" transform="translate(251.025391 0.78125)"/>
      <use xlink:href="#DejaVuSans-Oblique-52" transform="translate(282.8125 0.78125)"/>
      <use xlink:href="#DejaVuSans-Oblique-65" transform="translate(352.294922 0.78125)"/>
      <use xlink:href="#DejaVuSans-Oblique-4d" transform="translate(413.818359 -15.625) scale(0.7)"/>
      <use xlink:href="#DejaVuSans-Oblique-41" transform="translate(474.213867 -15.625) scale(0.7)"/>
      <use xlink:href="#DejaVuSans-Oblique-43" transform="translate(522.099609 -15.625) scale(0.7)"/>
      <use xlink:href="#DejaVuSans-3d" transform="translate(593.193359 0.78125)"/>
      <use xlink:href="#DejaVuSans-34" transform="translate(696.464844 0.78125)"/>
      <use xlink:href="#DejaVuSans-2e" transform="translate(760.087891 0.78125)"/>
      <use xlink:href="#DejaVuSans-35" transform="translate(791.875 0.78125)"/>
      <use xlink:href="#DejaVuSans-Oblique-65" transform="translate(855.498047 0.78125)"/>
      <use xlink:href="#DejaVuSans-2b" transform="translate(936.503906 0.78125)"/>
      <use xlink:href="#DejaVuSans-30" transform="translate(1039.775391 0.78125)"/>
      <use xlink:href="#DejaVuSans-35" transform="translate(1103.398438 0.78125)"/>
     </g>
    </g>
   </g>
  </g>
 </g>
 <defs>
  <clipPath id="p3fb3255e11">
   <rect x="59.672" y="62.838" width="217.528" height="147.202"/>
  </clipPath>
 </defs>
</svg>
