<?xml version="1.0" encoding="utf-8" standalone="no"?>
<!DOCTYPE svg PUBLIC "-//W3C//DTD SVG 1.1//EN"
  "http://www.w3.org/Graphics/SVG/1.1/DTD/svg11.dtd">
<svg xmlns:xlink="http://www.w3.org/1999/xlink" width="288pt" height="216pt" viewBox="0 0 288 216" xmlns="http://www.w3.org/2000/svg" version="1.1">
 <metadata>
  <rdf:RDF xmlns:dc="http://purl.org/dc/elements/1.1/" xmlns:cc="http://creativecommons.org/ns#" xmlns:rdf="http://www.w3.org/1999/02/22-rdf-syntax-ns#">
   <cc:Work>
    <dc:type rdf:resource="http://purl.org/dc/dcmitype/StillImage"/>
    <dc:date>2025-03-27T14:25:06.553760</dc:date>
    <dc:format>image/svg+xml</dc:format>
    <dc:creator>
     <cc:Agent>
      <dc:title>Matplotlib v3.9.2, https://matplotlib.org/</dc:title>
     </cc:Agent>
    </dc:creator>
   </cc:Work>
  </rdf:RDF>
 </metadata>
 <defs>
  <style type="text/css">*{stroke-linejoin: round; stroke-linecap: butt}</style>
 </defs>
 <g id="figure_1">
  <g id="patch_1">
   <path d="M 0 216 
L 288 216 
L 288 0 
L 0 0 
z
" style="fill: #ffffff"/>
  </g>
  <g id="axes_1">
   <g id="patch_2">
    <path d="M 49.538 173.93875 
L 277.2 173.93875 
L 277.2 61.452 
L 49.538 61.452 
z
" style="fill: #ffffff"/>
   </g>
   <g id="PathCollection_1">
    <defs>
     <path id="m667869005e" d="M 0 3 
C 0.795609 3 1.55874 2.683901 2.12132 2.12132 
C 2.683901 1.55874 3 0.795609 3 0 
C 3 -0.795609 2.683901 -1.55874 2.12132 -2.12132 
C 1.55874 -2.683901 0.795609 -3 0 -3 
C -0.795609 -3 -1.55874 -2.683901 -2.12132 -2.12132 
C -2.683901 -1.55874 -3 -0.795609 -3 0 
C -3 0.795609 -2.683901 1.55874 -2.12132 2.12132 
C -1.55874 2.683901 -0.795609 3 0 3 
z
" style="stroke: #ff0000"/>
    </defs>
    <g clip-path="url(#pa013526f01)">
     <use xlink:href="#m667869005e" x="59.923901" y="67.98213" style="fill: #ff0000; stroke: #ff0000"/>
     <use xlink:href="#m667869005e" x="210.315143" y="136.495764" style="fill: #ff0000; stroke: #ff0000"/>
     <use xlink:href="#m667869005e" x="266.851727" y="166.764791" style="fill: #ff0000; stroke: #ff0000"/>
     <use xlink:href="#m667869005e" x="97.646578" y="85.846568" style="fill: #ff0000; stroke: #ff0000"/>
     <use xlink:href="#m667869005e" x="182.117736" y="124.241166" style="fill: #ff0000; stroke: #ff0000"/>
     <use xlink:href="#m667869005e" x="144.718627" y="107.055258" style="fill: #ff0000; stroke: #ff0000"/>
     <use xlink:href="#m667869005e" x="229.105676" y="145.500277" style="fill: #ff0000; stroke: #ff0000"/>
     <use xlink:href="#m667869005e" x="229.105676" y="145.377497" style="fill: #ff0000; stroke: #ff0000"/>
     <use xlink:href="#m667869005e" x="201.154547" y="132.01276" style="fill: #ff0000; stroke: #ff0000"/>
    </g>
   </g>
   <g id="PathCollection_2">
    <defs>
     <path id="m48eb1f4773" d="M -3 3 
L 3 -3 
M -3 -3 
L 3 3 
" style="stroke: #0000ff; stroke-width: 1.5"/>
    </defs>
    <g clip-path="url(#pa013526f01)">
     <use xlink:href="#m48eb1f4773" x="266.738894" y="168.825716" style="fill: #0000ff; stroke: #0000ff; stroke-width: 1.5"/>
     <use xlink:href="#m48eb1f4773" x="135.086211" y="102.230298" style="fill: #0000ff; stroke: #0000ff; stroke-width: 1.5"/>
     <use xlink:href="#m48eb1f4773" x="210.428002" y="136.755429" style="fill: #0000ff; stroke: #0000ff; stroke-width: 1.5"/>
     <use xlink:href="#m48eb1f4773" x="125.811114" y="99.230785" style="fill: #0000ff; stroke: #0000ff; stroke-width: 1.5"/>
     <use xlink:href="#m48eb1f4773" x="219.701165" y="141.344126" style="fill: #0000ff; stroke: #0000ff; stroke-width: 1.5"/>
     <use xlink:href="#m48eb1f4773" x="59.886273" y="66.978755" style="fill: #0000ff; stroke: #0000ff; stroke-width: 1.5"/>
    </g>
   </g>
   <g id="matplotlib.axis_1">
    <g id="xtick_1">
     <g id="line2d_1">
      <path d="M 59.948504 173.93875 
L 59.948504 61.452 
" clip-path="url(#pa013526f01)" style="fill: none; stroke: #b0b0b0; stroke-width: 0.8; stroke-linecap: square"/>
     </g>
     <g id="line2d_2">
      <defs>
       <path id="m53d0bfe6ba" d="M 0 0 
L 0 3.5 
" style="stroke: #000000; stroke-width: 0.8"/>
      </defs>
      <g>
       <use xlink:href="#m53d0bfe6ba" x="59.948504" y="173.93875" style="stroke: #000000; stroke-width: 0.8"/>
      </g>
     </g>
     <g id="text_1">
      <!-- −4 -->
      <g transform="translate(52.57741 188.537188) scale(0.1 -0.1)">
       <defs>
        <path id="DejaVuSans-2212" d="M 678 2272 
L 4684 2272 
L 4684 1741 
L 678 1741 
L 678 2272 
z
" transform="scale(0.015625)"/>
        <path id="DejaVuSans-34" d="M 2419 4116 
L 825 1625 
L 2419 1625 
L 2419 4116 
z
M 2253 4666 
L 3047 4666 
L 3047 1625 
L 3713 1625 
L 3713 1100 
L 3047 1100 
L 3047 0 
L 2419 0 
L 2419 1100 
L 313 1100 
L 313 1709 
L 2253 4666 
z
" transform="scale(0.015625)"/>
       </defs>
       <use xlink:href="#DejaVuSans-2212"/>
       <use xlink:href="#DejaVuSans-34" x="83.789062"/>
      </g>
     </g>
    </g>
    <g id="xtick_2">
     <g id="line2d_3">
      <path d="M 97.531115 173.93875 
L 97.531115 61.452 
" clip-path="url(#pa013526f01)" style="fill: none; stroke: #b0b0b0; stroke-width: 0.8; stroke-linecap: square"/>
     </g>
     <g id="line2d_4">
      <g>
       <use xlink:href="#m53d0bfe6ba" x="97.531115" y="173.93875" style="stroke: #000000; stroke-width: 0.8"/>
      </g>
     </g>
     <g id="text_2">
      <!-- −2 -->
      <g transform="translate(90.160021 188.537188) scale(0.1 -0.1)">
       <defs>
        <path id="DejaVuSans-32" d="M 1228 531 
L 3431 531 
L 3431 0 
L 469 0 
L 469 531 
Q 828 903 1448 1529 
Q 2069 2156 2228 2338 
Q 2531 2678 2651 2914 
Q 2772 3150 2772 3378 
Q 2772 3750 2511 3984 
Q 2250 4219 1831 4219 
Q 1534 4219 1204 4116 
Q 875 4013 500 3803 
L 500 4441 
Q 881 4594 1212 4672 
Q 1544 4750 1819 4750 
Q 2544 4750 2975 4387 
Q 3406 4025 3406 3419 
Q 3406 3131 3298 2873 
Q 3191 2616 2906 2266 
Q 2828 2175 2409 1742 
Q 1991 1309 1228 531 
z
" transform="scale(0.015625)"/>
       </defs>
       <use xlink:href="#DejaVuSans-2212"/>
       <use xlink:href="#DejaVuSans-32" x="83.789062"/>
      </g>
     </g>
    </g>
    <g id="xtick_3">
     <g id="line2d_5">
      <path d="M 135.113726 173.93875 
L 135.113726 61.452 
" clip-path="url(#pa013526f01)" style="fill: none; stroke: #b0b0b0; stroke-width: 0.8; stroke-linecap: square"/>
     </g>
     <g id="line2d_6">
      <g>
       <use xlink:href="#m53d0bfe6ba" x="135.113726" y="173.93875" style="stroke: #000000; stroke-width: 0.8"/>
      </g>
     </g>
     <g id="text_3">
      <!-- 0 -->
      <g transform="translate(131.932476 188.537188) scale(0.1 -0.1)">
       <defs>
        <path id="DejaVuSans-30" d="M 2034 4250 
Q 1547 4250 1301 3770 
Q 1056 3291 1056 2328 
Q 1056 1369 1301 889 
Q 1547 409 2034 409 
Q 2525 409 2770 889 
Q 3016 1369 3016 2328 
Q 3016 3291 2770 3770 
Q 2525 4250 2034 4250 
z
M 2034 4750 
Q 2819 4750 3233 4129 
Q 3647 3509 3647 2328 
Q 3647 1150 3233 529 
Q 2819 -91 2034 -91 
Q 1250 -91 836 529 
Q 422 1150 422 2328 
Q 422 3509 836 4129 
Q 1250 4750 2034 4750 
z
" transform="scale(0.015625)"/>
       </defs>
       <use xlink:href="#DejaVuSans-30"/>
      </g>
     </g>
    </g>
    <g id="xtick_4">
     <g id="line2d_7">
      <path d="M 172.696337 173.93875 
L 172.696337 61.452 
" clip-path="url(#pa013526f01)" style="fill: none; stroke: #b0b0b0; stroke-width: 0.8; stroke-linecap: square"/>
     </g>
     <g id="line2d_8">
      <g>
       <use xlink:href="#m53d0bfe6ba" x="172.696337" y="173.93875" style="stroke: #000000; stroke-width: 0.8"/>
      </g>
     </g>
     <g id="text_4">
      <!-- 2 -->
      <g transform="translate(169.515087 188.537188) scale(0.1 -0.1)">
       <use xlink:href="#DejaVuSans-32"/>
      </g>
     </g>
    </g>
    <g id="xtick_5">
     <g id="line2d_9">
      <path d="M 210.278948 173.93875 
L 210.278948 61.452 
" clip-path="url(#pa013526f01)" style="fill: none; stroke: #b0b0b0; stroke-width: 0.8; stroke-linecap: square"/>
     </g>
     <g id="line2d_10">
      <g>
       <use xlink:href="#m53d0bfe6ba" x="210.278948" y="173.93875" style="stroke: #000000; stroke-width: 0.8"/>
      </g>
     </g>
     <g id="text_5">
      <!-- 4 -->
      <g transform="translate(207.097698 188.537188) scale(0.1 -0.1)">
       <use xlink:href="#DejaVuSans-34"/>
      </g>
     </g>
    </g>
    <g id="xtick_6">
     <g id="line2d_11">
      <path d="M 247.861559 173.93875 
L 247.861559 61.452 
" clip-path="url(#pa013526f01)" style="fill: none; stroke: #b0b0b0; stroke-width: 0.8; stroke-linecap: square"/>
     </g>
     <g id="line2d_12">
      <g>
       <use xlink:href="#m53d0bfe6ba" x="247.861559" y="173.93875" style="stroke: #000000; stroke-width: 0.8"/>
      </g>
     </g>
     <g id="text_6">
      <!-- 6 -->
      <g transform="translate(244.680309 188.537188) scale(0.1 -0.1)">
       <defs>
        <path id="DejaVuSans-36" d="M 2113 2584 
Q 1688 2584 1439 2293 
Q 1191 2003 1191 1497 
Q 1191 994 1439 701 
Q 1688 409 2113 409 
Q 2538 409 2786 701 
Q 3034 994 3034 1497 
Q 3034 2003 2786 2293 
Q 2538 2584 2113 2584 
z
M 3366 4563 
L 3366 3988 
Q 3128 4100 2886 4159 
Q 2644 4219 2406 4219 
Q 1781 4219 1451 3797 
Q 1122 3375 1075 2522 
Q 1259 2794 1537 2939 
Q 1816 3084 2150 3084 
Q 2853 3084 3261 2657 
Q 3669 2231 3669 1497 
Q 3669 778 3244 343 
Q 2819 -91 2113 -91 
Q 1303 -91 875 529 
Q 447 1150 447 2328 
Q 447 3434 972 4092 
Q 1497 4750 2381 4750 
Q 2619 4750 2861 4703 
Q 3103 4656 3366 4563 
z
" transform="scale(0.015625)"/>
       </defs>
       <use xlink:href="#DejaVuSans-36"/>
      </g>
     </g>
    </g>
    <g id="text_7">
     <!-- fancy_labels[AOA_key] -->
     <g transform="translate(106.716656 202.215313) scale(0.1 -0.1)">
      <defs>
       <path id="DejaVuSans-66" d="M 2375 4863 
L 2375 4384 
L 1825 4384 
Q 1516 4384 1395 4259 
Q 1275 4134 1275 3809 
L 1275 3500 
L 2222 3500 
L 2222 3053 
L 1275 3053 
L 1275 0 
L 697 0 
L 697 3053 
L 147 3053 
L 147 3500 
L 697 3500 
L 697 3744 
Q 697 4328 969 4595 
Q 1241 4863 1831 4863 
L 2375 4863 
z
" transform="scale(0.015625)"/>
       <path id="DejaVuSans-61" d="M 2194 1759 
Q 1497 1759 1228 1600 
Q 959 1441 959 1056 
Q 959 750 1161 570 
Q 1363 391 1709 391 
Q 2188 391 2477 730 
Q 2766 1069 2766 1631 
L 2766 1759 
L 2194 1759 
z
M 3341 1997 
L 3341 0 
L 2766 0 
L 2766 531 
Q 2569 213 2275 61 
Q 1981 -91 1556 -91 
Q 1019 -91 701 211 
Q 384 513 384 1019 
Q 384 1609 779 1909 
Q 1175 2209 1959 2209 
L 2766 2209 
L 2766 2266 
Q 2766 2663 2505 2880 
Q 2244 3097 1772 3097 
Q 1472 3097 1187 3025 
Q 903 2953 641 2809 
L 641 3341 
Q 956 3463 1253 3523 
Q 1550 3584 1831 3584 
Q 2591 3584 2966 3190 
Q 3341 2797 3341 1997 
z
" transform="scale(0.015625)"/>
       <path id="DejaVuSans-6e" d="M 3513 2113 
L 3513 0 
L 2938 0 
L 2938 2094 
Q 2938 2591 2744 2837 
Q 2550 3084 2163 3084 
Q 1697 3084 1428 2787 
Q 1159 2491 1159 1978 
L 1159 0 
L 581 0 
L 581 3500 
L 1159 3500 
L 1159 2956 
Q 1366 3272 1645 3428 
Q 1925 3584 2291 3584 
Q 2894 3584 3203 3211 
Q 3513 2838 3513 2113 
z
" transform="scale(0.015625)"/>
       <path id="DejaVuSans-63" d="M 3122 3366 
L 3122 2828 
Q 2878 2963 2633 3030 
Q 2388 3097 2138 3097 
Q 1578 3097 1268 2742 
Q 959 2388 959 1747 
Q 959 1106 1268 751 
Q 1578 397 2138 397 
Q 2388 397 2633 464 
Q 2878 531 3122 666 
L 3122 134 
Q 2881 22 2623 -34 
Q 2366 -91 2075 -91 
Q 1284 -91 818 406 
Q 353 903 353 1747 
Q 353 2603 823 3093 
Q 1294 3584 2113 3584 
Q 2378 3584 2631 3529 
Q 2884 3475 3122 3366 
z
" transform="scale(0.015625)"/>
       <path id="DejaVuSans-79" d="M 2059 -325 
Q 1816 -950 1584 -1140 
Q 1353 -1331 966 -1331 
L 506 -1331 
L 506 -850 
L 844 -850 
Q 1081 -850 1212 -737 
Q 1344 -625 1503 -206 
L 1606 56 
L 191 3500 
L 800 3500 
L 1894 763 
L 2988 3500 
L 3597 3500 
L 2059 -325 
z
" transform="scale(0.015625)"/>
       <path id="DejaVuSans-5f" d="M 3263 -1063 
L 3263 -1509 
L -63 -1509 
L -63 -1063 
L 3263 -1063 
z
" transform="scale(0.015625)"/>
       <path id="DejaVuSans-6c" d="M 603 4863 
L 1178 4863 
L 1178 0 
L 603 0 
L 603 4863 
z
" transform="scale(0.015625)"/>
       <path id="DejaVuSans-62" d="M 3116 1747 
Q 3116 2381 2855 2742 
Q 2594 3103 2138 3103 
Q 1681 3103 1420 2742 
Q 1159 2381 1159 1747 
Q 1159 1113 1420 752 
Q 1681 391 2138 391 
Q 2594 391 2855 752 
Q 3116 1113 3116 1747 
z
M 1159 2969 
Q 1341 3281 1617 3432 
Q 1894 3584 2278 3584 
Q 2916 3584 3314 3078 
Q 3713 2572 3713 1747 
Q 3713 922 3314 415 
Q 2916 -91 2278 -91 
Q 1894 -91 1617 61 
Q 1341 213 1159 525 
L 1159 0 
L 581 0 
L 581 4863 
L 1159 4863 
L 1159 2969 
z
" transform="scale(0.015625)"/>
       <path id="DejaVuSans-65" d="M 3597 1894 
L 3597 1613 
L 953 1613 
Q 991 1019 1311 708 
Q 1631 397 2203 397 
Q 2534 397 2845 478 
Q 3156 559 3463 722 
L 3463 178 
Q 3153 47 2828 -22 
Q 2503 -91 2169 -91 
Q 1331 -91 842 396 
Q 353 884 353 1716 
Q 353 2575 817 3079 
Q 1281 3584 2069 3584 
Q 2775 3584 3186 3129 
Q 3597 2675 3597 1894 
z
M 3022 2063 
Q 3016 2534 2758 2815 
Q 2500 3097 2075 3097 
Q 1594 3097 1305 2825 
Q 1016 2553 972 2059 
L 3022 2063 
z
" transform="scale(0.015625)"/>
       <path id="DejaVuSans-73" d="M 2834 3397 
L 2834 2853 
Q 2591 2978 2328 3040 
Q 2066 3103 1784 3103 
Q 1356 3103 1142 2972 
Q 928 2841 928 2578 
Q 928 2378 1081 2264 
Q 1234 2150 1697 2047 
L 1894 2003 
Q 2506 1872 2764 1633 
Q 3022 1394 3022 966 
Q 3022 478 2636 193 
Q 2250 -91 1575 -91 
Q 1294 -91 989 -36 
Q 684 19 347 128 
L 347 722 
Q 666 556 975 473 
Q 1284 391 1588 391 
Q 1994 391 2212 530 
Q 2431 669 2431 922 
Q 2431 1156 2273 1281 
Q 2116 1406 1581 1522 
L 1381 1569 
Q 847 1681 609 1914 
Q 372 2147 372 2553 
Q 372 3047 722 3315 
Q 1072 3584 1716 3584 
Q 2034 3584 2315 3537 
Q 2597 3491 2834 3397 
z
" transform="scale(0.015625)"/>
       <path id="DejaVuSans-5b" d="M 550 4863 
L 1875 4863 
L 1875 4416 
L 1125 4416 
L 1125 -397 
L 1875 -397 
L 1875 -844 
L 550 -844 
L 550 4863 
z
" transform="scale(0.015625)"/>
       <path id="DejaVuSans-41" d="M 2188 4044 
L 1331 1722 
L 3047 1722 
L 2188 4044 
z
M 1831 4666 
L 2547 4666 
L 4325 0 
L 3669 0 
L 3244 1197 
L 1141 1197 
L 716 0 
L 50 0 
L 1831 4666 
z
" transform="scale(0.015625)"/>
       <path id="DejaVuSans-4f" d="M 2522 4238 
Q 1834 4238 1429 3725 
Q 1025 3213 1025 2328 
Q 1025 1447 1429 934 
Q 1834 422 2522 422 
Q 3209 422 3611 934 
Q 4013 1447 4013 2328 
Q 4013 3213 3611 3725 
Q 3209 4238 2522 4238 
z
M 2522 4750 
Q 3503 4750 4090 4092 
Q 4678 3434 4678 2328 
Q 4678 1225 4090 567 
Q 3503 -91 2522 -91 
Q 1538 -91 948 565 
Q 359 1222 359 2328 
Q 359 3434 948 4092 
Q 1538 4750 2522 4750 
z
" transform="scale(0.015625)"/>
       <path id="DejaVuSans-6b" d="M 581 4863 
L 1159 4863 
L 1159 1991 
L 2875 3500 
L 3609 3500 
L 1753 1863 
L 3688 0 
L 2938 0 
L 1159 1709 
L 1159 0 
L 581 0 
L 581 4863 
z
" transform="scale(0.015625)"/>
       <path id="DejaVuSans-5d" d="M 1947 4863 
L 1947 -844 
L 622 -844 
L 622 -397 
L 1369 -397 
L 1369 4416 
L 622 4416 
L 622 4863 
L 1947 4863 
z
" transform="scale(0.015625)"/>
      </defs>
      <use xlink:href="#DejaVuSans-66"/>
      <use xlink:href="#DejaVuSans-61" x="35.205078"/>
      <use xlink:href="#DejaVuSans-6e" x="96.484375"/>
      <use xlink:href="#DejaVuSans-63" x="159.863281"/>
      <use xlink:href="#DejaVuSans-79" x="214.84375"/>
      <use xlink:href="#DejaVuSans-5f" x="274.023438"/>
      <use xlink:href="#DejaVuSans-6c" x="324.023438"/>
      <use xlink:href="#DejaVuSans-61" x="351.806641"/>
      <use xlink:href="#DejaVuSans-62" x="413.085938"/>
      <use xlink:href="#DejaVuSans-65" x="476.5625"/>
      <use xlink:href="#DejaVuSans-6c" x="538.085938"/>
      <use xlink:href="#DejaVuSans-73" x="565.869141"/>
      <use xlink:href="#DejaVuSans-5b" x="617.96875"/>
      <use xlink:href="#DejaVuSans-41" x="656.982422"/>
      <use xlink:href="#DejaVuSans-4f" x="723.640625"/>
      <use xlink:href="#DejaVuSans-41" x="800.601562"/>
      <use xlink:href="#DejaVuSans-5f" x="869.009766"/>
      <use xlink:href="#DejaVuSans-6b" x="919.009766"/>
      <use xlink:href="#DejaVuSans-65" x="973.294922"/>
      <use xlink:href="#DejaVuSans-79" x="1034.818359"/>
      <use xlink:href="#DejaVuSans-5d" x="1093.998047"/>
     </g>
    </g>
   </g>
   <g id="matplotlib.axis_2">
    <g id="ytick_1">
     <g id="line2d_13">
      <path d="M 49.538 162.575471 
L 277.2 162.575471 
" clip-path="url(#pa013526f01)" style="fill: none; stroke: #b0b0b0; stroke-width: 0.8; stroke-linecap: square"/>
     </g>
     <g id="line2d_14">
      <defs>
       <path id="me37c01e8e3" d="M 0 0 
L -3.5 0 
" style="stroke: #000000; stroke-width: 0.8"/>
      </defs>
      <g>
       <use xlink:href="#me37c01e8e3" x="49.538" y="162.575471" style="stroke: #000000; stroke-width: 0.8"/>
      </g>
     </g>
     <g id="text_8">
      <!-- 0.0 -->
      <g transform="translate(26.634875 166.37469) scale(0.1 -0.1)">
       <defs>
        <path id="DejaVuSans-2e" d="M 684 794 
L 1344 794 
L 1344 0 
L 684 0 
L 684 794 
z
" transform="scale(0.015625)"/>
       </defs>
       <use xlink:href="#DejaVuSans-30"/>
       <use xlink:href="#DejaVuSans-2e" x="63.623047"/>
       <use xlink:href="#DejaVuSans-30" x="95.410156"/>
      </g>
     </g>
    </g>
    <g id="ytick_2">
     <g id="line2d_15">
      <path d="M 49.538 118.940066 
L 277.2 118.940066 
" clip-path="url(#pa013526f01)" style="fill: none; stroke: #b0b0b0; stroke-width: 0.8; stroke-linecap: square"/>
     </g>
     <g id="line2d_16">
      <g>
       <use xlink:href="#me37c01e8e3" x="49.538" y="118.940066" style="stroke: #000000; stroke-width: 0.8"/>
      </g>
     </g>
     <g id="text_9">
      <!-- 0.2 -->
      <g transform="translate(26.634875 122.739284) scale(0.1 -0.1)">
       <use xlink:href="#DejaVuSans-30"/>
       <use xlink:href="#DejaVuSans-2e" x="63.623047"/>
       <use xlink:href="#DejaVuSans-32" x="95.410156"/>
      </g>
     </g>
    </g>
    <g id="ytick_3">
     <g id="line2d_17">
      <path d="M 49.538 75.30466 
L 277.2 75.30466 
" clip-path="url(#pa013526f01)" style="fill: none; stroke: #b0b0b0; stroke-width: 0.8; stroke-linecap: square"/>
     </g>
     <g id="line2d_18">
      <g>
       <use xlink:href="#me37c01e8e3" x="49.538" y="75.30466" style="stroke: #000000; stroke-width: 0.8"/>
      </g>
     </g>
     <g id="text_10">
      <!-- 0.4 -->
      <g transform="translate(26.634875 79.103879) scale(0.1 -0.1)">
       <use xlink:href="#DejaVuSans-30"/>
       <use xlink:href="#DejaVuSans-2e" x="63.623047"/>
       <use xlink:href="#DejaVuSans-34" x="95.410156"/>
      </g>
     </g>
    </g>
    <g id="text_11">
     <!-- $C_M$ -->
     <g transform="translate(20.555188 124.345375) rotate(-90) scale(0.1 -0.1)">
      <defs>
       <path id="DejaVuSans-Oblique-43" d="M 4447 4306 
L 4319 3641 
Q 4019 3944 3683 4091 
Q 3347 4238 2956 4238 
Q 2422 4238 2017 3981 
Q 1613 3725 1319 3200 
Q 1131 2863 1032 2486 
Q 934 2109 934 1728 
Q 934 1091 1264 756 
Q 1594 422 2222 422 
Q 2656 422 3056 561 
Q 3456 700 3834 978 
L 3688 231 
Q 3316 72 2936 -9 
Q 2556 -91 2175 -91 
Q 1278 -91 773 396 
Q 269 884 269 1753 
Q 269 2309 461 2846 
Q 653 3384 1013 3828 
Q 1394 4300 1883 4525 
Q 2372 4750 3022 4750 
Q 3422 4750 3780 4639 
Q 4138 4528 4447 4306 
z
" transform="scale(0.015625)"/>
       <path id="DejaVuSans-Oblique-4d" d="M 1081 4666 
L 2028 4666 
L 2572 1522 
L 4378 4666 
L 5350 4666 
L 4441 0 
L 3828 0 
L 4622 4091 
L 2791 897 
L 2175 897 
L 1581 4103 
L 788 0 
L 172 0 
L 1081 4666 
z
" transform="scale(0.015625)"/>
      </defs>
      <use xlink:href="#DejaVuSans-Oblique-43" transform="translate(0 0.78125)"/>
      <use xlink:href="#DejaVuSans-Oblique-4d" transform="translate(69.824219 -15.625) scale(0.7)"/>
     </g>
    </g>
   </g>
   <g id="line2d_19">
    <path d="M 59.923901 67.555539 
L 62.014081 68.528093 
L 64.104261 69.500647 
L 66.194441 70.473201 
L 68.284622 71.445755 
L 70.374802 72.418309 
L 72.464982 73.390863 
L 74.555162 74.363417 
L 76.645342 75.335971 
L 78.735522 76.308525 
L 80.825702 77.281079 
L 82.915882 78.253633 
L 85.006062 79.226187 
L 87.096242 80.198741 
L 89.186422 81.171295 
L 91.276602 82.143849 
L 93.366782 83.116403 
L 95.456962 84.088957 
L 97.547142 85.061511 
L 99.637322 86.034065 
L 101.727503 87.006619 
L 103.817683 87.979173 
L 105.907863 88.951727 
L 107.998043 89.924281 
L 110.088223 90.896835 
L 112.178403 91.869389 
L 114.268583 92.841943 
L 116.358763 93.814497 
L 118.448943 94.787051 
L 120.539123 95.759604 
L 122.629303 96.732158 
L 124.719483 97.704712 
L 126.809663 98.677266 
L 128.899843 99.64982 
L 130.990023 100.622374 
L 133.080203 101.594928 
L 135.170383 102.567482 
L 137.260564 103.540036 
L 139.350744 104.51259 
L 141.440924 105.485144 
L 143.531104 106.457698 
L 145.621284 107.430252 
L 147.711464 108.402806 
L 149.801644 109.37536 
L 151.891824 110.347914 
L 153.982004 111.320468 
L 156.072184 112.293022 
L 158.162364 113.265576 
L 160.252544 114.23813 
L 162.342724 115.210684 
L 164.432904 116.183238 
L 166.523084 117.155792 
L 168.613264 118.128346 
L 170.703445 119.1009 
L 172.793625 120.073454 
L 174.883805 121.046008 
L 176.973985 122.018562 
L 179.064165 122.991116 
L 181.154345 123.96367 
L 183.244525 124.936224 
L 185.334705 125.908778 
L 187.424885 126.881332 
L 189.515065 127.853886 
L 191.605245 128.82644 
L 193.695425 129.798994 
L 195.785605 130.771548 
L 197.875785 131.744102 
L 199.965965 132.716656 
L 202.056145 133.68921 
L 204.146325 134.661764 
L 206.236506 135.634318 
L 208.326686 136.606872 
L 210.416866 137.579426 
L 212.507046 138.55198 
L 214.597226 139.524534 
L 216.687406 140.497088 
L 218.777586 141.469642 
L 220.867766 142.442196 
L 222.957946 143.41475 
L 225.048126 144.387304 
L 227.138306 145.359858 
L 229.228486 146.332412 
L 231.318666 147.304966 
L 233.408846 148.27752 
L 235.499026 149.250074 
L 237.589206 150.222627 
L 239.679386 151.195181 
L 241.769567 152.167735 
L 243.859747 153.140289 
L 245.949927 154.112843 
L 248.040107 155.085397 
L 250.130287 156.057951 
L 252.220467 157.030505 
L 254.310647 158.003059 
L 256.400827 158.975613 
L 258.491007 159.948167 
L 260.581187 160.920721 
L 262.671367 161.893275 
L 264.761547 162.865829 
L 266.851727 163.838383 
" clip-path="url(#pa013526f01)" style="fill: none; stroke-dasharray: 5.55,2.4; stroke-dashoffset: 0; stroke: #ff0000; stroke-width: 1.5"/>
   </g>
   <g id="line2d_20">
    <path d="M 59.948504 66.565034 
L 62.036427 67.675052 
L 64.12435 68.775499 
L 66.212273 69.866619 
L 68.300195 70.948656 
L 70.388118 72.021854 
L 72.476041 73.086456 
L 74.563964 74.142706 
L 76.651887 75.190849 
L 78.73981 76.231127 
L 80.827732 77.263785 
L 82.915655 78.289067 
L 85.003578 79.307216 
L 87.091501 80.318476 
L 89.179424 81.323092 
L 91.267347 82.321306 
L 93.355269 83.313363 
L 95.443192 84.299507 
L 97.531115 85.27998 
L 99.619038 86.255029 
L 101.706961 87.224895 
L 103.794883 88.189823 
L 105.882806 89.150056 
L 107.970729 90.105839 
L 110.058652 91.057416 
L 112.146575 92.005029 
L 114.234498 92.948924 
L 116.32242 93.889343 
L 118.410343 94.826531 
L 120.498266 95.760731 
L 122.586189 96.692188 
L 124.674112 97.621145 
L 126.762035 98.547845 
L 128.849957 99.472534 
L 130.93788 100.395454 
L 133.025803 101.316849 
L 135.113726 102.236963 
L 137.201649 103.156041 
L 139.289572 104.074325 
L 141.377494 104.99206 
L 143.465417 105.90949 
L 145.55334 106.826858 
L 147.641263 107.744408 
L 149.729186 108.662384 
L 151.817109 109.58103 
L 153.905031 110.50059 
L 155.992954 111.421307 
L 158.080877 112.343425 
L 160.1688 113.267188 
L 162.256723 114.19284 
L 164.344645 115.120626 
L 166.432568 116.050787 
L 168.520491 116.983569 
L 170.608414 117.919216 
L 172.696337 118.85797 
L 174.78426 119.800076 
L 176.872182 120.745778 
L 178.960105 121.69532 
L 181.048028 122.648944 
L 183.135951 123.606896 
L 185.223874 124.569419 
L 187.311797 125.536757 
L 189.399719 126.509154 
L 191.487642 127.486853 
L 193.575565 128.470098 
L 195.663488 129.459134 
L 197.751411 130.454203 
L 199.839334 131.45555 
L 201.927256 132.463419 
L 204.015179 133.478053 
L 206.103102 134.499697 
L 208.191025 135.528593 
L 210.278948 136.564987 
L 212.36687 137.609121 
L 214.454793 138.66124 
L 216.542716 139.721587 
L 218.630639 140.790406 
L 220.718562 141.867942 
L 222.806485 142.954437 
L 224.894407 144.050136 
L 226.98233 145.155282 
L 229.070253 146.27012 
L 231.158176 147.394893 
L 233.246099 148.529845 
L 235.334022 149.67522 
L 237.421944 150.831261 
L 239.509867 151.998213 
L 241.59779 153.176319 
L 243.685713 154.365823 
L 245.773636 155.566969 
L 247.861559 156.780001 
L 249.949481 158.005163 
L 252.037404 159.242698 
L 254.125327 160.49285 
L 256.21325 161.755863 
L 258.301173 163.031981 
L 260.389096 164.321448 
L 262.477018 165.624507 
L 264.564941 166.941403 
L 266.652864 168.272378 
" clip-path="url(#pa013526f01)" style="fill: none; stroke: #0000ff; stroke-width: 1.5; stroke-linecap: square"/>
   </g>
   <g id="patch_3">
    <path d="M 49.538 173.93875 
L 49.538 61.452 
" style="fill: none; stroke: #000000; stroke-width: 0.8; stroke-linejoin: miter; stroke-linecap: square"/>
   </g>
   <g id="patch_4">
    <path d="M 277.2 173.93875 
L 277.2 61.452 
" style="fill: none; stroke: #000000; stroke-width: 0.8; stroke-linejoin: miter; stroke-linecap: square"/>
   </g>
   <g id="patch_5">
    <path d="M 49.538 173.93875 
L 277.2 173.93875 
" style="fill: none; stroke: #000000; stroke-width: 0.8; stroke-linejoin: miter; stroke-linecap: square"/>
   </g>
   <g id="patch_6">
    <path d="M 49.538 61.452 
L 277.2 61.452 
" style="fill: none; stroke: #000000; stroke-width: 0.8; stroke-linejoin: miter; stroke-linecap: square"/>
   </g>
   <g id="legend_1">
    <g id="patch_7">
     <path d="M 79.969 52.827662 
L 250.769 52.827662 
Q 252.769 52.827662 252.769 50.827662 
L 252.769 22.471412 
Q 252.769 20.471412 250.769 20.471412 
L 79.969 20.471412 
Q 77.969 20.471412 77.969 22.471412 
L 77.969 50.827662 
Q 77.969 52.827662 79.969 52.827662 
z
" style="fill: #4d4d4d; opacity: 0.5; stroke: #4d4d4d; stroke-linejoin: miter"/>
    </g>
    <g id="patch_8">
     <path d="M 77.969 50.827662 
L 248.769 50.827662 
Q 250.769 50.827662 250.769 48.827662 
L 250.769 20.471412 
Q 250.769 18.471412 248.769 18.471412 
L 77.969 18.471412 
Q 75.969 18.471412 75.969 20.471412 
L 75.969 48.827662 
Q 75.969 50.827662 77.969 50.827662 
z
" style="fill: #ffffff; stroke: #cccccc; stroke-linejoin: miter"/>
    </g>
    <g id="line2d_21">
     <path d="M 79.969 26.56985 
L 89.969 26.56985 
L 99.969 26.56985 
" style="fill: none; stroke-dasharray: 5.55,2.4; stroke-dashoffset: 0; stroke: #ff0000; stroke-width: 1.5"/>
    </g>
    <g id="text_12">
     <!-- Linear fit, $Re_{MAC} = 2.2e+05$ -->
     <g transform="translate(107.969 30.06985) scale(0.1 -0.1)">
      <defs>
       <path id="DejaVuSans-4c" d="M 628 4666 
L 1259 4666 
L 1259 531 
L 3531 531 
L 3531 0 
L 628 0 
L 628 4666 
z
" transform="scale(0.015625)"/>
       <path id="DejaVuSans-69" d="M 603 3500 
L 1178 3500 
L 1178 0 
L 603 0 
L 603 3500 
z
M 603 4863 
L 1178 4863 
L 1178 4134 
L 603 4134 
L 603 4863 
z
" transform="scale(0.015625)"/>
       <path id="DejaVuSans-72" d="M 2631 2963 
Q 2534 3019 2420 3045 
Q 2306 3072 2169 3072 
Q 1681 3072 1420 2755 
Q 1159 2438 1159 1844 
L 1159 0 
L 581 0 
L 581 3500 
L 1159 3500 
L 1159 2956 
Q 1341 3275 1631 3429 
Q 1922 3584 2338 3584 
Q 2397 3584 2469 3576 
Q 2541 3569 2628 3553 
L 2631 2963 
z
" transform="scale(0.015625)"/>
       <path id="DejaVuSans-20" transform="scale(0.015625)"/>
       <path id="DejaVuSans-74" d="M 1172 4494 
L 1172 3500 
L 2356 3500 
L 2356 3053 
L 1172 3053 
L 1172 1153 
Q 1172 725 1289 603 
Q 1406 481 1766 481 
L 2356 481 
L 2356 0 
L 1766 0 
Q 1100 0 847 248 
Q 594 497 594 1153 
L 594 3053 
L 172 3053 
L 172 3500 
L 594 3500 
L 594 4494 
L 1172 4494 
z
" transform="scale(0.015625)"/>
       <path id="DejaVuSans-2c" d="M 750 794 
L 1409 794 
L 1409 256 
L 897 -744 
L 494 -744 
L 750 256 
L 750 794 
z
" transform="scale(0.015625)"/>
       <path id="DejaVuSans-Oblique-52" d="M 1613 4147 
L 1294 2491 
L 2106 2491 
Q 2584 2491 2879 2755 
Q 3175 3019 3175 3444 
Q 3175 3784 2976 3965 
Q 2778 4147 2406 4147 
L 1613 4147 
z
M 2772 2241 
Q 2972 2194 3105 2009 
Q 3238 1825 3413 1275 
L 3809 0 
L 3144 0 
L 2778 1197 
Q 2638 1659 2453 1815 
Q 2269 1972 1888 1972 
L 1191 1972 
L 806 0 
L 172 0 
L 1081 4666 
L 2503 4666 
Q 3150 4666 3495 4373 
Q 3841 4081 3841 3531 
Q 3841 3044 3547 2687 
Q 3253 2331 2772 2241 
z
" transform="scale(0.015625)"/>
       <path id="DejaVuSans-Oblique-65" d="M 3078 2063 
Q 3088 2113 3092 2166 
Q 3097 2219 3097 2272 
Q 3097 2653 2873 2875 
Q 2650 3097 2266 3097 
Q 1838 3097 1509 2826 
Q 1181 2556 1013 2059 
L 3078 2063 
z
M 3578 1613 
L 903 1613 
Q 884 1494 878 1425 
Q 872 1356 872 1306 
Q 872 872 1139 634 
Q 1406 397 1894 397 
Q 2269 397 2603 481 
Q 2938 566 3225 728 
L 3116 159 
Q 2806 34 2476 -28 
Q 2147 -91 1806 -91 
Q 1078 -91 686 257 
Q 294 606 294 1247 
Q 294 1794 489 2264 
Q 684 2734 1063 3103 
Q 1306 3334 1642 3459 
Q 1978 3584 2356 3584 
Q 2950 3584 3301 3228 
Q 3653 2872 3653 2272 
Q 3653 2128 3634 1964 
Q 3616 1800 3578 1613 
z
" transform="scale(0.015625)"/>
       <path id="DejaVuSans-Oblique-41" d="M 2356 4666 
L 3072 4666 
L 3938 0 
L 3278 0 
L 3084 1197 
L 984 1197 
L 325 0 
L -341 0 
L 2356 4666 
z
M 2584 4044 
L 1275 1722 
L 2988 1722 
L 2584 4044 
z
" transform="scale(0.015625)"/>
       <path id="DejaVuSans-3d" d="M 678 2906 
L 4684 2906 
L 4684 2381 
L 678 2381 
L 678 2906 
z
M 678 1631 
L 4684 1631 
L 4684 1100 
L 678 1100 
L 678 1631 
z
" transform="scale(0.015625)"/>
       <path id="DejaVuSans-2b" d="M 2944 4013 
L 2944 2272 
L 4684 2272 
L 4684 1741 
L 2944 1741 
L 2944 0 
L 2419 0 
L 2419 1741 
L 678 1741 
L 678 2272 
L 2419 2272 
L 2419 4013 
L 2944 4013 
z
" transform="scale(0.015625)"/>
       <path id="DejaVuSans-35" d="M 691 4666 
L 3169 4666 
L 3169 4134 
L 1269 4134 
L 1269 2991 
Q 1406 3038 1543 3061 
Q 1681 3084 1819 3084 
Q 2600 3084 3056 2656 
Q 3513 2228 3513 1497 
Q 3513 744 3044 326 
Q 2575 -91 1722 -91 
Q 1428 -91 1123 -41 
Q 819 9 494 109 
L 494 744 
Q 775 591 1075 516 
Q 1375 441 1709 441 
Q 2250 441 2565 725 
Q 2881 1009 2881 1497 
Q 2881 1984 2565 2268 
Q 2250 2553 1709 2553 
Q 1456 2553 1204 2497 
Q 953 2441 691 2322 
L 691 4666 
z
" transform="scale(0.015625)"/>
      </defs>
      <use xlink:href="#DejaVuSans-4c" transform="translate(0 0.015625)"/>
      <use xlink:href="#DejaVuSans-69" transform="translate(55.712891 0.015625)"/>
      <use xlink:href="#DejaVuSans-6e" transform="translate(83.496094 0.015625)"/>
      <use xlink:href="#DejaVuSans-65" transform="translate(146.875 0.015625)"/>
      <use xlink:href="#DejaVuSans-61" transform="translate(208.398438 0.015625)"/>
      <use xlink:href="#DejaVuSans-72" transform="translate(269.677734 0.015625)"/>
      <use xlink:href="#DejaVuSans-20" transform="translate(310.791016 0.015625)"/>
      <use xlink:href="#DejaVuSans-66" transform="translate(342.578125 0.015625)"/>
      <use xlink:href="#DejaVuSans-69" transform="translate(377.783203 0.015625)"/>
      <use xlink:href="#DejaVuSans-74" transform="translate(405.566406 0.015625)"/>
      <use xlink:href="#DejaVuSans-2c" transform="translate(444.775391 0.015625)"/>
      <use xlink:href="#DejaVuSans-20" transform="translate(476.5625 0.015625)"/>
      <use xlink:href="#DejaVuSans-Oblique-52" transform="translate(508.349609 0.015625)"/>
      <use xlink:href="#DejaVuSans-Oblique-65" transform="translate(577.832031 0.015625)"/>
      <use xlink:href="#DejaVuSans-Oblique-4d" transform="translate(639.355469 -16.390625) scale(0.7)"/>
      <use xlink:href="#DejaVuSans-Oblique-41" transform="translate(699.750977 -16.390625) scale(0.7)"/>
      <use xlink:href="#DejaVuSans-Oblique-43" transform="translate(747.636719 -16.390625) scale(0.7)"/>
      <use xlink:href="#DejaVuSans-3d" transform="translate(818.730469 0.015625)"/>
      <use xlink:href="#DejaVuSans-32" transform="translate(922.001953 0.015625)"/>
      <use xlink:href="#DejaVuSans-2e" transform="translate(985.625 0.015625)"/>
      <use xlink:href="#DejaVuSans-32" transform="translate(1011.912109 0.015625)"/>
      <use xlink:href="#DejaVuSans-Oblique-65" transform="translate(1075.535156 0.015625)"/>
      <use xlink:href="#DejaVuSans-2b" transform="translate(1156.541016 0.015625)"/>
      <use xlink:href="#DejaVuSans-30" transform="translate(1259.8125 0.015625)"/>
      <use xlink:href="#DejaVuSans-35" transform="translate(1323.435547 0.015625)"/>
     </g>
    </g>
    <g id="line2d_22">
     <path d="M 79.969 41.247975 
L 89.969 41.247975 
L 99.969 41.247975 
" style="fill: none; stroke: #0000ff; stroke-width: 1.5; stroke-linecap: square"/>
    </g>
    <g id="text_13">
     <!-- RSM, $Re_{MAC} = 4.5e+05$ -->
     <g transform="translate(107.969 44.747975) scale(0.1 -0.1)">
      <defs>
       <path id="DejaVuSans-52" d="M 2841 2188 
Q 3044 2119 3236 1894 
Q 3428 1669 3622 1275 
L 4263 0 
L 3584 0 
L 2988 1197 
Q 2756 1666 2539 1819 
Q 2322 1972 1947 1972 
L 1259 1972 
L 1259 0 
L 628 0 
L 628 4666 
L 2053 4666 
Q 2853 4666 3247 4331 
Q 3641 3997 3641 3322 
Q 3641 2881 3436 2590 
Q 3231 2300 2841 2188 
z
M 1259 4147 
L 1259 2491 
L 2053 2491 
Q 2509 2491 2742 2702 
Q 2975 2913 2975 3322 
Q 2975 3731 2742 3939 
Q 2509 4147 2053 4147 
L 1259 4147 
z
" transform="scale(0.015625)"/>
       <path id="DejaVuSans-53" d="M 3425 4513 
L 3425 3897 
Q 3066 4069 2747 4153 
Q 2428 4238 2131 4238 
Q 1616 4238 1336 4038 
Q 1056 3838 1056 3469 
Q 1056 3159 1242 3001 
Q 1428 2844 1947 2747 
L 2328 2669 
Q 3034 2534 3370 2195 
Q 3706 1856 3706 1288 
Q 3706 609 3251 259 
Q 2797 -91 1919 -91 
Q 1588 -91 1214 -16 
Q 841 59 441 206 
L 441 856 
Q 825 641 1194 531 
Q 1563 422 1919 422 
Q 2459 422 2753 634 
Q 3047 847 3047 1241 
Q 3047 1584 2836 1778 
Q 2625 1972 2144 2069 
L 1759 2144 
Q 1053 2284 737 2584 
Q 422 2884 422 3419 
Q 422 4038 858 4394 
Q 1294 4750 2059 4750 
Q 2388 4750 2728 4690 
Q 3069 4631 3425 4513 
z
" transform="scale(0.015625)"/>
       <path id="DejaVuSans-4d" d="M 628 4666 
L 1569 4666 
L 2759 1491 
L 3956 4666 
L 4897 4666 
L 4897 0 
L 4281 0 
L 4281 4097 
L 3078 897 
L 2444 897 
L 1241 4097 
L 1241 0 
L 628 0 
L 628 4666 
z
" transform="scale(0.015625)"/>
      </defs>
      <use xlink:href="#DejaVuSans-52" transform="translate(0 0.78125)"/>
      <use xlink:href="#DejaVuSans-53" transform="translate(69.482422 0.78125)"/>
      <use xlink:href="#DejaVuSans-4d" transform="translate(132.958984 0.78125)"/>
      <use xlink:href="#DejaVuSans-2c" transform="translate(219.238281 0.78125)"/>
      <use xlink:href="#DejaVuSans-20" transform="translate(251.025391 0.78125)"/>
      <use xlink:href="#DejaVuSans-Oblique-52" transform="translate(282.8125 0.78125)"/>
      <use xlink:href="#DejaVuSans-Oblique-65" transform="translate(352.294922 0.78125)"/>
      <use xlink:href="#DejaVuSans-Oblique-4d" transform="translate(413.818359 -15.625) scale(0.7)"/>
      <use xlink:href="#DejaVuSans-Oblique-41" transform="translate(474.213867 -15.625) scale(0.7)"/>
      <use xlink:href="#DejaVuSans-Oblique-43" transform="translate(522.099609 -15.625) scale(0.7)"/>
      <use xlink:href="#DejaVuSans-3d" transform="translate(593.193359 0.78125)"/>
      <use xlink:href="#DejaVuSans-34" transform="translate(696.464844 0.78125)"/>
      <use xlink:href="#DejaVuSans-2e" transform="translate(760.087891 0.78125)"/>
      <use xlink:href="#DejaVuSans-35" transform="translate(791.875 0.78125)"/>
      <use xlink:href="#DejaVuSans-Oblique-65" transform="translate(855.498047 0.78125)"/>
      <use xlink:href="#DejaVuSans-2b" transform="translate(936.503906 0.78125)"/>
      <use xlink:href="#DejaVuSans-30" transform="translate(1039.775391 0.78125)"/>
      <use xlink:href="#DejaVuSans-35" transform="translate(1103.398438 0.78125)"/>
     </g>
    </g>
   </g>
  </g>
 </g>
 <defs>
  <clipPath id="pa013526f01">
   <rect x="49.538" y="61.452" width="227.662" height="112.48675"/>
  </clipPath>
 </defs>
</svg>
