<?xml version="1.0" encoding="utf-8" standalone="no"?>
<!DOCTYPE svg PUBLIC "-//W3C//DTD SVG 1.1//EN"
  "http://www.w3.org/Graphics/SVG/1.1/DTD/svg11.dtd">
<svg xmlns:xlink="http://www.w3.org/1999/xlink" width="288pt" height="252pt" viewBox="0 0 288 252" xmlns="http://www.w3.org/2000/svg" version="1.1">
 <metadata>
  <rdf:RDF xmlns:dc="http://purl.org/dc/elements/1.1/" xmlns:cc="http://creativecommons.org/ns#" xmlns:rdf="http://www.w3.org/1999/02/22-rdf-syntax-ns#">
   <cc:Work>
    <dc:type rdf:resource="http://purl.org/dc/dcmitype/StillImage"/>
    <dc:date>2025-03-28T12:22:15.904134</dc:date>
    <dc:format>image/svg+xml</dc:format>
    <dc:creator>
     <cc:Agent>
      <dc:title>Matplotlib v3.9.2, https://matplotlib.org/</dc:title>
     </cc:Agent>
    </dc:creator>
   </cc:Work>
  </rdf:RDF>
 </metadata>
 <defs>
  <style type="text/css">*{stroke-linejoin: round; stroke-linecap: butt}</style>
 </defs>
 <g id="figure_1">
  <g id="patch_1">
   <path d="M 0 252 
L 288 252 
L 288 0 
L 0 0 
z
" style="fill: #ffffff"/>
  </g>
  <g id="axes_1">
   <g id="patch_2">
    <path d="M 55.928 210.04 
L 277.2 210.04 
L 277.2 62.838 
L 55.928 62.838 
z
" style="fill: #ffffff"/>
   </g>
   <g id="PathCollection_1">
    <defs>
     <path id="m71f30d824f" d="M 0 3 
C 0.795609 3 1.55874 2.683901 2.12132 2.12132 
C 2.683901 1.55874 3 0.795609 3 0 
C 3 -0.795609 2.683901 -1.55874 2.12132 -2.12132 
C 1.55874 -2.683901 0.795609 -3 0 -3 
C -0.795609 -3 -1.55874 -2.683901 -2.12132 -2.12132 
C -2.683901 -1.55874 -3 -0.795609 -3 0 
C -3 0.795609 -2.683901 1.55874 -2.12132 2.12132 
C -1.55874 2.683901 -0.795609 3 0 3 
z
" style="stroke: #ff0000"/>
    </defs>
    <g clip-path="url(#pe24997149a)">
     <use xlink:href="#m71f30d824f" x="66.022391" y="157.879566" style="fill: #ff0000; stroke: #ff0000"/>
     <use xlink:href="#m71f30d824f" x="212.192462" y="130.459848" style="fill: #ff0000; stroke: #ff0000"/>
     <use xlink:href="#m71f30d824f" x="267.142182" y="69.529" style="fill: #ff0000; stroke: #ff0000"/>
     <use xlink:href="#m71f30d824f" x="102.68627" y="167.913787" style="fill: #ff0000; stroke: #ff0000"/>
     <use xlink:href="#m71f30d824f" x="184.786498" y="149.33651" style="fill: #ff0000; stroke: #ff0000"/>
     <use xlink:href="#m71f30d824f" x="148.437104" y="164.927264" style="fill: #ff0000; stroke: #ff0000"/>
     <use xlink:href="#m71f30d824f" x="230.455584" y="113.662849" style="fill: #ff0000; stroke: #ff0000"/>
     <use xlink:href="#m71f30d824f" x="230.455584" y="113.618447" style="fill: #ff0000; stroke: #ff0000"/>
     <use xlink:href="#m71f30d824f" x="203.288985" y="136.778543" style="fill: #ff0000; stroke: #ff0000"/>
    </g>
   </g>
   <g id="PathCollection_2">
    <defs>
     <path id="m9ea1e4234c" d="M -3 3 
L 3 -3 
M -3 -3 
L 3 3 
" style="stroke: #0000ff; stroke-width: 1.5"/>
    </defs>
    <g clip-path="url(#pe24997149a)">
     <use xlink:href="#m9ea1e4234c" x="267.032515" y="95.918481" style="fill: #0000ff; stroke: #0000ff; stroke-width: 1.5"/>
     <use xlink:href="#m9ea1e4234c" x="139.07505" y="201.091101" style="fill: #0000ff; stroke: #0000ff; stroke-width: 1.5"/>
     <use xlink:href="#m9ea1e4234c" x="212.302154" y="162.530156" style="fill: #0000ff; stroke: #0000ff; stroke-width: 1.5"/>
     <use xlink:href="#m9ea1e4234c" x="130.060286" y="194.72813" style="fill: #0000ff; stroke: #0000ff; stroke-width: 1.5"/>
     <use xlink:href="#m9ea1e4234c" x="221.315038" y="154.135956" style="fill: #0000ff; stroke: #0000ff; stroke-width: 1.5"/>
     <use xlink:href="#m9ea1e4234c" x="65.985818" y="192.748772" style="fill: #0000ff; stroke: #0000ff; stroke-width: 1.5"/>
    </g>
   </g>
   <g id="matplotlib.axis_1">
    <g id="xtick_1">
     <g id="line2d_1">
      <path d="M 66.046303 210.04 
L 66.046303 62.838 
" clip-path="url(#pe24997149a)" style="fill: none; stroke: #b0b0b0; stroke-width: 0.8; stroke-linecap: square"/>
     </g>
     <g id="line2d_2">
      <defs>
       <path id="m6c09d1f893" d="M 0 0 
L 0 3.5 
" style="stroke: #000000; stroke-width: 0.8"/>
      </defs>
      <g>
       <use xlink:href="#m6c09d1f893" x="66.046303" y="210.04" style="stroke: #000000; stroke-width: 0.8"/>
      </g>
     </g>
     <g id="text_1">
      <!-- −4 -->
      <g transform="translate(58.675209 224.638438) scale(0.1 -0.1)">
       <defs>
        <path id="DejaVuSans-2212" d="M 678 2272 
L 4684 2272 
L 4684 1741 
L 678 1741 
L 678 2272 
z
" transform="scale(0.015625)"/>
        <path id="DejaVuSans-34" d="M 2419 4116 
L 825 1625 
L 2419 1625 
L 2419 4116 
z
M 2253 4666 
L 3047 4666 
L 3047 1625 
L 3713 1625 
L 3713 1100 
L 3047 1100 
L 3047 0 
L 2419 0 
L 2419 1100 
L 313 1100 
L 313 1709 
L 2253 4666 
z
" transform="scale(0.015625)"/>
       </defs>
       <use xlink:href="#DejaVuSans-2212"/>
       <use xlink:href="#DejaVuSans-34" x="83.789062"/>
      </g>
     </g>
    </g>
    <g id="xtick_2">
     <g id="line2d_3">
      <path d="M 102.574048 210.04 
L 102.574048 62.838 
" clip-path="url(#pe24997149a)" style="fill: none; stroke: #b0b0b0; stroke-width: 0.8; stroke-linecap: square"/>
     </g>
     <g id="line2d_4">
      <g>
       <use xlink:href="#m6c09d1f893" x="102.574048" y="210.04" style="stroke: #000000; stroke-width: 0.8"/>
      </g>
     </g>
     <g id="text_2">
      <!-- −2 -->
      <g transform="translate(95.202954 224.638438) scale(0.1 -0.1)">
       <defs>
        <path id="DejaVuSans-32" d="M 1228 531 
L 3431 531 
L 3431 0 
L 469 0 
L 469 531 
Q 828 903 1448 1529 
Q 2069 2156 2228 2338 
Q 2531 2678 2651 2914 
Q 2772 3150 2772 3378 
Q 2772 3750 2511 3984 
Q 2250 4219 1831 4219 
Q 1534 4219 1204 4116 
Q 875 4013 500 3803 
L 500 4441 
Q 881 4594 1212 4672 
Q 1544 4750 1819 4750 
Q 2544 4750 2975 4387 
Q 3406 4025 3406 3419 
Q 3406 3131 3298 2873 
Q 3191 2616 2906 2266 
Q 2828 2175 2409 1742 
Q 1991 1309 1228 531 
z
" transform="scale(0.015625)"/>
       </defs>
       <use xlink:href="#DejaVuSans-2212"/>
       <use xlink:href="#DejaVuSans-32" x="83.789062"/>
      </g>
     </g>
    </g>
    <g id="xtick_3">
     <g id="line2d_5">
      <path d="M 139.101793 210.04 
L 139.101793 62.838 
" clip-path="url(#pe24997149a)" style="fill: none; stroke: #b0b0b0; stroke-width: 0.8; stroke-linecap: square"/>
     </g>
     <g id="line2d_6">
      <g>
       <use xlink:href="#m6c09d1f893" x="139.101793" y="210.04" style="stroke: #000000; stroke-width: 0.8"/>
      </g>
     </g>
     <g id="text_3">
      <!-- 0 -->
      <g transform="translate(135.920543 224.638438) scale(0.1 -0.1)">
       <defs>
        <path id="DejaVuSans-30" d="M 2034 4250 
Q 1547 4250 1301 3770 
Q 1056 3291 1056 2328 
Q 1056 1369 1301 889 
Q 1547 409 2034 409 
Q 2525 409 2770 889 
Q 3016 1369 3016 2328 
Q 3016 3291 2770 3770 
Q 2525 4250 2034 4250 
z
M 2034 4750 
Q 2819 4750 3233 4129 
Q 3647 3509 3647 2328 
Q 3647 1150 3233 529 
Q 2819 -91 2034 -91 
Q 1250 -91 836 529 
Q 422 1150 422 2328 
Q 422 3509 836 4129 
Q 1250 4750 2034 4750 
z
" transform="scale(0.015625)"/>
       </defs>
       <use xlink:href="#DejaVuSans-30"/>
      </g>
     </g>
    </g>
    <g id="xtick_4">
     <g id="line2d_7">
      <path d="M 175.629538 210.04 
L 175.629538 62.838 
" clip-path="url(#pe24997149a)" style="fill: none; stroke: #b0b0b0; stroke-width: 0.8; stroke-linecap: square"/>
     </g>
     <g id="line2d_8">
      <g>
       <use xlink:href="#m6c09d1f893" x="175.629538" y="210.04" style="stroke: #000000; stroke-width: 0.8"/>
      </g>
     </g>
     <g id="text_4">
      <!-- 2 -->
      <g transform="translate(172.448288 224.638438) scale(0.1 -0.1)">
       <use xlink:href="#DejaVuSans-32"/>
      </g>
     </g>
    </g>
    <g id="xtick_5">
     <g id="line2d_9">
      <path d="M 212.157283 210.04 
L 212.157283 62.838 
" clip-path="url(#pe24997149a)" style="fill: none; stroke: #b0b0b0; stroke-width: 0.8; stroke-linecap: square"/>
     </g>
     <g id="line2d_10">
      <g>
       <use xlink:href="#m6c09d1f893" x="212.157283" y="210.04" style="stroke: #000000; stroke-width: 0.8"/>
      </g>
     </g>
     <g id="text_5">
      <!-- 4 -->
      <g transform="translate(208.976033 224.638438) scale(0.1 -0.1)">
       <use xlink:href="#DejaVuSans-34"/>
      </g>
     </g>
    </g>
    <g id="xtick_6">
     <g id="line2d_11">
      <path d="M 248.685028 210.04 
L 248.685028 62.838 
" clip-path="url(#pe24997149a)" style="fill: none; stroke: #b0b0b0; stroke-width: 0.8; stroke-linecap: square"/>
     </g>
     <g id="line2d_12">
      <g>
       <use xlink:href="#m6c09d1f893" x="248.685028" y="210.04" style="stroke: #000000; stroke-width: 0.8"/>
      </g>
     </g>
     <g id="text_6">
      <!-- 6 -->
      <g transform="translate(245.503778 224.638438) scale(0.1 -0.1)">
       <defs>
        <path id="DejaVuSans-36" d="M 2113 2584 
Q 1688 2584 1439 2293 
Q 1191 2003 1191 1497 
Q 1191 994 1439 701 
Q 1688 409 2113 409 
Q 2538 409 2786 701 
Q 3034 994 3034 1497 
Q 3034 2003 2786 2293 
Q 2538 2584 2113 2584 
z
M 3366 4563 
L 3366 3988 
Q 3128 4100 2886 4159 
Q 2644 4219 2406 4219 
Q 1781 4219 1451 3797 
Q 1122 3375 1075 2522 
Q 1259 2794 1537 2939 
Q 1816 3084 2150 3084 
Q 2853 3084 3261 2657 
Q 3669 2231 3669 1497 
Q 3669 778 3244 343 
Q 2819 -91 2113 -91 
Q 1303 -91 875 529 
Q 447 1150 447 2328 
Q 447 3434 972 4092 
Q 1497 4750 2381 4750 
Q 2619 4750 2861 4703 
Q 3103 4656 3366 4563 
z
" transform="scale(0.015625)"/>
       </defs>
       <use xlink:href="#DejaVuSans-36"/>
      </g>
     </g>
    </g>
    <g id="text_7">
     <!-- $\alpha$ -->
     <g transform="translate(163.264 238.316563) scale(0.1 -0.1)">
      <defs>
       <path id="DejaVuSans-Oblique-3b1" d="M 2619 1628 
L 2622 2350 
Q 2625 3088 2069 3091 
Q 1653 3094 1394 2747 
Q 1069 2319 959 1747 
Q 825 1059 994 731 
Q 1169 397 1547 397 
Q 1966 397 2319 1063 
L 2619 1628 
z
M 2166 3578 
Q 3141 3594 3128 2584 
Q 3128 2584 3616 3500 
L 4128 3500 
L 3119 1603 
L 3109 919 
Q 3109 766 3194 638 
Q 3291 488 3391 488 
L 3669 488 
L 3575 0 
L 3228 0 
Q 2934 0 2722 263 
Q 2622 394 2619 669 
Q 2416 334 2066 50 
Q 1900 -81 1453 -78 
Q 722 -72 456 397 
Q 184 884 353 1747 
Q 534 2675 1009 3097 
Q 1544 3569 2166 3578 
z
" transform="scale(0.015625)"/>
      </defs>
      <use xlink:href="#DejaVuSans-Oblique-3b1" transform="translate(0 0.84375)"/>
     </g>
    </g>
   </g>
   <g id="matplotlib.axis_2">
    <g id="ytick_1">
     <g id="line2d_13">
      <path d="M 55.928 187.364706 
L 277.2 187.364706 
" clip-path="url(#pe24997149a)" style="fill: none; stroke: #b0b0b0; stroke-width: 0.8; stroke-linecap: square"/>
     </g>
     <g id="line2d_14">
      <defs>
       <path id="mbbafcda982" d="M 0 0 
L -3.5 0 
" style="stroke: #000000; stroke-width: 0.8"/>
      </defs>
      <g>
       <use xlink:href="#mbbafcda982" x="55.928" y="187.364706" style="stroke: #000000; stroke-width: 0.8"/>
      </g>
     </g>
     <g id="text_8">
      <!-- 0.03 -->
      <g transform="translate(26.662375 191.163925) scale(0.1 -0.1)">
       <defs>
        <path id="DejaVuSans-2e" d="M 684 794 
L 1344 794 
L 1344 0 
L 684 0 
L 684 794 
z
" transform="scale(0.015625)"/>
        <path id="DejaVuSans-33" d="M 2597 2516 
Q 3050 2419 3304 2112 
Q 3559 1806 3559 1356 
Q 3559 666 3084 287 
Q 2609 -91 1734 -91 
Q 1441 -91 1130 -33 
Q 819 25 488 141 
L 488 750 
Q 750 597 1062 519 
Q 1375 441 1716 441 
Q 2309 441 2620 675 
Q 2931 909 2931 1356 
Q 2931 1769 2642 2001 
Q 2353 2234 1838 2234 
L 1294 2234 
L 1294 2753 
L 1863 2753 
Q 2328 2753 2575 2939 
Q 2822 3125 2822 3475 
Q 2822 3834 2567 4026 
Q 2313 4219 1838 4219 
Q 1578 4219 1281 4162 
Q 984 4106 628 3988 
L 628 4550 
Q 988 4650 1302 4700 
Q 1616 4750 1894 4750 
Q 2613 4750 3031 4423 
Q 3450 4097 3450 3541 
Q 3450 3153 3228 2886 
Q 3006 2619 2597 2516 
z
" transform="scale(0.015625)"/>
       </defs>
       <use xlink:href="#DejaVuSans-30"/>
       <use xlink:href="#DejaVuSans-2e" x="63.623047"/>
       <use xlink:href="#DejaVuSans-30" x="95.410156"/>
       <use xlink:href="#DejaVuSans-33" x="159.033203"/>
      </g>
     </g>
    </g>
    <g id="ytick_2">
     <g id="line2d_15">
      <path d="M 55.928 163.453855 
L 277.2 163.453855 
" clip-path="url(#pe24997149a)" style="fill: none; stroke: #b0b0b0; stroke-width: 0.8; stroke-linecap: square"/>
     </g>
     <g id="line2d_16">
      <g>
       <use xlink:href="#mbbafcda982" x="55.928" y="163.453855" style="stroke: #000000; stroke-width: 0.8"/>
      </g>
     </g>
     <g id="text_9">
      <!-- 0.04 -->
      <g transform="translate(26.662375 167.253073) scale(0.1 -0.1)">
       <use xlink:href="#DejaVuSans-30"/>
       <use xlink:href="#DejaVuSans-2e" x="63.623047"/>
       <use xlink:href="#DejaVuSans-30" x="95.410156"/>
       <use xlink:href="#DejaVuSans-34" x="159.033203"/>
      </g>
     </g>
    </g>
    <g id="ytick_3">
     <g id="line2d_17">
      <path d="M 55.928 139.543003 
L 277.2 139.543003 
" clip-path="url(#pe24997149a)" style="fill: none; stroke: #b0b0b0; stroke-width: 0.8; stroke-linecap: square"/>
     </g>
     <g id="line2d_18">
      <g>
       <use xlink:href="#mbbafcda982" x="55.928" y="139.543003" style="stroke: #000000; stroke-width: 0.8"/>
      </g>
     </g>
     <g id="text_10">
      <!-- 0.05 -->
      <g transform="translate(26.662375 143.342222) scale(0.1 -0.1)">
       <defs>
        <path id="DejaVuSans-35" d="M 691 4666 
L 3169 4666 
L 3169 4134 
L 1269 4134 
L 1269 2991 
Q 1406 3038 1543 3061 
Q 1681 3084 1819 3084 
Q 2600 3084 3056 2656 
Q 3513 2228 3513 1497 
Q 3513 744 3044 326 
Q 2575 -91 1722 -91 
Q 1428 -91 1123 -41 
Q 819 9 494 109 
L 494 744 
Q 775 591 1075 516 
Q 1375 441 1709 441 
Q 2250 441 2565 725 
Q 2881 1009 2881 1497 
Q 2881 1984 2565 2268 
Q 2250 2553 1709 2553 
Q 1456 2553 1204 2497 
Q 953 2441 691 2322 
L 691 4666 
z
" transform="scale(0.015625)"/>
       </defs>
       <use xlink:href="#DejaVuSans-30"/>
       <use xlink:href="#DejaVuSans-2e" x="63.623047"/>
       <use xlink:href="#DejaVuSans-30" x="95.410156"/>
       <use xlink:href="#DejaVuSans-35" x="159.033203"/>
      </g>
     </g>
    </g>
    <g id="ytick_4">
     <g id="line2d_19">
      <path d="M 55.928 115.632151 
L 277.2 115.632151 
" clip-path="url(#pe24997149a)" style="fill: none; stroke: #b0b0b0; stroke-width: 0.8; stroke-linecap: square"/>
     </g>
     <g id="line2d_20">
      <g>
       <use xlink:href="#mbbafcda982" x="55.928" y="115.632151" style="stroke: #000000; stroke-width: 0.8"/>
      </g>
     </g>
     <g id="text_11">
      <!-- 0.06 -->
      <g transform="translate(26.662375 119.43137) scale(0.1 -0.1)">
       <use xlink:href="#DejaVuSans-30"/>
       <use xlink:href="#DejaVuSans-2e" x="63.623047"/>
       <use xlink:href="#DejaVuSans-30" x="95.410156"/>
       <use xlink:href="#DejaVuSans-36" x="159.033203"/>
      </g>
     </g>
    </g>
    <g id="ytick_5">
     <g id="line2d_21">
      <path d="M 55.928 91.7213 
L 277.2 91.7213 
" clip-path="url(#pe24997149a)" style="fill: none; stroke: #b0b0b0; stroke-width: 0.8; stroke-linecap: square"/>
     </g>
     <g id="line2d_22">
      <g>
       <use xlink:href="#mbbafcda982" x="55.928" y="91.7213" style="stroke: #000000; stroke-width: 0.8"/>
      </g>
     </g>
     <g id="text_12">
      <!-- 0.07 -->
      <g transform="translate(26.662375 95.520518) scale(0.1 -0.1)">
       <defs>
        <path id="DejaVuSans-37" d="M 525 4666 
L 3525 4666 
L 3525 4397 
L 1831 0 
L 1172 0 
L 2766 4134 
L 525 4134 
L 525 4666 
z
" transform="scale(0.015625)"/>
       </defs>
       <use xlink:href="#DejaVuSans-30"/>
       <use xlink:href="#DejaVuSans-2e" x="63.623047"/>
       <use xlink:href="#DejaVuSans-30" x="95.410156"/>
       <use xlink:href="#DejaVuSans-37" x="159.033203"/>
      </g>
     </g>
    </g>
    <g id="ytick_6">
     <g id="line2d_23">
      <path d="M 55.928 67.810448 
L 277.2 67.810448 
" clip-path="url(#pe24997149a)" style="fill: none; stroke: #b0b0b0; stroke-width: 0.8; stroke-linecap: square"/>
     </g>
     <g id="line2d_24">
      <g>
       <use xlink:href="#mbbafcda982" x="55.928" y="67.810448" style="stroke: #000000; stroke-width: 0.8"/>
      </g>
     </g>
     <g id="text_13">
      <!-- 0.08 -->
      <g transform="translate(26.662375 71.609667) scale(0.1 -0.1)">
       <defs>
        <path id="DejaVuSans-38" d="M 2034 2216 
Q 1584 2216 1326 1975 
Q 1069 1734 1069 1313 
Q 1069 891 1326 650 
Q 1584 409 2034 409 
Q 2484 409 2743 651 
Q 3003 894 3003 1313 
Q 3003 1734 2745 1975 
Q 2488 2216 2034 2216 
z
M 1403 2484 
Q 997 2584 770 2862 
Q 544 3141 544 3541 
Q 544 4100 942 4425 
Q 1341 4750 2034 4750 
Q 2731 4750 3128 4425 
Q 3525 4100 3525 3541 
Q 3525 3141 3298 2862 
Q 3072 2584 2669 2484 
Q 3125 2378 3379 2068 
Q 3634 1759 3634 1313 
Q 3634 634 3220 271 
Q 2806 -91 2034 -91 
Q 1263 -91 848 271 
Q 434 634 434 1313 
Q 434 1759 690 2068 
Q 947 2378 1403 2484 
z
M 1172 3481 
Q 1172 3119 1398 2916 
Q 1625 2713 2034 2713 
Q 2441 2713 2670 2916 
Q 2900 3119 2900 3481 
Q 2900 3844 2670 4047 
Q 2441 4250 2034 4250 
Q 1625 4250 1398 4047 
Q 1172 3844 1172 3481 
z
" transform="scale(0.015625)"/>
       </defs>
       <use xlink:href="#DejaVuSans-30"/>
       <use xlink:href="#DejaVuSans-2e" x="63.623047"/>
       <use xlink:href="#DejaVuSans-30" x="95.410156"/>
       <use xlink:href="#DejaVuSans-38" x="159.033203"/>
      </g>
     </g>
    </g>
    <g id="text_14">
     <!-- $C_D$ -->
     <g transform="translate(20.582687 142.789) rotate(-90) scale(0.1 -0.1)">
      <defs>
       <path id="DejaVuSans-Oblique-43" d="M 4447 4306 
L 4319 3641 
Q 4019 3944 3683 4091 
Q 3347 4238 2956 4238 
Q 2422 4238 2017 3981 
Q 1613 3725 1319 3200 
Q 1131 2863 1032 2486 
Q 934 2109 934 1728 
Q 934 1091 1264 756 
Q 1594 422 2222 422 
Q 2656 422 3056 561 
Q 3456 700 3834 978 
L 3688 231 
Q 3316 72 2936 -9 
Q 2556 -91 2175 -91 
Q 1278 -91 773 396 
Q 269 884 269 1753 
Q 269 2309 461 2846 
Q 653 3384 1013 3828 
Q 1394 4300 1883 4525 
Q 2372 4750 3022 4750 
Q 3422 4750 3780 4639 
Q 4138 4528 4447 4306 
z
" transform="scale(0.015625)"/>
       <path id="DejaVuSans-Oblique-44" d="M 1081 4666 
L 2438 4666 
Q 3519 4666 4070 4208 
Q 4622 3750 4622 2847 
Q 4622 2250 4412 1698 
Q 4203 1147 3834 769 
Q 3463 381 2891 190 
Q 2319 0 1538 0 
L 172 0 
L 1081 4666 
z
M 1613 4147 
L 909 519 
L 1734 519 
Q 2794 519 3375 1128 
Q 3956 1738 3956 2847 
Q 3956 3519 3581 3833 
Q 3206 4147 2406 4147 
L 1613 4147 
z
" transform="scale(0.015625)"/>
      </defs>
      <use xlink:href="#DejaVuSans-Oblique-43" transform="translate(0 0.78125)"/>
      <use xlink:href="#DejaVuSans-Oblique-44" transform="translate(69.824219 -15.625) scale(0.7)"/>
     </g>
    </g>
   </g>
   <g id="line2d_25">
    <path d="M 66.022391 157.423491 
L 68.053904 158.346 
L 70.085417 159.231723 
L 72.11693 160.080659 
L 74.148443 160.892808 
L 76.179956 161.66817 
L 78.211469 162.406746 
L 80.242982 163.108535 
L 82.274495 163.773538 
L 84.306008 164.401754 
L 86.337521 164.993183 
L 88.369034 165.547825 
L 90.400547 166.065681 
L 92.43206 166.54675 
L 94.463573 166.991032 
L 96.495086 167.398527 
L 98.526599 167.769236 
L 100.558112 168.103158 
L 102.589625 168.400294 
L 104.621138 168.660643 
L 106.652651 168.884205 
L 108.684164 169.07098 
L 110.715678 169.220969 
L 112.747191 169.334171 
L 114.778704 169.410586 
L 116.810217 169.450215 
L 118.84173 169.453056 
L 120.873243 169.419112 
L 122.904756 169.34838 
L 124.936269 169.240862 
L 126.967782 169.096557 
L 128.999295 168.915465 
L 131.030808 168.697587 
L 133.062321 168.442922 
L 135.093834 168.15147 
L 137.125347 167.823232 
L 139.15686 167.458207 
L 141.188373 167.056395 
L 143.219886 166.617796 
L 145.251399 166.142411 
L 147.282912 165.630239 
L 149.314425 165.081281 
L 151.345938 164.495535 
L 153.377451 163.873003 
L 155.408964 163.213685 
L 157.440478 162.517579 
L 159.471991 161.784687 
L 161.503504 161.015008 
L 163.535017 160.208543 
L 165.56653 159.365291 
L 167.598043 158.485252 
L 169.629556 157.568426 
L 171.661069 156.614814 
L 173.692582 155.624415 
L 175.724095 154.597229 
L 177.755608 153.533257 
L 179.787121 152.432498 
L 181.818634 151.294952 
L 183.850147 150.120619 
L 185.88166 148.9095 
L 187.913173 147.661594 
L 189.944686 146.376902 
L 191.976199 145.055422 
L 194.007712 143.697156 
L 196.039225 142.302104 
L 198.070738 140.870264 
L 200.102251 139.401638 
L 202.133764 137.896225 
L 204.165277 136.354026 
L 206.196791 134.77504 
L 208.228304 133.159267 
L 210.259817 131.506707 
L 212.29133 129.817361 
L 214.322843 128.091228 
L 216.354356 126.328308 
L 218.385869 124.528602 
L 220.417382 122.692109 
L 222.448895 120.818829 
L 224.480408 118.908763 
L 226.511921 116.96191 
L 228.543434 114.97827 
L 230.574947 112.957843 
L 232.60646 110.90063 
L 234.637973 108.80663 
L 236.669486 106.675843 
L 238.700999 104.50827 
L 240.732512 102.30391 
L 242.764025 100.062763 
L 244.795538 97.78483 
L 246.827051 95.47011 
L 248.858564 93.118603 
L 250.890077 90.730309 
L 252.921591 88.305229 
L 254.953104 85.843362 
L 256.984617 83.344708 
L 259.01613 80.809268 
L 261.047643 78.237041 
L 263.079156 75.628027 
L 265.110669 72.982227 
L 267.142182 70.29964 
" clip-path="url(#pe24997149a)" style="fill: none; stroke-dasharray: 5.55,2.4; stroke-dashoffset: 0; stroke: #ff0000; stroke-width: 1.5"/>
   </g>
   <g id="line2d_26">
    <path d="M 66.046303 193.355254 
L 68.075622 194.161926 
L 70.104941 194.935081 
L 72.13426 195.67466 
L 74.16358 196.380608 
L 76.192899 197.052868 
L 78.222218 197.691381 
L 80.251537 198.296091 
L 82.280856 198.866941 
L 84.310175 199.403873 
L 86.339495 199.906832 
L 88.368814 200.375759 
L 90.398133 200.810598 
L 92.427452 201.211292 
L 94.456771 201.577783 
L 96.48609 201.910014 
L 98.51541 202.207929 
L 100.544729 202.47147 
L 102.574048 202.70058 
L 104.603367 202.895202 
L 106.632686 203.05528 
L 108.662005 203.180756 
L 110.691324 203.271572 
L 112.720644 203.327673 
L 114.749963 203.349 
L 116.779282 203.335497 
L 118.808601 203.287107 
L 120.83792 203.203772 
L 122.867239 203.085437 
L 124.896559 202.932042 
L 126.925878 202.743532 
L 128.955197 202.51985 
L 130.984516 202.260937 
L 133.013835 201.966738 
L 135.043154 201.637196 
L 137.072474 201.272252 
L 139.101793 200.87185 
L 141.131112 200.435934 
L 143.160431 199.964445 
L 145.18975 199.457327 
L 147.219069 198.914523 
L 149.248389 198.335976 
L 151.277708 197.721629 
L 153.307027 197.071424 
L 155.336346 196.385304 
L 157.365665 195.663213 
L 159.394984 194.905094 
L 161.424304 194.110889 
L 163.453623 193.280541 
L 165.482942 192.413993 
L 167.512261 191.511188 
L 169.54158 190.57207 
L 171.570899 189.59658 
L 173.600219 188.584663 
L 175.629538 187.53626 
L 177.658857 186.451316 
L 179.688176 185.329772 
L 181.717495 184.171571 
L 183.746814 182.976658 
L 185.776134 181.744974 
L 187.805453 180.476462 
L 189.834772 179.171066 
L 191.864091 177.828728 
L 193.89341 176.449391 
L 195.922729 175.032999 
L 197.952049 173.579494 
L 199.981368 172.088819 
L 202.010687 170.560917 
L 204.040006 168.995731 
L 206.069325 167.393204 
L 208.098644 165.753279 
L 210.127964 164.075898 
L 212.157283 162.361006 
L 214.186602 160.608543 
L 216.215921 158.818455 
L 218.24524 156.990683 
L 220.274559 155.12517 
L 222.303879 153.22186 
L 224.333198 151.280695 
L 226.362517 149.301619 
L 228.391836 147.284574 
L 230.421155 145.229502 
L 232.450474 143.136348 
L 234.479794 141.005054 
L 236.509113 138.835563 
L 238.538432 136.627817 
L 240.567751 134.381761 
L 242.59707 132.097336 
L 244.626389 129.774486 
L 246.655709 127.413153 
L 248.685028 125.013281 
L 250.714347 122.574813 
L 252.743666 120.097691 
L 254.772985 117.581858 
L 256.802304 115.027257 
L 258.831624 112.433832 
L 260.860943 109.801525 
L 262.890262 107.130279 
L 264.919581 104.420037 
L 266.9489 101.670742 
" clip-path="url(#pe24997149a)" style="fill: none; stroke: #0000ff; stroke-width: 1.5; stroke-linecap: square"/>
   </g>
   <g id="patch_3">
    <path d="M 55.928 210.04 
L 55.928 62.838 
" style="fill: none; stroke: #000000; stroke-width: 0.8; stroke-linejoin: miter; stroke-linecap: square"/>
   </g>
   <g id="patch_4">
    <path d="M 277.2 210.04 
L 277.2 62.838 
" style="fill: none; stroke: #000000; stroke-width: 0.8; stroke-linejoin: miter; stroke-linecap: square"/>
   </g>
   <g id="patch_5">
    <path d="M 55.928 210.04 
L 277.2 210.04 
" style="fill: none; stroke: #000000; stroke-width: 0.8; stroke-linejoin: miter; stroke-linecap: square"/>
   </g>
   <g id="patch_6">
    <path d="M 55.928 62.838 
L 277.2 62.838 
" style="fill: none; stroke: #000000; stroke-width: 0.8; stroke-linejoin: miter; stroke-linecap: square"/>
   </g>
   <g id="legend_1">
    <g id="patch_7">
     <path d="M 74.164 52.4779 
L 262.964 52.4779 
Q 264.964 52.4779 264.964 50.4779 
L 264.964 22.12165 
Q 264.964 20.12165 262.964 20.12165 
L 74.164 20.12165 
Q 72.164 20.12165 72.164 22.12165 
L 72.164 50.4779 
Q 72.164 52.4779 74.164 52.4779 
z
" style="fill: #4d4d4d; opacity: 0.5; stroke: #4d4d4d; stroke-linejoin: miter"/>
    </g>
    <g id="patch_8">
     <path d="M 72.164 50.4779 
L 260.964 50.4779 
Q 262.964 50.4779 262.964 48.4779 
L 262.964 20.12165 
Q 262.964 18.12165 260.964 18.12165 
L 72.164 18.12165 
Q 70.164 18.12165 70.164 20.12165 
L 70.164 48.4779 
Q 70.164 50.4779 72.164 50.4779 
z
" style="fill: #ffffff; stroke: #cccccc; stroke-linejoin: miter"/>
    </g>
    <g id="line2d_27">
     <path d="M 74.164 26.220087 
L 84.164 26.220087 
L 94.164 26.220087 
" style="fill: none; stroke-dasharray: 5.55,2.4; stroke-dashoffset: 0; stroke: #ff0000; stroke-width: 1.5"/>
    </g>
    <g id="text_15">
     <!-- Quadratic fit, $Re_{MAC} = 2.2e+05$ -->
     <g transform="translate(102.164 29.720087) scale(0.1 -0.1)">
      <defs>
       <path id="DejaVuSans-51" d="M 2522 4238 
Q 1834 4238 1429 3725 
Q 1025 3213 1025 2328 
Q 1025 1447 1429 934 
Q 1834 422 2522 422 
Q 3209 422 3611 934 
Q 4013 1447 4013 2328 
Q 4013 3213 3611 3725 
Q 3209 4238 2522 4238 
z
M 3406 84 
L 4238 -825 
L 3475 -825 
L 2784 -78 
Q 2681 -84 2626 -87 
Q 2572 -91 2522 -91 
Q 1538 -91 948 567 
Q 359 1225 359 2328 
Q 359 3434 948 4092 
Q 1538 4750 2522 4750 
Q 3503 4750 4090 4092 
Q 4678 3434 4678 2328 
Q 4678 1516 4351 937 
Q 4025 359 3406 84 
z
" transform="scale(0.015625)"/>
       <path id="DejaVuSans-75" d="M 544 1381 
L 544 3500 
L 1119 3500 
L 1119 1403 
Q 1119 906 1312 657 
Q 1506 409 1894 409 
Q 2359 409 2629 706 
Q 2900 1003 2900 1516 
L 2900 3500 
L 3475 3500 
L 3475 0 
L 2900 0 
L 2900 538 
Q 2691 219 2414 64 
Q 2138 -91 1772 -91 
Q 1169 -91 856 284 
Q 544 659 544 1381 
z
M 1991 3584 
L 1991 3584 
z
" transform="scale(0.015625)"/>
       <path id="DejaVuSans-61" d="M 2194 1759 
Q 1497 1759 1228 1600 
Q 959 1441 959 1056 
Q 959 750 1161 570 
Q 1363 391 1709 391 
Q 2188 391 2477 730 
Q 2766 1069 2766 1631 
L 2766 1759 
L 2194 1759 
z
M 3341 1997 
L 3341 0 
L 2766 0 
L 2766 531 
Q 2569 213 2275 61 
Q 1981 -91 1556 -91 
Q 1019 -91 701 211 
Q 384 513 384 1019 
Q 384 1609 779 1909 
Q 1175 2209 1959 2209 
L 2766 2209 
L 2766 2266 
Q 2766 2663 2505 2880 
Q 2244 3097 1772 3097 
Q 1472 3097 1187 3025 
Q 903 2953 641 2809 
L 641 3341 
Q 956 3463 1253 3523 
Q 1550 3584 1831 3584 
Q 2591 3584 2966 3190 
Q 3341 2797 3341 1997 
z
" transform="scale(0.015625)"/>
       <path id="DejaVuSans-64" d="M 2906 2969 
L 2906 4863 
L 3481 4863 
L 3481 0 
L 2906 0 
L 2906 525 
Q 2725 213 2448 61 
Q 2172 -91 1784 -91 
Q 1150 -91 751 415 
Q 353 922 353 1747 
Q 353 2572 751 3078 
Q 1150 3584 1784 3584 
Q 2172 3584 2448 3432 
Q 2725 3281 2906 2969 
z
M 947 1747 
Q 947 1113 1208 752 
Q 1469 391 1925 391 
Q 2381 391 2643 752 
Q 2906 1113 2906 1747 
Q 2906 2381 2643 2742 
Q 2381 3103 1925 3103 
Q 1469 3103 1208 2742 
Q 947 2381 947 1747 
z
" transform="scale(0.015625)"/>
       <path id="DejaVuSans-72" d="M 2631 2963 
Q 2534 3019 2420 3045 
Q 2306 3072 2169 3072 
Q 1681 3072 1420 2755 
Q 1159 2438 1159 1844 
L 1159 0 
L 581 0 
L 581 3500 
L 1159 3500 
L 1159 2956 
Q 1341 3275 1631 3429 
Q 1922 3584 2338 3584 
Q 2397 3584 2469 3576 
Q 2541 3569 2628 3553 
L 2631 2963 
z
" transform="scale(0.015625)"/>
       <path id="DejaVuSans-74" d="M 1172 4494 
L 1172 3500 
L 2356 3500 
L 2356 3053 
L 1172 3053 
L 1172 1153 
Q 1172 725 1289 603 
Q 1406 481 1766 481 
L 2356 481 
L 2356 0 
L 1766 0 
Q 1100 0 847 248 
Q 594 497 594 1153 
L 594 3053 
L 172 3053 
L 172 3500 
L 594 3500 
L 594 4494 
L 1172 4494 
z
" transform="scale(0.015625)"/>
       <path id="DejaVuSans-69" d="M 603 3500 
L 1178 3500 
L 1178 0 
L 603 0 
L 603 3500 
z
M 603 4863 
L 1178 4863 
L 1178 4134 
L 603 4134 
L 603 4863 
z
" transform="scale(0.015625)"/>
       <path id="DejaVuSans-63" d="M 3122 3366 
L 3122 2828 
Q 2878 2963 2633 3030 
Q 2388 3097 2138 3097 
Q 1578 3097 1268 2742 
Q 959 2388 959 1747 
Q 959 1106 1268 751 
Q 1578 397 2138 397 
Q 2388 397 2633 464 
Q 2878 531 3122 666 
L 3122 134 
Q 2881 22 2623 -34 
Q 2366 -91 2075 -91 
Q 1284 -91 818 406 
Q 353 903 353 1747 
Q 353 2603 823 3093 
Q 1294 3584 2113 3584 
Q 2378 3584 2631 3529 
Q 2884 3475 3122 3366 
z
" transform="scale(0.015625)"/>
       <path id="DejaVuSans-20" transform="scale(0.015625)"/>
       <path id="DejaVuSans-66" d="M 2375 4863 
L 2375 4384 
L 1825 4384 
Q 1516 4384 1395 4259 
Q 1275 4134 1275 3809 
L 1275 3500 
L 2222 3500 
L 2222 3053 
L 1275 3053 
L 1275 0 
L 697 0 
L 697 3053 
L 147 3053 
L 147 3500 
L 697 3500 
L 697 3744 
Q 697 4328 969 4595 
Q 1241 4863 1831 4863 
L 2375 4863 
z
" transform="scale(0.015625)"/>
       <path id="DejaVuSans-2c" d="M 750 794 
L 1409 794 
L 1409 256 
L 897 -744 
L 494 -744 
L 750 256 
L 750 794 
z
" transform="scale(0.015625)"/>
       <path id="DejaVuSans-Oblique-52" d="M 1613 4147 
L 1294 2491 
L 2106 2491 
Q 2584 2491 2879 2755 
Q 3175 3019 3175 3444 
Q 3175 3784 2976 3965 
Q 2778 4147 2406 4147 
L 1613 4147 
z
M 2772 2241 
Q 2972 2194 3105 2009 
Q 3238 1825 3413 1275 
L 3809 0 
L 3144 0 
L 2778 1197 
Q 2638 1659 2453 1815 
Q 2269 1972 1888 1972 
L 1191 1972 
L 806 0 
L 172 0 
L 1081 4666 
L 2503 4666 
Q 3150 4666 3495 4373 
Q 3841 4081 3841 3531 
Q 3841 3044 3547 2687 
Q 3253 2331 2772 2241 
z
" transform="scale(0.015625)"/>
       <path id="DejaVuSans-Oblique-65" d="M 3078 2063 
Q 3088 2113 3092 2166 
Q 3097 2219 3097 2272 
Q 3097 2653 2873 2875 
Q 2650 3097 2266 3097 
Q 1838 3097 1509 2826 
Q 1181 2556 1013 2059 
L 3078 2063 
z
M 3578 1613 
L 903 1613 
Q 884 1494 878 1425 
Q 872 1356 872 1306 
Q 872 872 1139 634 
Q 1406 397 1894 397 
Q 2269 397 2603 481 
Q 2938 566 3225 728 
L 3116 159 
Q 2806 34 2476 -28 
Q 2147 -91 1806 -91 
Q 1078 -91 686 257 
Q 294 606 294 1247 
Q 294 1794 489 2264 
Q 684 2734 1063 3103 
Q 1306 3334 1642 3459 
Q 1978 3584 2356 3584 
Q 2950 3584 3301 3228 
Q 3653 2872 3653 2272 
Q 3653 2128 3634 1964 
Q 3616 1800 3578 1613 
z
" transform="scale(0.015625)"/>
       <path id="DejaVuSans-Oblique-4d" d="M 1081 4666 
L 2028 4666 
L 2572 1522 
L 4378 4666 
L 5350 4666 
L 4441 0 
L 3828 0 
L 4622 4091 
L 2791 897 
L 2175 897 
L 1581 4103 
L 788 0 
L 172 0 
L 1081 4666 
z
" transform="scale(0.015625)"/>
       <path id="DejaVuSans-Oblique-41" d="M 2356 4666 
L 3072 4666 
L 3938 0 
L 3278 0 
L 3084 1197 
L 984 1197 
L 325 0 
L -341 0 
L 2356 4666 
z
M 2584 4044 
L 1275 1722 
L 2988 1722 
L 2584 4044 
z
" transform="scale(0.015625)"/>
       <path id="DejaVuSans-3d" d="M 678 2906 
L 4684 2906 
L 4684 2381 
L 678 2381 
L 678 2906 
z
M 678 1631 
L 4684 1631 
L 4684 1100 
L 678 1100 
L 678 1631 
z
" transform="scale(0.015625)"/>
       <path id="DejaVuSans-2b" d="M 2944 4013 
L 2944 2272 
L 4684 2272 
L 4684 1741 
L 2944 1741 
L 2944 0 
L 2419 0 
L 2419 1741 
L 678 1741 
L 678 2272 
L 2419 2272 
L 2419 4013 
L 2944 4013 
z
" transform="scale(0.015625)"/>
      </defs>
      <use xlink:href="#DejaVuSans-51" transform="translate(0 0.015625)"/>
      <use xlink:href="#DejaVuSans-75" transform="translate(78.710938 0.015625)"/>
      <use xlink:href="#DejaVuSans-61" transform="translate(142.089844 0.015625)"/>
      <use xlink:href="#DejaVuSans-64" transform="translate(203.369141 0.015625)"/>
      <use xlink:href="#DejaVuSans-72" transform="translate(266.845703 0.015625)"/>
      <use xlink:href="#DejaVuSans-61" transform="translate(307.958984 0.015625)"/>
      <use xlink:href="#DejaVuSans-74" transform="translate(369.238281 0.015625)"/>
      <use xlink:href="#DejaVuSans-69" transform="translate(408.447266 0.015625)"/>
      <use xlink:href="#DejaVuSans-63" transform="translate(436.230469 0.015625)"/>
      <use xlink:href="#DejaVuSans-20" transform="translate(491.210938 0.015625)"/>
      <use xlink:href="#DejaVuSans-66" transform="translate(522.998047 0.015625)"/>
      <use xlink:href="#DejaVuSans-69" transform="translate(558.203125 0.015625)"/>
      <use xlink:href="#DejaVuSans-74" transform="translate(585.986328 0.015625)"/>
      <use xlink:href="#DejaVuSans-2c" transform="translate(625.195312 0.015625)"/>
      <use xlink:href="#DejaVuSans-20" transform="translate(656.982422 0.015625)"/>
      <use xlink:href="#DejaVuSans-Oblique-52" transform="translate(688.769531 0.015625)"/>
      <use xlink:href="#DejaVuSans-Oblique-65" transform="translate(758.251953 0.015625)"/>
      <use xlink:href="#DejaVuSans-Oblique-4d" transform="translate(819.775391 -16.390625) scale(0.7)"/>
      <use xlink:href="#DejaVuSans-Oblique-41" transform="translate(880.170898 -16.390625) scale(0.7)"/>
      <use xlink:href="#DejaVuSans-Oblique-43" transform="translate(928.056641 -16.390625) scale(0.7)"/>
      <use xlink:href="#DejaVuSans-3d" transform="translate(999.150391 0.015625)"/>
      <use xlink:href="#DejaVuSans-32" transform="translate(1102.421875 0.015625)"/>
      <use xlink:href="#DejaVuSans-2e" transform="translate(1166.044922 0.015625)"/>
      <use xlink:href="#DejaVuSans-32" transform="translate(1192.332031 0.015625)"/>
      <use xlink:href="#DejaVuSans-Oblique-65" transform="translate(1255.955078 0.015625)"/>
      <use xlink:href="#DejaVuSans-2b" transform="translate(1336.960938 0.015625)"/>
      <use xlink:href="#DejaVuSans-30" transform="translate(1440.232422 0.015625)"/>
      <use xlink:href="#DejaVuSans-35" transform="translate(1503.855469 0.015625)"/>
     </g>
    </g>
    <g id="line2d_28">
     <path d="M 74.164 40.898212 
L 84.164 40.898212 
L 94.164 40.898212 
" style="fill: none; stroke: #0000ff; stroke-width: 1.5; stroke-linecap: square"/>
    </g>
    <g id="text_16">
     <!-- RSM, $Re_{MAC} = 4.5e+05$ -->
     <g transform="translate(102.164 44.398212) scale(0.1 -0.1)">
      <defs>
       <path id="DejaVuSans-52" d="M 2841 2188 
Q 3044 2119 3236 1894 
Q 3428 1669 3622 1275 
L 4263 0 
L 3584 0 
L 2988 1197 
Q 2756 1666 2539 1819 
Q 2322 1972 1947 1972 
L 1259 1972 
L 1259 0 
L 628 0 
L 628 4666 
L 2053 4666 
Q 2853 4666 3247 4331 
Q 3641 3997 3641 3322 
Q 3641 2881 3436 2590 
Q 3231 2300 2841 2188 
z
M 1259 4147 
L 1259 2491 
L 2053 2491 
Q 2509 2491 2742 2702 
Q 2975 2913 2975 3322 
Q 2975 3731 2742 3939 
Q 2509 4147 2053 4147 
L 1259 4147 
z
" transform="scale(0.015625)"/>
       <path id="DejaVuSans-53" d="M 3425 4513 
L 3425 3897 
Q 3066 4069 2747 4153 
Q 2428 4238 2131 4238 
Q 1616 4238 1336 4038 
Q 1056 3838 1056 3469 
Q 1056 3159 1242 3001 
Q 1428 2844 1947 2747 
L 2328 2669 
Q 3034 2534 3370 2195 
Q 3706 1856 3706 1288 
Q 3706 609 3251 259 
Q 2797 -91 1919 -91 
Q 1588 -91 1214 -16 
Q 841 59 441 206 
L 441 856 
Q 825 641 1194 531 
Q 1563 422 1919 422 
Q 2459 422 2753 634 
Q 3047 847 3047 1241 
Q 3047 1584 2836 1778 
Q 2625 1972 2144 2069 
L 1759 2144 
Q 1053 2284 737 2584 
Q 422 2884 422 3419 
Q 422 4038 858 4394 
Q 1294 4750 2059 4750 
Q 2388 4750 2728 4690 
Q 3069 4631 3425 4513 
z
" transform="scale(0.015625)"/>
       <path id="DejaVuSans-4d" d="M 628 4666 
L 1569 4666 
L 2759 1491 
L 3956 4666 
L 4897 4666 
L 4897 0 
L 4281 0 
L 4281 4097 
L 3078 897 
L 2444 897 
L 1241 4097 
L 1241 0 
L 628 0 
L 628 4666 
z
" transform="scale(0.015625)"/>
      </defs>
      <use xlink:href="#DejaVuSans-52" transform="translate(0 0.78125)"/>
      <use xlink:href="#DejaVuSans-53" transform="translate(69.482422 0.78125)"/>
      <use xlink:href="#DejaVuSans-4d" transform="translate(132.958984 0.78125)"/>
      <use xlink:href="#DejaVuSans-2c" transform="translate(219.238281 0.78125)"/>
      <use xlink:href="#DejaVuSans-20" transform="translate(251.025391 0.78125)"/>
      <use xlink:href="#DejaVuSans-Oblique-52" transform="translate(282.8125 0.78125)"/>
      <use xlink:href="#DejaVuSans-Oblique-65" transform="translate(352.294922 0.78125)"/>
      <use xlink:href="#DejaVuSans-Oblique-4d" transform="translate(413.818359 -15.625) scale(0.7)"/>
      <use xlink:href="#DejaVuSans-Oblique-41" transform="translate(474.213867 -15.625) scale(0.7)"/>
      <use xlink:href="#DejaVuSans-Oblique-43" transform="translate(522.099609 -15.625) scale(0.7)"/>
      <use xlink:href="#DejaVuSans-3d" transform="translate(593.193359 0.78125)"/>
      <use xlink:href="#DejaVuSans-34" transform="translate(696.464844 0.78125)"/>
      <use xlink:href="#DejaVuSans-2e" transform="translate(760.087891 0.78125)"/>
      <use xlink:href="#DejaVuSans-35" transform="translate(791.875 0.78125)"/>
      <use xlink:href="#DejaVuSans-Oblique-65" transform="translate(855.498047 0.78125)"/>
      <use xlink:href="#DejaVuSans-2b" transform="translate(936.503906 0.78125)"/>
      <use xlink:href="#DejaVuSans-30" transform="translate(1039.775391 0.78125)"/>
      <use xlink:href="#DejaVuSans-35" transform="translate(1103.398438 0.78125)"/>
     </g>
    </g>
   </g>
  </g>
 </g>
 <defs>
  <clipPath id="pe24997149a">
   <rect x="55.928" y="62.838" width="221.272" height="147.202"/>
  </clipPath>
 </defs>
</svg>
