<?xml version="1.0" encoding="utf-8" standalone="no"?>
<!DOCTYPE svg PUBLIC "-//W3C//DTD SVG 1.1//EN"
  "http://www.w3.org/Graphics/SVG/1.1/DTD/svg11.dtd">
<svg xmlns:xlink="http://www.w3.org/1999/xlink" width="460.8pt" height="345.6pt" viewBox="0 0 460.8 345.6" xmlns="http://www.w3.org/2000/svg" version="1.1">
 <metadata>
  <rdf:RDF xmlns:dc="http://purl.org/dc/elements/1.1/" xmlns:cc="http://creativecommons.org/ns#" xmlns:rdf="http://www.w3.org/1999/02/22-rdf-syntax-ns#">
   <cc:Work>
    <dc:type rdf:resource="http://purl.org/dc/dcmitype/StillImage"/>
    <dc:date>2025-04-01T09:46:31.435408</dc:date>
    <dc:format>image/svg+xml</dc:format>
    <dc:creator>
     <cc:Agent>
      <dc:title>Matplotlib v3.9.4, https://matplotlib.org/</dc:title>
     </cc:Agent>
    </dc:creator>
   </cc:Work>
  </rdf:RDF>
 </metadata>
 <defs>
  <style type="text/css">*{stroke-linejoin: round; stroke-linecap: butt}</style>
 </defs>
 <g id="figure_1">
  <g id="patch_1">
   <path d="M 0 345.6 
L 460.8 345.6 
L 460.8 0 
L 0 0 
z
" style="fill: #ffffff"/>
  </g>
  <g id="patch_2">
   <path d="M 68.4 334.8 
L 392.4 334.8 
L 392.4 10.8 
L 68.4 10.8 
z
" style="fill: #ffffff"/>
  </g>
  <g id="pane3d_1">
   <g id="patch_3">
    <path d="M 234.778378 162.940222 
L 378.987103 234.653707 
L 385.571976 99.16524 
L 234.778378 33.806163 
" style="fill: #f2f2f2; opacity: 0.5; stroke: #f2f2f2; stroke-linejoin: miter"/>
   </g>
  </g>
  <g id="pane3d_2">
   <g id="patch_4">
    <path d="M 234.778378 162.940222 
L 90.569654 234.653707 
L 83.984781 99.16524 
L 234.778378 33.806163 
" style="fill: #e6e6e6; opacity: 0.5; stroke: #e6e6e6; stroke-linejoin: miter"/>
   </g>
  </g>
  <g id="pane3d_3">
   <g id="patch_5">
    <path d="M 234.778378 162.940222 
L 90.569654 234.653707 
L 234.778378 317.380273 
L 378.987103 234.653707 
" style="fill: #ececec; opacity: 0.5; stroke: #ececec; stroke-linejoin: miter"/>
   </g>
  </g>
  <g id="grid3d_1">
   <g id="Line3DCollection_1">
    <path d="M 370.390271 239.585353 
L 226.14024 167.235878 
L 225.77154 37.710034 
" style="fill: none; stroke: #b0b0b0; stroke-width: 0.8"/>
    <path d="M 348.725428 252.013575 
L 204.394622 178.049746 
L 203.083274 47.5439 
" style="fill: none; stroke: #b0b0b0; stroke-width: 0.8"/>
    <path d="M 326.557247 264.730542 
L 182.178293 189.097693 
L 179.882455 57.599925 
" style="fill: none; stroke: #b0b0b0; stroke-width: 0.8"/>
    <path d="M 303.86798 277.746433 
L 159.475801 200.387404 
L 156.151517 67.88572 
" style="fill: none; stroke: #b0b0b0; stroke-width: 0.8"/>
    <path d="M 280.639037 291.071915 
L 136.271012 211.926902 
L 131.872081 78.409254 
" style="fill: none; stroke: #b0b0b0; stroke-width: 0.8"/>
    <path d="M 256.850929 304.718166 
L 112.54707 223.724569 
L 107.024908 89.178865 
" style="fill: none; stroke: #b0b0b0; stroke-width: 0.8"/>
   </g>
  </g>
  <g id="grid3d_2">
   <g id="Line3DCollection_2">
    <path d="M 243.891316 37.756021 
L 243.518254 167.286471 
L 99.267767 239.643454 
" style="fill: none; stroke: #b0b0b0; stroke-width: 0.8"/>
    <path d="M 259.465752 44.506511 
L 258.447681 174.710718 
L 114.138268 248.174044 
" style="fill: none; stroke: #b0b0b0; stroke-width: 0.8"/>
    <path d="M 275.280847 51.361312 
L 273.598217 182.244921 
L 129.245032 256.840168 
" style="fill: none; stroke: #b0b0b0; stroke-width: 0.8"/>
    <path d="M 291.342223 58.322858 
L 288.97481 189.891539 
L 144.593736 265.645083 
" style="fill: none; stroke: #b0b0b0; stroke-width: 0.8"/>
    <path d="M 307.655677 65.393664 
L 304.582556 197.653108 
L 160.190239 274.59215 
" style="fill: none; stroke: #b0b0b0; stroke-width: 0.8"/>
    <path d="M 324.22719 72.576322 
L 320.426709 205.532239 
L 176.04059 283.684839 
" style="fill: none; stroke: #b0b0b0; stroke-width: 0.8"/>
    <path d="M 341.062936 79.873507 
L 336.512681 213.531623 
L 192.151037 292.926735 
" style="fill: none; stroke: #b0b0b0; stroke-width: 0.8"/>
    <path d="M 358.169283 87.28798 
L 352.846049 221.654036 
L 208.528037 302.321541 
" style="fill: none; stroke: #b0b0b0; stroke-width: 0.8"/>
    <path d="M 375.55281 94.822592 
L 369.432566 229.902337 
L 225.178259 311.873082 
" style="fill: none; stroke: #b0b0b0; stroke-width: 0.8"/>
   </g>
  </g>
  <g id="grid3d_3">
   <g id="Line3DCollection_3">
    <path d="M 90.298919 229.083129 
L 234.778378 157.615433 
L 379.257838 229.083129 
" style="fill: none; stroke: #b0b0b0; stroke-width: 0.8"/>
    <path d="M 89.513765 212.928028 
L 234.778378 142.180658 
L 380.042992 212.928028 
" style="fill: none; stroke: #b0b0b0; stroke-width: 0.8"/>
    <path d="M 88.72003 196.596381 
L 234.778378 126.588573 
L 380.836726 196.596381 
" style="fill: none; stroke: #b0b0b0; stroke-width: 0.8"/>
    <path d="M 87.917575 180.08528 
L 234.778378 110.836759 
L 381.639182 180.08528 
" style="fill: none; stroke: #b0b0b0; stroke-width: 0.8"/>
    <path d="M 87.106253 163.39175 
L 234.778378 94.922749 
L 382.450504 163.39175 
" style="fill: none; stroke: #b0b0b0; stroke-width: 0.8"/>
    <path d="M 86.285917 146.512752 
L 234.778378 78.844025 
L 383.27084 146.512752 
" style="fill: none; stroke: #b0b0b0; stroke-width: 0.8"/>
    <path d="M 85.456416 129.445176 
L 234.778378 62.598017 
L 384.100341 129.445176 
" style="fill: none; stroke: #b0b0b0; stroke-width: 0.8"/>
    <path d="M 84.617595 112.185844 
L 234.778378 46.182101 
L 384.939162 112.185844 
" style="fill: none; stroke: #b0b0b0; stroke-width: 0.8"/>
   </g>
  </g>
  <g id="axis3d_1">
   <g id="line2d_1">
    <path d="M 378.987103 234.653707 
L 234.778378 317.380273 
" style="fill: none; stroke: #000000; stroke-width: 0.8; stroke-linecap: square"/>
   </g>
   <g id="xtick_1">
    <g id="line2d_2">
     <path d="M 369.154311 238.96545 
L 372.866446 240.827294 
" style="fill: none; stroke: #000000; stroke-width: 0.8; stroke-linecap: square"/>
    </g>
    <g id="text_1">
     <!-- −4 -->
     <g transform="translate(373.167549 261.350046) scale(0.1 -0.1)">
      <defs>
       <path id="DejaVuSans-2212" d="M 678 2272 
L 4684 2272 
L 4684 1741 
L 678 1741 
L 678 2272 
z
" transform="scale(0.015625)"/>
       <path id="DejaVuSans-34" d="M 2419 4116 
L 825 1625 
L 2419 1625 
L 2419 4116 
z
M 2253 4666 
L 3047 4666 
L 3047 1625 
L 3713 1625 
L 3713 1100 
L 3047 1100 
L 3047 0 
L 2419 0 
L 2419 1100 
L 313 1100 
L 313 1709 
L 2253 4666 
z
" transform="scale(0.015625)"/>
      </defs>
      <use xlink:href="#DejaVuSans-2212"/>
      <use xlink:href="#DejaVuSans-34" x="83.789062"/>
     </g>
    </g>
   </g>
   <g id="xtick_2">
    <g id="line2d_3">
     <path d="M 347.487835 251.379358 
L 351.204924 253.284219 
" style="fill: none; stroke: #000000; stroke-width: 0.8; stroke-linecap: square"/>
    </g>
    <g id="text_2">
     <!-- −2 -->
     <g transform="translate(351.577917 273.965086) scale(0.1 -0.1)">
      <defs>
       <path id="DejaVuSans-32" d="M 1228 531 
L 3431 531 
L 3431 0 
L 469 0 
L 469 531 
Q 828 903 1448 1529 
Q 2069 2156 2228 2338 
Q 2531 2678 2651 2914 
Q 2772 3150 2772 3378 
Q 2772 3750 2511 3984 
Q 2250 4219 1831 4219 
Q 1534 4219 1204 4116 
Q 875 4013 500 3803 
L 500 4441 
Q 881 4594 1212 4672 
Q 1544 4750 1819 4750 
Q 2544 4750 2975 4387 
Q 3406 4025 3406 3419 
Q 3406 3131 3298 2873 
Q 3191 2616 2906 2266 
Q 2828 2175 2409 1742 
Q 1991 1309 1228 531 
z
" transform="scale(0.015625)"/>
      </defs>
      <use xlink:href="#DejaVuSans-2212"/>
      <use xlink:href="#DejaVuSans-32" x="83.789062"/>
     </g>
    </g>
   </g>
   <g id="xtick_3">
    <g id="line2d_4">
     <path d="M 325.318278 264.081508 
L 329.03955 266.030895 
" style="fill: none; stroke: #000000; stroke-width: 0.8; stroke-linecap: square"/>
    </g>
    <g id="text_3">
     <!-- 0 -->
     <g transform="translate(333.675564 286.87378) scale(0.1 -0.1)">
      <defs>
       <path id="DejaVuSans-30" d="M 2034 4250 
Q 1547 4250 1301 3770 
Q 1056 3291 1056 2328 
Q 1056 1369 1301 889 
Q 1547 409 2034 409 
Q 2525 409 2770 889 
Q 3016 1369 3016 2328 
Q 3016 3291 2770 3770 
Q 2525 4250 2034 4250 
z
M 2034 4750 
Q 2819 4750 3233 4129 
Q 3647 3509 3647 2328 
Q 3647 1150 3233 529 
Q 2819 -91 2034 -91 
Q 1250 -91 836 529 
Q 422 1150 422 2328 
Q 422 3509 836 4129 
Q 1250 4750 2034 4750 
z
" transform="scale(0.015625)"/>
      </defs>
      <use xlink:href="#DejaVuSans-30"/>
     </g>
    </g>
   </g>
   <g id="xtick_4">
    <g id="line2d_5">
     <path d="M 302.627911 277.082058 
L 306.352538 279.077551 
" style="fill: none; stroke: #000000; stroke-width: 0.8; stroke-linecap: square"/>
    </g>
    <g id="text_4">
     <!-- 2 -->
     <g transform="translate(311.063049 300.086501) scale(0.1 -0.1)">
      <use xlink:href="#DejaVuSans-32"/>
     </g>
    </g>
   </g>
   <g id="xtick_5">
    <g id="line2d_6">
     <path d="M 279.398166 290.391648 
L 283.125253 292.434901 
" style="fill: none; stroke: #000000; stroke-width: 0.8; stroke-linecap: square"/>
    </g>
    <g id="text_5">
     <!-- 4 -->
     <g transform="translate(287.911613 313.614119) scale(0.1 -0.1)">
      <use xlink:href="#DejaVuSans-34"/>
     </g>
    </g>
   </g>
   <g id="xtick_6">
    <g id="line2d_7">
     <path d="M 255.609577 304.021431 
L 259.338165 306.11418 
" style="fill: none; stroke: #000000; stroke-width: 0.8; stroke-linecap: square"/>
    </g>
    <g id="text_6">
     <!-- 6 -->
     <g transform="translate(264.20176 327.468026) scale(0.1 -0.1)">
      <defs>
       <path id="DejaVuSans-36" d="M 2113 2584 
Q 1688 2584 1439 2293 
Q 1191 2003 1191 1497 
Q 1191 994 1439 701 
Q 1688 409 2113 409 
Q 2538 409 2786 701 
Q 3034 994 3034 1497 
Q 3034 2003 2786 2293 
Q 2538 2584 2113 2584 
z
M 3366 4563 
L 3366 3988 
Q 3128 4100 2886 4159 
Q 2644 4219 2406 4219 
Q 1781 4219 1451 3797 
Q 1122 3375 1075 2522 
Q 1259 2794 1537 2939 
Q 1816 3084 2150 3084 
Q 2853 3084 3261 2657 
Q 3669 2231 3669 1497 
Q 3669 778 3244 343 
Q 2819 -91 2113 -91 
Q 1303 -91 875 529 
Q 447 1150 447 2328 
Q 447 3434 972 4092 
Q 1497 4750 2381 4750 
Q 2619 4750 2861 4703 
Q 3103 4656 3366 4563 
z
" transform="scale(0.015625)"/>
      </defs>
      <use xlink:href="#DejaVuSans-36"/>
     </g>
    </g>
   </g>
   <g id="text_7">
    <!-- $\alpha$ -->
    <g transform="translate(330.626772 310.536557) rotate(-29.841106) scale(0.1 -0.1)">
     <defs>
      <path id="DejaVuSans-Oblique-3b1" d="M 2619 1628 
L 2622 2350 
Q 2625 3088 2069 3091 
Q 1653 3094 1394 2747 
Q 1069 2319 959 1747 
Q 825 1059 994 731 
Q 1169 397 1547 397 
Q 1966 397 2319 1063 
L 2619 1628 
z
M 2166 3578 
Q 3141 3594 3128 2584 
Q 3128 2584 3616 3500 
L 4128 3500 
L 3119 1603 
L 3109 919 
Q 3109 766 3194 638 
Q 3291 488 3391 488 
L 3669 488 
L 3575 0 
L 3228 0 
Q 2934 0 2722 263 
Q 2622 394 2619 669 
Q 2416 334 2066 50 
Q 1900 -81 1453 -78 
Q 722 -72 456 397 
Q 184 884 353 1747 
Q 534 2675 1009 3097 
Q 1544 3569 2166 3578 
z
" transform="scale(0.015625)"/>
     </defs>
     <use xlink:href="#DejaVuSans-Oblique-3b1" transform="translate(0 0.84375)"/>
    </g>
   </g>
  </g>
  <g id="axis3d_2">
   <g id="line2d_8">
    <path d="M 90.569654 234.653707 
L 234.778378 317.380273 
" style="fill: none; stroke: #000000; stroke-width: 0.8; stroke-linecap: square"/>
   </g>
   <g id="xtick_7">
    <g id="line2d_9">
     <path d="M 100.503736 239.023484 
L 96.791575 240.885528 
" style="fill: none; stroke: #000000; stroke-width: 0.8; stroke-linecap: square"/>
    </g>
    <g id="text_8">
     <!-- 1.6 -->
     <g transform="translate(81.167479 261.409019) scale(0.1 -0.1)">
      <defs>
       <path id="DejaVuSans-31" d="M 794 531 
L 1825 531 
L 1825 4091 
L 703 3866 
L 703 4441 
L 1819 4666 
L 2450 4666 
L 2450 531 
L 3481 531 
L 3481 0 
L 794 0 
L 794 531 
z
" transform="scale(0.015625)"/>
       <path id="DejaVuSans-2e" d="M 684 794 
L 1344 794 
L 1344 0 
L 684 0 
L 684 794 
z
" transform="scale(0.015625)"/>
      </defs>
      <use xlink:href="#DejaVuSans-31"/>
      <use xlink:href="#DejaVuSans-2e" x="63.623047"/>
      <use xlink:href="#DejaVuSans-36" x="95.410156"/>
     </g>
    </g>
   </g>
   <g id="xtick_8">
    <g id="line2d_10">
     <path d="M 115.375387 247.544266 
L 111.659737 249.435785 
" style="fill: none; stroke: #000000; stroke-width: 0.8; stroke-linecap: square"/>
    </g>
    <g id="text_9">
     <!-- 1.7 -->
     <g transform="translate(95.986258 270.067781) scale(0.1 -0.1)">
      <defs>
       <path id="DejaVuSans-37" d="M 525 4666 
L 3525 4666 
L 3525 4397 
L 1831 0 
L 1172 0 
L 2766 4134 
L 525 4134 
L 525 4666 
z
" transform="scale(0.015625)"/>
      </defs>
      <use xlink:href="#DejaVuSans-31"/>
      <use xlink:href="#DejaVuSans-2e" x="63.623047"/>
      <use xlink:href="#DejaVuSans-37" x="95.410156"/>
     </g>
    </g>
   </g>
   <g id="xtick_9">
    <g id="line2d_11">
     <path d="M 130.483183 256.200347 
L 126.7644 258.122047 
" style="fill: none; stroke: #000000; stroke-width: 0.8; stroke-linecap: square"/>
    </g>
    <g id="text_10">
     <!-- 1.8 -->
     <g transform="translate(111.040932 278.86438) scale(0.1 -0.1)">
      <defs>
       <path id="DejaVuSans-38" d="M 2034 2216 
Q 1584 2216 1326 1975 
Q 1069 1734 1069 1313 
Q 1069 891 1326 650 
Q 1584 409 2034 409 
Q 2484 409 2743 651 
Q 3003 894 3003 1313 
Q 3003 1734 2745 1975 
Q 2488 2216 2034 2216 
z
M 1403 2484 
Q 997 2584 770 2862 
Q 544 3141 544 3541 
Q 544 4100 942 4425 
Q 1341 4750 2034 4750 
Q 2731 4750 3128 4425 
Q 3525 4100 3525 3541 
Q 3525 3141 3298 2862 
Q 3072 2584 2669 2484 
Q 3125 2378 3379 2068 
Q 3634 1759 3634 1313 
Q 3634 634 3220 271 
Q 2806 -91 2034 -91 
Q 1263 -91 848 271 
Q 434 634 434 1313 
Q 434 1759 690 2068 
Q 947 2378 1403 2484 
z
M 1172 3481 
Q 1172 3119 1398 2916 
Q 1625 2713 2034 2713 
Q 2441 2713 2670 2916 
Q 2900 3119 2900 3481 
Q 2900 3844 2670 4047 
Q 2441 4250 2034 4250 
Q 1625 4250 1398 4047 
Q 1172 3844 1172 3481 
z
" transform="scale(0.015625)"/>
      </defs>
      <use xlink:href="#DejaVuSans-31"/>
      <use xlink:href="#DejaVuSans-2e" x="63.623047"/>
      <use xlink:href="#DejaVuSans-38" x="95.410156"/>
     </g>
    </g>
   </g>
   <g id="xtick_10">
    <g id="line2d_12">
     <path d="M 145.832793 264.994977 
L 142.111254 266.947586 
" style="fill: none; stroke: #000000; stroke-width: 0.8; stroke-linecap: square"/>
    </g>
    <g id="text_11">
     <!-- 1.9 -->
     <g transform="translate(126.33718 287.802132) scale(0.1 -0.1)">
      <defs>
       <path id="DejaVuSans-39" d="M 703 97 
L 703 672 
Q 941 559 1184 500 
Q 1428 441 1663 441 
Q 2288 441 2617 861 
Q 2947 1281 2994 2138 
Q 2813 1869 2534 1725 
Q 2256 1581 1919 1581 
Q 1219 1581 811 2004 
Q 403 2428 403 3163 
Q 403 3881 828 4315 
Q 1253 4750 1959 4750 
Q 2769 4750 3195 4129 
Q 3622 3509 3622 2328 
Q 3622 1225 3098 567 
Q 2575 -91 1691 -91 
Q 1453 -91 1209 -44 
Q 966 3 703 97 
z
M 1959 2075 
Q 2384 2075 2632 2365 
Q 2881 2656 2881 3163 
Q 2881 3666 2632 3958 
Q 2384 4250 1959 4250 
Q 1534 4250 1286 3958 
Q 1038 3666 1038 3163 
Q 1038 2656 1286 2365 
Q 1534 2075 1959 2075 
z
" transform="scale(0.015625)"/>
      </defs>
      <use xlink:href="#DejaVuSans-31"/>
      <use xlink:href="#DejaVuSans-2e" x="63.623047"/>
      <use xlink:href="#DejaVuSans-39" x="95.410156"/>
     </g>
    </g>
   </g>
   <g id="xtick_11">
    <g id="line2d_13">
     <path d="M 161.43007 273.931509 
L 157.70617 275.915779 
" style="fill: none; stroke: #000000; stroke-width: 0.8; stroke-linecap: square"/>
    </g>
    <g id="text_12">
     <!-- 2.0 -->
     <g transform="translate(141.880863 296.884463) scale(0.1 -0.1)">
      <use xlink:href="#DejaVuSans-32"/>
      <use xlink:href="#DejaVuSans-2e" x="63.623047"/>
      <use xlink:href="#DejaVuSans-30" x="95.410156"/>
     </g>
    </g>
   </g>
   <g id="xtick_12">
    <g id="line2d_14">
     <path d="M 177.281056 283.013405 
L 173.555212 285.030112 
" style="fill: none; stroke: #000000; stroke-width: 0.8; stroke-linecap: square"/>
    </g>
    <g id="text_13">
     <!-- 2.1 -->
     <g transform="translate(157.678034 306.11491) scale(0.1 -0.1)">
      <use xlink:href="#DejaVuSans-32"/>
      <use xlink:href="#DejaVuSans-2e" x="63.623047"/>
      <use xlink:href="#DejaVuSans-31" x="95.410156"/>
     </g>
    </g>
   </g>
   <g id="xtick_13">
    <g id="line2d_15">
     <path d="M 193.391994 292.244242 
L 189.664642 294.294187 
" style="fill: none; stroke: #000000; stroke-width: 0.8; stroke-linecap: square"/>
    </g>
    <g id="text_14">
     <!-- 2.2 -->
     <g transform="translate(173.734945 315.497125) scale(0.1 -0.1)">
      <use xlink:href="#DejaVuSans-32"/>
      <use xlink:href="#DejaVuSans-2e" x="63.623047"/>
      <use xlink:href="#DejaVuSans-32" x="95.410156"/>
     </g>
    </g>
   </g>
   <g id="xtick_14">
    <g id="line2d_16">
     <path d="M 209.76933 301.627712 
L 206.04093 303.711725 
" style="fill: none; stroke: #000000; stroke-width: 0.8; stroke-linecap: square"/>
    </g>
    <g id="text_15">
     <!-- 2.3 -->
     <g transform="translate(190.058055 325.034883) scale(0.1 -0.1)">
      <defs>
       <path id="DejaVuSans-33" d="M 2597 2516 
Q 3050 2419 3304 2112 
Q 3559 1806 3559 1356 
Q 3559 666 3084 287 
Q 2609 -91 1734 -91 
Q 1441 -91 1130 -33 
Q 819 25 488 141 
L 488 750 
Q 750 597 1062 519 
Q 1375 441 1716 441 
Q 2309 441 2620 675 
Q 2931 909 2931 1356 
Q 2931 1769 2642 2001 
Q 2353 2234 1838 2234 
L 1294 2234 
L 1294 2753 
L 1863 2753 
Q 2328 2753 2575 2939 
Q 2822 3125 2822 3475 
Q 2822 3834 2567 4026 
Q 2313 4219 1838 4219 
Q 1578 4219 1281 4162 
Q 984 4106 628 3988 
L 628 4550 
Q 988 4650 1302 4700 
Q 1616 4750 1894 4750 
Q 2613 4750 3031 4423 
Q 3450 4097 3450 3541 
Q 3450 3153 3228 2886 
Q 3006 2619 2597 2516 
z
" transform="scale(0.015625)"/>
      </defs>
      <use xlink:href="#DejaVuSans-32"/>
      <use xlink:href="#DejaVuSans-2e" x="63.623047"/>
      <use xlink:href="#DejaVuSans-33" x="95.410156"/>
     </g>
    </g>
   </g>
   <g id="xtick_15">
    <g id="line2d_17">
     <path d="M 226.419726 311.167634 
L 222.690764 313.286571 
" style="fill: none; stroke: #000000; stroke-width: 0.8; stroke-linecap: square"/>
    </g>
    <g id="text_16">
     <!-- 2.4 -->
     <g transform="translate(206.654038 334.732084) scale(0.1 -0.1)">
      <use xlink:href="#DejaVuSans-32"/>
      <use xlink:href="#DejaVuSans-2e" x="63.623047"/>
      <use xlink:href="#DejaVuSans-34" x="95.410156"/>
     </g>
    </g>
   </g>
   <g id="text_17">
    <!-- $J$ -->
    <g transform="translate(135.940591 309.240045) scale(0.1 -0.1)">
     <defs>
      <path id="DejaVuSans-Oblique-4a" d="M 1069 4666 
L 1703 4666 
L 856 325 
Q 691 -522 298 -901 
Q -94 -1281 -800 -1281 
L -1050 -1281 
L -947 -750 
L -750 -750 
Q -328 -750 -109 -509 
Q 109 -269 225 325 
L 1069 4666 
z
" transform="scale(0.015625)"/>
     </defs>
     <use xlink:href="#DejaVuSans-Oblique-4a" transform="translate(0 0.09375)"/>
    </g>
   </g>
  </g>
  <g id="axis3d_3">
   <g id="line2d_18">
    <path d="M 90.569654 234.653707 
L 83.984781 99.16524 
" style="fill: none; stroke: #000000; stroke-width: 0.8; stroke-linecap: square"/>
   </g>
   <g id="xtick_16">
    <g id="line2d_19">
     <path d="M 91.536624 228.47089 
L 87.819258 230.309709 
" style="fill: none; stroke: #000000; stroke-width: 0.8; stroke-linecap: square"/>
    </g>
    <g id="text_18">
     <!-- −0.4 -->
     <g transform="translate(58.465497 236.681567) scale(0.1 -0.1)">
      <use xlink:href="#DejaVuSans-2212"/>
      <use xlink:href="#DejaVuSans-30" x="83.789062"/>
      <use xlink:href="#DejaVuSans-2e" x="147.412109"/>
      <use xlink:href="#DejaVuSans-34" x="179.199219"/>
     </g>
    </g>
   </g>
   <g id="xtick_17">
    <g id="line2d_20">
     <path d="M 90.758643 212.321742 
L 87.01971 214.142692 
" style="fill: none; stroke: #000000; stroke-width: 0.8; stroke-linecap: square"/>
    </g>
    <g id="text_19">
     <!-- −0.2 -->
     <g transform="translate(57.57333 220.526465) scale(0.1 -0.1)">
      <use xlink:href="#DejaVuSans-2212"/>
      <use xlink:href="#DejaVuSans-30" x="83.789062"/>
      <use xlink:href="#DejaVuSans-2e" x="147.412109"/>
      <use xlink:href="#DejaVuSans-32" x="179.199219"/>
     </g>
    </g>
   </g>
   <g id="xtick_18">
    <g id="line2d_21">
     <path d="M 89.972166 195.996215 
L 86.211414 197.798796 
" style="fill: none; stroke: #000000; stroke-width: 0.8; stroke-linecap: square"/>
    </g>
    <g id="text_20">
     <!-- 0.0 -->
     <g transform="translate(60.861256 204.194819) scale(0.1 -0.1)">
      <use xlink:href="#DejaVuSans-30"/>
      <use xlink:href="#DejaVuSans-2e" x="63.623047"/>
      <use xlink:href="#DejaVuSans-30" x="95.410156"/>
     </g>
    </g>
   </g>
   <g id="xtick_19">
    <g id="line2d_22">
     <path d="M 89.177051 179.491406 
L 85.394227 181.275102 
" style="fill: none; stroke: #000000; stroke-width: 0.8; stroke-linecap: square"/>
    </g>
    <g id="text_21">
     <!-- 0.2 -->
     <g transform="translate(59.949429 187.683718) scale(0.1 -0.1)">
      <use xlink:href="#DejaVuSans-30"/>
      <use xlink:href="#DejaVuSans-2e" x="63.623047"/>
      <use xlink:href="#DejaVuSans-32" x="95.410156"/>
     </g>
    </g>
   </g>
   <g id="xtick_20">
    <g id="line2d_23">
     <path d="M 88.373157 162.804343 
L 84.567999 164.568626 
" style="fill: none; stroke: #000000; stroke-width: 0.8; stroke-linecap: square"/>
    </g>
    <g id="text_22">
     <!-- 0.4 -->
     <g transform="translate(59.027526 170.990188) scale(0.1 -0.1)">
      <use xlink:href="#DejaVuSans-30"/>
      <use xlink:href="#DejaVuSans-2e" x="63.623047"/>
      <use xlink:href="#DejaVuSans-34" x="95.410156"/>
     </g>
    </g>
   </g>
   <g id="xtick_21">
    <g id="line2d_24">
     <path d="M 87.560336 145.931993 
L 83.732581 147.676319 
" style="fill: none; stroke: #000000; stroke-width: 0.8; stroke-linecap: square"/>
    </g>
    <g id="text_23">
     <!-- 0.6 -->
     <g transform="translate(58.095382 154.111189) scale(0.1 -0.1)">
      <use xlink:href="#DejaVuSans-30"/>
      <use xlink:href="#DejaVuSans-2e" x="63.623047"/>
      <use xlink:href="#DejaVuSans-36" x="95.410156"/>
     </g>
    </g>
   </g>
   <g id="xtick_22">
    <g id="line2d_25">
     <path d="M 86.738439 128.87125 
L 82.887819 130.595063 
" style="fill: none; stroke: #000000; stroke-width: 0.8; stroke-linecap: square"/>
    </g>
    <g id="text_24">
     <!-- 0.8 -->
     <g transform="translate(57.152823 137.043613) scale(0.1 -0.1)">
      <use xlink:href="#DejaVuSans-30"/>
      <use xlink:href="#DejaVuSans-2e" x="63.623047"/>
      <use xlink:href="#DejaVuSans-38" x="95.410156"/>
     </g>
    </g>
   </g>
   <g id="xtick_23">
    <g id="line2d_26">
     <path d="M 85.907314 111.618943 
L 82.033554 113.321669 
" style="fill: none; stroke: #000000; stroke-width: 0.8; stroke-linecap: square"/>
    </g>
    <g id="text_25">
     <!-- 1.0 -->
     <g transform="translate(56.199674 119.784282) scale(0.1 -0.1)">
      <use xlink:href="#DejaVuSans-31"/>
      <use xlink:href="#DejaVuSans-2e" x="63.623047"/>
      <use xlink:href="#DejaVuSans-30" x="95.410156"/>
     </g>
    </g>
   </g>
   <g id="text_26">
    <!-- $C_L$ -->
    <g transform="translate(40.640471 162.962174) rotate(-272.782442) scale(0.1 -0.1)">
     <defs>
      <path id="DejaVuSans-Oblique-43" d="M 4447 4306 
L 4319 3641 
Q 4019 3944 3683 4091 
Q 3347 4238 2956 4238 
Q 2422 4238 2017 3981 
Q 1613 3725 1319 3200 
Q 1131 2863 1032 2486 
Q 934 2109 934 1728 
Q 934 1091 1264 756 
Q 1594 422 2222 422 
Q 2656 422 3056 561 
Q 3456 700 3834 978 
L 3688 231 
Q 3316 72 2936 -9 
Q 2556 -91 2175 -91 
Q 1278 -91 773 396 
Q 269 884 269 1753 
Q 269 2309 461 2846 
Q 653 3384 1013 3828 
Q 1394 4300 1883 4525 
Q 2372 4750 3022 4750 
Q 3422 4750 3780 4639 
Q 4138 4528 4447 4306 
z
" transform="scale(0.015625)"/>
      <path id="DejaVuSans-Oblique-4c" d="M 1075 4666 
L 1709 4666 
L 909 525 
L 3181 525 
L 3078 0 
L 172 0 
L 1075 4666 
z
" transform="scale(0.015625)"/>
     </defs>
     <use xlink:href="#DejaVuSans-Oblique-43" transform="translate(0 0.78125)"/>
     <use xlink:href="#DejaVuSans-Oblique-4c" transform="translate(69.824219 -15.625) scale(0.7)"/>
    </g>
   </g>
  </g>
  <g id="axes_1">
   <g id="Path3DCollection_1">
    <path d="M 262.769834 164.521864 
L 267.24197 160.049729 
M 262.769834 160.049729 
L 267.24197 164.521864 
" clip-path="url(#p51b9f1fce4)" style="fill: #ff0000; fill-opacity: 0.3; stroke: #ff0000; stroke-opacity: 0.3; stroke-width: 1.5"/>
    <path d="M 199.105947 137.254114 
L 203.578083 132.781978 
M 199.105947 132.781978 
L 203.578083 137.254114 
" clip-path="url(#p51b9f1fce4)" style="fill: #ff0000; fill-opacity: 0.359952; stroke: #ff0000; stroke-opacity: 0.359952; stroke-width: 1.5"/>
    <path d="M 294.029727 179.801859 
L 298.501863 175.329723 
M 294.029727 175.329723 
L 298.501863 179.801859 
" clip-path="url(#p51b9f1fce4)" style="fill: #ff0000; fill-opacity: 0.384459; stroke: #ff0000; stroke-opacity: 0.384459; stroke-width: 1.5"/>
    <path d="M 187.607449 133.307484 
L 192.079585 128.835349 
M 187.607449 128.835349 
L 192.079585 133.307484 
" clip-path="url(#p51b9f1fce4)" style="fill: #ff0000; fill-opacity: 0.408349; stroke: #ff0000; stroke-opacity: 0.408349; stroke-width: 1.5"/>
    <path d="M 326.167049 195.696223 
L 330.639184 191.224087 
M 326.167049 191.224087 
L 330.639184 195.696223 
" clip-path="url(#p51b9f1fce4)" style="fill: #ff0000; fill-opacity: 0.471771; stroke: #ff0000; stroke-opacity: 0.471771; stroke-width: 1.5"/>
    <path d="M 239.713718 159.095243 
L 244.185854 154.623107 
M 239.713718 154.623107 
L 244.185854 159.095243 
" clip-path="url(#p51b9f1fce4)" style="fill: #ff0000; fill-opacity: 0.513865; stroke: #ff0000; stroke-opacity: 0.513865; stroke-width: 1.5"/>
    <path d="M 151.810445 121.463102 
L 156.282581 116.990966 
M 151.810445 116.990966 
L 156.282581 121.463102 
" clip-path="url(#p51b9f1fce4)" style="fill: #ff0000; fill-opacity: 0.558222; stroke: #ff0000; stroke-opacity: 0.558222; stroke-width: 1.5"/>
    <path d="M 359.374221 212.112644 
L 363.846357 207.640508 
M 359.374221 207.640508 
L 363.846357 212.112644 
" clip-path="url(#p51b9f1fce4)" style="fill: #ff0000; fill-opacity: 0.561587; stroke: #ff0000; stroke-opacity: 0.561587; stroke-width: 1.5"/>
    <path d="M 277.298595 176.807537 
L 281.770731 172.335401 
M 277.298595 172.335401 
L 281.770731 176.807537 
" clip-path="url(#p51b9f1fce4)" style="fill: #ff0000; fill-opacity: 0.579597; stroke: #ff0000; stroke-opacity: 0.579597; stroke-width: 1.5"/>
    <path d="M 216.407462 151.191413 
L 220.879598 146.719277 
M 216.407462 146.719277 
L 220.879598 151.191413 
" clip-path="url(#p51b9f1fce4)" style="fill: #ff0000; fill-opacity: 0.617887; stroke: #ff0000; stroke-opacity: 0.617887; stroke-width: 1.5"/>
    <path d="M 293.688014 184.906314 
L 298.16015 180.434178 
M 293.688014 180.434178 
L 298.16015 184.906314 
" clip-path="url(#p51b9f1fce4)" style="fill: #ff0000; fill-opacity: 0.625908; stroke: #ff0000; stroke-opacity: 0.625908; stroke-width: 1.5"/>
    <path d="M 210.512861 149.717634 
L 214.984997 145.245498 
M 210.512861 145.245498 
L 214.984997 149.717634 
" clip-path="url(#p51b9f1fce4)" style="fill: #ff0000; fill-opacity: 0.643193; stroke: #ff0000; stroke-opacity: 0.643193; stroke-width: 1.5"/>
    <path d="M 148.658266 124.549746 
L 153.130402 120.07761 
M 148.658266 120.07761 
L 153.130402 124.549746 
" clip-path="url(#p51b9f1fce4)" style="fill: #ff0000; fill-opacity: 0.680355; stroke: #ff0000; stroke-opacity: 0.680355; stroke-width: 1.5"/>
    <path d="M 321.854017 200.359547 
L 326.326152 195.887411 
M 321.854017 195.887411 
L 326.326152 200.359547 
" clip-path="url(#p51b9f1fce4)" style="fill: #ff0000; fill-opacity: 0.746389; stroke: #ff0000; stroke-opacity: 0.746389; stroke-width: 1.5"/>
    <path d="M 101.385404 110.362847 
L 105.85754 105.890711 
M 101.385404 105.890711 
L 105.85754 110.362847 
" clip-path="url(#p51b9f1fce4)" style="fill: #ff0000; fill-opacity: 0.759309; stroke: #ff0000; stroke-opacity: 0.759309; stroke-width: 1.5"/>
    <path d="M 218.967437 160.085133 
L 223.439573 155.612997 
M 218.967437 155.612997 
L 223.439573 160.085133 
" clip-path="url(#p51b9f1fce4)" style="fill: #ff0000; fill-opacity: 0.845137; stroke: #ff0000; stroke-opacity: 0.845137; stroke-width: 1.5"/>
    <path d="M 299.255189 193.582123 
L 303.727325 189.109987 
M 299.255189 189.109987 
L 303.727325 193.582123 
" clip-path="url(#p51b9f1fce4)" style="fill: #ff0000; fill-opacity: 0.857055; stroke: #ff0000; stroke-opacity: 0.857055; stroke-width: 1.5"/>
    <path d="M 148.581958 135.938813 
L 153.054094 131.466677 
M 148.581958 131.466677 
L 153.054094 135.938813 
" clip-path="url(#p51b9f1fce4)" style="fill: #ff0000; fill-opacity: 0.905823; stroke: #ff0000; stroke-opacity: 0.905823; stroke-width: 1.5"/>
    <path d="M 223.347391 165.837038 
L 227.819527 161.364902 
M 223.347391 161.364902 
L 227.819527 165.837038 
" clip-path="url(#p51b9f1fce4)" style="fill: #ff0000; fill-opacity: 0.950978; stroke: #ff0000; stroke-opacity: 0.950978; stroke-width: 1.5"/>
    <path d="M 164.758789 144.370991 
L 169.230925 139.898855 
M 164.758789 139.898855 
L 169.230925 144.370991 
" clip-path="url(#p51b9f1fce4)" style="fill: #ff0000; fill-opacity: 0.957277; stroke: #ff0000; stroke-opacity: 0.957277; stroke-width: 1.5"/>
    <path d="M 269.681384 185.594688 
L 274.15352 181.122552 
M 269.681384 181.122552 
L 274.15352 185.594688 
" clip-path="url(#p51b9f1fce4)" style="fill: #ff0000; stroke: #ff0000; stroke-width: 1.5"/>
   </g>
   <g id="Path3DCollection_2">
    <path d="M 232.520712 165.831143 
L 236.992848 161.359007 
M 232.520712 161.359007 
L 236.992848 165.831143 
" clip-path="url(#p51b9f1fce4)" style="fill: #0000ff; fill-opacity: 0.3; stroke: #0000ff; stroke-opacity: 0.3; stroke-width: 1.5"/>
    <path d="M 232.520712 165.809583 
L 236.992848 161.337447 
M 232.520712 161.337447 
L 236.992848 165.809583 
" clip-path="url(#p51b9f1fce4)" style="fill: #0000ff; fill-opacity: 0.300028; stroke: #0000ff; stroke-opacity: 0.300028; stroke-width: 1.5"/>
    <path d="M 232.4667 165.230806 
L 236.938836 160.75867 
M 232.4667 160.75867 
L 236.938836 165.230806 
" clip-path="url(#p51b9f1fce4)" style="fill: #0000ff; fill-opacity: 0.300935; stroke: #0000ff; stroke-opacity: 0.300935; stroke-width: 1.5"/>
    <path d="M 262.69549 179.561847 
L 267.167626 175.089711 
M 262.69549 175.089711 
L 267.167626 179.561847 
" clip-path="url(#p51b9f1fce4)" style="fill: #0000ff; fill-opacity: 0.361443; stroke: #0000ff; stroke-opacity: 0.361443; stroke-width: 1.5"/>
    <path d="M 204.859792 155.223118 
L 209.331928 150.750982 
M 204.859792 150.750982 
L 209.331928 155.223118 
" clip-path="url(#p51b9f1fce4)" style="fill: #0000ff; fill-opacity: 0.387055; stroke: #0000ff; stroke-opacity: 0.387055; stroke-width: 1.5"/>
    <path d="M 199.231443 153.955817 
L 203.703579 149.483681 
M 199.231443 149.483681 
L 203.703579 153.955817 
" clip-path="url(#p51b9f1fce4)" style="fill: #0000ff; fill-opacity: 0.403592; stroke: #0000ff; stroke-opacity: 0.403592; stroke-width: 1.5"/>
    <path d="M 293.75347 194.440235 
L 298.225606 189.968099 
M 293.75347 189.968099 
L 298.225606 194.440235 
" clip-path="url(#p51b9f1fce4)" style="fill: #0000ff; fill-opacity: 0.423816; stroke: #0000ff; stroke-opacity: 0.423816; stroke-width: 1.5"/>
    <path d="M 176.096828 145.155719 
L 180.568964 140.683583 
M 176.096828 140.683583 
L 180.568964 145.155719 
" clip-path="url(#p51b9f1fce4)" style="fill: #0000ff; fill-opacity: 0.476307; stroke: #0000ff; stroke-opacity: 0.476307; stroke-width: 1.5"/>
    <path d="M 325.795585 210.016699 
L 330.267721 205.544563 
M 325.795585 205.544563 
L 330.267721 210.016699 
" clip-path="url(#p51b9f1fce4)" style="fill: #0000ff; fill-opacity: 0.487867; stroke: #0000ff; stroke-opacity: 0.487867; stroke-width: 1.5"/>
    <path d="M 218.392965 164.425228 
L 222.865101 159.953092 
M 218.392965 159.953092 
L 222.865101 164.425228 
" clip-path="url(#p51b9f1fce4)" style="fill: #0000ff; fill-opacity: 0.503999; stroke: #0000ff; stroke-opacity: 0.503999; stroke-width: 1.5"/>
    <path d="M 239.59966 173.837794 
L 244.071796 169.365659 
M 239.59966 169.365659 
L 244.071796 173.837794 
" clip-path="url(#p51b9f1fce4)" style="fill: #0000ff; fill-opacity: 0.518762; stroke: #0000ff; stroke-opacity: 0.518762; stroke-width: 1.5"/>
    <path d="M 282.597802 193.185759 
L 287.069938 188.713623 
M 282.597802 188.713623 
L 287.069938 193.185759 
" clip-path="url(#p51b9f1fce4)" style="fill: #0000ff; fill-opacity: 0.547962; stroke: #0000ff; stroke-opacity: 0.547962; stroke-width: 1.5"/>
    <path d="M 152.188561 138.204643 
L 156.660697 133.732508 
M 152.188561 133.732508 
L 156.660697 138.204643 
" clip-path="url(#p51b9f1fce4)" style="fill: #0000ff; fill-opacity: 0.548623; stroke: #0000ff; stroke-opacity: 0.548623; stroke-width: 1.5"/>
    <path d="M 358.833137 226.116406 
L 363.305273 221.64427 
M 358.833137 221.64427 
L 363.305273 226.116406 
" clip-path="url(#p51b9f1fce4)" style="fill: #0000ff; fill-opacity: 0.553977; stroke: #0000ff; stroke-opacity: 0.553977; stroke-width: 1.5"/>
    <path d="M 146.207779 136.565135 
L 150.679915 132.093 
M 146.207779 132.093 
L 150.679915 136.565135 
" clip-path="url(#p51b9f1fce4)" style="fill: #0000ff; fill-opacity: 0.566583; stroke: #0000ff; stroke-opacity: 0.566583; stroke-width: 1.5"/>
    <path d="M 146.026942 135.328097 
L 150.499078 130.855961 
M 146.026942 130.855961 
L 150.499078 135.328097 
" clip-path="url(#p51b9f1fce4)" style="fill: #0000ff; fill-opacity: 0.568694; stroke: #0000ff; stroke-opacity: 0.568694; stroke-width: 1.5"/>
    <path d="M 140.054613 134.934011 
L 144.526748 130.461875 
M 140.054613 130.461875 
L 144.526748 134.934011 
" clip-path="url(#p51b9f1fce4)" style="fill: #0000ff; fill-opacity: 0.584986; stroke: #0000ff; stroke-opacity: 0.584986; stroke-width: 1.5"/>
    <path d="M 127.516971 131.353179 
L 131.989107 126.881043 
M 127.516971 126.881043 
L 131.989107 131.353179 
" clip-path="url(#p51b9f1fce4)" style="fill: #0000ff; fill-opacity: 0.622824; stroke: #0000ff; stroke-opacity: 0.622824; stroke-width: 1.5"/>
    <path d="M 170.814613 149.669379 
L 175.286749 145.197243 
M 170.814613 145.197243 
L 175.286749 149.669379 
" clip-path="url(#p51b9f1fce4)" style="fill: #0000ff; fill-opacity: 0.655036; stroke: #0000ff; stroke-opacity: 0.655036; stroke-width: 1.5"/>
    <path d="M 248.70488 182.469831 
L 253.177016 177.997695 
M 248.70488 177.997695 
L 253.177016 182.469831 
" clip-path="url(#p51b9f1fce4)" style="fill: #0000ff; fill-opacity: 0.662846; stroke: #0000ff; stroke-opacity: 0.662846; stroke-width: 1.5"/>
    <path d="M 164.724478 147.893854 
L 169.196614 143.421718 
M 164.724478 143.421718 
L 169.196614 147.893854 
" clip-path="url(#p51b9f1fce4)" style="fill: #0000ff; fill-opacity: 0.674213; stroke: #0000ff; stroke-opacity: 0.674213; stroke-width: 1.5"/>
    <path d="M 321.384956 214.261142 
L 325.857092 209.789006 
M 321.384956 209.789006 
L 325.857092 214.261142 
" clip-path="url(#p51b9f1fce4)" style="fill: #0000ff; fill-opacity: 0.689762; stroke: #0000ff; stroke-opacity: 0.689762; stroke-width: 1.5"/>
    <path d="M 101.98502 126.024317 
L 106.457156 121.552182 
M 101.98502 121.552182 
L 106.457156 126.024317 
" clip-path="url(#p51b9f1fce4)" style="fill: #0000ff; fill-opacity: 0.697286; stroke: #0000ff; stroke-opacity: 0.697286; stroke-width: 1.5"/>
    <path d="M 101.983646 125.991927 
L 106.455782 121.519791 
M 101.983646 121.519791 
L 106.455782 125.991927 
" clip-path="url(#p51b9f1fce4)" style="fill: #0000ff; fill-opacity: 0.697333; stroke: #0000ff; stroke-opacity: 0.697333; stroke-width: 1.5"/>
    <path d="M 102.00102 124.883991 
L 106.473156 120.411855 
M 102.00102 120.411855 
L 106.473156 124.883991 
" clip-path="url(#p51b9f1fce4)" style="fill: #0000ff; fill-opacity: 0.69875; stroke: #0000ff; stroke-opacity: 0.69875; stroke-width: 1.5"/>
    <path d="M 237.052811 179.184974 
L 241.524946 174.712838 
M 237.052811 174.712838 
L 241.524946 179.184974 
" clip-path="url(#p51b9f1fce4)" style="fill: #0000ff; fill-opacity: 0.701758; stroke: #0000ff; stroke-opacity: 0.701758; stroke-width: 1.5"/>
    <path d="M 298.806712 207.576207 
L 303.278848 203.104071 
M 298.806712 203.104071 
L 303.278848 207.576207 
" clip-path="url(#p51b9f1fce4)" style="fill: #0000ff; fill-opacity: 0.770905; stroke: #0000ff; stroke-opacity: 0.770905; stroke-width: 1.5"/>
    <path d="M 235.633668 182.871814 
L 240.105804 178.399678 
M 235.633668 178.399678 
L 240.105804 182.871814 
" clip-path="url(#p51b9f1fce4)" style="fill: #0000ff; fill-opacity: 0.79821; stroke: #0000ff; stroke-opacity: 0.79821; stroke-width: 1.5"/>
    <path d="M 148.97338 149.773896 
L 153.445516 145.30176 
M 148.97338 145.30176 
L 153.445516 149.773896 
" clip-path="url(#p51b9f1fce4)" style="fill: #0000ff; fill-opacity: 0.80675; stroke: #0000ff; stroke-opacity: 0.80675; stroke-width: 1.5"/>
    <path d="M 269.510151 199.511662 
L 273.982287 195.039526 
M 269.510151 195.039526 
L 273.982287 199.511662 
" clip-path="url(#p51b9f1fce4)" style="fill: #0000ff; fill-opacity: 0.875238; stroke: #0000ff; stroke-opacity: 0.875238; stroke-width: 1.5"/>
    <path d="M 181.584248 167.025281 
L 186.056384 162.553145 
M 181.584248 162.553145 
L 186.056384 167.025281 
" clip-path="url(#p51b9f1fce4)" style="fill: #0000ff; fill-opacity: 0.881904; stroke: #0000ff; stroke-opacity: 0.881904; stroke-width: 1.5"/>
    <path d="M 232.605697 193.611393 
L 237.077833 189.139257 
M 232.605697 189.139257 
L 237.077833 193.611393 
" clip-path="url(#p51b9f1fce4)" style="fill: #0000ff; stroke: #0000ff; stroke-width: 1.5"/>
   </g>
   <g id="legend_1">
    <g id="patch_6">
     <path d="M 305.4 48.15625 
L 385.4 48.15625 
Q 387.4 48.15625 387.4 46.15625 
L 387.4 17.8 
Q 387.4 15.8 385.4 15.8 
L 305.4 15.8 
Q 303.4 15.8 303.4 17.8 
L 303.4 46.15625 
Q 303.4 48.15625 305.4 48.15625 
z
" style="fill: #ffffff; opacity: 0.8; stroke: #cccccc; stroke-linejoin: miter"/>
    </g>
    <g id="Path3DCollection_3">
     <defs>
      <path id="m1730da94cd" d="M -2.236068 2.236068 
L 2.236068 -2.236068 
M -2.236068 -2.236068 
L 2.236068 2.236068 
" style="stroke: #0000ff; stroke-width: 1.5"/>
     </defs>
     <g>
      <use xlink:href="#m1730da94cd" x="317.4" y="24.773438" style="fill: #0000ff; stroke: #0000ff; stroke-width: 1.5"/>
     </g>
    </g>
    <g id="text_27">
     <!-- $\delta_e = -10$ -->
     <g transform="translate(335.4 27.398438) scale(0.1 -0.1)">
      <defs>
       <path id="DejaVuSans-Oblique-3b4" d="M 3472 4053 
Q 3197 4272 2450 4272 
Q 1659 4272 1588 3906 
Q 1531 3619 2328 3469 
Q 2953 3353 3253 3003 
Q 3616 2581 3447 1716 
Q 3284 888 2763 400 
Q 2238 -91 1488 -91 
Q 741 -91 406 400 
Q 72 888 241 1747 
Q 363 2384 891 2900 
Q 1097 3100 1353 3213 
Q 913 3459 1000 3900 
Q 1166 4750 2544 4750 
Q 3234 4750 3566 4531 
L 3472 4053 
z
M 1753 3056 
Q 1525 2966 1306 2738 
Q 969 2384 847 1747 
Q 722 1113 919 756 
Q 1119 397 1584 397 
Q 2044 397 2381 759 
Q 2722 1122 2838 1716 
Q 2956 2338 2731 2638 
Q 2491 2959 2103 2994 
Q 1906 3013 1753 3056 
z
" transform="scale(0.015625)"/>
       <path id="DejaVuSans-Oblique-65" d="M 3078 2063 
Q 3088 2113 3092 2166 
Q 3097 2219 3097 2272 
Q 3097 2653 2873 2875 
Q 2650 3097 2266 3097 
Q 1838 3097 1509 2826 
Q 1181 2556 1013 2059 
L 3078 2063 
z
M 3578 1613 
L 903 1613 
Q 884 1494 878 1425 
Q 872 1356 872 1306 
Q 872 872 1139 634 
Q 1406 397 1894 397 
Q 2269 397 2603 481 
Q 2938 566 3225 728 
L 3116 159 
Q 2806 34 2476 -28 
Q 2147 -91 1806 -91 
Q 1078 -91 686 257 
Q 294 606 294 1247 
Q 294 1794 489 2264 
Q 684 2734 1063 3103 
Q 1306 3334 1642 3459 
Q 1978 3584 2356 3584 
Q 2950 3584 3301 3228 
Q 3653 2872 3653 2272 
Q 3653 2128 3634 1964 
Q 3616 1800 3578 1613 
z
" transform="scale(0.015625)"/>
       <path id="DejaVuSans-3d" d="M 678 2906 
L 4684 2906 
L 4684 2381 
L 678 2381 
L 678 2906 
z
M 678 1631 
L 4684 1631 
L 4684 1100 
L 678 1100 
L 678 1631 
z
" transform="scale(0.015625)"/>
      </defs>
      <use xlink:href="#DejaVuSans-Oblique-3b4" transform="translate(0 0.78125)"/>
      <use xlink:href="#DejaVuSans-Oblique-65" transform="translate(61.181641 -15.625) scale(0.7)"/>
      <use xlink:href="#DejaVuSans-3d" transform="translate(126.464844 0.78125)"/>
      <use xlink:href="#DejaVuSans-2212" transform="translate(249.21875 0.78125)"/>
      <use xlink:href="#DejaVuSans-31" transform="translate(352.490234 0.78125)"/>
      <use xlink:href="#DejaVuSans-30" transform="translate(416.113281 0.78125)"/>
     </g>
    </g>
    <g id="Path3DCollection_4">
     <defs>
      <path id="m5277adbdfa" d="M -2.236068 2.236068 
L 2.236068 -2.236068 
M -2.236068 -2.236068 
L 2.236068 2.236068 
" style="stroke: #ff0000; stroke-width: 1.5"/>
     </defs>
     <g>
      <use xlink:href="#m5277adbdfa" x="317.4" y="39.451563" style="fill: #ff0000; stroke: #ff0000; stroke-width: 1.5"/>
     </g>
    </g>
    <g id="text_28">
     <!-- $\delta_e = 10$ -->
     <g transform="translate(335.4 42.076563) scale(0.1 -0.1)">
      <use xlink:href="#DejaVuSans-Oblique-3b4" transform="translate(0 0.78125)"/>
      <use xlink:href="#DejaVuSans-Oblique-65" transform="translate(61.181641 -15.625) scale(0.7)"/>
      <use xlink:href="#DejaVuSans-3d" transform="translate(126.464844 0.78125)"/>
      <use xlink:href="#DejaVuSans-31" transform="translate(229.736328 0.78125)"/>
      <use xlink:href="#DejaVuSans-30" transform="translate(293.359375 0.78125)"/>
     </g>
    </g>
   </g>
  </g>
 </g>
 <defs>
  <clipPath id="p51b9f1fce4">
   <rect x="68.4" y="10.8" width="324" height="324"/>
  </clipPath>
 </defs>
</svg>
