<?xml version="1.0" encoding="utf-8" standalone="no"?>
<!DOCTYPE svg PUBLIC "-//W3C//DTD SVG 1.1//EN"
  "http://www.w3.org/Graphics/SVG/1.1/DTD/svg11.dtd">
<svg xmlns:xlink="http://www.w3.org/1999/xlink" width="460.8pt" height="345.6pt" viewBox="0 0 460.8 345.6" xmlns="http://www.w3.org/2000/svg" version="1.1">
 <metadata>
  <rdf:RDF xmlns:dc="http://purl.org/dc/elements/1.1/" xmlns:cc="http://creativecommons.org/ns#" xmlns:rdf="http://www.w3.org/1999/02/22-rdf-syntax-ns#">
   <cc:Work>
    <dc:type rdf:resource="http://purl.org/dc/dcmitype/StillImage"/>
    <dc:date>2025-03-31T17:23:32.475663</dc:date>
    <dc:format>image/svg+xml</dc:format>
    <dc:creator>
     <cc:Agent>
      <dc:title>Matplotlib v3.9.2, https://matplotlib.org/</dc:title>
     </cc:Agent>
    </dc:creator>
   </cc:Work>
  </rdf:RDF>
 </metadata>
 <defs>
  <style type="text/css">*{stroke-linejoin: round; stroke-linecap: butt}</style>
 </defs>
 <g id="figure_1">
  <g id="patch_1">
   <path d="M 0 345.6 
L 460.8 345.6 
L 460.8 0 
L 0 0 
z
" style="fill: #ffffff"/>
  </g>
  <g id="patch_2">
   <path d="M 68.4 334.8 
L 392.4 334.8 
L 392.4 10.8 
L 68.4 10.8 
z
" style="fill: #ffffff"/>
  </g>
  <g id="pane3d_1">
   <g id="patch_3">
    <path d="M 234.778378 162.940222 
L 378.987103 234.653707 
L 385.571976 99.16524 
L 234.778378 33.806163 
" style="fill: #f2f2f2; opacity: 0.5; stroke: #f2f2f2; stroke-linejoin: miter"/>
   </g>
  </g>
  <g id="pane3d_2">
   <g id="patch_4">
    <path d="M 234.778378 162.940222 
L 90.569654 234.653707 
L 83.984781 99.16524 
L 234.778378 33.806163 
" style="fill: #e6e6e6; opacity: 0.5; stroke: #e6e6e6; stroke-linejoin: miter"/>
   </g>
  </g>
  <g id="pane3d_3">
   <g id="patch_5">
    <path d="M 234.778378 162.940222 
L 90.569654 234.653707 
L 234.778378 317.380273 
L 378.987103 234.653707 
" style="fill: #ececec; opacity: 0.5; stroke: #ececec; stroke-linejoin: miter"/>
   </g>
  </g>
  <g id="grid3d_1">
   <g id="Line3DCollection_1">
    <path d="M 370.390271 239.585353 
L 226.14024 167.235878 
L 225.77154 37.710034 
" style="fill: none; stroke: #b0b0b0; stroke-width: 0.8"/>
    <path d="M 348.725428 252.013575 
L 204.394622 178.049746 
L 203.083274 47.5439 
" style="fill: none; stroke: #b0b0b0; stroke-width: 0.8"/>
    <path d="M 326.557247 264.730542 
L 182.178293 189.097693 
L 179.882455 57.599925 
" style="fill: none; stroke: #b0b0b0; stroke-width: 0.8"/>
    <path d="M 303.86798 277.746433 
L 159.475801 200.387404 
L 156.151517 67.88572 
" style="fill: none; stroke: #b0b0b0; stroke-width: 0.8"/>
    <path d="M 280.639037 291.071915 
L 136.271012 211.926902 
L 131.872081 78.409254 
" style="fill: none; stroke: #b0b0b0; stroke-width: 0.8"/>
    <path d="M 256.850929 304.718166 
L 112.54707 223.724569 
L 107.024908 89.178865 
" style="fill: none; stroke: #b0b0b0; stroke-width: 0.8"/>
   </g>
  </g>
  <g id="grid3d_2">
   <g id="Line3DCollection_2">
    <path d="M 243.891316 37.756021 
L 243.518254 167.286471 
L 99.267767 239.643454 
" style="fill: none; stroke: #b0b0b0; stroke-width: 0.8"/>
    <path d="M 259.465752 44.506511 
L 258.447681 174.710718 
L 114.138268 248.174044 
" style="fill: none; stroke: #b0b0b0; stroke-width: 0.8"/>
    <path d="M 275.280847 51.361312 
L 273.598217 182.244921 
L 129.245032 256.840168 
" style="fill: none; stroke: #b0b0b0; stroke-width: 0.8"/>
    <path d="M 291.342223 58.322858 
L 288.97481 189.891539 
L 144.593736 265.645083 
" style="fill: none; stroke: #b0b0b0; stroke-width: 0.8"/>
    <path d="M 307.655677 65.393664 
L 304.582556 197.653108 
L 160.190239 274.59215 
" style="fill: none; stroke: #b0b0b0; stroke-width: 0.8"/>
    <path d="M 324.22719 72.576322 
L 320.426709 205.532239 
L 176.04059 283.684839 
" style="fill: none; stroke: #b0b0b0; stroke-width: 0.8"/>
    <path d="M 341.062936 79.873507 
L 336.512681 213.531623 
L 192.151037 292.926735 
" style="fill: none; stroke: #b0b0b0; stroke-width: 0.8"/>
    <path d="M 358.169283 87.28798 
L 352.846049 221.654036 
L 208.528037 302.321541 
" style="fill: none; stroke: #b0b0b0; stroke-width: 0.8"/>
    <path d="M 375.55281 94.822592 
L 369.432566 229.902337 
L 225.178259 311.873082 
" style="fill: none; stroke: #b0b0b0; stroke-width: 0.8"/>
   </g>
  </g>
  <g id="grid3d_3">
   <g id="Line3DCollection_3">
    <path d="M 90.485374 232.919582 
L 234.778378 161.282468 
L 379.071383 232.919582 
" style="fill: none; stroke: #b0b0b0; stroke-width: 0.8"/>
    <path d="M 89.294355 208.413519 
L 234.778378 137.869442 
L 380.262402 208.413519 
" style="fill: none; stroke: #b0b0b0; stroke-width: 0.8"/>
    <path d="M 88.083511 183.499534 
L 234.778378 114.093047 
L 381.473246 183.499534 
" style="fill: none; stroke: #b0b0b0; stroke-width: 0.8"/>
    <path d="M 86.852342 158.167358 
L 234.778378 89.944759 
L 382.704415 158.167358 
" style="fill: none; stroke: #b0b0b0; stroke-width: 0.8"/>
    <path d="M 85.600333 132.406371 
L 234.778378 65.415782 
L 383.956424 132.406371 
" style="fill: none; stroke: #b0b0b0; stroke-width: 0.8"/>
    <path d="M 84.326949 106.205592 
L 234.778378 40.497044 
L 385.229808 106.205592 
" style="fill: none; stroke: #b0b0b0; stroke-width: 0.8"/>
   </g>
  </g>
  <g id="axis3d_1">
   <g id="line2d_1">
    <path d="M 378.987103 234.653707 
L 234.778378 317.380273 
" style="fill: none; stroke: #000000; stroke-width: 0.8; stroke-linecap: square"/>
   </g>
   <g id="xtick_1">
    <g id="line2d_2">
     <path d="M 369.154311 238.96545 
L 372.866446 240.827294 
" style="fill: none; stroke: #000000; stroke-width: 0.8; stroke-linecap: square"/>
    </g>
    <g id="text_1">
     <!-- −4 -->
     <g transform="translate(373.167549 261.350046) scale(0.1 -0.1)">
      <defs>
       <path id="DejaVuSans-2212" d="M 678 2272 
L 4684 2272 
L 4684 1741 
L 678 1741 
L 678 2272 
z
" transform="scale(0.015625)"/>
       <path id="DejaVuSans-34" d="M 2419 4116 
L 825 1625 
L 2419 1625 
L 2419 4116 
z
M 2253 4666 
L 3047 4666 
L 3047 1625 
L 3713 1625 
L 3713 1100 
L 3047 1100 
L 3047 0 
L 2419 0 
L 2419 1100 
L 313 1100 
L 313 1709 
L 2253 4666 
z
" transform="scale(0.015625)"/>
      </defs>
      <use xlink:href="#DejaVuSans-2212"/>
      <use xlink:href="#DejaVuSans-34" x="83.789062"/>
     </g>
    </g>
   </g>
   <g id="xtick_2">
    <g id="line2d_3">
     <path d="M 347.487835 251.379358 
L 351.204924 253.284219 
" style="fill: none; stroke: #000000; stroke-width: 0.8; stroke-linecap: square"/>
    </g>
    <g id="text_2">
     <!-- −2 -->
     <g transform="translate(351.577917 273.965086) scale(0.1 -0.1)">
      <defs>
       <path id="DejaVuSans-32" d="M 1228 531 
L 3431 531 
L 3431 0 
L 469 0 
L 469 531 
Q 828 903 1448 1529 
Q 2069 2156 2228 2338 
Q 2531 2678 2651 2914 
Q 2772 3150 2772 3378 
Q 2772 3750 2511 3984 
Q 2250 4219 1831 4219 
Q 1534 4219 1204 4116 
Q 875 4013 500 3803 
L 500 4441 
Q 881 4594 1212 4672 
Q 1544 4750 1819 4750 
Q 2544 4750 2975 4387 
Q 3406 4025 3406 3419 
Q 3406 3131 3298 2873 
Q 3191 2616 2906 2266 
Q 2828 2175 2409 1742 
Q 1991 1309 1228 531 
z
" transform="scale(0.015625)"/>
      </defs>
      <use xlink:href="#DejaVuSans-2212"/>
      <use xlink:href="#DejaVuSans-32" x="83.789062"/>
     </g>
    </g>
   </g>
   <g id="xtick_3">
    <g id="line2d_4">
     <path d="M 325.318278 264.081508 
L 329.03955 266.030895 
" style="fill: none; stroke: #000000; stroke-width: 0.8; stroke-linecap: square"/>
    </g>
    <g id="text_3">
     <!-- 0 -->
     <g transform="translate(333.675564 286.87378) scale(0.1 -0.1)">
      <defs>
       <path id="DejaVuSans-30" d="M 2034 4250 
Q 1547 4250 1301 3770 
Q 1056 3291 1056 2328 
Q 1056 1369 1301 889 
Q 1547 409 2034 409 
Q 2525 409 2770 889 
Q 3016 1369 3016 2328 
Q 3016 3291 2770 3770 
Q 2525 4250 2034 4250 
z
M 2034 4750 
Q 2819 4750 3233 4129 
Q 3647 3509 3647 2328 
Q 3647 1150 3233 529 
Q 2819 -91 2034 -91 
Q 1250 -91 836 529 
Q 422 1150 422 2328 
Q 422 3509 836 4129 
Q 1250 4750 2034 4750 
z
" transform="scale(0.015625)"/>
      </defs>
      <use xlink:href="#DejaVuSans-30"/>
     </g>
    </g>
   </g>
   <g id="xtick_4">
    <g id="line2d_5">
     <path d="M 302.627911 277.082058 
L 306.352538 279.077551 
" style="fill: none; stroke: #000000; stroke-width: 0.8; stroke-linecap: square"/>
    </g>
    <g id="text_4">
     <!-- 2 -->
     <g transform="translate(311.063049 300.086501) scale(0.1 -0.1)">
      <use xlink:href="#DejaVuSans-32"/>
     </g>
    </g>
   </g>
   <g id="xtick_5">
    <g id="line2d_6">
     <path d="M 279.398166 290.391648 
L 283.125253 292.434901 
" style="fill: none; stroke: #000000; stroke-width: 0.8; stroke-linecap: square"/>
    </g>
    <g id="text_5">
     <!-- 4 -->
     <g transform="translate(287.911613 313.614119) scale(0.1 -0.1)">
      <use xlink:href="#DejaVuSans-34"/>
     </g>
    </g>
   </g>
   <g id="xtick_6">
    <g id="line2d_7">
     <path d="M 255.609577 304.021431 
L 259.338165 306.11418 
" style="fill: none; stroke: #000000; stroke-width: 0.8; stroke-linecap: square"/>
    </g>
    <g id="text_6">
     <!-- 6 -->
     <g transform="translate(264.20176 327.468026) scale(0.1 -0.1)">
      <defs>
       <path id="DejaVuSans-36" d="M 2113 2584 
Q 1688 2584 1439 2293 
Q 1191 2003 1191 1497 
Q 1191 994 1439 701 
Q 1688 409 2113 409 
Q 2538 409 2786 701 
Q 3034 994 3034 1497 
Q 3034 2003 2786 2293 
Q 2538 2584 2113 2584 
z
M 3366 4563 
L 3366 3988 
Q 3128 4100 2886 4159 
Q 2644 4219 2406 4219 
Q 1781 4219 1451 3797 
Q 1122 3375 1075 2522 
Q 1259 2794 1537 2939 
Q 1816 3084 2150 3084 
Q 2853 3084 3261 2657 
Q 3669 2231 3669 1497 
Q 3669 778 3244 343 
Q 2819 -91 2113 -91 
Q 1303 -91 875 529 
Q 447 1150 447 2328 
Q 447 3434 972 4092 
Q 1497 4750 2381 4750 
Q 2619 4750 2861 4703 
Q 3103 4656 3366 4563 
z
" transform="scale(0.015625)"/>
      </defs>
      <use xlink:href="#DejaVuSans-36"/>
     </g>
    </g>
   </g>
   <g id="text_7">
    <!-- $\alpha$ -->
    <g transform="translate(330.626772 310.536557) rotate(-29.841106) scale(0.1 -0.1)">
     <defs>
      <path id="DejaVuSans-Oblique-3b1" d="M 2619 1628 
L 2622 2350 
Q 2625 3088 2069 3091 
Q 1653 3094 1394 2747 
Q 1069 2319 959 1747 
Q 825 1059 994 731 
Q 1169 397 1547 397 
Q 1966 397 2319 1063 
L 2619 1628 
z
M 2166 3578 
Q 3141 3594 3128 2584 
Q 3128 2584 3616 3500 
L 4128 3500 
L 3119 1603 
L 3109 919 
Q 3109 766 3194 638 
Q 3291 488 3391 488 
L 3669 488 
L 3575 0 
L 3228 0 
Q 2934 0 2722 263 
Q 2622 394 2619 669 
Q 2416 334 2066 50 
Q 1900 -81 1453 -78 
Q 722 -72 456 397 
Q 184 884 353 1747 
Q 534 2675 1009 3097 
Q 1544 3569 2166 3578 
z
" transform="scale(0.015625)"/>
     </defs>
     <use xlink:href="#DejaVuSans-Oblique-3b1" transform="translate(0 0.84375)"/>
    </g>
   </g>
  </g>
  <g id="axis3d_2">
   <g id="line2d_8">
    <path d="M 90.569654 234.653707 
L 234.778378 317.380273 
" style="fill: none; stroke: #000000; stroke-width: 0.8; stroke-linecap: square"/>
   </g>
   <g id="xtick_7">
    <g id="line2d_9">
     <path d="M 100.503736 239.023484 
L 96.791575 240.885528 
" style="fill: none; stroke: #000000; stroke-width: 0.8; stroke-linecap: square"/>
    </g>
    <g id="text_8">
     <!-- 1.6 -->
     <g transform="translate(81.167479 261.409019) scale(0.1 -0.1)">
      <defs>
       <path id="DejaVuSans-31" d="M 794 531 
L 1825 531 
L 1825 4091 
L 703 3866 
L 703 4441 
L 1819 4666 
L 2450 4666 
L 2450 531 
L 3481 531 
L 3481 0 
L 794 0 
L 794 531 
z
" transform="scale(0.015625)"/>
       <path id="DejaVuSans-2e" d="M 684 794 
L 1344 794 
L 1344 0 
L 684 0 
L 684 794 
z
" transform="scale(0.015625)"/>
      </defs>
      <use xlink:href="#DejaVuSans-31"/>
      <use xlink:href="#DejaVuSans-2e" x="63.623047"/>
      <use xlink:href="#DejaVuSans-36" x="95.410156"/>
     </g>
    </g>
   </g>
   <g id="xtick_8">
    <g id="line2d_10">
     <path d="M 115.375387 247.544266 
L 111.659737 249.435785 
" style="fill: none; stroke: #000000; stroke-width: 0.8; stroke-linecap: square"/>
    </g>
    <g id="text_9">
     <!-- 1.7 -->
     <g transform="translate(95.986258 270.067781) scale(0.1 -0.1)">
      <defs>
       <path id="DejaVuSans-37" d="M 525 4666 
L 3525 4666 
L 3525 4397 
L 1831 0 
L 1172 0 
L 2766 4134 
L 525 4134 
L 525 4666 
z
" transform="scale(0.015625)"/>
      </defs>
      <use xlink:href="#DejaVuSans-31"/>
      <use xlink:href="#DejaVuSans-2e" x="63.623047"/>
      <use xlink:href="#DejaVuSans-37" x="95.410156"/>
     </g>
    </g>
   </g>
   <g id="xtick_9">
    <g id="line2d_11">
     <path d="M 130.483183 256.200347 
L 126.7644 258.122047 
" style="fill: none; stroke: #000000; stroke-width: 0.8; stroke-linecap: square"/>
    </g>
    <g id="text_10">
     <!-- 1.8 -->
     <g transform="translate(111.040932 278.86438) scale(0.1 -0.1)">
      <defs>
       <path id="DejaVuSans-38" d="M 2034 2216 
Q 1584 2216 1326 1975 
Q 1069 1734 1069 1313 
Q 1069 891 1326 650 
Q 1584 409 2034 409 
Q 2484 409 2743 651 
Q 3003 894 3003 1313 
Q 3003 1734 2745 1975 
Q 2488 2216 2034 2216 
z
M 1403 2484 
Q 997 2584 770 2862 
Q 544 3141 544 3541 
Q 544 4100 942 4425 
Q 1341 4750 2034 4750 
Q 2731 4750 3128 4425 
Q 3525 4100 3525 3541 
Q 3525 3141 3298 2862 
Q 3072 2584 2669 2484 
Q 3125 2378 3379 2068 
Q 3634 1759 3634 1313 
Q 3634 634 3220 271 
Q 2806 -91 2034 -91 
Q 1263 -91 848 271 
Q 434 634 434 1313 
Q 434 1759 690 2068 
Q 947 2378 1403 2484 
z
M 1172 3481 
Q 1172 3119 1398 2916 
Q 1625 2713 2034 2713 
Q 2441 2713 2670 2916 
Q 2900 3119 2900 3481 
Q 2900 3844 2670 4047 
Q 2441 4250 2034 4250 
Q 1625 4250 1398 4047 
Q 1172 3844 1172 3481 
z
" transform="scale(0.015625)"/>
      </defs>
      <use xlink:href="#DejaVuSans-31"/>
      <use xlink:href="#DejaVuSans-2e" x="63.623047"/>
      <use xlink:href="#DejaVuSans-38" x="95.410156"/>
     </g>
    </g>
   </g>
   <g id="xtick_10">
    <g id="line2d_12">
     <path d="M 145.832793 264.994977 
L 142.111254 266.947586 
" style="fill: none; stroke: #000000; stroke-width: 0.8; stroke-linecap: square"/>
    </g>
    <g id="text_11">
     <!-- 1.9 -->
     <g transform="translate(126.33718 287.802132) scale(0.1 -0.1)">
      <defs>
       <path id="DejaVuSans-39" d="M 703 97 
L 703 672 
Q 941 559 1184 500 
Q 1428 441 1663 441 
Q 2288 441 2617 861 
Q 2947 1281 2994 2138 
Q 2813 1869 2534 1725 
Q 2256 1581 1919 1581 
Q 1219 1581 811 2004 
Q 403 2428 403 3163 
Q 403 3881 828 4315 
Q 1253 4750 1959 4750 
Q 2769 4750 3195 4129 
Q 3622 3509 3622 2328 
Q 3622 1225 3098 567 
Q 2575 -91 1691 -91 
Q 1453 -91 1209 -44 
Q 966 3 703 97 
z
M 1959 2075 
Q 2384 2075 2632 2365 
Q 2881 2656 2881 3163 
Q 2881 3666 2632 3958 
Q 2384 4250 1959 4250 
Q 1534 4250 1286 3958 
Q 1038 3666 1038 3163 
Q 1038 2656 1286 2365 
Q 1534 2075 1959 2075 
z
" transform="scale(0.015625)"/>
      </defs>
      <use xlink:href="#DejaVuSans-31"/>
      <use xlink:href="#DejaVuSans-2e" x="63.623047"/>
      <use xlink:href="#DejaVuSans-39" x="95.410156"/>
     </g>
    </g>
   </g>
   <g id="xtick_11">
    <g id="line2d_13">
     <path d="M 161.43007 273.931509 
L 157.70617 275.915779 
" style="fill: none; stroke: #000000; stroke-width: 0.8; stroke-linecap: square"/>
    </g>
    <g id="text_12">
     <!-- 2.0 -->
     <g transform="translate(141.880863 296.884463) scale(0.1 -0.1)">
      <use xlink:href="#DejaVuSans-32"/>
      <use xlink:href="#DejaVuSans-2e" x="63.623047"/>
      <use xlink:href="#DejaVuSans-30" x="95.410156"/>
     </g>
    </g>
   </g>
   <g id="xtick_12">
    <g id="line2d_14">
     <path d="M 177.281056 283.013405 
L 173.555212 285.030112 
" style="fill: none; stroke: #000000; stroke-width: 0.8; stroke-linecap: square"/>
    </g>
    <g id="text_13">
     <!-- 2.1 -->
     <g transform="translate(157.678034 306.11491) scale(0.1 -0.1)">
      <use xlink:href="#DejaVuSans-32"/>
      <use xlink:href="#DejaVuSans-2e" x="63.623047"/>
      <use xlink:href="#DejaVuSans-31" x="95.410156"/>
     </g>
    </g>
   </g>
   <g id="xtick_13">
    <g id="line2d_15">
     <path d="M 193.391994 292.244242 
L 189.664642 294.294187 
" style="fill: none; stroke: #000000; stroke-width: 0.8; stroke-linecap: square"/>
    </g>
    <g id="text_14">
     <!-- 2.2 -->
     <g transform="translate(173.734945 315.497125) scale(0.1 -0.1)">
      <use xlink:href="#DejaVuSans-32"/>
      <use xlink:href="#DejaVuSans-2e" x="63.623047"/>
      <use xlink:href="#DejaVuSans-32" x="95.410156"/>
     </g>
    </g>
   </g>
   <g id="xtick_14">
    <g id="line2d_16">
     <path d="M 209.76933 301.627712 
L 206.04093 303.711725 
" style="fill: none; stroke: #000000; stroke-width: 0.8; stroke-linecap: square"/>
    </g>
    <g id="text_15">
     <!-- 2.3 -->
     <g transform="translate(190.058055 325.034883) scale(0.1 -0.1)">
      <defs>
       <path id="DejaVuSans-33" d="M 2597 2516 
Q 3050 2419 3304 2112 
Q 3559 1806 3559 1356 
Q 3559 666 3084 287 
Q 2609 -91 1734 -91 
Q 1441 -91 1130 -33 
Q 819 25 488 141 
L 488 750 
Q 750 597 1062 519 
Q 1375 441 1716 441 
Q 2309 441 2620 675 
Q 2931 909 2931 1356 
Q 2931 1769 2642 2001 
Q 2353 2234 1838 2234 
L 1294 2234 
L 1294 2753 
L 1863 2753 
Q 2328 2753 2575 2939 
Q 2822 3125 2822 3475 
Q 2822 3834 2567 4026 
Q 2313 4219 1838 4219 
Q 1578 4219 1281 4162 
Q 984 4106 628 3988 
L 628 4550 
Q 988 4650 1302 4700 
Q 1616 4750 1894 4750 
Q 2613 4750 3031 4423 
Q 3450 4097 3450 3541 
Q 3450 3153 3228 2886 
Q 3006 2619 2597 2516 
z
" transform="scale(0.015625)"/>
      </defs>
      <use xlink:href="#DejaVuSans-32"/>
      <use xlink:href="#DejaVuSans-2e" x="63.623047"/>
      <use xlink:href="#DejaVuSans-33" x="95.410156"/>
     </g>
    </g>
   </g>
   <g id="xtick_15">
    <g id="line2d_17">
     <path d="M 226.419726 311.167634 
L 222.690764 313.286571 
" style="fill: none; stroke: #000000; stroke-width: 0.8; stroke-linecap: square"/>
    </g>
    <g id="text_16">
     <!-- 2.4 -->
     <g transform="translate(206.654038 334.732084) scale(0.1 -0.1)">
      <use xlink:href="#DejaVuSans-32"/>
      <use xlink:href="#DejaVuSans-2e" x="63.623047"/>
      <use xlink:href="#DejaVuSans-34" x="95.410156"/>
     </g>
    </g>
   </g>
   <g id="text_17">
    <!-- $J$ -->
    <g transform="translate(135.940591 309.240045) scale(0.1 -0.1)">
     <defs>
      <path id="DejaVuSans-Oblique-4a" d="M 1069 4666 
L 1703 4666 
L 856 325 
Q 691 -522 298 -901 
Q -94 -1281 -800 -1281 
L -1050 -1281 
L -947 -750 
L -750 -750 
Q -328 -750 -109 -509 
Q 109 -269 225 325 
L 1069 4666 
z
" transform="scale(0.015625)"/>
     </defs>
     <use xlink:href="#DejaVuSans-Oblique-4a" transform="translate(0 0.09375)"/>
    </g>
   </g>
  </g>
  <g id="axis3d_3">
   <g id="line2d_18">
    <path d="M 90.569654 234.653707 
L 83.984781 99.16524 
" style="fill: none; stroke: #000000; stroke-width: 0.8; stroke-linecap: square"/>
   </g>
   <g id="xtick_16">
    <g id="line2d_19">
     <path d="M 91.721376 232.305944 
L 88.009131 234.148962 
" style="fill: none; stroke: #000000; stroke-width: 0.8; stroke-linecap: square"/>
    </g>
    <g id="text_18">
     <!-- −0.4 -->
     <g transform="translate(58.677366 240.518019) scale(0.1 -0.1)">
      <use xlink:href="#DejaVuSans-2212"/>
      <use xlink:href="#DejaVuSans-30" x="83.789062"/>
      <use xlink:href="#DejaVuSans-2e" x="147.412109"/>
      <use xlink:href="#DejaVuSans-34" x="179.199219"/>
     </g>
    </g>
   </g>
   <g id="xtick_17">
    <g id="line2d_20">
     <path d="M 90.541239 207.808914 
L 86.796276 209.624818 
" style="fill: none; stroke: #000000; stroke-width: 0.8; stroke-linecap: square"/>
    </g>
    <g id="text_19">
     <!-- −0.2 -->
     <g transform="translate(57.324015 216.011956) scale(0.1 -0.1)">
      <use xlink:href="#DejaVuSans-2212"/>
      <use xlink:href="#DejaVuSans-30" x="83.789062"/>
      <use xlink:href="#DejaVuSans-2e" x="147.412109"/>
      <use xlink:href="#DejaVuSans-32" x="179.199219"/>
     </g>
    </g>
   </g>
   <g id="xtick_18">
    <g id="line2d_21">
     <path d="M 89.341469 182.90435 
L 85.56321 184.691977 
" style="fill: none; stroke: #000000; stroke-width: 0.8; stroke-linecap: square"/>
    </g>
    <g id="text_20">
     <!-- 0.0 -->
     <g transform="translate(60.137981 191.097972) scale(0.1 -0.1)">
      <use xlink:href="#DejaVuSans-30"/>
      <use xlink:href="#DejaVuSans-2e" x="63.623047"/>
      <use xlink:href="#DejaVuSans-30" x="95.410156"/>
     </g>
    </g>
   </g>
   <g id="xtick_19">
    <g id="line2d_22">
     <path d="M 88.121571 157.581997 
L 84.309422 159.340138 
" style="fill: none; stroke: #000000; stroke-width: 0.8; stroke-linecap: square"/>
    </g>
    <g id="text_21">
     <!-- 0.2 -->
     <g transform="translate(58.739009 165.765795) scale(0.1 -0.1)">
      <use xlink:href="#DejaVuSans-30"/>
      <use xlink:href="#DejaVuSans-2e" x="63.623047"/>
      <use xlink:href="#DejaVuSans-32" x="95.410156"/>
     </g>
    </g>
   </g>
   <g id="xtick_20">
    <g id="line2d_23">
     <path d="M 86.881037 131.831252 
L 83.034385 133.558647 
" style="fill: none; stroke: #000000; stroke-width: 0.8; stroke-linecap: square"/>
    </g>
    <g id="text_22">
     <!-- 0.4 -->
     <g transform="translate(57.316355 140.004808) scale(0.1 -0.1)">
      <use xlink:href="#DejaVuSans-30"/>
      <use xlink:href="#DejaVuSans-2e" x="63.623047"/>
      <use xlink:href="#DejaVuSans-34" x="95.410156"/>
     </g>
    </g>
   </g>
   <g id="xtick_21">
    <g id="line2d_24">
     <path d="M 85.619336 105.641152 
L 81.737554 107.336491 
" style="fill: none; stroke: #000000; stroke-width: 0.8; stroke-linecap: square"/>
    </g>
    <g id="text_23">
     <!-- 0.6 -->
     <g transform="translate(55.869414 113.80403) scale(0.1 -0.1)">
      <use xlink:href="#DejaVuSans-30"/>
      <use xlink:href="#DejaVuSans-2e" x="63.623047"/>
      <use xlink:href="#DejaVuSans-36" x="95.410156"/>
     </g>
    </g>
   </g>
   <g id="text_24">
    <!-- $C_T = T / \rho n^2 D^4$ -->
    <g transform="translate(38.611884 136.479427) rotate(-272.782442) scale(0.1 -0.1)">
     <defs>
      <path id="DejaVuSans-Oblique-43" d="M 4447 4306 
L 4319 3641 
Q 4019 3944 3683 4091 
Q 3347 4238 2956 4238 
Q 2422 4238 2017 3981 
Q 1613 3725 1319 3200 
Q 1131 2863 1032 2486 
Q 934 2109 934 1728 
Q 934 1091 1264 756 
Q 1594 422 2222 422 
Q 2656 422 3056 561 
Q 3456 700 3834 978 
L 3688 231 
Q 3316 72 2936 -9 
Q 2556 -91 2175 -91 
Q 1278 -91 773 396 
Q 269 884 269 1753 
Q 269 2309 461 2846 
Q 653 3384 1013 3828 
Q 1394 4300 1883 4525 
Q 2372 4750 3022 4750 
Q 3422 4750 3780 4639 
Q 4138 4528 4447 4306 
z
" transform="scale(0.015625)"/>
      <path id="DejaVuSans-Oblique-54" d="M 378 4666 
L 4325 4666 
L 4225 4134 
L 2559 4134 
L 1759 0 
L 1125 0 
L 1925 4134 
L 275 4134 
L 378 4666 
z
" transform="scale(0.015625)"/>
      <path id="DejaVuSans-3d" d="M 678 2906 
L 4684 2906 
L 4684 2381 
L 678 2381 
L 678 2906 
z
M 678 1631 
L 4684 1631 
L 4684 1100 
L 678 1100 
L 678 1631 
z
" transform="scale(0.015625)"/>
      <path id="DejaVuSans-2f" d="M 1625 4666 
L 2156 4666 
L 531 -594 
L 0 -594 
L 1625 4666 
z
" transform="scale(0.015625)"/>
      <path id="DejaVuSans-Oblique-3c1" d="M 1203 2875 
Q 1453 3194 1981 3475 
Q 2188 3584 2756 3584 
Q 3394 3584 3694 3078 
Q 3994 2572 3834 1747 
Q 3672 922 3175 415 
Q 2678 -91 2041 -91 
Q 1656 -91 1409 63 
Q 1163 213 1044 525 
L 681 -1331 
L 103 -1331 
L 697 1716 
Q 838 2438 1203 2875 
z
M 3238 1747 
Q 3359 2381 3169 2744 
Q 2978 3103 2522 3103 
Q 2066 3103 1734 2744 
Q 1403 2381 1281 1747 
Q 1156 1113 1347 750 
Q 1538 391 1994 391 
Q 2450 391 2781 750 
Q 3113 1113 3238 1747 
z
" transform="scale(0.015625)"/>
      <path id="DejaVuSans-Oblique-6e" d="M 3566 2113 
L 3156 0 
L 2578 0 
L 2988 2091 
Q 3016 2238 3031 2350 
Q 3047 2463 3047 2528 
Q 3047 2791 2881 2937 
Q 2716 3084 2419 3084 
Q 1956 3084 1622 2776 
Q 1288 2469 1184 1941 
L 800 0 
L 225 0 
L 903 3500 
L 1478 3500 
L 1363 2950 
Q 1603 3253 1940 3418 
Q 2278 3584 2650 3584 
Q 3113 3584 3367 3334 
Q 3622 3084 3622 2631 
Q 3622 2519 3608 2391 
Q 3594 2263 3566 2113 
z
" transform="scale(0.015625)"/>
      <path id="DejaVuSans-Oblique-44" d="M 1081 4666 
L 2438 4666 
Q 3519 4666 4070 4208 
Q 4622 3750 4622 2847 
Q 4622 2250 4412 1698 
Q 4203 1147 3834 769 
Q 3463 381 2891 190 
Q 2319 0 1538 0 
L 172 0 
L 1081 4666 
z
M 1613 4147 
L 909 519 
L 1734 519 
Q 2794 519 3375 1128 
Q 3956 1738 3956 2847 
Q 3956 3519 3581 3833 
Q 3206 4147 2406 4147 
L 1613 4147 
z
" transform="scale(0.015625)"/>
     </defs>
     <use xlink:href="#DejaVuSans-Oblique-43" transform="translate(0 0.765625)"/>
     <use xlink:href="#DejaVuSans-Oblique-54" transform="translate(69.824219 -15.640625) scale(0.7)"/>
     <use xlink:href="#DejaVuSans-3d" transform="translate(134.799805 0.765625)"/>
     <use xlink:href="#DejaVuSans-Oblique-54" transform="translate(238.071289 0.765625)"/>
     <use xlink:href="#DejaVuSans-2f" transform="translate(299.155273 0.765625)"/>
     <use xlink:href="#DejaVuSans-Oblique-3c1" transform="translate(332.84668 0.765625)"/>
     <use xlink:href="#DejaVuSans-Oblique-6e" transform="translate(396.323242 0.765625)"/>
     <use xlink:href="#DejaVuSans-32" transform="translate(464.352044 39.046875) scale(0.7)"/>
     <use xlink:href="#DejaVuSans-Oblique-44" transform="translate(511.622552 0.765625)"/>
     <use xlink:href="#DejaVuSans-34" transform="translate(595.641276 39.046875) scale(0.7)"/>
    </g>
   </g>
  </g>
  <g id="axes_1">
   <g id="Path3DCollection_1">
    <path d="M 263.514543 89.63677 
L 267.986679 85.164634 
M 263.514543 85.164634 
L 267.986679 89.63677 
" clip-path="url(#pb2c63ae658)" style="fill: #ff0000; fill-opacity: 0.3; stroke: #ff0000; stroke-opacity: 0.3; stroke-width: 1.5"/>
    <path d="M 198.401667 72.656485 
L 202.873803 68.184349 
M 198.401667 68.184349 
L 202.873803 72.656485 
" clip-path="url(#pb2c63ae658)" style="fill: #ff0000; fill-opacity: 0.371848; stroke: #ff0000; stroke-opacity: 0.371848; stroke-width: 1.5"/>
    <path d="M 295.104436 126.941786 
L 299.576572 122.46965 
M 295.104436 122.46965 
L 299.576572 126.941786 
" clip-path="url(#pb2c63ae658)" style="fill: #ff0000; fill-opacity: 0.380121; stroke: #ff0000; stroke-opacity: 0.380121; stroke-width: 1.5"/>
    <path d="M 186.805266 78.487573 
L 191.277402 74.015437 
M 186.805266 74.015437 
L 191.277402 78.487573 
" clip-path="url(#pb2c63ae658)" style="fill: #ff0000; fill-opacity: 0.42608; stroke: #ff0000; stroke-opacity: 0.42608; stroke-width: 1.5"/>
    <path d="M 327.062871 166.911265 
L 331.535007 162.439129 
M 327.062871 162.439129 
L 331.535007 166.911265 
" clip-path="url(#pb2c63ae658)" style="fill: #ff0000; fill-opacity: 0.455644; stroke: #ff0000; stroke-opacity: 0.455644; stroke-width: 1.5"/>
    <path d="M 359.460014 210.088768 
L 363.93215 205.616632 
M 359.460014 205.616632 
L 363.93215 210.088768 
" clip-path="url(#pb2c63ae658)" style="fill: #ff0000; fill-opacity: 0.523174; stroke: #ff0000; stroke-opacity: 0.523174; stroke-width: 1.5"/>
    <path d="M 239.781339 130.383387 
L 244.253475 125.911251 
M 239.781339 125.911251 
L 244.253475 130.383387 
" clip-path="url(#pb2c63ae658)" style="fill: #ff0000; fill-opacity: 0.528148; stroke: #ff0000; stroke-opacity: 0.528148; stroke-width: 1.5"/>
    <path d="M 277.432496 167.750591 
L 281.904632 163.278455 
M 277.432496 163.278455 
L 281.904632 167.750591 
" clip-path="url(#pb2c63ae658)" style="fill: #ff0000; fill-opacity: 0.578064; stroke: #ff0000; stroke-opacity: 0.578064; stroke-width: 1.5"/>
    <path d="M 151.152547 96.342269 
L 155.624683 91.870133 
M 151.152547 91.870133 
L 155.624683 96.342269 
" clip-path="url(#pb2c63ae658)" style="fill: #ff0000; fill-opacity: 0.593043; stroke: #ff0000; stroke-opacity: 0.593043; stroke-width: 1.5"/>
    <path d="M 293.618273 188.349923 
L 298.090409 183.877787 
M 293.618273 183.877787 
L 298.090409 188.349923 
" clip-path="url(#pb2c63ae658)" style="fill: #ff0000; fill-opacity: 0.616479; stroke: #ff0000; stroke-opacity: 0.616479; stroke-width: 1.5"/>
    <path d="M 216.372144 144.508927 
L 220.84428 140.036791 
M 216.372144 140.036791 
L 220.84428 144.508927 
" clip-path="url(#pb2c63ae658)" style="fill: #ff0000; fill-opacity: 0.63663; stroke: #ff0000; stroke-opacity: 0.63663; stroke-width: 1.5"/>
    <path d="M 210.494223 147.133406 
L 214.966359 142.66127 
M 210.494223 142.66127 
L 214.966359 147.133406 
" clip-path="url(#pb2c63ae658)" style="fill: #ff0000; fill-opacity: 0.66693; stroke: #ff0000; stroke-opacity: 0.66693; stroke-width: 1.5"/>
    <path d="M 320.741238 237.784466 
L 325.213374 233.31233 
M 320.741238 233.31233 
L 325.213374 237.784466 
" clip-path="url(#pb2c63ae658)" style="fill: #ff0000; fill-opacity: 0.707357; stroke: #ff0000; stroke-opacity: 0.707357; stroke-width: 1.5"/>
    <path d="M 148.595672 122.25182 
L 153.067808 117.779684 
M 148.595672 117.779684 
L 153.067808 122.25182 
" clip-path="url(#pb2c63ae658)" style="fill: #ff0000; fill-opacity: 0.730576; stroke: #ff0000; stroke-opacity: 0.730576; stroke-width: 1.5"/>
    <path d="M 297.890752 255.154077 
L 302.362888 250.681942 
M 297.890752 250.681942 
L 302.362888 255.154077 
" clip-path="url(#pb2c63ae658)" style="fill: #ff0000; fill-opacity: 0.812261; stroke: #ff0000; stroke-opacity: 0.812261; stroke-width: 1.5"/>
    <path d="M 101.788389 119.868461 
L 106.260525 115.396325 
M 101.788389 115.396325 
L 106.260525 119.868461 
" clip-path="url(#pb2c63ae658)" style="fill: #ff0000; fill-opacity: 0.82795; stroke: #ff0000; stroke-opacity: 0.82795; stroke-width: 1.5"/>
    <path d="M 219.161645 203.633933 
L 223.633781 199.161797 
M 219.161645 199.161797 
L 223.633781 203.633933 
" clip-path="url(#pb2c63ae658)" style="fill: #ff0000; fill-opacity: 0.857306; stroke: #ff0000; stroke-opacity: 0.857306; stroke-width: 1.5"/>
    <path d="M 268.564909 276.336637 
L 273.037044 271.864501 
M 268.564909 271.864501 
L 273.037044 276.336637 
" clip-path="url(#pb2c63ae658)" style="fill: #ff0000; fill-opacity: 0.951001; stroke: #ff0000; stroke-opacity: 0.951001; stroke-width: 1.5"/>
    <path d="M 223.552336 233.55621 
L 228.024472 229.084074 
M 223.552336 229.084074 
L 228.024472 233.55621 
" clip-path="url(#pb2c63ae658)" style="fill: #ff0000; fill-opacity: 0.952391; stroke: #ff0000; stroke-opacity: 0.952391; stroke-width: 1.5"/>
    <path d="M 149.78464 179.888193 
L 154.256776 175.416057 
M 149.78464 175.416057 
L 154.256776 179.888193 
" clip-path="url(#pb2c63ae658)" style="fill: #ff0000; fill-opacity: 0.961137; stroke: #ff0000; stroke-opacity: 0.961137; stroke-width: 1.5"/>
    <path d="M 166.038604 202.141235 
L 170.51074 197.669099 
M 166.038604 197.669099 
L 170.51074 202.141235 
" clip-path="url(#pb2c63ae658)" style="fill: #ff0000; stroke: #ff0000; stroke-width: 1.5"/>
   </g>
   <g id="Path3DCollection_2">
    <path d="M 232.519991 64.358404 
L 236.992127 59.886268 
M 232.519991 59.886268 
L 236.992127 64.358404 
" clip-path="url(#pb2c63ae658)" style="fill: #0000ff; fill-opacity: 0.3; stroke: #0000ff; stroke-opacity: 0.3; stroke-width: 1.5"/>
    <path d="M 232.519991 64.317005 
L 236.992127 59.844869 
M 232.519991 59.844869 
L 236.992127 64.317005 
" clip-path="url(#pb2c63ae658)" style="fill: #0000ff; fill-opacity: 0.300085; stroke: #0000ff; stroke-opacity: 0.300085; stroke-width: 1.5"/>
    <path d="M 232.464167 63.427501 
L 236.936303 58.955365 
M 232.464167 58.955365 
L 236.936303 63.427501 
" clip-path="url(#pb2c63ae658)" style="fill: #0000ff; fill-opacity: 0.302145; stroke: #0000ff; stroke-opacity: 0.302145; stroke-width: 1.5"/>
    <path d="M 263.493146 99.55266 
L 267.965282 95.080524 
M 263.493146 95.080524 
L 267.965282 99.55266 
" clip-path="url(#pb2c63ae658)" style="fill: #0000ff; fill-opacity: 0.354848; stroke: #0000ff; stroke-opacity: 0.354848; stroke-width: 1.5"/>
    <path d="M 204.111543 72.813282 
L 208.583679 68.341146 
M 204.111543 68.341146 
L 208.583679 72.813282 
" clip-path="url(#pb2c63ae658)" style="fill: #0000ff; fill-opacity: 0.399485; stroke: #0000ff; stroke-opacity: 0.399485; stroke-width: 1.5"/>
    <path d="M 294.868681 139.607238 
L 299.340817 135.135102 
M 294.868681 135.135102 
L 299.340817 139.607238 
" clip-path="url(#pb2c63ae658)" style="fill: #0000ff; fill-opacity: 0.401537; stroke: #0000ff; stroke-opacity: 0.401537; stroke-width: 1.5"/>
    <path d="M 198.379259 75.925055 
L 202.851395 71.452919 
M 198.379259 71.452919 
L 202.851395 75.925055 
" clip-path="url(#pb2c63ae658)" style="fill: #0000ff; fill-opacity: 0.416668; stroke: #0000ff; stroke-opacity: 0.416668; stroke-width: 1.5"/>
    <path d="M 326.649974 182.584961 
L 331.12211 178.112825 
M 326.649974 178.112825 
L 331.12211 182.584961 
" clip-path="url(#pb2c63ae658)" style="fill: #0000ff; fill-opacity: 0.443882; stroke: #0000ff; stroke-opacity: 0.443882; stroke-width: 1.5"/>
    <path d="M 358.726393 228.633442 
L 363.198529 224.161306 
M 358.726393 224.161306 
L 363.198529 228.633442 
" clip-path="url(#pb2c63ae658)" style="fill: #0000ff; fill-opacity: 0.481313; stroke: #0000ff; stroke-opacity: 0.481313; stroke-width: 1.5"/>
    <path d="M 174.967282 83.942635 
L 179.439418 79.470499 
M 174.967282 79.470499 
L 179.439418 83.942635 
" clip-path="url(#pb2c63ae658)" style="fill: #0000ff; fill-opacity: 0.496496; stroke: #0000ff; stroke-opacity: 0.496496; stroke-width: 1.5"/>
    <path d="M 218.158246 114.001278 
L 222.630382 109.529142 
M 218.158246 109.529142 
L 222.630382 114.001278 
" clip-path="url(#pb2c63ae658)" style="fill: #0000ff; fill-opacity: 0.518022; stroke: #0000ff; stroke-opacity: 0.518022; stroke-width: 1.5"/>
    <path d="M 239.694861 132.961189 
L 244.166997 128.489053 
M 239.694861 128.489053 
L 244.166997 132.961189 
" clip-path="url(#pb2c63ae658)" style="fill: #0000ff; fill-opacity: 0.520976; stroke: #0000ff; stroke-opacity: 0.520976; stroke-width: 1.5"/>
    <path d="M 282.990594 169.558784 
L 287.46273 165.086648 
M 282.990594 165.086648 
L 287.46273 169.558784 
" clip-path="url(#pb2c63ae658)" style="fill: #0000ff; fill-opacity: 0.529637; stroke: #0000ff; stroke-opacity: 0.529637; stroke-width: 1.5"/>
    <path d="M 151.000243 92.864587 
L 155.472379 88.392451 
M 151.000243 88.392451 
L 155.472379 92.864587 
" clip-path="url(#pb2c63ae658)" style="fill: #0000ff; fill-opacity: 0.576748; stroke: #0000ff; stroke-opacity: 0.576748; stroke-width: 1.5"/>
    <path d="M 145.028134 94.651601 
L 149.50027 90.179465 
M 145.028134 90.179465 
L 149.50027 94.651601 
" clip-path="url(#pb2c63ae658)" style="fill: #0000ff; fill-opacity: 0.597643; stroke: #0000ff; stroke-opacity: 0.597643; stroke-width: 1.5"/>
    <path d="M 144.871155 94.331542 
L 149.343291 89.859406 
M 144.871155 89.859406 
L 149.343291 94.331542 
" clip-path="url(#pb2c63ae658)" style="fill: #0000ff; fill-opacity: 0.598947; stroke: #0000ff; stroke-opacity: 0.598947; stroke-width: 1.5"/>
    <path d="M 138.89555 96.471154 
L 143.367686 91.999018 
M 138.89555 91.999018 
L 143.367686 96.471154 
" clip-path="url(#pb2c63ae658)" style="fill: #0000ff; fill-opacity: 0.61913; stroke: #0000ff; stroke-opacity: 0.61913; stroke-width: 1.5"/>
    <path d="M 320.561825 241.961995 
L 325.033961 237.489859 
M 320.561825 237.489859 
L 325.033961 241.961995 
" clip-path="url(#pb2c63ae658)" style="fill: #0000ff; fill-opacity: 0.634938; stroke: #0000ff; stroke-opacity: 0.634938; stroke-width: 1.5"/>
    <path d="M 126.476035 100.89844 
L 130.948171 96.426304 
M 126.476035 96.426304 
L 130.948171 100.89844 
" clip-path="url(#pb2c63ae658)" style="fill: #0000ff; fill-opacity: 0.661119; stroke: #0000ff; stroke-opacity: 0.661119; stroke-width: 1.5"/>
    <path d="M 248.716005 180.389871 
L 253.188141 175.917735 
M 248.716005 175.917735 
L 253.188141 180.389871 
" clip-path="url(#pb2c63ae658)" style="fill: #0000ff; fill-opacity: 0.66123; stroke: #0000ff; stroke-opacity: 0.66123; stroke-width: 1.5"/>
    <path d="M 170.429203 130.598454 
L 174.901339 126.126318 
M 170.429203 126.126318 
L 174.901339 130.598454 
" clip-path="url(#pb2c63ae658)" style="fill: #0000ff; fill-opacity: 0.686848; stroke: #0000ff; stroke-opacity: 0.686848; stroke-width: 1.5"/>
    <path d="M 237.044811 184.54999 
L 241.516947 180.077854 
M 237.044811 180.077854 
L 241.516947 184.54999 
" clip-path="url(#pb2c63ae658)" style="fill: #0000ff; fill-opacity: 0.704964; stroke: #0000ff; stroke-opacity: 0.704964; stroke-width: 1.5"/>
    <path d="M 164.40866 133.661593 
L 168.880796 129.189457 
M 164.40866 129.189457 
L 168.880796 133.661593 
" clip-path="url(#pb2c63ae658)" style="fill: #0000ff; fill-opacity: 0.706068; stroke: #0000ff; stroke-opacity: 0.706068; stroke-width: 1.5"/>
    <path d="M 297.953797 246.145479 
L 302.425933 241.673343 
M 297.953797 241.673343 
L 302.425933 246.145479 
" clip-path="url(#pb2c63ae658)" style="fill: #0000ff; fill-opacity: 0.734994; stroke: #0000ff; stroke-opacity: 0.734994; stroke-width: 1.5"/>
    <path d="M 101.39009 110.473394 
L 105.862226 106.001258 
M 101.39009 106.001258 
L 105.862226 110.473394 
" clip-path="url(#pb2c63ae658)" style="fill: #0000ff; fill-opacity: 0.744631; stroke: #0000ff; stroke-opacity: 0.744631; stroke-width: 1.5"/>
    <path d="M 101.323198 110.420978 
L 105.795334 105.948842 
M 101.323198 105.948842 
L 105.795334 110.420978 
" clip-path="url(#pb2c63ae658)" style="fill: #0000ff; fill-opacity: 0.745014; stroke: #0000ff; stroke-opacity: 0.745014; stroke-width: 1.5"/>
    <path d="M 101.321922 110.390878 
L 105.794058 105.918742 
M 101.321922 105.918742 
L 105.794058 110.390878 
" clip-path="url(#pb2c63ae658)" style="fill: #0000ff; fill-opacity: 0.745081; stroke: #0000ff; stroke-opacity: 0.745081; stroke-width: 1.5"/>
    <path d="M 235.606237 209.680773 
L 240.078373 205.208637 
M 235.606237 205.208637 
L 240.078373 209.680773 
" clip-path="url(#pb2c63ae658)" style="fill: #0000ff; fill-opacity: 0.805075; stroke: #0000ff; stroke-opacity: 0.805075; stroke-width: 1.5"/>
    <path d="M 268.790878 257.970873 
L 273.263014 253.498737 
M 268.790878 253.498737 
L 273.263014 257.970873 
" clip-path="url(#pb2c63ae658)" style="fill: #0000ff; fill-opacity: 0.848383; stroke: #0000ff; stroke-opacity: 0.848383; stroke-width: 1.5"/>
    <path d="M 149.342475 163.263721 
L 153.814611 158.791585 
M 149.342475 158.791585 
L 153.814611 163.263721 
" clip-path="url(#pb2c63ae658)" style="fill: #0000ff; fill-opacity: 0.849637; stroke: #0000ff; stroke-opacity: 0.849637; stroke-width: 1.5"/>
    <path d="M 182.184225 202.783446 
L 186.656361 198.31131 
M 182.184225 198.31131 
L 186.656361 202.783446 
" clip-path="url(#pb2c63ae658)" style="fill: #0000ff; fill-opacity: 0.913549; stroke: #0000ff; stroke-opacity: 0.913549; stroke-width: 1.5"/>
    <path d="M 232.604127 268.167111 
L 237.076263 263.694976 
M 232.604127 263.694976 
L 237.076263 268.167111 
" clip-path="url(#pb2c63ae658)" style="fill: #0000ff; stroke: #0000ff; stroke-width: 1.5"/>
   </g>
   <g id="legend_1">
    <g id="patch_6">
     <path d="M 305.4 48.15625 
L 385.4 48.15625 
Q 387.4 48.15625 387.4 46.15625 
L 387.4 17.8 
Q 387.4 15.8 385.4 15.8 
L 305.4 15.8 
Q 303.4 15.8 303.4 17.8 
L 303.4 46.15625 
Q 303.4 48.15625 305.4 48.15625 
z
" style="fill: #ffffff; opacity: 0.8; stroke: #cccccc; stroke-linejoin: miter"/>
    </g>
    <g id="Path3DCollection_3">
     <defs>
      <path id="m60467ab548" d="M -2.236068 2.236068 
L 2.236068 -2.236068 
M -2.236068 -2.236068 
L 2.236068 2.236068 
" style="stroke: #0000ff; stroke-width: 1.5"/>
     </defs>
     <g>
      <use xlink:href="#m60467ab548" x="317.4" y="24.773438" style="fill: #0000ff; stroke: #0000ff; stroke-width: 1.5"/>
     </g>
    </g>
    <g id="text_25">
     <!-- $\delta_e = -10$ -->
     <g transform="translate(335.4 27.398438) scale(0.1 -0.1)">
      <defs>
       <path id="DejaVuSans-Oblique-3b4" d="M 3472 4053 
Q 3197 4272 2450 4272 
Q 1659 4272 1588 3906 
Q 1531 3619 2328 3469 
Q 2953 3353 3253 3003 
Q 3616 2581 3447 1716 
Q 3284 888 2763 400 
Q 2238 -91 1488 -91 
Q 741 -91 406 400 
Q 72 888 241 1747 
Q 363 2384 891 2900 
Q 1097 3100 1353 3213 
Q 913 3459 1000 3900 
Q 1166 4750 2544 4750 
Q 3234 4750 3566 4531 
L 3472 4053 
z
M 1753 3056 
Q 1525 2966 1306 2738 
Q 969 2384 847 1747 
Q 722 1113 919 756 
Q 1119 397 1584 397 
Q 2044 397 2381 759 
Q 2722 1122 2838 1716 
Q 2956 2338 2731 2638 
Q 2491 2959 2103 2994 
Q 1906 3013 1753 3056 
z
" transform="scale(0.015625)"/>
       <path id="DejaVuSans-Oblique-65" d="M 3078 2063 
Q 3088 2113 3092 2166 
Q 3097 2219 3097 2272 
Q 3097 2653 2873 2875 
Q 2650 3097 2266 3097 
Q 1838 3097 1509 2826 
Q 1181 2556 1013 2059 
L 3078 2063 
z
M 3578 1613 
L 903 1613 
Q 884 1494 878 1425 
Q 872 1356 872 1306 
Q 872 872 1139 634 
Q 1406 397 1894 397 
Q 2269 397 2603 481 
Q 2938 566 3225 728 
L 3116 159 
Q 2806 34 2476 -28 
Q 2147 -91 1806 -91 
Q 1078 -91 686 257 
Q 294 606 294 1247 
Q 294 1794 489 2264 
Q 684 2734 1063 3103 
Q 1306 3334 1642 3459 
Q 1978 3584 2356 3584 
Q 2950 3584 3301 3228 
Q 3653 2872 3653 2272 
Q 3653 2128 3634 1964 
Q 3616 1800 3578 1613 
z
" transform="scale(0.015625)"/>
      </defs>
      <use xlink:href="#DejaVuSans-Oblique-3b4" transform="translate(0 0.78125)"/>
      <use xlink:href="#DejaVuSans-Oblique-65" transform="translate(61.181641 -15.625) scale(0.7)"/>
      <use xlink:href="#DejaVuSans-3d" transform="translate(126.464844 0.78125)"/>
      <use xlink:href="#DejaVuSans-2212" transform="translate(249.21875 0.78125)"/>
      <use xlink:href="#DejaVuSans-31" transform="translate(352.490234 0.78125)"/>
      <use xlink:href="#DejaVuSans-30" transform="translate(416.113281 0.78125)"/>
     </g>
    </g>
    <g id="Path3DCollection_4">
     <defs>
      <path id="m5f7f3bb743" d="M -2.236068 2.236068 
L 2.236068 -2.236068 
M -2.236068 -2.236068 
L 2.236068 2.236068 
" style="stroke: #ff0000; stroke-width: 1.5"/>
     </defs>
     <g>
      <use xlink:href="#m5f7f3bb743" x="317.4" y="39.451563" style="fill: #ff0000; stroke: #ff0000; stroke-width: 1.5"/>
     </g>
    </g>
    <g id="text_26">
     <!-- $\delta_e = 10$ -->
     <g transform="translate(335.4 42.076563) scale(0.1 -0.1)">
      <use xlink:href="#DejaVuSans-Oblique-3b4" transform="translate(0 0.78125)"/>
      <use xlink:href="#DejaVuSans-Oblique-65" transform="translate(61.181641 -15.625) scale(0.7)"/>
      <use xlink:href="#DejaVuSans-3d" transform="translate(126.464844 0.78125)"/>
      <use xlink:href="#DejaVuSans-31" transform="translate(229.736328 0.78125)"/>
      <use xlink:href="#DejaVuSans-30" transform="translate(293.359375 0.78125)"/>
     </g>
    </g>
   </g>
  </g>
 </g>
 <defs>
  <clipPath id="pb2c63ae658">
   <rect x="68.4" y="10.8" width="324" height="324"/>
  </clipPath>
 </defs>
</svg>
