<?xml version="1.0" encoding="utf-8" standalone="no"?>
<!DOCTYPE svg PUBLIC "-//W3C//DTD SVG 1.1//EN"
  "http://www.w3.org/Graphics/SVG/1.1/DTD/svg11.dtd">
<svg xmlns:xlink="http://www.w3.org/1999/xlink" width="460.8pt" height="345.6pt" viewBox="0 0 460.8 345.6" xmlns="http://www.w3.org/2000/svg" version="1.1">
 <metadata>
  <rdf:RDF xmlns:dc="http://purl.org/dc/elements/1.1/" xmlns:cc="http://creativecommons.org/ns#" xmlns:rdf="http://www.w3.org/1999/02/22-rdf-syntax-ns#">
   <cc:Work>
    <dc:type rdf:resource="http://purl.org/dc/dcmitype/StillImage"/>
    <dc:date>2025-03-31T17:23:30.773568</dc:date>
    <dc:format>image/svg+xml</dc:format>
    <dc:creator>
     <cc:Agent>
      <dc:title>Matplotlib v3.9.2, https://matplotlib.org/</dc:title>
     </cc:Agent>
    </dc:creator>
   </cc:Work>
  </rdf:RDF>
 </metadata>
 <defs>
  <style type="text/css">*{stroke-linejoin: round; stroke-linecap: butt}</style>
 </defs>
 <g id="figure_1">
  <g id="patch_1">
   <path d="M 0 345.6 
L 460.8 345.6 
L 460.8 0 
L 0 0 
z
" style="fill: #ffffff"/>
  </g>
  <g id="patch_2">
   <path d="M 68.4 334.8 
L 392.4 334.8 
L 392.4 10.8 
L 68.4 10.8 
z
" style="fill: #ffffff"/>
  </g>
  <g id="pane3d_1">
   <g id="patch_3">
    <path d="M 234.778378 162.940222 
L 378.987103 234.653707 
L 385.571976 99.16524 
L 234.778378 33.806163 
" style="fill: #f2f2f2; opacity: 0.5; stroke: #f2f2f2; stroke-linejoin: miter"/>
   </g>
  </g>
  <g id="pane3d_2">
   <g id="patch_4">
    <path d="M 234.778378 162.940222 
L 90.569654 234.653707 
L 83.984781 99.16524 
L 234.778378 33.806163 
" style="fill: #e6e6e6; opacity: 0.5; stroke: #e6e6e6; stroke-linejoin: miter"/>
   </g>
  </g>
  <g id="pane3d_3">
   <g id="patch_5">
    <path d="M 234.778378 162.940222 
L 90.569654 234.653707 
L 234.778378 317.380273 
L 378.987103 234.653707 
" style="fill: #ececec; opacity: 0.5; stroke: #ececec; stroke-linejoin: miter"/>
   </g>
  </g>
  <g id="grid3d_1">
   <g id="Line3DCollection_1">
    <path d="M 370.390271 239.585353 
L 226.14024 167.235878 
L 225.77154 37.710034 
" style="fill: none; stroke: #b0b0b0; stroke-width: 0.8"/>
    <path d="M 348.725428 252.013575 
L 204.394622 178.049746 
L 203.083274 47.5439 
" style="fill: none; stroke: #b0b0b0; stroke-width: 0.8"/>
    <path d="M 326.557247 264.730542 
L 182.178293 189.097693 
L 179.882455 57.599925 
" style="fill: none; stroke: #b0b0b0; stroke-width: 0.8"/>
    <path d="M 303.86798 277.746433 
L 159.475801 200.387404 
L 156.151517 67.88572 
" style="fill: none; stroke: #b0b0b0; stroke-width: 0.8"/>
    <path d="M 280.639037 291.071915 
L 136.271012 211.926902 
L 131.872081 78.409254 
" style="fill: none; stroke: #b0b0b0; stroke-width: 0.8"/>
    <path d="M 256.850929 304.718166 
L 112.54707 223.724569 
L 107.024908 89.178865 
" style="fill: none; stroke: #b0b0b0; stroke-width: 0.8"/>
   </g>
  </g>
  <g id="grid3d_2">
   <g id="Line3DCollection_2">
    <path d="M 243.891316 37.756021 
L 243.518254 167.286471 
L 99.267767 239.643454 
" style="fill: none; stroke: #b0b0b0; stroke-width: 0.8"/>
    <path d="M 259.465752 44.506511 
L 258.447681 174.710718 
L 114.138268 248.174044 
" style="fill: none; stroke: #b0b0b0; stroke-width: 0.8"/>
    <path d="M 275.280847 51.361312 
L 273.598217 182.244921 
L 129.245032 256.840168 
" style="fill: none; stroke: #b0b0b0; stroke-width: 0.8"/>
    <path d="M 291.342223 58.322858 
L 288.97481 189.891539 
L 144.593736 265.645083 
" style="fill: none; stroke: #b0b0b0; stroke-width: 0.8"/>
    <path d="M 307.655677 65.393664 
L 304.582556 197.653108 
L 160.190239 274.59215 
" style="fill: none; stroke: #b0b0b0; stroke-width: 0.8"/>
    <path d="M 324.22719 72.576322 
L 320.426709 205.532239 
L 176.04059 283.684839 
" style="fill: none; stroke: #b0b0b0; stroke-width: 0.8"/>
    <path d="M 341.062936 79.873507 
L 336.512681 213.531623 
L 192.151037 292.926735 
" style="fill: none; stroke: #b0b0b0; stroke-width: 0.8"/>
    <path d="M 358.169283 87.28798 
L 352.846049 221.654036 
L 208.528037 302.321541 
" style="fill: none; stroke: #b0b0b0; stroke-width: 0.8"/>
    <path d="M 375.55281 94.822592 
L 369.432566 229.902337 
L 225.178259 311.873082 
" style="fill: none; stroke: #b0b0b0; stroke-width: 0.8"/>
   </g>
  </g>
  <g id="grid3d_3">
   <g id="Line3DCollection_3">
    <path d="M 90.114256 225.283557 
L 234.778378 153.984271 
L 379.442501 225.283557 
" style="fill: none; stroke: #b0b0b0; stroke-width: 0.8"/>
    <path d="M 89.089338 204.195141 
L 234.778378 133.841811 
L 380.467419 204.195141 
" style="fill: none; stroke: #b0b0b0; stroke-width: 0.8"/>
    <path d="M 88.049794 182.805778 
L 234.778378 113.431349 
L 381.506963 182.805778 
" style="fill: none; stroke: #b0b0b0; stroke-width: 0.8"/>
    <path d="M 86.995308 161.10898 
L 234.778378 92.747499 
L 382.561449 161.10898 
" style="fill: none; stroke: #b0b0b0; stroke-width: 0.8"/>
    <path d="M 85.925556 139.09807 
L 234.778378 71.784733 
L 383.631201 139.09807 
" style="fill: none; stroke: #b0b0b0; stroke-width: 0.8"/>
    <path d="M 84.840204 116.766177 
L 234.778378 50.53737 
L 384.716553 116.766177 
" style="fill: none; stroke: #b0b0b0; stroke-width: 0.8"/>
   </g>
  </g>
  <g id="axis3d_1">
   <g id="line2d_1">
    <path d="M 378.987103 234.653707 
L 234.778378 317.380273 
" style="fill: none; stroke: #000000; stroke-width: 0.8; stroke-linecap: square"/>
   </g>
   <g id="xtick_1">
    <g id="line2d_2">
     <path d="M 369.154311 238.96545 
L 372.866446 240.827294 
" style="fill: none; stroke: #000000; stroke-width: 0.8; stroke-linecap: square"/>
    </g>
    <g id="text_1">
     <!-- −4 -->
     <g transform="translate(373.167549 261.350046) scale(0.1 -0.1)">
      <defs>
       <path id="DejaVuSans-2212" d="M 678 2272 
L 4684 2272 
L 4684 1741 
L 678 1741 
L 678 2272 
z
" transform="scale(0.015625)"/>
       <path id="DejaVuSans-34" d="M 2419 4116 
L 825 1625 
L 2419 1625 
L 2419 4116 
z
M 2253 4666 
L 3047 4666 
L 3047 1625 
L 3713 1625 
L 3713 1100 
L 3047 1100 
L 3047 0 
L 2419 0 
L 2419 1100 
L 313 1100 
L 313 1709 
L 2253 4666 
z
" transform="scale(0.015625)"/>
      </defs>
      <use xlink:href="#DejaVuSans-2212"/>
      <use xlink:href="#DejaVuSans-34" x="83.789062"/>
     </g>
    </g>
   </g>
   <g id="xtick_2">
    <g id="line2d_3">
     <path d="M 347.487835 251.379358 
L 351.204924 253.284219 
" style="fill: none; stroke: #000000; stroke-width: 0.8; stroke-linecap: square"/>
    </g>
    <g id="text_2">
     <!-- −2 -->
     <g transform="translate(351.577917 273.965086) scale(0.1 -0.1)">
      <defs>
       <path id="DejaVuSans-32" d="M 1228 531 
L 3431 531 
L 3431 0 
L 469 0 
L 469 531 
Q 828 903 1448 1529 
Q 2069 2156 2228 2338 
Q 2531 2678 2651 2914 
Q 2772 3150 2772 3378 
Q 2772 3750 2511 3984 
Q 2250 4219 1831 4219 
Q 1534 4219 1204 4116 
Q 875 4013 500 3803 
L 500 4441 
Q 881 4594 1212 4672 
Q 1544 4750 1819 4750 
Q 2544 4750 2975 4387 
Q 3406 4025 3406 3419 
Q 3406 3131 3298 2873 
Q 3191 2616 2906 2266 
Q 2828 2175 2409 1742 
Q 1991 1309 1228 531 
z
" transform="scale(0.015625)"/>
      </defs>
      <use xlink:href="#DejaVuSans-2212"/>
      <use xlink:href="#DejaVuSans-32" x="83.789062"/>
     </g>
    </g>
   </g>
   <g id="xtick_3">
    <g id="line2d_4">
     <path d="M 325.318278 264.081508 
L 329.03955 266.030895 
" style="fill: none; stroke: #000000; stroke-width: 0.8; stroke-linecap: square"/>
    </g>
    <g id="text_3">
     <!-- 0 -->
     <g transform="translate(333.675564 286.87378) scale(0.1 -0.1)">
      <defs>
       <path id="DejaVuSans-30" d="M 2034 4250 
Q 1547 4250 1301 3770 
Q 1056 3291 1056 2328 
Q 1056 1369 1301 889 
Q 1547 409 2034 409 
Q 2525 409 2770 889 
Q 3016 1369 3016 2328 
Q 3016 3291 2770 3770 
Q 2525 4250 2034 4250 
z
M 2034 4750 
Q 2819 4750 3233 4129 
Q 3647 3509 3647 2328 
Q 3647 1150 3233 529 
Q 2819 -91 2034 -91 
Q 1250 -91 836 529 
Q 422 1150 422 2328 
Q 422 3509 836 4129 
Q 1250 4750 2034 4750 
z
" transform="scale(0.015625)"/>
      </defs>
      <use xlink:href="#DejaVuSans-30"/>
     </g>
    </g>
   </g>
   <g id="xtick_4">
    <g id="line2d_5">
     <path d="M 302.627911 277.082058 
L 306.352538 279.077551 
" style="fill: none; stroke: #000000; stroke-width: 0.8; stroke-linecap: square"/>
    </g>
    <g id="text_4">
     <!-- 2 -->
     <g transform="translate(311.063049 300.086501) scale(0.1 -0.1)">
      <use xlink:href="#DejaVuSans-32"/>
     </g>
    </g>
   </g>
   <g id="xtick_5">
    <g id="line2d_6">
     <path d="M 279.398166 290.391648 
L 283.125253 292.434901 
" style="fill: none; stroke: #000000; stroke-width: 0.8; stroke-linecap: square"/>
    </g>
    <g id="text_5">
     <!-- 4 -->
     <g transform="translate(287.911613 313.614119) scale(0.1 -0.1)">
      <use xlink:href="#DejaVuSans-34"/>
     </g>
    </g>
   </g>
   <g id="xtick_6">
    <g id="line2d_7">
     <path d="M 255.609577 304.021431 
L 259.338165 306.11418 
" style="fill: none; stroke: #000000; stroke-width: 0.8; stroke-linecap: square"/>
    </g>
    <g id="text_6">
     <!-- 6 -->
     <g transform="translate(264.20176 327.468026) scale(0.1 -0.1)">
      <defs>
       <path id="DejaVuSans-36" d="M 2113 2584 
Q 1688 2584 1439 2293 
Q 1191 2003 1191 1497 
Q 1191 994 1439 701 
Q 1688 409 2113 409 
Q 2538 409 2786 701 
Q 3034 994 3034 1497 
Q 3034 2003 2786 2293 
Q 2538 2584 2113 2584 
z
M 3366 4563 
L 3366 3988 
Q 3128 4100 2886 4159 
Q 2644 4219 2406 4219 
Q 1781 4219 1451 3797 
Q 1122 3375 1075 2522 
Q 1259 2794 1537 2939 
Q 1816 3084 2150 3084 
Q 2853 3084 3261 2657 
Q 3669 2231 3669 1497 
Q 3669 778 3244 343 
Q 2819 -91 2113 -91 
Q 1303 -91 875 529 
Q 447 1150 447 2328 
Q 447 3434 972 4092 
Q 1497 4750 2381 4750 
Q 2619 4750 2861 4703 
Q 3103 4656 3366 4563 
z
" transform="scale(0.015625)"/>
      </defs>
      <use xlink:href="#DejaVuSans-36"/>
     </g>
    </g>
   </g>
   <g id="text_7">
    <!-- $\alpha$ -->
    <g transform="translate(330.626772 310.536557) rotate(-29.841106) scale(0.1 -0.1)">
     <defs>
      <path id="DejaVuSans-Oblique-3b1" d="M 2619 1628 
L 2622 2350 
Q 2625 3088 2069 3091 
Q 1653 3094 1394 2747 
Q 1069 2319 959 1747 
Q 825 1059 994 731 
Q 1169 397 1547 397 
Q 1966 397 2319 1063 
L 2619 1628 
z
M 2166 3578 
Q 3141 3594 3128 2584 
Q 3128 2584 3616 3500 
L 4128 3500 
L 3119 1603 
L 3109 919 
Q 3109 766 3194 638 
Q 3291 488 3391 488 
L 3669 488 
L 3575 0 
L 3228 0 
Q 2934 0 2722 263 
Q 2622 394 2619 669 
Q 2416 334 2066 50 
Q 1900 -81 1453 -78 
Q 722 -72 456 397 
Q 184 884 353 1747 
Q 534 2675 1009 3097 
Q 1544 3569 2166 3578 
z
" transform="scale(0.015625)"/>
     </defs>
     <use xlink:href="#DejaVuSans-Oblique-3b1" transform="translate(0 0.84375)"/>
    </g>
   </g>
  </g>
  <g id="axis3d_2">
   <g id="line2d_8">
    <path d="M 90.569654 234.653707 
L 234.778378 317.380273 
" style="fill: none; stroke: #000000; stroke-width: 0.8; stroke-linecap: square"/>
   </g>
   <g id="xtick_7">
    <g id="line2d_9">
     <path d="M 100.503736 239.023484 
L 96.791575 240.885528 
" style="fill: none; stroke: #000000; stroke-width: 0.8; stroke-linecap: square"/>
    </g>
    <g id="text_8">
     <!-- 1.6 -->
     <g transform="translate(81.167479 261.409019) scale(0.1 -0.1)">
      <defs>
       <path id="DejaVuSans-31" d="M 794 531 
L 1825 531 
L 1825 4091 
L 703 3866 
L 703 4441 
L 1819 4666 
L 2450 4666 
L 2450 531 
L 3481 531 
L 3481 0 
L 794 0 
L 794 531 
z
" transform="scale(0.015625)"/>
       <path id="DejaVuSans-2e" d="M 684 794 
L 1344 794 
L 1344 0 
L 684 0 
L 684 794 
z
" transform="scale(0.015625)"/>
      </defs>
      <use xlink:href="#DejaVuSans-31"/>
      <use xlink:href="#DejaVuSans-2e" x="63.623047"/>
      <use xlink:href="#DejaVuSans-36" x="95.410156"/>
     </g>
    </g>
   </g>
   <g id="xtick_8">
    <g id="line2d_10">
     <path d="M 115.375387 247.544266 
L 111.659737 249.435785 
" style="fill: none; stroke: #000000; stroke-width: 0.8; stroke-linecap: square"/>
    </g>
    <g id="text_9">
     <!-- 1.7 -->
     <g transform="translate(95.986258 270.067781) scale(0.1 -0.1)">
      <defs>
       <path id="DejaVuSans-37" d="M 525 4666 
L 3525 4666 
L 3525 4397 
L 1831 0 
L 1172 0 
L 2766 4134 
L 525 4134 
L 525 4666 
z
" transform="scale(0.015625)"/>
      </defs>
      <use xlink:href="#DejaVuSans-31"/>
      <use xlink:href="#DejaVuSans-2e" x="63.623047"/>
      <use xlink:href="#DejaVuSans-37" x="95.410156"/>
     </g>
    </g>
   </g>
   <g id="xtick_9">
    <g id="line2d_11">
     <path d="M 130.483183 256.200347 
L 126.7644 258.122047 
" style="fill: none; stroke: #000000; stroke-width: 0.8; stroke-linecap: square"/>
    </g>
    <g id="text_10">
     <!-- 1.8 -->
     <g transform="translate(111.040932 278.86438) scale(0.1 -0.1)">
      <defs>
       <path id="DejaVuSans-38" d="M 2034 2216 
Q 1584 2216 1326 1975 
Q 1069 1734 1069 1313 
Q 1069 891 1326 650 
Q 1584 409 2034 409 
Q 2484 409 2743 651 
Q 3003 894 3003 1313 
Q 3003 1734 2745 1975 
Q 2488 2216 2034 2216 
z
M 1403 2484 
Q 997 2584 770 2862 
Q 544 3141 544 3541 
Q 544 4100 942 4425 
Q 1341 4750 2034 4750 
Q 2731 4750 3128 4425 
Q 3525 4100 3525 3541 
Q 3525 3141 3298 2862 
Q 3072 2584 2669 2484 
Q 3125 2378 3379 2068 
Q 3634 1759 3634 1313 
Q 3634 634 3220 271 
Q 2806 -91 2034 -91 
Q 1263 -91 848 271 
Q 434 634 434 1313 
Q 434 1759 690 2068 
Q 947 2378 1403 2484 
z
M 1172 3481 
Q 1172 3119 1398 2916 
Q 1625 2713 2034 2713 
Q 2441 2713 2670 2916 
Q 2900 3119 2900 3481 
Q 2900 3844 2670 4047 
Q 2441 4250 2034 4250 
Q 1625 4250 1398 4047 
Q 1172 3844 1172 3481 
z
" transform="scale(0.015625)"/>
      </defs>
      <use xlink:href="#DejaVuSans-31"/>
      <use xlink:href="#DejaVuSans-2e" x="63.623047"/>
      <use xlink:href="#DejaVuSans-38" x="95.410156"/>
     </g>
    </g>
   </g>
   <g id="xtick_10">
    <g id="line2d_12">
     <path d="M 145.832793 264.994977 
L 142.111254 266.947586 
" style="fill: none; stroke: #000000; stroke-width: 0.8; stroke-linecap: square"/>
    </g>
    <g id="text_11">
     <!-- 1.9 -->
     <g transform="translate(126.33718 287.802132) scale(0.1 -0.1)">
      <defs>
       <path id="DejaVuSans-39" d="M 703 97 
L 703 672 
Q 941 559 1184 500 
Q 1428 441 1663 441 
Q 2288 441 2617 861 
Q 2947 1281 2994 2138 
Q 2813 1869 2534 1725 
Q 2256 1581 1919 1581 
Q 1219 1581 811 2004 
Q 403 2428 403 3163 
Q 403 3881 828 4315 
Q 1253 4750 1959 4750 
Q 2769 4750 3195 4129 
Q 3622 3509 3622 2328 
Q 3622 1225 3098 567 
Q 2575 -91 1691 -91 
Q 1453 -91 1209 -44 
Q 966 3 703 97 
z
M 1959 2075 
Q 2384 2075 2632 2365 
Q 2881 2656 2881 3163 
Q 2881 3666 2632 3958 
Q 2384 4250 1959 4250 
Q 1534 4250 1286 3958 
Q 1038 3666 1038 3163 
Q 1038 2656 1286 2365 
Q 1534 2075 1959 2075 
z
" transform="scale(0.015625)"/>
      </defs>
      <use xlink:href="#DejaVuSans-31"/>
      <use xlink:href="#DejaVuSans-2e" x="63.623047"/>
      <use xlink:href="#DejaVuSans-39" x="95.410156"/>
     </g>
    </g>
   </g>
   <g id="xtick_11">
    <g id="line2d_13">
     <path d="M 161.43007 273.931509 
L 157.70617 275.915779 
" style="fill: none; stroke: #000000; stroke-width: 0.8; stroke-linecap: square"/>
    </g>
    <g id="text_12">
     <!-- 2.0 -->
     <g transform="translate(141.880863 296.884463) scale(0.1 -0.1)">
      <use xlink:href="#DejaVuSans-32"/>
      <use xlink:href="#DejaVuSans-2e" x="63.623047"/>
      <use xlink:href="#DejaVuSans-30" x="95.410156"/>
     </g>
    </g>
   </g>
   <g id="xtick_12">
    <g id="line2d_14">
     <path d="M 177.281056 283.013405 
L 173.555212 285.030112 
" style="fill: none; stroke: #000000; stroke-width: 0.8; stroke-linecap: square"/>
    </g>
    <g id="text_13">
     <!-- 2.1 -->
     <g transform="translate(157.678034 306.11491) scale(0.1 -0.1)">
      <use xlink:href="#DejaVuSans-32"/>
      <use xlink:href="#DejaVuSans-2e" x="63.623047"/>
      <use xlink:href="#DejaVuSans-31" x="95.410156"/>
     </g>
    </g>
   </g>
   <g id="xtick_13">
    <g id="line2d_15">
     <path d="M 193.391994 292.244242 
L 189.664642 294.294187 
" style="fill: none; stroke: #000000; stroke-width: 0.8; stroke-linecap: square"/>
    </g>
    <g id="text_14">
     <!-- 2.2 -->
     <g transform="translate(173.734945 315.497125) scale(0.1 -0.1)">
      <use xlink:href="#DejaVuSans-32"/>
      <use xlink:href="#DejaVuSans-2e" x="63.623047"/>
      <use xlink:href="#DejaVuSans-32" x="95.410156"/>
     </g>
    </g>
   </g>
   <g id="xtick_14">
    <g id="line2d_16">
     <path d="M 209.76933 301.627712 
L 206.04093 303.711725 
" style="fill: none; stroke: #000000; stroke-width: 0.8; stroke-linecap: square"/>
    </g>
    <g id="text_15">
     <!-- 2.3 -->
     <g transform="translate(190.058055 325.034883) scale(0.1 -0.1)">
      <defs>
       <path id="DejaVuSans-33" d="M 2597 2516 
Q 3050 2419 3304 2112 
Q 3559 1806 3559 1356 
Q 3559 666 3084 287 
Q 2609 -91 1734 -91 
Q 1441 -91 1130 -33 
Q 819 25 488 141 
L 488 750 
Q 750 597 1062 519 
Q 1375 441 1716 441 
Q 2309 441 2620 675 
Q 2931 909 2931 1356 
Q 2931 1769 2642 2001 
Q 2353 2234 1838 2234 
L 1294 2234 
L 1294 2753 
L 1863 2753 
Q 2328 2753 2575 2939 
Q 2822 3125 2822 3475 
Q 2822 3834 2567 4026 
Q 2313 4219 1838 4219 
Q 1578 4219 1281 4162 
Q 984 4106 628 3988 
L 628 4550 
Q 988 4650 1302 4700 
Q 1616 4750 1894 4750 
Q 2613 4750 3031 4423 
Q 3450 4097 3450 3541 
Q 3450 3153 3228 2886 
Q 3006 2619 2597 2516 
z
" transform="scale(0.015625)"/>
      </defs>
      <use xlink:href="#DejaVuSans-32"/>
      <use xlink:href="#DejaVuSans-2e" x="63.623047"/>
      <use xlink:href="#DejaVuSans-33" x="95.410156"/>
     </g>
    </g>
   </g>
   <g id="xtick_15">
    <g id="line2d_17">
     <path d="M 226.419726 311.167634 
L 222.690764 313.286571 
" style="fill: none; stroke: #000000; stroke-width: 0.8; stroke-linecap: square"/>
    </g>
    <g id="text_16">
     <!-- 2.4 -->
     <g transform="translate(206.654038 334.732084) scale(0.1 -0.1)">
      <use xlink:href="#DejaVuSans-32"/>
      <use xlink:href="#DejaVuSans-2e" x="63.623047"/>
      <use xlink:href="#DejaVuSans-34" x="95.410156"/>
     </g>
    </g>
   </g>
   <g id="text_17">
    <!-- $J$ -->
    <g transform="translate(135.940591 309.240045) scale(0.1 -0.1)">
     <defs>
      <path id="DejaVuSans-Oblique-4a" d="M 1069 4666 
L 1703 4666 
L 856 325 
Q 691 -522 298 -901 
Q -94 -1281 -800 -1281 
L -1050 -1281 
L -947 -750 
L -750 -750 
Q -328 -750 -109 -509 
Q 109 -269 225 325 
L 1069 4666 
z
" transform="scale(0.015625)"/>
     </defs>
     <use xlink:href="#DejaVuSans-Oblique-4a" transform="translate(0 0.09375)"/>
    </g>
   </g>
  </g>
  <g id="axis3d_3">
   <g id="line2d_18">
    <path d="M 90.569654 234.653707 
L 83.984781 99.16524 
" style="fill: none; stroke: #000000; stroke-width: 0.8; stroke-linecap: square"/>
   </g>
   <g id="xtick_16">
    <g id="line2d_19">
     <path d="M 91.353648 224.67271 
L 87.631211 226.507353 
" style="fill: none; stroke: #000000; stroke-width: 0.8; stroke-linecap: square"/>
    </g>
    <g id="text_18">
     <!-- −0.6 -->
     <g transform="translate(58.255665 232.881995) scale(0.1 -0.1)">
      <use xlink:href="#DejaVuSans-2212"/>
      <use xlink:href="#DejaVuSans-30" x="83.789062"/>
      <use xlink:href="#DejaVuSans-2e" x="147.412109"/>
      <use xlink:href="#DejaVuSans-36" x="179.199219"/>
     </g>
    </g>
   </g>
   <g id="xtick_17">
    <g id="line2d_20">
     <path d="M 90.338096 203.592115 
L 86.587498 205.403281 
" style="fill: none; stroke: #000000; stroke-width: 0.8; stroke-linecap: square"/>
    </g>
    <g id="text_19">
     <!-- −0.4 -->
     <g transform="translate(57.091055 211.793579) scale(0.1 -0.1)">
      <use xlink:href="#DejaVuSans-2212"/>
      <use xlink:href="#DejaVuSans-30" x="83.789062"/>
      <use xlink:href="#DejaVuSans-2e" x="147.412109"/>
      <use xlink:href="#DejaVuSans-34" x="179.199219"/>
     </g>
    </g>
   </g>
   <g id="xtick_18">
    <g id="line2d_21">
     <path d="M 89.30806 182.21086 
L 85.528874 183.997689 
" style="fill: none; stroke: #000000; stroke-width: 0.8; stroke-linecap: square"/>
    </g>
    <g id="text_20">
     <!-- −0.2 -->
     <g transform="translate(55.909825 190.404216) scale(0.1 -0.1)">
      <use xlink:href="#DejaVuSans-2212"/>
      <use xlink:href="#DejaVuSans-30" x="83.789062"/>
      <use xlink:href="#DejaVuSans-2e" x="147.412109"/>
      <use xlink:href="#DejaVuSans-32" x="179.199219"/>
     </g>
    </g>
   </g>
   <g id="xtick_19">
    <g id="line2d_22">
     <path d="M 88.263228 160.522466 
L 84.455015 162.284068 
" style="fill: none; stroke: #000000; stroke-width: 0.8; stroke-linecap: square"/>
    </g>
    <g id="text_21">
     <!-- 0.0 -->
     <g transform="translate(58.90146 168.707418) scale(0.1 -0.1)">
      <use xlink:href="#DejaVuSans-30"/>
      <use xlink:href="#DejaVuSans-2e" x="63.623047"/>
      <use xlink:href="#DejaVuSans-30" x="95.410156"/>
     </g>
    </g>
   </g>
   <g id="xtick_20">
    <g id="line2d_23">
     <path d="M 87.203278 138.520266 
L 83.365592 140.255722 
" style="fill: none; stroke: #000000; stroke-width: 0.8; stroke-linecap: square"/>
    </g>
    <g id="text_22">
     <!-- 0.2 -->
     <g transform="translate(57.685905 146.696508) scale(0.1 -0.1)">
      <use xlink:href="#DejaVuSans-30"/>
      <use xlink:href="#DejaVuSans-2e" x="63.623047"/>
      <use xlink:href="#DejaVuSans-32" x="95.410156"/>
     </g>
    </g>
   </g>
   <g id="xtick_21">
    <g id="line2d_24">
     <path d="M 86.12788 116.197401 
L 82.260263 117.905756 
" style="fill: none; stroke: #000000; stroke-width: 0.8; stroke-linecap: square"/>
    </g>
    <g id="text_23">
     <!-- 0.4 -->
     <g transform="translate(56.452623 124.364615) scale(0.1 -0.1)">
      <use xlink:href="#DejaVuSans-30"/>
      <use xlink:href="#DejaVuSans-2e" x="63.623047"/>
      <use xlink:href="#DejaVuSans-34" x="95.410156"/>
     </g>
    </g>
   </g>
   <g id="text_24">
    <!-- $C_M$ -->
    <g transform="translate(40.5895 161.913412) rotate(-272.782442) scale(0.1 -0.1)">
     <defs>
      <path id="DejaVuSans-Oblique-43" d="M 4447 4306 
L 4319 3641 
Q 4019 3944 3683 4091 
Q 3347 4238 2956 4238 
Q 2422 4238 2017 3981 
Q 1613 3725 1319 3200 
Q 1131 2863 1032 2486 
Q 934 2109 934 1728 
Q 934 1091 1264 756 
Q 1594 422 2222 422 
Q 2656 422 3056 561 
Q 3456 700 3834 978 
L 3688 231 
Q 3316 72 2936 -9 
Q 2556 -91 2175 -91 
Q 1278 -91 773 396 
Q 269 884 269 1753 
Q 269 2309 461 2846 
Q 653 3384 1013 3828 
Q 1394 4300 1883 4525 
Q 2372 4750 3022 4750 
Q 3422 4750 3780 4639 
Q 4138 4528 4447 4306 
z
" transform="scale(0.015625)"/>
      <path id="DejaVuSans-Oblique-4d" d="M 1081 4666 
L 2028 4666 
L 2572 1522 
L 4378 4666 
L 5350 4666 
L 4441 0 
L 3828 0 
L 4622 4091 
L 2791 897 
L 2175 897 
L 1581 4103 
L 788 0 
L 172 0 
L 1081 4666 
z
" transform="scale(0.015625)"/>
     </defs>
     <use xlink:href="#DejaVuSans-Oblique-43" transform="translate(0 0.78125)"/>
     <use xlink:href="#DejaVuSans-Oblique-4d" transform="translate(69.824219 -15.625) scale(0.7)"/>
    </g>
   </g>
  </g>
  <g id="axes_1">
   <g id="Path3DCollection_1">
    <path d="M 199.244965 150.005103 
L 203.717101 145.532967 
M 199.244965 145.532967 
L 203.717101 150.005103 
" clip-path="url(#pa1a7048619)" style="fill: #ff0000; fill-opacity: 0.3; stroke: #ff0000; stroke-opacity: 0.3; stroke-width: 1.5"/>
    <path d="M 263.067153 134.624563 
L 267.539289 130.152427 
M 263.067153 130.152427 
L 267.539289 134.624563 
" clip-path="url(#pa1a7048619)" style="fill: #ff0000; fill-opacity: 0.32484; stroke: #ff0000; stroke-opacity: 0.32484; stroke-width: 1.5"/>
    <path d="M 187.988649 159.358113 
L 192.460785 154.885977 
M 187.988649 154.885977 
L 192.460785 159.358113 
" clip-path="url(#pa1a7048619)" style="fill: #ff0000; fill-opacity: 0.332215; stroke: #ff0000; stroke-opacity: 0.332215; stroke-width: 1.5"/>
    <path d="M 153.565116 188.462531 
L 158.037252 183.990395 
M 153.565116 183.990395 
L 158.037252 188.462531 
" clip-path="url(#pa1a7048619)" style="fill: #ff0000; fill-opacity: 0.429505; stroke: #ff0000; stroke-opacity: 0.429505; stroke-width: 1.5"/>
    <path d="M 294.665071 148.552149 
L 299.137207 144.080013 
M 294.665071 144.080013 
L 299.137207 148.552149 
" clip-path="url(#pa1a7048619)" style="fill: #ff0000; fill-opacity: 0.444908; stroke: #ff0000; stroke-opacity: 0.444908; stroke-width: 1.5"/>
    <path d="M 239.677628 174.419212 
L 244.149764 169.947076 
M 239.677628 169.947076 
L 244.149764 174.419212 
" clip-path="url(#pa1a7048619)" style="fill: #ff0000; fill-opacity: 0.501996; stroke: #ff0000; stroke-opacity: 0.501996; stroke-width: 1.5"/>
    <path d="M 150.971309 209.465796 
L 155.443445 204.99366 
M 150.971309 204.99366 
L 155.443445 209.465796 
" clip-path="url(#pa1a7048619)" style="fill: #ff0000; fill-opacity: 0.54499; stroke: #ff0000; stroke-opacity: 0.54499; stroke-width: 1.5"/>
    <path d="M 106.397627 228.591 
L 110.869763 224.118864 
M 106.397627 224.118864 
L 110.869763 228.591 
" clip-path="url(#pa1a7048619)" style="fill: #ff0000; fill-opacity: 0.562203; stroke: #ff0000; stroke-opacity: 0.562203; stroke-width: 1.5"/>
    <path d="M 327.186211 162.948043 
L 331.658347 158.475907 
M 327.186211 158.475907 
L 331.658347 162.948043 
" clip-path="url(#pa1a7048619)" style="fill: #ff0000; fill-opacity: 0.569456; stroke: #ff0000; stroke-opacity: 0.569456; stroke-width: 1.5"/>
    <path d="M 216.633018 193.869208 
L 221.105154 189.397072 
M 216.633018 189.397072 
L 221.105154 193.869208 
" clip-path="url(#pa1a7048619)" style="fill: #ff0000; fill-opacity: 0.571271; stroke: #ff0000; stroke-opacity: 0.571271; stroke-width: 1.5"/>
    <path d="M 210.861964 198.120509 
L 215.3341 193.648373 
M 210.861964 193.648373 
L 215.3341 198.120509 
" clip-path="url(#pa1a7048619)" style="fill: #ff0000; fill-opacity: 0.59023; stroke: #ff0000; stroke-opacity: 0.59023; stroke-width: 1.5"/>
    <path d="M 277.186877 184.36402 
L 281.659013 179.891884 
M 277.186877 179.891884 
L 281.659013 184.36402 
" clip-path="url(#pa1a7048619)" style="fill: #ff0000; fill-opacity: 0.611347; stroke: #ff0000; stroke-opacity: 0.611347; stroke-width: 1.5"/>
    <path d="M 293.53987 192.221217 
L 298.012006 187.749081 
M 293.53987 187.749081 
L 298.012006 192.221217 
" clip-path="url(#pa1a7048619)" style="fill: #ff0000; fill-opacity: 0.674893; stroke: #ff0000; stroke-opacity: 0.674893; stroke-width: 1.5"/>
    <path d="M 360.816226 178.095632 
L 365.288362 173.623496 
M 360.816226 173.623496 
L 365.288362 178.095632 
" clip-path="url(#pa1a7048619)" style="fill: #ff0000; fill-opacity: 0.69704; stroke: #ff0000; stroke-opacity: 0.69704; stroke-width: 1.5"/>
    <path d="M 151.700163 249.886825 
L 156.172299 245.414689 
M 151.700163 245.414689 
L 156.172299 249.886825 
" clip-path="url(#pa1a7048619)" style="fill: #ff0000; fill-opacity: 0.76331; stroke: #ff0000; stroke-opacity: 0.76331; stroke-width: 1.5"/>
    <path d="M 219.290244 232.470869 
L 223.76238 227.998733 
M 219.290244 227.998733 
L 223.76238 232.470869 
" clip-path="url(#pa1a7048619)" style="fill: #ff0000; fill-opacity: 0.794992; stroke: #ff0000; stroke-opacity: 0.794992; stroke-width: 1.5"/>
    <path d="M 321.503894 212.134839 
L 325.97603 207.662703 
M 321.503894 207.662703 
L 325.97603 212.134839 
" clip-path="url(#pa1a7048619)" style="fill: #ff0000; fill-opacity: 0.82642; stroke: #ff0000; stroke-opacity: 0.82642; stroke-width: 1.5"/>
    <path d="M 167.267093 257.594633 
L 171.739229 253.122497 
M 167.267093 253.122497 
L 171.739229 257.594633 
" clip-path="url(#pa1a7048619)" style="fill: #ff0000; fill-opacity: 0.831971; stroke: #ff0000; stroke-opacity: 0.831971; stroke-width: 1.5"/>
    <path d="M 223.604325 250.734811 
L 228.076461 246.262675 
M 223.604325 246.262675 
L 228.076461 250.734811 
" clip-path="url(#pa1a7048619)" style="fill: #ff0000; fill-opacity: 0.900518; stroke: #ff0000; stroke-opacity: 0.900518; stroke-width: 1.5"/>
    <path d="M 298.403462 232.017407 
L 302.875598 227.545271 
M 298.403462 227.545271 
L 302.875598 232.017407 
" clip-path="url(#pa1a7048619)" style="fill: #ff0000; fill-opacity: 0.902791; stroke: #ff0000; stroke-opacity: 0.902791; stroke-width: 1.5"/>
    <path d="M 268.793747 257.737729 
L 273.265883 253.265593 
M 268.793747 253.265593 
L 273.265883 257.737729 
" clip-path="url(#pa1a7048619)" style="fill: #ff0000; stroke: #ff0000; stroke-width: 1.5"/>
   </g>
   <g id="Path3DCollection_2">
    <path d="M 232.463945 54.514501 
L 236.936081 50.042365 
M 232.463945 50.042365 
L 236.936081 54.514501 
" clip-path="url(#pa1a7048619)" style="fill: #0000ff; fill-opacity: 0.3; stroke: #0000ff; stroke-opacity: 0.3; stroke-width: 1.5"/>
    <path d="M 232.519907 52.473913 
L 236.992043 48.001777 
M 232.519907 48.001777 
L 236.992043 52.473913 
" clip-path="url(#pa1a7048619)" style="fill: #0000ff; fill-opacity: 0.30365; stroke: #0000ff; stroke-opacity: 0.30365; stroke-width: 1.5"/>
    <path d="M 232.519907 52.460684 
L 236.992043 47.988548 
M 232.519907 47.988548 
L 236.992043 52.460684 
" clip-path="url(#pa1a7048619)" style="fill: #0000ff; fill-opacity: 0.303675; stroke: #0000ff; stroke-opacity: 0.303675; stroke-width: 1.5"/>
    <path d="M 204.163114 78.493201 
L 208.63525 74.021065 
M 204.163114 74.021065 
L 208.63525 78.493201 
" clip-path="url(#pa1a7048619)" style="fill: #0000ff; fill-opacity: 0.361743; stroke: #0000ff; stroke-opacity: 0.361743; stroke-width: 1.5"/>
    <path d="M 198.43769 81.275341 
L 202.909826 76.803205 
M 198.43769 76.803205 
L 202.909826 81.275341 
" clip-path="url(#pa1a7048619)" style="fill: #0000ff; fill-opacity: 0.378149; stroke: #0000ff; stroke-opacity: 0.378149; stroke-width: 1.5"/>
    <path d="M 263.782938 70.484981 
L 268.255074 66.012846 
M 263.782938 66.012846 
L 268.255074 70.484981 
" clip-path="url(#pa1a7048619)" style="fill: #0000ff; fill-opacity: 0.38773; stroke: #0000ff; stroke-opacity: 0.38773; stroke-width: 1.5"/>
    <path d="M 175.320026 103.058767 
L 179.792162 98.586631 
M 175.320026 98.586631 
L 179.792162 103.058767 
" clip-path="url(#pa1a7048619)" style="fill: #0000ff; fill-opacity: 0.424427; stroke: #0000ff; stroke-opacity: 0.424427; stroke-width: 1.5"/>
    <path d="M 295.946847 86.595651 
L 300.418983 82.123515 
M 295.946847 82.123515 
L 300.418983 86.595651 
" clip-path="url(#pa1a7048619)" style="fill: #0000ff; fill-opacity: 0.478987; stroke: #0000ff; stroke-opacity: 0.478987; stroke-width: 1.5"/>
    <path d="M 151.728359 120.645722 
L 156.200495 116.173586 
M 151.728359 116.173586 
L 156.200495 120.645722 
" clip-path="url(#pa1a7048619)" style="fill: #0000ff; fill-opacity: 0.480442; stroke: #0000ff; stroke-opacity: 0.480442; stroke-width: 1.5"/>
    <path d="M 145.815306 127.821209 
L 150.287442 123.349073 
M 145.815306 123.349073 
L 150.287442 127.821209 
" clip-path="url(#pa1a7048619)" style="fill: #0000ff; fill-opacity: 0.489244; stroke: #0000ff; stroke-opacity: 0.489244; stroke-width: 1.5"/>
    <path d="M 218.135793 109.177712 
L 222.607929 104.705576 
M 218.135793 104.705576 
L 222.607929 109.177712 
" clip-path="url(#pa1a7048619)" style="fill: #0000ff; fill-opacity: 0.491336; stroke: #0000ff; stroke-opacity: 0.491336; stroke-width: 1.5"/>
    <path d="M 145.895136 125.456749 
L 150.367272 120.984613 
M 145.895136 120.984613 
L 150.367272 125.456749 
" clip-path="url(#pa1a7048619)" style="fill: #0000ff; fill-opacity: 0.493417; stroke: #0000ff; stroke-opacity: 0.493417; stroke-width: 1.5"/>
    <path d="M 139.92025 130.475255 
L 144.392386 126.003119 
M 139.92025 126.003119 
L 144.392386 130.475255 
" clip-path="url(#pa1a7048619)" style="fill: #0000ff; fill-opacity: 0.506535; stroke: #0000ff; stroke-opacity: 0.506535; stroke-width: 1.5"/>
    <path d="M 239.7426 112.463214 
L 244.214736 107.991078 
M 239.7426 107.991078 
L 244.214736 112.463214 
" clip-path="url(#pa1a7048619)" style="fill: #0000ff; fill-opacity: 0.525484; stroke: #0000ff; stroke-opacity: 0.525484; stroke-width: 1.5"/>
    <path d="M 127.84542 140.962661 
L 132.317556 136.490525 
M 127.84542 136.490525 
L 132.317556 140.962661 
" clip-path="url(#pa1a7048619)" style="fill: #0000ff; fill-opacity: 0.532392; stroke: #0000ff; stroke-opacity: 0.532392; stroke-width: 1.5"/>
    <path d="M 329.148879 102.352929 
L 333.621015 97.880793 
M 329.148879 97.880793 
L 333.621015 102.352929 
" clip-path="url(#pa1a7048619)" style="fill: #0000ff; fill-opacity: 0.574842; stroke: #0000ff; stroke-opacity: 0.574842; stroke-width: 1.5"/>
    <path d="M 103.771377 166.64311 
L 108.243513 162.170974 
M 103.771377 162.170974 
L 108.243513 166.64311 
" clip-path="url(#pa1a7048619)" style="fill: #0000ff; fill-opacity: 0.574915; stroke: #0000ff; stroke-opacity: 0.574915; stroke-width: 1.5"/>
    <path d="M 103.613776 164.424415 
L 108.085912 159.952279 
M 103.613776 159.952279 
L 108.085912 164.424415 
" clip-path="url(#pa1a7048619)" style="fill: #0000ff; fill-opacity: 0.579711; stroke: #0000ff; stroke-opacity: 0.579711; stroke-width: 1.5"/>
    <path d="M 103.610217 164.340507 
L 108.082353 159.868371 
M 103.610217 159.868371 
L 108.082353 164.340507 
" clip-path="url(#pa1a7048619)" style="fill: #0000ff; fill-opacity: 0.579883; stroke: #0000ff; stroke-opacity: 0.579883; stroke-width: 1.5"/>
    <path d="M 283.829719 119.084387 
L 288.301855 114.612251 
M 283.829719 114.612251 
L 288.301855 119.084387 
" clip-path="url(#pa1a7048619)" style="fill: #0000ff; fill-opacity: 0.594789; stroke: #0000ff; stroke-opacity: 0.594789; stroke-width: 1.5"/>
    <path d="M 170.799595 148.926235 
L 175.271731 144.454099 
M 170.799595 144.454099 
L 175.271731 148.926235 
" clip-path="url(#pa1a7048619)" style="fill: #0000ff; fill-opacity: 0.599516; stroke: #0000ff; stroke-opacity: 0.599516; stroke-width: 1.5"/>
    <path d="M 164.86192 154.087664 
L 169.334056 149.615528 
M 164.86192 149.615528 
L 169.334056 154.087664 
" clip-path="url(#pa1a7048619)" style="fill: #0000ff; fill-opacity: 0.612739; stroke: #0000ff; stroke-opacity: 0.612739; stroke-width: 1.5"/>
    <path d="M 363.388234 118.706025 
L 367.86037 114.233889 
M 363.388234 114.233889 
L 367.86037 118.706025 
" clip-path="url(#pa1a7048619)" style="fill: #0000ff; fill-opacity: 0.673676; stroke: #0000ff; stroke-opacity: 0.673676; stroke-width: 1.5"/>
    <path d="M 248.882743 149.217908 
L 253.354879 144.745772 
M 248.882743 144.745772 
L 253.354879 149.217908 
" clip-path="url(#pa1a7048619)" style="fill: #0000ff; fill-opacity: 0.678192; stroke: #0000ff; stroke-opacity: 0.678192; stroke-width: 1.5"/>
    <path d="M 237.082953 158.970452 
L 241.555089 154.498316 
M 237.082953 154.498316 
L 241.555089 158.970452 
" clip-path="url(#pa1a7048619)" style="fill: #0000ff; fill-opacity: 0.707237; stroke: #0000ff; stroke-opacity: 0.707237; stroke-width: 1.5"/>
    <path d="M 150.103341 191.072189 
L 154.575477 186.600053 
M 150.103341 186.600053 
L 154.575477 191.072189 
" clip-path="url(#pa1a7048619)" style="fill: #0000ff; fill-opacity: 0.727879; stroke: #0000ff; stroke-opacity: 0.727879; stroke-width: 1.5"/>
    <path d="M 323.176248 153.978694 
L 327.648384 149.506558 
M 323.176248 149.506558 
L 327.648384 153.978694 
" clip-path="url(#pa1a7048619)" style="fill: #0000ff; fill-opacity: 0.774972; stroke: #0000ff; stroke-opacity: 0.774972; stroke-width: 1.5"/>
    <path d="M 235.633828 182.715738 
L 240.105964 178.243602 
M 235.633828 178.243602 
L 240.105964 182.715738 
" clip-path="url(#pa1a7048619)" style="fill: #0000ff; fill-opacity: 0.803544; stroke: #0000ff; stroke-opacity: 0.803544; stroke-width: 1.5"/>
    <path d="M 182.273293 208.091868 
L 186.745429 203.619732 
M 182.273293 203.619732 
L 186.745429 208.091868 
" clip-path="url(#pa1a7048619)" style="fill: #0000ff; fill-opacity: 0.83414; stroke: #0000ff; stroke-opacity: 0.83414; stroke-width: 1.5"/>
    <path d="M 299.532187 174.769856 
L 304.004323 170.29772 
M 299.532187 170.29772 
L 304.004323 174.769856 
" clip-path="url(#pa1a7048619)" style="fill: #0000ff; fill-opacity: 0.834418; stroke: #0000ff; stroke-opacity: 0.834418; stroke-width: 1.5"/>
    <path d="M 269.501346 200.227337 
L 273.973482 195.755201 
M 269.501346 195.755201 
L 273.973482 200.227337 
" clip-path="url(#pa1a7048619)" style="fill: #0000ff; fill-opacity: 0.912052; stroke: #0000ff; stroke-opacity: 0.912052; stroke-width: 1.5"/>
    <path d="M 232.60483 234.818925 
L 237.076965 230.346789 
M 232.60483 230.346789 
L 237.076965 234.818925 
" clip-path="url(#pa1a7048619)" style="fill: #0000ff; stroke: #0000ff; stroke-width: 1.5"/>
   </g>
   <g id="legend_1">
    <g id="patch_6">
     <path d="M 305.4 48.15625 
L 385.4 48.15625 
Q 387.4 48.15625 387.4 46.15625 
L 387.4 17.8 
Q 387.4 15.8 385.4 15.8 
L 305.4 15.8 
Q 303.4 15.8 303.4 17.8 
L 303.4 46.15625 
Q 303.4 48.15625 305.4 48.15625 
z
" style="fill: #ffffff; opacity: 0.8; stroke: #cccccc; stroke-linejoin: miter"/>
    </g>
    <g id="Path3DCollection_3">
     <defs>
      <path id="m912bb8f440" d="M -2.236068 2.236068 
L 2.236068 -2.236068 
M -2.236068 -2.236068 
L 2.236068 2.236068 
" style="stroke: #0000ff; stroke-width: 1.5"/>
     </defs>
     <g>
      <use xlink:href="#m912bb8f440" x="317.4" y="24.773438" style="fill: #0000ff; stroke: #0000ff; stroke-width: 1.5"/>
     </g>
    </g>
    <g id="text_25">
     <!-- $\delta_e = -10$ -->
     <g transform="translate(335.4 27.398438) scale(0.1 -0.1)">
      <defs>
       <path id="DejaVuSans-Oblique-3b4" d="M 3472 4053 
Q 3197 4272 2450 4272 
Q 1659 4272 1588 3906 
Q 1531 3619 2328 3469 
Q 2953 3353 3253 3003 
Q 3616 2581 3447 1716 
Q 3284 888 2763 400 
Q 2238 -91 1488 -91 
Q 741 -91 406 400 
Q 72 888 241 1747 
Q 363 2384 891 2900 
Q 1097 3100 1353 3213 
Q 913 3459 1000 3900 
Q 1166 4750 2544 4750 
Q 3234 4750 3566 4531 
L 3472 4053 
z
M 1753 3056 
Q 1525 2966 1306 2738 
Q 969 2384 847 1747 
Q 722 1113 919 756 
Q 1119 397 1584 397 
Q 2044 397 2381 759 
Q 2722 1122 2838 1716 
Q 2956 2338 2731 2638 
Q 2491 2959 2103 2994 
Q 1906 3013 1753 3056 
z
" transform="scale(0.015625)"/>
       <path id="DejaVuSans-Oblique-65" d="M 3078 2063 
Q 3088 2113 3092 2166 
Q 3097 2219 3097 2272 
Q 3097 2653 2873 2875 
Q 2650 3097 2266 3097 
Q 1838 3097 1509 2826 
Q 1181 2556 1013 2059 
L 3078 2063 
z
M 3578 1613 
L 903 1613 
Q 884 1494 878 1425 
Q 872 1356 872 1306 
Q 872 872 1139 634 
Q 1406 397 1894 397 
Q 2269 397 2603 481 
Q 2938 566 3225 728 
L 3116 159 
Q 2806 34 2476 -28 
Q 2147 -91 1806 -91 
Q 1078 -91 686 257 
Q 294 606 294 1247 
Q 294 1794 489 2264 
Q 684 2734 1063 3103 
Q 1306 3334 1642 3459 
Q 1978 3584 2356 3584 
Q 2950 3584 3301 3228 
Q 3653 2872 3653 2272 
Q 3653 2128 3634 1964 
Q 3616 1800 3578 1613 
z
" transform="scale(0.015625)"/>
       <path id="DejaVuSans-3d" d="M 678 2906 
L 4684 2906 
L 4684 2381 
L 678 2381 
L 678 2906 
z
M 678 1631 
L 4684 1631 
L 4684 1100 
L 678 1100 
L 678 1631 
z
" transform="scale(0.015625)"/>
      </defs>
      <use xlink:href="#DejaVuSans-Oblique-3b4" transform="translate(0 0.78125)"/>
      <use xlink:href="#DejaVuSans-Oblique-65" transform="translate(61.181641 -15.625) scale(0.7)"/>
      <use xlink:href="#DejaVuSans-3d" transform="translate(126.464844 0.78125)"/>
      <use xlink:href="#DejaVuSans-2212" transform="translate(249.21875 0.78125)"/>
      <use xlink:href="#DejaVuSans-31" transform="translate(352.490234 0.78125)"/>
      <use xlink:href="#DejaVuSans-30" transform="translate(416.113281 0.78125)"/>
     </g>
    </g>
    <g id="Path3DCollection_4">
     <defs>
      <path id="mf8e8d09348" d="M -2.236068 2.236068 
L 2.236068 -2.236068 
M -2.236068 -2.236068 
L 2.236068 2.236068 
" style="stroke: #ff0000; stroke-width: 1.5"/>
     </defs>
     <g>
      <use xlink:href="#mf8e8d09348" x="317.4" y="39.451563" style="fill: #ff0000; stroke: #ff0000; stroke-width: 1.5"/>
     </g>
    </g>
    <g id="text_26">
     <!-- $\delta_e = 10$ -->
     <g transform="translate(335.4 42.076563) scale(0.1 -0.1)">
      <use xlink:href="#DejaVuSans-Oblique-3b4" transform="translate(0 0.78125)"/>
      <use xlink:href="#DejaVuSans-Oblique-65" transform="translate(61.181641 -15.625) scale(0.7)"/>
      <use xlink:href="#DejaVuSans-3d" transform="translate(126.464844 0.78125)"/>
      <use xlink:href="#DejaVuSans-31" transform="translate(229.736328 0.78125)"/>
      <use xlink:href="#DejaVuSans-30" transform="translate(293.359375 0.78125)"/>
     </g>
    </g>
   </g>
  </g>
 </g>
 <defs>
  <clipPath id="pa1a7048619">
   <rect x="68.4" y="10.8" width="324" height="324"/>
  </clipPath>
 </defs>
</svg>
