<?xml version="1.0" encoding="utf-8" standalone="no"?>
<!DOCTYPE svg PUBLIC "-//W3C//DTD SVG 1.1//EN"
  "http://www.w3.org/Graphics/SVG/1.1/DTD/svg11.dtd">
<svg xmlns:xlink="http://www.w3.org/1999/xlink" width="460.8pt" height="345.6pt" viewBox="0 0 460.8 345.6" xmlns="http://www.w3.org/2000/svg" version="1.1">
 <metadata>
  <rdf:RDF xmlns:dc="http://purl.org/dc/elements/1.1/" xmlns:cc="http://creativecommons.org/ns#" xmlns:rdf="http://www.w3.org/1999/02/22-rdf-syntax-ns#">
   <cc:Work>
    <dc:type rdf:resource="http://purl.org/dc/dcmitype/StillImage"/>
    <dc:date>2025-03-31T17:23:30.032488</dc:date>
    <dc:format>image/svg+xml</dc:format>
    <dc:creator>
     <cc:Agent>
      <dc:title>Matplotlib v3.9.2, https://matplotlib.org/</dc:title>
     </cc:Agent>
    </dc:creator>
   </cc:Work>
  </rdf:RDF>
 </metadata>
 <defs>
  <style type="text/css">*{stroke-linejoin: round; stroke-linecap: butt}</style>
 </defs>
 <g id="figure_1">
  <g id="patch_1">
   <path d="M 0 345.6 
L 460.8 345.6 
L 460.8 0 
L 0 0 
z
" style="fill: #ffffff"/>
  </g>
  <g id="patch_2">
   <path d="M 68.4 334.8 
L 392.4 334.8 
L 392.4 10.8 
L 68.4 10.8 
z
" style="fill: #ffffff"/>
  </g>
  <g id="pane3d_1">
   <g id="patch_3">
    <path d="M 234.778378 162.940222 
L 378.987103 234.653707 
L 385.571976 99.16524 
L 234.778378 33.806163 
" style="fill: #f2f2f2; opacity: 0.5; stroke: #f2f2f2; stroke-linejoin: miter"/>
   </g>
  </g>
  <g id="pane3d_2">
   <g id="patch_4">
    <path d="M 234.778378 162.940222 
L 90.569654 234.653707 
L 83.984781 99.16524 
L 234.778378 33.806163 
" style="fill: #e6e6e6; opacity: 0.5; stroke: #e6e6e6; stroke-linejoin: miter"/>
   </g>
  </g>
  <g id="pane3d_3">
   <g id="patch_5">
    <path d="M 234.778378 162.940222 
L 90.569654 234.653707 
L 234.778378 317.380273 
L 378.987103 234.653707 
" style="fill: #ececec; opacity: 0.5; stroke: #ececec; stroke-linejoin: miter"/>
   </g>
  </g>
  <g id="grid3d_1">
   <g id="Line3DCollection_1">
    <path d="M 370.390271 239.585353 
L 226.14024 167.235878 
L 225.77154 37.710034 
" style="fill: none; stroke: #b0b0b0; stroke-width: 0.8"/>
    <path d="M 348.725428 252.013575 
L 204.394622 178.049746 
L 203.083274 47.5439 
" style="fill: none; stroke: #b0b0b0; stroke-width: 0.8"/>
    <path d="M 326.557247 264.730542 
L 182.178293 189.097693 
L 179.882455 57.599925 
" style="fill: none; stroke: #b0b0b0; stroke-width: 0.8"/>
    <path d="M 303.86798 277.746433 
L 159.475801 200.387404 
L 156.151517 67.88572 
" style="fill: none; stroke: #b0b0b0; stroke-width: 0.8"/>
    <path d="M 280.639037 291.071915 
L 136.271012 211.926902 
L 131.872081 78.409254 
" style="fill: none; stroke: #b0b0b0; stroke-width: 0.8"/>
    <path d="M 256.850929 304.718166 
L 112.54707 223.724569 
L 107.024908 89.178865 
" style="fill: none; stroke: #b0b0b0; stroke-width: 0.8"/>
   </g>
  </g>
  <g id="grid3d_2">
   <g id="Line3DCollection_2">
    <path d="M 243.891316 37.756021 
L 243.518254 167.286471 
L 99.267767 239.643454 
" style="fill: none; stroke: #b0b0b0; stroke-width: 0.8"/>
    <path d="M 259.465752 44.506511 
L 258.447681 174.710718 
L 114.138268 248.174044 
" style="fill: none; stroke: #b0b0b0; stroke-width: 0.8"/>
    <path d="M 275.280847 51.361312 
L 273.598217 182.244921 
L 129.245032 256.840168 
" style="fill: none; stroke: #b0b0b0; stroke-width: 0.8"/>
    <path d="M 291.342223 58.322858 
L 288.97481 189.891539 
L 144.593736 265.645083 
" style="fill: none; stroke: #b0b0b0; stroke-width: 0.8"/>
    <path d="M 307.655677 65.393664 
L 304.582556 197.653108 
L 160.190239 274.59215 
" style="fill: none; stroke: #b0b0b0; stroke-width: 0.8"/>
    <path d="M 324.22719 72.576322 
L 320.426709 205.532239 
L 176.04059 283.684839 
" style="fill: none; stroke: #b0b0b0; stroke-width: 0.8"/>
    <path d="M 341.062936 79.873507 
L 336.512681 213.531623 
L 192.151037 292.926735 
" style="fill: none; stroke: #b0b0b0; stroke-width: 0.8"/>
    <path d="M 358.169283 87.28798 
L 352.846049 221.654036 
L 208.528037 302.321541 
" style="fill: none; stroke: #b0b0b0; stroke-width: 0.8"/>
    <path d="M 375.55281 94.822592 
L 369.432566 229.902337 
L 225.178259 311.873082 
" style="fill: none; stroke: #b0b0b0; stroke-width: 0.8"/>
   </g>
  </g>
  <g id="grid3d_3">
   <g id="Line3DCollection_3">
    <path d="M 90.482869 232.868036 
L 234.778378 161.233194 
L 379.073888 232.868036 
" style="fill: none; stroke: #b0b0b0; stroke-width: 0.8"/>
    <path d="M 89.300652 208.543077 
L 234.778378 137.993154 
L 380.256105 208.543077 
" style="fill: none; stroke: #b0b0b0; stroke-width: 0.8"/>
    <path d="M 88.098903 183.816235 
L 234.778378 114.395121 
L 381.457854 183.816235 
" style="fill: none; stroke: #b0b0b0; stroke-width: 0.8"/>
    <path d="M 86.877134 158.677469 
L 234.778378 90.43076 
L 382.679623 158.677469 
" style="fill: none; stroke: #b0b0b0; stroke-width: 0.8"/>
    <path d="M 85.634841 133.116397 
L 234.778378 66.091472 
L 383.921916 133.116397 
" style="fill: none; stroke: #b0b0b0; stroke-width: 0.8"/>
    <path d="M 84.371501 107.122289 
L 234.778378 41.368392 
L 385.185255 107.122289 
" style="fill: none; stroke: #b0b0b0; stroke-width: 0.8"/>
   </g>
  </g>
  <g id="axis3d_1">
   <g id="line2d_1">
    <path d="M 378.987103 234.653707 
L 234.778378 317.380273 
" style="fill: none; stroke: #000000; stroke-width: 0.8; stroke-linecap: square"/>
   </g>
   <g id="xtick_1">
    <g id="line2d_2">
     <path d="M 369.154311 238.96545 
L 372.866446 240.827294 
" style="fill: none; stroke: #000000; stroke-width: 0.8; stroke-linecap: square"/>
    </g>
    <g id="text_1">
     <!-- −4 -->
     <g transform="translate(373.167549 261.350046) scale(0.1 -0.1)">
      <defs>
       <path id="DejaVuSans-2212" d="M 678 2272 
L 4684 2272 
L 4684 1741 
L 678 1741 
L 678 2272 
z
" transform="scale(0.015625)"/>
       <path id="DejaVuSans-34" d="M 2419 4116 
L 825 1625 
L 2419 1625 
L 2419 4116 
z
M 2253 4666 
L 3047 4666 
L 3047 1625 
L 3713 1625 
L 3713 1100 
L 3047 1100 
L 3047 0 
L 2419 0 
L 2419 1100 
L 313 1100 
L 313 1709 
L 2253 4666 
z
" transform="scale(0.015625)"/>
      </defs>
      <use xlink:href="#DejaVuSans-2212"/>
      <use xlink:href="#DejaVuSans-34" x="83.789062"/>
     </g>
    </g>
   </g>
   <g id="xtick_2">
    <g id="line2d_3">
     <path d="M 347.487835 251.379358 
L 351.204924 253.284219 
" style="fill: none; stroke: #000000; stroke-width: 0.8; stroke-linecap: square"/>
    </g>
    <g id="text_2">
     <!-- −2 -->
     <g transform="translate(351.577917 273.965086) scale(0.1 -0.1)">
      <defs>
       <path id="DejaVuSans-32" d="M 1228 531 
L 3431 531 
L 3431 0 
L 469 0 
L 469 531 
Q 828 903 1448 1529 
Q 2069 2156 2228 2338 
Q 2531 2678 2651 2914 
Q 2772 3150 2772 3378 
Q 2772 3750 2511 3984 
Q 2250 4219 1831 4219 
Q 1534 4219 1204 4116 
Q 875 4013 500 3803 
L 500 4441 
Q 881 4594 1212 4672 
Q 1544 4750 1819 4750 
Q 2544 4750 2975 4387 
Q 3406 4025 3406 3419 
Q 3406 3131 3298 2873 
Q 3191 2616 2906 2266 
Q 2828 2175 2409 1742 
Q 1991 1309 1228 531 
z
" transform="scale(0.015625)"/>
      </defs>
      <use xlink:href="#DejaVuSans-2212"/>
      <use xlink:href="#DejaVuSans-32" x="83.789062"/>
     </g>
    </g>
   </g>
   <g id="xtick_3">
    <g id="line2d_4">
     <path d="M 325.318278 264.081508 
L 329.03955 266.030895 
" style="fill: none; stroke: #000000; stroke-width: 0.8; stroke-linecap: square"/>
    </g>
    <g id="text_3">
     <!-- 0 -->
     <g transform="translate(333.675564 286.87378) scale(0.1 -0.1)">
      <defs>
       <path id="DejaVuSans-30" d="M 2034 4250 
Q 1547 4250 1301 3770 
Q 1056 3291 1056 2328 
Q 1056 1369 1301 889 
Q 1547 409 2034 409 
Q 2525 409 2770 889 
Q 3016 1369 3016 2328 
Q 3016 3291 2770 3770 
Q 2525 4250 2034 4250 
z
M 2034 4750 
Q 2819 4750 3233 4129 
Q 3647 3509 3647 2328 
Q 3647 1150 3233 529 
Q 2819 -91 2034 -91 
Q 1250 -91 836 529 
Q 422 1150 422 2328 
Q 422 3509 836 4129 
Q 1250 4750 2034 4750 
z
" transform="scale(0.015625)"/>
      </defs>
      <use xlink:href="#DejaVuSans-30"/>
     </g>
    </g>
   </g>
   <g id="xtick_4">
    <g id="line2d_5">
     <path d="M 302.627911 277.082058 
L 306.352538 279.077551 
" style="fill: none; stroke: #000000; stroke-width: 0.8; stroke-linecap: square"/>
    </g>
    <g id="text_4">
     <!-- 2 -->
     <g transform="translate(311.063049 300.086501) scale(0.1 -0.1)">
      <use xlink:href="#DejaVuSans-32"/>
     </g>
    </g>
   </g>
   <g id="xtick_5">
    <g id="line2d_6">
     <path d="M 279.398166 290.391648 
L 283.125253 292.434901 
" style="fill: none; stroke: #000000; stroke-width: 0.8; stroke-linecap: square"/>
    </g>
    <g id="text_5">
     <!-- 4 -->
     <g transform="translate(287.911613 313.614119) scale(0.1 -0.1)">
      <use xlink:href="#DejaVuSans-34"/>
     </g>
    </g>
   </g>
   <g id="xtick_6">
    <g id="line2d_7">
     <path d="M 255.609577 304.021431 
L 259.338165 306.11418 
" style="fill: none; stroke: #000000; stroke-width: 0.8; stroke-linecap: square"/>
    </g>
    <g id="text_6">
     <!-- 6 -->
     <g transform="translate(264.20176 327.468026) scale(0.1 -0.1)">
      <defs>
       <path id="DejaVuSans-36" d="M 2113 2584 
Q 1688 2584 1439 2293 
Q 1191 2003 1191 1497 
Q 1191 994 1439 701 
Q 1688 409 2113 409 
Q 2538 409 2786 701 
Q 3034 994 3034 1497 
Q 3034 2003 2786 2293 
Q 2538 2584 2113 2584 
z
M 3366 4563 
L 3366 3988 
Q 3128 4100 2886 4159 
Q 2644 4219 2406 4219 
Q 1781 4219 1451 3797 
Q 1122 3375 1075 2522 
Q 1259 2794 1537 2939 
Q 1816 3084 2150 3084 
Q 2853 3084 3261 2657 
Q 3669 2231 3669 1497 
Q 3669 778 3244 343 
Q 2819 -91 2113 -91 
Q 1303 -91 875 529 
Q 447 1150 447 2328 
Q 447 3434 972 4092 
Q 1497 4750 2381 4750 
Q 2619 4750 2861 4703 
Q 3103 4656 3366 4563 
z
" transform="scale(0.015625)"/>
      </defs>
      <use xlink:href="#DejaVuSans-36"/>
     </g>
    </g>
   </g>
   <g id="text_7">
    <!-- $\alpha$ -->
    <g transform="translate(330.626772 310.536557) rotate(-29.841106) scale(0.1 -0.1)">
     <defs>
      <path id="DejaVuSans-Oblique-3b1" d="M 2619 1628 
L 2622 2350 
Q 2625 3088 2069 3091 
Q 1653 3094 1394 2747 
Q 1069 2319 959 1747 
Q 825 1059 994 731 
Q 1169 397 1547 397 
Q 1966 397 2319 1063 
L 2619 1628 
z
M 2166 3578 
Q 3141 3594 3128 2584 
Q 3128 2584 3616 3500 
L 4128 3500 
L 3119 1603 
L 3109 919 
Q 3109 766 3194 638 
Q 3291 488 3391 488 
L 3669 488 
L 3575 0 
L 3228 0 
Q 2934 0 2722 263 
Q 2622 394 2619 669 
Q 2416 334 2066 50 
Q 1900 -81 1453 -78 
Q 722 -72 456 397 
Q 184 884 353 1747 
Q 534 2675 1009 3097 
Q 1544 3569 2166 3578 
z
" transform="scale(0.015625)"/>
     </defs>
     <use xlink:href="#DejaVuSans-Oblique-3b1" transform="translate(0 0.84375)"/>
    </g>
   </g>
  </g>
  <g id="axis3d_2">
   <g id="line2d_8">
    <path d="M 90.569654 234.653707 
L 234.778378 317.380273 
" style="fill: none; stroke: #000000; stroke-width: 0.8; stroke-linecap: square"/>
   </g>
   <g id="xtick_7">
    <g id="line2d_9">
     <path d="M 100.503736 239.023484 
L 96.791575 240.885528 
" style="fill: none; stroke: #000000; stroke-width: 0.8; stroke-linecap: square"/>
    </g>
    <g id="text_8">
     <!-- 1.6 -->
     <g transform="translate(81.167479 261.409019) scale(0.1 -0.1)">
      <defs>
       <path id="DejaVuSans-31" d="M 794 531 
L 1825 531 
L 1825 4091 
L 703 3866 
L 703 4441 
L 1819 4666 
L 2450 4666 
L 2450 531 
L 3481 531 
L 3481 0 
L 794 0 
L 794 531 
z
" transform="scale(0.015625)"/>
       <path id="DejaVuSans-2e" d="M 684 794 
L 1344 794 
L 1344 0 
L 684 0 
L 684 794 
z
" transform="scale(0.015625)"/>
      </defs>
      <use xlink:href="#DejaVuSans-31"/>
      <use xlink:href="#DejaVuSans-2e" x="63.623047"/>
      <use xlink:href="#DejaVuSans-36" x="95.410156"/>
     </g>
    </g>
   </g>
   <g id="xtick_8">
    <g id="line2d_10">
     <path d="M 115.375387 247.544266 
L 111.659737 249.435785 
" style="fill: none; stroke: #000000; stroke-width: 0.8; stroke-linecap: square"/>
    </g>
    <g id="text_9">
     <!-- 1.7 -->
     <g transform="translate(95.986258 270.067781) scale(0.1 -0.1)">
      <defs>
       <path id="DejaVuSans-37" d="M 525 4666 
L 3525 4666 
L 3525 4397 
L 1831 0 
L 1172 0 
L 2766 4134 
L 525 4134 
L 525 4666 
z
" transform="scale(0.015625)"/>
      </defs>
      <use xlink:href="#DejaVuSans-31"/>
      <use xlink:href="#DejaVuSans-2e" x="63.623047"/>
      <use xlink:href="#DejaVuSans-37" x="95.410156"/>
     </g>
    </g>
   </g>
   <g id="xtick_9">
    <g id="line2d_11">
     <path d="M 130.483183 256.200347 
L 126.7644 258.122047 
" style="fill: none; stroke: #000000; stroke-width: 0.8; stroke-linecap: square"/>
    </g>
    <g id="text_10">
     <!-- 1.8 -->
     <g transform="translate(111.040932 278.86438) scale(0.1 -0.1)">
      <defs>
       <path id="DejaVuSans-38" d="M 2034 2216 
Q 1584 2216 1326 1975 
Q 1069 1734 1069 1313 
Q 1069 891 1326 650 
Q 1584 409 2034 409 
Q 2484 409 2743 651 
Q 3003 894 3003 1313 
Q 3003 1734 2745 1975 
Q 2488 2216 2034 2216 
z
M 1403 2484 
Q 997 2584 770 2862 
Q 544 3141 544 3541 
Q 544 4100 942 4425 
Q 1341 4750 2034 4750 
Q 2731 4750 3128 4425 
Q 3525 4100 3525 3541 
Q 3525 3141 3298 2862 
Q 3072 2584 2669 2484 
Q 3125 2378 3379 2068 
Q 3634 1759 3634 1313 
Q 3634 634 3220 271 
Q 2806 -91 2034 -91 
Q 1263 -91 848 271 
Q 434 634 434 1313 
Q 434 1759 690 2068 
Q 947 2378 1403 2484 
z
M 1172 3481 
Q 1172 3119 1398 2916 
Q 1625 2713 2034 2713 
Q 2441 2713 2670 2916 
Q 2900 3119 2900 3481 
Q 2900 3844 2670 4047 
Q 2441 4250 2034 4250 
Q 1625 4250 1398 4047 
Q 1172 3844 1172 3481 
z
" transform="scale(0.015625)"/>
      </defs>
      <use xlink:href="#DejaVuSans-31"/>
      <use xlink:href="#DejaVuSans-2e" x="63.623047"/>
      <use xlink:href="#DejaVuSans-38" x="95.410156"/>
     </g>
    </g>
   </g>
   <g id="xtick_10">
    <g id="line2d_12">
     <path d="M 145.832793 264.994977 
L 142.111254 266.947586 
" style="fill: none; stroke: #000000; stroke-width: 0.8; stroke-linecap: square"/>
    </g>
    <g id="text_11">
     <!-- 1.9 -->
     <g transform="translate(126.33718 287.802132) scale(0.1 -0.1)">
      <defs>
       <path id="DejaVuSans-39" d="M 703 97 
L 703 672 
Q 941 559 1184 500 
Q 1428 441 1663 441 
Q 2288 441 2617 861 
Q 2947 1281 2994 2138 
Q 2813 1869 2534 1725 
Q 2256 1581 1919 1581 
Q 1219 1581 811 2004 
Q 403 2428 403 3163 
Q 403 3881 828 4315 
Q 1253 4750 1959 4750 
Q 2769 4750 3195 4129 
Q 3622 3509 3622 2328 
Q 3622 1225 3098 567 
Q 2575 -91 1691 -91 
Q 1453 -91 1209 -44 
Q 966 3 703 97 
z
M 1959 2075 
Q 2384 2075 2632 2365 
Q 2881 2656 2881 3163 
Q 2881 3666 2632 3958 
Q 2384 4250 1959 4250 
Q 1534 4250 1286 3958 
Q 1038 3666 1038 3163 
Q 1038 2656 1286 2365 
Q 1534 2075 1959 2075 
z
" transform="scale(0.015625)"/>
      </defs>
      <use xlink:href="#DejaVuSans-31"/>
      <use xlink:href="#DejaVuSans-2e" x="63.623047"/>
      <use xlink:href="#DejaVuSans-39" x="95.410156"/>
     </g>
    </g>
   </g>
   <g id="xtick_11">
    <g id="line2d_13">
     <path d="M 161.43007 273.931509 
L 157.70617 275.915779 
" style="fill: none; stroke: #000000; stroke-width: 0.8; stroke-linecap: square"/>
    </g>
    <g id="text_12">
     <!-- 2.0 -->
     <g transform="translate(141.880863 296.884463) scale(0.1 -0.1)">
      <use xlink:href="#DejaVuSans-32"/>
      <use xlink:href="#DejaVuSans-2e" x="63.623047"/>
      <use xlink:href="#DejaVuSans-30" x="95.410156"/>
     </g>
    </g>
   </g>
   <g id="xtick_12">
    <g id="line2d_14">
     <path d="M 177.281056 283.013405 
L 173.555212 285.030112 
" style="fill: none; stroke: #000000; stroke-width: 0.8; stroke-linecap: square"/>
    </g>
    <g id="text_13">
     <!-- 2.1 -->
     <g transform="translate(157.678034 306.11491) scale(0.1 -0.1)">
      <use xlink:href="#DejaVuSans-32"/>
      <use xlink:href="#DejaVuSans-2e" x="63.623047"/>
      <use xlink:href="#DejaVuSans-31" x="95.410156"/>
     </g>
    </g>
   </g>
   <g id="xtick_13">
    <g id="line2d_15">
     <path d="M 193.391994 292.244242 
L 189.664642 294.294187 
" style="fill: none; stroke: #000000; stroke-width: 0.8; stroke-linecap: square"/>
    </g>
    <g id="text_14">
     <!-- 2.2 -->
     <g transform="translate(173.734945 315.497125) scale(0.1 -0.1)">
      <use xlink:href="#DejaVuSans-32"/>
      <use xlink:href="#DejaVuSans-2e" x="63.623047"/>
      <use xlink:href="#DejaVuSans-32" x="95.410156"/>
     </g>
    </g>
   </g>
   <g id="xtick_14">
    <g id="line2d_16">
     <path d="M 209.76933 301.627712 
L 206.04093 303.711725 
" style="fill: none; stroke: #000000; stroke-width: 0.8; stroke-linecap: square"/>
    </g>
    <g id="text_15">
     <!-- 2.3 -->
     <g transform="translate(190.058055 325.034883) scale(0.1 -0.1)">
      <defs>
       <path id="DejaVuSans-33" d="M 2597 2516 
Q 3050 2419 3304 2112 
Q 3559 1806 3559 1356 
Q 3559 666 3084 287 
Q 2609 -91 1734 -91 
Q 1441 -91 1130 -33 
Q 819 25 488 141 
L 488 750 
Q 750 597 1062 519 
Q 1375 441 1716 441 
Q 2309 441 2620 675 
Q 2931 909 2931 1356 
Q 2931 1769 2642 2001 
Q 2353 2234 1838 2234 
L 1294 2234 
L 1294 2753 
L 1863 2753 
Q 2328 2753 2575 2939 
Q 2822 3125 2822 3475 
Q 2822 3834 2567 4026 
Q 2313 4219 1838 4219 
Q 1578 4219 1281 4162 
Q 984 4106 628 3988 
L 628 4550 
Q 988 4650 1302 4700 
Q 1616 4750 1894 4750 
Q 2613 4750 3031 4423 
Q 3450 4097 3450 3541 
Q 3450 3153 3228 2886 
Q 3006 2619 2597 2516 
z
" transform="scale(0.015625)"/>
      </defs>
      <use xlink:href="#DejaVuSans-32"/>
      <use xlink:href="#DejaVuSans-2e" x="63.623047"/>
      <use xlink:href="#DejaVuSans-33" x="95.410156"/>
     </g>
    </g>
   </g>
   <g id="xtick_15">
    <g id="line2d_17">
     <path d="M 226.419726 311.167634 
L 222.690764 313.286571 
" style="fill: none; stroke: #000000; stroke-width: 0.8; stroke-linecap: square"/>
    </g>
    <g id="text_16">
     <!-- 2.4 -->
     <g transform="translate(206.654038 334.732084) scale(0.1 -0.1)">
      <use xlink:href="#DejaVuSans-32"/>
      <use xlink:href="#DejaVuSans-2e" x="63.623047"/>
      <use xlink:href="#DejaVuSans-34" x="95.410156"/>
     </g>
    </g>
   </g>
   <g id="text_17">
    <!-- $J$ -->
    <g transform="translate(135.940591 309.240045) scale(0.1 -0.1)">
     <defs>
      <path id="DejaVuSans-Oblique-4a" d="M 1069 4666 
L 1703 4666 
L 856 325 
Q 691 -522 298 -901 
Q -94 -1281 -800 -1281 
L -1050 -1281 
L -947 -750 
L -750 -750 
Q -328 -750 -109 -509 
Q 109 -269 225 325 
L 1069 4666 
z
" transform="scale(0.015625)"/>
     </defs>
     <use xlink:href="#DejaVuSans-Oblique-4a" transform="translate(0 0.09375)"/>
    </g>
   </g>
  </g>
  <g id="axis3d_3">
   <g id="line2d_18">
    <path d="M 90.569654 234.653707 
L 83.984781 99.16524 
" style="fill: none; stroke: #000000; stroke-width: 0.8; stroke-linecap: square"/>
   </g>
   <g id="xtick_16">
    <g id="line2d_19">
     <path d="M 91.718894 232.254417 
L 88.00658 234.097378 
" style="fill: none; stroke: #000000; stroke-width: 0.8; stroke-linecap: square"/>
    </g>
    <g id="text_18">
     <!-- 0.03 -->
     <g transform="translate(59.683113 240.466473) scale(0.1 -0.1)">
      <use xlink:href="#DejaVuSans-30"/>
      <use xlink:href="#DejaVuSans-2e" x="63.623047"/>
      <use xlink:href="#DejaVuSans-30" x="95.410156"/>
      <use xlink:href="#DejaVuSans-33" x="159.033203"/>
     </g>
    </g>
   </g>
   <g id="xtick_17">
    <g id="line2d_20">
     <path d="M 90.547478 207.938424 
L 86.802689 209.754473 
" style="fill: none; stroke: #000000; stroke-width: 0.8; stroke-linecap: square"/>
    </g>
    <g id="text_19">
     <!-- 0.04 -->
     <g transform="translate(58.339764 216.141514) scale(0.1 -0.1)">
      <use xlink:href="#DejaVuSans-30"/>
      <use xlink:href="#DejaVuSans-2e" x="63.623047"/>
      <use xlink:href="#DejaVuSans-30" x="95.410156"/>
      <use xlink:href="#DejaVuSans-34" x="159.033203"/>
     </g>
    </g>
   </g>
   <g id="xtick_18">
    <g id="line2d_21">
     <path d="M 89.35672 183.22093 
L 85.578885 185.008921 
" style="fill: none; stroke: #000000; stroke-width: 0.8; stroke-linecap: square"/>
    </g>
    <g id="text_20">
     <!-- 0.05 -->
     <g transform="translate(56.974221 191.414673) scale(0.1 -0.1)">
      <defs>
       <path id="DejaVuSans-35" d="M 691 4666 
L 3169 4666 
L 3169 4134 
L 1269 4134 
L 1269 2991 
Q 1406 3038 1543 3061 
Q 1681 3084 1819 3084 
Q 2600 3084 3056 2656 
Q 3513 2228 3513 1497 
Q 3513 744 3044 326 
Q 2575 -91 1722 -91 
Q 1428 -91 1123 -41 
Q 819 9 494 109 
L 494 744 
Q 775 591 1075 516 
Q 1375 441 1709 441 
Q 2250 441 2565 725 
Q 2881 1009 2881 1497 
Q 2881 1984 2565 2268 
Q 2250 2553 1709 2553 
Q 1456 2553 1204 2497 
Q 953 2441 691 2322 
L 691 4666 
z
" transform="scale(0.015625)"/>
      </defs>
      <use xlink:href="#DejaVuSans-30"/>
      <use xlink:href="#DejaVuSans-2e" x="63.623047"/>
      <use xlink:href="#DejaVuSans-30" x="95.410156"/>
      <use xlink:href="#DejaVuSans-35" x="159.033203"/>
     </g>
    </g>
   </g>
   <g id="xtick_19">
    <g id="line2d_22">
     <path d="M 88.146136 158.091907 
L 84.334669 159.850649 
" style="fill: none; stroke: #000000; stroke-width: 0.8; stroke-linecap: square"/>
    </g>
    <g id="text_21">
     <!-- 0.06 -->
     <g transform="translate(55.58593 166.275906) scale(0.1 -0.1)">
      <use xlink:href="#DejaVuSans-30"/>
      <use xlink:href="#DejaVuSans-2e" x="63.623047"/>
      <use xlink:href="#DejaVuSans-30" x="95.410156"/>
      <use xlink:href="#DejaVuSans-36" x="159.033203"/>
     </g>
    </g>
   </g>
   <g id="xtick_20">
    <g id="line2d_23">
     <path d="M 86.915228 132.540992 
L 83.069528 134.269245 
" style="fill: none; stroke: #000000; stroke-width: 0.8; stroke-linecap: square"/>
    </g>
    <g id="text_22">
     <!-- 0.07 -->
     <g transform="translate(54.174316 140.714834) scale(0.1 -0.1)">
      <use xlink:href="#DejaVuSans-30"/>
      <use xlink:href="#DejaVuSans-2e" x="63.623047"/>
      <use xlink:href="#DejaVuSans-30" x="95.410156"/>
      <use xlink:href="#DejaVuSans-37" x="159.033203"/>
     </g>
    </g>
   </g>
   <g id="xtick_21">
    <g id="line2d_24">
     <path d="M 85.663479 106.55747 
L 81.782927 108.253944 
" style="fill: none; stroke: #000000; stroke-width: 0.8; stroke-linecap: square"/>
    </g>
    <g id="text_23">
     <!-- 0.08 -->
     <g transform="translate(52.738788 114.720726) scale(0.1 -0.1)">
      <use xlink:href="#DejaVuSans-30"/>
      <use xlink:href="#DejaVuSans-2e" x="63.623047"/>
      <use xlink:href="#DejaVuSans-30" x="95.410156"/>
      <use xlink:href="#DejaVuSans-38" x="159.033203"/>
     </g>
    </g>
   </g>
   <g id="text_24">
    <!-- $C_D$ -->
    <g transform="translate(40.604063 162.213058) rotate(-272.782442) scale(0.1 -0.1)">
     <defs>
      <path id="DejaVuSans-Oblique-43" d="M 4447 4306 
L 4319 3641 
Q 4019 3944 3683 4091 
Q 3347 4238 2956 4238 
Q 2422 4238 2017 3981 
Q 1613 3725 1319 3200 
Q 1131 2863 1032 2486 
Q 934 2109 934 1728 
Q 934 1091 1264 756 
Q 1594 422 2222 422 
Q 2656 422 3056 561 
Q 3456 700 3834 978 
L 3688 231 
Q 3316 72 2936 -9 
Q 2556 -91 2175 -91 
Q 1278 -91 773 396 
Q 269 884 269 1753 
Q 269 2309 461 2846 
Q 653 3384 1013 3828 
Q 1394 4300 1883 4525 
Q 2372 4750 3022 4750 
Q 3422 4750 3780 4639 
Q 4138 4528 4447 4306 
z
" transform="scale(0.015625)"/>
      <path id="DejaVuSans-Oblique-44" d="M 1081 4666 
L 2438 4666 
Q 3519 4666 4070 4208 
Q 4622 3750 4622 2847 
Q 4622 2250 4412 1698 
Q 4203 1147 3834 769 
Q 3463 381 2891 190 
Q 2319 0 1538 0 
L 172 0 
L 1081 4666 
z
M 1613 4147 
L 909 519 
L 1734 519 
Q 2794 519 3375 1128 
Q 3956 1738 3956 2847 
Q 3956 3519 3581 3833 
Q 3206 4147 2406 4147 
L 1613 4147 
z
" transform="scale(0.015625)"/>
     </defs>
     <use xlink:href="#DejaVuSans-Oblique-43" transform="translate(0 0.78125)"/>
     <use xlink:href="#DejaVuSans-Oblique-44" transform="translate(69.824219 -15.625) scale(0.7)"/>
    </g>
   </g>
  </g>
  <g id="axes_1">
   <g id="Path3DCollection_1">
    <path d="M 199.563537 179.22497 
L 204.035673 174.752834 
M 199.563537 174.752834 
L 204.035673 179.22497 
" clip-path="url(#p9a03c5b9a9)" style="fill: #ff0000; fill-opacity: 0.3; stroke: #ff0000; stroke-opacity: 0.3; stroke-width: 1.5"/>
    <path d="M 262.728958 168.632226 
L 267.201093 164.16009 
M 262.728958 164.16009 
L 267.201093 168.632226 
" clip-path="url(#p9a03c5b9a9)" style="fill: #ff0000; fill-opacity: 0.31021; stroke: #ff0000; stroke-opacity: 0.31021; stroke-width: 1.5"/>
    <path d="M 188.317947 181.861829 
L 192.790083 177.389693 
M 188.317947 177.389693 
L 192.790083 181.861829 
" clip-path="url(#p9a03c5b9a9)" style="fill: #ff0000; fill-opacity: 0.338127; stroke: #ff0000; stroke-opacity: 0.338127; stroke-width: 1.5"/>
    <path d="M 293.933986 184.51091 
L 298.406122 180.038774 
M 293.933986 180.038774 
L 298.406122 184.51091 
" clip-path="url(#p9a03c5b9a9)" style="fill: #ff0000; fill-opacity: 0.399147; stroke: #ff0000; stroke-opacity: 0.399147; stroke-width: 1.5"/>
    <path d="M 239.602404 206.35937 
L 244.07454 201.887234 
M 239.602404 201.887234 
L 244.07454 206.35937 
" clip-path="url(#p9a03c5b9a9)" style="fill: #ff0000; fill-opacity: 0.450945; stroke: #ff0000; stroke-opacity: 0.450945; stroke-width: 1.5"/>
    <path d="M 326.004191 200.929239 
L 330.476327 196.457103 
M 326.004191 196.457103 
L 330.476327 200.929239 
" clip-path="url(#p9a03c5b9a9)" style="fill: #ff0000; fill-opacity: 0.491229; stroke: #ff0000; stroke-opacity: 0.491229; stroke-width: 1.5"/>
    <path d="M 153.118927 171.425508 
L 157.591063 166.953372 
M 153.118927 166.953372 
L 157.591063 171.425508 
" clip-path="url(#p9a03c5b9a9)" style="fill: #ff0000; fill-opacity: 0.493359; stroke: #ff0000; stroke-opacity: 0.493359; stroke-width: 1.5"/>
    <path d="M 276.637914 221.495501 
L 281.11005 217.023365 
M 276.637914 217.023365 
L 281.11005 221.495501 
" clip-path="url(#p9a03c5b9a9)" style="fill: #ff0000; fill-opacity: 0.524883; stroke: #ff0000; stroke-opacity: 0.524883; stroke-width: 1.5"/>
    <path d="M 216.704116 207.321695 
L 221.176251 202.849559 
M 216.704116 202.849559 
L 221.176251 207.321695 
" clip-path="url(#p9a03c5b9a9)" style="fill: #ff0000; fill-opacity: 0.542405; stroke: #ff0000; stroke-opacity: 0.542405; stroke-width: 1.5"/>
    <path d="M 210.916318 205.656733 
L 215.388454 201.184597 
M 210.916318 201.184597 
L 215.388454 205.656733 
" clip-path="url(#p9a03c5b9a9)" style="fill: #ff0000; fill-opacity: 0.569415; stroke: #ff0000; stroke-opacity: 0.569415; stroke-width: 1.5"/>
    <path d="M 292.771597 230.156101 
L 297.243733 225.683965 
M 292.771597 225.683965 
L 297.243733 230.156101 
" clip-path="url(#p9a03c5b9a9)" style="fill: #ff0000; fill-opacity: 0.572241; stroke: #ff0000; stroke-opacity: 0.572241; stroke-width: 1.5"/>
    <path d="M 359.136358 217.723849 
L 363.608494 213.251714 
M 359.136358 213.251714 
L 363.608494 217.723849 
" clip-path="url(#p9a03c5b9a9)" style="fill: #ff0000; fill-opacity: 0.586238; stroke: #ff0000; stroke-opacity: 0.586238; stroke-width: 1.5"/>
    <path d="M 149.779463 165.710955 
L 154.251599 161.238819 
M 149.779463 161.238819 
L 154.251599 165.710955 
" clip-path="url(#p9a03c5b9a9)" style="fill: #ff0000; fill-opacity: 0.639891; stroke: #ff0000; stroke-opacity: 0.639891; stroke-width: 1.5"/>
    <path d="M 320.370278 250.260571 
L 324.842414 245.788435 
M 320.370278 245.788435 
L 324.842414 250.260571 
" clip-path="url(#p9a03c5b9a9)" style="fill: #ff0000; fill-opacity: 0.688664; stroke: #ff0000; stroke-opacity: 0.688664; stroke-width: 1.5"/>
    <path d="M 297.934706 253.170595 
L 302.406842 248.69846 
M 297.934706 248.69846 
L 302.406842 253.170595 
" clip-path="url(#p9a03c5b9a9)" style="fill: #ff0000; fill-opacity: 0.784184; stroke: #ff0000; stroke-opacity: 0.784184; stroke-width: 1.5"/>
    <path d="M 219.193418 210.758812 
L 223.665554 206.286676 
M 219.193418 206.286676 
L 223.665554 210.758812 
" clip-path="url(#p9a03c5b9a9)" style="fill: #ff0000; fill-opacity: 0.792261; stroke: #ff0000; stroke-opacity: 0.792261; stroke-width: 1.5"/>
    <path d="M 101.385404 110.362847 
L 105.85754 105.890711 
M 101.385404 105.890711 
L 105.85754 110.362847 
" clip-path="url(#p9a03c5b9a9)" style="fill: #ff0000; fill-opacity: 0.809315; stroke: #ff0000; stroke-opacity: 0.809315; stroke-width: 1.5"/>
    <path d="M 223.479225 209.39848 
L 227.951361 204.926344 
M 223.479225 204.926344 
L 227.951361 209.39848 
" clip-path="url(#p9a03c5b9a9)" style="fill: #ff0000; fill-opacity: 0.91889; stroke: #ff0000; stroke-opacity: 0.91889; stroke-width: 1.5"/>
    <path d="M 269.011733 240.020839 
L 273.483869 235.548703 
M 269.011733 235.548703 
L 273.483869 240.020839 
" clip-path="url(#p9a03c5b9a9)" style="fill: #ff0000; fill-opacity: 0.945797; stroke: #ff0000; stroke-opacity: 0.945797; stroke-width: 1.5"/>
    <path d="M 148.786613 143.41747 
L 153.258749 138.945334 
M 148.786613 138.945334 
L 153.258749 143.41747 
" clip-path="url(#p9a03c5b9a9)" style="fill: #ff0000; fill-opacity: 0.949865; stroke: #ff0000; stroke-opacity: 0.949865; stroke-width: 1.5"/>
    <path d="M 164.972291 154.008351 
L 169.444427 149.536215 
M 164.972291 149.536215 
L 169.444427 154.008351 
" clip-path="url(#p9a03c5b9a9)" style="fill: #ff0000; stroke: #ff0000; stroke-width: 1.5"/>
   </g>
   <g id="Path3DCollection_2">
    <path d="M 232.520588 148.279798 
L 236.992724 143.807662 
M 232.520588 143.807662 
L 236.992724 148.279798 
" clip-path="url(#p9a03c5b9a9)" style="fill: #0000ff; fill-opacity: 0.3; stroke: #0000ff; stroke-opacity: 0.3; stroke-width: 1.5"/>
    <path d="M 232.520588 148.275191 
L 236.992724 143.803055 
M 232.520588 143.803055 
L 236.992724 148.275191 
" clip-path="url(#p9a03c5b9a9)" style="fill: #0000ff; fill-opacity: 0.300006; stroke: #0000ff; stroke-opacity: 0.300006; stroke-width: 1.5"/>
    <path d="M 232.466278 148.251935 
L 236.938414 143.779799 
M 232.466278 143.779799 
L 236.938414 148.251935 
" clip-path="url(#p9a03c5b9a9)" style="fill: #0000ff; fill-opacity: 0.300185; stroke: #0000ff; stroke-opacity: 0.300185; stroke-width: 1.5"/>
    <path d="M 205.047565 175.903794 
L 209.519701 171.431658 
M 205.047565 171.431658 
L 209.519701 175.903794 
" clip-path="url(#p9a03c5b9a9)" style="fill: #0000ff; fill-opacity: 0.337093; stroke: #0000ff; stroke-opacity: 0.337093; stroke-width: 1.5"/>
    <path d="M 199.509567 179.422428 
L 203.981703 174.950292 
M 199.509567 174.950292 
L 203.981703 179.422428 
" clip-path="url(#p9a03c5b9a9)" style="fill: #0000ff; fill-opacity: 0.347353; stroke: #0000ff; stroke-opacity: 0.347353; stroke-width: 1.5"/>
    <path d="M 262.82742 166.328571 
L 267.299556 161.856435 
M 262.82742 161.856435 
L 267.299556 166.328571 
" clip-path="url(#p9a03c5b9a9)" style="fill: #0000ff; fill-opacity: 0.357668; stroke: #0000ff; stroke-opacity: 0.357668; stroke-width: 1.5"/>
    <path d="M 176.845447 185.725376 
L 181.317583 181.25324 
M 176.845447 181.25324 
L 181.317583 185.725376 
" clip-path="url(#p9a03c5b9a9)" style="fill: #0000ff; fill-opacity: 0.400333; stroke: #0000ff; stroke-opacity: 0.400333; stroke-width: 1.5"/>
    <path d="M 293.967656 183.909057 
L 298.439792 179.436921 
M 293.967656 179.436921 
L 298.439792 183.909057 
" clip-path="url(#p9a03c5b9a9)" style="fill: #0000ff; fill-opacity: 0.418353; stroke: #0000ff; stroke-opacity: 0.418353; stroke-width: 1.5"/>
    <path d="M 218.559772 200.260054 
L 223.031908 195.787918 
M 218.559772 195.787918 
L 223.031908 200.260054 
" clip-path="url(#p9a03c5b9a9)" style="fill: #0000ff; fill-opacity: 0.434815; stroke: #0000ff; stroke-opacity: 0.434815; stroke-width: 1.5"/>
    <path d="M 239.522651 206.90378 
L 243.994787 202.431644 
M 239.522651 202.431644 
L 243.994787 206.90378 
" clip-path="url(#p9a03c5b9a9)" style="fill: #0000ff; fill-opacity: 0.45363; stroke: #0000ff; stroke-opacity: 0.45363; stroke-width: 1.5"/>
    <path d="M 153.275997 179.69555 
L 157.748132 175.223414 
M 153.275997 175.223414 
L 157.748132 179.69555 
" clip-path="url(#p9a03c5b9a9)" style="fill: #0000ff; fill-opacity: 0.472516; stroke: #0000ff; stroke-opacity: 0.472516; stroke-width: 1.5"/>
    <path d="M 326.060758 201.502842 
L 330.532894 197.030706 
M 326.060758 197.030706 
L 330.532894 201.502842 
" clip-path="url(#p9a03c5b9a9)" style="fill: #0000ff; fill-opacity: 0.481608; stroke: #0000ff; stroke-opacity: 0.481608; stroke-width: 1.5"/>
    <path d="M 147.330523 176.456958 
L 151.802659 171.984822 
M 147.330523 171.984822 
L 151.802659 176.456958 
" clip-path="url(#p9a03c5b9a9)" style="fill: #0000ff; fill-opacity: 0.493056; stroke: #0000ff; stroke-opacity: 0.493056; stroke-width: 1.5"/>
    <path d="M 147.183691 176.358789 
L 151.655827 171.886653 
M 147.183691 171.886653 
L 151.655827 176.358789 
" clip-path="url(#p9a03c5b9a9)" style="fill: #0000ff; fill-opacity: 0.493588; stroke: #0000ff; stroke-opacity: 0.493588; stroke-width: 1.5"/>
    <path d="M 282.175999 218.557755 
L 286.648135 214.085619 
M 282.175999 214.085619 
L 286.648135 218.557755 
" clip-path="url(#p9a03c5b9a9)" style="fill: #0000ff; fill-opacity: 0.49421; stroke: #0000ff; stroke-opacity: 0.49421; stroke-width: 1.5"/>
    <path d="M 141.184669 172.4343 
L 145.656805 167.962164 
M 141.184669 167.962164 
L 145.656805 172.4343 
" clip-path="url(#p9a03c5b9a9)" style="fill: #0000ff; fill-opacity: 0.515204; stroke: #0000ff; stroke-opacity: 0.515204; stroke-width: 1.5"/>
    <path d="M 359.122245 219.299162 
L 363.594381 214.827026 
M 359.122245 214.827026 
L 363.594381 219.299162 
" clip-path="url(#p9a03c5b9a9)" style="fill: #0000ff; fill-opacity: 0.547341; stroke: #0000ff; stroke-opacity: 0.547341; stroke-width: 1.5"/>
    <path d="M 128.551364 161.616494 
L 133.0235 157.144358 
M 128.551364 157.144358 
L 133.0235 161.616494 
" clip-path="url(#p9a03c5b9a9)" style="fill: #0000ff; fill-opacity: 0.564193; stroke: #0000ff; stroke-opacity: 0.564193; stroke-width: 1.5"/>
    <path d="M 248.47258 225.898672 
L 252.944716 221.426536 
M 248.47258 221.426536 
L 252.944716 225.898672 
" clip-path="url(#p9a03c5b9a9)" style="fill: #0000ff; fill-opacity: 0.584589; stroke: #0000ff; stroke-opacity: 0.584589; stroke-width: 1.5"/>
    <path d="M 171.580102 187.547386 
L 176.052238 183.07525 
M 171.580102 183.07525 
L 176.052238 187.547386 
" clip-path="url(#p9a03c5b9a9)" style="fill: #0000ff; fill-opacity: 0.585526; stroke: #0000ff; stroke-opacity: 0.585526; stroke-width: 1.5"/>
    <path d="M 165.49196 182.480221 
L 169.964095 178.008085 
M 165.49196 178.008085 
L 169.964095 182.480221 
" clip-path="url(#p9a03c5b9a9)" style="fill: #0000ff; fill-opacity: 0.609889; stroke: #0000ff; stroke-opacity: 0.609889; stroke-width: 1.5"/>
    <path d="M 320.321152 250.061378 
L 324.793288 245.589242 
M 320.321152 245.589242 
L 324.793288 250.061378 
" clip-path="url(#p9a03c5b9a9)" style="fill: #0000ff; fill-opacity: 0.62272; stroke: #0000ff; stroke-opacity: 0.62272; stroke-width: 1.5"/>
    <path d="M 236.988411 222.373624 
L 241.460547 217.901488 
M 236.988411 217.901488 
L 241.460547 222.373624 
" clip-path="url(#p9a03c5b9a9)" style="fill: #0000ff; fill-opacity: 0.624452; stroke: #0000ff; stroke-opacity: 0.624452; stroke-width: 1.5"/>
    <path d="M 102.114927 127.570809 
L 106.587063 123.098673 
M 102.114927 123.098673 
L 106.587063 127.570809 
" clip-path="url(#p9a03c5b9a9)" style="fill: #0000ff; fill-opacity: 0.682194; stroke: #0000ff; stroke-opacity: 0.682194; stroke-width: 1.5"/>
    <path d="M 102.048272 127.515565 
L 106.520408 123.043429 
M 102.048272 123.043429 
L 106.520408 127.515565 
" clip-path="url(#p9a03c5b9a9)" style="fill: #0000ff; fill-opacity: 0.68245; stroke: #0000ff; stroke-opacity: 0.68245; stroke-width: 1.5"/>
    <path d="M 102.048268 127.515469 
L 106.520404 123.043333 
M 102.048268 123.043333 
L 106.520404 127.515469 
" clip-path="url(#p9a03c5b9a9)" style="fill: #0000ff; fill-opacity: 0.68245; stroke: #0000ff; stroke-opacity: 0.68245; stroke-width: 1.5"/>
    <path d="M 297.829867 251.749631 
L 302.302003 247.277495 
M 297.829867 247.277495 
L 302.302003 251.749631 
" clip-path="url(#p9a03c5b9a9)" style="fill: #0000ff; fill-opacity: 0.692393; stroke: #0000ff; stroke-opacity: 0.692393; stroke-width: 1.5"/>
    <path d="M 235.595654 220.023837 
L 240.06779 215.551701 
M 235.595654 215.551701 
L 240.06779 220.023837 
" clip-path="url(#p9a03c5b9a9)" style="fill: #0000ff; fill-opacity: 0.731389; stroke: #0000ff; stroke-opacity: 0.731389; stroke-width: 1.5"/>
    <path d="M 148.976879 149.901771 
L 153.449015 145.429635 
M 148.976879 145.429635 
L 153.449015 149.901771 
" clip-path="url(#p9a03c5b9a9)" style="fill: #0000ff; fill-opacity: 0.796998; stroke: #0000ff; stroke-opacity: 0.796998; stroke-width: 1.5"/>
    <path d="M 269.048205 237.056497 
L 273.520341 232.584361 
M 269.048205 232.584361 
L 273.520341 237.056497 
" clip-path="url(#p9a03c5b9a9)" style="fill: #0000ff; fill-opacity: 0.808675; stroke: #0000ff; stroke-opacity: 0.808675; stroke-width: 1.5"/>
    <path d="M 181.563623 165.796061 
L 186.035759 161.323925 
M 181.563623 161.323925 
L 186.035759 165.796061 
" clip-path="url(#p9a03c5b9a9)" style="fill: #0000ff; fill-opacity: 0.876374; stroke: #0000ff; stroke-opacity: 0.876374; stroke-width: 1.5"/>
    <path d="M 232.605751 191.053558 
L 237.077887 186.581422 
M 232.605751 186.581422 
L 237.077887 191.053558 
" clip-path="url(#p9a03c5b9a9)" style="fill: #0000ff; stroke: #0000ff; stroke-width: 1.5"/>
   </g>
   <g id="legend_1">
    <g id="patch_6">
     <path d="M 305.4 48.15625 
L 385.4 48.15625 
Q 387.4 48.15625 387.4 46.15625 
L 387.4 17.8 
Q 387.4 15.8 385.4 15.8 
L 305.4 15.8 
Q 303.4 15.8 303.4 17.8 
L 303.4 46.15625 
Q 303.4 48.15625 305.4 48.15625 
z
" style="fill: #ffffff; opacity: 0.8; stroke: #cccccc; stroke-linejoin: miter"/>
    </g>
    <g id="Path3DCollection_3">
     <defs>
      <path id="m3d73e9cde5" d="M -2.236068 2.236068 
L 2.236068 -2.236068 
M -2.236068 -2.236068 
L 2.236068 2.236068 
" style="stroke: #0000ff; stroke-width: 1.5"/>
     </defs>
     <g>
      <use xlink:href="#m3d73e9cde5" x="317.4" y="24.773438" style="fill: #0000ff; stroke: #0000ff; stroke-width: 1.5"/>
     </g>
    </g>
    <g id="text_25">
     <!-- $\delta_e = -10$ -->
     <g transform="translate(335.4 27.398438) scale(0.1 -0.1)">
      <defs>
       <path id="DejaVuSans-Oblique-3b4" d="M 3472 4053 
Q 3197 4272 2450 4272 
Q 1659 4272 1588 3906 
Q 1531 3619 2328 3469 
Q 2953 3353 3253 3003 
Q 3616 2581 3447 1716 
Q 3284 888 2763 400 
Q 2238 -91 1488 -91 
Q 741 -91 406 400 
Q 72 888 241 1747 
Q 363 2384 891 2900 
Q 1097 3100 1353 3213 
Q 913 3459 1000 3900 
Q 1166 4750 2544 4750 
Q 3234 4750 3566 4531 
L 3472 4053 
z
M 1753 3056 
Q 1525 2966 1306 2738 
Q 969 2384 847 1747 
Q 722 1113 919 756 
Q 1119 397 1584 397 
Q 2044 397 2381 759 
Q 2722 1122 2838 1716 
Q 2956 2338 2731 2638 
Q 2491 2959 2103 2994 
Q 1906 3013 1753 3056 
z
" transform="scale(0.015625)"/>
       <path id="DejaVuSans-Oblique-65" d="M 3078 2063 
Q 3088 2113 3092 2166 
Q 3097 2219 3097 2272 
Q 3097 2653 2873 2875 
Q 2650 3097 2266 3097 
Q 1838 3097 1509 2826 
Q 1181 2556 1013 2059 
L 3078 2063 
z
M 3578 1613 
L 903 1613 
Q 884 1494 878 1425 
Q 872 1356 872 1306 
Q 872 872 1139 634 
Q 1406 397 1894 397 
Q 2269 397 2603 481 
Q 2938 566 3225 728 
L 3116 159 
Q 2806 34 2476 -28 
Q 2147 -91 1806 -91 
Q 1078 -91 686 257 
Q 294 606 294 1247 
Q 294 1794 489 2264 
Q 684 2734 1063 3103 
Q 1306 3334 1642 3459 
Q 1978 3584 2356 3584 
Q 2950 3584 3301 3228 
Q 3653 2872 3653 2272 
Q 3653 2128 3634 1964 
Q 3616 1800 3578 1613 
z
" transform="scale(0.015625)"/>
       <path id="DejaVuSans-3d" d="M 678 2906 
L 4684 2906 
L 4684 2381 
L 678 2381 
L 678 2906 
z
M 678 1631 
L 4684 1631 
L 4684 1100 
L 678 1100 
L 678 1631 
z
" transform="scale(0.015625)"/>
      </defs>
      <use xlink:href="#DejaVuSans-Oblique-3b4" transform="translate(0 0.78125)"/>
      <use xlink:href="#DejaVuSans-Oblique-65" transform="translate(61.181641 -15.625) scale(0.7)"/>
      <use xlink:href="#DejaVuSans-3d" transform="translate(126.464844 0.78125)"/>
      <use xlink:href="#DejaVuSans-2212" transform="translate(249.21875 0.78125)"/>
      <use xlink:href="#DejaVuSans-31" transform="translate(352.490234 0.78125)"/>
      <use xlink:href="#DejaVuSans-30" transform="translate(416.113281 0.78125)"/>
     </g>
    </g>
    <g id="Path3DCollection_4">
     <defs>
      <path id="m03ca854441" d="M -2.236068 2.236068 
L 2.236068 -2.236068 
M -2.236068 -2.236068 
L 2.236068 2.236068 
" style="stroke: #ff0000; stroke-width: 1.5"/>
     </defs>
     <g>
      <use xlink:href="#m03ca854441" x="317.4" y="39.451563" style="fill: #ff0000; stroke: #ff0000; stroke-width: 1.5"/>
     </g>
    </g>
    <g id="text_26">
     <!-- $\delta_e = 10$ -->
     <g transform="translate(335.4 42.076563) scale(0.1 -0.1)">
      <use xlink:href="#DejaVuSans-Oblique-3b4" transform="translate(0 0.78125)"/>
      <use xlink:href="#DejaVuSans-Oblique-65" transform="translate(61.181641 -15.625) scale(0.7)"/>
      <use xlink:href="#DejaVuSans-3d" transform="translate(126.464844 0.78125)"/>
      <use xlink:href="#DejaVuSans-31" transform="translate(229.736328 0.78125)"/>
      <use xlink:href="#DejaVuSans-30" transform="translate(293.359375 0.78125)"/>
     </g>
    </g>
   </g>
  </g>
 </g>
 <defs>
  <clipPath id="p9a03c5b9a9">
   <rect x="68.4" y="10.8" width="324" height="324"/>
  </clipPath>
 </defs>
</svg>
