<?xml version="1.0" encoding="utf-8" standalone="no"?>
<!DOCTYPE svg PUBLIC "-//W3C//DTD SVG 1.1//EN"
  "http://www.w3.org/Graphics/SVG/1.1/DTD/svg11.dtd">
<svg xmlns:xlink="http://www.w3.org/1999/xlink" width="432pt" height="216pt" viewBox="0 0 432 216" xmlns="http://www.w3.org/2000/svg" version="1.1">
 <metadata>
  <rdf:RDF xmlns:dc="http://purl.org/dc/elements/1.1/" xmlns:cc="http://creativecommons.org/ns#" xmlns:rdf="http://www.w3.org/1999/02/22-rdf-syntax-ns#">
   <cc:Work>
    <dc:type rdf:resource="http://purl.org/dc/dcmitype/StillImage"/>
    <dc:date>2025-03-31T00:02:28.388088</dc:date>
    <dc:format>image/svg+xml</dc:format>
    <dc:creator>
     <cc:Agent>
      <dc:title>Matplotlib v3.9.2, https://matplotlib.org/</dc:title>
     </cc:Agent>
    </dc:creator>
   </cc:Work>
  </rdf:RDF>
 </metadata>
 <defs>
  <style type="text/css">*{stroke-linejoin: round; stroke-linecap: butt}</style>
 </defs>
 <g id="figure_1">
  <g id="patch_1">
   <path d="M 0 216 
L 432 216 
L 432 0 
L 0 0 
z
" style="fill: #ffffff"/>
  </g>
  <g id="axes_1">
   <g id="patch_2">
    <path d="M 80.822 174.04 
L 306.255247 174.04 
L 306.255247 10.8 
L 80.822 10.8 
z
" style="fill: #ffffff"/>
   </g>
   <g id="matplotlib.axis_1">
    <g id="xtick_1">
     <g id="line2d_1">
      <path d="M 91.068966 174.04 
L 91.068966 10.8 
" clip-path="url(#pd1b74d448e)" style="fill: none; stroke: #b0b0b0; stroke-width: 0.8; stroke-linecap: square"/>
     </g>
     <g id="line2d_2">
      <defs>
       <path id="m4d22924f8e" d="M 0 0 
L 0 3.5 
" style="stroke: #000000; stroke-width: 0.8"/>
      </defs>
      <g>
       <use xlink:href="#m4d22924f8e" x="91.068966" y="174.04" style="stroke: #000000; stroke-width: 0.8"/>
      </g>
     </g>
     <g id="text_1">
      <!-- −4 -->
      <g transform="translate(83.697872 188.638438) scale(0.1 -0.1)">
       <defs>
        <path id="DejaVuSans-2212" d="M 678 2272 
L 4684 2272 
L 4684 1741 
L 678 1741 
L 678 2272 
z
" transform="scale(0.015625)"/>
        <path id="DejaVuSans-34" d="M 2419 4116 
L 825 1625 
L 2419 1625 
L 2419 4116 
z
M 2253 4666 
L 3047 4666 
L 3047 1625 
L 3713 1625 
L 3713 1100 
L 3047 1100 
L 3047 0 
L 2419 0 
L 2419 1100 
L 313 1100 
L 313 1709 
L 2253 4666 
z
" transform="scale(0.015625)"/>
       </defs>
       <use xlink:href="#DejaVuSans-2212"/>
       <use xlink:href="#DejaVuSans-34" x="83.789062"/>
      </g>
     </g>
    </g>
    <g id="xtick_2">
     <g id="line2d_3">
      <path d="M 128.33066 174.04 
L 128.33066 10.8 
" clip-path="url(#pd1b74d448e)" style="fill: none; stroke: #b0b0b0; stroke-width: 0.8; stroke-linecap: square"/>
     </g>
     <g id="line2d_4">
      <g>
       <use xlink:href="#m4d22924f8e" x="128.33066" y="174.04" style="stroke: #000000; stroke-width: 0.8"/>
      </g>
     </g>
     <g id="text_2">
      <!-- −2 -->
      <g transform="translate(120.959566 188.638438) scale(0.1 -0.1)">
       <defs>
        <path id="DejaVuSans-32" d="M 1228 531 
L 3431 531 
L 3431 0 
L 469 0 
L 469 531 
Q 828 903 1448 1529 
Q 2069 2156 2228 2338 
Q 2531 2678 2651 2914 
Q 2772 3150 2772 3378 
Q 2772 3750 2511 3984 
Q 2250 4219 1831 4219 
Q 1534 4219 1204 4116 
Q 875 4013 500 3803 
L 500 4441 
Q 881 4594 1212 4672 
Q 1544 4750 1819 4750 
Q 2544 4750 2975 4387 
Q 3406 4025 3406 3419 
Q 3406 3131 3298 2873 
Q 3191 2616 2906 2266 
Q 2828 2175 2409 1742 
Q 1991 1309 1228 531 
z
" transform="scale(0.015625)"/>
       </defs>
       <use xlink:href="#DejaVuSans-2212"/>
       <use xlink:href="#DejaVuSans-32" x="83.789062"/>
      </g>
     </g>
    </g>
    <g id="xtick_3">
     <g id="line2d_5">
      <path d="M 165.592353 174.04 
L 165.592353 10.8 
" clip-path="url(#pd1b74d448e)" style="fill: none; stroke: #b0b0b0; stroke-width: 0.8; stroke-linecap: square"/>
     </g>
     <g id="line2d_6">
      <g>
       <use xlink:href="#m4d22924f8e" x="165.592353" y="174.04" style="stroke: #000000; stroke-width: 0.8"/>
      </g>
     </g>
     <g id="text_3">
      <!-- 0 -->
      <g transform="translate(162.411103 188.638438) scale(0.1 -0.1)">
       <defs>
        <path id="DejaVuSans-30" d="M 2034 4250 
Q 1547 4250 1301 3770 
Q 1056 3291 1056 2328 
Q 1056 1369 1301 889 
Q 1547 409 2034 409 
Q 2525 409 2770 889 
Q 3016 1369 3016 2328 
Q 3016 3291 2770 3770 
Q 2525 4250 2034 4250 
z
M 2034 4750 
Q 2819 4750 3233 4129 
Q 3647 3509 3647 2328 
Q 3647 1150 3233 529 
Q 2819 -91 2034 -91 
Q 1250 -91 836 529 
Q 422 1150 422 2328 
Q 422 3509 836 4129 
Q 1250 4750 2034 4750 
z
" transform="scale(0.015625)"/>
       </defs>
       <use xlink:href="#DejaVuSans-30"/>
      </g>
     </g>
    </g>
    <g id="xtick_4">
     <g id="line2d_7">
      <path d="M 202.854047 174.04 
L 202.854047 10.8 
" clip-path="url(#pd1b74d448e)" style="fill: none; stroke: #b0b0b0; stroke-width: 0.8; stroke-linecap: square"/>
     </g>
     <g id="line2d_8">
      <g>
       <use xlink:href="#m4d22924f8e" x="202.854047" y="174.04" style="stroke: #000000; stroke-width: 0.8"/>
      </g>
     </g>
     <g id="text_4">
      <!-- 2 -->
      <g transform="translate(199.672797 188.638438) scale(0.1 -0.1)">
       <use xlink:href="#DejaVuSans-32"/>
      </g>
     </g>
    </g>
    <g id="xtick_5">
     <g id="line2d_9">
      <path d="M 240.115741 174.04 
L 240.115741 10.8 
" clip-path="url(#pd1b74d448e)" style="fill: none; stroke: #b0b0b0; stroke-width: 0.8; stroke-linecap: square"/>
     </g>
     <g id="line2d_10">
      <g>
       <use xlink:href="#m4d22924f8e" x="240.115741" y="174.04" style="stroke: #000000; stroke-width: 0.8"/>
      </g>
     </g>
     <g id="text_5">
      <!-- 4 -->
      <g transform="translate(236.934491 188.638438) scale(0.1 -0.1)">
       <use xlink:href="#DejaVuSans-34"/>
      </g>
     </g>
    </g>
    <g id="xtick_6">
     <g id="line2d_11">
      <path d="M 277.377435 174.04 
L 277.377435 10.8 
" clip-path="url(#pd1b74d448e)" style="fill: none; stroke: #b0b0b0; stroke-width: 0.8; stroke-linecap: square"/>
     </g>
     <g id="line2d_12">
      <g>
       <use xlink:href="#m4d22924f8e" x="277.377435" y="174.04" style="stroke: #000000; stroke-width: 0.8"/>
      </g>
     </g>
     <g id="text_6">
      <!-- 6 -->
      <g transform="translate(274.196185 188.638438) scale(0.1 -0.1)">
       <defs>
        <path id="DejaVuSans-36" d="M 2113 2584 
Q 1688 2584 1439 2293 
Q 1191 2003 1191 1497 
Q 1191 994 1439 701 
Q 1688 409 2113 409 
Q 2538 409 2786 701 
Q 3034 994 3034 1497 
Q 3034 2003 2786 2293 
Q 2538 2584 2113 2584 
z
M 3366 4563 
L 3366 3988 
Q 3128 4100 2886 4159 
Q 2644 4219 2406 4219 
Q 1781 4219 1451 3797 
Q 1122 3375 1075 2522 
Q 1259 2794 1537 2939 
Q 1816 3084 2150 3084 
Q 2853 3084 3261 2657 
Q 3669 2231 3669 1497 
Q 3669 778 3244 343 
Q 2819 -91 2113 -91 
Q 1303 -91 875 529 
Q 447 1150 447 2328 
Q 447 3434 972 4092 
Q 1497 4750 2381 4750 
Q 2619 4750 2861 4703 
Q 3103 4656 3366 4563 
z
" transform="scale(0.015625)"/>
       </defs>
       <use xlink:href="#DejaVuSans-36"/>
      </g>
     </g>
    </g>
    <g id="text_7">
     <!-- $\alpha$ -->
     <g transform="translate(190.238624 202.316563) scale(0.1 -0.1)">
      <defs>
       <path id="DejaVuSans-Oblique-3b1" d="M 2619 1628 
L 2622 2350 
Q 2625 3088 2069 3091 
Q 1653 3094 1394 2747 
Q 1069 2319 959 1747 
Q 825 1059 994 731 
Q 1169 397 1547 397 
Q 1966 397 2319 1063 
L 2619 1628 
z
M 2166 3578 
Q 3141 3594 3128 2584 
Q 3128 2584 3616 3500 
L 4128 3500 
L 3119 1603 
L 3109 919 
Q 3109 766 3194 638 
Q 3291 488 3391 488 
L 3669 488 
L 3575 0 
L 3228 0 
Q 2934 0 2722 263 
Q 2622 394 2619 669 
Q 2416 334 2066 50 
Q 1900 -81 1453 -78 
Q 722 -72 456 397 
Q 184 884 353 1747 
Q 534 2675 1009 3097 
Q 1544 3569 2166 3578 
z
" transform="scale(0.015625)"/>
      </defs>
      <use xlink:href="#DejaVuSans-Oblique-3b1" transform="translate(0 0.84375)"/>
     </g>
    </g>
   </g>
   <g id="matplotlib.axis_2">
    <g id="ytick_1">
     <g id="line2d_13">
      <path d="M 80.822 162.698706 
L 306.255247 162.698706 
" clip-path="url(#pd1b74d448e)" style="fill: none; stroke: #b0b0b0; stroke-width: 0.8; stroke-linecap: square"/>
     </g>
     <g id="line2d_14">
      <defs>
       <path id="m4bd05d047c" d="M 0 0 
L -3.5 0 
" style="stroke: #000000; stroke-width: 0.8"/>
      </defs>
      <g>
       <use xlink:href="#m4bd05d047c" x="80.822" y="162.698706" style="stroke: #000000; stroke-width: 0.8"/>
      </g>
     </g>
     <g id="text_8">
      <!-- −0.0002 -->
      <g transform="translate(30.451687 166.497924) scale(0.1 -0.1)">
       <defs>
        <path id="DejaVuSans-2e" d="M 684 794 
L 1344 794 
L 1344 0 
L 684 0 
L 684 794 
z
" transform="scale(0.015625)"/>
       </defs>
       <use xlink:href="#DejaVuSans-2212"/>
       <use xlink:href="#DejaVuSans-30" x="83.789062"/>
       <use xlink:href="#DejaVuSans-2e" x="147.412109"/>
       <use xlink:href="#DejaVuSans-30" x="179.199219"/>
       <use xlink:href="#DejaVuSans-30" x="242.822266"/>
       <use xlink:href="#DejaVuSans-30" x="306.445312"/>
       <use xlink:href="#DejaVuSans-32" x="370.068359"/>
      </g>
     </g>
    </g>
    <g id="ytick_2">
     <g id="line2d_15">
      <path d="M 80.822 139.094705 
L 306.255247 139.094705 
" clip-path="url(#pd1b74d448e)" style="fill: none; stroke: #b0b0b0; stroke-width: 0.8; stroke-linecap: square"/>
     </g>
     <g id="line2d_16">
      <g>
       <use xlink:href="#m4bd05d047c" x="80.822" y="139.094705" style="stroke: #000000; stroke-width: 0.8"/>
      </g>
     </g>
     <g id="text_9">
      <!-- 0.0000 -->
      <g transform="translate(38.831375 142.893923) scale(0.1 -0.1)">
       <use xlink:href="#DejaVuSans-30"/>
       <use xlink:href="#DejaVuSans-2e" x="63.623047"/>
       <use xlink:href="#DejaVuSans-30" x="95.410156"/>
       <use xlink:href="#DejaVuSans-30" x="159.033203"/>
       <use xlink:href="#DejaVuSans-30" x="222.65625"/>
       <use xlink:href="#DejaVuSans-30" x="286.279297"/>
      </g>
     </g>
    </g>
    <g id="ytick_3">
     <g id="line2d_17">
      <path d="M 80.822 115.490703 
L 306.255247 115.490703 
" clip-path="url(#pd1b74d448e)" style="fill: none; stroke: #b0b0b0; stroke-width: 0.8; stroke-linecap: square"/>
     </g>
     <g id="line2d_18">
      <g>
       <use xlink:href="#m4bd05d047c" x="80.822" y="115.490703" style="stroke: #000000; stroke-width: 0.8"/>
      </g>
     </g>
     <g id="text_10">
      <!-- 0.0002 -->
      <g transform="translate(38.831375 119.289922) scale(0.1 -0.1)">
       <use xlink:href="#DejaVuSans-30"/>
       <use xlink:href="#DejaVuSans-2e" x="63.623047"/>
       <use xlink:href="#DejaVuSans-30" x="95.410156"/>
       <use xlink:href="#DejaVuSans-30" x="159.033203"/>
       <use xlink:href="#DejaVuSans-30" x="222.65625"/>
       <use xlink:href="#DejaVuSans-32" x="286.279297"/>
      </g>
     </g>
    </g>
    <g id="ytick_4">
     <g id="line2d_19">
      <path d="M 80.822 91.886702 
L 306.255247 91.886702 
" clip-path="url(#pd1b74d448e)" style="fill: none; stroke: #b0b0b0; stroke-width: 0.8; stroke-linecap: square"/>
     </g>
     <g id="line2d_20">
      <g>
       <use xlink:href="#m4bd05d047c" x="80.822" y="91.886702" style="stroke: #000000; stroke-width: 0.8"/>
      </g>
     </g>
     <g id="text_11">
      <!-- 0.0004 -->
      <g transform="translate(38.831375 95.685921) scale(0.1 -0.1)">
       <use xlink:href="#DejaVuSans-30"/>
       <use xlink:href="#DejaVuSans-2e" x="63.623047"/>
       <use xlink:href="#DejaVuSans-30" x="95.410156"/>
       <use xlink:href="#DejaVuSans-30" x="159.033203"/>
       <use xlink:href="#DejaVuSans-30" x="222.65625"/>
       <use xlink:href="#DejaVuSans-34" x="286.279297"/>
      </g>
     </g>
    </g>
    <g id="ytick_5">
     <g id="line2d_21">
      <path d="M 80.822 68.282701 
L 306.255247 68.282701 
" clip-path="url(#pd1b74d448e)" style="fill: none; stroke: #b0b0b0; stroke-width: 0.8; stroke-linecap: square"/>
     </g>
     <g id="line2d_22">
      <g>
       <use xlink:href="#m4bd05d047c" x="80.822" y="68.282701" style="stroke: #000000; stroke-width: 0.8"/>
      </g>
     </g>
     <g id="text_12">
      <!-- 0.0006 -->
      <g transform="translate(38.831375 72.08192) scale(0.1 -0.1)">
       <use xlink:href="#DejaVuSans-30"/>
       <use xlink:href="#DejaVuSans-2e" x="63.623047"/>
       <use xlink:href="#DejaVuSans-30" x="95.410156"/>
       <use xlink:href="#DejaVuSans-30" x="159.033203"/>
       <use xlink:href="#DejaVuSans-30" x="222.65625"/>
       <use xlink:href="#DejaVuSans-36" x="286.279297"/>
      </g>
     </g>
    </g>
    <g id="ytick_6">
     <g id="line2d_23">
      <path d="M 80.822 44.6787 
L 306.255247 44.6787 
" clip-path="url(#pd1b74d448e)" style="fill: none; stroke: #b0b0b0; stroke-width: 0.8; stroke-linecap: square"/>
     </g>
     <g id="line2d_24">
      <g>
       <use xlink:href="#m4bd05d047c" x="80.822" y="44.6787" style="stroke: #000000; stroke-width: 0.8"/>
      </g>
     </g>
     <g id="text_13">
      <!-- 0.0008 -->
      <g transform="translate(38.831375 48.477919) scale(0.1 -0.1)">
       <defs>
        <path id="DejaVuSans-38" d="M 2034 2216 
Q 1584 2216 1326 1975 
Q 1069 1734 1069 1313 
Q 1069 891 1326 650 
Q 1584 409 2034 409 
Q 2484 409 2743 651 
Q 3003 894 3003 1313 
Q 3003 1734 2745 1975 
Q 2488 2216 2034 2216 
z
M 1403 2484 
Q 997 2584 770 2862 
Q 544 3141 544 3541 
Q 544 4100 942 4425 
Q 1341 4750 2034 4750 
Q 2731 4750 3128 4425 
Q 3525 4100 3525 3541 
Q 3525 3141 3298 2862 
Q 3072 2584 2669 2484 
Q 3125 2378 3379 2068 
Q 3634 1759 3634 1313 
Q 3634 634 3220 271 
Q 2806 -91 2034 -91 
Q 1263 -91 848 271 
Q 434 634 434 1313 
Q 434 1759 690 2068 
Q 947 2378 1403 2484 
z
M 1172 3481 
Q 1172 3119 1398 2916 
Q 1625 2713 2034 2713 
Q 2441 2713 2670 2916 
Q 2900 3119 2900 3481 
Q 2900 3844 2670 4047 
Q 2441 4250 2034 4250 
Q 1625 4250 1398 4047 
Q 1172 3844 1172 3481 
z
" transform="scale(0.015625)"/>
       </defs>
       <use xlink:href="#DejaVuSans-30"/>
       <use xlink:href="#DejaVuSans-2e" x="63.623047"/>
       <use xlink:href="#DejaVuSans-30" x="95.410156"/>
       <use xlink:href="#DejaVuSans-30" x="159.033203"/>
       <use xlink:href="#DejaVuSans-30" x="222.65625"/>
       <use xlink:href="#DejaVuSans-38" x="286.279297"/>
      </g>
     </g>
    </g>
    <g id="ytick_7">
     <g id="line2d_25">
      <path d="M 80.822 21.074699 
L 306.255247 21.074699 
" clip-path="url(#pd1b74d448e)" style="fill: none; stroke: #b0b0b0; stroke-width: 0.8; stroke-linecap: square"/>
     </g>
     <g id="line2d_26">
      <g>
       <use xlink:href="#m4bd05d047c" x="80.822" y="21.074699" style="stroke: #000000; stroke-width: 0.8"/>
      </g>
     </g>
     <g id="text_14">
      <!-- 0.0010 -->
      <g transform="translate(38.831375 24.873918) scale(0.1 -0.1)">
       <defs>
        <path id="DejaVuSans-31" d="M 794 531 
L 1825 531 
L 1825 4091 
L 703 3866 
L 703 4441 
L 1819 4666 
L 2450 4666 
L 2450 531 
L 3481 531 
L 3481 0 
L 794 0 
L 794 531 
z
" transform="scale(0.015625)"/>
       </defs>
       <use xlink:href="#DejaVuSans-30"/>
       <use xlink:href="#DejaVuSans-2e" x="63.623047"/>
       <use xlink:href="#DejaVuSans-30" x="95.410156"/>
       <use xlink:href="#DejaVuSans-30" x="159.033203"/>
       <use xlink:href="#DejaVuSans-31" x="222.65625"/>
       <use xlink:href="#DejaVuSans-30" x="286.279297"/>
      </g>
     </g>
    </g>
    <g id="text_15">
     <!-- d$T_C = T / \rho V^2 D^2$ / d$\alpha$ -->
     <g transform="translate(24.351687 139.32) rotate(-90) scale(0.1 -0.1)">
      <defs>
       <path id="DejaVuSans-64" d="M 2906 2969 
L 2906 4863 
L 3481 4863 
L 3481 0 
L 2906 0 
L 2906 525 
Q 2725 213 2448 61 
Q 2172 -91 1784 -91 
Q 1150 -91 751 415 
Q 353 922 353 1747 
Q 353 2572 751 3078 
Q 1150 3584 1784 3584 
Q 2172 3584 2448 3432 
Q 2725 3281 2906 2969 
z
M 947 1747 
Q 947 1113 1208 752 
Q 1469 391 1925 391 
Q 2381 391 2643 752 
Q 2906 1113 2906 1747 
Q 2906 2381 2643 2742 
Q 2381 3103 1925 3103 
Q 1469 3103 1208 2742 
Q 947 2381 947 1747 
z
" transform="scale(0.015625)"/>
       <path id="DejaVuSans-Oblique-54" d="M 378 4666 
L 4325 4666 
L 4225 4134 
L 2559 4134 
L 1759 0 
L 1125 0 
L 1925 4134 
L 275 4134 
L 378 4666 
z
" transform="scale(0.015625)"/>
       <path id="DejaVuSans-Oblique-43" d="M 4447 4306 
L 4319 3641 
Q 4019 3944 3683 4091 
Q 3347 4238 2956 4238 
Q 2422 4238 2017 3981 
Q 1613 3725 1319 3200 
Q 1131 2863 1032 2486 
Q 934 2109 934 1728 
Q 934 1091 1264 756 
Q 1594 422 2222 422 
Q 2656 422 3056 561 
Q 3456 700 3834 978 
L 3688 231 
Q 3316 72 2936 -9 
Q 2556 -91 2175 -91 
Q 1278 -91 773 396 
Q 269 884 269 1753 
Q 269 2309 461 2846 
Q 653 3384 1013 3828 
Q 1394 4300 1883 4525 
Q 2372 4750 3022 4750 
Q 3422 4750 3780 4639 
Q 4138 4528 4447 4306 
z
" transform="scale(0.015625)"/>
       <path id="DejaVuSans-3d" d="M 678 2906 
L 4684 2906 
L 4684 2381 
L 678 2381 
L 678 2906 
z
M 678 1631 
L 4684 1631 
L 4684 1100 
L 678 1100 
L 678 1631 
z
" transform="scale(0.015625)"/>
       <path id="DejaVuSans-2f" d="M 1625 4666 
L 2156 4666 
L 531 -594 
L 0 -594 
L 1625 4666 
z
" transform="scale(0.015625)"/>
       <path id="DejaVuSans-Oblique-3c1" d="M 1203 2875 
Q 1453 3194 1981 3475 
Q 2188 3584 2756 3584 
Q 3394 3584 3694 3078 
Q 3994 2572 3834 1747 
Q 3672 922 3175 415 
Q 2678 -91 2041 -91 
Q 1656 -91 1409 63 
Q 1163 213 1044 525 
L 681 -1331 
L 103 -1331 
L 697 1716 
Q 838 2438 1203 2875 
z
M 3238 1747 
Q 3359 2381 3169 2744 
Q 2978 3103 2522 3103 
Q 2066 3103 1734 2744 
Q 1403 2381 1281 1747 
Q 1156 1113 1347 750 
Q 1538 391 1994 391 
Q 2450 391 2781 750 
Q 3113 1113 3238 1747 
z
" transform="scale(0.015625)"/>
       <path id="DejaVuSans-Oblique-56" d="M 1319 0 
L 500 4666 
L 1119 4666 
L 1797 653 
L 4063 4666 
L 4750 4666 
L 2053 0 
L 1319 0 
z
" transform="scale(0.015625)"/>
       <path id="DejaVuSans-Oblique-44" d="M 1081 4666 
L 2438 4666 
Q 3519 4666 4070 4208 
Q 4622 3750 4622 2847 
Q 4622 2250 4412 1698 
Q 4203 1147 3834 769 
Q 3463 381 2891 190 
Q 2319 0 1538 0 
L 172 0 
L 1081 4666 
z
M 1613 4147 
L 909 519 
L 1734 519 
Q 2794 519 3375 1128 
Q 3956 1738 3956 2847 
Q 3956 3519 3581 3833 
Q 3206 4147 2406 4147 
L 1613 4147 
z
" transform="scale(0.015625)"/>
       <path id="DejaVuSans-20" transform="scale(0.015625)"/>
      </defs>
      <use xlink:href="#DejaVuSans-64" transform="translate(0 0.765625)"/>
      <use xlink:href="#DejaVuSans-Oblique-54" transform="translate(63.476562 0.765625)"/>
      <use xlink:href="#DejaVuSans-Oblique-43" transform="translate(124.560547 -15.640625) scale(0.7)"/>
      <use xlink:href="#DejaVuSans-3d" transform="translate(195.654297 0.765625)"/>
      <use xlink:href="#DejaVuSans-Oblique-54" transform="translate(298.925781 0.765625)"/>
      <use xlink:href="#DejaVuSans-2f" transform="translate(360.009766 0.765625)"/>
      <use xlink:href="#DejaVuSans-Oblique-3c1" transform="translate(393.701172 0.765625)"/>
      <use xlink:href="#DejaVuSans-Oblique-56" transform="translate(457.177734 0.765625)"/>
      <use xlink:href="#DejaVuSans-32" transform="translate(532.602708 39.046875) scale(0.7)"/>
      <use xlink:href="#DejaVuSans-Oblique-44" transform="translate(579.873216 0.765625)"/>
      <use xlink:href="#DejaVuSans-32" transform="translate(663.89194 39.046875) scale(0.7)"/>
      <use xlink:href="#DejaVuSans-20" transform="translate(711.162448 0.765625)"/>
      <use xlink:href="#DejaVuSans-2f" transform="translate(742.949557 0.765625)"/>
      <use xlink:href="#DejaVuSans-20" transform="translate(776.640964 0.765625)"/>
      <use xlink:href="#DejaVuSans-64" transform="translate(808.428073 0.765625)"/>
      <use xlink:href="#DejaVuSans-Oblique-3b1" transform="translate(871.904635 0.765625)"/>
     </g>
    </g>
   </g>
   <g id="line2d_27">
    <path d="M 91.068966 53.726148 
L 93.13906 52.44712 
L 95.209154 51.202135 
L 97.279248 49.991194 
L 99.349342 48.814297 
L 101.419436 47.671443 
L 103.48953 46.562634 
L 105.559624 45.487867 
L 107.629719 44.447145 
L 109.699813 43.440466 
L 111.769907 42.467831 
L 113.840001 41.529239 
L 115.910095 40.624691 
L 117.980189 39.754187 
L 120.050283 38.917726 
L 122.120377 38.115309 
L 124.190471 37.346935 
L 126.260565 36.612606 
L 128.33066 35.91232 
L 130.400754 35.246077 
L 132.470848 34.613878 
L 134.540942 34.015723 
L 136.611036 33.451612 
L 138.68113 32.921544 
L 140.751224 32.42552 
L 142.821318 31.963539 
L 144.891412 31.535602 
L 146.961506 31.141709 
L 149.031601 30.781859 
L 151.101695 30.456053 
L 153.171789 30.164291 
L 155.241883 29.906572 
L 157.311977 29.682898 
L 159.382071 29.493266 
L 161.452165 29.337678 
L 163.522259 29.216134 
L 165.592353 29.128634 
L 167.662447 29.075177 
L 169.732542 29.055764 
L 171.802636 29.070395 
L 173.87273 29.119069 
L 175.942824 29.201787 
L 178.012918 29.318548 
L 180.083012 29.469353 
L 182.153106 29.654202 
L 184.2232 29.873095 
L 186.293294 30.126031 
L 188.363388 30.413011 
L 190.433483 30.734034 
L 192.503577 31.089101 
L 194.573671 31.478212 
L 196.643765 31.901366 
L 198.713859 32.358564 
L 200.783953 32.849806 
L 202.854047 33.375091 
L 204.924141 33.93442 
L 206.994235 34.527793 
L 209.064329 35.155209 
L 211.134424 35.816669 
L 213.204518 36.512172 
L 215.274612 37.24172 
L 217.344706 38.00531 
L 219.4148 38.802945 
L 221.484894 39.634623 
L 223.554988 40.500345 
L 225.625082 41.40011 
L 227.695176 42.333919 
L 229.76527 43.301772 
L 231.835365 44.303669 
L 233.905459 45.339609 
L 235.975553 46.409592 
L 238.045647 47.51362 
L 240.115741 48.651691 
L 242.185835 49.823805 
L 244.255929 51.029964 
L 246.326023 52.270166 
L 248.396117 53.544411 
L 250.466211 54.8527 
L 252.536306 56.195033 
L 254.6064 57.57141 
L 256.676494 58.98183 
L 258.746588 60.426294 
L 260.816682 61.904801 
L 262.886776 63.417353 
L 264.95687 64.963947 
L 267.026964 66.544586 
L 269.097058 68.159268 
L 271.167152 69.807994 
L 273.237247 71.490763 
L 275.307341 73.207576 
L 277.377435 74.958433 
L 279.447529 76.743333 
L 281.517623 78.562277 
L 283.587717 80.415265 
L 285.657811 82.302296 
L 287.727905 84.223371 
L 289.797999 86.17849 
L 291.868093 88.167652 
L 293.938188 90.190858 
L 296.008282 92.248107 
" clip-path="url(#pd1b74d448e)" style="fill: none; stroke: #000080; stroke-width: 1.5; stroke-linecap: square"/>
   </g>
   <g id="line2d_28">
    <path d="M 91.068966 65.101297 
L 93.13906 63.331621 
L 95.209154 61.595988 
L 97.279248 59.894399 
L 99.349342 58.226853 
L 101.419436 56.593351 
L 103.48953 54.993893 
L 105.559624 53.428478 
L 107.629719 51.897107 
L 109.699813 50.39978 
L 111.769907 48.936497 
L 113.840001 47.507257 
L 115.910095 46.11206 
L 117.980189 44.750908 
L 120.050283 43.423799 
L 122.120377 42.130733 
L 124.190471 40.871711 
L 126.260565 39.646733 
L 128.33066 38.455799 
L 130.400754 37.298908 
L 132.470848 36.176061 
L 134.540942 35.087258 
L 136.611036 34.032498 
L 138.68113 33.011782 
L 140.751224 32.025109 
L 142.821318 31.07248 
L 144.891412 30.153895 
L 146.961506 29.269353 
L 149.031601 28.418855 
L 151.101695 27.602401 
L 153.171789 26.81999 
L 155.241883 26.071623 
L 157.311977 25.3573 
L 159.382071 24.67702 
L 161.452165 24.030784 
L 163.522259 23.418592 
L 165.592353 22.840443 
L 167.662447 22.296338 
L 169.732542 21.786277 
L 171.802636 21.310259 
L 173.87273 20.868285 
L 175.942824 20.460354 
L 178.012918 20.086468 
L 180.083012 19.746624 
L 182.153106 19.440825 
L 184.2232 19.169069 
L 186.293294 18.931357 
L 188.363388 18.727688 
L 190.433483 18.558063 
L 192.503577 18.422482 
L 194.573671 18.320944 
L 196.643765 18.25345 
L 198.713859 18.22 
L 200.783953 18.220593 
L 202.854047 18.25523 
L 204.924141 18.323911 
L 206.994235 18.426635 
L 209.064329 18.563403 
L 211.134424 18.734215 
L 213.204518 18.93907 
L 215.274612 19.177969 
L 217.344706 19.450911 
L 219.4148 19.757897 
L 221.484894 20.098927 
L 223.554988 20.474001 
L 225.625082 20.883118 
L 227.695176 21.326279 
L 229.76527 21.803483 
L 231.835365 22.314731 
L 233.905459 22.860023 
L 235.975553 23.439358 
L 238.045647 24.052737 
L 240.115741 24.70016 
L 242.185835 25.381626 
L 244.255929 26.097136 
L 246.326023 26.84669 
L 248.396117 27.630287 
L 250.466211 28.447928 
L 252.536306 29.299612 
L 254.6064 30.185341 
L 256.676494 31.105113 
L 258.746588 32.058928 
L 260.816682 33.046787 
L 262.886776 34.06869 
L 264.95687 35.124636 
L 267.026964 36.214627 
L 269.097058 37.33866 
L 271.167152 38.496738 
L 273.237247 39.688859 
L 275.307341 40.915024 
L 277.377435 42.175232 
L 279.447529 43.469484 
L 281.517623 44.79778 
L 283.587717 46.160119 
L 285.657811 47.556502 
L 287.727905 48.986928 
L 289.797999 50.451399 
L 291.868093 51.949913 
L 293.938188 53.48247 
L 296.008282 55.049071 
" clip-path="url(#pd1b74d448e)" style="fill: none; stroke: #0080ff; stroke-width: 1.5; stroke-linecap: square"/>
   </g>
   <g id="line2d_29">
    <path d="M 91.068966 70.503645 
L 93.13906 68.679356 
L 95.209154 66.88911 
L 97.279248 65.132907 
L 99.349342 63.410748 
L 101.419436 61.722633 
L 103.48953 60.068562 
L 105.559624 58.448534 
L 107.629719 56.86255 
L 109.699813 55.310609 
L 111.769907 53.792712 
L 113.840001 52.308859 
L 115.910095 50.85905 
L 117.980189 49.443284 
L 120.050283 48.061561 
L 122.120377 46.713883 
L 124.190471 45.400248 
L 126.260565 44.120657 
L 128.33066 42.875109 
L 130.400754 41.663605 
L 132.470848 40.486144 
L 134.540942 39.342728 
L 136.611036 38.233355 
L 138.68113 37.158025 
L 140.751224 36.116739 
L 142.821318 35.109497 
L 144.891412 34.136299 
L 146.961506 33.197144 
L 149.031601 32.292033 
L 151.101695 31.420965 
L 153.171789 30.583941 
L 155.241883 29.780961 
L 157.311977 29.012025 
L 159.382071 28.277132 
L 161.452165 27.576282 
L 163.522259 26.909477 
L 165.592353 26.276715 
L 167.662447 25.677996 
L 169.732542 25.113322 
L 171.802636 24.582691 
L 173.87273 24.086103 
L 175.942824 23.62356 
L 178.012918 23.19506 
L 180.083012 22.800603 
L 182.153106 22.44019 
L 184.2232 22.113821 
L 186.293294 21.821496 
L 188.363388 21.563214 
L 190.433483 21.338976 
L 192.503577 21.148781 
L 194.573671 20.99263 
L 196.643765 20.870523 
L 198.713859 20.782459 
L 200.783953 20.72844 
L 202.854047 20.708463 
L 204.924141 20.722531 
L 206.994235 20.770642 
L 209.064329 20.852796 
L 211.134424 20.968995 
L 213.204518 21.119237 
L 215.274612 21.303522 
L 217.344706 21.521851 
L 219.4148 21.774224 
L 221.484894 22.060641 
L 223.554988 22.381101 
L 225.625082 22.735605 
L 227.695176 23.124153 
L 229.76527 23.546744 
L 231.835365 24.003379 
L 233.905459 24.494057 
L 235.975553 25.018779 
L 238.045647 25.577545 
L 240.115741 26.170354 
L 242.185835 26.797207 
L 244.255929 27.458104 
L 246.326023 28.153044 
L 248.396117 28.882029 
L 250.466211 29.645056 
L 252.536306 30.442127 
L 254.6064 31.273242 
L 256.676494 32.138401 
L 258.746588 33.037603 
L 260.816682 33.970849 
L 262.886776 34.938139 
L 264.95687 35.939472 
L 267.026964 36.974849 
L 269.097058 38.044269 
L 271.167152 39.147734 
L 273.237247 40.285241 
L 275.307341 41.456793 
L 277.377435 42.662388 
L 279.447529 43.902027 
L 281.517623 45.175709 
L 283.587717 46.483435 
L 285.657811 47.825205 
L 287.727905 49.201018 
L 289.797999 50.610875 
L 291.868093 52.054776 
L 293.938188 53.53272 
L 296.008282 55.044708 
" clip-path="url(#pd1b74d448e)" style="fill: none; stroke: #7dff7a; stroke-width: 1.5; stroke-linecap: square"/>
   </g>
   <g id="line2d_30">
    <path d="M 91.068966 69.933193 
L 93.13906 68.490325 
L 95.209154 67.081501 
L 97.279248 65.70672 
L 99.349342 64.365983 
L 101.419436 63.05929 
L 103.48953 61.78664 
L 105.559624 60.548034 
L 107.629719 59.343472 
L 109.699813 58.172953 
L 111.769907 57.036478 
L 113.840001 55.934047 
L 115.910095 54.865659 
L 117.980189 53.831315 
L 120.050283 52.831015 
L 122.120377 51.864758 
L 124.190471 50.932545 
L 126.260565 50.034375 
L 128.33066 49.170249 
L 130.400754 48.340167 
L 132.470848 47.544129 
L 134.540942 46.782134 
L 136.611036 46.054182 
L 138.68113 45.360275 
L 140.751224 44.700411 
L 142.821318 44.074591 
L 144.891412 43.482814 
L 146.961506 42.925081 
L 149.031601 42.401392 
L 151.101695 41.911746 
L 153.171789 41.456144 
L 155.241883 41.034586 
L 157.311977 40.647071 
L 159.382071 40.2936 
L 161.452165 39.974172 
L 163.522259 39.688789 
L 165.592353 39.437448 
L 167.662447 39.220152 
L 169.732542 39.036899 
L 171.802636 38.88769 
L 173.87273 38.772524 
L 175.942824 38.691402 
L 178.012918 38.644324 
L 180.083012 38.63129 
L 182.153106 38.652299 
L 184.2232 38.707351 
L 186.293294 38.796448 
L 188.363388 38.919588 
L 190.433483 39.076771 
L 192.503577 39.267999 
L 194.573671 39.49327 
L 196.643765 39.752584 
L 198.713859 40.045943 
L 200.783953 40.373344 
L 202.854047 40.73479 
L 204.924141 41.130279 
L 206.994235 41.559812 
L 209.064329 42.023389 
L 211.134424 42.521009 
L 213.204518 43.052673 
L 215.274612 43.61838 
L 217.344706 44.218131 
L 219.4148 44.851926 
L 221.484894 45.519764 
L 223.554988 46.221646 
L 225.625082 46.957572 
L 227.695176 47.727541 
L 229.76527 48.531554 
L 231.835365 49.369611 
L 233.905459 50.241711 
L 235.975553 51.147855 
L 238.045647 52.088043 
L 240.115741 53.062274 
L 242.185835 54.070549 
L 244.255929 55.112868 
L 246.326023 56.18923 
L 248.396117 57.299636 
L 250.466211 58.444085 
L 252.536306 59.622578 
L 254.6064 60.835115 
L 256.676494 62.081696 
L 258.746588 63.36232 
L 260.816682 64.676987 
L 262.886776 66.025699 
L 264.95687 67.408454 
L 267.026964 68.825253 
L 269.097058 70.276095 
L 271.167152 71.760981 
L 273.237247 73.279911 
L 275.307341 74.832884 
L 277.377435 76.419901 
L 279.447529 78.040962 
L 281.517623 79.696066 
L 283.587717 81.385214 
L 285.657811 83.108405 
L 287.727905 84.86564 
L 289.797999 86.656919 
L 291.868093 88.482242 
L 293.938188 90.341608 
L 296.008282 92.235018 
" clip-path="url(#pd1b74d448e)" style="fill: none; stroke: #ff9400; stroke-width: 1.5; stroke-linecap: square"/>
   </g>
   <g id="line2d_31">
    <path d="M 91.068966 63.389939 
L 93.13906 62.764528 
L 95.209154 62.173161 
L 97.279248 61.615837 
L 99.349342 61.092557 
L 101.419436 60.603321 
L 103.48953 60.148128 
L 105.559624 59.726979 
L 107.629719 59.339874 
L 109.699813 58.986812 
L 111.769907 58.667794 
L 113.840001 58.382819 
L 115.910095 58.131889 
L 117.980189 57.915001 
L 120.050283 57.732158 
L 122.120377 57.583358 
L 124.190471 57.468602 
L 126.260565 57.387889 
L 128.33066 57.34122 
L 130.400754 57.328595 
L 132.470848 57.350014 
L 134.540942 57.405476 
L 136.611036 57.494981 
L 138.68113 57.618531 
L 140.751224 57.776124 
L 142.821318 57.96776 
L 144.891412 58.193441 
L 146.961506 58.453164 
L 149.031601 58.746932 
L 151.101695 59.074743 
L 153.171789 59.436598 
L 155.241883 59.832497 
L 157.311977 60.262439 
L 159.382071 60.726425 
L 161.452165 61.224454 
L 163.522259 61.756527 
L 165.592353 62.322644 
L 167.662447 62.922805 
L 169.732542 63.557009 
L 171.802636 64.225256 
L 173.87273 64.927548 
L 175.942824 65.663883 
L 178.012918 66.434262 
L 180.083012 67.238684 
L 182.153106 68.07715 
L 184.2232 68.94966 
L 186.293294 69.856213 
L 188.363388 70.79681 
L 190.433483 71.77145 
L 192.503577 72.780135 
L 194.573671 73.822862 
L 196.643765 74.899634 
L 198.713859 76.010449 
L 200.783953 77.155308 
L 202.854047 78.33421 
L 204.924141 79.547157 
L 206.994235 80.794146 
L 209.064329 82.07518 
L 211.134424 83.390257 
L 213.204518 84.739378 
L 215.274612 86.122542 
L 217.344706 87.53975 
L 219.4148 88.991002 
L 221.484894 90.476297 
L 223.554988 91.995636 
L 225.625082 93.549019 
L 227.695176 95.136445 
L 229.76527 96.757915 
L 231.835365 98.413429 
L 233.905459 100.102986 
L 235.975553 101.826587 
L 238.045647 103.584231 
L 240.115741 105.375919 
L 242.185835 107.201651 
L 244.255929 109.061427 
L 246.326023 110.955246 
L 248.396117 112.883109 
L 250.466211 114.845015 
L 252.536306 116.840965 
L 254.6064 118.870959 
L 256.676494 120.934996 
L 258.746588 123.033077 
L 260.816682 125.165202 
L 262.886776 127.33137 
L 264.95687 129.531582 
L 267.026964 131.765838 
L 269.097058 134.034137 
L 271.167152 136.33648 
L 273.237247 138.672867 
L 275.307341 141.043297 
L 277.377435 143.447771 
L 279.447529 145.886288 
L 281.517623 148.35885 
L 283.587717 150.865454 
L 285.657811 153.406103 
L 287.727905 155.980795 
L 289.797999 158.589531 
L 291.868093 161.23231 
L 293.938188 163.909133 
L 296.008282 166.62 
" clip-path="url(#pd1b74d448e)" style="fill: none; stroke: #800000; stroke-width: 1.5; stroke-linecap: square"/>
   </g>
   <g id="patch_3">
    <path d="M 80.822 174.04 
L 80.822 10.8 
" style="fill: none; stroke: #000000; stroke-width: 0.8; stroke-linejoin: miter; stroke-linecap: square"/>
   </g>
   <g id="patch_4">
    <path d="M 306.255247 174.04 
L 306.255247 10.8 
" style="fill: none; stroke: #000000; stroke-width: 0.8; stroke-linejoin: miter; stroke-linecap: square"/>
   </g>
   <g id="patch_5">
    <path d="M 80.822 174.04 
L 306.255247 174.04 
" style="fill: none; stroke: #000000; stroke-width: 0.8; stroke-linejoin: miter; stroke-linecap: square"/>
   </g>
   <g id="patch_6">
    <path d="M 80.822 10.8 
L 306.255247 10.8 
" style="fill: none; stroke: #000000; stroke-width: 0.8; stroke-linejoin: miter; stroke-linecap: square"/>
   </g>
   <g id="legend_1">
    <g id="patch_7">
     <path d="M 315.255247 162.878 
L 420.455247 162.878 
Q 422.455247 162.878 422.455247 160.878 
L 422.455247 88.385812 
Q 422.455247 86.385812 420.455247 86.385812 
L 315.255247 86.385812 
Q 313.255247 86.385812 313.255247 88.385812 
L 313.255247 160.878 
Q 313.255247 162.878 315.255247 162.878 
z
" style="fill: #4d4d4d; opacity: 0.5; stroke: #4d4d4d; stroke-linejoin: miter"/>
    </g>
    <g id="patch_8">
     <path d="M 313.255247 160.878 
L 418.455247 160.878 
Q 420.455247 160.878 420.455247 158.878 
L 420.455247 86.385812 
Q 420.455247 84.385812 418.455247 84.385812 
L 313.255247 84.385812 
Q 311.255247 84.385812 311.255247 86.385812 
L 311.255247 158.878 
Q 311.255247 160.878 313.255247 160.878 
z
" style="fill: #ffffff; stroke: #cccccc; stroke-linejoin: miter"/>
    </g>
    <g id="line2d_32">
     <path d="M 315.255247 92.48425 
L 325.255247 92.48425 
L 335.255247 92.48425 
" style="fill: none; stroke: #000080; stroke-width: 1.5; stroke-linecap: square"/>
    </g>
    <g id="text_16">
     <!-- $\delta_e = 0$, $J = 1.60$ -->
     <g transform="translate(343.255247 95.98425) scale(0.1 -0.1)">
      <defs>
       <path id="DejaVuSans-Oblique-3b4" d="M 3472 4053 
Q 3197 4272 2450 4272 
Q 1659 4272 1588 3906 
Q 1531 3619 2328 3469 
Q 2953 3353 3253 3003 
Q 3616 2581 3447 1716 
Q 3284 888 2763 400 
Q 2238 -91 1488 -91 
Q 741 -91 406 400 
Q 72 888 241 1747 
Q 363 2384 891 2900 
Q 1097 3100 1353 3213 
Q 913 3459 1000 3900 
Q 1166 4750 2544 4750 
Q 3234 4750 3566 4531 
L 3472 4053 
z
M 1753 3056 
Q 1525 2966 1306 2738 
Q 969 2384 847 1747 
Q 722 1113 919 756 
Q 1119 397 1584 397 
Q 2044 397 2381 759 
Q 2722 1122 2838 1716 
Q 2956 2338 2731 2638 
Q 2491 2959 2103 2994 
Q 1906 3013 1753 3056 
z
" transform="scale(0.015625)"/>
       <path id="DejaVuSans-Oblique-65" d="M 3078 2063 
Q 3088 2113 3092 2166 
Q 3097 2219 3097 2272 
Q 3097 2653 2873 2875 
Q 2650 3097 2266 3097 
Q 1838 3097 1509 2826 
Q 1181 2556 1013 2059 
L 3078 2063 
z
M 3578 1613 
L 903 1613 
Q 884 1494 878 1425 
Q 872 1356 872 1306 
Q 872 872 1139 634 
Q 1406 397 1894 397 
Q 2269 397 2603 481 
Q 2938 566 3225 728 
L 3116 159 
Q 2806 34 2476 -28 
Q 2147 -91 1806 -91 
Q 1078 -91 686 257 
Q 294 606 294 1247 
Q 294 1794 489 2264 
Q 684 2734 1063 3103 
Q 1306 3334 1642 3459 
Q 1978 3584 2356 3584 
Q 2950 3584 3301 3228 
Q 3653 2872 3653 2272 
Q 3653 2128 3634 1964 
Q 3616 1800 3578 1613 
z
" transform="scale(0.015625)"/>
       <path id="DejaVuSans-2c" d="M 750 794 
L 1409 794 
L 1409 256 
L 897 -744 
L 494 -744 
L 750 256 
L 750 794 
z
" transform="scale(0.015625)"/>
       <path id="DejaVuSans-Oblique-4a" d="M 1069 4666 
L 1703 4666 
L 856 325 
Q 691 -522 298 -901 
Q -94 -1281 -800 -1281 
L -1050 -1281 
L -947 -750 
L -750 -750 
Q -328 -750 -109 -509 
Q 109 -269 225 325 
L 1069 4666 
z
" transform="scale(0.015625)"/>
      </defs>
      <use xlink:href="#DejaVuSans-Oblique-3b4" transform="translate(0 0.78125)"/>
      <use xlink:href="#DejaVuSans-Oblique-65" transform="translate(61.181641 -15.625) scale(0.7)"/>
      <use xlink:href="#DejaVuSans-3d" transform="translate(126.464844 0.78125)"/>
      <use xlink:href="#DejaVuSans-30" transform="translate(229.736328 0.78125)"/>
      <use xlink:href="#DejaVuSans-2c" transform="translate(293.359375 0.78125)"/>
      <use xlink:href="#DejaVuSans-20" transform="translate(325.146484 0.78125)"/>
      <use xlink:href="#DejaVuSans-Oblique-4a" transform="translate(356.933594 0.78125)"/>
      <use xlink:href="#DejaVuSans-3d" transform="translate(405.908203 0.78125)"/>
      <use xlink:href="#DejaVuSans-31" transform="translate(509.179688 0.78125)"/>
      <use xlink:href="#DejaVuSans-2e" transform="translate(572.802734 0.78125)"/>
      <use xlink:href="#DejaVuSans-36" transform="translate(604.589844 0.78125)"/>
      <use xlink:href="#DejaVuSans-30" transform="translate(668.212891 0.78125)"/>
     </g>
    </g>
    <g id="line2d_33">
     <path d="M 315.255247 107.182688 
L 325.255247 107.182688 
L 335.255247 107.182688 
" style="fill: none; stroke: #0080ff; stroke-width: 1.5; stroke-linecap: square"/>
    </g>
    <g id="text_17">
     <!-- $\delta_e = 0$, $J = 1.80$ -->
     <g transform="translate(343.255247 110.682688) scale(0.1 -0.1)">
      <use xlink:href="#DejaVuSans-Oblique-3b4" transform="translate(0 0.78125)"/>
      <use xlink:href="#DejaVuSans-Oblique-65" transform="translate(61.181641 -15.625) scale(0.7)"/>
      <use xlink:href="#DejaVuSans-3d" transform="translate(126.464844 0.78125)"/>
      <use xlink:href="#DejaVuSans-30" transform="translate(229.736328 0.78125)"/>
      <use xlink:href="#DejaVuSans-2c" transform="translate(293.359375 0.78125)"/>
      <use xlink:href="#DejaVuSans-20" transform="translate(325.146484 0.78125)"/>
      <use xlink:href="#DejaVuSans-Oblique-4a" transform="translate(356.933594 0.78125)"/>
      <use xlink:href="#DejaVuSans-3d" transform="translate(405.908203 0.78125)"/>
      <use xlink:href="#DejaVuSans-31" transform="translate(509.179688 0.78125)"/>
      <use xlink:href="#DejaVuSans-2e" transform="translate(572.802734 0.78125)"/>
      <use xlink:href="#DejaVuSans-38" transform="translate(601.964844 0.78125)"/>
      <use xlink:href="#DejaVuSans-30" transform="translate(665.587891 0.78125)"/>
     </g>
    </g>
    <g id="line2d_34">
     <path d="M 315.255247 121.881125 
L 325.255247 121.881125 
L 335.255247 121.881125 
" style="fill: none; stroke: #7dff7a; stroke-width: 1.5; stroke-linecap: square"/>
    </g>
    <g id="text_18">
     <!-- $\delta_e = 0$, $J = 2.00$ -->
     <g transform="translate(343.255247 125.381125) scale(0.1 -0.1)">
      <use xlink:href="#DejaVuSans-Oblique-3b4" transform="translate(0 0.78125)"/>
      <use xlink:href="#DejaVuSans-Oblique-65" transform="translate(61.181641 -15.625) scale(0.7)"/>
      <use xlink:href="#DejaVuSans-3d" transform="translate(126.464844 0.78125)"/>
      <use xlink:href="#DejaVuSans-30" transform="translate(229.736328 0.78125)"/>
      <use xlink:href="#DejaVuSans-2c" transform="translate(293.359375 0.78125)"/>
      <use xlink:href="#DejaVuSans-20" transform="translate(325.146484 0.78125)"/>
      <use xlink:href="#DejaVuSans-Oblique-4a" transform="translate(356.933594 0.78125)"/>
      <use xlink:href="#DejaVuSans-3d" transform="translate(405.908203 0.78125)"/>
      <use xlink:href="#DejaVuSans-32" transform="translate(509.179688 0.78125)"/>
      <use xlink:href="#DejaVuSans-2e" transform="translate(572.802734 0.78125)"/>
      <use xlink:href="#DejaVuSans-30" transform="translate(604.589844 0.78125)"/>
      <use xlink:href="#DejaVuSans-30" transform="translate(668.212891 0.78125)"/>
     </g>
    </g>
    <g id="line2d_35">
     <path d="M 315.255247 136.579563 
L 325.255247 136.579563 
L 335.255247 136.579563 
" style="fill: none; stroke: #ff9400; stroke-width: 1.5; stroke-linecap: square"/>
    </g>
    <g id="text_19">
     <!-- $\delta_e = 0$, $J = 2.20$ -->
     <g transform="translate(343.255247 140.079563) scale(0.1 -0.1)">
      <use xlink:href="#DejaVuSans-Oblique-3b4" transform="translate(0 0.78125)"/>
      <use xlink:href="#DejaVuSans-Oblique-65" transform="translate(61.181641 -15.625) scale(0.7)"/>
      <use xlink:href="#DejaVuSans-3d" transform="translate(126.464844 0.78125)"/>
      <use xlink:href="#DejaVuSans-30" transform="translate(229.736328 0.78125)"/>
      <use xlink:href="#DejaVuSans-2c" transform="translate(293.359375 0.78125)"/>
      <use xlink:href="#DejaVuSans-20" transform="translate(325.146484 0.78125)"/>
      <use xlink:href="#DejaVuSans-Oblique-4a" transform="translate(356.933594 0.78125)"/>
      <use xlink:href="#DejaVuSans-3d" transform="translate(405.908203 0.78125)"/>
      <use xlink:href="#DejaVuSans-32" transform="translate(509.179688 0.78125)"/>
      <use xlink:href="#DejaVuSans-2e" transform="translate(572.802734 0.78125)"/>
      <use xlink:href="#DejaVuSans-32" transform="translate(599.089844 0.78125)"/>
      <use xlink:href="#DejaVuSans-30" transform="translate(662.712891 0.78125)"/>
     </g>
    </g>
    <g id="line2d_36">
     <path d="M 315.255247 151.278 
L 325.255247 151.278 
L 335.255247 151.278 
" style="fill: none; stroke: #800000; stroke-width: 1.5; stroke-linecap: square"/>
    </g>
    <g id="text_20">
     <!-- $\delta_e = 0$, $J = 2.40$ -->
     <g transform="translate(343.255247 154.778) scale(0.1 -0.1)">
      <use xlink:href="#DejaVuSans-Oblique-3b4" transform="translate(0 0.78125)"/>
      <use xlink:href="#DejaVuSans-Oblique-65" transform="translate(61.181641 -15.625) scale(0.7)"/>
      <use xlink:href="#DejaVuSans-3d" transform="translate(126.464844 0.78125)"/>
      <use xlink:href="#DejaVuSans-30" transform="translate(229.736328 0.78125)"/>
      <use xlink:href="#DejaVuSans-2c" transform="translate(293.359375 0.78125)"/>
      <use xlink:href="#DejaVuSans-20" transform="translate(325.146484 0.78125)"/>
      <use xlink:href="#DejaVuSans-Oblique-4a" transform="translate(356.933594 0.78125)"/>
      <use xlink:href="#DejaVuSans-3d" transform="translate(405.908203 0.78125)"/>
      <use xlink:href="#DejaVuSans-32" transform="translate(509.179688 0.78125)"/>
      <use xlink:href="#DejaVuSans-2e" transform="translate(572.802734 0.78125)"/>
      <use xlink:href="#DejaVuSans-34" transform="translate(604.589844 0.78125)"/>
      <use xlink:href="#DejaVuSans-30" transform="translate(668.212891 0.78125)"/>
     </g>
    </g>
   </g>
  </g>
 </g>
 <defs>
  <clipPath id="pd1b74d448e">
   <rect x="80.822" y="10.8" width="225.433247" height="163.24"/>
  </clipPath>
 </defs>
</svg>
