<?xml version="1.0" encoding="utf-8" standalone="no"?>
<!DOCTYPE svg PUBLIC "-//W3C//DTD SVG 1.1//EN"
  "http://www.w3.org/Graphics/SVG/1.1/DTD/svg11.dtd">
<svg xmlns:xlink="http://www.w3.org/1999/xlink" width="576pt" height="216pt" viewBox="0 0 576 216" xmlns="http://www.w3.org/2000/svg" version="1.1">
 <metadata>
  <rdf:RDF xmlns:dc="http://purl.org/dc/elements/1.1/" xmlns:cc="http://creativecommons.org/ns#" xmlns:rdf="http://www.w3.org/1999/02/22-rdf-syntax-ns#">
   <cc:Work>
    <dc:type rdf:resource="http://purl.org/dc/dcmitype/StillImage"/>
    <dc:date>2025-03-27T20:38:16.690614</dc:date>
    <dc:format>image/svg+xml</dc:format>
    <dc:creator>
     <cc:Agent>
      <dc:title>Matplotlib v3.9.2, https://matplotlib.org/</dc:title>
     </cc:Agent>
    </dc:creator>
   </cc:Work>
  </rdf:RDF>
 </metadata>
 <defs>
  <style type="text/css">*{stroke-linejoin: round; stroke-linecap: butt}</style>
 </defs>
 <g id="figure_1">
  <g id="patch_1">
   <path d="M 0 216 
L 576 216 
L 576 0 
L 0 0 
z
" style="fill: #ffffff"/>
  </g>
  <g id="axes_1">
   <g id="patch_2">
    <path d="M 68.042 174.04 
L 431.617856 174.04 
L 431.617856 10.8 
L 68.042 10.8 
z
" style="fill: #ffffff"/>
   </g>
   <g id="matplotlib.axis_1">
    <g id="xtick_1">
     <g id="line2d_1">
      <path d="M 84.568175 174.04 
L 84.568175 10.8 
" clip-path="url(#p88cb34cebc)" style="fill: none; stroke: #b0b0b0; stroke-width: 0.8; stroke-linecap: square"/>
     </g>
     <g id="line2d_2">
      <defs>
       <path id="m1b23b30ca5" d="M 0 0 
L 0 3.5 
" style="stroke: #000000; stroke-width: 0.8"/>
      </defs>
      <g>
       <use xlink:href="#m1b23b30ca5" x="84.568175" y="174.04" style="stroke: #000000; stroke-width: 0.8"/>
      </g>
     </g>
     <g id="text_1">
      <!-- −4 -->
      <g transform="translate(77.197082 188.638438) scale(0.1 -0.1)">
       <defs>
        <path id="DejaVuSans-2212" d="M 678 2272 
L 4684 2272 
L 4684 1741 
L 678 1741 
L 678 2272 
z
" transform="scale(0.015625)"/>
        <path id="DejaVuSans-34" d="M 2419 4116 
L 825 1625 
L 2419 1625 
L 2419 4116 
z
M 2253 4666 
L 3047 4666 
L 3047 1625 
L 3713 1625 
L 3713 1100 
L 3047 1100 
L 3047 0 
L 2419 0 
L 2419 1100 
L 313 1100 
L 313 1709 
L 2253 4666 
z
" transform="scale(0.015625)"/>
       </defs>
       <use xlink:href="#DejaVuSans-2212"/>
       <use xlink:href="#DejaVuSans-34" x="83.789062"/>
      </g>
     </g>
    </g>
    <g id="xtick_2">
     <g id="line2d_3">
      <path d="M 144.663358 174.04 
L 144.663358 10.8 
" clip-path="url(#p88cb34cebc)" style="fill: none; stroke: #b0b0b0; stroke-width: 0.8; stroke-linecap: square"/>
     </g>
     <g id="line2d_4">
      <g>
       <use xlink:href="#m1b23b30ca5" x="144.663358" y="174.04" style="stroke: #000000; stroke-width: 0.8"/>
      </g>
     </g>
     <g id="text_2">
      <!-- −2 -->
      <g transform="translate(137.292264 188.638438) scale(0.1 -0.1)">
       <defs>
        <path id="DejaVuSans-32" d="M 1228 531 
L 3431 531 
L 3431 0 
L 469 0 
L 469 531 
Q 828 903 1448 1529 
Q 2069 2156 2228 2338 
Q 2531 2678 2651 2914 
Q 2772 3150 2772 3378 
Q 2772 3750 2511 3984 
Q 2250 4219 1831 4219 
Q 1534 4219 1204 4116 
Q 875 4013 500 3803 
L 500 4441 
Q 881 4594 1212 4672 
Q 1544 4750 1819 4750 
Q 2544 4750 2975 4387 
Q 3406 4025 3406 3419 
Q 3406 3131 3298 2873 
Q 3191 2616 2906 2266 
Q 2828 2175 2409 1742 
Q 1991 1309 1228 531 
z
" transform="scale(0.015625)"/>
       </defs>
       <use xlink:href="#DejaVuSans-2212"/>
       <use xlink:href="#DejaVuSans-32" x="83.789062"/>
      </g>
     </g>
    </g>
    <g id="xtick_3">
     <g id="line2d_5">
      <path d="M 204.758541 174.04 
L 204.758541 10.8 
" clip-path="url(#p88cb34cebc)" style="fill: none; stroke: #b0b0b0; stroke-width: 0.8; stroke-linecap: square"/>
     </g>
     <g id="line2d_6">
      <g>
       <use xlink:href="#m1b23b30ca5" x="204.758541" y="174.04" style="stroke: #000000; stroke-width: 0.8"/>
      </g>
     </g>
     <g id="text_3">
      <!-- 0 -->
      <g transform="translate(201.577291 188.638438) scale(0.1 -0.1)">
       <defs>
        <path id="DejaVuSans-30" d="M 2034 4250 
Q 1547 4250 1301 3770 
Q 1056 3291 1056 2328 
Q 1056 1369 1301 889 
Q 1547 409 2034 409 
Q 2525 409 2770 889 
Q 3016 1369 3016 2328 
Q 3016 3291 2770 3770 
Q 2525 4250 2034 4250 
z
M 2034 4750 
Q 2819 4750 3233 4129 
Q 3647 3509 3647 2328 
Q 3647 1150 3233 529 
Q 2819 -91 2034 -91 
Q 1250 -91 836 529 
Q 422 1150 422 2328 
Q 422 3509 836 4129 
Q 1250 4750 2034 4750 
z
" transform="scale(0.015625)"/>
       </defs>
       <use xlink:href="#DejaVuSans-30"/>
      </g>
     </g>
    </g>
    <g id="xtick_4">
     <g id="line2d_7">
      <path d="M 264.853724 174.04 
L 264.853724 10.8 
" clip-path="url(#p88cb34cebc)" style="fill: none; stroke: #b0b0b0; stroke-width: 0.8; stroke-linecap: square"/>
     </g>
     <g id="line2d_8">
      <g>
       <use xlink:href="#m1b23b30ca5" x="264.853724" y="174.04" style="stroke: #000000; stroke-width: 0.8"/>
      </g>
     </g>
     <g id="text_4">
      <!-- 2 -->
      <g transform="translate(261.672474 188.638438) scale(0.1 -0.1)">
       <use xlink:href="#DejaVuSans-32"/>
      </g>
     </g>
    </g>
    <g id="xtick_5">
     <g id="line2d_9">
      <path d="M 324.948906 174.04 
L 324.948906 10.8 
" clip-path="url(#p88cb34cebc)" style="fill: none; stroke: #b0b0b0; stroke-width: 0.8; stroke-linecap: square"/>
     </g>
     <g id="line2d_10">
      <g>
       <use xlink:href="#m1b23b30ca5" x="324.948906" y="174.04" style="stroke: #000000; stroke-width: 0.8"/>
      </g>
     </g>
     <g id="text_5">
      <!-- 4 -->
      <g transform="translate(321.767656 188.638438) scale(0.1 -0.1)">
       <use xlink:href="#DejaVuSans-34"/>
      </g>
     </g>
    </g>
    <g id="xtick_6">
     <g id="line2d_11">
      <path d="M 385.044089 174.04 
L 385.044089 10.8 
" clip-path="url(#p88cb34cebc)" style="fill: none; stroke: #b0b0b0; stroke-width: 0.8; stroke-linecap: square"/>
     </g>
     <g id="line2d_12">
      <g>
       <use xlink:href="#m1b23b30ca5" x="385.044089" y="174.04" style="stroke: #000000; stroke-width: 0.8"/>
      </g>
     </g>
     <g id="text_6">
      <!-- 6 -->
      <g transform="translate(381.862839 188.638438) scale(0.1 -0.1)">
       <defs>
        <path id="DejaVuSans-36" d="M 2113 2584 
Q 1688 2584 1439 2293 
Q 1191 2003 1191 1497 
Q 1191 994 1439 701 
Q 1688 409 2113 409 
Q 2538 409 2786 701 
Q 3034 994 3034 1497 
Q 3034 2003 2786 2293 
Q 2538 2584 2113 2584 
z
M 3366 4563 
L 3366 3988 
Q 3128 4100 2886 4159 
Q 2644 4219 2406 4219 
Q 1781 4219 1451 3797 
Q 1122 3375 1075 2522 
Q 1259 2794 1537 2939 
Q 1816 3084 2150 3084 
Q 2853 3084 3261 2657 
Q 3669 2231 3669 1497 
Q 3669 778 3244 343 
Q 2819 -91 2113 -91 
Q 1303 -91 875 529 
Q 447 1150 447 2328 
Q 447 3434 972 4092 
Q 1497 4750 2381 4750 
Q 2619 4750 2861 4703 
Q 3103 4656 3366 4563 
z
" transform="scale(0.015625)"/>
       </defs>
       <use xlink:href="#DejaVuSans-36"/>
      </g>
     </g>
    </g>
    <g id="text_7">
     <!-- $\alpha$ -->
     <g transform="translate(246.529928 202.316563) scale(0.1 -0.1)">
      <defs>
       <path id="DejaVuSans-Oblique-3b1" d="M 2619 1628 
L 2622 2350 
Q 2625 3088 2069 3091 
Q 1653 3094 1394 2747 
Q 1069 2319 959 1747 
Q 825 1059 994 731 
Q 1169 397 1547 397 
Q 1966 397 2319 1063 
L 2619 1628 
z
M 2166 3578 
Q 3141 3594 3128 2584 
Q 3128 2584 3616 3500 
L 4128 3500 
L 3119 1603 
L 3109 919 
Q 3109 766 3194 638 
Q 3291 488 3391 488 
L 3669 488 
L 3575 0 
L 3228 0 
Q 2934 0 2722 263 
Q 2622 394 2619 669 
Q 2416 334 2066 50 
Q 1900 -81 1453 -78 
Q 722 -72 456 397 
Q 184 884 353 1747 
Q 534 2675 1009 3097 
Q 1544 3569 2166 3578 
z
" transform="scale(0.015625)"/>
      </defs>
      <use xlink:href="#DejaVuSans-Oblique-3b1" transform="translate(0 0.84375)"/>
     </g>
    </g>
   </g>
   <g id="matplotlib.axis_2">
    <g id="ytick_1">
     <g id="line2d_13">
      <path d="M 68.042 168.285214 
L 431.617856 168.285214 
" clip-path="url(#p88cb34cebc)" style="fill: none; stroke: #b0b0b0; stroke-width: 0.8; stroke-linecap: square"/>
     </g>
     <g id="line2d_14">
      <defs>
       <path id="m5436ad6a30" d="M 0 0 
L -3.5 0 
" style="stroke: #000000; stroke-width: 0.8"/>
      </defs>
      <g>
       <use xlink:href="#m5436ad6a30" x="68.042" y="168.285214" style="stroke: #000000; stroke-width: 0.8"/>
      </g>
     </g>
     <g id="text_8">
      <!-- −0.56 -->
      <g transform="translate(30.396688 172.084433) scale(0.1 -0.1)">
       <defs>
        <path id="DejaVuSans-2e" d="M 684 794 
L 1344 794 
L 1344 0 
L 684 0 
L 684 794 
z
" transform="scale(0.015625)"/>
        <path id="DejaVuSans-35" d="M 691 4666 
L 3169 4666 
L 3169 4134 
L 1269 4134 
L 1269 2991 
Q 1406 3038 1543 3061 
Q 1681 3084 1819 3084 
Q 2600 3084 3056 2656 
Q 3513 2228 3513 1497 
Q 3513 744 3044 326 
Q 2575 -91 1722 -91 
Q 1428 -91 1123 -41 
Q 819 9 494 109 
L 494 744 
Q 775 591 1075 516 
Q 1375 441 1709 441 
Q 2250 441 2565 725 
Q 2881 1009 2881 1497 
Q 2881 1984 2565 2268 
Q 2250 2553 1709 2553 
Q 1456 2553 1204 2497 
Q 953 2441 691 2322 
L 691 4666 
z
" transform="scale(0.015625)"/>
       </defs>
       <use xlink:href="#DejaVuSans-2212"/>
       <use xlink:href="#DejaVuSans-30" x="83.789062"/>
       <use xlink:href="#DejaVuSans-2e" x="147.412109"/>
       <use xlink:href="#DejaVuSans-35" x="179.199219"/>
       <use xlink:href="#DejaVuSans-36" x="242.822266"/>
      </g>
     </g>
    </g>
    <g id="ytick_2">
     <g id="line2d_15">
      <path d="M 68.042 146.967143 
L 431.617856 146.967143 
" clip-path="url(#p88cb34cebc)" style="fill: none; stroke: #b0b0b0; stroke-width: 0.8; stroke-linecap: square"/>
     </g>
     <g id="line2d_16">
      <g>
       <use xlink:href="#m5436ad6a30" x="68.042" y="146.967143" style="stroke: #000000; stroke-width: 0.8"/>
      </g>
     </g>
     <g id="text_9">
      <!-- −0.55 -->
      <g transform="translate(30.396688 150.766362) scale(0.1 -0.1)">
       <use xlink:href="#DejaVuSans-2212"/>
       <use xlink:href="#DejaVuSans-30" x="83.789062"/>
       <use xlink:href="#DejaVuSans-2e" x="147.412109"/>
       <use xlink:href="#DejaVuSans-35" x="179.199219"/>
       <use xlink:href="#DejaVuSans-35" x="242.822266"/>
      </g>
     </g>
    </g>
    <g id="ytick_3">
     <g id="line2d_17">
      <path d="M 68.042 125.649072 
L 431.617856 125.649072 
" clip-path="url(#p88cb34cebc)" style="fill: none; stroke: #b0b0b0; stroke-width: 0.8; stroke-linecap: square"/>
     </g>
     <g id="line2d_18">
      <g>
       <use xlink:href="#m5436ad6a30" x="68.042" y="125.649072" style="stroke: #000000; stroke-width: 0.8"/>
      </g>
     </g>
     <g id="text_10">
      <!-- −0.54 -->
      <g transform="translate(30.396688 129.448291) scale(0.1 -0.1)">
       <use xlink:href="#DejaVuSans-2212"/>
       <use xlink:href="#DejaVuSans-30" x="83.789062"/>
       <use xlink:href="#DejaVuSans-2e" x="147.412109"/>
       <use xlink:href="#DejaVuSans-35" x="179.199219"/>
       <use xlink:href="#DejaVuSans-34" x="242.822266"/>
      </g>
     </g>
    </g>
    <g id="ytick_4">
     <g id="line2d_19">
      <path d="M 68.042 104.331001 
L 431.617856 104.331001 
" clip-path="url(#p88cb34cebc)" style="fill: none; stroke: #b0b0b0; stroke-width: 0.8; stroke-linecap: square"/>
     </g>
     <g id="line2d_20">
      <g>
       <use xlink:href="#m5436ad6a30" x="68.042" y="104.331001" style="stroke: #000000; stroke-width: 0.8"/>
      </g>
     </g>
     <g id="text_11">
      <!-- −0.53 -->
      <g transform="translate(30.396688 108.13022) scale(0.1 -0.1)">
       <defs>
        <path id="DejaVuSans-33" d="M 2597 2516 
Q 3050 2419 3304 2112 
Q 3559 1806 3559 1356 
Q 3559 666 3084 287 
Q 2609 -91 1734 -91 
Q 1441 -91 1130 -33 
Q 819 25 488 141 
L 488 750 
Q 750 597 1062 519 
Q 1375 441 1716 441 
Q 2309 441 2620 675 
Q 2931 909 2931 1356 
Q 2931 1769 2642 2001 
Q 2353 2234 1838 2234 
L 1294 2234 
L 1294 2753 
L 1863 2753 
Q 2328 2753 2575 2939 
Q 2822 3125 2822 3475 
Q 2822 3834 2567 4026 
Q 2313 4219 1838 4219 
Q 1578 4219 1281 4162 
Q 984 4106 628 3988 
L 628 4550 
Q 988 4650 1302 4700 
Q 1616 4750 1894 4750 
Q 2613 4750 3031 4423 
Q 3450 4097 3450 3541 
Q 3450 3153 3228 2886 
Q 3006 2619 2597 2516 
z
" transform="scale(0.015625)"/>
       </defs>
       <use xlink:href="#DejaVuSans-2212"/>
       <use xlink:href="#DejaVuSans-30" x="83.789062"/>
       <use xlink:href="#DejaVuSans-2e" x="147.412109"/>
       <use xlink:href="#DejaVuSans-35" x="179.199219"/>
       <use xlink:href="#DejaVuSans-33" x="242.822266"/>
      </g>
     </g>
    </g>
    <g id="ytick_5">
     <g id="line2d_21">
      <path d="M 68.042 83.01293 
L 431.617856 83.01293 
" clip-path="url(#p88cb34cebc)" style="fill: none; stroke: #b0b0b0; stroke-width: 0.8; stroke-linecap: square"/>
     </g>
     <g id="line2d_22">
      <g>
       <use xlink:href="#m5436ad6a30" x="68.042" y="83.01293" style="stroke: #000000; stroke-width: 0.8"/>
      </g>
     </g>
     <g id="text_12">
      <!-- −0.52 -->
      <g transform="translate(30.396688 86.812149) scale(0.1 -0.1)">
       <use xlink:href="#DejaVuSans-2212"/>
       <use xlink:href="#DejaVuSans-30" x="83.789062"/>
       <use xlink:href="#DejaVuSans-2e" x="147.412109"/>
       <use xlink:href="#DejaVuSans-35" x="179.199219"/>
       <use xlink:href="#DejaVuSans-32" x="242.822266"/>
      </g>
     </g>
    </g>
    <g id="ytick_6">
     <g id="line2d_23">
      <path d="M 68.042 61.69486 
L 431.617856 61.69486 
" clip-path="url(#p88cb34cebc)" style="fill: none; stroke: #b0b0b0; stroke-width: 0.8; stroke-linecap: square"/>
     </g>
     <g id="line2d_24">
      <g>
       <use xlink:href="#m5436ad6a30" x="68.042" y="61.69486" style="stroke: #000000; stroke-width: 0.8"/>
      </g>
     </g>
     <g id="text_13">
      <!-- −0.51 -->
      <g transform="translate(30.396688 65.494078) scale(0.1 -0.1)">
       <defs>
        <path id="DejaVuSans-31" d="M 794 531 
L 1825 531 
L 1825 4091 
L 703 3866 
L 703 4441 
L 1819 4666 
L 2450 4666 
L 2450 531 
L 3481 531 
L 3481 0 
L 794 0 
L 794 531 
z
" transform="scale(0.015625)"/>
       </defs>
       <use xlink:href="#DejaVuSans-2212"/>
       <use xlink:href="#DejaVuSans-30" x="83.789062"/>
       <use xlink:href="#DejaVuSans-2e" x="147.412109"/>
       <use xlink:href="#DejaVuSans-35" x="179.199219"/>
       <use xlink:href="#DejaVuSans-31" x="242.822266"/>
      </g>
     </g>
    </g>
    <g id="ytick_7">
     <g id="line2d_25">
      <path d="M 68.042 40.376789 
L 431.617856 40.376789 
" clip-path="url(#p88cb34cebc)" style="fill: none; stroke: #b0b0b0; stroke-width: 0.8; stroke-linecap: square"/>
     </g>
     <g id="line2d_26">
      <g>
       <use xlink:href="#m5436ad6a30" x="68.042" y="40.376789" style="stroke: #000000; stroke-width: 0.8"/>
      </g>
     </g>
     <g id="text_14">
      <!-- −0.50 -->
      <g transform="translate(30.396688 44.176007) scale(0.1 -0.1)">
       <use xlink:href="#DejaVuSans-2212"/>
       <use xlink:href="#DejaVuSans-30" x="83.789062"/>
       <use xlink:href="#DejaVuSans-2e" x="147.412109"/>
       <use xlink:href="#DejaVuSans-35" x="179.199219"/>
       <use xlink:href="#DejaVuSans-30" x="242.822266"/>
      </g>
     </g>
    </g>
    <g id="ytick_8">
     <g id="line2d_27">
      <path d="M 68.042 19.058718 
L 431.617856 19.058718 
" clip-path="url(#p88cb34cebc)" style="fill: none; stroke: #b0b0b0; stroke-width: 0.8; stroke-linecap: square"/>
     </g>
     <g id="line2d_28">
      <g>
       <use xlink:href="#m5436ad6a30" x="68.042" y="19.058718" style="stroke: #000000; stroke-width: 0.8"/>
      </g>
     </g>
     <g id="text_15">
      <!-- −0.49 -->
      <g transform="translate(30.396688 22.857936) scale(0.1 -0.1)">
       <defs>
        <path id="DejaVuSans-39" d="M 703 97 
L 703 672 
Q 941 559 1184 500 
Q 1428 441 1663 441 
Q 2288 441 2617 861 
Q 2947 1281 2994 2138 
Q 2813 1869 2534 1725 
Q 2256 1581 1919 1581 
Q 1219 1581 811 2004 
Q 403 2428 403 3163 
Q 403 3881 828 4315 
Q 1253 4750 1959 4750 
Q 2769 4750 3195 4129 
Q 3622 3509 3622 2328 
Q 3622 1225 3098 567 
Q 2575 -91 1691 -91 
Q 1453 -91 1209 -44 
Q 966 3 703 97 
z
M 1959 2075 
Q 2384 2075 2632 2365 
Q 2881 2656 2881 3163 
Q 2881 3666 2632 3958 
Q 2384 4250 1959 4250 
Q 1534 4250 1286 3958 
Q 1038 3666 1038 3163 
Q 1038 2656 1286 2365 
Q 1534 2075 1959 2075 
z
" transform="scale(0.015625)"/>
       </defs>
       <use xlink:href="#DejaVuSans-2212"/>
       <use xlink:href="#DejaVuSans-30" x="83.789062"/>
       <use xlink:href="#DejaVuSans-2e" x="147.412109"/>
       <use xlink:href="#DejaVuSans-34" x="179.199219"/>
       <use xlink:href="#DejaVuSans-39" x="242.822266"/>
      </g>
     </g>
    </g>
    <g id="text_16">
     <!-- d$T_C = T / \rho V^2 D^2$ / d$J$ -->
     <g transform="translate(24.296688 137.52) rotate(-90) scale(0.1 -0.1)">
      <defs>
       <path id="DejaVuSans-64" d="M 2906 2969 
L 2906 4863 
L 3481 4863 
L 3481 0 
L 2906 0 
L 2906 525 
Q 2725 213 2448 61 
Q 2172 -91 1784 -91 
Q 1150 -91 751 415 
Q 353 922 353 1747 
Q 353 2572 751 3078 
Q 1150 3584 1784 3584 
Q 2172 3584 2448 3432 
Q 2725 3281 2906 2969 
z
M 947 1747 
Q 947 1113 1208 752 
Q 1469 391 1925 391 
Q 2381 391 2643 752 
Q 2906 1113 2906 1747 
Q 2906 2381 2643 2742 
Q 2381 3103 1925 3103 
Q 1469 3103 1208 2742 
Q 947 2381 947 1747 
z
" transform="scale(0.015625)"/>
       <path id="DejaVuSans-Oblique-54" d="M 378 4666 
L 4325 4666 
L 4225 4134 
L 2559 4134 
L 1759 0 
L 1125 0 
L 1925 4134 
L 275 4134 
L 378 4666 
z
" transform="scale(0.015625)"/>
       <path id="DejaVuSans-Oblique-43" d="M 4447 4306 
L 4319 3641 
Q 4019 3944 3683 4091 
Q 3347 4238 2956 4238 
Q 2422 4238 2017 3981 
Q 1613 3725 1319 3200 
Q 1131 2863 1032 2486 
Q 934 2109 934 1728 
Q 934 1091 1264 756 
Q 1594 422 2222 422 
Q 2656 422 3056 561 
Q 3456 700 3834 978 
L 3688 231 
Q 3316 72 2936 -9 
Q 2556 -91 2175 -91 
Q 1278 -91 773 396 
Q 269 884 269 1753 
Q 269 2309 461 2846 
Q 653 3384 1013 3828 
Q 1394 4300 1883 4525 
Q 2372 4750 3022 4750 
Q 3422 4750 3780 4639 
Q 4138 4528 4447 4306 
z
" transform="scale(0.015625)"/>
       <path id="DejaVuSans-3d" d="M 678 2906 
L 4684 2906 
L 4684 2381 
L 678 2381 
L 678 2906 
z
M 678 1631 
L 4684 1631 
L 4684 1100 
L 678 1100 
L 678 1631 
z
" transform="scale(0.015625)"/>
       <path id="DejaVuSans-2f" d="M 1625 4666 
L 2156 4666 
L 531 -594 
L 0 -594 
L 1625 4666 
z
" transform="scale(0.015625)"/>
       <path id="DejaVuSans-Oblique-3c1" d="M 1203 2875 
Q 1453 3194 1981 3475 
Q 2188 3584 2756 3584 
Q 3394 3584 3694 3078 
Q 3994 2572 3834 1747 
Q 3672 922 3175 415 
Q 2678 -91 2041 -91 
Q 1656 -91 1409 63 
Q 1163 213 1044 525 
L 681 -1331 
L 103 -1331 
L 697 1716 
Q 838 2438 1203 2875 
z
M 3238 1747 
Q 3359 2381 3169 2744 
Q 2978 3103 2522 3103 
Q 2066 3103 1734 2744 
Q 1403 2381 1281 1747 
Q 1156 1113 1347 750 
Q 1538 391 1994 391 
Q 2450 391 2781 750 
Q 3113 1113 3238 1747 
z
" transform="scale(0.015625)"/>
       <path id="DejaVuSans-Oblique-56" d="M 1319 0 
L 500 4666 
L 1119 4666 
L 1797 653 
L 4063 4666 
L 4750 4666 
L 2053 0 
L 1319 0 
z
" transform="scale(0.015625)"/>
       <path id="DejaVuSans-Oblique-44" d="M 1081 4666 
L 2438 4666 
Q 3519 4666 4070 4208 
Q 4622 3750 4622 2847 
Q 4622 2250 4412 1698 
Q 4203 1147 3834 769 
Q 3463 381 2891 190 
Q 2319 0 1538 0 
L 172 0 
L 1081 4666 
z
M 1613 4147 
L 909 519 
L 1734 519 
Q 2794 519 3375 1128 
Q 3956 1738 3956 2847 
Q 3956 3519 3581 3833 
Q 3206 4147 2406 4147 
L 1613 4147 
z
" transform="scale(0.015625)"/>
       <path id="DejaVuSans-20" transform="scale(0.015625)"/>
       <path id="DejaVuSans-Oblique-4a" d="M 1069 4666 
L 1703 4666 
L 856 325 
Q 691 -522 298 -901 
Q -94 -1281 -800 -1281 
L -1050 -1281 
L -947 -750 
L -750 -750 
Q -328 -750 -109 -509 
Q 109 -269 225 325 
L 1069 4666 
z
" transform="scale(0.015625)"/>
      </defs>
      <use xlink:href="#DejaVuSans-64" transform="translate(0 0.765625)"/>
      <use xlink:href="#DejaVuSans-Oblique-54" transform="translate(63.476562 0.765625)"/>
      <use xlink:href="#DejaVuSans-Oblique-43" transform="translate(124.560547 -15.640625) scale(0.7)"/>
      <use xlink:href="#DejaVuSans-3d" transform="translate(195.654297 0.765625)"/>
      <use xlink:href="#DejaVuSans-Oblique-54" transform="translate(298.925781 0.765625)"/>
      <use xlink:href="#DejaVuSans-2f" transform="translate(360.009766 0.765625)"/>
      <use xlink:href="#DejaVuSans-Oblique-3c1" transform="translate(393.701172 0.765625)"/>
      <use xlink:href="#DejaVuSans-Oblique-56" transform="translate(457.177734 0.765625)"/>
      <use xlink:href="#DejaVuSans-32" transform="translate(532.602708 39.046875) scale(0.7)"/>
      <use xlink:href="#DejaVuSans-Oblique-44" transform="translate(579.873216 0.765625)"/>
      <use xlink:href="#DejaVuSans-32" transform="translate(663.89194 39.046875) scale(0.7)"/>
      <use xlink:href="#DejaVuSans-20" transform="translate(711.162448 0.765625)"/>
      <use xlink:href="#DejaVuSans-2f" transform="translate(742.949557 0.765625)"/>
      <use xlink:href="#DejaVuSans-20" transform="translate(776.640964 0.765625)"/>
      <use xlink:href="#DejaVuSans-64" transform="translate(808.428073 0.765625)"/>
      <use xlink:href="#DejaVuSans-Oblique-4a" transform="translate(871.904635 0.765625)"/>
     </g>
    </g>
   </g>
   <g id="line2d_29">
    <path d="M 84.568175 18.22 
L 87.906797 19.735292 
L 91.245418 21.250251 
L 94.584039 22.764877 
L 97.92266 24.279171 
L 101.261282 25.793132 
L 104.599903 27.30676 
L 107.938524 28.820056 
L 111.277145 30.333018 
L 114.615767 31.845649 
L 117.954388 33.357946 
L 121.293009 34.869911 
L 124.63163 36.381543 
L 127.970252 37.892843 
L 131.308873 39.403809 
L 134.647494 40.914443 
L 137.986116 42.424745 
L 141.324737 43.934713 
L 144.663358 45.444349 
L 148.001979 46.953653 
L 151.340601 48.462623 
L 154.679222 49.971261 
L 158.017843 51.479567 
L 161.356464 52.987539 
L 164.695086 54.495179 
L 168.033707 56.002486 
L 171.372328 57.509461 
L 174.710949 59.016102 
L 178.049571 60.522411 
L 181.388192 62.028388 
L 184.726813 63.534032 
L 188.065435 65.039343 
L 191.404056 66.544321 
L 194.742677 68.048967 
L 198.081298 69.553279 
L 201.41992 71.05726 
L 204.758541 72.560907 
L 208.097162 74.064222 
L 211.435783 75.567204 
L 214.774405 77.069854 
L 218.113026 78.572171 
L 221.451647 80.074155 
L 224.790268 81.575806 
L 228.12889 83.077125 
L 231.467511 84.578111 
L 234.806132 86.078764 
L 238.144753 87.579085 
L 241.483375 89.079073 
L 244.821996 90.578728 
L 248.160617 92.078051 
L 251.499239 93.577041 
L 254.83786 95.075698 
L 258.176481 96.574022 
L 261.515102 98.072014 
L 264.853724 99.569673 
L 268.192345 101.067 
L 271.530966 102.563994 
L 274.869587 104.060655 
L 278.208209 105.556983 
L 281.54683 107.052979 
L 284.885451 108.548642 
L 288.224072 110.043972 
L 291.562694 111.53897 
L 294.901315 113.033635 
L 298.239936 114.527967 
L 301.578558 116.021966 
L 304.917179 117.515633 
L 308.2558 119.008967 
L 311.594421 120.501969 
L 314.933043 121.994638 
L 318.271664 123.486974 
L 321.610285 124.978977 
L 324.948906 126.470648 
L 328.287528 127.961986 
L 331.626149 129.452991 
L 334.96477 130.943664 
L 338.303391 132.434004 
L 341.642013 133.924011 
L 344.980634 135.413686 
L 348.319255 136.903027 
L 351.657877 138.392037 
L 354.996498 139.880713 
L 358.335119 141.369057 
L 361.67374 142.857068 
L 365.012362 144.344746 
L 368.350983 145.832092 
L 371.689604 147.319105 
L 375.028225 148.805786 
L 378.366847 150.292133 
L 381.705468 151.778148 
L 385.044089 153.263831 
L 388.38271 154.74918 
L 391.721332 156.234197 
L 395.059953 157.718881 
L 398.398574 159.203233 
L 401.737196 160.687252 
L 405.075817 162.170938 
L 408.414438 163.654291 
L 411.753059 165.137312 
L 415.091681 166.62 
" clip-path="url(#p88cb34cebc)" style="fill: none; stroke: #000080; stroke-width: 1.5; stroke-linecap: square"/>
   </g>
   <g id="line2d_30">
    <path d="M 84.568175 32.319104 
L 87.906797 34.048286 
L 91.245418 35.764341 
L 94.584039 37.467267 
L 97.92266 39.157065 
L 101.261282 40.833735 
L 104.599903 42.497278 
L 107.938524 44.147692 
L 111.277145 45.784978 
L 114.615767 47.409136 
L 117.954388 49.020166 
L 121.293009 50.618068 
L 124.63163 52.202842 
L 127.970252 53.774488 
L 131.308873 55.333005 
L 134.647494 56.878395 
L 137.986116 58.410657 
L 141.324737 59.929791 
L 144.663358 61.435796 
L 148.001979 62.928674 
L 151.340601 64.408423 
L 154.679222 65.875045 
L 158.017843 67.328538 
L 161.356464 68.768903 
L 164.695086 70.196141 
L 168.033707 71.61025 
L 171.372328 73.011231 
L 174.710949 74.399084 
L 178.049571 75.773809 
L 181.388192 77.135406 
L 184.726813 78.483875 
L 188.065435 79.819216 
L 191.404056 81.141429 
L 194.742677 82.450514 
L 198.081298 83.74647 
L 201.41992 85.029299 
L 204.758541 86.299 
L 208.097162 87.555572 
L 211.435783 88.799017 
L 214.774405 90.029333 
L 218.113026 91.246522 
L 221.451647 92.450582 
L 224.790268 93.641515 
L 228.12889 94.819319 
L 231.467511 95.983995 
L 234.806132 97.135543 
L 238.144753 98.273963 
L 241.483375 99.399256 
L 244.821996 100.51142 
L 248.160617 101.610456 
L 251.499239 102.696363 
L 254.83786 103.769143 
L 258.176481 104.828795 
L 261.515102 105.875319 
L 264.853724 106.908715 
L 268.192345 107.928982 
L 271.530966 108.936122 
L 274.869587 109.930134 
L 278.208209 110.911017 
L 281.54683 111.878772 
L 284.885451 112.8334 
L 288.224072 113.774899 
L 291.562694 114.703271 
L 294.901315 115.618514 
L 298.239936 116.520629 
L 301.578558 117.409616 
L 304.917179 118.285475 
L 308.2558 119.148206 
L 311.594421 119.997809 
L 314.933043 120.834284 
L 318.271664 121.657631 
L 321.610285 122.46785 
L 324.948906 123.264941 
L 328.287528 124.048904 
L 331.626149 124.819738 
L 334.96477 125.577445 
L 338.303391 126.322023 
L 341.642013 127.053474 
L 344.980634 127.771796 
L 348.319255 128.476991 
L 351.657877 129.169057 
L 354.996498 129.847996 
L 358.335119 130.513806 
L 361.67374 131.166488 
L 365.012362 131.806042 
L 368.350983 132.432468 
L 371.689604 133.045766 
L 375.028225 133.645936 
L 378.366847 134.232978 
L 381.705468 134.806892 
L 385.044089 135.367678 
L 388.38271 135.915336 
L 391.721332 136.449866 
L 395.059953 136.971267 
L 398.398574 137.479541 
L 401.737196 137.974687 
L 405.075817 138.456704 
L 408.414438 138.925594 
L 411.753059 139.381355 
L 415.091681 139.823989 
" clip-path="url(#p88cb34cebc)" style="fill: none; stroke: #7dff7a; stroke-width: 1.5; stroke-linecap: square"/>
   </g>
   <g id="line2d_31">
    <path d="M 84.568175 46.418207 
L 87.906797 48.361281 
L 91.245418 50.27843 
L 94.584039 52.169657 
L 97.92266 54.03496 
L 101.261282 55.874339 
L 104.599903 57.687795 
L 107.938524 59.475328 
L 111.277145 61.236937 
L 114.615767 62.972623 
L 117.954388 64.682386 
L 121.293009 66.366225 
L 124.63163 68.02414 
L 127.970252 69.656133 
L 131.308873 71.262202 
L 134.647494 72.842347 
L 137.986116 74.396569 
L 141.324737 75.924868 
L 144.663358 77.427243 
L 148.001979 78.903694 
L 151.340601 80.354223 
L 154.679222 81.778828 
L 158.017843 83.177509 
L 161.356464 84.550267 
L 164.695086 85.897102 
L 168.033707 87.218013 
L 171.372328 88.513001 
L 174.710949 89.782066 
L 178.049571 91.025207 
L 181.388192 92.242424 
L 184.726813 93.433719 
L 188.065435 94.599089 
L 191.404056 95.738537 
L 194.742677 96.852061 
L 198.081298 97.939661 
L 201.41992 99.001338 
L 204.758541 100.037092 
L 208.097162 101.046923 
L 211.435783 102.030829 
L 214.774405 102.988813 
L 218.113026 103.920873 
L 221.451647 104.82701 
L 224.790268 105.707223 
L 228.12889 106.561513 
L 231.467511 107.389879 
L 234.806132 108.192322 
L 238.144753 108.968842 
L 241.483375 109.719438 
L 244.821996 110.444111 
L 248.160617 111.14286 
L 251.499239 111.815686 
L 254.83786 112.462589 
L 258.176481 113.083568 
L 261.515102 113.678624 
L 264.853724 114.247756 
L 268.192345 114.790965 
L 271.530966 115.30825 
L 274.869587 115.799612 
L 278.208209 116.265051 
L 281.54683 116.704566 
L 284.885451 117.118158 
L 288.224072 117.505827 
L 291.562694 117.867572 
L 294.901315 118.203393 
L 298.239936 118.513291 
L 301.578558 118.797266 
L 304.917179 119.055317 
L 308.2558 119.287445 
L 311.594421 119.49365 
L 314.933043 119.673931 
L 318.271664 119.828289 
L 321.610285 119.956723 
L 324.948906 120.059234 
L 328.287528 120.135821 
L 331.626149 120.186485 
L 334.96477 120.211226 
L 338.303391 120.210043 
L 341.642013 120.182937 
L 344.980634 120.129907 
L 348.319255 120.050954 
L 351.657877 119.946078 
L 354.996498 119.815278 
L 358.335119 119.658555 
L 361.67374 119.475908 
L 365.012362 119.267338 
L 368.350983 119.032845 
L 371.689604 118.772428 
L 375.028225 118.486087 
L 378.366847 118.173824 
L 381.705468 117.835636 
L 385.044089 117.471526 
L 388.38271 117.081492 
L 391.721332 116.665535 
L 395.059953 116.223654 
L 398.398574 115.75585 
L 401.737196 115.262122 
L 405.075817 114.742471 
L 408.414438 114.196896 
L 411.753059 113.625399 
L 415.091681 113.027977 
" clip-path="url(#p88cb34cebc)" style="fill: none; stroke: #800000; stroke-width: 1.5; stroke-linecap: square"/>
   </g>
   <g id="patch_3">
    <path d="M 68.042 174.04 
L 68.042 10.8 
" style="fill: none; stroke: #000000; stroke-width: 0.8; stroke-linejoin: miter; stroke-linecap: square"/>
   </g>
   <g id="patch_4">
    <path d="M 431.617856 174.04 
L 431.617856 10.8 
" style="fill: none; stroke: #000000; stroke-width: 0.8; stroke-linejoin: miter; stroke-linecap: square"/>
   </g>
   <g id="patch_5">
    <path d="M 68.042 174.04 
L 431.617856 174.04 
" style="fill: none; stroke: #000000; stroke-width: 0.8; stroke-linejoin: miter; stroke-linecap: square"/>
   </g>
   <g id="patch_6">
    <path d="M 68.042 10.8 
L 431.617856 10.8 
" style="fill: none; stroke: #000000; stroke-width: 0.8; stroke-linejoin: miter; stroke-linecap: square"/>
   </g>
   <g id="legend_1">
    <g id="patch_7">
     <path d="M 440.617856 162.878 
L 564.517856 162.878 
Q 566.517856 162.878 566.517856 160.878 
L 566.517856 117.782687 
Q 566.517856 115.782687 564.517856 115.782687 
L 440.617856 115.782687 
Q 438.617856 115.782687 438.617856 117.782687 
L 438.617856 160.878 
Q 438.617856 162.878 440.617856 162.878 
z
" style="fill: #4d4d4d; opacity: 0.5; stroke: #4d4d4d; stroke-linejoin: miter"/>
    </g>
    <g id="patch_8">
     <path d="M 438.617856 160.878 
L 562.517856 160.878 
Q 564.517856 160.878 564.517856 158.878 
L 564.517856 115.782687 
Q 564.517856 113.782687 562.517856 113.782687 
L 438.617856 113.782687 
Q 436.617856 113.782687 436.617856 115.782687 
L 436.617856 158.878 
Q 436.617856 160.878 438.617856 160.878 
z
" style="fill: #ffffff; stroke: #cccccc; stroke-linejoin: miter"/>
    </g>
    <g id="line2d_32">
     <path d="M 440.617856 121.881125 
L 450.617856 121.881125 
L 460.617856 121.881125 
" style="fill: none; stroke: #000080; stroke-width: 1.5; stroke-linecap: square"/>
    </g>
    <g id="text_17">
     <!-- $\delta_e = -10$, $J = 1.60$ -->
     <g transform="translate(468.617856 125.381125) scale(0.1 -0.1)">
      <defs>
       <path id="DejaVuSans-Oblique-3b4" d="M 3472 4053 
Q 3197 4272 2450 4272 
Q 1659 4272 1588 3906 
Q 1531 3619 2328 3469 
Q 2953 3353 3253 3003 
Q 3616 2581 3447 1716 
Q 3284 888 2763 400 
Q 2238 -91 1488 -91 
Q 741 -91 406 400 
Q 72 888 241 1747 
Q 363 2384 891 2900 
Q 1097 3100 1353 3213 
Q 913 3459 1000 3900 
Q 1166 4750 2544 4750 
Q 3234 4750 3566 4531 
L 3472 4053 
z
M 1753 3056 
Q 1525 2966 1306 2738 
Q 969 2384 847 1747 
Q 722 1113 919 756 
Q 1119 397 1584 397 
Q 2044 397 2381 759 
Q 2722 1122 2838 1716 
Q 2956 2338 2731 2638 
Q 2491 2959 2103 2994 
Q 1906 3013 1753 3056 
z
" transform="scale(0.015625)"/>
       <path id="DejaVuSans-Oblique-65" d="M 3078 2063 
Q 3088 2113 3092 2166 
Q 3097 2219 3097 2272 
Q 3097 2653 2873 2875 
Q 2650 3097 2266 3097 
Q 1838 3097 1509 2826 
Q 1181 2556 1013 2059 
L 3078 2063 
z
M 3578 1613 
L 903 1613 
Q 884 1494 878 1425 
Q 872 1356 872 1306 
Q 872 872 1139 634 
Q 1406 397 1894 397 
Q 2269 397 2603 481 
Q 2938 566 3225 728 
L 3116 159 
Q 2806 34 2476 -28 
Q 2147 -91 1806 -91 
Q 1078 -91 686 257 
Q 294 606 294 1247 
Q 294 1794 489 2264 
Q 684 2734 1063 3103 
Q 1306 3334 1642 3459 
Q 1978 3584 2356 3584 
Q 2950 3584 3301 3228 
Q 3653 2872 3653 2272 
Q 3653 2128 3634 1964 
Q 3616 1800 3578 1613 
z
" transform="scale(0.015625)"/>
       <path id="DejaVuSans-2c" d="M 750 794 
L 1409 794 
L 1409 256 
L 897 -744 
L 494 -744 
L 750 256 
L 750 794 
z
" transform="scale(0.015625)"/>
      </defs>
      <use xlink:href="#DejaVuSans-Oblique-3b4" transform="translate(0 0.78125)"/>
      <use xlink:href="#DejaVuSans-Oblique-65" transform="translate(61.181641 -15.625) scale(0.7)"/>
      <use xlink:href="#DejaVuSans-3d" transform="translate(126.464844 0.78125)"/>
      <use xlink:href="#DejaVuSans-2212" transform="translate(249.21875 0.78125)"/>
      <use xlink:href="#DejaVuSans-31" transform="translate(352.490234 0.78125)"/>
      <use xlink:href="#DejaVuSans-30" transform="translate(416.113281 0.78125)"/>
      <use xlink:href="#DejaVuSans-2c" transform="translate(479.736328 0.78125)"/>
      <use xlink:href="#DejaVuSans-20" transform="translate(511.523438 0.78125)"/>
      <use xlink:href="#DejaVuSans-Oblique-4a" transform="translate(543.310547 0.78125)"/>
      <use xlink:href="#DejaVuSans-3d" transform="translate(592.285156 0.78125)"/>
      <use xlink:href="#DejaVuSans-31" transform="translate(695.556641 0.78125)"/>
      <use xlink:href="#DejaVuSans-2e" transform="translate(759.179688 0.78125)"/>
      <use xlink:href="#DejaVuSans-36" transform="translate(790.966797 0.78125)"/>
      <use xlink:href="#DejaVuSans-30" transform="translate(854.589844 0.78125)"/>
     </g>
    </g>
    <g id="line2d_33">
     <path d="M 440.617856 136.579563 
L 450.617856 136.579563 
L 460.617856 136.579563 
" style="fill: none; stroke: #7dff7a; stroke-width: 1.5; stroke-linecap: square"/>
    </g>
    <g id="text_18">
     <!-- $\delta_e = 0$, $J = 1.60$ -->
     <g transform="translate(468.617856 140.079563) scale(0.1 -0.1)">
      <use xlink:href="#DejaVuSans-Oblique-3b4" transform="translate(0 0.78125)"/>
      <use xlink:href="#DejaVuSans-Oblique-65" transform="translate(61.181641 -15.625) scale(0.7)"/>
      <use xlink:href="#DejaVuSans-3d" transform="translate(126.464844 0.78125)"/>
      <use xlink:href="#DejaVuSans-30" transform="translate(229.736328 0.78125)"/>
      <use xlink:href="#DejaVuSans-2c" transform="translate(293.359375 0.78125)"/>
      <use xlink:href="#DejaVuSans-20" transform="translate(325.146484 0.78125)"/>
      <use xlink:href="#DejaVuSans-Oblique-4a" transform="translate(356.933594 0.78125)"/>
      <use xlink:href="#DejaVuSans-3d" transform="translate(405.908203 0.78125)"/>
      <use xlink:href="#DejaVuSans-31" transform="translate(509.179688 0.78125)"/>
      <use xlink:href="#DejaVuSans-2e" transform="translate(572.802734 0.78125)"/>
      <use xlink:href="#DejaVuSans-36" transform="translate(604.589844 0.78125)"/>
      <use xlink:href="#DejaVuSans-30" transform="translate(668.212891 0.78125)"/>
     </g>
    </g>
    <g id="line2d_34">
     <path d="M 440.617856 151.278 
L 450.617856 151.278 
L 460.617856 151.278 
" style="fill: none; stroke: #800000; stroke-width: 1.5; stroke-linecap: square"/>
    </g>
    <g id="text_19">
     <!-- $\delta_e = 10$, $J = 1.60$ -->
     <g transform="translate(468.617856 154.778) scale(0.1 -0.1)">
      <use xlink:href="#DejaVuSans-Oblique-3b4" transform="translate(0 0.78125)"/>
      <use xlink:href="#DejaVuSans-Oblique-65" transform="translate(61.181641 -15.625) scale(0.7)"/>
      <use xlink:href="#DejaVuSans-3d" transform="translate(126.464844 0.78125)"/>
      <use xlink:href="#DejaVuSans-31" transform="translate(229.736328 0.78125)"/>
      <use xlink:href="#DejaVuSans-30" transform="translate(293.359375 0.78125)"/>
      <use xlink:href="#DejaVuSans-2c" transform="translate(356.982422 0.78125)"/>
      <use xlink:href="#DejaVuSans-20" transform="translate(388.769531 0.78125)"/>
      <use xlink:href="#DejaVuSans-Oblique-4a" transform="translate(420.556641 0.78125)"/>
      <use xlink:href="#DejaVuSans-3d" transform="translate(469.53125 0.78125)"/>
      <use xlink:href="#DejaVuSans-31" transform="translate(572.802734 0.78125)"/>
      <use xlink:href="#DejaVuSans-2e" transform="translate(636.425781 0.78125)"/>
      <use xlink:href="#DejaVuSans-36" transform="translate(668.212891 0.78125)"/>
      <use xlink:href="#DejaVuSans-30" transform="translate(731.835938 0.78125)"/>
     </g>
    </g>
   </g>
  </g>
 </g>
 <defs>
  <clipPath id="p88cb34cebc">
   <rect x="68.042" y="10.8" width="363.575856" height="163.24"/>
  </clipPath>
 </defs>
</svg>
