<?xml version="1.0" encoding="utf-8" standalone="no"?>
<!DOCTYPE svg PUBLIC "-//W3C//DTD SVG 1.1//EN"
  "http://www.w3.org/Graphics/SVG/1.1/DTD/svg11.dtd">
<svg xmlns:xlink="http://www.w3.org/1999/xlink" width="576pt" height="216pt" viewBox="0 0 576 216" xmlns="http://www.w3.org/2000/svg" version="1.1">
 <metadata>
  <rdf:RDF xmlns:dc="http://purl.org/dc/elements/1.1/" xmlns:cc="http://creativecommons.org/ns#" xmlns:rdf="http://www.w3.org/1999/02/22-rdf-syntax-ns#">
   <cc:Work>
    <dc:type rdf:resource="http://purl.org/dc/dcmitype/StillImage"/>
    <dc:date>2025-03-27T17:43:57.695731</dc:date>
    <dc:format>image/svg+xml</dc:format>
    <dc:creator>
     <cc:Agent>
      <dc:title>Matplotlib v3.9.2, https://matplotlib.org/</dc:title>
     </cc:Agent>
    </dc:creator>
   </cc:Work>
  </rdf:RDF>
 </metadata>
 <defs>
  <style type="text/css">*{stroke-linejoin: round; stroke-linecap: butt}</style>
 </defs>
 <g id="figure_1">
  <g id="patch_1">
   <path d="M 0 216 
L 576 216 
L 576 0 
L 0 0 
z
" style="fill: #ffffff"/>
  </g>
  <g id="axes_1">
   <g id="patch_2">
    <path d="M 74.432 174.04 
L 450.255247 174.04 
L 450.255247 10.8 
L 74.432 10.8 
z
" style="fill: #ffffff"/>
   </g>
   <g id="matplotlib.axis_1">
    <g id="xtick_1">
     <g id="line2d_1">
      <path d="M 91.514875 174.04 
L 91.514875 10.8 
" clip-path="url(#p725d1df361)" style="fill: none; stroke: #b0b0b0; stroke-width: 0.8; stroke-linecap: square"/>
     </g>
     <g id="line2d_2">
      <defs>
       <path id="mbb07f7c167" d="M 0 0 
L 0 3.5 
" style="stroke: #000000; stroke-width: 0.8"/>
      </defs>
      <g>
       <use xlink:href="#mbb07f7c167" x="91.514875" y="174.04" style="stroke: #000000; stroke-width: 0.8"/>
      </g>
     </g>
     <g id="text_1">
      <!-- −4 -->
      <g transform="translate(84.143781 188.638438) scale(0.1 -0.1)">
       <defs>
        <path id="DejaVuSans-2212" d="M 678 2272 
L 4684 2272 
L 4684 1741 
L 678 1741 
L 678 2272 
z
" transform="scale(0.015625)"/>
        <path id="DejaVuSans-34" d="M 2419 4116 
L 825 1625 
L 2419 1625 
L 2419 4116 
z
M 2253 4666 
L 3047 4666 
L 3047 1625 
L 3713 1625 
L 3713 1100 
L 3047 1100 
L 3047 0 
L 2419 0 
L 2419 1100 
L 313 1100 
L 313 1709 
L 2253 4666 
z
" transform="scale(0.015625)"/>
       </defs>
       <use xlink:href="#DejaVuSans-2212"/>
       <use xlink:href="#DejaVuSans-34" x="83.789062"/>
      </g>
     </g>
    </g>
    <g id="xtick_2">
     <g id="line2d_3">
      <path d="M 153.63442 174.04 
L 153.63442 10.8 
" clip-path="url(#p725d1df361)" style="fill: none; stroke: #b0b0b0; stroke-width: 0.8; stroke-linecap: square"/>
     </g>
     <g id="line2d_4">
      <g>
       <use xlink:href="#mbb07f7c167" x="153.63442" y="174.04" style="stroke: #000000; stroke-width: 0.8"/>
      </g>
     </g>
     <g id="text_2">
      <!-- −2 -->
      <g transform="translate(146.263326 188.638438) scale(0.1 -0.1)">
       <defs>
        <path id="DejaVuSans-32" d="M 1228 531 
L 3431 531 
L 3431 0 
L 469 0 
L 469 531 
Q 828 903 1448 1529 
Q 2069 2156 2228 2338 
Q 2531 2678 2651 2914 
Q 2772 3150 2772 3378 
Q 2772 3750 2511 3984 
Q 2250 4219 1831 4219 
Q 1534 4219 1204 4116 
Q 875 4013 500 3803 
L 500 4441 
Q 881 4594 1212 4672 
Q 1544 4750 1819 4750 
Q 2544 4750 2975 4387 
Q 3406 4025 3406 3419 
Q 3406 3131 3298 2873 
Q 3191 2616 2906 2266 
Q 2828 2175 2409 1742 
Q 1991 1309 1228 531 
z
" transform="scale(0.015625)"/>
       </defs>
       <use xlink:href="#DejaVuSans-2212"/>
       <use xlink:href="#DejaVuSans-32" x="83.789062"/>
      </g>
     </g>
    </g>
    <g id="xtick_3">
     <g id="line2d_5">
      <path d="M 215.753965 174.04 
L 215.753965 10.8 
" clip-path="url(#p725d1df361)" style="fill: none; stroke: #b0b0b0; stroke-width: 0.8; stroke-linecap: square"/>
     </g>
     <g id="line2d_6">
      <g>
       <use xlink:href="#mbb07f7c167" x="215.753965" y="174.04" style="stroke: #000000; stroke-width: 0.8"/>
      </g>
     </g>
     <g id="text_3">
      <!-- 0 -->
      <g transform="translate(212.572715 188.638438) scale(0.1 -0.1)">
       <defs>
        <path id="DejaVuSans-30" d="M 2034 4250 
Q 1547 4250 1301 3770 
Q 1056 3291 1056 2328 
Q 1056 1369 1301 889 
Q 1547 409 2034 409 
Q 2525 409 2770 889 
Q 3016 1369 3016 2328 
Q 3016 3291 2770 3770 
Q 2525 4250 2034 4250 
z
M 2034 4750 
Q 2819 4750 3233 4129 
Q 3647 3509 3647 2328 
Q 3647 1150 3233 529 
Q 2819 -91 2034 -91 
Q 1250 -91 836 529 
Q 422 1150 422 2328 
Q 422 3509 836 4129 
Q 1250 4750 2034 4750 
z
" transform="scale(0.015625)"/>
       </defs>
       <use xlink:href="#DejaVuSans-30"/>
      </g>
     </g>
    </g>
    <g id="xtick_4">
     <g id="line2d_7">
      <path d="M 277.87351 174.04 
L 277.87351 10.8 
" clip-path="url(#p725d1df361)" style="fill: none; stroke: #b0b0b0; stroke-width: 0.8; stroke-linecap: square"/>
     </g>
     <g id="line2d_8">
      <g>
       <use xlink:href="#mbb07f7c167" x="277.87351" y="174.04" style="stroke: #000000; stroke-width: 0.8"/>
      </g>
     </g>
     <g id="text_4">
      <!-- 2 -->
      <g transform="translate(274.69226 188.638438) scale(0.1 -0.1)">
       <use xlink:href="#DejaVuSans-32"/>
      </g>
     </g>
    </g>
    <g id="xtick_5">
     <g id="line2d_9">
      <path d="M 339.993055 174.04 
L 339.993055 10.8 
" clip-path="url(#p725d1df361)" style="fill: none; stroke: #b0b0b0; stroke-width: 0.8; stroke-linecap: square"/>
     </g>
     <g id="line2d_10">
      <g>
       <use xlink:href="#mbb07f7c167" x="339.993055" y="174.04" style="stroke: #000000; stroke-width: 0.8"/>
      </g>
     </g>
     <g id="text_5">
      <!-- 4 -->
      <g transform="translate(336.811805 188.638438) scale(0.1 -0.1)">
       <use xlink:href="#DejaVuSans-34"/>
      </g>
     </g>
    </g>
    <g id="xtick_6">
     <g id="line2d_11">
      <path d="M 402.1126 174.04 
L 402.1126 10.8 
" clip-path="url(#p725d1df361)" style="fill: none; stroke: #b0b0b0; stroke-width: 0.8; stroke-linecap: square"/>
     </g>
     <g id="line2d_12">
      <g>
       <use xlink:href="#mbb07f7c167" x="402.1126" y="174.04" style="stroke: #000000; stroke-width: 0.8"/>
      </g>
     </g>
     <g id="text_6">
      <!-- 6 -->
      <g transform="translate(398.93135 188.638438) scale(0.1 -0.1)">
       <defs>
        <path id="DejaVuSans-36" d="M 2113 2584 
Q 1688 2584 1439 2293 
Q 1191 2003 1191 1497 
Q 1191 994 1439 701 
Q 1688 409 2113 409 
Q 2538 409 2786 701 
Q 3034 994 3034 1497 
Q 3034 2003 2786 2293 
Q 2538 2584 2113 2584 
z
M 3366 4563 
L 3366 3988 
Q 3128 4100 2886 4159 
Q 2644 4219 2406 4219 
Q 1781 4219 1451 3797 
Q 1122 3375 1075 2522 
Q 1259 2794 1537 2939 
Q 1816 3084 2150 3084 
Q 2853 3084 3261 2657 
Q 3669 2231 3669 1497 
Q 3669 778 3244 343 
Q 2819 -91 2113 -91 
Q 1303 -91 875 529 
Q 447 1150 447 2328 
Q 447 3434 972 4092 
Q 1497 4750 2381 4750 
Q 2619 4750 2861 4703 
Q 3103 4656 3366 4563 
z
" transform="scale(0.015625)"/>
       </defs>
       <use xlink:href="#DejaVuSans-36"/>
      </g>
     </g>
    </g>
    <g id="text_7">
     <!-- $\alpha$ -->
     <g transform="translate(259.043624 202.316563) scale(0.1 -0.1)">
      <defs>
       <path id="DejaVuSans-Oblique-3b1" d="M 2619 1628 
L 2622 2350 
Q 2625 3088 2069 3091 
Q 1653 3094 1394 2747 
Q 1069 2319 959 1747 
Q 825 1059 994 731 
Q 1169 397 1547 397 
Q 1966 397 2319 1063 
L 2619 1628 
z
M 2166 3578 
Q 3141 3594 3128 2584 
Q 3128 2584 3616 3500 
L 4128 3500 
L 3119 1603 
L 3109 919 
Q 3109 766 3194 638 
Q 3291 488 3391 488 
L 3669 488 
L 3575 0 
L 3228 0 
Q 2934 0 2722 263 
Q 2622 394 2619 669 
Q 2416 334 2066 50 
Q 1900 -81 1453 -78 
Q 722 -72 456 397 
Q 184 884 353 1747 
Q 534 2675 1009 3097 
Q 1544 3569 2166 3578 
z
" transform="scale(0.015625)"/>
      </defs>
      <use xlink:href="#DejaVuSans-Oblique-3b1" transform="translate(0 0.84375)"/>
     </g>
    </g>
   </g>
   <g id="matplotlib.axis_2">
    <g id="ytick_1">
     <g id="line2d_13">
      <path d="M 74.432 150.835517 
L 450.255247 150.835517 
" clip-path="url(#p725d1df361)" style="fill: none; stroke: #b0b0b0; stroke-width: 0.8; stroke-linecap: square"/>
     </g>
     <g id="line2d_14">
      <defs>
       <path id="mcb58ce28d8" d="M 0 0 
L -3.5 0 
" style="stroke: #000000; stroke-width: 0.8"/>
      </defs>
      <g>
       <use xlink:href="#mcb58ce28d8" x="74.432" y="150.835517" style="stroke: #000000; stroke-width: 0.8"/>
      </g>
     </g>
     <g id="text_8">
      <!-- −0.002 -->
      <g transform="translate(30.424188 154.634736) scale(0.1 -0.1)">
       <defs>
        <path id="DejaVuSans-2e" d="M 684 794 
L 1344 794 
L 1344 0 
L 684 0 
L 684 794 
z
" transform="scale(0.015625)"/>
       </defs>
       <use xlink:href="#DejaVuSans-2212"/>
       <use xlink:href="#DejaVuSans-30" x="83.789062"/>
       <use xlink:href="#DejaVuSans-2e" x="147.412109"/>
       <use xlink:href="#DejaVuSans-30" x="179.199219"/>
       <use xlink:href="#DejaVuSans-30" x="242.822266"/>
       <use xlink:href="#DejaVuSans-32" x="306.445312"/>
      </g>
     </g>
    </g>
    <g id="ytick_2">
     <g id="line2d_15">
      <path d="M 74.432 111.988244 
L 450.255247 111.988244 
" clip-path="url(#p725d1df361)" style="fill: none; stroke: #b0b0b0; stroke-width: 0.8; stroke-linecap: square"/>
     </g>
     <g id="line2d_16">
      <g>
       <use xlink:href="#mcb58ce28d8" x="74.432" y="111.988244" style="stroke: #000000; stroke-width: 0.8"/>
      </g>
     </g>
     <g id="text_9">
      <!-- −0.001 -->
      <g transform="translate(30.424188 115.787463) scale(0.1 -0.1)">
       <defs>
        <path id="DejaVuSans-31" d="M 794 531 
L 1825 531 
L 1825 4091 
L 703 3866 
L 703 4441 
L 1819 4666 
L 2450 4666 
L 2450 531 
L 3481 531 
L 3481 0 
L 794 0 
L 794 531 
z
" transform="scale(0.015625)"/>
       </defs>
       <use xlink:href="#DejaVuSans-2212"/>
       <use xlink:href="#DejaVuSans-30" x="83.789062"/>
       <use xlink:href="#DejaVuSans-2e" x="147.412109"/>
       <use xlink:href="#DejaVuSans-30" x="179.199219"/>
       <use xlink:href="#DejaVuSans-30" x="242.822266"/>
       <use xlink:href="#DejaVuSans-31" x="306.445312"/>
      </g>
     </g>
    </g>
    <g id="ytick_3">
     <g id="line2d_17">
      <path d="M 74.432 73.140971 
L 450.255247 73.140971 
" clip-path="url(#p725d1df361)" style="fill: none; stroke: #b0b0b0; stroke-width: 0.8; stroke-linecap: square"/>
     </g>
     <g id="line2d_18">
      <g>
       <use xlink:href="#mcb58ce28d8" x="74.432" y="73.140971" style="stroke: #000000; stroke-width: 0.8"/>
      </g>
     </g>
     <g id="text_10">
      <!-- 0.000 -->
      <g transform="translate(38.803875 76.94019) scale(0.1 -0.1)">
       <use xlink:href="#DejaVuSans-30"/>
       <use xlink:href="#DejaVuSans-2e" x="63.623047"/>
       <use xlink:href="#DejaVuSans-30" x="95.410156"/>
       <use xlink:href="#DejaVuSans-30" x="159.033203"/>
       <use xlink:href="#DejaVuSans-30" x="222.65625"/>
      </g>
     </g>
    </g>
    <g id="ytick_4">
     <g id="line2d_19">
      <path d="M 74.432 34.293698 
L 450.255247 34.293698 
" clip-path="url(#p725d1df361)" style="fill: none; stroke: #b0b0b0; stroke-width: 0.8; stroke-linecap: square"/>
     </g>
     <g id="line2d_20">
      <g>
       <use xlink:href="#mcb58ce28d8" x="74.432" y="34.293698" style="stroke: #000000; stroke-width: 0.8"/>
      </g>
     </g>
     <g id="text_11">
      <!-- 0.001 -->
      <g transform="translate(38.803875 38.092917) scale(0.1 -0.1)">
       <use xlink:href="#DejaVuSans-30"/>
       <use xlink:href="#DejaVuSans-2e" x="63.623047"/>
       <use xlink:href="#DejaVuSans-30" x="95.410156"/>
       <use xlink:href="#DejaVuSans-30" x="159.033203"/>
       <use xlink:href="#DejaVuSans-31" x="222.65625"/>
      </g>
     </g>
    </g>
    <g id="text_12">
     <!-- d$T_C = T / \rho V^2 D^2$ / d$\delta_e$ -->
     <g transform="translate(24.324188 141.37) rotate(-90) scale(0.1 -0.1)">
      <defs>
       <path id="DejaVuSans-64" d="M 2906 2969 
L 2906 4863 
L 3481 4863 
L 3481 0 
L 2906 0 
L 2906 525 
Q 2725 213 2448 61 
Q 2172 -91 1784 -91 
Q 1150 -91 751 415 
Q 353 922 353 1747 
Q 353 2572 751 3078 
Q 1150 3584 1784 3584 
Q 2172 3584 2448 3432 
Q 2725 3281 2906 2969 
z
M 947 1747 
Q 947 1113 1208 752 
Q 1469 391 1925 391 
Q 2381 391 2643 752 
Q 2906 1113 2906 1747 
Q 2906 2381 2643 2742 
Q 2381 3103 1925 3103 
Q 1469 3103 1208 2742 
Q 947 2381 947 1747 
z
" transform="scale(0.015625)"/>
       <path id="DejaVuSans-Oblique-54" d="M 378 4666 
L 4325 4666 
L 4225 4134 
L 2559 4134 
L 1759 0 
L 1125 0 
L 1925 4134 
L 275 4134 
L 378 4666 
z
" transform="scale(0.015625)"/>
       <path id="DejaVuSans-Oblique-43" d="M 4447 4306 
L 4319 3641 
Q 4019 3944 3683 4091 
Q 3347 4238 2956 4238 
Q 2422 4238 2017 3981 
Q 1613 3725 1319 3200 
Q 1131 2863 1032 2486 
Q 934 2109 934 1728 
Q 934 1091 1264 756 
Q 1594 422 2222 422 
Q 2656 422 3056 561 
Q 3456 700 3834 978 
L 3688 231 
Q 3316 72 2936 -9 
Q 2556 -91 2175 -91 
Q 1278 -91 773 396 
Q 269 884 269 1753 
Q 269 2309 461 2846 
Q 653 3384 1013 3828 
Q 1394 4300 1883 4525 
Q 2372 4750 3022 4750 
Q 3422 4750 3780 4639 
Q 4138 4528 4447 4306 
z
" transform="scale(0.015625)"/>
       <path id="DejaVuSans-3d" d="M 678 2906 
L 4684 2906 
L 4684 2381 
L 678 2381 
L 678 2906 
z
M 678 1631 
L 4684 1631 
L 4684 1100 
L 678 1100 
L 678 1631 
z
" transform="scale(0.015625)"/>
       <path id="DejaVuSans-2f" d="M 1625 4666 
L 2156 4666 
L 531 -594 
L 0 -594 
L 1625 4666 
z
" transform="scale(0.015625)"/>
       <path id="DejaVuSans-Oblique-3c1" d="M 1203 2875 
Q 1453 3194 1981 3475 
Q 2188 3584 2756 3584 
Q 3394 3584 3694 3078 
Q 3994 2572 3834 1747 
Q 3672 922 3175 415 
Q 2678 -91 2041 -91 
Q 1656 -91 1409 63 
Q 1163 213 1044 525 
L 681 -1331 
L 103 -1331 
L 697 1716 
Q 838 2438 1203 2875 
z
M 3238 1747 
Q 3359 2381 3169 2744 
Q 2978 3103 2522 3103 
Q 2066 3103 1734 2744 
Q 1403 2381 1281 1747 
Q 1156 1113 1347 750 
Q 1538 391 1994 391 
Q 2450 391 2781 750 
Q 3113 1113 3238 1747 
z
" transform="scale(0.015625)"/>
       <path id="DejaVuSans-Oblique-56" d="M 1319 0 
L 500 4666 
L 1119 4666 
L 1797 653 
L 4063 4666 
L 4750 4666 
L 2053 0 
L 1319 0 
z
" transform="scale(0.015625)"/>
       <path id="DejaVuSans-Oblique-44" d="M 1081 4666 
L 2438 4666 
Q 3519 4666 4070 4208 
Q 4622 3750 4622 2847 
Q 4622 2250 4412 1698 
Q 4203 1147 3834 769 
Q 3463 381 2891 190 
Q 2319 0 1538 0 
L 172 0 
L 1081 4666 
z
M 1613 4147 
L 909 519 
L 1734 519 
Q 2794 519 3375 1128 
Q 3956 1738 3956 2847 
Q 3956 3519 3581 3833 
Q 3206 4147 2406 4147 
L 1613 4147 
z
" transform="scale(0.015625)"/>
       <path id="DejaVuSans-20" transform="scale(0.015625)"/>
       <path id="DejaVuSans-Oblique-3b4" d="M 3472 4053 
Q 3197 4272 2450 4272 
Q 1659 4272 1588 3906 
Q 1531 3619 2328 3469 
Q 2953 3353 3253 3003 
Q 3616 2581 3447 1716 
Q 3284 888 2763 400 
Q 2238 -91 1488 -91 
Q 741 -91 406 400 
Q 72 888 241 1747 
Q 363 2384 891 2900 
Q 1097 3100 1353 3213 
Q 913 3459 1000 3900 
Q 1166 4750 2544 4750 
Q 3234 4750 3566 4531 
L 3472 4053 
z
M 1753 3056 
Q 1525 2966 1306 2738 
Q 969 2384 847 1747 
Q 722 1113 919 756 
Q 1119 397 1584 397 
Q 2044 397 2381 759 
Q 2722 1122 2838 1716 
Q 2956 2338 2731 2638 
Q 2491 2959 2103 2994 
Q 1906 3013 1753 3056 
z
" transform="scale(0.015625)"/>
       <path id="DejaVuSans-Oblique-65" d="M 3078 2063 
Q 3088 2113 3092 2166 
Q 3097 2219 3097 2272 
Q 3097 2653 2873 2875 
Q 2650 3097 2266 3097 
Q 1838 3097 1509 2826 
Q 1181 2556 1013 2059 
L 3078 2063 
z
M 3578 1613 
L 903 1613 
Q 884 1494 878 1425 
Q 872 1356 872 1306 
Q 872 872 1139 634 
Q 1406 397 1894 397 
Q 2269 397 2603 481 
Q 2938 566 3225 728 
L 3116 159 
Q 2806 34 2476 -28 
Q 2147 -91 1806 -91 
Q 1078 -91 686 257 
Q 294 606 294 1247 
Q 294 1794 489 2264 
Q 684 2734 1063 3103 
Q 1306 3334 1642 3459 
Q 1978 3584 2356 3584 
Q 2950 3584 3301 3228 
Q 3653 2872 3653 2272 
Q 3653 2128 3634 1964 
Q 3616 1800 3578 1613 
z
" transform="scale(0.015625)"/>
      </defs>
      <use xlink:href="#DejaVuSans-64" transform="translate(0 0.765625)"/>
      <use xlink:href="#DejaVuSans-Oblique-54" transform="translate(63.476562 0.765625)"/>
      <use xlink:href="#DejaVuSans-Oblique-43" transform="translate(124.560547 -15.640625) scale(0.7)"/>
      <use xlink:href="#DejaVuSans-3d" transform="translate(195.654297 0.765625)"/>
      <use xlink:href="#DejaVuSans-Oblique-54" transform="translate(298.925781 0.765625)"/>
      <use xlink:href="#DejaVuSans-2f" transform="translate(360.009766 0.765625)"/>
      <use xlink:href="#DejaVuSans-Oblique-3c1" transform="translate(393.701172 0.765625)"/>
      <use xlink:href="#DejaVuSans-Oblique-56" transform="translate(457.177734 0.765625)"/>
      <use xlink:href="#DejaVuSans-32" transform="translate(532.602708 39.046875) scale(0.7)"/>
      <use xlink:href="#DejaVuSans-Oblique-44" transform="translate(579.873216 0.765625)"/>
      <use xlink:href="#DejaVuSans-32" transform="translate(663.89194 39.046875) scale(0.7)"/>
      <use xlink:href="#DejaVuSans-20" transform="translate(711.162448 0.765625)"/>
      <use xlink:href="#DejaVuSans-2f" transform="translate(742.949557 0.765625)"/>
      <use xlink:href="#DejaVuSans-20" transform="translate(776.640964 0.765625)"/>
      <use xlink:href="#DejaVuSans-64" transform="translate(808.428073 0.765625)"/>
      <use xlink:href="#DejaVuSans-Oblique-3b4" transform="translate(871.904635 0.765625)"/>
      <use xlink:href="#DejaVuSans-Oblique-65" transform="translate(933.086276 -15.640625) scale(0.7)"/>
     </g>
    </g>
   </g>
   <g id="line2d_21">
    <path d="M 91.514875 18.22 
L 94.965961 19.666632 
L 98.417047 21.114333 
L 101.868132 22.563102 
L 105.319218 24.01294 
L 108.770304 25.463846 
L 112.22139 26.915821 
L 115.672476 28.368865 
L 119.123562 29.822976 
L 122.574647 31.278157 
L 126.025733 32.734406 
L 129.476819 34.191723 
L 132.927905 35.650109 
L 136.378991 37.109564 
L 139.830077 38.570087 
L 143.281162 40.031678 
L 146.732248 41.494338 
L 150.183334 42.958067 
L 153.63442 44.422864 
L 157.085506 45.88873 
L 160.536592 47.355664 
L 163.987677 48.823667 
L 167.438763 50.292738 
L 170.889849 51.762878 
L 174.340935 53.234086 
L 177.792021 54.706363 
L 181.243107 56.179708 
L 184.694192 57.654122 
L 188.145278 59.129604 
L 191.596364 60.606155 
L 195.04745 62.083775 
L 198.498536 63.562463 
L 201.949622 65.042219 
L 205.400707 66.523044 
L 208.851793 68.004938 
L 212.302879 69.4879 
L 215.753965 70.97193 
L 219.205051 72.457029 
L 222.656137 73.943197 
L 226.107222 75.430433 
L 229.558308 76.918738 
L 233.009394 78.408111 
L 236.46048 79.898553 
L 239.911566 81.390063 
L 243.362652 82.882642 
L 246.813737 84.376289 
L 250.264823 85.871005 
L 253.715909 87.366789 
L 257.166995 88.863642 
L 260.618081 90.361563 
L 264.069167 91.860553 
L 267.520252 93.360611 
L 270.971338 94.861738 
L 274.422424 96.363934 
L 277.87351 97.867198 
L 281.324596 99.37153 
L 284.775682 100.876931 
L 288.226767 102.383401 
L 291.677853 103.890939 
L 295.128939 105.399546 
L 298.580025 106.909221 
L 302.031111 108.419965 
L 305.482197 109.931777 
L 308.933282 111.444657 
L 312.384368 112.958607 
L 315.835454 114.473624 
L 319.28654 115.989711 
L 322.737626 117.506865 
L 326.188712 119.025089 
L 329.639798 120.544381 
L 333.090883 122.064741 
L 336.541969 123.58617 
L 339.993055 125.108667 
L 343.444141 126.632233 
L 346.895227 128.156868 
L 350.346313 129.682571 
L 353.797398 131.209342 
L 357.248484 132.737182 
L 360.69957 134.266091 
L 364.150656 135.796068 
L 367.601742 137.327114 
L 371.052828 138.859228 
L 374.503913 140.39241 
L 377.954999 141.926662 
L 381.406085 143.461981 
L 384.857171 144.99837 
L 388.308257 146.535826 
L 391.759343 148.074352 
L 395.210428 149.613945 
L 398.661514 151.154608 
L 402.1126 152.696339 
L 405.563686 154.239138 
L 409.014772 155.783006 
L 412.465858 157.327942 
L 415.916943 158.873947 
L 419.368029 160.421021 
L 422.819115 161.969163 
L 426.270201 163.518373 
L 429.721287 165.068652 
L 433.172373 166.62 
" clip-path="url(#p725d1df361)" style="fill: none; stroke: #000080; stroke-width: 1.5; stroke-linecap: square"/>
   </g>
   <g id="line2d_22">
    <path d="M 91.514875 22.87018 
L 94.965961 24.341516 
L 98.417047 25.810933 
L 101.868132 27.27843 
L 105.319218 28.744009 
L 108.770304 30.207668 
L 112.22139 31.669408 
L 115.672476 33.129228 
L 119.123562 34.58713 
L 122.574647 36.043112 
L 126.025733 37.497175 
L 129.476819 38.949318 
L 132.927905 40.399543 
L 136.378991 41.847848 
L 139.830077 43.294234 
L 143.281162 44.738701 
L 146.732248 46.181248 
L 150.183334 47.621876 
L 153.63442 49.060585 
L 157.085506 50.497375 
L 160.536592 51.932245 
L 163.987677 53.365196 
L 167.438763 54.796228 
L 170.889849 56.225341 
L 174.340935 57.652535 
L 177.792021 59.077809 
L 181.243107 60.501164 
L 184.694192 61.922599 
L 188.145278 63.342116 
L 191.596364 64.759713 
L 195.04745 66.175391 
L 198.498536 67.58915 
L 201.949622 69.000989 
L 205.400707 70.41091 
L 208.851793 71.818911 
L 212.302879 73.224993 
L 215.753965 74.629155 
L 219.205051 76.031398 
L 222.656137 77.431722 
L 226.107222 78.830127 
L 229.558308 80.226613 
L 233.009394 81.621179 
L 236.46048 83.013826 
L 239.911566 84.404554 
L 243.362652 85.793363 
L 246.813737 87.180252 
L 250.264823 88.565222 
L 253.715909 89.948273 
L 257.166995 91.329404 
L 260.618081 92.708617 
L 264.069167 94.08591 
L 267.520252 95.461284 
L 270.971338 96.834738 
L 274.422424 98.206274 
L 277.87351 99.57589 
L 281.324596 100.943587 
L 284.775682 102.309364 
L 288.226767 103.673223 
L 291.677853 105.035162 
L 295.128939 106.395182 
L 298.580025 107.753283 
L 302.031111 109.109464 
L 305.482197 110.463726 
L 308.933282 111.816069 
L 312.384368 113.166493 
L 315.835454 114.514997 
L 319.28654 115.861582 
L 322.737626 117.206248 
L 326.188712 118.548995 
L 329.639798 119.889823 
L 333.090883 121.228731 
L 336.541969 122.56572 
L 339.993055 123.90079 
L 343.444141 125.23394 
L 346.895227 126.565171 
L 350.346313 127.894483 
L 353.797398 129.221876 
L 357.248484 130.54735 
L 360.69957 131.870904 
L 364.150656 133.192539 
L 367.601742 134.512255 
L 371.052828 135.830051 
L 374.503913 137.145928 
L 377.954999 138.459887 
L 381.406085 139.771925 
L 384.857171 141.082045 
L 388.308257 142.390245 
L 391.759343 143.696526 
L 395.210428 145.000888 
L 398.661514 146.303331 
L 402.1126 147.603854 
L 405.563686 148.902458 
L 409.014772 150.199143 
L 412.465858 151.493909 
L 415.916943 152.786755 
L 419.368029 154.077682 
L 422.819115 155.36669 
L 426.270201 156.653779 
L 429.721287 157.938948 
L 433.172373 159.222198 
" clip-path="url(#p725d1df361)" style="fill: none; stroke: #0080ff; stroke-width: 1.5; stroke-linecap: square"/>
   </g>
   <g id="line2d_23">
    <path d="M 91.514875 26.543772 
L 94.965961 27.933313 
L 98.417047 29.321298 
L 101.868132 30.707728 
L 105.319218 32.092601 
L 108.770304 33.475918 
L 112.22139 34.85768 
L 115.672476 36.237885 
L 119.123562 37.616535 
L 122.574647 38.993629 
L 126.025733 40.369167 
L 129.476819 41.743149 
L 132.927905 43.115575 
L 136.378991 44.486445 
L 139.830077 45.855759 
L 143.281162 47.223517 
L 146.732248 48.58972 
L 150.183334 49.954366 
L 153.63442 51.317457 
L 157.085506 52.678991 
L 160.536592 54.03897 
L 163.987677 55.397393 
L 167.438763 56.75426 
L 170.889849 58.109571 
L 174.340935 59.463326 
L 177.792021 60.815525 
L 181.243107 62.166169 
L 184.694192 63.515256 
L 188.145278 64.862787 
L 191.596364 66.208763 
L 195.04745 67.553183 
L 198.498536 68.896046 
L 201.949622 70.237354 
L 205.400707 71.577106 
L 208.851793 72.915302 
L 212.302879 74.251942 
L 215.753965 75.587026 
L 219.205051 76.920555 
L 222.656137 78.252527 
L 226.107222 79.582944 
L 229.558308 80.911804 
L 233.009394 82.239109 
L 236.46048 83.564857 
L 239.911566 84.88905 
L 243.362652 86.211687 
L 246.813737 87.532768 
L 250.264823 88.852293 
L 253.715909 90.170262 
L 257.166995 91.486676 
L 260.618081 92.801533 
L 264.069167 94.114834 
L 267.520252 95.42658 
L 270.971338 96.73677 
L 274.422424 98.045403 
L 277.87351 99.352481 
L 281.324596 100.658003 
L 284.775682 101.961969 
L 288.226767 103.264379 
L 291.677853 104.565233 
L 295.128939 105.864532 
L 298.580025 107.162274 
L 302.031111 108.45846 
L 305.482197 109.753091 
L 308.933282 111.046165 
L 312.384368 112.337684 
L 315.835454 113.627647 
L 319.28654 114.916054 
L 322.737626 116.202905 
L 326.188712 117.4882 
L 329.639798 118.771939 
L 333.090883 120.054122 
L 336.541969 121.33475 
L 339.993055 122.613821 
L 343.444141 123.891337 
L 346.895227 125.167296 
L 350.346313 126.4417 
L 353.797398 127.714548 
L 357.248484 128.985839 
L 360.69957 130.255575 
L 364.150656 131.523755 
L 367.601742 132.79038 
L 371.052828 134.055448 
L 374.503913 135.31896 
L 377.954999 136.580917 
L 381.406085 137.841317 
L 384.857171 139.100162 
L 388.308257 140.35745 
L 391.759343 141.613183 
L 395.210428 142.86736 
L 398.661514 144.119981 
L 402.1126 145.371046 
L 405.563686 146.620555 
L 409.014772 147.868508 
L 412.465858 149.114906 
L 415.916943 150.359747 
L 419.368029 151.603032 
L 422.819115 152.844762 
L 426.270201 154.084936 
L 429.721287 155.323553 
L 433.172373 156.560615 
" clip-path="url(#p725d1df361)" style="fill: none; stroke: #7dff7a; stroke-width: 1.5; stroke-linecap: square"/>
   </g>
   <g id="line2d_24">
    <path d="M 91.514875 29.240777 
L 94.965961 30.442024 
L 98.417047 31.64543 
L 101.868132 32.850994 
L 105.319218 34.058716 
L 108.770304 35.268598 
L 112.22139 36.480637 
L 115.672476 37.694836 
L 119.123562 38.911192 
L 122.574647 40.129708 
L 126.025733 41.350382 
L 129.476819 42.573214 
L 132.927905 43.798205 
L 136.378991 45.025354 
L 139.830077 46.254662 
L 143.281162 47.486129 
L 146.732248 48.719754 
L 150.183334 49.955537 
L 153.63442 51.193479 
L 157.085506 52.43358 
L 160.536592 53.675839 
L 163.987677 54.920257 
L 167.438763 56.166833 
L 170.889849 57.415567 
L 174.340935 58.666461 
L 177.792021 59.919512 
L 181.243107 61.174723 
L 184.694192 62.432091 
L 188.145278 63.691619 
L 191.596364 64.953305 
L 195.04745 66.217149 
L 198.498536 67.483152 
L 201.949622 68.751313 
L 205.400707 70.021633 
L 208.851793 71.294112 
L 212.302879 72.568749 
L 215.753965 73.845544 
L 219.205051 75.124498 
L 222.656137 76.405611 
L 226.107222 77.688882 
L 229.558308 78.974312 
L 233.009394 80.2619 
L 236.46048 81.551646 
L 239.911566 82.843552 
L 243.362652 84.137615 
L 246.813737 85.433838 
L 250.264823 86.732218 
L 253.715909 88.032758 
L 257.166995 89.335456 
L 260.618081 90.640312 
L 264.069167 91.947327 
L 267.520252 93.2565 
L 270.971338 94.567832 
L 274.422424 95.881323 
L 277.87351 97.196972 
L 281.324596 98.514779 
L 284.775682 99.834745 
L 288.226767 101.15687 
L 291.677853 102.481153 
L 295.128939 103.807595 
L 298.580025 105.136195 
L 302.031111 106.466953 
L 305.482197 107.799871 
L 308.933282 109.134946 
L 312.384368 110.472181 
L 315.835454 111.811573 
L 319.28654 113.153125 
L 322.737626 114.496835 
L 326.188712 115.842703 
L 329.639798 117.19073 
L 333.090883 118.540915 
L 336.541969 119.893259 
L 339.993055 121.247762 
L 343.444141 122.604423 
L 346.895227 123.963242 
L 350.346313 125.32422 
L 353.797398 126.687357 
L 357.248484 128.052652 
L 360.69957 129.420106 
L 364.150656 130.789718 
L 367.601742 132.161488 
L 371.052828 133.535418 
L 374.503913 134.911505 
L 377.954999 136.289752 
L 381.406085 137.670157 
L 384.857171 139.05272 
L 388.308257 140.437442 
L 391.759343 141.824322 
L 395.210428 143.213361 
L 398.661514 144.604558 
L 402.1126 145.997914 
L 405.563686 147.393429 
L 409.014772 148.791102 
L 412.465858 150.190933 
L 415.916943 151.592923 
L 419.368029 152.997072 
L 422.819115 154.403379 
L 426.270201 155.811845 
L 429.721287 157.222469 
L 433.172373 158.635252 
" clip-path="url(#p725d1df361)" style="fill: none; stroke: #ff9400; stroke-width: 1.5; stroke-linecap: square"/>
   </g>
   <g id="line2d_25">
    <path d="M 91.514875 30.961194 
L 94.965961 31.867648 
L 98.417047 32.783327 
L 101.868132 33.708229 
L 105.319218 34.642356 
L 108.770304 35.585706 
L 112.22139 36.538281 
L 115.672476 37.500079 
L 119.123562 38.471102 
L 122.574647 39.451349 
L 126.025733 40.44082 
L 129.476819 41.439514 
L 132.927905 42.447433 
L 136.378991 43.464576 
L 139.830077 44.490944 
L 143.281162 45.526535 
L 146.732248 46.57135 
L 150.183334 47.625389 
L 153.63442 48.688653 
L 157.085506 49.76114 
L 160.536592 50.842852 
L 163.987677 51.933787 
L 167.438763 53.033947 
L 170.889849 54.14333 
L 174.340935 55.261938 
L 177.792021 56.38977 
L 181.243107 57.526826 
L 184.694192 58.673106 
L 188.145278 59.82861 
L 191.596364 60.993338 
L 195.04745 62.16729 
L 198.498536 63.350466 
L 201.949622 64.542867 
L 205.400707 65.744491 
L 208.851793 66.955339 
L 212.302879 68.175412 
L 215.753965 69.404708 
L 219.205051 70.643229 
L 222.656137 71.890974 
L 226.107222 73.147942 
L 229.558308 74.414135 
L 233.009394 75.689552 
L 236.46048 76.974193 
L 239.911566 78.268058 
L 243.362652 79.571147 
L 246.813737 80.88346 
L 250.264823 82.204997 
L 253.715909 83.535759 
L 257.166995 84.875744 
L 260.618081 86.224953 
L 264.069167 87.583387 
L 267.520252 88.951044 
L 270.971338 90.327926 
L 274.422424 91.714032 
L 277.87351 93.109361 
L 281.324596 94.513915 
L 284.775682 95.927693 
L 288.226767 97.350695 
L 291.677853 98.782921 
L 295.128939 100.224371 
L 298.580025 101.675045 
L 302.031111 103.134943 
L 305.482197 104.604066 
L 308.933282 106.082412 
L 312.384368 107.569982 
L 315.835454 109.066777 
L 319.28654 110.572795 
L 322.737626 112.088038 
L 326.188712 113.612505 
L 329.639798 115.146195 
L 333.090883 116.68911 
L 336.541969 118.241249 
L 339.993055 119.802612 
L 343.444141 121.373199 
L 346.895227 122.95301 
L 350.346313 124.542045 
L 353.797398 126.140304 
L 357.248484 127.747787 
L 360.69957 129.364495 
L 364.150656 130.990426 
L 367.601742 132.625581 
L 371.052828 134.269961 
L 374.503913 135.923564 
L 377.954999 137.586392 
L 381.406085 139.258444 
L 384.857171 140.93972 
L 388.308257 142.630219 
L 391.759343 144.329943 
L 395.210428 146.038891 
L 398.661514 147.757063 
L 402.1126 149.484459 
L 405.563686 151.221079 
L 409.014772 152.966924 
L 412.465858 154.721992 
L 415.916943 156.486284 
L 419.368029 158.259801 
L 422.819115 160.042541 
L 426.270201 161.834506 
L 429.721287 163.635694 
L 433.172373 165.446107 
" clip-path="url(#p725d1df361)" style="fill: none; stroke: #800000; stroke-width: 1.5; stroke-linecap: square"/>
   </g>
   <g id="patch_3">
    <path d="M 74.432 174.04 
L 74.432 10.8 
" style="fill: none; stroke: #000000; stroke-width: 0.8; stroke-linejoin: miter; stroke-linecap: square"/>
   </g>
   <g id="patch_4">
    <path d="M 450.255247 174.04 
L 450.255247 10.8 
" style="fill: none; stroke: #000000; stroke-width: 0.8; stroke-linejoin: miter; stroke-linecap: square"/>
   </g>
   <g id="patch_5">
    <path d="M 74.432 174.04 
L 450.255247 174.04 
" style="fill: none; stroke: #000000; stroke-width: 0.8; stroke-linejoin: miter; stroke-linecap: square"/>
   </g>
   <g id="patch_6">
    <path d="M 74.432 10.8 
L 450.255247 10.8 
" style="fill: none; stroke: #000000; stroke-width: 0.8; stroke-linejoin: miter; stroke-linecap: square"/>
   </g>
   <g id="legend_1">
    <g id="patch_7">
     <path d="M 459.255247 162.878 
L 564.455247 162.878 
Q 566.455247 162.878 566.455247 160.878 
L 566.455247 88.385812 
Q 566.455247 86.385812 564.455247 86.385812 
L 459.255247 86.385812 
Q 457.255247 86.385812 457.255247 88.385812 
L 457.255247 160.878 
Q 457.255247 162.878 459.255247 162.878 
z
" style="fill: #4d4d4d; opacity: 0.5; stroke: #4d4d4d; stroke-linejoin: miter"/>
    </g>
    <g id="patch_8">
     <path d="M 457.255247 160.878 
L 562.455247 160.878 
Q 564.455247 160.878 564.455247 158.878 
L 564.455247 86.385812 
Q 564.455247 84.385812 562.455247 84.385812 
L 457.255247 84.385812 
Q 455.255247 84.385812 455.255247 86.385812 
L 455.255247 158.878 
Q 455.255247 160.878 457.255247 160.878 
z
" style="fill: #ffffff; stroke: #cccccc; stroke-linejoin: miter"/>
    </g>
    <g id="line2d_26">
     <path d="M 459.255247 92.48425 
L 469.255247 92.48425 
L 479.255247 92.48425 
" style="fill: none; stroke: #000080; stroke-width: 1.5; stroke-linecap: square"/>
    </g>
    <g id="text_13">
     <!-- $\delta_e = 0$, $J = 1.60$ -->
     <g transform="translate(487.255247 95.98425) scale(0.1 -0.1)">
      <defs>
       <path id="DejaVuSans-2c" d="M 750 794 
L 1409 794 
L 1409 256 
L 897 -744 
L 494 -744 
L 750 256 
L 750 794 
z
" transform="scale(0.015625)"/>
       <path id="DejaVuSans-Oblique-4a" d="M 1069 4666 
L 1703 4666 
L 856 325 
Q 691 -522 298 -901 
Q -94 -1281 -800 -1281 
L -1050 -1281 
L -947 -750 
L -750 -750 
Q -328 -750 -109 -509 
Q 109 -269 225 325 
L 1069 4666 
z
" transform="scale(0.015625)"/>
      </defs>
      <use xlink:href="#DejaVuSans-Oblique-3b4" transform="translate(0 0.78125)"/>
      <use xlink:href="#DejaVuSans-Oblique-65" transform="translate(61.181641 -15.625) scale(0.7)"/>
      <use xlink:href="#DejaVuSans-3d" transform="translate(126.464844 0.78125)"/>
      <use xlink:href="#DejaVuSans-30" transform="translate(229.736328 0.78125)"/>
      <use xlink:href="#DejaVuSans-2c" transform="translate(293.359375 0.78125)"/>
      <use xlink:href="#DejaVuSans-20" transform="translate(325.146484 0.78125)"/>
      <use xlink:href="#DejaVuSans-Oblique-4a" transform="translate(356.933594 0.78125)"/>
      <use xlink:href="#DejaVuSans-3d" transform="translate(405.908203 0.78125)"/>
      <use xlink:href="#DejaVuSans-31" transform="translate(509.179688 0.78125)"/>
      <use xlink:href="#DejaVuSans-2e" transform="translate(572.802734 0.78125)"/>
      <use xlink:href="#DejaVuSans-36" transform="translate(604.589844 0.78125)"/>
      <use xlink:href="#DejaVuSans-30" transform="translate(668.212891 0.78125)"/>
     </g>
    </g>
    <g id="line2d_27">
     <path d="M 459.255247 107.182688 
L 469.255247 107.182688 
L 479.255247 107.182688 
" style="fill: none; stroke: #0080ff; stroke-width: 1.5; stroke-linecap: square"/>
    </g>
    <g id="text_14">
     <!-- $\delta_e = 0$, $J = 1.80$ -->
     <g transform="translate(487.255247 110.682688) scale(0.1 -0.1)">
      <defs>
       <path id="DejaVuSans-38" d="M 2034 2216 
Q 1584 2216 1326 1975 
Q 1069 1734 1069 1313 
Q 1069 891 1326 650 
Q 1584 409 2034 409 
Q 2484 409 2743 651 
Q 3003 894 3003 1313 
Q 3003 1734 2745 1975 
Q 2488 2216 2034 2216 
z
M 1403 2484 
Q 997 2584 770 2862 
Q 544 3141 544 3541 
Q 544 4100 942 4425 
Q 1341 4750 2034 4750 
Q 2731 4750 3128 4425 
Q 3525 4100 3525 3541 
Q 3525 3141 3298 2862 
Q 3072 2584 2669 2484 
Q 3125 2378 3379 2068 
Q 3634 1759 3634 1313 
Q 3634 634 3220 271 
Q 2806 -91 2034 -91 
Q 1263 -91 848 271 
Q 434 634 434 1313 
Q 434 1759 690 2068 
Q 947 2378 1403 2484 
z
M 1172 3481 
Q 1172 3119 1398 2916 
Q 1625 2713 2034 2713 
Q 2441 2713 2670 2916 
Q 2900 3119 2900 3481 
Q 2900 3844 2670 4047 
Q 2441 4250 2034 4250 
Q 1625 4250 1398 4047 
Q 1172 3844 1172 3481 
z
" transform="scale(0.015625)"/>
      </defs>
      <use xlink:href="#DejaVuSans-Oblique-3b4" transform="translate(0 0.78125)"/>
      <use xlink:href="#DejaVuSans-Oblique-65" transform="translate(61.181641 -15.625) scale(0.7)"/>
      <use xlink:href="#DejaVuSans-3d" transform="translate(126.464844 0.78125)"/>
      <use xlink:href="#DejaVuSans-30" transform="translate(229.736328 0.78125)"/>
      <use xlink:href="#DejaVuSans-2c" transform="translate(293.359375 0.78125)"/>
      <use xlink:href="#DejaVuSans-20" transform="translate(325.146484 0.78125)"/>
      <use xlink:href="#DejaVuSans-Oblique-4a" transform="translate(356.933594 0.78125)"/>
      <use xlink:href="#DejaVuSans-3d" transform="translate(405.908203 0.78125)"/>
      <use xlink:href="#DejaVuSans-31" transform="translate(509.179688 0.78125)"/>
      <use xlink:href="#DejaVuSans-2e" transform="translate(572.802734 0.78125)"/>
      <use xlink:href="#DejaVuSans-38" transform="translate(601.964844 0.78125)"/>
      <use xlink:href="#DejaVuSans-30" transform="translate(665.587891 0.78125)"/>
     </g>
    </g>
    <g id="line2d_28">
     <path d="M 459.255247 121.881125 
L 469.255247 121.881125 
L 479.255247 121.881125 
" style="fill: none; stroke: #7dff7a; stroke-width: 1.5; stroke-linecap: square"/>
    </g>
    <g id="text_15">
     <!-- $\delta_e = 0$, $J = 2.00$ -->
     <g transform="translate(487.255247 125.381125) scale(0.1 -0.1)">
      <use xlink:href="#DejaVuSans-Oblique-3b4" transform="translate(0 0.78125)"/>
      <use xlink:href="#DejaVuSans-Oblique-65" transform="translate(61.181641 -15.625) scale(0.7)"/>
      <use xlink:href="#DejaVuSans-3d" transform="translate(126.464844 0.78125)"/>
      <use xlink:href="#DejaVuSans-30" transform="translate(229.736328 0.78125)"/>
      <use xlink:href="#DejaVuSans-2c" transform="translate(293.359375 0.78125)"/>
      <use xlink:href="#DejaVuSans-20" transform="translate(325.146484 0.78125)"/>
      <use xlink:href="#DejaVuSans-Oblique-4a" transform="translate(356.933594 0.78125)"/>
      <use xlink:href="#DejaVuSans-3d" transform="translate(405.908203 0.78125)"/>
      <use xlink:href="#DejaVuSans-32" transform="translate(509.179688 0.78125)"/>
      <use xlink:href="#DejaVuSans-2e" transform="translate(572.802734 0.78125)"/>
      <use xlink:href="#DejaVuSans-30" transform="translate(604.589844 0.78125)"/>
      <use xlink:href="#DejaVuSans-30" transform="translate(668.212891 0.78125)"/>
     </g>
    </g>
    <g id="line2d_29">
     <path d="M 459.255247 136.579563 
L 469.255247 136.579563 
L 479.255247 136.579563 
" style="fill: none; stroke: #ff9400; stroke-width: 1.5; stroke-linecap: square"/>
    </g>
    <g id="text_16">
     <!-- $\delta_e = 0$, $J = 2.20$ -->
     <g transform="translate(487.255247 140.079563) scale(0.1 -0.1)">
      <use xlink:href="#DejaVuSans-Oblique-3b4" transform="translate(0 0.78125)"/>
      <use xlink:href="#DejaVuSans-Oblique-65" transform="translate(61.181641 -15.625) scale(0.7)"/>
      <use xlink:href="#DejaVuSans-3d" transform="translate(126.464844 0.78125)"/>
      <use xlink:href="#DejaVuSans-30" transform="translate(229.736328 0.78125)"/>
      <use xlink:href="#DejaVuSans-2c" transform="translate(293.359375 0.78125)"/>
      <use xlink:href="#DejaVuSans-20" transform="translate(325.146484 0.78125)"/>
      <use xlink:href="#DejaVuSans-Oblique-4a" transform="translate(356.933594 0.78125)"/>
      <use xlink:href="#DejaVuSans-3d" transform="translate(405.908203 0.78125)"/>
      <use xlink:href="#DejaVuSans-32" transform="translate(509.179688 0.78125)"/>
      <use xlink:href="#DejaVuSans-2e" transform="translate(572.802734 0.78125)"/>
      <use xlink:href="#DejaVuSans-32" transform="translate(599.089844 0.78125)"/>
      <use xlink:href="#DejaVuSans-30" transform="translate(662.712891 0.78125)"/>
     </g>
    </g>
    <g id="line2d_30">
     <path d="M 459.255247 151.278 
L 469.255247 151.278 
L 479.255247 151.278 
" style="fill: none; stroke: #800000; stroke-width: 1.5; stroke-linecap: square"/>
    </g>
    <g id="text_17">
     <!-- $\delta_e = 0$, $J = 2.40$ -->
     <g transform="translate(487.255247 154.778) scale(0.1 -0.1)">
      <use xlink:href="#DejaVuSans-Oblique-3b4" transform="translate(0 0.78125)"/>
      <use xlink:href="#DejaVuSans-Oblique-65" transform="translate(61.181641 -15.625) scale(0.7)"/>
      <use xlink:href="#DejaVuSans-3d" transform="translate(126.464844 0.78125)"/>
      <use xlink:href="#DejaVuSans-30" transform="translate(229.736328 0.78125)"/>
      <use xlink:href="#DejaVuSans-2c" transform="translate(293.359375 0.78125)"/>
      <use xlink:href="#DejaVuSans-20" transform="translate(325.146484 0.78125)"/>
      <use xlink:href="#DejaVuSans-Oblique-4a" transform="translate(356.933594 0.78125)"/>
      <use xlink:href="#DejaVuSans-3d" transform="translate(405.908203 0.78125)"/>
      <use xlink:href="#DejaVuSans-32" transform="translate(509.179688 0.78125)"/>
      <use xlink:href="#DejaVuSans-2e" transform="translate(572.802734 0.78125)"/>
      <use xlink:href="#DejaVuSans-34" transform="translate(604.589844 0.78125)"/>
      <use xlink:href="#DejaVuSans-30" transform="translate(668.212891 0.78125)"/>
     </g>
    </g>
   </g>
  </g>
 </g>
 <defs>
  <clipPath id="p725d1df361">
   <rect x="74.432" y="10.8" width="375.823247" height="163.24"/>
  </clipPath>
 </defs>
</svg>
