<?xml version="1.0" encoding="utf-8" standalone="no"?>
<!DOCTYPE svg PUBLIC "-//W3C//DTD SVG 1.1//EN"
  "http://www.w3.org/Graphics/SVG/1.1/DTD/svg11.dtd">
<svg xmlns:xlink="http://www.w3.org/1999/xlink" width="432pt" height="216pt" viewBox="0 0 432 216" xmlns="http://www.w3.org/2000/svg" version="1.1">
 <metadata>
  <rdf:RDF xmlns:dc="http://purl.org/dc/elements/1.1/" xmlns:cc="http://creativecommons.org/ns#" xmlns:rdf="http://www.w3.org/1999/02/22-rdf-syntax-ns#">
   <cc:Work>
    <dc:type rdf:resource="http://purl.org/dc/dcmitype/StillImage"/>
    <dc:date>2025-03-28T12:22:27.260443</dc:date>
    <dc:format>image/svg+xml</dc:format>
    <dc:creator>
     <cc:Agent>
      <dc:title>Matplotlib v3.9.2, https://matplotlib.org/</dc:title>
     </cc:Agent>
    </dc:creator>
   </cc:Work>
  </rdf:RDF>
 </metadata>
 <defs>
  <style type="text/css">*{stroke-linejoin: round; stroke-linecap: butt}</style>
 </defs>
 <g id="figure_1">
  <g id="patch_1">
   <path d="M 0 216 
L 432 216 
L 432 0 
L 0 0 
z
" style="fill: #ffffff"/>
  </g>
  <g id="axes_1">
   <g id="patch_2">
    <path d="M 74.432 174.04 
L 306.255247 174.04 
L 306.255247 10.8 
L 74.432 10.8 
z
" style="fill: #ffffff"/>
   </g>
   <g id="matplotlib.axis_1">
    <g id="xtick_1">
     <g id="line2d_1">
      <path d="M 84.96942 174.04 
L 84.96942 10.8 
" clip-path="url(#pb6c68203d1)" style="fill: none; stroke: #b0b0b0; stroke-width: 0.8; stroke-linecap: square"/>
     </g>
     <g id="line2d_2">
      <defs>
       <path id="mae1695eb35" d="M 0 0 
L 0 3.5 
" style="stroke: #000000; stroke-width: 0.8"/>
      </defs>
      <g>
       <use xlink:href="#mae1695eb35" x="84.96942" y="174.04" style="stroke: #000000; stroke-width: 0.8"/>
      </g>
     </g>
     <g id="text_1">
      <!-- −4 -->
      <g transform="translate(77.598327 188.638438) scale(0.1 -0.1)">
       <defs>
        <path id="DejaVuSans-2212" d="M 678 2272 
L 4684 2272 
L 4684 1741 
L 678 1741 
L 678 2272 
z
" transform="scale(0.015625)"/>
        <path id="DejaVuSans-34" d="M 2419 4116 
L 825 1625 
L 2419 1625 
L 2419 4116 
z
M 2253 4666 
L 3047 4666 
L 3047 1625 
L 3713 1625 
L 3713 1100 
L 3047 1100 
L 3047 0 
L 2419 0 
L 2419 1100 
L 313 1100 
L 313 1709 
L 2253 4666 
z
" transform="scale(0.015625)"/>
       </defs>
       <use xlink:href="#DejaVuSans-2212"/>
       <use xlink:href="#DejaVuSans-34" x="83.789062"/>
      </g>
     </g>
    </g>
    <g id="xtick_2">
     <g id="line2d_3">
      <path d="M 123.287312 174.04 
L 123.287312 10.8 
" clip-path="url(#pb6c68203d1)" style="fill: none; stroke: #b0b0b0; stroke-width: 0.8; stroke-linecap: square"/>
     </g>
     <g id="line2d_4">
      <g>
       <use xlink:href="#mae1695eb35" x="123.287312" y="174.04" style="stroke: #000000; stroke-width: 0.8"/>
      </g>
     </g>
     <g id="text_2">
      <!-- −2 -->
      <g transform="translate(115.916219 188.638438) scale(0.1 -0.1)">
       <defs>
        <path id="DejaVuSans-32" d="M 1228 531 
L 3431 531 
L 3431 0 
L 469 0 
L 469 531 
Q 828 903 1448 1529 
Q 2069 2156 2228 2338 
Q 2531 2678 2651 2914 
Q 2772 3150 2772 3378 
Q 2772 3750 2511 3984 
Q 2250 4219 1831 4219 
Q 1534 4219 1204 4116 
Q 875 4013 500 3803 
L 500 4441 
Q 881 4594 1212 4672 
Q 1544 4750 1819 4750 
Q 2544 4750 2975 4387 
Q 3406 4025 3406 3419 
Q 3406 3131 3298 2873 
Q 3191 2616 2906 2266 
Q 2828 2175 2409 1742 
Q 1991 1309 1228 531 
z
" transform="scale(0.015625)"/>
       </defs>
       <use xlink:href="#DejaVuSans-2212"/>
       <use xlink:href="#DejaVuSans-32" x="83.789062"/>
      </g>
     </g>
    </g>
    <g id="xtick_3">
     <g id="line2d_5">
      <path d="M 161.605205 174.04 
L 161.605205 10.8 
" clip-path="url(#pb6c68203d1)" style="fill: none; stroke: #b0b0b0; stroke-width: 0.8; stroke-linecap: square"/>
     </g>
     <g id="line2d_6">
      <g>
       <use xlink:href="#mae1695eb35" x="161.605205" y="174.04" style="stroke: #000000; stroke-width: 0.8"/>
      </g>
     </g>
     <g id="text_3">
      <!-- 0 -->
      <g transform="translate(158.423955 188.638438) scale(0.1 -0.1)">
       <defs>
        <path id="DejaVuSans-30" d="M 2034 4250 
Q 1547 4250 1301 3770 
Q 1056 3291 1056 2328 
Q 1056 1369 1301 889 
Q 1547 409 2034 409 
Q 2525 409 2770 889 
Q 3016 1369 3016 2328 
Q 3016 3291 2770 3770 
Q 2525 4250 2034 4250 
z
M 2034 4750 
Q 2819 4750 3233 4129 
Q 3647 3509 3647 2328 
Q 3647 1150 3233 529 
Q 2819 -91 2034 -91 
Q 1250 -91 836 529 
Q 422 1150 422 2328 
Q 422 3509 836 4129 
Q 1250 4750 2034 4750 
z
" transform="scale(0.015625)"/>
       </defs>
       <use xlink:href="#DejaVuSans-30"/>
      </g>
     </g>
    </g>
    <g id="xtick_4">
     <g id="line2d_7">
      <path d="M 199.923097 174.04 
L 199.923097 10.8 
" clip-path="url(#pb6c68203d1)" style="fill: none; stroke: #b0b0b0; stroke-width: 0.8; stroke-linecap: square"/>
     </g>
     <g id="line2d_8">
      <g>
       <use xlink:href="#mae1695eb35" x="199.923097" y="174.04" style="stroke: #000000; stroke-width: 0.8"/>
      </g>
     </g>
     <g id="text_4">
      <!-- 2 -->
      <g transform="translate(196.741847 188.638438) scale(0.1 -0.1)">
       <use xlink:href="#DejaVuSans-32"/>
      </g>
     </g>
    </g>
    <g id="xtick_5">
     <g id="line2d_9">
      <path d="M 238.240989 174.04 
L 238.240989 10.8 
" clip-path="url(#pb6c68203d1)" style="fill: none; stroke: #b0b0b0; stroke-width: 0.8; stroke-linecap: square"/>
     </g>
     <g id="line2d_10">
      <g>
       <use xlink:href="#mae1695eb35" x="238.240989" y="174.04" style="stroke: #000000; stroke-width: 0.8"/>
      </g>
     </g>
     <g id="text_5">
      <!-- 4 -->
      <g transform="translate(235.059739 188.638438) scale(0.1 -0.1)">
       <use xlink:href="#DejaVuSans-34"/>
      </g>
     </g>
    </g>
    <g id="xtick_6">
     <g id="line2d_11">
      <path d="M 276.558881 174.04 
L 276.558881 10.8 
" clip-path="url(#pb6c68203d1)" style="fill: none; stroke: #b0b0b0; stroke-width: 0.8; stroke-linecap: square"/>
     </g>
     <g id="line2d_12">
      <g>
       <use xlink:href="#mae1695eb35" x="276.558881" y="174.04" style="stroke: #000000; stroke-width: 0.8"/>
      </g>
     </g>
     <g id="text_6">
      <!-- 6 -->
      <g transform="translate(273.377631 188.638438) scale(0.1 -0.1)">
       <defs>
        <path id="DejaVuSans-36" d="M 2113 2584 
Q 1688 2584 1439 2293 
Q 1191 2003 1191 1497 
Q 1191 994 1439 701 
Q 1688 409 2113 409 
Q 2538 409 2786 701 
Q 3034 994 3034 1497 
Q 3034 2003 2786 2293 
Q 2538 2584 2113 2584 
z
M 3366 4563 
L 3366 3988 
Q 3128 4100 2886 4159 
Q 2644 4219 2406 4219 
Q 1781 4219 1451 3797 
Q 1122 3375 1075 2522 
Q 1259 2794 1537 2939 
Q 1816 3084 2150 3084 
Q 2853 3084 3261 2657 
Q 3669 2231 3669 1497 
Q 3669 778 3244 343 
Q 2819 -91 2113 -91 
Q 1303 -91 875 529 
Q 447 1150 447 2328 
Q 447 3434 972 4092 
Q 1497 4750 2381 4750 
Q 2619 4750 2861 4703 
Q 3103 4656 3366 4563 
z
" transform="scale(0.015625)"/>
       </defs>
       <use xlink:href="#DejaVuSans-36"/>
      </g>
     </g>
    </g>
    <g id="text_7">
     <!-- $\alpha$ -->
     <g transform="translate(187.043624 202.316563) scale(0.1 -0.1)">
      <defs>
       <path id="DejaVuSans-Oblique-3b1" d="M 2619 1628 
L 2622 2350 
Q 2625 3088 2069 3091 
Q 1653 3094 1394 2747 
Q 1069 2319 959 1747 
Q 825 1059 994 731 
Q 1169 397 1547 397 
Q 1966 397 2319 1063 
L 2619 1628 
z
M 2166 3578 
Q 3141 3594 3128 2584 
Q 3128 2584 3616 3500 
L 4128 3500 
L 3119 1603 
L 3109 919 
Q 3109 766 3194 638 
Q 3291 488 3391 488 
L 3669 488 
L 3575 0 
L 3228 0 
Q 2934 0 2722 263 
Q 2622 394 2619 669 
Q 2416 334 2066 50 
Q 1900 -81 1453 -78 
Q 722 -72 456 397 
Q 184 884 353 1747 
Q 534 2675 1009 3097 
Q 1544 3569 2166 3578 
z
" transform="scale(0.015625)"/>
      </defs>
      <use xlink:href="#DejaVuSans-Oblique-3b1" transform="translate(0 0.84375)"/>
     </g>
    </g>
   </g>
   <g id="matplotlib.axis_2">
    <g id="ytick_1">
     <g id="line2d_13">
      <path d="M 74.432 172.777719 
L 306.255247 172.777719 
" clip-path="url(#pb6c68203d1)" style="fill: none; stroke: #b0b0b0; stroke-width: 0.8; stroke-linecap: square"/>
     </g>
     <g id="line2d_14">
      <defs>
       <path id="md5a68d9c10" d="M 0 0 
L -3.5 0 
" style="stroke: #000000; stroke-width: 0.8"/>
      </defs>
      <g>
       <use xlink:href="#md5a68d9c10" x="74.432" y="172.777719" style="stroke: #000000; stroke-width: 0.8"/>
      </g>
     </g>
     <g id="text_8">
      <!-- −0.004 -->
      <g transform="translate(30.424188 176.576938) scale(0.1 -0.1)">
       <defs>
        <path id="DejaVuSans-2e" d="M 684 794 
L 1344 794 
L 1344 0 
L 684 0 
L 684 794 
z
" transform="scale(0.015625)"/>
       </defs>
       <use xlink:href="#DejaVuSans-2212"/>
       <use xlink:href="#DejaVuSans-30" x="83.789062"/>
       <use xlink:href="#DejaVuSans-2e" x="147.412109"/>
       <use xlink:href="#DejaVuSans-30" x="179.199219"/>
       <use xlink:href="#DejaVuSans-30" x="242.822266"/>
       <use xlink:href="#DejaVuSans-34" x="306.445312"/>
      </g>
     </g>
    </g>
    <g id="ytick_2">
     <g id="line2d_15">
      <path d="M 74.432 140.30546 
L 306.255247 140.30546 
" clip-path="url(#pb6c68203d1)" style="fill: none; stroke: #b0b0b0; stroke-width: 0.8; stroke-linecap: square"/>
     </g>
     <g id="line2d_16">
      <g>
       <use xlink:href="#md5a68d9c10" x="74.432" y="140.30546" style="stroke: #000000; stroke-width: 0.8"/>
      </g>
     </g>
     <g id="text_9">
      <!-- −0.002 -->
      <g transform="translate(30.424188 144.104679) scale(0.1 -0.1)">
       <use xlink:href="#DejaVuSans-2212"/>
       <use xlink:href="#DejaVuSans-30" x="83.789062"/>
       <use xlink:href="#DejaVuSans-2e" x="147.412109"/>
       <use xlink:href="#DejaVuSans-30" x="179.199219"/>
       <use xlink:href="#DejaVuSans-30" x="242.822266"/>
       <use xlink:href="#DejaVuSans-32" x="306.445312"/>
      </g>
     </g>
    </g>
    <g id="ytick_3">
     <g id="line2d_17">
      <path d="M 74.432 107.8332 
L 306.255247 107.8332 
" clip-path="url(#pb6c68203d1)" style="fill: none; stroke: #b0b0b0; stroke-width: 0.8; stroke-linecap: square"/>
     </g>
     <g id="line2d_18">
      <g>
       <use xlink:href="#md5a68d9c10" x="74.432" y="107.8332" style="stroke: #000000; stroke-width: 0.8"/>
      </g>
     </g>
     <g id="text_10">
      <!-- 0.000 -->
      <g transform="translate(38.803875 111.632419) scale(0.1 -0.1)">
       <use xlink:href="#DejaVuSans-30"/>
       <use xlink:href="#DejaVuSans-2e" x="63.623047"/>
       <use xlink:href="#DejaVuSans-30" x="95.410156"/>
       <use xlink:href="#DejaVuSans-30" x="159.033203"/>
       <use xlink:href="#DejaVuSans-30" x="222.65625"/>
      </g>
     </g>
    </g>
    <g id="ytick_4">
     <g id="line2d_19">
      <path d="M 74.432 75.360941 
L 306.255247 75.360941 
" clip-path="url(#pb6c68203d1)" style="fill: none; stroke: #b0b0b0; stroke-width: 0.8; stroke-linecap: square"/>
     </g>
     <g id="line2d_20">
      <g>
       <use xlink:href="#md5a68d9c10" x="74.432" y="75.360941" style="stroke: #000000; stroke-width: 0.8"/>
      </g>
     </g>
     <g id="text_11">
      <!-- 0.002 -->
      <g transform="translate(38.803875 79.16016) scale(0.1 -0.1)">
       <use xlink:href="#DejaVuSans-30"/>
       <use xlink:href="#DejaVuSans-2e" x="63.623047"/>
       <use xlink:href="#DejaVuSans-30" x="95.410156"/>
       <use xlink:href="#DejaVuSans-30" x="159.033203"/>
       <use xlink:href="#DejaVuSans-32" x="222.65625"/>
      </g>
     </g>
    </g>
    <g id="ytick_5">
     <g id="line2d_21">
      <path d="M 74.432 42.888682 
L 306.255247 42.888682 
" clip-path="url(#pb6c68203d1)" style="fill: none; stroke: #b0b0b0; stroke-width: 0.8; stroke-linecap: square"/>
     </g>
     <g id="line2d_22">
      <g>
       <use xlink:href="#md5a68d9c10" x="74.432" y="42.888682" style="stroke: #000000; stroke-width: 0.8"/>
      </g>
     </g>
     <g id="text_12">
      <!-- 0.004 -->
      <g transform="translate(38.803875 46.6879) scale(0.1 -0.1)">
       <use xlink:href="#DejaVuSans-30"/>
       <use xlink:href="#DejaVuSans-2e" x="63.623047"/>
       <use xlink:href="#DejaVuSans-30" x="95.410156"/>
       <use xlink:href="#DejaVuSans-30" x="159.033203"/>
       <use xlink:href="#DejaVuSans-34" x="222.65625"/>
      </g>
     </g>
    </g>
    <g id="text_13">
     <!-- d$T_C = T / \rho V^2 D^2$ / d$\delta_e$ -->
     <g transform="translate(24.324188 141.37) rotate(-90) scale(0.1 -0.1)">
      <defs>
       <path id="DejaVuSans-64" d="M 2906 2969 
L 2906 4863 
L 3481 4863 
L 3481 0 
L 2906 0 
L 2906 525 
Q 2725 213 2448 61 
Q 2172 -91 1784 -91 
Q 1150 -91 751 415 
Q 353 922 353 1747 
Q 353 2572 751 3078 
Q 1150 3584 1784 3584 
Q 2172 3584 2448 3432 
Q 2725 3281 2906 2969 
z
M 947 1747 
Q 947 1113 1208 752 
Q 1469 391 1925 391 
Q 2381 391 2643 752 
Q 2906 1113 2906 1747 
Q 2906 2381 2643 2742 
Q 2381 3103 1925 3103 
Q 1469 3103 1208 2742 
Q 947 2381 947 1747 
z
" transform="scale(0.015625)"/>
       <path id="DejaVuSans-Oblique-54" d="M 378 4666 
L 4325 4666 
L 4225 4134 
L 2559 4134 
L 1759 0 
L 1125 0 
L 1925 4134 
L 275 4134 
L 378 4666 
z
" transform="scale(0.015625)"/>
       <path id="DejaVuSans-Oblique-43" d="M 4447 4306 
L 4319 3641 
Q 4019 3944 3683 4091 
Q 3347 4238 2956 4238 
Q 2422 4238 2017 3981 
Q 1613 3725 1319 3200 
Q 1131 2863 1032 2486 
Q 934 2109 934 1728 
Q 934 1091 1264 756 
Q 1594 422 2222 422 
Q 2656 422 3056 561 
Q 3456 700 3834 978 
L 3688 231 
Q 3316 72 2936 -9 
Q 2556 -91 2175 -91 
Q 1278 -91 773 396 
Q 269 884 269 1753 
Q 269 2309 461 2846 
Q 653 3384 1013 3828 
Q 1394 4300 1883 4525 
Q 2372 4750 3022 4750 
Q 3422 4750 3780 4639 
Q 4138 4528 4447 4306 
z
" transform="scale(0.015625)"/>
       <path id="DejaVuSans-3d" d="M 678 2906 
L 4684 2906 
L 4684 2381 
L 678 2381 
L 678 2906 
z
M 678 1631 
L 4684 1631 
L 4684 1100 
L 678 1100 
L 678 1631 
z
" transform="scale(0.015625)"/>
       <path id="DejaVuSans-2f" d="M 1625 4666 
L 2156 4666 
L 531 -594 
L 0 -594 
L 1625 4666 
z
" transform="scale(0.015625)"/>
       <path id="DejaVuSans-Oblique-3c1" d="M 1203 2875 
Q 1453 3194 1981 3475 
Q 2188 3584 2756 3584 
Q 3394 3584 3694 3078 
Q 3994 2572 3834 1747 
Q 3672 922 3175 415 
Q 2678 -91 2041 -91 
Q 1656 -91 1409 63 
Q 1163 213 1044 525 
L 681 -1331 
L 103 -1331 
L 697 1716 
Q 838 2438 1203 2875 
z
M 3238 1747 
Q 3359 2381 3169 2744 
Q 2978 3103 2522 3103 
Q 2066 3103 1734 2744 
Q 1403 2381 1281 1747 
Q 1156 1113 1347 750 
Q 1538 391 1994 391 
Q 2450 391 2781 750 
Q 3113 1113 3238 1747 
z
" transform="scale(0.015625)"/>
       <path id="DejaVuSans-Oblique-56" d="M 1319 0 
L 500 4666 
L 1119 4666 
L 1797 653 
L 4063 4666 
L 4750 4666 
L 2053 0 
L 1319 0 
z
" transform="scale(0.015625)"/>
       <path id="DejaVuSans-Oblique-44" d="M 1081 4666 
L 2438 4666 
Q 3519 4666 4070 4208 
Q 4622 3750 4622 2847 
Q 4622 2250 4412 1698 
Q 4203 1147 3834 769 
Q 3463 381 2891 190 
Q 2319 0 1538 0 
L 172 0 
L 1081 4666 
z
M 1613 4147 
L 909 519 
L 1734 519 
Q 2794 519 3375 1128 
Q 3956 1738 3956 2847 
Q 3956 3519 3581 3833 
Q 3206 4147 2406 4147 
L 1613 4147 
z
" transform="scale(0.015625)"/>
       <path id="DejaVuSans-20" transform="scale(0.015625)"/>
       <path id="DejaVuSans-Oblique-3b4" d="M 3472 4053 
Q 3197 4272 2450 4272 
Q 1659 4272 1588 3906 
Q 1531 3619 2328 3469 
Q 2953 3353 3253 3003 
Q 3616 2581 3447 1716 
Q 3284 888 2763 400 
Q 2238 -91 1488 -91 
Q 741 -91 406 400 
Q 72 888 241 1747 
Q 363 2384 891 2900 
Q 1097 3100 1353 3213 
Q 913 3459 1000 3900 
Q 1166 4750 2544 4750 
Q 3234 4750 3566 4531 
L 3472 4053 
z
M 1753 3056 
Q 1525 2966 1306 2738 
Q 969 2384 847 1747 
Q 722 1113 919 756 
Q 1119 397 1584 397 
Q 2044 397 2381 759 
Q 2722 1122 2838 1716 
Q 2956 2338 2731 2638 
Q 2491 2959 2103 2994 
Q 1906 3013 1753 3056 
z
" transform="scale(0.015625)"/>
       <path id="DejaVuSans-Oblique-65" d="M 3078 2063 
Q 3088 2113 3092 2166 
Q 3097 2219 3097 2272 
Q 3097 2653 2873 2875 
Q 2650 3097 2266 3097 
Q 1838 3097 1509 2826 
Q 1181 2556 1013 2059 
L 3078 2063 
z
M 3578 1613 
L 903 1613 
Q 884 1494 878 1425 
Q 872 1356 872 1306 
Q 872 872 1139 634 
Q 1406 397 1894 397 
Q 2269 397 2603 481 
Q 2938 566 3225 728 
L 3116 159 
Q 2806 34 2476 -28 
Q 2147 -91 1806 -91 
Q 1078 -91 686 257 
Q 294 606 294 1247 
Q 294 1794 489 2264 
Q 684 2734 1063 3103 
Q 1306 3334 1642 3459 
Q 1978 3584 2356 3584 
Q 2950 3584 3301 3228 
Q 3653 2872 3653 2272 
Q 3653 2128 3634 1964 
Q 3616 1800 3578 1613 
z
" transform="scale(0.015625)"/>
      </defs>
      <use xlink:href="#DejaVuSans-64" transform="translate(0 0.765625)"/>
      <use xlink:href="#DejaVuSans-Oblique-54" transform="translate(63.476562 0.765625)"/>
      <use xlink:href="#DejaVuSans-Oblique-43" transform="translate(124.560547 -15.640625) scale(0.7)"/>
      <use xlink:href="#DejaVuSans-3d" transform="translate(195.654297 0.765625)"/>
      <use xlink:href="#DejaVuSans-Oblique-54" transform="translate(298.925781 0.765625)"/>
      <use xlink:href="#DejaVuSans-2f" transform="translate(360.009766 0.765625)"/>
      <use xlink:href="#DejaVuSans-Oblique-3c1" transform="translate(393.701172 0.765625)"/>
      <use xlink:href="#DejaVuSans-Oblique-56" transform="translate(457.177734 0.765625)"/>
      <use xlink:href="#DejaVuSans-32" transform="translate(532.602708 39.046875) scale(0.7)"/>
      <use xlink:href="#DejaVuSans-Oblique-44" transform="translate(579.873216 0.765625)"/>
      <use xlink:href="#DejaVuSans-32" transform="translate(663.89194 39.046875) scale(0.7)"/>
      <use xlink:href="#DejaVuSans-20" transform="translate(711.162448 0.765625)"/>
      <use xlink:href="#DejaVuSans-2f" transform="translate(742.949557 0.765625)"/>
      <use xlink:href="#DejaVuSans-20" transform="translate(776.640964 0.765625)"/>
      <use xlink:href="#DejaVuSans-64" transform="translate(808.428073 0.765625)"/>
      <use xlink:href="#DejaVuSans-Oblique-3b4" transform="translate(871.904635 0.765625)"/>
      <use xlink:href="#DejaVuSans-Oblique-65" transform="translate(933.086276 -15.640625) scale(0.7)"/>
     </g>
    </g>
   </g>
   <g id="line2d_23">
    <path d="M 84.96942 18.22 
L 87.098192 18.713558 
L 89.226964 19.20641 
L 91.355736 19.698558 
L 93.484507 20.190001 
L 95.613279 20.680739 
L 97.742051 21.170772 
L 99.870823 21.660101 
L 101.999595 22.148724 
L 104.128366 22.636643 
L 106.257138 23.123857 
L 108.38591 23.610366 
L 110.514682 24.09617 
L 112.643454 24.581269 
L 114.772225 25.065664 
L 116.900997 25.549354 
L 119.029769 26.032338 
L 121.158541 26.514618 
L 123.287312 26.996193 
L 125.416084 27.477064 
L 127.544856 27.957229 
L 129.673628 28.43669 
L 131.8024 28.915445 
L 133.931171 29.393496 
L 136.059943 29.870842 
L 138.188715 30.347483 
L 140.317487 30.82342 
L 142.446259 31.298651 
L 144.57503 31.773178 
L 146.703802 32.247 
L 148.832574 32.720117 
L 150.961346 33.192529 
L 153.090117 33.664236 
L 155.218889 34.135238 
L 157.347661 34.605536 
L 159.476433 35.075129 
L 161.605205 35.544017 
L 163.733976 36.0122 
L 165.862748 36.479678 
L 167.99152 36.946451 
L 170.120292 37.412519 
L 172.249064 37.877883 
L 174.377835 38.342542 
L 176.506607 38.806496 
L 178.635379 39.269745 
L 180.764151 39.732289 
L 182.892922 40.194129 
L 185.021694 40.655263 
L 187.150466 41.115693 
L 189.279238 41.575418 
L 191.40801 42.034438 
L 193.536781 42.492753 
L 195.665553 42.950363 
L 197.794325 43.407269 
L 199.923097 43.863469 
L 202.051869 44.318965 
L 204.18064 44.773756 
L 206.309412 45.227842 
L 208.438184 45.681223 
L 210.566956 46.1339 
L 212.695727 46.585871 
L 214.824499 47.037138 
L 216.953271 47.4877 
L 219.082043 47.937557 
L 221.210815 48.386709 
L 223.339586 48.835156 
L 225.468358 49.282898 
L 227.59713 49.729936 
L 229.725902 50.176269 
L 231.854674 50.621897 
L 233.983445 51.06682 
L 236.112217 51.511038 
L 238.240989 51.954551 
L 240.369761 52.39736 
L 242.498532 52.839464 
L 244.627304 53.280862 
L 246.756076 53.721556 
L 248.884848 54.161546 
L 251.01362 54.60083 
L 253.142391 55.039409 
L 255.271163 55.477284 
L 257.399935 55.914454 
L 259.528707 56.350918 
L 261.657479 56.786679 
L 263.78625 57.221734 
L 265.915022 57.656084 
L 268.043794 58.08973 
L 270.172566 58.52267 
L 272.301337 58.954906 
L 274.430109 59.386437 
L 276.558881 59.817263 
L 278.687653 60.247384 
L 280.816425 60.676801 
L 282.945196 61.105512 
L 285.073968 61.533519 
L 287.20274 61.960821 
L 289.331512 62.387418 
L 291.460284 62.81331 
L 293.589055 63.238498 
L 295.717827 63.66298 
" clip-path="url(#pb6c68203d1)" style="fill: none; stroke: #000080; stroke-width: 1.5; stroke-linecap: square"/>
   </g>
   <g id="line2d_24">
    <path d="M 84.96942 48.258526 
L 87.098192 48.809535 
L 89.226964 49.358779 
L 91.355736 49.906258 
L 93.484507 50.451972 
L 95.613279 50.995921 
L 97.742051 51.538105 
L 99.870823 52.078524 
L 101.999595 52.617178 
L 104.128366 53.154066 
L 106.257138 53.68919 
L 108.38591 54.222549 
L 110.514682 54.754142 
L 112.643454 55.283971 
L 114.772225 55.812035 
L 116.900997 56.338333 
L 119.029769 56.862867 
L 121.158541 57.385635 
L 123.287312 57.906639 
L 125.416084 58.425877 
L 127.544856 58.943351 
L 129.673628 59.459059 
L 131.8024 59.973002 
L 133.931171 60.485181 
L 136.059943 60.995594 
L 138.188715 61.504242 
L 140.317487 62.011125 
L 142.446259 62.516243 
L 144.57503 63.019597 
L 146.703802 63.521185 
L 148.832574 64.021008 
L 150.961346 64.519066 
L 153.090117 65.015359 
L 155.218889 65.509887 
L 157.347661 66.00265 
L 159.476433 66.493648 
L 161.605205 66.982881 
L 163.733976 67.470349 
L 165.862748 67.956051 
L 167.99152 68.439989 
L 170.120292 68.922162 
L 172.249064 69.40257 
L 174.377835 69.881212 
L 176.506607 70.35809 
L 178.635379 70.833203 
L 180.764151 71.30655 
L 182.892922 71.778133 
L 185.021694 72.24795 
L 187.150466 72.716003 
L 189.279238 73.18229 
L 191.40801 73.646813 
L 193.536781 74.10957 
L 195.665553 74.570563 
L 197.794325 75.02979 
L 199.923097 75.487252 
L 202.051869 75.94295 
L 204.18064 76.396882 
L 206.309412 76.849049 
L 208.438184 77.299451 
L 210.566956 77.748089 
L 212.695727 78.194961 
L 214.824499 78.640068 
L 216.953271 79.08341 
L 219.082043 79.524987 
L 221.210815 79.964799 
L 223.339586 80.402846 
L 225.468358 80.839128 
L 227.59713 81.273645 
L 229.725902 81.706397 
L 231.854674 82.137384 
L 233.983445 82.566605 
L 236.112217 82.994062 
L 238.240989 83.419754 
L 240.369761 83.843681 
L 242.498532 84.265842 
L 244.627304 84.686239 
L 246.756076 85.104871 
L 248.884848 85.521737 
L 251.01362 85.936839 
L 253.142391 86.350175 
L 255.271163 86.761747 
L 257.399935 87.171553 
L 259.528707 87.579595 
L 261.657479 87.985871 
L 263.78625 88.390383 
L 265.915022 88.793129 
L 268.043794 89.19411 
L 270.172566 89.593327 
L 272.301337 89.990778 
L 274.430109 90.386464 
L 276.558881 90.780385 
L 278.687653 91.172541 
L 280.816425 91.562932 
L 282.945196 91.951559 
L 285.073968 92.33842 
L 287.20274 92.723516 
L 289.331512 93.106847 
L 291.460284 93.488413 
L 293.589055 93.868214 
L 295.717827 94.246249 
" clip-path="url(#pb6c68203d1)" style="fill: none; stroke: #0080ff; stroke-width: 1.5; stroke-linecap: square"/>
   </g>
   <g id="line2d_25">
    <path d="M 84.96942 72.844746 
L 87.098192 73.407076 
L 89.226964 73.96798 
L 91.355736 74.527459 
L 93.484507 75.085513 
L 95.613279 75.642141 
L 97.742051 76.197343 
L 99.870823 76.75112 
L 101.999595 77.303472 
L 104.128366 77.854397 
L 106.257138 78.403898 
L 108.38591 78.951972 
L 110.514682 79.498622 
L 112.643454 80.043845 
L 114.772225 80.587644 
L 116.900997 81.130016 
L 119.029769 81.670963 
L 121.158541 82.210485 
L 123.287312 82.748581 
L 125.416084 83.285252 
L 127.544856 83.820497 
L 129.673628 84.354316 
L 131.8024 84.88671 
L 133.931171 85.417678 
L 136.059943 85.947221 
L 138.188715 86.475339 
L 140.317487 87.002031 
L 142.446259 87.527297 
L 144.57503 88.051138 
L 146.703802 88.573553 
L 148.832574 89.094543 
L 150.961346 89.614107 
L 153.090117 90.132245 
L 155.218889 90.648958 
L 157.347661 91.164246 
L 159.476433 91.678108 
L 161.605205 92.190545 
L 163.733976 92.701556 
L 165.862748 93.211141 
L 167.99152 93.719301 
L 170.120292 94.226035 
L 172.249064 94.731344 
L 174.377835 95.235228 
L 176.506607 95.737685 
L 178.635379 96.238718 
L 180.764151 96.738324 
L 182.892922 97.236506 
L 185.021694 97.733261 
L 187.150466 98.228591 
L 189.279238 98.722496 
L 191.40801 99.214975 
L 193.536781 99.706029 
L 195.665553 100.195657 
L 197.794325 100.683859 
L 199.923097 101.170636 
L 202.051869 101.655988 
L 204.18064 102.139914 
L 206.309412 102.622414 
L 208.438184 103.103489 
L 210.566956 103.583138 
L 212.695727 104.061362 
L 214.824499 104.53816 
L 216.953271 105.013533 
L 219.082043 105.48748 
L 221.210815 105.960002 
L 223.339586 106.431098 
L 225.468358 106.900769 
L 227.59713 107.369014 
L 229.725902 107.835833 
L 231.854674 108.301227 
L 233.983445 108.765196 
L 236.112217 109.227739 
L 238.240989 109.688856 
L 240.369761 110.148548 
L 242.498532 110.606814 
L 244.627304 111.063655 
L 246.756076 111.51907 
L 248.884848 111.97306 
L 251.01362 112.425624 
L 253.142391 112.876763 
L 255.271163 113.326476 
L 257.399935 113.774764 
L 259.528707 114.221626 
L 261.657479 114.667063 
L 263.78625 115.111074 
L 265.915022 115.553659 
L 268.043794 115.994819 
L 270.172566 116.434554 
L 272.301337 116.872863 
L 274.430109 117.309746 
L 276.558881 117.745204 
L 278.687653 118.179236 
L 280.816425 118.611843 
L 282.945196 119.043024 
L 285.073968 119.47278 
L 287.20274 119.90111 
L 289.331512 120.328015 
L 291.460284 120.753494 
L 293.589055 121.177548 
L 295.717827 121.600176 
" clip-path="url(#pb6c68203d1)" style="fill: none; stroke: #7dff7a; stroke-width: 1.5; stroke-linecap: square"/>
   </g>
   <g id="line2d_26">
    <path d="M 84.96942 91.978658 
L 87.098192 92.506179 
L 89.226964 93.034013 
L 91.355736 93.562161 
L 93.484507 94.090623 
L 95.613279 94.619398 
L 97.742051 95.148487 
L 99.870823 95.67789 
L 101.999595 96.207606 
L 104.128366 96.737636 
L 106.257138 97.26798 
L 108.38591 97.798637 
L 110.514682 98.329608 
L 112.643454 98.860893 
L 114.772225 99.392491 
L 116.900997 99.924403 
L 119.029769 100.456629 
L 121.158541 100.989168 
L 123.287312 101.522021 
L 125.416084 102.055187 
L 127.544856 102.588668 
L 129.673628 103.122461 
L 131.8024 103.656569 
L 133.931171 104.19099 
L 136.059943 104.725725 
L 138.188715 105.260774 
L 140.317487 105.796136 
L 142.446259 106.331811 
L 144.57503 106.867801 
L 146.703802 107.404104 
L 148.832574 107.940721 
L 150.961346 108.477651 
L 153.090117 109.014895 
L 155.218889 109.552453 
L 157.347661 110.090325 
L 159.476433 110.62851 
L 161.605205 111.167008 
L 163.733976 111.705821 
L 165.862748 112.244947 
L 167.99152 112.784386 
L 170.120292 113.32414 
L 172.249064 113.864207 
L 174.377835 114.404587 
L 176.506607 114.945282 
L 178.635379 115.48629 
L 180.764151 116.027611 
L 182.892922 116.569247 
L 185.021694 117.111196 
L 187.150466 117.653458 
L 189.279238 118.196034 
L 191.40801 118.738924 
L 193.536781 119.282128 
L 195.665553 119.825645 
L 197.794325 120.369476 
L 199.923097 120.913621 
L 202.051869 121.458079 
L 204.18064 122.002851 
L 206.309412 122.547936 
L 208.438184 123.093335 
L 210.566956 123.639048 
L 212.695727 124.185075 
L 214.824499 124.731415 
L 216.953271 125.278069 
L 219.082043 125.825036 
L 221.210815 126.372317 
L 223.339586 126.919912 
L 225.468358 127.46782 
L 227.59713 128.016042 
L 229.725902 128.564578 
L 231.854674 129.113428 
L 233.983445 129.662591 
L 236.112217 130.212067 
L 238.240989 130.761858 
L 240.369761 131.311962 
L 242.498532 131.862379 
L 244.627304 132.413111 
L 246.756076 132.964156 
L 248.884848 133.515514 
L 251.01362 134.067187 
L 253.142391 134.619172 
L 255.271163 135.171472 
L 257.399935 135.724085 
L 259.528707 136.277012 
L 261.657479 136.830253 
L 263.78625 137.383807 
L 265.915022 137.937675 
L 268.043794 138.491857 
L 270.172566 139.046352 
L 272.301337 139.601161 
L 274.430109 140.156283 
L 276.558881 140.711719 
L 278.687653 141.267469 
L 280.816425 141.823533 
L 282.945196 142.37991 
L 285.073968 142.936601 
L 287.20274 143.493605 
L 289.331512 144.050923 
L 291.460284 144.608555 
L 293.589055 145.1665 
L 295.717827 145.724759 
" clip-path="url(#pb6c68203d1)" style="fill: none; stroke: #ff9400; stroke-width: 1.5; stroke-linecap: square"/>
   </g>
   <g id="line2d_27">
    <path d="M 84.96942 105.660263 
L 87.098192 106.106844 
L 89.226964 106.556877 
L 91.355736 107.010363 
L 93.484507 107.467302 
L 95.613279 107.927693 
L 97.742051 108.391537 
L 99.870823 108.858833 
L 101.999595 109.329582 
L 104.128366 109.803783 
L 106.257138 110.281437 
L 108.38591 110.762543 
L 110.514682 111.247102 
L 112.643454 111.735113 
L 114.772225 112.226577 
L 116.900997 112.721493 
L 119.029769 113.219862 
L 121.158541 113.721684 
L 123.287312 114.226958 
L 125.416084 114.735684 
L 127.544856 115.247863 
L 129.673628 115.763495 
L 131.8024 116.282579 
L 133.931171 116.805116 
L 136.059943 117.331105 
L 138.188715 117.860546 
L 140.317487 118.393441 
L 142.446259 118.929787 
L 144.57503 119.469587 
L 146.703802 120.012838 
L 148.832574 120.559543 
L 150.961346 121.1097 
L 153.090117 121.663309 
L 155.218889 122.220371 
L 157.347661 122.780885 
L 159.476433 123.344852 
L 161.605205 123.912272 
L 163.733976 124.483144 
L 165.862748 125.057469 
L 167.99152 125.635246 
L 170.120292 126.216475 
L 172.249064 126.801157 
L 174.377835 127.389292 
L 176.506607 127.980879 
L 178.635379 128.575919 
L 180.764151 129.174411 
L 182.892922 129.776356 
L 185.021694 130.381753 
L 187.150466 130.990603 
L 189.279238 131.602906 
L 191.40801 132.218661 
L 193.536781 132.837868 
L 195.665553 133.460528 
L 197.794325 134.086641 
L 199.923097 134.716206 
L 202.051869 135.349223 
L 204.18064 135.985693 
L 206.309412 136.625616 
L 208.438184 137.268991 
L 210.566956 137.915819 
L 212.695727 138.566099 
L 214.824499 139.219832 
L 216.953271 139.877017 
L 219.082043 140.537655 
L 221.210815 141.201745 
L 223.339586 141.869288 
L 225.468358 142.540283 
L 227.59713 143.214731 
L 229.725902 143.892632 
L 231.854674 144.573985 
L 233.983445 145.25879 
L 236.112217 145.947048 
L 238.240989 146.638759 
L 240.369761 147.333922 
L 242.498532 148.032537 
L 244.627304 148.734606 
L 246.756076 149.440126 
L 248.884848 150.149099 
L 251.01362 150.861525 
L 253.142391 151.577404 
L 255.271163 152.296734 
L 257.399935 153.019518 
L 259.528707 153.745753 
L 261.657479 154.475442 
L 263.78625 155.208583 
L 265.915022 155.945176 
L 268.043794 156.685222 
L 270.172566 157.428721 
L 272.301337 158.175672 
L 274.430109 158.926075 
L 276.558881 159.679931 
L 278.687653 160.43724 
L 280.816425 161.198001 
L 282.945196 161.962215 
L 285.073968 162.729881 
L 287.20274 163.501 
L 289.331512 164.275571 
L 291.460284 165.053595 
L 293.589055 165.835071 
L 295.717827 166.62 
" clip-path="url(#pb6c68203d1)" style="fill: none; stroke: #800000; stroke-width: 1.5; stroke-linecap: square"/>
   </g>
   <g id="patch_3">
    <path d="M 74.432 174.04 
L 74.432 10.8 
" style="fill: none; stroke: #000000; stroke-width: 0.8; stroke-linejoin: miter; stroke-linecap: square"/>
   </g>
   <g id="patch_4">
    <path d="M 306.255247 174.04 
L 306.255247 10.8 
" style="fill: none; stroke: #000000; stroke-width: 0.8; stroke-linejoin: miter; stroke-linecap: square"/>
   </g>
   <g id="patch_5">
    <path d="M 74.432 174.04 
L 306.255247 174.04 
" style="fill: none; stroke: #000000; stroke-width: 0.8; stroke-linejoin: miter; stroke-linecap: square"/>
   </g>
   <g id="patch_6">
    <path d="M 74.432 10.8 
L 306.255247 10.8 
" style="fill: none; stroke: #000000; stroke-width: 0.8; stroke-linejoin: miter; stroke-linecap: square"/>
   </g>
   <g id="legend_1">
    <g id="patch_7">
     <path d="M 315.255247 162.878 
L 420.455247 162.878 
Q 422.455247 162.878 422.455247 160.878 
L 422.455247 88.385812 
Q 422.455247 86.385812 420.455247 86.385812 
L 315.255247 86.385812 
Q 313.255247 86.385812 313.255247 88.385812 
L 313.255247 160.878 
Q 313.255247 162.878 315.255247 162.878 
z
" style="fill: #4d4d4d; opacity: 0.5; stroke: #4d4d4d; stroke-linejoin: miter"/>
    </g>
    <g id="patch_8">
     <path d="M 313.255247 160.878 
L 418.455247 160.878 
Q 420.455247 160.878 420.455247 158.878 
L 420.455247 86.385812 
Q 420.455247 84.385812 418.455247 84.385812 
L 313.255247 84.385812 
Q 311.255247 84.385812 311.255247 86.385812 
L 311.255247 158.878 
Q 311.255247 160.878 313.255247 160.878 
z
" style="fill: #ffffff; stroke: #cccccc; stroke-linejoin: miter"/>
    </g>
    <g id="line2d_28">
     <path d="M 315.255247 92.48425 
L 325.255247 92.48425 
L 335.255247 92.48425 
" style="fill: none; stroke: #000080; stroke-width: 1.5; stroke-linecap: square"/>
    </g>
    <g id="text_14">
     <!-- $\delta_e = 0$, $J = 1.60$ -->
     <g transform="translate(343.255247 95.98425) scale(0.1 -0.1)">
      <defs>
       <path id="DejaVuSans-2c" d="M 750 794 
L 1409 794 
L 1409 256 
L 897 -744 
L 494 -744 
L 750 256 
L 750 794 
z
" transform="scale(0.015625)"/>
       <path id="DejaVuSans-Oblique-4a" d="M 1069 4666 
L 1703 4666 
L 856 325 
Q 691 -522 298 -901 
Q -94 -1281 -800 -1281 
L -1050 -1281 
L -947 -750 
L -750 -750 
Q -328 -750 -109 -509 
Q 109 -269 225 325 
L 1069 4666 
z
" transform="scale(0.015625)"/>
       <path id="DejaVuSans-31" d="M 794 531 
L 1825 531 
L 1825 4091 
L 703 3866 
L 703 4441 
L 1819 4666 
L 2450 4666 
L 2450 531 
L 3481 531 
L 3481 0 
L 794 0 
L 794 531 
z
" transform="scale(0.015625)"/>
      </defs>
      <use xlink:href="#DejaVuSans-Oblique-3b4" transform="translate(0 0.78125)"/>
      <use xlink:href="#DejaVuSans-Oblique-65" transform="translate(61.181641 -15.625) scale(0.7)"/>
      <use xlink:href="#DejaVuSans-3d" transform="translate(126.464844 0.78125)"/>
      <use xlink:href="#DejaVuSans-30" transform="translate(229.736328 0.78125)"/>
      <use xlink:href="#DejaVuSans-2c" transform="translate(293.359375 0.78125)"/>
      <use xlink:href="#DejaVuSans-20" transform="translate(325.146484 0.78125)"/>
      <use xlink:href="#DejaVuSans-Oblique-4a" transform="translate(356.933594 0.78125)"/>
      <use xlink:href="#DejaVuSans-3d" transform="translate(405.908203 0.78125)"/>
      <use xlink:href="#DejaVuSans-31" transform="translate(509.179688 0.78125)"/>
      <use xlink:href="#DejaVuSans-2e" transform="translate(572.802734 0.78125)"/>
      <use xlink:href="#DejaVuSans-36" transform="translate(604.589844 0.78125)"/>
      <use xlink:href="#DejaVuSans-30" transform="translate(668.212891 0.78125)"/>
     </g>
    </g>
    <g id="line2d_29">
     <path d="M 315.255247 107.182688 
L 325.255247 107.182688 
L 335.255247 107.182688 
" style="fill: none; stroke: #0080ff; stroke-width: 1.5; stroke-linecap: square"/>
    </g>
    <g id="text_15">
     <!-- $\delta_e = 0$, $J = 1.80$ -->
     <g transform="translate(343.255247 110.682688) scale(0.1 -0.1)">
      <defs>
       <path id="DejaVuSans-38" d="M 2034 2216 
Q 1584 2216 1326 1975 
Q 1069 1734 1069 1313 
Q 1069 891 1326 650 
Q 1584 409 2034 409 
Q 2484 409 2743 651 
Q 3003 894 3003 1313 
Q 3003 1734 2745 1975 
Q 2488 2216 2034 2216 
z
M 1403 2484 
Q 997 2584 770 2862 
Q 544 3141 544 3541 
Q 544 4100 942 4425 
Q 1341 4750 2034 4750 
Q 2731 4750 3128 4425 
Q 3525 4100 3525 3541 
Q 3525 3141 3298 2862 
Q 3072 2584 2669 2484 
Q 3125 2378 3379 2068 
Q 3634 1759 3634 1313 
Q 3634 634 3220 271 
Q 2806 -91 2034 -91 
Q 1263 -91 848 271 
Q 434 634 434 1313 
Q 434 1759 690 2068 
Q 947 2378 1403 2484 
z
M 1172 3481 
Q 1172 3119 1398 2916 
Q 1625 2713 2034 2713 
Q 2441 2713 2670 2916 
Q 2900 3119 2900 3481 
Q 2900 3844 2670 4047 
Q 2441 4250 2034 4250 
Q 1625 4250 1398 4047 
Q 1172 3844 1172 3481 
z
" transform="scale(0.015625)"/>
      </defs>
      <use xlink:href="#DejaVuSans-Oblique-3b4" transform="translate(0 0.78125)"/>
      <use xlink:href="#DejaVuSans-Oblique-65" transform="translate(61.181641 -15.625) scale(0.7)"/>
      <use xlink:href="#DejaVuSans-3d" transform="translate(126.464844 0.78125)"/>
      <use xlink:href="#DejaVuSans-30" transform="translate(229.736328 0.78125)"/>
      <use xlink:href="#DejaVuSans-2c" transform="translate(293.359375 0.78125)"/>
      <use xlink:href="#DejaVuSans-20" transform="translate(325.146484 0.78125)"/>
      <use xlink:href="#DejaVuSans-Oblique-4a" transform="translate(356.933594 0.78125)"/>
      <use xlink:href="#DejaVuSans-3d" transform="translate(405.908203 0.78125)"/>
      <use xlink:href="#DejaVuSans-31" transform="translate(509.179688 0.78125)"/>
      <use xlink:href="#DejaVuSans-2e" transform="translate(572.802734 0.78125)"/>
      <use xlink:href="#DejaVuSans-38" transform="translate(601.964844 0.78125)"/>
      <use xlink:href="#DejaVuSans-30" transform="translate(665.587891 0.78125)"/>
     </g>
    </g>
    <g id="line2d_30">
     <path d="M 315.255247 121.881125 
L 325.255247 121.881125 
L 335.255247 121.881125 
" style="fill: none; stroke: #7dff7a; stroke-width: 1.5; stroke-linecap: square"/>
    </g>
    <g id="text_16">
     <!-- $\delta_e = 0$, $J = 2.00$ -->
     <g transform="translate(343.255247 125.381125) scale(0.1 -0.1)">
      <use xlink:href="#DejaVuSans-Oblique-3b4" transform="translate(0 0.78125)"/>
      <use xlink:href="#DejaVuSans-Oblique-65" transform="translate(61.181641 -15.625) scale(0.7)"/>
      <use xlink:href="#DejaVuSans-3d" transform="translate(126.464844 0.78125)"/>
      <use xlink:href="#DejaVuSans-30" transform="translate(229.736328 0.78125)"/>
      <use xlink:href="#DejaVuSans-2c" transform="translate(293.359375 0.78125)"/>
      <use xlink:href="#DejaVuSans-20" transform="translate(325.146484 0.78125)"/>
      <use xlink:href="#DejaVuSans-Oblique-4a" transform="translate(356.933594 0.78125)"/>
      <use xlink:href="#DejaVuSans-3d" transform="translate(405.908203 0.78125)"/>
      <use xlink:href="#DejaVuSans-32" transform="translate(509.179688 0.78125)"/>
      <use xlink:href="#DejaVuSans-2e" transform="translate(572.802734 0.78125)"/>
      <use xlink:href="#DejaVuSans-30" transform="translate(604.589844 0.78125)"/>
      <use xlink:href="#DejaVuSans-30" transform="translate(668.212891 0.78125)"/>
     </g>
    </g>
    <g id="line2d_31">
     <path d="M 315.255247 136.579563 
L 325.255247 136.579563 
L 335.255247 136.579563 
" style="fill: none; stroke: #ff9400; stroke-width: 1.5; stroke-linecap: square"/>
    </g>
    <g id="text_17">
     <!-- $\delta_e = 0$, $J = 2.20$ -->
     <g transform="translate(343.255247 140.079563) scale(0.1 -0.1)">
      <use xlink:href="#DejaVuSans-Oblique-3b4" transform="translate(0 0.78125)"/>
      <use xlink:href="#DejaVuSans-Oblique-65" transform="translate(61.181641 -15.625) scale(0.7)"/>
      <use xlink:href="#DejaVuSans-3d" transform="translate(126.464844 0.78125)"/>
      <use xlink:href="#DejaVuSans-30" transform="translate(229.736328 0.78125)"/>
      <use xlink:href="#DejaVuSans-2c" transform="translate(293.359375 0.78125)"/>
      <use xlink:href="#DejaVuSans-20" transform="translate(325.146484 0.78125)"/>
      <use xlink:href="#DejaVuSans-Oblique-4a" transform="translate(356.933594 0.78125)"/>
      <use xlink:href="#DejaVuSans-3d" transform="translate(405.908203 0.78125)"/>
      <use xlink:href="#DejaVuSans-32" transform="translate(509.179688 0.78125)"/>
      <use xlink:href="#DejaVuSans-2e" transform="translate(572.802734 0.78125)"/>
      <use xlink:href="#DejaVuSans-32" transform="translate(599.089844 0.78125)"/>
      <use xlink:href="#DejaVuSans-30" transform="translate(662.712891 0.78125)"/>
     </g>
    </g>
    <g id="line2d_32">
     <path d="M 315.255247 151.278 
L 325.255247 151.278 
L 335.255247 151.278 
" style="fill: none; stroke: #800000; stroke-width: 1.5; stroke-linecap: square"/>
    </g>
    <g id="text_18">
     <!-- $\delta_e = 0$, $J = 2.40$ -->
     <g transform="translate(343.255247 154.778) scale(0.1 -0.1)">
      <use xlink:href="#DejaVuSans-Oblique-3b4" transform="translate(0 0.78125)"/>
      <use xlink:href="#DejaVuSans-Oblique-65" transform="translate(61.181641 -15.625) scale(0.7)"/>
      <use xlink:href="#DejaVuSans-3d" transform="translate(126.464844 0.78125)"/>
      <use xlink:href="#DejaVuSans-30" transform="translate(229.736328 0.78125)"/>
      <use xlink:href="#DejaVuSans-2c" transform="translate(293.359375 0.78125)"/>
      <use xlink:href="#DejaVuSans-20" transform="translate(325.146484 0.78125)"/>
      <use xlink:href="#DejaVuSans-Oblique-4a" transform="translate(356.933594 0.78125)"/>
      <use xlink:href="#DejaVuSans-3d" transform="translate(405.908203 0.78125)"/>
      <use xlink:href="#DejaVuSans-32" transform="translate(509.179688 0.78125)"/>
      <use xlink:href="#DejaVuSans-2e" transform="translate(572.802734 0.78125)"/>
      <use xlink:href="#DejaVuSans-34" transform="translate(604.589844 0.78125)"/>
      <use xlink:href="#DejaVuSans-30" transform="translate(668.212891 0.78125)"/>
     </g>
    </g>
   </g>
  </g>
 </g>
 <defs>
  <clipPath id="pb6c68203d1">
   <rect x="74.432" y="10.8" width="231.823247" height="163.24"/>
  </clipPath>
 </defs>
</svg>
