<?xml version="1.0" encoding="utf-8" standalone="no"?>
<!DOCTYPE svg PUBLIC "-//W3C//DTD SVG 1.1//EN"
  "http://www.w3.org/Graphics/SVG/1.1/DTD/svg11.dtd">
<svg xmlns:xlink="http://www.w3.org/1999/xlink" width="576pt" height="216pt" viewBox="0 0 576 216" xmlns="http://www.w3.org/2000/svg" version="1.1">
 <metadata>
  <rdf:RDF xmlns:dc="http://purl.org/dc/elements/1.1/" xmlns:cc="http://creativecommons.org/ns#" xmlns:rdf="http://www.w3.org/1999/02/22-rdf-syntax-ns#">
   <cc:Work>
    <dc:type rdf:resource="http://purl.org/dc/dcmitype/StillImage"/>
    <dc:date>2025-03-27T17:43:56.989585</dc:date>
    <dc:format>image/svg+xml</dc:format>
    <dc:creator>
     <cc:Agent>
      <dc:title>Matplotlib v3.9.2, https://matplotlib.org/</dc:title>
     </cc:Agent>
    </dc:creator>
   </cc:Work>
  </rdf:RDF>
 </metadata>
 <defs>
  <style type="text/css">*{stroke-linejoin: round; stroke-linecap: butt}</style>
 </defs>
 <g id="figure_1">
  <g id="patch_1">
   <path d="M 0 216 
L 576 216 
L 576 0 
L 0 0 
z
" style="fill: #ffffff"/>
  </g>
  <g id="axes_1">
   <g id="patch_2">
    <path d="M 66.062 174.04 
L 450.255247 174.04 
L 450.255247 10.8 
L 66.062 10.8 
z
" style="fill: #ffffff"/>
   </g>
   <g id="matplotlib.axis_1">
    <g id="xtick_1">
     <g id="line2d_1">
      <path d="M 83.525329 174.04 
L 83.525329 10.8 
" clip-path="url(#pb985054d9c)" style="fill: none; stroke: #b0b0b0; stroke-width: 0.8; stroke-linecap: square"/>
     </g>
     <g id="line2d_2">
      <defs>
       <path id="m30574cb713" d="M 0 0 
L 0 3.5 
" style="stroke: #000000; stroke-width: 0.8"/>
      </defs>
      <g>
       <use xlink:href="#m30574cb713" x="83.525329" y="174.04" style="stroke: #000000; stroke-width: 0.8"/>
      </g>
     </g>
     <g id="text_1">
      <!-- −4 -->
      <g transform="translate(76.154236 188.638438) scale(0.1 -0.1)">
       <defs>
        <path id="DejaVuSans-2212" d="M 678 2272 
L 4684 2272 
L 4684 1741 
L 678 1741 
L 678 2272 
z
" transform="scale(0.015625)"/>
        <path id="DejaVuSans-34" d="M 2419 4116 
L 825 1625 
L 2419 1625 
L 2419 4116 
z
M 2253 4666 
L 3047 4666 
L 3047 1625 
L 3713 1625 
L 3713 1100 
L 3047 1100 
L 3047 0 
L 2419 0 
L 2419 1100 
L 313 1100 
L 313 1709 
L 2253 4666 
z
" transform="scale(0.015625)"/>
       </defs>
       <use xlink:href="#DejaVuSans-2212"/>
       <use xlink:href="#DejaVuSans-34" x="83.789062"/>
      </g>
     </g>
    </g>
    <g id="xtick_2">
     <g id="line2d_3">
      <path d="M 147.028346 174.04 
L 147.028346 10.8 
" clip-path="url(#pb985054d9c)" style="fill: none; stroke: #b0b0b0; stroke-width: 0.8; stroke-linecap: square"/>
     </g>
     <g id="line2d_4">
      <g>
       <use xlink:href="#m30574cb713" x="147.028346" y="174.04" style="stroke: #000000; stroke-width: 0.8"/>
      </g>
     </g>
     <g id="text_2">
      <!-- −2 -->
      <g transform="translate(139.657252 188.638438) scale(0.1 -0.1)">
       <defs>
        <path id="DejaVuSans-32" d="M 1228 531 
L 3431 531 
L 3431 0 
L 469 0 
L 469 531 
Q 828 903 1448 1529 
Q 2069 2156 2228 2338 
Q 2531 2678 2651 2914 
Q 2772 3150 2772 3378 
Q 2772 3750 2511 3984 
Q 2250 4219 1831 4219 
Q 1534 4219 1204 4116 
Q 875 4013 500 3803 
L 500 4441 
Q 881 4594 1212 4672 
Q 1544 4750 1819 4750 
Q 2544 4750 2975 4387 
Q 3406 4025 3406 3419 
Q 3406 3131 3298 2873 
Q 3191 2616 2906 2266 
Q 2828 2175 2409 1742 
Q 1991 1309 1228 531 
z
" transform="scale(0.015625)"/>
       </defs>
       <use xlink:href="#DejaVuSans-2212"/>
       <use xlink:href="#DejaVuSans-32" x="83.789062"/>
      </g>
     </g>
    </g>
    <g id="xtick_3">
     <g id="line2d_5">
      <path d="M 210.531362 174.04 
L 210.531362 10.8 
" clip-path="url(#pb985054d9c)" style="fill: none; stroke: #b0b0b0; stroke-width: 0.8; stroke-linecap: square"/>
     </g>
     <g id="line2d_6">
      <g>
       <use xlink:href="#m30574cb713" x="210.531362" y="174.04" style="stroke: #000000; stroke-width: 0.8"/>
      </g>
     </g>
     <g id="text_3">
      <!-- 0 -->
      <g transform="translate(207.350112 188.638438) scale(0.1 -0.1)">
       <defs>
        <path id="DejaVuSans-30" d="M 2034 4250 
Q 1547 4250 1301 3770 
Q 1056 3291 1056 2328 
Q 1056 1369 1301 889 
Q 1547 409 2034 409 
Q 2525 409 2770 889 
Q 3016 1369 3016 2328 
Q 3016 3291 2770 3770 
Q 2525 4250 2034 4250 
z
M 2034 4750 
Q 2819 4750 3233 4129 
Q 3647 3509 3647 2328 
Q 3647 1150 3233 529 
Q 2819 -91 2034 -91 
Q 1250 -91 836 529 
Q 422 1150 422 2328 
Q 422 3509 836 4129 
Q 1250 4750 2034 4750 
z
" transform="scale(0.015625)"/>
       </defs>
       <use xlink:href="#DejaVuSans-30"/>
      </g>
     </g>
    </g>
    <g id="xtick_4">
     <g id="line2d_7">
      <path d="M 274.034378 174.04 
L 274.034378 10.8 
" clip-path="url(#pb985054d9c)" style="fill: none; stroke: #b0b0b0; stroke-width: 0.8; stroke-linecap: square"/>
     </g>
     <g id="line2d_8">
      <g>
       <use xlink:href="#m30574cb713" x="274.034378" y="174.04" style="stroke: #000000; stroke-width: 0.8"/>
      </g>
     </g>
     <g id="text_4">
      <!-- 2 -->
      <g transform="translate(270.853128 188.638438) scale(0.1 -0.1)">
       <use xlink:href="#DejaVuSans-32"/>
      </g>
     </g>
    </g>
    <g id="xtick_5">
     <g id="line2d_9">
      <path d="M 337.537394 174.04 
L 337.537394 10.8 
" clip-path="url(#pb985054d9c)" style="fill: none; stroke: #b0b0b0; stroke-width: 0.8; stroke-linecap: square"/>
     </g>
     <g id="line2d_10">
      <g>
       <use xlink:href="#m30574cb713" x="337.537394" y="174.04" style="stroke: #000000; stroke-width: 0.8"/>
      </g>
     </g>
     <g id="text_5">
      <!-- 4 -->
      <g transform="translate(334.356144 188.638438) scale(0.1 -0.1)">
       <use xlink:href="#DejaVuSans-34"/>
      </g>
     </g>
    </g>
    <g id="xtick_6">
     <g id="line2d_11">
      <path d="M 401.04041 174.04 
L 401.04041 10.8 
" clip-path="url(#pb985054d9c)" style="fill: none; stroke: #b0b0b0; stroke-width: 0.8; stroke-linecap: square"/>
     </g>
     <g id="line2d_12">
      <g>
       <use xlink:href="#m30574cb713" x="401.04041" y="174.04" style="stroke: #000000; stroke-width: 0.8"/>
      </g>
     </g>
     <g id="text_6">
      <!-- 6 -->
      <g transform="translate(397.85916 188.638438) scale(0.1 -0.1)">
       <defs>
        <path id="DejaVuSans-36" d="M 2113 2584 
Q 1688 2584 1439 2293 
Q 1191 2003 1191 1497 
Q 1191 994 1439 701 
Q 1688 409 2113 409 
Q 2538 409 2786 701 
Q 3034 994 3034 1497 
Q 3034 2003 2786 2293 
Q 2538 2584 2113 2584 
z
M 3366 4563 
L 3366 3988 
Q 3128 4100 2886 4159 
Q 2644 4219 2406 4219 
Q 1781 4219 1451 3797 
Q 1122 3375 1075 2522 
Q 1259 2794 1537 2939 
Q 1816 3084 2150 3084 
Q 2853 3084 3261 2657 
Q 3669 2231 3669 1497 
Q 3669 778 3244 343 
Q 2819 -91 2113 -91 
Q 1303 -91 875 529 
Q 447 1150 447 2328 
Q 447 3434 972 4092 
Q 1497 4750 2381 4750 
Q 2619 4750 2861 4703 
Q 3103 4656 3366 4563 
z
" transform="scale(0.015625)"/>
       </defs>
       <use xlink:href="#DejaVuSans-36"/>
      </g>
     </g>
    </g>
    <g id="text_7">
     <!-- $\alpha$ -->
     <g transform="translate(254.858624 202.316563) scale(0.1 -0.1)">
      <defs>
       <path id="DejaVuSans-Oblique-3b1" d="M 2619 1628 
L 2622 2350 
Q 2625 3088 2069 3091 
Q 1653 3094 1394 2747 
Q 1069 2319 959 1747 
Q 825 1059 994 731 
Q 1169 397 1547 397 
Q 1966 397 2319 1063 
L 2619 1628 
z
M 2166 3578 
Q 3141 3594 3128 2584 
Q 3128 2584 3616 3500 
L 4128 3500 
L 3119 1603 
L 3109 919 
Q 3109 766 3194 638 
Q 3291 488 3391 488 
L 3669 488 
L 3575 0 
L 3228 0 
Q 2934 0 2722 263 
Q 2622 394 2619 669 
Q 2416 334 2066 50 
Q 1900 -81 1453 -78 
Q 722 -72 456 397 
Q 184 884 353 1747 
Q 534 2675 1009 3097 
Q 1544 3569 2166 3578 
z
" transform="scale(0.015625)"/>
      </defs>
      <use xlink:href="#DejaVuSans-Oblique-3b1" transform="translate(0 0.84375)"/>
     </g>
    </g>
   </g>
   <g id="matplotlib.axis_2">
    <g id="ytick_1">
     <g id="line2d_13">
      <path d="M 66.062 147.682178 
L 450.255247 147.682178 
" clip-path="url(#pb985054d9c)" style="fill: none; stroke: #b0b0b0; stroke-width: 0.8; stroke-linecap: square"/>
     </g>
     <g id="line2d_14">
      <defs>
       <path id="m3ff69e6e20" d="M 0 0 
L -3.5 0 
" style="stroke: #000000; stroke-width: 0.8"/>
      </defs>
      <g>
       <use xlink:href="#m3ff69e6e20" x="66.062" y="147.682178" style="stroke: #000000; stroke-width: 0.8"/>
      </g>
     </g>
     <g id="text_8">
      <!-- 0.000 -->
      <g transform="translate(30.433875 151.481396) scale(0.1 -0.1)">
       <defs>
        <path id="DejaVuSans-2e" d="M 684 794 
L 1344 794 
L 1344 0 
L 684 0 
L 684 794 
z
" transform="scale(0.015625)"/>
       </defs>
       <use xlink:href="#DejaVuSans-30"/>
       <use xlink:href="#DejaVuSans-2e" x="63.623047"/>
       <use xlink:href="#DejaVuSans-30" x="95.410156"/>
       <use xlink:href="#DejaVuSans-30" x="159.033203"/>
       <use xlink:href="#DejaVuSans-30" x="222.65625"/>
      </g>
     </g>
    </g>
    <g id="ytick_2">
     <g id="line2d_15">
      <path d="M 66.062 111.091168 
L 450.255247 111.091168 
" clip-path="url(#pb985054d9c)" style="fill: none; stroke: #b0b0b0; stroke-width: 0.8; stroke-linecap: square"/>
     </g>
     <g id="line2d_16">
      <g>
       <use xlink:href="#m3ff69e6e20" x="66.062" y="111.091168" style="stroke: #000000; stroke-width: 0.8"/>
      </g>
     </g>
     <g id="text_9">
      <!-- 0.001 -->
      <g transform="translate(30.433875 114.890387) scale(0.1 -0.1)">
       <defs>
        <path id="DejaVuSans-31" d="M 794 531 
L 1825 531 
L 1825 4091 
L 703 3866 
L 703 4441 
L 1819 4666 
L 2450 4666 
L 2450 531 
L 3481 531 
L 3481 0 
L 794 0 
L 794 531 
z
" transform="scale(0.015625)"/>
       </defs>
       <use xlink:href="#DejaVuSans-30"/>
       <use xlink:href="#DejaVuSans-2e" x="63.623047"/>
       <use xlink:href="#DejaVuSans-30" x="95.410156"/>
       <use xlink:href="#DejaVuSans-30" x="159.033203"/>
       <use xlink:href="#DejaVuSans-31" x="222.65625"/>
      </g>
     </g>
    </g>
    <g id="ytick_3">
     <g id="line2d_17">
      <path d="M 66.062 74.500159 
L 450.255247 74.500159 
" clip-path="url(#pb985054d9c)" style="fill: none; stroke: #b0b0b0; stroke-width: 0.8; stroke-linecap: square"/>
     </g>
     <g id="line2d_18">
      <g>
       <use xlink:href="#m3ff69e6e20" x="66.062" y="74.500159" style="stroke: #000000; stroke-width: 0.8"/>
      </g>
     </g>
     <g id="text_10">
      <!-- 0.002 -->
      <g transform="translate(30.433875 78.299378) scale(0.1 -0.1)">
       <use xlink:href="#DejaVuSans-30"/>
       <use xlink:href="#DejaVuSans-2e" x="63.623047"/>
       <use xlink:href="#DejaVuSans-30" x="95.410156"/>
       <use xlink:href="#DejaVuSans-30" x="159.033203"/>
       <use xlink:href="#DejaVuSans-32" x="222.65625"/>
      </g>
     </g>
    </g>
    <g id="ytick_4">
     <g id="line2d_19">
      <path d="M 66.062 37.90915 
L 450.255247 37.90915 
" clip-path="url(#pb985054d9c)" style="fill: none; stroke: #b0b0b0; stroke-width: 0.8; stroke-linecap: square"/>
     </g>
     <g id="line2d_20">
      <g>
       <use xlink:href="#m3ff69e6e20" x="66.062" y="37.90915" style="stroke: #000000; stroke-width: 0.8"/>
      </g>
     </g>
     <g id="text_11">
      <!-- 0.003 -->
      <g transform="translate(30.433875 41.708368) scale(0.1 -0.1)">
       <defs>
        <path id="DejaVuSans-33" d="M 2597 2516 
Q 3050 2419 3304 2112 
Q 3559 1806 3559 1356 
Q 3559 666 3084 287 
Q 2609 -91 1734 -91 
Q 1441 -91 1130 -33 
Q 819 25 488 141 
L 488 750 
Q 750 597 1062 519 
Q 1375 441 1716 441 
Q 2309 441 2620 675 
Q 2931 909 2931 1356 
Q 2931 1769 2642 2001 
Q 2353 2234 1838 2234 
L 1294 2234 
L 1294 2753 
L 1863 2753 
Q 2328 2753 2575 2939 
Q 2822 3125 2822 3475 
Q 2822 3834 2567 4026 
Q 2313 4219 1838 4219 
Q 1578 4219 1281 4162 
Q 984 4106 628 3988 
L 628 4550 
Q 988 4650 1302 4700 
Q 1616 4750 1894 4750 
Q 2613 4750 3031 4423 
Q 3450 4097 3450 3541 
Q 3450 3153 3228 2886 
Q 3006 2619 2597 2516 
z
" transform="scale(0.015625)"/>
       </defs>
       <use xlink:href="#DejaVuSans-30"/>
       <use xlink:href="#DejaVuSans-2e" x="63.623047"/>
       <use xlink:href="#DejaVuSans-30" x="95.410156"/>
       <use xlink:href="#DejaVuSans-30" x="159.033203"/>
       <use xlink:href="#DejaVuSans-33" x="222.65625"/>
      </g>
     </g>
    </g>
    <g id="text_12">
     <!-- d$T_C = T / \rho V^2 D^2$ / d$\alpha$ -->
     <g transform="translate(24.333875 139.32) rotate(-90) scale(0.1 -0.1)">
      <defs>
       <path id="DejaVuSans-64" d="M 2906 2969 
L 2906 4863 
L 3481 4863 
L 3481 0 
L 2906 0 
L 2906 525 
Q 2725 213 2448 61 
Q 2172 -91 1784 -91 
Q 1150 -91 751 415 
Q 353 922 353 1747 
Q 353 2572 751 3078 
Q 1150 3584 1784 3584 
Q 2172 3584 2448 3432 
Q 2725 3281 2906 2969 
z
M 947 1747 
Q 947 1113 1208 752 
Q 1469 391 1925 391 
Q 2381 391 2643 752 
Q 2906 1113 2906 1747 
Q 2906 2381 2643 2742 
Q 2381 3103 1925 3103 
Q 1469 3103 1208 2742 
Q 947 2381 947 1747 
z
" transform="scale(0.015625)"/>
       <path id="DejaVuSans-Oblique-54" d="M 378 4666 
L 4325 4666 
L 4225 4134 
L 2559 4134 
L 1759 0 
L 1125 0 
L 1925 4134 
L 275 4134 
L 378 4666 
z
" transform="scale(0.015625)"/>
       <path id="DejaVuSans-Oblique-43" d="M 4447 4306 
L 4319 3641 
Q 4019 3944 3683 4091 
Q 3347 4238 2956 4238 
Q 2422 4238 2017 3981 
Q 1613 3725 1319 3200 
Q 1131 2863 1032 2486 
Q 934 2109 934 1728 
Q 934 1091 1264 756 
Q 1594 422 2222 422 
Q 2656 422 3056 561 
Q 3456 700 3834 978 
L 3688 231 
Q 3316 72 2936 -9 
Q 2556 -91 2175 -91 
Q 1278 -91 773 396 
Q 269 884 269 1753 
Q 269 2309 461 2846 
Q 653 3384 1013 3828 
Q 1394 4300 1883 4525 
Q 2372 4750 3022 4750 
Q 3422 4750 3780 4639 
Q 4138 4528 4447 4306 
z
" transform="scale(0.015625)"/>
       <path id="DejaVuSans-3d" d="M 678 2906 
L 4684 2906 
L 4684 2381 
L 678 2381 
L 678 2906 
z
M 678 1631 
L 4684 1631 
L 4684 1100 
L 678 1100 
L 678 1631 
z
" transform="scale(0.015625)"/>
       <path id="DejaVuSans-2f" d="M 1625 4666 
L 2156 4666 
L 531 -594 
L 0 -594 
L 1625 4666 
z
" transform="scale(0.015625)"/>
       <path id="DejaVuSans-Oblique-3c1" d="M 1203 2875 
Q 1453 3194 1981 3475 
Q 2188 3584 2756 3584 
Q 3394 3584 3694 3078 
Q 3994 2572 3834 1747 
Q 3672 922 3175 415 
Q 2678 -91 2041 -91 
Q 1656 -91 1409 63 
Q 1163 213 1044 525 
L 681 -1331 
L 103 -1331 
L 697 1716 
Q 838 2438 1203 2875 
z
M 3238 1747 
Q 3359 2381 3169 2744 
Q 2978 3103 2522 3103 
Q 2066 3103 1734 2744 
Q 1403 2381 1281 1747 
Q 1156 1113 1347 750 
Q 1538 391 1994 391 
Q 2450 391 2781 750 
Q 3113 1113 3238 1747 
z
" transform="scale(0.015625)"/>
       <path id="DejaVuSans-Oblique-56" d="M 1319 0 
L 500 4666 
L 1119 4666 
L 1797 653 
L 4063 4666 
L 4750 4666 
L 2053 0 
L 1319 0 
z
" transform="scale(0.015625)"/>
       <path id="DejaVuSans-Oblique-44" d="M 1081 4666 
L 2438 4666 
Q 3519 4666 4070 4208 
Q 4622 3750 4622 2847 
Q 4622 2250 4412 1698 
Q 4203 1147 3834 769 
Q 3463 381 2891 190 
Q 2319 0 1538 0 
L 172 0 
L 1081 4666 
z
M 1613 4147 
L 909 519 
L 1734 519 
Q 2794 519 3375 1128 
Q 3956 1738 3956 2847 
Q 3956 3519 3581 3833 
Q 3206 4147 2406 4147 
L 1613 4147 
z
" transform="scale(0.015625)"/>
       <path id="DejaVuSans-20" transform="scale(0.015625)"/>
      </defs>
      <use xlink:href="#DejaVuSans-64" transform="translate(0 0.765625)"/>
      <use xlink:href="#DejaVuSans-Oblique-54" transform="translate(63.476562 0.765625)"/>
      <use xlink:href="#DejaVuSans-Oblique-43" transform="translate(124.560547 -15.640625) scale(0.7)"/>
      <use xlink:href="#DejaVuSans-3d" transform="translate(195.654297 0.765625)"/>
      <use xlink:href="#DejaVuSans-Oblique-54" transform="translate(298.925781 0.765625)"/>
      <use xlink:href="#DejaVuSans-2f" transform="translate(360.009766 0.765625)"/>
      <use xlink:href="#DejaVuSans-Oblique-3c1" transform="translate(393.701172 0.765625)"/>
      <use xlink:href="#DejaVuSans-Oblique-56" transform="translate(457.177734 0.765625)"/>
      <use xlink:href="#DejaVuSans-32" transform="translate(532.602708 39.046875) scale(0.7)"/>
      <use xlink:href="#DejaVuSans-Oblique-44" transform="translate(579.873216 0.765625)"/>
      <use xlink:href="#DejaVuSans-32" transform="translate(663.89194 39.046875) scale(0.7)"/>
      <use xlink:href="#DejaVuSans-20" transform="translate(711.162448 0.765625)"/>
      <use xlink:href="#DejaVuSans-2f" transform="translate(742.949557 0.765625)"/>
      <use xlink:href="#DejaVuSans-20" transform="translate(776.640964 0.765625)"/>
      <use xlink:href="#DejaVuSans-64" transform="translate(808.428073 0.765625)"/>
      <use xlink:href="#DejaVuSans-Oblique-3b1" transform="translate(871.904635 0.765625)"/>
     </g>
    </g>
   </g>
   <g id="line2d_21">
    <path d="M 83.525329 23.367714 
L 87.053275 23.005126 
L 90.58122 22.655778 
L 94.109165 22.31967 
L 97.637111 21.996802 
L 101.165056 21.687174 
L 104.693001 21.390786 
L 108.220947 21.107639 
L 111.748892 20.837731 
L 115.276837 20.581064 
L 118.804783 20.337637 
L 122.332728 20.107449 
L 125.860673 19.890502 
L 129.388619 19.686795 
L 132.916564 19.496328 
L 136.44451 19.319101 
L 139.972455 19.155115 
L 143.5004 19.004368 
L 147.028346 18.866861 
L 150.556291 18.742595 
L 154.084236 18.631568 
L 157.612182 18.533782 
L 161.140127 18.449236 
L 164.668072 18.37793 
L 168.196018 18.319863 
L 171.723963 18.275037 
L 175.251908 18.243452 
L 178.779854 18.225106 
L 182.307799 18.22 
L 185.835744 18.228134 
L 189.36369 18.249509 
L 192.891635 18.284123 
L 196.41958 18.331978 
L 199.947526 18.393073 
L 203.475471 18.467407 
L 207.003416 18.554982 
L 210.531362 18.655797 
L 214.059307 18.769852 
L 217.587252 18.897147 
L 221.115198 19.037683 
L 224.643143 19.191458 
L 228.171088 19.358473 
L 231.699034 19.538729 
L 235.226979 19.732225 
L 238.754924 19.93896 
L 242.28287 20.158936 
L 245.810815 20.392152 
L 249.33876 20.638608 
L 252.866706 20.898304 
L 256.394651 21.17124 
L 259.922596 21.457416 
L 263.450542 21.756832 
L 266.978487 22.069489 
L 270.506432 22.395385 
L 274.034378 22.734522 
L 277.562323 23.086898 
L 281.090268 23.452515 
L 284.618214 23.831372 
L 288.146159 24.223469 
L 291.674104 24.628806 
L 295.20205 25.047383 
L 298.729995 25.4792 
L 302.25794 25.924257 
L 305.785886 26.382555 
L 309.313831 26.854092 
L 312.841776 27.33887 
L 316.369722 27.836887 
L 319.897667 28.348145 
L 323.425612 28.872643 
L 326.953558 29.410381 
L 330.481503 29.961358 
L 334.009449 30.525577 
L 337.537394 31.103035 
L 341.065339 31.693733 
L 344.593285 32.297671 
L 348.12123 32.91485 
L 351.649175 33.545268 
L 355.177121 34.188927 
L 358.705066 34.845825 
L 362.233011 35.515964 
L 365.760957 36.199343 
L 369.288902 36.895962 
L 372.816847 37.605821 
L 376.344793 38.32892 
L 379.872738 39.065259 
L 383.400683 39.814838 
L 386.928629 40.577658 
L 390.456574 41.353717 
L 393.984519 42.143017 
L 397.512465 42.945556 
L 401.04041 43.761336 
L 404.568355 44.590356 
L 408.096301 45.432616 
L 411.624246 46.288116 
L 415.152191 47.156856 
L 418.680137 48.038836 
L 422.208082 48.934056 
L 425.736027 49.842516 
L 429.263973 50.764217 
L 432.791918 51.699157 
" clip-path="url(#pb985054d9c)" style="fill: none; stroke: #000080; stroke-width: 1.5; stroke-linecap: square"/>
   </g>
   <g id="line2d_22">
    <path d="M 83.525329 72.174316 
L 87.053275 71.493349 
L 90.58122 70.825622 
L 94.109165 70.171135 
L 97.637111 69.529888 
L 101.165056 68.901881 
L 104.693001 68.287115 
L 108.220947 67.685588 
L 111.748892 67.097301 
L 115.276837 66.522255 
L 118.804783 65.960449 
L 122.332728 65.411882 
L 125.860673 64.876556 
L 129.388619 64.35447 
L 132.916564 63.845624 
L 136.44451 63.350018 
L 139.972455 62.867652 
L 143.5004 62.398527 
L 147.028346 61.942641 
L 150.556291 61.499995 
L 154.084236 61.07059 
L 157.612182 60.654424 
L 161.140127 60.251499 
L 164.668072 59.861814 
L 168.196018 59.485369 
L 171.723963 59.122164 
L 175.251908 58.772199 
L 178.779854 58.435474 
L 182.307799 58.111989 
L 185.835744 57.801744 
L 189.36369 57.50474 
L 192.891635 57.220975 
L 196.41958 56.950451 
L 199.947526 56.693166 
L 203.475471 56.449122 
L 207.003416 56.218318 
L 210.531362 56.000754 
L 214.059307 55.79643 
L 217.587252 55.605346 
L 221.115198 55.427502 
L 224.643143 55.262898 
L 228.171088 55.111535 
L 231.699034 54.973411 
L 235.226979 54.848528 
L 238.754924 54.736884 
L 242.28287 54.638481 
L 245.810815 54.553318 
L 249.33876 54.481395 
L 252.866706 54.422712 
L 256.394651 54.377269 
L 259.922596 54.345066 
L 263.450542 54.326103 
L 266.978487 54.32038 
L 270.506432 54.327898 
L 274.034378 54.348655 
L 277.562323 54.382653 
L 281.090268 54.429891 
L 284.618214 54.490368 
L 288.146159 54.564086 
L 291.674104 54.651044 
L 295.20205 54.751242 
L 298.729995 54.86468 
L 302.25794 54.991358 
L 305.785886 55.131277 
L 309.313831 55.284435 
L 312.841776 55.450834 
L 316.369722 55.630472 
L 319.897667 55.823351 
L 323.425612 56.029469 
L 326.953558 56.248828 
L 330.481503 56.481427 
L 334.009449 56.727266 
L 337.537394 56.986345 
L 341.065339 57.258664 
L 344.593285 57.544224 
L 348.12123 57.843023 
L 351.649175 58.155062 
L 355.177121 58.480342 
L 358.705066 58.818862 
L 362.233011 59.170621 
L 365.760957 59.535621 
L 369.288902 59.913861 
L 372.816847 60.305341 
L 376.344793 60.710061 
L 379.872738 61.128021 
L 383.400683 61.559221 
L 386.928629 62.003662 
L 390.456574 62.461342 
L 393.984519 62.932262 
L 397.512465 63.416423 
L 401.04041 63.913824 
L 404.568355 64.424464 
L 408.096301 64.948345 
L 411.624246 65.485466 
L 415.152191 66.035827 
L 418.680137 66.599428 
L 422.208082 67.176269 
L 425.736027 67.766351 
L 429.263973 68.369672 
L 432.791918 68.986233 
" clip-path="url(#pb985054d9c)" style="fill: none; stroke: #0080ff; stroke-width: 1.5; stroke-linecap: square"/>
   </g>
   <g id="line2d_23">
    <path d="M 83.525329 111.339683 
L 87.053275 110.514781 
L 90.58122 109.70312 
L 94.109165 108.904698 
L 97.637111 108.119516 
L 101.165056 107.347575 
L 104.693001 106.588873 
L 108.220947 105.843412 
L 111.748892 105.111191 
L 115.276837 104.39221 
L 118.804783 103.686469 
L 122.332728 102.993968 
L 125.860673 102.314707 
L 129.388619 101.648686 
L 132.916564 100.995905 
L 136.44451 100.356365 
L 139.972455 99.730064 
L 143.5004 99.117004 
L 147.028346 98.517183 
L 150.556291 97.930603 
L 154.084236 97.357263 
L 157.612182 96.797163 
L 161.140127 96.250303 
L 164.668072 95.716683 
L 168.196018 95.196303 
L 171.723963 94.689163 
L 175.251908 94.195264 
L 178.779854 93.714604 
L 182.307799 93.247185 
L 185.835744 92.793005 
L 189.36369 92.352066 
L 192.891635 91.924367 
L 196.41958 91.509908 
L 199.947526 91.108688 
L 203.475471 90.72071 
L 207.003416 90.345971 
L 210.531362 89.984472 
L 214.059307 89.636213 
L 217.587252 89.301195 
L 221.115198 88.979416 
L 224.643143 88.670878 
L 228.171088 88.375579 
L 231.699034 88.093521 
L 235.226979 87.824703 
L 238.754924 87.569125 
L 242.28287 87.326787 
L 245.810815 87.097689 
L 249.33876 86.881831 
L 252.866706 86.679213 
L 256.394651 86.489836 
L 259.922596 86.313698 
L 263.450542 86.150801 
L 266.978487 86.001143 
L 270.506432 85.864726 
L 274.034378 85.741549 
L 277.562323 85.631612 
L 281.090268 85.534915 
L 284.618214 85.451458 
L 288.146159 85.381241 
L 291.674104 85.324264 
L 295.20205 85.280528 
L 298.729995 85.250031 
L 302.25794 85.232774 
L 305.785886 85.228758 
L 309.313831 85.237982 
L 312.841776 85.260446 
L 316.369722 85.296149 
L 319.897667 85.345093 
L 323.425612 85.407277 
L 326.953558 85.482701 
L 330.481503 85.571366 
L 334.009449 85.67327 
L 337.537394 85.788414 
L 341.065339 85.916799 
L 344.593285 86.058423 
L 348.12123 86.213288 
L 351.649175 86.381393 
L 355.177121 86.562738 
L 358.705066 86.757323 
L 362.233011 86.965148 
L 365.760957 87.186213 
L 369.288902 87.420518 
L 372.816847 87.668063 
L 376.344793 87.928848 
L 379.872738 88.202874 
L 383.400683 88.490139 
L 386.928629 88.790645 
L 390.456574 89.104391 
L 393.984519 89.431376 
L 397.512465 89.771602 
L 401.04041 90.125068 
L 404.568355 90.491774 
L 408.096301 90.871721 
L 411.624246 91.264907 
L 415.152191 91.671333 
L 418.680137 92.090999 
L 422.208082 92.523906 
L 425.736027 92.970053 
L 429.263973 93.429439 
L 432.791918 93.902066 
" clip-path="url(#pb985054d9c)" style="fill: none; stroke: #7dff7a; stroke-width: 1.5; stroke-linecap: square"/>
   </g>
   <g id="line2d_24">
    <path d="M 83.525329 140.863814 
L 87.053275 140.069422 
L 90.58122 139.28827 
L 94.109165 138.520358 
L 97.637111 137.765686 
L 101.165056 137.024254 
L 104.693001 136.296063 
L 108.220947 135.581111 
L 111.748892 134.879399 
L 115.276837 134.190928 
L 118.804783 133.515697 
L 122.332728 132.853705 
L 125.860673 132.204954 
L 129.388619 131.569443 
L 132.916564 130.947172 
L 136.44451 130.338141 
L 139.972455 129.74235 
L 143.5004 129.159799 
L 147.028346 128.590489 
L 150.556291 128.034418 
L 154.084236 127.491588 
L 157.612182 126.961997 
L 161.140127 126.445647 
L 164.668072 125.942537 
L 168.196018 125.452666 
L 171.723963 124.976036 
L 175.251908 124.512646 
L 178.779854 124.062496 
L 182.307799 123.625587 
L 185.835744 123.201917 
L 189.36369 122.791487 
L 192.891635 122.394298 
L 196.41958 122.010348 
L 199.947526 121.639639 
L 203.475471 121.28217 
L 207.003416 120.93794 
L 210.531362 120.606951 
L 214.059307 120.289202 
L 217.587252 119.984693 
L 221.115198 119.693425 
L 224.643143 119.415396 
L 228.171088 119.150607 
L 231.699034 118.899059 
L 235.226979 118.66075 
L 238.754924 118.435682 
L 242.28287 118.223853 
L 245.810815 118.025265 
L 249.33876 117.839917 
L 252.866706 117.667809 
L 256.394651 117.508941 
L 259.922596 117.363313 
L 263.450542 117.230925 
L 266.978487 117.111778 
L 270.506432 117.00587 
L 274.034378 116.913202 
L 277.562323 116.833775 
L 281.090268 116.767588 
L 284.618214 116.71464 
L 288.146159 116.674933 
L 291.674104 116.648466 
L 295.20205 116.635239 
L 298.729995 116.635252 
L 302.25794 116.648505 
L 305.785886 116.674999 
L 309.313831 116.714732 
L 312.841776 116.767706 
L 316.369722 116.833919 
L 319.897667 116.913373 
L 323.425612 117.006066 
L 326.953558 117.112 
L 330.481503 117.231174 
L 334.009449 117.363588 
L 337.537394 117.509242 
L 341.065339 117.668136 
L 344.593285 117.84027 
L 348.12123 118.025645 
L 351.649175 118.224259 
L 355.177121 118.436114 
L 358.705066 118.661208 
L 362.233011 118.899543 
L 365.760957 119.151118 
L 369.288902 119.415933 
L 372.816847 119.693987 
L 376.344793 119.985282 
L 379.872738 120.289818 
L 383.400683 120.607593 
L 386.928629 120.938608 
L 390.456574 121.282863 
L 393.984519 121.640359 
L 397.512465 122.011094 
L 401.04041 122.39507 
L 404.568355 122.792286 
L 408.096301 123.202742 
L 411.624246 123.626438 
L 415.152191 124.063374 
L 418.680137 124.51355 
L 422.208082 124.976966 
L 425.736027 125.453622 
L 429.263973 125.943518 
L 432.791918 126.446655 
" clip-path="url(#pb985054d9c)" style="fill: none; stroke: #ff9400; stroke-width: 1.5; stroke-linecap: square"/>
   </g>
   <g id="line2d_25">
    <path d="M 83.525329 160.74671 
L 87.053275 160.157272 
L 90.58122 159.581074 
L 94.109165 159.018116 
L 97.637111 158.468398 
L 101.165056 157.93192 
L 104.693001 157.408683 
L 108.220947 156.898685 
L 111.748892 156.401927 
L 115.276837 155.91841 
L 118.804783 155.448133 
L 122.332728 154.991095 
L 125.860673 154.547298 
L 129.388619 154.116741 
L 132.916564 153.699424 
L 136.44451 153.295347 
L 139.972455 152.90451 
L 143.5004 152.526914 
L 147.028346 152.162557 
L 150.556291 151.81144 
L 154.084236 151.473564 
L 157.612182 151.148928 
L 161.140127 150.837531 
L 164.668072 150.539375 
L 168.196018 150.254459 
L 171.723963 149.982783 
L 175.251908 149.724347 
L 178.779854 149.479151 
L 182.307799 149.247195 
L 185.835744 149.02848 
L 189.36369 148.823004 
L 192.891635 148.630769 
L 196.41958 148.451773 
L 199.947526 148.286018 
L 203.475471 148.133503 
L 207.003416 147.994227 
L 210.531362 147.868192 
L 214.059307 147.755397 
L 217.587252 147.655842 
L 221.115198 147.569528 
L 224.643143 147.496453 
L 228.171088 147.436618 
L 231.699034 147.390024 
L 235.226979 147.356669 
L 238.754924 147.336555 
L 242.28287 147.329681 
L 245.810815 147.336046 
L 249.33876 147.355652 
L 252.866706 147.388498 
L 256.394651 147.434584 
L 259.922596 147.493911 
L 263.450542 147.566477 
L 266.978487 147.652283 
L 270.506432 147.75133 
L 274.034378 147.863616 
L 277.562323 147.989143 
L 281.090268 148.127909 
L 284.618214 148.279916 
L 288.146159 148.445163 
L 291.674104 148.62365 
L 295.20205 148.815377 
L 298.729995 149.020344 
L 302.25794 149.238551 
L 305.785886 149.469999 
L 309.313831 149.714686 
L 312.841776 149.972613 
L 316.369722 150.243781 
L 319.897667 150.528189 
L 323.425612 150.825836 
L 326.953558 151.136724 
L 330.481503 151.460852 
L 334.009449 151.79822 
L 337.537394 152.148828 
L 341.065339 152.512676 
L 344.593285 152.889765 
L 348.12123 153.280093 
L 351.649175 153.683662 
L 355.177121 154.10047 
L 358.705066 154.530519 
L 362.233011 154.973807 
L 365.760957 155.430336 
L 369.288902 155.900105 
L 372.816847 156.383114 
L 376.344793 156.879363 
L 379.872738 157.388852 
L 383.400683 157.911581 
L 386.928629 158.447551 
L 390.456574 158.99676 
L 393.984519 159.55921 
L 397.512465 160.134899 
L 401.04041 160.723829 
L 404.568355 161.325999 
L 408.096301 161.941409 
L 411.624246 162.570059 
L 415.152191 163.211949 
L 418.680137 163.867079 
L 422.208082 164.535449 
L 425.736027 165.217059 
L 429.263973 165.91191 
L 432.791918 166.62 
" clip-path="url(#pb985054d9c)" style="fill: none; stroke: #800000; stroke-width: 1.5; stroke-linecap: square"/>
   </g>
   <g id="patch_3">
    <path d="M 66.062 174.04 
L 66.062 10.8 
" style="fill: none; stroke: #000000; stroke-width: 0.8; stroke-linejoin: miter; stroke-linecap: square"/>
   </g>
   <g id="patch_4">
    <path d="M 450.255247 174.04 
L 450.255247 10.8 
" style="fill: none; stroke: #000000; stroke-width: 0.8; stroke-linejoin: miter; stroke-linecap: square"/>
   </g>
   <g id="patch_5">
    <path d="M 66.062 174.04 
L 450.255247 174.04 
" style="fill: none; stroke: #000000; stroke-width: 0.8; stroke-linejoin: miter; stroke-linecap: square"/>
   </g>
   <g id="patch_6">
    <path d="M 66.062 10.8 
L 450.255247 10.8 
" style="fill: none; stroke: #000000; stroke-width: 0.8; stroke-linejoin: miter; stroke-linecap: square"/>
   </g>
   <g id="legend_1">
    <g id="patch_7">
     <path d="M 459.255247 162.878 
L 564.455247 162.878 
Q 566.455247 162.878 566.455247 160.878 
L 566.455247 88.385812 
Q 566.455247 86.385812 564.455247 86.385812 
L 459.255247 86.385812 
Q 457.255247 86.385812 457.255247 88.385812 
L 457.255247 160.878 
Q 457.255247 162.878 459.255247 162.878 
z
" style="fill: #4d4d4d; opacity: 0.5; stroke: #4d4d4d; stroke-linejoin: miter"/>
    </g>
    <g id="patch_8">
     <path d="M 457.255247 160.878 
L 562.455247 160.878 
Q 564.455247 160.878 564.455247 158.878 
L 564.455247 86.385812 
Q 564.455247 84.385812 562.455247 84.385812 
L 457.255247 84.385812 
Q 455.255247 84.385812 455.255247 86.385812 
L 455.255247 158.878 
Q 455.255247 160.878 457.255247 160.878 
z
" style="fill: #ffffff; stroke: #cccccc; stroke-linejoin: miter"/>
    </g>
    <g id="line2d_26">
     <path d="M 459.255247 92.48425 
L 469.255247 92.48425 
L 479.255247 92.48425 
" style="fill: none; stroke: #000080; stroke-width: 1.5; stroke-linecap: square"/>
    </g>
    <g id="text_13">
     <!-- $\delta_e = 0$, $J = 1.60$ -->
     <g transform="translate(487.255247 95.98425) scale(0.1 -0.1)">
      <defs>
       <path id="DejaVuSans-Oblique-3b4" d="M 3472 4053 
Q 3197 4272 2450 4272 
Q 1659 4272 1588 3906 
Q 1531 3619 2328 3469 
Q 2953 3353 3253 3003 
Q 3616 2581 3447 1716 
Q 3284 888 2763 400 
Q 2238 -91 1488 -91 
Q 741 -91 406 400 
Q 72 888 241 1747 
Q 363 2384 891 2900 
Q 1097 3100 1353 3213 
Q 913 3459 1000 3900 
Q 1166 4750 2544 4750 
Q 3234 4750 3566 4531 
L 3472 4053 
z
M 1753 3056 
Q 1525 2966 1306 2738 
Q 969 2384 847 1747 
Q 722 1113 919 756 
Q 1119 397 1584 397 
Q 2044 397 2381 759 
Q 2722 1122 2838 1716 
Q 2956 2338 2731 2638 
Q 2491 2959 2103 2994 
Q 1906 3013 1753 3056 
z
" transform="scale(0.015625)"/>
       <path id="DejaVuSans-Oblique-65" d="M 3078 2063 
Q 3088 2113 3092 2166 
Q 3097 2219 3097 2272 
Q 3097 2653 2873 2875 
Q 2650 3097 2266 3097 
Q 1838 3097 1509 2826 
Q 1181 2556 1013 2059 
L 3078 2063 
z
M 3578 1613 
L 903 1613 
Q 884 1494 878 1425 
Q 872 1356 872 1306 
Q 872 872 1139 634 
Q 1406 397 1894 397 
Q 2269 397 2603 481 
Q 2938 566 3225 728 
L 3116 159 
Q 2806 34 2476 -28 
Q 2147 -91 1806 -91 
Q 1078 -91 686 257 
Q 294 606 294 1247 
Q 294 1794 489 2264 
Q 684 2734 1063 3103 
Q 1306 3334 1642 3459 
Q 1978 3584 2356 3584 
Q 2950 3584 3301 3228 
Q 3653 2872 3653 2272 
Q 3653 2128 3634 1964 
Q 3616 1800 3578 1613 
z
" transform="scale(0.015625)"/>
       <path id="DejaVuSans-2c" d="M 750 794 
L 1409 794 
L 1409 256 
L 897 -744 
L 494 -744 
L 750 256 
L 750 794 
z
" transform="scale(0.015625)"/>
       <path id="DejaVuSans-Oblique-4a" d="M 1069 4666 
L 1703 4666 
L 856 325 
Q 691 -522 298 -901 
Q -94 -1281 -800 -1281 
L -1050 -1281 
L -947 -750 
L -750 -750 
Q -328 -750 -109 -509 
Q 109 -269 225 325 
L 1069 4666 
z
" transform="scale(0.015625)"/>
      </defs>
      <use xlink:href="#DejaVuSans-Oblique-3b4" transform="translate(0 0.78125)"/>
      <use xlink:href="#DejaVuSans-Oblique-65" transform="translate(61.181641 -15.625) scale(0.7)"/>
      <use xlink:href="#DejaVuSans-3d" transform="translate(126.464844 0.78125)"/>
      <use xlink:href="#DejaVuSans-30" transform="translate(229.736328 0.78125)"/>
      <use xlink:href="#DejaVuSans-2c" transform="translate(293.359375 0.78125)"/>
      <use xlink:href="#DejaVuSans-20" transform="translate(325.146484 0.78125)"/>
      <use xlink:href="#DejaVuSans-Oblique-4a" transform="translate(356.933594 0.78125)"/>
      <use xlink:href="#DejaVuSans-3d" transform="translate(405.908203 0.78125)"/>
      <use xlink:href="#DejaVuSans-31" transform="translate(509.179688 0.78125)"/>
      <use xlink:href="#DejaVuSans-2e" transform="translate(572.802734 0.78125)"/>
      <use xlink:href="#DejaVuSans-36" transform="translate(604.589844 0.78125)"/>
      <use xlink:href="#DejaVuSans-30" transform="translate(668.212891 0.78125)"/>
     </g>
    </g>
    <g id="line2d_27">
     <path d="M 459.255247 107.182688 
L 469.255247 107.182688 
L 479.255247 107.182688 
" style="fill: none; stroke: #0080ff; stroke-width: 1.5; stroke-linecap: square"/>
    </g>
    <g id="text_14">
     <!-- $\delta_e = 0$, $J = 1.80$ -->
     <g transform="translate(487.255247 110.682688) scale(0.1 -0.1)">
      <defs>
       <path id="DejaVuSans-38" d="M 2034 2216 
Q 1584 2216 1326 1975 
Q 1069 1734 1069 1313 
Q 1069 891 1326 650 
Q 1584 409 2034 409 
Q 2484 409 2743 651 
Q 3003 894 3003 1313 
Q 3003 1734 2745 1975 
Q 2488 2216 2034 2216 
z
M 1403 2484 
Q 997 2584 770 2862 
Q 544 3141 544 3541 
Q 544 4100 942 4425 
Q 1341 4750 2034 4750 
Q 2731 4750 3128 4425 
Q 3525 4100 3525 3541 
Q 3525 3141 3298 2862 
Q 3072 2584 2669 2484 
Q 3125 2378 3379 2068 
Q 3634 1759 3634 1313 
Q 3634 634 3220 271 
Q 2806 -91 2034 -91 
Q 1263 -91 848 271 
Q 434 634 434 1313 
Q 434 1759 690 2068 
Q 947 2378 1403 2484 
z
M 1172 3481 
Q 1172 3119 1398 2916 
Q 1625 2713 2034 2713 
Q 2441 2713 2670 2916 
Q 2900 3119 2900 3481 
Q 2900 3844 2670 4047 
Q 2441 4250 2034 4250 
Q 1625 4250 1398 4047 
Q 1172 3844 1172 3481 
z
" transform="scale(0.015625)"/>
      </defs>
      <use xlink:href="#DejaVuSans-Oblique-3b4" transform="translate(0 0.78125)"/>
      <use xlink:href="#DejaVuSans-Oblique-65" transform="translate(61.181641 -15.625) scale(0.7)"/>
      <use xlink:href="#DejaVuSans-3d" transform="translate(126.464844 0.78125)"/>
      <use xlink:href="#DejaVuSans-30" transform="translate(229.736328 0.78125)"/>
      <use xlink:href="#DejaVuSans-2c" transform="translate(293.359375 0.78125)"/>
      <use xlink:href="#DejaVuSans-20" transform="translate(325.146484 0.78125)"/>
      <use xlink:href="#DejaVuSans-Oblique-4a" transform="translate(356.933594 0.78125)"/>
      <use xlink:href="#DejaVuSans-3d" transform="translate(405.908203 0.78125)"/>
      <use xlink:href="#DejaVuSans-31" transform="translate(509.179688 0.78125)"/>
      <use xlink:href="#DejaVuSans-2e" transform="translate(572.802734 0.78125)"/>
      <use xlink:href="#DejaVuSans-38" transform="translate(601.964844 0.78125)"/>
      <use xlink:href="#DejaVuSans-30" transform="translate(665.587891 0.78125)"/>
     </g>
    </g>
    <g id="line2d_28">
     <path d="M 459.255247 121.881125 
L 469.255247 121.881125 
L 479.255247 121.881125 
" style="fill: none; stroke: #7dff7a; stroke-width: 1.5; stroke-linecap: square"/>
    </g>
    <g id="text_15">
     <!-- $\delta_e = 0$, $J = 2.00$ -->
     <g transform="translate(487.255247 125.381125) scale(0.1 -0.1)">
      <use xlink:href="#DejaVuSans-Oblique-3b4" transform="translate(0 0.78125)"/>
      <use xlink:href="#DejaVuSans-Oblique-65" transform="translate(61.181641 -15.625) scale(0.7)"/>
      <use xlink:href="#DejaVuSans-3d" transform="translate(126.464844 0.78125)"/>
      <use xlink:href="#DejaVuSans-30" transform="translate(229.736328 0.78125)"/>
      <use xlink:href="#DejaVuSans-2c" transform="translate(293.359375 0.78125)"/>
      <use xlink:href="#DejaVuSans-20" transform="translate(325.146484 0.78125)"/>
      <use xlink:href="#DejaVuSans-Oblique-4a" transform="translate(356.933594 0.78125)"/>
      <use xlink:href="#DejaVuSans-3d" transform="translate(405.908203 0.78125)"/>
      <use xlink:href="#DejaVuSans-32" transform="translate(509.179688 0.78125)"/>
      <use xlink:href="#DejaVuSans-2e" transform="translate(572.802734 0.78125)"/>
      <use xlink:href="#DejaVuSans-30" transform="translate(604.589844 0.78125)"/>
      <use xlink:href="#DejaVuSans-30" transform="translate(668.212891 0.78125)"/>
     </g>
    </g>
    <g id="line2d_29">
     <path d="M 459.255247 136.579563 
L 469.255247 136.579563 
L 479.255247 136.579563 
" style="fill: none; stroke: #ff9400; stroke-width: 1.5; stroke-linecap: square"/>
    </g>
    <g id="text_16">
     <!-- $\delta_e = 0$, $J = 2.20$ -->
     <g transform="translate(487.255247 140.079563) scale(0.1 -0.1)">
      <use xlink:href="#DejaVuSans-Oblique-3b4" transform="translate(0 0.78125)"/>
      <use xlink:href="#DejaVuSans-Oblique-65" transform="translate(61.181641 -15.625) scale(0.7)"/>
      <use xlink:href="#DejaVuSans-3d" transform="translate(126.464844 0.78125)"/>
      <use xlink:href="#DejaVuSans-30" transform="translate(229.736328 0.78125)"/>
      <use xlink:href="#DejaVuSans-2c" transform="translate(293.359375 0.78125)"/>
      <use xlink:href="#DejaVuSans-20" transform="translate(325.146484 0.78125)"/>
      <use xlink:href="#DejaVuSans-Oblique-4a" transform="translate(356.933594 0.78125)"/>
      <use xlink:href="#DejaVuSans-3d" transform="translate(405.908203 0.78125)"/>
      <use xlink:href="#DejaVuSans-32" transform="translate(509.179688 0.78125)"/>
      <use xlink:href="#DejaVuSans-2e" transform="translate(572.802734 0.78125)"/>
      <use xlink:href="#DejaVuSans-32" transform="translate(599.089844 0.78125)"/>
      <use xlink:href="#DejaVuSans-30" transform="translate(662.712891 0.78125)"/>
     </g>
    </g>
    <g id="line2d_30">
     <path d="M 459.255247 151.278 
L 469.255247 151.278 
L 479.255247 151.278 
" style="fill: none; stroke: #800000; stroke-width: 1.5; stroke-linecap: square"/>
    </g>
    <g id="text_17">
     <!-- $\delta_e = 0$, $J = 2.40$ -->
     <g transform="translate(487.255247 154.778) scale(0.1 -0.1)">
      <use xlink:href="#DejaVuSans-Oblique-3b4" transform="translate(0 0.78125)"/>
      <use xlink:href="#DejaVuSans-Oblique-65" transform="translate(61.181641 -15.625) scale(0.7)"/>
      <use xlink:href="#DejaVuSans-3d" transform="translate(126.464844 0.78125)"/>
      <use xlink:href="#DejaVuSans-30" transform="translate(229.736328 0.78125)"/>
      <use xlink:href="#DejaVuSans-2c" transform="translate(293.359375 0.78125)"/>
      <use xlink:href="#DejaVuSans-20" transform="translate(325.146484 0.78125)"/>
      <use xlink:href="#DejaVuSans-Oblique-4a" transform="translate(356.933594 0.78125)"/>
      <use xlink:href="#DejaVuSans-3d" transform="translate(405.908203 0.78125)"/>
      <use xlink:href="#DejaVuSans-32" transform="translate(509.179688 0.78125)"/>
      <use xlink:href="#DejaVuSans-2e" transform="translate(572.802734 0.78125)"/>
      <use xlink:href="#DejaVuSans-34" transform="translate(604.589844 0.78125)"/>
      <use xlink:href="#DejaVuSans-30" transform="translate(668.212891 0.78125)"/>
     </g>
    </g>
   </g>
  </g>
 </g>
 <defs>
  <clipPath id="pb985054d9c">
   <rect x="66.062" y="10.8" width="384.193247" height="163.24"/>
  </clipPath>
 </defs>
</svg>
