<?xml version="1.0" encoding="utf-8" standalone="no"?>
<!DOCTYPE svg PUBLIC "-//W3C//DTD SVG 1.1//EN"
  "http://www.w3.org/Graphics/SVG/1.1/DTD/svg11.dtd">
<svg xmlns:xlink="http://www.w3.org/1999/xlink" width="432pt" height="216pt" viewBox="0 0 432 216" xmlns="http://www.w3.org/2000/svg" version="1.1">
 <metadata>
  <rdf:RDF xmlns:dc="http://purl.org/dc/elements/1.1/" xmlns:cc="http://creativecommons.org/ns#" xmlns:rdf="http://www.w3.org/1999/02/22-rdf-syntax-ns#">
   <cc:Work>
    <dc:type rdf:resource="http://purl.org/dc/dcmitype/StillImage"/>
    <dc:date>2025-03-28T12:22:26.744817</dc:date>
    <dc:format>image/svg+xml</dc:format>
    <dc:creator>
     <cc:Agent>
      <dc:title>Matplotlib v3.9.2, https://matplotlib.org/</dc:title>
     </cc:Agent>
    </dc:creator>
   </cc:Work>
  </rdf:RDF>
 </metadata>
 <defs>
  <style type="text/css">*{stroke-linejoin: round; stroke-linecap: butt}</style>
 </defs>
 <g id="figure_1">
  <g id="patch_1">
   <path d="M 0 216 
L 432 216 
L 432 0 
L 0 0 
z
" style="fill: #ffffff"/>
  </g>
  <g id="axes_1">
   <g id="patch_2">
    <path d="M 74.432 174.04 
L 306.255247 174.04 
L 306.255247 10.8 
L 74.432 10.8 
z
" style="fill: #ffffff"/>
   </g>
   <g id="matplotlib.axis_1">
    <g id="xtick_1">
     <g id="line2d_1">
      <path d="M 84.96942 174.04 
L 84.96942 10.8 
" clip-path="url(#pbdfb868286)" style="fill: none; stroke: #b0b0b0; stroke-width: 0.8; stroke-linecap: square"/>
     </g>
     <g id="line2d_2">
      <defs>
       <path id="m60c710094e" d="M 0 0 
L 0 3.5 
" style="stroke: #000000; stroke-width: 0.8"/>
      </defs>
      <g>
       <use xlink:href="#m60c710094e" x="84.96942" y="174.04" style="stroke: #000000; stroke-width: 0.8"/>
      </g>
     </g>
     <g id="text_1">
      <!-- −4 -->
      <g transform="translate(77.598327 188.638438) scale(0.1 -0.1)">
       <defs>
        <path id="DejaVuSans-2212" d="M 678 2272 
L 4684 2272 
L 4684 1741 
L 678 1741 
L 678 2272 
z
" transform="scale(0.015625)"/>
        <path id="DejaVuSans-34" d="M 2419 4116 
L 825 1625 
L 2419 1625 
L 2419 4116 
z
M 2253 4666 
L 3047 4666 
L 3047 1625 
L 3713 1625 
L 3713 1100 
L 3047 1100 
L 3047 0 
L 2419 0 
L 2419 1100 
L 313 1100 
L 313 1709 
L 2253 4666 
z
" transform="scale(0.015625)"/>
       </defs>
       <use xlink:href="#DejaVuSans-2212"/>
       <use xlink:href="#DejaVuSans-34" x="83.789062"/>
      </g>
     </g>
    </g>
    <g id="xtick_2">
     <g id="line2d_3">
      <path d="M 123.287312 174.04 
L 123.287312 10.8 
" clip-path="url(#pbdfb868286)" style="fill: none; stroke: #b0b0b0; stroke-width: 0.8; stroke-linecap: square"/>
     </g>
     <g id="line2d_4">
      <g>
       <use xlink:href="#m60c710094e" x="123.287312" y="174.04" style="stroke: #000000; stroke-width: 0.8"/>
      </g>
     </g>
     <g id="text_2">
      <!-- −2 -->
      <g transform="translate(115.916219 188.638438) scale(0.1 -0.1)">
       <defs>
        <path id="DejaVuSans-32" d="M 1228 531 
L 3431 531 
L 3431 0 
L 469 0 
L 469 531 
Q 828 903 1448 1529 
Q 2069 2156 2228 2338 
Q 2531 2678 2651 2914 
Q 2772 3150 2772 3378 
Q 2772 3750 2511 3984 
Q 2250 4219 1831 4219 
Q 1534 4219 1204 4116 
Q 875 4013 500 3803 
L 500 4441 
Q 881 4594 1212 4672 
Q 1544 4750 1819 4750 
Q 2544 4750 2975 4387 
Q 3406 4025 3406 3419 
Q 3406 3131 3298 2873 
Q 3191 2616 2906 2266 
Q 2828 2175 2409 1742 
Q 1991 1309 1228 531 
z
" transform="scale(0.015625)"/>
       </defs>
       <use xlink:href="#DejaVuSans-2212"/>
       <use xlink:href="#DejaVuSans-32" x="83.789062"/>
      </g>
     </g>
    </g>
    <g id="xtick_3">
     <g id="line2d_5">
      <path d="M 161.605205 174.04 
L 161.605205 10.8 
" clip-path="url(#pbdfb868286)" style="fill: none; stroke: #b0b0b0; stroke-width: 0.8; stroke-linecap: square"/>
     </g>
     <g id="line2d_6">
      <g>
       <use xlink:href="#m60c710094e" x="161.605205" y="174.04" style="stroke: #000000; stroke-width: 0.8"/>
      </g>
     </g>
     <g id="text_3">
      <!-- 0 -->
      <g transform="translate(158.423955 188.638438) scale(0.1 -0.1)">
       <defs>
        <path id="DejaVuSans-30" d="M 2034 4250 
Q 1547 4250 1301 3770 
Q 1056 3291 1056 2328 
Q 1056 1369 1301 889 
Q 1547 409 2034 409 
Q 2525 409 2770 889 
Q 3016 1369 3016 2328 
Q 3016 3291 2770 3770 
Q 2525 4250 2034 4250 
z
M 2034 4750 
Q 2819 4750 3233 4129 
Q 3647 3509 3647 2328 
Q 3647 1150 3233 529 
Q 2819 -91 2034 -91 
Q 1250 -91 836 529 
Q 422 1150 422 2328 
Q 422 3509 836 4129 
Q 1250 4750 2034 4750 
z
" transform="scale(0.015625)"/>
       </defs>
       <use xlink:href="#DejaVuSans-30"/>
      </g>
     </g>
    </g>
    <g id="xtick_4">
     <g id="line2d_7">
      <path d="M 199.923097 174.04 
L 199.923097 10.8 
" clip-path="url(#pbdfb868286)" style="fill: none; stroke: #b0b0b0; stroke-width: 0.8; stroke-linecap: square"/>
     </g>
     <g id="line2d_8">
      <g>
       <use xlink:href="#m60c710094e" x="199.923097" y="174.04" style="stroke: #000000; stroke-width: 0.8"/>
      </g>
     </g>
     <g id="text_4">
      <!-- 2 -->
      <g transform="translate(196.741847 188.638438) scale(0.1 -0.1)">
       <use xlink:href="#DejaVuSans-32"/>
      </g>
     </g>
    </g>
    <g id="xtick_5">
     <g id="line2d_9">
      <path d="M 238.240989 174.04 
L 238.240989 10.8 
" clip-path="url(#pbdfb868286)" style="fill: none; stroke: #b0b0b0; stroke-width: 0.8; stroke-linecap: square"/>
     </g>
     <g id="line2d_10">
      <g>
       <use xlink:href="#m60c710094e" x="238.240989" y="174.04" style="stroke: #000000; stroke-width: 0.8"/>
      </g>
     </g>
     <g id="text_5">
      <!-- 4 -->
      <g transform="translate(235.059739 188.638438) scale(0.1 -0.1)">
       <use xlink:href="#DejaVuSans-34"/>
      </g>
     </g>
    </g>
    <g id="xtick_6">
     <g id="line2d_11">
      <path d="M 276.558881 174.04 
L 276.558881 10.8 
" clip-path="url(#pbdfb868286)" style="fill: none; stroke: #b0b0b0; stroke-width: 0.8; stroke-linecap: square"/>
     </g>
     <g id="line2d_12">
      <g>
       <use xlink:href="#m60c710094e" x="276.558881" y="174.04" style="stroke: #000000; stroke-width: 0.8"/>
      </g>
     </g>
     <g id="text_6">
      <!-- 6 -->
      <g transform="translate(273.377631 188.638438) scale(0.1 -0.1)">
       <defs>
        <path id="DejaVuSans-36" d="M 2113 2584 
Q 1688 2584 1439 2293 
Q 1191 2003 1191 1497 
Q 1191 994 1439 701 
Q 1688 409 2113 409 
Q 2538 409 2786 701 
Q 3034 994 3034 1497 
Q 3034 2003 2786 2293 
Q 2538 2584 2113 2584 
z
M 3366 4563 
L 3366 3988 
Q 3128 4100 2886 4159 
Q 2644 4219 2406 4219 
Q 1781 4219 1451 3797 
Q 1122 3375 1075 2522 
Q 1259 2794 1537 2939 
Q 1816 3084 2150 3084 
Q 2853 3084 3261 2657 
Q 3669 2231 3669 1497 
Q 3669 778 3244 343 
Q 2819 -91 2113 -91 
Q 1303 -91 875 529 
Q 447 1150 447 2328 
Q 447 3434 972 4092 
Q 1497 4750 2381 4750 
Q 2619 4750 2861 4703 
Q 3103 4656 3366 4563 
z
" transform="scale(0.015625)"/>
       </defs>
       <use xlink:href="#DejaVuSans-36"/>
      </g>
     </g>
    </g>
    <g id="text_7">
     <!-- $\alpha$ -->
     <g transform="translate(187.043624 202.316563) scale(0.1 -0.1)">
      <defs>
       <path id="DejaVuSans-Oblique-3b1" d="M 2619 1628 
L 2622 2350 
Q 2625 3088 2069 3091 
Q 1653 3094 1394 2747 
Q 1069 2319 959 1747 
Q 825 1059 994 731 
Q 1169 397 1547 397 
Q 1966 397 2319 1063 
L 2619 1628 
z
M 2166 3578 
Q 3141 3594 3128 2584 
Q 3128 2584 3616 3500 
L 4128 3500 
L 3119 1603 
L 3109 919 
Q 3109 766 3194 638 
Q 3291 488 3391 488 
L 3669 488 
L 3575 0 
L 3228 0 
Q 2934 0 2722 263 
Q 2622 394 2619 669 
Q 2416 334 2066 50 
Q 1900 -81 1453 -78 
Q 722 -72 456 397 
Q 184 884 353 1747 
Q 534 2675 1009 3097 
Q 1544 3569 2166 3578 
z
" transform="scale(0.015625)"/>
      </defs>
      <use xlink:href="#DejaVuSans-Oblique-3b1" transform="translate(0 0.84375)"/>
     </g>
    </g>
   </g>
   <g id="matplotlib.axis_2">
    <g id="ytick_1">
     <g id="line2d_13">
      <path d="M 74.432 166.133628 
L 306.255247 166.133628 
" clip-path="url(#pbdfb868286)" style="fill: none; stroke: #b0b0b0; stroke-width: 0.8; stroke-linecap: square"/>
     </g>
     <g id="line2d_14">
      <defs>
       <path id="mca10781a53" d="M 0 0 
L -3.5 0 
" style="stroke: #000000; stroke-width: 0.8"/>
      </defs>
      <g>
       <use xlink:href="#mca10781a53" x="74.432" y="166.133628" style="stroke: #000000; stroke-width: 0.8"/>
      </g>
     </g>
     <g id="text_8">
      <!-- −0.001 -->
      <g transform="translate(30.424188 169.932847) scale(0.1 -0.1)">
       <defs>
        <path id="DejaVuSans-2e" d="M 684 794 
L 1344 794 
L 1344 0 
L 684 0 
L 684 794 
z
" transform="scale(0.015625)"/>
        <path id="DejaVuSans-31" d="M 794 531 
L 1825 531 
L 1825 4091 
L 703 3866 
L 703 4441 
L 1819 4666 
L 2450 4666 
L 2450 531 
L 3481 531 
L 3481 0 
L 794 0 
L 794 531 
z
" transform="scale(0.015625)"/>
       </defs>
       <use xlink:href="#DejaVuSans-2212"/>
       <use xlink:href="#DejaVuSans-30" x="83.789062"/>
       <use xlink:href="#DejaVuSans-2e" x="147.412109"/>
       <use xlink:href="#DejaVuSans-30" x="179.199219"/>
       <use xlink:href="#DejaVuSans-30" x="242.822266"/>
       <use xlink:href="#DejaVuSans-31" x="306.445312"/>
      </g>
     </g>
    </g>
    <g id="ytick_2">
     <g id="line2d_15">
      <path d="M 74.432 136.954334 
L 306.255247 136.954334 
" clip-path="url(#pbdfb868286)" style="fill: none; stroke: #b0b0b0; stroke-width: 0.8; stroke-linecap: square"/>
     </g>
     <g id="line2d_16">
      <g>
       <use xlink:href="#mca10781a53" x="74.432" y="136.954334" style="stroke: #000000; stroke-width: 0.8"/>
      </g>
     </g>
     <g id="text_9">
      <!-- 0.000 -->
      <g transform="translate(38.803875 140.753553) scale(0.1 -0.1)">
       <use xlink:href="#DejaVuSans-30"/>
       <use xlink:href="#DejaVuSans-2e" x="63.623047"/>
       <use xlink:href="#DejaVuSans-30" x="95.410156"/>
       <use xlink:href="#DejaVuSans-30" x="159.033203"/>
       <use xlink:href="#DejaVuSans-30" x="222.65625"/>
      </g>
     </g>
    </g>
    <g id="ytick_3">
     <g id="line2d_17">
      <path d="M 74.432 107.775041 
L 306.255247 107.775041 
" clip-path="url(#pbdfb868286)" style="fill: none; stroke: #b0b0b0; stroke-width: 0.8; stroke-linecap: square"/>
     </g>
     <g id="line2d_18">
      <g>
       <use xlink:href="#mca10781a53" x="74.432" y="107.775041" style="stroke: #000000; stroke-width: 0.8"/>
      </g>
     </g>
     <g id="text_10">
      <!-- 0.001 -->
      <g transform="translate(38.803875 111.574259) scale(0.1 -0.1)">
       <use xlink:href="#DejaVuSans-30"/>
       <use xlink:href="#DejaVuSans-2e" x="63.623047"/>
       <use xlink:href="#DejaVuSans-30" x="95.410156"/>
       <use xlink:href="#DejaVuSans-30" x="159.033203"/>
       <use xlink:href="#DejaVuSans-31" x="222.65625"/>
      </g>
     </g>
    </g>
    <g id="ytick_4">
     <g id="line2d_19">
      <path d="M 74.432 78.595747 
L 306.255247 78.595747 
" clip-path="url(#pbdfb868286)" style="fill: none; stroke: #b0b0b0; stroke-width: 0.8; stroke-linecap: square"/>
     </g>
     <g id="line2d_20">
      <g>
       <use xlink:href="#mca10781a53" x="74.432" y="78.595747" style="stroke: #000000; stroke-width: 0.8"/>
      </g>
     </g>
     <g id="text_11">
      <!-- 0.002 -->
      <g transform="translate(38.803875 82.394966) scale(0.1 -0.1)">
       <use xlink:href="#DejaVuSans-30"/>
       <use xlink:href="#DejaVuSans-2e" x="63.623047"/>
       <use xlink:href="#DejaVuSans-30" x="95.410156"/>
       <use xlink:href="#DejaVuSans-30" x="159.033203"/>
       <use xlink:href="#DejaVuSans-32" x="222.65625"/>
      </g>
     </g>
    </g>
    <g id="ytick_5">
     <g id="line2d_21">
      <path d="M 74.432 49.416453 
L 306.255247 49.416453 
" clip-path="url(#pbdfb868286)" style="fill: none; stroke: #b0b0b0; stroke-width: 0.8; stroke-linecap: square"/>
     </g>
     <g id="line2d_22">
      <g>
       <use xlink:href="#mca10781a53" x="74.432" y="49.416453" style="stroke: #000000; stroke-width: 0.8"/>
      </g>
     </g>
     <g id="text_12">
      <!-- 0.003 -->
      <g transform="translate(38.803875 53.215672) scale(0.1 -0.1)">
       <defs>
        <path id="DejaVuSans-33" d="M 2597 2516 
Q 3050 2419 3304 2112 
Q 3559 1806 3559 1356 
Q 3559 666 3084 287 
Q 2609 -91 1734 -91 
Q 1441 -91 1130 -33 
Q 819 25 488 141 
L 488 750 
Q 750 597 1062 519 
Q 1375 441 1716 441 
Q 2309 441 2620 675 
Q 2931 909 2931 1356 
Q 2931 1769 2642 2001 
Q 2353 2234 1838 2234 
L 1294 2234 
L 1294 2753 
L 1863 2753 
Q 2328 2753 2575 2939 
Q 2822 3125 2822 3475 
Q 2822 3834 2567 4026 
Q 2313 4219 1838 4219 
Q 1578 4219 1281 4162 
Q 984 4106 628 3988 
L 628 4550 
Q 988 4650 1302 4700 
Q 1616 4750 1894 4750 
Q 2613 4750 3031 4423 
Q 3450 4097 3450 3541 
Q 3450 3153 3228 2886 
Q 3006 2619 2597 2516 
z
" transform="scale(0.015625)"/>
       </defs>
       <use xlink:href="#DejaVuSans-30"/>
       <use xlink:href="#DejaVuSans-2e" x="63.623047"/>
       <use xlink:href="#DejaVuSans-30" x="95.410156"/>
       <use xlink:href="#DejaVuSans-30" x="159.033203"/>
       <use xlink:href="#DejaVuSans-33" x="222.65625"/>
      </g>
     </g>
    </g>
    <g id="ytick_6">
     <g id="line2d_23">
      <path d="M 74.432 20.23716 
L 306.255247 20.23716 
" clip-path="url(#pbdfb868286)" style="fill: none; stroke: #b0b0b0; stroke-width: 0.8; stroke-linecap: square"/>
     </g>
     <g id="line2d_24">
      <g>
       <use xlink:href="#mca10781a53" x="74.432" y="20.23716" style="stroke: #000000; stroke-width: 0.8"/>
      </g>
     </g>
     <g id="text_13">
      <!-- 0.004 -->
      <g transform="translate(38.803875 24.036378) scale(0.1 -0.1)">
       <use xlink:href="#DejaVuSans-30"/>
       <use xlink:href="#DejaVuSans-2e" x="63.623047"/>
       <use xlink:href="#DejaVuSans-30" x="95.410156"/>
       <use xlink:href="#DejaVuSans-30" x="159.033203"/>
       <use xlink:href="#DejaVuSans-34" x="222.65625"/>
      </g>
     </g>
    </g>
    <g id="text_14">
     <!-- d$T_C = T / \rho V^2 D^2$ / d$\alpha$ -->
     <g transform="translate(24.324188 139.32) rotate(-90) scale(0.1 -0.1)">
      <defs>
       <path id="DejaVuSans-64" d="M 2906 2969 
L 2906 4863 
L 3481 4863 
L 3481 0 
L 2906 0 
L 2906 525 
Q 2725 213 2448 61 
Q 2172 -91 1784 -91 
Q 1150 -91 751 415 
Q 353 922 353 1747 
Q 353 2572 751 3078 
Q 1150 3584 1784 3584 
Q 2172 3584 2448 3432 
Q 2725 3281 2906 2969 
z
M 947 1747 
Q 947 1113 1208 752 
Q 1469 391 1925 391 
Q 2381 391 2643 752 
Q 2906 1113 2906 1747 
Q 2906 2381 2643 2742 
Q 2381 3103 1925 3103 
Q 1469 3103 1208 2742 
Q 947 2381 947 1747 
z
" transform="scale(0.015625)"/>
       <path id="DejaVuSans-Oblique-54" d="M 378 4666 
L 4325 4666 
L 4225 4134 
L 2559 4134 
L 1759 0 
L 1125 0 
L 1925 4134 
L 275 4134 
L 378 4666 
z
" transform="scale(0.015625)"/>
       <path id="DejaVuSans-Oblique-43" d="M 4447 4306 
L 4319 3641 
Q 4019 3944 3683 4091 
Q 3347 4238 2956 4238 
Q 2422 4238 2017 3981 
Q 1613 3725 1319 3200 
Q 1131 2863 1032 2486 
Q 934 2109 934 1728 
Q 934 1091 1264 756 
Q 1594 422 2222 422 
Q 2656 422 3056 561 
Q 3456 700 3834 978 
L 3688 231 
Q 3316 72 2936 -9 
Q 2556 -91 2175 -91 
Q 1278 -91 773 396 
Q 269 884 269 1753 
Q 269 2309 461 2846 
Q 653 3384 1013 3828 
Q 1394 4300 1883 4525 
Q 2372 4750 3022 4750 
Q 3422 4750 3780 4639 
Q 4138 4528 4447 4306 
z
" transform="scale(0.015625)"/>
       <path id="DejaVuSans-3d" d="M 678 2906 
L 4684 2906 
L 4684 2381 
L 678 2381 
L 678 2906 
z
M 678 1631 
L 4684 1631 
L 4684 1100 
L 678 1100 
L 678 1631 
z
" transform="scale(0.015625)"/>
       <path id="DejaVuSans-2f" d="M 1625 4666 
L 2156 4666 
L 531 -594 
L 0 -594 
L 1625 4666 
z
" transform="scale(0.015625)"/>
       <path id="DejaVuSans-Oblique-3c1" d="M 1203 2875 
Q 1453 3194 1981 3475 
Q 2188 3584 2756 3584 
Q 3394 3584 3694 3078 
Q 3994 2572 3834 1747 
Q 3672 922 3175 415 
Q 2678 -91 2041 -91 
Q 1656 -91 1409 63 
Q 1163 213 1044 525 
L 681 -1331 
L 103 -1331 
L 697 1716 
Q 838 2438 1203 2875 
z
M 3238 1747 
Q 3359 2381 3169 2744 
Q 2978 3103 2522 3103 
Q 2066 3103 1734 2744 
Q 1403 2381 1281 1747 
Q 1156 1113 1347 750 
Q 1538 391 1994 391 
Q 2450 391 2781 750 
Q 3113 1113 3238 1747 
z
" transform="scale(0.015625)"/>
       <path id="DejaVuSans-Oblique-56" d="M 1319 0 
L 500 4666 
L 1119 4666 
L 1797 653 
L 4063 4666 
L 4750 4666 
L 2053 0 
L 1319 0 
z
" transform="scale(0.015625)"/>
       <path id="DejaVuSans-Oblique-44" d="M 1081 4666 
L 2438 4666 
Q 3519 4666 4070 4208 
Q 4622 3750 4622 2847 
Q 4622 2250 4412 1698 
Q 4203 1147 3834 769 
Q 3463 381 2891 190 
Q 2319 0 1538 0 
L 172 0 
L 1081 4666 
z
M 1613 4147 
L 909 519 
L 1734 519 
Q 2794 519 3375 1128 
Q 3956 1738 3956 2847 
Q 3956 3519 3581 3833 
Q 3206 4147 2406 4147 
L 1613 4147 
z
" transform="scale(0.015625)"/>
       <path id="DejaVuSans-20" transform="scale(0.015625)"/>
      </defs>
      <use xlink:href="#DejaVuSans-64" transform="translate(0 0.765625)"/>
      <use xlink:href="#DejaVuSans-Oblique-54" transform="translate(63.476562 0.765625)"/>
      <use xlink:href="#DejaVuSans-Oblique-43" transform="translate(124.560547 -15.640625) scale(0.7)"/>
      <use xlink:href="#DejaVuSans-3d" transform="translate(195.654297 0.765625)"/>
      <use xlink:href="#DejaVuSans-Oblique-54" transform="translate(298.925781 0.765625)"/>
      <use xlink:href="#DejaVuSans-2f" transform="translate(360.009766 0.765625)"/>
      <use xlink:href="#DejaVuSans-Oblique-3c1" transform="translate(393.701172 0.765625)"/>
      <use xlink:href="#DejaVuSans-Oblique-56" transform="translate(457.177734 0.765625)"/>
      <use xlink:href="#DejaVuSans-32" transform="translate(532.602708 39.046875) scale(0.7)"/>
      <use xlink:href="#DejaVuSans-Oblique-44" transform="translate(579.873216 0.765625)"/>
      <use xlink:href="#DejaVuSans-32" transform="translate(663.89194 39.046875) scale(0.7)"/>
      <use xlink:href="#DejaVuSans-20" transform="translate(711.162448 0.765625)"/>
      <use xlink:href="#DejaVuSans-2f" transform="translate(742.949557 0.765625)"/>
      <use xlink:href="#DejaVuSans-20" transform="translate(776.640964 0.765625)"/>
      <use xlink:href="#DejaVuSans-64" transform="translate(808.428073 0.765625)"/>
      <use xlink:href="#DejaVuSans-Oblique-3b1" transform="translate(871.904635 0.765625)"/>
     </g>
    </g>
   </g>
   <g id="line2d_25">
    <path d="M 84.96942 18.22 
L 87.098192 19.034916 
L 89.226964 19.845066 
L 91.355736 20.65045 
L 93.484507 21.451068 
L 95.613279 22.246919 
L 97.742051 23.038005 
L 99.870823 23.824324 
L 101.999595 24.605877 
L 104.128366 25.382663 
L 106.257138 26.154684 
L 108.38591 26.921938 
L 110.514682 27.684426 
L 112.643454 28.442148 
L 114.772225 29.195104 
L 116.900997 29.943294 
L 119.029769 30.686717 
L 121.158541 31.425374 
L 123.287312 32.159266 
L 125.416084 32.88839 
L 127.544856 33.612749 
L 129.673628 34.332342 
L 131.8024 35.047168 
L 133.931171 35.757228 
L 136.059943 36.462522 
L 138.188715 37.16305 
L 140.317487 37.858811 
L 142.446259 38.549807 
L 144.57503 39.236036 
L 146.703802 39.917499 
L 148.832574 40.594196 
L 150.961346 41.266127 
L 153.090117 41.933291 
L 155.218889 42.595689 
L 157.347661 43.253321 
L 159.476433 43.906187 
L 161.605205 44.554287 
L 163.733976 45.197621 
L 165.862748 45.836188 
L 167.99152 46.469989 
L 170.120292 47.099024 
L 172.249064 47.723293 
L 174.377835 48.342796 
L 176.506607 48.957532 
L 178.635379 49.567502 
L 180.764151 50.172706 
L 182.892922 50.773144 
L 185.021694 51.368816 
L 187.150466 51.959721 
L 189.279238 52.545861 
L 191.40801 53.127234 
L 193.536781 53.703841 
L 195.665553 54.275682 
L 197.794325 54.842756 
L 199.923097 55.405065 
L 202.051869 55.962607 
L 204.18064 56.515383 
L 206.309412 57.063393 
L 208.438184 57.606636 
L 210.566956 58.145114 
L 212.695727 58.678825 
L 214.824499 59.20777 
L 216.953271 59.731949 
L 219.082043 60.251362 
L 221.210815 60.766008 
L 223.339586 61.275889 
L 225.468358 61.781003 
L 227.59713 62.281351 
L 229.725902 62.776933 
L 231.854674 63.267748 
L 233.983445 63.753798 
L 236.112217 64.235081 
L 238.240989 64.711598 
L 240.369761 65.183349 
L 242.498532 65.650334 
L 244.627304 66.112552 
L 246.756076 66.570005 
L 248.884848 67.022691 
L 251.01362 67.470611 
L 253.142391 67.913764 
L 255.271163 68.352152 
L 257.399935 68.785773 
L 259.528707 69.214629 
L 261.657479 69.638718 
L 263.78625 70.05804 
L 265.915022 70.472597 
L 268.043794 70.882388 
L 270.172566 71.287412 
L 272.301337 71.68767 
L 274.430109 72.083162 
L 276.558881 72.473888 
L 278.687653 72.859847 
L 280.816425 73.241041 
L 282.945196 73.617468 
L 285.073968 73.989129 
L 287.20274 74.356023 
L 289.331512 74.718152 
L 291.460284 75.075515 
L 293.589055 75.428111 
L 295.717827 75.775941 
" clip-path="url(#pbdfb868286)" style="fill: none; stroke: #000080; stroke-width: 1.5; stroke-linecap: square"/>
   </g>
   <g id="line2d_26">
    <path d="M 84.96942 69.862653 
L 87.098192 70.239033 
L 89.226964 70.610647 
L 91.355736 70.977494 
L 93.484507 71.339576 
L 95.613279 71.696891 
L 97.742051 72.04944 
L 99.870823 72.397223 
L 101.999595 72.74024 
L 104.128366 73.07849 
L 106.257138 73.411975 
L 108.38591 73.740693 
L 110.514682 74.064645 
L 112.643454 74.383831 
L 114.772225 74.69825 
L 116.900997 75.007904 
L 119.029769 75.312791 
L 121.158541 75.612912 
L 123.287312 75.908267 
L 125.416084 76.198856 
L 127.544856 76.484678 
L 129.673628 76.765735 
L 131.8024 77.042025 
L 133.931171 77.313549 
L 136.059943 77.580306 
L 138.188715 77.842298 
L 140.317487 78.099523 
L 142.446259 78.351983 
L 144.57503 78.599676 
L 146.703802 78.842603 
L 148.832574 79.080763 
L 150.961346 79.314158 
L 153.090117 79.542786 
L 155.218889 79.766648 
L 157.347661 79.985744 
L 159.476433 80.200074 
L 161.605205 80.409637 
L 163.733976 80.614435 
L 165.862748 80.814466 
L 167.99152 81.009731 
L 170.120292 81.20023 
L 172.249064 81.385962 
L 174.377835 81.566929 
L 176.506607 81.743129 
L 178.635379 81.914563 
L 180.764151 82.081231 
L 182.892922 82.243133 
L 185.021694 82.400268 
L 187.150466 82.552637 
L 189.279238 82.700241 
L 191.40801 82.843078 
L 193.536781 82.981148 
L 195.665553 83.114453 
L 197.794325 83.242991 
L 199.923097 83.366764 
L 202.051869 83.48577 
L 204.18064 83.600009 
L 206.309412 83.709483 
L 208.438184 83.814191 
L 210.566956 83.914132 
L 212.695727 84.009307 
L 214.824499 84.099716 
L 216.953271 84.185359 
L 219.082043 84.266235 
L 221.210815 84.342346 
L 223.339586 84.41369 
L 225.468358 84.480268 
L 227.59713 84.54208 
L 229.725902 84.599125 
L 231.854674 84.651405 
L 233.983445 84.698918 
L 236.112217 84.741665 
L 238.240989 84.779646 
L 240.369761 84.81286 
L 242.498532 84.841309 
L 244.627304 84.864991 
L 246.756076 84.883907 
L 248.884848 84.898057 
L 251.01362 84.907441 
L 253.142391 84.912059 
L 255.271163 84.91191 
L 257.399935 84.906995 
L 259.528707 84.897314 
L 261.657479 84.882867 
L 263.78625 84.863654 
L 265.915022 84.839674 
L 268.043794 84.810929 
L 270.172566 84.777417 
L 272.301337 84.739139 
L 274.430109 84.696094 
L 276.558881 84.648284 
L 278.687653 84.595707 
L 280.816425 84.538365 
L 282.945196 84.476256 
L 285.073968 84.40938 
L 287.20274 84.337739 
L 289.331512 84.261331 
L 291.460284 84.180158 
L 293.589055 84.094218 
L 295.717827 84.003512 
" clip-path="url(#pbdfb868286)" style="fill: none; stroke: #0080ff; stroke-width: 1.5; stroke-linecap: square"/>
   </g>
   <g id="line2d_27">
    <path d="M 84.96942 110.834307 
L 87.098192 110.967669 
L 89.226964 111.096265 
L 91.355736 111.220094 
L 93.484507 111.339158 
L 95.613279 111.453455 
L 97.742051 111.562985 
L 99.870823 111.66775 
L 101.999595 111.767749 
L 104.128366 111.862981 
L 106.257138 111.953447 
L 108.38591 112.039147 
L 110.514682 112.120081 
L 112.643454 112.196248 
L 114.772225 112.26765 
L 116.900997 112.334285 
L 119.029769 112.396154 
L 121.158541 112.453257 
L 123.287312 112.505593 
L 125.416084 112.553164 
L 127.544856 112.595968 
L 129.673628 112.634006 
L 131.8024 112.667278 
L 133.931171 112.695784 
L 136.059943 112.719523 
L 138.188715 112.738497 
L 140.317487 112.752704 
L 142.446259 112.762145 
L 144.57503 112.766819 
L 146.703802 112.766728 
L 148.832574 112.76187 
L 150.961346 112.752247 
L 153.090117 112.737857 
L 155.218889 112.718701 
L 157.347661 112.694778 
L 159.476433 112.66609 
L 161.605205 112.632635 
L 163.733976 112.594414 
L 165.862748 112.551427 
L 167.99152 112.503674 
L 170.120292 112.451154 
L 172.249064 112.393869 
L 174.377835 112.331817 
L 176.506607 112.264999 
L 178.635379 112.193415 
L 180.764151 112.117064 
L 182.892922 112.035948 
L 185.021694 111.950065 
L 187.150466 111.859416 
L 189.279238 111.764001 
L 191.40801 111.66382 
L 193.536781 111.558872 
L 195.665553 111.449159 
L 197.794325 111.334679 
L 199.923097 111.215433 
L 202.051869 111.091421 
L 204.18064 110.962642 
L 206.309412 110.829098 
L 208.438184 110.690787 
L 210.566956 110.54771 
L 212.695727 110.399867 
L 214.824499 110.247257 
L 216.953271 110.089882 
L 219.082043 109.92774 
L 221.210815 109.760832 
L 223.339586 109.589158 
L 225.468358 109.412718 
L 227.59713 109.231512 
L 229.725902 109.045539 
L 231.854674 108.8548 
L 233.983445 108.659295 
L 236.112217 108.459024 
L 238.240989 108.253987 
L 240.369761 108.044183 
L 242.498532 107.829613 
L 244.627304 107.610277 
L 246.756076 107.386175 
L 248.884848 107.157307 
L 251.01362 106.923672 
L 253.142391 106.685272 
L 255.271163 106.442105 
L 257.399935 106.194172 
L 259.528707 105.941473 
L 261.657479 105.684007 
L 263.78625 105.421776 
L 265.915022 105.154778 
L 268.043794 104.883014 
L 270.172566 104.606484 
L 272.301337 104.325187 
L 274.430109 104.039125 
L 276.558881 103.748296 
L 278.687653 103.452701 
L 280.816425 103.15234 
L 282.945196 102.847213 
L 285.073968 102.53732 
L 287.20274 102.22266 
L 289.331512 101.903234 
L 291.460284 101.579042 
L 293.589055 101.250084 
L 295.717827 100.91636 
" clip-path="url(#pbdfb868286)" style="fill: none; stroke: #7dff7a; stroke-width: 1.5; stroke-linecap: square"/>
   </g>
   <g id="line2d_28">
    <path d="M 84.96942 141.134964 
L 87.098192 141.220826 
L 89.226964 141.301921 
L 91.355736 141.37825 
L 93.484507 141.449813 
L 95.613279 141.51661 
L 97.742051 141.57864 
L 99.870823 141.635905 
L 101.999595 141.688403 
L 104.128366 141.736135 
L 106.257138 141.779101 
L 108.38591 141.8173 
L 110.514682 141.850734 
L 112.643454 141.879401 
L 114.772225 141.903302 
L 116.900997 141.922437 
L 119.029769 141.936805 
L 121.158541 141.946408 
L 123.287312 141.951244 
L 125.416084 141.951314 
L 127.544856 141.946618 
L 129.673628 141.937156 
L 131.8024 141.922928 
L 133.931171 141.903933 
L 136.059943 141.880172 
L 138.188715 141.851645 
L 140.317487 141.818352 
L 142.446259 141.780293 
L 144.57503 141.737467 
L 146.703802 141.689876 
L 148.832574 141.637518 
L 150.961346 141.580394 
L 153.090117 141.518503 
L 155.218889 141.451847 
L 157.347661 141.380424 
L 159.476433 141.304235 
L 161.605205 141.22328 
L 163.733976 141.137559 
L 165.862748 141.047072 
L 167.99152 140.951818 
L 170.120292 140.851798 
L 172.249064 140.747012 
L 174.377835 140.63746 
L 176.506607 140.523142 
L 178.635379 140.404058 
L 180.764151 140.280207 
L 182.892922 140.15159 
L 185.021694 140.018207 
L 187.150466 139.880058 
L 189.279238 139.737142 
L 191.40801 139.589461 
L 193.536781 139.437013 
L 195.665553 139.279799 
L 197.794325 139.117819 
L 199.923097 138.951072 
L 202.051869 138.77956 
L 204.18064 138.603281 
L 206.309412 138.422236 
L 208.438184 138.236425 
L 210.566956 138.045848 
L 212.695727 137.850504 
L 214.824499 137.650395 
L 216.953271 137.445519 
L 219.082043 137.235877 
L 221.210815 137.021469 
L 223.339586 136.802294 
L 225.468358 136.578354 
L 227.59713 136.349647 
L 229.725902 136.116174 
L 231.854674 135.877935 
L 233.983445 135.63493 
L 236.112217 135.387158 
L 238.240989 135.13462 
L 240.369761 134.877317 
L 242.498532 134.615246 
L 244.627304 134.34841 
L 246.756076 134.076808 
L 248.884848 133.800439 
L 251.01362 133.519304 
L 253.142391 133.233403 
L 255.271163 132.942736 
L 257.399935 132.647303 
L 259.528707 132.347103 
L 261.657479 132.042138 
L 263.78625 131.732406 
L 265.915022 131.417908 
L 268.043794 131.098643 
L 270.172566 130.774613 
L 272.301337 130.445816 
L 274.430109 130.112253 
L 276.558881 129.773924 
L 278.687653 129.430829 
L 280.816425 129.082968 
L 282.945196 128.73034 
L 285.073968 128.372946 
L 287.20274 128.010787 
L 289.331512 127.64386 
L 291.460284 127.272168 
L 293.589055 126.89571 
L 295.717827 126.514485 
" clip-path="url(#pbdfb868286)" style="fill: none; stroke: #ff9400; stroke-width: 1.5; stroke-linecap: square"/>
   </g>
   <g id="line2d_29">
    <path d="M 84.96942 160.764623 
L 87.098192 160.998502 
L 89.226964 161.227615 
L 91.355736 161.451961 
L 93.484507 161.671542 
L 95.613279 161.886356 
L 97.742051 162.096404 
L 99.870823 162.301686 
L 101.999595 162.502202 
L 104.128366 162.697952 
L 106.257138 162.888935 
L 108.38591 163.075152 
L 110.514682 163.256604 
L 112.643454 163.433288 
L 114.772225 163.605207 
L 116.900997 163.77236 
L 119.029769 163.934746 
L 121.158541 164.092366 
L 123.287312 164.24522 
L 125.416084 164.393308 
L 127.544856 164.536629 
L 129.673628 164.675185 
L 131.8024 164.808974 
L 133.931171 164.937997 
L 136.059943 165.062254 
L 138.188715 165.181744 
L 140.317487 165.296469 
L 142.446259 165.406427 
L 144.57503 165.511619 
L 146.703802 165.612045 
L 148.832574 165.707705 
L 150.961346 165.798598 
L 153.090117 165.884726 
L 155.218889 165.966087 
L 157.347661 166.042682 
L 159.476433 166.11451 
L 161.605205 166.181573 
L 163.733976 166.243869 
L 165.862748 166.3014 
L 167.99152 166.354164 
L 170.120292 166.402162 
L 172.249064 166.445393 
L 174.377835 166.483859 
L 176.506607 166.517558 
L 178.635379 166.546491 
L 180.764151 166.570658 
L 182.892922 166.590059 
L 185.021694 166.604693 
L 187.150466 166.614562 
L 189.279238 166.619664 
L 191.40801 166.62 
L 193.536781 166.61557 
L 195.665553 166.606373 
L 197.794325 166.592411 
L 199.923097 166.573682 
L 202.051869 166.550187 
L 204.18064 166.521926 
L 206.309412 166.488899 
L 208.438184 166.451105 
L 210.566956 166.408546 
L 212.695727 166.36122 
L 214.824499 166.309128 
L 216.953271 166.25227 
L 219.082043 166.190645 
L 221.210815 166.124255 
L 223.339586 166.053098 
L 225.468358 165.977175 
L 227.59713 165.896486 
L 229.725902 165.81103 
L 231.854674 165.720809 
L 233.983445 165.625821 
L 236.112217 165.526067 
L 238.240989 165.421547 
L 240.369761 165.312261 
L 242.498532 165.198209 
L 244.627304 165.07939 
L 246.756076 164.955805 
L 248.884848 164.827454 
L 251.01362 164.694337 
L 253.142391 164.556454 
L 255.271163 164.413804 
L 257.399935 164.266388 
L 259.528707 164.114206 
L 261.657479 163.957258 
L 263.78625 163.795544 
L 265.915022 163.629064 
L 268.043794 163.457817 
L 270.172566 163.281804 
L 272.301337 163.101025 
L 274.430109 162.91548 
L 276.558881 162.725168 
L 278.687653 162.530091 
L 280.816425 162.330247 
L 282.945196 162.125637 
L 285.073968 161.916261 
L 287.20274 161.702119 
L 289.331512 161.48321 
L 291.460284 161.259535 
L 293.589055 161.031094 
L 295.717827 160.797887 
" clip-path="url(#pbdfb868286)" style="fill: none; stroke: #800000; stroke-width: 1.5; stroke-linecap: square"/>
   </g>
   <g id="patch_3">
    <path d="M 74.432 174.04 
L 74.432 10.8 
" style="fill: none; stroke: #000000; stroke-width: 0.8; stroke-linejoin: miter; stroke-linecap: square"/>
   </g>
   <g id="patch_4">
    <path d="M 306.255247 174.04 
L 306.255247 10.8 
" style="fill: none; stroke: #000000; stroke-width: 0.8; stroke-linejoin: miter; stroke-linecap: square"/>
   </g>
   <g id="patch_5">
    <path d="M 74.432 174.04 
L 306.255247 174.04 
" style="fill: none; stroke: #000000; stroke-width: 0.8; stroke-linejoin: miter; stroke-linecap: square"/>
   </g>
   <g id="patch_6">
    <path d="M 74.432 10.8 
L 306.255247 10.8 
" style="fill: none; stroke: #000000; stroke-width: 0.8; stroke-linejoin: miter; stroke-linecap: square"/>
   </g>
   <g id="legend_1">
    <g id="patch_7">
     <path d="M 315.255247 162.878 
L 420.455247 162.878 
Q 422.455247 162.878 422.455247 160.878 
L 422.455247 88.385812 
Q 422.455247 86.385812 420.455247 86.385812 
L 315.255247 86.385812 
Q 313.255247 86.385812 313.255247 88.385812 
L 313.255247 160.878 
Q 313.255247 162.878 315.255247 162.878 
z
" style="fill: #4d4d4d; opacity: 0.5; stroke: #4d4d4d; stroke-linejoin: miter"/>
    </g>
    <g id="patch_8">
     <path d="M 313.255247 160.878 
L 418.455247 160.878 
Q 420.455247 160.878 420.455247 158.878 
L 420.455247 86.385812 
Q 420.455247 84.385812 418.455247 84.385812 
L 313.255247 84.385812 
Q 311.255247 84.385812 311.255247 86.385812 
L 311.255247 158.878 
Q 311.255247 160.878 313.255247 160.878 
z
" style="fill: #ffffff; stroke: #cccccc; stroke-linejoin: miter"/>
    </g>
    <g id="line2d_30">
     <path d="M 315.255247 92.48425 
L 325.255247 92.48425 
L 335.255247 92.48425 
" style="fill: none; stroke: #000080; stroke-width: 1.5; stroke-linecap: square"/>
    </g>
    <g id="text_15">
     <!-- $\delta_e = 0$, $J = 1.60$ -->
     <g transform="translate(343.255247 95.98425) scale(0.1 -0.1)">
      <defs>
       <path id="DejaVuSans-Oblique-3b4" d="M 3472 4053 
Q 3197 4272 2450 4272 
Q 1659 4272 1588 3906 
Q 1531 3619 2328 3469 
Q 2953 3353 3253 3003 
Q 3616 2581 3447 1716 
Q 3284 888 2763 400 
Q 2238 -91 1488 -91 
Q 741 -91 406 400 
Q 72 888 241 1747 
Q 363 2384 891 2900 
Q 1097 3100 1353 3213 
Q 913 3459 1000 3900 
Q 1166 4750 2544 4750 
Q 3234 4750 3566 4531 
L 3472 4053 
z
M 1753 3056 
Q 1525 2966 1306 2738 
Q 969 2384 847 1747 
Q 722 1113 919 756 
Q 1119 397 1584 397 
Q 2044 397 2381 759 
Q 2722 1122 2838 1716 
Q 2956 2338 2731 2638 
Q 2491 2959 2103 2994 
Q 1906 3013 1753 3056 
z
" transform="scale(0.015625)"/>
       <path id="DejaVuSans-Oblique-65" d="M 3078 2063 
Q 3088 2113 3092 2166 
Q 3097 2219 3097 2272 
Q 3097 2653 2873 2875 
Q 2650 3097 2266 3097 
Q 1838 3097 1509 2826 
Q 1181 2556 1013 2059 
L 3078 2063 
z
M 3578 1613 
L 903 1613 
Q 884 1494 878 1425 
Q 872 1356 872 1306 
Q 872 872 1139 634 
Q 1406 397 1894 397 
Q 2269 397 2603 481 
Q 2938 566 3225 728 
L 3116 159 
Q 2806 34 2476 -28 
Q 2147 -91 1806 -91 
Q 1078 -91 686 257 
Q 294 606 294 1247 
Q 294 1794 489 2264 
Q 684 2734 1063 3103 
Q 1306 3334 1642 3459 
Q 1978 3584 2356 3584 
Q 2950 3584 3301 3228 
Q 3653 2872 3653 2272 
Q 3653 2128 3634 1964 
Q 3616 1800 3578 1613 
z
" transform="scale(0.015625)"/>
       <path id="DejaVuSans-2c" d="M 750 794 
L 1409 794 
L 1409 256 
L 897 -744 
L 494 -744 
L 750 256 
L 750 794 
z
" transform="scale(0.015625)"/>
       <path id="DejaVuSans-Oblique-4a" d="M 1069 4666 
L 1703 4666 
L 856 325 
Q 691 -522 298 -901 
Q -94 -1281 -800 -1281 
L -1050 -1281 
L -947 -750 
L -750 -750 
Q -328 -750 -109 -509 
Q 109 -269 225 325 
L 1069 4666 
z
" transform="scale(0.015625)"/>
      </defs>
      <use xlink:href="#DejaVuSans-Oblique-3b4" transform="translate(0 0.78125)"/>
      <use xlink:href="#DejaVuSans-Oblique-65" transform="translate(61.181641 -15.625) scale(0.7)"/>
      <use xlink:href="#DejaVuSans-3d" transform="translate(126.464844 0.78125)"/>
      <use xlink:href="#DejaVuSans-30" transform="translate(229.736328 0.78125)"/>
      <use xlink:href="#DejaVuSans-2c" transform="translate(293.359375 0.78125)"/>
      <use xlink:href="#DejaVuSans-20" transform="translate(325.146484 0.78125)"/>
      <use xlink:href="#DejaVuSans-Oblique-4a" transform="translate(356.933594 0.78125)"/>
      <use xlink:href="#DejaVuSans-3d" transform="translate(405.908203 0.78125)"/>
      <use xlink:href="#DejaVuSans-31" transform="translate(509.179688 0.78125)"/>
      <use xlink:href="#DejaVuSans-2e" transform="translate(572.802734 0.78125)"/>
      <use xlink:href="#DejaVuSans-36" transform="translate(604.589844 0.78125)"/>
      <use xlink:href="#DejaVuSans-30" transform="translate(668.212891 0.78125)"/>
     </g>
    </g>
    <g id="line2d_31">
     <path d="M 315.255247 107.182688 
L 325.255247 107.182688 
L 335.255247 107.182688 
" style="fill: none; stroke: #0080ff; stroke-width: 1.5; stroke-linecap: square"/>
    </g>
    <g id="text_16">
     <!-- $\delta_e = 0$, $J = 1.80$ -->
     <g transform="translate(343.255247 110.682688) scale(0.1 -0.1)">
      <defs>
       <path id="DejaVuSans-38" d="M 2034 2216 
Q 1584 2216 1326 1975 
Q 1069 1734 1069 1313 
Q 1069 891 1326 650 
Q 1584 409 2034 409 
Q 2484 409 2743 651 
Q 3003 894 3003 1313 
Q 3003 1734 2745 1975 
Q 2488 2216 2034 2216 
z
M 1403 2484 
Q 997 2584 770 2862 
Q 544 3141 544 3541 
Q 544 4100 942 4425 
Q 1341 4750 2034 4750 
Q 2731 4750 3128 4425 
Q 3525 4100 3525 3541 
Q 3525 3141 3298 2862 
Q 3072 2584 2669 2484 
Q 3125 2378 3379 2068 
Q 3634 1759 3634 1313 
Q 3634 634 3220 271 
Q 2806 -91 2034 -91 
Q 1263 -91 848 271 
Q 434 634 434 1313 
Q 434 1759 690 2068 
Q 947 2378 1403 2484 
z
M 1172 3481 
Q 1172 3119 1398 2916 
Q 1625 2713 2034 2713 
Q 2441 2713 2670 2916 
Q 2900 3119 2900 3481 
Q 2900 3844 2670 4047 
Q 2441 4250 2034 4250 
Q 1625 4250 1398 4047 
Q 1172 3844 1172 3481 
z
" transform="scale(0.015625)"/>
      </defs>
      <use xlink:href="#DejaVuSans-Oblique-3b4" transform="translate(0 0.78125)"/>
      <use xlink:href="#DejaVuSans-Oblique-65" transform="translate(61.181641 -15.625) scale(0.7)"/>
      <use xlink:href="#DejaVuSans-3d" transform="translate(126.464844 0.78125)"/>
      <use xlink:href="#DejaVuSans-30" transform="translate(229.736328 0.78125)"/>
      <use xlink:href="#DejaVuSans-2c" transform="translate(293.359375 0.78125)"/>
      <use xlink:href="#DejaVuSans-20" transform="translate(325.146484 0.78125)"/>
      <use xlink:href="#DejaVuSans-Oblique-4a" transform="translate(356.933594 0.78125)"/>
      <use xlink:href="#DejaVuSans-3d" transform="translate(405.908203 0.78125)"/>
      <use xlink:href="#DejaVuSans-31" transform="translate(509.179688 0.78125)"/>
      <use xlink:href="#DejaVuSans-2e" transform="translate(572.802734 0.78125)"/>
      <use xlink:href="#DejaVuSans-38" transform="translate(601.964844 0.78125)"/>
      <use xlink:href="#DejaVuSans-30" transform="translate(665.587891 0.78125)"/>
     </g>
    </g>
    <g id="line2d_32">
     <path d="M 315.255247 121.881125 
L 325.255247 121.881125 
L 335.255247 121.881125 
" style="fill: none; stroke: #7dff7a; stroke-width: 1.5; stroke-linecap: square"/>
    </g>
    <g id="text_17">
     <!-- $\delta_e = 0$, $J = 2.00$ -->
     <g transform="translate(343.255247 125.381125) scale(0.1 -0.1)">
      <use xlink:href="#DejaVuSans-Oblique-3b4" transform="translate(0 0.78125)"/>
      <use xlink:href="#DejaVuSans-Oblique-65" transform="translate(61.181641 -15.625) scale(0.7)"/>
      <use xlink:href="#DejaVuSans-3d" transform="translate(126.464844 0.78125)"/>
      <use xlink:href="#DejaVuSans-30" transform="translate(229.736328 0.78125)"/>
      <use xlink:href="#DejaVuSans-2c" transform="translate(293.359375 0.78125)"/>
      <use xlink:href="#DejaVuSans-20" transform="translate(325.146484 0.78125)"/>
      <use xlink:href="#DejaVuSans-Oblique-4a" transform="translate(356.933594 0.78125)"/>
      <use xlink:href="#DejaVuSans-3d" transform="translate(405.908203 0.78125)"/>
      <use xlink:href="#DejaVuSans-32" transform="translate(509.179688 0.78125)"/>
      <use xlink:href="#DejaVuSans-2e" transform="translate(572.802734 0.78125)"/>
      <use xlink:href="#DejaVuSans-30" transform="translate(604.589844 0.78125)"/>
      <use xlink:href="#DejaVuSans-30" transform="translate(668.212891 0.78125)"/>
     </g>
    </g>
    <g id="line2d_33">
     <path d="M 315.255247 136.579563 
L 325.255247 136.579563 
L 335.255247 136.579563 
" style="fill: none; stroke: #ff9400; stroke-width: 1.5; stroke-linecap: square"/>
    </g>
    <g id="text_18">
     <!-- $\delta_e = 0$, $J = 2.20$ -->
     <g transform="translate(343.255247 140.079563) scale(0.1 -0.1)">
      <use xlink:href="#DejaVuSans-Oblique-3b4" transform="translate(0 0.78125)"/>
      <use xlink:href="#DejaVuSans-Oblique-65" transform="translate(61.181641 -15.625) scale(0.7)"/>
      <use xlink:href="#DejaVuSans-3d" transform="translate(126.464844 0.78125)"/>
      <use xlink:href="#DejaVuSans-30" transform="translate(229.736328 0.78125)"/>
      <use xlink:href="#DejaVuSans-2c" transform="translate(293.359375 0.78125)"/>
      <use xlink:href="#DejaVuSans-20" transform="translate(325.146484 0.78125)"/>
      <use xlink:href="#DejaVuSans-Oblique-4a" transform="translate(356.933594 0.78125)"/>
      <use xlink:href="#DejaVuSans-3d" transform="translate(405.908203 0.78125)"/>
      <use xlink:href="#DejaVuSans-32" transform="translate(509.179688 0.78125)"/>
      <use xlink:href="#DejaVuSans-2e" transform="translate(572.802734 0.78125)"/>
      <use xlink:href="#DejaVuSans-32" transform="translate(599.089844 0.78125)"/>
      <use xlink:href="#DejaVuSans-30" transform="translate(662.712891 0.78125)"/>
     </g>
    </g>
    <g id="line2d_34">
     <path d="M 315.255247 151.278 
L 325.255247 151.278 
L 335.255247 151.278 
" style="fill: none; stroke: #800000; stroke-width: 1.5; stroke-linecap: square"/>
    </g>
    <g id="text_19">
     <!-- $\delta_e = 0$, $J = 2.40$ -->
     <g transform="translate(343.255247 154.778) scale(0.1 -0.1)">
      <use xlink:href="#DejaVuSans-Oblique-3b4" transform="translate(0 0.78125)"/>
      <use xlink:href="#DejaVuSans-Oblique-65" transform="translate(61.181641 -15.625) scale(0.7)"/>
      <use xlink:href="#DejaVuSans-3d" transform="translate(126.464844 0.78125)"/>
      <use xlink:href="#DejaVuSans-30" transform="translate(229.736328 0.78125)"/>
      <use xlink:href="#DejaVuSans-2c" transform="translate(293.359375 0.78125)"/>
      <use xlink:href="#DejaVuSans-20" transform="translate(325.146484 0.78125)"/>
      <use xlink:href="#DejaVuSans-Oblique-4a" transform="translate(356.933594 0.78125)"/>
      <use xlink:href="#DejaVuSans-3d" transform="translate(405.908203 0.78125)"/>
      <use xlink:href="#DejaVuSans-32" transform="translate(509.179688 0.78125)"/>
      <use xlink:href="#DejaVuSans-2e" transform="translate(572.802734 0.78125)"/>
      <use xlink:href="#DejaVuSans-34" transform="translate(604.589844 0.78125)"/>
      <use xlink:href="#DejaVuSans-30" transform="translate(668.212891 0.78125)"/>
     </g>
    </g>
   </g>
  </g>
 </g>
 <defs>
  <clipPath id="pbdfb868286">
   <rect x="74.432" y="10.8" width="231.823247" height="163.24"/>
  </clipPath>
 </defs>
</svg>
