<?xml version="1.0" encoding="utf-8" standalone="no"?>
<!DOCTYPE svg PUBLIC "-//W3C//DTD SVG 1.1//EN"
  "http://www.w3.org/Graphics/SVG/1.1/DTD/svg11.dtd">
<svg xmlns:xlink="http://www.w3.org/1999/xlink" width="432pt" height="216pt" viewBox="0 0 432 216" xmlns="http://www.w3.org/2000/svg" version="1.1">
 <metadata>
  <rdf:RDF xmlns:dc="http://purl.org/dc/elements/1.1/" xmlns:cc="http://creativecommons.org/ns#" xmlns:rdf="http://www.w3.org/1999/02/22-rdf-syntax-ns#">
   <cc:Work>
    <dc:type rdf:resource="http://purl.org/dc/dcmitype/StillImage"/>
    <dc:date>2025-03-31T00:27:52.203068</dc:date>
    <dc:format>image/svg+xml</dc:format>
    <dc:creator>
     <cc:Agent>
      <dc:title>Matplotlib v3.9.2, https://matplotlib.org/</dc:title>
     </cc:Agent>
    </dc:creator>
   </cc:Work>
  </rdf:RDF>
 </metadata>
 <defs>
  <style type="text/css">*{stroke-linejoin: round; stroke-linecap: butt}</style>
 </defs>
 <g id="figure_1">
  <g id="patch_1">
   <path d="M 0 216 
L 432 216 
L 432 0 
L 0 0 
z
" style="fill: #ffffff"/>
  </g>
  <g id="axes_1">
   <g id="patch_2">
    <path d="M 74.432 174.04 
L 306.255247 174.04 
L 306.255247 10.8 
L 74.432 10.8 
z
" style="fill: #ffffff"/>
   </g>
   <g id="matplotlib.axis_1">
    <g id="xtick_1">
     <g id="line2d_1">
      <path d="M 84.96942 174.04 
L 84.96942 10.8 
" clip-path="url(#pb2effa6fbb)" style="fill: none; stroke: #b0b0b0; stroke-width: 0.8; stroke-linecap: square"/>
     </g>
     <g id="line2d_2">
      <defs>
       <path id="m8c1d56bf31" d="M 0 0 
L 0 3.5 
" style="stroke: #000000; stroke-width: 0.8"/>
      </defs>
      <g>
       <use xlink:href="#m8c1d56bf31" x="84.96942" y="174.04" style="stroke: #000000; stroke-width: 0.8"/>
      </g>
     </g>
     <g id="text_1">
      <!-- −4 -->
      <g transform="translate(77.598327 188.638438) scale(0.1 -0.1)">
       <defs>
        <path id="DejaVuSans-2212" d="M 678 2272 
L 4684 2272 
L 4684 1741 
L 678 1741 
L 678 2272 
z
" transform="scale(0.015625)"/>
        <path id="DejaVuSans-34" d="M 2419 4116 
L 825 1625 
L 2419 1625 
L 2419 4116 
z
M 2253 4666 
L 3047 4666 
L 3047 1625 
L 3713 1625 
L 3713 1100 
L 3047 1100 
L 3047 0 
L 2419 0 
L 2419 1100 
L 313 1100 
L 313 1709 
L 2253 4666 
z
" transform="scale(0.015625)"/>
       </defs>
       <use xlink:href="#DejaVuSans-2212"/>
       <use xlink:href="#DejaVuSans-34" x="83.789062"/>
      </g>
     </g>
    </g>
    <g id="xtick_2">
     <g id="line2d_3">
      <path d="M 123.287312 174.04 
L 123.287312 10.8 
" clip-path="url(#pb2effa6fbb)" style="fill: none; stroke: #b0b0b0; stroke-width: 0.8; stroke-linecap: square"/>
     </g>
     <g id="line2d_4">
      <g>
       <use xlink:href="#m8c1d56bf31" x="123.287312" y="174.04" style="stroke: #000000; stroke-width: 0.8"/>
      </g>
     </g>
     <g id="text_2">
      <!-- −2 -->
      <g transform="translate(115.916219 188.638438) scale(0.1 -0.1)">
       <defs>
        <path id="DejaVuSans-32" d="M 1228 531 
L 3431 531 
L 3431 0 
L 469 0 
L 469 531 
Q 828 903 1448 1529 
Q 2069 2156 2228 2338 
Q 2531 2678 2651 2914 
Q 2772 3150 2772 3378 
Q 2772 3750 2511 3984 
Q 2250 4219 1831 4219 
Q 1534 4219 1204 4116 
Q 875 4013 500 3803 
L 500 4441 
Q 881 4594 1212 4672 
Q 1544 4750 1819 4750 
Q 2544 4750 2975 4387 
Q 3406 4025 3406 3419 
Q 3406 3131 3298 2873 
Q 3191 2616 2906 2266 
Q 2828 2175 2409 1742 
Q 1991 1309 1228 531 
z
" transform="scale(0.015625)"/>
       </defs>
       <use xlink:href="#DejaVuSans-2212"/>
       <use xlink:href="#DejaVuSans-32" x="83.789062"/>
      </g>
     </g>
    </g>
    <g id="xtick_3">
     <g id="line2d_5">
      <path d="M 161.605205 174.04 
L 161.605205 10.8 
" clip-path="url(#pb2effa6fbb)" style="fill: none; stroke: #b0b0b0; stroke-width: 0.8; stroke-linecap: square"/>
     </g>
     <g id="line2d_6">
      <g>
       <use xlink:href="#m8c1d56bf31" x="161.605205" y="174.04" style="stroke: #000000; stroke-width: 0.8"/>
      </g>
     </g>
     <g id="text_3">
      <!-- 0 -->
      <g transform="translate(158.423955 188.638438) scale(0.1 -0.1)">
       <defs>
        <path id="DejaVuSans-30" d="M 2034 4250 
Q 1547 4250 1301 3770 
Q 1056 3291 1056 2328 
Q 1056 1369 1301 889 
Q 1547 409 2034 409 
Q 2525 409 2770 889 
Q 3016 1369 3016 2328 
Q 3016 3291 2770 3770 
Q 2525 4250 2034 4250 
z
M 2034 4750 
Q 2819 4750 3233 4129 
Q 3647 3509 3647 2328 
Q 3647 1150 3233 529 
Q 2819 -91 2034 -91 
Q 1250 -91 836 529 
Q 422 1150 422 2328 
Q 422 3509 836 4129 
Q 1250 4750 2034 4750 
z
" transform="scale(0.015625)"/>
       </defs>
       <use xlink:href="#DejaVuSans-30"/>
      </g>
     </g>
    </g>
    <g id="xtick_4">
     <g id="line2d_7">
      <path d="M 199.923097 174.04 
L 199.923097 10.8 
" clip-path="url(#pb2effa6fbb)" style="fill: none; stroke: #b0b0b0; stroke-width: 0.8; stroke-linecap: square"/>
     </g>
     <g id="line2d_8">
      <g>
       <use xlink:href="#m8c1d56bf31" x="199.923097" y="174.04" style="stroke: #000000; stroke-width: 0.8"/>
      </g>
     </g>
     <g id="text_4">
      <!-- 2 -->
      <g transform="translate(196.741847 188.638438) scale(0.1 -0.1)">
       <use xlink:href="#DejaVuSans-32"/>
      </g>
     </g>
    </g>
    <g id="xtick_5">
     <g id="line2d_9">
      <path d="M 238.240989 174.04 
L 238.240989 10.8 
" clip-path="url(#pb2effa6fbb)" style="fill: none; stroke: #b0b0b0; stroke-width: 0.8; stroke-linecap: square"/>
     </g>
     <g id="line2d_10">
      <g>
       <use xlink:href="#m8c1d56bf31" x="238.240989" y="174.04" style="stroke: #000000; stroke-width: 0.8"/>
      </g>
     </g>
     <g id="text_5">
      <!-- 4 -->
      <g transform="translate(235.059739 188.638438) scale(0.1 -0.1)">
       <use xlink:href="#DejaVuSans-34"/>
      </g>
     </g>
    </g>
    <g id="xtick_6">
     <g id="line2d_11">
      <path d="M 276.558881 174.04 
L 276.558881 10.8 
" clip-path="url(#pb2effa6fbb)" style="fill: none; stroke: #b0b0b0; stroke-width: 0.8; stroke-linecap: square"/>
     </g>
     <g id="line2d_12">
      <g>
       <use xlink:href="#m8c1d56bf31" x="276.558881" y="174.04" style="stroke: #000000; stroke-width: 0.8"/>
      </g>
     </g>
     <g id="text_6">
      <!-- 6 -->
      <g transform="translate(273.377631 188.638438) scale(0.1 -0.1)">
       <defs>
        <path id="DejaVuSans-36" d="M 2113 2584 
Q 1688 2584 1439 2293 
Q 1191 2003 1191 1497 
Q 1191 994 1439 701 
Q 1688 409 2113 409 
Q 2538 409 2786 701 
Q 3034 994 3034 1497 
Q 3034 2003 2786 2293 
Q 2538 2584 2113 2584 
z
M 3366 4563 
L 3366 3988 
Q 3128 4100 2886 4159 
Q 2644 4219 2406 4219 
Q 1781 4219 1451 3797 
Q 1122 3375 1075 2522 
Q 1259 2794 1537 2939 
Q 1816 3084 2150 3084 
Q 2853 3084 3261 2657 
Q 3669 2231 3669 1497 
Q 3669 778 3244 343 
Q 2819 -91 2113 -91 
Q 1303 -91 875 529 
Q 447 1150 447 2328 
Q 447 3434 972 4092 
Q 1497 4750 2381 4750 
Q 2619 4750 2861 4703 
Q 3103 4656 3366 4563 
z
" transform="scale(0.015625)"/>
       </defs>
       <use xlink:href="#DejaVuSans-36"/>
      </g>
     </g>
    </g>
    <g id="text_7">
     <!-- $\alpha$ -->
     <g transform="translate(187.043624 202.316563) scale(0.1 -0.1)">
      <defs>
       <path id="DejaVuSans-Oblique-3b1" d="M 2619 1628 
L 2622 2350 
Q 2625 3088 2069 3091 
Q 1653 3094 1394 2747 
Q 1069 2319 959 1747 
Q 825 1059 994 731 
Q 1169 397 1547 397 
Q 1966 397 2319 1063 
L 2619 1628 
z
M 2166 3578 
Q 3141 3594 3128 2584 
Q 3128 2584 3616 3500 
L 4128 3500 
L 3119 1603 
L 3109 919 
Q 3109 766 3194 638 
Q 3291 488 3391 488 
L 3669 488 
L 3575 0 
L 3228 0 
Q 2934 0 2722 263 
Q 2622 394 2619 669 
Q 2416 334 2066 50 
Q 1900 -81 1453 -78 
Q 722 -72 456 397 
Q 184 884 353 1747 
Q 534 2675 1009 3097 
Q 1544 3569 2166 3578 
z
" transform="scale(0.015625)"/>
      </defs>
      <use xlink:href="#DejaVuSans-Oblique-3b1" transform="translate(0 0.84375)"/>
     </g>
    </g>
   </g>
   <g id="matplotlib.axis_2">
    <g id="ytick_1">
     <g id="line2d_13">
      <path d="M 74.432 147.071365 
L 306.255247 147.071365 
" clip-path="url(#pb2effa6fbb)" style="fill: none; stroke: #b0b0b0; stroke-width: 0.8; stroke-linecap: square"/>
     </g>
     <g id="line2d_14">
      <defs>
       <path id="m0d2e268448" d="M 0 0 
L -3.5 0 
" style="stroke: #000000; stroke-width: 0.8"/>
      </defs>
      <g>
       <use xlink:href="#m0d2e268448" x="74.432" y="147.071365" style="stroke: #000000; stroke-width: 0.8"/>
      </g>
     </g>
     <g id="text_8">
      <!-- −0.002 -->
      <g transform="translate(30.424188 150.870583) scale(0.1 -0.1)">
       <defs>
        <path id="DejaVuSans-2e" d="M 684 794 
L 1344 794 
L 1344 0 
L 684 0 
L 684 794 
z
" transform="scale(0.015625)"/>
       </defs>
       <use xlink:href="#DejaVuSans-2212"/>
       <use xlink:href="#DejaVuSans-30" x="83.789062"/>
       <use xlink:href="#DejaVuSans-2e" x="147.412109"/>
       <use xlink:href="#DejaVuSans-30" x="179.199219"/>
       <use xlink:href="#DejaVuSans-30" x="242.822266"/>
       <use xlink:href="#DejaVuSans-32" x="306.445312"/>
      </g>
     </g>
    </g>
    <g id="ytick_2">
     <g id="line2d_15">
      <path d="M 74.432 108.212949 
L 306.255247 108.212949 
" clip-path="url(#pb2effa6fbb)" style="fill: none; stroke: #b0b0b0; stroke-width: 0.8; stroke-linecap: square"/>
     </g>
     <g id="line2d_16">
      <g>
       <use xlink:href="#m0d2e268448" x="74.432" y="108.212949" style="stroke: #000000; stroke-width: 0.8"/>
      </g>
     </g>
     <g id="text_9">
      <!-- −0.001 -->
      <g transform="translate(30.424188 112.012168) scale(0.1 -0.1)">
       <defs>
        <path id="DejaVuSans-31" d="M 794 531 
L 1825 531 
L 1825 4091 
L 703 3866 
L 703 4441 
L 1819 4666 
L 2450 4666 
L 2450 531 
L 3481 531 
L 3481 0 
L 794 0 
L 794 531 
z
" transform="scale(0.015625)"/>
       </defs>
       <use xlink:href="#DejaVuSans-2212"/>
       <use xlink:href="#DejaVuSans-30" x="83.789062"/>
       <use xlink:href="#DejaVuSans-2e" x="147.412109"/>
       <use xlink:href="#DejaVuSans-30" x="179.199219"/>
       <use xlink:href="#DejaVuSans-30" x="242.822266"/>
       <use xlink:href="#DejaVuSans-31" x="306.445312"/>
      </g>
     </g>
    </g>
    <g id="ytick_3">
     <g id="line2d_17">
      <path d="M 74.432 69.354533 
L 306.255247 69.354533 
" clip-path="url(#pb2effa6fbb)" style="fill: none; stroke: #b0b0b0; stroke-width: 0.8; stroke-linecap: square"/>
     </g>
     <g id="line2d_18">
      <g>
       <use xlink:href="#m0d2e268448" x="74.432" y="69.354533" style="stroke: #000000; stroke-width: 0.8"/>
      </g>
     </g>
     <g id="text_10">
      <!-- 0.000 -->
      <g transform="translate(38.803875 73.153752) scale(0.1 -0.1)">
       <use xlink:href="#DejaVuSans-30"/>
       <use xlink:href="#DejaVuSans-2e" x="63.623047"/>
       <use xlink:href="#DejaVuSans-30" x="95.410156"/>
       <use xlink:href="#DejaVuSans-30" x="159.033203"/>
       <use xlink:href="#DejaVuSans-30" x="222.65625"/>
      </g>
     </g>
    </g>
    <g id="ytick_4">
     <g id="line2d_19">
      <path d="M 74.432 30.496117 
L 306.255247 30.496117 
" clip-path="url(#pb2effa6fbb)" style="fill: none; stroke: #b0b0b0; stroke-width: 0.8; stroke-linecap: square"/>
     </g>
     <g id="line2d_20">
      <g>
       <use xlink:href="#m0d2e268448" x="74.432" y="30.496117" style="stroke: #000000; stroke-width: 0.8"/>
      </g>
     </g>
     <g id="text_11">
      <!-- 0.001 -->
      <g transform="translate(38.803875 34.295336) scale(0.1 -0.1)">
       <use xlink:href="#DejaVuSans-30"/>
       <use xlink:href="#DejaVuSans-2e" x="63.623047"/>
       <use xlink:href="#DejaVuSans-30" x="95.410156"/>
       <use xlink:href="#DejaVuSans-30" x="159.033203"/>
       <use xlink:href="#DejaVuSans-31" x="222.65625"/>
      </g>
     </g>
    </g>
    <g id="text_12">
     <!-- d$T_C = T / \rho V^2 D^2$ / d$\delta_e$ -->
     <g transform="translate(24.324188 141.37) rotate(-90) scale(0.1 -0.1)">
      <defs>
       <path id="DejaVuSans-64" d="M 2906 2969 
L 2906 4863 
L 3481 4863 
L 3481 0 
L 2906 0 
L 2906 525 
Q 2725 213 2448 61 
Q 2172 -91 1784 -91 
Q 1150 -91 751 415 
Q 353 922 353 1747 
Q 353 2572 751 3078 
Q 1150 3584 1784 3584 
Q 2172 3584 2448 3432 
Q 2725 3281 2906 2969 
z
M 947 1747 
Q 947 1113 1208 752 
Q 1469 391 1925 391 
Q 2381 391 2643 752 
Q 2906 1113 2906 1747 
Q 2906 2381 2643 2742 
Q 2381 3103 1925 3103 
Q 1469 3103 1208 2742 
Q 947 2381 947 1747 
z
" transform="scale(0.015625)"/>
       <path id="DejaVuSans-Oblique-54" d="M 378 4666 
L 4325 4666 
L 4225 4134 
L 2559 4134 
L 1759 0 
L 1125 0 
L 1925 4134 
L 275 4134 
L 378 4666 
z
" transform="scale(0.015625)"/>
       <path id="DejaVuSans-Oblique-43" d="M 4447 4306 
L 4319 3641 
Q 4019 3944 3683 4091 
Q 3347 4238 2956 4238 
Q 2422 4238 2017 3981 
Q 1613 3725 1319 3200 
Q 1131 2863 1032 2486 
Q 934 2109 934 1728 
Q 934 1091 1264 756 
Q 1594 422 2222 422 
Q 2656 422 3056 561 
Q 3456 700 3834 978 
L 3688 231 
Q 3316 72 2936 -9 
Q 2556 -91 2175 -91 
Q 1278 -91 773 396 
Q 269 884 269 1753 
Q 269 2309 461 2846 
Q 653 3384 1013 3828 
Q 1394 4300 1883 4525 
Q 2372 4750 3022 4750 
Q 3422 4750 3780 4639 
Q 4138 4528 4447 4306 
z
" transform="scale(0.015625)"/>
       <path id="DejaVuSans-3d" d="M 678 2906 
L 4684 2906 
L 4684 2381 
L 678 2381 
L 678 2906 
z
M 678 1631 
L 4684 1631 
L 4684 1100 
L 678 1100 
L 678 1631 
z
" transform="scale(0.015625)"/>
       <path id="DejaVuSans-2f" d="M 1625 4666 
L 2156 4666 
L 531 -594 
L 0 -594 
L 1625 4666 
z
" transform="scale(0.015625)"/>
       <path id="DejaVuSans-Oblique-3c1" d="M 1203 2875 
Q 1453 3194 1981 3475 
Q 2188 3584 2756 3584 
Q 3394 3584 3694 3078 
Q 3994 2572 3834 1747 
Q 3672 922 3175 415 
Q 2678 -91 2041 -91 
Q 1656 -91 1409 63 
Q 1163 213 1044 525 
L 681 -1331 
L 103 -1331 
L 697 1716 
Q 838 2438 1203 2875 
z
M 3238 1747 
Q 3359 2381 3169 2744 
Q 2978 3103 2522 3103 
Q 2066 3103 1734 2744 
Q 1403 2381 1281 1747 
Q 1156 1113 1347 750 
Q 1538 391 1994 391 
Q 2450 391 2781 750 
Q 3113 1113 3238 1747 
z
" transform="scale(0.015625)"/>
       <path id="DejaVuSans-Oblique-56" d="M 1319 0 
L 500 4666 
L 1119 4666 
L 1797 653 
L 4063 4666 
L 4750 4666 
L 2053 0 
L 1319 0 
z
" transform="scale(0.015625)"/>
       <path id="DejaVuSans-Oblique-44" d="M 1081 4666 
L 2438 4666 
Q 3519 4666 4070 4208 
Q 4622 3750 4622 2847 
Q 4622 2250 4412 1698 
Q 4203 1147 3834 769 
Q 3463 381 2891 190 
Q 2319 0 1538 0 
L 172 0 
L 1081 4666 
z
M 1613 4147 
L 909 519 
L 1734 519 
Q 2794 519 3375 1128 
Q 3956 1738 3956 2847 
Q 3956 3519 3581 3833 
Q 3206 4147 2406 4147 
L 1613 4147 
z
" transform="scale(0.015625)"/>
       <path id="DejaVuSans-20" transform="scale(0.015625)"/>
       <path id="DejaVuSans-Oblique-3b4" d="M 3472 4053 
Q 3197 4272 2450 4272 
Q 1659 4272 1588 3906 
Q 1531 3619 2328 3469 
Q 2953 3353 3253 3003 
Q 3616 2581 3447 1716 
Q 3284 888 2763 400 
Q 2238 -91 1488 -91 
Q 741 -91 406 400 
Q 72 888 241 1747 
Q 363 2384 891 2900 
Q 1097 3100 1353 3213 
Q 913 3459 1000 3900 
Q 1166 4750 2544 4750 
Q 3234 4750 3566 4531 
L 3472 4053 
z
M 1753 3056 
Q 1525 2966 1306 2738 
Q 969 2384 847 1747 
Q 722 1113 919 756 
Q 1119 397 1584 397 
Q 2044 397 2381 759 
Q 2722 1122 2838 1716 
Q 2956 2338 2731 2638 
Q 2491 2959 2103 2994 
Q 1906 3013 1753 3056 
z
" transform="scale(0.015625)"/>
       <path id="DejaVuSans-Oblique-65" d="M 3078 2063 
Q 3088 2113 3092 2166 
Q 3097 2219 3097 2272 
Q 3097 2653 2873 2875 
Q 2650 3097 2266 3097 
Q 1838 3097 1509 2826 
Q 1181 2556 1013 2059 
L 3078 2063 
z
M 3578 1613 
L 903 1613 
Q 884 1494 878 1425 
Q 872 1356 872 1306 
Q 872 872 1139 634 
Q 1406 397 1894 397 
Q 2269 397 2603 481 
Q 2938 566 3225 728 
L 3116 159 
Q 2806 34 2476 -28 
Q 2147 -91 1806 -91 
Q 1078 -91 686 257 
Q 294 606 294 1247 
Q 294 1794 489 2264 
Q 684 2734 1063 3103 
Q 1306 3334 1642 3459 
Q 1978 3584 2356 3584 
Q 2950 3584 3301 3228 
Q 3653 2872 3653 2272 
Q 3653 2128 3634 1964 
Q 3616 1800 3578 1613 
z
" transform="scale(0.015625)"/>
      </defs>
      <use xlink:href="#DejaVuSans-64" transform="translate(0 0.765625)"/>
      <use xlink:href="#DejaVuSans-Oblique-54" transform="translate(63.476562 0.765625)"/>
      <use xlink:href="#DejaVuSans-Oblique-43" transform="translate(124.560547 -15.640625) scale(0.7)"/>
      <use xlink:href="#DejaVuSans-3d" transform="translate(195.654297 0.765625)"/>
      <use xlink:href="#DejaVuSans-Oblique-54" transform="translate(298.925781 0.765625)"/>
      <use xlink:href="#DejaVuSans-2f" transform="translate(360.009766 0.765625)"/>
      <use xlink:href="#DejaVuSans-Oblique-3c1" transform="translate(393.701172 0.765625)"/>
      <use xlink:href="#DejaVuSans-Oblique-56" transform="translate(457.177734 0.765625)"/>
      <use xlink:href="#DejaVuSans-32" transform="translate(532.602708 39.046875) scale(0.7)"/>
      <use xlink:href="#DejaVuSans-Oblique-44" transform="translate(579.873216 0.765625)"/>
      <use xlink:href="#DejaVuSans-32" transform="translate(663.89194 39.046875) scale(0.7)"/>
      <use xlink:href="#DejaVuSans-20" transform="translate(711.162448 0.765625)"/>
      <use xlink:href="#DejaVuSans-2f" transform="translate(742.949557 0.765625)"/>
      <use xlink:href="#DejaVuSans-20" transform="translate(776.640964 0.765625)"/>
      <use xlink:href="#DejaVuSans-64" transform="translate(808.428073 0.765625)"/>
      <use xlink:href="#DejaVuSans-Oblique-3b4" transform="translate(871.904635 0.765625)"/>
      <use xlink:href="#DejaVuSans-Oblique-65" transform="translate(933.086276 -15.640625) scale(0.7)"/>
     </g>
    </g>
   </g>
   <g id="line2d_21">
    <path d="M 84.96942 20.976034 
L 87.098192 22.18817 
L 89.226964 23.396853 
L 91.355736 24.602084 
L 93.484507 25.803862 
L 95.613279 27.002188 
L 97.742051 28.197061 
L 99.870823 29.388482 
L 101.999595 30.57645 
L 104.128366 31.760966 
L 106.257138 32.94203 
L 108.38591 34.119641 
L 110.514682 35.293799 
L 112.643454 36.464505 
L 114.772225 37.631758 
L 116.900997 38.795559 
L 119.029769 39.955908 
L 121.158541 41.112804 
L 123.287312 42.266247 
L 125.416084 43.416238 
L 127.544856 44.562777 
L 129.673628 45.705863 
L 131.8024 46.845497 
L 133.931171 47.981678 
L 136.059943 49.114407 
L 138.188715 50.243683 
L 140.317487 51.369506 
L 142.446259 52.491878 
L 144.57503 53.610796 
L 146.703802 54.726263 
L 148.832574 55.838276 
L 150.961346 56.946838 
L 153.090117 58.051946 
L 155.218889 59.153603 
L 157.347661 60.251806 
L 159.476433 61.346558 
L 161.605205 62.437857 
L 163.733976 63.525703 
L 165.862748 64.610097 
L 167.99152 65.691038 
L 170.120292 66.768527 
L 172.249064 67.842564 
L 174.377835 68.913148 
L 176.506607 69.980279 
L 178.635379 71.043958 
L 180.764151 72.104185 
L 182.892922 73.160959 
L 185.021694 74.21428 
L 187.150466 75.264149 
L 189.279238 76.310566 
L 191.40801 77.35353 
L 193.536781 78.393042 
L 195.665553 79.429101 
L 197.794325 80.461708 
L 199.923097 81.490862 
L 202.051869 82.516563 
L 204.18064 83.538813 
L 206.309412 84.557609 
L 208.438184 85.572954 
L 210.566956 86.584845 
L 212.695727 87.593285 
L 214.824499 88.598272 
L 216.953271 89.599806 
L 219.082043 90.597888 
L 221.210815 91.592517 
L 223.339586 92.583694 
L 225.468358 93.571418 
L 227.59713 94.55569 
L 229.725902 95.53651 
L 231.854674 96.513877 
L 233.983445 97.487791 
L 236.112217 98.458253 
L 238.240989 99.425263 
L 240.369761 100.38882 
L 242.498532 101.348924 
L 244.627304 102.305576 
L 246.756076 103.258776 
L 248.884848 104.208523 
L 251.01362 105.154818 
L 253.142391 106.09766 
L 255.271163 107.037049 
L 257.399935 107.972986 
L 259.528707 108.905471 
L 261.657479 109.834503 
L 263.78625 110.760083 
L 265.915022 111.68221 
L 268.043794 112.600885 
L 270.172566 113.516107 
L 272.301337 114.427877 
L 274.430109 115.336194 
L 276.558881 116.241059 
L 278.687653 117.142472 
L 280.816425 118.040431 
L 282.945196 118.934939 
L 285.073968 119.825994 
L 287.20274 120.713596 
L 289.331512 121.597746 
L 291.460284 122.478444 
L 293.589055 123.355689 
L 295.717827 124.229481 
" clip-path="url(#pb2effa6fbb)" style="fill: none; stroke: #000080; stroke-width: 1.5; stroke-linecap: square"/>
   </g>
   <g id="line2d_22">
    <path d="M 84.96942 19.668724 
L 87.098192 21.126459 
L 89.226964 22.577531 
L 91.355736 24.02194 
L 93.484507 25.459686 
L 95.613279 26.890768 
L 97.742051 28.315188 
L 99.870823 29.732945 
L 101.999595 31.144038 
L 104.128366 32.548469 
L 106.257138 33.946237 
L 108.38591 35.337341 
L 110.514682 36.721783 
L 112.643454 38.099561 
L 114.772225 39.470676 
L 116.900997 40.835129 
L 119.029769 42.192918 
L 121.158541 43.544044 
L 123.287312 44.888508 
L 125.416084 46.226308 
L 127.544856 47.557445 
L 129.673628 48.881919 
L 131.8024 50.19973 
L 133.931171 51.510879 
L 136.059943 52.815364 
L 138.188715 54.113186 
L 140.317487 55.404345 
L 142.446259 56.68884 
L 144.57503 57.966673 
L 146.703802 59.237843 
L 148.832574 60.50235 
L 150.961346 61.760194 
L 153.090117 63.011375 
L 155.218889 64.255892 
L 157.347661 65.493747 
L 159.476433 66.724939 
L 161.605205 67.949467 
L 163.733976 69.167333 
L 165.862748 70.378535 
L 167.99152 71.583075 
L 170.120292 72.780951 
L 172.249064 73.972165 
L 174.377835 75.156715 
L 176.506607 76.334602 
L 178.635379 77.505826 
L 180.764151 78.670388 
L 182.892922 79.828286 
L 185.021694 80.979521 
L 187.150466 82.124093 
L 189.279238 83.262002 
L 191.40801 84.393248 
L 193.536781 85.517831 
L 195.665553 86.635751 
L 197.794325 87.747008 
L 199.923097 88.851602 
L 202.051869 89.949533 
L 204.18064 91.040801 
L 206.309412 92.125406 
L 208.438184 93.203348 
L 210.566956 94.274626 
L 212.695727 95.339242 
L 214.824499 96.397195 
L 216.953271 97.448484 
L 219.082043 98.493111 
L 221.210815 99.531074 
L 223.339586 100.562375 
L 225.468358 101.587012 
L 227.59713 102.604987 
L 229.725902 103.616298 
L 231.854674 104.620946 
L 233.983445 105.618932 
L 236.112217 106.610254 
L 238.240989 107.594913 
L 240.369761 108.572909 
L 242.498532 109.544243 
L 244.627304 110.508913 
L 246.756076 111.46692 
L 248.884848 112.418264 
L 251.01362 113.362945 
L 253.142391 114.300963 
L 255.271163 115.232318 
L 257.399935 116.15701 
L 259.528707 117.075038 
L 261.657479 117.986404 
L 263.78625 118.891107 
L 265.915022 119.789147 
L 268.043794 120.680524 
L 270.172566 121.565237 
L 272.301337 122.443288 
L 274.430109 123.314675 
L 276.558881 124.1794 
L 278.687653 125.037461 
L 280.816425 125.88886 
L 282.945196 126.733595 
L 285.073968 127.571668 
L 287.20274 128.403077 
L 289.331512 129.227824 
L 291.460284 130.045907 
L 293.589055 130.857327 
L 295.717827 131.662084 
" clip-path="url(#pb2effa6fbb)" style="fill: none; stroke: #0080ff; stroke-width: 1.5; stroke-linecap: square"/>
   </g>
   <g id="line2d_23">
    <path d="M 84.96942 18.773615 
L 87.098192 20.321857 
L 89.226964 21.863741 
L 91.355736 23.399266 
L 93.484507 24.928433 
L 95.613279 26.451242 
L 97.742051 27.967692 
L 99.870823 29.477783 
L 101.999595 30.981516 
L 104.128366 32.478891 
L 106.257138 33.969907 
L 108.38591 35.454564 
L 110.514682 36.932863 
L 112.643454 38.404804 
L 114.772225 39.870386 
L 116.900997 41.32961 
L 119.029769 42.782475 
L 121.158541 44.228982 
L 123.287312 45.669131 
L 125.416084 47.102921 
L 127.544856 48.530352 
L 129.673628 49.951425 
L 131.8024 51.36614 
L 133.931171 52.774496 
L 136.059943 54.176493 
L 138.188715 55.572133 
L 140.317487 56.961413 
L 142.446259 58.344336 
L 144.57503 59.720899 
L 146.703802 61.091105 
L 148.832574 62.454952 
L 150.961346 63.81244 
L 153.090117 65.16357 
L 155.218889 66.508341 
L 157.347661 67.846755 
L 159.476433 69.178809 
L 161.605205 70.504505 
L 163.733976 71.823843 
L 165.862748 73.136822 
L 167.99152 74.443443 
L 170.120292 75.743705 
L 172.249064 77.037609 
L 174.377835 78.325154 
L 176.506607 79.606341 
L 178.635379 80.88117 
L 180.764151 82.14964 
L 182.892922 83.411751 
L 185.021694 84.667504 
L 187.150466 85.916899 
L 189.279238 87.159935 
L 191.40801 88.396613 
L 193.536781 89.626932 
L 195.665553 90.850893 
L 197.794325 92.068495 
L 199.923097 93.279739 
L 202.051869 94.484624 
L 204.18064 95.683151 
L 206.309412 96.875319 
L 208.438184 98.061129 
L 210.566956 99.240581 
L 212.695727 100.413674 
L 214.824499 101.580409 
L 216.953271 102.740785 
L 219.082043 103.894802 
L 221.210815 105.042462 
L 223.339586 106.183762 
L 225.468358 107.318705 
L 227.59713 108.447289 
L 229.725902 109.569514 
L 231.854674 110.685381 
L 233.983445 111.794889 
L 236.112217 112.898039 
L 238.240989 113.994831 
L 240.369761 115.085264 
L 242.498532 116.169339 
L 244.627304 117.247055 
L 246.756076 118.318413 
L 248.884848 119.383412 
L 251.01362 120.442053 
L 253.142391 121.494335 
L 255.271163 122.540259 
L 257.399935 123.579824 
L 259.528707 124.613031 
L 261.657479 125.63988 
L 263.78625 126.66037 
L 265.915022 127.674501 
L 268.043794 128.682275 
L 270.172566 129.683689 
L 272.301337 130.678745 
L 274.430109 131.667443 
L 276.558881 132.649782 
L 278.687653 133.625763 
L 280.816425 134.595386 
L 282.945196 135.558649 
L 285.073968 136.515555 
L 287.20274 137.466102 
L 289.331512 138.41029 
L 291.460284 139.34812 
L 293.589055 140.279592 
L 295.717827 141.204705 
" clip-path="url(#pb2effa6fbb)" style="fill: none; stroke: #7dff7a; stroke-width: 1.5; stroke-linecap: square"/>
   </g>
   <g id="line2d_24">
    <path d="M 84.96942 18.290707 
L 87.098192 19.774365 
L 89.226964 21.255484 
L 91.355736 22.734064 
L 93.484507 24.210105 
L 95.613279 25.683608 
L 97.742051 27.154572 
L 99.870823 28.622997 
L 101.999595 30.088883 
L 104.128366 31.552231 
L 106.257138 33.01304 
L 108.38591 34.47131 
L 110.514682 35.927042 
L 112.643454 37.380234 
L 114.772225 38.830888 
L 116.900997 40.279003 
L 119.029769 41.72458 
L 121.158541 43.167617 
L 123.287312 44.608116 
L 125.416084 46.046077 
L 127.544856 47.481498 
L 129.673628 48.914381 
L 131.8024 50.344725 
L 133.931171 51.77253 
L 136.059943 53.197796 
L 138.188715 54.620524 
L 140.317487 56.040713 
L 142.446259 57.458363 
L 144.57503 58.873474 
L 146.703802 60.286047 
L 148.832574 61.696081 
L 150.961346 63.103576 
L 153.090117 64.508533 
L 155.218889 65.91095 
L 157.347661 67.310829 
L 159.476433 68.70817 
L 161.605205 70.102971 
L 163.733976 71.495234 
L 165.862748 72.884958 
L 167.99152 74.272143 
L 170.120292 75.656789 
L 172.249064 77.038897 
L 174.377835 78.418466 
L 176.506607 79.795496 
L 178.635379 81.169988 
L 180.764151 82.54194 
L 182.892922 83.911354 
L 185.021694 85.278229 
L 187.150466 86.642566 
L 189.279238 88.004364 
L 191.40801 89.363622 
L 193.536781 90.720343 
L 195.665553 92.074524 
L 197.794325 93.426167 
L 199.923097 94.775271 
L 202.051869 96.121836 
L 204.18064 97.465862 
L 206.309412 98.80735 
L 208.438184 100.146299 
L 210.566956 101.482709 
L 212.695727 102.816581 
L 214.824499 104.147914 
L 216.953271 105.476708 
L 219.082043 106.802963 
L 221.210815 108.126679 
L 223.339586 109.447857 
L 225.468358 110.766496 
L 227.59713 112.082596 
L 229.725902 113.396158 
L 231.854674 114.70718 
L 233.983445 116.015664 
L 236.112217 117.32161 
L 238.240989 118.625016 
L 240.369761 119.925884 
L 242.498532 121.224213 
L 244.627304 122.520003 
L 246.756076 123.813254 
L 248.884848 125.103967 
L 251.01362 126.392141 
L 253.142391 127.677776 
L 255.271163 128.960873 
L 257.399935 130.241431 
L 259.528707 131.51945 
L 261.657479 132.79493 
L 263.78625 134.067871 
L 265.915022 135.338274 
L 268.043794 136.606138 
L 270.172566 137.871463 
L 272.301337 139.13425 
L 274.430109 140.394498 
L 276.558881 141.652207 
L 278.687653 142.907377 
L 280.816425 144.160008 
L 282.945196 145.410101 
L 285.073968 146.657655 
L 287.20274 147.90267 
L 289.331512 149.145147 
L 291.460284 150.385085 
L 293.589055 151.622484 
L 295.717827 152.857344 
" clip-path="url(#pb2effa6fbb)" style="fill: none; stroke: #ff9400; stroke-width: 1.5; stroke-linecap: square"/>
   </g>
   <g id="line2d_25">
    <path d="M 84.96942 18.22 
L 87.098192 19.483981 
L 89.226964 20.752759 
L 91.355736 22.026332 
L 93.484507 23.304701 
L 95.613279 24.587867 
L 97.742051 25.875829 
L 99.870823 27.168587 
L 101.999595 28.466141 
L 104.128366 29.768491 
L 106.257138 31.075637 
L 108.38591 32.387579 
L 110.514682 33.704317 
L 112.643454 35.025851 
L 114.772225 36.352182 
L 116.900997 37.683308 
L 119.029769 39.019231 
L 121.158541 40.35995 
L 123.287312 41.705465 
L 125.416084 43.055776 
L 127.544856 44.410883 
L 129.673628 45.770786 
L 131.8024 47.135485 
L 133.931171 48.50498 
L 136.059943 49.879272 
L 138.188715 51.258359 
L 140.317487 52.642243 
L 142.446259 54.030923 
L 144.57503 55.424398 
L 146.703802 56.82267 
L 148.832574 58.225738 
L 150.961346 59.633602 
L 153.090117 61.046263 
L 155.218889 62.463719 
L 157.347661 63.885971 
L 159.476433 65.31302 
L 161.605205 66.744864 
L 163.733976 68.181505 
L 165.862748 69.622942 
L 167.99152 71.069175 
L 170.120292 72.520204 
L 172.249064 73.976029 
L 174.377835 75.43665 
L 176.506607 76.902067 
L 178.635379 78.37228 
L 180.764151 79.84729 
L 182.892922 81.327095 
L 185.021694 82.811697 
L 187.150466 84.301095 
L 189.279238 85.795288 
L 191.40801 87.294278 
L 193.536781 88.798064 
L 195.665553 90.306646 
L 197.794325 91.820025 
L 199.923097 93.338199 
L 202.051869 94.861169 
L 204.18064 96.388936 
L 206.309412 97.921498 
L 208.438184 99.458857 
L 210.566956 101.001012 
L 212.695727 102.547962 
L 214.824499 104.099709 
L 216.953271 105.656252 
L 219.082043 107.217592 
L 221.210815 108.783727 
L 223.339586 110.354658 
L 225.468358 111.930386 
L 227.59713 113.510909 
L 229.725902 115.096229 
L 231.854674 116.686344 
L 233.983445 118.281256 
L 236.112217 119.880964 
L 238.240989 121.485468 
L 240.369761 123.094768 
L 242.498532 124.708864 
L 244.627304 126.327757 
L 246.756076 127.951445 
L 248.884848 129.57993 
L 251.01362 131.21321 
L 253.142391 132.851287 
L 255.271163 134.49416 
L 257.399935 136.141828 
L 259.528707 137.794293 
L 261.657479 139.451554 
L 263.78625 141.113612 
L 265.915022 142.780465 
L 268.043794 144.452114 
L 270.172566 146.128559 
L 272.301337 147.809801 
L 274.430109 149.495839 
L 276.558881 151.186672 
L 278.687653 152.882302 
L 280.816425 154.582728 
L 282.945196 156.28795 
L 285.073968 157.997968 
L 287.20274 159.712782 
L 289.331512 161.432393 
L 291.460284 163.156799 
L 293.589055 164.886001 
L 295.717827 166.62 
" clip-path="url(#pb2effa6fbb)" style="fill: none; stroke: #800000; stroke-width: 1.5; stroke-linecap: square"/>
   </g>
   <g id="patch_3">
    <path d="M 74.432 174.04 
L 74.432 10.8 
" style="fill: none; stroke: #000000; stroke-width: 0.8; stroke-linejoin: miter; stroke-linecap: square"/>
   </g>
   <g id="patch_4">
    <path d="M 306.255247 174.04 
L 306.255247 10.8 
" style="fill: none; stroke: #000000; stroke-width: 0.8; stroke-linejoin: miter; stroke-linecap: square"/>
   </g>
   <g id="patch_5">
    <path d="M 74.432 174.04 
L 306.255247 174.04 
" style="fill: none; stroke: #000000; stroke-width: 0.8; stroke-linejoin: miter; stroke-linecap: square"/>
   </g>
   <g id="patch_6">
    <path d="M 74.432 10.8 
L 306.255247 10.8 
" style="fill: none; stroke: #000000; stroke-width: 0.8; stroke-linejoin: miter; stroke-linecap: square"/>
   </g>
   <g id="legend_1">
    <g id="patch_7">
     <path d="M 315.255247 162.878 
L 420.455247 162.878 
Q 422.455247 162.878 422.455247 160.878 
L 422.455247 88.385812 
Q 422.455247 86.385812 420.455247 86.385812 
L 315.255247 86.385812 
Q 313.255247 86.385812 313.255247 88.385812 
L 313.255247 160.878 
Q 313.255247 162.878 315.255247 162.878 
z
" style="fill: #4d4d4d; opacity: 0.5; stroke: #4d4d4d; stroke-linejoin: miter"/>
    </g>
    <g id="patch_8">
     <path d="M 313.255247 160.878 
L 418.455247 160.878 
Q 420.455247 160.878 420.455247 158.878 
L 420.455247 86.385812 
Q 420.455247 84.385812 418.455247 84.385812 
L 313.255247 84.385812 
Q 311.255247 84.385812 311.255247 86.385812 
L 311.255247 158.878 
Q 311.255247 160.878 313.255247 160.878 
z
" style="fill: #ffffff; stroke: #cccccc; stroke-linejoin: miter"/>
    </g>
    <g id="line2d_26">
     <path d="M 315.255247 92.48425 
L 325.255247 92.48425 
L 335.255247 92.48425 
" style="fill: none; stroke: #000080; stroke-width: 1.5; stroke-linecap: square"/>
    </g>
    <g id="text_13">
     <!-- $\delta_e = 0$, $J = 1.60$ -->
     <g transform="translate(343.255247 95.98425) scale(0.1 -0.1)">
      <defs>
       <path id="DejaVuSans-2c" d="M 750 794 
L 1409 794 
L 1409 256 
L 897 -744 
L 494 -744 
L 750 256 
L 750 794 
z
" transform="scale(0.015625)"/>
       <path id="DejaVuSans-Oblique-4a" d="M 1069 4666 
L 1703 4666 
L 856 325 
Q 691 -522 298 -901 
Q -94 -1281 -800 -1281 
L -1050 -1281 
L -947 -750 
L -750 -750 
Q -328 -750 -109 -509 
Q 109 -269 225 325 
L 1069 4666 
z
" transform="scale(0.015625)"/>
      </defs>
      <use xlink:href="#DejaVuSans-Oblique-3b4" transform="translate(0 0.78125)"/>
      <use xlink:href="#DejaVuSans-Oblique-65" transform="translate(61.181641 -15.625) scale(0.7)"/>
      <use xlink:href="#DejaVuSans-3d" transform="translate(126.464844 0.78125)"/>
      <use xlink:href="#DejaVuSans-30" transform="translate(229.736328 0.78125)"/>
      <use xlink:href="#DejaVuSans-2c" transform="translate(293.359375 0.78125)"/>
      <use xlink:href="#DejaVuSans-20" transform="translate(325.146484 0.78125)"/>
      <use xlink:href="#DejaVuSans-Oblique-4a" transform="translate(356.933594 0.78125)"/>
      <use xlink:href="#DejaVuSans-3d" transform="translate(405.908203 0.78125)"/>
      <use xlink:href="#DejaVuSans-31" transform="translate(509.179688 0.78125)"/>
      <use xlink:href="#DejaVuSans-2e" transform="translate(572.802734 0.78125)"/>
      <use xlink:href="#DejaVuSans-36" transform="translate(604.589844 0.78125)"/>
      <use xlink:href="#DejaVuSans-30" transform="translate(668.212891 0.78125)"/>
     </g>
    </g>
    <g id="line2d_27">
     <path d="M 315.255247 107.182688 
L 325.255247 107.182688 
L 335.255247 107.182688 
" style="fill: none; stroke: #0080ff; stroke-width: 1.5; stroke-linecap: square"/>
    </g>
    <g id="text_14">
     <!-- $\delta_e = 0$, $J = 1.80$ -->
     <g transform="translate(343.255247 110.682688) scale(0.1 -0.1)">
      <defs>
       <path id="DejaVuSans-38" d="M 2034 2216 
Q 1584 2216 1326 1975 
Q 1069 1734 1069 1313 
Q 1069 891 1326 650 
Q 1584 409 2034 409 
Q 2484 409 2743 651 
Q 3003 894 3003 1313 
Q 3003 1734 2745 1975 
Q 2488 2216 2034 2216 
z
M 1403 2484 
Q 997 2584 770 2862 
Q 544 3141 544 3541 
Q 544 4100 942 4425 
Q 1341 4750 2034 4750 
Q 2731 4750 3128 4425 
Q 3525 4100 3525 3541 
Q 3525 3141 3298 2862 
Q 3072 2584 2669 2484 
Q 3125 2378 3379 2068 
Q 3634 1759 3634 1313 
Q 3634 634 3220 271 
Q 2806 -91 2034 -91 
Q 1263 -91 848 271 
Q 434 634 434 1313 
Q 434 1759 690 2068 
Q 947 2378 1403 2484 
z
M 1172 3481 
Q 1172 3119 1398 2916 
Q 1625 2713 2034 2713 
Q 2441 2713 2670 2916 
Q 2900 3119 2900 3481 
Q 2900 3844 2670 4047 
Q 2441 4250 2034 4250 
Q 1625 4250 1398 4047 
Q 1172 3844 1172 3481 
z
" transform="scale(0.015625)"/>
      </defs>
      <use xlink:href="#DejaVuSans-Oblique-3b4" transform="translate(0 0.78125)"/>
      <use xlink:href="#DejaVuSans-Oblique-65" transform="translate(61.181641 -15.625) scale(0.7)"/>
      <use xlink:href="#DejaVuSans-3d" transform="translate(126.464844 0.78125)"/>
      <use xlink:href="#DejaVuSans-30" transform="translate(229.736328 0.78125)"/>
      <use xlink:href="#DejaVuSans-2c" transform="translate(293.359375 0.78125)"/>
      <use xlink:href="#DejaVuSans-20" transform="translate(325.146484 0.78125)"/>
      <use xlink:href="#DejaVuSans-Oblique-4a" transform="translate(356.933594 0.78125)"/>
      <use xlink:href="#DejaVuSans-3d" transform="translate(405.908203 0.78125)"/>
      <use xlink:href="#DejaVuSans-31" transform="translate(509.179688 0.78125)"/>
      <use xlink:href="#DejaVuSans-2e" transform="translate(572.802734 0.78125)"/>
      <use xlink:href="#DejaVuSans-38" transform="translate(601.964844 0.78125)"/>
      <use xlink:href="#DejaVuSans-30" transform="translate(665.587891 0.78125)"/>
     </g>
    </g>
    <g id="line2d_28">
     <path d="M 315.255247 121.881125 
L 325.255247 121.881125 
L 335.255247 121.881125 
" style="fill: none; stroke: #7dff7a; stroke-width: 1.5; stroke-linecap: square"/>
    </g>
    <g id="text_15">
     <!-- $\delta_e = 0$, $J = 2.00$ -->
     <g transform="translate(343.255247 125.381125) scale(0.1 -0.1)">
      <use xlink:href="#DejaVuSans-Oblique-3b4" transform="translate(0 0.78125)"/>
      <use xlink:href="#DejaVuSans-Oblique-65" transform="translate(61.181641 -15.625) scale(0.7)"/>
      <use xlink:href="#DejaVuSans-3d" transform="translate(126.464844 0.78125)"/>
      <use xlink:href="#DejaVuSans-30" transform="translate(229.736328 0.78125)"/>
      <use xlink:href="#DejaVuSans-2c" transform="translate(293.359375 0.78125)"/>
      <use xlink:href="#DejaVuSans-20" transform="translate(325.146484 0.78125)"/>
      <use xlink:href="#DejaVuSans-Oblique-4a" transform="translate(356.933594 0.78125)"/>
      <use xlink:href="#DejaVuSans-3d" transform="translate(405.908203 0.78125)"/>
      <use xlink:href="#DejaVuSans-32" transform="translate(509.179688 0.78125)"/>
      <use xlink:href="#DejaVuSans-2e" transform="translate(572.802734 0.78125)"/>
      <use xlink:href="#DejaVuSans-30" transform="translate(604.589844 0.78125)"/>
      <use xlink:href="#DejaVuSans-30" transform="translate(668.212891 0.78125)"/>
     </g>
    </g>
    <g id="line2d_29">
     <path d="M 315.255247 136.579563 
L 325.255247 136.579563 
L 335.255247 136.579563 
" style="fill: none; stroke: #ff9400; stroke-width: 1.5; stroke-linecap: square"/>
    </g>
    <g id="text_16">
     <!-- $\delta_e = 0$, $J = 2.20$ -->
     <g transform="translate(343.255247 140.079563) scale(0.1 -0.1)">
      <use xlink:href="#DejaVuSans-Oblique-3b4" transform="translate(0 0.78125)"/>
      <use xlink:href="#DejaVuSans-Oblique-65" transform="translate(61.181641 -15.625) scale(0.7)"/>
      <use xlink:href="#DejaVuSans-3d" transform="translate(126.464844 0.78125)"/>
      <use xlink:href="#DejaVuSans-30" transform="translate(229.736328 0.78125)"/>
      <use xlink:href="#DejaVuSans-2c" transform="translate(293.359375 0.78125)"/>
      <use xlink:href="#DejaVuSans-20" transform="translate(325.146484 0.78125)"/>
      <use xlink:href="#DejaVuSans-Oblique-4a" transform="translate(356.933594 0.78125)"/>
      <use xlink:href="#DejaVuSans-3d" transform="translate(405.908203 0.78125)"/>
      <use xlink:href="#DejaVuSans-32" transform="translate(509.179688 0.78125)"/>
      <use xlink:href="#DejaVuSans-2e" transform="translate(572.802734 0.78125)"/>
      <use xlink:href="#DejaVuSans-32" transform="translate(599.089844 0.78125)"/>
      <use xlink:href="#DejaVuSans-30" transform="translate(662.712891 0.78125)"/>
     </g>
    </g>
    <g id="line2d_30">
     <path d="M 315.255247 151.278 
L 325.255247 151.278 
L 335.255247 151.278 
" style="fill: none; stroke: #800000; stroke-width: 1.5; stroke-linecap: square"/>
    </g>
    <g id="text_17">
     <!-- $\delta_e = 0$, $J = 2.40$ -->
     <g transform="translate(343.255247 154.778) scale(0.1 -0.1)">
      <use xlink:href="#DejaVuSans-Oblique-3b4" transform="translate(0 0.78125)"/>
      <use xlink:href="#DejaVuSans-Oblique-65" transform="translate(61.181641 -15.625) scale(0.7)"/>
      <use xlink:href="#DejaVuSans-3d" transform="translate(126.464844 0.78125)"/>
      <use xlink:href="#DejaVuSans-30" transform="translate(229.736328 0.78125)"/>
      <use xlink:href="#DejaVuSans-2c" transform="translate(293.359375 0.78125)"/>
      <use xlink:href="#DejaVuSans-20" transform="translate(325.146484 0.78125)"/>
      <use xlink:href="#DejaVuSans-Oblique-4a" transform="translate(356.933594 0.78125)"/>
      <use xlink:href="#DejaVuSans-3d" transform="translate(405.908203 0.78125)"/>
      <use xlink:href="#DejaVuSans-32" transform="translate(509.179688 0.78125)"/>
      <use xlink:href="#DejaVuSans-2e" transform="translate(572.802734 0.78125)"/>
      <use xlink:href="#DejaVuSans-34" transform="translate(604.589844 0.78125)"/>
      <use xlink:href="#DejaVuSans-30" transform="translate(668.212891 0.78125)"/>
     </g>
    </g>
   </g>
  </g>
 </g>
 <defs>
  <clipPath id="pb2effa6fbb">
   <rect x="74.432" y="10.8" width="231.823247" height="163.24"/>
  </clipPath>
 </defs>
</svg>
